<?xml version="1.0"?>
<svg width="1403" height="1044" version="1.1" xmlns="http://www.w3.org/2000/svg" >
<defs>
<style type="text/css"><![CDATA[
.m {stroke:rgb(255,0,0);stroke-width:1.753750;}
.v {stroke:rgb(0,0,255);stroke-width:1.753750;}
.b {stroke:rgb(0,0,0);stroke-width:3.507500;fill:white}
.n {stroke:rgb(128,128,128);stroke-width:1.753750}
.t {stroke:rgb(0,128,0);stroke-width:1.753750;}
.c {stroke:rgb(128,128,128);stroke-width:1.753750;stroke-dasharray:14.030000, 14.030000;}
]]></style>
</defs>
<path fill="none" style="stroke:black;stroke-width:3.507500;" d=" M 569.76 731.211 L 561.582 725.832 M 528.336 734.132 L 540.548 749.123 M 561.582 725.832 L 555.4 718.242 M 521.196 716.162 L 528.336 734.132 M 551.074 699.382 L 519.791 696.876 M 519.834 696.171 L 551.19 697.492 M 523.577 677.2 L 557.807 678.774 M 557.779 679.299 L 523.577 677.2 M 532.43 659.226 L 565.027 669.793 M 564.763 671.886 L 532.589 660.093 M 562.492 635.62 L 545.645 645.11 M 565.027 669.793 L 573.555 664.989 M 581.414 631.636 L 562.492 635.62 M 573.555 664.989 L 583.134 662.972 M 600.658 633.525 L 581.414 631.636 M 618.443 641.114 L 600.658 633.525 M 601.879 667.77 L 618.443 641.114 M 592.876 663.929 L 601.879 667.77 M 608.479 678.898 L 633.788 660.34 M 620.115 646.667 L 601.557 671.976 M 712.15 762.074 L 733.185 738.783 M 717.031 728.156 L 703.972 756.694 M 828.418 788.372 L 830.495 822.576 M 718.273 769.711 L 733.366 738.947 M 733.366 738.947 L 712.15 762.074 M 963.768 826.624 L 973.864 859.369 M 973.864 859.369 L 982.915 829.319 M 611.127 714.889 L 644.835 708.721 M 639.767 727.905 L 605.836 723.124 M 605.836 723.124 L 639.803 727.641 M 639.803 727.641 L 611.127 714.889 M 629.072 744.33 L 598.264 729.328 M 598.264 729.328 L 629.188 744.091 M 613.837 756.662 L 589.15 732.898 M 589.15 732.898 L 614.021 756.469 M 594.634 764.465 L 579.178 733.882 M 579.379 733.486 L 595.778 763.573 M 579.178 733.882 L 569.76 731.211 M 555.455 760.956 L 539.806 749.598 M 500.637 749.501 L 517.894 772.066 M 539.806 749.598 L 528.059 734.239 M 490.554 722.943 L 500.637 749.501 M 528.059 734.239 L 521.196 716.162 M 488.489 694.61 L 519.834 696.171 M 493.988 666.739 L 532.43 659.226 M 532.589 660.093 L 493.988 666.739 M 526.074 620.576 L 506.66 641.314 M 550.609 606.256 L 526.074 620.576 M 545.645 645.11 L 562.345 635.363 M 578.215 599.552 L 550.609 606.256 M 562.345 635.363 L 581.135 630.8 M 606.585 601.025 L 578.215 599.552 M 581.135 630.8 L 600.446 631.802 M 633.348 610.549 L 606.585 601.025 M 618.663 638.285 L 633.348 610.549 M 600.446 631.802 L 618.663 638.285 M 633.788 660.34 L 658.954 641.589 M 638.866 621.501 L 620.115 646.667 M 733.185 738.783 L 754.041 715.332 M 730.308 699.719 L 717.031 728.156 M 846.388 795.514 L 862.073 768.331 M 835.673 757.839 L 828.418 788.372 M 982.915 829.319 L 991.735 799.2 M 1083.7 802.703 L 1109.51 832.175 M 1109.51 832.175 L 1112.06 800.895 M 629.188 744.091 L 668.243 741.098 M 668.243 741.098 L 639.767 727.905 M 651.692 766.725 L 613.837 756.662 M 614.021 756.469 L 652.098 765.655 M 652.098 765.655 L 629.072 744.33 M 627.043 786.463 L 594.634 764.465 M 595.778 763.573 L 629.173 784.043 M 599.6 795.751 L 575.306 765.026 M 575.306 765.026 L 600.069 795.375 M 567.688 798.167 L 555.455 760.956 M 556.703 759.749 L 571.195 796.139 M 521.361 817.804 L 516.261 773.04 M 517.894 772.066 L 526.003 816.384 M 516.261 773.04 L 500.036 749.721 M 500.036 749.721 L 490.554 722.943 M 480.69 623.694 L 464.283 656.612 M 505.215 596.284 L 480.69 623.694 M 506.66 641.314 L 525.603 620.144 M 536.114 576.334 L 505.215 596.284 M 525.603 620.144 L 549.468 604.735 M 571.188 565.263 L 536.114 576.334 M 549.468 604.735 L 576.559 596.184 M 607.941 563.859 L 571.188 565.263 M 576.559 596.184 L 604.946 595.099 M 632.61 601.559 L 643.758 572.222 M 604.946 595.099 L 632.61 601.559 M 658.954 641.589 L 683.907 622.555 M 657.9 596.548 L 638.866 621.501 M 754.041 715.332 L 774.632 691.647 M 743.904 671.434 L 730.308 699.719 M 862.073 768.331 L 877.451 740.974 M 843.271 727.389 L 835.673 757.839 M 991.735 799.2 L 1000.22 768.984 M 963.795 763.858 L 963.605 795.241 M 1112.06 800.895 L 1114.25 769.588 M 1077.55 771.93 L 1083.7 802.703 M 671.405 794.323 L 627.043 786.463 M 629.173 784.043 L 673.971 788.829 M 673.971 788.829 L 651.692 766.725 M 639.546 816.586 L 599.6 795.751 M 600.069 795.375 L 640.774 814.683 M 598.02 831.479 L 567.688 798.167 M 571.195 796.139 L 604.211 826.794 M 560.422 829.349 L 540.885 788.753 M 540.885 788.753 L 561.33 828.899 M 502.809 844.425 L 493.12 794.24 M 493.12 794.24 L 504.264 844.122 M 468.19 815.009 L 472.114 764.049 M 472.114 764.049 L 469.674 815.102 M 442.58 777.488 L 459.838 729.379 M 459.838 729.379 L 443.987 777.969 M 427.801 734.531 L 457.164 692.696 M 457.164 692.696 L 429.03 735.367 M 464.283 656.612 L 479.725 623.23 M 480.548 572.126 L 453.011 606.76 M 479.725 623.23 L 502.615 594.442 M 515.487 544.978 L 480.548 572.126 M 502.615 594.442 L 531.658 571.874 M 555.849 526.851 L 515.487 544.978 M 531.658 571.874 L 565.21 556.806 M 599.352 518.771 L 555.849 526.851 M 601.372 550.09 L 599.352 518.771 M 565.21 556.806 L 601.372 550.09 M 643.758 572.222 L 654.478 542.726 M 611.391 532.666 L 607.941 563.859 M 683.907 622.555 L 708.581 603.161 M 677.294 571.874 L 657.9 596.548 M 757.911 643.349 L 743.904 671.434 M 877.451 740.974 L 892.429 713.395 M 851.311 697.053 L 843.271 727.389 M 1000.22 768.984 L 1008.26 738.648 M 964.441 732.481 L 963.795 763.858 M 1114.25 769.588 L 1115.99 738.253 M 1071.84 741.07 L 1077.55 771.93 M 1157.17 733.137 L 1202.69 756.382 M 1202.69 756.382 L 1200.68 725.063 M 640.774 814.683 L 691.763 818.207 M 691.763 818.207 L 671.405 794.323 M 643.18 855.415 L 598.02 831.479 M 651.781 845.486 L 639.546 816.586 M 596.849 865.202 L 560.422 829.349 M 561.33 828.899 L 599.558 862.825 M 543.972 863.641 L 521.361 817.804 M 526.003 816.384 L 552.93 859.826 M 479.485 870.662 L 468.19 815.009 M 469.674 815.102 L 484.506 869.918 M 438.759 834.147 L 442.58 777.488 M 409.137 788.164 L 427.801 734.531 M 395.064 738.033 L 425.87 690.327 M 425.87 690.327 L 396.749 739.079 M 434.434 646.917 L 404.421 637.746 M 404.76 636.703 L 434.434 646.917 M 453.011 606.76 L 479.322 571.186 M 479.322 571.186 L 512.28 541.665 M 550.525 519.415 L 537.582 490.825 M 512.28 541.665 L 550.525 519.415 M 577.262 381.766 L 608.353 377.486 M 566.805 338.773 L 577.262 381.766 M 596.389 328.296 L 566.805 338.773 M 654.478 542.726 L 664.682 513.047 M 708.581 603.161 L 732.912 583.339 M 794.876 667.666 L 814.698 643.334 M 892.429 713.395 L 906.924 685.559 M 1008.26 738.648 L 1015.76 708.176 M 965.636 701.12 L 964.441 732.481 M 1066.67 710.115 L 1071.84 741.07 M 1200.68 725.063 L 1198.11 693.784 M 1148.34 703.022 L 1157.17 733.137 M 646.675 892.445 L 596.849 865.202 M 582.068 905.754 L 543.972 863.641 M 552.93 859.826 L 596.22 896.579 M 528.415 895.111 L 502.809 844.425 M 504.264 844.122 L 533.061 893.066 M 447.787 895.187 L 438.759 834.147 M 443.798 834.757 L 459.108 894.531 M 401.705 849.418 L 409.137 788.164 M 413.835 790.084 L 412.797 851.779 M 373.374 795.799 L 395.064 738.033 M 396.749 739.079 L 379.437 798.305 M 394.622 687.411 L 363.322 685.12 M 404.421 637.746 L 374.231 629.174 M 363.438 683.874 L 394.622 687.411 M 426.013 590.758 L 398.702 575.297 M 375.294 625.899 L 404.76 636.703 M 456.116 550.057 L 432.494 529.395 M 399.34 574.221 L 426.013 590.758 M 474.866 491.271 L 433.336 528.469 M 493.824 516.281 L 474.866 491.271 M 433.336 528.469 L 456.116 550.057 M 537.582 490.825 L 524.071 462.499 M 475.879 490.535 L 493.824 516.281 M 608.353 377.486 L 639.351 372.586 M 626.175 318.412 L 596.389 328.296 M 674.292 483.171 L 619.998 470.494 M 664.682 513.047 L 674.292 483.171 M 619.998 470.494 L 615.385 501.537 M 732.912 583.339 L 756.843 563.035 M 717.419 523.612 L 697.116 547.543 M 814.698 643.334 L 834.031 618.613 M 787.452 587.972 L 772.405 615.513 M 906.924 685.559 L 920.86 657.44 M 869.049 636.847 L 859.88 666.861 M 1015.76 708.176 L 1022.66 677.56 M 967.456 669.789 L 965.636 701.12 M 1117.19 706.892 L 1117.76 675.514 M 1062.12 679.063 L 1066.67 710.115 M 1198.11 693.784 L 1194.93 662.563 M 1140.11 672.736 L 1148.34 703.022 M 632.242 941.671 L 582.068 905.754 M 596.22 896.579 L 651.785 923.41 M 651.785 923.41 L 646.675 892.445 M 567.307 943.015 L 528.415 895.111 M 533.061 893.066 L 576.712 936.677 M 504.329 927.144 L 479.485 870.662 M 484.506 869.918 L 515.074 923.518 M 403.855 914.98 L 401.705 849.418 M 412.797 851.779 L 424.575 916.31 M 359.976 860.012 L 373.374 795.799 M 379.437 798.305 L 373.736 863.653 M 363.809 740.871 L 332.624 744.394 M 363.322 685.12 L 331.979 683.515 M 332.499 743.024 L 363.809 740.871 M 374.231 629.174 L 343.859 621.267 M 332.34 679.653 L 363.438 683.874 M 398.702 575.297 L 371.058 560.44 M 346.073 614.452 L 375.294 625.899 M 432.494 529.395 L 408.424 509.256 M 373.036 557.103 L 399.34 574.221 M 708.068 44.2586 L 731.793 64.8017 M 741.974 0 L 708.068 44.2586 M 767.985 17.5603 L 741.974 0 M 524.071 462.499 L 509.941 434.476 M 458.501 464.401 L 475.879 490.535 M 639.351 372.586 L 670.236 367.008 M 656.171 309.182 L 626.175 318.412 M 661.842 446.424 L 692.483 493.003 M 686.982 427.637 L 661.842 446.424 M 756.843 563.035 L 780.323 542.212 M 738.243 500.131 L 717.419 523.612 M 834.031 618.613 L 852.818 593.473 M 803.099 560.767 L 787.452 587.972 M 920.86 657.44 L 934.177 629.021 M 878.874 607.041 L 869.049 636.847 M 1022.66 677.56 L 1028.89 646.8 M 969.962 638.505 L 967.456 669.789 M 1117.76 675.514 L 1117.64 644.13 M 1058.25 647.919 L 1062.12 679.063 M 1194.93 662.563 L 1191.06 631.418 M 1132.55 642.278 L 1140.11 672.736 M 1200 629.418 L 1263.7 645.096 M 1263.7 645.096 L 1257.57 614.317 M 576.712 936.677 L 631.307 973.041 M 631.307 973.041 L 632.242 941.671 M 539.611 982.444 L 504.329 927.144 M 515.074 923.518 L 558.113 973.021 M 558.113 973.021 L 567.307 943.015 M 467.193 957.847 L 447.787 895.187 M 459.108 894.531 L 487.528 953.652 M 352.348 927.87 L 359.976 860.012 M 373.736 863.653 L 377.386 931.841 M 327.15 869.484 L 342.833 803.023 M 332.624 744.394 L 301.529 748.646 M 331.979 683.515 L 300.608 682.643 M 301.148 744.444 L 332.499 743.024 M 343.859 621.267 L 313.312 614.072 M 301.348 674.706 L 332.34 679.653 M 371.058 560.44 L 343.075 546.232 M 317.127 602.324 L 346.073 614.452 M 408.424 509.256 L 383.89 489.685 M 347.139 539.375 L 373.036 557.103 M 731.793 64.8017 L 755.993 84.7847 M 793.579 35.7237 L 767.985 17.5603 M 509.941 434.476 L 495.161 406.79 M 441.74 437.868 L 458.501 464.401 M 670.236 367.008 L 700.981 360.709 M 686.374 300.656 L 656.171 309.182 M 719.688 477.356 L 746.52 461.077 M 712.554 409.444 L 686.982 427.637 M 780.323 542.212 L 803.311 520.846 M 759.609 477.144 L 738.243 500.131 M 852.818 593.473 L 871.011 567.901 M 819.378 533.935 L 803.099 560.767 M 934.177 629.021 L 946.826 600.3 M 889.393 577.472 L 878.874 607.041 M 1028.89 646.8 L 1034.4 615.904 M 973.198 607.289 L 969.962 638.505 M 1117.64 644.13 L 1116.79 612.758 M 1055.11 616.692 L 1058.25 647.919 M 1191.06 631.418 L 1186.46 600.373 M 1125.7 611.651 L 1132.55 642.278 M 1257.57 614.317 L 1250.72 583.69 M 1190.94 599.373 L 1200 629.418 M 493.412 1020.9 L 467.193 957.847 M 525.44 1010.45 L 539.611 982.444 M 412.472 982.719 L 403.855 914.98 M 424.575 916.31 L 446.123 981.107 M 313.493 937.79 L 327.15 869.484 M 330.272 870.144 L 323.174 939.439 M 312.132 809.533 L 281.597 816.785 M 301.529 748.646 L 270.547 753.649 M 281.282 815.296 L 312.132 809.533 M 300.608 682.643 L 269.224 682.532 M 269.771 745.104 L 301.148 744.444 M 313.312 614.072 L 282.598 607.619 M 270.486 669.01 L 301.348 674.706 M 343.075 546.232 L 314.755 532.707 M 288.484 589.499 L 317.127 602.324 M 383.89 489.685 L 358.889 470.715 M 321.68 521.024 L 347.139 539.375 M 755.993 84.7847 L 780.67 104.175 M 818.724 54.5024 L 793.579 35.7237 M 495.161 406.79 L 479.714 379.471 M 425.627 410.937 L 441.74 437.868 M 700.981 360.709 L 731.564 353.667 M 716.775 292.866 L 686.374 300.656 M 746.52 461.077 L 772.948 444.152 M 738.559 391.875 L 712.554 409.444 M 803.311 520.846 L 825.773 498.928 M 781.527 454.682 L 759.609 477.144 M 871.011 567.901 L 888.579 541.895 M 836.302 507.506 L 819.378 533.935 M 946.826 600.3 L 958.775 571.28 M 900.625 548.168 L 889.393 577.472 M 1034.4 615.904 L 1039.15 584.882 M 977.191 576.161 L 973.198 607.289 M 1116.79 612.758 L 1115.17 581.416 M 1052.73 585.399 L 1055.11 616.692 M 1186.46 600.373 L 1181.12 569.449 M 1119.59 580.867 L 1125.7 611.651 M 1250.72 583.69 L 1243.13 553.238 M 1182.6 569.116 L 1190.94 599.373 M 1243.13 553.238 L 1311.58 566.135 M 1311.58 566.135 L 1303.25 535.879 M 446.123 981.107 L 473.503 1045.16 M 473.503 1045.16 L 493.412 1020.9 M 346.952 997.319 L 352.348 927.87 M 386.857 1000.85 L 412.472 982.719 M 377.386 931.841 L 386.857 1000.85 M 296.803 877.483 L 283.146 945.789 M 283.146 945.789 L 313.493 937.79 M 1341.13 392.365 L 1403.58 361.508 M 1403.58 361.508 L 1378.27 342.961 M 266.268 884.735 L 296.803 877.483 M 281.597 816.785 L 251.25 824.784 M 250.3 820.299 L 281.282 815.296 M 270.547 753.649 L 239.698 759.412 M 238.388 744.993 L 269.771 745.104 M 269.224 682.532 L 237.848 683.192 M 239.773 662.557 L 270.486 669.01 M 282.598 607.619 L 251.736 601.923 M 260.164 575.974 L 288.484 589.499 M 314.755 532.707 L 286.112 519.881 M 296.679 502.054 L 321.68 521.024 M 358.889 470.715 L 333.429 452.364 M 843.401 73.8925 L 818.724 54.5024 M 780.67 104.175 L 805.815 122.954 M 410.18 383.618 L 425.627 410.937 M 479.714 379.471 L 463.601 352.54 M 747.359 285.823 L 716.775 292.866 M 731.564 353.667 L 761.965 345.876 M 764.988 374.951 L 738.559 391.875 M 772.948 444.152 L 798.954 426.584 M 803.989 432.764 L 781.527 454.682 M 825.773 498.928 L 847.69 476.466 M 853.871 481.501 L 836.302 507.506 M 888.579 541.895 L 905.504 515.466 M 912.574 519.148 L 900.625 548.168 M 958.775 571.28 L 970.007 541.975 M 981.946 545.139 L 977.191 576.161 M 1039.15 584.882 L 1043.15 553.754 M 1051.11 554.057 L 1052.73 585.399 M 1115.17 581.416 L 1112.79 550.123 M 1114.25 549.942 L 1119.59 580.867 M 1181.12 569.449 L 1175.01 538.665 M 1175.01 538.665 L 1182.6 569.116 M 1303.25 535.879 L 1234.79 522.982 M 1236.7 514.137 L 1306.28 517.418 M 1306.28 517.418 L 1293.13 488.924 M 317.779 1008.89 L 346.952 997.319 M 323.174 939.439 L 317.779 1008.89 M 1364.1 450.457 L 1344.59 425.877 M 1295.72 463.705 L 1364.1 450.457 M 1378.27 342.961 L 1316.75 372.605 M 1366.07 311.557 L 1337.33 298.946 M 235.567 891.244 L 266.268 884.735 M 251.25 824.784 L 221.106 833.517 M 219.205 824.55 L 250.3 820.299 M 239.698 759.412 L 208.996 765.921 M 207.016 744.121 L 238.388 744.993 M 237.848 683.192 L 206.496 684.612 M 209.225 655.362 L 239.773 662.557 M 251.736 601.923 L 220.745 596.976 M 232.18 561.766 L 260.164 575.974 M 286.112 519.881 L 257.166 507.754 M 272.145 482.483 L 296.679 502.054 M 333.429 452.364 L 307.532 434.636 M 867.6 93.8756 L 843.401 73.8925 M 805.815 122.954 L 831.409 141.117 M 395.4 355.933 L 410.18 383.618 M 463.601 352.54 L 446.84 326.007 M 778.104 279.525 L 747.359 285.823 M 761.965 345.876 L 792.169 337.35 M 791.82 358.672 L 764.988 374.951 M 798.954 426.584 L 824.526 408.39 M 826.976 411.398 L 803.989 432.764 M 847.69 476.466 L 869.057 453.479 M 872.064 455.929 L 853.871 481.501 M 905.504 515.466 L 921.783 488.635 M 925.223 490.426 L 912.574 519.148 M 970.007 541.975 L 980.526 512.407 M 987.453 514.243 L 981.946 545.139 M 1043.15 553.754 L 1046.38 522.537 M 1050.26 522.685 L 1051.11 554.057 M 1112.79 550.123 L 1109.65 518.897 M 1109.65 518.897 L 1114.25 549.942 M 1234.79 522.982 L 1168.16 508.037 M 1168.99 505.283 L 1236.7 514.137 M 1293.13 488.924 L 1224.95 485.035 M 1227.83 471.096 L 1295.72 463.705 M 1344.59 425.877 L 1277.43 438.202 M 1277.62 417.44 L 1341.13 392.365 M 1337.33 298.946 L 1284.05 337.213 M 1279.84 326.683 L 1326.91 280.989 M 1326.91 280.989 L 1296.44 273.457 M 204.722 897.034 L 235.567 891.244 M 221.106 833.517 L 191.174 842.951 M 188.02 828.074 L 219.205 824.55 M 208.996 765.921 L 178.455 773.146 M 175.674 742.516 L 207.016 744.121 M 206.496 684.612 L 175.186 686.764 M 178.854 647.454 L 209.225 655.362 M 220.745 596.976 L 189.646 592.755 M 204.536 546.908 L 232.18 561.766 M 257.166 507.754 L 227.944 496.307 M 248.075 462.344 L 272.145 482.483 M 307.532 434.636 L 281.228 417.518 M 891.326 114.419 L 867.6 93.8756 M 831.409 141.117 L 857.42 158.677 M 381.271 327.909 L 395.4 355.933 M 446.84 326.007 L 429.463 299.873 M 808.988 273.947 L 778.104 279.525 M 792.169 337.35 L 822.164 328.121 M 819.025 343.025 L 791.82 358.672 M 824.526 408.39 L 849.666 389.604 M 850.456 390.575 L 826.976 411.398 M 869.057 453.479 L 889.88 429.998 M 890.851 430.789 L 872.064 455.929 M 921.783 488.635 L 937.43 461.43 M 938.54 462.008 L 925.223 490.426 M 980.526 512.407 L 990.351 482.601 M 993.68 483.483 L 987.453 514.243 M 1046.38 522.537 L 1048.89 491.254 M 1050.14 491.302 L 1050.26 522.685 M 1168.16 508.037 L 1105.78 487.752 M 1105.78 487.752 L 1168.99 505.283 M 1224.95 485.035 L 1160.1 475.185 M 1162.27 468.993 L 1227.83 471.096 M 1277.43 438.202 L 1212.08 443.95 M 1213.83 432.746 L 1277.62 417.44 M 1316.75 372.605 L 1255.25 395.425 M 1253.97 384.156 L 1311.44 352.532 M 1296.44 273.457 L 1250.75 314.922 M 1289.6 264.415 L 1258.43 260.765 M 191.174 842.951 L 173.758 902.146 M 173.758 902.146 L 204.722 897.034 M 1245.77 242.763 L 1268.22 185.288 M 1268.22 185.288 L 1237.74 192.78 M 156.765 830.912 L 188.02 828.074 M 178.455 773.146 L 148.081 781.039 M 144.374 740.224 L 175.674 742.516 M 175.186 686.764 L 143.931 689.603 M 148.663 638.883 L 178.854 647.454 M 189.646 592.755 L 158.463 589.217 M 177.225 531.448 L 204.536 546.908 M 227.944 496.307 L 198.479 485.503 M 224.452 441.682 L 248.075 462.344 M 281.228 417.518 L 254.555 400.981 M 914.596 135.477 L 891.326 114.419 M 857.42 158.677 L 883.81 175.663 M 367.759 299.583 L 381.271 327.909 M 429.463 299.873 L 411.517 274.127 M 839.987 269.047 L 808.988 273.947 M 822.164 328.121 L 851.951 318.236 M 846.566 327.978 L 819.025 343.025 M 849.666 389.604 L 874.387 370.271 M 874.387 370.271 L 850.456 390.575 M 889.88 429.998 L 910.184 406.067 M 952.477 433.888 L 938.54 462.008 M 1000.58 452.867 L 993.68 483.483 M 1160.1 475.185 L 1101.23 456.701 M 1102.18 454.961 L 1162.27 468.993 M 1212.08 443.95 L 1150.51 439.895 M 1152.17 435.098 L 1213.83 432.746 M 1255.25 395.425 L 1194.8 407.792 M 1195.13 402.727 L 1253.97 384.156 M 1284.05 337.213 L 1229.02 365.122 M 1228 360.149 L 1279.84 326.683 M 1258.43 260.765 L 1218.47 301.117 M 1212.47 288.768 L 1245.77 242.763 M 1237.74 192.78 L 1214.43 244.565 M 1211.85 242.048 L 1230.6 188.442 M 1230.6 188.442 L 1201.09 199.13 M 125.459 833.127 L 156.765 830.912 M 148.081 781.039 L 117.869 789.536 M 113.126 737.309 L 144.374 740.224 M 143.931 689.603 L 112.739 693.064 M 118.65 629.712 L 148.663 638.883 M 158.463 589.217 L 127.215 586.302 M 150.228 515.446 L 177.225 531.448 M 198.479 485.503 L 168.804 475.288 M 201.247 420.553 L 224.452 441.682 M 254.555 400.981 L 227.557 384.979 M 937.441 156.995 L 914.596 135.477 M 883.81 175.663 L 910.533 192.119 M 354.816 270.993 L 367.759 299.583 M 411.517 274.127 L 393.061 248.744 M 871.077 264.766 L 839.987 269.047 M 851.951 318.236 L 881.534 307.759 M 874.402 313.484 L 846.566 327.978 M 898.719 350.449 L 874.402 313.484 M 930.006 381.736 L 898.719 350.449 M 966.971 406.053 L 930.006 381.736 M 999.52 452.586 L 1008.09 422.395 M 1051.9 428.562 L 1102.18 454.961 M 1150.51 439.895 L 1095.93 424.205 M 1194.8 407.792 L 1138.01 407.089 M 1138.42 405.658 L 1195.13 402.727 M 1229.02 365.122 L 1174.07 379.456 M 1174.08 377.97 L 1228 360.149 M 1250.75 314.922 L 1201.54 343.274 M 1201.16 341.837 L 1248.45 310.396 M 1214.43 244.565 L 1181.51 283.657 M 1180.99 282.786 L 1211.85 242.048 M 1201.09 199.13 L 1180.72 246.007 M 1175.57 240.197 L 1190.53 191.323 M 1190.53 191.323 L 1162.66 205.758 M 117.869 789.536 L 94.1202 834.795 M 94.1202 834.795 L 125.459 833.127 M 1160.67 204.681 L 1160.23 153.572 M 1160.23 153.572 L 1138 175.718 M 81.9336 733.848 L 113.126 737.309 M 112.739 693.064 L 81.6121 697.07 M 127.215 586.302 L 95.9206 583.933 M 168.804 475.288 L 138.955 465.594 M 178.414 399.022 L 201.247 420.553 M 227.557 384.979 L 200.284 369.451 M 910.533 192.119 L 937.539 208.106 M 374.165 223.686 L 342.373 242.181 M 393.061 248.744 L 374.165 223.686 M 902.237 261.029 L 871.077 264.766 M 910.93 296.767 L 902.237 261.029 M 881.534 307.759 L 901.851 347.065 M 927.818 329.441 L 910.93 296.767 M 901.851 347.065 L 930.878 380.46 M 951.947 357.2 L 927.818 329.441 M 981.95 378.474 L 951.947 357.2 M 1016.13 392.059 L 981.95 378.474 M 1095.93 424.205 L 1052.55 397.185 M 1052.55 397.185 L 1096.7 422.932 M 1089.03 392.5 L 1138.42 405.658 M 1174.07 379.456 L 1122.97 378.338 M 1122.97 378.338 L 1174.08 377.97 M 1201.54 343.274 L 1151.97 355.705 M 1151.97 355.705 L 1201.16 341.837 M 1218.47 301.117 L 1173.94 326.212 M 1171.25 318.976 L 1212.47 288.768 M 1180.72 246.007 L 1149.86 278.827 M 1147.56 275.487 L 1175.57 240.197 M 1162.66 205.758 L 1144.98 247.197 M 1144.57 246.759 L 1160.67 204.681 M 1138 175.718 L 1133.59 220.556 M 1131.02 218.619 L 1132.32 173.585 M 1132.32 173.585 L 1112.01 197.508 M 81.6121 697.07 L 50.5467 701.527 M 59.0964 609.89 L 88.801 620.017 M 95.9206 583.933 L 64.5954 582.019 M 97.0418 482.118 L 123.514 498.975 M 138.955 465.594 L 108.969 456.335 M 155.896 377.161 L 178.414 399.022 M 200.284 369.451 L 172.788 354.321 M 982.052 201.147 L 959.907 178.909 M 937.539 208.106 L 964.775 223.698 M 922.007 217.491 L 915.625 253.713 M 946.982 254.988 L 951.912 227.011 M 915.625 253.713 L 919.046 290.333 M 949.625 283.272 L 946.982 254.988 M 919.046 290.333 L 932.027 324.747 M 959.651 309.852 L 949.625 283.272 M 932.027 324.747 L 953.644 354.503 M 976.348 332.835 L 959.651 309.852 M 953.644 354.503 L 982.359 377.486 M 998.527 350.587 L 976.348 332.835 M 982.359 377.486 L 1016.13 392.059 M 1107.13 351.245 L 1080.92 362.184 M 1129.53 333.764 L 1107.13 351.245 M 1173.94 326.212 L 1129.53 333.764 M 1127.69 330.491 L 1171.25 318.976 M 1181.51 283.657 L 1142.55 306.278 M 1142.55 306.278 L 1180.99 282.786 M 1144.98 247.197 L 1116.23 273.796 M 1116.23 273.796 L 1144.57 246.759 M 1133.59 220.556 L 1114.17 254.569 M 1113.19 253.498 L 1131.02 218.619 M 1112.01 197.508 L 1104.91 236.028 M 1104.7 235.859 L 1110.91 197.185 M 1110.91 197.185 L 1091.43 221.792 M 50.5467 701.527 L 19.7024 725.67 M 19.7024 725.67 L 50.795 729.934 M 1091.18 221.696 L 1085.18 182.989 M 1085.18 182.989 L 1074.23 212.401 M 29.5076 599.428 L 59.0964 609.89 M 64.5954 582.019 L 33.2506 580.458 M 70.7616 464.963 L 97.0418 482.118 M 108.969 456.335 L 78.8798 447.413 M 133.626 355.048 L 155.896 377.161 M 172.788 354.321 L 145.124 339.502 M 1003.94 223.633 L 982.052 201.147 M 964.775 223.698 L 992.185 238.983 M 960.849 225.78 L 952.808 253.026 M 989.349 238.919 L 960.849 225.78 M 983.877 257.465 L 989.349 238.919 M 952.808 253.026 L 952.897 281.434 M 983.937 276.801 L 983.877 257.465 M 952.897 281.434 L 961.107 308.629 M 989.525 295.312 L 983.937 276.801 M 961.107 308.629 L 976.753 332.341 M 1000.17 311.452 L 989.525 295.312 M 1024.61 361.843 L 1015 323.871 M 1052.74 365.802 L 1080.83 361.55 M 1080.83 361.55 L 1106.53 349.443 M 1106.53 349.443 L 1127.69 330.491 M 1103.59 310.384 L 1089.19 323.284 M 1149.86 278.827 L 1113.7 293.902 M 1112.4 292.751 L 1147.56 275.487 M 1114.17 254.569 L 1084.88 272.346 M 1104.91 236.028 L 1083.12 262.48 M 1083.12 262.48 L 1104.7 235.859 M 1091.43 221.792 L 1078.86 253.669 M 1078.86 253.669 L 1091.18 221.696 M 1074.23 212.401 L 1072.09 246.601 M 1072.09 246.601 L 1073.96 212.385 M 1073.96 212.385 L 1063.47 241.962 M 33.2506 580.458 L 0 588.741 M 0 588.741 L 29.5076 599.428 M 94.2344 341.424 L 117.505 366.577 M 117.505 366.577 L 103.564 338.46 M 78.8798 447.413 L 44.6136 447.607 M 44.6136 447.607 L 70.7616 464.963 M 103.564 338.46 L 133.452 355.22 M 133.452 355.22 L 111.526 332.766 M 111.526 332.766 L 133.626 355.048 M 145.124 339.502 L 117.347 324.896 M 1025.66 246.287 L 1003.94 223.633 M 1019.71 254.057 L 1025.66 246.287 M 992.185 238.983 L 985.586 257.158 M 1016.37 263.258 L 1019.71 254.057 M 985.586 257.158 L 984.756 276.477 M 1015.95 273.038 L 1016.37 263.258 M 984.756 276.477 L 989.774 295.151 M 1018.49 282.491 L 1015.95 273.038 M 989.774 295.151 L 1000.17 311.452 M 1023.76 290.743 L 1018.49 282.491 M 1015 323.871 L 1023.76 290.743 M 1025.86 290.892 L 1015.85 323.665 M 1033.43 331.724 L 1033.12 297.458 M 1033.65 297.458 L 1033.43 331.724 M 1052.58 334.419 L 1052.17 303.038 M 1052.65 303.035 L 1052.58 334.419 M 1071.7 331.525 L 1089.06 323.016 M 1089.06 323.016 L 1103.06 309.68 M 1103.06 309.68 L 1112.4 292.751 M 1082.94 281.942 L 1078.21 290.512 M 1084.88 272.346 L 1082.94 281.942 M 555.4 718.242 L 561.641 725.783 M 582.402 702.248 L 551.786 709.145 M 582.348 702.01 L 551.074 699.382 M 551.786 709.145 L 582.348 702.01 M 582.55 698.691 L 553.084 687.888 M 551.19 697.492 L 582.55 698.691 M 582.633 698.461 L 557.779 679.299 M 553.084 687.888 L 582.633 698.461 M 557.807 678.774 L 583.098 697.357 M 573.502 667.476 L 564.763 671.886 M 583.174 665.973 L 573.502 667.476 M 592.84 667.524 L 583.174 665.973 M 601.557 671.976 L 592.84 667.524 M 583.098 697.357 L 608.479 678.898 M 703.972 756.694 L 691.024 785.282 M 691.024 785.282 L 718.273 769.711 M 613.625 705.424 L 582.402 702.248 M 569.902 731.035 L 579.379 733.486 M 1063.47 241.962 L 1053.09 271.58 M 89.5127 310.397 L 94.2344 341.424 M 117.347 324.896 L 89.5127 310.397 M 1030.46 246.857 L 1023.93 254.148 M 1050.29 271.185 L 1030.46 246.857 M 1023.93 254.148 L 1019.96 263.097 M 1019.96 263.097 L 1018.95 272.833 M 1018.95 272.833 L 1020.98 282.408 M 1020.98 282.408 L 1025.86 290.892 M 1042.48 301.673 L 1051.41 271.588 M 1051.41 271.588 L 1033.65 297.458 M 1052.17 303.038 L 1051.65 271.659 M 1051.65 271.659 L 1042.48 301.673 M 1062.33 301.57 L 1052.85 271.652 M 1052.85 271.652 L 1052.65 303.035 M 1053.09 271.58 L 1062.33 301.57 M 1071.12 297.263 L 1078.16 290.457 M 1078.16 290.457 L 1082.75 281.815 M 1082.75 281.815 L 1084.47 272.176" />
<path fill="none" class="c" d=" M 826.976 411.398 L 869.057 453.479 M 889.88 429.998 L 850.456 390.575 M 910.184 406.067 L 874.387 370.271 M 910.184 406.067 L 930.006 381.736 M 910.184 406.067 L 952.477 433.888 M 952.477 433.888 L 966.971 406.053 M 952.477 433.888 L 999.52 452.586 M 1008.09 422.395 L 966.971 406.053 M 981.95 378.474 L 966.971 406.053 M 1008.09 422.395 L 1016.13 392.059 M 1008.09 422.395 L 1051.9 428.562 M 1051.9 428.562 L 1052.55 397.185 M 1052.55 397.185 L 1016.13 392.059 M 1051.9 428.562 L 1095.93 424.205 M 1024.61 361.843 L 1016.13 392.059 M 1052.55 397.185 L 1052.74 365.802 M 1052.74 365.802 L 1024.61 361.843 M 1052.55 397.185 L 1089.03 392.5 M 1089.03 392.5 L 1080.92 362.184 M 1089.03 392.5 L 1122.97 378.338 M 1122.97 378.338 L 1107.13 351.245 M 1122.97 378.338 L 1151.97 355.705 M 1151.97 355.705 L 1129.53 333.764 M 1151.97 355.705 L 1173.94 326.212 M 1033.43 331.724 L 1024.61 361.843 M 1052.74 365.802 L 1052.58 334.419 M 1052.58 334.419 L 1033.43 331.724 M 1080.83 361.55 L 1071.7 331.525 M 1071.7 331.525 L 1052.58 334.419 M 1106.53 349.443 L 1089.19 323.284 M 1127.69 330.491 L 1103.59 310.384 M 1127.69 330.491 L 1142.55 306.278 M 1142.55 306.278 L 1113.7 293.902 M 1142.55 306.278 L 1149.86 278.827 M 1042.48 301.673 L 1033.43 331.724 M 1052.17 303.038 L 1042.48 301.673 M 1071.7 331.525 L 1062.33 301.57 M 1062.33 301.57 L 1052.65 303.035 M 1089.06 323.016 L 1071.12 297.263 M 1071.12 297.263 L 1062.33 301.57 M 1103.06 309.68 L 1078.21 290.512 M 1112.4 292.751 L 1082.94 281.942 M 1112.4 292.751 L 1116.23 273.796 M 1116.23 273.796 L 1084.88 272.346 M 1071.12 297.263 L 1053.09 271.58 M 1078.16 290.457 L 1053.09 271.58 M 1082.75 281.815 L 1053.09 271.58 M 1084.47 272.176 L 1053.09 271.58 M 898.719 350.449 L 874.387 370.271 M 1050.71 459.923 L 1051.9 428.562 M 1050.71 459.923 L 1101.23 456.701 M 1102.18 454.961 L 1095.93 424.205 M 1102.18 454.961 L 1150.51 439.895 M 1096.7 422.932 L 1089.03 392.5 M 1096.7 422.932 L 1138.01 407.089 M 1138.42 405.658 L 1122.97 378.338 M 1138.42 405.658 L 1174.07 379.456 M 1174.08 377.97 L 1151.97 355.705 M 1174.08 377.97 L 1201.54 343.274 M 1201.16 341.837 L 1173.94 326.212 M 1201.16 341.837 L 1218.47 301.117 M 1024.61 361.843 L 998.527 350.587 M 1171.25 318.976 L 1142.55 306.278 M 1171.25 318.976 L 1181.51 283.657 M 1180.99 282.786 L 1149.86 278.827 M 1015 323.871 L 998.527 350.587 M 1033.43 331.724 L 1015.85 323.665 M 1147.56 275.487 L 1116.23 273.796 M 1116.23 273.796 L 1114.17 254.569 M 1033.12 297.458 L 1015.85 323.665 M 1042.48 301.673 L 1033.65 297.458 M 1084.47 272.176 L 1083.12 262.48 M 1083.12 262.48 L 1053.09 271.58 M 1083.12 262.48 L 1078.86 253.669 M 1078.86 253.669 L 1053.09 271.58 M 1078.86 253.669 L 1072.09 246.601 M 1072.09 246.601 L 1053.09 271.58 M 1072.09 246.601 L 1063.47 241.962 M 803.989 432.764 L 847.69 476.466 M 890.851 430.789 L 937.43 461.43 M 938.54 462.008 L 990.351 482.601 M 1105.78 487.752 L 1101.23 456.701 M 1105.78 487.752 L 1160.1 475.185 M 1162.27 468.993 L 1150.51 439.895 M 1162.27 468.993 L 1212.08 443.95 M 1000.58 452.867 L 1050.71 459.923 M 1152.17 435.098 L 1138.01 407.089 M 1152.17 435.098 L 1194.8 407.792 M 1195.13 402.727 L 1174.07 379.456 M 1195.13 402.727 L 1229.02 365.122 M 1228 360.149 L 1201.54 343.274 M 1228 360.149 L 1250.75 314.922 M 1248.45 310.396 L 1218.47 301.117 M 951.947 357.2 L 930.878 380.46 M 1212.47 288.768 L 1181.51 283.657 M 1180.99 282.786 L 1180.72 246.007 M 998.527 350.587 L 982.359 377.486 M 1147.56 275.487 L 1144.98 247.197 M 1144.57 246.759 L 1114.17 254.569 M 1144.57 246.759 L 1133.59 220.556 M 1015 323.871 L 1000.17 311.452 M 1113.19 253.498 L 1083.12 262.48 M 1113.19 253.498 L 1104.91 236.028 M 1104.7 235.859 L 1078.86 253.669 M 1104.7 235.859 L 1091.43 221.792 M 1091.18 221.696 L 1072.09 246.601 M 1091.18 221.696 L 1074.23 212.401 M 1023.76 290.743 L 1000.17 311.452 M 1033.12 297.458 L 1025.86 290.892 M 1050.29 271.185 L 1025.86 290.892 M 1168.99 505.283 L 1160.1 475.185 M 1168.99 505.283 L 1224.95 485.035 M 1227.83 471.096 L 1212.08 443.95 M 1227.83 471.096 L 1277.43 438.202 M 846.566 327.978 L 874.387 370.271 M 1050.14 491.302 L 1105.78 487.752 M 1213.83 432.746 L 1194.8 407.792 M 1213.83 432.746 L 1255.25 395.425 M 1253.97 384.156 L 1229.02 365.122 M 1253.97 384.156 L 1284.05 337.213 M 1279.84 326.683 L 1250.75 314.922 M 1248.45 310.396 L 1258.43 260.765 M 1212.47 288.768 L 1214.43 244.565 M 1211.85 242.048 L 1180.72 246.007 M 1211.85 242.048 L 1201.09 199.13 M 1175.57 240.197 L 1144.98 247.197 M 1175.57 240.197 L 1162.66 205.758 M 1160.67 204.681 L 1133.59 220.556 M 1160.67 204.681 L 1138 175.718 M 1131.02 218.619 L 1104.91 236.028 M 1131.02 218.619 L 1112.01 197.508 M 1000.17 311.452 L 976.753 332.341 M 1050.29 271.185 L 1020.98 282.408 M 781.527 454.682 L 825.773 498.928 M 1236.7 514.137 L 1224.95 485.035 M 1236.7 514.137 L 1293.13 488.924 M 1295.72 463.705 L 1277.43 438.202 M 1295.72 463.705 L 1344.59 425.877 M 872.064 455.929 L 921.783 488.635 M 925.223 490.426 L 980.526 512.407 M 1109.65 518.897 L 1105.78 487.752 M 1109.65 518.897 L 1168.16 508.037 M 1277.62 417.44 L 1255.25 395.425 M 1277.62 417.44 L 1316.75 372.605 M 1311.44 352.532 L 1284.05 337.213 M 1279.84 326.683 L 1296.44 273.457 M 993.68 483.483 L 1048.89 491.254 M 1245.77 242.763 L 1214.43 244.565 M 1245.77 242.763 L 1237.74 192.78 M 927.818 329.441 L 901.851 347.065 M 976.348 332.835 L 953.644 354.503 M 1018.49 282.491 L 989.774 295.151 M 1050.29 271.185 L 1018.95 272.833 M 759.609 477.144 L 803.311 520.846 M 1175.01 538.665 L 1168.16 508.037 M 1175.01 538.665 L 1234.79 522.982 M 1341.13 392.365 L 1316.75 372.605 M 1311.44 352.532 L 1337.33 298.946 M 819.025 343.025 L 849.666 389.604 M 1050.26 522.685 L 1109.65 518.897 M 989.525 295.312 L 961.107 308.629 M 1050.29 271.185 L 1019.96 263.097 M 738.243 500.131 L 780.323 542.212 M 1243.13 553.238 L 1234.79 522.982 M 1243.13 553.238 L 1303.25 535.879 M 1341.13 392.365 L 1378.27 342.961 M 853.871 481.501 L 905.504 515.466 M 912.574 519.148 L 970.007 541.975 M 1114.25 549.942 L 1175.01 538.665 M 987.453 514.243 L 1046.38 522.537 M 910.93 296.767 L 881.534 307.759 M 959.651 309.852 L 932.027 324.747 M 1015.95 273.038 L 984.756 276.477 M 1050.29 271.185 L 1023.93 254.148 M 717.419 523.612 L 756.843 563.035 M 1182.6 569.116 L 1243.13 553.238 M 791.82 358.672 L 824.526 408.39 M 1051.11 554.057 L 1112.79 550.123 M 983.937 276.801 L 952.897 281.434 M 697.116 547.543 L 732.912 583.339 M 1190.94 599.373 L 1250.72 583.69 M 836.302 507.506 L 888.579 541.895 M 900.625 548.168 L 958.775 571.28 M 1119.59 580.867 L 1181.12 569.449 M 981.946 545.139 L 1043.15 553.754 M 871.077 264.766 L 881.534 307.759 M 949.625 283.272 L 919.046 290.333 M 1016.37 263.258 L 985.586 257.158 M 677.294 571.874 L 708.581 603.161 M 1200 629.418 L 1257.57 614.317 M 819.378 533.935 L 871.011 567.901 M 889.393 577.472 L 946.826 600.3 M 1125.7 611.651 L 1186.46 600.373 M 764.988 374.951 L 798.954 426.584 M 1052.73 585.399 L 1115.17 581.416 M 983.877 257.465 L 952.808 253.026 M 657.9 596.548 L 683.907 622.555 M 803.099 560.767 L 852.818 593.473 M 878.874 607.041 L 934.177 629.021 M 1132.55 642.278 L 1191.06 631.418 M 1055.11 616.692 L 1116.79 612.758 M 977.191 576.161 L 1039.15 584.882 M 839.987 269.047 L 851.951 318.236 M 946.982 254.988 L 915.625 253.713 M 1019.71 254.057 L 992.185 238.983 M 638.866 621.501 L 658.954 641.589 M 787.452 587.972 L 834.031 618.613 M 869.049 636.847 L 920.86 657.44 M 1140.11 672.736 L 1194.93 662.563 M 1058.25 647.919 L 1117.64 644.13 M 973.198 607.289 L 1034.4 615.904 M 738.559 391.875 L 772.948 444.152 M 620.115 646.667 L 633.788 660.34 M 772.405 615.513 L 814.698 643.334 M 859.88 666.861 L 906.924 685.559 M 1148.34 703.022 L 1198.11 693.784 M 1062.12 679.063 L 1117.76 675.514 M 969.962 638.505 L 1028.89 646.8 M 712.554 409.444 L 746.52 461.077 M 808.988 273.947 L 822.164 328.121 M 1003.94 223.633 L 992.185 238.983 M 601.557 671.976 L 608.479 678.898 M 757.911 643.349 L 794.876 667.666 M 851.311 697.053 L 892.429 713.395 M 1157.17 733.137 L 1200.68 725.063 M 1066.67 710.115 L 1117.19 706.892 M 967.456 669.789 L 1022.66 677.56 M 686.982 427.637 L 719.688 477.356 M 601.557 671.976 L 583.098 697.357 M 743.904 671.434 L 774.632 691.647 M 843.271 727.389 L 877.451 740.974 M 1071.84 741.07 L 1115.99 738.253 M 965.636 701.12 L 1015.76 708.176 M 778.104 279.525 L 792.169 337.35 M 982.052 201.147 L 964.775 223.698 M 592.84 667.524 L 583.098 697.357 M 730.308 699.719 L 754.041 715.332 M 835.673 757.839 L 862.073 768.331 M 1077.55 771.93 L 1114.25 769.588 M 964.441 732.481 L 1008.26 738.648 M 583.174 665.973 L 583.098 697.357 M 717.031 728.156 L 733.185 738.783 M 828.418 788.372 L 846.388 795.514 M 1083.7 802.703 L 1112.06 800.895 M 963.795 763.858 L 1000.22 768.984 M 747.359 285.823 L 761.965 345.876 M 959.907 178.909 L 937.539 208.106 M 573.502 667.476 L 583.098 697.357 M 703.972 756.694 L 712.15 762.074 M 963.605 795.241 L 991.735 799.2 M 564.763 671.886 L 583.098 697.357 M 691.024 785.282 L 712.15 762.074 M 718.273 769.711 L 712.15 762.074 M 963.768 826.624 L 982.915 829.319 M 716.775 292.866 L 731.564 353.667 M 937.441 156.995 L 910.533 192.119 M 564.763 671.886 L 557.807 678.774 M 532.589 660.093 L 557.807 678.774 M 686.374 300.656 L 700.981 360.709 M 532.589 660.093 L 523.577 677.2 M 493.988 666.739 L 523.577 677.2 M 656.171 309.182 L 670.236 367.008 M 914.596 135.477 L 883.81 175.663 M 493.988 666.739 L 488.489 694.61 M 519.834 696.171 L 523.577 677.2 M 457.164 692.696 L 488.489 694.61 M 626.175 318.412 L 639.351 372.586 M 553.084 687.888 L 523.577 677.2 M 551.19 697.492 L 553.084 687.888 M 553.084 687.888 L 557.779 679.299 M 457.164 692.696 L 459.838 729.379 M 490.554 722.943 L 488.489 694.61 M 459.838 729.379 L 490.554 722.943 M 493.988 666.739 L 464.283 656.612 M 464.283 656.612 L 457.164 692.696 M 493.988 666.739 L 506.66 641.314 M 429.03 735.367 L 459.838 729.379 M 425.87 690.327 L 457.164 692.696 M 596.389 328.296 L 608.353 377.486 M 891.326 114.419 L 857.42 158.677 M 521.196 716.162 L 519.791 696.876 M 490.554 722.943 L 521.196 716.162 M 532.43 659.226 L 506.66 641.314 M 532.43 659.226 L 545.645 645.11 M 459.838 729.379 L 472.114 764.049 M 472.114 764.049 L 500.036 749.721 M 506.66 641.314 L 480.69 623.694 M 429.03 735.367 L 442.58 777.488 M 443.987 777.969 L 472.114 764.049 M 425.87 690.327 L 427.801 734.531 M 464.283 656.612 L 434.434 646.917 M 434.434 646.917 L 425.87 690.327 M 413.835 790.084 L 442.58 777.488 M 396.749 739.079 L 427.801 734.531 M 394.622 687.411 L 425.87 690.327 M 521.196 716.162 L 551.786 709.145 M 551.786 709.145 L 551.074 699.382 M 565.027 669.793 L 545.645 645.11 M 500.637 749.501 L 528.059 734.239 M 545.645 645.11 L 526.074 620.576 M 472.114 764.049 L 493.12 794.24 M 493.12 794.24 L 516.261 773.04 M 525.603 620.144 L 505.215 596.284 M 443.987 777.969 L 468.19 815.009 M 469.674 815.102 L 493.12 794.24 M 479.725 623.23 L 453.011 606.76 M 453.011 606.76 L 434.434 646.917 M 413.835 790.084 L 438.759 834.147 M 443.798 834.757 L 468.19 815.009 M 396.749 739.079 L 409.137 788.164 M 394.622 687.411 L 395.064 738.033 M 404.421 637.746 L 394.622 687.411 M 412.797 851.779 L 438.759 834.147 M 379.437 798.305 L 409.137 788.164 M 363.809 740.871 L 395.064 738.033 M 867.6 93.8756 L 831.409 141.117 M 528.336 734.132 L 555.4 718.242 M 555.4 718.242 L 551.786 709.145 M 573.555 664.989 L 562.492 635.62 M 517.894 772.066 L 539.806 749.598 M 562.345 635.363 L 550.609 606.256 M 493.12 794.24 L 521.361 817.804 M 549.468 604.735 L 536.114 576.334 M 469.674 815.102 L 502.809 844.425 M 504.264 844.122 L 521.361 817.804 M 502.615 594.442 L 480.548 572.126 M 504.264 844.122 L 543.972 863.641 M 443.798 834.757 L 479.485 870.662 M 484.506 869.918 L 502.809 844.425 M 453.011 606.76 L 426.013 590.758 M 426.013 590.758 L 404.76 636.703 M 484.506 869.918 L 528.415 895.111 M 533.061 893.066 L 543.972 863.641 M 412.797 851.779 L 447.787 895.187 M 459.108 894.531 L 479.485 870.662 M 379.437 798.305 L 401.705 849.418 M 363.809 740.871 L 373.374 795.799 M 363.322 685.12 L 363.809 740.871 M 374.231 629.174 L 363.438 683.874 M 459.108 894.531 L 504.329 927.144 M 515.074 923.518 L 528.415 895.111 M 424.575 916.31 L 447.787 895.187 M 373.736 863.653 L 401.705 849.418 M 342.833 803.023 L 373.374 795.799 M 424.575 916.31 L 467.193 957.847 M 487.528 953.652 L 504.329 927.144 M 446.123 981.107 L 467.193 957.847 M 555.4 718.242 L 582.402 702.248 M 540.548 749.123 L 561.582 725.832 M 583.134 662.972 L 581.414 631.636 M 517.894 772.066 L 540.885 788.753 M 540.885 788.753 L 555.455 760.956 M 581.135 630.8 L 578.215 599.552 M 540.885 788.753 L 567.688 798.167 M 526.003 816.384 L 540.885 788.753 M 576.559 596.184 L 571.188 565.263 M 526.003 816.384 L 560.422 829.349 M 561.33 828.899 L 567.688 798.167 M 531.658 571.874 L 515.487 544.978 M 552.93 859.826 L 560.422 829.349 M 479.322 571.186 L 456.116 550.057 M 456.116 550.057 L 426.013 590.758 M 533.061 893.066 L 582.068 905.754 M 398.702 575.297 L 375.294 625.899 M 515.074 923.518 L 567.307 943.015 M 576.712 936.677 L 582.068 905.754 M 373.736 863.653 L 403.855 914.98 M 342.833 803.023 L 359.976 860.012 M 332.624 744.394 L 342.833 803.023 M 331.979 683.515 L 332.499 743.024 M 343.859 621.267 L 332.34 679.653 M 487.528 953.652 L 539.611 982.444 M 377.386 931.841 L 403.855 914.98 M 330.272 870.144 L 359.976 860.012 M 312.132 809.533 L 342.833 803.023 M 446.123 981.107 L 493.412 1020.9 M 377.386 931.841 L 412.472 982.719 M 843.401 73.8925 L 805.815 122.954 M 561.641 725.783 L 582.402 702.248 M 556.703 759.749 L 569.76 731.211 M 592.876 663.929 L 600.658 633.525 M 556.703 759.749 L 575.306 765.026 M 575.306 765.026 L 579.178 733.882 M 600.446 631.802 L 606.585 601.025 M 571.195 796.139 L 575.306 765.026 M 604.946 595.099 L 607.941 563.859 M 561.33 828.899 L 598.02 831.479 M 565.21 556.806 L 555.849 526.851 M 552.93 859.826 L 596.849 865.202 M 599.558 862.825 L 598.02 831.479 M 512.28 541.665 L 493.824 516.281 M 493.824 516.281 L 456.116 550.057 M 596.22 896.579 L 596.849 865.202 M 432.494 529.395 L 399.34 574.221 M 576.712 936.677 L 632.242 941.671 M 371.058 560.44 L 346.073 614.452 M 330.272 870.144 L 352.348 927.87 M 312.132 809.533 L 327.15 869.484 M 301.529 748.646 L 312.132 809.533 M 300.608 682.643 L 301.148 744.444 M 313.312 614.072 L 301.348 674.706 M 323.174 939.439 L 352.348 927.87 M 296.803 877.483 L 327.15 869.484 M 323.174 939.439 L 346.952 997.319 M 569.902 731.035 L 582.402 702.248 M 579.379 733.486 L 582.402 702.248 M 575.306 765.026 L 594.634 764.465 M 571.195 796.139 L 599.6 795.751 M 600.069 795.375 L 594.634 764.465 M 643.758 572.222 L 607.941 563.859 M 604.211 826.794 L 599.6 795.751 M 599.558 862.825 L 643.18 855.415 M 537.582 490.825 L 493.824 516.281 M 596.22 896.579 L 646.675 892.445 M 408.424 509.256 L 373.036 557.103 M 343.075 546.232 L 317.127 602.324 M 296.803 877.483 L 313.493 937.79 M 281.597 816.785 L 296.803 877.483 M 270.547 753.649 L 281.282 815.296 M 269.224 682.532 L 269.771 745.104 M 282.598 607.619 L 270.486 669.01 M 251.25 824.784 L 266.268 884.735 M 239.698 759.412 L 250.3 820.299 M 237.848 683.192 L 238.388 744.993 M 251.736 601.923 L 239.773 662.557 M 818.724 54.5024 L 780.67 104.175 M 221.106 833.517 L 235.567 891.244 M 208.996 765.921 L 219.205 824.55 M 206.496 684.612 L 207.016 744.121 M 220.745 596.976 L 209.225 655.362 M 191.174 842.951 L 204.722 897.034 M 178.455 773.146 L 188.02 828.074 M 175.186 686.764 L 175.674 742.516 M 189.646 592.755 L 178.854 647.454 M 148.081 781.039 L 156.765 830.912 M 143.931 689.603 L 144.374 740.224 M 158.463 589.217 L 148.663 638.883 M 117.869 789.536 L 125.459 833.127 M 112.739 693.064 L 113.126 737.309 M 127.215 586.302 L 118.65 629.712 M 81.6121 697.07 L 81.9336 733.848 M 95.9206 583.933 L 88.801 620.017 M 50.5467 701.527 L 50.795 729.934 M 64.5954 582.019 L 59.0964 609.89 M 33.2506 580.458 L 29.5076 599.428 M 579.379 733.486 L 589.15 732.898 M 589.15 732.898 L 582.402 702.248 M 595.778 763.573 L 589.15 732.898 M 600.069 795.375 L 627.043 786.463 M 604.211 826.794 L 639.546 816.586 M 640.774 814.683 L 627.043 786.463 M 654.478 542.726 L 611.391 532.666 M 524.071 462.499 L 475.879 490.535 M 383.89 489.685 L 347.139 539.375 M 314.755 532.707 L 288.484 589.499 M 793.579 35.7237 L 755.993 84.7847 M 286.112 519.881 L 260.164 575.974 M 257.166 507.754 L 232.18 561.766 M 227.944 496.307 L 204.536 546.908 M 198.479 485.503 L 177.225 531.448 M 168.804 475.288 L 150.228 515.446 M 138.955 465.594 L 123.514 498.975 M 108.969 456.335 L 97.0418 482.118 M 78.8798 447.413 L 70.7616 464.963 M 589.15 732.898 L 598.264 729.328 M 598.264 729.328 L 582.402 702.248 M 595.778 763.573 L 613.837 756.662 M 614.021 756.469 L 598.264 729.328 M 629.173 784.043 L 613.837 756.662 M 640.774 814.683 L 671.405 794.323 M 664.682 513.047 L 615.385 501.537 M 509.941 434.476 L 458.501 464.401 M 767.985 17.5603 L 731.793 64.8017 M 358.889 470.715 L 321.68 521.024 M 333.429 452.364 L 296.679 502.054 M 307.532 434.636 L 272.145 482.483 M 281.228 417.518 L 248.075 462.344 M 254.555 400.981 L 224.452 441.682 M 227.557 384.979 L 201.247 420.553 M 200.284 369.451 L 178.414 399.022 M 172.788 354.321 L 155.896 377.161 M 145.124 339.502 L 133.626 355.048 M 117.347 324.896 L 111.526 332.766 M 598.264 729.328 L 605.836 723.124 M 605.836 723.124 L 582.402 702.248 M 89.5127 310.397 L 111.526 332.766 M 614.021 756.469 L 629.072 744.33 M 629.188 744.091 L 605.836 723.124 M 629.173 784.043 L 651.692 766.725 M 495.161 406.79 L 441.74 437.868 M 605.836 723.124 L 611.127 714.889 M 611.127 714.889 L 582.402 702.248 M 103.564 338.46 L 111.526 332.766 M 89.5127 310.397 L 103.564 338.46 M 629.188 744.091 L 639.767 727.905 M 479.714 379.471 L 425.627 410.937 M 463.601 352.54 L 410.18 383.618 M 446.84 326.007 L 395.4 355.933 M 429.463 299.873 L 381.271 327.909 M 411.517 274.127 L 367.759 299.583 M 393.061 248.744 L 354.816 270.993 M 611.127 714.889 L 613.625 705.424 M 94.2344 341.424 L 103.564 338.46" />
</svg>
