<?xml version="1.0"?>
<svg width="1132" height="1149" version="1.1" xmlns="http://www.w3.org/2000/svg" >
<defs>
<style type="text/css"><![CDATA[
.m {stroke:rgb(255,0,0);stroke-width:1.436250;}
.v {stroke:rgb(0,0,255);stroke-width:1.436250;}
.b {stroke:rgb(0,0,0);stroke-width:2.872500;fill:white}
.n {stroke:rgb(128,128,128);stroke-width:1.436250}
.t {stroke:rgb(0,128,0);stroke-width:1.436250;}
.c {stroke:rgb(128,128,128);stroke-width:1.436250;stroke-dasharray:11.320000, 11.320000;}
]]></style>
</defs>
<path fill="none" style="stroke:black;stroke-width:2.872500;" d=" M 776.269 914.631 L 767.687 947.805 M 751.645 955.27 L 764.827 923.64 M 810.305 912.098 L 797.82 944.009 M 767.687 947.805 L 772.997 956.029 M 772.997 956.029 L 791.157 926.97 M 832.084 943.509 L 823.612 926.127 M 797.82 944.009 L 802.109 952.808 M 834.937 962.634 L 832.084 943.509 M 803.554 962.49 L 834.937 962.634 M 802.109 952.808 L 803.554 962.49 M 774.583 1011.48 L 784.119 994.655 M 749.954 992.025 L 774.583 1011.48 M 784.119 994.655 L 754.781 983.51 M 742.737 998.639 L 760.176 1024.73 M 774.431 1011.67 L 749.954 992.025 M 535.253 1094.58 L 540.996 1060.8 M 540.996 1060.8 L 535.516 1094.62 M 535.516 1094.62 L 549.077 1066.32 M 519.138 1083.42 L 535.009 1053.05 M 535.009 1053.05 L 519.375 1083.55 M 507.244 1067.84 L 531.699 1043.84 M 531.699 1043.84 L 507.431 1068.03 M 500.728 1049.36 L 531.389 1034.06 M 531.389 1034.06 L 500.848 1049.6 M 505.782 1010.97 L 500.123 1029.46 M 500.123 1029.46 L 534.045 1024.61 M 534.108 1024.65 L 500.265 1030.03 M 516.739 995.036 L 505.782 1010.97 M 534.045 1024.61 L 539.592 1016.55 M 547.307 1010.52 L 531.979 983.135 M 560.191 1004.09 L 551.767 973.862 M 534.146 981.826 L 551.271 1008.12 M 600.629 987.954 L 594.433 957.188 M 576.278 963.844 L 591.438 991.324 M 665.5 926.187 L 683.836 951.657 M 682.729 917.408 L 702.642 945.295 M 702.212 945.597 L 682.729 917.408 M 702.332 913.263 L 714.164 945.422 M 712.356 946.508 L 701.749 913.924 M 723.948 912.678 L 727.849 946.722 M 723.211 949.16 L 721.597 914.931 M 748.128 913.891 L 745.066 948.021 M 735.757 952.491 L 742.273 918.85 M 805.088 873.277 L 810.305 912.098 M 791.157 926.97 L 792.593 887.827 M 849.823 863.677 L 852.193 902.774 M 823.612 926.127 L 829.716 887.437 M 901.791 843.005 L 903.2 882.149 M 852.193 902.774 L 864.439 917.738 M 864.439 917.738 L 873.352 879.596 M 942.369 881.916 L 924.922 859.497 M 903.2 882.149 L 915.076 897.409 M 952.675 908.389 L 942.369 881.916 M 922.091 915.428 L 952.675 908.389 M 915.076 897.409 L 922.091 915.428 M 777.814 1050.69 L 798.757 1031.5 M 760.176 1024.73 L 777.814 1050.69 M 798.757 1031.5 L 774.431 1011.67 M 520.116 1122.58 L 519.138 1083.42 M 519.375 1083.55 L 521.257 1122.67 M 521.257 1122.67 L 535.253 1094.58 M 496.11 1105.4 L 507.244 1067.84 M 507.431 1068.03 L 497.168 1105.83 M 478.566 1081.66 L 500.728 1049.36 M 500.848 1049.6 L 479.438 1082.4 M 468.454 1023.41 L 467.385 1051.79 M 467.385 1051.79 L 499.315 1029.11 M 500.265 1030.03 L 469.791 1054.64 M 477.597 996.509 L 468.454 1023.41 M 499.315 1029.11 L 505.539 1010.8 M 494.052 973.352 L 477.597 996.509 M 505.539 1010.8 L 516.739 995.036 M 531.979 983.135 L 516.442 955.868 M 551.767 973.862 L 543.11 943.696 M 517.223 955.396 L 534.146 981.826 M 594.433 957.188 L 588.001 926.47 M 561.329 936.25 L 576.278 963.844 M 647.361 900.576 L 665.5 926.187 M 672.672 887.68 L 702.332 913.263 M 701.749 913.924 L 672.672 887.68 M 701.171 880.812 L 723.948 912.678 M 721.597 914.931 L 700.493 881.933 M 732.262 878.079 L 748.128 913.891 M 742.273 918.85 L 729.562 881.8 M 766.45 876.712 L 776.269 914.631 M 764.827 923.64 L 759.867 884.786 M 828.958 823.746 L 849.823 863.677 M 829.716 887.437 L 816.963 844.226 M 881.913 802.575 L 901.791 843.005 M 873.352 879.596 L 863.786 835.57 M 939.751 765.571 L 960.616 805.501 M 924.922 859.497 L 916.44 815.25 M 999.562 706.579 L 1023.29 744.88 M 960.616 805.501 L 984.145 821.42 M 984.145 821.42 L 974.579 777.394 M 1067.04 734.162 L 1035.16 715.83 M 1023.29 744.88 L 1047.91 759.04 M 1092.95 760.272 L 1067.04 734.162 M 1067.92 779.207 L 1092.95 760.272 M 1047.91 759.04 L 1067.92 779.207 M 473.383 1127.04 L 502.073 1150.05 M 502.073 1150.05 L 496.11 1105.4 M 497.168 1105.83 L 505.162 1150.17 M 505.162 1150.17 L 520.116 1122.58 M 450.277 1095.24 L 470.481 1125.98 M 470.481 1125.98 L 478.566 1081.66 M 479.438 1082.4 L 473.383 1127.04 M 432.383 1051.74 L 438.331 1088.04 M 438.331 1088.04 L 463.754 1050.84 M 469.791 1054.64 L 450.277 1095.24 M 436.244 1015.16 L 432.383 1051.74 M 463.754 1050.84 L 466.736 1022.59 M 449.637 980.908 L 436.244 1015.16 M 466.736 1022.59 L 477.08 996.133 M 471.61 951.413 L 449.637 980.908 M 477.08 996.133 L 494.052 973.352 M 516.442 955.868 L 500.599 928.777 M 543.11 943.696 L 534.114 913.629 M 500.599 928.777 L 517.223 955.396 M 588.001 926.47 L 581.224 895.827 M 546.692 908.489 L 561.329 936.25 M 629.51 874.764 L 647.361 900.576 M 662.282 858.066 L 701.171 880.812 M 700.493 881.933 L 662.282 858.066 M 698.773 847.942 L 732.262 878.079 M 729.562 881.8 L 698.069 849.582 M 738.319 841.521 L 766.45 876.712 M 759.867 884.786 L 735.538 846.867 M 781.365 834.976 L 805.088 873.277 M 792.593 887.827 L 774.767 846.45 M 845.185 767.031 L 881.913 802.575 M 863.786 835.57 L 835.441 793.039 M 902.162 730.939 L 939.751 765.571 M 916.44 815.25 L 889.147 772.036 M 959.545 674.784 L 999.562 706.579 M 974.579 777.394 L 946.234 734.864 M 1011.47 593.393 L 1055 620.178 M 1035.16 715.83 L 1003.79 675.481 M 1048.59 484.09 L 1095.9 503.424 M 1055 620.178 L 1091.45 625.108 M 1091.45 625.108 L 1055.48 588.798 M 1058.76 348.788 L 1109.01 358.16 M 1109.01 358.16 L 1098.19 328.701 M 1095.9 503.424 L 1132.66 502.35 M 1132.66 502.35 L 1091.26 472.386 M 20.5237 114.495 L 41.9494 137.427 M 44.2208 86.3665 L 20.5237 114.495 M 70.4572 103.588 L 44.2208 86.3665 M 397.13 1091.68 L 409.55 1134.15 M 438.41 1121.82 L 428.086 1086.52 M 409.55 1134.15 L 438.41 1121.82 M 395.093 1047.48 L 397.13 1091.68 M 428.086 1086.52 L 426.392 1049.78 M 403.554 1004.05 L 395.093 1047.48 M 426.392 1049.78 L 433.426 1013.67 M 422.035 963.849 L 403.554 1004.05 M 433.426 1013.67 L 448.788 980.256 M 449.489 929.151 L 422.035 963.849 M 448.788 980.256 L 471.61 951.413 M 484.363 901.919 L 449.489 929.151 M 534.114 913.629 L 524.683 883.696 M 581.224 895.827 L 574.002 865.286 M 532.46 880.517 L 546.692 908.489 M 612.037 848.694 L 629.51 874.764 M 651.461 828.607 L 698.773 847.942 M 698.069 849.582 L 651.461 828.607 M 694.789 814.736 L 738.319 841.521 M 735.538 846.867 L 694.131 816.903 M 741.348 803.181 L 781.365 834.976 M 774.767 846.45 L 738.796 810.141 M 791.369 789.115 L 828.958 823.746 M 816.963 844.226 L 785.589 803.878 M 851.465 705.353 L 902.162 730.939 M 889.147 772.036 L 845.549 735.649 M 907.115 652.967 L 959.545 674.784 M 946.234 734.864 L 901.756 699.558 M 956.811 577.998 L 1011.47 593.393 M 1003.79 675.481 L 956.849 643.516 M 992.148 477.806 L 1048.59 484.09 M 1055.48 588.798 L 1005.06 562.672 M 1002.22 354.043 L 1058.76 348.788 M 1091.26 472.386 L 1037.25 454.824 M 975.639 214.308 L 1029.34 195.845 M 1029.34 195.845 L 1006.58 174.24 M 1098.19 328.701 L 1041.75 322.417 M 41.9494 137.427 L 63.7723 159.981 M 96.3888 121.265 L 70.4572 103.588 M 344.692 1083.53 L 348.482 1134.01 M 379.377 1128.49 L 376.064 1084.37 M 348.482 1134.01 L 379.377 1128.49 M 351.184 1033.32 L 344.692 1083.53 M 376.064 1084.37 L 381.739 1040.49 M 367.69 985.468 L 351.184 1033.32 M 381.739 1040.49 L 396.166 998.662 M 393.53 941.936 L 367.69 985.468 M 396.166 998.662 L 418.75 960.614 M 427.635 904.526 L 393.53 941.936 M 418.75 960.614 L 448.56 927.916 M 468.599 874.782 L 427.635 904.526 M 448.56 927.916 L 484.363 901.919 M 524.683 883.696 L 514.729 853.932 M 574.002 865.286 L 566.248 834.875 M 518.719 852.302 L 532.46 880.517 M 595.022 822.323 L 612.037 848.694 M 640.128 799.341 L 694.789 814.736 M 694.131 816.903 L 640.128 799.341 M 688.918 781.363 L 741.348 803.181 M 738.796 810.141 L 688.375 784.014 M 740.672 763.529 L 791.369 789.115 M 785.589 803.878 L 738.652 771.913 M 795.131 740.208 L 845.185 767.031 M 835.441 793.039 L 790.962 757.734 M 846.41 641.91 L 907.115 652.967 M 901.756 699.558 L 845.336 674.574 M 895.219 574.276 L 956.811 577.998 M 956.849 643.516 L 898.756 622.717 M 930.773 484.169 L 992.148 477.806 M 1005.06 562.672 L 944.896 548.964 M 943.397 372.68 L 1002.22 354.043 M 1037.25 454.824 L 975.662 451.101 M 922.884 246.313 L 975.639 214.308 M 1041.75 322.417 L 980.675 331.222 M 873.103 128.368 L 916.804 84.8072 M 916.804 84.8072 L 887.188 74.4227 M 1006.58 174.24 L 949.314 197.222 M 63.7723 159.981 L 86.0407 182.095 M 121.963 139.456 L 96.3888 121.265 M 0 280.793 L 27.9983 294.971 M 19.1021 233.912 L 0 280.793 M 49.0364 243.339 L 19.1021 233.912 M 305.969 1009.7 L 288.006 1062.48 M 318.444 1070.13 L 334.753 1022.2 M 288.006 1062.48 L 318.444 1070.13 M 332.29 960.55 L 305.969 1009.7 M 334.753 1022.2 L 358.653 977.578 M 366.268 916.346 L 332.29 960.55 M 358.653 977.578 L 389.504 937.442 M 406.994 878.269 L 366.268 916.346 M 389.504 937.442 L 426.482 902.868 M 453.379 847.336 L 406.994 878.269 M 426.482 902.868 L 468.599 874.782 M 514.729 853.932 L 504.185 824.373 M 566.248 834.875 L 557.889 804.625 M 505.543 823.818 L 518.719 852.302 M 578.536 795.619 L 595.022 822.323 M 628.213 770.307 L 688.918 781.363 M 688.375 784.014 L 628.213 770.307 M 680.936 748.071 L 740.672 763.529 M 738.652 771.913 L 680.559 751.114 M 735.792 723.289 L 795.131 740.208 M 790.962 757.734 L 734.543 732.75 M 791.729 689.895 L 851.465 705.353 M 845.549 735.649 L 789.759 709.288 M 829.907 580.377 L 895.219 574.276 M 898.756 622.717 L 833.862 613.144 M 867.328 500.829 L 930.773 484.169 M 944.896 548.964 L 879.323 547.216 M 884.629 401.822 L 943.397 372.68 M 975.662 451.101 L 910.681 460.06 M 872.663 288.512 L 922.884 246.313 M 980.675 331.222 L 918.845 353.131 M 834.271 181.236 L 873.103 128.368 M 949.314 197.222 L 894.41 233.116 M 759.491 78.9121 L 782.963 17.659 M 782.963 17.659 L 751.661 19.9182 M 887.188 74.4227 L 842.317 122.271 M 86.0407 182.095 L 108.789 203.716 M 147.132 158.204 L 121.963 139.456 M 27.9983 294.971 L 56.301 308.532 M 78.7568 253.42 L 49.0364 243.339 M 262.025 975.827 L 231.056 1026.65 M 258.785 1041.34 L 287.799 993.734 M 231.056 1026.65 L 258.785 1041.34 M 298.845 929.074 L 262.025 975.827 M 287.799 993.734 L 322.294 949.933 M 340.99 887.057 L 298.845 929.074 M 322.294 949.933 L 361.777 910.569 M 387.853 850.378 L 340.99 887.057 M 361.777 910.569 L 405.682 876.206 M 438.765 819.562 L 387.853 850.378 M 405.682 876.206 L 453.379 847.336 M 504.185 824.373 L 492.995 795.052 M 557.889 804.625 L 548.868 774.566 M 492.995 795.052 L 505.543 823.818 M 562.64 768.558 L 578.536 795.619 M 615.665 741.541 L 680.936 748.071 M 680.559 751.114 L 615.665 741.541 M 670.702 715.159 L 735.792 723.289 M 734.543 732.75 L 670.52 718.466 M 726.458 683.365 L 791.729 689.895 M 789.759 709.288 L 726.107 693.437 M 780.837 640.162 L 846.41 641.91 M 845.336 674.574 L 781.314 660.29 M 803.195 524.28 L 867.328 500.829 M 879.323 547.216 L 811.479 554.973 M 826.56 437.752 L 884.629 401.822 M 910.681 460.06 L 845.007 478.767 M 824.726 337.142 L 872.663 288.512 M 918.845 353.131 L 858.309 384.727 M 799.177 239.814 L 834.271 181.236 M 894.41 233.116 L 843.05 278.118 M 741.133 144.684 L 759.491 78.9121 M 842.317 122.271 L 803.041 178.131 M 660.004 68.2849 L 660.32 0 M 660.32 0 L 631.873 13.2548 M 751.661 19.9182 L 728.551 84.1745 M 108.789 203.716 L 132.036 224.8 M 171.855 177.534 L 147.132 158.204 M 56.301 308.532 L 84.9128 321.428 M 108.234 264.193 L 78.7568 253.42 M 38.6589 424.421 L 69.852 427.874 M 43.0431 365.071 L 38.6589 424.421 M 74.4051 366.239 L 43.0431 365.071 M 269.044 891.423 L 222.445 932.022 M 243.912 954.916 L 288.782 915.823 M 222.445 932.022 L 243.912 954.916 M 318.481 854.334 L 269.044 891.423 M 288.782 915.823 L 336.386 880.109 M 370.493 820.952 L 318.481 854.334 M 336.386 880.109 L 386.469 847.965 M 424.804 791.455 L 370.493 820.952 M 386.469 847.965 L 438.765 819.562 M 481.122 766.001 L 424.804 791.455 M 548.868 774.566 L 539.148 744.725 M 547.38 741.134 L 562.64 768.558 M 602.448 713.076 L 670.702 715.159 M 670.52 718.466 L 602.448 713.076 M 658.174 682.959 L 726.458 683.365 M 726.107 693.437 L 658.187 686.378 M 712.705 644.74 L 780.837 640.162 M 781.314 660.29 L 713.241 654.9 M 762.811 593.065 L 829.907 580.377 M 833.862 613.144 L 765.577 612.738 M 768.621 476.42 L 826.56 437.752 M 845.007 478.767 L 779.825 503.333 M 777.56 388.403 L 824.726 337.142 M 858.309 384.727 L 799.439 421.961 M 765.455 300.765 L 799.177 239.814 M 843.05 278.118 L 794.641 328.205 M 724.725 212.382 L 741.133 144.684 M 803.041 178.131 L 767.833 238.236 M 662.078 137.912 L 660.004 68.2849 M 728.551 84.1745 L 710.487 151.449 M 573.569 81.1781 L 551.667 15.0532 M 551.667 15.0532 L 529.244 37.0108 M 631.873 13.2548 L 632.237 82.9117 M 132.036 224.8 L 155.787 245.313 M 196.103 197.458 L 171.855 177.534 M 84.9128 321.428 L 113.829 333.626 M 137.44 275.678 L 108.234 264.193 M 69.852 427.874 L 101.12 430.57 M 105.729 368.166 L 74.4051 366.239 M 240.774 837.046 L 185.104 865.618 M 199.775 893.361 L 254.76 865.141 M 185.104 865.618 L 199.775 893.361 M 297.128 809.85 L 240.774 837.046 M 254.76 865.141 L 310.421 838.28 M 354.133 784.045 L 297.128 809.85 M 310.421 838.28 L 366.724 812.792 M 411.755 759.647 L 354.133 784.045 M 366.724 812.792 L 423.636 788.695 M 469.957 736.671 L 411.755 759.647 M 423.636 788.695 L 481.122 766.001 M 539.148 744.725 L 528.707 715.13 M 532.79 713.348 L 547.38 741.134 M 588.544 684.94 L 658.174 682.959 M 658.187 686.378 L 588.544 684.94 M 643.406 651.799 L 712.705 644.74 M 713.241 654.9 L 643.584 655.173 M 694.852 608.355 L 762.811 593.065 M 765.577 612.738 L 696.126 618.093 M 738.636 550.439 L 803.195 524.28 M 811.479 554.973 L 743.166 568.591 M 799.439 421.961 L 741.499 460.63 M 729.151 438.49 L 777.56 388.403 M 794.641 328.205 L 747.476 379.466 M 730.248 360.87 L 765.455 300.765 M 767.833 238.236 L 734.112 299.187 M 706.661 279.656 L 724.725 212.382 M 710.487 151.449 L 694.08 219.147 M 662.442 207.569 L 662.078 137.912 M 632.237 82.9117 L 634.311 152.539 M 593.842 147.821 L 573.569 81.1781 M 529.244 37.0108 L 551.146 103.136 M 511.019 110.189 L 472.532 52.1293 M 472.532 52.1293 L 457.326 79.5829 M 219.855 217.972 L 196.103 197.458 M 155.787 245.313 L 180.035 265.237 M 166.356 287.876 L 137.44 275.678 M 113.829 333.626 L 143.035 345.111 M 136.997 370.862 L 105.729 368.166 M 101.12 430.57 L 132.444 432.498 M 169.264 822.418 L 230.209 808.232 M 162.525 791.767 L 169.264 822.418 M 222.719 777.755 L 162.525 791.767 M 230.209 808.232 L 290.787 792.554 M 282.551 762.271 L 222.719 777.755 M 290.787 792.554 L 350.962 775.394 M 341.985 745.322 L 282.551 762.271 M 350.962 775.394 L 410.697 756.763 M 400.986 726.92 L 341.985 745.322 M 410.697 756.763 L 469.957 736.671 M 459.516 707.075 L 400.986 726.92 M 528.707 715.13 L 517.542 685.799 M 518.887 685.213 L 532.79 713.348 M 643.584 655.173 L 573.954 657.154 M 573.954 657.154 L 643.406 651.799 M 696.126 618.093 L 626.827 625.152 M 626.538 621.973 L 694.852 608.355 M 743.166 568.591 L 675.207 583.881 M 673.453 575.004 L 738.636 550.439 M 779.825 503.333 L 715.266 529.492 M 709.75 513.655 L 768.621 476.42 M 747.476 379.466 L 699.539 428.096 M 690.972 416.73 L 730.248 360.87 M 734.112 299.187 L 699.018 357.765 M 683.551 343.913 L 706.661 279.656 M 694.08 219.147 L 675.721 284.919 M 657.143 275.648 L 662.442 207.569 M 634.311 152.539 L 633.995 220.824 M 608.236 214.572 L 593.842 147.821 M 551.146 103.136 L 570.374 168.658 M 543.904 170.035 L 511.019 110.189 M 457.326 79.5829 L 494.491 136.869 M 465.269 146.101 L 415.911 98.9128 M 415.911 98.9128 L 408.17 129.327 M 243.102 239.055 L 219.855 217.972 M 180.035 265.237 L 204.759 284.568 M 194.968 300.772 L 166.356 287.876 M 143.035 345.111 L 172.512 355.884 M 168.19 374.316 L 136.997 370.862 M 132.444 432.498 L 163.806 433.665 M 154.831 747.614 L 216.629 748.469 M 156.411 716.27 L 154.831 747.614 M 215.916 717.093 L 156.411 716.27 M 216.629 748.469 L 278.324 744.811 M 275.323 713.571 L 215.916 717.093 M 278.324 744.811 L 339.587 736.66 M 334.315 705.722 L 275.323 713.571 M 339.587 736.66 L 400.092 724.059 M 392.576 693.588 L 334.315 705.722 M 400.092 724.059 L 459.516 707.075 M 449.796 677.234 L 392.576 693.588 M 517.542 685.799 L 505.67 656.748 M 505.67 656.748 L 518.887 685.213 M 626.827 625.152 L 558.695 629.73 M 558.695 629.73 L 626.538 621.973 M 675.207 583.881 L 608.11 596.569 M 607.78 593.712 L 673.453 575.004 M 715.266 529.492 L 651.133 552.942 M 649.214 545.252 L 709.75 513.655 M 741.499 460.63 L 683.431 496.561 M 677.792 483.492 L 729.151 438.49 M 699.018 357.765 L 660.186 410.633 M 652.926 401.921 L 683.551 343.913 M 675.721 284.919 L 652.249 346.172 M 642.944 339.69 L 657.143 275.648 M 633.995 220.824 L 627.551 286.103 M 612.947 279.999 L 608.236 214.572 M 570.374 168.658 L 582.871 233.053 M 567.131 231.382 L 543.904 170.035 M 494.491 136.869 L 524.884 194.999 M 505.867 197.624 L 465.269 146.101 M 408.17 129.327 L 454.636 175.629 M 437.288 183.85 L 383.076 146.919 M 383.076 146.919 L 381.814 178.277 M 265.85 260.676 L 243.102 239.055 M 204.759 284.568 L 229.928 303.315 M 223.271 314.333 L 194.968 300.772 M 172.512 355.884 L 202.233 365.965 M 199.294 378.498 L 168.19 374.316 M 163.806 433.665 L 195.187 434.1 M 165.373 452.533 L 179.486 510.346 M 196.252 446.928 L 165.373 452.533 M 179.486 510.346 L 209.475 501.091 M 214.199 689.481 L 273.225 697.064 M 220.054 658.648 L 214.199 689.481 M 275.353 665.752 L 220.054 658.648 M 273.225 697.064 L 332.734 697.538 M 331.105 666.197 L 275.353 665.752 M 332.734 697.538 L 391.874 690.896 M 386.511 659.974 L 331.105 666.197 M 391.874 690.896 L 449.796 677.234 M 440.775 647.175 L 386.511 659.974 M 493.121 627.982 L 440.775 647.175 M 608.11 596.569 L 542.798 602.67 M 542.798 602.67 L 607.78 593.712 M 651.133 552.942 L 587.687 569.603 M 587.385 567.161 L 649.214 545.252 M 683.431 496.561 L 624.663 525.702 M 622.888 519.386 L 677.792 483.492 M 699.539 428.096 L 649.318 470.296 M 646.1 464.578 L 690.972 416.73 M 652.249 346.172 L 621.619 399.736 M 618.034 396.142 L 642.944 339.69 M 627.551 286.103 L 612.172 345.859 M 605.225 341.218 L 612.947 279.999 M 582.871 233.053 L 585.226 294.712 M 577.241 292.251 L 567.131 231.382 M 524.884 194.999 L 544.777 253.409 M 533.812 252.638 L 505.867 197.624 M 454.636 175.629 L 491.17 225.354 M 480.481 227.915 L 437.288 183.85 M 381.814 178.277 L 431.609 214.716 M 420.723 220.661 L 366.055 192.047 M 366.055 192.047 L 370.162 223.161 M 288.118 282.791 L 265.85 260.676 M 229.928 303.315 L 255.501 321.506 M 251.269 328.511 L 223.271 314.333 M 202.233 365.965 L 232.167 375.392 M 230.299 383.36 L 199.294 378.498 M 195.187 434.1 L 226.569 433.846 M 227.246 442.002 L 196.252 446.928 M 209.475 501.091 L 239.252 491.181 M 221.816 622.627 L 274.245 641.591 M 234.867 594.086 L 221.816 622.627 M 282.472 611.304 L 234.867 594.086 M 274.245 641.591 L 329.064 651.758 M 332.246 620.536 L 282.472 611.304 M 329.064 651.758 L 384.807 652.858 M 382.859 621.535 L 332.246 620.536 M 384.807 652.858 L 439.984 644.862 M 432.959 614.274 L 382.859 621.535 M 439.984 644.862 L 493.121 627.982 M 481.207 598.948 L 432.959 614.274 M 587.687 569.603 L 526.312 575.966 M 526.312 575.966 L 587.385 567.161 M 624.663 525.702 L 565.841 544.34 M 565.623 542.368 L 622.888 519.386 M 649.318 470.296 L 596.563 502.3 M 595.885 500.436 L 646.1 464.578 M 660.186 410.633 L 616.485 454.194 M 613.978 449.78 L 652.926 401.921 M 612.172 345.859 L 586.654 396.59 M 584.186 393.964 L 605.225 341.218 M 585.226 294.712 L 575.284 350.623 M 572.168 348.812 L 577.241 292.251 M 544.777 253.409 L 551.241 309.827 M 545.98 308.106 L 533.812 252.638 M 491.17 225.354 L 514.3 277.218 M 508.765 277.158 L 480.481 227.915 M 431.609 214.716 L 469.263 257.225 M 462.802 258.795 L 420.723 220.661 M 370.162 223.161 L 419.08 252.002 M 413.418 255.486 L 361.637 232.171 M 361.637 232.171 L 369.73 262.494 M 309.941 305.345 L 288.118 282.791 M 255.501 321.506 L 281.433 339.183 M 278.979 343.245 L 251.269 328.511 M 232.167 375.392 L 262.283 384.22 M 261.2 388.84 L 230.299 383.36 M 226.569 433.846 L 257.94 432.966 M 258.333 437.695 L 227.246 442.002 M 239.252 491.181 L 268.827 480.679 M 240.809 565.22 L 284.059 591.528 M 259.758 540.203 L 240.809 565.22 M 297.56 563.197 L 259.758 540.203 M 284.059 591.528 L 331.735 608.55 M 339.23 578.075 L 297.56 563.197 M 331.735 608.55 L 381.867 615.584 M 383.048 584.222 L 339.23 578.075 M 381.867 615.584 L 432.387 612.338 M 427.203 581.386 L 383.048 584.222 M 432.387 612.338 L 481.207 598.948 M 469.873 569.682 L 427.203 581.386 M 565.841 544.34 L 509.297 549.595 M 509.297 549.595 L 565.623 542.368 M 596.563 502.3 L 542.86 520.763 M 542.86 520.763 L 595.885 500.436 M 616.485 454.194 L 568.663 484.819 M 568.214 483.402 L 613.978 449.78 M 621.619 399.736 L 583.596 441.915 M 582.787 440.668 L 618.034 396.142 M 575.284 350.623 L 552.911 396.577 M 552.195 395.859 L 572.168 348.812 M 551.241 309.827 L 542.947 360.261 M 541.078 358.981 L 545.98 308.106 M 514.3 277.218 L 521.554 327.811 M 519.387 327.153 L 508.765 277.158 M 469.263 257.225 L 491.394 303.296 M 488.31 303.086 L 462.802 258.795 M 419.08 252.002 L 454.329 289.014 M 451.33 289.764 L 413.418 255.486 M 369.73 262.494 L 414.666 286.845 M 412.045 288.483 L 365.416 267.553 M 365.416 267.553 L 376.265 297.002 M 331.367 328.277 L 309.941 305.345 M 281.433 339.183 L 307.67 356.405 M 306.428 358.46 L 278.979 343.245 M 262.283 384.22 L 292.549 392.521 M 292.001 394.859 L 261.2 388.84 M 257.94 432.966 L 289.292 431.539 M 289.49 433.931 L 258.333 437.695 M 268.827 480.679 L 298.213 469.662 M 267.217 519.19 L 300.449 548.403 M 290.594 498.251 L 267.217 519.19 M 318.218 522.534 L 290.594 498.251 M 300.449 548.403 L 339.641 568.939 M 350.797 539.605 L 318.218 522.534 M 339.641 568.939 L 382.575 579.636 M 386.486 548.497 L 350.797 539.605 M 382.575 579.636 L 426.82 579.888 M 423.265 548.707 L 386.486 548.497 M 426.82 579.888 L 469.873 569.682 M 459.053 540.223 L 423.265 548.707 M 568.663 484.819 L 519.724 499.559 M 519.724 499.559 L 568.214 483.402 M 583.596 441.915 L 540.294 469.069 M 540.294 469.069 L 582.787 440.668 M 586.654 396.59 L 552.072 434.226 M 551.591 433.333 L 584.186 393.964 M 542.947 360.261 L 521.038 399.628 M 520.675 399.15 L 541.078 358.981 M 521.554 327.811 L 512.497 371.944 M 512.006 371.597 L 519.387 327.153 M 491.394 303.296 L 496.026 348.11 M 494.981 347.642 L 488.31 303.086 M 454.329 289.014 L 472.542 330.221 M 471.404 330.098 L 451.33 289.764 M 414.666 286.845 L 444.689 320.437 M 443.569 320.67 L 412.045 288.483 M 376.265 297.002 L 415.177 319.71 M 414.183 320.277 L 374.276 299.367 M 374.276 299.367 L 386.876 328.111 M 352.457 351.518 L 331.367 328.277 M 307.67 356.405 L 334.154 373.243 M 333.652 374.073 L 306.428 358.46 M 292.549 392.521 L 322.933 400.381 M 322.711 401.325 L 292.001 394.859 M 289.292 431.539 L 320.619 429.655 M 320.699 430.621 L 289.49 433.931 M 298.213 469.662 L 327.436 458.219 M 297.361 484.578 L 321.174 512.608 M 323.775 467.63 L 297.361 484.578 M 342.168 489.28 L 323.775 467.63 M 321.174 512.608 L 351.55 533.346 M 365.63 505.297 L 342.168 489.28 M 351.55 533.346 L 386.328 545.314 M 392.492 514.542 L 365.63 505.297 M 386.328 545.314 L 423.033 547.662 M 420.842 516.355 L 392.492 514.542 M 423.033 547.662 L 459.053 540.223 M 491.824 523.525 L 448.662 510.609 M 449.056 509.359 L 491.824 523.525 M 552.072 434.226 L 512.169 455.144 M 512.169 455.144 L 551.591 433.333 M 552.911 396.577 L 520.658 428.034 M 520.658 428.034 L 552.195 395.859 M 512.497 371.944 L 489.63 403.746 M 489.63 403.746 L 512.006 371.597 M 496.026 348.11 L 483.78 385.316 M 483.598 385.121 L 494.981 347.642 M 472.542 330.221 L 472.354 369.39 M 472.121 369.26 L 471.404 330.098 M 444.689 320.437 L 456.578 357.758 M 456.317 357.707 L 443.569 320.67 M 415.177 319.71 L 437.986 351.553 M 437.721 351.585 L 414.183 320.277 M 386.876 328.111 L 418.386 351.378 M 418.144 351.489 L 386.105 328.957 M 386.105 328.957 L 399.686 357.25 M 373.284 374.995 L 352.457 351.518 M 334.154 373.243 L 360.825 389.783 M 360.699 389.991 L 333.652 374.073 M 322.933 400.381 L 353.403 407.898 M 353.347 408.136 L 322.711 401.325 M 320.619 429.655 L 351.923 427.42 M 351.943 427.663 L 320.699 430.621 M 327.436 458.219 L 356.529 446.448 M 327.81 459.113 L 342.722 483.292 M 356.623 446.673 L 327.81 459.113 M 342.722 483.292 L 366.773 463.131 M 343.793 485.897 L 366.121 503.46 M 366.558 464.294 L 343.793 485.897 M 381.756 476.248 L 366.558 464.294 M 366.121 503.46 L 392.54 513.904 M 399.738 483.357 L 381.756 476.248 M 392.54 513.904 L 420.842 516.355 M 448.662 510.609 L 419.002 485.025 M 420.755 482.28 L 449.056 509.359 M 474.732 497.204 L 439.868 479.351 M 440.279 478.571 L 474.732 497.204 M 496.281 478.693 L 472.605 458.092 M 473.075 457.565 L 496.281 478.693 M 521.038 399.628 L 489.667 423.083 M 489.667 423.083 L 520.675 399.15 M 483.78 385.316 L 458.621 408.581 M 458.621 408.581 L 483.598 385.121 M 472.354 369.39 L 455.587 399.274 M 455.587 399.274 L 472.121 369.26 M 456.578 357.758 L 449.833 391.355 M 449.833 391.355 L 456.317 357.707 M 437.986 351.553 L 441.919 385.593 M 441.919 385.593 L 437.721 351.585 M 418.386 351.378 L 432.616 382.55 M 432.616 382.55 L 418.144 351.489 M 399.686 357.25 L 422.827 382.522 M 422.827 382.522 L 399.49 357.43 M 399.49 357.43 L 413.506 385.51 M 393.93 398.631 L 373.284 374.995 M 360.825 389.783 L 387.623 406.117 M 387.623 406.117 L 360.699 389.991 M 353.403 407.898 L 383.93 415.182 M 383.93 415.182 L 353.347 408.136 M 351.923 427.42 L 383.208 424.944 M 383.208 424.944 L 351.943 427.663 M 356.529 446.448 L 385.53 434.453 M 385.53 434.453 L 356.623 446.673 M 366.773 463.131 L 390.668 442.785 M 367.043 463.558 L 381.867 475.973 M 390.619 442.843 L 367.043 463.558 M 398.124 449.128 L 390.619 442.843 M 381.867 475.973 L 399.738 483.357 M 419.002 485.025 L 407.17 452.866 M 411.101 449.401 L 420.755 482.28 M 439.868 479.351 L 420.775 450.896 M 422.276 449.414 L 440.279 478.571 M 457.938 470.692 L 432.001 448.298 M 432.347 447.903 L 457.938 470.692 M 472.605 458.092 L 448.772 437.674 M 450.031 436.259 L 473.075 457.565 M 483.889 441.535 L 455.506 428.145 M 455.715 427.711 L 483.889 441.535 M 745.066 948.021 L 725.4 972.479 M 755.67 964.192 L 751.645 955.27 M 756.751 973.921 L 755.67 964.192 M 754.781 983.51 L 756.751 973.921 M 725.4 972.479 L 742.737 998.639 M 549.077 1066.32 L 562.528 1037.97 M 539.592 1016.55 L 534.108 1024.65 M 562.528 1037.97 L 547.307 1010.52 M 568.499 1034.36 L 560.191 1004.09 M 551.271 1008.12 L 568.499 1034.36 M 606.705 1018.74 L 600.629 987.954 M 591.438 991.324 L 606.705 1018.74 M 702.27 977.056 L 692.558 947.213 M 683.836 951.657 L 702.27 977.056 M 702.502 976.98 L 702.212 945.597 M 692.558 947.213 L 702.502 976.98 M 703.657 976.662 L 712.356 946.508 M 702.642 945.295 L 703.657 976.662 M 706.85 975.942 L 723.211 949.16 M 714.164 945.422 L 706.85 975.942 M 727.849 946.722 L 713.533 974.65 M 713.533 974.65 L 735.757 952.491 M 413.506 385.51 L 427.631 413.536 M 414.484 422.347 L 393.93 398.631 M 390.668 442.785 L 398.124 449.128 M 407.17 452.866 L 414.484 422.347 M 420.775 450.896 L 420.672 419.513 M 420.672 419.513 L 411.101 449.401 M 432.001 448.298 L 423.605 418.059 M 423.605 418.059 L 422.276 449.414 M 441.347 444.052 L 424.653 417.477 M 424.653 417.477 L 432.347 447.903 M 448.772 437.674 L 424.86 417.348 M 424.86 417.348 L 441.347 444.052 M 455.506 428.145 L 427.071 414.864 M 427.071 414.864 L 450.031 436.259 M 458.64 418.369 L 427.594 413.777 M 427.594 413.777 L 455.715 427.711 M 427.631 413.536 L 458.64 418.369" />
<path fill="none" class="c" d=" M 542.798 602.67 L 526.312 575.966 M 526.312 575.966 L 481.207 598.948 M 542.798 602.67 L 587.687 569.603 M 469.873 569.682 L 481.207 598.948 M 526.312 575.966 L 509.297 549.595 M 509.297 549.595 L 469.873 569.682 M 526.312 575.966 L 565.841 544.34 M 459.053 540.223 L 469.873 569.682 M 509.297 549.595 L 491.824 523.525 M 491.824 523.525 L 459.053 540.223 M 509.297 549.595 L 542.86 520.763 M 542.86 520.763 L 519.724 499.559 M 519.724 499.559 L 491.824 523.525 M 542.86 520.763 L 568.663 484.819 M 448.662 510.609 L 459.053 540.223 M 474.732 497.204 L 491.824 523.525 M 519.724 499.559 L 496.281 478.693 M 496.281 478.693 L 474.732 497.204 M 519.724 499.559 L 540.294 469.069 M 540.294 469.069 L 512.169 455.144 M 512.169 455.144 L 496.281 478.693 M 540.294 469.069 L 552.072 434.226 M 457.938 470.692 L 474.732 497.204 M 472.605 458.092 L 457.938 470.692 M 512.169 455.144 L 483.889 441.535 M 483.889 441.535 L 473.075 457.565 M 512.169 455.144 L 520.658 428.034 M 520.658 428.034 L 489.667 423.083 M 489.667 423.083 L 483.889 441.535 M 520.658 428.034 L 521.038 399.628 M 441.347 444.052 L 457.938 470.692 M 448.772 437.674 L 441.347 444.052 M 455.506 428.145 L 450.031 436.259 M 489.667 423.083 L 458.64 418.369 M 458.64 418.369 L 455.715 427.711 M 489.667 423.083 L 489.63 403.746 M 489.63 403.746 L 458.621 408.581 M 458.621 408.581 L 458.64 418.369 M 458.621 408.581 L 427.631 413.536 M 493.121 627.982 L 542.798 602.67 M 607.78 593.712 L 587.687 569.603 M 607.78 593.712 L 651.133 552.942 M 481.207 598.948 L 493.121 627.982 M 587.385 567.161 L 565.841 544.34 M 587.385 567.161 L 624.663 525.702 M 565.623 542.368 L 542.86 520.763 M 565.623 542.368 L 596.563 502.3 M 595.885 500.436 L 568.663 484.819 M 595.885 500.436 L 616.485 454.194 M 568.214 483.402 L 540.294 469.069 M 568.214 483.402 L 583.596 441.915 M 582.787 440.668 L 552.072 434.226 M 582.787 440.668 L 586.654 396.59 M 448.662 510.609 L 420.842 516.355 M 474.732 497.204 L 449.056 509.359 M 551.591 433.333 L 520.658 428.034 M 551.591 433.333 L 552.911 396.577 M 552.195 395.859 L 521.038 399.628 M 419.002 485.025 L 420.842 516.355 M 439.868 479.351 L 449.056 509.359 M 457.938 470.692 L 440.279 478.571 M 520.675 399.15 L 489.63 403.746 M 489.63 403.746 L 483.78 385.316 M 432.001 448.298 L 440.279 478.571 M 441.347 444.052 L 432.347 447.903 M 458.621 408.581 L 455.587 399.274 M 455.587 399.274 L 427.631 413.536 M 455.587 399.274 L 449.833 391.355 M 449.833 391.355 L 427.631 413.536 M 449.833 391.355 L 441.919 385.593 M 441.919 385.593 L 427.631 413.536 M 441.919 385.593 L 432.616 382.55 M 432.616 382.55 L 427.631 413.536 M 432.616 382.55 L 422.827 382.522 M 422.827 382.522 L 427.631 413.536 M 422.827 382.522 L 413.506 385.51 M 673.453 575.004 L 651.133 552.942 M 673.453 575.004 L 715.266 529.492 M 558.695 629.73 L 542.798 602.67 M 558.695 629.73 L 608.11 596.569 M 649.214 545.252 L 624.663 525.702 M 649.214 545.252 L 683.431 496.561 M 622.888 519.386 L 596.563 502.3 M 622.888 519.386 L 649.318 470.296 M 646.1 464.578 L 616.485 454.194 M 646.1 464.578 L 660.186 410.633 M 427.203 581.386 L 432.387 612.338 M 613.978 449.78 L 583.596 441.915 M 613.978 449.78 L 621.619 399.736 M 618.034 396.142 L 586.654 396.59 M 423.265 548.707 L 426.82 579.888 M 584.186 393.964 L 552.911 396.577 M 552.195 395.859 L 542.947 360.261 M 420.842 516.355 L 423.033 547.662 M 520.675 399.15 L 512.497 371.944 M 512.006 371.597 L 483.78 385.316 M 512.006 371.597 L 496.026 348.11 M 419.002 485.025 L 399.738 483.357 M 439.868 479.351 L 420.755 482.28 M 483.598 385.121 L 455.587 399.274 M 483.598 385.121 L 472.354 369.39 M 472.121 369.26 L 449.833 391.355 M 472.121 369.26 L 456.578 357.758 M 456.317 357.707 L 441.919 385.593 M 456.317 357.707 L 437.986 351.553 M 437.721 351.585 L 432.616 382.55 M 437.721 351.585 L 418.386 351.378 M 418.144 351.489 L 422.827 382.522 M 418.144 351.489 L 399.686 357.25 M 407.17 452.866 L 399.738 483.357 M 420.775 450.896 L 420.755 482.28 M 432.001 448.298 L 422.276 449.414 M 738.636 550.439 L 715.266 529.492 M 738.636 550.439 L 779.825 503.333 M 505.67 656.748 L 558.695 629.73 M 626.538 621.973 L 608.11 596.569 M 626.538 621.973 L 675.207 583.881 M 709.75 513.655 L 683.431 496.561 M 709.75 513.655 L 741.499 460.63 M 493.121 627.982 L 505.67 656.748 M 677.792 483.492 L 649.318 470.296 M 677.792 483.492 L 699.539 428.096 M 690.972 416.73 L 660.186 410.633 M 432.959 614.274 L 439.984 644.862 M 652.926 401.921 L 621.619 399.736 M 618.034 396.142 L 612.172 345.859 M 584.186 393.964 L 575.284 350.623 M 572.168 348.812 L 542.947 360.261 M 572.168 348.812 L 551.241 309.827 M 541.078 358.981 L 512.497 371.944 M 541.078 358.981 L 521.554 327.811 M 519.387 327.153 L 496.026 348.11 M 519.387 327.153 L 491.394 303.296 M 494.981 347.642 L 472.354 369.39 M 494.981 347.642 L 472.542 330.221 M 471.404 330.098 L 456.578 357.758 M 471.404 330.098 L 444.689 320.437 M 443.569 320.67 L 437.986 351.553 M 443.569 320.67 L 415.177 319.71 M 414.183 320.277 L 418.386 351.378 M 414.183 320.277 L 386.876 328.111 M 399.738 483.357 L 392.54 513.904 M 407.17 452.866 L 398.124 449.128 M 420.775 450.896 L 411.101 449.401 M 414.484 422.347 L 398.124 449.128 M 803.195 524.28 L 779.825 503.333 M 694.852 608.355 L 675.207 583.881 M 694.852 608.355 L 743.166 568.591 M 768.621 476.42 L 741.499 460.63 M 573.954 657.154 L 558.695 629.73 M 573.954 657.154 L 626.827 625.152 M 729.151 438.49 L 699.539 428.096 M 690.972 416.73 L 699.018 357.765 M 652.926 401.921 L 652.249 346.172 M 642.944 339.69 L 612.172 345.859 M 642.944 339.69 L 627.551 286.103 M 605.225 341.218 L 575.284 350.623 M 605.225 341.218 L 585.226 294.712 M 577.241 292.251 L 551.241 309.827 M 577.241 292.251 L 544.777 253.409 M 383.048 584.222 L 381.867 615.584 M 545.98 308.106 L 521.554 327.811 M 545.98 308.106 L 514.3 277.218 M 508.765 277.158 L 491.394 303.296 M 508.765 277.158 L 469.263 257.225 M 386.486 548.497 L 382.575 579.636 M 488.31 303.086 L 472.542 330.221 M 488.31 303.086 L 454.329 289.014 M 451.33 289.764 L 444.689 320.437 M 451.33 289.764 L 414.666 286.845 M 412.045 288.483 L 415.177 319.71 M 412.045 288.483 L 376.265 297.002 M 392.492 514.542 L 386.328 545.314 M 398.124 449.128 L 381.867 475.973 M 414.484 422.347 L 390.668 442.785 M 803.195 524.28 L 845.007 478.767 M 762.811 593.065 L 743.166 568.591 M 762.811 593.065 L 811.479 554.973 M 768.621 476.42 L 799.439 421.961 M 518.887 685.213 L 573.954 657.154 M 643.406 651.799 L 626.827 625.152 M 643.406 651.799 L 696.126 618.093 M 729.151 438.49 L 747.476 379.466 M 730.248 360.87 L 699.018 357.765 M 730.248 360.87 L 734.112 299.187 M 683.551 343.913 L 652.249 346.172 M 683.551 343.913 L 675.721 284.919 M 657.143 275.648 L 627.551 286.103 M 657.143 275.648 L 633.995 220.824 M 449.796 677.234 L 505.67 656.748 M 440.775 647.175 L 449.796 677.234 M 612.947 279.999 L 585.226 294.712 M 612.947 279.999 L 582.871 233.053 M 567.131 231.382 L 544.777 253.409 M 567.131 231.382 L 524.884 194.999 M 382.859 621.535 L 384.807 652.858 M 533.812 252.638 L 514.3 277.218 M 533.812 252.638 L 491.17 225.354 M 480.481 227.915 L 469.263 257.225 M 480.481 227.915 L 431.609 214.716 M 462.802 258.795 L 454.329 289.014 M 462.802 258.795 L 419.08 252.002 M 413.418 255.486 L 414.666 286.845 M 413.418 255.486 L 369.73 262.494 M 381.756 476.248 L 366.121 503.46 M 385.53 434.453 L 390.668 442.785 M 414.484 422.347 L 385.53 434.453 M 867.328 500.829 L 845.007 478.767 M 867.328 500.829 L 910.681 460.06 M 829.907 580.377 L 811.479 554.973 M 826.56 437.752 L 799.439 421.961 M 826.56 437.752 L 858.309 384.727 M 712.705 644.74 L 696.126 618.093 M 712.705 644.74 L 765.577 612.738 M 777.56 388.403 L 747.476 379.466 M 777.56 388.403 L 794.641 328.205 M 765.455 300.765 L 734.112 299.187 M 765.455 300.765 L 767.833 238.236 M 588.544 684.94 L 573.954 657.154 M 588.544 684.94 L 643.584 655.173 M 706.661 279.656 L 675.721 284.919 M 706.661 279.656 L 694.08 219.147 M 662.442 207.569 L 633.995 220.824 M 662.442 207.569 L 634.311 152.539 M 608.236 214.572 L 582.871 233.053 M 608.236 214.572 L 570.374 168.658 M 543.904 170.035 L 524.884 194.999 M 543.904 170.035 L 494.491 136.869 M 505.867 197.624 L 491.17 225.354 M 505.867 197.624 L 454.636 175.629 M 437.288 183.85 L 431.609 214.716 M 437.288 183.85 L 381.814 178.277 M 420.723 220.661 L 419.08 252.002 M 420.723 220.661 L 370.162 223.161 M 339.23 578.075 L 331.735 608.55 M 350.797 539.605 L 339.641 568.939 M 365.63 505.297 L 351.55 533.346 M 383.208 424.944 L 385.53 434.453 M 414.484 422.347 L 383.208 424.944 M 930.773 484.169 L 910.681 460.06 M 930.773 484.169 L 975.662 451.101 M 829.907 580.377 L 879.323 547.216 M 884.629 401.822 L 858.309 384.727 M 884.629 401.822 L 918.845 353.131 M 780.837 640.162 L 765.577 612.738 M 780.837 640.162 L 833.862 613.144 M 824.726 337.142 L 794.641 328.205 M 799.177 239.814 L 767.833 238.236 M 824.726 337.142 L 843.05 278.118 M 799.177 239.814 L 803.041 178.131 M 532.79 713.348 L 588.544 684.94 M 658.174 682.959 L 643.584 655.173 M 658.174 682.959 L 713.241 654.9 M 724.725 212.382 L 694.08 219.147 M 724.725 212.382 L 710.487 151.449 M 662.078 137.912 L 634.311 152.539 M 662.078 137.912 L 632.237 82.9117 M 593.842 147.821 L 570.374 168.658 M 593.842 147.821 L 551.146 103.136 M 511.019 110.189 L 494.491 136.869 M 511.019 110.189 L 457.326 79.5829 M 459.516 707.075 L 517.542 685.799 M 449.796 677.234 L 459.516 707.075 M 465.269 146.101 L 454.636 175.629 M 465.269 146.101 L 408.17 129.327 M 386.511 659.974 L 391.874 690.896 M 332.246 620.536 L 329.064 651.758 M 356.623 446.673 L 366.773 463.131 M 383.93 415.182 L 383.208 424.944 M 414.484 422.347 L 383.93 415.182 M 992.148 477.806 L 975.662 451.101 M 992.148 477.806 L 1037.25 454.824 M 895.219 574.276 L 879.323 547.216 M 895.219 574.276 L 944.896 548.964 M 943.397 372.68 L 918.845 353.131 M 943.397 372.68 L 980.675 331.222 M 846.41 641.91 L 833.862 613.144 M 872.663 288.512 L 843.05 278.118 M 834.271 181.236 L 803.041 178.131 M 872.663 288.512 L 894.41 233.116 M 834.271 181.236 L 842.317 122.271 M 547.38 741.134 L 602.448 713.076 M 726.458 683.365 L 713.241 654.9 M 726.458 683.365 L 781.314 660.29 M 741.133 144.684 L 710.487 151.449 M 660.004 68.2849 L 632.237 82.9117 M 741.133 144.684 L 728.551 84.1745 M 660.004 68.2849 L 631.873 13.2548 M 602.448 713.076 L 588.544 684.94 M 602.448 713.076 L 658.187 686.378 M 573.569 81.1781 L 551.146 103.136 M 573.569 81.1781 L 529.244 37.0108 M 297.56 563.197 L 284.059 591.528 M 318.218 522.534 L 300.449 548.403 M 342.168 489.28 L 321.174 512.608 M 351.943 427.663 L 356.529 446.448 M 387.623 406.117 L 383.93 415.182 M 414.484 422.347 L 387.623 406.117 M 1048.59 484.09 L 1037.25 454.824 M 1048.59 484.09 L 1091.26 472.386 M 956.811 577.998 L 944.896 548.964 M 956.811 577.998 L 1005.06 562.672 M 1002.22 354.043 L 980.675 331.222 M 1002.22 354.043 L 1041.75 322.417 M 846.41 641.91 L 898.756 622.717 M 922.884 246.313 L 894.41 233.116 M 873.103 128.368 L 842.317 122.271 M 922.884 246.313 L 949.314 197.222 M 873.103 128.368 L 887.188 74.4227 M 562.64 768.558 L 615.665 741.541 M 791.729 689.895 L 781.314 660.29 M 791.729 689.895 L 845.336 674.574 M 759.491 78.9121 L 728.551 84.1745 M 759.491 78.9121 L 751.661 19.9182 M 615.665 741.541 L 602.448 713.076 M 670.702 715.159 L 658.187 686.378 M 615.665 741.541 L 670.52 718.466 M 670.702 715.159 L 726.107 693.437 M 469.957 736.671 L 528.707 715.13 M 459.516 707.075 L 469.957 736.671 M 392.576 693.588 L 400.092 724.059 M 331.105 666.197 L 332.734 697.538 M 282.472 611.304 L 274.245 641.591 M 353.347 408.136 L 351.923 427.42 M 393.93 398.631 L 387.623 406.117 M 1095.9 503.424 L 1091.26 472.386 M 1011.47 593.393 L 1005.06 562.672 M 1011.47 593.393 L 1055.48 588.798 M 1058.76 348.788 L 1041.75 322.417 M 1058.76 348.788 L 1098.19 328.701 M 907.115 652.967 L 898.756 622.717 M 907.115 652.967 L 956.849 643.516 M 975.639 214.308 L 949.314 197.222 M 975.639 214.308 L 1006.58 174.24 M 578.536 795.619 L 628.213 770.307 M 640.128 799.341 L 628.213 770.307 M 851.465 705.353 L 845.336 674.574 M 628.213 770.307 L 615.665 741.541 M 680.936 748.071 L 670.52 718.466 M 628.213 770.307 L 680.559 751.114 M 735.792 723.289 L 726.107 693.437 M 680.936 748.071 L 734.543 732.75 M 735.792 723.289 L 789.759 709.288 M 481.122 766.001 L 539.148 744.725 M 469.957 736.671 L 481.122 766.001 M 320.699 430.621 L 327.436 458.219 M 360.699 389.991 L 353.403 407.898 M 1055 620.178 L 1055.48 588.798 M 959.545 674.784 L 956.849 643.516 M 959.545 674.784 L 1003.79 675.481 M 640.128 799.341 L 688.375 784.014 M 694.789 814.736 L 688.375 784.014 M 851.465 705.353 L 901.756 699.558 M 595.022 822.323 L 640.128 799.341 M 688.918 781.363 L 680.559 751.114 M 740.672 763.529 L 734.543 732.75 M 688.918 781.363 L 738.652 771.913 M 795.131 740.208 L 789.759 709.288 M 740.672 763.529 L 790.962 757.734 M 795.131 740.208 L 845.549 735.649 M 492.995 795.052 L 548.868 774.566 M 481.122 766.001 L 492.995 795.052 M 411.755 759.647 L 423.636 788.695 M 400.986 726.92 L 410.697 756.763 M 334.315 705.722 L 339.587 736.66 M 275.353 665.752 L 273.225 697.064 M 322.711 401.325 L 320.619 429.655 M 373.284 374.995 L 360.825 389.783 M 999.562 706.579 L 1003.79 675.481 M 999.562 706.579 L 1035.16 715.83 M 694.789 814.736 L 738.796 810.141 M 738.319 841.521 L 738.796 810.141 M 902.162 730.939 L 901.756 699.558 M 902.162 730.939 L 946.234 734.864 M 651.461 828.607 L 640.128 799.341 M 612.037 848.694 L 651.461 828.607 M 651.461 828.607 L 694.131 816.903 M 741.348 803.181 L 738.652 771.913 M 791.369 789.115 L 790.962 757.734 M 741.348 803.181 L 785.589 803.878 M 845.185 767.031 L 845.549 735.649 M 791.369 789.115 L 835.441 793.039 M 505.543 823.818 L 557.889 804.625 M 438.765 819.562 L 492.995 795.052 M 424.804 791.455 L 438.765 819.562 M 354.133 784.045 L 366.724 812.792 M 289.49 433.931 L 298.213 469.662 M 333.652 374.073 L 322.933 400.381 M 1023.29 744.88 L 1035.16 715.83 M 738.319 841.521 L 774.767 846.45 M 766.45 876.712 L 774.767 846.45 M 939.751 765.571 L 946.234 734.864 M 939.751 765.571 L 974.579 777.394 M 662.282 858.066 L 651.461 828.607 M 629.51 874.764 L 662.282 858.066 M 698.773 847.942 L 694.131 816.903 M 662.282 858.066 L 698.069 849.582 M 698.773 847.942 L 735.538 846.867 M 781.365 834.976 L 785.589 803.878 M 828.958 823.746 L 835.441 793.039 M 781.365 834.976 L 816.963 844.226 M 845.185 767.031 L 889.147 772.036 M 518.719 852.302 L 566.248 834.875 M 453.379 847.336 L 504.185 824.373 M 438.765 819.562 L 453.379 847.336 M 370.493 820.952 L 386.469 847.965 M 297.128 809.85 L 310.421 838.28 M 341.985 745.322 L 350.962 775.394 M 275.323 713.571 L 278.324 744.811 M 292.001 394.859 L 289.292 431.539 M 352.457 351.518 L 334.154 373.243 M 766.45 876.712 L 792.593 887.827 M 960.616 805.501 L 974.579 777.394 M 1047.91 759.04 L 1067.04 734.162 M 672.672 887.68 L 662.282 858.066 M 647.361 900.576 L 672.672 887.68 M 701.171 880.812 L 698.069 849.582 M 672.672 887.68 L 700.493 881.933 M 732.262 878.079 L 735.538 846.867 M 701.171 880.812 L 729.562 881.8 M 732.262 878.079 L 759.867 884.786 M 805.088 873.277 L 816.963 844.226 M 881.913 802.575 L 889.147 772.036 M 828.958 823.746 L 863.786 835.57 M 881.913 802.575 L 916.44 815.25 M 532.46 880.517 L 574.002 865.286 M 468.599 874.782 L 514.729 853.932 M 453.379 847.336 L 468.599 874.782 M 387.853 850.378 L 405.682 876.206 M 318.481 854.334 L 336.386 880.109 M 240.774 837.046 L 254.76 865.141 M 258.333 437.695 L 268.827 480.679 M 306.428 358.46 L 292.549 392.521 M 776.269 914.631 L 792.593 887.827 M 682.729 917.408 L 672.672 887.68 M 665.5 926.187 L 682.729 917.408 M 702.332 913.263 L 700.493 881.933 M 682.729 917.408 L 701.749 913.924 M 723.948 912.678 L 729.562 881.8 M 702.332 913.263 L 721.597 914.931 M 748.128 913.891 L 759.867 884.786 M 723.948 912.678 L 742.273 918.85 M 748.128 913.891 L 764.827 923.64 M 849.823 863.677 L 863.786 835.57 M 805.088 873.277 L 829.716 887.437 M 901.791 843.005 L 916.44 815.25 M 849.823 863.677 L 873.352 879.596 M 901.791 843.005 L 924.922 859.497 M 546.692 908.489 L 581.224 895.827 M 484.363 901.919 L 524.683 883.696 M 468.599 874.782 L 484.363 901.919 M 406.994 878.269 L 426.482 902.868 M 340.99 887.057 L 361.777 910.569 M 269.044 891.423 L 288.782 915.823 M 282.551 762.271 L 290.787 792.554 M 215.916 717.093 L 216.629 748.469 M 261.2 388.84 L 257.94 432.966 M 331.367 328.277 L 307.67 356.405 M 776.269 914.631 L 791.157 926.97 M 692.558 947.213 L 682.729 917.408 M 683.836 951.657 L 692.558 947.213 M 702.642 945.295 L 701.749 913.924 M 692.558 947.213 L 702.212 945.597 M 714.164 945.422 L 721.597 914.931 M 702.642 945.295 L 712.356 946.508 M 727.849 946.722 L 742.273 918.85 M 714.164 945.422 L 723.211 949.16 M 745.066 948.021 L 764.827 923.64 M 727.849 946.722 L 735.757 952.491 M 810.305 912.098 L 829.716 887.437 M 852.193 902.774 L 873.352 879.596 M 810.305 912.098 L 823.612 926.127 M 903.2 882.149 L 924.922 859.497 M 561.329 936.25 L 588.001 926.47 M 500.599 928.777 L 534.114 913.629 M 484.363 901.919 L 500.599 928.777 M 427.635 904.526 L 448.56 927.916 M 366.268 916.346 L 389.504 937.442 M 298.845 929.074 L 322.294 949.933 M 227.246 442.002 L 239.252 491.181 M 278.979 343.245 L 262.283 384.22 M 767.687 947.805 L 791.157 926.97 M 745.066 948.021 L 751.645 955.27 M 797.82 944.009 L 823.612 926.127 M 915.076 897.409 L 942.369 881.916 M 576.278 963.844 L 594.433 957.188 M 517.223 955.396 L 543.11 943.696 M 471.61 951.413 L 500.599 928.777 M 449.489 929.151 L 471.61 951.413 M 393.53 941.936 L 418.75 960.614 M 332.29 960.55 L 358.653 977.578 M 262.025 975.827 L 287.799 993.734 M 222.719 777.755 L 230.209 808.232 M 230.299 383.36 L 226.569 433.846 M 309.941 305.345 L 281.433 339.183 M 725.4 972.479 L 751.645 955.27 M 725.4 972.479 L 755.67 964.192 M 725.4 972.479 L 756.751 973.921 M 725.4 972.479 L 754.781 983.51 M 749.954 992.025 L 754.781 983.51 M 725.4 972.479 L 749.954 992.025 M 742.737 998.639 L 749.954 992.025 M 802.109 952.808 L 832.084 943.509 M 591.438 991.324 L 600.629 987.954 M 534.146 981.826 L 551.767 973.862 M 494.052 973.352 L 516.442 955.868 M 471.61 951.413 L 494.052 973.352 M 422.035 963.849 L 448.788 980.256 M 367.69 985.468 L 396.166 998.662 M 305.969 1009.7 L 334.753 1022.2 M 196.252 446.928 L 209.475 501.091 M 251.269 328.511 L 232.167 375.392 M 760.176 1024.73 L 774.431 1011.67 M 551.271 1008.12 L 560.191 1004.09 M 516.739 995.036 L 531.979 983.135 M 494.052 973.352 L 516.739 995.036 M 449.637 980.908 L 477.08 996.133 M 403.554 1004.05 L 433.426 1013.67 M 351.184 1033.32 L 381.739 1040.49 M 199.294 378.498 L 195.187 434.1 M 288.118 282.791 L 255.501 321.506 M 516.739 995.036 L 539.592 1016.55 M 539.592 1016.55 L 547.307 1010.52 M 477.597 996.509 L 505.539 1010.8 M 436.244 1015.16 L 466.736 1022.59 M 395.093 1047.48 L 426.392 1049.78 M 344.692 1083.53 L 376.064 1084.37 M 223.271 314.333 L 202.233 365.965 M 539.592 1016.55 L 562.528 1037.97 M 505.782 1010.97 L 534.045 1024.61 M 468.454 1023.41 L 499.315 1029.11 M 432.383 1051.74 L 463.754 1050.84 M 397.13 1091.68 L 428.086 1086.52 M 168.19 374.316 L 163.806 433.665 M 265.85 260.676 L 229.928 303.315 M 534.108 1024.65 L 562.528 1037.97 M 194.968 300.772 L 172.512 355.884 M 534.108 1024.65 L 531.389 1034.06 M 531.389 1034.06 L 562.528 1037.97 M 500.265 1030.03 L 531.389 1034.06 M 136.997 370.862 L 132.444 432.498 M 243.102 239.055 L 204.759 284.568 M 531.389 1034.06 L 531.699 1043.84 M 531.699 1043.84 L 562.528 1037.97 M 500.265 1030.03 L 500.728 1049.36 M 500.848 1049.6 L 531.699 1043.84 M 469.791 1054.64 L 500.728 1049.36 M 166.356 287.876 L 143.035 345.111 M 531.699 1043.84 L 535.009 1053.05 M 535.009 1053.05 L 562.528 1037.97 M 500.848 1049.6 L 507.244 1067.84 M 507.431 1068.03 L 535.009 1053.05 M 469.791 1054.64 L 478.566 1081.66 M 479.438 1082.4 L 507.244 1067.84 M 450.277 1095.24 L 478.566 1081.66 M 105.729 368.166 L 101.12 430.57 M 219.855 217.972 L 180.035 265.237 M 535.009 1053.05 L 540.996 1060.8 M 540.996 1060.8 L 562.528 1037.97 M 507.431 1068.03 L 519.138 1083.42 M 519.375 1083.55 L 540.996 1060.8 M 479.438 1082.4 L 496.11 1105.4 M 497.168 1105.83 L 519.138 1083.42 M 473.383 1127.04 L 496.11 1105.4 M 74.4051 366.239 L 69.852 427.874 M 137.44 275.678 L 113.829 333.626 M 540.996 1060.8 L 549.077 1066.32 M 519.375 1083.55 L 535.253 1094.58 M 497.168 1105.83 L 520.116 1122.58 M 108.234 264.193 L 84.9128 321.428 M 196.103 197.458 L 155.787 245.313 M 78.7568 253.42 L 56.301 308.532 M 171.855 177.534 L 132.036 224.8 M 49.0364 243.339 L 27.9983 294.971 M 147.132 158.204 L 108.789 203.716 M 121.963 139.456 L 86.0407 182.095 M 96.3888 121.265 L 63.7723 159.981 M 70.4572 103.588 L 41.9494 137.427" />
</svg>
