<?xml version="1.0"?>
<svg width="6000" height="7999" version="1.1" xmlns="http://www.w3.org/2000/svg" >
<defs>
<style type="text/css"><![CDATA[
.m {stroke:rgb(255,0,0);stroke-width:9.998750;}
.v {stroke:rgb(0,0,255);stroke-width:9.998750;}
.b {stroke:rgb(0,0,0);stroke-width:19.997500;fill:white}
.n {stroke:rgb(128,128,128);stroke-width:9.998750}
.t {stroke:rgb(0,128,0);stroke-width:9.998750;}
.c {stroke:rgb(128,128,128);stroke-width:9.998750;stroke-dasharray:60.000000, 60.000000;}
]]></style>
</defs>
<path fill="none" style="stroke:black;stroke-width:19.997500;" d=" M 4000 6000 L 4000 5333.33 M 3333.33 5333.33 L 3333.33 6000 M 4000 5333.33 L 4000 4666.67 M 3333.33 4666.67 L 3333.33 5333.33 M 4000 4666.67 L 4000 4000 M 3333.33 4000 L 3333.33 4666.67 M 3333.33 6000 L 3333.33 5333.33 M 2666.67 5333.33 L 2666.67 6000 M 3333.33 5333.33 L 3333.33 4666.67 M 2666.67 4666.67 L 2666.67 5333.33 M 3333.33 4666.67 L 3333.33 4000 M 2666.67 4000 L 2666.67 4666.67 M 2666.67 6000 L 2666.67 5333.33 M 2666.67 5333.33 L 2666.67 4666.67 M 2666.67 4666.67 L 2666.67 4000 M 2000 5333.33 L 1333.33 6000 M 1333.33 6000 L 2000 6000 M 1333.33 6000 L 2000 5333.33 M 2000 4666.67 L 1333.33 5333.33 M 1333.33 5333.33 L 2000 4666.67 M 2000 4000 L 1333.33 4666.67 M 1333.33 3333.33 L 2000 4000 M 1333.33 5333.33 L 666.667 6000 M 666.667 6000 L 1333.33 6000 M 666.667 6000 L 1333.33 5333.33 M 1333.33 4666.67 L 666.667 5333.33 M 666.667 2666.67 L 1333.33 3333.33 M 2000 3333.33 L 1333.33 2666.67 M 1333.33 2666.67 L 2000 3333.33 M 666.667 5333.33 L 3.55271e-013 6000 M 3.55271e-013 6000 L 666.667 6000 M 3.55271e-013 2000 L 666.667 2666.67 M 1333.33 2666.67 L 666.667 2000 M 666.667 2000 L 1333.33 2666.67 M 2000 2666.67 L 1333.33 2000 M 1333.33 2000 L 2000 2666.67 M 666.667 2000 L 3.55271e-013 1333.33 M 3.55271e-013 1333.33 L 3.55271e-013 2000 M 3.55271e-013 1333.33 L 666.667 2000 M 1333.33 2000 L 666.667 1333.33 M 666.667 1333.33 L 1333.33 2000 M 2000 2000 L 1333.33 1333.33 M 2666.67 1333.33 L 2000 2000 M 666.667 1333.33 L 0 666.667 M 0 666.667 L 3.55271e-013 1333.33 M 0 666.667 L 666.667 1333.33 M 1333.33 1333.33 L 666.667 666.667 M 3333.33 666.667 L 2666.67 1333.33 M 2666.67 2000 L 3333.33 1333.33 M 3333.33 1333.33 L 2666.67 2000 M 666.667 666.667 L 3.55271e-013 0 M 3.55271e-013 0 L 0 666.667 M 4000 666.667 L 4000 0 M 4000 0 L 3333.33 666.667 M 3333.33 1333.33 L 4000 666.667 M 4000 1333.33 L 4000 666.667 M 4000 666.667 L 3333.33 1333.33 M 3333.33 2000 L 4000 1333.33 M 4000 2000 L 4000 1333.33 M 4000 1333.33 L 3333.33 2000 M 6000 2000 L 5333.33 2000 M 6000 2666.67 L 6000 2000 M 5333.33 2666.67 L 6000 2666.67 M 5333.33 2000 L 4666.67 2000 M 4666.67 2666.67 L 5333.33 2666.67 M 4666.67 2000 L 4000 2000 M 4000 2666.67 L 4666.67 2666.67 M 6000 2666.67 L 5333.33 2666.67 M 6000 3333.33 L 6000 2666.67 M 5333.33 3333.33 L 6000 3333.33 M 5333.33 2666.67 L 4666.67 2666.67 M 4666.67 3333.33 L 5333.33 3333.33 M 4666.67 2666.67 L 4000 2666.67 M 4000 3333.33 L 4666.67 3333.33 M 6000 4000 L 6000 3333.33 M 6000 3333.33 L 5333.33 3333.33 M 5333.33 4000 L 6000 4000 M 5333.33 3333.33 L 4666.67 3333.33 M 4666.67 4000 L 5333.33 4000 M 4666.67 3333.33 L 4000 3333.33 M 4000 4000 L 4666.67 4000 M 4000 2000 L 3333.33 2666.67 M 3333.33 2666.67 L 4000 2000 M 4000 2666.67 L 3333.33 3333.33 M 3333.33 3333.33 L 4000 2666.67 M 3333.33 2000 L 2666.67 2666.67 M 2666.67 2666.67 L 3333.33 2000 M 3333.33 2666.67 L 2666.67 3333.33 M 2666.67 3333.33 L 3333.33 2666.67 M 3333.33 8000 L 4000 8000 M 4000 8000 L 4000 7333.33 M 3333.33 7333.33 L 3333.33 8000 M 4000 7333.33 L 4000 6666.67 M 3333.33 6666.67 L 3333.33 7333.33 M 4000 6666.67 L 4000 6000 M 3333.33 6000 L 3333.33 6666.67 M 2666.67 8000 L 3333.33 8000 M 3333.33 8000 L 3333.33 7333.33 M 2666.67 7333.33 L 2666.67 8000 M 3333.33 7333.33 L 3333.33 6666.67 M 2666.67 6666.67 L 2666.67 7333.33 M 3333.33 6666.67 L 3333.33 6000 M 2666.67 6000 L 2666.67 6666.67 M 2000 8000 L 2666.67 8000 M 2666.67 8000 L 2666.67 7333.33 M 2000 7333.33 L 2000 8000 M 2666.67 7333.33 L 2666.67 6666.67 M 2000 6666.67 L 2000 7333.33 M 2666.67 6666.67 L 2666.67 6000 M 2000 6000 L 2000 6666.67" />
<path fill="none" class="c" d=" M 2000 4000 L 2666.67 4000 M 2000 3333.33 L 2000 4000 M 2000 4000 L 2000 4666.67 M 2000 2666.67 L 2000 3333.33 M 2666.67 4000 L 3333.33 4000 M 2000 2000 L 2000 2666.67 M 2666.67 2000 L 2000 2000 M 2000 4666.67 L 2000 5333.33 M 666.667 2000 L 3.55271e-013 2000 M 1333.33 2000 L 666.667 2000 M 2000 2000 L 1333.33 2000 M 3333.33 2000 L 2666.67 2000 M 3333.33 4000 L 4000 4000 M 4000 2666.67 L 4000 2000 M 4000 2000 L 3333.33 2000 M 4000 3333.33 L 4000 2666.67 M 4000 4000 L 4000 3333.33 M 2000 5333.33 L 2000 6000 M 2000 6000 L 2666.67 6000 M 2666.67 6000 L 3333.33 6000 M 3333.33 6000 L 4000 6000" />
</svg>
