<?xml version="1.0"?>
<svg width="10000" height="8666" version="1.1" xmlns="http://www.w3.org/2000/svg" >
<defs>
<style type="text/css"><![CDATA[
.m {stroke:rgb(255,0,0);stroke-width:12.500000;}
.v {stroke:rgb(0,0,255);stroke-width:12.500000;}
.b {stroke:rgb(0,0,0);stroke-width:25.000000;fill:white}
.n {stroke:rgb(128,128,128);stroke-width:12.500000}
.t {stroke:rgb(0,128,0);stroke-width:12.500000;}
.c {stroke:rgb(128,128,128);stroke-width:12.500000;stroke-dasharray:100.000000, 100.000000;}
]]></style>
</defs>
<path fill="none" style="stroke:black;stroke-width:25.000000;" d=" M 7333.33 6000 L 8000 6666.67 M 8000 6666.67 L 7333.33 6000 M 6666.67 6000 L 7333.33 6666.67 M 2666.67 7333.33 L 3333.33 8000 M 3333.33 8000 L 4000 8000 M 7333.33 6666.67 L 8000 7333.33 M 2000 6666.67 L 2666.67 7333.33 M 3333.33 7333.33 L 2666.67 6666.67 M 2666.67 6666.67 L 3333.33 7333.33 M 4000 7333.33 L 3333.33 6666.67 M 3333.33 6666.67 L 4000 7333.33 M 2666.67 6666.67 L 2000 6000 M 2000 6000 L 2666.67 6666.67 M 3333.33 6666.67 L 2666.67 6000 M 2666.67 6000 L 3333.33 6666.67 M 4000 6666.67 L 3333.33 6000 M 3333.33 6000 L 4000 6666.67 M 2000 5333.33 L 2000 6000 M 2666.67 6000 L 2666.67 5333.33 M 2666.67 5333.33 L 2666.67 6000 M 3333.33 6000 L 3333.33 5333.33 M 3333.33 5333.33 L 3333.33 6000 M 2000 4666.67 L 2000 5333.33 M 2666.67 5333.33 L 2666.67 4666.67 M 2666.67 4666.67 L 2666.67 5333.33 M 3333.33 5333.33 L 3333.33 4666.67 M 3333.33 4666.67 L 3333.33 5333.33 M 2000 4000 L 2000 4666.67 M 2666.67 4666.67 L 2666.67 4000 M 2666.67 4000 L 2666.67 4666.67 M 3333.33 4666.67 L 3333.33 4000 M 3333.33 4000 L 3333.33 4666.67 M 2000 3333.33 L 2000 4000 M 2666.67 4000 L 2666.67 3333.33 M 2666.67 3333.33 L 2666.67 4000 M 3333.33 4000 L 3333.33 3333.33 M 3333.33 3333.33 L 3333.33 4000 M 4000 4000 L 4000 3333.33 M 2000 2666.67 L 2000 3333.33 M 2666.67 3333.33 L 2666.67 2666.67 M 2666.67 2666.67 L 2666.67 3333.33 M 3333.33 3333.33 L 3333.33 2666.67 M 3333.33 2666.67 L 3333.33 3333.33 M 4000 3333.33 L 4000 2666.67 M 2000 2000 L 2000 2666.67 M 2666.67 2666.67 L 2666.67 2000 M 2666.67 2000 L 2666.67 2666.67 M 3333.33 2666.67 L 3333.33 2000 M 3333.33 2000 L 3333.33 2666.67 M 4000 2666.67 L 4000 2000 M 2666.67 2000 L 2000 1333.33 M 2000 1333.33 L 2666.67 2000 M 3333.33 2000 L 2666.67 1333.33 M 2666.67 1333.33 L 3333.33 2000 M 4000 2000 L 3333.33 1333.33 M 6666.67 4666.67 L 6000 4000 M 2666.67 1333.33 L 2000 666.667 M 2000 666.667 L 2666.67 1333.33 M 3333.33 1333.33 L 2666.67 666.667 M 7333.33 5333.33 L 6666.67 4666.67 M 6000 4666.67 L 6666.67 5333.33 M 6666.67 5333.33 L 6000 4666.67 M 2666.67 666.667 L 2000 0 M 8000 6000 L 7333.33 5333.33 M 6666.67 5333.33 L 7333.33 6000 M 7333.33 6000 L 6666.67 5333.33 M 6000 5333.33 L 6666.67 6000 M 4000 8000 L 4000 8666.67 M 4000 8666.67 L 4666.67 8000 M 5333.33 4666.67 L 6000 4666.67 M 6000 4000 L 5333.33 4000 M 5333.33 5333.33 L 6000 5333.33 M 6000 4666.67 L 5333.33 4666.67 M 4666.67 8000 L 4666.67 7333.33 M 4666.67 4666.67 L 5333.33 4666.67 M 5333.33 4000 L 4666.67 4000 M 4666.67 5333.33 L 5333.33 5333.33 M 5333.33 4666.67 L 4666.67 4666.67 M 4666.67 7333.33 L 4666.67 6666.67 M 4666.67 4000 L 4000 4666.67 M 4666.67 4000 L 4000 4000 M 4000 4666.67 L 4666.67 4000 M 4666.67 4666.67 L 4000 5333.33 M 4000 5333.33 L 4666.67 4666.67 M 4666.67 6666.67 L 4000 6000 M 4000 6000 L 4666.67 5333.33 M 1333.33 2000 L 2000 2000 M 2000 1333.33 L 1333.33 2000 M 1333.33 2000 L 2000 1333.33 M 2000 666.667 L 1333.33 1333.33 M 1333.33 1333.33 L 2000 666.667 M 2000 0 L 1333.33 666.667 M 8666.67 6666.67 L 8000 6000 M 666.667 2000 L 1333.33 2000 M 1333.33 1333.33 L 666.667 2000 M 666.667 2000 L 1333.33 1333.33 M 1333.33 666.667 L 666.667 1333.33 M 9333.33 7333.33 L 8666.67 6666.67 M 8000 6666.67 L 8666.67 7333.33 M 8666.67 7333.33 L 8000 6666.67 M 0 2000 L 666.667 2000 M 666.667 1333.33 L 0 2000 M 9333.33 8000 L 10000 8000 M 10000 8000 L 9333.33 7333.33 M 8666.67 7333.33 L 9333.33 8000 M 8666.67 8000 L 9333.33 8000 M 9333.33 8000 L 8666.67 7333.33 M 8000 7333.33 L 8666.67 8000 M 2000 6000 L 1333.33 6000 M 1333.33 6000 L 2000 6666.67" />
<path fill="none" class="c" d=" M 3333.33 6000 L 4000 6000 M 4000 6000 L 4000 5333.33 M 4000 4000 L 3333.33 4000 M 4000 4666.67 L 4000 4000 M 4000 2000 L 3333.33 2000 M 4000 5333.33 L 4000 4666.67 M 4000 6666.67 L 4000 6000 M 2000 0 L 2000 666.667 M 4000 6666.67 L 4000 7333.33 M 3333.33 6000 L 2666.67 6000 M 3333.33 4000 L 2666.67 4000 M 3333.33 2000 L 2666.67 2000 M 6000 5333.33 L 6000 4666.67 M 4000 7333.33 L 4000 8000 M 4000 8000 L 4666.67 8000 M 6000 4666.67 L 6000 4000 M 2000 666.667 L 2000 1333.33 M 6666.67 6000 L 7333.33 6000 M 2666.67 6000 L 2000 6000 M 2666.67 4000 L 2000 4000 M 2666.67 2000 L 2000 2000 M 2000 1333.33 L 2000 2000 M 7333.33 6000 L 8000 6000 M 8000 6666.67 L 8000 6000 M 8000 7333.33 L 8000 6666.67 M 2000 6000 L 2000 6666.67" />
</svg>
