<?xml version="1.0"?>
<svg width="6000" height="7999" version="1.1" xmlns="http://www.w3.org/2000/svg" >
<defs>
<style type="text/css"><![CDATA[
.m {stroke:rgb(255,0,0);stroke-width:9.998750;}
.v {stroke:rgb(0,0,255);stroke-width:9.998750;}
.b {stroke:rgb(0,0,0);stroke-width:19.997500;fill:white}
.n {stroke:rgb(128,128,128);stroke-width:9.998750}
.t {stroke:rgb(0,128,0);stroke-width:9.998750;}
.c {stroke:rgb(128,128,128);stroke-width:9.998750;stroke-dasharray:60.000000, 60.000000;}
]]></style>
</defs>
<line x1="4000.000000" y1="6000.000000" x2="4000.000000" y2="5333.333400" class="m" style="stroke-width:15.998000;" />
<line x1="4000.000000" y1="5333.333400" x2="3333.333400" y2="6000.000000" class="n" style="stroke-width:1.999750;" />
<line x1="3333.333400" y1="6000.000000" x2="4000.000000" y2="6000.000000" class="m" style="stroke-width:15.998000;" />
<line x1="3333.333400" y1="5333.333400" x2="3333.333400" y2="6000.000000" class="n" style="stroke-width:1.999750;" />
<line x1="4000.000000" y1="5333.333400" x2="3333.333400" y2="5333.333400" class="n" style="stroke-width:1.999750;" />
<line x1="4000.000000" y1="5333.333400" x2="4000.000000" y2="4666.666600" class="m" style="stroke-width:15.998000;" />
<line x1="4000.000000" y1="4666.666600" x2="3333.333400" y2="5333.333400" class="n" style="stroke-width:1.999750;" />
<line x1="3333.333400" y1="4666.666600" x2="3333.333400" y2="5333.333400" class="n" style="stroke-width:1.999750;" />
<line x1="4000.000000" y1="4666.666600" x2="3333.333400" y2="4666.666600" class="n" style="stroke-width:1.999750;" />
<line x1="4000.000000" y1="4666.666600" x2="4000.000000" y2="4000.000000" class="m" style="stroke-width:15.998000;" />
<line x1="4000.000000" y1="4000.000000" x2="3333.333400" y2="4666.666600" class="n" style="stroke-width:1.999750;" />
<line x1="3333.333400" y1="4000.000000" x2="3333.333400" y2="4666.666600" class="n" style="stroke-width:1.999750;" />
<line x1="4000.000000" y1="4000.000000" x2="3333.333400" y2="4000.000000" class="m" style="stroke-width:15.998000;" />
<line x1="3333.333400" y1="5333.333400" x2="2666.666600" y2="6000.000000" class="n" style="stroke-width:1.999750;" />
<line x1="2666.666600" y1="6000.000000" x2="3333.333400" y2="6000.000000" class="m" style="stroke-width:15.998000;" />
<line x1="2666.666600" y1="5333.333400" x2="2666.666600" y2="6000.000000" class="n" style="stroke-width:1.999750;" />
<line x1="3333.333400" y1="5333.333400" x2="2666.666600" y2="5333.333400" class="n" style="stroke-width:1.999750;" />
<line x1="3333.333400" y1="4666.666600" x2="2666.666600" y2="5333.333400" class="n" style="stroke-width:1.999750;" />
<line x1="2666.666600" y1="4666.666600" x2="2666.666600" y2="5333.333400" class="n" style="stroke-width:1.999750;" />
<line x1="3333.333400" y1="4666.666600" x2="2666.666600" y2="4666.666600" class="n" style="stroke-width:1.999750;" />
<line x1="3333.333400" y1="4000.000000" x2="2666.666600" y2="4666.666600" class="n" style="stroke-width:1.999750;" />
<line x1="2666.666600" y1="4000.000000" x2="2666.666600" y2="4666.666600" class="n" style="stroke-width:1.999750;" />
<line x1="3333.333400" y1="4000.000000" x2="2666.666600" y2="4000.000000" class="m" style="stroke-width:15.998000;" />
<line x1="2666.666600" y1="5333.333400" x2="2000.000000" y2="6000.000000" class="n" style="stroke-width:1.999750;" />
<line x1="2000.000000" y1="6000.000000" x2="2666.666600" y2="6000.000000" class="m" style="stroke-width:15.998000;" />
<line x1="2000.000000" y1="5333.333400" x2="2000.000000" y2="6000.000000" class="m" style="stroke-width:15.998000;" />
<line x1="2666.666600" y1="5333.333400" x2="2000.000000" y2="5333.333400" class="n" style="stroke-width:1.999750;" />
<line x1="2666.666600" y1="4666.666600" x2="2000.000000" y2="5333.333400" class="n" style="stroke-width:1.999750;" />
<line x1="2000.000000" y1="4666.666600" x2="2000.000000" y2="5333.333400" class="m" style="stroke-width:15.998000;" />
<line x1="2666.666600" y1="4666.666600" x2="2000.000000" y2="4666.666600" class="n" style="stroke-width:1.999750;" />
<line x1="2666.666600" y1="4000.000000" x2="2000.000000" y2="4666.666600" class="n" style="stroke-width:1.999750;" />
<line x1="2000.000000" y1="4000.000000" x2="2000.000000" y2="4666.666600" class="m" style="stroke-width:15.998000;" />
<line x1="2666.666600" y1="4000.000000" x2="2000.000000" y2="4000.000000" class="m" style="stroke-width:15.998000;" />
<line x1="2000.000000" y1="5333.333400" x2="1333.333400" y2="6000.000000" class="n" style="stroke-width:1.999750;" />
<line x1="1333.333400" y1="6000.000000" x2="2000.000000" y2="6000.000000" class="m" style="stroke-width:15.998000;" />
<line x1="1333.333400" y1="5333.333400" x2="1333.333400" y2="6000.000000" class="n" style="stroke-width:1.999750;" />
<line x1="2000.000000" y1="5333.333400" x2="1333.333400" y2="5333.333400" class="n" style="stroke-width:1.999750;" />
<line x1="2000.000000" y1="4666.666600" x2="1333.333400" y2="5333.333400" class="n" style="stroke-width:1.999750;" />
<line x1="1333.333400" y1="4666.666600" x2="1333.333400" y2="5333.333400" class="n" style="stroke-width:1.999750;" />
<line x1="2000.000000" y1="4666.666600" x2="1333.333400" y2="4666.666600" class="n" style="stroke-width:1.999750;" />
<line x1="2000.000000" y1="4000.000000" x2="1333.333400" y2="4666.666600" class="n" style="stroke-width:1.999750;" />
<line x1="2000.000000" y1="3333.333400" x2="1333.333400" y2="3333.333400" class="n" style="stroke-width:1.999750;" />
<line x1="1333.333400" y1="3333.333400" x2="2000.000000" y2="4000.000000" class="n" style="stroke-width:1.999750;" />
<line x1="2000.000000" y1="4000.000000" x2="2000.000000" y2="3333.333400" class="m" style="stroke-width:15.998000;" />
<line x1="1333.333400" y1="5333.333400" x2="666.666600" y2="6000.000000" class="n" style="stroke-width:1.999750;" />
<line x1="666.666600" y1="6000.000000" x2="1333.333400" y2="6000.000000" class="m" style="stroke-width:15.998000;" />
<line x1="666.666600" y1="5333.333400" x2="666.666600" y2="6000.000000" class="n" style="stroke-width:1.999750;" />
<line x1="1333.333400" y1="5333.333400" x2="666.666600" y2="5333.333400" class="n" style="stroke-width:1.999750;" />
<line x1="1333.333400" y1="4666.666600" x2="666.666600" y2="5333.333400" class="n" style="stroke-width:1.999750;" />
<line x1="1333.333400" y1="2666.666600" x2="666.666600" y2="2666.666600" class="n" style="stroke-width:1.999750;" />
<line x1="666.666600" y1="2666.666600" x2="1333.333400" y2="3333.333400" class="n" style="stroke-width:1.999750;" />
<line x1="1333.333400" y1="3333.333400" x2="1333.333400" y2="2666.666600" class="n" style="stroke-width:1.999750;" />
<line x1="2000.000000" y1="3333.333400" x2="1333.333400" y2="2666.666600" class="n" style="stroke-width:1.999750;" />
<line x1="2000.000000" y1="2666.666600" x2="1333.333400" y2="2666.666600" class="n" style="stroke-width:1.999750;" />
<line x1="2000.000000" y1="3333.333400" x2="2000.000000" y2="2666.666600" class="m" style="stroke-width:15.998000;" />
<line x1="666.666600" y1="5333.333400" x2="0.000000" y2="6000.000000" class="n" style="stroke-width:1.999750;" />
<line x1="0.000000" y1="6000.000000" x2="666.666600" y2="6000.000000" class="m" style="stroke-width:15.998000;" />
<line x1="666.666600" y1="2000.000000" x2="0.000000" y2="2000.000000" class="m" style="stroke-width:15.998000;" />
<line x1="0.000000" y1="2000.000000" x2="666.666600" y2="2666.666600" class="n" style="stroke-width:1.999750;" />
<line x1="666.666600" y1="2666.666600" x2="666.666600" y2="2000.000000" class="n" style="stroke-width:1.999750;" />
<line x1="1333.333400" y1="2666.666600" x2="666.666600" y2="2000.000000" class="n" style="stroke-width:1.999750;" />
<line x1="1333.333400" y1="2000.000000" x2="666.666600" y2="2000.000000" class="m" style="stroke-width:15.998000;" />
<line x1="1333.333400" y1="2666.666600" x2="1333.333400" y2="2000.000000" class="n" style="stroke-width:1.999750;" />
<line x1="2000.000000" y1="2666.666600" x2="1333.333400" y2="2000.000000" class="n" style="stroke-width:1.999750;" />
<line x1="2000.000000" y1="2000.000000" x2="1333.333400" y2="2000.000000" class="m" style="stroke-width:15.998000;" />
<line x1="2000.000000" y1="2666.666600" x2="2000.000000" y2="2000.000000" class="m" style="stroke-width:15.998000;" />
<line x1="666.666600" y1="2000.000000" x2="0.000000" y2="1333.333400" class="n" style="stroke-width:1.999750;" />
<line x1="0.000000" y1="1333.333400" x2="0.000000" y2="2000.000000" class="m" style="stroke-width:15.998000;" />
<line x1="666.666600" y1="1333.333400" x2="0.000000" y2="1333.333400" class="n" style="stroke-width:1.999750;" />
<line x1="666.666600" y1="2000.000000" x2="666.666600" y2="1333.333400" class="n" style="stroke-width:1.999750;" />
<line x1="1333.333400" y1="2000.000000" x2="666.666600" y2="1333.333400" class="n" style="stroke-width:1.999750;" />
<line x1="1333.333400" y1="1333.333400" x2="666.666600" y2="1333.333400" class="n" style="stroke-width:1.999750;" />
<line x1="1333.333400" y1="2000.000000" x2="1333.333400" y2="1333.333400" class="n" style="stroke-width:1.999750;" />
<line x1="2000.000000" y1="2000.000000" x2="1333.333400" y2="1333.333400" class="n" style="stroke-width:1.999750;" />
<line x1="2666.666600" y1="2000.000000" x2="2666.666600" y2="1333.333400" class="n" style="stroke-width:1.999750;" />
<line x1="2666.666600" y1="1333.333400" x2="2000.000000" y2="2000.000000" class="n" style="stroke-width:1.999750;" />
<line x1="2000.000000" y1="2000.000000" x2="2666.666600" y2="2000.000000" class="m" style="stroke-width:15.998000;" />
<line x1="666.666600" y1="1333.333400" x2="0.000000" y2="666.666600" class="n" style="stroke-width:1.999750;" />
<line x1="0.000000" y1="666.666600" x2="0.000000" y2="1333.333400" class="m" style="stroke-width:15.998000;" />
<line x1="666.666600" y1="666.666600" x2="0.000000" y2="666.666600" class="n" style="stroke-width:1.999750;" />
<line x1="666.666600" y1="1333.333400" x2="666.666600" y2="666.666600" class="n" style="stroke-width:1.999750;" />
<line x1="1333.333400" y1="1333.333400" x2="666.666600" y2="666.666600" class="n" style="stroke-width:1.999750;" />
<line x1="3333.333400" y1="1333.333400" x2="3333.333400" y2="666.666600" class="n" style="stroke-width:1.999750;" />
<line x1="3333.333400" y1="666.666600" x2="2666.666600" y2="1333.333400" class="n" style="stroke-width:1.999750;" />
<line x1="2666.666600" y1="1333.333400" x2="3333.333400" y2="1333.333400" class="n" style="stroke-width:1.999750;" />
<line x1="2666.666600" y1="2000.000000" x2="3333.333400" y2="1333.333400" class="n" style="stroke-width:1.999750;" />
<line x1="3333.333400" y1="2000.000000" x2="3333.333400" y2="1333.333400" class="n" style="stroke-width:1.999750;" />
<line x1="2666.666600" y1="2000.000000" x2="3333.333400" y2="2000.000000" class="m" style="stroke-width:15.998000;" />
<line x1="666.666600" y1="666.666600" x2="0.000000" y2="0.000000" class="n" style="stroke-width:1.999750;" />
<line x1="0.000000" y1="0.000000" x2="0.000000" y2="666.666600" class="m" style="stroke-width:15.998000;" />
<line x1="4000.000000" y1="666.666600" x2="4000.000000" y2="0.000000" class="m" style="stroke-width:15.998000;" />
<line x1="4000.000000" y1="0.000000" x2="3333.333400" y2="666.666600" class="n" style="stroke-width:1.999750;" />
<line x1="3333.333400" y1="666.666600" x2="4000.000000" y2="666.666600" class="n" style="stroke-width:1.999750;" />
<line x1="3333.333400" y1="1333.333400" x2="4000.000000" y2="666.666600" class="n" style="stroke-width:1.999750;" />
<line x1="4000.000000" y1="1333.333400" x2="4000.000000" y2="666.666600" class="m" style="stroke-width:15.998000;" />
<line x1="3333.333400" y1="1333.333400" x2="4000.000000" y2="1333.333400" class="n" style="stroke-width:1.999750;" />
<line x1="3333.333400" y1="2000.000000" x2="4000.000000" y2="1333.333400" class="n" style="stroke-width:1.999750;" />
<line x1="4000.000000" y1="2000.000000" x2="4000.000000" y2="1333.333400" class="m" style="stroke-width:15.998000;" />
<line x1="3333.333400" y1="2000.000000" x2="4000.000000" y2="2000.000000" class="m" style="stroke-width:15.998000;" />
<line x1="6000.000000" y1="2000.000000" x2="5333.333400" y2="2000.000000" class="m" style="stroke-width:15.998000;" />
<line x1="5333.333400" y1="2000.000000" x2="6000.000000" y2="2666.666600" class="n" style="stroke-width:1.999750;" />
<line x1="6000.000000" y1="2666.666600" x2="6000.000000" y2="2000.000000" class="m" style="stroke-width:15.998000;" />
<line x1="5333.333400" y1="2666.666600" x2="6000.000000" y2="2666.666600" class="n" style="stroke-width:1.999750;" />
<line x1="5333.333400" y1="2000.000000" x2="5333.333400" y2="2666.666600" class="n" style="stroke-width:1.999750;" />
<line x1="5333.333400" y1="2000.000000" x2="4666.666600" y2="2000.000000" class="m" style="stroke-width:15.998000;" />
<line x1="4666.666600" y1="2000.000000" x2="5333.333400" y2="2666.666600" class="n" style="stroke-width:1.999750;" />
<line x1="4666.666600" y1="2666.666600" x2="5333.333400" y2="2666.666600" class="n" style="stroke-width:1.999750;" />
<line x1="4666.666600" y1="2000.000000" x2="4666.666600" y2="2666.666600" class="n" style="stroke-width:1.999750;" />
<line x1="4666.666600" y1="2000.000000" x2="4000.000000" y2="2000.000000" class="m" style="stroke-width:15.998000;" />
<line x1="4000.000000" y1="2000.000000" x2="4666.666600" y2="2666.666600" class="n" style="stroke-width:1.999750;" />
<line x1="4000.000000" y1="2666.666600" x2="4666.666600" y2="2666.666600" class="n" style="stroke-width:1.999750;" />
<line x1="4000.000000" y1="2000.000000" x2="4000.000000" y2="2666.666600" class="m" style="stroke-width:15.998000;" />
<line x1="5333.333400" y1="2666.666600" x2="6000.000000" y2="3333.333400" class="n" style="stroke-width:1.999750;" />
<line x1="6000.000000" y1="3333.333400" x2="6000.000000" y2="2666.666600" class="m" style="stroke-width:15.998000;" />
<line x1="5333.333400" y1="3333.333400" x2="6000.000000" y2="3333.333400" class="n" style="stroke-width:1.999750;" />
<line x1="5333.333400" y1="2666.666600" x2="5333.333400" y2="3333.333400" class="n" style="stroke-width:1.999750;" />
<line x1="4666.666600" y1="2666.666600" x2="5333.333400" y2="3333.333400" class="n" style="stroke-width:1.999750;" />
<line x1="4666.666600" y1="3333.333400" x2="5333.333400" y2="3333.333400" class="n" style="stroke-width:1.999750;" />
<line x1="4666.666600" y1="2666.666600" x2="4666.666600" y2="3333.333400" class="n" style="stroke-width:1.999750;" />
<line x1="4000.000000" y1="2666.666600" x2="4666.666600" y2="3333.333400" class="n" style="stroke-width:1.999750;" />
<line x1="4000.000000" y1="3333.333400" x2="4666.666600" y2="3333.333400" class="n" style="stroke-width:1.999750;" />
<line x1="4000.000000" y1="2666.666600" x2="4000.000000" y2="3333.333400" class="m" style="stroke-width:15.998000;" />
<line x1="6000.000000" y1="4000.000000" x2="6000.000000" y2="3333.333400" class="m" style="stroke-width:15.998000;" />
<line x1="5333.333400" y1="3333.333400" x2="6000.000000" y2="4000.000000" class="n" style="stroke-width:1.999750;" />
<line x1="5333.333400" y1="3333.333400" x2="5333.333400" y2="4000.000000" class="n" style="stroke-width:1.999750;" />
<line x1="5333.333400" y1="4000.000000" x2="6000.000000" y2="4000.000000" class="m" style="stroke-width:15.998000;" />
<line x1="4666.666600" y1="3333.333400" x2="5333.333400" y2="4000.000000" class="n" style="stroke-width:1.999750;" />
<line x1="4666.666600" y1="3333.333400" x2="4666.666600" y2="4000.000000" class="n" style="stroke-width:1.999750;" />
<line x1="4666.666600" y1="4000.000000" x2="5333.333400" y2="4000.000000" class="m" style="stroke-width:15.998000;" />
<line x1="4000.000000" y1="3333.333400" x2="4666.666600" y2="4000.000000" class="n" style="stroke-width:1.999750;" />
<line x1="4000.000000" y1="3333.333400" x2="4000.000000" y2="4000.000000" class="m" style="stroke-width:15.998000;" />
<line x1="4000.000000" y1="4000.000000" x2="4666.666600" y2="4000.000000" class="m" style="stroke-width:15.998000;" />
<line x1="3333.333400" y1="2666.666600" x2="4000.000000" y2="2666.666600" class="n" style="stroke-width:1.999750;" />
<line x1="4000.000000" y1="2000.000000" x2="3333.333400" y2="2666.666600" class="n" style="stroke-width:1.999750;" />
<line x1="3333.333400" y1="2000.000000" x2="3333.333400" y2="2666.666600" class="n" style="stroke-width:1.999750;" />
<line x1="3333.333400" y1="3333.333400" x2="4000.000000" y2="3333.333400" class="n" style="stroke-width:1.999750;" />
<line x1="4000.000000" y1="2666.666600" x2="3333.333400" y2="3333.333400" class="n" style="stroke-width:1.999750;" />
<line x1="3333.333400" y1="2666.666600" x2="3333.333400" y2="3333.333400" class="n" style="stroke-width:1.999750;" />
<line x1="4000.000000" y1="3333.333400" x2="3333.333400" y2="4000.000000" class="n" style="stroke-width:1.999750;" />
<line x1="3333.333400" y1="3333.333400" x2="3333.333400" y2="4000.000000" class="n" style="stroke-width:1.999750;" />
<line x1="2666.666600" y1="2666.666600" x2="3333.333400" y2="2666.666600" class="n" style="stroke-width:1.999750;" />
<line x1="3333.333400" y1="2000.000000" x2="2666.666600" y2="2666.666600" class="n" style="stroke-width:1.999750;" />
<line x1="2666.666600" y1="2000.000000" x2="2666.666600" y2="2666.666600" class="n" style="stroke-width:1.999750;" />
<line x1="2666.666600" y1="3333.333400" x2="3333.333400" y2="3333.333400" class="n" style="stroke-width:1.999750;" />
<line x1="3333.333400" y1="2666.666600" x2="2666.666600" y2="3333.333400" class="n" style="stroke-width:1.999750;" />
<line x1="2666.666600" y1="2666.666600" x2="2666.666600" y2="3333.333400" class="n" style="stroke-width:1.999750;" />
<line x1="3333.333400" y1="3333.333400" x2="2666.666600" y2="4000.000000" class="n" style="stroke-width:1.999750;" />
<line x1="2666.666600" y1="3333.333400" x2="2666.666600" y2="4000.000000" class="n" style="stroke-width:1.999750;" />
<line x1="2666.666600" y1="2000.000000" x2="2000.000000" y2="2666.666600" class="n" style="stroke-width:1.999750;" />
<line x1="2000.000000" y1="2666.666600" x2="2666.666600" y2="2666.666600" class="n" style="stroke-width:1.999750;" />
<line x1="2666.666600" y1="2666.666600" x2="2000.000000" y2="3333.333400" class="n" style="stroke-width:1.999750;" />
<line x1="2000.000000" y1="3333.333400" x2="2666.666600" y2="3333.333400" class="n" style="stroke-width:1.999750;" />
<line x1="2666.666600" y1="3333.333400" x2="2000.000000" y2="4000.000000" class="n" style="stroke-width:1.999750;" />
<line x1="3333.333400" y1="8000.000000" x2="4000.000000" y2="8000.000000" class="m" style="stroke-width:15.998000;" />
<line x1="4000.000000" y1="8000.000000" x2="4000.000000" y2="7333.333400" class="m" style="stroke-width:15.998000;" />
<line x1="4000.000000" y1="7333.333400" x2="3333.333400" y2="8000.000000" class="n" style="stroke-width:1.999750;" />
<line x1="4000.000000" y1="7333.333400" x2="3333.333400" y2="7333.333400" class="n" style="stroke-width:1.999750;" />
<line x1="3333.333400" y1="7333.333400" x2="3333.333400" y2="8000.000000" class="n" style="stroke-width:1.999750;" />
<line x1="4000.000000" y1="7333.333400" x2="4000.000000" y2="6666.666600" class="m" style="stroke-width:15.998000;" />
<line x1="4000.000000" y1="6666.666600" x2="3333.333400" y2="7333.333400" class="n" style="stroke-width:1.999750;" />
<line x1="3333.333400" y1="6666.666600" x2="3333.333400" y2="7333.333400" class="n" style="stroke-width:1.999750;" />
<line x1="4000.000000" y1="6666.666600" x2="3333.333400" y2="6666.666600" class="n" style="stroke-width:1.999750;" />
<line x1="4000.000000" y1="6666.666600" x2="4000.000000" y2="6000.000000" class="m" style="stroke-width:15.998000;" />
<line x1="4000.000000" y1="6000.000000" x2="3333.333400" y2="6666.666600" class="n" style="stroke-width:1.999750;" />
<line x1="3333.333400" y1="6000.000000" x2="3333.333400" y2="6666.666600" class="n" style="stroke-width:1.999750;" />
<line x1="2666.666600" y1="8000.000000" x2="3333.333400" y2="8000.000000" class="m" style="stroke-width:15.998000;" />
<line x1="3333.333400" y1="7333.333400" x2="2666.666600" y2="8000.000000" class="n" style="stroke-width:1.999750;" />
<line x1="3333.333400" y1="7333.333400" x2="2666.666600" y2="7333.333400" class="n" style="stroke-width:1.999750;" />
<line x1="2666.666600" y1="7333.333400" x2="2666.666600" y2="8000.000000" class="n" style="stroke-width:1.999750;" />
<line x1="3333.333400" y1="6666.666600" x2="2666.666600" y2="7333.333400" class="n" style="stroke-width:1.999750;" />
<line x1="2666.666600" y1="6666.666600" x2="2666.666600" y2="7333.333400" class="n" style="stroke-width:1.999750;" />
<line x1="3333.333400" y1="6666.666600" x2="2666.666600" y2="6666.666600" class="n" style="stroke-width:1.999750;" />
<line x1="3333.333400" y1="6000.000000" x2="2666.666600" y2="6666.666600" class="n" style="stroke-width:1.999750;" />
<line x1="2666.666600" y1="6000.000000" x2="2666.666600" y2="6666.666600" class="n" style="stroke-width:1.999750;" />
<line x1="2000.000000" y1="8000.000000" x2="2666.666600" y2="8000.000000" class="m" style="stroke-width:15.998000;" />
<line x1="2666.666600" y1="7333.333400" x2="2000.000000" y2="8000.000000" class="n" style="stroke-width:1.999750;" />
<line x1="2000.000000" y1="7333.333400" x2="2000.000000" y2="8000.000000" class="m" style="stroke-width:15.998000;" />
<line x1="2666.666600" y1="7333.333400" x2="2000.000000" y2="7333.333400" class="n" style="stroke-width:1.999750;" />
<line x1="2666.666600" y1="6666.666600" x2="2000.000000" y2="7333.333400" class="n" style="stroke-width:1.999750;" />
<line x1="2000.000000" y1="6666.666600" x2="2000.000000" y2="7333.333400" class="m" style="stroke-width:15.998000;" />
<line x1="2666.666600" y1="6666.666600" x2="2000.000000" y2="6666.666600" class="n" style="stroke-width:1.999750;" />
<line x1="2666.666600" y1="6000.000000" x2="2000.000000" y2="6666.666600" class="n" style="stroke-width:1.999750;" />
<line x1="2000.000000" y1="6000.000000" x2="2000.000000" y2="6666.666600" class="m" style="stroke-width:15.998000;" />
<text x="4000.000000" y="5690.666700" transform="rotate(-89.999995 4000.000000 5690.666700)" fill="darkgreen" font-weight="bold" font-size="120.000000">0</text>
<text x="5642.666700" y="4000.000000" transform="rotate(0.000000 5642.666700 4000.000000)" fill="darkgreen" font-weight="bold" font-size="120.000000">0</text>
<text x="3333.333400" y="5690.666700" transform="rotate(-89.999995 3333.333400 5690.666700)" fill="darkgreen" font-weight="bold" font-size="120.000000">4</text>
<text x="3333.333400" y="5642.666700" transform="rotate(89.999995 3333.333400 5642.666700)" fill="darkgreen" font-weight="bold" font-size="120.000000">4</text>
<text x="4000.000000" y="5024.000000" transform="rotate(-89.999995 4000.000000 5024.000000)" fill="darkgreen" font-weight="bold" font-size="120.000000">5</text>
<text x="4976.000000" y="4000.000000" transform="rotate(0.000000 4976.000000 4000.000000)" fill="darkgreen" font-weight="bold" font-size="120.000000">5</text>
<text x="3333.333400" y="5024.000000" transform="rotate(-89.999995 3333.333400 5024.000000)" fill="darkgreen" font-weight="bold" font-size="120.000000">8</text>
<text x="3333.333400" y="4976.000000" transform="rotate(89.999995 3333.333400 4976.000000)" fill="darkgreen" font-weight="bold" font-size="120.000000">8</text>
<text x="4000.000000" y="4357.333300" transform="rotate(-89.999995 4000.000000 4357.333300)" fill="darkgreen" font-weight="bold" font-size="120.000000">9</text>
<text x="4309.333300" y="4000.000000" transform="rotate(0.000000 4309.333300 4000.000000)" fill="darkgreen" font-weight="bold" font-size="120.000000">9</text>
<text x="3333.333400" y="4381.333300" transform="rotate(-89.999995 3333.333400 4381.333300)" fill="darkgreen" font-weight="bold" font-size="120.000000">12</text>
<text x="3333.333400" y="4285.333300" transform="rotate(89.999995 3333.333400 4285.333300)" fill="darkgreen" font-weight="bold" font-size="120.000000">12</text>
<text x="2666.666600" y="5714.666700" transform="rotate(-89.999995 2666.666600 5714.666700)" fill="darkgreen" font-weight="bold" font-size="120.000000">16</text>
<text x="2666.666600" y="5618.666700" transform="rotate(89.999995 2666.666600 5618.666700)" fill="darkgreen" font-weight="bold" font-size="120.000000">16</text>
<text x="2666.666600" y="5048.000000" transform="rotate(-89.999995 2666.666600 5048.000000)" fill="darkgreen" font-weight="bold" font-size="120.000000">19</text>
<text x="2666.666600" y="4952.000000" transform="rotate(89.999995 2666.666600 4952.000000)" fill="darkgreen" font-weight="bold" font-size="120.000000">19</text>
<text x="2666.666600" y="4381.333300" transform="rotate(-89.999995 2666.666600 4381.333300)" fill="darkgreen" font-weight="bold" font-size="120.000000">22</text>
<text x="2666.666600" y="4285.333300" transform="rotate(89.999995 2666.666600 4285.333300)" fill="darkgreen" font-weight="bold" font-size="120.000000">22</text>
<text x="1700.607825" y="5632.725575" transform="rotate(134.999993 1700.607825 5632.725575)" fill="darkgreen" font-weight="bold" font-size="120.000000">33</text>
<text x="1632.725575" y="5700.607825" transform="rotate(-44.999998 1632.725575 5700.607825)" fill="darkgreen" font-weight="bold" font-size="120.000000">33</text>
<text x="2000.000000" y="6285.333300" transform="rotate(89.999995 2000.000000 6285.333300)" fill="darkgreen" font-weight="bold" font-size="120.000000">34</text>
<text x="1618.666700" y="6000.000000" transform="rotate(0.000000 1618.666700 6000.000000)" fill="darkgreen" font-weight="bold" font-size="120.000000">34</text>
<text x="1700.607820" y="4966.058869" transform="rotate(134.999984 1700.607820 4966.058869)" fill="darkgreen" font-weight="bold" font-size="120.000000">37</text>
<text x="1632.725580" y="5033.941131" transform="rotate(-45.000006 1632.725580 5033.941131)" fill="darkgreen" font-weight="bold" font-size="120.000000">37</text>
<text x="1700.607825" y="4299.392175" transform="rotate(134.999993 1700.607825 4299.392175)" fill="darkgreen" font-weight="bold" font-size="120.000000">40</text>
<text x="1632.725575" y="3632.725575" transform="rotate(44.999998 1632.725575 3632.725575)" fill="darkgreen" font-weight="bold" font-size="120.000000">40</text>
<text x="1033.941131" y="5632.725580" transform="rotate(135.000001 1033.941131 5632.725580)" fill="darkgreen" font-weight="bold" font-size="120.000000">43</text>
<text x="966.058869" y="5700.607820" transform="rotate(-44.999989 966.058869 5700.607820)" fill="darkgreen" font-weight="bold" font-size="120.000000">43</text>
<text x="2000.000000" y="6952.000000" transform="rotate(89.999995 2000.000000 6952.000000)" fill="darkgreen" font-weight="bold" font-size="120.000000">44</text>
<text x="952.000000" y="6000.000000" transform="rotate(0.000000 952.000000 6000.000000)" fill="darkgreen" font-weight="bold" font-size="120.000000">44</text>
<text x="1033.941125" y="4966.058875" transform="rotate(134.999993 1033.941125 4966.058875)" fill="darkgreen" font-weight="bold" font-size="120.000000">47</text>
<text x="966.058875" y="2966.058875" transform="rotate(44.999998 966.058875 2966.058875)" fill="darkgreen" font-weight="bold" font-size="120.000000">47</text>
<text x="1700.607820" y="3033.941131" transform="rotate(-134.999984 1700.607820 3033.941131)" fill="darkgreen" font-weight="bold" font-size="120.000000">50</text>
<text x="1632.725580" y="2966.058869" transform="rotate(45.000006 1632.725580 2966.058869)" fill="darkgreen" font-weight="bold" font-size="120.000000">50</text>
<text x="367.274425" y="5632.725575" transform="rotate(134.999993 367.274425 5632.725575)" fill="darkgreen" font-weight="bold" font-size="120.000000">53</text>
<text x="299.392175" y="2299.392175" transform="rotate(44.999998 299.392175 2299.392175)" fill="darkgreen" font-weight="bold" font-size="120.000000">53</text>
<text x="2000.000000" y="7618.666700" transform="rotate(89.999995 2000.000000 7618.666700)" fill="darkgreen" font-weight="bold" font-size="120.000000">54</text>
<text x="285.333300" y="6000.000000" transform="rotate(0.000000 285.333300 6000.000000)" fill="darkgreen" font-weight="bold" font-size="120.000000">54</text>
<text x="1033.941131" y="2367.274420" transform="rotate(-135.000001 1033.941131 2367.274420)" fill="darkgreen" font-weight="bold" font-size="120.000000">57</text>
<text x="966.058869" y="2299.392180" transform="rotate(44.999989 966.058869 2299.392180)" fill="darkgreen" font-weight="bold" font-size="120.000000">57</text>
<text x="1700.607825" y="2367.274425" transform="rotate(-134.999993 1700.607825 2367.274425)" fill="darkgreen" font-weight="bold" font-size="120.000000">60</text>
<text x="1632.725575" y="2299.392175" transform="rotate(44.999998 1632.725575 2299.392175)" fill="darkgreen" font-weight="bold" font-size="120.000000">60</text>
<text x="367.274425" y="1700.607825" transform="rotate(-134.999993 367.274425 1700.607825)" fill="darkgreen" font-weight="bold" font-size="120.000000">63</text>
<text x="299.392175" y="1632.725575" transform="rotate(44.999998 299.392175 1632.725575)" fill="darkgreen" font-weight="bold" font-size="120.000000">63</text>
<text x="2285.333300" y="8000.000000" transform="rotate(-0.000000 2285.333300 8000.000000)" fill="darkgreen" font-weight="bold" font-size="120.000000">64</text>
<text x="0.000000" y="1618.666700" transform="rotate(89.999995 0.000000 1618.666700)" fill="darkgreen" font-weight="bold" font-size="120.000000">64</text>
<text x="1033.941131" y="1700.607820" transform="rotate(-135.000001 1033.941131 1700.607820)" fill="darkgreen" font-weight="bold" font-size="120.000000">67</text>
<text x="966.058869" y="1632.725580" transform="rotate(44.999989 966.058869 1632.725580)" fill="darkgreen" font-weight="bold" font-size="120.000000">67</text>
<text x="1700.607825" y="1700.607825" transform="rotate(-134.999993 1700.607825 1700.607825)" fill="darkgreen" font-weight="bold" font-size="120.000000">70</text>
<text x="2367.274425" y="1632.725575" transform="rotate(134.999993 2367.274425 1632.725575)" fill="darkgreen" font-weight="bold" font-size="120.000000">70</text>
<text x="367.274420" y="1033.941131" transform="rotate(-134.999984 367.274420 1033.941131)" fill="darkgreen" font-weight="bold" font-size="120.000000">73</text>
<text x="299.392180" y="966.058869" transform="rotate(45.000006 299.392180 966.058869)" fill="darkgreen" font-weight="bold" font-size="120.000000">73</text>
<text x="2952.000000" y="8000.000000" transform="rotate(-0.000000 2952.000000 8000.000000)" fill="darkgreen" font-weight="bold" font-size="120.000000">74</text>
<text x="0.000000" y="952.000000" transform="rotate(89.999995 0.000000 952.000000)" fill="darkgreen" font-weight="bold" font-size="120.000000">74</text>
<text x="1033.941125" y="1033.941125" transform="rotate(-134.999993 1033.941125 1033.941125)" fill="darkgreen" font-weight="bold" font-size="120.000000">77</text>
<text x="3033.941125" y="966.058875" transform="rotate(134.999993 3033.941125 966.058875)" fill="darkgreen" font-weight="bold" font-size="120.000000">77</text>
<text x="2966.058869" y="1700.607820" transform="rotate(-44.999989 2966.058869 1700.607820)" fill="darkgreen" font-weight="bold" font-size="120.000000">80</text>
<text x="3033.941131" y="1632.725580" transform="rotate(135.000001 3033.941131 1632.725580)" fill="darkgreen" font-weight="bold" font-size="120.000000">80</text>
<text x="367.274425" y="367.274425" transform="rotate(-134.999993 367.274425 367.274425)" fill="darkgreen" font-weight="bold" font-size="120.000000">83</text>
<text x="3700.607825" y="299.392175" transform="rotate(134.999993 3700.607825 299.392175)" fill="darkgreen" font-weight="bold" font-size="120.000000">83</text>
<text x="3618.666700" y="8000.000000" transform="rotate(0.000000 3618.666700 8000.000000)" fill="darkgreen" font-weight="bold" font-size="120.000000">84</text>
<text x="0.000000" y="285.333300" transform="rotate(89.999995 0.000000 285.333300)" fill="darkgreen" font-weight="bold" font-size="120.000000">84</text>
<text x="5714.666700" y="2000.000000" transform="rotate(179.999990 5714.666700 2000.000000)" fill="darkgreen" font-weight="bold" font-size="120.000000">86</text>
<text x="4000.000000" y="381.333300" transform="rotate(-89.999995 4000.000000 381.333300)" fill="darkgreen" font-weight="bold" font-size="120.000000">86</text>
<text x="3632.725580" y="1033.941131" transform="rotate(-45.000006 3632.725580 1033.941131)" fill="darkgreen" font-weight="bold" font-size="120.000000">87</text>
<text x="3700.607820" y="966.058869" transform="rotate(134.999984 3700.607820 966.058869)" fill="darkgreen" font-weight="bold" font-size="120.000000">87</text>
<text x="5048.000000" y="2000.000000" transform="rotate(179.999990 5048.000000 2000.000000)" fill="darkgreen" font-weight="bold" font-size="120.000000">89</text>
<text x="4000.000000" y="1048.000000" transform="rotate(-89.999995 4000.000000 1048.000000)" fill="darkgreen" font-weight="bold" font-size="120.000000">89</text>
<text x="3632.725575" y="1700.607825" transform="rotate(-44.999998 3632.725575 1700.607825)" fill="darkgreen" font-weight="bold" font-size="120.000000">90</text>
<text x="3700.607825" y="1632.725575" transform="rotate(134.999993 3700.607825 1632.725575)" fill="darkgreen" font-weight="bold" font-size="120.000000">90</text>
<text x="4381.333300" y="2000.000000" transform="rotate(179.999990 4381.333300 2000.000000)" fill="darkgreen" font-weight="bold" font-size="120.000000">92</text>
<text x="4000.000000" y="1714.666700" transform="rotate(-89.999995 4000.000000 1714.666700)" fill="darkgreen" font-weight="bold" font-size="120.000000">92</text>
<text x="4000.000000" y="7714.666700" transform="rotate(-89.999995 4000.000000 7714.666700)" fill="darkgreen" font-weight="bold" font-size="120.000000">94</text>
<text x="6000.000000" y="2381.333300" transform="rotate(-89.999995 6000.000000 2381.333300)" fill="darkgreen" font-weight="bold" font-size="120.000000">94</text>
<text x="5714.666700" y="2666.666600" transform="rotate(179.999990 5714.666700 2666.666600)" fill="darkgreen" font-weight="bold" font-size="120.000000">96</text>
<text x="5618.666700" y="2666.666600" transform="rotate(-0.000000 5618.666700 2666.666600)" fill="darkgreen" font-weight="bold" font-size="120.000000">96</text>
<text x="5048.000000" y="2666.666600" transform="rotate(179.999990 5048.000000 2666.666600)" fill="darkgreen" font-weight="bold" font-size="120.000000">99</text>
<text x="4952.000000" y="2666.666600" transform="rotate(0.000000 4952.000000 2666.666600)" fill="darkgreen" font-weight="bold" font-size="120.000000">99</text>
<text x="4405.333300" y="2666.666600" transform="rotate(179.999990 4405.333300 2666.666600)" fill="darkgreen" font-weight="bold" font-size="120.000000">102</text>
<text x="4261.333300" y="2666.666600" transform="rotate(-0.000000 4261.333300 2666.666600)" fill="darkgreen" font-weight="bold" font-size="120.000000">102</text>
<text x="4000.000000" y="7072.000000" transform="rotate(-89.999995 4000.000000 7072.000000)" fill="darkgreen" font-weight="bold" font-size="120.000000">104</text>
<text x="6000.000000" y="3072.000000" transform="rotate(-89.999995 6000.000000 3072.000000)" fill="darkgreen" font-weight="bold" font-size="120.000000">104</text>
<text x="5738.666700" y="3333.333400" transform="rotate(179.999990 5738.666700 3333.333400)" fill="darkgreen" font-weight="bold" font-size="120.000000">106</text>
<text x="5594.666700" y="3333.333400" transform="rotate(0.000000 5594.666700 3333.333400)" fill="darkgreen" font-weight="bold" font-size="120.000000">106</text>
<text x="5072.000000" y="3333.333400" transform="rotate(179.999990 5072.000000 3333.333400)" fill="darkgreen" font-weight="bold" font-size="120.000000">109</text>
<text x="4928.000000" y="3333.333400" transform="rotate(0.000000 4928.000000 3333.333400)" fill="darkgreen" font-weight="bold" font-size="120.000000">109</text>
<text x="4405.333300" y="3333.333400" transform="rotate(179.999990 4405.333300 3333.333400)" fill="darkgreen" font-weight="bold" font-size="120.000000">112</text>
<text x="4261.333300" y="3333.333400" transform="rotate(0.000000 4261.333300 3333.333400)" fill="darkgreen" font-weight="bold" font-size="120.000000">112</text>
<text x="6000.000000" y="3738.666700" transform="rotate(-89.999995 6000.000000 3738.666700)" fill="darkgreen" font-weight="bold" font-size="120.000000">114</text>
<text x="4000.000000" y="6405.333300" transform="rotate(-89.999995 4000.000000 6405.333300)" fill="darkgreen" font-weight="bold" font-size="120.000000">114</text>
<text x="3717.578388" y="2282.421612" transform="rotate(134.999993 3717.578388 2282.421612)" fill="darkgreen" font-weight="bold" font-size="120.000000">120</text>
<text x="3615.755012" y="2384.244988" transform="rotate(-44.999998 3615.755012 2384.244988)" fill="darkgreen" font-weight="bold" font-size="120.000000">120</text>
<text x="3717.578381" y="2949.088304" transform="rotate(134.999984 3717.578381 2949.088304)" fill="darkgreen" font-weight="bold" font-size="120.000000">123</text>
<text x="3615.755019" y="3050.911696" transform="rotate(-45.000006 3615.755019 3050.911696)" fill="darkgreen" font-weight="bold" font-size="120.000000">123</text>
<text x="3050.911696" y="2282.421619" transform="rotate(135.000001 3050.911696 2282.421619)" fill="darkgreen" font-weight="bold" font-size="120.000000">128</text>
<text x="2949.088304" y="2384.244981" transform="rotate(-44.999989 2949.088304 2384.244981)" fill="darkgreen" font-weight="bold" font-size="120.000000">128</text>
<text x="3050.911688" y="2949.088312" transform="rotate(134.999993 3050.911688 2949.088312)" fill="darkgreen" font-weight="bold" font-size="120.000000">131</text>
<text x="2949.088312" y="3050.911688" transform="rotate(-44.999998 2949.088312 3050.911688)" fill="darkgreen" font-weight="bold" font-size="120.000000">131</text>
<text x="3333.333400" y="7738.666700" transform="rotate(-89.999995 3333.333400 7738.666700)" fill="darkgreen" font-weight="bold" font-size="120.000000">143</text>
<text x="3333.333400" y="7594.666700" transform="rotate(89.999995 3333.333400 7594.666700)" fill="darkgreen" font-weight="bold" font-size="120.000000">143</text>
<text x="3333.333400" y="7072.000000" transform="rotate(-89.999995 3333.333400 7072.000000)" fill="darkgreen" font-weight="bold" font-size="120.000000">146</text>
<text x="3333.333400" y="6928.000000" transform="rotate(89.999995 3333.333400 6928.000000)" fill="darkgreen" font-weight="bold" font-size="120.000000">146</text>
<text x="3333.333400" y="6261.333300" transform="rotate(89.999995 3333.333400 6261.333300)" fill="darkgreen" font-weight="bold" font-size="120.000000">148</text>
<text x="3333.333400" y="6405.333300" transform="rotate(-89.999995 3333.333400 6405.333300)" fill="darkgreen" font-weight="bold" font-size="120.000000">148</text>
<text x="2666.666600" y="7738.666700" transform="rotate(-89.999995 2666.666600 7738.666700)" fill="darkgreen" font-weight="bold" font-size="120.000000">151</text>
<text x="2666.666600" y="7594.666700" transform="rotate(89.999995 2666.666600 7594.666700)" fill="darkgreen" font-weight="bold" font-size="120.000000">151</text>
<text x="2666.666600" y="7072.000000" transform="rotate(-89.999995 2666.666600 7072.000000)" fill="darkgreen" font-weight="bold" font-size="120.000000">154</text>
<text x="2666.666600" y="6928.000000" transform="rotate(89.999995 2666.666600 6928.000000)" fill="darkgreen" font-weight="bold" font-size="120.000000">154</text>
<text x="2666.666600" y="6261.333300" transform="rotate(89.999995 2666.666600 6261.333300)" fill="darkgreen" font-weight="bold" font-size="120.000000">156</text>
<text x="2666.666600" y="6405.333300" transform="rotate(-89.999995 2666.666600 6405.333300)" fill="darkgreen" font-weight="bold" font-size="120.000000">156</text>
</svg>
