<?xml version="1.0"?>
<svg width="1467" height="1397" version="1.1" xmlns="http://www.w3.org/2000/svg" >
<defs>
<style type="text/css"><![CDATA[
.m {stroke:rgb(255,0,0);stroke-width:1.833750;}
.v {stroke:rgb(0,0,255);stroke-width:1.833750;}
.b {stroke:rgb(0,0,0);stroke-width:3.667500;fill:white}
.n {stroke:rgb(128,128,128);stroke-width:1.833750}
.t {stroke:rgb(0,128,0);stroke-width:1.833750;}
.c {stroke:rgb(128,128,128);stroke-width:1.833750;stroke-dasharray:14.670000, 14.670000;}
]]></style>
</defs>
<path fill="none" style="stroke:black;stroke-width:3.667500;" d=" M 1261.44 493.725 L 866.264 565.293 M 866.264 565.293 L 1242.31 424.314 M 1232.77 389.751 L 856.725 530.73 M 856.725 530.73 L 1201.55 324.871 M 1186 292.566 L 841.167 498.425 M 841.167 498.425 L 1143.7 234.303 M 1143.7 234.303 L 1122.62 205.295 M 1122.62 205.295 L 820.092 469.417 M 820.092 469.417 L 1070.6 155.52 M 1070.6 155.52 L 1044.68 130.742 M 1044.68 130.742 L 794.176 444.638 M 794.176 444.638 L 984.61 91.0563 M 984.61 91.0563 L 954.686 71.3035 M 954.686 71.3035 L 764.251 424.886 M 764.251 424.886 L 888.492 42.9825 M 888.492 42.9825 L 855.521 28.8902 M 855.521 28.8902 L 731.281 410.793 M 731.281 410.793 L 785.332 12.8434 M 785.332 12.8434 L 750.375 4.86485 M 750.375 4.86485 L 696.324 402.815 M 696.324 402.815 L 678.452 1.6088 M 678.452 1.6088 L 642.633 0 M 642.633 0 L 660.505 401.206 M 660.505 401.206 L 571.281 9.63901 M 571.281 9.63901 L 535.749 14.452 M 535.749 14.452 L 624.974 406.019 M 624.974 406.019 L 467.264 36.6771 M 467.264 36.6771 L 433.163 47.7573 M 433.163 47.7573 L 590.873 417.099 M 590.873 417.099 L 369.752 81.8512 M 369.752 81.8512 L 338.178 98.842 M 338.178 98.842 L 559.298 434.09 M 559.298 434.09 L 281.869 143.713 M 281.869 143.713 L 531.265 456.446 M 230.037 193.27 L 206.446 220.272 M 531.265 456.446 L 230.037 193.27 M 206.446 220.272 L 507.674 483.448 M 164.295 278.287 L 145.905 309.067 M 507.674 483.448 L 164.295 278.287 M 145.905 309.067 L 489.284 514.228 M 114.79 373.678 L 102.191 407.247 M 489.284 514.228 L 114.79 373.678 M 102.191 407.247 L 476.685 547.797 M 83.1132 476.376 L 76.711 511.655 M 476.685 547.797 L 83.1132 476.376 M 76.711 511.655 L 470.283 583.077 M 70.283 583.077 L 70.283 618.932 M 470.283 583.077 L 70.283 583.077 M 70.283 618.932 L 470.283 618.932 M 76.711 690.354 L 83.1132 725.634 M 470.283 618.932 L 76.711 690.354 M 83.1132 725.634 L 476.685 654.212 M 102.191 794.762 L 114.79 828.331 M 476.685 654.212 L 102.191 794.762 M 114.79 828.331 L 489.284 687.781 M 145.905 892.942 L 164.295 923.722 M 489.284 687.781 L 145.905 892.942 M 164.295 923.722 L 507.674 718.562 M 206.446 981.737 L 230.037 1008.74 M 507.674 718.562 L 206.446 981.737 M 230.037 1008.74 L 531.265 745.564 M 531.265 745.564 L 281.869 1058.3 M 309.902 1080.65 L 559.298 767.919 M 559.298 767.919 L 369.75 1120.16 M 401.325 1137.15 L 590.873 784.91 M 590.873 784.91 L 467.266 1165.33 M 501.367 1176.41 L 624.974 795.99 M 624.974 795.99 L 571.281 1192.37 M 606.812 1197.18 L 660.505 800.803 M 660.505 800.803 L 678.45 1200.4 M 714.27 1198.79 L 696.324 799.195 M 696.324 799.195 L 785.334 1189.17 M 820.291 1181.19 L 731.281 791.216 M 731.281 791.216 L 888.491 1159.03 M 921.461 1144.93 L 764.252 777.124 M 764.252 777.124 L 984.61 1110.95 M 1014.53 1091.2 L 794.176 757.371 M 794.176 757.371 L 1070.6 1046.49 M 1122.43 996.932 L 820.092 732.592 M 820.092 732.592 L 1164.77 938.699 M 1185.85 909.691 L 841.168 703.584 M 841.168 703.584 L 1217.11 844.833 M 1232.67 812.528 L 856.725 671.28 M 856.725 671.28 L 1251.85 743.131 M 1261.39 708.568 L 866.264 636.716 M 866.264 636.716 L 1267.87 636.859 M 1271.08 601.148 L 869.478 601.005 M 869.478 601.005 L 1264.65 529.436 M 1461.44 493.724 L 1261.44 493.725 M 1264.65 529.436 L 1461.44 493.724 M 1429.56 354.039 L 1232.77 389.751 M 1242.31 424.314 L 1429.56 354.039 M 1201.55 324.871 L 1373.24 222.291 M 1176.46 258.003 L 1186 292.566 M 1173.24 222.291 L 1176.46 258.003 M 1176.46 186.58 L 1173.24 222.291 M 1186 152.016 L 1176.46 186.58 M 1201.55 119.711 L 1186 152.016 M 1222.63 90.7035 L 1201.55 119.711 M 1248.55 65.925 L 1222.63 90.7035 M 1278.47 46.1721 L 1248.55 65.925 M 1373.24 222.291 L 1311.44 32.08 M 1311.44 32.08 L 1278.47 46.1721 M 21.0755 1093.62 L 0 1122.63 M 0 1122.63 L 171.69 1225.21 M 46.9918 1068.84 L 21.0755 1093.62 M 76.9161 1049.09 L 46.9918 1068.84 M 109.887 1035 L 76.9161 1049.09 M 144.843 1027.02 L 109.887 1035 M 180.663 1025.41 L 144.843 1027.02 M 216.194 1030.22 L 180.663 1025.41 M 250.295 1041.3 L 216.194 1030.22 M 281.869 1058.3 L 250.295 1041.3 M 171.69 1225.21 L 309.902 1080.65 M 291.144 1304.06 L 401.325 1137.15 M 369.75 1120.16 L 291.144 1304.06 M 422.762 1360.32 L 501.367 1176.41 M 467.266 1165.33 L 422.762 1360.32 M 562.308 1392.17 L 606.812 1197.18 M 571.281 1192.37 L 562.308 1392.17 M 705.296 1398.59 L 714.27 1198.79 M 678.45 1200.4 L 705.296 1398.59 M 847.139 1379.38 L 820.291 1181.19 M 785.334 1189.17 L 847.139 1379.38 M 983.264 1335.15 L 921.461 1144.93 M 888.491 1159.03 L 983.264 1335.15 M 1109.31 1267.32 L 1014.53 1091.2 M 984.61 1110.95 L 1109.31 1267.32 M 1221.21 1178.08 L 1096.52 1021.71 M 1070.6 1046.49 L 1221.21 1178.08 M 1247.13 1153.3 L 1122.43 996.932 M 1096.52 1021.71 L 1247.13 1153.3 M 1336.46 1041.28 L 1185.85 909.691 M 1164.77 938.699 L 1336.46 1041.28 M 1404.36 915.109 L 1232.67 812.528 M 1217.11 844.833 L 1404.36 915.109 M 1448.63 778.842 L 1261.39 708.568 M 1251.85 743.131 L 1448.63 778.842 M 1267.87 636.859 L 1467.87 636.858 M 1467.87 636.858 L 1271.08 601.148 M 531.265 456.446 L 669.478 601.005 M 669.478 601.005 L 531.265 456.446" />
<path fill="none" class="c" d=" M 794.176 757.371 L 820.092 732.592 M 1096.52 1021.71 L 820.092 732.592 M 1096.52 1021.71 L 1122.43 996.932 M 869.478 601.005 L 866.264 565.293 M 764.252 777.124 L 794.176 757.371 M 820.092 732.592 L 841.168 703.584 M 841.168 703.584 L 856.725 671.28 M 856.725 671.28 L 866.264 636.716 M 866.264 636.716 L 869.478 601.005 M 1264.65 529.436 L 866.264 565.293 M 1264.65 529.436 L 1261.44 493.725 M 1070.6 1046.49 L 1096.52 1021.71 M 1164.77 938.699 L 841.168 703.584 M 1164.77 938.699 L 1185.85 909.691 M 1217.11 844.833 L 856.725 671.28 M 1217.11 844.833 L 1232.67 812.528 M 1251.85 743.131 L 866.264 636.716 M 1251.85 743.131 L 1261.39 708.568 M 1267.87 636.859 L 869.478 601.005 M 1267.87 636.859 L 1271.08 601.148 M 866.264 565.293 L 856.725 530.73 M 856.725 530.73 L 841.167 498.425 M 841.167 498.425 L 820.092 469.417 M 820.092 469.417 L 794.176 444.638 M 794.176 444.638 L 764.251 424.886 M 764.251 424.886 L 731.281 410.793 M 731.281 410.793 L 696.324 402.815 M 696.324 402.815 L 660.505 401.206 M 660.505 401.206 L 624.974 406.019 M 624.974 406.019 L 590.873 417.099 M 590.873 417.099 L 559.298 434.09 M 559.298 434.09 L 531.265 456.446 M 731.281 791.216 L 764.252 777.124 M 1242.31 424.314 L 856.725 530.73 M 1242.31 424.314 L 1232.77 389.751 M 1201.55 324.871 L 841.167 498.425 M 1201.55 324.871 L 1186 292.566 M 1143.7 234.303 L 820.092 469.417 M 1070.6 155.52 L 794.176 444.638 M 984.61 91.0563 L 764.251 424.886 M 888.492 42.9825 L 731.281 410.793 M 785.332 12.8434 L 696.324 402.815 M 678.452 1.6088 L 660.505 401.206 M 571.281 9.63901 L 624.974 406.019 M 467.264 36.6771 L 590.873 417.099 M 369.752 81.8512 L 559.298 434.09 M 984.61 1110.95 L 1014.53 1091.2 M 696.324 799.195 L 731.281 791.216 M 888.491 1159.03 L 921.461 1144.93 M 660.505 800.803 L 696.324 799.195 M 785.334 1189.17 L 820.291 1181.19 M 624.974 795.99 L 660.505 800.803 M 678.45 1200.4 L 714.27 1198.79 M 590.873 784.91 L 624.974 795.99 M 571.281 1192.37 L 606.812 1197.18 M 559.298 767.919 L 590.873 784.91 M 467.266 1165.33 L 501.367 1176.41 M 531.265 745.564 L 559.298 767.919 M 369.75 1120.16 L 401.325 1137.15 M 507.674 718.562 L 531.265 745.564 M 281.869 1058.3 L 309.902 1080.65 M 489.284 687.781 L 507.674 718.562 M 476.685 654.212 L 489.284 687.781 M 470.283 618.932 L 476.685 654.212 M 470.283 583.077 L 470.283 618.932 M 476.685 547.797 L 470.283 583.077 M 489.284 514.228 L 476.685 547.797 M 507.674 483.448 L 489.284 514.228 M 531.265 456.446 L 507.674 483.448" />
</svg>
