<?xml version="1.0"?>
<svg width="1603" height="1480" version="1.1" xmlns="http://www.w3.org/2000/svg" >
<defs>
<style type="text/css"><![CDATA[
.m {stroke:rgb(255,0,0);stroke-width:2.003750;}
.v {stroke:rgb(0,0,255);stroke-width:2.003750;}
.b {stroke:rgb(0,0,0);stroke-width:4.007500;fill:white}
.n {stroke:rgb(128,128,128);stroke-width:2.003750}
.t {stroke:rgb(0,128,0);stroke-width:2.003750;}
.c {stroke:rgb(128,128,128);stroke-width:2.003750;stroke-dasharray:16.030000, 16.030000;}
]]></style>
</defs>
<path fill="none" style="stroke:black;stroke-width:4.007500;" d=" M 1239.38 835.195 L 1254.94 802.89 M 894.549 629.336 L 878.991 661.641 M 1254.94 802.89 L 1270.49 770.585 M 910.106 597.031 L 894.549 629.336 M 1270.49 770.585 L 1286.05 738.28 M 925.663 564.726 L 910.106 597.031 M 1286.05 738.28 L 1301.61 705.975 M 941.22 532.422 L 925.663 564.726 M 1301.61 705.975 L 1317.16 673.671 M 956.777 500.117 L 941.22 532.422 M 1317.16 673.671 L 1332.72 641.366 M 972.335 467.812 L 956.777 500.117 M 1332.72 641.366 L 1348.28 609.061 M 987.892 435.507 L 972.335 467.812 M 1348.28 609.061 L 1363.84 576.756 M 1003.45 403.202 L 987.892 435.507 M 1363.84 576.756 L 1379.39 544.451 M 1019.01 370.897 L 1003.45 403.202 M 1379.39 544.451 L 1394.95 512.146 M 1034.56 338.592 L 1019.01 370.897 M 1394.95 512.146 L 1410.51 479.841 M 1050.12 306.288 L 1034.56 338.592 M 1410.51 479.841 L 1426.07 447.536 M 1426.07 447.536 L 1050.12 306.288 M 682.772 391.567 L 593.549 0 M 593.549 0 L 558.018 4.8129 M 558.018 4.8129 L 647.241 396.38 M 647.241 396.38 L 489.535 27.0368 M 489.535 27.0368 L 613.14 407.46 M 0 1043.56 L 12.5988 1077.13 M 374.494 903.012 L 0 1043.56 M 12.5988 1077.13 L 387.093 936.582 M 43.7138 1141.74 L 62.1043 1172.52 M 387.093 936.582 L 43.7138 1141.74 M 62.1043 1172.52 L 405.483 967.362 M 928.234 1481.29 L 943.791 1448.99 M 567.847 1307.74 L 928.234 1481.29 M 583.404 1275.43 L 567.847 1307.74 M 943.791 1448.99 L 959.349 1416.68 M 598.961 1243.13 L 583.404 1275.43 M 959.349 1416.68 L 974.906 1384.38 M 614.518 1210.82 L 598.961 1243.13 M 974.906 1384.38 L 990.463 1352.07 M 630.076 1178.52 L 614.518 1210.82 M 990.463 1352.07 L 1006.02 1319.77 M 645.633 1146.21 L 630.076 1178.52 M 1006.02 1319.77 L 1021.58 1287.46 M 661.19 1113.91 L 645.633 1146.21 M 1021.58 1287.46 L 1037.13 1255.16 M 676.747 1081.6 L 661.19 1113.91 M 1037.13 1255.16 L 1052.69 1222.85 M 692.305 1049.3 L 676.747 1081.6 M 1052.69 1222.85 L 1068.25 1190.55 M 707.862 1016.99 L 692.305 1049.3 M 1068.25 1190.55 L 1083.81 1158.24 M 723.419 984.69 L 707.862 1016.99 M 1083.81 1158.24 L 1099.36 1125.94 M 738.976 952.385 L 723.419 984.69 M 1223.82 867.5 L 1411.07 937.774 M 1260.45 806.187 L 1239.38 835.195 M 1286.37 781.408 L 1260.45 806.187 M 1316.29 761.656 L 1286.37 781.408 M 1349.27 747.563 L 1316.29 761.656 M 1384.22 739.585 L 1349.27 747.563 M 1420.04 737.976 L 1384.22 739.585 M 1455.57 742.789 L 1420.04 737.976 M 1489.67 753.869 L 1455.57 742.789 M 1521.25 770.86 L 1489.67 753.869 M 1549.28 793.215 L 1521.25 770.86 M 1572.87 820.217 L 1549.28 793.215 M 1591.26 850.998 L 1572.87 820.217 M 1411.07 937.774 L 1603.86 884.567 M 1603.86 884.567 L 1591.26 850.998 M 1331.11 1391.2 L 1365.22 1380.12 M 1365.22 1380.12 L 1286.61 1196.21 M 1295.58 1396.01 L 1331.11 1391.2 M 1259.76 1394.4 L 1295.58 1396.01 M 1224.81 1386.43 L 1259.76 1394.4 M 1191.84 1372.33 L 1224.81 1386.43 M 1161.91 1352.58 L 1191.84 1372.33 M 1136 1327.8 L 1161.91 1352.58 M 1114.92 1298.79 L 1136 1327.8 M 1099.36 1266.49 L 1114.92 1298.79 M 1089.82 1231.92 L 1099.36 1266.49 M 1086.61 1196.21 L 1089.82 1231.92 M 1089.82 1160.5 L 1086.61 1196.21 M 1099.36 1125.94 L 1089.82 1160.5 M 1286.61 1196.21 L 1114.92 1093.63 M 1302.17 1163.91 L 1130.48 1061.33 M 1114.92 1093.63 L 1302.17 1163.91 M 1317.72 1131.6 L 1146.04 1029.02 M 1130.48 1061.33 L 1317.72 1131.6 M 1333.28 1099.3 L 1161.59 996.719 M 1146.04 1029.02 L 1333.28 1099.3 M 1348.84 1066.99 L 1177.15 964.414 M 1161.59 996.719 L 1348.84 1066.99 M 1364.4 1034.69 L 1192.71 932.109 M 1177.15 964.414 L 1364.4 1034.69 M 1379.95 1002.38 L 1208.26 899.805 M 1192.71 932.109 L 1379.95 1002.38 M 1208.26 899.805 L 1395.51 970.079 M 1395.51 970.079 L 1223.82 867.5 M 691.745 591.366 L 863.434 693.946 M 878.991 661.641 L 888.53 627.077 M 888.53 627.077 L 891.745 591.366 M 891.745 591.366 L 888.53 555.655 M 888.53 555.655 L 878.992 521.091 M 878.992 521.091 L 863.435 488.786 M 863.435 488.786 L 842.359 459.778 M 842.359 459.778 L 816.443 435 M 816.443 435 L 786.519 415.247 M 786.519 415.247 L 753.548 401.155 M 753.548 401.155 L 718.592 393.176 M 718.592 393.176 L 682.772 391.567 M 613.14 407.46 L 691.745 591.366 M 567.287 849.805 L 374.494 903.012 M 405.483 967.362 L 429.074 994.364 M 429.074 994.364 L 457.107 1016.72 M 457.107 1016.72 L 488.682 1033.71 M 488.682 1033.71 L 522.782 1044.79 M 522.782 1044.79 L 558.314 1049.6 M 558.314 1049.6 L 594.133 1048 M 594.133 1048 L 629.09 1040.02 M 629.09 1040.02 L 662.06 1025.92 M 662.06 1025.92 L 691.984 1006.17 M 691.984 1006.17 L 717.901 981.393 M 717.901 981.393 L 738.976 952.385 M 754.534 920.08 L 567.287 849.805 M 770.091 887.775 L 582.844 817.5 M 582.844 817.5 L 754.534 920.08 M 785.648 855.47 L 598.401 785.195 M 598.401 785.195 L 770.091 887.775 M 801.205 823.165 L 613.958 752.891 M 613.958 752.891 L 785.648 855.47 M 816.762 790.861 L 629.515 720.586 M 629.515 720.586 L 801.205 823.165 M 832.32 758.556 L 645.073 688.281 M 645.073 688.281 L 816.762 790.861 M 847.877 726.251 L 660.63 655.975 M 660.63 655.975 L 832.32 758.556 M 676.188 623.67 L 847.877 726.251 M 863.434 693.946 L 676.188 623.67" />
<path fill="none" class="c" d=" M 801.205 823.165 L 1161.59 996.719 M 1161.59 996.719 L 1177.15 964.414 M 816.762 790.861 L 801.205 823.165 M 1177.15 964.414 L 816.762 790.861 M 1177.15 964.414 L 1192.71 932.109 M 832.32 758.556 L 816.762 790.861 M 1192.71 932.109 L 832.32 758.556 M 1192.71 932.109 L 1208.26 899.805 M 847.877 726.251 L 832.32 758.556 M 1208.26 899.805 L 847.877 726.251 M 1208.26 899.805 L 1223.82 867.5 M 863.434 693.946 L 847.877 726.251 M 1223.82 867.5 L 863.434 693.946 M 1223.82 867.5 L 1239.38 835.195 M 801.205 823.165 L 785.648 855.47 M 1239.38 835.195 L 878.991 661.641 M 878.991 661.641 L 863.434 693.946 M 1254.94 802.89 L 894.549 629.336 M 1270.49 770.585 L 910.106 597.031 M 1286.05 738.28 L 925.663 564.726 M 1301.61 705.975 L 941.22 532.422 M 1317.16 673.671 L 956.777 500.117 M 1332.72 641.366 L 972.335 467.812 M 1348.28 609.061 L 987.892 435.507 M 1363.84 576.756 L 1003.45 403.202 M 1379.39 544.451 L 1019.01 370.897 M 1394.95 512.146 L 1034.56 338.592 M 1410.51 479.841 L 1050.12 306.288 M 785.648 855.47 L 1146.04 1029.02 M 1146.04 1029.02 L 1161.59 996.719 M 682.772 391.567 L 647.241 396.38 M 647.241 396.38 L 613.14 407.46 M 593.549 0 L 647.241 396.38 M 785.648 855.47 L 770.091 887.775 M 770.091 887.775 L 1130.48 1061.33 M 1130.48 1061.33 L 1146.04 1029.02 M 770.091 887.775 L 754.534 920.08 M 754.534 920.08 L 1114.92 1093.63 M 1114.92 1093.63 L 1130.48 1061.33 M 754.534 920.08 L 738.976 952.385 M 738.976 952.385 L 1099.36 1125.94 M 1099.36 1125.94 L 1114.92 1093.63 M 723.419 984.69 L 1083.81 1158.24 M 707.862 1016.99 L 1068.25 1190.55 M 692.305 1049.3 L 1052.69 1222.85 M 676.747 1081.6 L 1037.13 1255.16 M 661.19 1113.91 L 1021.58 1287.46 M 387.093 936.582 L 405.483 967.362 M 645.633 1146.21 L 1006.02 1319.77 M 374.494 903.012 L 387.093 936.582 M 630.076 1178.52 L 990.463 1352.07 M 614.518 1210.82 L 974.906 1384.38 M 598.961 1243.13 L 959.349 1416.68 M 583.404 1275.43 L 943.791 1448.99" />
<line x1="916.148573" y1="891.784955" x2="1046.649218" y2="928.099595" class="t" />
<line x1="1229.193978" y1="1009.375945" x2="1046.649218" y2="928.099595" class="t" />
<line x1="931.705810" y1="859.480078" x2="1046.649218" y2="928.099595" class="t" />
<line x1="749.161002" y1="778.203828" x2="931.705810" y2="859.480078" class="t" />
<line x1="1062.206435" y1="895.794760" x2="931.705810" y2="859.480078" class="t" />
<line x1="1244.751199" y1="977.071128" x2="1062.206435" y2="895.794760" class="t" />
<line x1="947.263044" y1="827.175208" x2="1062.206435" y2="895.794760" class="t" />
<line x1="764.718202" y1="745.899001" x2="947.263044" y2="827.175208" class="t" />
<line x1="1077.763683" y1="863.489859" x2="947.263044" y2="827.175208" class="t" />
<line x1="1260.308548" y1="944.766005" x2="1077.763683" y2="863.489859" class="t" />
<line x1="962.820290" y1="794.870312" x2="1077.763683" y2="863.489859" class="t" />
<line x1="780.275562" y1="713.593883" x2="962.820290" y2="794.870312" class="t" />
<line x1="1093.320930" y1="831.184962" x2="962.820290" y2="794.870312" class="t" />
<line x1="1275.865788" y1="912.461044" x2="1093.320930" y2="831.184962" class="t" />
<line x1="978.377539" y1="762.565409" x2="1093.320930" y2="831.184962" class="t" />
<line x1="795.832862" y1="681.288951" x2="978.377539" y2="762.565409" class="t" />
<line x1="1108.878182" y1="798.880055" x2="978.377539" y2="762.565409" class="t" />
<line x1="1291.422958" y1="880.156250" x2="1108.878182" y2="798.880055" class="t" />
<line x1="1031.091944" y1="960.404550" x2="916.148573" y2="891.784955" class="t" />
<line x1="733.603751" y1="810.508769" x2="916.148573" y2="891.784955" class="t" />
<line x1="1303.633846" y1="859.718675" x2="1291.422958" y2="880.156250" class="t" />
<line x1="1319.297729" y1="841.789905" x2="1303.633846" y2="859.718675" class="t" />
<line x1="1337.911237" y1="826.946118" x2="1319.297729" y2="841.789905" class="t" />
<line x1="1358.876098" y1="815.664424" x2="1337.911237" y2="826.946118" class="t" />
<line x1="1381.518399" y1="808.307452" x2="1358.876098" y2="815.664424" class="t" />
<line x1="1405.110490" y1="805.111676" x2="1381.518399" y2="808.307452" class="t" />
<line x1="1428.894121" y1="806.179755" x2="1405.110490" y2="805.111676" class="t" />
<line x1="1452.104801" y1="811.477367" x2="1428.894121" y2="806.179755" class="t" />
<line x1="1473.996523" y1="820.834373" x2="1452.104801" y2="811.477367" class="t" />
<line x1="1493.865699" y1="833.949908" x2="1473.996523" y2="820.834373" class="t" />
<line x1="1511.073682" y1="850.402363" x2="1493.865699" y2="833.949908" class="t" />
<line x1="1525.067443" y1="869.663094" x2="1511.073682" y2="850.402363" class="t" />
<line x1="1535.397235" y1="891.112982" x2="1525.067443" y2="869.663094" class="t" />
<line x1="993.934791" y1="730.260503" x2="1108.878182" y2="798.880055" class="t" />
<line x1="1124.435416" y1="766.575185" x2="993.934791" y2="730.260503" class="t" />
<line x1="811.390077" y1="648.984178" x2="993.934791" y2="730.260503" class="t" />
<line x1="1009.492008" y1="697.955667" x2="1124.435416" y2="766.575185" class="t" />
<line x1="1139.992612" y1="734.270391" x2="1009.492008" y2="697.955667" class="t" />
<line x1="1025.049201" y1="665.650881" x2="1139.992612" y2="734.270391" class="t" />
<line x1="1155.549830" y1="701.965554" x2="1025.049201" y2="665.650881" class="t" />
<line x1="1040.606447" y1="633.345985" x2="1155.549830" y2="701.965554" class="t" />
<line x1="1171.107088" y1="669.660634" x2="1040.606447" y2="633.345985" class="t" />
<line x1="1056.163689" y1="601.041098" x2="1171.107088" y2="669.660634" class="t" />
<line x1="1186.664301" y1="637.355808" x2="1056.163689" y2="601.041098" class="t" />
<line x1="1071.720888" y1="568.736300" x2="1186.664301" y2="637.355808" class="t" />
<line x1="1202.221510" y1="605.050989" x2="1071.720888" y2="568.736300" class="t" />
<line x1="1087.278121" y1="536.431432" x2="1202.221510" y2="605.050989" class="t" />
<line x1="1217.778759" y1="572.746088" x2="1087.278121" y2="536.431432" class="t" />
<line x1="1102.835362" y1="504.126548" x2="1217.778759" y2="572.746088" class="t" />
<line x1="1233.335990" y1="540.441223" x2="1102.835362" y2="504.126548" class="t" />
<line x1="1118.392591" y1="471.821687" x2="1233.335990" y2="540.441223" class="t" />
<line x1="1248.893226" y1="508.136348" x2="1118.392591" y2="471.821687" class="t" />
<line x1="1133.949836" y1="439.516794" x2="1248.893226" y2="508.136348" class="t" />
<line x1="1264.450468" y1="475.831460" x2="1133.949836" y2="439.516794" class="t" />
<line x1="1149.507067" y1="407.211928" x2="1264.450468" y2="475.831460" class="t" />
<line x1="1280.007673" y1="443.526650" x2="1149.507067" y2="407.211928" class="t" />
<line x1="1165.064256" y1="374.907152" x2="1280.007673" y2="443.526650" class="t" />
<line x1="1295.564888" y1="411.221819" x2="1165.064256" y2="374.907152" class="t" />
<line x1="900.591315" y1="924.089876" x2="1031.091944" y2="960.404550" class="t" />
<line x1="1213.636699" y1="1041.680873" x2="1031.091944" y2="960.404550" class="t" />
<line x1="819.755484" y1="626.694714" x2="811.390077" y2="648.984178" class="t" />
<line x1="824.006523" y1="603.269798" x2="819.755484" y2="626.694714" class="t" />
<line x1="824.006564" y1="579.462222" x2="824.006523" y2="603.269798" class="t" />
<line x1="819.755603" y1="556.037206" x2="824.006564" y2="579.462222" class="t" />
<line x1="811.390303" y1="533.747734" x2="819.755603" y2="556.037206" class="t" />
<line x1="799.179463" y1="513.310143" x2="811.390303" y2="533.747734" class="t" />
<line x1="783.515579" y1="495.381266" x2="799.179463" y2="513.310143" class="t" />
<line x1="764.902138" y1="480.537405" x2="783.515579" y2="495.381266" class="t" />
<line x1="743.937287" y1="469.255736" x2="764.902138" y2="480.537405" class="t" />
<line x1="721.294930" y1="461.898759" x2="743.937287" y2="469.255736" class="t" />
<line x1="697.702886" y1="458.702920" x2="721.294930" y2="461.898759" class="t" />
<line x1="673.919271" y1="459.770994" x2="697.702886" y2="458.702920" class="t" />
<line x1="641.187355" y1="262.649084" x2="673.919271" y2="459.770994" class="t" />
<line x1="650.708546" y1="465.068590" x2="673.919271" y2="459.770994" class="t" />
<line x1="583.305278" y1="276.958956" x2="650.708546" y2="465.068590" class="t" />
<line x1="599.602527" y1="133.730996" x2="641.187355" y2="262.649084" class="t" />
<line x1="1015.534739" y1="992.709359" x2="900.591315" y2="924.089876" class="t" />
<line x1="718.046543" y1="842.813595" x2="900.591315" y2="924.089876" class="t" />
<line x1="885.034138" y1="956.394626" x2="1015.534739" y2="992.709359" class="t" />
<line x1="1198.079484" y1="1073.985695" x2="1015.534739" y2="992.709359" class="t" />
<line x1="999.977538" y1="1025.014161" x2="885.034138" y2="956.394626" class="t" />
<line x1="702.489366" y1="875.118365" x2="885.034138" y2="956.394626" class="t" />
<line x1="869.476899" y1="988.699507" x2="999.977538" y2="1025.014161" class="t" />
<line x1="1182.522293" y1="1106.290459" x2="999.977538" y2="1025.014161" class="t" />
<line x1="984.420286" y1="1057.319070" x2="869.476899" y2="988.699507" class="t" />
<line x1="686.932108" y1="907.423306" x2="869.476899" y2="988.699507" class="t" />
<line x1="674.721216" y1="927.860964" x2="686.932108" y2="907.423306" class="t" />
<line x1="853.919631" y1="1021.004450" x2="984.420286" y2="1057.319070" class="t" />
<line x1="1166.965019" y1="1138.595392" x2="984.420286" y2="1057.319070" class="t" />
<line x1="1158.599549" y1="1160.884911" x2="1166.965019" y2="1138.595392" class="t" />
<line x1="659.057294" y1="945.789807" x2="674.721216" y2="927.860964" class="t" />
<line x1="968.863013" y1="1089.624020" x2="853.919631" y2="1021.004450" class="t" />
<line x1="1154.348478" y1="1184.309904" x2="1158.599549" y2="1160.884911" class="t" />
<line x1="640.443776" y1="960.633577" x2="659.057294" y2="945.789807" class="t" />
<line x1="838.362370" y1="1053.309375" x2="968.863013" y2="1089.624020" class="t" />
<line x1="1154.348456" y1="1208.117477" x2="1154.348478" y2="1184.309904" class="t" />
<line x1="619.478944" y1="971.915250" x2="640.443776" y2="960.633577" class="t" />
<line x1="953.305769" y1="1121.928912" x2="838.362370" y2="1053.309375" class="t" />
<line x1="1158.599414" y1="1231.542456" x2="1154.348456" y2="1208.117477" class="t" />
<line x1="596.836571" y1="979.272178" x2="619.478944" y2="971.915250" class="t" />
<line x1="822.805142" y1="1085.614234" x2="953.305769" y2="1121.928912" class="t" />
<line x1="1166.964793" y1="1253.831958" x2="1158.599414" y2="1231.542456" class="t" />
<line x1="573.244477" y1="982.467915" x2="596.836571" y2="979.272178" class="t" />
<line x1="937.748541" y1="1154.233771" x2="822.805142" y2="1085.614234" class="t" />
<line x1="1179.175667" y1="1274.269527" x2="1166.964793" y2="1253.831958" class="t" />
<line x1="549.460864" y1="981.399790" x2="573.244477" y2="982.467915" class="t" />
<line x1="807.247915" y1="1117.919091" x2="937.748541" y2="1154.233771" class="t" />
<line x1="1194.839575" y1="1292.198361" x2="1179.175667" y2="1274.269527" class="t" />
<line x1="526.250151" y1="976.102143" x2="549.460864" y2="981.399790" class="t" />
<line x1="922.191314" y1="1186.538627" x2="807.247915" y2="1117.919091" class="t" />
<line x1="1213.453065" y1="1307.042225" x2="1194.839575" y2="1292.198361" class="t" />
<line x1="504.358426" y1="966.745190" x2="526.250151" y2="976.102143" class="t" />
<line x1="791.690676" y1="1150.223971" x2="922.191314" y2="1186.538627" class="t" />
<line x1="1234.417876" y1="1318.323930" x2="1213.453065" y2="1307.042225" class="t" />
<line x1="484.489248" y1="953.629614" x2="504.358426" y2="966.745190" class="t" />
<line x1="906.634064" y1="1218.843531" x2="791.690676" y2="1150.223971" class="t" />
<line x1="1257.060265" y1="1325.680883" x2="1234.417876" y2="1318.323930" class="t" />
<line x1="467.281277" y1="937.177069" x2="484.489248" y2="953.629614" class="t" />
<line x1="776.133444" y1="1182.528837" x2="906.634064" y2="1218.843531" class="t" />
<line x1="1280.652373" y1="1328.876656" x2="1257.060265" y2="1325.680883" class="t" />
<line x1="453.287515" y1="917.916353" x2="467.281277" y2="937.177069" class="t" />
<line x1="891.076862" y1="1251.148335" x2="776.133444" y2="1182.528837" class="t" />
<line x1="1304.435976" y1="1327.808593" x2="1280.652373" y2="1328.876656" class="t" />
<line x1="284.893426" y1="1025.488924" x2="453.287515" y2="917.916353" class="t" />
<line x1="442.957746" y1="896.466449" x2="453.287515" y2="917.916353" class="t" />
<line x1="164.303610" y1="1083.615707" x2="284.893426" y2="1025.488924" class="t" />
<line x1="760.576229" y1="1214.833668" x2="891.076862" y2="1251.148335" class="t" />
<line x1="1327.646700" y1="1322.510968" x2="1304.435976" y2="1327.808593" class="t" />
<line x1="258.061828" y1="972.242016" x2="442.957746" y2="896.466449" class="t" />
<line x1="129.030914" y1="1007.902207" x2="258.061828" y2="972.242016" class="t" />
<line x1="875.519604" y1="1283.453255" x2="760.576229" y2="1214.833668" class="t" />
<line x1="745.018960" y1="1247.138612" x2="875.519604" y2="1283.453255" class="t" />
<line x1="859.962366" y1="1315.758133" x2="745.018960" y2="1247.138612" class="t" />
<line x1="729.461740" y1="1279.443453" x2="859.962366" y2="1315.758133" class="t" />
<line x1="844.405133" y1="1348.063003" x2="729.461740" y2="1279.443453" class="t" />
<line x1="713.904485" y1="1311.748367" x2="844.405133" y2="1348.063003" class="t" />
<line x1="828.847870" y1="1380.367934" x2="713.904485" y2="1311.748367" class="t" />
<line x1="698.347243" y1="1344.053255" x2="828.847870" y2="1380.367934" class="t" />
<line x1="813.290656" y1="1412.672762" x2="698.347243" y2="1344.053255" class="t" />
</svg>
