<?xml version="1.0"?>
<svg width="1841" height="1352" version="1.1" xmlns="http://www.w3.org/2000/svg" >
<defs>
<style type="text/css"><![CDATA[
.m {stroke:rgb(255,0,0);stroke-width:2.301250;}
.v {stroke:rgb(0,0,255);stroke-width:2.301250;}
.b {stroke:rgb(0,0,0);stroke-width:4.602500;fill:white}
.n {stroke:rgb(128,128,128);stroke-width:2.301250}
.t {stroke:rgb(0,128,0);stroke-width:2.301250;}
.c {stroke:rgb(128,128,128);stroke-width:2.301250;stroke-dasharray:18.410000, 18.410000;}
]]></style>
</defs>
<path fill="none" style="stroke:black;stroke-width:4.602500;" d=" M 1075.63 547.288 L 1474.02 583.142 M 1477.24 547.43 L 1078.85 511.577 M 1078.85 511.577 L 1477.24 475.719 M 1474.02 440.008 L 1075.63 475.865 M 1075.63 475.865 L 1461.22 369.449 M 1451.68 334.886 L 1066.09 441.302 M 431.082 0 L 396.981 11.0801 M 554.69 380.422 L 431.082 0 M 396.981 11.0801 L 520.589 391.502 M 331.041 39.2646 L 299.467 56.2556 M 520.589 391.502 L 331.041 39.2646 M 299.467 56.2556 L 489.015 408.493 M 239.619 95.761 L 211.586 118.117 M 489.015 408.493 L 239.619 95.761 M 211.586 118.117 L 460.982 430.849 M 159.752 167.675 L 136.162 194.677 M 460.982 430.849 L 159.752 167.675 M 136.162 194.677 L 437.391 457.851 M 94.012 252.691 L 75.6216 283.471 M 437.391 457.851 L 94.012 252.691 M 75.6216 283.471 L 419.001 488.631 M 44.5066 348.082 L 31.9079 381.651 M 419.001 488.631 L 44.5066 348.082 M 31.9079 381.651 L 406.402 522.201 M 12.8297 450.781 L 6.42766 486.06 M 406.402 522.201 L 12.8297 450.781 M 6.42766 486.06 L 400 557.48 M 8.56902e-006 557.48 L 0 593.336 M 400 557.48 L 8.56902e-006 557.48 M 0 593.336 L 400 593.336 M 400.441 1235.38 L 435.398 1227.4 M 311.432 845.406 L 400.441 1235.38 M 346.388 837.428 L 311.432 845.406 M 435.398 1227.4 L 470.355 1219.42 M 381.345 829.449 L 346.388 837.428 M 470.355 1219.42 L 505.311 1211.44 M 416.302 821.47 L 381.345 829.449 M 505.311 1211.44 L 540.268 1203.46 M 451.258 813.491 L 416.302 821.47 M 540.268 1203.46 L 575.225 1195.48 M 486.215 805.513 L 451.258 813.491 M 575.225 1195.48 L 610.182 1187.5 M 521.172 797.534 L 486.215 805.513 M 610.182 1187.5 L 645.138 1179.53 M 556.128 789.555 L 521.172 797.534 M 645.138 1179.53 L 680.095 1171.55 M 591.085 781.576 L 556.128 789.555 M 680.095 1171.55 L 715.052 1163.57 M 626.042 773.597 L 591.085 781.576 M 715.052 1163.57 L 750.009 1155.59 M 750.009 1155.59 L 784.965 1147.61 M 784.965 1147.61 L 819.922 1139.63 M 819.922 1139.63 L 854.879 1131.65 M 854.879 1131.65 L 889.835 1123.67 M 889.835 1123.67 L 924.792 1115.7 M 924.792 1115.7 L 959.749 1107.72 M 959.749 1107.72 L 994.706 1099.74 M 994.706 1099.74 L 1029.66 1091.76 M 975.609 693.81 L 940.652 701.788 M 1064.62 1083.78 L 975.609 693.81 M 973.623 687.696 L 1193.98 1021.52 M 1223.91 1001.77 L 1003.55 667.943 M 1003.55 667.943 L 1279.97 957.06 M 1305.89 932.282 L 1029.46 643.165 M 1029.46 643.165 L 1353.07 878.278 M 1374.15 849.27 L 1050.54 614.157 M 1050.54 614.157 L 1410.93 787.708 M 1426.48 755.403 L 1066.1 581.852 M 1066.1 581.852 L 1451.68 688.264 M 1461.22 653.7 L 1075.63 547.288 M 1674.02 583.141 L 1477.24 547.43 M 1474.02 583.142 L 1674.02 583.141 M 1674.02 440.007 L 1474.02 440.008 M 1477.24 475.719 L 1674.02 440.007 M 1461.22 369.449 L 1648.47 299.174 M 1448.47 299.174 L 1451.68 334.886 M 1451.68 263.463 L 1448.47 299.174 M 1461.22 228.899 L 1451.68 263.463 M 1476.78 196.594 L 1461.22 228.899 M 1497.85 167.586 L 1476.78 196.594 M 1523.77 142.808 L 1497.85 167.586 M 1553.69 123.055 L 1523.77 142.808 M 1586.66 108.963 L 1553.69 123.055 M 1621.62 100.984 L 1586.66 108.963 M 1657.44 99.375 L 1621.62 100.984 M 1692.97 104.188 L 1657.44 99.375 M 1727.07 115.268 L 1692.97 104.188 M 1758.64 132.259 L 1727.07 115.268 M 1786.68 154.614 L 1758.64 132.259 M 1810.27 181.616 L 1786.68 154.614 M 1828.66 212.396 L 1810.27 181.616 M 1648.47 299.174 L 1841.26 245.966 M 1841.26 245.966 L 1828.66 212.396 M 894.68 1317.68 L 904.219 1352.25 M 904.219 1352.25 L 1091.47 1281.97 M 891.466 1281.97 L 894.68 1317.68 M 894.68 1246.26 L 891.466 1281.97 M 904.219 1211.7 L 894.68 1246.26 M 919.776 1179.39 L 904.219 1211.7 M 940.851 1150.38 L 919.776 1179.39 M 966.768 1125.6 L 940.851 1150.38 M 996.692 1105.85 L 966.768 1125.6 M 1029.66 1091.76 L 996.692 1105.85 M 1091.47 1281.97 L 1064.62 1083.78 M 1318.68 1177.89 L 1223.91 1001.77 M 1193.98 1021.52 L 1318.68 1177.89 M 1430.59 1088.65 L 1305.89 932.282 M 1279.97 957.06 L 1430.59 1088.65 M 1524.76 980.858 L 1374.15 849.27 M 1353.07 878.278 L 1524.76 980.858 M 1598.17 857.982 L 1426.48 755.403 M 1410.93 787.708 L 1598.17 857.982 M 1451.68 688.264 L 1648.47 723.973 M 1648.47 723.973 L 1461.22 653.7 M 1066.09 441.302 L 878.848 511.577 M 599.195 575.408 L 554.69 380.422 M 400 593.336 L 406.402 628.615 M 406.402 628.615 L 419.001 662.185 M 419.001 662.185 L 437.392 692.965 M 437.392 692.965 L 460.983 719.967 M 460.983 719.967 L 489.016 742.322 M 489.016 742.322 L 520.59 759.313 M 520.59 759.313 L 554.691 770.393 M 554.691 770.393 L 590.222 775.206 M 590.222 775.206 L 626.042 773.597 M 660.999 765.619 L 599.195 575.408 M 695.955 757.64 L 634.151 567.429 M 634.151 567.429 L 660.999 765.619 M 730.912 749.661 L 669.107 559.45 M 669.107 559.45 L 695.955 757.64 M 765.869 741.682 L 704.065 551.471 M 704.065 551.471 L 730.912 749.661 M 800.825 733.704 L 739.022 543.492 M 739.022 543.492 L 765.869 741.682 M 835.782 725.725 L 773.978 535.514 M 773.978 535.514 L 800.825 733.704 M 870.739 717.746 L 808.936 527.535 M 808.936 527.535 L 835.782 725.725 M 905.696 709.767 L 843.891 519.556 M 843.891 519.556 L 870.739 717.746 M 878.848 511.577 L 905.696 709.767 M 940.652 701.788 L 973.623 687.696" />
<path fill="none" class="c" d=" M 835.782 725.725 L 924.792 1115.7 M 870.739 717.746 L 835.782 725.725 M 959.749 1107.72 L 870.739 717.746 M 905.696 709.767 L 870.739 717.746 M 994.706 1099.74 L 905.696 709.767 M 1029.66 1091.76 L 940.652 701.788 M 1029.66 1091.76 L 1064.62 1083.78 M 940.652 701.788 L 905.696 709.767 M 835.782 725.725 L 800.825 733.704 M 973.623 687.696 L 1003.55 667.943 M 1003.55 667.943 L 1029.46 643.165 M 1029.46 643.165 L 1050.54 614.157 M 1050.54 614.157 L 1066.1 581.852 M 1066.1 581.852 L 1075.63 547.288 M 1075.63 547.288 L 1078.85 511.577 M 800.825 733.704 L 889.835 1123.67 M 1078.85 511.577 L 1075.63 475.865 M 1075.63 475.865 L 1066.09 441.302 M 1474.02 583.142 L 1477.24 547.43 M 800.825 733.704 L 765.869 741.682 M 1193.98 1021.52 L 1223.91 1001.77 M 1279.97 957.06 L 1305.89 932.282 M 1353.07 878.278 L 1374.15 849.27 M 1410.93 787.708 L 1426.48 755.403 M 1451.68 688.264 L 1461.22 653.7 M 1477.24 475.719 L 1474.02 440.008 M 1461.22 369.449 L 1451.68 334.886 M 765.869 741.682 L 854.879 1131.65 M 765.869 741.682 L 730.912 749.661 M 730.912 749.661 L 819.922 1139.63 M 730.912 749.661 L 695.955 757.64 M 695.955 757.64 L 784.965 1147.61 M 695.955 757.64 L 660.999 765.619 M 660.999 765.619 L 750.009 1155.59 M 660.999 765.619 L 626.042 773.597 M 626.042 773.597 L 715.052 1163.57 M 591.085 781.576 L 680.095 1171.55 M 556.128 789.555 L 645.138 1179.53 M 521.172 797.534 L 610.182 1187.5 M 486.215 805.513 L 575.225 1195.48 M 400 557.48 L 400 593.336 M 451.258 813.491 L 540.268 1203.46 M 406.402 522.201 L 400 557.48 M 419.001 488.631 L 406.402 522.201 M 416.302 821.47 L 505.311 1211.44 M 437.391 457.851 L 419.001 488.631 M 460.982 430.849 L 437.391 457.851 M 381.345 829.449 L 470.355 1219.42 M 489.015 408.493 L 460.982 430.849 M 520.589 391.502 L 489.015 408.493 M 346.388 837.428 L 435.398 1227.4 M 554.69 380.422 L 520.589 391.502" />
<line x1="853.799847" y1="858.374643" x2="906.774293" y2="983.045727" class="t" />
<line x1="888.756612" y1="850.395851" x2="906.774293" y2="983.045727" class="t" />
<line x1="838.485531" y1="657.001841" x2="888.756612" y2="850.395851" class="t" />
<line x1="941.731085" y1="975.066929" x2="888.756612" y2="850.395851" class="t" />
<line x1="923.713396" y1="842.417055" x2="941.731085" y2="975.066929" class="t" />
<line x1="873.442007" y1="649.023132" x2="923.713396" y2="842.417055" class="t" />
<line x1="976.687832" y1="967.088141" x2="923.713396" y2="842.417055" class="t" />
<line x1="958.670113" y1="834.438273" x2="976.687832" y2="967.088141" class="t" />
<line x1="1011.644463" y1="959.109380" x2="958.670113" y2="834.438273" class="t" />
<line x1="993.626689" y1="826.459525" x2="1011.644463" y2="959.109380" class="t" />
<line x1="1061.915717" y1="1152.503350" x2="1011.644463" y2="959.109380" class="t" />
<line x1="1039.273456" y1="1159.860358" x2="1061.915717" y2="1152.503350" class="t" />
<line x1="908.398783" y1="641.044328" x2="958.670113" y2="834.438273" class="t" />
<line x1="931.041048" y1="633.687330" x2="908.398783" y2="641.044328" class="t" />
<line x1="952.005857" y1="622.405599" x2="931.041048" y2="633.687330" class="t" />
<line x1="970.619364" y1="607.561754" x2="952.005857" y2="622.405599" class="t" />
<line x1="986.283236" y1="589.632913" x2="970.619364" y2="607.561754" class="t" />
<line x1="998.494053" y1="569.195262" x2="986.283236" y2="589.632913" class="t" />
<line x1="1006.859302" y1="546.905703" x2="998.494053" y2="569.195262" class="t" />
<line x1="871.817563" y1="991.024511" x2="853.799847" y2="858.374643" class="t" />
<line x1="803.528436" y1="664.980692" x2="853.799847" y2="858.374643" class="t" />
<line x1="1018.308634" y1="1171.142107" x2="1039.273456" y2="1159.860358" class="t" />
<line x1="1011.110177" y1="523.480668" x2="1006.859302" y2="546.905703" class="t" />
<line x1="1067.025241" y1="785.803799" x2="952.005857" y2="622.405599" class="t" />
<line x1="1112.966251" y1="747.796556" x2="970.619364" y2="607.561754" class="t" />
<line x1="1151.382403" y1="702.197144" x2="986.283236" y2="589.632913" class="t" />
<line x1="1181.039319" y1="650.470483" x2="998.494053" y2="569.195262" class="t" />
<line x1="1200.983239" y1="594.279949" x2="1006.859302" y2="546.905703" class="t" />
<line x1="1210.573426" y1="535.431646" x2="1011.110177" y2="523.480668" class="t" />
<line x1="818.843154" y1="866.353419" x2="871.817563" y2="991.024511" class="t" />
<line x1="1130.503658" y1="903.664385" x2="1067.025241" y2="785.803799" class="t" />
<line x1="1196.469480" y1="852.428462" x2="1112.966251" y2="747.796556" class="t" />
<line x1="1252.226364" y1="790.237598" x2="1151.382403" y2="702.197144" class="t" />
<line x1="1295.983166" y1="719.089270" x2="1181.039319" y2="650.470483" class="t" />
<line x1="1326.332288" y1="641.271883" x2="1200.983239" y2="594.279949" class="t" />
<line x1="999.695098" y1="1185.985961" x2="1018.308634" y2="1171.142107" class="t" />
<line x1="1011.110071" y1="499.673102" x2="1011.110177" y2="523.480668" class="t" />
<line x1="1209.501799" y1="475.816597" x2="1011.110071" y2="499.673102" class="t" />
<line x1="1006.858983" y1="476.248194" x2="1011.110071" y2="499.673102" class="t" />
<line x1="1197.802766" y1="417.350981" x2="1006.858983" y2="476.248194" class="t" />
<line x1="1342.298755" y1="559.286700" x2="1210.573426" y2="535.431646" class="t" />
<line x1="1541.762017" y1="571.237535" x2="1342.298755" y2="559.286700" class="t" />
<line x1="1343.369730" y1="475.767880" x2="1209.501799" y2="475.816597" class="t" />
<line x1="1329.510700" y1="393.400092" x2="1197.802766" y2="417.350981" class="t" />
<line x1="836.860871" y1="999.003287" x2="818.843154" y2="866.353419" class="t" />
<line x1="768.571896" y1="672.959436" x2="818.843154" y2="866.353419" class="t" />
<line x1="1245.522914" y1="1067.062669" x2="1130.503658" y2="903.664385" class="t" />
<line x1="1338.816287" y1="992.663340" x2="1196.469480" y2="852.428462" class="t" />
<line x1="1417.325426" y1="902.801975" x2="1252.226364" y2="790.237598" class="t" />
<line x1="1478.528568" y1="800.364208" x2="1295.983166" y2="719.089270" class="t" />
<line x1="1520.456335" y1="688.645728" x2="1326.332288" y2="641.271883" class="t" />
<line x1="984.031192" y1="1203.914819" x2="999.695098" y2="1185.985961" class="t" />
<line x1="1541.761454" y1="451.911324" x2="1343.369730" y2="475.767880" class="t" />
<line x1="1520.454483" y1="334.502875" x2="1329.510700" y2="393.400092" class="t" />
<line x1="783.886463" y1="874.332194" x2="836.860871" y2="999.003287" class="t" />
<line x1="1516.203402" y1="311.077910" x2="1520.454483" y2="334.502875" class="t" />
<line x1="1516.203315" y1="287.270305" x2="1516.203402" y2="311.077910" class="t" />
<line x1="1520.454209" y1="263.845346" x2="1516.203315" y2="287.270305" class="t" />
<line x1="1528.819512" y1="241.555854" x2="1520.454209" y2="263.845346" class="t" />
<line x1="1541.030317" y1="221.118189" x2="1528.819512" y2="241.555854" class="t" />
<line x1="1556.694133" y1="203.189295" x2="1541.030317" y2="221.118189" class="t" />
<line x1="1575.307629" y1="188.345482" x2="1556.694133" y2="203.189295" class="t" />
<line x1="1596.272459" y1="177.063755" x2="1575.307629" y2="188.345482" class="t" />
<line x1="1618.914719" y1="169.706720" x2="1596.272459" y2="177.063755" class="t" />
<line x1="1642.506829" y1="166.510867" x2="1618.914719" y2="169.706720" class="t" />
<line x1="1666.290472" y1="167.578860" x2="1642.506829" y2="166.510867" class="t" />
<line x1="1689.501155" y1="172.876440" x2="1666.290472" y2="167.578860" class="t" />
<line x1="1711.392937" y1="182.233385" x2="1689.501155" y2="172.876440" class="t" />
<line x1="1731.262132" y1="195.348858" x2="1711.392937" y2="182.233385" class="t" />
<line x1="1748.470201" y1="211.801301" x2="1731.262132" y2="195.348858" class="t" />
<line x1="1762.464065" y1="231.061995" x2="1748.470201" y2="211.801301" class="t" />
<line x1="1772.793839" y1="252.511842" x2="1762.464065" y2="231.061995" class="t" />
<line x1="971.820381" y1="1224.352447" x2="984.031192" y2="1203.914819" class="t" />
<line x1="801.904181" y1="1006.982062" x2="783.886463" y2="874.332194" class="t" />
<line x1="733.615181" y1="680.938208" x2="783.886463" y2="874.332194" class="t" />
<line x1="963.455059" y1="1246.641944" x2="971.820381" y2="1224.352447" class="t" />
<line x1="748.929747" y1="882.310974" x2="801.904181" y2="1006.982062" class="t" />
<line x1="959.204148" y1="1270.066956" x2="963.455059" y2="1246.641944" class="t" />
<line x1="766.947439" y1="1014.960849" x2="748.929747" y2="882.310974" class="t" />
<line x1="698.658275" y1="688.917044" x2="748.929747" y2="882.310974" class="t" />
<line x1="959.204253" y1="1293.874511" x2="959.204148" y2="1270.066956" class="t" />
<line x1="713.973046" y1="890.289752" x2="766.947439" y2="1014.960849" class="t" />
<line x1="963.455339" y1="1317.299485" x2="959.204253" y2="1293.874511" class="t" />
<line x1="731.990805" y1="1022.939611" x2="713.973046" y2="890.289752" class="t" />
<line x1="663.701701" y1="696.895808" x2="713.973046" y2="890.289752" class="t" />
<line x1="679.016383" y1="898.268521" x2="731.990805" y2="1022.939611" class="t" />
<line x1="697.034045" y1="1030.918401" x2="679.016383" y2="898.268521" class="t" />
<line x1="628.745119" y1="704.874560" x2="679.016383" y2="898.268521" class="t" />
<line x1="605.152988" y1="708.070438" x2="628.745119" y2="704.874560" class="t" />
<line x1="644.059598" y1="906.247317" x2="697.034045" y2="1030.918401" class="t" />
<line x1="581.369392" y1="707.002393" x2="605.152988" y2="708.070438" class="t" />
<line x1="662.077331" y1="1038.897182" x2="644.059598" y2="906.247317" class="t" />
<line x1="558.158679" y1="701.704721" x2="581.369392" y2="707.002393" class="t" />
<line x1="609.102924" y1="914.226088" x2="662.077331" y2="1038.897182" class="t" />
<line x1="536.266942" y1="692.347776" x2="558.158679" y2="701.704721" class="t" />
<line x1="627.120626" y1="1046.875960" x2="609.102924" y2="914.226088" class="t" />
<line x1="516.397731" y1="679.232328" x2="536.266942" y2="692.347776" class="t" />
<line x1="574.146171" y1="922.204878" x2="627.120626" y2="1046.875960" class="t" />
<line x1="499.189643" y1="662.779844" x2="516.397731" y2="679.232328" class="t" />
<line x1="592.163855" y1="1054.854754" x2="574.146171" y2="922.204878" class="t" />
<line x1="485.195876" y1="643.519141" x2="499.189643" y2="662.779844" class="t" />
<line x1="539.189446" y1="930.183661" x2="592.163855" y2="1054.854754" class="t" />
<line x1="474.866131" y1="622.069231" x2="485.195876" y2="643.519141" class="t" />
<line x1="557.207195" y1="1062.833522" x2="539.189446" y2="930.183661" class="t" />
<line x1="468.532380" y1="599.119618" x2="474.866131" y2="622.069231" class="t" />
<line x1="504.232786" y1="938.162429" x2="557.207195" y2="1062.833522" class="t" />
<line x1="466.398260" y1="575.407945" x2="468.532380" y2="599.119618" class="t" />
<line x1="522.250470" y1="1070.812304" x2="504.232786" y2="938.162429" class="t" />
<line x1="266.666670" y1="581.384038" x2="466.398260" y2="575.407945" class="t" />
<line x1="468.532276" y1="551.696188" x2="466.398260" y2="575.407945" class="t" />
<line x1="133.333339" y1="569.432112" x2="266.666670" y2="581.384038" class="t" />
<line x1="469.276014" y1="946.141222" x2="522.250470" y2="1070.812304" class="t" />
<line x1="270.943239" y1="521.913774" x2="468.532276" y2="551.696188" class="t" />
<line x1="474.865868" y1="528.746533" x2="468.532276" y2="551.696188" class="t" />
<line x1="141.886470" y1="486.347267" x2="270.943239" y2="521.913774" class="t" />
<line x1="487.293717" y1="1078.791094" x2="469.276014" y2="946.141222" class="t" />
<line x1="285.770232" y1="464.161133" x2="474.865868" y2="528.746533" class="t" />
<line x1="485.195583" y1="507.296653" x2="474.865868" y2="528.746533" class="t" />
<line x1="165.138416" y1="406.121572" x2="285.770232" y2="464.161133" class="t" />
<line x1="434.319310" y1="954.120000" x2="487.293717" y2="1078.791094" class="t" />
<line x1="310.671180" y1="409.984492" x2="485.195583" y2="507.296653" class="t" />
<line x1="499.189316" y1="488.035881" x2="485.195583" y2="507.296653" class="t" />
<line x1="202.341578" y1="331.337667" x2="310.671180" y2="409.984492" class="t" />
<line x1="452.337043" y1="1086.769865" x2="434.319310" y2="954.120000" class="t" />
<line x1="344.844901" y1="361.125618" x2="499.189316" y2="488.035881" class="t" />
<line x1="516.397251" y1="471.583322" x2="499.189316" y2="488.035881" class="t" />
<line x1="252.298606" y1="264.400184" x2="344.844901" y2="361.125618" class="t" />
<line x1="399.362596" y1="962.098781" x2="452.337043" y2="1086.769865" class="t" />
<line x1="387.194253" y1="319.153003" x2="516.397251" y2="471.583322" class="t" />
<line x1="536.266366" y1="458.467792" x2="516.397251" y2="471.583322" class="t" />
<line x1="313.406525" y1="207.457004" x2="387.194253" y2="319.153003" class="t" />
<line x1="417.380258" y1="1094.748662" x2="399.362596" y2="962.098781" class="t" />
<line x1="436.357023" y1="285.417125" x2="536.266366" y2="458.467792" class="t" />
<line x1="558.158097" y1="449.110756" x2="536.266366" y2="458.467792" class="t" />
<line x1="383.699047" y1="162.340875" x2="436.357023" y2="285.417125" class="t" />
<line x1="364.405836" y1="970.077572" x2="417.380258" y2="1094.748662" class="t" />
<line x1="490.753666" y1="261.001609" x2="558.158097" y2="449.110756" class="t" />
<line x1="460.918006" y1="130.500804" x2="490.753666" y2="261.001609" class="t" />
<line x1="382.423595" y1="1102.727430" x2="364.405836" y2="970.077572" class="t" />
</svg>
