<?xml version="1.0"?>
<svg width="1603" height="1480" version="1.1" xmlns="http://www.w3.org/2000/svg" >
<defs>
<style type="text/css"><![CDATA[
.m {stroke:rgb(255,0,0);stroke-width:2.003750;}
.v {stroke:rgb(0,0,255);stroke-width:2.003750;}
.b {stroke:rgb(0,0,0);stroke-width:4.007500;fill:white}
.n {stroke:rgb(128,128,128);stroke-width:2.003750}
.t {stroke:rgb(0,128,0);stroke-width:2.003750;}
.c {stroke:rgb(128,128,128);stroke-width:2.003750;stroke-dasharray:16.030000, 16.030000;}
]]></style>
</defs>
<path fill="none" style="stroke:black;stroke-width:4.007500;" d=" M 1239.38 835.195 L 1254.94 802.89 M 894.549 629.336 L 878.991 661.641 M 1254.94 802.89 L 1270.49 770.585 M 910.106 597.031 L 894.549 629.336 M 1270.49 770.585 L 1286.05 738.28 M 925.663 564.726 L 910.106 597.031 M 1286.05 738.28 L 1301.61 705.975 M 941.22 532.422 L 925.663 564.726 M 1301.61 705.975 L 1317.16 673.671 M 956.777 500.117 L 941.22 532.422 M 1317.16 673.671 L 1332.72 641.366 M 972.335 467.812 L 956.777 500.117 M 1332.72 641.366 L 1348.28 609.061 M 987.892 435.507 L 972.335 467.812 M 1348.28 609.061 L 1363.84 576.756 M 1003.45 403.202 L 987.892 435.507 M 1363.84 576.756 L 1379.39 544.451 M 1019.01 370.897 L 1003.45 403.202 M 1379.39 544.451 L 1394.95 512.146 M 1034.56 338.592 L 1019.01 370.897 M 1394.95 512.146 L 1410.51 479.841 M 1050.12 306.288 L 1034.56 338.592 M 1410.51 479.841 L 1426.07 447.536 M 1426.07 447.536 L 1050.12 306.288 M 682.772 391.567 L 593.549 0 M 593.549 0 L 558.018 4.8129 M 558.018 4.8129 L 647.241 396.38 M 647.241 396.38 L 489.535 27.0368 M 489.535 27.0368 L 613.14 407.46 M 0 1043.56 L 12.5988 1077.13 M 374.494 903.012 L 0 1043.56 M 12.5988 1077.13 L 387.093 936.582 M 43.7138 1141.74 L 62.1043 1172.52 M 387.093 936.582 L 43.7138 1141.74 M 62.1043 1172.52 L 405.483 967.362 M 928.234 1481.29 L 943.791 1448.99 M 567.847 1307.74 L 928.234 1481.29 M 583.404 1275.43 L 567.847 1307.74 M 943.791 1448.99 L 959.349 1416.68 M 598.961 1243.13 L 583.404 1275.43 M 959.349 1416.68 L 974.906 1384.38 M 614.518 1210.82 L 598.961 1243.13 M 974.906 1384.38 L 990.463 1352.07 M 630.076 1178.52 L 614.518 1210.82 M 990.463 1352.07 L 1006.02 1319.77 M 645.633 1146.21 L 630.076 1178.52 M 1006.02 1319.77 L 1021.58 1287.46 M 661.19 1113.91 L 645.633 1146.21 M 1021.58 1287.46 L 1037.13 1255.16 M 676.747 1081.6 L 661.19 1113.91 M 1037.13 1255.16 L 1052.69 1222.85 M 692.305 1049.3 L 676.747 1081.6 M 1052.69 1222.85 L 1068.25 1190.55 M 707.862 1016.99 L 692.305 1049.3 M 1068.25 1190.55 L 1083.81 1158.24 M 723.419 984.69 L 707.862 1016.99 M 1083.81 1158.24 L 1099.36 1125.94 M 738.976 952.385 L 723.419 984.69 M 1223.82 867.5 L 1411.07 937.774 M 1260.45 806.187 L 1239.38 835.195 M 1286.37 781.408 L 1260.45 806.187 M 1316.29 761.656 L 1286.37 781.408 M 1349.27 747.563 L 1316.29 761.656 M 1384.22 739.585 L 1349.27 747.563 M 1420.04 737.976 L 1384.22 739.585 M 1455.57 742.789 L 1420.04 737.976 M 1489.67 753.869 L 1455.57 742.789 M 1521.25 770.86 L 1489.67 753.869 M 1549.28 793.215 L 1521.25 770.86 M 1572.87 820.217 L 1549.28 793.215 M 1591.26 850.998 L 1572.87 820.217 M 1411.07 937.774 L 1603.86 884.567 M 1603.86 884.567 L 1591.26 850.998 M 1331.11 1391.2 L 1365.22 1380.12 M 1365.22 1380.12 L 1286.61 1196.21 M 1295.58 1396.01 L 1331.11 1391.2 M 1259.76 1394.4 L 1295.58 1396.01 M 1224.81 1386.43 L 1259.76 1394.4 M 1191.84 1372.33 L 1224.81 1386.43 M 1161.91 1352.58 L 1191.84 1372.33 M 1136 1327.8 L 1161.91 1352.58 M 1114.92 1298.79 L 1136 1327.8 M 1099.36 1266.49 L 1114.92 1298.79 M 1089.82 1231.92 L 1099.36 1266.49 M 1086.61 1196.21 L 1089.82 1231.92 M 1089.82 1160.5 L 1086.61 1196.21 M 1099.36 1125.94 L 1089.82 1160.5 M 1286.61 1196.21 L 1114.92 1093.63 M 1302.17 1163.91 L 1130.48 1061.33 M 1114.92 1093.63 L 1302.17 1163.91 M 1317.72 1131.6 L 1146.04 1029.02 M 1130.48 1061.33 L 1317.72 1131.6 M 1333.28 1099.3 L 1161.59 996.719 M 1146.04 1029.02 L 1333.28 1099.3 M 1348.84 1066.99 L 1177.15 964.414 M 1161.59 996.719 L 1348.84 1066.99 M 1364.4 1034.69 L 1192.71 932.109 M 1177.15 964.414 L 1364.4 1034.69 M 1379.95 1002.38 L 1208.26 899.805 M 1192.71 932.109 L 1379.95 1002.38 M 1208.26 899.805 L 1395.51 970.079 M 1395.51 970.079 L 1223.82 867.5 M 691.745 591.366 L 863.434 693.946 M 878.991 661.641 L 888.53 627.077 M 888.53 627.077 L 891.745 591.366 M 891.745 591.366 L 888.53 555.655 M 888.53 555.655 L 878.992 521.091 M 878.992 521.091 L 863.435 488.786 M 863.435 488.786 L 842.359 459.778 M 842.359 459.778 L 816.443 435 M 816.443 435 L 786.519 415.247 M 786.519 415.247 L 753.548 401.155 M 753.548 401.155 L 718.592 393.176 M 718.592 393.176 L 682.772 391.567 M 613.14 407.46 L 691.745 591.366 M 567.287 849.805 L 374.494 903.012 M 405.483 967.362 L 429.074 994.364 M 429.074 994.364 L 457.107 1016.72 M 457.107 1016.72 L 488.682 1033.71 M 488.682 1033.71 L 522.782 1044.79 M 522.782 1044.79 L 558.314 1049.6 M 558.314 1049.6 L 594.133 1048 M 594.133 1048 L 629.09 1040.02 M 629.09 1040.02 L 662.06 1025.92 M 662.06 1025.92 L 691.984 1006.17 M 691.984 1006.17 L 717.901 981.393 M 717.901 981.393 L 738.976 952.385 M 754.534 920.08 L 567.287 849.805 M 770.091 887.775 L 582.844 817.5 M 582.844 817.5 L 754.534 920.08 M 785.648 855.47 L 598.401 785.195 M 598.401 785.195 L 770.091 887.775 M 801.205 823.165 L 613.958 752.891 M 613.958 752.891 L 785.648 855.47 M 816.762 790.861 L 629.515 720.586 M 629.515 720.586 L 801.205 823.165 M 832.32 758.556 L 645.073 688.281 M 645.073 688.281 L 816.762 790.861 M 847.877 726.251 L 660.63 655.975 M 660.63 655.975 L 832.32 758.556 M 676.188 623.67 L 847.877 726.251 M 863.434 693.946 L 676.188 623.67" />
<path fill="none" class="c" d=" M 801.205 823.165 L 1161.59 996.719 M 1161.59 996.719 L 1177.15 964.414 M 816.762 790.861 L 801.205 823.165 M 1177.15 964.414 L 816.762 790.861 M 1177.15 964.414 L 1192.71 932.109 M 832.32 758.556 L 816.762 790.861 M 1192.71 932.109 L 832.32 758.556 M 1192.71 932.109 L 1208.26 899.805 M 847.877 726.251 L 832.32 758.556 M 1208.26 899.805 L 847.877 726.251 M 1208.26 899.805 L 1223.82 867.5 M 863.434 693.946 L 847.877 726.251 M 1223.82 867.5 L 863.434 693.946 M 1223.82 867.5 L 1239.38 835.195 M 801.205 823.165 L 785.648 855.47 M 1239.38 835.195 L 878.991 661.641 M 878.991 661.641 L 863.434 693.946 M 1254.94 802.89 L 894.549 629.336 M 1270.49 770.585 L 910.106 597.031 M 1286.05 738.28 L 925.663 564.726 M 1301.61 705.975 L 941.22 532.422 M 1317.16 673.671 L 956.777 500.117 M 1332.72 641.366 L 972.335 467.812 M 1348.28 609.061 L 987.892 435.507 M 1363.84 576.756 L 1003.45 403.202 M 1379.39 544.451 L 1019.01 370.897 M 1394.95 512.146 L 1034.56 338.592 M 1410.51 479.841 L 1050.12 306.288 M 785.648 855.47 L 1146.04 1029.02 M 1146.04 1029.02 L 1161.59 996.719 M 682.772 391.567 L 647.241 396.38 M 647.241 396.38 L 613.14 407.46 M 593.549 0 L 647.241 396.38 M 785.648 855.47 L 770.091 887.775 M 770.091 887.775 L 1130.48 1061.33 M 1130.48 1061.33 L 1146.04 1029.02 M 770.091 887.775 L 754.534 920.08 M 754.534 920.08 L 1114.92 1093.63 M 1114.92 1093.63 L 1130.48 1061.33 M 754.534 920.08 L 738.976 952.385 M 738.976 952.385 L 1099.36 1125.94 M 1099.36 1125.94 L 1114.92 1093.63 M 723.419 984.69 L 1083.81 1158.24 M 707.862 1016.99 L 1068.25 1190.55 M 692.305 1049.3 L 1052.69 1222.85 M 676.747 1081.6 L 1037.13 1255.16 M 661.19 1113.91 L 1021.58 1287.46 M 387.093 936.582 L 405.483 967.362 M 645.633 1146.21 L 1006.02 1319.77 M 374.494 903.012 L 387.093 936.582 M 630.076 1178.52 L 990.463 1352.07 M 614.518 1210.82 L 974.906 1384.38 M 598.961 1243.13 L 959.349 1416.68 M 583.404 1275.43 L 943.791 1448.99" />
</svg>
