<?xml version="1.0"?>
<svg width="1318" height="881" version="1.1" xmlns="http://www.w3.org/2000/svg" >
<defs>
<style type="text/css"><![CDATA[
.m {stroke:rgb(255,0,0);stroke-width:1.647500;}
.v {stroke:rgb(0,0,255);stroke-width:1.647500;}
.b {stroke:rgb(0,0,0);stroke-width:3.295000;fill:white}
.n {stroke:rgb(128,128,128);stroke-width:1.647500}
.t {stroke:rgb(0,128,0);stroke-width:1.647500;}
.c {stroke:rgb(128,128,128);stroke-width:1.647500;stroke-dasharray:13.180000, 13.180000;}
]]></style>
</defs>
<path fill="none" style="stroke:black;stroke-width:3.295000;" d=" M 1164.17 631.889 L 1199.99 630.281 M 1182.05 230.683 L 1146.23 232.292 M 1199.99 630.281 L 1235.81 628.672 M 1217.87 229.075 L 1182.05 230.683 M 1235.81 628.672 L 1271.63 627.064 M 1253.69 227.466 L 1217.87 229.075 M 1271.63 627.064 L 1307.45 625.455 M 1307.45 625.455 L 1253.69 227.466 M 35.8197 282.159 L 0 283.767 M 0 283.767 L 53.765 681.756 M 53.765 681.756 L 89.5846 680.147 M 71.6393 280.55 L 35.8197 282.159 M 89.5846 680.147 L 125.404 678.539 M 107.459 278.942 L 71.6393 280.55 M 125.404 678.539 L 161.224 676.93 M 143.278 277.333 L 107.459 278.942 M 161.224 676.93 L 197.043 675.322 M 179.098 275.724 L 143.278 277.333 M 483.6 662.453 L 519.42 660.844 M 501.475 261.247 L 465.655 262.855 M 519.42 660.844 L 555.239 659.236 M 537.294 259.638 L 501.475 261.247 M 555.239 659.236 L 591.059 657.627 M 573.114 258.03 L 537.294 259.638 M 591.059 657.627 L 626.879 656.018 M 608.933 256.421 L 573.114 258.03 M 626.879 656.018 L 662.698 654.41 M 644.753 254.812 L 608.933 256.421 M 662.698 654.41 L 698.518 652.801 M 680.573 253.204 L 644.753 254.812 M 698.518 652.801 L 734.338 651.193 M 716.392 251.595 L 680.573 253.204 M 734.338 651.193 L 770.157 649.584 M 752.212 249.987 L 716.392 251.595 M 770.157 649.584 L 805.977 647.975 M 788.032 248.378 L 752.212 249.987 M 1128.35 633.498 L 1164.17 631.889 M 1146.23 232.292 L 1110.41 233.901 M 1197.99 649.391 L 1163.88 638.311 M 1229.56 666.382 L 1197.99 649.391 M 1257.59 688.738 L 1229.56 666.382 M 1281.18 715.74 L 1257.59 688.738 M 1299.57 746.52 L 1281.18 715.74 M 1312.17 780.089 L 1299.57 746.52 M 1318.58 815.369 L 1312.17 780.089 M 1119.38 833.297 L 1318.58 851.224 M 1318.58 851.224 L 1318.58 815.369 M 223.889 873.512 L 232.863 673.713 M 197.043 675.322 L 223.889 873.512 M 259.71 871.903 L 268.683 672.104 M 232.863 673.713 L 259.71 871.903 M 295.528 870.294 L 304.502 670.496 M 268.683 672.104 L 295.528 870.294 M 331.349 868.686 L 340.322 668.887 M 304.502 670.496 L 331.349 868.686 M 367.168 867.077 L 376.141 667.279 M 340.322 668.887 L 367.168 867.077 M 402.987 865.469 L 411.961 665.67 M 376.141 667.279 L 402.987 865.469 M 438.807 863.86 L 447.781 664.061 M 411.961 665.67 L 438.807 863.86 M 474.628 862.251 L 483.6 662.453 M 447.781 664.061 L 474.628 862.251 M 632.823 846.165 L 636.037 881.876 M 636.037 881.876 L 832.823 846.165 M 636.037 810.453 L 632.823 846.165 M 645.576 775.89 L 636.037 810.453 M 661.133 743.585 L 645.576 775.89 M 682.209 714.577 L 661.133 743.585 M 708.125 689.799 L 682.209 714.577 M 738.05 670.046 L 708.125 689.799 M 771.02 655.954 L 738.05 670.046 M 805.977 647.975 L 771.02 655.954 M 832.823 846.165 L 841.796 646.367 M 868.644 844.557 L 877.616 644.758 M 841.796 646.367 L 868.644 844.557 M 904.462 842.948 L 913.436 643.15 M 877.616 644.758 L 904.462 842.948 M 940.282 841.339 L 949.255 641.541 M 913.436 643.15 L 940.282 841.339 M 976.101 839.731 L 985.075 639.932 M 949.255 641.541 L 976.101 839.731 M 1011.92 838.122 L 1020.89 638.324 M 985.075 639.932 L 1011.92 838.122 M 1047.74 836.514 L 1056.71 636.715 M 1020.89 638.324 L 1047.74 836.514 M 1083.56 834.905 L 1092.53 635.107 M 1056.71 636.715 L 1083.56 834.905 M 1092.53 635.107 L 1119.38 833.297 M 1163.88 638.311 L 1128.35 633.498 M 1145.36 225.922 L 1178.34 211.83 M 1178.34 211.83 L 1208.26 192.077 M 1208.26 192.077 L 1234.18 167.299 M 1234.18 167.299 L 1255.25 138.291 M 1255.25 138.291 L 1270.81 105.986 M 1270.81 105.986 L 1280.35 71.4228 M 1280.35 71.4228 L 1283.56 35.7114 M 1283.56 35.7114 L 1280.35 0 M 1280.35 0 L 1083.56 35.7106 M 214.918 274.116 L 188.071 75.9257 M 188.071 75.9257 L 179.098 275.724 M 250.737 272.507 L 223.892 74.3171 M 223.892 74.3171 L 214.918 274.116 M 286.557 270.899 L 259.71 72.7086 M 259.71 72.7086 L 250.737 272.507 M 322.376 269.29 L 295.53 71.0999 M 295.53 71.0999 L 286.557 270.899 M 358.196 267.681 L 331.35 69.4914 M 331.35 69.4914 L 322.376 269.29 M 394.016 266.073 L 367.169 67.8827 M 367.169 67.8827 L 358.196 267.681 M 429.835 264.464 L 402.989 66.2741 M 402.989 66.2741 L 394.016 266.073 M 465.655 262.855 L 438.809 64.6655 M 438.809 64.6655 L 429.835 264.464 M 597.81 30.6517 L 597.81 66.5073 M 797.005 48.5795 L 597.81 30.6517 M 597.81 66.5073 L 604.212 101.787 M 604.212 101.787 L 616.811 135.356 M 616.811 135.356 L 635.201 166.136 M 635.201 166.136 L 658.792 193.138 M 658.792 193.138 L 686.825 215.494 M 686.825 215.494 L 718.4 232.485 M 718.4 232.485 L 752.5 243.565 M 752.5 243.565 L 788.032 248.378 M 823.851 246.769 L 797.005 48.5795 M 859.671 245.161 L 832.825 46.9709 M 832.825 46.9709 L 823.851 246.769 M 895.491 243.552 L 868.644 45.3624 M 868.644 45.3624 L 859.671 245.161 M 931.31 241.944 L 904.464 43.7537 M 904.464 43.7537 L 895.491 243.552 M 967.13 240.335 L 940.283 42.1451 M 940.283 42.1451 L 931.31 241.944 M 1002.95 238.726 L 976.103 40.5365 M 976.103 40.5365 L 967.13 240.335 M 1038.77 237.118 L 1011.92 38.9279 M 1011.92 38.9279 L 1002.95 238.726 M 1074.59 235.509 L 1047.74 37.3192 M 1047.74 37.3192 L 1038.77 237.118 M 1083.56 35.7106 L 1074.59 235.509 M 1110.41 233.901 L 1145.36 225.922" />
<path fill="none" class="c" d=" M 788.032 248.378 L 805.977 647.975 M 805.977 647.975 L 841.796 646.367 M 823.851 246.769 L 788.032 248.378 M 841.796 646.367 L 823.851 246.769 M 841.796 646.367 L 877.616 644.758 M 859.671 245.161 L 823.851 246.769 M 877.616 644.758 L 859.671 245.161 M 877.616 644.758 L 913.436 643.15 M 895.491 243.552 L 859.671 245.161 M 913.436 643.15 L 895.491 243.552 M 913.436 643.15 L 949.255 641.541 M 931.31 241.944 L 895.491 243.552 M 949.255 641.541 L 931.31 241.944 M 949.255 641.541 L 985.075 639.932 M 967.13 240.335 L 931.31 241.944 M 985.075 639.932 L 967.13 240.335 M 985.075 639.932 L 1020.89 638.324 M 1002.95 238.726 L 967.13 240.335 M 1020.89 638.324 L 1002.95 238.726 M 1020.89 638.324 L 1056.71 636.715 M 1038.77 237.118 L 1002.95 238.726 M 1056.71 636.715 L 1038.77 237.118 M 1056.71 636.715 L 1092.53 635.107 M 1074.59 235.509 L 1038.77 237.118 M 1092.53 635.107 L 1074.59 235.509 M 1092.53 635.107 L 1128.35 633.498 M 1110.41 233.901 L 1074.59 235.509 M 1128.35 633.498 L 1110.41 233.901 M 1164.17 631.889 L 1146.23 232.292 M 1199.99 630.281 L 1182.05 230.683 M 1235.81 628.672 L 1217.87 229.075 M 1271.63 627.064 L 1253.69 227.466 M 752.212 249.987 L 770.157 649.584 M 716.392 251.595 L 734.338 651.193 M 680.573 253.204 L 698.518 652.801 M 644.753 254.812 L 662.698 654.41 M 608.933 256.421 L 626.879 656.018 M 573.114 258.03 L 591.059 657.627 M 537.294 259.638 L 555.239 659.236 M 501.475 261.247 L 519.42 660.844 M 465.655 262.855 L 483.6 662.453 M 465.655 262.855 L 429.835 264.464 M 429.835 264.464 L 447.781 664.061 M 447.781 664.061 L 483.6 662.453 M 429.835 264.464 L 394.016 266.073 M 394.016 266.073 L 411.961 665.67 M 411.961 665.67 L 447.781 664.061 M 394.016 266.073 L 358.196 267.681 M 358.196 267.681 L 376.141 667.279 M 376.141 667.279 L 411.961 665.67 M 358.196 267.681 L 322.376 269.29 M 322.376 269.29 L 340.322 668.887 M 340.322 668.887 L 376.141 667.279 M 322.376 269.29 L 286.557 270.899 M 286.557 270.899 L 304.502 670.496 M 304.502 670.496 L 340.322 668.887 M 286.557 270.899 L 250.737 272.507 M 250.737 272.507 L 268.683 672.104 M 268.683 672.104 L 304.502 670.496 M 250.737 272.507 L 214.918 274.116 M 214.918 274.116 L 232.863 673.713 M 232.863 673.713 L 268.683 672.104 M 214.918 274.116 L 179.098 275.724 M 179.098 275.724 L 197.043 675.322 M 197.043 675.322 L 232.863 673.713 M 143.278 277.333 L 161.224 676.93 M 107.459 278.942 L 125.404 678.539 M 71.6393 280.55 L 89.5846 680.147 M 35.8197 282.159 L 53.765 681.756" />
<line x1="782.073406" y1="382.113377" x2="811.934893" y2="514.240062" class="t" />
<line x1="826.865321" y1="713.502490" x2="811.934893" y2="514.240062" class="t" />
<line x1="817.893005" y1="380.504777" x2="811.934893" y2="514.240062" class="t" />
<line x1="802.962384" y1="181.242358" x2="817.893005" y2="380.504777" class="t" />
<line x1="847.754529" y1="512.631461" x2="817.893005" y2="380.504777" class="t" />
<line x1="862.685327" y1="711.893855" x2="847.754529" y2="512.631461" class="t" />
<line x1="853.712677" y1="378.896173" x2="847.754529" y2="512.631461" class="t" />
<line x1="838.782391" y1="179.633755" x2="853.712677" y2="378.896173" class="t" />
<line x1="883.574229" y1="511.022856" x2="853.712677" y2="378.896173" class="t" />
<line x1="898.504699" y1="710.285249" x2="883.574229" y2="511.022856" class="t" />
<line x1="889.532369" y1="377.287569" x2="883.574229" y2="511.022856" class="t" />
<line x1="874.601765" y1="178.025182" x2="889.532369" y2="377.287569" class="t" />
<line x1="919.393883" y1="509.414254" x2="889.532369" y2="377.287569" class="t" />
<line x1="934.324385" y1="708.676654" x2="919.393883" y2="509.414254" class="t" />
<line x1="925.351993" y1="375.678968" x2="919.393883" y2="509.414254" class="t" />
<line x1="910.421450" y1="176.416569" x2="925.351993" y2="375.678968" class="t" />
<line x1="955.213419" y1="507.805656" x2="925.351993" y2="375.678968" class="t" />
<line x1="970.143882" y1="707.068066" x2="955.213419" y2="507.805656" class="t" />
<line x1="961.171472" y1="374.070374" x2="955.213419" y2="507.805656" class="t" />
<line x1="946.240947" y1="174.807967" x2="961.171472" y2="374.070374" class="t" />
<line x1="991.032963" y1="506.197059" x2="961.171472" y2="374.070374" class="t" />
<line x1="1005.963443" y1="705.459472" x2="991.032963" y2="506.197059" class="t" />
<line x1="996.991139" y1="372.461771" x2="991.032963" y2="506.197059" class="t" />
<line x1="982.060507" y1="173.199364" x2="996.991139" y2="372.461771" class="t" />
<line x1="1026.852668" y1="504.588454" x2="996.991139" y2="372.461771" class="t" />
<line x1="1041.783127" y1="703.850884" x2="1026.852668" y2="504.588454" class="t" />
<line x1="1032.810758" y1="370.853170" x2="1026.852668" y2="504.588454" class="t" />
<line x1="1017.880189" y1="171.590745" x2="1032.810758" y2="370.853170" class="t" />
<line x1="1062.672241" y1="502.979856" x2="1032.810758" y2="370.853170" class="t" />
<line x1="1077.602685" y1="702.242297" x2="1062.672241" y2="502.979856" class="t" />
<line x1="1068.630370" y1="369.244569" x2="1062.672241" y2="502.979856" class="t" />
<line x1="1053.699746" y1="169.982136" x2="1068.630370" y2="369.244569" class="t" />
<line x1="1098.491886" y1="501.371253" x2="1068.630370" y2="369.244569" class="t" />
<line x1="1113.422574" y1="700.633678" x2="1098.491886" y2="501.371253" class="t" />
<line x1="1104.450010" y1="367.635967" x2="1098.491886" y2="501.371253" class="t" />
<line x1="1089.519636" y1="168.373528" x2="1104.450010" y2="367.635967" class="t" />
<line x1="1134.311528" y1="499.762652" x2="1104.450010" y2="367.635967" class="t" />
<line x1="1140.269658" y1="366.027365" x2="1134.311528" y2="499.762652" class="t" />
<line x1="803.273203" y1="716.698189" x2="826.865321" y2="713.502490" class="t" />
<line x1="1137.206200" y1="701.701853" x2="1113.422574" y2="700.633678" class="t" />
<line x1="1160.416892" y1="706.999582" x2="1137.206200" y2="701.701853" class="t" />
<line x1="779.178784" y1="180.174224" x2="802.962384" y2="181.242358" class="t" />
<line x1="1113.111776" y1="165.177785" x2="1089.519636" y2="168.373528" class="t" />
<line x1="1135.754169" y1="157.820868" x2="1113.111776" y2="165.177785" class="t" />
<line x1="1170.131180" y1="498.154049" x2="1140.269658" y2="366.027365" class="t" />
<line x1="776.115295" y1="515.848662" x2="782.073406" y2="382.113377" class="t" />
<line x1="1182.308609" y1="716.356558" x2="1160.416892" y2="706.999582" class="t" />
<line x1="1202.177733" y1="729.472042" x2="1182.308609" y2="716.356558" class="t" />
<line x1="1219.385731" y1="745.924564" x2="1202.177733" y2="729.472042" class="t" />
<line x1="1233.379504" y1="765.185310" x2="1219.385731" y2="745.924564" class="t" />
<line x1="1243.709243" y1="786.635143" x2="1233.379504" y2="765.185310" class="t" />
<line x1="1250.042939" y1="809.584740" x2="1243.709243" y2="786.635143" class="t" />
<line x1="1252.177080" y1="833.296496" x2="1250.042939" y2="809.584740" class="t" />
<line x1="780.630830" y1="724.055042" x2="803.273203" y2="716.698189" class="t" />
<line x1="1156.719041" y1="146.539273" x2="1135.754169" y2="157.820868" class="t" />
<line x1="1175.332565" y1="131.695596" x2="1156.719041" y2="146.539273" class="t" />
<line x1="1190.996556" y1="113.766846" x2="1175.332565" y2="131.695596" class="t" />
<line x1="1203.207543" y1="93.329287" x2="1190.996556" y2="113.766846" class="t" />
<line x1="1211.573023" y1="71.039882" x2="1203.207543" y2="93.329287" class="t" />
<line x1="1215.824114" y1="47.614939" x2="1211.573023" y2="71.039882" class="t" />
<line x1="1215.824238" y1="23.807338" x2="1215.824114" y2="47.614939" class="t" />
<line x1="755.968117" y1="174.876558" x2="779.178784" y2="180.174224" class="t" />
<line x1="1176.089309" y1="364.418763" x2="1170.131180" y2="498.154049" class="t" />
<line x1="1205.950792" y1="496.545449" x2="1176.089309" y2="364.418763" class="t" />
<line x1="1211.908882" y1="362.810164" x2="1205.950792" y2="496.545449" class="t" />
<line x1="1241.770318" y1="494.936852" x2="1211.908882" y2="362.810164" class="t" />
<line x1="1247.728400" y1="361.201568" x2="1241.770318" y2="494.936852" class="t" />
<line x1="1277.589893" y1="493.328253" x2="1247.728400" y2="361.201568" class="t" />
<line x1="746.253810" y1="383.721976" x2="776.115295" y2="515.848662" class="t" />
<line x1="759.665944" y1="735.336663" x2="780.630830" y2="724.055042" class="t" />
<line x1="734.076384" y1="165.519558" x2="755.968117" y2="174.876558" class="t" />
<line x1="740.295699" y1="517.457262" x2="746.253810" y2="383.721976" class="t" />
<line x1="741.052415" y1="750.180390" x2="759.665944" y2="735.336663" class="t" />
<line x1="714.207251" y1="152.404024" x2="734.076384" y2="165.519558" class="t" />
<line x1="710.434188" y1="385.330577" x2="740.295699" y2="517.457262" class="t" />
<line x1="725.388423" y1="768.109151" x2="741.052415" y2="750.180390" class="t" />
<line x1="696.999251" y1="135.951491" x2="714.207251" y2="152.404024" class="t" />
<line x1="704.476050" y1="519.065864" x2="710.434188" y2="385.330577" class="t" />
<line x1="713.177409" y1="788.546700" x2="725.388423" y2="768.109151" class="t" />
<line x1="683.005451" y1="116.690758" x2="696.999251" y2="135.951491" class="t" />
<line x1="674.614580" y1="386.939178" x2="704.476050" y2="519.065864" class="t" />
<line x1="704.811936" y1="810.836138" x2="713.177409" y2="788.546700" class="t" />
<line x1="672.675717" y1="95.240891" x2="683.005451" y2="116.690758" class="t" />
<line x1="668.656512" y1="520.674461" x2="674.614580" y2="386.939178" class="t" />
<line x1="700.560881" y1="834.261147" x2="704.811936" y2="810.836138" class="t" />
<line x1="666.342051" y1="72.291224" x2="672.675717" y2="95.240891" class="t" />
<line x1="638.795012" y1="388.547776" x2="668.656512" y2="520.674461" class="t" />
<line x1="700.560829" y1="858.068720" x2="700.560881" y2="834.261147" class="t" />
<line x1="664.207984" y1="48.579491" x2="666.342051" y2="72.291224" class="t" />
<line x1="632.836844" y1="522.283064" x2="638.795012" y2="388.547776" class="t" />
<line x1="602.975319" y1="390.156380" x2="632.836844" y2="522.283064" class="t" />
<line x1="597.017224" y1="523.891665" x2="602.975319" y2="390.156380" class="t" />
<line x1="567.155740" y1="391.764980" x2="597.017224" y2="523.891665" class="t" />
<line x1="561.197614" y1="525.500266" x2="567.155740" y2="391.764980" class="t" />
<line x1="531.336079" y1="393.373582" x2="561.197614" y2="525.500266" class="t" />
<line x1="525.377935" y1="527.108869" x2="531.336079" y2="393.373582" class="t" />
<line x1="495.516448" y1="394.982184" x2="525.377935" y2="527.108869" class="t" />
<line x1="489.558370" y1="528.717468" x2="495.516448" y2="394.982184" class="t" />
<line x1="459.696883" y1="396.590782" x2="489.558370" y2="528.717468" class="t" />
<line x1="453.738739" y1="530.326069" x2="459.696883" y2="396.590782" class="t" />
<line x1="444.766527" y1="197.328362" x2="459.696883" y2="396.590782" class="t" />
<line x1="423.877204" y1="398.199386" x2="453.738739" y2="530.326069" class="t" />
<line x1="468.669463" y1="729.588472" x2="453.738739" y2="530.326069" class="t" />
<line x1="417.919078" y1="531.934672" x2="423.877204" y2="398.199386" class="t" />
<line x1="408.946693" y1="198.936954" x2="423.877204" y2="398.199386" class="t" />
<line x1="388.057594" y1="399.807986" x2="417.919078" y2="531.934672" class="t" />
<line x1="432.849631" y1="731.197102" x2="417.919078" y2="531.934672" class="t" />
<line x1="382.099499" y1="533.543271" x2="388.057594" y2="399.807986" class="t" />
<line x1="373.126938" y1="200.545570" x2="388.057594" y2="399.807986" class="t" />
<line x1="352.237974" y1="401.416587" x2="382.099499" y2="533.543271" class="t" />
<line x1="397.029875" y1="732.805700" x2="382.099499" y2="533.543271" class="t" />
<line x1="346.279806" y1="535.151875" x2="352.237974" y2="401.416587" class="t" />
<line x1="337.307346" y1="202.154192" x2="352.237974" y2="401.416587" class="t" />
<line x1="316.418306" y1="403.025190" x2="346.279806" y2="535.151875" class="t" />
<line x1="361.210281" y1="734.414277" x2="346.279806" y2="535.151875" class="t" />
<line x1="310.460238" y1="536.760474" x2="316.418306" y2="403.025190" class="t" />
<line x1="301.487860" y1="203.762785" x2="316.418306" y2="403.025190" class="t" />
<line x1="280.598800" y1="404.633786" x2="310.460238" y2="536.760474" class="t" />
<line x1="325.390795" y1="736.022874" x2="310.460238" y2="536.760474" class="t" />
<line x1="274.640694" y1="538.369071" x2="280.598800" y2="404.633786" class="t" />
<line x1="265.668086" y1="205.371407" x2="280.598800" y2="404.633786" class="t" />
<line x1="244.779193" y1="406.242386" x2="274.640694" y2="538.369071" class="t" />
<line x1="289.571020" y1="737.631468" x2="274.640694" y2="538.369071" class="t" />
<line x1="238.821062" y1="539.977673" x2="244.779193" y2="406.242386" class="t" />
<line x1="229.848966" y1="206.979976" x2="244.779193" y2="406.242386" class="t" />
<line x1="208.959556" y1="407.850988" x2="238.821062" y2="539.977673" class="t" />
<line x1="253.751901" y1="739.240055" x2="238.821062" y2="539.977673" class="t" />
<line x1="203.001445" y1="541.586273" x2="208.959556" y2="407.850988" class="t" />
<line x1="194.028973" y1="208.588570" x2="208.959556" y2="407.850988" class="t" />
<line x1="173.139955" y1="409.459588" x2="203.001445" y2="541.586273" class="t" />
<line x1="217.931910" y1="740.848696" x2="203.001445" y2="541.586273" class="t" />
<line x1="167.181840" y1="543.194873" x2="173.139955" y2="409.459588" class="t" />
<line x1="137.320328" y1="411.068189" x2="167.181840" y2="543.194873" class="t" />
<line x1="131.362194" y1="544.803476" x2="137.320328" y2="411.068189" class="t" />
<line x1="101.500719" y1="412.676789" x2="131.362194" y2="544.803476" class="t" />
<line x1="95.542640" y1="546.412074" x2="101.500719" y2="412.676789" class="t" />
<line x1="65.681187" y1="414.285386" x2="95.542640" y2="546.412074" class="t" />
<line x1="59.723077" y1="548.020672" x2="65.681187" y2="414.285386" class="t" />
<line x1="29.861557" y1="415.893988" x2="59.723077" y2="548.020672" class="t" />
</svg>
