<?xml version="1.0"?>
<svg width="1085" height="1149" version="1.1" xmlns="http://www.w3.org/2000/svg" >
<defs>
<style type="text/css"><![CDATA[
.m {stroke:rgb(255,0,0);stroke-width:1.436250;}
.v {stroke:rgb(0,0,255);stroke-width:1.436250;}
.b {stroke:rgb(0,0,0);stroke-width:2.872500;fill:white}
.n {stroke:rgb(128,128,128);stroke-width:1.436250}
.t {stroke:rgb(0,128,0);stroke-width:1.436250;}
.c {stroke:rgb(128,128,128);stroke-width:1.436250;stroke-dasharray:10.850000, 10.850000;}
]]></style>
</defs>
<line x1="800.877641" y1="514.343900" x2="768.475636" y2="585.334966" class="m" style="stroke-width:2.273166;" />
<line x1="768.475636" y1="585.334966" x2="1039.524809" y2="666.158028" class="m" style="stroke-width:0.644997;" />
<line x1="1039.524809" y1="666.158028" x2="800.877641" y2="514.343900" class="m" style="stroke-width:0.644995;" />
<line x1="768.475636" y1="585.334966" x2="717.907548" y2="644.770032" class="m" style="stroke-width:2.273166;" />
<line x1="717.907548" y1="644.770032" x2="956.554631" y2="796.584375" class="m" style="stroke-width:0.644997;" />
<line x1="956.554631" y1="796.584375" x2="768.475636" y2="585.334966" class="m" style="stroke-width:0.644997;" />
<line x1="717.907548" y1="644.770032" x2="653.022748" y2="688.124632" class="m" style="stroke-width:2.273166;" />
<line x1="653.022748" y1="688.124632" x2="841.101678" y2="899.374100" class="m" style="stroke-width:0.644997;" />
<line x1="841.101678" y1="899.374100" x2="717.907548" y2="644.770032" class="m" style="stroke-width:0.644997;" />
<line x1="653.022748" y1="688.124632" x2="602.454806" y2="747.559508" class="m" style="stroke-width:2.273166;" />
<line x1="602.454806" y1="747.559508" x2="841.101678" y2="899.374100" class="m" style="stroke-width:0.644994;" />
<line x1="602.454806" y1="747.559508" x2="570.052557" y2="818.550678" class="m" style="stroke-width:2.273166;" />
<line x1="570.052557" y1="818.550678" x2="841.101678" y2="899.374100" class="m" style="stroke-width:0.644999;" />
<line x1="570.052557" y1="818.550678" x2="558.282863" y2="895.694096" class="m" style="stroke-width:2.273166;" />
<line x1="558.282863" y1="895.694096" x2="841.101678" y2="899.374100" class="m" style="stroke-width:0.644996;" />
<line x1="558.282863" y1="895.694096" x2="568.041448" y2="973.117792" class="m" style="stroke-width:2.273166;" />
<line x1="568.041448" y1="973.117792" x2="841.101678" y2="899.374100" class="m" style="stroke-width:0.644997;" />
<line x1="568.041448" y1="973.117792" x2="598.585478" y2="1044.927844" class="m" style="stroke-width:2.273166;" />
<line x1="598.585478" y1="1044.927844" x2="841.101678" y2="899.374100" class="m" style="stroke-width:0.644995;" />
<line x1="598.585478" y1="1044.927844" x2="647.589840" y2="1105.658345" class="m" style="stroke-width:2.273166;" />
<line x1="647.589840" y1="1105.658345" x2="841.101678" y2="899.374100" class="m" style="stroke-width:0.644997;" />
<line x1="647.589840" y1="1105.658345" x2="711.324612" y2="1150.686530" class="m" style="stroke-width:2.273166;" />
<line x1="711.324612" y1="1150.686530" x2="841.101678" y2="899.374100" class="m" style="stroke-width:0.644996;" />
<line x1="207.651581" y1="443.377391" x2="252.226542" y2="379.325025" class="m" style="stroke-width:2.273166;" />
<line x1="252.226542" y1="379.325025" x2="0.000000" y2="251.333527" class="m" style="stroke-width:0.644999;" />
<line x1="0.000000" y1="251.333527" x2="207.651581" y2="443.377391" class="m" style="stroke-width:0.644996;" />
<line x1="252.226542" y1="379.325025" x2="277.601824" y2="305.529721" class="m" style="stroke-width:2.273166;" />
<line x1="277.601824" y1="305.529721" x2="0.000000" y2="251.333527" class="m" style="stroke-width:0.644996;" />
<line x1="277.601824" y1="305.529721" x2="322.176742" y2="241.477127" class="m" style="stroke-width:2.273165;" />
<line x1="322.176742" y1="241.477127" x2="69.950145" y2="113.486027" class="m" style="stroke-width:0.644995;" />
<line x1="69.950145" y1="113.486027" x2="277.601824" y2="305.529721" class="m" style="stroke-width:0.644996;" />
<line x1="322.176742" y1="241.477127" x2="382.557952" y2="192.043083" class="m" style="stroke-width:2.273166;" />
<line x1="382.557952" y1="192.043083" x2="174.905648" y2="0.000000" class="m" style="stroke-width:0.644998;" />
<line x1="174.905648" y1="0.000000" x2="322.176742" y2="241.477127" class="m" style="stroke-width:0.644995;" />
<line x1="802.888810" y1="359.776868" x2="812.647392" y2="437.200564" class="m" style="stroke-width:2.273166;" />
<line x1="812.647392" y1="437.200564" x2="1085.707626" y2="363.456887" class="m" style="stroke-width:0.644997;" />
<line x1="1085.707626" y1="363.456887" x2="802.888810" y2="359.776868" class="m" style="stroke-width:0.644998;" />
<line x1="1083.696410" y1="518.024145" x2="812.647392" y2="437.200564" class="m" style="stroke-width:0.644997;" />
<line x1="812.647392" y1="437.200564" x2="800.877641" y2="514.343900" class="m" style="stroke-width:2.273166;" />
<line x1="800.877641" y1="514.343900" x2="1083.696410" y2="518.024145" class="m" style="stroke-width:0.644995;" />
<line x1="529.828582" y1="433.520589" x2="768.475636" y2="585.334966" class="m" style="stroke-width:0.644997;" />
<line x1="800.877641" y1="514.343900" x2="529.828582" y2="433.520589" class="m" style="stroke-width:0.644995;" />
<line x1="529.828582" y1="433.520589" x2="717.907548" y2="644.770032" class="m" style="stroke-width:0.644997;" />
<line x1="529.828582" y1="433.520589" x2="653.022748" y2="688.124632" class="m" style="stroke-width:0.644997;" />
<line x1="529.828582" y1="433.520589" x2="578.760550" y2="712.098518" class="m" style="stroke-width:0.644994;" />
<line x1="578.760550" y1="712.098518" x2="653.022748" y2="688.124632" class="m" style="stroke-width:2.273166;" />
<line x1="529.828582" y1="433.520589" x2="500.773455" y2="714.867087" class="m" style="stroke-width:0.644999;" />
<line x1="500.773455" y1="714.867087" x2="578.760550" y2="712.098518" class="m" style="stroke-width:2.273166;" />
<line x1="529.828582" y1="433.520589" x2="424.998178" y2="696.219297" class="m" style="stroke-width:0.644996;" />
<line x1="424.998178" y1="696.219297" x2="500.773455" y2="714.867087" class="m" style="stroke-width:2.273166;" />
<line x1="529.828582" y1="433.520589" x2="357.202490" y2="657.574721" class="m" style="stroke-width:0.644997;" />
<line x1="357.202490" y1="657.574721" x2="424.998178" y2="696.219297" class="m" style="stroke-width:2.273166;" />
<line x1="529.828582" y1="433.520589" x2="302.547391" y2="601.875157" class="m" style="stroke-width:0.644995;" />
<line x1="302.547391" y1="601.875157" x2="357.202490" y2="657.574721" class="m" style="stroke-width:2.273166;" />
<line x1="529.828582" y1="433.520589" x2="265.192936" y2="533.360443" class="m" style="stroke-width:0.644997;" />
<line x1="265.192936" y1="533.360443" x2="302.547391" y2="601.875157" class="m" style="stroke-width:2.273166;" />
<line x1="529.828582" y1="433.520589" x2="247.982619" y2="457.245637" class="m" style="stroke-width:0.644996;" />
<line x1="247.982619" y1="457.245637" x2="265.192936" y2="533.360443" class="m" style="stroke-width:2.273166;" />
<line x1="529.828582" y1="433.520589" x2="252.226542" y2="379.325025" class="m" style="stroke-width:0.644999;" />
<line x1="252.226542" y1="379.325025" x2="247.982619" y2="457.245637" class="m" style="stroke-width:2.273166;" />
<line x1="529.828582" y1="433.520589" x2="277.601824" y2="305.529721" class="m" style="stroke-width:0.644996;" />
<line x1="529.828582" y1="433.520589" x2="322.176742" y2="241.477127" class="m" style="stroke-width:0.644995;" />
<line x1="529.828582" y1="433.520589" x2="382.557952" y2="192.043083" class="m" style="stroke-width:0.644998;" />
<line x1="529.828582" y1="433.520589" x2="812.647392" y2="437.200564" class="m" style="stroke-width:0.644997;" />
<line x1="802.888810" y1="359.776868" x2="529.828582" y2="433.520589" class="m" style="stroke-width:0.644998;" />
<text x="899.841186" y="624.506331" transform="rotate(16.603842 899.841186 624.506331)" fill="darkgreen" font-weight="bold" font-size="21.700000">1</text>
<text x="865.401058" y="694.201127" transform="rotate(-131.679217 865.401058 694.201127)" fill="darkgreen" font-weight="bold" font-size="21.700000">1</text>
<text x="937.947393" y="516.127552" transform="rotate(0.745533 937.947393 516.127552)" fill="darkgreen" font-weight="bold" font-size="21.700000">2</text>
<text x="923.863079" y="592.580433" transform="rotate(-147.537729 923.863079 592.580433)" fill="darkgreen" font-weight="bold" font-size="21.700000">2</text>
<text x="833.569238" y="718.347732" transform="rotate(32.462307 833.569238 718.347732)" fill="darkgreen" font-weight="bold" font-size="21.700000">4</text>
<text x="781.394931" y="775.978765" transform="rotate(-115.820733 781.394931 775.978765)" fill="darkgreen" font-weight="bold" font-size="21.700000">4</text>
<text x="630.551130" y="714.536580" transform="rotate(130.391549 630.551130 714.536580)" fill="darkgreen" font-weight="bold" font-size="21.700000">7</text>
<text x="611.761532" y="701.444891" transform="rotate(-17.891510 611.761532 701.444891)" fill="darkgreen" font-weight="bold" font-size="21.700000">7</text>
<text x="588.055739" y="779.106905" transform="rotate(114.533205 588.055739 779.106905)" fill="darkgreen" font-weight="bold" font-size="21.700000">9</text>
<text x="535.429735" y="713.636777" transform="rotate(-2.033166 535.429735 713.636777)" fill="darkgreen" font-weight="bold" font-size="21.700000">9</text>
<text x="565.476859" y="848.541680" transform="rotate(98.674659 565.476859 848.541680)" fill="darkgreen" font-weight="bold" font-size="21.700000">11</text>
<text x="454.457289" y="703.468988" transform="rotate(13.825380 454.457289 703.468988)" fill="darkgreen" font-weight="bold" font-size="21.700000">11</text>
<text x="562.076705" y="925.794080" transform="rotate(82.816241 562.076705 925.794080)" fill="darkgreen" font-weight="bold" font-size="21.700000">13</text>
<text x="383.559397" y="672.598560" transform="rotate(29.683798 383.559397 672.598560)" fill="darkgreen" font-weight="bold" font-size="21.700000">13</text>
<text x="579.916030" y="1001.035337" transform="rotate(66.957775 579.916030 1001.035337)" fill="darkgreen" font-weight="bold" font-size="21.700000">15</text>
<text x="323.795617" y="623.529438" transform="rotate(45.542264 323.795617 623.529438)" fill="darkgreen" font-weight="bold" font-size="21.700000">15</text>
<text x="617.636870" y="1068.538000" transform="rotate(51.099411 617.636870 1068.538000)" fill="darkgreen" font-weight="bold" font-size="21.700000">17</text>
<text x="279.715202" y="559.996862" transform="rotate(61.400628 279.715202 559.996862)" fill="darkgreen" font-weight="bold" font-size="21.700000">17</text>
<text x="672.367986" y="1123.163937" transform="rotate(35.240945 672.367986 1123.163937)" fill="darkgreen" font-weight="bold" font-size="21.700000">19</text>
<text x="254.673468" y="486.836765" transform="rotate(77.259094 254.673468 486.836765)" fill="darkgreen" font-weight="bold" font-size="21.700000">19</text>
<text x="772.230491" y="1032.742699" transform="rotate(-62.688287 772.230491 1032.742699)" fill="darkgreen" font-weight="bold" font-size="21.700000">20</text>
<text x="97.453290" y="341.461935" transform="rotate(42.763789 97.453290 341.461935)" fill="darkgreen" font-weight="bold" font-size="21.700000">20</text>
<text x="224.980963" y="418.475790" transform="rotate(-55.165386 224.980963 418.475790)" fill="darkgreen" font-weight="bold" font-size="21.700000">21</text>
<text x="250.576634" y="409.618177" transform="rotate(93.117512 250.576634 409.618177)" fill="darkgreen" font-weight="bold" font-size="21.700000">21</text>
<text x="147.320077" y="280.094820" transform="rotate(-168.953089 147.320077 280.094820)" fill="darkgreen" font-weight="bold" font-size="21.700000">24</text>
<text x="167.403479" y="203.614354" transform="rotate(42.763751 167.403479 203.614354)" fill="darkgreen" font-weight="bold" font-size="21.700000">24</text>
<text x="203.803884" y="181.409424" transform="rotate(-153.094709 203.803884 181.409424)" fill="darkgreen" font-weight="bold" font-size="21.700000">26</text>
<text x="244.021675" y="113.328008" transform="rotate(58.621986 244.021675 113.328008)" fill="darkgreen" font-weight="bold" font-size="21.700000">26</text>
<text x="285.104323" y="101.915042" transform="rotate(-137.236416 285.104323 101.915042)" fill="darkgreen" font-weight="bold" font-size="21.700000">28</text>
<text x="952.977483" y="361.729812" transform="rotate(-179.254504 952.977483 361.729812)" fill="darkgreen" font-weight="bold" font-size="21.700000">28</text>
<text x="940.797719" y="402.591803" transform="rotate(-15.112980 940.797719 402.591803)" fill="darkgreen" font-weight="bold" font-size="21.700000">30</text>
<text x="956.489969" y="480.092704" transform="rotate(-163.396039 956.489969 480.092704)" fill="darkgreen" font-weight="bold" font-size="21.700000">30</text>
<text x="674.738486" y="394.385650" transform="rotate(164.887001 674.738486 394.385650)" fill="darkgreen" font-weight="bold" font-size="21.700000">46</text>
<text x="460.712771" y="320.192401" transform="rotate(-121.377884 460.712771 320.192401)" fill="darkgreen" font-weight="bold" font-size="21.700000">46</text>
</svg>
