<?xml version="1.0"?>
<svg width="793" height="1034" version="1.1" xmlns="http://www.w3.org/2000/svg" >
<defs>
<style type="text/css"><![CDATA[
.m {stroke:rgb(255,0,0);stroke-width:1.292500;}
.v {stroke:rgb(0,0,255);stroke-width:1.292500;}
.b {stroke:rgb(0,0,0);stroke-width:2.585000;fill:white}
.n {stroke:rgb(128,128,128);stroke-width:1.292500}
.t {stroke:rgb(0,128,0);stroke-width:1.292500;}
.c {stroke:rgb(128,128,128);stroke-width:1.292500;stroke-dasharray:7.930000, 7.930000;}
]]></style>
</defs>
<path fill="none" style="stroke:black;stroke-width:2.585000;" d=" M 501.76 587.196 L 784.128 603.579 M 784.128 603.579 L 516.984 510.659 M 466.201 656.66 L 733.345 749.58 M 733.345 749.58 L 501.76 587.196 M 413.013 713.762 L 644.598 876.147 M 644.598 876.147 L 466.201 656.66 M 346.246 754.158 L 524.643 973.645 M 524.643 973.645 L 413.013 713.762 M 382.612 1034.65 L 346.246 754.158 M 270.981 774.771 L 204.214 815.166 M 204.214 815.166 L 151.027 872.269 M 151.027 872.269 L 115.468 941.733 M 115.468 941.733 L 100.244 1018.27 M 100.244 1018.27 L 382.612 1034.65 M 454.428 0 L 418.868 69.4637 M 686.012 162.384 L 454.428 0 M 418.868 69.4637 L 403.644 146 M 403.644 146 L 409.915 223.784 M 409.915 223.784 L 437.201 296.894 M 483.428 359.765 L 686.012 162.384 M 510.714 432.876 L 759.525 298.366 M 759.525 298.366 L 483.428 359.765 M 793.082 449.26 L 510.714 432.876 M 516.984 510.659 L 793.082 449.26 M 192.949 774.032 L 270.981 774.771 M 118.088 751.998 L 192.949 774.032 M 52.0973 710.347 L 118.088 751.998 M 234.616 494.275 L 0 652.248 M 0 652.248 L 52.0973 710.347 M 225.584 211.577 L 148.677 224.805 M 148.677 224.805 L 234.616 494.275 M 303.179 219.868 L 225.584 211.577 M 375.554 249.048 L 303.179 219.868 M 437.201 296.894 L 375.554 249.048" />
<path fill="none" class="c" d=" M 501.76 587.196 L 516.984 510.659 M 234.616 494.275 L 501.76 587.196 M 516.984 510.659 L 234.616 494.275 M 466.201 656.66 L 501.76 587.196 M 234.616 494.275 L 466.201 656.66 M 413.013 713.762 L 466.201 656.66 M 234.616 494.275 L 413.013 713.762 M 346.246 754.158 L 413.013 713.762 M 234.616 494.275 L 346.246 754.158 M 270.981 774.771 L 346.246 754.158 M 234.616 494.275 L 270.981 774.771 M 234.616 494.275 L 192.949 774.032 M 234.616 494.275 L 118.088 751.998 M 234.616 494.275 L 52.0973 710.347 M 516.984 510.659 L 510.714 432.876 M 510.714 432.876 L 234.616 494.275 M 270.981 774.771 L 382.612 1034.65 M 204.214 815.166 L 382.612 1034.65 M 151.027 872.269 L 382.612 1034.65 M 115.468 941.733 L 382.612 1034.65 M 510.714 432.876 L 483.428 359.765 M 483.428 359.765 L 234.616 494.275 M 483.428 359.765 L 437.201 296.894 M 437.201 296.894 L 234.616 494.275 M 686.012 162.384 L 437.201 296.894 M 375.554 249.048 L 234.616 494.275 M 686.012 162.384 L 409.915 223.784 M 303.179 219.868 L 234.616 494.275 M 686.012 162.384 L 403.644 146 M 225.584 211.577 L 234.616 494.275 M 686.012 162.384 L 418.868 69.4637" />
</svg>
