<?xml version="1.0"?>
<svg width="1085" height="1149" version="1.1" xmlns="http://www.w3.org/2000/svg" >
<defs>
<style type="text/css"><![CDATA[
.m {stroke:rgb(255,0,0);stroke-width:1.436250;}
.v {stroke:rgb(0,0,255);stroke-width:1.436250;}
.b {stroke:rgb(0,0,0);stroke-width:2.872500;fill:white}
.n {stroke:rgb(128,128,128);stroke-width:1.436250}
.t {stroke:rgb(0,128,0);stroke-width:1.436250;}
.c {stroke:rgb(128,128,128);stroke-width:1.436250;stroke-dasharray:10.850000, 10.850000;}
]]></style>
</defs>
<path fill="none" style="stroke:black;stroke-width:2.872500;" d=" M 768.476 585.335 L 1039.52 666.158 M 1039.52 666.158 L 800.878 514.344 M 717.908 644.77 L 956.555 796.584 M 956.555 796.584 L 768.476 585.335 M 841.102 899.374 L 717.908 644.77 M 653.023 688.125 L 602.455 747.56 M 602.455 747.56 L 570.053 818.551 M 570.053 818.551 L 558.283 895.694 M 558.283 895.694 L 568.041 973.118 M 568.041 973.118 L 598.585 1044.93 M 598.585 1044.93 L 647.59 1105.66 M 647.59 1105.66 L 711.325 1150.69 M 711.325 1150.69 L 841.102 899.374 M 207.652 443.377 L 252.227 379.325 M 0 251.334 L 207.652 443.377 M 277.602 305.53 L 0 251.334 M 322.177 241.477 L 69.9501 113.486 M 69.9501 113.486 L 277.602 305.53 M 382.558 192.043 L 174.906 0 M 174.906 0 L 322.177 241.477 M 812.647 437.201 L 1085.71 363.457 M 1085.71 363.457 L 802.889 359.777 M 1083.7 518.024 L 812.647 437.201 M 800.878 514.344 L 1083.7 518.024 M 578.761 712.099 L 653.023 688.125 M 500.773 714.867 L 578.761 712.099 M 424.998 696.219 L 500.773 714.867 M 357.202 657.575 L 424.998 696.219 M 302.547 601.875 L 357.202 657.575 M 265.193 533.36 L 302.547 601.875 M 247.983 457.246 L 265.193 533.36 M 252.227 379.325 L 247.983 457.246 M 529.829 433.521 L 382.558 192.043 M 802.889 359.777 L 529.829 433.521" />
<path fill="none" class="c" d=" M 717.908 644.77 L 529.829 433.521 M 653.023 688.125 L 717.908 644.77 M 529.829 433.521 L 653.023 688.125 M 529.829 433.521 L 578.761 712.099 M 529.829 433.521 L 500.773 714.867 M 529.829 433.521 L 424.998 696.219 M 529.829 433.521 L 357.202 657.575 M 529.829 433.521 L 302.547 601.875 M 529.829 433.521 L 265.193 533.36 M 529.829 433.521 L 247.983 457.246 M 529.829 433.521 L 252.227 379.325 M 277.602 305.53 L 252.227 379.325 M 529.829 433.521 L 277.602 305.53 M 322.177 241.477 L 277.602 305.53 M 529.829 433.521 L 322.177 241.477 M 382.558 192.043 L 322.177 241.477 M 653.023 688.125 L 841.102 899.374 M 602.455 747.56 L 841.102 899.374 M 570.053 818.551 L 841.102 899.374 M 558.283 895.694 L 841.102 899.374 M 568.041 973.118 L 841.102 899.374 M 598.585 1044.93 L 841.102 899.374 M 647.59 1105.66 L 841.102 899.374 M 0 251.334 L 252.227 379.325 M 768.476 585.335 L 529.829 433.521 M 800.878 514.344 L 529.829 433.521 M 717.908 644.77 L 768.476 585.335 M 800.878 514.344 L 812.647 437.201 M 812.647 437.201 L 529.829 433.521 M 768.476 585.335 L 800.878 514.344 M 812.647 437.201 L 802.889 359.777" />
</svg>
