<?xml version="1.0"?>
<svg width="1026" height="1038" version="1.1" xmlns="http://www.w3.org/2000/svg" >
<defs>
<style type="text/css"><![CDATA[
.m {stroke:rgb(255,0,0);stroke-width:1.297500;}
.v {stroke:rgb(0,0,255);stroke-width:1.297500;}
.b {stroke:rgb(0,0,0);stroke-width:2.595000;fill:white}
.n {stroke:rgb(128,128,128);stroke-width:1.297500}
.t {stroke:rgb(0,128,0);stroke-width:1.297500;}
.c {stroke:rgb(128,128,128);stroke-width:1.297500;stroke-dasharray:10.260000, 10.260000;}
]]></style>
</defs>
<path fill="none" style="stroke:black;stroke-width:2.595000;" d=" M 506.665 766.522 L 545.786 650.957 M 545.786 650.957 L 512.524 768.343 M 664.56 623.056 L 582.512 532.757 M 424.617 676.222 L 305.843 704.123 M 304.59 698.116 L 424.617 676.222 M 463.738 560.657 L 304.59 698.116 M 582.512 532.757 L 668.996 618.817 M 377.255 474.597 L 260.033 508.434 M 260.033 508.434 L 463.738 560.657 M 713.346 830.742 L 631.299 740.442 M 631.299 740.442 L 717.782 826.502 M 717.782 826.502 L 664.56 623.056 M 387.89 794.422 L 354.629 911.808 M 354.629 911.808 L 506.665 766.522 M 348.769 909.987 L 387.89 794.422 M 305.843 704.123 L 348.769 909.987 M 258.48 502.498 L 377.255 474.597 M 668.996 618.817 L 869.818 681.216 M 869.818 681.216 L 787.77 590.916 M 821.031 473.53 L 702.257 501.431 M 702.257 501.431 L 819.478 467.594 M 414.952 352.972 L 496.999 443.271 M 496.999 443.271 L 410.516 357.211 M 512.524 768.343 L 555.451 974.207 M 555.451 974.207 L 594.572 858.642 M 171.997 416.438 L 54.7756 450.275 M 54.7756 450.275 L 258.48 502.498 M 594.572 858.642 L 561.311 976.028 M 787.77 590.916 L 874.254 676.976 M 53.2226 444.338 L 171.997 416.438 M 291.741 385.112 L 205.258 299.052 M 209.694 294.812 L 291.741 385.112 M 410.516 357.211 L 209.694 294.812 M 766.256 264.148 L 732.995 381.534 M 732.995 381.534 L 760.312 262.624 M 760.312 262.624 L 615.774 415.371 M 572.847 209.506 L 533.726 325.071 M 615.774 415.371 L 572.847 209.506 M 533.726 325.071 L 566.987 207.685 M 448.213 235.586 L 361.73 149.526 M 361.73 149.526 L 414.952 352.972 M 762.132 1038.43 L 680.085 948.128 M 561.311 976.028 L 762.132 1038.43 M 680.085 948.128 L 766.568 1034.19 M 766.568 1034.19 L 713.346 830.742 M 1026.29 531.69 L 907.515 559.59 M 874.254 676.976 L 1026.29 531.69 M 907.515 559.59 L 1024.74 525.753 M 1024.74 525.753 L 821.031 473.53 M 86.4837 326.952 L 0 240.892 M 0 240.892 L 53.2226 444.338 M 4.43637 236.653 L 86.4837 326.952 M 205.258 299.052 L 4.43637 236.653 M 366.166 145.287 L 448.213 235.586 M 819.478 467.594 L 971.514 322.307 M 971.514 322.307 L 852.74 350.208 M 852.74 350.208 L 969.961 316.371 M 969.961 316.371 L 766.256 264.148 M 484.94 117.386 L 518.201 0 M 518.201 0 L 366.166 145.287 M 566.987 207.685 L 524.061 1.82078 M 524.061 1.82078 L 484.94 117.386" />
<path fill="none" class="c" d=" M 463.738 560.657 L 582.512 532.757 M 582.512 532.757 L 615.774 415.371 M 615.774 415.371 L 463.738 560.657 M 615.774 415.371 L 496.999 443.271 M 496.999 443.271 L 463.738 560.657 M 615.774 415.371 L 414.952 352.972 M 410.516 357.211 L 463.738 560.657 M 615.774 415.371 L 533.726 325.071 M 533.726 325.071 L 414.952 352.972 M 566.987 207.685 L 414.952 352.972 M 448.213 235.586 L 414.952 352.972 M 566.987 207.685 L 448.213 235.586 M 566.987 207.685 L 366.166 145.287 M 484.94 117.386 L 366.166 145.287 M 566.987 207.685 L 484.94 117.386 M 463.738 560.657 L 664.56 623.056 M 668.996 618.817 L 615.774 415.371 M 668.996 618.817 L 702.257 501.431 M 702.257 501.431 L 615.774 415.371 M 377.255 474.597 L 463.738 560.657 M 410.516 357.211 L 377.255 474.597 M 668.996 618.817 L 821.031 473.53 M 819.478 467.594 L 615.774 415.371 M 668.996 618.817 L 787.77 590.916 M 787.77 590.916 L 821.031 473.53 M 819.478 467.594 L 732.995 381.534 M 732.995 381.534 L 615.774 415.371 M 819.478 467.594 L 766.256 264.148 M 819.478 467.594 L 852.74 350.208 M 852.74 350.208 L 766.256 264.148 M 463.738 560.657 L 545.786 650.957 M 463.738 560.657 L 506.665 766.522 M 545.786 650.957 L 664.56 623.056 M 424.617 676.222 L 506.665 766.522 M 463.738 560.657 L 424.617 676.222 M 512.524 768.343 L 664.56 623.056 M 305.843 704.123 L 506.665 766.522 M 512.524 768.343 L 631.299 740.442 M 631.299 740.442 L 664.56 623.056 M 387.89 794.422 L 506.665 766.522 M 305.843 704.123 L 387.89 794.422 M 512.524 768.343 L 713.346 830.742 M 410.516 357.211 L 258.48 502.498 M 512.524 768.343 L 594.572 858.642 M 594.572 858.642 L 713.346 830.742 M 291.741 385.112 L 258.48 502.498 M 410.516 357.211 L 291.741 385.112 M 561.311 976.028 L 713.346 830.742 M 874.254 676.976 L 821.031 473.53 M 205.258 299.052 L 258.48 502.498 M 561.311 976.028 L 680.085 948.128 M 680.085 948.128 L 713.346 830.742 M 874.254 676.976 L 907.515 559.59 M 907.515 559.59 L 821.031 473.53 M 171.997 416.438 L 258.48 502.498 M 205.258 299.052 L 171.997 416.438 M 205.258 299.052 L 53.2226 444.338 M 86.4837 326.952 L 53.2226 444.338 M 205.258 299.052 L 86.4837 326.952" />
</svg>
