<?xml version="1.0"?>
<svg width="773" height="1426" version="1.1" xmlns="http://www.w3.org/2000/svg" >
<defs>
<style type="text/css"><![CDATA[
.m {stroke:rgb(255,0,0);stroke-width:1.782500;}
.v {stroke:rgb(0,0,255);stroke-width:1.782500;}
.b {stroke:rgb(0,0,0);stroke-width:3.565000;fill:white}
.n {stroke:rgb(128,128,128);stroke-width:1.782500}
.t {stroke:rgb(0,128,0);stroke-width:1.782500;}
.c {stroke:rgb(128,128,128);stroke-width:1.782500;stroke-dasharray:7.730000, 7.730000;}
]]></style>
</defs>
<path fill="none" style="stroke:black;stroke-width:3.565000;" d=" M 150.592 781.464 L 269.174 752.756 M 269.174 752.756 L 152.186 787.39 M 152.186 787.39 L 356.241 838.226 M 356.241 838.226 L 388.703 720.617 M 183.054 663.854 L 95.9876 578.384 M 95.9876 578.384 L 150.592 781.464 M 100.395 574.115 L 183.054 663.854 M 362.195 839.71 L 211.151 986.027 M 388.703 720.617 L 362.195 839.71 M 211.151 986.027 L 52.9421 1124.56 M 412.393 1047.06 L 329.733 957.319 M 329.733 957.319 L 416.8 1042.79 M 479.183 805.076 L 505.691 685.983 M 505.691 685.983 L 418.625 600.513 M 418.625 600.513 L 301.636 635.147 M 172.817 1101.86 L 255.477 1191.59 M 250.86 1195.64 L 172.817 1101.86 M 218.977 545.407 L 251.439 427.798 M 257.311 429.579 L 218.977 545.407 M 416.8 1042.79 L 449.262 925.179 M 566.25 890.546 L 479.183 805.076 M 458.552 490.611 L 578.427 467.902 M 578.427 467.902 L 616.761 352.073 M 339.97 519.318 L 458.552 490.611 M 301.636 635.147 L 339.97 519.318 M 255.477 1191.59 L 293.811 1075.77 M 132.857 456.506 L 100.395 574.115 M 293.811 1075.77 L 261.349 1193.38 M 261.349 1193.38 L 412.393 1047.06 M 449.262 925.179 L 422.754 1044.27 M 422.754 1044.27 L 566.25 890.546 M 616.761 352.073 L 496.886 374.782 M 375.893 400.871 L 257.311 429.579 M 130.985 1218.35 L 92.6506 1334.17 M 86.8754 1332.1 L 130.985 1218.35 M 52.9421 1124.56 L 8.83265 1238.32 M 8.83265 1238.32 L 86.8754 1332.1 M 50.1975 366.766 L 132.857 456.506 M 773.677 207.537 L 739.744 0 M 615.468 346.074 L 773.677 207.537 M 496.886 374.782 L 615.468 346.074 M 414.227 285.043 L 375.893 400.871 M 251.439 427.798 L 289.773 311.969 M 289.773 311.969 L 207.113 222.23 M 212.526 1311.47 L 250.86 1195.64 M 574.769 130.408 L 695.634 113.755 M 695.634 113.755 L 575.759 136.464 M 575.759 136.464 L 653.802 230.246 M 653.802 230.246 L 571.143 140.506 M 532.809 256.335 L 414.227 285.043 M 207.113 222.23 L 168.779 338.059 M 739.744 0 L 618.878 16.6533 M 618.878 16.6533 L 574.769 130.408 M 290.569 1405.25 L 212.526 1311.47 M 168.779 338.059 L 201.241 220.449 M 571.143 140.506 L 532.809 256.335 M 118.582 130.71 L 0 159.417 M 201.241 220.449 L 118.582 130.71 M 170.694 1427.96 L 290.569 1405.25 M 92.6506 1334.17 L 170.694 1427.96 M 82.6595 249.157 L 50.1975 366.766 M 0 159.417 L 82.6595 249.157" />
<path fill="none" class="c" d=" M 150.592 781.464 L 301.636 635.147 M 183.054 663.854 L 150.592 781.464 M 301.636 635.147 L 183.054 663.854 M 301.636 635.147 L 100.395 574.115 M 218.977 545.407 L 100.395 574.115 M 301.636 635.147 L 218.977 545.407 M 251.439 427.798 L 100.395 574.115 M 301.636 635.147 L 257.311 429.579 M 339.97 519.318 L 257.311 429.579 M 251.439 427.798 L 132.857 456.506 M 251.439 427.798 L 50.1975 366.766 M 251.439 427.798 L 168.779 338.059 M 168.779 338.059 L 50.1975 366.766 M 251.439 427.798 L 207.113 222.23 M 201.241 220.449 L 50.1975 366.766 M 201.241 220.449 L 82.6595 249.157 M 201.241 220.449 L 0 159.417 M 269.174 752.756 L 301.636 635.147 M 269.174 752.756 L 356.241 838.226 M 356.241 838.226 L 301.636 635.147 M 388.703 720.617 L 301.636 635.147 M 388.703 720.617 L 505.691 685.983 M 505.691 685.983 L 301.636 635.147 M 458.552 490.611 L 257.311 429.579 M 458.552 490.611 L 375.893 400.871 M 458.552 490.611 L 414.227 285.043 M 362.195 839.71 L 505.691 685.983 M 362.195 839.71 L 479.183 805.076 M 362.195 839.71 L 566.25 890.546 M 362.195 839.71 L 449.262 925.179 M 449.262 925.179 L 566.25 890.546 M 458.552 490.611 L 496.886 374.782 M 496.886 374.782 L 414.227 285.043 M 362.195 839.71 L 416.8 1042.79 M 458.552 490.611 L 616.761 352.073 M 615.468 346.074 L 414.227 285.043 M 615.468 346.074 L 532.809 256.335 M 615.468 346.074 L 571.143 140.506 M 362.195 839.71 L 329.733 957.319 M 615.468 346.074 L 653.802 230.246 M 211.151 986.027 L 329.733 957.319 M 211.151 986.027 L 412.393 1047.06 M 211.151 986.027 L 293.811 1075.77 M 293.811 1075.77 L 412.393 1047.06 M 211.151 986.027 L 255.477 1191.59 M 773.677 207.537 L 653.802 230.246 M 773.677 207.537 L 575.759 136.464 M 211.151 986.027 L 172.817 1101.86 M 773.677 207.537 L 695.634 113.755 M 52.9421 1124.56 L 172.817 1101.86 M 52.9421 1124.56 L 250.86 1195.64 M 130.985 1218.35 L 250.86 1195.64 M 52.9421 1124.56 L 130.985 1218.35 M 92.6506 1334.17 L 250.86 1195.64 M 52.9421 1124.56 L 86.8754 1332.1 M 739.744 0 L 695.634 113.755 M 92.6506 1334.17 L 212.526 1311.47 M 739.744 0 L 574.769 130.408 M 92.6506 1334.17 L 290.569 1405.25" />
</svg>
