<?xml version="1.0"?>
<svg width="945" height="961" version="1.1" xmlns="http://www.w3.org/2000/svg" >
<defs>
<style type="text/css"><![CDATA[
.m {stroke:rgb(255,0,0);stroke-width:1.201250;}
.v {stroke:rgb(0,0,255);stroke-width:1.201250;}
.b {stroke:rgb(0,0,0);stroke-width:2.402500;fill:white}
.n {stroke:rgb(128,128,128);stroke-width:1.201250}
.t {stroke:rgb(0,128,0);stroke-width:1.201250;}
.c {stroke:rgb(128,128,128);stroke-width:1.201250;stroke-dasharray:9.450000, 9.450000;}
]]></style>
</defs>
<path fill="none" style="stroke:black;stroke-width:2.402500;" d=" M 366.195 646.483 L 419.952 536.957 M 419.952 536.957 L 371.769 649.047 M 296.532 546.318 L 175.145 558.602 M 174.681 552.484 L 296.532 546.318 M 350.29 436.793 L 174.681 552.484 M 525.435 314.983 L 471.677 424.509 M 471.677 424.509 L 519.86 312.419 M 275.68 340.258 L 155.064 358.629 M 155.064 358.629 L 350.29 436.793 M 562.819 736.928 L 493.156 636.763 M 493.156 636.763 L 567.767 733.299 M 567.767 733.299 L 541.339 524.673 M 244.807 658.767 L 196.624 770.857 M 196.624 770.857 L 366.195 646.483 M 191.049 768.292 L 244.807 658.767 M 154.292 352.541 L 275.68 340.258 M 541.339 524.673 L 727.729 622.048 M 727.729 622.048 L 663.191 518.508 M 716.948 408.983 L 595.097 415.148 M 595.097 415.148 L 716.484 402.864 M 328.811 224.538 L 398.473 324.703 M 398.473 324.703 L 323.862 228.168 M 371.769 649.047 L 387.674 858.737 M 387.674 858.737 L 441.431 749.212 M 175.145 558.602 L 121.387 668.128 M 441.431 749.212 L 393.249 861.302 M 663.191 518.508 L 732.853 618.673 M 121.387 668.128 L 0 680.412 M 127.865 143.916 L 79.682 256.006 M 79.682 256.006 L 154.292 352.541 M 202.475 240.451 L 127.865 143.916 M 132.813 140.287 L 202.475 240.451 M 323.862 228.168 L 132.813 140.287 M 514.636 849.018 L 562.819 736.928 M 700.58 193.174 L 646.822 302.699 M 646.822 302.699 L 695.005 190.609 M 695.005 190.609 L 525.435 314.983 M 503.955 102.729 L 450.198 212.254 M 519.86 312.419 L 503.955 102.729 M 450.198 212.254 L 498.381 100.165 M 0 680.412 L 69.6622 780.576 M 69.6622 780.576 L 191.049 768.292 M 376.993 112.448 L 302.383 15.9132 M 302.383 15.9132 L 328.811 224.538 M 584.298 949.182 L 514.636 849.018 M 732.853 618.673 L 854.704 612.508 M 854.704 612.508 L 908.462 502.982 M 908.462 502.982 L 786.611 509.147 M 786.611 509.147 L 907.998 496.863 M 907.998 496.863 L 716.948 408.983 M 393.249 861.302 L 462.911 961.466 M 462.911 961.466 L 584.298 949.182 M 891.629 281.055 L 945.387 171.529 M 945.387 171.529 L 875.725 71.3643 M 307.331 12.284 L 376.993 112.448 M 716.484 402.864 L 892.093 287.173 M 892.093 287.173 L 770.242 293.338 M 770.242 293.338 L 891.629 281.055 M 875.725 71.3643 L 821.967 180.89 M 498.381 100.165 L 428.719 0 M 428.719 0 L 307.331 12.284 M 821.967 180.89 L 700.58 193.174" />
<path fill="none" class="c" d=" M 350.29 436.793 L 541.339 524.673 M 541.339 524.673 L 471.677 424.509 M 471.677 424.509 L 350.29 436.793 M 541.339 524.673 L 525.435 314.983 M 519.86 312.419 L 350.29 436.793 M 541.339 524.673 L 595.097 415.148 M 595.097 415.148 L 525.435 314.983 M 519.86 312.419 L 398.473 324.703 M 398.473 324.703 L 350.29 436.793 M 541.339 524.673 L 716.948 408.983 M 716.484 402.864 L 525.435 314.983 M 519.86 312.419 L 328.811 224.538 M 323.862 228.168 L 350.29 436.793 M 541.339 524.673 L 663.191 518.508 M 663.191 518.508 L 716.948 408.983 M 716.484 402.864 L 646.822 302.699 M 646.822 302.699 L 525.435 314.983 M 519.86 312.419 L 450.198 212.254 M 450.198 212.254 L 328.811 224.538 M 716.484 402.864 L 700.58 193.174 M 498.381 100.165 L 328.811 224.538 M 716.484 402.864 L 770.242 293.338 M 770.242 293.338 L 700.58 193.174 M 376.993 112.448 L 328.811 224.538 M 498.381 100.165 L 376.993 112.448 M 498.381 100.165 L 307.331 12.284 M 891.629 281.055 L 700.58 193.174 M 891.629 281.055 L 821.967 180.89 M 350.29 436.793 L 419.952 536.957 M 350.29 436.793 L 366.195 646.483 M 419.952 536.957 L 541.339 524.673 M 296.532 546.318 L 366.195 646.483 M 350.29 436.793 L 296.532 546.318 M 371.769 649.047 L 541.339 524.673 M 175.145 558.602 L 366.195 646.483 M 371.769 649.047 L 493.156 636.763 M 493.156 636.763 L 541.339 524.673 M 244.807 658.767 L 366.195 646.483 M 175.145 558.602 L 244.807 658.767 M 371.769 649.047 L 562.819 736.928 M 175.145 558.602 L 191.049 768.292 M 275.68 340.258 L 350.29 436.793 M 323.862 228.168 L 275.68 340.258 M 371.769 649.047 L 441.431 749.212 M 441.431 749.212 L 562.819 736.928 M 121.387 668.128 L 191.049 768.292 M 393.249 861.302 L 562.819 736.928 M 732.853 618.673 L 716.948 408.983 M 0 680.412 L 191.049 768.292 M 393.249 861.302 L 514.636 849.018 M 732.853 618.673 L 786.611 509.147 M 786.611 509.147 L 716.948 408.983 M 393.249 861.302 L 584.298 949.182 M 732.853 618.673 L 908.462 502.982 M 891.629 281.055 L 875.725 71.3643 M 323.862 228.168 L 154.292 352.541 M 202.475 240.451 L 154.292 352.541 M 323.862 228.168 L 202.475 240.451 M 127.865 143.916 L 154.292 352.541" />
</svg>
