<?xml version="1.0"?>
<svg width="19914" height="11621" version="1.1" xmlns="http://www.w3.org/2000/svg" >
<defs>
<style type="text/css"><![CDATA[
.m {stroke:rgb(255,0,0);stroke-width:24.892500;}
.v {stroke:rgb(0,0,255);stroke-width:24.892500;}
.b {stroke:rgb(0,0,0);stroke-width:49.785000;fill:white}
.n {stroke:rgb(128,128,128);stroke-width:24.892500}
.t {stroke:rgb(0,128,0);stroke-width:24.892500;}
.c {stroke:rgb(128,128,128);stroke-width:24.892500;stroke-dasharray:199.140000, 199.140000;}
]]></style>
</defs>
<line x1="7247.325214" y1="8287.618624" x2="5805.203956" y2="8267.927770" class="m" style="stroke-width:20.131961;" />
<line x1="5805.203956" y1="8267.927770" x2="6104.669464" y2="9075.869492" class="m" style="stroke-width:13.519135;" />
<line x1="6104.669464" y1="9075.869492" x2="7247.325214" y2="8287.618624" class="m" style="stroke-width:9.946180;" />
<line x1="6104.669464" y1="9075.869492" x2="7717.776553" y2="8866.119330" class="m" style="stroke-width:10.116264;" />
<line x1="7717.776553" y1="8866.119330" x2="7247.325214" y2="8287.618624" class="m" style="stroke-width:14.822685;" />
<line x1="4690.291686" y1="8242.942446" x2="5805.203956" y2="8267.927770" class="m" style="stroke-width:12.317045;" />
<line x1="5805.203956" y1="8267.927770" x2="4609.065150" y2="7272.268368" class="m" style="stroke-width:14.102126;" />
<line x1="4609.065150" y1="7272.268368" x2="4690.291686" y2="8242.942446" class="m" style="stroke-width:11.930026;" />
<line x1="4690.291686" y1="8242.942446" x2="5923.421457" y2="9121.434676" class="m" style="stroke-width:10.065940;" />
<line x1="5923.421457" y1="9121.434676" x2="5805.203956" y2="8267.927770" class="m" style="stroke-width:13.519135;" />
<line x1="4609.065150" y1="7272.268368" x2="3876.573305" y2="7735.358537" class="m" style="stroke-width:10.294827;" />
<line x1="3876.573305" y1="7735.358537" x2="4690.291686" y2="8242.942446" class="m" style="stroke-width:12.731126;" />
<line x1="4609.065150" y1="7272.268368" x2="3293.196740" y2="6733.733547" class="m" style="stroke-width:8.524146;" />
<line x1="3293.196740" y1="6733.733547" x2="3876.573305" y2="7735.358537" class="m" style="stroke-width:12.817970;" />
<line x1="3232.801238" y1="5603.042475" x2="3293.196740" y2="6733.733547" class="m" style="stroke-width:12.813143;" />
<line x1="3293.196740" y1="6733.733547" x2="3923.541130" y2="5913.060720" class="m" style="stroke-width:9.593009;" />
<line x1="3923.541130" y1="5913.060720" x2="3232.801238" y2="5603.042475" class="m" style="stroke-width:12.884533;" />
<line x1="4609.065150" y1="7272.268368" x2="3923.541130" y2="5913.060720" class="m" style="stroke-width:29.558361;" />
<line x1="3232.801238" y1="5603.042475" x2="3849.987787" y2="4519.236160" class="m" style="stroke-width:11.259293;" />
<line x1="3849.987787" y1="4519.236160" x2="3137.957633" y2="4062.113877" class="m" style="stroke-width:13.694483;" />
<line x1="3137.957633" y1="4062.113877" x2="3232.801238" y2="5603.042475" class="m" style="stroke-width:8.838277;" />
<line x1="3923.541130" y1="5913.060720" x2="3849.987787" y2="4519.236160" class="m" style="stroke-width:26.024254;" />
<line x1="4758.061991" y1="3176.795414" x2="3908.076013" y2="2917.033351" class="m" style="stroke-width:13.494574;" />
<line x1="3908.076013" y1="2917.033351" x2="3255.393169" y2="3917.235360" class="m" style="stroke-width:13.779717;" />
<line x1="3255.393169" y1="3917.235360" x2="4758.061991" y2="3176.795414" class="m" style="stroke-width:5.076343;" />
<line x1="3255.393169" y1="3917.235360" x2="3849.987787" y2="4519.236160" class="m" style="stroke-width:13.694483;" />
<line x1="3849.987787" y1="4519.236160" x2="4758.061991" y2="3176.795414" class="m" style="stroke-width:28.577187;" />
<line x1="4758.061991" y1="3176.795414" x2="5074.894664" y2="2302.130350" class="m" style="stroke-width:13.759447;" />
<line x1="5074.894664" y1="2302.130350" x2="3908.076013" y2="2917.033351" class="m" style="stroke-width:11.133844;" />
<line x1="6251.895377" y1="2882.589534" x2="5279.638490" y2="2406.483872" class="m" style="stroke-width:11.287129;" />
<line x1="5279.638490" y1="2406.483872" x2="4758.061991" y2="3176.795414" class="m" style="stroke-width:13.759447;" />
<line x1="4758.061991" y1="3176.795414" x2="6251.895377" y2="2882.589534" class="m" style="stroke-width:21.699820;" />
<line x1="6251.895377" y1="2882.589534" x2="6804.500001" y2="2180.943090" class="m" style="stroke-width:9.325428;" />
<line x1="6804.500001" y1="2180.943090" x2="5279.638490" y2="2406.483872" class="m" style="stroke-width:10.210892;" />
<line x1="7665.996662" y1="3447.293099" x2="7989.747517" y2="3966.994908" class="m" style="stroke-width:27.536342;" />
<line x1="7989.747517" y1="3966.994908" x2="8556.432955" y2="3516.595421" class="m" style="stroke-width:9.107548;" />
<line x1="8556.432955" y1="3516.595421" x2="7665.996662" y2="3447.293099" class="m" style="stroke-width:9.325428;" />
<line x1="9337.377270" y1="5415.473701" x2="9088.728194" y2="4182.648311" class="m" style="stroke-width:15.099605;" />
<line x1="9088.728194" y1="4182.648311" x2="8565.925969" y2="4683.317780" class="m" style="stroke-width:9.107548;" />
<line x1="8565.925969" y1="4683.317780" x2="9337.377270" y2="5415.473701" class="m" style="stroke-width:13.799435;" />
<line x1="8869.430305" y1="6333.882930" x2="9766.397382" y2="6460.727252" class="m" style="stroke-width:7.935977;" />
<line x1="9766.397382" y1="6460.727252" x2="9337.377270" y2="5415.473701" class="m" style="stroke-width:17.954402;" />
<line x1="9337.377270" y1="5415.473701" x2="8869.430305" y2="6333.882930" class="m" style="stroke-width:13.914296;" />
<line x1="9742.180973" y1="6576.670267" x2="8869.430305" y2="6333.882930" class="m" style="stroke-width:7.935977;" />
<line x1="8869.430305" y1="6333.882930" x2="8620.893148" y2="7367.856402" class="m" style="stroke-width:20.157834;" />
<line x1="8620.893148" y1="7367.856402" x2="9742.180973" y2="6576.670267" class="m" style="stroke-width:10.802241;" />
<line x1="8607.587334" y1="7343.734275" x2="8847.150567" y2="8043.627792" class="m" style="stroke-width:14.983451;" />
<line x1="8847.150567" y1="8043.627792" x2="9871.588016" y2="6809.352238" class="m" style="stroke-width:9.275780;" />
<line x1="9871.588016" y1="6809.352238" x2="8607.587334" y2="7343.734275" class="m" style="stroke-width:10.802241;" />
<line x1="7832.105277" y1="8750.241371" x2="8607.587334" y2="7343.734275" class="m" style="stroke-width:5.953160;" />
<line x1="8607.587334" y1="7343.734275" x2="7247.325214" y2="8287.618624" class="m" style="stroke-width:6.834191;" />
<line x1="7247.325214" y1="8287.618624" x2="7832.105277" y2="8750.241371" class="m" style="stroke-width:14.822685;" />
<line x1="7832.105277" y1="8750.241371" x2="8847.150567" y2="8043.627792" class="m" style="stroke-width:13.511739;" />
<line x1="6104.669464" y1="9075.869492" x2="7307.219955" y2="10093.183467" class="m" style="stroke-width:12.391842;" />
<line x1="7307.219955" y1="10093.183467" x2="7717.776553" y2="8866.119330" class="m" style="stroke-width:11.862639;" />
<line x1="3953.621839" y1="9190.147816" x2="4555.709423" y2="9544.215877" class="m" style="stroke-width:15.637588;" />
<line x1="4555.709423" y1="9544.215877" x2="4690.291686" y2="8242.942446" class="m" style="stroke-width:6.223086;" />
<line x1="4690.291686" y1="8242.942446" x2="3953.621839" y2="9190.147816" class="m" style="stroke-width:12.108023;" />
<line x1="4781.428674" y1="9547.978452" x2="5923.421457" y2="9121.434676" class="m" style="stroke-width:13.067012;" />
<line x1="4690.291686" y1="8242.942446" x2="4781.428674" y2="9547.978452" class="m" style="stroke-width:6.223086;" />
<line x1="2352.749446" y1="6035.360437" x2="3293.196740" y2="6733.733547" class="m" style="stroke-width:9.187818;" />
<line x1="3232.801238" y1="5603.042475" x2="2352.749446" y2="6035.360437" class="m" style="stroke-width:11.246605;" />
<line x1="3137.957633" y1="4062.113877" x2="2541.417193" y2="4751.136139" class="m" style="stroke-width:7.790367;" />
<line x1="2541.417193" y1="4751.136139" x2="3232.801238" y2="5603.042475" class="m" style="stroke-width:10.529641;" />
<line x1="3232.801238" y1="5603.042475" x2="2382.116020" y2="4910.156509" class="m" style="stroke-width:10.529641;" />
<line x1="2382.116020" y1="4910.156509" x2="2352.749446" y2="6035.360437" class="m" style="stroke-width:9.237576;" />
<line x1="4828.788040" y1="1540.450896" x2="3908.076013" y2="2917.033351" class="m" style="stroke-width:7.645605;" />
<line x1="5074.894664" y1="2302.130350" x2="4828.788040" y2="1540.450896" class="m" style="stroke-width:14.965716;" />
<line x1="6804.500001" y1="2180.943090" x2="5365.961965" y2="1610.699781" class="m" style="stroke-width:10.398203;" />
<line x1="5365.961965" y1="1610.699781" x2="5279.638490" y2="2406.483872" class="m" style="stroke-width:14.965716;" />
<line x1="8847.150567" y1="8043.627792" x2="10158.245529" y2="7854.609364" class="m" style="stroke-width:9.299758;" />
<line x1="10158.245529" y1="7854.609364" x2="9871.588016" y2="6809.352238" class="m" style="stroke-width:14.493640;" />
<line x1="7832.105277" y1="8750.241371" x2="8756.074238" y2="9144.795567" class="m" style="stroke-width:10.626425;" />
<line x1="8756.074238" y1="9144.795567" x2="8847.150567" y2="8043.627792" class="m" style="stroke-width:10.358108;" />
<line x1="3876.573305" y1="7735.358537" x2="3953.621839" y2="9190.147816" class="m" style="stroke-width:5.003140;" />
<line x1="3293.196740" y1="6733.733547" x2="2469.268814" y2="7697.982722" class="m" style="stroke-width:12.681132;" />
<line x1="2469.268814" y1="7697.982722" x2="3876.573305" y2="7735.358537" class="m" style="stroke-width:6.598063;" />
<line x1="3908.076013" y1="2917.033351" x2="2906.206038" y2="2898.166868" class="m" style="stroke-width:12.570917;" />
<line x1="2906.206038" y1="2898.166868" x2="3255.393169" y2="3917.235360" class="m" style="stroke-width:8.354453;" />
<line x1="12551.688804" y1="0.000000" x2="11886.805171" y2="1516.779366" class="m" style="stroke-width:7.645605;" />
<line x1="11886.805171" y1="1516.779366" x2="13304.254068" y2="990.989096" class="m" style="stroke-width:8.003299;" />
<line x1="13304.254068" y1="990.989096" x2="12551.688804" y2="0.000000" class="m" style="stroke-width:9.106240;" />
<line x1="6804.500001" y1="2180.943090" x2="6084.311215" y2="762.890798" class="m" style="stroke-width:9.726750;" />
<line x1="6084.311215" y1="762.890798" x2="5365.961965" y2="1610.699781" class="m" style="stroke-width:13.295176;" />
<line x1="9789.494902" y1="3464.017220" x2="10787.119282" y2="4564.666667" class="m" style="stroke-width:12.259667;" />
<line x1="10787.119282" y1="4564.666667" x2="11339.614326" y2="3108.104363" class="m" style="stroke-width:6.427564;" />
<line x1="11339.614326" y1="3108.104363" x2="9789.494902" y2="3464.017220" class="m" style="stroke-width:9.726750;" />
<line x1="10554.837044" y1="4421.831179" x2="9088.728194" y2="4182.648311" class="m" style="stroke-width:12.259667;" />
<line x1="9337.377270" y1="5415.473701" x2="10554.837044" y2="4421.831179" class="m" style="stroke-width:11.240675;" />
<line x1="9766.397382" y1="6460.727252" x2="10778.507912" y2="4788.834862" class="m" style="stroke-width:8.420961;" />
<line x1="10778.507912" y1="4788.834862" x2="9337.377270" y2="5415.473701" class="m" style="stroke-width:11.240675;" />
<line x1="11830.959134" y1="8220.274363" x2="11022.541109" y2="7563.818597" class="m" style="stroke-width:13.480396;" />
<line x1="11022.541109" y1="7563.818597" x2="10524.273878" y2="8791.184775" class="m" style="stroke-width:9.299758;" />
<line x1="10524.273878" y1="8791.184775" x2="11830.959134" y2="8220.274363" class="m" style="stroke-width:8.790153;" />
<line x1="15840.804129" y1="10173.190620" x2="14584.918041" y2="10179.158725" class="m" style="stroke-width:9.708793;" />
<line x1="14584.918041" y1="10179.158725" x2="15344.795545" y2="11558.883911" class="m" style="stroke-width:12.391842;" />
<line x1="15344.795545" y1="11558.883911" x2="15840.804129" y2="10173.190620" class="m" style="stroke-width:7.401602;" />
<line x1="4781.428674" y1="9547.978452" x2="5278.067475" y2="10444.192647" class="m" style="stroke-width:12.624229;" />
<line x1="5278.067475" y1="10444.192647" x2="5923.421457" y2="9121.434676" class="m" style="stroke-width:7.401602;" />
<line x1="2352.749446" y1="6035.360437" x2="2312.437612" y2="7537.938267" class="m" style="stroke-width:10.254232;" />
<line x1="2312.437612" y1="7537.938267" x2="3293.196740" y2="6733.733547" class="m" style="stroke-width:12.681132;" />
<line x1="1167.590946" y1="5162.544354" x2="2352.749446" y2="6035.360437" class="m" style="stroke-width:11.179281;" />
<line x1="2382.116020" y1="4910.156509" x2="1167.590946" y2="5162.544354" class="v" style="stroke-width:6.780030;" />
<line x1="3137.957633" y1="4062.113877" x2="2058.940408" y2="4234.059886" class="m" style="stroke-width:11.394494;" />
<line x1="2058.940408" y1="4234.059886" x2="2541.417193" y2="4751.136139" class="m" style="stroke-width:13.773246;" />
<line x1="17380.192132" y1="901.683065" x2="17490.151686" y2="1791.802358" class="m" style="stroke-width:13.062613;" />
<line x1="17490.151686" y1="1791.802358" x2="18053.996251" y2="686.881509" class="v" style="stroke-width:6.780030;" />
<line x1="18053.996251" y1="686.881509" x2="17380.192132" y2="901.683065" class="m" style="stroke-width:13.773246;" />
<line x1="3908.076013" y1="2917.033351" x2="3139.445480" y2="1938.452251" class="m" style="stroke-width:9.106240;" />
<line x1="3139.445480" y1="1938.452251" x2="2906.206038" y2="2898.166868" class="v" style="stroke-width:8.091411;" />
<line x1="12969.620933" y1="1859.556788" x2="13304.254068" y2="990.989096" class="m" style="stroke-width:10.242318;" />
<line x1="11886.805171" y1="1516.779366" x2="12969.620933" y2="1859.556788" class="m" style="stroke-width:11.634500;" />
<line x1="11502.427000" y1="6263.530077" x2="10778.507912" y2="4788.834862" class="v" style="stroke-width:6.017883;" />
<line x1="9766.397382" y1="6460.727252" x2="11502.427000" y2="6263.530077" class="m" style="stroke-width:9.379657;" />
<line x1="10158.245529" y1="7854.609364" x2="11409.146856" y2="7639.170516" class="m" style="stroke-width:11.901356;" />
<line x1="11409.146856" y1="7639.170516" x2="9871.588016" y2="6809.352238" class="m" style="stroke-width:9.379657;" />
<line x1="8756.074238" y1="9144.795567" x2="9827.037257" y2="9079.575247" class="m" style="stroke-width:5.629480;" />
<line x1="9827.037257" y1="9079.575247" x2="8847.150567" y2="8043.627792" class="m" style="stroke-width:8.790153;" />
<line x1="8409.054348" y1="9595.178082" x2="7717.776553" y2="8866.119330" class="m" style="stroke-width:10.626425;" />
<line x1="7307.219955" y1="10093.183467" x2="8409.054348" y2="9595.178082" class="m" style="stroke-width:6.538215;" />
<line x1="15840.804129" y1="10173.190620" x2="15284.158406" y2="9281.148265" class="m" style="stroke-width:12.284500;" />
<line x1="15284.158406" y1="9281.148265" x2="14584.918041" y2="10179.158725" class="m" style="stroke-width:11.191182;" />
<line x1="2352.749446" y1="6035.360437" x2="1339.399779" y2="6921.869005" class="m" style="stroke-width:9.280341;" />
<line x1="1339.399779" y1="6921.869005" x2="2312.437612" y2="7537.938267" class="m" style="stroke-width:12.675537;" />
<line x1="18947.354251" y1="1584.512053" x2="17490.151686" y2="1791.802358" class="m" style="stroke-width:11.179281;" />
<line x1="17490.151686" y1="1791.802358" x2="18663.070393" y2="2900.550684" class="m" style="stroke-width:8.960420;" />
<line x1="18663.070393" y1="2900.550684" x2="18947.354251" y2="1584.512053" class="m" style="stroke-width:9.280341;" />
<line x1="11886.805171" y1="1516.779366" x2="11969.897528" y2="2624.886481" class="m" style="stroke-width:13.295176;" />
<line x1="11969.897528" y1="2624.886481" x2="12969.620933" y2="1859.556788" class="m" style="stroke-width:9.362075;" />
<line x1="11830.959134" y1="8220.274363" x2="12561.467623" y2="7423.487675" class="m" style="stroke-width:9.132493;" />
<line x1="12561.467623" y1="7423.487675" x2="11022.541109" y2="7563.818597" class="m" style="stroke-width:6.215367;" />
<line x1="3139.558005" y1="10217.409012" x2="4804.244057" y2="10538.238269" class="m" style="stroke-width:9.332242;" />
<line x1="4804.244057" y1="10538.238269" x2="4555.709423" y2="9544.215877" class="m" style="stroke-width:12.624229;" />
<line x1="4555.709423" y1="9544.215877" x2="3139.558005" y2="10217.409012" class="m" style="stroke-width:6.138019;" />
<line x1="17352.555401" y1="3079.757181" x2="18663.070393" y2="2900.550684" class="m" style="stroke-width:11.256071;" />
<line x1="17490.151686" y1="1791.802358" x2="17352.555401" y2="3079.757181" class="m" style="stroke-width:11.529573;" />
<line x1="13626.240055" y1="1043.911321" x2="13124.358541" y2="1827.814451" class="m" style="stroke-width:10.242318;" />
<line x1="13124.358541" y1="1827.814451" x2="14117.810070" y2="2222.544859" class="m" style="stroke-width:12.155491;" />
<line x1="14117.810070" y1="2222.544859" x2="13626.240055" y2="1043.911321" class="v" style="stroke-width:19.989372;" />
<line x1="13330.833996" y1="3227.370171" x2="12969.620933" y2="1859.556788" class="m" style="stroke-width:7.694047;" />
<line x1="11969.897528" y1="2624.886481" x2="13330.833996" y2="3227.370171" class="v" style="stroke-width:6.800396;" />
<line x1="12561.467623" y1="7423.487675" x2="11603.322527" y2="6435.164102" class="m" style="stroke-width:11.422264;" />
<line x1="11603.322527" y1="6435.164102" x2="11022.541109" y2="7563.818597" class="m" style="stroke-width:11.901356;" />
<line x1="3139.558005" y1="10217.409012" x2="3737.802902" y2="11621.992542" class="m" style="stroke-width:12.434630;" />
<line x1="3737.802902" y1="11621.992542" x2="4804.244057" y2="10538.238269" class="m" style="stroke-width:6.174052;" />
<line x1="16423.128118" y1="9649.712642" x2="16258.031622" y2="8138.235481" class="m" style="stroke-width:6.174052;" />
<line x1="16258.031622" y1="8138.235481" x2="15553.837499" y2="9058.165650" class="m" style="stroke-width:11.653885;" />
<line x1="15553.837499" y1="9058.165650" x2="16423.128118" y2="9649.712642" class="m" style="stroke-width:12.284500;" />
<line x1="18892.910992" y1="3888.083015" x2="17632.127137" y2="3488.097286" class="m" style="stroke-width:11.256071;" />
<line x1="17632.127137" y1="3488.097286" x2="18308.119354" y2="5198.984975" class="m" style="stroke-width:10.826613;" />
<line x1="18308.119354" y1="5198.984975" x2="18892.910992" y2="3888.083015" class="m" style="stroke-width:11.207225;" />
<line x1="13330.833996" y1="3227.370171" x2="14117.810070" y2="2222.544859" class="m" style="stroke-width:12.907330;" />
<line x1="13124.358541" y1="1827.814451" x2="13330.833996" y2="3227.370171" class="m" style="stroke-width:7.694047;" />
<line x1="12561.467623" y1="7423.487675" x2="12864.022819" y2="6354.295701" class="m" style="stroke-width:8.124801;" />
<line x1="12864.022819" y1="6354.295701" x2="11603.322527" y2="6435.164102" class="v" style="stroke-width:6.237333;" />
<line x1="17439.988320" y1="5067.032074" x2="18308.119354" y2="5198.984975" class="m" style="stroke-width:14.178906;" />
<line x1="17632.127137" y1="3488.097286" x2="17439.988320" y2="5067.032074" class="m" style="stroke-width:6.424519;" />
<line x1="14945.578166" y1="2800.298789" x2="14117.810070" y2="2222.544859" class="m" style="stroke-width:13.964330;" />
<line x1="13330.833996" y1="3227.370171" x2="14945.578166" y2="2800.298789" class="m" style="stroke-width:7.560167;" />
<line x1="12561.467623" y1="7423.487675" x2="13329.369043" y2="7376.165500" class="m" style="stroke-width:12.189493;" />
<line x1="13329.369043" y1="7376.165500" x2="12864.022819" y2="6354.295701" class="m" style="stroke-width:11.211921;" />
<line x1="15865.370807" y1="7108.069449" x2="16480.825176" y2="7904.870192" class="m" style="stroke-width:15.208503;" />
<line x1="16480.825176" y1="7904.870192" x2="17295.306889" y2="6751.515488" class="m" style="stroke-width:9.960224;" />
<line x1="17295.306889" y1="6751.515488" x2="15865.370807" y2="7108.069449" class="m" style="stroke-width:8.689534;" />
<line x1="16591.752675" y1="4115.205441" x2="17439.988320" y2="5067.032074" class="m" style="stroke-width:11.698274;" />
<line x1="17632.127137" y1="3488.097286" x2="16591.752675" y2="4115.205441" class="m" style="stroke-width:10.148471;" />
<line x1="13330.833996" y1="3227.370171" x2="14244.535016" y2="4212.378695" class="m" style="stroke-width:8.511945;" />
<line x1="14244.535016" y1="4212.378695" x2="14945.578166" y2="2800.298789" class="m" style="stroke-width:12.829802;" />
<line x1="13716.593561" y1="7447.236565" x2="14868.439331" y2="6985.728824" class="m" style="stroke-width:10.453651;" />
<line x1="14868.439331" y1="6985.728824" x2="13856.381818" y2="5595.197323" class="m" style="stroke-width:9.387549;" />
<line x1="13856.381818" y1="5595.197323" x2="13716.593561" y2="7447.236565" class="m" style="stroke-width:9.479976;" />
<line x1="13329.369043" y1="7376.165500" x2="13856.381818" y2="5595.197323" class="m" style="stroke-width:9.479976;" />
<line x1="13856.381818" y1="5595.197323" x2="12864.022819" y2="6354.295701" class="m" style="stroke-width:8.164707;" />
<line x1="17295.306889" y1="6751.515488" x2="16481.563016" y2="5915.730989" class="m" style="stroke-width:12.187632;" />
<line x1="16481.563016" y1="5915.730989" x2="15865.370807" y2="7108.069449" class="m" style="stroke-width:9.732910;" />
<line x1="16498.650507" y1="5690.733406" x2="17547.147646" y2="6201.975588" class="m" style="stroke-width:12.187632;" />
<line x1="17547.147646" y1="6201.975588" x2="17439.988320" y2="5067.032074" class="m" style="stroke-width:6.412490;" />
<line x1="17439.988320" y1="5067.032074" x2="16498.650507" y2="5690.733406" class="m" style="stroke-width:10.997890;" />
<line x1="16591.752675" y1="4115.205441" x2="16498.650507" y2="5690.733406" class="m" style="stroke-width:7.182690;" />
<line x1="15160.909976" y1="2929.534944" x2="15698.175091" y2="4432.896191" class="m" style="stroke-width:11.499520;" />
<line x1="15698.175091" y1="4432.896191" x2="16525.746584" y2="3969.718326" class="m" style="stroke-width:14.339179;" />
<line x1="16525.746584" y1="3969.718326" x2="15160.909976" y2="2929.534944" class="v" style="stroke-width:7.198292;" />
<line x1="16481.563016" y1="5915.730989" x2="15349.792322" y2="5716.630764" class="m" style="stroke-width:13.405135;" />
<line x1="15349.792322" y1="5716.630764" x2="15865.370807" y2="7108.069449" class="m" style="stroke-width:7.611631;" />
<line x1="14244.535016" y1="4212.378695" x2="15698.175091" y2="4432.896191" class="m" style="stroke-width:11.953667;" />
<line x1="15160.909976" y1="2929.534944" x2="14244.535016" y2="4212.378695" class="m" style="stroke-width:12.829802;" />
<line x1="14868.439331" y1="6985.728824" x2="15349.792322" y2="5716.630764" class="m" style="stroke-width:12.414491;" />
<line x1="15349.792322" y1="5716.630764" x2="13856.381818" y2="5595.197323" class="m" style="stroke-width:13.735713;" />
<line x1="14868.439331" y1="6985.728824" x2="15865.370807" y2="7108.069449" class="m" style="stroke-width:15.736024;" />
<line x1="15698.175091" y1="4432.896191" x2="15349.792322" y2="5716.630764" class="m" style="stroke-width:13.298072;" />
<line x1="15349.792322" y1="5716.630764" x2="16498.650507" y2="5690.733406" class="m" style="stroke-width:13.405135;" />
<line x1="16498.650507" y1="5690.733406" x2="15698.175091" y2="4432.896191" class="m" style="stroke-width:8.863797;" />
<line x1="16591.752675" y1="4115.205441" x2="15698.175091" y2="4432.896191" class="m" style="stroke-width:14.339179;" />
<line x1="14244.535016" y1="4212.378695" x2="15349.792322" y2="5716.630764" class="m" style="stroke-width:6.784337;" />
<line x1="14244.535016" y1="4212.378695" x2="13856.381818" y2="5595.197323" class="m" style="stroke-width:10.080453;" />
<line x1="5639.380617" y1="7935.464799" x2="7691.826721" y2="7864.600498" class="m" style="stroke-width:31.585887;" />
<line x1="7691.826721" y1="7864.600498" x2="6900.872909" y2="7797.647815" class="v" style="stroke-width:23.299839;" />
<line x1="6900.872909" y1="7797.647815" x2="5639.380617" y2="7935.464799" class="v" style="stroke-width:59.436260;" />
<line x1="5639.380617" y1="7935.464799" x2="5805.203956" y2="8267.927770" class="m" style="stroke-width:9.462298;" />
<line x1="5805.203956" y1="8267.927770" x2="7691.826721" y2="7864.600498" class="v" style="stroke-width:5.748594;" />
<line x1="7247.325214" y1="8287.618624" x2="7691.826721" y2="7864.600498" class="m" style="stroke-width:18.870527;" />
<line x1="5639.380617" y1="7935.464799" x2="4609.065150" y2="7272.268368" class="m" style="stroke-width:17.174378;" />
<line x1="5057.713059" y1="7141.229074" x2="4609.065150" y2="7272.268368" class="v" style="stroke-width:8.158863;" />
<line x1="5639.380617" y1="7935.464799" x2="5057.713059" y2="7141.229074" class="v" style="stroke-width:28.076025;" />
<line x1="4609.065150" y1="7272.268368" x2="5012.701899" y2="7036.612649" class="v" style="stroke-width:8.158863;" />
<line x1="5012.701899" y1="7036.612649" x2="4361.581643" y2="5992.174636" class="v" style="stroke-width:41.336341;" />
<line x1="4361.581643" y1="5992.174636" x2="4609.065150" y2="7272.268368" class="v" style="stroke-width:7.867686;" />
<line x1="4361.581643" y1="5992.174636" x2="3923.541130" y2="5913.060720" class="v" style="stroke-width:8.494703;" />
<line x1="3849.987787" y1="4519.236160" x2="4582.618678" y2="3956.915054" class="v" style="stroke-width:6.633218;" />
<line x1="4582.618678" y1="3956.915054" x2="4758.061991" y2="3176.795414" class="v" style="stroke-width:9.723008;" />
<line x1="4582.618678" y1="3956.915054" x2="6251.895377" y2="2882.589534" class="v" style="stroke-width:44.399531;" />
<line x1="7665.996662" y1="3447.293099" x2="7473.535443" y2="3703.269723" class="v" style="stroke-width:29.203881;" />
<line x1="7473.535443" y1="3703.269723" x2="7989.747517" y2="3966.994908" class="v" style="stroke-width:26.789850;" />
<line x1="8540.445065" y1="5485.376985" x2="8869.430305" y2="6333.882930" class="v" style="stroke-width:6.852853;" />
<line x1="8869.430305" y1="6333.882930" x2="8565.925969" y2="4683.317780" class="m" style="stroke-width:22.225238;" />
<line x1="8565.925969" y1="4683.317780" x2="8540.445065" y2="5485.376985" class="v" style="stroke-width:48.059177;" />
<line x1="8540.445065" y1="5485.376985" x2="8568.717356" y2="6287.781550" class="v" style="stroke-width:46.658123;" />
<line x1="8568.717356" y1="6287.781550" x2="8869.430305" y2="6333.882930" class="v" style="stroke-width:8.630480;" />
<line x1="8869.430305" y1="6333.882930" x2="7691.826721" y2="7864.600498" class="m" style="stroke-width:13.799570;" />
<line x1="7691.826721" y1="7864.600498" x2="8620.893148" y2="7367.856402" class="m" style="stroke-width:17.842919;" />
<line x1="8568.717356" y1="6287.781550" x2="7691.826721" y2="7864.600498" class="m" style="stroke-width:11.755163;" />
<line x1="8568.717356" y1="6287.781550" x2="7783.525627" y2="7440.784589" class="v" style="stroke-width:55.603255;" />
<line x1="7783.525627" y1="7440.784589" x2="7691.826721" y2="7864.600498" class="v" style="stroke-width:13.450536;" />
<line x1="8607.587334" y1="7343.734275" x2="7691.826721" y2="7864.600498" class="m" style="stroke-width:17.842919;" />
<line x1="5639.380617" y1="7935.464799" x2="6702.263092" y2="8628.744808" class="v" style="stroke-width:59.436260;" />
<line x1="6702.263092" y1="8628.744808" x2="6487.996486" y2="7675.694930" class="v" style="stroke-width:5.876357;" />
<line x1="6487.996486" y1="7675.694930" x2="5639.380617" y2="7935.464799" class="m" style="stroke-width:30.191284;" />
<line x1="6487.996486" y1="7675.694930" x2="5057.713059" y2="7141.229074" class="v" style="stroke-width:22.426787;" />
<line x1="3923.541130" y1="5913.060720" x2="4368.609328" y2="5905.794207" class="v" style="stroke-width:8.494703;" />
<line x1="4368.609328" y1="5905.794207" x2="4229.637216" y2="4874.275369" class="v" style="stroke-width:44.695224;" />
<line x1="4229.637216" y1="4874.275369" x2="3923.541130" y2="5913.060720" class="m" style="stroke-width:5.005411;" />
<line x1="4229.637216" y1="4874.275369" x2="3849.987787" y2="4519.236160" class="v" style="stroke-width:7.660448;" />
<line x1="4229.637216" y1="4874.275369" x2="4582.618678" y2="3956.915054" class="v" style="stroke-width:43.714177;" />
<line x1="7783.525627" y1="7440.784589" x2="6900.872909" y2="7797.647815" class="v" style="stroke-width:45.622433;" />
<line x1="5617.524603" y1="5567.471328" x2="4361.581643" y2="5992.174636" class="m" style="stroke-width:13.119285;" />
<line x1="5012.701899" y1="7036.612649" x2="5617.524603" y2="5567.471328" class="m" style="stroke-width:8.786914;" />
<line x1="6487.996486" y1="7675.694930" x2="6228.925406" y2="6547.370796" class="m" style="stroke-width:11.224553;" />
<line x1="6228.925406" y1="6547.370796" x2="5057.713059" y2="7141.229074" class="m" style="stroke-width:18.313603;" />
<line x1="3371.554449" y1="5507.615408" x2="3789.856461" y2="6204.909332" class="m" style="stroke-width:17.865090;" />
<line x1="3789.856461" y1="6204.909332" x2="3552.926855" y2="4750.468781" class="v" style="stroke-width:14.136126;" />
<line x1="3552.926855" y1="4750.468781" x2="3371.554449" y2="5507.615408" class="m" style="stroke-width:17.987108;" />
<line x1="3789.856461" y1="6204.909332" x2="4335.997848" y2="5529.020823" class="m" style="stroke-width:23.361993;" />
<line x1="4335.997848" y1="5529.020823" x2="3552.926855" y2="4750.468781" class="m" style="stroke-width:19.789860;" />
<line x1="5204.130368" y1="5250.647184" x2="4229.637216" y2="4874.275369" class="m" style="stroke-width:8.443324;" />
<line x1="4368.609328" y1="5905.794207" x2="5204.130368" y2="5250.647184" class="m" style="stroke-width:12.047208;" />
<line x1="3789.856461" y1="6204.909332" x2="4213.484158" y2="7243.391575" class="m" style="stroke-width:19.162225;" />
<line x1="4213.484158" y1="7243.391575" x2="4335.997848" y2="5529.020823" class="m" style="stroke-width:5.653985;" />
<line x1="6887.886011" y1="7172.040807" x2="5077.585588" y2="7329.991934" class="m" style="stroke-width:22.875658;" />
<line x1="5077.585588" y1="7329.991934" x2="6353.030380" y2="8042.032650" class="m" style="stroke-width:12.905152;" />
<line x1="6353.030380" y1="8042.032650" x2="6887.886011" y2="7172.040807" class="m" style="stroke-width:17.554888;" />
<line x1="5507.088767" y1="6354.944863" x2="6027.578022" y2="7359.960382" class="m" style="stroke-width:13.326276;" />
<line x1="6027.578022" y1="7359.960382" x2="6905.684644" y2="6776.478931" class="m" style="stroke-width:11.537265;" />
<line x1="6905.684644" y1="6776.478931" x2="5507.088767" y2="6354.944863" class="m" style="stroke-width:12.905152;" />
<line x1="4280.338150" y1="4426.185631" x2="4335.997848" y2="5529.020823" class="m" style="stroke-width:19.789860;" />
<line x1="4335.997848" y1="5529.020823" x2="5579.935006" y2="4308.320760" class="m" style="stroke-width:22.336824;" />
<line x1="5579.935006" y1="4308.320760" x2="4280.338150" y2="4426.185631" class="m" style="stroke-width:11.511308;" />
<line x1="5579.935006" y1="4308.320760" x2="5049.034692" y2="3771.759707" class="m" style="stroke-width:18.012403;" />
<line x1="5049.034692" y1="3771.759707" x2="4280.338150" y2="4426.185631" class="m" style="stroke-width:12.662416;" />
<line x1="5579.935006" y1="4308.320760" x2="6288.518687" y2="3343.045576" class="m" style="stroke-width:18.581596;" />
<line x1="6288.518687" y1="3343.045576" x2="5049.034692" y2="3771.759707" class="m" style="stroke-width:6.681176;" />
<line x1="7839.154430" y1="4829.718332" x2="6735.030047" y2="3992.722186" class="m" style="stroke-width:5.050009;" />
<line x1="6735.030047" y1="3992.722186" x2="7268.477815" y2="5027.699424" class="m" style="stroke-width:19.010248;" />
<line x1="7268.477815" y1="5027.699424" x2="7839.154430" y2="4829.718332" class="m" style="stroke-width:21.506550;" />
<line x1="7317.307121" y1="5114.887527" x2="7789.473441" y2="6507.948665" class="m" style="stroke-width:11.505905;" />
<line x1="7789.473441" y1="6507.948665" x2="7880.772366" y2="5332.546040" class="m" style="stroke-width:14.123012;" />
<line x1="7880.772366" y1="5332.546040" x2="7317.307121" y2="5114.887527" class="m" style="stroke-width:21.506550;" />
<line x1="6744.274640" y1="6273.510891" x2="7373.672035" y2="6684.730930" class="m" style="stroke-width:14.545120;" />
<line x1="7373.672035" y1="6684.730930" x2="7822.841809" y2="5972.560510" class="m" style="stroke-width:13.459946;" />
<line x1="7822.841809" y1="5972.560510" x2="6744.274640" y2="6273.510891" class="m" style="stroke-width:18.539673;" />
<line x1="6353.030380" y1="8042.032650" x2="7307.419128" y2="7795.927787" class="m" style="stroke-width:8.460231;" />
<line x1="7307.419128" y1="7795.927787" x2="6887.886011" y2="7172.040807" class="m" style="stroke-width:14.545120;" />
<line x1="4451.946722" y1="3217.404180" x2="4280.338150" y2="4426.185631" class="m" style="stroke-width:7.550480;" />
<line x1="5049.034692" y1="3771.759707" x2="4451.946722" y2="3217.404180" class="m" style="stroke-width:18.086783;" />
<line x1="4229.637216" y1="4874.275369" x2="5271.271759" y2="4965.061387" class="m" style="stroke-width:13.566683;" />
<line x1="5271.271759" y1="4965.061387" x2="4582.618678" y2="3956.915054" class="m" style="stroke-width:7.550480;" />
<line x1="6288.518687" y1="3343.045576" x2="6504.853964" y2="2638.203513" class="m" style="stroke-width:46.866826;" />
<line x1="6504.853964" y1="2638.203513" x2="5049.034692" y2="3771.759707" class="m" style="stroke-width:10.262916;" />
<line x1="4582.618678" y1="3956.915054" x2="5246.275243" y2="4429.550279" class="m" style="stroke-width:18.086783;" />
<line x1="5246.275243" y1="4429.550279" x2="6251.895377" y2="2882.589534" class="m" style="stroke-width:10.262916;" />
<line x1="7665.996662" y1="3447.293099" x2="7061.126241" y2="3025.706738" class="m" style="stroke-width:46.866826;" />
<line x1="7061.126241" y1="3025.706738" x2="7473.535443" y2="3703.269723" class="v" style="stroke-width:32.855436;" />
<line x1="7473.535443" y1="3703.269723" x2="6735.030047" y2="3992.722186" class="v" style="stroke-width:32.855436;" />
<line x1="7839.154430" y1="4829.718332" x2="7473.535443" y2="3703.269723" class="v" style="stroke-width:26.435131;" />
<line x1="7839.154430" y1="4829.718332" x2="7989.747517" y2="3966.994908" class="m" style="stroke-width:38.693522;" />
<line x1="7903.338531" y1="5255.985111" x2="8540.445065" y2="5485.376985" class="v" style="stroke-width:6.204419;" />
<line x1="8565.925969" y1="4683.317780" x2="7903.338531" y2="5255.985111" class="m" style="stroke-width:38.693522;" />
<line x1="7880.772366" y1="5332.546040" x2="8568.717356" y2="6287.781550" class="m" style="stroke-width:7.773742;" />
<line x1="8540.445065" y1="5485.376985" x2="7880.772366" y2="5332.546040" class="v" style="stroke-width:6.204419;" />
<line x1="7789.473441" y1="6507.948665" x2="8568.717356" y2="6287.781550" class="m" style="stroke-width:17.088278;" />
<line x1="7373.672035" y1="6684.730930" x2="7783.525627" y2="7440.784589" class="m" style="stroke-width:16.335351;" />
<line x1="8568.717356" y1="6287.781550" x2="7373.672035" y2="6684.730930" class="m" style="stroke-width:6.397965;" />
<line x1="8568.717356" y1="6287.781550" x2="7822.841809" y2="5972.560510" class="m" style="stroke-width:17.088278;" />
<line x1="7373.672035" y1="6684.730930" x2="6683.890235" y2="7388.738426" class="m" style="stroke-width:8.460231;" />
<line x1="6683.890235" y1="7388.738426" x2="7783.525627" y2="7440.784589" class="m" style="stroke-width:9.512818;" />
<line x1="7783.525627" y1="7440.784589" x2="6905.684644" y2="6776.478931" class="m" style="stroke-width:9.512818;" />
<line x1="6905.684644" y1="6776.478931" x2="6900.872909" y2="7797.647815" class="m" style="stroke-width:14.051150;" />
<line x1="6027.578022" y1="7359.960382" x2="6900.872909" y2="7797.647815" class="v" style="stroke-width:5.876357;" />
<line x1="5077.585588" y1="7329.991934" x2="4213.484158" y2="7243.391575" class="m" style="stroke-width:22.360150;" />
<line x1="4213.484158" y1="7243.391575" x2="4573.912012" y2="8343.539264" class="m" style="stroke-width:11.224553;" />
<line x1="4573.912012" y1="8343.539264" x2="5077.585588" y2="7329.991934" class="m" style="stroke-width:13.326276;" />
<line x1="2935.246587" y1="7544.248232" x2="4213.484158" y2="7243.391575" class="m" style="stroke-width:18.313603;" />
<line x1="3789.856461" y1="6204.909332" x2="2935.246587" y2="7544.248232" class="m" style="stroke-width:8.786914;" />
<line x1="2470.937487" y1="6069.933928" x2="3789.856461" y2="6204.909332" class="m" style="stroke-width:13.119285;" />
<line x1="3371.554449" y1="5507.615408" x2="2470.937487" y2="6069.933928" class="m" style="stroke-width:12.047208;" />
<line x1="3552.926855" y1="4750.468781" x2="2518.723681" y2="4904.314216" class="m" style="stroke-width:13.566683;" />
<line x1="2518.723681" y1="4904.314216" x2="3371.554449" y2="5507.615408" class="m" style="stroke-width:8.443324;" />
<line x1="7317.307121" y1="5114.887527" x2="6887.886011" y2="7172.040807" class="m" style="stroke-width:17.048928;" />
<line x1="6887.886011" y1="7172.040807" x2="7789.473441" y2="6507.948665" class="m" style="stroke-width:18.539673;" />
<line x1="5077.585588" y1="7329.991934" x2="4335.997848" y2="5529.020823" class="m" style="stroke-width:21.087365;" />
<line x1="7317.307121" y1="5114.887527" x2="5872.836931" y2="5866.589198" class="m" style="stroke-width:9.019056;" />
<line x1="5872.836931" y1="5866.589198" x2="6887.886011" y2="7172.040807" class="m" style="stroke-width:10.289068;" />
<line x1="5579.935006" y1="4308.320760" x2="7268.477815" y2="5027.699424" class="m" style="stroke-width:18.764445;" />
<line x1="6735.030047" y1="3992.722186" x2="5579.935006" y2="4308.320760" class="m" style="stroke-width:18.581596;" />
<line x1="5579.935006" y1="4308.320760" x2="5872.836931" y2="5866.589198" class="m" style="stroke-width:8.786634;" />
<line x1="5872.836931" y1="5866.589198" x2="7268.477815" y2="5027.699424" class="m" style="stroke-width:9.019056;" />
<line x1="5872.836931" y1="5866.589198" x2="5077.585588" y2="7329.991934" class="m" style="stroke-width:8.017674;" />
<line x1="5872.836931" y1="5866.589198" x2="4335.997848" y2="5529.020823" class="m" style="stroke-width:9.887539;" />
<line x1="1150.485644" y1="8902.478500" x2="2906.770941" y2="8584.271398" class="m" style="stroke-width:11.338353;" />
<line x1="2906.770941" y1="8584.271398" x2="2469.268814" y2="7697.982722" class="m" style="stroke-width:17.018861;" />
<line x1="2469.268814" y1="7697.982722" x2="1150.485644" y2="8902.478500" class="m" style="stroke-width:8.785045;" />
<line x1="18657.379559" y1="6785.538470" x2="18297.029454" y2="5258.195760" class="m" style="stroke-width:10.621068;" />
<line x1="18297.029454" y1="5258.195760" x2="17547.147646" y2="6201.975588" class="m" style="stroke-width:12.771743;" />
<line x1="17547.147646" y1="6201.975588" x2="18657.379559" y2="6785.538470" class="m" style="stroke-width:11.621627;" />
<line x1="19874.835420" y1="6092.654950" x2="18297.029454" y2="5258.195760" class="m" style="stroke-width:11.338353;" />
<line x1="18657.379559" y1="6785.538470" x2="19874.835420" y2="6092.654950" class="m" style="stroke-width:12.339969;" />
<line x1="18308.119354" y1="5198.984975" x2="19914.882722" y2="4419.042281" class="m" style="stroke-width:8.785045;" />
<line x1="19914.882722" y1="4419.042281" x2="18892.910992" y2="3888.083015" class="m" style="stroke-width:12.675537;" />
<line x1="18002.954443" y1="7787.080781" x2="17295.306889" y2="6751.515488" class="m" style="stroke-width:11.621627;" />
<line x1="16480.825176" y1="7904.870192" x2="18002.954443" y2="7787.080781" class="m" style="stroke-width:12.434630;" />
<line x1="3953.621839" y1="9190.147816" x2="3139.558005" y2="10217.409012" class="m" style="stroke-width:10.974427;" />
<line x1="3003.040410" y1="10092.567030" x2="3953.621839" y2="9190.147816" class="m" style="stroke-width:10.974427;" />
<line x1="3953.621839" y1="9190.147816" x2="3012.616675" y2="8691.783449" class="m" style="stroke-width:15.322017;" />
<line x1="3012.616675" y1="8691.783449" x2="3003.040410" y2="10092.567030" class="m" style="stroke-width:12.339969;" />
<line x1="3876.573305" y1="7735.358537" x2="3012.616675" y2="8691.783449" class="m" style="stroke-width:12.339183;" />
<line x1="2906.770941" y1="8584.271398" x2="3876.573305" y2="7735.358537" class="m" style="stroke-width:12.339183;" />
<line x1="18297.029454" y1="5258.195760" x2="17439.988320" y2="5067.032074" class="m" style="stroke-width:14.178906;" />
<line x1="15284.158406" y1="9281.148265" x2="13712.028414" y2="8992.692349" class="m" style="stroke-width:6.979574;" />
<line x1="13712.028414" y1="8992.692349" x2="14584.918041" y2="10179.158725" class="m" style="stroke-width:13.521694;" />
<line x1="14663.242163" y1="8255.632626" x2="13712.028414" y2="8992.692349" class="m" style="stroke-width:17.092819;" />
<line x1="15284.158406" y1="9281.148265" x2="14663.242163" y2="8255.632626" class="m" style="stroke-width:13.057430;" />
<line x1="16258.031622" y1="8138.235481" x2="14663.242163" y2="8255.632626" class="m" style="stroke-width:12.734820;" />
<line x1="14663.242163" y1="8255.632626" x2="15553.837499" y2="9058.165650" class="m" style="stroke-width:13.057430;" />
<line x1="14868.439331" y1="6985.728824" x2="16379.398414" y2="7973.777901" class="v" style="stroke-width:10.798775;" />
<line x1="16379.398414" y1="7973.777901" x2="15865.370807" y2="7108.069449" class="m" style="stroke-width:15.208503;" />
<line x1="14868.439331" y1="6985.728824" x2="14663.242163" y2="8255.632626" class="m" style="stroke-width:14.894068;" />
<line x1="16258.031622" y1="8138.235481" x2="14868.439331" y2="6985.728824" class="v" style="stroke-width:10.798775;" />
<line x1="13716.593561" y1="7447.236565" x2="14663.242163" y2="8255.632626" class="m" style="stroke-width:12.632600;" />
<line x1="13716.593561" y1="7447.236565" x2="13712.028414" y2="8992.692349" class="m" style="stroke-width:8.613650;" />
<line x1="12741.454190" y1="8805.434735" x2="13329.369043" y2="7376.165500" class="m" style="stroke-width:8.613650;" />
<line x1="12561.467623" y1="7423.487675" x2="12741.454190" y2="8805.434735" class="m" style="stroke-width:9.548550;" />
<line x1="12561.467623" y1="7423.487675" x2="11913.181544" y2="8288.494518" class="m" style="stroke-width:9.132493;" />
<line x1="11913.181544" y1="8288.494518" x2="12741.454190" y2="8805.434735" class="m" style="stroke-width:14.574654;" />
<line x1="11913.181544" y1="8288.494518" x2="11797.888076" y2="9355.229206" class="m" style="stroke-width:5.629480;" />
<line x1="11797.888076" y1="9355.229206" x2="12741.454190" y2="8805.434735" class="m" style="stroke-width:13.171569;" />
<line x1="7307.219955" y1="10093.183467" x2="8668.429317" y2="10655.987017" class="m" style="stroke-width:13.521694;" />
<line x1="8668.429317" y1="10655.987017" x2="8409.054348" y2="9595.178082" class="m" style="stroke-width:13.171569;" />
<line x1="16280.308777" y1="1556.426930" x2="17352.555401" y2="3079.757181" class="m" style="stroke-width:5.408494;" />
<line x1="17490.151686" y1="1791.802358" x2="16280.308777" y2="1556.426930" class="m" style="stroke-width:12.037329;" />
<line x1="16280.308777" y1="1556.426930" x2="16037.556139" y2="2665.559072" class="m" style="stroke-width:18.485926;" />
<line x1="16037.556139" y1="2665.559072" x2="17352.555401" y2="3079.757181" class="m" style="stroke-width:13.077797;" />
<line x1="17380.192132" y1="901.683065" x2="16280.308777" y2="1556.426930" class="m" style="stroke-width:13.341069;" />
<line x1="16037.556139" y1="2665.559072" x2="16525.746584" y2="3969.718326" class="m" style="stroke-width:13.977115;" />
<line x1="16525.746584" y1="3969.718326" x2="17352.555401" y2="3079.757181" class="m" style="stroke-width:10.148471;" />
<line x1="16037.556139" y1="2665.559072" x2="15160.909976" y2="2929.534944" class="m" style="stroke-width:17.765484;" />
<line x1="16037.556139" y1="2665.559072" x2="16014.462665" y2="1530.407257" class="m" style="stroke-width:18.485926;" />
<line x1="16014.462665" y1="1530.407257" x2="15160.909976" y2="2929.534944" class="m" style="stroke-width:6.092920;" />
<line x1="0.000000" y1="2165.773899" x2="1136.154022" y2="3346.987054" class="m" style="stroke-width:6.092920;" />
<line x1="1136.154022" y1="3346.987054" x2="1723.214798" y2="2282.594666" class="m" style="stroke-width:17.219570;" />
<line x1="1723.214798" y1="2282.594666" x2="0.000000" y2="2165.773899" class="v" style="stroke-width:5.672495;" />
<line x1="14094.681614" y1="1297.271381" x2="14117.810070" y2="2222.544859" class="m" style="stroke-width:27.307163;" />
<line x1="14945.578166" y1="2800.298789" x2="14094.681614" y2="1297.271381" class="v" style="stroke-width:5.672495;" />
<line x1="1136.154022" y1="3346.987054" x2="2434.130604" y2="3246.601916" class="m" style="stroke-width:8.504983;" />
<line x1="2434.130604" y1="3246.601916" x2="1723.214798" y2="2282.594666" class="m" style="stroke-width:13.361430;" />
<line x1="1136.154022" y1="3346.987054" x2="2058.940408" y2="4234.059886" class="m" style="stroke-width:13.341069;" />
<line x1="2058.940408" y1="4234.059886" x2="2434.130604" y2="3246.601916" class="m" style="stroke-width:9.218191;" />
<line x1="3137.957633" y1="4062.113877" x2="2434.130604" y2="3246.601916" class="m" style="stroke-width:8.354453;" />
<line x1="3139.445480" y1="1938.452251" x2="2550.479598" y2="805.342685" class="v" style="stroke-width:19.989372;" />
<line x1="2550.479598" y1="805.342685" x2="2682.651531" y2="1721.419383" class="m" style="stroke-width:27.307163;" />
<line x1="2682.651531" y1="1721.419383" x2="3139.445480" y2="1938.452251" class="m" style="stroke-width:22.417620;" />
<line x1="2682.651531" y1="1721.419383" x2="2906.206038" y2="2898.166868" class="m" style="stroke-width:13.361430;" />
<line x1="13000.443916" y1="4592.686065" x2="11405.425404" y2="4700.668253" class="m" style="stroke-width:12.249158;" />
<line x1="11405.425404" y1="4700.668253" x2="12367.555038" y2="5726.548126" class="m" style="stroke-width:12.003574;" />
<line x1="12367.555038" y1="5726.548126" x2="13000.443916" y2="4592.686065" class="m" style="stroke-width:12.693500;" />
<line x1="12367.555038" y1="5726.548126" x2="13856.381818" y2="5595.197323" class="m" style="stroke-width:7.889372;" />
<line x1="13856.381818" y1="5595.197323" x2="13000.443916" y2="4592.686065" class="m" style="stroke-width:14.407814;" />
<line x1="11927.634229" y1="3631.986033" x2="11405.425404" y2="4700.668253" class="m" style="stroke-width:17.804976;" />
<line x1="13000.443916" y1="4592.686065" x2="11927.634229" y2="3631.986033" class="m" style="stroke-width:10.818679;" />
<line x1="11405.425404" y1="4700.668253" x2="11502.427000" y2="6263.530077" class="m" style="stroke-width:12.818435;" />
<line x1="11502.427000" y1="6263.530077" x2="12367.555038" y2="5726.548126" class="m" style="stroke-width:13.208639;" />
<line x1="14244.535016" y1="4212.378695" x2="13000.443916" y2="4592.686065" class="m" style="stroke-width:13.777570;" />
<line x1="13330.833996" y1="3227.370171" x2="13000.443916" y2="4592.686065" class="m" style="stroke-width:10.832359;" />
<line x1="13330.833996" y1="3227.370171" x2="12262.416814" y2="3356.085413" class="m" style="stroke-width:14.177716;" />
<line x1="12262.416814" y1="3356.085413" x2="13000.443916" y2="4592.686065" class="m" style="stroke-width:10.818679;" />
<line x1="11969.897528" y1="2624.886481" x2="12262.416814" y2="3356.085413" class="m" style="stroke-width:17.899482;" />
<line x1="11927.634229" y1="3631.986033" x2="11339.614326" y2="3108.104363" class="m" style="stroke-width:17.899482;" />
<line x1="10787.119282" y1="4564.666667" x2="11927.634229" y2="3631.986033" class="v" style="stroke-width:8.033506;" />
<line x1="10787.119282" y1="4564.666667" x2="11405.425404" y2="4700.668253" class="m" style="stroke-width:21.207308;" />
<line x1="11405.425404" y1="4700.668253" x2="10778.507912" y2="4788.834862" class="m" style="stroke-width:21.207308;" />
<line x1="12864.022819" y1="6354.295701" x2="12367.555038" y2="5726.548126" class="m" style="stroke-width:13.605033;" />
<line x1="12367.555038" y1="5726.548126" x2="11601.463481" y2="6397.293878" class="m" style="stroke-width:13.208639;" />
<line x1="11601.463481" y1="6397.293878" x2="12864.022819" y2="6354.295701" class="v" style="stroke-width:6.237333;" />
<text x="5870.690226" y="8740.725653" transform="rotate(-97.885744 5870.690226 8740.725653)" fill="darkgreen" font-weight="bold" font-size="232.420000">0</text>
<text x="5938.781341" y="8628.312322" transform="rotate(69.662653 5938.781341 8628.312322)" fill="darkgreen" font-weight="bold" font-size="232.420000">0</text>
<text x="7511.879101" y="8612.933057" transform="rotate(-129.118870 7511.879101 8612.933057)" fill="darkgreen" font-weight="bold" font-size="232.420000">4</text>
<text x="7503.259706" y="8490.089819" transform="rotate(38.347714 7503.259706 8490.089819)" fill="darkgreen" font-weight="bold" font-size="232.420000">4</text>
<text x="3572.205932" y="4340.900629" transform="rotate(-147.299590 3572.205932 4340.900629)" fill="darkgreen" font-weight="bold" font-size="232.420000">17</text>
<text x="3487.360306" y="4152.091844" transform="rotate(45.354618 3487.360306 4152.091844)" fill="darkgreen" font-weight="bold" font-size="232.420000">17</text>
<text x="4884.815514" y="2826.872923" transform="rotate(-70.087931 4884.815514 2826.872923)" fill="darkgreen" font-weight="bold" font-size="232.420000">25</text>
<text x="5070.974219" y="2714.658217" transform="rotate(124.101848 5070.974219 2714.658217)" fill="darkgreen" font-weight="bold" font-size="232.420000">25</text>
<text x="8203.902507" y="3489.158109" transform="rotate(-175.549653 8203.902507 3489.158109)" fill="darkgreen" font-weight="bold" font-size="232.420000">30</text>
<text x="6470.675718" y="2604.802412" transform="rotate(-51.776639 6470.675718 2604.802412)" fill="darkgreen" font-weight="bold" font-size="232.420000">30</text>
<text x="8894.471289" y="4368.681378" transform="rotate(136.238831 8894.471289 4368.681378)" fill="darkgreen" font-weight="bold" font-size="232.420000">31</text>
<text x="8200.310047" y="3799.640589" transform="rotate(-38.477545 8200.310047 3799.640589)" fill="darkgreen" font-weight="bold" font-size="232.420000">31</text>
<text x="9395.372528" y="6480.192886" transform="rotate(-164.454149 9395.372528 6480.192886)" fill="darkgreen" font-weight="bold" font-size="232.420000">35</text>
<text x="9225.861721" y="6384.287569" transform="rotate(8.049092 9225.861721 6384.287569)" fill="darkgreen" font-weight="bold" font-size="232.420000">35</text>
<text x="9325.217576" y="7040.341472" transform="rotate(157.082790 9325.217576 7040.341472)" fill="darkgreen" font-weight="bold" font-size="232.420000">38</text>
<text x="9105.575262" y="7025.862348" transform="rotate(-35.206978 9105.575262 7025.862348)" fill="darkgreen" font-weight="bold" font-size="232.420000">38</text>
<text x="6634.967557" y="9524.482389" transform="rotate(40.230004 6634.967557 9524.482389)" fill="darkgreen" font-weight="bold" font-size="232.420000">45</text>
<text x="14920.007165" y="10787.586928" transform="rotate(61.156417 14920.007165 10787.586928)" fill="darkgreen" font-weight="bold" font-size="232.420000">45</text>
<text x="4729.383548" y="8802.718321" transform="rotate(86.005239 4729.383548 8802.718321)" fill="darkgreen" font-weight="bold" font-size="232.420000">49</text>
<text x="4613.436492" y="8986.053902" transform="rotate(-84.095258 4613.436492 8986.053902)" fill="darkgreen" font-weight="bold" font-size="232.420000">49</text>
<text x="2879.541668" y="5315.311369" transform="rotate(-140.837061 2879.541668 5315.311369)" fill="darkgreen" font-weight="bold" font-size="232.420000">54</text>
<text x="2828.524604" y="5104.902796" transform="rotate(50.938151 2828.524604 5104.902796)" fill="darkgreen" font-weight="bold" font-size="232.420000">54</text>
<text x="4980.425238" y="2009.755365" transform="rotate(-107.906183 4980.425238 2009.755365)" fill="darkgreen" font-weight="bold" font-size="232.420000">56</text>
<text x="5332.826209" y="1916.166025" transform="rotate(96.191004 5332.826209 1916.166025)" fill="darkgreen" font-weight="bold" font-size="232.420000">56</text>
<text x="12256.571210" y="673.243037" transform="rotate(113.670344 12256.571210 673.243037)" fill="darkgreen" font-weight="bold" font-size="232.420000">57</text>
<text x="4420.117554" y="2151.465638" transform="rotate(123.776143 4420.117554 2151.465638)" fill="darkgreen" font-weight="bold" font-size="232.420000">57</text>
<text x="9410.681391" y="7962.384470" transform="rotate(-8.203714 9410.681391 7962.384470)" fill="darkgreen" font-weight="bold" font-size="232.420000">59</text>
<text x="10808.377413" y="8091.361372" transform="rotate(112.095405 10808.377413 8091.361372)" fill="darkgreen" font-weight="bold" font-size="232.420000">59</text>
<text x="8208.590762" y="8911.008598" transform="rotate(23.123501 8208.590762 8911.008598)" fill="darkgreen" font-weight="bold" font-size="232.420000">61</text>
<text x="8127.382488" y="9298.111786" transform="rotate(-133.476284 8127.382488 9298.111786)" fill="darkgreen" font-weight="bold" font-size="232.420000">61</text>
<text x="2941.626824" y="7145.178518" transform="rotate(130.513092 2941.626824 7145.178518)" fill="darkgreen" font-weight="bold" font-size="232.420000">64</text>
<text x="2730.927378" y="7194.784240" transform="rotate(-39.351130 2730.927378 7194.784240)" fill="darkgreen" font-weight="bold" font-size="232.420000">64</text>
<text x="3050.663866" y="3319.752911" transform="rotate(71.085806 3050.663866 3319.752911)" fill="darkgreen" font-weight="bold" font-size="232.420000">67</text>
<text x="2846.786181" y="3724.738653" transform="rotate(-130.795805 2846.786181 3724.738653)" fill="darkgreen" font-weight="bold" font-size="232.420000">67</text>
<text x="3581.186618" y="2500.854485" transform="rotate(-128.148001 3581.186618 2500.854485)" fill="darkgreen" font-weight="bold" font-size="232.420000">69</text>
<text x="12984.197040" y="569.533257" transform="rotate(-127.213328 12984.197040 569.533257)" fill="darkgreen" font-weight="bold" font-size="232.420000">69</text>
<text x="6486.503341" y="1554.807413" transform="rotate(-116.924725 6486.503341 1554.807413)" fill="darkgreen" font-weight="bold" font-size="232.420000">70</text>
<text x="10655.164902" y="3265.256351" transform="rotate(167.068804 10655.164902 3265.256351)" fill="darkgreen" font-weight="bold" font-size="232.420000">70</text>
<text x="11921.399582" y="1978.125200" transform="rotate(85.711648 11921.399582 1978.125200)" fill="darkgreen" font-weight="bold" font-size="232.420000">71</text>
<text x="5785.235946" y="1115.864926" transform="rotate(130.274627 5785.235946 1115.864926)" fill="darkgreen" font-weight="bold" font-size="232.420000">71</text>
<text x="10225.871748" y="3945.458877" transform="rotate(47.810958 10225.871748 3945.458877)" fill="darkgreen" font-weight="bold" font-size="232.420000">73</text>
<text x="9913.537604" y="4317.208771" transform="rotate(-170.734311 9913.537604 4317.208771)" fill="darkgreen" font-weight="bold" font-size="232.420000">73</text>
<text x="9874.082595" y="4977.436039" transform="rotate(-39.219961 9874.082595 4977.436039)" fill="darkgreen" font-weight="bold" font-size="232.420000">74</text>
<text x="10143.199456" y="5065.082512" transform="rotate(156.499410 10143.199456 5065.082512)" fill="darkgreen" font-weight="bold" font-size="232.420000">74</text>
<text x="11092.424901" y="8542.951061" transform="rotate(-23.601238 11092.424901 8542.951061)" fill="darkgreen" font-weight="bold" font-size="232.420000">77</text>
<text x="9400.979319" y="8629.141906" transform="rotate(-133.406996 9400.979319 8629.141906)" fill="darkgreen" font-weight="bold" font-size="232.420000">77</text>
<text x="15561.468684" y="10953.566734" transform="rotate(-70.305180 15561.468684 10953.566734)" fill="darkgreen" font-weight="bold" font-size="232.420000">78</text>
<text x="5559.979679" y="9866.367723" transform="rotate(-63.992935 5559.979679 9866.367723)" fill="darkgreen" font-weight="bold" font-size="232.420000">78</text>
<text x="4984.686070" y="9914.768486" transform="rotate(61.006885 4984.686070 9914.768486)" fill="darkgreen" font-weight="bold" font-size="232.420000">80</text>
<text x="4702.527271" y="10131.418661" transform="rotate(-104.037813 4702.527271 10131.418661)" fill="darkgreen" font-weight="bold" font-size="232.420000">80</text>
<text x="1865.876873" y="5017.435056" transform="rotate(168.260560 1865.876873 5017.435056)" fill="darkgreen" font-weight="bold" font-size="232.420000">82</text>
<text x="17729.816262" y="1322.150962" transform="rotate(-62.964634 17729.816262 1322.150962)" fill="darkgreen" font-weight="bold" font-size="232.420000">82</text>
<text x="18310.794372" y="1675.064112" transform="rotate(171.903857 18310.794372 1675.064112)" fill="darkgreen" font-weight="bold" font-size="232.420000">83</text>
<text x="1685.311934" y="5543.822642" transform="rotate(36.369978 1685.311934 5543.822642)" fill="darkgreen" font-weight="bold" font-size="232.420000">83</text>
<text x="17805.670235" y="766.045190" transform="rotate(162.318265 17805.670235 766.045190)" fill="darkgreen" font-weight="bold" font-size="232.420000">84</text>
<text x="2236.754011" y="4424.624892" transform="rotate(46.982496 2236.754011 4424.624892)" fill="darkgreen" font-weight="bold" font-size="232.420000">84</text>
<text x="13425.427044" y="1357.566921" transform="rotate(122.628751 13425.427044 1357.566921)" fill="darkgreen" font-weight="bold" font-size="232.420000">89</text>
<text x="13103.514462" y="1512.025173" transform="rotate(-68.929816 13103.514462 1512.025173)" fill="darkgreen" font-weight="bold" font-size="232.420000">89</text>
<text x="10542.038226" y="6372.621506" transform="rotate(-6.480502 10542.038226 6372.621506)" fill="darkgreen" font-weight="bold" font-size="232.420000">91</text>
<text x="10722.180790" y="7268.415926" transform="rotate(-151.644319 10722.180790 7268.415926)" fill="darkgreen" font-weight="bold" font-size="232.420000">91</text>
<text x="10692.077071" y="7762.669217" transform="rotate(-9.772007 10692.077071 7762.669217)" fill="darkgreen" font-weight="bold" font-size="232.420000">92</text>
<text x="11355.469692" y="6916.825890" transform="rotate(117.229373 11355.469692 6916.825890)" fill="darkgreen" font-weight="bold" font-size="232.420000">92</text>
<text x="11865.524681" y="8729.432151" transform="rotate(96.168620 11865.524681 8729.432151)" fill="darkgreen" font-weight="bold" font-size="232.420000">93</text>
<text x="9198.759663" y="9117.836574" transform="rotate(-3.484938 9198.759663 9117.836574)" fill="darkgreen" font-weight="bold" font-size="232.420000">93</text>
<text x="15611.698198" y="9806.041129" transform="rotate(-121.964679 15611.698198 9806.041129)" fill="darkgreen" font-weight="bold" font-size="232.420000">95</text>
<text x="15911.622763" y="9301.636351" transform="rotate(34.235048 15911.622763 9301.636351)" fill="darkgreen" font-weight="bold" font-size="232.420000">95</text>
<text x="1916.046061" y="6417.401607" transform="rotate(138.819588 1916.046061 6417.401607)" fill="darkgreen" font-weight="bold" font-size="232.420000">97</text>
<text x="18785.582619" y="2333.403388" transform="rotate(-77.810551 18785.582619 2333.403388)" fill="darkgreen" font-weight="bold" font-size="232.420000">97</text>
<text x="1747.370695" y="7180.171748" transform="rotate(32.339539 1747.370695 7180.171748)" fill="darkgreen" font-weight="bold" font-size="232.420000">98</text>
<text x="19486.395022" y="4196.424074" transform="rotate(-152.546130 19486.395022 4196.424074)" fill="darkgreen" font-weight="bold" font-size="232.420000">98</text>
<text x="12320.957052" y="7744.400458" transform="rotate(126.850001 12320.957052 7744.400458)" fill="darkgreen" font-weight="bold" font-size="232.420000">102</text>
<text x="12101.973767" y="7924.670882" transform="rotate(-47.484835 12101.973767 7924.670882)" fill="darkgreen" font-weight="bold" font-size="232.420000">102</text>
<text x="18395.442147" y="3730.260215" transform="rotate(-162.398276 18395.442147 3730.260215)" fill="darkgreen" font-weight="bold" font-size="232.420000">106</text>
<text x="17869.646714" y="3009.047480" transform="rotate(-7.786621 17869.646714 3009.047480)" fill="darkgreen" font-weight="bold" font-size="232.420000">106</text>
<text x="2909.277517" y="1495.632847" transform="rotate(-117.464430 2909.277517 1495.632847)" fill="darkgreen" font-weight="bold" font-size="232.420000">108</text>
<text x="13925.704427" y="1761.934679" transform="rotate(-112.639436 13925.704427 1761.934679)" fill="darkgreen" font-weight="bold" font-size="232.420000">108</text>
<text x="13207.243312" y="2389.633558" transform="rotate(81.607726 13207.243312 2389.633558)" fill="darkgreen" font-weight="bold" font-size="232.420000">110</text>
<text x="13185.833409" y="2678.293287" transform="rotate(-104.792992 13185.833409 2678.293287)" fill="darkgreen" font-weight="bold" font-size="232.420000">110</text>
<text x="17102.853489" y="7856.734761" transform="rotate(-4.424994 17102.853489 7856.734761)" fill="darkgreen" font-weight="bold" font-size="232.420000">112</text>
<text x="3384.034787" y="10791.401473" transform="rotate(66.929710 3384.034787 10791.401473)" fill="darkgreen" font-weight="bold" font-size="232.420000">112</text>
<text x="16355.721952" y="9032.601539" transform="rotate(-96.233619 16355.721952 9032.601539)" fill="darkgreen" font-weight="bold" font-size="232.420000">113</text>
<text x="4173.213170" y="11179.513614" transform="rotate(-45.461326 4173.213170 11179.513614)" fill="darkgreen" font-weight="bold" font-size="232.420000">113</text>
<text x="12093.371951" y="6380.541266" transform="rotate(-1.950532 12093.371951 6380.541266)" fill="darkgreen" font-weight="bold" font-size="232.420000">119</text>
<text x="12372.838657" y="6385.803013" transform="rotate(176.329745 12372.838657 6385.803013)" fill="darkgreen" font-weight="bold" font-size="232.420000">119</text>
<text x="18004.616201" y="5192.972758" transform="rotate(-167.425953 18004.616201 5192.972758)" fill="darkgreen" font-weight="bold" font-size="232.420000">121</text>
<text x="17736.185327" y="5112.052990" transform="rotate(8.642608 17736.185327 5112.052990)" fill="darkgreen" font-weight="bold" font-size="232.420000">121</text>
<text x="16087.852557" y="7396.106438" transform="rotate(52.317253 16087.852557 7396.106438)" fill="darkgreen" font-weight="bold" font-size="232.420000">128</text>
<text x="16193.581614" y="7660.831335" transform="rotate(-120.700363 16193.581614 7660.831335)" fill="darkgreen" font-weight="bold" font-size="232.420000">128</text>
<text x="17231.372724" y="3729.660655" transform="rotate(148.919614 17231.372724 3729.660655)" fill="darkgreen" font-weight="bold" font-size="232.420000">130</text>
<text x="16844.235064" y="3626.903437" transform="rotate(-47.106704 16844.235064 3626.903437)" fill="darkgreen" font-weight="bold" font-size="232.420000">130</text>
<text x="14783.780721" y="3457.482486" transform="rotate(125.539386 14783.780721 3457.482486)" fill="darkgreen" font-weight="bold" font-size="232.420000">131</text>
<text x="14533.045606" y="3631.244699" transform="rotate(-63.597373 14533.045606 3631.244699)" fill="darkgreen" font-weight="bold" font-size="232.420000">131</text>
<text x="13553.305787" y="6619.401655" transform="rotate(-73.515792 13553.305787 6619.401655)" fill="darkgreen" font-weight="bold" font-size="232.420000">134</text>
<text x="13796.983396" y="6382.160479" transform="rotate(94.316383 13796.983396 6382.160479)" fill="darkgreen" font-weight="bold" font-size="232.420000">134</text>
<text x="16897.553666" y="5885.236675" transform="rotate(25.993640 16897.553666 5885.236675)" fill="darkgreen" font-weight="bold" font-size="232.420000">137</text>
<text x="16985.716153" y="6433.539345" transform="rotate(-134.234465 16985.716153 6433.539345)" fill="darkgreen" font-weight="bold" font-size="232.420000">137</text>
<text x="15990.271698" y="4269.414626" transform="rotate(-29.235005 15990.271698 4269.414626)" fill="darkgreen" font-weight="bold" font-size="232.420000">144</text>
<text x="16276.358800" y="4227.336406" transform="rotate(160.428330 16276.358800 4227.336406)" fill="darkgreen" font-weight="bold" font-size="232.420000">144</text>
<text x="16053.020646" y="5840.342147" transform="rotate(-170.022650 16053.020646 5840.342147)" fill="darkgreen" font-weight="bold" font-size="232.420000">145</text>
<text x="15784.804831" y="5706.824789" transform="rotate(-1.291333 15784.804831 5706.824789)" fill="darkgreen" font-weight="bold" font-size="232.420000">145</text>
<text x="6054.020198" y="8205.919284" transform="rotate(33.114963 6054.020198 8205.919284)" fill="darkgreen" font-weight="bold" font-size="232.420000">155</text>
<text x="6408.753933" y="7851.411404" transform="rotate(173.765201 6408.753933 7851.411404)" fill="darkgreen" font-weight="bold" font-size="232.420000">155</text>
<text x="4690.453932" y="7224.751059" transform="rotate(-30.277713 4690.453932 7224.751059)" fill="darkgreen" font-weight="bold" font-size="232.420000">162</text>
<text x="4967.248286" y="7167.651664" transform="rotate(163.718173 4967.248286 7167.651664)" fill="darkgreen" font-weight="bold" font-size="232.420000">162</text>
<text x="4006.641811" y="5911.703957" transform="rotate(-0.935370 4006.641811 5911.703957)" fill="darkgreen" font-weight="bold" font-size="232.420000">166</text>
<text x="4279.793132" y="5977.402922" transform="rotate(-169.762241 4279.793132 5977.402922)" fill="darkgreen" font-weight="bold" font-size="232.420000">166</text>
<text x="8033.382381" y="7681.980878" transform="rotate(-28.132085 8033.382381 7681.980878)" fill="darkgreen" font-weight="bold" font-size="232.420000">177</text>
<text x="8270.923332" y="7535.221990" transform="rotate(150.369643 8270.923332 7535.221990)" fill="darkgreen" font-weight="bold" font-size="232.420000">177</text>
<text x="6625.718155" y="8288.275784" transform="rotate(-102.670672 6625.718155 8288.275784)" fill="darkgreen" font-weight="bold" font-size="232.420000">182</text>
<text x="6339.555249" y="7516.320523" transform="rotate(26.619610 6339.555249 7516.320523)" fill="darkgreen" font-weight="bold" font-size="232.420000">182</text>
<text x="5262.025773" y="6430.993840" transform="rotate(-67.623791 5262.025773 6430.993840)" fill="darkgreen" font-weight="bold" font-size="232.420000">190</text>
<text x="3437.563726" y="6757.020159" transform="rotate(122.541263 3437.563726 6757.020159)" fill="darkgreen" font-weight="bold" font-size="232.420000">190</text>
<text x="2991.669532" y="6123.224554" transform="rotate(5.843188 2991.669532 6123.224554)" fill="darkgreen" font-weight="bold" font-size="232.420000">191</text>
<text x="5121.656579" y="5735.151546" transform="rotate(161.316771 5121.656579 5735.151546)" fill="darkgreen" font-weight="bold" font-size="232.420000">191</text>
<text x="6389.668052" y="7247.448192" transform="rotate(-102.931369 6389.668052 7247.448192)" fill="darkgreen" font-weight="bold" font-size="232.420000">192</text>
<text x="4350.281775" y="7660.944160" transform="rotate(71.860284 4350.281775 7660.944160)" fill="darkgreen" font-weight="bold" font-size="232.420000">192</text>
<text x="3438.622648" y="7425.769443" transform="rotate(-13.244549 3438.622648 7425.769443)" fill="darkgreen" font-weight="bold" font-size="232.420000">193</text>
<text x="5767.696389" y="6781.235022" transform="rotate(153.112897 5767.696389 6781.235022)" fill="darkgreen" font-weight="bold" font-size="232.420000">193</text>
<text x="4301.138853" y="4838.328493" transform="rotate(87.110749 4301.138853 4838.328493)" fill="darkgreen" font-weight="bold" font-size="232.420000">198</text>
<text x="4043.354738" y="5238.066499" transform="rotate(-135.165792 4043.354738 5238.066499)" fill="darkgreen" font-weight="bold" font-size="232.420000">198</text>
<text x="4676.631132" y="5664.268790" transform="rotate(-38.100628 4676.631132 5664.268790)" fill="darkgreen" font-weight="bold" font-size="232.420000">199</text>
<text x="3039.534490" y="5714.918823" transform="rotate(148.020559 3039.534490 5714.918823)" fill="darkgreen" font-weight="bold" font-size="232.420000">199</text>
<text x="2831.293270" y="5125.429135" transform="rotate(35.275976 2831.293270 5125.429135)" fill="darkgreen" font-weight="bold" font-size="232.420000">200</text>
<text x="4846.970500" y="5112.703775" transform="rotate(-158.882276 4846.970500 5112.703775)" fill="darkgreen" font-weight="bold" font-size="232.420000">200</text>
<text x="6339.906010" y="6605.954355" transform="rotate(-163.227287 6339.906010 6605.954355)" fill="darkgreen" font-weight="bold" font-size="232.420000">204</text>
<text x="5593.545504" y="7618.036129" transform="rotate(29.173248 5593.545504 7618.036129)" fill="darkgreen" font-weight="bold" font-size="232.420000">204</text>
<text x="4763.689734" y="7961.647674" transform="rotate(-63.575315 4763.689734 7961.647674)" fill="darkgreen" font-weight="bold" font-size="232.420000">206</text>
<text x="5703.202420" y="6733.621777" transform="rotate(62.620730 5703.202420 6733.621777)" fill="darkgreen" font-weight="bold" font-size="232.420000">206</text>
<text x="6292.003828" y="4113.767154" transform="rotate(164.718437 6292.003828 4113.767154)" fill="darkgreen" font-weight="bold" font-size="232.420000">212</text>
<text x="5851.705846" y="3938.098224" transform="rotate(-53.718562 5851.705846 3938.098224)" fill="darkgreen" font-weight="bold" font-size="232.420000">212</text>
<text x="7729.123721" y="5273.966351" transform="rotate(-158.879162 7729.123721 5273.966351)" fill="darkgreen" font-weight="bold" font-size="232.420000">215</text>
<text x="7422.067298" y="4974.415633" transform="rotate(-19.132858 7422.067298 4974.415633)" fill="darkgreen" font-weight="bold" font-size="232.420000">215</text>
<text x="7417.879329" y="6085.556359" transform="rotate(164.409403 7417.879329 6085.556359)" fill="darkgreen" font-weight="bold" font-size="232.420000">219</text>
<text x="7226.399079" y="6922.698523" transform="rotate(-36.374651 7226.399079 6922.698523)" fill="darkgreen" font-weight="bold" font-size="232.420000">219</text>
<text x="7175.469375" y="7599.705535" transform="rotate(-123.918872 7175.469375 7599.705535)" fill="darkgreen" font-weight="bold" font-size="232.420000">220</text>
<text x="6942.230004" y="6402.846050" transform="rotate(33.158799 6942.230004 6402.846050)" fill="darkgreen" font-weight="bold" font-size="232.420000">220</text>
<text x="7126.377071" y="6937.125975" transform="rotate(134.415224 7126.377071 6937.125975)" fill="darkgreen" font-weight="bold" font-size="232.420000">222</text>
<text x="6695.190077" y="7953.801135" transform="rotate(-14.459654 6695.190077 7953.801135)" fill="darkgreen" font-weight="bold" font-size="232.420000">222</text>
<text x="4385.743645" y="3683.727339" transform="rotate(98.080179 4385.743645 3683.727339)" fill="darkgreen" font-weight="bold" font-size="232.420000">223</text>
<text x="5005.603486" y="4576.139153" transform="rotate(-124.336523 5005.603486 4576.139153)" fill="darkgreen" font-weight="bold" font-size="232.420000">223</text>
<text x="4800.856558" y="4112.337173" transform="rotate(35.457266 4800.856558 4112.337173)" fill="darkgreen" font-weight="bold" font-size="232.420000">224</text>
<text x="4852.687334" y="3589.464554" transform="rotate(-137.125382 4852.687334 3589.464554)" fill="darkgreen" font-weight="bold" font-size="232.420000">224</text>
<text x="4611.529155" y="4907.560026" transform="rotate(4.981156 4611.529155 4907.560026)" fill="darkgreen" font-weight="bold" font-size="232.420000">225</text>
<text x="3173.759461" y="4806.872759" transform="rotate(171.538863 3173.759461 4806.872759)" fill="darkgreen" font-weight="bold" font-size="232.420000">225</text>
<text x="7477.966729" y="3316.238823" transform="rotate(-145.124026 7477.966729 3316.238823)" fill="darkgreen" font-weight="bold" font-size="232.420000">226</text>
<text x="6355.768641" y="3123.938472" transform="rotate(-72.937316 6355.768641 3123.938472)" fill="darkgreen" font-weight="bold" font-size="232.420000">226</text>
<text x="5673.080513" y="3772.989242" transform="rotate(-56.973639 5673.080513 3772.989242)" fill="darkgreen" font-weight="bold" font-size="232.420000">227</text>
<text x="5886.975189" y="3119.307401" transform="rotate(142.094312 5886.975189 3119.307401)" fill="darkgreen" font-weight="bold" font-size="232.420000">227</text>
<text x="7194.825823" y="3245.366938" transform="rotate(58.672565 7194.825823 3245.366938)" fill="darkgreen" font-weight="bold" font-size="232.420000">228</text>
<text x="7234.118228" y="3797.107768" transform="rotate(158.597613 7234.118228 3797.107768)" fill="darkgreen" font-weight="bold" font-size="232.420000">228</text>
<text x="8340.138639" y="4878.463386" transform="rotate(139.163483 8340.138639 4878.463386)" fill="darkgreen" font-weight="bold" font-size="232.420000">230</text>
<text x="7890.471447" y="4535.731445" transform="rotate(-80.098465 7890.471447 4535.731445)" fill="darkgreen" font-weight="bold" font-size="232.420000">230</text>
<text x="8346.462448" y="5440.435688" transform="rotate(-166.956006 8346.462448 5440.435688)" fill="darkgreen" font-weight="bold" font-size="232.420000">231</text>
<text x="8090.685367" y="5323.439829" transform="rotate(19.801544 8090.685367 5323.439829)" fill="darkgreen" font-weight="bold" font-size="232.420000">231</text>
<text x="8324.231414" y="6184.457191" transform="rotate(-157.090157 8324.231414 6184.457191)" fill="darkgreen" font-weight="bold" font-size="232.420000">233</text>
<text x="8044.896994" y="6435.781445" transform="rotate(-15.777076 8044.896994 6435.781445)" fill="darkgreen" font-weight="bold" font-size="232.420000">233</text>
<text x="7455.805443" y="7192.782529" transform="rotate(-142.883399 7455.805443 7192.782529)" fill="darkgreen" font-weight="bold" font-size="232.420000">236</text>
<text x="7094.411866" y="7408.168571" transform="rotate(2.709809 7094.411866 7408.168571)" fill="darkgreen" font-weight="bold" font-size="232.420000">236</text>
<text x="6718.775945" y="5426.362896" transform="rotate(152.507542 6718.775945 5426.362896)" fill="darkgreen" font-weight="bold" font-size="232.420000">242</text>
<text x="6451.135179" y="5518.986536" transform="rotate(-31.009171 6451.135179 5518.986536)" fill="darkgreen" font-weight="bold" font-size="232.420000">242</text>
<text x="1912.845367" y="8206.185819" transform="rotate(137.593330 1912.845367 8206.185819)" fill="darkgreen" font-weight="bold" font-size="232.420000">248</text>
<text x="18986.047941" y="4869.910104" transform="rotate(-25.892505 18986.047941 4869.910104)" fill="darkgreen" font-weight="bold" font-size="232.420000">248</text>
<text x="19209.205875" y="5740.621365" transform="rotate(-152.126831 19209.205875 5740.621365)" fill="darkgreen" font-weight="bold" font-size="232.420000">249</text>
<text x="1891.410326" y="8768.236360" transform="rotate(-10.269552 1891.410326 8768.236360)" fill="darkgreen" font-weight="bold" font-size="232.420000">249</text>
<text x="17978.824734" y="6428.874781" transform="rotate(27.727425 17978.824734 6428.874781)" fill="darkgreen" font-weight="bold" font-size="232.420000">252</text>
<text x="17727.809014" y="7384.435347" transform="rotate(-124.346516 17727.809014 7384.435347)" fill="darkgreen" font-weight="bold" font-size="232.420000">252</text>
<text x="3008.781865" y="9252.726498" transform="rotate(90.391684 3008.781865 9252.726498)" fill="darkgreen" font-weight="bold" font-size="232.420000">253</text>
<text x="19144.909119" y="6508.073629" transform="rotate(-29.645247 19144.909119 6508.073629)" fill="darkgreen" font-weight="bold" font-size="232.420000">253</text>
<text x="3633.201508" y="9594.483887" transform="rotate(128.395424 3633.201508 9594.483887)" fill="darkgreen" font-weight="bold" font-size="232.420000">254</text>
<text x="3377.194873" y="9737.369499" transform="rotate(-43.511131 3377.194873 9737.369499)" fill="darkgreen" font-weight="bold" font-size="232.420000">254</text>
<text x="3538.073051" y="8110.088083" transform="rotate(132.092090 3538.073051 8110.088083)" fill="darkgreen" font-weight="bold" font-size="232.420000">256</text>
<text x="3286.741805" y="8251.665328" transform="rotate(-41.197157 3286.741805 8251.665328)" fill="darkgreen" font-weight="bold" font-size="232.420000">256</text>
<text x="7858.953411" y="10321.302341" transform="rotate(22.463061 7858.953411 10321.302341)" fill="darkgreen" font-weight="bold" font-size="232.420000">258</text>
<text x="14065.833217" y="9473.597941" transform="rotate(53.657882 14065.833217 9473.597941)" fill="darkgreen" font-weight="bold" font-size="232.420000">258</text>
<text x="15004.943674" y="8563.546598" transform="rotate(42.022635 15004.943674 8563.546598)" fill="darkgreen" font-weight="bold" font-size="232.420000">259</text>
<text x="15045.926731" y="8887.680851" transform="rotate(-121.193530 15045.926731 8887.680851)" fill="darkgreen" font-weight="bold" font-size="232.420000">259</text>
<text x="15670.573621" y="7651.006773" transform="rotate(-140.328198 15670.573621 7651.006773)" fill="darkgreen" font-weight="bold" font-size="232.420000">262</text>
<text x="15507.205830" y="7403.432160" transform="rotate(33.181546 15507.205830 7403.432160)" fill="darkgreen" font-weight="bold" font-size="232.420000">262</text>
<text x="12982.362189" y="8219.767627" transform="rotate(-67.640696 12982.362189 8219.767627)" fill="darkgreen" font-weight="bold" font-size="232.420000">265</text>
<text x="13714.722915" y="8080.513066" transform="rotate(90.169242 13714.722915 8080.513066)" fill="darkgreen" font-weight="bold" font-size="232.420000">265</text>
<text x="8571.863108" y="10261.044136" transform="rotate(-103.739632 8571.863108 10261.044136)" fill="darkgreen" font-weight="bold" font-size="232.420000">268</text>
<text x="12149.181044" y="9150.538799" transform="rotate(-30.228379 12149.181044 9150.538799)" fill="darkgreen" font-weight="bold" font-size="232.420000">268</text>
<text x="16028.845820" y="2237.406315" transform="rotate(-91.165457 16028.845820 2237.406315)" fill="darkgreen" font-weight="bold" font-size="232.420000">272</text>
<text x="16188.748151" y="1974.765673" transform="rotate(102.345489 16188.748151 1974.765673)" fill="darkgreen" font-weight="bold" font-size="232.420000">272</text>
<text x="1497.013532" y="3693.880628" transform="rotate(43.869539 1497.013532 3693.880628)" fill="darkgreen" font-weight="bold" font-size="232.420000">273</text>
<text x="16950.078105" y="1157.723416" transform="rotate(149.235296 16950.078105 1157.723416)" fill="darkgreen" font-weight="bold" font-size="232.420000">273</text>
<text x="471.405163" y="2655.874685" transform="rotate(46.113922 471.405163 2655.874685)" fill="darkgreen" font-weight="bold" font-size="232.420000">276</text>
<text x="15660.312491" y="2110.923632" transform="rotate(121.385715 15660.312491 2110.923632)" fill="darkgreen" font-weight="bold" font-size="232.420000">276</text>
<text x="14588.831421" y="2170.139772" transform="rotate(-119.515139 14588.831421 2170.139772)" fill="darkgreen" font-weight="bold" font-size="232.420000">278</text>
<text x="1000.740053" y="2233.616411" transform="rotate(-176.121709 1000.740053 2233.616411)" fill="darkgreen" font-weight="bold" font-size="232.420000">278</text>
<text x="2596.651577" y="1125.358234" transform="rotate(81.789992 2596.651577 1125.358234)" fill="darkgreen" font-weight="bold" font-size="232.420000">279</text>
<text x="14102.761140" y="1620.499666" transform="rotate(88.568108 14102.761140 1620.499666)" fill="darkgreen" font-weight="bold" font-size="232.420000">279</text>
<text x="2161.440359" y="2876.831865" transform="rotate(-126.407245 2161.440359 2876.831865)" fill="darkgreen" font-weight="bold" font-size="232.420000">281</text>
<text x="2768.401676" y="2172.791483" transform="rotate(79.243322 2768.401676 2172.791483)" fill="darkgreen" font-weight="bold" font-size="232.420000">281</text>
<text x="12567.925108" y="4205.365893" transform="rotate(-138.155578 12567.925108 4205.365893)" fill="darkgreen" font-weight="bold" font-size="232.420000">289</text>
<text x="12559.963160" y="3854.638927" transform="rotate(59.170430 12559.963160 3854.638927)" fill="darkgreen" font-weight="bold" font-size="232.420000">289</text>
<text x="11816.507362" y="6068.581493" transform="rotate(-31.827728 11816.507362 6068.581493)" fill="darkgreen" font-weight="bold" font-size="232.420000">292</text>
<text x="12089.429370" y="5970.058981" transform="rotate(138.796466 12089.429370 5970.058981)" fill="darkgreen" font-weight="bold" font-size="232.420000">292</text>
<text x="12064.359936" y="2861.010441" transform="rotate(68.195904 12064.359936 2861.010441)" fill="darkgreen" font-weight="bold" font-size="232.420000">296</text>
<text x="11737.746660" y="3462.810438" transform="rotate(-138.301348 11737.746660 3462.810438)" fill="darkgreen" font-weight="bold" font-size="232.420000">296</text>
<text x="10960.076128" y="4602.709967" transform="rotate(12.405141 10960.076128 4602.709967)" fill="darkgreen" font-weight="bold" font-size="232.420000">298</text>
<text x="11230.059726" y="4725.330824" transform="rotate(171.994694 11230.059726 4725.330824)" fill="darkgreen" font-weight="bold" font-size="232.420000">298</text>
</svg>
