<?xml version="1.0"?>
<svg width="9804" height="13098" version="1.1" xmlns="http://www.w3.org/2000/svg" >
<defs>
<style type="text/css"><![CDATA[
.m {stroke:rgb(255,0,0);stroke-width:16.372500;}
.v {stroke:rgb(0,0,255);stroke-width:16.372500;}
.b {stroke:rgb(0,0,0);stroke-width:32.745000;fill:white}
.n {stroke:rgb(128,128,128);stroke-width:16.372500}
.t {stroke:rgb(0,128,0);stroke-width:16.372500;}
.c {stroke:rgb(128,128,128);stroke-width:16.372500;stroke-dasharray:98.040000, 98.040000;}
]]></style>
</defs>
<path fill="none" style="stroke:black;stroke-width:32.745000;" d=" M 6494.33 1568.44 L 6369.74 1406.38 M 1890.6 5139.38 L 2960.2 4629.66 M 2098.99 4584.82 L 1890.6 5139.38 M 8454.69 2085.21 L 8416.49 1342.16 M 8416.49 1342.16 L 7753.88 1942.89 M 2266.74 3583.69 L 2567.46 3157.88 M 2526.3 2815.04 L 2266.74 3583.69 M 7262.63 2866.42 L 7163.3 3175.25 M 2098.76 3737.17 L 2870.29 3873.88 M 7136.47 1269.8 L 7084.34 1331.61 M 7084.34 1331.61 L 7151.97 1265.89 M 7151.97 1265.89 L 7136.47 1269.8 M 7136.47 1269.8 L 7084.34 1331.61 M 7084.34 1331.61 L 7151.97 1265.89 M 7151.97 1265.89 L 7136.47 1269.8 M 4911.69 3542.45 L 5473.76 3027.69 M 1812.26 4794.57 L 1538.09 4962.42 M 4480.52 3197.06 L 4527.48 3040.24 M 5442.45 3181.66 L 6126.7 3036.21 M 2550.98 4750.44 L 3518.37 4716.93 M 4385.93 3445.27 L 3623.72 3564.4 M 5351.64 8511.92 L 2992 9473.27 M 2992 9473.27 L 4674.46 9120.67 M 5526.07 1479.84 L 5189.28 3054.72 M 5017.53 61.7593 L 5526.07 1479.84 M 5885.28 2448.29 L 5017.53 61.7593 M 3655.53 5031.06 L 4165.75 5097.49 M 4165.75 5097.49 L 3877.24 4643.84 M 6305.84 226.335 L 4787.51 763.289 M 5415.64 841.377 L 6305.84 226.335 M 2492.23 2231.8 L 1876.28 2287.62 M 1447.27 2910.35 L 1554.97 3165.14 M 1871.11 2860.24 L 1447.27 2910.35 M 4562.58 570.492 L 4582.67 816.099 M 2435.87 3274.4 L 2577.84 3591.63 M 7904.5 9402.19 L 7712.46 9197.73 M 6231.61 8990.84 L 7904.5 9402.19 M 4118.85 1245.46 L 3847.85 1441.31 M 2501.99 4353.67 L 2134.08 4211.6 M 2134.08 4211.6 L 2323.51 4651.42 M 6618.72 8261.87 L 6632.7 8634.68 M 2988.99 11776.9 L 3782.08 11096.9 M 6098.87 2685.69 L 4346.55 4180.05 M 4346.53 4179.77 L 5917.51 2495.8 M 4346.55 4180.05 L 3888.41 4205.74 M 3191.48 1869.24 L 3160.96 1717.15 M 7035.43 3097.98 L 7262.63 2866.42 M 7307.69 2689.71 L 7338.6 2488.39 M 2577.84 3591.63 L 2725.41 3996.88 M 2430.7 3578.45 L 2182.02 3766.22 M 2182.02 3766.22 L 2833.94 3790.15 M 3125.74 5159.44 L 3682.48 4412.8 M 3682.48 4412.8 L 2989.27 4840.14 M 2960.2 4629.66 L 3036.71 3849.86 M 3036.71 3849.86 L 2326.48 4507.54 M 5388.86 1926.11 L 5863 1550.56 M 5216.52 2034.43 L 5180.18 1922.8 M 7163.3 3175.25 L 6980.03 3614.65 M 6980.03 3614.65 L 7260.73 3206.14 M 5156.26 8885.98 L 4376.17 9366.04 M 5876.16 3234.66 L 5973.9 3521.38 M 5973.9 3521.38 L 6066.1 3024.12 M 4618.35 4810.73 L 6013.28 3526.83 M 6013.28 3526.83 L 4524.25 4688.49 M 4683.63 9122.62 L 5453.96 8627.06 M 3764.12 3249.82 L 4034.18 3205.24 M 3892.86 1717.07 L 3454.85 2102.43 M 1992.63 4649.43 L 1668.98 4721.52 M 1668.98 4721.52 L 1986.92 5104.27 M 2318.53 4665.98 L 2082.57 5114.36 M 2082.57 5114.36 L 2358.22 5000.64 M 2296.35 4014.02 L 2173.18 4415.03 M 4737.02 1527.13 L 4412.28 1424.8 M 4234.53 1999.69 L 4199.94 1587.39 M 6853.07 1173.94 L 6847.91 1296.73 M 7189.13 8148.33 L 9691.63 8579.64 M 2842.57 4245.08 L 2743.84 3991.35 M 5325.95 1649.5 L 5291.18 1907.65 M 5291.18 1907.65 L 5766.07 1540.3 M 4034.18 3205.24 L 4103.52 3046.76 M 2882.98 2381.8 L 2988.94 1931.95 M 2911.22 2133.02 L 2882.98 2381.8 M 2162.23 2221.14 L 2241.36 2031.88 M 2241.36 2031.88 L 2054.32 2046.71 M 9244.72 8116.92 L 8255.57 7779.56 M 4892.44 972.698 L 4629.66 1086.47 M 4918.88 1307.56 L 4892.44 972.698 M 2197.59 1596.72 L 2199.13 1758.26 M 868.575 2578.46 L 1077.99 2438.5 M 1004.48 2113.2 L 868.575 2578.46 M 5519.84 1501.08 L 5069.08 1412.69 M 5069.08 1412.69 L 5388.86 1926.11 M 2229.33 2000.85 L 2216.79 2162.85 M 2216.79 2162.85 L 2372.42 2058.04 M 2096.29 1828.78 L 1867.56 1837.88 M 2975.14 3155.92 L 2539.84 3522.91 M 2897.9 3553.65 L 2975.14 3155.92 M 2088.54 4650.58 L 1992.63 4649.43 M 5739.44 2320.49 L 5966.9 2800.5 M 3522.94 2354.41 L 3261.04 1843.92 M 3152.5 2071.11 L 3522.94 2354.41 M 1448.49 3749.85 L 1304.41 3683.6 M 3738.96 3453.74 L 3928.24 2517.12 M 3928.24 2517.12 L 3591.88 2740.91 M 5632.95 9132.25 L 5623.92 9123.56 M 6099.68 2074.68 L 6495.04 2082.36 M 6495.04 2082.36 L 6414.78 2067.97 M 5024.4 675.361 L 5048.66 197.998 M 5048.66 197.998 L 4562.58 570.492 M 3697.28 3113.77 L 3597.27 3450.63 M 5174.88 1861.7 L 5325.95 1649.5 M 4667.23 5480.26 L 4803.76 5404.36 M 7508.72 4723.97 L 7839.87 4885.91 M 1641.87 4967.13 L 1669.52 4935.44 M 950.539 3041.38 L 1187.35 2809.55 M 910.212 2766.28 L 950.539 3041.38 M 6468 3648.75 L 6620.51 3968.21 M 4629.66 1086.47 L 4485.77 1320.12 M 2199.23 4562.11 L 2302.58 4201.28 M 2427.6 2966.9 L 2435.87 3274.4 M 2609.2 3134.3 L 2427.6 2966.9 M 7144.43 2285.19 L 6595.79 2771.85 M 2864.04 3335.08 L 2802.56 3132.73 M 4717.63 3994 L 5066.91 3714.74 M 5066.91 3714.74 L 4261.34 3947.9 M 5524.17 2561.07 L 5113.69 2155.2 M 5038.03 2303.68 L 5524.17 2561.07 M 3484.61 3572.42 L 3286.26 3506.69 M 6485.87 2259.15 L 7136.04 2316.67 M 7136.04 2316.67 L 6727.98 2008.7 M 6301.91 4038.91 L 4522 4673.33 M 2358.22 5000.64 L 2550.98 4750.44 M 5169.5 8896.48 L 5156.26 8885.98 M 4524.25 4688.49 L 6303.27 4054.64 M 2990.26 4597.44 L 3313.15 4870.48 M 3313.15 4870.48 L 3363.68 4666.28 M 4552.48 3511.89 L 4255.38 3943.86 M 4255.38 3943.86 L 5064.08 3721.81 M 7839.87 4885.91 L 7869.05 5253.37 M 5617.45 4060.24 L 5925.41 4061.09 M 5915.88 3465.02 L 5617.45 4060.24 M 3562.45 3568.16 L 3738.96 3453.74 M 4783.18 1843.48 L 4803.39 1671.68 M 4058.37 3121.53 L 4151.62 2894.91 M 2983.91 3610.12 L 2716.42 3923.77 M 3518.37 4716.93 L 3533.93 4752.36 M 7408.02 2583.59 L 7641.54 2794.55 M 2391.07 2753.31 L 2485.81 2920.35 M 4188.54 2081.65 L 3886.12 1966.93 M 2586.75 1962.63 L 2758.61 2443.9 M 4936.21 1840.3 L 5456.93 1889.38 M 5456.93 1889.38 L 5090.76 1706.68 M 6865.42 860.515 L 6847.8 1296.73 M 6847.8 1296.73 L 6853.07 1173.94 M 5113.69 2155.2 L 5532.56 2552.4 M 5532.56 2552.4 L 5216.52 2034.43 M 1986.92 5104.27 L 2311.47 4979.91 M 1100.92 976.201 L 1275.52 1352.76 M 1541.88 1176.96 L 1100.92 976.201 M 3893.93 10620.6 L 3903 10628.5 M 5348.75 1381.87 L 5634.7 1016.68 M 4510.74 2507.18 L 4318.53 2673.92 M 4318.53 2673.92 L 4745.65 2706.26 M 2423.97 4540.98 L 1055.06 1515.27 M 1055.06 1515.27 L 1675.08 4757.44 M 5823.46 9350.38 L 8159.61 11710.7 M 8159.61 11710.7 L 7029.78 10423.5 M 5212.95 1186.82 L 5090.38 1339.44 M 6464.02 2136.01 L 6584.15 2373.91 M 6584.15 2373.91 L 6664.38 1921.63 M 2725.41 3996.88 L 2838.35 4244.61 M 4264.59 943.35 L 4252.03 1405.34 M 4434.62 1074.54 L 4264.59 943.35 M 3547.61 2453.9 L 3305.71 2279.25 M 5706.34 2929.6 L 5732.96 2555.76 M 2297.84 4276.35 L 2185.1 4289.82 M 5352.3 3780.12 L 5876.16 3234.66 M 5473.76 3027.69 L 5352.3 3780.12 M 2471.29 1963.62 L 2652.06 2029.25 M 2652.06 2029.25 L 2426.92 1695.04 M 5189.28 3054.72 L 4156.01 3960.8 M 2870.29 3873.88 L 4146.1 3969.09 M 2716.42 3923.77 L 2897.9 3553.65 M 1356.86 5215.52 L 1935.56 5462.56 M 1802.23 5154.84 L 1356.86 5215.52 M 6891.1 2115.96 L 6441.35 2370.3 M 6823.02 2384.37 L 6891.1 2115.96 M 2087.06 5119 L 1449.41 4807.24 M 1449.41 4807.24 L 1802.23 5154.84 M 6323.28 2002.59 L 5663.78 2174.49 M 5663.78 2174.49 L 6174.82 2286.95 M 4674.46 9120.67 L 4683.63 9122.62 M 4367.04 9363.88 L 2676.02 9672.84 M 2676.02 9672.84 L 3626.53 10005.7 M 4376.17 9366.04 L 4367.04 9363.88 M 1538.09 4962.42 L 1099.85 5222.39 M 1099.85 5222.39 L 1668.63 5304.49 M 4352.83 4186.43 L 6245.59 2904.95 M 3847.85 1441.31 L 3623.56 1842.18 M 3623.56 1842.18 L 4230.53 1760.94 M 3886.12 1966.93 L 3642.59 2378.21 M 3642.59 2378.21 L 3915.22 2575.94 M 4027.3 3009.42 L 4219.98 3310.49 M 4410.95 3153.56 L 4027.3 3009.42 M 4151.62 2894.91 L 4004.79 3091.11 M 4004.79 3091.11 L 4217.07 3094.25 M 3849.87 10500 L 2604.08 10333 M 2604.08 10333 L 2998.47 10544.4 M 7343.8 7613.9 L 6873 7380.97 M 3712.01 3411.66 L 3764.12 3249.82 M 3695.2 3074.11 L 3712.01 3411.66 M 1959.15 4047 L 2098.99 4584.82 M 4574.03 12405.8 L 5824.2 9350.82 M 2323.51 4651.42 L 2088.54 4650.58 M 5705.73 2554.41 L 5482.96 2901.17 M 1743.72 2220.5 L 1299.64 2059.02 M 1299.64 2059.02 L 1387.8 2386.27 M 7000.61 890.349 L 6615.27 697.226 M 6615.27 697.226 L 6571.28 1307.74 M 2992.98 1556.18 L 2670.96 1191.36 M 4164.17 2010.05 L 4006.31 2282.54 M 7193.15 4602.8 L 7508.72 4723.97 M 2199.13 1758.26 L 2104.7 1627.19 M 8024.79 5072.52 L 8093.78 4776.39 M 3855.59 2345.74 L 4040.68 2666.04 M 2787.83 2325.9 L 3001.59 2366.52 M 3001.59 2366.52 L 2911.22 2133.02 M 3454.85 2102.43 L 3887.09 1710.6 M 3935.49 1669.01 L 3369.4 1979.08 M 3887.09 1710.6 L 3935.49 1669.01 M 4803.76 5404.36 L 5208.51 5116.31 M 5208.51 5116.31 L 4701.57 4634.26 M 6494.1 7709.02 L 6769.11 7261.7 M 2670.96 1191.36 L 2468.56 865.402 M 2468.56 865.402 L 2481.67 1212.72 M 684.849 2856.62 L 910.212 2766.28 M 853.505 2552.73 L 684.849 2856.62 M 1867.56 1837.88 L 1512.97 1832.48 M 1512.97 1832.48 L 1963.09 1940.38 M 4719.43 3209.23 L 4479.38 3351.93 M 4242.79 2049.52 L 4859.6 1701.57 M 4859.6 1701.57 L 3611.79 2286.53 M 776.224 3896.84 L 1429.13 4088.76 M 2661.18 2793.9 L 2618.49 2696.16 M 3679.81 2671.67 L 1715.42 2894.7 M 2062.08 5028.43 L 2429.84 5463.33 M 8103.27 4738.88 L 7549.1 4498.36 M 1596.54 3401.41 L 2098.76 3737.17 M 3724.85 2046.76 L 3377.81 1459.64 M 3377.81 1459.64 L 3495.67 2183.86 M 1275.52 1352.76 L 1516.06 1498.84 M 5251.59 2471.71 L 4737.02 1527.13 M 4753.46 2005.86 L 5251.59 2471.71 M 4479.38 3351.93 L 4385.93 3445.27 M 1233.25 2332.86 L 1704.63 2299.96 M 1613.16 2085.74 L 1233.25 2332.86 M 7580.78 3311.79 L 8461.07 3808.48 M 8461.07 3808.48 L 7831.12 3062.91 M 4107.7 2320.8 L 4333.94 2355.24 M 2782.96 1608.72 L 2827.06 1859.99 M 2490.55 4209.58 L 1959.15 4047 M 5956.33 2662.08 L 5706.34 2929.6 M 5726.94 576.77 L 5281.05 792.377 M 5634.7 1016.68 L 5726.94 576.77 M 1077.99 2438.5 L 853.505 2552.73 M 6865.41 1558.71 L 6995.33 1704.3 M 2577.15 4607.55 L 2876.36 4353.49 M 4259.47 3053.5 L 4058.37 3121.53 M 3975.58 0 L 3568.17 1098.65 M 4413.58 1024.42 L 3975.58 0 M 6537.18 3561.82 L 7754.13 2356.58 M 7754.13 2356.58 L 6804.63 2906.73 M 3477.68 4193.73 L 2406.94 4434.01 M 7721.28 5558.18 L 7028.49 4775.7 M 7317.61 5604.93 L 7721.28 5558.18 M 6872.04 7379.87 L 7037.39 7878.44 M 7037.39 7878.44 L 7497.8 7055.15 M 6762.86 5341.22 L 6462.19 5268.35 M 6413.13 5414.4 L 6956.38 5429.87 M 6444.44 3131.2 L 5915.88 3465.02 M 3725.44 2341.09 L 4242.79 2049.52 M 6597.55 4724.65 L 6570.43 4268.25 M 3518.55 1901.62 L 4360.92 2621.78 M 3659.67 2226.57 L 4107.7 2320.8 M 1864.46 4781.36 L 1927.9 4392.13 M 1927.9 4392.13 L 1717.41 4670.81 M 4731.71 1403.31 L 4752.71 1307.26 M 2743.52 4769.6 L 2811.66 4980.01 M 2802.56 3132.73 L 2661.18 2793.9 M 2908 2831.31 L 3300.66 2664.06 M 3300.66 2664.06 L 2830.8 2303.06 M 3957.22 1177.16 L 3810.14 1325.59 M 4199.94 1587.39 L 3957.22 1177.16 M 6078.09 2482.23 L 6099.77 2057.75 M 1838.82 3082.97 L 2183.36 3183.3 M 2183.36 3183.3 L 1971.75 2928.26 M 2539.84 3522.91 L 2350.48 2872.21 M 5461.4 1199.25 L 5024.4 675.361 M 4360.92 2621.78 L 4693.18 2547.39 M 3714.47 4443.3 L 3477.68 4193.73 M 3062.05 3567.49 L 3287.5 4105.32 M 3287.5 4105.32 L 3829.84 3750.44 M 6632.81 2340.14 L 6222.9 2297.2 M 6228.06 2845.94 L 6632.81 2340.14 M 5966.9 2800.5 L 6414.23 3415.46 M 6414.23 3415.46 L 6264.78 2533.65 M 2054.32 2046.71 L 2204.39 1984.41 M 3623.72 3564.4 L 3484.61 3572.42 M 5090.76 1706.68 L 5246.62 2085.05 M 5246.62 2085.05 L 5348.75 1381.87 M 5678.13 2947.98 L 6095.02 2301.47 M 6772.63 3784.16 L 6537.18 3561.82 M 4013.29 2201.05 L 3724.85 2046.76 M 6527.7 1382.13 L 6572.9 1308.72 M 2311.47 4979.91 L 2230.95 5355.05 M 2230.95 5355.05 L 2435.09 5068.73 M 3467.14 2423.53 L 3232.21 2235.8 M 5894.57 2469.98 L 4170.75 3962.99 M 1686.42 4776.76 L 2034.19 5046.25 M 2034.19 5046.25 L 1854.48 4778.81 M 4157.57 1867.21 L 4551.7 1693.19 M 4551.7 1693.19 L 4114.9 1853.65 M 4527.72 1638.9 L 4753.46 2005.86 M 6995.33 1704.3 L 6835.49 1622.31 M 3010.23 2543.87 L 3023.47 2820.95 M 3023.47 2820.95 L 3547.61 2453.9 M 3535.92 3140.51 L 3551.95 2830.59 M 6847.91 1296.73 L 6446.68 1124.66 M 6446.68 1124.66 L 6742.01 1460.65 M 6595.79 2771.85 L 6564.39 2792.77 M 3124.28 2265.61 L 3010.23 2543.87 M 3351.81 4062.1 L 3610.41 3957.91 M 3610.41 3957.91 L 3216.59 3808.55 M 5995.91 7948.74 L 5777.03 8330.64 M 5597.15 8523.6 L 6233.28 8569.23 M 6233.28 8569.23 L 6213.94 7980.96 M 4624.71 4801.52 L 3844.7 5276.81 M 0 2736.26 L 1275.47 3380.36 M 1715.42 2894.7 L 0 2736.26 M 1717.41 4670.81 L 2028.06 4511.21 M 1944.82 1549.3 L 1706.06 1464.2 M 2172.98 1168.36 L 2209.07 1419.25 M 2338.25 1455.83 L 2172.98 1168.36 M 7136.47 1269.8 L 7084.34 1331.61 M 7084.34 1331.61 L 7151.97 1265.89 M 7151.97 1265.89 L 7136.47 1269.8 M 6095.02 2301.47 L 6381.71 1871.63 M 1660.19 1379.97 L 1541.88 1176.96 M 2377.99 4195.91 L 2297.84 4276.35 M 2326.48 4507.54 L 2377.99 4195.91 M 6213.94 7980.96 L 6232.5 8569.26 M 3285.63 3088.31 L 2800.27 2846.84 M 2800.27 2846.84 L 3050.95 3002.06 M 3967.27 3582.82 L 4259.87 3377.5 M 6747.24 4352.77 L 7193.15 4602.8 M 6742.01 1460.65 L 6833.39 1062.96 M 5347.21 1654.95 L 4731.71 1403.31 M 7869.05 5253.37 L 7920 5587.54 M 7920 5587.54 L 8024.79 5072.52 M 1876.28 2287.62 L 1201.08 2229.35 M 1201.08 2229.35 L 1469.6 2731.42 M 1609.22 3372.39 L 1838.82 3082.97 M 1454.25 3185.31 L 1609.22 3372.39 M 3306.07 2761.55 L 3725.44 2341.09 M 4752.71 1307.26 L 4728.46 1402.54 M 4728.46 1402.54 L 4912.89 1349.86 M 7119.88 3923.81 L 8165.29 3656.72 M 8165.29 3656.72 L 6527.48 3572.56 M 3549.69 2450.98 L 3695.2 3074.11 M 6570.43 4268.25 L 6588.54 4725.1 M 6588.54 4725.1 L 6747.24 4352.77 M 7180.2 3021.75 L 6545.63 2902.13 M 6602.56 3325.65 L 7180.2 3021.75 M 3158.36 2178.75 L 3124.28 2265.61 M 2827.06 1859.99 L 2921.83 1905.21 M 6833.39 1062.96 L 6742.02 1460.66 M 1502.55 4880.7 L 1812.26 4794.57 M 6303.27 4054.64 L 6611.54 4080.84 M 6611.54 4080.84 L 6301.91 4038.91 M 3787.08 2379.1 L 3786.25 2209.08 M 3786.25 2209.08 L 3727.72 2238.63 M 6865.45 860.514 L 6870.75 1054.92 M 7198.32 1298.44 L 6865.45 860.514 M 2045.6 3971.16 L 1972.17 3625.62 M 1685.95 3522.23 L 2045.6 3971.16 M 3305.71 2279.25 L 3549.69 2450.98 M 2160.29 6089.67 L 2627.55 5689.05 M 7574.61 2161.57 L 7902.18 2236.54 M 4787.51 763.289 L 3299.72 1000.01 M 3299.72 1000.01 L 4413.58 1024.42 M 3221.44 3108.26 L 3184.56 3305.71 M 3551.95 2830.59 L 3787.08 2379.1 M 2372.42 2058.04 L 2471.29 1963.62 M 6396.18 1747.76 L 6494.33 1568.44 M 4480.86 3352.9 L 4650.6 3130.22 M 1373.73 1980.14 L 1613.16 2085.74 M 4148.74 2883.65 L 4259.47 3053.5 M 4527.48 3040.24 L 4148.74 2883.65 M 3758.69 5668.9 L 3934.22 5948.66 M 3934.22 5948.66 L 3928.98 5477.15 M 3167.74 1201.34 L 3284.6 1449.61 M 3791.81 1648.46 L 3167.74 1201.34 M 2249.53 2916.28 L 2185.33 2682.13 M 1971.75 2928.26 L 2249.53 2916.28 M 4625.74 4803.21 L 4506.53 4693.61 M 3844.7 5276.81 L 4625.74 4803.21 M 2021.24 1867.42 L 1544.19 2473.71 M 1544.19 2473.71 L 2125.17 1882.05 M 2125.17 1882.05 L 1542.85 2472.39 M 1542.85 2472.39 L 2158.55 2269.92 M 1387.8 2386.27 L 1004.48 2113.2 M 7753.88 1942.89 L 7161.49 1466.09 M 5897 3678.51 L 5657.61 3664.9 M 2481.67 1212.72 L 2782.96 1608.72 M 5180.18 1922.8 L 5259.16 2009.65 M 1935.36 3815.58 L 1505.67 3959.69 M 1505.67 3959.69 L 1757.21 4031.85 M 4578.95 2143.21 L 4514.33 1910.44 M 3184.56 3305.71 L 3121.04 3593.63 M 3830.86 4060.97 L 3653.57 4362.55 M 3653.57 4362.55 L 4117.42 4485.24 M 4131.27 4240.23 L 3830.86 4060.97 M 3876.25 4235.27 L 4131.27 4240.23 M 4353.64 4182.85 L 6618.4 4353.97 M 6634.08 4338.76 L 4353.64 4182.85 M 7549.1 4498.36 L 7311.4 4374.12 M 4353.57 4190.43 L 6601.39 3866.42 M 6601.39 3866.42 L 4352.83 4186.43 M 2008.95 4651.19 L 1951.06 4313.95 M 3736.26 10139.9 L 2625.56 10065.2 M 1668.63 5304.49 L 2020.73 5036.11 M 4695.45 4082.4 L 5189.43 3736.14 M 4789.19 2174.61 L 5127.23 2244.86 M 5127.23 2244.86 L 5191.99 1939.75 M 5424.6 3915.34 L 5845.57 4008.82 M 776.387 3896.28 L 226.862 4078.15 M 226.862 4078.15 L 959.237 4480.62 M 4006.31 2282.54 L 4167.04 2011.73 M 4167.04 2011.73 L 3659.67 2226.57 M 5889.98 2464.7 L 5885.28 2448.29 M 1972.17 3625.62 L 2045.31 3971.22 M 2134.55 2716.26 L 2526.3 2815.04 M 2743.84 3991.35 L 2734.71 3560.17 M 2734.71 3560.17 L 2370.18 3879.63 M 4230.53 1760.94 L 4188.54 2081.65 M 1985.99 4406.18 L 1864.46 4781.36 M 7187.61 7105.61 L 6872.04 7379.87 M 1669.52 4935.44 L 2008.95 4651.19 M 5878.97 2260.97 L 5726.64 2557.18 M 7902.18 2236.54 L 8454.69 2085.21 M 6571.28 1307.74 L 6527.7 1382.13 M 2158.79 4547.98 L 2501.99 4353.67 M 2302.58 4201.28 L 2158.79 4547.98 M 2020.73 5036.11 L 2062.08 5028.43 M 4286.73 3329.9 L 4390.65 3146.66 M 2185.33 2682.13 L 2490.66 2644.85 M 5437.87 1836.75 L 4914.85 1835.33 M 4914.85 1835.33 L 5177.12 1916.13 M 4460.2 2249.4 L 4259.9 2521.33 M 4259.9 2521.33 L 5038.03 2303.68 M 7127.05 1688.38 L 7000.61 890.349 M 6742.02 1460.66 L 7127.05 1688.38 M 6994.33 1706.22 L 7183.23 1755.11 M 4655.78 1907.6 L 4417.27 1628.48 M 4417.27 1628.48 L 4234.53 1999.69 M 2838.35 4244.61 L 2790.23 4696.55 M 6564.39 2792.77 L 6825.45 3525.26 M 6825.45 3525.26 L 7035.43 3097.98 M 3275.75 2938.37 L 3070.78 3020.23 M 4826.11 1327.18 L 4498.17 1890.45 M 7083.1 2945.37 L 6801.85 2650.03 M 6126.7 3036.21 L 7083.1 2945.37 M 7343.5 7613.86 L 7277.56 8060.62 M 3151.52 4837.7 L 3260.72 5127.67 M 3016.85 3937.62 L 2490.55 4209.58 M 2406.94 4434.01 L 3016.85 3937.62 M 7641.54 2794.55 L 8329.79 2807.77 M 8329.79 2807.77 L 7902.29 2236.06 M 6264.78 2533.65 L 6195.53 2353.35 M 6195.53 2353.35 L 6078.09 2482.23 M 3829.23 1850.84 L 3698.97 2286.39 M 4514.33 1910.44 L 4578.85 2143.24 M 4578.85 2143.24 L 4789.19 2174.61 M 3589.59 1837.39 L 2949.44 2254.15 M 2949.44 2254.15 L 3726.01 2049.13 M 1675.08 4757.44 L 1103.28 5152.33 M 1103.28 5152.33 L 1641.87 4967.13 M 3286.26 3506.69 L 3205.06 4115.82 M 2195.74 2346.15 L 2391.07 2753.31 M 1851.83 5010.26 L 1915.69 5220.68 M 2517.25 10294.4 L 2633.98 10295.5 M 3728.08 10121.6 L 2517.25 10294.4 M 5803.85 2885.27 L 5678.13 2947.98 M 1516.06 1498.84 L 1737.25 1583.25 M 5657.61 3664.9 L 5314 3681.94 M 5314 3681.94 L 5424.6 3915.34 M 6414.78 2067.97 L 6607.74 2076.17 M 5732.96 2555.76 L 5892.7 2263.48 M 2185.1 4289.82 L 1913.46 4412.8 M 4506.61 2635.7 L 4570.48 2415.94 M 3915.22 2575.94 L 3869.4 3031.87 M 3869.4 3031.87 L 4120.44 2675.1 M 6527.48 3572.56 L 6772.63 3784.16 M 6381.71 1871.63 L 6464.02 2136.01 M 1821.15 3000.88 L 1775 2722.02 M 1775 2722.02 L 1610.12 2876.31 M 5629.37 9121.8 L 5597.15 8523.6 M 5514.83 8811.93 L 5629.37 9121.8 M 2851.52 6314.35 L 2587.72 5644.19 M 7028.49 4775.7 L 6855.11 4618.41 M 3121.04 3593.63 L 3086.53 3748.41 M 2123.48 5663.38 L 2363.86 5678.76 M 4506.53 4693.61 L 4618.35 4810.73 M 3363.68 4666.28 L 3223.46 4425.31 M 1963.09 1940.38 L 1670.73 1581.53 M 1554.97 3165.14 L 1685.95 3522.23 M 5623.92 9123.56 L 5325.49 8981.84 M 6232.5 8569.26 L 5596.4 8523.23 M 5596.4 8523.23 L 5626.42 9121.55 M 5845.57 4008.82 L 6318.78 4149.98 M 4217.07 3094.25 L 4410.95 3153.56 M 4650.6 3130.22 L 4833.08 3024.96 M 2568.86 2030.78 L 2115.53 1764.83 M 6366.98 1537.65 L 5437.87 1836.75 M 2141.59 4354 L 1824.07 4555.41 M 1824.07 4555.41 L 2318.53 4665.98 M 5279.75 3216.77 L 5442.45 3181.66 M 5177.12 1916.13 L 5130.81 2224.58 M 3282.22 3485.75 L 3284.64 3951.15 M 5892.7 2263.48 L 5705.73 2554.41 M 4854.1 3557.12 L 4497.36 3503.57 M 3474.11 4524.37 L 3992.81 4758.24 M 3992.81 4758.24 L 3879.79 4297.7 M 1275.47 3380.36 L 1596.54 3401.41 M 5718.77 4498.04 L 5916.08 4734.49 M 6039.38 4382.32 L 5718.77 4498.04 M 1469.6 2731.42 L 2134.55 2716.26 M 4483.06 1191.56 L 4841.44 1016.8 M 2115.53 1764.83 L 2021.24 1867.42 M 4120.44 2675.1 L 4578.24 2482.18 M 4578.24 2482.18 L 4290.56 2456.68 M 3905.67 2338.27 L 3518.55 1901.62 M 3369.4 1979.08 L 3905.67 2338.27 M 2646.36 2921.11 L 2908 2831.31 M 2287.81 3048.03 L 2646.36 2921.11 M 3565.17 2167.44 L 2287.81 3048.03 M 2485.81 2920.35 L 2609.2 3134.3 M 1553.37 4546.41 L 1466.67 4879.69 M 2444.25 2778.31 L 2628.07 3095.63 M 2628.07 3095.63 L 2603.89 2843.93 M 3597.27 3450.63 L 3598.01 3619.73 M 4498.17 1890.45 L 4826.47 1327.39 M 5064.08 3721.81 L 5186.96 2773.26 M 6245.59 2904.95 L 6507.57 2373.55 M 6507.57 2373.55 L 6098.87 2685.69 M 6541.81 1825.89 L 6571.4 1849.3 M 5221.21 1872.96 L 5486.99 1712.75 M 3682.48 4412.8 L 3125.74 5159.44 M 6886.46 1604.66 L 6396.18 1747.76 M 6664.38 1921.63 L 6886.46 1604.66 M 4841.44 1016.8 L 5415.64 841.377 M 4103.52 3046.76 L 4013.29 2201.05 M 5453.96 8627.06 L 5460.71 8642.54 M 3698.97 2286.39 L 4041.75 2665.42 M 4041.75 2665.42 L 3855.59 2345.74 M 5034.13 1488.34 L 5024.54 1615.77 M 1304.41 3683.6 L 792.752 3504.46 M 792.752 3504.46 L 776.224 3896.84 M 3239.88 2264.46 L 3467.14 2423.53 M 3569.97 2337.02 L 3239.88 2264.46 M 2350.48 2872.21 L 2076.37 2317.79 M 2076.37 2317.79 L 1871.11 2860.24 M 2733.63 6674.29 L 3097.05 5924.14 M 1913.46 4412.8 L 1673.22 4611.26 M 6388.02 5409.98 L 5995.91 7948.74 M 6769.11 7261.7 L 6388.02 5409.98 M 4363.82 12264.7 L 4524.2 13099 M 4524.2 13099 L 4574.03 12405.8 M 2429.84 5463.33 L 1796.76 6029.87 M 1796.76 6029.87 L 2160.29 6089.67 M 5996.91 7949.32 L 6413.13 5414.4 M 3284.6 1449.61 L 3533.77 1747.48 M 2627.55 5689.05 L 2574.26 6302.23 M 1854.48 4778.81 L 2079.93 5009 M 2079.93 5009 L 2064.39 4744.96 M 8093.78 4776.39 L 8103.27 4738.88 M 8255.57 7779.56 L 7542.53 7838.44 M 3261.04 1843.92 L 3146.63 1645.83 M 2363.86 5678.76 L 2292.33 6438.72 M 2292.33 6438.72 L 2851.52 6314.35 M 7431.13 4372.85 L 7524.39 4150.77 M 7112.64 3679.15 L 7431.13 4372.85 M 3941.86 1676.18 L 3892.86 1717.07 M 3216.59 3808.55 L 3562.45 3568.16 M 4524.01 3917.93 L 3682.48 4412.8 M 2677.84 2162.86 L 2488.35 2195.72 M 3903.49 10597.1 L 3849.87 10500 M 2600.74 10356.6 L 3849.44 10500.2 M 3756.77 3128.54 L 3350.48 2700.97 M 3350.48 2700.97 L 3285.63 3088.31 M 1610.12 2876.31 L 1724.73 2545.19 M 1724.73 2545.19 L 1405.09 2626.55 M 6545.63 2902.13 L 6485.87 2259.15 M 3763.62 2292.02 L 3725.5 2272.74 M 4062.76 5063.69 L 4353.57 4190.43 M 5824.2 9350.82 L 6033.07 8779.43 M 5626.42 9121.55 L 5632.95 9132.25 M 6515.5 4025.75 L 6435.79 3494.07 M 6274.31 3668.28 L 6515.5 4025.75 M 2603.89 2843.93 L 2627.2 3095.71 M 2627.2 3095.71 L 2819.62 3177.48 M 2819.62 3177.48 L 2842.23 2939.73 M 7521 2741.22 L 7261.66 3056.81 M 3199.74 6043.87 L 3177.23 6727.4 M 1578.77 3258.09 L 1821.15 3000.88 M 1488.98 3032.36 L 1578.77 3258.09 M 4261.34 3947.9 L 4552.48 3511.89 M 6873 7380.97 L 7187.61 7105.61 M 7925.48 3236.11 L 8525.29 2855.17 M 8525.29 2855.17 L 7521 2741.22 M 2357.16 2157.24 L 2162.23 2221.14 M 5863 1550.56 L 5638.05 1210.38 M 2064.39 4744.96 L 2224.69 4704.35 M 3016.38 4274.65 L 2935.03 4151.48 M 2736.51 4273.73 L 2653.02 4408.44 M 6222.9 2297.2 L 5878.97 2260.97 M 2756 1715.27 L 2492.23 2231.8 M 2830.8 2303.06 L 2756 1715.27 M 3153.33 3212.31 L 3062.05 3567.49 M 3533.77 1747.48 L 3294.98 1441.23 M 3294.98 1441.23 L 3213.17 1715.64 M 2900.23 3679.81 L 3151.52 4837.7 M 3589.91 4455.62 L 2900.23 3679.81 M 5189.43 3736.14 L 5838.27 3586.64 M 5838.27 3586.64 L 5595.12 3405.97 M 1847.13 10000.4 L 2600.74 10356.6 M 2625.56 10065.2 L 1847.13 10000.4 M 7640.93 2678.34 L 7336 2551.5 M 7336 2551.5 L 7307.69 2689.71 M 4017.6 1564.89 L 4164.17 2010.05 M 6618.4 4353.97 L 4353.25 4190.33 M 1670.73 1581.53 L 1416.79 1460.2 M 4040.68 2666.04 L 3746.97 2817.58 M 4726.12 1825.99 L 4513.97 1955.7 M 7626.87 3905.71 L 7835.73 4069.81 M 7835.73 4069.81 L 7795.78 3797.7 M 7302.27 2544.53 L 7408.02 2583.59 M 7338.6 2488.39 L 7302.27 2544.53 M 1673.22 4611.26 L 1478.06 5082.74 M 1478.06 5082.74 L 1925.66 4815.54 M 3746.97 2817.58 L 3667.51 2874.11 M 6471.31 3647.19 L 5897 3678.51 M 3911.84 4770.19 L 3316.64 4875.53 M 3113.64 4931.55 L 3911.84 4770.19 M 9719.2 8551.81 L 9223.19 8415.99 M 9691.63 8579.64 L 9719.2 8551.81 M 6441.35 2370.3 L 5771.51 2748.55 M 6956.38 5429.87 L 6413.13 5414.45 M 6413.13 5414.45 L 7385.43 5570.7 M 6621.25 5027.41 L 7317.61 5604.93 M 3156.04 3243.34 L 2983.91 3610.12 M 3850.86 6370.81 L 4249.66 5587.12 M 3927.44 5948.68 L 3850.86 6370.81 M 6633.26 699.6 L 6366.98 1537.65 M 6572.9 1308.72 L 6633.26 699.6 M 7831.12 3062.91 L 7640.93 2678.34 M 4170.75 3962.99 L 5889.98 2464.7 M 2807.51 3264.5 L 3306.07 2761.55 M 7462.49 3264 L 7925.48 3236.11 M 5916.08 4734.49 L 6597.55 4724.65 M 2523.19 4690.04 L 2596.8 4348.57 M 4146.1 3969.09 L 2899.79 3680.18 M 2899.79 3680.18 L 3589.57 4455.9 M 2490.66 2644.85 L 2619.44 2502.38 M 2619.44 2502.38 L 2195.74 2346.15 M 3589.57 4455.9 L 3773.43 4681.17 M 3773.43 4681.17 L 3589.91 4455.62 M 4581.32 4519.17 L 5033.48 4234.15 M 2116.36 4839.23 L 2224.78 4704.43 M 6835.49 1622.31 L 6994.33 1706.22 M 4607.16 1394.92 L 4840.06 1013.99 M 4840.06 1013.99 L 4483.06 1191.56 M 4513.97 1955.7 L 4600.16 1722.45 M 3552.1 2870.63 L 3619.99 2800.63 M 6066.1 3024.12 L 5952.48 3516.93 M 5952.48 3516.93 L 6444.44 3131.2 M 2173.18 4415.03 L 2314.17 4019.93 M 2314.17 4019.93 L 2141.59 4354 M 3810.14 1325.59 L 3829.23 1850.84 M 2802.81 3132.66 L 2864.04 3335.08 M 3091.61 3511.87 L 2802.81 3132.66 M 6099.83 3800.52 L 6299.28 4161.47 M 6299.28 4161.47 L 6274.31 3668.28 M 4745.65 2706.26 L 4378.65 2927.15 M 2587.72 5644.19 L 2854.02 6313.36 M 2854.02 6313.36 L 2871.55 5599.71 M 4731.36 2309 L 5572.03 2441.97 M 5259.16 2009.65 L 4731.36 2309 M 3050.95 3002.06 L 3221.44 3108.26 M 4388.27 3447.1 L 4480.86 3352.9 M 4219.98 3310.49 L 4388.27 3447.1 M 4728.6 2454.41 L 4460.2 2249.4 M 4577.13 2492.57 L 4728.6 2454.41 M 4838.92 753.57 L 4826.11 1327.18 M 2240.28 5004.31 L 2523.19 4690.04 M 5075.8 338.856 L 5028.15 672.254 M 5361.82 696.865 L 5075.8 338.856 M 4290.56 2456.68 L 4577.13 2492.57 M 2758.61 2443.9 L 2568.86 2030.78 M 4701.57 4634.26 L 4581.32 4519.17 M 4249.66 5587.12 L 4667.23 5480.26 M 4570.48 2415.94 L 4728.02 1986.07 M 4728.02 1986.07 L 4655.78 1907.6 M 3232.21 2235.8 L 3158.36 2178.75 M 3100.22 4116.01 L 3351.81 4062.1 M 959.237 4480.62 L 1414.83 4612.16 M 4156.01 3960.8 L 3679.81 2671.67 M 2370.18 3879.63 L 2080 3509.08 M 2080 3509.08 L 1935.36 3815.58 M 6033.07 8779.43 L 6154.88 9046.99 M 7712.46 9197.73 L 6634.48 8634.67 M 6632.7 8634.68 L 7710.77 9197.57 M 7710.77 9197.57 L 7189.13 8148.33 M 2871.55 5599.71 L 3509.43 5340.93 M 5486.99 1712.75 L 5347.21 1654.95 M 2009.47 2400.59 L 1743.72 2220.5 M 3829.84 3750.44 L 3967.27 3582.82 M 5090.38 1339.44 L 4928.79 1568.59 M 6870.75 1054.92 L 6865.42 860.515 M 4777.18 1169.93 L 5029.95 1616.01 M 5029.95 1616.01 L 5036.68 1488.4 M 6727.98 2008.7 L 6323.28 2002.59 M 1148.44 1845.37 L 1373.73 1980.14 M 1935.56 5462.56 L 2123.48 5663.38 M 2726.38 3359.25 L 2430.7 3578.45 M 1706.06 1464.2 L 1660.19 1379.97 M 2596.8 4348.57 L 2736.51 4273.73 M 6435.79 3494.07 L 6861.55 3782.98 M 6861.55 3782.98 L 6602.56 3325.65 M 3782.08 11096.9 L 4091.87 10849.3 M 3903 10628.5 L 3892.91 10622 M 6318.78 4149.98 L 6099.83 3800.52 M 4114.9 1853.65 L 4527.72 1638.9 M 3411.95 7927.77 L 3369.64 6910.75 M 3177.23 6727.4 L 3411.95 7927.77 M 7566.33 6780.84 L 8202.77 6029.35 M 8202.77 6029.35 L 6769.1 7261.69 M 2224.69 4704.35 L 2116.36 4839.23 M 4715.47 1930.9 L 5221.21 1872.96 M 4803.39 1671.68 L 4715.47 1930.9 M 6801.85 2650.03 L 6823.02 2384.37 M 5482.96 2901.17 L 5214.96 2311.39 M 5214.96 2311.39 L 5279.75 3216.77 M 5661.95 2136.42 L 6228.06 2845.94 M 6174.82 2286.95 L 5661.95 2136.42 M 3727.72 2238.63 L 2807.51 3264.5 M 4802.68 2877.68 L 5174.88 1861.7 M 5024.54 1615.77 L 4802.68 2877.68 M 2224.78 4704.43 L 2373.62 4776.47 M 4952.14 539.786 L 4938.31 85.314 M 4938.31 85.314 L 4834.97 524.847 M 4600.16 1722.45 L 4607.16 1394.92 M 7277.56 8060.62 L 7343.8 7613.9 M 2874.99 2522.81 L 2787.83 2325.9 M 5673.27 1103.57 L 5397.11 1152.06 M 5766.07 1540.3 L 5673.27 1103.57 M 3160.96 1717.15 L 2846.66 1598.65 M 2846.66 1598.65 L 2586.75 1962.63 M 5028.15 672.254 L 5461.4 1199.25 M 4625.66 926.092 L 4842.71 2891.15 M 4842.71 2891.15 L 5018.95 1622.07 M 1704.63 2299.96 L 2009.47 2400.59 M 5406.44 1157.15 L 5212.95 1186.82 M 5264.93 1405.52 L 5406.44 1157.15 M 7542.53 7838.44 L 7838.94 7187.26 M 3879.79 4297.7 L 3864.19 3462.17 M 7311.4 4374.12 L 7548.4 4499.68 M 7548.4 4499.68 L 7357.1 4240.96 M 1424.82 2955.66 L 1147.42 3009.92 M 1147.42 3009.92 L 1454.25 3185.31 M 5925.41 4061.09 L 6039.38 4382.32 M 2255.98 4891.54 L 2675.68 4649.46 M 2675.68 4649.46 L 2244.32 4741.52 M 2722.53 4989.79 L 2745.62 4769.83 M 2745.62 4769.83 L 2730.74 4893.24 M 2833.94 3790.15 L 3282.22 3485.75 M 5595.12 3405.97 L 4854.1 3557.12 M 4165.28 11239 L 4363.82 12264.7 M 3097.05 5924.14 L 3281.85 5227.17 M 4912.89 1349.86 L 4918.88 1307.56 M 3146.63 1645.83 L 3377.28 1257.67 M 3377.28 1257.67 L 2992.98 1556.18 M 7028.78 4775.38 L 6634.08 4338.76 M 6855.11 4618.41 L 7028.78 4775.38 M 9223.19 8415.99 L 9804.16 8299.83 M 9804.16 8299.83 L 9244.72 8116.92 M 3725.5 2272.74 L 3565.17 2167.44 M 5325.49 8981.84 L 5169.5 8896.48 M 4582.67 816.099 L 4347.51 889.775 M 4347.51 889.775 L 4625.66 926.092 M 7260.73 3206.14 L 7112.64 3679.15 M 6607.74 2076.17 L 7318.8 1857.11 M 7318.8 1857.11 L 6541.81 1825.89 M 3888.41 4205.74 L 4346.53 4179.77 M 3223.46 4425.31 L 3016.38 4274.65 M 3495.67 2183.86 L 4157.57 1867.21 M 4928.79 1568.59 L 4726.12 1825.99 M 5284.93 1649.15 L 4662.63 2156.94 M 4693.18 2547.39 L 5284.93 1649.15 M 2045.31 3971.22 L 1571.35 3645.27 M 3284.64 3951.15 L 3294.15 3485.85 M 3294.15 3485.85 L 2937.54 3893.82 M 4091.87 10849.3 L 4165.28 11239 M 2633.98 10295.5 L 3736.26 10139.9 M 2567.46 3157.88 L 2523.32 3666.23 M 2523.32 3666.23 L 2726.38 3359.25 M 4252.03 1405.34 L 4041.37 1350.88 M 4041.37 1350.88 L 4017.6 1564.89 M 4554.65 3490.92 L 4911.69 3542.45 M 5186.96 2773.26 L 4554.65 3490.92 M 3213.17 1715.64 L 3191.48 1869.24 M 4485.77 1320.12 L 3791.81 1648.46 M 4013.45 2205.27 L 4783.18 1843.48 M 6618.86 8261.93 L 6752.81 7945.09 M 2998.47 10544.4 L 3893.93 10620.6 M 7357.1 4240.96 L 7039.6 2847.81 M 7039.6 2847.81 L 7119.88 3923.81 M 4232.07 2250.56 L 3589.59 1837.39 M 7655.64 5487.45 L 6762.86 5341.22 M 7385.43 5570.7 L 7655.64 5487.45 M 6634.48 8634.67 L 6618.86 8261.93 M 2790.23 4696.55 L 2842.57 4245.08 M 4834.97 524.847 L 4838.92 753.57 M 6369.74 1406.38 L 5895.23 1595.27 M 2653.02 4408.44 L 2947.41 4596.49 M 2947.41 4596.49 L 2974.69 4331.83 M 1535.85 1707.69 L 1889.77 1730.04 M 1737.25 1583.25 L 1535.85 1707.69 M 7497.8 7055.15 L 7566.33 6780.84 M 5771.51 2748.55 L 5803.85 2885.27 M 1466.67 4879.69 L 1681.25 5149.03 M 1681.25 5149.03 L 1851.83 5010.26 M 4353.25 4190.33 L 4062.76 5063.69 M 6769.1 7261.69 L 6494.1 7709.02 M 3316.64 4875.53 L 3911.93 4770.74 M 3911.93 4770.74 L 3657.5 4363.95 M 5036.68 1488.4 L 5042.77 1154.8 M 5191.99 1939.75 L 4936.21 1840.3 M 3042.61 4252.55 L 3297.03 4281.77 M 3297.03 4281.77 L 3100.22 4116.01 M 3533.93 4752.36 L 3655.53 5031.06 M 2921.83 1905.21 L 2874.82 1811.32 M 2874.82 1811.32 L 2677.84 2162.86 M 3726.01 2049.13 L 4013.45 2205.27 M 3858.18 1454.87 L 4118.85 1245.46 M 3568.17 1098.65 L 3858.18 1454.87 M 1187.35 2809.55 L 1144.49 3165.83 M 1144.49 3165.83 L 1488.98 3032.36 M 3369.64 6910.75 L 5351.64 8511.92 M 1703.27 2767.56 L 1353.85 2741.29 M 1353.85 2741.29 L 1424.82 2955.66 M 1889.77 1730.04 L 2096.29 1828.78 M 7838.94 7187.26 L 7791.39 6783.69 M 7791.39 6783.69 L 7343.5 7613.86 M 1879.08 4131.26 L 1448.49 3749.85 M 1571.35 3645.27 L 1879.08 4131.26 M 5281.05 792.377 L 5093.81 107.737 M 5093.81 107.737 L 4952.14 539.786 M 2574.26 6302.23 L 2526.06 7070.67 M 2526.06 7070.67 L 2733.63 6674.29 M 3877.24 4643.84 L 3714.47 4443.3 M 7795.78 3797.7 L 7462.49 3264 M 3598.01 3619.73 L 3599.55 3450.64 M 2842.23 2939.73 L 3068.82 3015.15 M 5777.03 8330.64 L 5996.91 7949.32 M 3509.43 5340.93 L 3737.03 5558.28 M 2493.45 6420.3 L 2592.65 6358.77 M 3096.53 5923.87 L 2493.45 6420.3 M 2592.65 6358.77 L 3199.74 6043.87 M 4522 4673.33 L 6407.37 4799.64 M 3660.34 3054.49 L 3535.92 3140.51 M 3121.27 2921.55 L 2874.99 2522.81 M 2618.49 2696.16 L 3121.27 2921.55 M 1925.66 4815.54 L 1376.32 5412.54 M 1376.32 5412.54 L 2240.28 5004.31 M 4497.36 3503.57 L 4198.1 3835.87 M 4198.1 3835.87 L 4285.31 3758 M 2974.69 4331.83 L 2990.26 4597.44 M 2730.74 4893.24 L 2743.52 4769.6 M 3591.88 2740.91 L 3156.04 3243.34 M 3070.78 3020.23 L 3153.33 3212.31 M 6099.77 2057.75 L 6414.78 2067.97 M 3152.34 4837.39 L 2423.97 4540.98 M 2158.55 2269.92 L 2444.25 2778.31 M 1915.69 5220.68 L 2454.98 5255.79 M 2454.98 5255.79 L 2255.98 4891.54 M 2204.39 1984.41 L 2276.43 1902.28 M 3260.72 5127.67 L 3152.34 4837.39 M 3657.5 4363.95 L 3517.83 3720.17 M 3656.18 4364.23 L 3876.25 4235.27 M 3517.83 3720.17 L 3656.18 4364.23 M 7902.29 2236.06 L 7574.61 2161.57 M 6462.19 5268.35 L 4624.71 4801.52 M 2373.62 4776.47 L 2577.15 4607.55 M 4826.47 1327.39 L 4434.62 1074.54 M 6154.88 9046.99 L 6033.27 8779.34 M 6033.27 8779.34 L 5823.46 9350.38 M 7029.78 10423.5 L 6231.61 8990.84 M 1416.79 1460.2 L 879.563 1401.5 M 879.563 1401.5 L 1495.38 1788.68 M 2028.06 4511.21 L 2086.72 4051.76 M 2086.72 4051.76 L 1553.37 4546.41 M 6675.43 1784.34 L 7144.43 2285.19 M 6571.4 1849.3 L 7200.88 2225.61 M 7200.88 2225.61 L 6675.43 1784.34 M 3737.03 5558.28 L 3758.69 5668.9 M 1414.83 4612.16 L 1010.28 5012.26 M 1010.28 5012.26 L 1502.55 4880.7 M 1523.91 4367.92 L 1686.42 4776.76 M 4815.51 3076.71 L 4719.43 3209.23 M 4833.08 3024.96 L 4815.51 3076.71 M 4205.36 2673.55 L 3660.34 3054.49 M 3086.53 3748.41 L 4205.36 2673.55 M 5397.11 1152.06 L 5264.93 1405.52 M 3892.91 10622 L 3207.25 11203 M 5572.03 2441.97 L 5966.56 2800.66 M 5966.56 2800.66 L 5739.44 2320.49 M 5906.83 2458.11 L 5894.57 2469.98 M 5917.51 2495.8 L 5906.83 2458.11 M 3667.51 2874.11 L 3697.28 3113.77 M 2989.27 4840.14 L 2722.53 4989.79 M 2811.66 4980.01 L 3113.64 4931.55 M 3068.82 3015.15 L 3275.75 2938.37 M 3626.53 10005.7 L 2873.24 10674.2 M 2873.24 10674.2 L 3728.08 10121.6 M 5042.77 1154.8 L 5034.13 1488.34 M 4285.31 3758 L 3685.55 4418 M 3685.55 4418 L 4524.01 3917.93 M 3611.79 2286.53 L 3569.97 2337.02 M 6407.37 4799.64 L 6621.25 5027.41 M 3849.44 10500.2 L 3903.49 10597.1 M 2988.94 1931.95 L 3152.5 2071.11 M 5460.71 8642.54 L 5514.83 8811.93 M 3599.55 3450.64 L 3626.76 3100.3 M 7183.23 1755.11 L 7489.93 2098.04 M 7489.93 2098.04 L 7198.32 1298.44 M 3516.47 5538.69 L 3096.53 5923.87 M 1757.21 4031.85 L 1996.82 4139.1 M 2104.7 1627.19 L 1944.82 1549.3 M 3046.77 4609.69 L 3087.38 4949.44 M 3087.38 4949.44 L 3474.11 4524.37 M 5033.48 4234.15 L 5188.09 3734.24 M 5188.09 3734.24 L 4695.45 4082.4 M 2426.92 1695.04 L 2338.25 1455.83 M 1405.09 2626.55 L 1703.27 2767.56 M 2209.07 1419.25 L 2197.59 1596.72 M 3626.76 3100.3 L 3552.1 2870.63 M 4117.42 4485.24 L 4816.32 3931.31 M 4816.32 3931.31 L 4717.63 3994 M 5018.95 1622.07 L 4777.18 1169.93 M 7161.49 1466.09 L 6764.81 1109.76 M 6764.81 1109.76 L 6865.41 1558.71 M 3928.98 5477.15 L 3927.44 5948.68 M 3207.25 11203 L 2626.89 11708.9 M 2626.89 11708.9 L 2988.99 11776.9 M 2488.35 2195.72 L 2357.16 2157.24 M 4390.65 3146.66 L 4302.93 3412.56 M 4302.93 3412.56 L 4480.52 3197.06 M 5130.81 2224.58 L 4790.04 2169.04 M 2435.09 5068.73 L 2087.06 5119 M 2276.43 1902.28 L 2229.33 2000.85 M 4259.87 3377.5 L 4286.73 3329.9 M 6752.81 7945.09 L 6618.72 8261.87 M 1429.13 4088.76 L 776.387 3896.28 M 5446.63 268.944 L 5361.82 696.865 M 5638.05 1210.38 L 5446.63 268.944 M 3864.19 3462.17 L 4346.44 3142.02 M 4346.44 3142.02 L 3756.77 3128.54 M 6620.51 3968.21 L 6471.31 3647.19 M 5895.23 1595.27 L 5519.84 1501.08 M 1771.99 4063.73 L 1523.91 4367.92 M 1951.06 4313.95 L 1771.99 4063.73 M 7524.39 4150.77 L 7626.87 3905.71 M 4412.28 1424.8 L 3375.21 1815.58 M 3375.21 1815.58 L 3941.86 1676.18 M 4333.94 2355.24 L 4510.74 2507.18 M 4378.65 2927.15 L 4617.91 2840.53 M 4617.91 2840.53 L 4506.61 2635.7 M 2244.32 4741.52 L 2672.45 4635.48 M 2672.45 4635.48 L 2199.23 4562.11 M 4790.04 2169.04 L 4578.95 2143.21 M 3281.85 5227.17 L 3096.68 5924.04 M 3096.68 5924.04 L 3516.47 5538.69 M 5726.64 2557.18 L 5708.42 2931.53 M 5708.42 2931.53 L 5956.33 2662.08 M 6804.63 2906.73 L 6699.36 3122.16 M 6699.36 3122.16 L 6468 3648.75 M 7261.66 3056.81 L 7580.78 3311.79 M 4662.63 2156.94 L 4494.07 2418.59 M 4494.07 2418.59 L 4232.07 2250.56 M 2937.54 3893.82 L 2296.35 4014.02 M 2876.36 4353.49 L 3046.77 4609.69 M 2935.03 4151.48 L 3042.61 4252.55 M 1495.38 1788.68 L 1078.19 1587.47 M 1078.19 1587.47 L 1148.44 1845.37 M 3205.06 4115.82 L 3091.61 3511.87 M 3936.23 2704.63 L 3763.62 2292.02 M 3619.99 2800.63 L 3936.23 2704.63 M 1996.82 4139.1 L 1985.99 4406.18" />
<path fill="none" class="c" d=" M 6369.74 1406.38 L 6414.78 2067.97 M 6414.78 2067.97 L 6494.33 1568.44 M 6541.81 1825.89 L 6494.33 1568.44 M 6675.43 1784.34 L 6494.33 1568.44 M 6675.43 1784.34 L 6835.49 1622.31 M 6835.49 1622.31 L 6494.33 1568.44 M 6742.01 1460.65 L 6494.33 1568.44 M 6742.01 1460.65 L 6527.7 1382.13 M 6833.39 1062.96 L 6527.7 1382.13 M 6833.39 1062.96 L 6571.28 1307.74 M 7000.61 890.349 L 6571.28 1307.74 M 6833.39 1062.96 L 7000.61 890.349 M 6742.02 1460.66 L 7000.61 890.349 M 6527.7 1382.13 L 6494.33 1568.44 M 6366.98 1537.65 L 6494.33 1568.44 M 6527.7 1382.13 L 6366.98 1537.65 M 6572.9 1308.72 L 6366.98 1537.65 M 6675.43 1784.34 L 6995.33 1704.3 M 6835.49 1622.31 L 6742.01 1460.65 M 6835.49 1622.31 L 7198.32 1298.44 M 6994.33 1706.22 L 7198.32 1298.44 M 7183.23 1755.11 L 7198.32 1298.44 M 7198.32 1298.44 L 6742.01 1460.65 M 6847.91 1296.73 L 6742.01 1460.65 M 7198.32 1298.44 L 6847.91 1296.73 M 6541.81 1825.89 L 6675.43 1784.34 M 6571.4 1849.3 L 6675.43 1784.34 M 6369.74 1406.38 L 6099.77 2057.75 M 5895.23 1595.27 L 6099.77 2057.75 M 5739.44 2320.49 L 6099.77 2057.75 M 5895.23 1595.27 L 5739.44 2320.49 M 5895.23 1595.27 L 5388.86 1926.11 M 5388.86 1926.11 L 5739.44 2320.49 M 5259.16 2009.65 L 5739.44 2320.49 M 5388.86 1926.11 L 5259.16 2009.65 M 5388.86 1926.11 L 5180.18 1922.8 M 5572.03 2441.97 L 5739.44 2320.49 M 5863 1550.56 L 5180.18 1922.8 M 5259.16 2009.65 L 5572.03 2441.97 M 5519.84 1501.08 L 5388.86 1926.11 M 6414.78 2067.97 L 6541.81 1825.89 M 6607.74 2076.17 L 6541.81 1825.89 M 7198.32 1298.44 L 6853.07 1173.94 M 7144.43 2285.19 L 6995.33 1704.3 M 7161.49 1466.09 L 6995.33 1704.3 M 7144.43 2285.19 L 7161.49 1466.09 M 7161.49 1466.09 L 6865.41 1558.71 M 7144.43 2285.19 L 7753.88 1942.89 M 7574.61 2161.57 L 7753.88 1942.89 M 7902.18 2236.54 L 7753.88 1942.89 M 8454.69 2085.21 L 7753.88 1942.89 M 6366.98 1537.65 L 6396.18 1747.76 M 6366.98 1537.65 L 6381.71 1871.63 M 5892.7 2263.48 L 6381.71 1871.63 M 5892.7 2263.48 L 6095.02 2301.47 M 6366.98 1537.65 L 5892.7 2263.48 M 5437.87 1836.75 L 5892.7 2263.48 M 5437.87 1836.75 L 5186.96 2773.26 M 5437.87 1836.75 L 5130.81 2224.58 M 5130.81 2224.58 L 5186.96 2773.26 M 5130.81 2224.58 L 4745.65 2706.26 M 5186.96 2773.26 L 5892.7 2263.48 M 5186.96 2773.26 L 5732.96 2555.76 M 4745.65 2706.26 L 5186.96 2773.26 M 5130.81 2224.58 L 4510.74 2507.18 M 4790.04 2169.04 L 4510.74 2507.18 M 4578.95 2143.21 L 4510.74 2507.18 M 4578.95 2143.21 L 4333.94 2355.24 M 4578.95 2143.21 L 4164.17 2010.05 M 4514.33 1910.44 L 4164.17 2010.05 M 4514.33 1910.44 L 4498.17 1890.45 M 4514.33 1910.44 L 5090.76 1706.68 M 4936.21 1840.3 L 5090.76 1706.68 M 5090.76 1706.68 L 4498.17 1890.45 M 4498.17 1890.45 L 4164.17 2010.05 M 4514.33 1910.44 L 4936.21 1840.3 M 4578.85 2143.24 L 4936.21 1840.3 M 4826.47 1327.39 L 4164.17 2010.05 M 4164.17 2010.05 L 4333.94 2355.24 M 5090.76 1706.68 L 4826.11 1327.18 M 4789.19 2174.61 L 4936.21 1840.3 M 4789.19 2174.61 L 5191.99 1939.75 M 4826.47 1327.39 L 4252.03 1405.34 M 5473.76 3027.69 L 5732.96 2555.76 M 5473.76 3027.69 L 5706.34 2929.6 M 5473.76 3027.69 L 5876.16 3234.66 M 5876.16 3234.66 L 5706.34 2929.6 M 6066.1 3024.12 L 5706.34 2929.6 M 6066.1 3024.12 L 5956.33 2662.08 M 6228.06 2845.94 L 5956.33 2662.08 M 6228.06 2845.94 L 5878.97 2260.97 M 5878.97 2260.97 L 5956.33 2662.08 M 5726.64 2557.18 L 5956.33 2662.08 M 4745.65 2706.26 L 4833.08 3024.96 M 4434.62 1074.54 L 4252.03 1405.34 M 5437.87 1836.75 L 5177.12 1916.13 M 4378.65 2927.15 L 4833.08 3024.96 M 4378.65 2927.15 L 4650.6 3130.22 M 4378.65 2927.15 L 4410.95 3153.56 M 4378.65 2927.15 L 4217.07 3094.25 M 4151.62 2894.91 L 4217.07 3094.25 M 4378.65 2927.15 L 4151.62 2894.91 M 4506.61 2635.7 L 4151.62 2894.91 M 4506.61 2635.7 L 4040.68 2666.04 M 4040.68 2666.04 L 4151.62 2894.91 M 4378.65 2927.15 L 4506.61 2635.7 M 4506.61 2635.7 L 3855.59 2345.74 M 4234.53 1999.69 L 3855.59 2345.74 M 4234.53 1999.69 L 3698.97 2286.39 M 3698.97 2286.39 L 3855.59 2345.74 M 4252.03 1405.34 L 4164.17 2010.05 M 4252.03 1405.34 L 4017.6 1564.89 M 5186.96 2773.26 L 5473.76 3027.69 M 5186.96 2773.26 L 4911.69 3542.45 M 4833.08 3024.96 L 5186.96 2773.26 M 4833.08 3024.96 L 5064.08 3721.81 M 4815.51 3076.71 L 5064.08 3721.81 M 4719.43 3209.23 L 5064.08 3721.81 M 4479.38 3351.93 L 5064.08 3721.81 M 4552.48 3511.89 L 5064.08 3721.81 M 4479.38 3351.93 L 4552.48 3511.89 M 4385.93 3445.27 L 4552.48 3511.89 M 4385.93 3445.27 L 4261.34 3947.9 M 4385.93 3445.27 L 4117.42 4485.24 M 3623.72 3564.4 L 4117.42 4485.24 M 3830.86 4060.97 L 4117.42 4485.24 M 3623.72 3564.4 L 3830.86 4060.97 M 3484.61 3572.42 L 3830.86 4060.97 M 3517.83 3720.17 L 3830.86 4060.97 M 3517.83 3720.17 L 3876.25 4235.27 M 3876.25 4235.27 L 3830.86 4060.97 M 3484.61 3572.42 L 3517.83 3720.17 M 3286.26 3506.69 L 3517.83 3720.17 M 3286.26 3506.69 L 3657.5 4363.95 M 3205.06 4115.82 L 3657.5 4363.95 M 3205.06 4115.82 L 2743.52 4769.6 M 2790.23 4696.55 L 2743.52 4769.6 M 2790.23 4696.55 L 2501.99 4353.67 M 2501.99 4353.67 L 2743.52 4769.6 M 3205.06 4115.82 L 2790.23 4696.55 M 3205.06 4115.82 L 2838.35 4244.61 M 3205.06 4115.82 L 2725.41 3996.88 M 2501.99 4353.67 L 2323.51 4651.42 M 2323.51 4651.42 L 2743.52 4769.6 M 2323.51 4651.42 L 2311.47 4979.91 M 2311.47 4979.91 L 2743.52 4769.6 M 2311.47 4979.91 L 2730.74 4893.24 M 3205.06 4115.82 L 2577.84 3591.63 M 3091.61 3511.87 L 2577.84 3591.63 M 2842.57 4245.08 L 2501.99 4353.67 M 3091.61 3511.87 L 2435.87 3274.4 M 2864.04 3335.08 L 2435.87 3274.4 M 2311.47 4979.91 L 2435.09 5068.73 M 2743.52 4769.6 L 3657.5 4363.95 M 2811.66 4980.01 L 3657.5 4363.95 M 3316.64 4875.53 L 3657.5 4363.95 M 2435.09 5068.73 L 2730.74 4893.24 M 2435.09 5068.73 L 2722.53 4989.79 M 2587.72 5644.19 L 2722.53 4989.79 M 2435.09 5068.73 L 2587.72 5644.19 M 2435.09 5068.73 L 2363.86 5678.76 M 2871.55 5599.71 L 2722.53 4989.79 M 2587.72 5644.19 L 2871.55 5599.71 M 2363.86 5678.76 L 2587.72 5644.19 M 2363.86 5678.76 L 2851.52 6314.35 M 3509.43 5340.93 L 2722.53 4989.79 M 3509.43 5340.93 L 3125.74 5159.44 M 3509.43 5340.93 L 3682.48 4412.8 M 3928.98 5477.15 L 3682.48 4412.8 M 4249.66 5587.12 L 3682.48 4412.8 M 4249.66 5587.12 L 4581.32 4519.17 M 4667.23 5480.26 L 4581.32 4519.17 M 4667.23 5480.26 L 4701.57 4634.26 M 4803.76 5404.36 L 4701.57 4634.26 M 3125.74 5159.44 L 2722.53 4989.79 M 3125.74 5159.44 L 2989.27 4840.14 M 2722.53 4989.79 L 2730.74 4893.24 M 3928.98 5477.15 L 4249.66 5587.12 M 3927.44 5948.68 L 4249.66 5587.12 M 3509.43 5340.93 L 3928.98 5477.15 M 3737.03 5558.28 L 3928.98 5477.15 M 3758.69 5668.9 L 3928.98 5477.15 M 4581.32 4519.17 L 3682.48 4412.8 M 4581.32 4519.17 L 4524.01 3917.93 M 4695.45 4082.4 L 4524.01 3917.93 M 4695.45 4082.4 L 4497.36 3503.57 M 4497.36 3503.57 L 4524.01 3917.93 M 4285.31 3758 L 4524.01 3917.93 M 2088.54 4650.58 L 2311.47 4979.91 M 2088.54 4650.58 L 1986.92 5104.27 M 1992.63 4649.43 L 1986.92 5104.27 M 2609.2 3134.3 L 2435.87 3274.4 M 2743.84 3991.35 L 2501.99 4353.67 M 2370.18 3879.63 L 2501.99 4353.67 M 2370.18 3879.63 L 2302.58 4201.28 M 2370.18 3879.63 L 1996.82 4139.1 M 2370.18 3879.63 L 1935.36 3815.58 M 1996.82 4139.1 L 2302.58 4201.28 M 1985.99 4406.18 L 2302.58 4201.28 M 1935.36 3815.58 L 1996.82 4139.1 M 1935.36 3815.58 L 1757.21 4031.85 M 1985.99 4406.18 L 2199.23 4562.11 M 2302.58 4201.28 L 2501.99 4353.67 M 2743.84 3991.35 L 2370.18 3879.63 M 2087.06 5119 L 2363.86 5678.76 M 2087.06 5119 L 2123.48 5663.38 M 2087.06 5119 L 1935.56 5462.56 M 1802.23 5154.84 L 1935.56 5462.56 M 2811.66 4980.01 L 3316.64 4875.53 M 3113.64 4931.55 L 3316.64 4875.53 M 1864.46 4781.36 L 2199.23 4562.11 M 2244.32 4741.52 L 2199.23 4562.11 M 4117.42 4485.24 L 4261.34 3947.9 M 4717.63 3994 L 4261.34 3947.9 M 6228.06 2845.94 L 6222.9 2297.2 M 5876.16 3234.66 L 6066.1 3024.12 M 6066.1 3024.12 L 6228.06 2845.94 M 6545.63 2902.13 L 6228.06 2845.94 M 6066.1 3024.12 L 6545.63 2902.13 M 6066.1 3024.12 L 6444.44 3131.2 M 6444.44 3131.2 L 6545.63 2902.13 M 6444.44 3131.2 L 6602.56 3325.65 M 6602.56 3325.65 L 6545.63 2902.13 M 6444.44 3131.2 L 6435.79 3494.07 M 6435.79 3494.07 L 6602.56 3325.65 M 5915.88 3465.02 L 6435.79 3494.07 M 5915.88 3465.02 L 6274.31 3668.28 M 6099.83 3800.52 L 6274.31 3668.28 M 6274.31 3668.28 L 6435.79 3494.07 M 6545.63 2902.13 L 6174.82 2286.95 M 6485.87 2259.15 L 6174.82 2286.95 M 6485.87 2259.15 L 6323.28 2002.59 M 6323.28 2002.59 L 6174.82 2286.95 M 6485.87 2259.15 L 6727.98 2008.7 M 4506.61 2635.7 L 4234.53 1999.69 M 4570.48 2415.94 L 4234.53 1999.69 M 4728.02 1986.07 L 4234.53 1999.69 M 4655.78 1907.6 L 4234.53 1999.69 M 3746.97 2817.58 L 4151.62 2894.91 M 3746.97 2817.58 L 4058.37 3121.53 M 3667.51 2874.11 L 4058.37 3121.53 M 3667.51 2874.11 L 4259.87 3377.5 M 3697.28 3113.77 L 4259.87 3377.5 M 4259.87 3377.5 L 4058.37 3121.53 M 4286.73 3329.9 L 4058.37 3121.53 M 3597.27 3450.63 L 4259.87 3377.5 M 3597.27 3450.63 L 3967.27 3582.82 M 3598.01 3619.73 L 3967.27 3582.82 M 3598.01 3619.73 L 3829.84 3750.44 M 3062.05 3567.49 L 3829.84 3750.44 M 3598.01 3619.73 L 3062.05 3567.49 M 3599.55 3450.64 L 3062.05 3567.49 M 3599.55 3450.64 L 3153.33 3212.31 M 3599.55 3450.64 L 3070.78 3020.23 M 3626.76 3100.3 L 3070.78 3020.23 M 3626.76 3100.3 L 3275.75 2938.37 M 3552.1 2870.63 L 3275.75 2938.37 M 3619.99 2800.63 L 3275.75 2938.37 M 3467.14 2423.53 L 3275.75 2938.37 M 3467.14 2423.53 L 3068.82 3015.15 M 3619.99 2800.63 L 3467.14 2423.53 M 3569.97 2337.02 L 3467.14 2423.53 M 3619.99 2800.63 L 3569.97 2337.02 M 3619.99 2800.63 L 3725.44 2341.09 M 3619.99 2800.63 L 3763.62 2292.02 M 3725.44 2341.09 L 3569.97 2337.02 M 3725.44 2341.09 L 3611.79 2286.53 M 3467.14 2423.53 L 2842.23 2939.73 M 3232.21 2235.8 L 2842.23 2939.73 M 3158.36 2178.75 L 2842.23 2939.73 M 3158.36 2178.75 L 2758.61 2443.9 M 3158.36 2178.75 L 3191.48 1869.24 M 3158.36 2178.75 L 3369.4 1979.08 M 3305.71 2279.25 L 3369.4 1979.08 M 3305.71 2279.25 L 3454.85 2102.43 M 3191.48 1869.24 L 2758.61 2443.9 M 3191.48 1869.24 L 2586.75 1962.63 M 3160.96 1717.15 L 2586.75 1962.63 M 3369.4 1979.08 L 3191.48 1869.24 M 3369.4 1979.08 L 3589.59 1837.39 M 3369.4 1979.08 L 3518.55 1901.62 M 3589.59 1837.39 L 3191.48 1869.24 M 3589.59 1837.39 L 3533.77 1747.48 M 3589.59 1837.39 L 3791.81 1648.46 M 3726.01 2049.13 L 3791.81 1648.46 M 3791.81 1648.46 L 3533.77 1747.48 M 3533.77 1747.48 L 3191.48 1869.24 M 3533.77 1747.48 L 3213.17 1715.64 M 3791.81 1648.46 L 3284.6 1449.61 M 3518.55 1901.62 L 3589.59 1837.39 M 3305.71 2279.25 L 3495.67 2183.86 M 3549.69 2450.98 L 3495.67 2183.86 M 3549.69 2450.98 L 3724.85 2046.76 M 3724.85 2046.76 L 3495.67 2183.86 M 3549.69 2450.98 L 4013.29 2201.05 M 3695.2 3074.11 L 4013.29 2201.05 M 2758.61 2443.9 L 2842.23 2939.73 M 2758.61 2443.9 L 2603.89 2843.93 M 2758.61 2443.9 L 2444.25 2778.31 M 2568.86 2030.78 L 2444.25 2778.31 M 2568.86 2030.78 L 2158.55 2269.92 M 3495.67 2183.86 L 3454.85 2102.43 M 2125.17 1882.05 L 2158.55 2269.92 M 3454.85 2102.43 L 3369.4 1979.08 M 4013.45 2205.27 L 3791.81 1648.46 M 4013.45 2205.27 L 4485.77 1320.12 M 3763.62 2292.02 L 3725.44 2341.09 M 3725.5 2272.74 L 3725.44 2341.09 M 4286.73 3329.9 L 4259.47 3053.5 M 4390.65 3146.66 L 4259.47 3053.5 M 4527.48 3040.24 L 4259.47 3053.5 M 4783.18 1843.48 L 4485.77 1320.12 M 4803.39 1671.68 L 4485.77 1320.12 M 4731.71 1403.31 L 4485.77 1320.12 M 4752.71 1307.26 L 4485.77 1320.12 M 4752.71 1307.26 L 4629.66 1086.47 M 4918.88 1307.56 L 4629.66 1086.47 M 4752.71 1307.26 L 4918.88 1307.56 M 4752.71 1307.26 L 4912.89 1349.86 M 3158.36 2178.75 L 3305.71 2279.25 M 3124.28 2265.61 L 3305.71 2279.25 M 3124.28 2265.61 L 3547.61 2453.9 M 3010.23 2543.87 L 3547.61 2453.9 M 3589.59 1837.39 L 3726.01 2049.13 M 4157.57 1867.21 L 3454.85 2102.43 M 4157.57 1867.21 L 4114.9 1853.65 M 4242.79 2049.52 L 3611.79 2286.53 M 3518.55 1901.62 L 4232.07 2250.56 M 4114.9 1853.65 L 3454.85 2102.43 M 3518.55 1901.62 L 4494.07 2418.59 M 3725.5 2272.74 L 3306.07 2761.55 M 3565.17 2167.44 L 3306.07 2761.55 M 3565.17 2167.44 L 2807.51 3264.5 M 2908 2831.31 L 2807.51 3264.5 M 2726.38 3359.25 L 2807.51 3264.5 M 2908 2831.31 L 2726.38 3359.25 M 2908 2831.31 L 2567.46 3157.88 M 2567.46 3157.88 L 2726.38 3359.25 M 2726.38 3359.25 L 3221.44 3108.26 M 3221.44 3108.26 L 2807.51 3264.5 M 2908 2831.31 L 2526.3 2815.04 M 2830.8 2303.06 L 2526.3 2815.04 M 2492.23 2231.8 L 2526.3 2815.04 M 2830.8 2303.06 L 2492.23 2231.8 M 3282.22 3485.75 L 3221.44 3108.26 M 3282.22 3485.75 L 3756.77 3128.54 M 3282.22 3485.75 L 3864.19 3462.17 M 3864.19 3462.17 L 3756.77 3128.54 M 3284.64 3951.15 L 3864.19 3462.17 M 2492.23 2231.8 L 2134.55 2716.26 M 2908 2831.31 L 2830.8 2303.06 M 2726.38 3359.25 L 3282.22 3485.75 M 2726.38 3359.25 L 2833.94 3790.15 M 2430.7 3578.45 L 2833.94 3790.15 M 3284.64 3951.15 L 3474.11 4524.37 M 2876.36 4353.49 L 3474.11 4524.37 M 3046.77 4609.69 L 3474.11 4524.37 M 3284.64 3951.15 L 2876.36 4353.49 M 3284.64 3951.15 L 2937.54 3893.82 M 2937.54 3893.82 L 2876.36 4353.49 M 2296.35 4014.02 L 2876.36 4353.49 M 2296.35 4014.02 L 2577.15 4607.55 M 2173.18 4415.03 L 2577.15 4607.55 M 2173.18 4415.03 L 2373.62 4776.47 M 2173.18 4415.03 L 2224.78 4704.43 M 2173.18 4415.03 L 1879.08 4131.26 M 2141.59 4354 L 1879.08 4131.26 M 2141.59 4354 L 1959.15 4047 M 1879.08 4131.26 L 2224.78 4704.43 M 1812.26 4794.57 L 2224.78 4704.43 M 1812.26 4794.57 L 2116.36 4839.23 M 1812.26 4794.57 L 2020.73 5036.11 M 2020.73 5036.11 L 2116.36 4839.23 M 2062.08 5028.43 L 2116.36 4839.23 M 2062.08 5028.43 L 2224.69 4704.35 M 2062.08 5028.43 L 2423.97 4540.98 M 2173.18 4415.03 L 2141.59 4354 M 1879.08 4131.26 L 1812.26 4794.57 M 1879.08 4131.26 L 1414.83 4612.16 M 2423.97 4540.98 L 2224.69 4704.35 M 1429.13 4088.76 L 1414.83 4612.16 M 2406.94 4434.01 L 1959.15 4047 M 2423.97 4540.98 L 2064.39 4744.96 M 1854.48 4778.81 L 2064.39 4744.96 M 2423.97 4540.98 L 1854.48 4778.81 M 2423.97 4540.98 L 1675.08 4757.44 M 1675.08 4757.44 L 1854.48 4778.81 M 1675.08 4757.44 L 1686.42 4776.76 M 1686.42 4776.76 L 1854.48 4778.81 M 1675.08 4757.44 L 1669.52 4935.44 M 1959.15 4047 L 1879.08 4131.26 M 2429.84 5463.33 L 2423.97 4540.98 M 2429.84 5463.33 L 3152.34 4837.39 M 2429.84 5463.33 L 3260.72 5127.67 M 2627.55 5689.05 L 3260.72 5127.67 M 2627.55 5689.05 L 3281.85 5227.17 M 2627.55 5689.05 L 3097.05 5924.14 M 3281.85 5227.17 L 3260.72 5127.67 M 3773.43 4681.17 L 3260.72 5127.67 M 3589.91 4455.62 L 3260.72 5127.67 M 3589.91 4455.62 L 3151.52 4837.7 M 3281.85 5227.17 L 3773.43 4681.17 M 4353.57 4190.43 L 3773.43 4681.17 M 4346.55 4180.05 L 3773.43 4681.17 M 3888.41 4205.74 L 3773.43 4681.17 M 3281.85 5227.17 L 4353.57 4190.43 M 3281.85 5227.17 L 4062.76 5063.69 M 3281.85 5227.17 L 3516.47 5538.69 M 3516.47 5538.69 L 4062.76 5063.69 M 3844.7 5276.81 L 4062.76 5063.69 M 4506.53 4693.61 L 4062.76 5063.69 M 3844.7 5276.81 L 4506.53 4693.61 M 3516.47 5538.69 L 3844.7 5276.81 M 3096.53 5923.87 L 3844.7 5276.81 M 3199.74 6043.87 L 4624.71 4801.52 M 3888.41 4205.74 L 3589.57 4455.9 M 3888.41 4205.74 L 4146.1 3969.09 M 4146.1 3969.09 L 3589.57 4455.9 M 3199.74 6043.87 L 6413.13 5414.4 M 3369.64 6910.75 L 6413.13 5414.4 M 4506.53 4693.61 L 4353.25 4190.33 M 4506.53 4693.61 L 4522 4673.33 M 4522 4673.33 L 4353.25 4190.33 M 4353.57 4190.43 L 4346.55 4180.05 M 4353.57 4190.43 L 4352.83 4186.43 M 4524.25 4688.49 L 4522 4673.33 M 4506.53 4693.61 L 4524.25 4688.49 M 4352.83 4186.43 L 4346.55 4180.05 M 1414.83 4612.16 L 1812.26 4794.57 M 1414.83 4612.16 L 1502.55 4880.7 M 3756.77 3128.54 L 3221.44 3108.26 M 3285.63 3088.31 L 3221.44 3108.26 M 1669.52 4935.44 L 1686.42 4776.76 M 2008.95 4651.19 L 1686.42 4776.76 M 2008.95 4651.19 L 1523.91 4367.92 M 1951.06 4313.95 L 1523.91 4367.92 M 1959.15 4047 L 1571.35 3645.27 M 1812.26 4794.57 L 1668.63 5304.49 M 1538.09 4962.42 L 1668.63 5304.49 M 3787.08 2379.1 L 2807.51 3264.5 M 1879.08 4131.26 L 1429.13 4088.76 M 1448.49 3749.85 L 1429.13 4088.76 M 1448.49 3749.85 L 776.224 3896.84 M 1304.41 3683.6 L 776.224 3896.84 M 2526.3 2815.04 L 2567.46 3157.88 M 3756.77 3128.54 L 3285.63 3088.31 M 3474.11 4524.37 L 3864.19 3462.17 M 3474.11 4524.37 L 3879.79 4297.7 M 2429.84 5463.33 L 2627.55 5689.05 M 2429.84 5463.33 L 2160.29 6089.67 M 1675.08 4757.44 L 1641.87 4967.13 M 1959.15 4047 L 2045.31 3971.22 M 2297.84 4276.35 L 2045.31 3971.22 M 2596.8 4348.57 L 2045.31 3971.22 M 1959.15 4047 L 2297.84 4276.35 M 2736.51 4273.73 L 2045.31 3971.22 M 2736.51 4273.73 L 2716.42 3923.77 M 2935.03 4151.48 L 2716.42 3923.77 M 2736.51 4273.73 L 2935.03 4151.48 M 3100.22 4116.01 L 2716.42 3923.77 M 2716.42 3923.77 L 2045.31 3971.22 M 2539.84 3522.91 L 2045.31 3971.22 M 2539.84 3522.91 L 1972.17 3625.62 M 2297.84 4276.35 L 2596.8 4348.57 M 1959.15 4047 L 2326.48 4507.54 M 2297.84 4276.35 L 2523.19 4690.04 M 2185.1 4289.82 L 2523.19 4690.04 M 1913.46 4412.8 L 2523.19 4690.04 M 1913.46 4412.8 L 2240.28 5004.31 M 1925.66 4815.54 L 2240.28 5004.31 M 1913.46 4412.8 L 1925.66 4815.54 M 1673.22 4611.26 L 1925.66 4815.54 M 3216.59 3808.55 L 2716.42 3923.77 M 3216.59 3808.55 L 2983.91 3610.12 M 3100.22 4116.01 L 3216.59 3808.55 M 3351.81 4062.1 L 3216.59 3808.55 M 2935.03 4151.48 L 3100.22 4116.01 M 3042.61 4252.55 L 3100.22 4116.01 M 2736.51 4273.73 L 3016.38 4274.65 M 2653.02 4408.44 L 3016.38 4274.65 M 2653.02 4408.44 L 2974.69 4331.83 M 2974.69 4331.83 L 3016.38 4274.65 M 2716.42 3923.77 L 2539.84 3522.91 M 2897.9 3553.65 L 2539.84 3522.91 M 1871.11 2860.24 L 1972.17 3625.62 M 1871.11 2860.24 L 1685.95 3522.23 M 1871.11 2860.24 L 1554.97 3165.14 M 1685.95 3522.23 L 1972.17 3625.62 M 2098.99 4584.82 L 2326.48 4507.54 M 2960.2 4629.66 L 2326.48 4507.54 M 2098.99 4584.82 L 2960.2 4629.66 M 2974.69 4331.83 L 3223.46 4425.31 M 2990.26 4597.44 L 3223.46 4425.31 M 2990.26 4597.44 L 3363.68 4666.28 M 3216.59 3808.55 L 3156.04 3243.34 M 3562.45 3568.16 L 3156.04 3243.34 M 3738.96 3453.74 L 3156.04 3243.34 M 3738.96 3453.74 L 3591.88 2740.91 M 776.387 3896.28 L 1414.83 4612.16 M 776.387 3896.28 L 959.237 4480.62 M 4346.53 4179.77 L 4146.1 3969.09 M 4156.01 3960.8 L 4146.1 3969.09 M 4346.53 4179.77 L 4156.01 3960.8 M 4170.75 3962.99 L 4156.01 3960.8 M 3096.53 5923.87 L 3199.74 6043.87 M 5351.64 8511.92 L 6413.13 5414.4 M 5351.64 8511.92 L 5996.91 7949.32 M 5351.64 8511.92 L 5777.03 8330.64 M 5453.96 8627.06 L 5777.03 8330.64 M 5453.96 8627.06 L 5597.15 8523.6 M 5460.71 8642.54 L 5597.15 8523.6 M 5597.15 8523.6 L 5777.03 8330.64 M 6213.94 7980.96 L 5777.03 8330.64 M 6494.1 7709.02 L 5777.03 8330.64 M 6494.1 7709.02 L 5995.91 7948.74 M 5597.15 8523.6 L 6213.94 7980.96 M 6769.11 7261.7 L 5995.91 7948.74 M 6213.94 7980.96 L 6494.1 7709.02 M 6873 7380.97 L 6494.1 7709.02 M 6213.94 7980.96 L 6873 7380.97 M 6213.94 7980.96 L 7343.8 7613.9 M 6752.81 7945.09 L 7343.8 7613.9 M 6618.72 8261.87 L 7343.8 7613.9 M 6618.72 8261.87 L 7277.56 8060.62 M 6632.7 8634.68 L 7277.56 8060.62 M 6632.7 8634.68 L 7189.13 8148.33 M 7189.13 8148.33 L 7277.56 8060.62 M 7542.53 7838.44 L 7277.56 8060.62 M 7189.13 8148.33 L 7542.53 7838.44 M 6213.94 7980.96 L 6752.81 7945.09 M 6232.5 8569.26 L 6752.81 7945.09 M 6232.5 8569.26 L 6618.86 8261.93 M 6033.07 8779.43 L 6618.86 8261.93 M 6033.07 8779.43 L 6634.48 8634.67 M 6154.88 9046.99 L 6634.48 8634.67 M 6154.88 9046.99 L 6231.61 8990.84 M 6231.61 8990.84 L 6634.48 8634.67 M 5823.46 9350.38 L 6231.61 8990.84 M 6154.88 9046.99 L 5823.46 9350.38 M 6232.5 8569.26 L 6033.07 8779.43 M 5626.42 9121.55 L 6033.07 8779.43 M 5632.95 9132.25 L 6033.07 8779.43 M 6232.5 8569.26 L 5626.42 9121.55 M 5351.64 8511.92 L 5453.96 8627.06 M 6873 7380.97 L 6769.1 7261.69 M 7187.61 7105.61 L 6769.1 7261.69 M 7542.53 7838.44 L 7343.5 7613.86 M 5632.95 9132.25 L 5824.2 9350.82 M 4618.35 4810.73 L 4524.25 4688.49 M 4346.53 4179.77 L 4170.75 3962.99 M 2492.23 2231.8 L 1469.6 2731.42 M 1876.28 2287.62 L 1469.6 2731.42 M 4522 4673.33 L 6618.4 4353.97 M 6407.37 4799.64 L 6618.4 4353.97 M 6407.37 4799.64 L 6634.08 4338.76 M 6634.08 4338.76 L 6618.4 4353.97 M 4527.72 1638.9 L 3454.85 2102.43 M 4527.72 1638.9 L 3892.86 1717.07 M 4527.72 1638.9 L 4412.28 1424.8 M 4527.72 1638.9 L 4737.02 1527.13 M 4753.46 2005.86 L 4737.02 1527.13 M 4360.92 2621.78 L 4494.07 2418.59 M 4693.18 2547.39 L 4494.07 2418.59 M 4693.18 2547.39 L 4662.63 2156.94 M 2539.84 3522.91 L 1871.11 2860.24 M 2350.48 2872.21 L 1871.11 2860.24 M 5917.51 2495.8 L 4170.75 3962.99 M 5917.51 2495.8 L 5894.57 2469.98 M 5351.64 8511.92 L 4683.63 9122.62 M 6245.59 2904.95 L 4346.55 4180.05 M 6245.59 2904.95 L 6098.87 2685.69 M 6303.27 4054.64 L 4522 4673.33 M 6303.27 4054.64 L 6301.91 4038.91 M 2406.94 4434.01 L 2490.55 4209.58 M 3679.81 2671.67 L 4146.1 3969.09 M 5889.98 2464.7 L 4156.01 3960.8 M 5889.98 2464.7 L 5189.28 3054.72 M 6413.13 5414.4 L 4624.71 4801.52 M 6413.13 5414.4 L 6462.19 5268.35 M 5632.95 9132.25 L 3903 10628.5 M 5351.64 8511.92 L 4674.46 9120.67 M 5885.28 2448.29 L 5189.28 3054.72 M 5632.95 9132.25 L 3893.93 10620.6 M 5623.92 9123.56 L 3893.93 10620.6 M 3903.49 10597.1 L 3893.93 10620.6 M 3849.87 10500 L 3893.93 10620.6 M 5623.92 9123.56 L 3903.49 10597.1 M 5325.49 8981.84 L 3903.49 10597.1 M 5169.5 8896.48 L 3903.49 10597.1 M 3736.26 10139.9 L 3903.49 10597.1 M 3736.26 10139.9 L 3849.44 10500.2 M 5169.5 8896.48 L 3736.26 10139.9 M 3728.08 10121.6 L 3736.26 10139.9 M 5169.5 8896.48 L 3728.08 10121.6 M 5156.26 8885.98 L 3728.08 10121.6 M 4376.17 9366.04 L 3728.08 10121.6 M 3626.53 10005.7 L 3728.08 10121.6 M 4376.17 9366.04 L 3626.53 10005.7 M 4367.04 9363.88 L 3626.53 10005.7 M 2141.59 4354 L 2406.94 4434.01 M 2141.59 4354 L 2318.53 4665.98 M 2318.53 4665.98 L 2406.94 4434.01 M 2550.98 4750.44 L 2406.94 4434.01 M 3887.09 1710.6 L 3369.4 1979.08 M 3221.44 3108.26 L 3787.08 2379.1 M 3565.17 2167.44 L 2908 2831.31 M 3518.37 4716.93 L 2406.94 4434.01 M 3518.37 4716.93 L 3477.68 4193.73 M 3518.37 4716.93 L 3714.47 4443.3 M 3533.93 4752.36 L 3714.47 4443.3 M 3533.93 4752.36 L 3877.24 4643.84 M 3655.53 5031.06 L 3877.24 4643.84 M 4510.74 2507.18 L 4745.65 2706.26 M 3091.61 3511.87 L 2864.04 3335.08 M 4234.53 1999.69 L 3829.23 1850.84 M 4199.94 1587.39 L 3829.23 1850.84 M 4199.94 1587.39 L 3810.14 1325.59 M 7144.43 2285.19 L 7574.61 2161.57 M 7338.6 2488.39 L 7574.61 2161.57 M 7144.43 2285.19 L 7338.6 2488.39 M 7144.43 2285.19 L 7035.43 3097.98 M 6595.79 2771.85 L 7035.43 3097.98 M 6564.39 2792.77 L 7035.43 3097.98 M 7035.43 3097.98 L 7338.6 2488.39 M 7262.63 2866.42 L 7338.6 2488.39 M 7262.63 2866.42 L 7307.69 2689.71 M 7262.63 2866.42 L 7640.93 2678.34 M 7261.66 3056.81 L 7640.93 2678.34 M 7580.78 3311.79 L 7640.93 2678.34 M 7580.78 3311.79 L 7831.12 3062.91 M 7262.63 2866.42 L 7261.66 3056.81 M 7338.6 2488.39 L 7902.29 2236.06 M 7408.02 2583.59 L 7902.29 2236.06 M 7641.54 2794.55 L 7902.29 2236.06 M 4410.95 3153.56 L 4650.6 3130.22 M 4410.95 3153.56 L 4480.86 3352.9 M 2864.04 3335.08 L 2609.2 3134.3 M 2802.56 3132.73 L 2609.2 3134.3 M 2802.56 3132.73 L 2485.81 2920.35 M 2661.18 2793.9 L 2485.81 2920.35 M 2661.18 2793.9 L 2391.07 2753.31 M 2618.49 2696.16 L 2391.07 2753.31 M 2618.49 2696.16 L 2488.35 2195.72 M 2618.49 2696.16 L 2677.84 2162.86 M 2618.49 2696.16 L 2787.83 2325.9 M 2787.83 2325.9 L 2677.84 2162.86 M 2911.22 2133.02 L 2677.84 2162.86 M 2787.83 2325.9 L 2911.22 2133.02 M 2988.94 1931.95 L 2677.84 2162.86 M 2488.35 2195.72 L 2391.07 2753.31 M 2921.83 1905.21 L 2677.84 2162.86 M 2488.35 2195.72 L 2195.74 2346.15 M 2357.16 2157.24 L 2195.74 2346.15 M 2988.94 1931.95 L 2921.83 1905.21 M 3146.63 1645.83 L 2921.83 1905.21 M 3146.63 1645.83 L 2992.98 1556.18 M 2988.94 1931.95 L 3146.63 1645.83 M 2988.94 1931.95 L 3261.04 1843.92 M 2618.49 2696.16 L 2874.99 2522.81 M 2992.98 1556.18 L 2921.83 1905.21 M 2992.98 1556.18 L 2827.06 1859.99 M 2992.98 1556.18 L 2782.96 1608.72 M 2670.96 1191.36 L 2782.96 1608.72 M 2670.96 1191.36 L 2481.67 1212.72 M 3152.5 2071.11 L 3261.04 1843.92 M 2162.23 2221.14 L 2195.74 2346.15 M 2162.23 2221.14 L 2009.47 2400.59 M 2054.32 2046.71 L 2009.47 2400.59 M 2162.23 2221.14 L 2054.32 2046.71 M 1963.09 1940.38 L 2009.47 2400.59 M 2009.47 2400.59 L 2195.74 2346.15 M 2009.47 2400.59 L 2185.33 2682.13 M 2009.47 2400.59 L 1971.75 2928.26 M 2009.47 2400.59 L 1703.27 2767.56 M 1971.75 2928.26 L 2185.33 2682.13 M 1703.27 2767.56 L 1971.75 2928.26 M 1838.82 3082.97 L 1971.75 2928.26 M 2185.33 2682.13 L 2195.74 2346.15 M 1703.27 2767.56 L 1838.82 3082.97 M 1703.27 2767.56 L 1424.82 2955.66 M 1424.82 2955.66 L 1838.82 3082.97 M 1424.82 2955.66 L 1454.25 3185.31 M 1454.25 3185.31 L 1838.82 3082.97 M 1743.72 2220.5 L 1703.27 2767.56 M 1743.72 2220.5 L 1405.09 2626.55 M 1387.8 2386.27 L 1405.09 2626.55 M 1387.8 2386.27 L 1077.99 2438.5 M 1077.99 2438.5 L 1405.09 2626.55 M 1187.35 2809.55 L 1405.09 2626.55 M 1187.35 2809.55 L 1488.98 3032.36 M 1488.98 3032.36 L 1405.09 2626.55 M 1488.98 3032.36 L 1610.12 2876.31 M 1821.15 3000.88 L 1610.12 2876.31 M 1488.98 3032.36 L 1821.15 3000.88 M 1610.12 2876.31 L 1405.09 2626.55 M 1743.72 2220.5 L 1387.8 2386.27 M 2490.66 2644.85 L 2195.74 2346.15 M 1077.99 2438.5 L 1187.35 2809.55 M 853.505 2552.73 L 1187.35 2809.55 M 910.212 2766.28 L 1187.35 2809.55 M 2568.86 2030.78 L 2125.17 1882.05 M 2115.53 1764.83 L 2125.17 1882.05 M 2021.24 1867.42 L 2125.17 1882.05 M 5705.73 2554.41 L 6095.02 2301.47 M 5705.73 2554.41 L 5678.13 2947.98 M 5482.96 2901.17 L 5678.13 2947.98 M 5915.88 3465.02 L 6099.83 3800.52 M 5925.41 4061.09 L 6099.83 3800.52 M 5925.41 4061.09 L 6318.78 4149.98 M 6039.38 4382.32 L 6318.78 4149.98 M 6039.38 4382.32 L 6570.43 4268.25 M 6570.43 4268.25 L 6318.78 4149.98 M 6620.51 3968.21 L 6318.78 4149.98 M 6471.31 3647.19 L 6318.78 4149.98 M 6471.31 3647.19 L 5845.57 4008.82 M 6570.43 4268.25 L 6620.51 3968.21 M 6570.43 4268.25 L 7119.88 3923.81 M 7119.88 3923.81 L 6620.51 3968.21 M 6772.63 3784.16 L 6620.51 3968.21 M 6747.24 4352.77 L 7119.88 3923.81 M 7119.88 3923.81 L 6772.63 3784.16 M 6772.63 3784.16 L 6468 3648.75 M 7193.15 4602.8 L 7119.88 3923.81 M 7193.15 4602.8 L 7311.4 4374.12 M 7119.88 3923.81 L 6527.48 3572.56 M 5897 3678.51 L 5845.57 4008.82 M 5897 3678.51 L 5424.6 3915.34 M 5657.61 3664.9 L 5424.6 3915.34 M 6570.43 4268.25 L 6747.24 4352.77 M 7311.4 4374.12 L 7119.88 3923.81 M 7311.4 4374.12 L 7357.1 4240.96 M 6039.38 4382.32 L 6597.55 4724.65 M 6039.38 4382.32 L 5916.08 4734.49 M 2054.32 2046.71 L 1963.09 1940.38 M 2054.32 2046.71 L 2096.29 1828.78 M 2204.39 1984.41 L 2096.29 1828.78 M 2204.39 1984.41 L 2199.13 1758.26 M 2276.43 1902.28 L 2199.13 1758.26 M 2426.92 1695.04 L 2199.13 1758.26 M 2276.43 1902.28 L 2426.92 1695.04 M 2276.43 1902.28 L 2471.29 1963.62 M 2276.43 1902.28 L 2372.42 2058.04 M 2229.33 2000.85 L 2372.42 2058.04 M 2471.29 1963.62 L 2426.92 1695.04 M 2426.92 1695.04 L 2197.59 1596.72 M 2338.25 1455.83 L 2197.59 1596.72 M 2338.25 1455.83 L 2209.07 1419.25 M 4412.28 1424.8 L 3892.86 1717.07 M 4412.28 1424.8 L 3941.86 1676.18 M 5279.75 3216.77 L 5678.13 2947.98 M 5442.45 3181.66 L 5678.13 2947.98 M 5442.45 3181.66 L 5803.85 2885.27 M 6126.7 3036.21 L 5803.85 2885.27 M 6126.7 3036.21 L 5771.51 2748.55 M 6126.7 3036.21 L 6801.85 2650.03 M 6801.85 2650.03 L 5771.51 2748.55 M 6801.85 2650.03 L 6441.35 2370.3 M 6823.02 2384.37 L 6441.35 2370.3 M 2318.53 4665.98 L 2550.98 4750.44 M 2318.53 4665.98 L 2358.22 5000.64 M 6381.71 1871.63 L 6396.18 1747.76 M 6381.71 1871.63 L 6664.38 1921.63 M 6664.38 1921.63 L 6396.18 1747.76 M 6464.02 2136.01 L 6664.38 1921.63 M 1864.46 4781.36 L 2244.32 4741.52 M 2255.98 4891.54 L 2244.32 4741.52 M 1864.46 4781.36 L 2255.98 4891.54 M 1864.46 4781.36 L 1851.83 5010.26 M 1466.67 4879.69 L 1851.83 5010.26 M 1864.46 4781.36 L 1466.67 4879.69 M 1864.46 4781.36 L 1717.41 4670.81 M 1717.41 4670.81 L 1466.67 4879.69 M 1717.41 4670.81 L 1553.37 4546.41 M 2028.06 4511.21 L 1553.37 4546.41 M 5090.76 1706.68 L 5281.05 792.377 M 5348.75 1381.87 L 5281.05 792.377 M 5634.7 1016.68 L 5281.05 792.377 M 6537.18 3561.82 L 6468 3648.75 M 1851.83 5010.26 L 2255.98 4891.54 M 1915.69 5220.68 L 2255.98 4891.54 M 1715.42 2894.7 L 2098.76 3737.17 M 1715.42 2894.7 L 1596.54 3401.41 M 1715.42 2894.7 L 1275.47 3380.36 M 5915.88 3465.02 L 5925.41 4061.09 M 4581.32 4519.17 L 4695.45 4082.4 M 5033.48 4234.15 L 4695.45 4082.4 M 7640.93 2678.34 L 7307.69 2689.71 M 853.505 2552.73 L 910.212 2766.28 M 3695.2 3074.11 L 4103.52 3046.76 M 3695.2 3074.11 L 4034.18 3205.24 M 3695.2 3074.11 L 3764.12 3249.82 M 2326.48 4507.54 L 2297.84 4276.35 M 3903 10628.5 L 5824.2 9350.82 M 3903 10628.5 L 4091.87 10849.3 M 3903 10628.5 L 3782.08 11096.9 M 3892.91 10622 L 3782.08 11096.9 M 4091.87 10849.3 L 5824.2 9350.82 M 3892.91 10622 L 2988.99 11776.9 M 3207.25 11203 L 2988.99 11776.9 M 3184.56 3305.71 L 3787.08 2379.1 M 3184.56 3305.71 L 3551.95 2830.59 M 4410.95 3153.56 L 4388.27 3447.1 M 4410.95 3153.56 L 4219.98 3310.49 M 3565.17 2167.44 L 2646.36 2921.11 M 4695.45 4082.4 L 4854.1 3557.12 M 5189.43 3736.14 L 4854.1 3557.12 M 4006.31 2282.54 L 4333.94 2355.24 M 4006.31 2282.54 L 4107.7 2320.8 M 5514.83 8811.93 L 5597.15 8523.6 M 2199.13 1758.26 L 2096.29 1828.78 M 2104.7 1627.19 L 2096.29 1828.78 M 5638.05 1210.38 L 5180.18 1922.8 M 5638.05 1210.38 L 5090.38 1339.44 M 5638.05 1210.38 L 5461.4 1199.25 M 5461.4 1199.25 L 5090.38 1339.44 M 5461.4 1199.25 L 5212.95 1186.82 M 5361.82 696.865 L 5461.4 1199.25 M 5361.82 696.865 L 5028.15 672.254 M 5090.38 1339.44 L 5180.18 1922.8 M 4928.79 1568.59 L 5180.18 1922.8 M 4726.12 1825.99 L 5180.18 1922.8 M 5638.05 1210.38 L 5361.82 696.865 M 5024.4 675.361 L 5212.95 1186.82 M 4582.67 816.099 L 5212.95 1186.82 M 4582.67 816.099 L 5042.77 1154.8 M 4625.66 926.092 L 5042.77 1154.8 M 5042.77 1154.8 L 5212.95 1186.82 M 5042.77 1154.8 L 5264.93 1405.52 M 4625.66 926.092 L 4777.18 1169.93 M 4777.18 1169.93 L 5042.77 1154.8 M 4777.18 1169.93 L 5036.68 1488.4 M 4625.66 926.092 L 5018.95 1622.07 M 5264.93 1405.52 L 5212.95 1186.82 M 4513.97 1955.7 L 5180.18 1922.8 M 4513.97 1955.7 L 4460.2 2249.4 M 4188.54 2081.65 L 4460.2 2249.4 M 4513.97 1955.7 L 4188.54 2081.65 M 4188.54 2081.65 L 4290.56 2456.68 M 4290.56 2456.68 L 4460.2 2249.4 M 3915.22 2575.94 L 4290.56 2456.68 M 3915.22 2575.94 L 4120.44 2675.1 M 4120.44 2675.1 L 4290.56 2456.68 M 4460.2 2249.4 L 5180.18 1922.8 M 5038.03 2303.68 L 5180.18 1922.8 M 5038.03 2303.68 L 5113.69 2155.2 M 5113.69 2155.2 L 5180.18 1922.8 M 5113.69 2155.2 L 5216.52 2034.43 M 4460.2 2249.4 L 5038.03 2303.68 M 4577.13 2492.57 L 4460.2 2249.4 M 4582.67 816.099 L 4625.66 926.092 M 5024.4 675.361 L 4582.67 816.099 M 5024.4 675.361 L 4562.58 570.492 M 4513.97 1955.7 L 4230.53 1760.94 M 4600.16 1722.45 L 4230.53 1760.94 M 4607.16 1394.92 L 4230.53 1760.94 M 4607.16 1394.92 L 3847.85 1441.31 M 3847.85 1441.31 L 4230.53 1760.94 M 4483.06 1191.56 L 3847.85 1441.31 M 4483.06 1191.56 L 4118.85 1245.46 M 4483.06 1191.56 L 4413.58 1024.42 M 4841.44 1016.8 L 4413.58 1024.42 M 4607.16 1394.92 L 4483.06 1191.56 M 4841.44 1016.8 L 4787.51 763.289 M 4413.58 1024.42 L 4118.85 1245.46 M 4413.58 1024.42 L 3568.17 1098.65 M 3568.17 1098.65 L 4118.85 1245.46 M 4787.51 763.289 L 4413.58 1024.42 M 4188.54 2081.65 L 3915.22 2575.94 M 3886.12 1966.93 L 3915.22 2575.94 M 5034.13 1488.34 L 5264.93 1405.52 M 5034.13 1488.34 L 5325.95 1649.5 M 5034.13 1488.34 L 5174.88 1861.7 M 5024.54 1615.77 L 5174.88 1861.7 M 5325.95 1649.5 L 5264.93 1405.52 M 5766.07 1540.3 L 5264.93 1405.52 M 5766.07 1540.3 L 5397.11 1152.06 M 7566.33 6780.84 L 6769.1 7261.69 M 4497.36 3503.57 L 4285.31 3758 M 5189.43 3736.14 L 5595.12 3405.97 M 7338.6 2488.39 L 7408.02 2583.59 M 6174.82 2286.95 L 6228.06 2845.94 M 5415.64 841.377 L 4787.51 763.289 M 4117.42 4485.24 L 4717.63 3994 M 7163.3 3175.25 L 7261.66 3056.81 M 7163.3 3175.25 L 7260.73 3206.14 M 7260.73 3206.14 L 7261.66 3056.81 M 7462.49 3264 L 7261.66 3056.81 M 7260.73 3206.14 L 7462.49 3264 M 7112.64 3679.15 L 7462.49 3264 M 7112.64 3679.15 L 7626.87 3905.71 M 7626.87 3905.71 L 7462.49 3264 M 7626.87 3905.71 L 7795.78 3797.7 M 7462.49 3264 L 7521 2741.22 M 7925.48 3236.11 L 7521 2741.22 M 7112.64 3679.15 L 7524.39 4150.77 M 5482.96 2901.17 L 5279.75 3216.77 M 5325.95 1649.5 L 5766.07 1540.3 M 2104.7 1627.19 L 1889.77 1730.04 M 1944.82 1549.3 L 1889.77 1730.04 M 1737.25 1583.25 L 1889.77 1730.04 M 1963.09 1940.38 L 1613.16 2085.74 M 1670.73 1581.53 L 1613.16 2085.74 M 1670.73 1581.53 L 1495.38 1788.68 M 1416.79 1460.2 L 1495.38 1788.68 M 1495.38 1788.68 L 1613.16 2085.74 M 1495.38 1788.68 L 1373.73 1980.14 M 1495.38 1788.68 L 1148.44 1845.37 M 3787.08 2379.1 L 3727.72 2238.63 M 3121.04 3593.63 L 3551.95 2830.59 M 3121.04 3593.63 L 3535.92 3140.51 M 3086.53 3748.41 L 3535.92 3140.51 M 3086.53 3748.41 L 3660.34 3054.49 M 3736.26 10139.9 L 2600.74 10356.6 M 2625.56 10065.2 L 2600.74 10356.6 M 7508.72 4723.97 L 7311.4 4374.12 M 7508.72 4723.97 L 7549.1 4498.36 M 4803.39 1671.68 L 4731.71 1403.31 M 4803.39 1671.68 L 5347.21 1654.95 M 4803.39 1671.68 L 5486.99 1712.75 M 4803.39 1671.68 L 5221.21 1872.96 M 5739.44 2320.49 L 6078.09 2482.23 M 1613.16 2085.74 L 2009.47 2400.59 M 1613.16 2085.74 L 1704.63 2299.96 M 4006.31 2282.54 L 3659.67 2226.57 M 3285.63 3088.31 L 3050.95 3002.06 M 6231.61 8990.84 L 7712.46 9197.73 M 1944.82 1549.3 L 1737.25 1583.25 M 1706.06 1464.2 L 1737.25 1583.25 M 1706.06 1464.2 L 1516.06 1498.84 M 1660.19 1379.97 L 1516.06 1498.84 M 1541.88 1176.96 L 1516.06 1498.84 M 1541.88 1176.96 L 1275.52 1352.76 M 6537.18 3561.82 L 6699.36 3122.16 M 2627.55 5689.05 L 2733.63 6674.29 M 2574.26 6302.23 L 2733.63 6674.29 M 2603.89 2843.93 L 2842.23 2939.73 M 2627.2 3095.71 L 2842.23 2939.73 M 1004.48 2113.2 L 1077.99 2438.5 M 7198.32 1298.44 L 6870.75 1054.92 M 5885.28 2448.29 L 5526.07 1479.84 M 2087.06 5119 L 1802.23 5154.84 M 2444.25 2778.31 L 2603.89 2843.93 M 5966.9 2800.5 L 6078.09 2482.23 M 5966.9 2800.5 L 6264.78 2533.65 M 6264.78 2533.65 L 6078.09 2482.23 M 6099.68 2074.68 L 6414.78 2067.97 M 3849.87 10500 L 2998.47 10544.4 M 7357.1 4240.96 L 7119.88 3923.81 M 6537.18 3561.82 L 6804.63 2906.73 M 5281.05 792.377 L 4826.11 1327.18 M 5281.05 792.377 L 4838.92 753.57 M 5281.05 792.377 L 4952.14 539.786 M 2911.22 2133.02 L 2988.94 1931.95 M 6855.11 4618.41 L 6634.08 4338.76 M 4091.87 10849.3 L 4574.03 12405.8 M 4165.28 11239 L 4574.03 12405.8 M 4363.82 12264.7 L 4574.03 12405.8 M 7839.87 4885.91 L 7549.1 4498.36 M 7839.87 4885.91 L 8103.27 4738.88 M 7839.87 4885.91 L 8093.78 4776.39 M 7839.87 4885.91 L 8024.79 5072.52 M 7869.05 5253.37 L 8024.79 5072.52 M 2096.29 1828.78 L 1963.09 1940.38 M 1867.56 1837.88 L 1963.09 1940.38 M 7838.94 7187.26 L 7343.5 7613.86 M 5090.76 1706.68 L 5348.75 1381.87 M 3728.08 10121.6 L 2633.98 10295.5 M 3096.53 5923.87 L 2592.65 6358.77 M 6407.37 4799.64 L 6855.11 4618.41 M 6621.25 5027.41 L 6855.11 4618.41 M 7317.61 5604.93 L 6855.11 4618.41 M 7317.61 5604.93 L 7028.49 4775.7 M 7187.61 7105.61 L 7566.33 6780.84 M 7187.61 7105.61 L 7497.8 7055.15 M 6872.04 7379.87 L 7497.8 7055.15 M 3199.74 6043.87 L 3369.64 6910.75 M 3177.23 6727.4 L 3369.64 6910.75 M 9691.63 8579.64 L 7542.53 7838.44 M 9223.19 8415.99 L 7542.53 7838.44 M 9223.19 8415.99 L 8255.57 7779.56 M 9223.19 8415.99 L 9244.72 8116.92 M 9691.63 8579.64 L 9223.19 8415.99 M 6956.38 5429.87 L 6462.19 5268.35 M 6956.38 5429.87 L 6762.86 5341.22 M 7385.43 5570.7 L 6762.86 5341.22 M 6956.38 5429.87 L 7385.43 5570.7 M 6870.75 1054.92 L 6853.07 1173.94 M 5823.46 9350.38 L 7029.78 10423.5 M 4390.65 3146.66 L 4527.48 3040.24 M 4390.65 3146.66 L 4480.52 3197.06 M 6865.42 860.515 L 6853.07 1173.94 M 4952.14 539.786 L 4838.92 753.57 M 4952.14 539.786 L 4834.97 524.847 M 6099.68 2074.68 L 6414.78 2067.97" />
</svg>
