<?xml version="1.0"?>
<svg width="16428" height="11977" version="1.1" xmlns="http://www.w3.org/2000/svg" >
<defs>
<style type="text/css"><![CDATA[
.m {stroke:rgb(255,0,0);stroke-width:20.535000;}
.v {stroke:rgb(0,0,255);stroke-width:20.535000;}
.b {stroke:rgb(0,0,0);stroke-width:41.070000;fill:white}
.n {stroke:rgb(128,128,128);stroke-width:20.535000}
.t {stroke:rgb(0,128,0);stroke-width:20.535000;}
.c {stroke:rgb(128,128,128);stroke-width:20.535000;stroke-dasharray:164.280000, 164.280000;}
]]></style>
</defs>
<path fill="none" style="stroke:black;stroke-width:41.070000;" d=" M 11807.1 6362.43 L 11886.6 5862.91 M 12043.7 5968.5 L 11966.1 5758.75 M 13760.4 7294.62 L 13381.2 7749.74 M 11679.7 4762.07 L 10954.8 4929.71 M 10954.8 4929.71 L 11662.3 5476.96 M 10804.7 98.9251 L 10946.6 336.511 M 7415.92 2030.27 L 7595.83 2300.21 M 11607.4 8737.82 L 13485.1 8407.31 M 15476.4 5895.33 L 14808.2 5879.64 M 14943.3 6295.55 L 15476.4 5895.33 M 413.044 2418.94 L 2894.61 107.284 M 12557.4 4014.83 L 13095.2 3987.66 M 12528.8 5564.27 L 12476.7 5626.08 M 12476.7 5626.08 L 12544.3 5560.36 M 12544.3 5560.36 L 12528.8 5564.27 M 12528.8 5564.27 L 12476.7 5626.08 M 12476.7 5626.08 L 12544.3 5560.36 M 12544.3 5560.36 L 12528.8 5564.27 M 11824.2 3806.71 L 12557.4 4014.83 M 14943.9 6294.49 L 14670.1 6126.08 M 14424.2 6397.39 L 14943.9 6294.49 M 12236 2753.81 L 12277.2 2848.28 M 12277.2 2848.28 L 12409.3 2751.71 M 10833.2 4251.18 L 10692.8 4936.5 M 10692.8 4936.5 L 10960.3 4700.96 M 10475 3271.74 L 11545 3365.59 M 11545 3365.59 L 11302.1 2633.34 M 1422.56 2464.1 L 1332.01 4180.72 M 10990.5 4688.98 L 12595.3 4553.62 M 12595.3 4553.62 L 11812.8 4063.86 M 11812.8 4063.86 L 9781.36 5587.65 M 10478.7 5211.92 L 10658.6 5694 M 10958.1 8794.49 L 10862.3 7186.86 M 10613.4 7768.85 L 10958.1 8794.49 M 10833.3 5560.57 L 11971 5528.48 M 11513.5 5984.37 L 11942.7 6077.65 M 11942.7 6077.65 L 11665.4 5753.19 M 10492.8 1860.22 L 10143.1 1256.85 M 10143.1 1256.85 L 10047.9 1591.13 M 9727.39 6863.26 L 11182.4 5940.9 M 10235 1301.17 L 10716.1 1812.64 M 10470.7 6096.27 L 10535 6775.79 M 9056.19 2414.28 L 9437.15 2704.43 M 9437.15 2704.43 L 9446.45 2357.41 M 9582.47 9693.96 L 9704.26 7406.69 M 9280.44 9677.96 L 9279.25 11144.6 M 9638.93 533.438 L 9574.82 2819.94 M 9838.52 2827.75 L 9638.93 533.438 M 9970.72 550.392 L 9692.41 529.412 M 9692.41 529.412 L 9838.52 2827.75 M 4604.78 11593 L 5053.42 11689.3 M 5289.98 11261.2 L 4604.78 11593 M 12924.7 5983.67 L 12657.2 5800.11 M 12657.2 5800.11 L 12475.4 5786.41 M 12475.4 5786.41 L 12271.8 5790.91 M 9803.38 1676.47 L 9790.2 2107.54 M 10191.6 2395.84 L 9803.38 1676.47 M 13267 6652.68 L 13435.4 6022.41 M 9743.1 2914.74 L 9546.36 3200.87 M 13245.1 7469.59 L 12835.9 7968.67 M 11105.3 6398.33 L 11331.1 6484.56 M 7680.65 2243.18 L 7616.37 2322.65 M 747.312 3380.39 L 1609.27 5060.72 M 9759.78 4570 L 9818.15 4867.24 M 4828.28 9530.01 L 4917.5 9404.16 M 4917.5 9404.16 L 3280.55 8447.8 M 12265 4682.82 L 12467.5 4867.06 M 11665.4 5753.19 L 11851.2 6157.25 M 11649.6 2116.39 L 11985.6 2593.28 M 8868.49 2440.1 L 8542.34 2380.3 M 8542.34 2380.3 L 8685.9 2856.72 M 11331.1 6484.56 L 11103.5 6403.07 M 11103.5 6403.07 L 11474.3 6569.73 M 13612.3 6973.45 L 13934 6662.36 M 11640.1 1476.81 L 11551.4 1256.71 M 10708.7 1472.2 L 10328.9 1266.8 M 11887.6 6428.84 L 11762.8 6101.37 M 9781.36 5587.65 L 11819.6 4073.02 M 11819.6 4073.02 L 9800.7 5118.02 M 9803.25 2379.5 L 9803.07 2107.23 M 10923 6193.6 L 11170.5 6112.55 M 11170.5 6112.55 L 10633.1 5844.88 M 11971 5528.48 L 12444.4 5870.93 M 12467.5 4867.06 L 12634.8 4823.2 M 12634.8 4823.2 L 12360.1 4519.79 M 9866.78 1059.69 L 9645.89 653.724 M 9722 855.412 L 9866.78 1059.69 M 7821.9 2784.42 L 7960.92 2633.57 M 9533.6 4454.28 L 9861.97 3343.65 M 12917 5931.26 L 12517 5736.93 M 12517 5736.93 L 12991.3 6031.44 M 12209.6 3263.41 L 12480.3 3170.15 M 12480.3 3170.15 L 12208.9 2927.51 M 8450.9 2538.69 L 8292.09 2568.25 M 7595.83 2300.21 L 7680.65 2243.18 M 11028.6 6034.3 L 11415.2 5580.47 M 11112.1 5660.9 L 11028.6 6034.3 M 8197.37 3880.9 L 7882.93 3512.04 M 9468.87 3268.91 L 9685.1 3504.21 M 7911.23 2487.71 L 7780.07 2583.62 M 8600.71 2057.73 L 8440.08 2124.01 M 8440.08 2124.01 L 8660.91 2184.26 M 9722 855.412 L 9567.92 1033.23 M 11993.9 6877.75 L 11643.4 7326.41 M 11643.4 7326.41 L 12000.1 7282.87 M 8685.9 2856.72 L 8956.36 2478.54 M 10957.7 6552.55 L 11295.7 6142.76 M 9980.56 3999.71 L 9417.39 3890 M 9528.88 4115.76 L 9980.56 3999.71 M 12584.9 5077.64 L 12307.8 5707.53 M 12307.8 5707.53 L 12446.2 5630.1 M 8703.45 9568.74 L 9414.16 7392.89 M 11168 5614.35 L 11209.9 6217.76 M 10793.8 6125.69 L 10571.7 6349.29 M 10571.7 6349.29 L 10960.3 6177.27 M 11192.2 4104.75 L 10985.7 4738.61 M 9041.31 2867.06 L 9520.54 2831.91 M 11654.8 6450.58 L 11839 6804.55 M 11839 6804.55 L 11963.8 6575.88 M 11617.6 6451.43 L 11791 6126.14 M 13075 2738.17 L 13154.7 2860.88 M 13154.7 2860.88 L 13180.9 2743.76 M 13908.6 6634.59 L 13938 6458.94 M 7666.5 3467.57 L 7402.28 3380.98 M 11116.8 7022.05 L 11387.5 7216.66 M 8118.11 1555.94 L 8291.41 1543.11 M 12554.5 4200.85 L 12752.5 4380.35 M 12821.4 4137.16 L 12554.5 4200.85 M 11809.2 1910.31 L 12071.1 2565.27 M 10343.3 4528.01 L 10301.5 4888.57 M 11061.6 1216.49 L 10754 1213.44 M 10887.6 1391.8 L 11061.6 1216.49 M 12105.3 6017.39 L 12679.8 6473.24 M 10973.5 3025.01 L 11240.3 3398.03 M 10628.7 2144.34 L 10652.7 1994.81 M 10483 4736.07 L 10987.2 4820.2 M 3268.52 8458.02 L 4817.24 9540.63 M 13087.8 6946.01 L 13032.6 7256.98 M 13032.6 7256.98 L 13277.7 7224.43 M 1609.27 5060.72 L 1677.28 3173.44 M 1677.28 3173.44 L 1592.57 5063.27 M 11843.6 6376.06 L 11782.8 6120.48 M 11782.8 6120.48 L 11616.5 6449.45 M 11858.9 5388.89 L 12455 5393.27 M 12455 5393.27 L 11866.9 5081.03 M 12610.1 6811.17 L 11993.9 6877.75 M 12381.8 4769 L 12521 4666.36 M 12560.7 4194.23 L 12381.8 4769 M 14049.7 7068.74 L 14308.2 7235.29 M 11920.2 3111.17 L 12232.2 2807.91 M 11897.3 7682.06 L 12296.3 7359.14 M 13816.1 8876.13 L 13850.6 8893.68 M 13794.4 8540.19 L 13816.1 8876.13 M 12520.7 5439.42 L 11925.4 5279.56 M 12353.5 5706.02 L 12520.7 5439.42 M 9744.72 1659.82 L 9925.4 1724.89 M 9976.15 1514.73 L 9744.72 1659.82 M 9919.37 5186.8 L 10243.9 5315.07 M 11387.4 3144.92 L 12078.2 3345.88 M 11238.2 1760.18 L 11344.8 1248.13 M 11344.8 1248.13 L 11122.6 1591.75 M 11474.4 6570.02 L 11887.6 6428.84 M 11771.2 6468.29 L 11474.4 6570.02 M 8956.36 2478.54 L 8693.77 2862.22 M 8693.77 2862.22 L 9041.31 2867.06 M 8952.91 2732.22 L 9278.02 2990.26 M 9414.16 7392.89 L 9280.44 9677.96 M 10497.2 974.593 L 10235 1301.17 M 11988.8 2480.22 L 12081 2061.94 M 8292.09 2568.25 L 8163.67 2669.38 M 13815.4 7287.61 L 16428.1 9337.65 M 9704.26 7406.69 L 13024.8 7355.06 M 13024.8 7355.06 L 11313.7 7279.14 M 11265 5118.79 L 11449.9 5183.22 M 11379.4 5606.55 L 11113.2 5620.68 M 9790.2 2107.54 L 9803.25 2379.5 M 9318.38 4158.3 L 9659.24 4470.4 M 12107.5 2941.13 L 12346 2543.89 M 9632.44 4244.91 L 9708.99 3878.02 M 9708.99 3878.02 L 9388.8 4310.89 M 14151.8 7019.15 L 13701.4 6751.46 M 10805.3 6814.62 L 11486.1 6761.33 M 9388.8 4310.89 L 9759.78 4570 M 12345 4355.11 L 12570.3 3962.65 M 12570.3 3962.65 L 11824.2 3806.71 M 8137.09 2871.92 L 8103.83 3061.34 M 8103.83 3061.34 L 8393.88 2781.6 M 11939.5 1841.53 L 9873.05 2828.79 M 10704.3 2443.89 L 11939.5 1841.53 M 12835.9 7968.67 L 11709 7362.89 M 12000.1 7282.87 L 11643.3 7325.23 M 11643.3 7325.23 L 11897.3 7682.06 M 11382.9 5584.03 L 11654.5 5637.71 M 9024.29 2302.31 L 8945.94 1596.86 M 8945.94 1596.86 L 8841.44 2081 M 9800.7 5118.02 L 9873.26 2845.85 M 11348.8 4638.3 L 11853.8 4180.67 M 1327.77 4189.08 L 883.945 3309.19 M 1332.01 4180.72 L 1429.58 2464.48 M 1429.58 2464.48 L 882.383 3309.98 M 882.383 3309.98 L 1327.77 4189.08 M 4495.17 9934.61 L 4490.02 9946.04 M 4490.02 9946.04 L 5217.31 10171 M 2927.52 8841.81 L 5082.78 9608 M 5082.78 9608 L 5084.17 9599.16 M 10388.2 5604.53 L 9864.05 5637.28 M 10842 4678.66 L 10867.5 4322.12 M 10620.6 4333.77 L 10842 4678.66 M 11348.8 4317.52 L 11042.9 3846.65 M 12232.2 2807.91 L 12187.8 2600.32 M 8603.05 9488.63 L 7452.31 9994.26 M 2038.91 5960.95 L 2449.87 6751.81 M 2455.57 6748.88 L 2041.15 5959.83 M 12105.7 4742.28 L 12265 4682.82 M 15972.2 7092.96 L 14379.3 6749.44 M 16428.1 9337.65 L 15972.2 7092.96 M 11302.8 4743.33 L 11074.1 4400.48 M 9043.65 1183.27 L 9113.08 1650.67 M 9358.88 1417.34 L 9043.65 1183.27 M 12303.4 6599.43 L 12635.3 6324.52 M 8833.89 3822.08 L 9025.51 3922.83 M 11499.6 2148.95 L 11310.9 2541.57 M 11310.9 2541.57 L 11676.1 2420.71 M 9834.7 785.331 L 9543.09 1036.22 M 9543.09 1036.22 L 9846.46 1120.72 M 11616.5 6449.45 L 11261 6636.41 M 8336.7 2391.19 L 8298.66 2509.95 M 8298.66 2509.95 L 8453.61 2555.63 M 9053.24 1974.5 L 9315.74 2143.17 M 10391.9 4963.97 L 10478.7 5211.92 M 11758.4 2346.99 L 11451.4 2990.14 M 14211.2 6736.02 L 13908.6 6634.59 M 13926.8 6852.71 L 14211.2 6736.02 M 11451.4 2990.14 L 11760.5 2348.03 M 11760.5 2348.03 L 11116.7 2601.07 M 9758.59 1081.45 L 9945.01 969.233 M 9945.01 969.233 L 9722 855.412 M 7570.87 3972.82 L 7885.06 3763.91 M 11985.8 2593.14 L 11649.6 2116.39 M 10237.2 4749.55 L 10697.2 4937.37 M 10697.2 4937.37 L 10833.2 4251.18 M 2227.71 6302.56 L 2588.58 6684 M 9094.67 3058.3 L 8873.05 3326.05 M 7882.93 3512.04 L 7686.14 3225.56 M 8997.39 2296.27 L 8600.71 2057.73 M 11851.2 6157.25 L 12121.5 4805.92 M 14716 4649.99 L 14046.1 4807.03 M 9747.74 1664.52 L 9976.15 1514.73 M 11995.5 6352.82 L 12568 4534.24 M 12568 4534.24 L 11170.7 5932.83 M 13877 6662.28 L 13338.9 6475.76 M 11791 6126.14 L 11653.2 5857.77 M 11653.2 5857.77 L 11393.5 6403.2 M 11393.5 6403.2 L 11995.5 6352.82 M 12151.7 2522.84 L 12329.2 2323.27 M 12329.2 2323.27 L 11821.9 1867.38 M 11796.5 6129.93 L 11126.6 5836.8 M 9558.55 3012.75 L 9437.06 2713.56 M 12262.9 2387.65 L 11860.9 1389.95 M 11821.9 1867.38 L 12262.9 2387.65 M 11493.1 2955.56 L 11564.9 2795.02 M 9113.08 1650.67 L 8711.2 1402.13 M 8681.27 4193.5 L 8120.7 5034.54 M 8120.7 5034.54 L 8910.92 4461.59 M 14502 3996.75 L 14716 4649.99 M 9858.08 1012.98 L 9834.7 785.331 M 8736.46 2831.33 L 8614.07 2652.76 M 7885.06 3763.91 L 7548.39 3934.23 M 11466.6 3531.01 L 11104 3613.74 M 11296.1 3950.75 L 11343.3 3717.92 M 8841.44 2081 L 8946.11 1596.9 M 8946.11 1596.9 L 8551.61 1737.45 M 13800.7 6293.17 L 13279.7 6717.77 M 12187.8 2600.32 L 11986.4 2532.98 M 9976.25 4386.86 L 9632.44 4244.91 M 11850.2 6616.02 L 11992.9 6295.98 M 10900.9 5933.57 L 10779.9 5093.57 M 10697.1 6761.49 L 10901.9 5937.92 M 10583.9 6410.89 L 10697.1 6761.49 M 14407.2 7685.77 L 12932.1 8556.27 M 12932.1 8556.27 L 13987.5 8255.41 M 13987.5 8255.41 L 13523.2 7261.07 M 3054.41 7120.92 L 2455.57 6748.88 M 2111.46 7145.73 L 3054.41 7120.92 M 3419.46 8381.17 L 3051.87 7980.87 M 10427.4 5973.83 L 11049.2 6038.32 M 10658.6 5694 L 10427.4 5973.83 M 12010.1 4864.96 L 11937.5 5454.35 M 11329.8 1341.01 L 10335.8 1821.54 M 10335.8 1821.54 L 11414.8 1568.58 M 8657.81 2452.31 L 8895.3 2137.46 M 12752.5 4380.35 L 12560.7 4194.23 M 9505.8 3052.59 L 10519.8 2794.02 M 12875.4 6557.79 L 12610.1 6811.17 M 12143.2 2762.72 L 12071.6 2562.55 M 12071.6 2562.55 L 11985.8 2593.14 M 9925.4 1724.89 L 10304.1 1679.8 M 12698.4 5585.53 L 12817.1 5175.59 M 12817.1 5175.59 L 12240.3 5311.27 M 10652.7 1994.81 L 10882 1585.09 M 14558.9 7620.29 L 14000.6 7296.48 M 10960.3 6177.27 L 10566.8 6337.92 M 10566.8 6337.92 L 10957.7 6552.55 M 7221.45 3475.34 L 7504.18 3696.32 M 11737.7 4997.5 L 10796.3 4992.69 M 10796.3 4992.69 L 11387.1 5324.62 M 10714.8 6755.27 L 10583.9 6410.89 M 11193.6 4880.52 L 10846.2 5467.64 M 13485.1 8407.31 L 13794.4 8540.19 M 11074.1 4400.48 L 11301.8 4743.97 M 11662.5 5476.6 L 10927.6 5986.41 M 13251.8 7166.01 L 13612.3 6973.45 M 13544.5 6984.73 L 13251.8 7166.01 M 8279.43 1403.52 L 8121.23 1366.47 M 11302.1 2633.34 L 10846.4 2919.31 M 10794 2576.58 L 10784.6 2038.61 M 11122.6 1591.75 L 11515.9 1478.85 M 11515.9 1478.85 L 10828.4 1299.31 M 11378.9 5201.29 L 11302.8 4743.33 M 14233.4 7412.54 L 14407.2 7685.77 M 14495.6 7618.43 L 14233.4 7412.54 M 12346 2543.89 L 12160.3 2051.03 M 12160.3 2051.03 L 11968.8 2316.25 M 11961.5 5760.5 L 12043.7 5968.5 M 12094.3 6038.34 L 11961.5 5760.5 M 9028.43 3436.23 L 9221.56 3142.37 M 14210.4 6813.44 L 13815.4 7287.61 M 11836 3698.69 L 12369.6 3088.57 M 11860.9 1389.95 L 11640.1 1476.81 M 11699.9 6153.47 L 11618.7 5940.71 M 11618.7 5940.71 L 11559.1 6265.05 M 12369.6 3088.57 L 12646.2 3109.53 M 12659.6 5108.96 L 13307.6 5698.84 M 11623.1 4203.62 L 11368.8 3883.86 M 11042.9 3846.65 L 11623.1 4203.62 M 11992.9 6295.98 L 12312 5998.04 M 12312 5998.04 L 11885.5 6133.02 M 11562.7 2794.05 L 11493.1 2955.56 M 10973.6 3024.95 L 11433.3 2786.56 M 11433.3 2786.56 L 10475 3271.74 M 12878.7 5387.89 L 13238.3 5517.65 M 12679.8 6473.24 L 12705.9 6500.54 M 12705.9 6500.54 L 12924.7 5983.67 M 12346.5 2544.19 L 12107.5 2941.13 M 12293.3 7357.45 L 12564.7 7263 M 12501.6 6991.42 L 12293.3 7357.45 M 1812.95 5448.99 L 2227.71 6302.56 M 2041.15 5959.83 L 1672.55 5225.65 M 3732.36 2177.22 L 5173.55 953.729 M 5173.55 953.729 L 4387.35 1418.71 M 11129.3 6586.82 L 11177.5 5933.3 M 11177.5 5933.3 L 9727.39 6863.26 M 8419.67 2155.86 L 8579.21 2285.98 M 8614.07 2652.76 L 8868.49 2440.1 M 12528.8 5564.27 L 12476.7 5626.08 M 12476.7 5626.08 L 12544.3 5560.36 M 12544.3 5560.36 L 12528.8 5564.27 M 9174.27 2566.44 L 8997.39 2296.27 M 14000.6 7296.48 L 14151.8 7019.15 M 7305.64 1885.02 L 7415.92 2030.27 M 1467.19 5829.44 L 1939.99 6490.33 M 12852.2 6924.64 L 13272.2 6835.72 M 13171.5 6522.76 L 12852.2 6924.64 M 12892.3 5322.07 L 12445.9 5629.61 M 12445.9 5629.61 L 12703.1 5485.56 M 10849.8 4676.74 L 11192.2 4104.75 M 10863.2 4319.54 L 10849.8 4676.74 M 10808.1 4341.38 L 10425.7 4907.22 M 10987.2 4820.2 L 10808.1 4341.38 M 11885.5 6133.02 L 12212.7 6376.85 M 13805.3 6740.73 L 13705.8 6680.58 M 13705.8 6680.58 L 13544.5 6984.73 M 11486.1 6761.33 L 11843.6 6376.06 M 11387.1 5324.62 L 10796.4 4992.4 M 10796.4 4992.4 L 10833.3 5560.57 M 6938.23 3794.92 L 7170.24 3866.93 M 13089.4 5115.69 L 12897.1 4553.86 M 12668 4430.64 L 12835.7 4523.66 M 12730.9 2184.19 L 12346.5 2544.19 M 11085.9 4486.13 L 10464.9 4309.12 M 8384.5 2886.19 L 8736.46 2831.33 M 12212.7 6376.85 L 11885.5 6133.03 M 14670.1 6126.08 L 14943.3 6295.55 M 8770.88 2365.14 L 8560.4 2342.63 M 3123.2 8181.42 L 3268.52 8458.02 M 12271.7 4779.29 L 12105.7 4742.28 M 11474.3 6569.73 L 11653.8 6494.7 M 4387.35 1418.71 L 3630.73 2055.87 M 12074 2561.71 L 12143.2 2762.72 M 9473.83 2769.68 L 9253.19 2569.25 M 7214.82 10322.6 L 6659.43 10587.8 M 11662.3 5476.96 L 11908.9 5615.2 M 10779.9 5093.57 L 10990.5 4688.98 M 12856.8 5492.95 L 13041.1 5572.82 M 12025.4 2896.72 L 12201.6 2665.67 M 8163.67 2669.38 L 8026.93 2790.94 M 8291.41 1543.11 L 8660.36 1629.44 M 11564.9 2795.02 L 11844.4 2777.94 M 11673.6 3222.8 L 11585.4 3642.53 M 8663.21 1625.76 L 8703.13 1942.82 M 8868.71 1787.78 L 8663.21 1625.76 M 11671.5 5661.27 L 11168 5614.35 M 11725.2 6103.98 L 11671.5 5661.27 M 12409.3 2751.71 L 12202.2 2398.08 M 11449.9 5183.22 L 11145 4710.32 M 11145 4710.32 L 11193.6 4880.52 M 9454.6 4008.18 L 9312.17 4306.15 M 9312.17 4306.15 L 9707.71 4049.46 M 12595 2903.66 L 12472.1 3149 M 7401.33 3383.93 L 7666.5 3467.57 M 15011.4 4576.86 L 15426.3 4175.96 M 15426.3 4175.96 L 14502 3996.75 M 5686.68 9798.17 L 4873.34 9382.47 M 10784.6 2038.61 L 11533.3 2224.67 M 11533.3 2224.67 L 10755.3 1937.84 M 10477.5 3354.22 L 10814.2 4112 M 7758.77 4051.6 L 8197.37 3880.9 M 14047.4 8592.18 L 14142.3 8072.32 M 7204.4 3499.08 L 6788.11 3618.66 M 6788.11 3618.66 L 6938.23 3794.92 M 8873.05 3326.05 L 8833.89 3822.08 M 8660.36 1629.44 L 8868.71 1787.78 M 10729.9 6354.73 L 10923 6193.6 M 7402.28 3380.98 L 7633.06 2904.95 M 7633.06 2904.95 L 7212.58 3132.15 M 11321.1 2546.32 L 11499.6 2148.95 M 13041.1 5572.82 L 13307.6 5698.79 M 13307.6 5698.79 L 12659.6 5108.96 M 10846.4 2919.31 L 10771.9 2755.33 M 5084.17 9599.16 L 2946.68 8831.31 M 5085.32 9595.94 L 5087.9 9604.5 M 5087.9 9604.5 L 5086.53 9592.05 M 11261 6636.41 L 11617.6 6451.43 M 2946.68 8831.31 L 5085.32 9595.94 M 14107.4 6268.26 L 13927.4 6659.38 M 8320.04 9238.51 L 7330.36 9748.19 M 11067.7 4998.88 L 11178.5 5253.9 M 14486.1 6835.78 L 14798.7 6772.09 M 14798.7 6772.09 L 14424.2 6397.39 M 12201.6 2665.67 L 12396.1 2490.36 M 12396.1 2490.36 L 12008.3 2585.92 M 12078.2 3345.88 L 12359.2 3629.64 M 11294.7 3950.45 L 11850.1 4185.96 M 11358.2 1520.29 L 11554.1 1943.4 M 14142.3 8072.32 L 14011 8584.18 M 14011 8584.18 L 14357.8 8327.9 M 14238.1 5388.41 L 14046.4 4806.92 M 14046.4 4806.92 L 13499.7 4997.15 M 9846.46 1120.72 L 9544.01 1033.01 M 9544.01 1033.01 L 9879.17 1470.33 M 9873.26 2845.85 L 10704.3 2443.89 M 15264.5 4823.3 L 15425.9 4175.62 M 15425.9 4175.62 L 15011.4 4576.86 M 12444.4 5870.93 L 11886.9 5696.03 M 9803.07 2107.23 L 9950.67 1702 M 9950.67 1702 L 9495.21 1867.8 M 10243.9 5315.07 L 10044.3 5601.32 M 8940.15 2176.97 L 8657.81 2452.31 M 2449.87 6751.81 L 2605.71 7439.36 M 14360.3 6737.55 L 14486.1 6835.78 M 11368.8 3883.86 L 11620.6 4205.57 M 11620.6 4205.57 L 11621.1 3872.49 M 11925.4 5279.56 L 11679.7 4762.07 M 9307.58 4545.58 L 9318.38 4158.3 M 9255.88 4194.53 L 9307.58 4545.58 M 13365.9 7044.01 L 13329.2 7357.53 M 13329.2 7357.53 L 13586.5 7119.48 M 9450.42 2356.08 L 9174.27 2566.44 M 14379.3 6749.44 L 14302 6589.04 M 14302 6589.04 L 14360.3 6737.55 M 7686.14 3225.56 L 7985.85 3294.82 M 11334.9 1246.16 L 11238.2 1760.18 M 11365.4 1517.01 L 11334.9 1246.16 M 10100.1 4674.81 L 9719.55 5387.59 M 11522 6393.72 L 12303.4 6599.43 M 11885.5 6133.03 L 11522 6393.72 M 11844.4 2777.94 L 11820.4 2439.39 M 11820.4 2439.39 L 11670.1 2611.82 M 7616.37 2322.65 L 7181.47 2677.47 M 10716.1 1812.64 L 11239.4 2201.08 M 12207.8 4990.46 L 11984.3 4649.29 M 11250.7 4907.57 L 12207.8 4990.46 M 9500.8 5107.25 L 9778.83 5463.12 M 5407.75 11527.1 L 5931.16 11273.7 M 14138.8 7750.39 L 13760.4 7294.62 M 13523.2 7261.07 L 14138.8 7750.39 M 9068.08 3935.51 L 9598.89 3622.24 M 9038.66 3222.26 L 9068.08 3935.51 M 10927.6 5986.41 L 10793.8 6125.69 M 11116.7 2601.07 L 10955.9 3001.77 M 10778.1 2995.58 L 10477.5 3354.22 M 10850.8 3464.9 L 10778.1 2995.58 M 11218.6 1050.3 L 11182.4 247.935 M 13938 6458.94 L 13318.4 6773.56 M 13318.4 6773.56 L 13877 6662.28 M 10652.3 1994.76 L 10628.7 2144.34 M 7855.19 3362.74 L 8137.09 2871.92 M 7810.7 2913.35 L 7855.19 3362.74 M 8540 2648.96 L 8498.46 2864.9 M 2179.79 3264.99 L 3121.18 2484.11 M 5866.42 10373.3 L 6676.51 10617.8 M 7181.47 2677.47 L 7071.94 2927.95 M 7071.94 2927.95 L 7265 2922.44 M 13427.8 3970.17 L 13552.2 3359.03 M 13552.2 3359.03 L 12623.4 3637.15 M 13095.2 3987.66 L 13427.8 3970.17 M 12610.1 6731.05 L 13087.8 6946.01 M 13279.7 6717.77 L 12610.1 6731.05 M 10328.9 1266.8 L 9831.94 785.632 M 9831.94 785.632 L 9858.08 1012.98 M 10780.1 5137.41 L 11123.1 4833.55 M 11313.7 7279.14 L 11116.8 7022.05 M 2635.37 7126.5 L 2852.19 7575.83 M 11654.5 5637.71 L 11379.4 5606.55 M 7050.28 4178.28 L 7320.46 4261.33 M 7320.46 4261.33 L 7255.89 4044.95 M 11104 3613.74 L 10735.3 3943.84 M 9401.93 7390.17 L 8699.37 9543.67 M 8849.04 3006.42 L 8699.28 2836.47 M 9551.98 3176.36 L 9208.57 4210.38 M 13450.8 5766.92 L 12958.1 5193.54 M 13307.6 5698.84 L 13450.8 5766.92 M 12869.9 4497.95 L 12821.4 4137.16 M 4873.34 9382.47 L 4828.28 9530.01 M 12564.7 7263 L 12838.2 7167.21 M 9959.91 3243.32 L 9558.55 3012.75 M 9685.1 3504.21 L 9959.91 3243.32 M 11307.7 6304.22 L 11947.4 6052.62 M 11947.4 6052.62 L 11513.5 5984.37 M 1414.97 5072.15 L 1808.08 2956.37 M 1808.08 2956.37 L 1086.08 5103.42 M 1086.08 5103.42 L 1467.19 5829.44 M 12071.4 6982.95 L 11634.4 6752.89 M 11387.5 7216.66 L 12071.4 6982.95 M 12202.2 2398.08 L 11988.8 2480.22 M 12482.4 2987.28 L 12236 2753.81 M 10755.3 1937.84 L 10708.7 1472.2 M 11966.1 5758.75 L 12066.6 4787.87 M 12066.6 4787.87 L 11492.8 5032.29 M 2229.94 6301.47 L 1812.95 5448.99 M 11585.4 3642.53 L 11675.1 3223.11 M 11675.1 3223.11 L 11417.4 3602.91 M 11655.9 1613.45 L 11319.8 1250.44 M 11319.8 1250.44 L 11358.2 1520.29 M 11301.8 4743.97 L 11376.6 5202.16 M 11343.3 3717.92 L 11294.7 3950.45 M 9221.56 3142.37 L 9505.8 3052.59 M 14239.8 5853.11 L 14695.8 5512.72 M 11170.7 5932.83 L 11129.3 6586.82 M 11541.8 5264 L 11858.9 5388.89 M 11886.9 5696.03 L 11991.6 6829.37 M 11991.6 6829.37 L 12213.1 6202.22 M 10535 6775.79 L 10603.7 7168.54 M 10423.4 4970.35 L 10698 4935.23 M 10698 4935.23 L 10237.2 4749.55 M 11614.2 2063.28 L 11686.2 2642.37 M 11778.7 4825.96 L 11307.7 6304.22 M 11105.9 1276.37 L 10887.6 1391.8 M 10882 1585.09 L 11105.9 1276.37 M 8579.21 2285.98 L 8492.02 2099.48 M 8492.02 2099.48 L 8260.02 2353.98 M 11057.1 4003.1 L 10863.2 4319.54 M 7617.03 2900.89 L 7401.33 3383.93 M 10716.5 1812.07 L 11321.1 2546.32 M 11239.4 2201.07 L 10716.5 1812.07 M 11680.7 3475.79 L 12466.5 2930.6 M 9574.82 2819.94 L 9855.44 3341.74 M 11693.5 6566.2 L 11742.3 6697.35 M 11742.3 6697.35 L 11764.1 6666.52 M 9546.36 3200.87 L 9598.31 3622.12 M 11686.2 2642.37 L 11591.2 2655.11 M 11591.2 2655.11 L 11853 2662.94 M 11494.9 5876.29 L 11695.6 6207.23 M 10603.7 7168.54 L 10613.4 7768.85 M 13911.6 6697.52 L 13805.3 6740.73 M 12646.2 3109.53 L 13034 2978.85 M 13034 2978.85 L 12730.9 2184.19 M 11849.4 6800.08 L 11657.4 6450.34 M 11676.1 2420.71 L 12008.1 2708.7 M 12446.2 5630.1 L 12892.3 5322.07 M 12360.1 4519.79 L 12097.2 4608.18 M 6676.51 10617.8 L 7459.62 10010.6 M 13139.3 6368.46 L 12875.4 6557.79 M 9448.57 1184.03 L 9747.74 1664.52 M 4475.82 6795.33 L 2125.15 5759.29 M 2588.58 6684 L 4475.82 6795.33 M 9279.25 11144.6 L 9110.44 11977.2 M 9110.44 11977.2 L 9420.01 11355 M 6791.62 10857.2 L 7550.28 10474.9 M 2125.15 5759.29 L 4468.62 6811.52 M 4468.62 6811.52 L 1746.79 4991.34 M 12392 3528.99 L 12629.3 3670.6 M 7702.11 4440.11 L 7758.77 4051.6 M 7452.31 9994.26 L 6660.42 10590 M 6660.42 10590 L 7214.37 10321.7 M 10668.2 4974.13 L 10692.9 4944.33 M 10692.9 4944.33 L 10391.9 4963.97 M 11219.6 6371.73 L 11725.2 6103.98 M 9855.44 3341.74 L 9533.6 4454.28 M 9710.2 3826.85 L 9296.14 3803.74 M 9417.39 3890 L 9190.96 3857.48 M 8699.28 2836.47 L 8020.57 3185.75 M 8020.57 3185.75 L 8426.67 3589.78 M 7958.73 2653.48 L 8699.92 2835.91 M 11968.8 2316.25 L 12074 2561.71 M 11126.6 5836.8 L 11265 5118.79 M 12296.3 7359.14 L 12501.6 6991.42 M 9567.92 1033.23 L 9448.57 1184.03 M 7459.62 10010.6 L 8603.05 9488.63 M 13155.8 4929.44 L 12584.9 5077.64 M 7501.15 4295.2 L 7570.87 3972.82 M 10425.7 4907.22 L 11067.7 4998.88 M 9863.42 6240.53 L 10387.4 6905.84 M 10387.4 6905.84 L 10444.1 6346.05 M 10735.3 3943.84 L 11085.9 4486.13 M 5390.86 9724.33 L 4494.98 9935.38 M 4494.98 9935.38 L 5940.04 10303.1 M 5940.04 10303.1 L 4495.17 9934.61 M 9424.35 6570.51 L 9401.93 7390.17 M 10893.2 5656.94 L 10924.7 5226.86 M 11648.9 3887.27 L 11852 3936.97 M 7851.51 2121.26 L 7478.71 1750.11 M 7478.71 1750.11 L 7564.34 2149.52 M 0 1638.09 L 175.881 2298.98 M 7170.24 3866.93 L 6928.16 3846.64 M 11433.1 2786.52 L 10973.5 3025.01 M 10828.4 1299.31 L 11513.2 1488.74 M 11513.2 1488.74 L 10924.2 667.375 M 8026.93 2790.94 L 7821.9 2784.42 M 10706.5 5651.21 L 11105.3 6398.33 M 11113.2 5620.68 L 10706.5 5651.21 M 11616.1 5941.7 L 11699.9 6153.47 M 6884.22 3203.53 L 7221.45 3475.34 M 7212.58 3132.15 L 6884.22 3203.53 M 13735.5 7207.65 L 14210.4 6813.44 M 14019.6 6907.29 L 13735.5 7207.65 M 13814.3 7266.14 L 14019.6 6907.29 M 13586.5 7119.48 L 13743.5 7098.24 M 11492.8 5032.29 L 11721.8 4390.71 M 12240.3 5311.27 L 11737.7 4997.5 M 10754 1213.44 L 10677.6 1639.09 M 12472.1 3149 L 12209.6 3263.41 M 13381.2 7749.74 L 13715.5 8225.51 M 11850.1 4185.96 L 12320.6 4657.05 M 12320.6 4657.05 L 12345 4355.11 M 7330.36 9748.19 L 6630.34 10094.8 M 7504.15 1617.11 L 7215.08 1776.85 M 7215.08 1776.85 L 7305.64 1885.02 M 9957.19 886.563 L 9954.81 1170.13 M 13479.8 6898.71 L 13409.2 6902.91 M 5086.53 9592.05 L 5052.45 9081.55 M 9278.02 2990.26 L 9468.87 3268.91 M 9872.4 6245.81 L 10103.1 5842.93 M 10044.3 5601.32 L 9872.4 6245.81 M 12359.2 3629.64 L 12634.1 3662.37 M 12634.1 3662.37 L 12392 3528.99 M 8455.42 2392.35 L 8584.13 2624.7 M 8653.03 2358.44 L 8455.42 2392.35 M 12333.3 5816.94 L 12353.5 5706.02 M 12271.8 5790.91 L 12333.3 5816.94 M 12875.7 6558.08 L 13139.3 6368.46 M 11986.4 2532.98 L 11922 2102.63 M 11922 2102.63 L 11824.6 2099.66 M 14357.8 8327.9 L 14495.6 7618.43 M 10953.1 4560.65 L 11126.1 5581.13 M 11126.1 5581.13 L 11378.9 5201.29 M 3051.87 7980.87 L 3419.5 8381.13 M 3419.5 8381.13 L 2853.75 7575.07 M 2605.71 7439.36 L 2788.91 8513.41 M 8910.92 4461.59 L 9786.38 4379.21 M 12635.3 6324.52 L 11960.2 5761.16 M 11960.2 5761.16 L 12094.3 6038.34 M 9308.52 4300.44 L 8681.27 4193.5 M 9873.05 2828.79 L 9982.45 541.216 M 11937.5 5454.35 L 11778.7 4825.96 M 10924.2 667.375 L 10497.2 974.593 M 11866.9 5081.03 L 11348.8 4638.3 M 13743.5 7098.24 L 14049.7 7068.74 M 13715.5 8225.51 L 14141.7 8829.72 M 14141.7 8829.72 L 14558.9 7620.29 M 7985.85 3294.82 L 8155.54 3204.92 M 8155.54 3204.92 L 7810.7 2913.35 M 11658.5 1612.66 L 11850.8 2266.4 M 12081 2061.94 L 11658.5 1612.66 M 5902.03 10965.2 L 5289.98 11261.2 M 14211.1 6735.83 L 13926.8 6852.71 M 9864.05 5637.28 L 9439.31 5774.89 M 9439.31 5774.89 L 9825.91 5872.44 M 12097.2 4608.18 L 11796.6 4148.45 M 11687 4411.01 L 11703 4507.21 M 9818.15 4867.24 L 10343.3 4528.01 M 1939.99 6490.33 L 2111.46 7145.73 M 10304.1 1679.8 L 10652.3 1994.76 M 11178.5 5253.9 L 10893.2 5656.94 M 12042.5 2837.01 L 12092.1 3163.75 M 12092.1 3163.75 L 12482.4 2987.28 M 8426.67 3589.78 L 9038.66 3222.26 M 11762.8 6101.37 L 10930.6 5923.12 M 12703.1 5485.56 L 12878.7 5387.89 M 11670.1 2611.82 L 11433.1 2786.52 M 10814.2 4112 L 10620.6 4333.77 M 1672.55 5225.65 L 2038.91 5960.95 M 9323.2 4044.13 L 9636.11 4525.06 M 9636.11 4525.06 L 9710.2 3826.85 M 12838.2 7167.21 L 13267 6652.68 M 11169 5379.7 L 10780.1 5137.41 M 1592.57 5063.27 L 2179.79 3264.99 M 11417.4 3602.91 L 11387.4 3144.92 M 9786.38 4379.21 L 10100.1 4674.81 M 12008.3 2585.92 L 11673.6 3222.8 M 13435.3 6636.72 L 13171.5 6522.76 M 10862.3 7186.86 L 10714.8 6755.27 M 12466.5 2930.6 L 13329.4 2488.44 M 13329.4 2488.44 L 12835.8 2520.89 M 14046.1 4807.03 L 14238.1 5388.41 M 11696.6 7366.43 L 11607.4 8737.82 M 9495.21 1867.8 L 9358.88 1417.34 M 9749.29 6325.96 L 9714.79 6957.49 M 9714.79 6957.49 L 9749.77 6325.99 M 10901.9 5937.92 L 9749.29 6325.96 M 9749.77 6325.99 L 10900.9 5933.57 M 7405.76 4563.51 L 7702.11 4440.11 M 7266.92 4106.18 L 7405.76 4563.51 M 10867.5 4322.12 L 11057.1 4003.1 M 10930.6 5923.12 L 10756.8 6035.37 M 10756.8 6035.37 L 11219.6 6371.73 M 12220.2 2558.38 L 12042.5 2837.01 M 11653.8 6494.7 L 11474.4 6569.76 M 11474.4 6569.76 L 11771.2 6468.29 M 11824.6 2099.66 L 11992.3 2858.7 M 11361.8 6164.99 L 11665.9 6577.84 M 8703.13 1942.82 L 9053.24 1974.5 M 9591 2781.39 L 9450.42 2356.08 M 14308.2 7235.29 L 14464.8 7210.58 M 10301.5 4888.57 L 10699.2 5215.12 M 10699.2 5215.12 L 10483 4736.07 M 9292.44 9676.93 L 9546 10088.8 M 9485.51 10120.4 L 9292.44 9676.93 M 11985.6 2593.28 L 11809.2 1910.31 M 175.881 2298.98 L 747.312 3380.39 M 2852.19 7575.83 L 3415.38 8383.67 M 3415.38 8383.67 L 2591.81 6681.96 M 12521 4666.36 L 12271.7 4779.29 M 11376.6 5202.16 L 11116.4 5577.06 M 11116.4 5577.06 L 11382.9 5584.03 M 11721.8 4390.71 L 10866.1 4088.02 M 10866.1 4088.02 L 11313.2 4877.92 M 11313.2 4877.92 L 11348.8 4317.52 M 12008.1 2708.7 L 11758.4 2346.99 M 10158.1 5007.52 L 9407.65 4758.94 M 9407.65 4758.94 L 9919.37 5186.8 M 12121.5 4805.92 L 12917 5931.26 M 11624.4 7858.43 L 11849.4 6800.08 M 11665.9 6577.84 L 11624.4 7858.43 M 10280.3 6118.51 L 10388.2 5604.53 M 9501.04 5107.07 L 9470.17 6078.99 M 9778.83 5463.12 L 9501.04 5107.07 M 10633.1 5844.88 L 10280.3 6118.51 M 8699.92 2835.91 L 8849.04 3006.42 M 12208.9 2927.51 L 11776.4 2813.57 M 10846.2 5467.64 L 11430.2 5820.23 M 11182.4 5940.9 L 11631.6 7866.2 M 11631.6 7866.2 L 11655.7 6585.16 M 8711.2 1402.13 L 8522.49 1142.44 M 11874.1 6340.9 L 11796.5 6129.93 M 10444.1 6346.05 L 10561 6503.09 M 10561 6503.09 L 10729.9 6354.73 M 6928.16 3846.64 L 6802.98 4041.41 M 6802.98 4041.41 L 7050.28 4178.28 M 11415.2 5580.47 L 11541.8 5264 M 9437.06 2713.56 L 9012.49 2594.04 M 11680.7 3475.78 L 11352.5 3430.74 M 12991.3 6031.44 L 12646.1 5592.67 M 12646.1 5592.67 L 12736 6055.85 M 6081.96 9939.84 L 5390.86 9724.33 M 5390.78 9724.6 L 6081.96 9939.84 M 9420.01 11355 L 9485.51 10120.4 M 13238.3 5517.65 L 12856.8 5492.95 M 11709 7362.89 L 11611.6 7088.92 M 11611.6 7088.92 L 11696.6 7366.43 M 9569.51 3409.8 L 9584.75 2821.42 M 9584.75 2821.42 L 9551.98 3176.36 M 9861.97 3343.65 L 9582.27 2821.36 M 9582.27 2821.36 L 9569.51 3409.8 M 12835.7 4523.66 L 12670.5 4621.1 M 12670.5 4621.1 L 13089.4 5115.69 M 11049.2 6038.32 L 11112.1 5660.9 M 1781.51 2951.6 L 1414.97 5072.15 M 7265 2922.44 L 7958.73 2653.48 M 11963.8 6575.88 L 11874.1 6340.9 M 4604.72 11593.3 L 4742.34 11849.5 M 5053.42 11689.3 L 4604.72 11593.3 M 13409.4 6891.51 L 13479.8 6898.71 M 12071.1 2565.27 L 12151.7 2522.84 M 11240.3 3398.03 L 10973.6 3024.95 M 10103.1 5842.93 L 9863.42 6240.53 M 11177.5 248.172 L 11218.6 1050.3 M 11551.4 1256.71 L 11177.5 248.172 M 15204.3 4920.93 L 15264.5 4823.3 M 13435.4 6022.41 L 13646.6 5741.06 M 13646.6 5741.06 L 13428.2 6016.91 M 9546 10088.8 L 9618.45 11323.1 M 9618.45 11323.1 L 9582.47 9693.96 M 2788.91 8513.41 L 2927.52 8841.81 M 3021.18 2544.33 L 2163.27 3253.72 M 9954.81 1170.13 L 9875.43 897.892 M 9875.43 897.892 L 9758.59 1081.45 M 12623.4 3637.15 L 11680.7 3475.78 M 12629.3 3670.6 L 13228.5 3681.6 M 13228.5 3681.6 L 13192.6 2831.84 M 13192.6 2831.84 L 12595 2903.66 M 9335.51 5762.79 L 9424.35 6570.51 M 10946.6 336.511 L 10851.3 346.056 M 9470.17 6078.99 L 9437.46 6859.94 M 9437.46 6859.94 L 9470.87 6079.02 M 9446.45 2357.41 L 9591 2781.39 M 9190.96 3857.48 L 9323.2 4044.13 M 12199.1 6254.19 L 11762.1 5700.85 M 11695.6 6207.23 L 12199.1 6254.19 M 8456.09 2391.97 L 7851.51 2121.26 M 15152.3 5024.53 L 14701.8 4989.16 M 14695.8 5512.72 L 15152.3 5024.53 M 8660.91 2184.26 L 8770.88 2365.14 M 12897.1 4553.86 L 13263 4851.21 M 13263 4851.21 L 12869.9 4497.95 M 13261.3 6911.35 L 13257.8 7340.59 M 13257.8 7340.59 L 13365.9 7044.01 M 2853.75 7575.07 L 2635.37 7126.5 M 11631.9 5802.66 L 11616.1 5941.7 M 11461.5 5588.89 L 11631.9 5802.66 M 11886.6 5862.91 L 11461.5 5588.89 M 11984.3 4649.29 L 10953.1 4560.65 M 10960.3 4700.96 L 11250.7 4907.57 M 8260.02 2353.98 L 8324.41 2692.28 M 8324.41 2692.28 L 8540 2648.96 M 4842.73 9541.48 L 4495.05 9936.33 M 4495.05 9936.33 L 5390.78 9724.6 M 2591.81 6681.96 L 2229.94 6301.47 M 11657.4 6450.34 L 11623.7 6118.38 M 11554.1 1943.4 L 11365.4 1517.01 M 13272.2 6835.72 L 13409.4 6891.51 M 10924.7 5226.86 L 10668.2 4974.13 M 8041.49 2977.05 L 8384.5 2886.19 M 8393.88 2781.6 L 8041.49 2977.05 M 11395.8 0 L 10804.7 98.9251 M 11182.4 247.935 L 11395.8 0 M 7504.18 3696.32 L 7204.4 3499.08 M 11600.5 5771.89 L 11169 5379.7 M 11430.2 5820.23 L 11600.5 5771.89 M 1746.79 4991.34 L 4655.71 3488.14 M 4655.71 3488.14 L 1422.56 2464.1 M 7167.8 4252.88 L 7501.15 4295.2 M 7255.89 4044.95 L 7167.8 4252.88 M 8560.4 2342.63 L 8336.7 2391.19 M 9982.45 541.216 L 9692.48 528.558 M 9692.48 528.558 L 9970.72 550.392 M 11303.2 6872.84 L 11635.7 6756.31 M 11635.7 6756.31 L 11413.4 6589.28 M 9208.57 4210.38 L 9500.8 5107.25 M 14701.8 4989.16 L 15152.3 5024.91 M 15152.3 5024.91 L 15204.3 4920.93 M 9693.35 3684.55 L 9028.43 3436.23 M 9296.14 3803.74 L 9693.35 3684.55 M 7214.37 10321.7 L 7899.06 9969.53 M 13277.7 7224.43 L 13245.1 7469.59 M 13850.6 8893.68 L 14047.4 8592.18 M 4742.34 11849.5 L 5407.75 11527.1 M 8551.61 1737.45 L 8455.51 2392.86 M 8455.51 2392.86 L 8653.03 2358.44 M 7993.44 1553.13 L 8118.11 1555.94 M 11239.4 2201.08 L 11261.1 2187.23 M 2894.61 107.284 L 1005.4 37.0999 M 1005.4 37.0999 L 0 1638.09 M 11852 3936.97 L 12550.4 4081.64 M 12550.4 4081.64 L 11836 3698.69 M 9598.31 3622.12 L 9536.47 3930.69 M 10677.6 1639.09 L 10753.4 1213.34 M 10753.4 1213.34 L 10492.8 1860.22 M 3630.73 2055.87 L 3021.18 2544.33 M 3121.18 2484.11 L 3732.36 2177.22 M 5052.45 9081.55 L 3268.73 8457.91 M 13439 5776.83 L 12904.8 5051.98 M 12958.1 5193.54 L 13439 5776.83 M 14464.8 7210.58 L 14560.9 6873.5 M 9879.17 1470.33 L 10404.2 1303.19 M 12610.7 6811.89 L 12875.7 6558.08 M 11261.1 2187.23 L 11239.4 2201.07 M 10464.9 4309.12 L 9976.25 4386.86 M 10404.2 1303.19 L 10220.3 369.996 M 10220.3 369.996 L 9957.19 886.563 M 11352.5 3430.74 L 11680.7 3475.79 M 13701.4 6751.46 L 13435.3 6636.72 M 4521.48 9958.12 L 4842.73 9541.48 M 4817.24 9540.63 L 4521.48 9958.12 M 12835.8 2520.89 L 12220.2 2558.38 M 9520.54 2831.91 L 9092.99 3051.23 M 9092.99 3051.23 L 9510.34 2955.79 M 12213.1 6202.22 L 11991.2 6829.23 M 11991.2 6829.23 L 12610.7 6811.89 M 14560.9 6873.5 L 14526.1 6436.87 M 14526.1 6436.87 L 13911.6 6697.52 M 11852.5 3934.92 L 11648.9 3887.27 M 11492.1 6352.22 L 11807.1 6362.43 M 11762.1 5700.85 L 11492.1 6352.22 M 13338.9 6475.76 L 13036.6 7382.66 M 13036.6 7382.66 L 13814.3 7266.14 M 10955.9 3001.77 L 10850.8 3464.9 M 8959.28 3147.23 L 8952.91 2732.22 M 8121.23 1366.47 L 8014.79 1391.07 M 8014.79 1391.07 L 7993.44 1553.13 M 5931.16 11273.7 L 6791.62 10857.2 M 4226.7 10090.7 L 3419.46 8381.17 M 3280.55 8447.8 L 4226.7 10090.7 M 10696.6 4925.32 L 10423.4 4970.35 M 13927.4 6659.38 L 13612.2 6977.07 M 9659.24 4470.4 L 9976.6 3985.28 M 9976.6 3985.28 L 9528.88 4115.76 M 5217.31 10171 L 5866.42 10373.3 M 8522.49 1142.44 L 8279.43 1403.52 M 8890.19 3477.84 L 8959.28 3147.23 M 8498.46 2864.9 L 8890.19 3477.84 M 8895.3 2137.46 L 8970.17 1680.38 M 8970.17 1680.38 L 8419.67 2155.86 M 11703 4507.21 L 12010.1 4864.96 M 11559.1 6265.05 L 11693.5 6566.2 M 11764.1 6666.52 L 12105.3 6017.39 M 9025.51 3922.83 L 9255.88 4194.53 M 9536.47 3930.69 L 9454.6 4008.18 M 14808.2 5879.64 L 14239.8 5853.11 M 13247.2 7160.91 L 13902.4 7023.98 M 13612.2 6977.07 L 13247.2 7160.91 M 11992.3 2858.7 L 11829.6 2876.34 M 12904.8 5051.98 L 13438.2 5777.42 M 13438.2 5777.42 L 12668 4430.64 M 7550.28 10474.9 L 8703.45 9568.74 M 10864.1 6452.37 L 11013.6 6595.25 M 11295.7 6142.76 L 10864.1 6452.37 M 10985.7 4738.61 L 11688.5 4406.35 M 11688.5 4406.35 L 11457.9 4334.7 M 10519.8 2794.02 L 9473.63 2770.1 M 9473.63 2770.1 L 9938.34 2993.63 M 9546.59 3201.03 L 9743.1 2914.74 M 9938.34 2993.63 L 9473.83 2769.68 M 12108.5 4600.62 L 11852.5 3934.92 M 11796.6 4148.45 L 12108.5 4600.62 M 883.945 3309.19 L 413.044 2418.94 M 11623.7 6118.38 L 11654.8 6450.58 M 3268.73 8457.91 L 3123.2 8181.42 M 2163.27 3253.72 L 1781.51 2951.6 M 8699.37 9543.67 L 8320.04 9238.51 M 10771.9 2755.33 L 10794 2576.58 M 6659.43 10587.8 L 5902.03 10965.2 M 11438.3 6418.27 L 11000.9 6560.85 M 11000.9 6560.85 L 11850.2 6616.02 M 6630.34 10094.8 L 5686.68 9798.17 M 11853 2662.94 L 12025.4 2896.72 M 8453.61 2555.63 L 8627.67 2519.18 M 11853.8 4180.67 L 11296.1 3950.75 M 7548.39 3934.23 L 7266.92 4106.18 M 9719.55 5387.59 L 9896.56 5753.58 M 9896.56 5753.58 L 10158.1 5007.52 M 8627.67 2519.18 L 8450.9 2538.69 M 11457.9 4334.7 L 11687 4411.01 M 11655.7 6585.16 L 11361.8 6164.99 M 11013.6 6595.25 L 11438.3 6418.27 M 9707.71 4049.46 L 9308.52 4300.44 M 7899.06 9969.53 L 7214.82 10322.6 M 11842 2774.05 L 11562.7 2794.05 M 11829.6 2876.34 L 11842 2774.05 M 11908.9 5615.2 L 11662.5 5476.6 M 11850.8 2266.4 L 11655.9 1613.45 M 9253.19 2569.25 L 9024.29 2302.31 M 8016.72 2459.33 L 7911.23 2487.71 M 7960.92 2633.57 L 8016.72 2459.33 M 9598.89 3622.24 L 9546.59 3201.03 M 9506.47 5107.26 L 9335.51 5762.79 M 9470.87 6079.02 L 9506.47 5107.26 M 11123.1 4833.55 L 11485 4376.4 M 11485 4376.4 L 10696.6 4925.32 M 13499.7 4997.15 L 13453.4 4420.17 M 13453.4 4420.17 L 13155.8 4929.44 M 11634.4 6752.89 L 11303.2 6872.84 M 11209.9 6217.76 L 11804.8 6108.15 M 11804.8 6108.15 L 11494.9 5876.29 M 13934 6662.36 L 14107.4 6268.26 M 8584.13 2624.7 L 8456.09 2391.97 M 11414.8 1568.58 L 11691.9 2641.63 M 11691.9 2641.63 L 11614.2 2063.28 M 11413.4 6589.28 L 10805.3 6814.62 M 7780.07 2583.62 L 7617.03 2900.89 M 9012.49 2594.04 L 9440.72 2699.68 M 9440.72 2699.68 L 9056.19 2414.28 M 11621.1 3872.49 L 11466.6 3531.01 M 7564.34 2149.52 L 7962.53 2058.42 M 7962.53 2058.42 L 7504.15 1617.11 M 10851.3 346.056 L 11329.8 1341.01 M 13428.2 6016.91 L 13222.7 6636.03 M 13222.7 6636.03 L 13800.7 6293.17 M 9825.91 5872.44 L 10470.7 6096.27 M 12736 6055.85 L 12698.4 5585.53 M 13409.2 6902.91 L 13261.3 6911.35 M 13902.4 7023.98 L 14492.3 7340.28 M 14492.3 7340.28 L 14211.1 6735.83 M 9074.17 1945.69 L 8789.94 1738.82 M 8789.94 1738.82 L 8940.15 2176.97 M 10047.9 1591.13 L 10191.6 2395.84 M 11776.4 2813.57 L 11395.5 3047.89 M 11395.5 3047.89 L 11920.2 3111.17 M 9510.34 2955.79 L 9094.67 3058.3 M 9315.74 2143.17 L 9074.17 1945.69" />
<path fill="none" class="c" d=" M 11762.1 5700.85 L 11807.1 6362.43 M 11886.6 5862.91 L 11762.1 5700.85 M 11886.6 5862.91 L 11966.1 5758.75 M 11966.1 5758.75 L 11762.1 5700.85 M 11886.6 5862.91 L 12043.7 5968.5 M 11966.1 5758.75 L 11654.5 5637.71 M 11654.5 5637.71 L 11762.1 5700.85 M 11885.5 6133.02 L 12043.7 5968.5 M 11966.1 5758.75 L 11492.8 5032.29 M 11886.6 5862.91 L 11885.5 6133.02 M 11494.9 5876.29 L 11762.1 5700.85 M 11886.6 5862.91 L 11699.9 6153.47 M 11699.9 6153.47 L 11885.5 6133.02 M 11695.6 6207.23 L 11762.1 5700.85 M 11886.6 5862.91 L 11616.1 5941.7 M 11850.2 6616.02 L 11885.5 6133.02 M 12212.7 6376.85 L 12043.7 5968.5 M 11492.8 5032.29 L 11654.5 5637.71 M 11654.5 5637.71 L 11494.9 5876.29 M 11886.6 5862.91 L 11631.9 5802.66 M 11492.8 5032.29 L 11376.6 5202.16 M 11379.4 5606.55 L 11494.9 5876.29 M 11992.9 6295.98 L 11885.5 6133.02 M 11492.8 5032.29 L 11301.8 4743.97 M 11113.2 5620.68 L 11494.9 5876.29 M 11721.8 4390.71 L 11301.8 4743.97 M 11113.2 5620.68 L 11209.9 6217.76 M 11209.9 6217.76 L 11494.9 5876.29 M 11721.8 4390.71 L 11074.1 4400.48 M 11105.3 6398.33 L 11209.9 6217.76 M 11113.2 5620.68 L 11105.3 6398.33 M 10866.1 4088.02 L 11074.1 4400.48 M 11219.6 6371.73 L 11209.9 6217.76 M 11105.3 6398.33 L 11219.6 6371.73 M 10866.1 4088.02 L 10953.1 4560.65 M 12094.3 6038.34 L 12043.7 5968.5 M 11376.6 5202.16 L 11654.5 5637.71 M 12212.7 6376.85 L 12094.3 6038.34 M 11331.1 6484.56 L 11219.6 6371.73 M 10866.1 4088.02 L 10833.2 4251.18 M 11699.9 6153.47 L 11850.2 6616.02 M 12303.4 6599.43 L 12094.3 6038.34 M 11331.1 6484.56 L 11762.8 6101.37 M 11762.8 6101.37 L 11219.6 6371.73 M 12635.3 6324.52 L 12094.3 6038.34 M 11331.1 6484.56 L 11474.3 6569.73 M 11474.3 6569.73 L 11762.8 6101.37 M 10930.6 5923.12 L 11219.6 6371.73 M 10866.1 4088.02 L 10100.1 4674.81 M 11653.8 6494.7 L 11762.8 6101.37 M 11559.1 6265.05 L 11850.2 6616.02 M 10866.1 4088.02 L 9786.38 4379.21 M 11771.2 6468.29 L 11762.8 6101.37 M 11653.8 6494.7 L 11771.2 6468.29 M 11559.1 6265.05 L 11438.3 6418.27 M 11438.3 6418.27 L 11850.2 6616.02 M 10866.1 4088.02 L 10475 3271.74 M 11771.2 6468.29 L 11887.6 6428.84 M 11343.3 3717.92 L 10475 3271.74 M 10475 3271.74 L 9786.38 4379.21 M 11352.5 3430.74 L 10475 3271.74 M 10475 3271.74 L 9707.71 4049.46 M 9707.71 4049.46 L 9786.38 4379.21 M 11240.3 3398.03 L 10475 3271.74 M 11352.5 3430.74 L 11240.3 3398.03 M 10475 3271.74 L 9598.31 3622.12 M 9308.52 4300.44 L 9786.38 4379.21 M 10973.6 3024.95 L 10475 3271.74 M 11680.7 3475.79 L 11240.3 3398.03 M 10475 3271.74 L 9546.36 3200.87 M 9308.52 4300.44 L 8910.92 4461.59 M 11680.7 3475.79 L 10973.5 3025.01 M 10475 3271.74 L 9743.1 2914.74 M 8681.27 4193.5 L 8910.92 4461.59 M 11680.7 3475.79 L 11493.1 2955.56 M 11493.1 2955.56 L 10973.5 3025.01 M 10475 3271.74 L 9938.34 2993.63 M 9938.34 2993.63 L 9743.1 2914.74 M 11680.7 3475.79 L 11562.7 2794.05 M 11493.1 2955.56 L 11433.1 2786.52 M 10475 3271.74 L 10519.8 2794.02 M 10519.8 2794.02 L 9938.34 2993.63 M 9473.83 2769.68 L 9743.1 2914.74 M 11680.7 3475.79 L 11829.6 2876.34 M 11829.6 2876.34 L 11562.7 2794.05 M 11564.9 2795.02 L 11433.1 2786.52 M 10846.4 2919.31 L 10519.8 2794.02 M 9473.83 2769.68 L 9546.59 3201.03 M 9598.31 3622.12 L 9707.71 4049.46 M 10771.9 2755.33 L 10519.8 2794.02 M 9473.83 2769.68 L 9598.89 3622.24 M 9536.47 3930.69 L 9707.71 4049.46 M 10628.7 2144.34 L 10519.8 2794.02 M 11559.1 6265.05 L 11295.7 6142.76 M 11295.7 6142.76 L 11438.3 6418.27 M 10866.1 4088.02 L 11343.3 3717.92 M 11343.3 3717.92 L 11352.5 3430.74 M 11559.1 6265.05 L 12105.3 6017.39 M 11295.7 6142.76 L 11013.6 6595.25 M 11699.9 6153.47 L 11559.1 6265.05 M 11343.3 3717.92 L 11680.7 3475.78 M 11693.5 6566.2 L 12105.3 6017.39 M 10100.1 4674.81 L 10833.2 4251.18 M 10492.8 1860.22 L 10519.8 2794.02 M 10866.1 4088.02 L 11296.1 3950.75 M 12105.3 6017.39 L 11295.7 6142.76 M 11693.5 6566.2 L 11764.1 6666.52 M 10100.1 4674.81 L 10237.2 4749.55 M 12105.3 6017.39 L 11662.5 5476.6 M 10237.2 4749.55 L 10833.2 4251.18 M 10100.1 4674.81 L 10158.1 5007.52 M 10158.1 5007.52 L 10237.2 4749.55 M 12105.3 6017.39 L 11908.9 5615.2 M 9719.55 5387.59 L 10158.1 5007.52 M 10158.1 5007.52 L 10423.4 4970.35 M 10423.4 4970.35 L 10237.2 4749.55 M 12105.3 6017.39 L 12271.8 5790.91 M 12271.8 5790.91 L 11908.9 5615.2 M 10158.1 5007.52 L 10243.9 5315.07 M 10243.9 5315.07 L 10423.4 4970.35 M 12105.3 6017.39 L 12924.7 5983.67 M 12271.8 5790.91 L 11925.4 5279.56 M 11925.4 5279.56 L 11908.9 5615.2 M 10158.1 5007.52 L 9919.37 5186.8 M 10243.9 5315.07 L 10780.1 5137.41 M 10780.1 5137.41 L 10423.4 4970.35 M 12271.8 5790.91 L 12353.5 5706.02 M 11925.4 5279.56 L 11662.3 5476.96 M 12679.8 6473.24 L 12924.7 5983.67 M 10243.9 5315.07 L 10388.2 5604.53 M 10388.2 5604.53 L 10780.1 5137.41 M 10780.1 5137.41 L 10696.6 4925.32 M 11679.7 4762.07 L 11662.3 5476.96 M 12353.5 5706.02 L 11925.4 5279.56 M 10044.3 5601.32 L 10388.2 5604.53 M 10388.2 5604.53 L 10846.2 5467.64 M 10103.1 5842.93 L 10388.2 5604.53 M 10044.3 5601.32 L 10103.1 5842.93 M 10388.2 5604.53 L 10901.9 5937.92 M 10901.9 5937.92 L 10846.2 5467.64 M 10103.1 5842.93 L 10280.3 6118.51 M 10470.7 6096.27 L 10901.9 5937.92 M 10388.2 5604.53 L 10470.7 6096.27 M 11126.6 5836.8 L 10846.2 5467.64 M 10901.9 5937.92 L 11126.6 5836.8 M 9863.42 6240.53 L 10280.3 6118.51 M 10470.7 6096.27 L 10583.9 6410.89 M 10583.9 6410.89 L 10901.9 5937.92 M 10901.9 5937.92 L 11182.4 5940.9 M 9863.42 6240.53 L 10444.1 6346.05 M 10444.1 6346.05 L 10280.3 6118.51 M 10535 6775.79 L 10583.9 6410.89 M 10901.9 5937.92 L 9727.39 6863.26 M 9864.05 5637.28 L 10470.7 6096.27 M 10444.1 6346.05 L 10633.1 5844.88 M 10535 6775.79 L 10714.8 6755.27 M 9749.29 6325.96 L 9727.39 6863.26 M 9864.05 5637.28 L 9825.91 5872.44 M 10603.7 7168.54 L 10714.8 6755.27 M 9714.79 6957.49 L 9727.39 6863.26 M 10729.9 6354.73 L 10633.1 5844.88 M 10603.7 7168.54 L 10862.3 7186.86 M 9704.26 7406.69 L 9727.39 6863.26 M 9714.79 6957.49 L 9704.26 7406.69 M 10923 6193.6 L 10633.1 5844.88 M 10613.4 7768.85 L 10862.3 7186.86 M 9704.26 7406.69 L 11313.7 7279.14 M 11313.7 7279.14 L 9727.39 6863.26 M 9437.46 6859.94 L 9704.26 7406.69 M 9714.79 6957.49 L 9437.46 6859.94 M 11313.7 7279.14 L 10805.3 6814.62 M 10805.3 6814.62 L 9727.39 6863.26 M 9414.16 7392.89 L 9704.26 7406.69 M 9437.46 6859.94 L 9414.16 7392.89 M 9749.77 6325.99 L 9437.46 6859.94 M 11116.8 7022.05 L 10805.3 6814.62 M 10805.3 6814.62 L 11129.3 6586.82 M 9292.44 9676.93 L 9704.26 7406.69 M 9414.16 7392.89 L 9292.44 9676.93 M 9437.46 6859.94 L 9401.93 7390.17 M 9749.77 6325.99 L 9470.17 6078.99 M 11116.8 7022.05 L 11303.2 6872.84 M 11303.2 6872.84 L 10805.3 6814.62 M 11261 6636.41 L 11129.3 6586.82 M 9401.93 7390.17 L 9414.16 7392.89 M 9437.46 6859.94 L 9424.35 6570.51 M 9778.83 5463.12 L 9470.17 6078.99 M 11387.5 7216.66 L 11303.2 6872.84 M 11303.2 6872.84 L 11413.4 6589.28 M 11129.3 6586.82 L 9727.39 6863.26 M 9401.93 7390.17 L 8703.45 9568.74 M 9470.87 6079.02 L 9424.35 6570.51 M 11387.5 7216.66 L 11634.4 6752.89 M 10444.1 6346.05 L 10729.9 6354.73 M 11265 5118.79 L 10846.2 5467.64 M 11182.4 5940.9 L 11126.6 5836.8 M 8699.37 9543.67 L 8703.45 9568.74 M 9470.87 6079.02 L 9335.51 5762.79 M 11182.4 5940.9 L 11623.7 6118.38 M 8699.37 9543.67 L 8603.05 9488.63 M 10846.2 5467.64 L 10780.1 5137.41 M 11123.1 4833.55 L 10696.6 4925.32 M 11361.8 6164.99 L 11623.7 6118.38 M 10492.8 1860.22 L 10191.6 2395.84 M 10866.1 4088.02 L 11348.8 4317.52 M 11348.8 4317.52 L 11296.1 3950.75 M 11662.5 5476.6 L 11295.7 6142.76 M 10846.2 5467.64 L 11169 5379.7 M 10191.6 2395.84 L 10519.8 2794.02 M 11294.7 3950.45 L 11680.7 3475.78 M 11361.8 6164.99 L 11657.4 6450.34 M 10492.8 1860.22 L 10047.9 1591.13 M 11348.8 4317.52 L 11853.8 4180.67 M 10191.6 2395.84 L 9520.54 2831.91 M 11294.7 3950.45 L 11824.2 3806.71 M 11824.2 3806.71 L 11680.7 3475.78 M 11665.9 6577.84 L 11657.4 6450.34 M 11348.8 4317.52 L 11348.8 4638.3 M 9591 2781.39 L 9520.54 2831.91 M 10191.6 2395.84 L 9591 2781.39 M 11085.9 4486.13 L 11348.8 4638.3 M 9450.42 2356.08 L 9520.54 2831.91 M 10191.6 2395.84 L 9803.25 2379.5 M 9803.25 2379.5 L 9591 2781.39 M 11085.9 4486.13 L 10987.2 4820.2 M 10987.2 4820.2 L 11348.8 4638.3 M 9174.27 2566.44 L 9520.54 2831.91 M 10191.6 2395.84 L 9790.2 2107.54 M 9803.25 2379.5 L 9446.45 2357.41 M 11085.9 4486.13 L 10483 4736.07 M 10987.2 4820.2 L 11067.7 4998.88 M 9174.27 2566.44 L 9041.31 2867.06 M 11067.7 4998.88 L 11348.8 4638.3 M 9803.07 2107.23 L 9446.45 2357.41 M 10464.9 4309.12 L 10483 4736.07 M 10987.2 4820.2 L 10425.7 4907.22 M 8956.36 2478.54 L 9041.31 2867.06 M 9174.27 2566.44 L 8956.36 2478.54 M 11067.7 4998.88 L 11541.8 5264 M 9803.07 2107.23 L 9495.21 1867.8 M 10343.3 4528.01 L 10483 4736.07 M 10464.9 4309.12 L 10343.3 4528.01 M 11541.8 5264 L 11348.8 4638.3 M 8997.39 2296.27 L 8956.36 2478.54 M 10301.5 4888.57 L 10483 4736.07 M 9976.25 4386.86 L 10343.3 4528.01 M 11541.8 5264 L 11866.9 5081.03 M 8997.39 2296.27 L 8868.49 2440.1 M 8868.49 2440.1 L 8956.36 2478.54 M 9976.25 4386.86 L 9818.15 4867.24 M 11858.9 5388.89 L 11866.9 5081.03 M 8770.88 2365.14 L 8868.49 2440.1 M 8997.39 2296.27 L 8770.88 2365.14 M 8868.49 2440.1 L 8685.9 2856.72 M 9976.25 4386.86 L 9759.78 4570 M 8770.88 2365.14 L 8627.67 2519.18 M 8627.67 2519.18 L 8868.49 2440.1 M 8997.39 2296.27 L 8660.91 2184.26 M 9632.44 4244.91 L 9759.78 4570 M 8560.4 2342.63 L 8627.67 2519.18 M 8627.67 2519.18 L 8614.07 2652.76 M 8600.71 2057.73 L 8660.91 2184.26 M 9632.44 4244.91 L 9388.8 4310.89 M 8560.4 2342.63 L 8453.61 2555.63 M 8450.9 2538.69 L 8614.07 2652.76 M 8336.7 2391.19 L 8453.61 2555.63 M 8450.9 2538.69 L 8393.88 2781.6 M 8393.88 2781.6 L 8614.07 2652.76 M 8292.09 2568.25 L 8393.88 2781.6 M 8393.88 2781.6 L 8736.46 2831.33 M 8163.67 2669.38 L 8393.88 2781.6 M 8393.88 2781.6 L 8384.5 2886.19 M 8163.67 2669.38 L 8137.09 2871.92 M 8137.09 2871.92 L 8393.88 2781.6 M 8026.93 2790.94 L 8137.09 2871.92 M 11178.5 5253.9 L 11541.8 5264 M 8026.93 2790.94 L 7810.7 2913.35 M 7810.7 2913.35 L 8137.09 2871.92 M 11178.5 5253.9 L 11415.2 5580.47 M 7821.9 2784.42 L 7810.7 2913.35 M 11178.5 5253.9 L 11112.1 5660.9 M 11112.1 5660.9 L 11415.2 5580.47 M 7617.03 2900.89 L 7810.7 2913.35 M 7821.9 2784.42 L 7617.03 2900.89 M 10893.2 5656.94 L 11112.1 5660.9 M 7686.14 3225.56 L 7810.7 2913.35 M 7617.03 2900.89 L 7686.14 3225.56 M 7821.9 2784.42 L 7780.07 2583.62 M 10893.2 5656.94 L 11049.2 6038.32 M 7985.85 3294.82 L 7810.7 2913.35 M 7401.33 3383.93 L 7686.14 3225.56 M 7960.92 2633.57 L 7780.07 2583.62 M 10658.6 5694 L 11049.2 6038.32 M 10893.2 5656.94 L 10658.6 5694 M 7666.5 3467.57 L 7686.14 3225.56 M 7960.92 2633.57 L 7911.23 2487.71 M 10924.7 5226.86 L 10658.6 5694 M 7666.5 3467.57 L 7882.93 3512.04 M 10924.7 5226.86 L 10478.7 5211.92 M 7666.5 3467.57 L 7504.18 3696.32 M 7504.18 3696.32 L 7882.93 3512.04 M 10668.2 4974.13 L 10478.7 5211.92 M 7402.28 3380.98 L 7504.18 3696.32 M 7885.06 3763.91 L 7882.93 3512.04 M 7504.18 3696.32 L 7885.06 3763.91 M 10668.2 4974.13 L 10391.9 4963.97 M 7402.28 3380.98 L 7221.45 3475.34 M 7885.06 3763.91 L 8197.37 3880.9 M 7504.18 3696.32 L 7570.87 3972.82 M 7402.28 3380.98 L 7212.58 3132.15 M 7212.58 3132.15 L 7221.45 3475.34 M 7885.06 3763.91 L 7758.77 4051.6 M 7170.24 3866.93 L 7570.87 3972.82 M 7504.18 3696.32 L 7170.24 3866.93 M 7548.39 3934.23 L 7758.77 4051.6 M 7170.24 3866.93 L 7255.89 4044.95 M 7255.89 4044.95 L 7570.87 3972.82 M 7204.4 3499.08 L 7170.24 3866.93 M 7548.39 3934.23 L 7702.11 4440.11 M 7170.24 3866.93 L 7050.28 4178.28 M 7050.28 4178.28 L 7255.89 4044.95 M 7255.89 4044.95 L 7501.15 4295.2 M 7204.4 3499.08 L 6938.23 3794.92 M 7266.92 4106.18 L 7702.11 4440.11 M 6928.16 3846.64 L 7050.28 4178.28 M 9495.21 1867.8 L 9446.45 2357.41 M 11850.1 4185.96 L 11824.2 3806.71 M 9315.74 2143.17 L 9446.45 2357.41 M 9495.21 1867.8 L 9315.74 2143.17 M 12345 4355.11 L 11824.2 3806.71 M 11850.1 4185.96 L 12345 4355.11 M 9315.74 2143.17 L 9056.19 2414.28 M 9056.19 2414.28 L 9446.45 2357.41 M 9495.21 1867.8 L 9053.24 1974.5 M 9315.74 2143.17 L 8940.15 2176.97 M 8940.15 2176.97 L 9056.19 2414.28 M 9495.21 1867.8 L 9113.08 1650.67 M 9113.08 1650.67 L 9053.24 1974.5 M 9074.17 1945.69 L 8940.15 2176.97 M 8657.81 2452.31 L 9056.19 2414.28 M 9358.88 1417.34 L 9113.08 1650.67 M 9113.08 1650.67 L 8868.71 1787.78 M 8868.71 1787.78 L 9053.24 1974.5 M 9012.49 2594.04 L 9056.19 2414.28 M 8657.81 2452.31 L 9012.49 2594.04 M 9113.08 1650.67 L 8660.36 1629.44 M 8868.71 1787.78 L 8703.13 1942.82 M 8657.81 2452.31 L 8952.91 2732.22 M 8952.91 2732.22 L 9012.49 2594.04 M 8711.2 1402.13 L 8660.36 1629.44 M 8657.81 2452.31 L 8540 2648.96 M 8540 2648.96 L 8952.91 2732.22 M 8952.91 2732.22 L 9437.06 2713.56 M 8522.49 1142.44 L 8660.36 1629.44 M 8657.81 2452.31 L 8260.02 2353.98 M 8260.02 2353.98 L 8540 2648.96 M 9278.02 2990.26 L 9437.06 2713.56 M 8522.49 1142.44 L 8291.41 1543.11 M 8657.81 2452.31 L 8579.21 2285.98 M 8579.21 2285.98 L 8260.02 2353.98 M 9278.02 2990.26 L 9558.55 3012.75 M 8279.43 1403.52 L 8291.41 1543.11 M 8895.3 2137.46 L 8579.21 2285.98 M 8498.46 2864.9 L 8952.91 2732.22 M 9468.87 3268.91 L 9558.55 3012.75 M 8279.43 1403.52 L 8118.11 1555.94 M 8895.3 2137.46 L 8419.67 2155.86 M 8498.46 2864.9 L 8959.28 3147.23 M 9685.1 3504.21 L 9558.55 3012.75 M 8121.23 1366.47 L 8118.11 1555.94 M 11824.2 3806.71 L 12623.4 3637.15 M 8121.23 1366.47 L 7993.44 1553.13 M 12557.4 4014.83 L 12623.4 3637.15 M 11665.9 6577.84 L 11849.4 6800.08 M 13095.2 3987.66 L 12623.4 3637.15 M 11348.8 4317.52 L 11085.9 4486.13 M 13427.8 3970.17 L 12623.4 3637.15 M 11348.8 4317.52 L 10735.3 3943.84 M 10927.6 5986.41 L 11295.7 6142.76 M 11042.9 3846.65 L 10735.3 3943.84 M 10960.3 6177.27 L 11295.7 6142.76 M 10927.6 5986.41 L 10960.3 6177.27 M 11042.9 3846.65 L 11104 3613.74 M 10960.3 6177.27 L 10957.7 6552.55 M 10793.8 6125.69 L 10960.3 6177.27 M 11368.8 3883.86 L 11104 3613.74 M 11042.9 3846.65 L 11368.8 3883.86 M 11368.8 3883.86 L 11466.6 3531.01 M 11430.2 5820.23 L 11169 5379.7 M 11368.8 3883.86 L 11621.1 3872.49 M 9520.54 2831.91 L 10519.8 2794.02 M 9473.83 2769.68 L 9038.66 3222.26 M 9520.54 2831.91 L 9505.8 3052.59 M 9473.83 2769.68 L 8849.04 3006.42 M 8849.04 3006.42 L 9038.66 3222.26 M 9520.54 2831.91 L 9510.34 2955.79 M 9510.34 2955.79 L 9505.8 3052.59 M 9253.19 2569.25 L 8849.04 3006.42 M 8849.04 3006.42 L 8426.67 3589.78 M 9510.34 2955.79 L 9221.56 3142.37 M 9253.19 2569.25 L 8699.92 2835.91 M 8699.28 2836.47 L 8426.67 3589.78 M 9094.67 3058.3 L 9221.56 3142.37 M 9024.29 2302.31 L 8699.92 2835.91 M 9094.67 3058.3 L 9028.43 3436.23 M 9024.29 2302.31 L 8584.13 2624.7 M 8584.13 2624.7 L 8699.92 2835.91 M 8873.05 3326.05 L 9028.43 3436.23 M 8653.03 2358.44 L 8584.13 2624.7 M 9024.29 2302.31 L 8653.03 2358.44 M 8584.13 2624.7 L 7958.73 2653.48 M 8833.89 3822.08 L 9028.43 3436.23 M 8841.44 2081 L 8653.03 2358.44 M 9024.29 2302.31 L 8841.44 2081 M 8456.09 2391.97 L 7958.73 2653.48 M 9025.51 3922.83 L 9028.43 3436.23 M 8841.44 2081 L 8551.61 1737.45 M 8551.61 1737.45 L 8653.03 2358.44 M 7851.51 2121.26 L 7958.73 2653.48 M 9025.51 3922.83 L 9190.96 3857.48 M 9190.96 3857.48 L 9028.43 3436.23 M 7851.51 2121.26 L 7680.65 2243.18 M 9255.88 4194.53 L 9190.96 3857.48 M 9296.14 3803.74 L 9028.43 3436.23 M 7851.51 2121.26 L 7564.34 2149.52 M 9318.38 4158.3 L 9190.96 3857.48 M 10628.7 2144.34 L 10492.8 1860.22 M 8320.04 9238.51 L 8603.05 9488.63 M 9454.6 4008.18 L 9707.71 4049.46 M 11182.4 5940.9 L 11361.8 6164.99 M 8603.05 9488.63 L 8703.45 9568.74 M 9318.38 4158.3 L 9417.39 3890 M 10652.7 1994.81 L 10492.8 1860.22 M 8320.04 9238.51 L 7459.62 10010.6 M 11182.4 5940.9 L 11655.7 6585.16 M 7899.06 9969.53 L 8703.45 9568.74 M 9318.38 4158.3 L 9528.88 4115.76 M 10833.2 4251.18 L 10953.1 4560.65 M 12212.7 6376.85 L 12303.4 6599.43 M 9038.66 3222.26 L 9598.89 3622.24 M 11623.7 6118.38 L 11126.6 5836.8 M 7330.36 9748.19 L 7459.62 10010.6 M 11265 5118.79 L 11193.6 4880.52 M 7899.06 9969.53 L 7550.28 10474.9 M 9659.24 4470.4 L 9528.88 4115.76 M 10833.2 4251.18 L 10960.3 4700.96 M 11885.5 6133.03 L 12303.4 6599.43 M 10960.3 4700.96 L 10953.1 4560.65 M 11623.7 6118.38 L 11796.5 6129.93 M 10771.9 2755.33 L 10628.7 2144.34 M 11449.9 5183.22 L 11193.6 4880.52 M 11376.6 5202.16 L 11382.9 5584.03 M 11393.5 6403.2 L 11129.3 6586.82 M 11250.7 4907.57 L 10953.1 4560.65 M 11623.7 6118.38 L 11874.1 6340.9 M 10794 2576.58 L 10628.7 2144.34 M 7214.82 10322.6 L 7550.28 10474.9 M 6630.34 10094.8 L 7459.62 10010.6 M 11393.5 6403.2 L 11170.7 5932.83 M 10953.1 4560.65 L 11074.1 4400.48 M 11680.7 3475.79 L 11992.3 2858.7 M 11564.9 2795.02 L 11670.1 2611.82 M 11261 6636.41 L 11393.5 6403.2 M 11654.8 6450.58 L 11874.1 6340.9 M 10953.1 4560.65 L 11302.8 4743.33 M 11680.7 3475.79 L 12042.5 2837.01 M 12042.5 2837.01 L 11992.3 2858.7 M 11844.4 2777.94 L 11670.1 2611.82 M 11617.6 6451.43 L 11393.5 6403.2 M 11654.8 6450.58 L 11963.8 6575.88 M 10953.1 4560.65 L 11378.9 5201.29 M 12466.5 2930.6 L 12042.5 2837.01 M 12042.5 2837.01 L 11986.4 2532.98 M 11986.4 2532.98 L 11992.3 2858.7 M 11791 6126.14 L 11393.5 6403.2 M 10794 2576.58 L 10652.3 1994.76 M 12466.5 2930.6 L 12220.2 2558.38 M 12042.5 2837.01 L 12187.8 2600.32 M 11986.4 2532.98 L 11824.6 2099.66 M 6630.34 10094.8 L 6676.51 10617.8 M 10784.6 2038.61 L 10652.3 1994.76 M 12466.5 2930.6 L 12835.8 2520.89 M 12042.5 2837.01 L 12236 2753.81 M 12236 2753.81 L 12187.8 2600.32 M 5940.04 10303.1 L 6676.51 10617.8 M 6630.34 10094.8 L 5940.04 10303.1 M 10784.6 2038.61 L 10755.3 1937.84 M 10755.3 1937.84 L 10652.3 1994.76 M 12042.5 2837.01 L 12482.4 2987.28 M 12236 2753.81 L 12409.3 2751.71 M 12409.3 2751.71 L 12187.8 2600.32 M 10708.7 1472.2 L 10652.3 1994.76 M 5940.04 10303.1 L 5866.42 10373.3 M 6081.96 9939.84 L 5940.04 10303.1 M 12202.2 2398.08 L 12187.8 2600.32 M 10708.7 1472.2 L 10304.1 1679.8 M 5940.04 10303.1 L 5217.31 10171 M 5390.86 9724.33 L 5940.04 10303.1 M 11988.8 2480.22 L 12187.8 2600.32 M 10328.9 1266.8 L 10304.1 1679.8 M 4495.17 9934.61 L 5217.31 10171 M 6630.34 10094.8 L 6081.96 9939.84 M 12008.1 2708.7 L 12187.8 2600.32 M 11988.8 2480.22 L 12008.1 2708.7 M 10328.9 1266.8 L 9976.15 1514.73 M 9976.15 1514.73 L 10304.1 1679.8 M 5686.68 9798.17 L 6081.96 9939.84 M 12008.1 2708.7 L 12232.2 2807.91 M 11988.8 2480.22 L 11676.1 2420.71 M 9879.17 1470.33 L 9976.15 1514.73 M 10328.9 1266.8 L 9879.17 1470.33 M 9976.15 1514.73 L 9925.4 1724.89 M 5686.68 9798.17 L 5390.78 9724.6 M 12008.1 2708.7 L 11920.2 3111.17 M 11988.8 2480.22 L 11850.8 2266.4 M 11850.8 2266.4 L 11676.1 2420.71 M 9879.17 1470.33 L 9747.74 1664.52 M 9858.08 1012.98 L 9879.17 1470.33 M 10328.9 1266.8 L 9858.08 1012.98 M 4842.73 9541.48 L 5390.78 9724.6 M 11850.8 2266.4 L 11499.6 2148.95 M 9879.17 1470.33 L 9448.57 1184.03 M 9858.08 1012.98 L 9846.46 1120.72 M 9846.46 1120.72 L 9879.17 1470.33 M 5686.68 9798.17 L 4842.73 9541.48 M 11850.8 2266.4 L 11554.1 1943.4 M 11554.1 1943.4 L 11499.6 2148.95 M 9879.17 1470.33 L 9567.92 1033.23 M 9834.7 785.331 L 9846.46 1120.72 M 4873.34 9382.47 L 4842.73 9541.48 M 11655.9 1613.45 L 11554.1 1943.4 M 11238.2 1760.18 L 11499.6 2148.95 M 11554.1 1943.4 L 11238.2 1760.18 M 9879.17 1470.33 L 9758.59 1081.45 M 9758.59 1081.45 L 9567.92 1033.23 M 4828.28 9530.01 L 4842.73 9541.48 M 11655.9 1613.45 L 11358.2 1520.29 M 11261.1 2187.23 L 11499.6 2148.95 M 11238.2 1760.18 L 11261.1 2187.23 M 11365.4 1517.01 L 11238.2 1760.18 M 9879.17 1470.33 L 9954.81 1170.13 M 11122.6 1591.75 L 11261.1 2187.23 M 9758.59 1081.45 L 9722 855.412 M 10404.2 1303.19 L 9954.81 1170.13 M 11122.6 1591.75 L 11239.4 2201.08 M 4828.28 9530.01 L 4817.24 9540.63 M 10404.2 1303.19 L 9957.19 886.563 M 11122.6 1591.75 L 10716.1 1812.64 M 4828.28 9530.01 L 3280.55 8447.8 M 3280.55 8447.8 L 4817.24 9540.63 M 11122.6 1591.75 L 10235 1301.17 M 4817.24 9540.63 L 4842.73 9541.48 M 3280.55 8447.8 L 3268.52 8458.02 M 10828.4 1299.31 L 10235 1301.17 M 11122.6 1591.75 L 10828.4 1299.31 M 3280.55 8447.8 L 3123.2 8181.42 M 10828.4 1299.31 L 10497.2 974.593 M 11261.1 2187.23 L 11321.1 2546.32 M 3280.55 8447.8 L 3051.87 7980.87 M 3051.87 7980.87 L 3123.2 8181.42 M 10828.4 1299.31 L 10924.2 667.375 M 11239.4 2201.07 L 11321.1 2546.32 M 3280.55 8447.8 L 3419.46 8381.17 M 3051.87 7980.87 L 2853.75 7575.07 M 2853.75 7575.07 L 3123.2 8181.42 M 11238.2 1760.18 L 11122.6 1591.75 M 9954.81 1170.13 L 9758.59 1081.45 M 2853.75 7575.07 L 2605.71 7439.36 M 2605.71 7439.36 L 3123.2 8181.42 M 11776.4 2813.57 L 11920.2 3111.17 M 2635.37 7126.5 L 2605.71 7439.36 M 2788.91 8513.41 L 3123.2 8181.42 M 12008.1 2708.7 L 11776.4 2813.57 M 2635.37 7126.5 L 2449.87 6751.81 M 2788.91 8513.41 L 3268.73 8457.91 M 11758.4 2346.99 L 11776.4 2813.57 M 2591.81 6681.96 L 2449.87 6751.81 M 2635.37 7126.5 L 2591.81 6681.96 M 2927.52 8841.81 L 3268.73 8457.91 M 11451.4 2990.14 L 11776.4 2813.57 M 2229.94 6301.47 L 2449.87 6751.81 M 2852.19 7575.83 L 2591.81 6681.96 M 2927.52 8841.81 L 2946.68 8831.31 M 2946.68 8831.31 L 3268.73 8457.91 M 11387.4 3144.92 L 11776.4 2813.57 M 11451.4 2990.14 L 11387.4 3144.92 M 2229.94 6301.47 L 2038.91 5960.95 M 2927.52 8841.81 L 5084.17 9599.16 M 2946.68 8831.31 L 5052.45 9081.55 M 12078.2 3345.88 L 11776.4 2813.57 M 11451.4 2990.14 L 11116.7 2601.07 M 11116.7 2601.07 L 11387.4 3144.92 M 1812.95 5448.99 L 2038.91 5960.95 M 2946.68 8831.31 L 5086.53 9592.05 M 12078.2 3345.88 L 12209.6 3263.41 M 12209.6 3263.41 L 11776.4 2813.57 M 10955.9 3001.77 L 11387.4 3144.92 M 1812.95 5448.99 L 1672.55 5225.65 M 5085.32 9595.94 L 5086.53 9592.05 M 12392 3528.99 L 12209.6 3263.41 M 12078.2 3345.88 L 12392 3528.99 M 12209.6 3263.41 L 12208.9 2927.51 M 10955.9 3001.77 L 11417.4 3602.91 M 1609.27 5060.72 L 1672.55 5225.65 M 1812.95 5448.99 L 1609.27 5060.72 M 12392 3528.99 L 12472.1 3149 M 12359.2 3629.64 L 12392 3528.99 M 1609.27 5060.72 L 1592.57 5063.27 M 1592.57 5063.27 L 1672.55 5225.65 M 1746.79 4991.34 L 1609.27 5060.72 M 1812.95 5448.99 L 1746.79 4991.34 M 12629.3 3670.6 L 12472.1 3149 M 1414.97 5072.15 L 1672.55 5225.65 M 1592.57 5063.27 L 1414.97 5072.15 M 1327.77 4189.08 L 1609.27 5060.72 M 1746.79 4991.34 L 1327.77 4189.08 M 1812.95 5448.99 L 2125.15 5759.29 M 12629.3 3670.6 L 12595 2903.66 M 1414.97 5072.15 L 1086.08 5103.42 M 1086.08 5103.42 L 1672.55 5225.65 M 1592.57 5063.27 L 1781.51 2951.6 M 1327.77 4189.08 L 747.312 3380.39 M 1746.79 4991.34 L 1332.01 4180.72 M 1332.01 4180.72 L 1327.77 4189.08 M 2227.71 6302.56 L 2125.15 5759.29 M 13228.5 3681.6 L 12595 2903.66 M 1467.19 5829.44 L 1672.55 5225.65 M 1592.57 5063.27 L 2163.27 3253.72 M 883.945 3309.19 L 747.312 3380.39 M 1746.79 4991.34 L 1422.56 2464.1 M 1332.01 4180.72 L 882.383 3309.98 M 2588.58 6684 L 2125.15 5759.29 M 1467.19 5829.44 L 2041.15 5959.83 M 2179.79 3264.99 L 2163.27 3253.72 M 413.044 2418.94 L 747.312 3380.39 M 2125.15 5759.29 L 1746.79 4991.34 M 1939.99 6490.33 L 2041.15 5959.83 M 2179.79 3264.99 L 3021.18 2544.33 M 413.044 2418.94 L 175.881 2298.98 M 10850.8 3464.9 L 11417.4 3602.91 M 2111.46 7145.73 L 2041.15 5959.83 M 3121.18 2484.11 L 3021.18 2544.33 M 413.044 2418.94 L 0 1638.09 M 10850.8 3464.9 L 10814.2 4112 M 10814.2 4112 L 11417.4 3602.91 M 2111.46 7145.73 L 2455.57 6748.88 M 3121.18 2484.11 L 3630.73 2055.87 M 2894.61 107.284 L 0 1638.09 M 10850.8 3464.9 L 10477.5 3354.22 M 10814.2 4112 L 11057.1 4003.1 M 11057.1 4003.1 L 11417.4 3602.91 M 3732.36 2177.22 L 3630.73 2055.87 M 10814.2 4112 L 10867.5 4322.12 M 11057.1 4003.1 L 11192.2 4104.75 M 11192.2 4104.75 L 11417.4 3602.91 M 10620.6 4333.77 L 10867.5 4322.12 M 10863.2 4319.54 L 11192.2 4104.75 M 11192.2 4104.75 L 11648.9 3887.27 M 11648.9 3887.27 L 11417.4 3602.91 M 12081 2061.94 L 11850.8 2266.4 M 11192.2 4104.75 L 11852.5 3934.92 M 11585.4 3642.53 L 11417.4 3602.91 M 11648.9 3887.27 L 11585.4 3642.53 M 11192.2 4104.75 L 11457.9 4334.7 M 11457.9 4334.7 L 11852.5 3934.92 M 11836 3698.69 L 11585.4 3642.53 M 11648.9 3887.27 L 11836 3698.69 M 10985.7 4738.61 L 11457.9 4334.7 M 11796.6 4148.45 L 11852.5 3934.92 M 11457.9 4334.7 L 11796.6 4148.45 M 11836 3698.69 L 11673.6 3222.8 M 11852 3936.97 L 11836 3698.69 M 11687 4411.01 L 11796.6 4148.45 M 11836 3698.69 L 12025.4 2896.72 M 12025.4 2896.72 L 11673.6 3222.8 M 11703 4507.21 L 11796.6 4148.45 M 11836 3698.69 L 12107.5 2941.13 M 12107.5 2941.13 L 12025.4 2896.72 M 12025.4 2896.72 L 12008.3 2585.92 M 11703 4507.21 L 12097.2 4608.18 M 12369.6 3088.57 L 12107.5 2941.13 M 12107.5 2941.13 L 12143.2 2762.72 M 12143.2 2762.72 L 12025.4 2896.72 M 12201.6 2665.67 L 12008.3 2585.92 M 12105.7 4742.28 L 12097.2 4608.18 M 11703 4507.21 L 12105.7 4742.28 M 12369.6 3088.57 L 12346.5 2544.19 M 12010.1 4864.96 L 12105.7 4742.28 M 12646.2 3109.53 L 12346.5 2544.19 M 12010.1 4864.96 L 12121.5 4805.92 M 12121.5 4805.92 L 12105.7 4742.28 M 12646.2 3109.53 L 12730.9 2184.19 M 11937.5 5454.35 L 12121.5 4805.92 M 12121.5 4805.92 L 12271.7 4779.29 M 11937.5 5454.35 L 11851.2 6157.25 M 12917 5931.26 L 12271.7 4779.29 M 11778.7 4825.96 L 11851.2 6157.25 M 12856.8 5492.95 L 12271.7 4779.29 M 12917 5931.26 L 12856.8 5492.95 M 11778.7 4825.96 L 11665.4 5753.19 M 13041.1 5572.82 L 12271.7 4779.29 M 12917 5931.26 L 12991.3 6031.44 M 12991.3 6031.44 L 12856.8 5492.95 M 11513.5 5984.37 L 11665.4 5753.19 M 11778.7 4825.96 L 11513.5 5984.37 M 13041.1 5572.82 L 12659.6 5108.96 M 12659.6 5108.96 L 12271.7 4779.29 M 12991.3 6031.44 L 13238.3 5517.65 M 11307.7 6304.22 L 11513.5 5984.37 M 12659.6 5108.96 L 12521 4666.36 M 12991.3 6031.44 L 13435.4 6022.41 M 13435.4 6022.41 L 13238.3 5517.65 M 12659.6 5108.96 L 12958.1 5193.54 M 12958.1 5193.54 L 12521 4666.36 M 13139.3 6368.46 L 13435.4 6022.41 M 12991.3 6031.44 L 13139.3 6368.46 M 13646.6 5741.06 L 13238.3 5517.65 M 13307.6 5698.84 L 12958.1 5193.54 M 12904.8 5051.98 L 12521 4666.36 M 12958.1 5193.54 L 12904.8 5051.98 M 13139.3 6368.46 L 13267 6652.68 M 12736 6055.85 L 13139.3 6368.46 M 13499.7 4997.15 L 13238.3 5517.65 M 13646.6 5741.06 L 13499.7 4997.15 M 12668 4430.64 L 12521 4666.36 M 12904.8 5051.98 L 12668 4430.64 M 12875.4 6557.79 L 13267 6652.68 M 12736 6055.85 L 12875.7 6558.08 M 13155.8 4929.44 L 13238.3 5517.65 M 13499.7 4997.15 L 13155.8 4929.44 M 13646.6 5741.06 L 14239.8 5853.11 M 12444.4 5870.93 L 12875.7 6558.08 M 13155.8 4929.44 L 12878.7 5387.89 M 14239.8 5853.11 L 13499.7 4997.15 M 13646.6 5741.06 L 13800.7 6293.17 M 13800.7 6293.17 L 14239.8 5853.11 M 12444.4 5870.93 L 12610.7 6811.89 M 12892.3 5322.07 L 12878.7 5387.89 M 13155.8 4929.44 L 12892.3 5322.07 M 14239.8 5853.11 L 14238.1 5388.41 M 14238.1 5388.41 L 13499.7 4997.15 M 13428.2 6016.91 L 13800.7 6293.17 M 13800.7 6293.17 L 14107.4 6268.26 M 14107.4 6268.26 L 14239.8 5853.11 M 12213.1 6202.22 L 12610.7 6811.89 M 12892.3 5322.07 L 12703.1 5485.56 M 12584.9 5077.64 L 12892.3 5322.07 M 14695.8 5512.72 L 14238.1 5388.41 M 13800.7 6293.17 L 13934 6662.36 M 14424.2 6397.39 L 14239.8 5853.11 M 14107.4 6268.26 L 14424.2 6397.39 M 12444.4 5870.93 L 12213.1 6202.22 M 12584.9 5077.64 L 12446.2 5630.1 M 14695.8 5512.72 L 14046.1 4807.03 M 13279.7 6717.77 L 13934 6662.36 M 14424.2 6397.39 L 14670.1 6126.08 M 14670.1 6126.08 L 14239.8 5853.11 M 13927.4 6659.38 L 14424.2 6397.39 M 11886.9 5696.03 L 12213.1 6202.22 M 14701.8 4989.16 L 14046.1 4807.03 M 14695.8 5512.72 L 14701.8 4989.16 M 13279.7 6717.77 L 13612.3 6973.45 M 14360.3 6737.55 L 14424.2 6397.39 M 14670.1 6126.08 L 14808.2 5879.64 M 14701.8 4989.16 L 14716 4649.99 M 13927.4 6659.38 L 14360.3 6737.55 M 13279.7 6717.77 L 13544.5 6984.73 M 13544.5 6984.73 L 13612.3 6973.45 M 14486.1 6835.78 L 14424.2 6397.39 M 14943.3 6295.55 L 14808.2 5879.64 M 15152.3 5024.91 L 14716 4649.99 M 13927.4 6659.38 L 14210.4 6813.44 M 14210.4 6813.44 L 14360.3 6737.55 M 13279.7 6717.77 L 13277.7 7224.43 M 13277.7 7224.43 L 13544.5 6984.73 M 15204.3 4920.93 L 14716 4649.99 M 14019.6 6907.29 L 14210.4 6813.44 M 13927.4 6659.38 L 14019.6 6907.29 M 14210.4 6813.44 L 14379.3 6749.44 M 14379.3 6749.44 L 14360.3 6737.55 M 13087.8 6946.01 L 13277.7 7224.43 M 13279.7 6717.77 L 13087.8 6946.01 M 13277.7 7224.43 L 13523.2 7261.07 M 13523.2 7261.07 L 13544.5 6984.73 M 13612.2 6977.07 L 14019.6 6907.29 M 13815.4 7287.61 L 14379.3 6749.44 M 13523.2 7261.07 L 13805.3 6740.73 M 13902.4 7023.98 L 14019.6 6907.29 M 13612.2 6977.07 L 13902.4 7023.98 M 16428.1 9337.65 L 14379.3 6749.44 M 13760.4 7294.62 L 13805.3 6740.73 M 13523.2 7261.07 L 13760.4 7294.62 M 13902.4 7023.98 L 13814.3 7266.14 M 13760.4 7294.62 L 14000.6 7296.48 M 14000.6 7296.48 L 13805.3 6740.73 M 13877 6662.28 L 13814.3 7266.14 M 13902.4 7023.98 L 13877 6662.28 M 13760.4 7294.62 L 14558.9 7620.29 M 14049.7 7068.74 L 13805.3 6740.73 M 14000.6 7296.48 L 14049.7 7068.74 M 13338.9 6475.76 L 13814.3 7266.14 M 13926.8 6852.71 L 13877 6662.28 M 13902.4 7023.98 L 13926.8 6852.71 M 13381.2 7749.74 L 14558.9 7620.29 M 14049.7 7068.74 L 13911.6 6697.52 M 14151.8 7019.15 L 14049.7 7068.74 M 13908.6 6634.59 L 13877 6662.28 M 13926.8 6852.71 L 13908.6 6634.59 M 13902.4 7023.98 L 14211.1 6735.83 M 13715.5 8225.51 L 14558.9 7620.29 M 14308.2 7235.29 L 13911.6 6697.52 M 13701.4 6751.46 L 14049.7 7068.74 M 13938 6458.94 L 13877 6662.28 M 14464.8 7210.58 L 13911.6 6697.52 M 13701.4 6751.46 L 13743.5 7098.24 M 14560.9 6873.5 L 13911.6 6697.52 M 13479.8 6898.71 L 13743.5 7098.24 M 13701.4 6751.46 L 13479.8 6898.71 M 15264.5 4823.3 L 14716 4649.99 M 13409.2 6902.91 L 13743.5 7098.24 M 13435.3 6636.72 L 13479.8 6898.71 M 15011.4 4576.86 L 14716 4649.99 M 15264.5 4823.3 L 15011.4 4576.86 M 13409.2 6902.91 L 13586.5 7119.48 M 13435.3 6636.72 L 13409.4 6891.51 M 15011.4 4576.86 L 14502 3996.75 M 13365.9 7044.01 L 13586.5 7119.48 M 13409.2 6902.91 L 13365.9 7044.01 M 13435.3 6636.72 L 13272.2 6835.72 M 13261.3 6911.35 L 13365.9 7044.01 M 13171.5 6522.76 L 13272.2 6835.72 M 13245.1 7469.59 L 13523.2 7261.07 M 13805.3 6740.73 L 13544.5 6984.73 M 12668 4430.64 L 12560.7 4194.23 M 13485.1 8407.31 L 13523.2 7261.07 M 13245.1 7469.59 L 13485.1 8407.31 M 12668 4430.64 L 12752.5 4380.35 M 13485.1 8407.31 L 13987.5 8255.41 M 12835.7 4523.66 L 12752.5 4380.35 M 13794.4 8540.19 L 13987.5 8255.41 M 12869.9 4497.95 L 12752.5 4380.35 M 12835.7 4523.66 L 12869.9 4497.95 M 14047.4 8592.18 L 13987.5 8255.41 M 13794.4 8540.19 L 14047.4 8592.18 M 11709 7362.89 L 11607.4 8737.82 M 12821.4 4137.16 L 12752.5 4380.35 M 12897.1 4553.86 L 12869.9 4497.95 M 12835.7 4523.66 L 12897.1 4553.86 M 14142.3 8072.32 L 13987.5 8255.41 M 13794.4 8540.19 L 13850.6 8893.68 M 11709 7362.89 L 11696.6 7366.43 M 12835.7 4523.66 L 13089.4 5115.69 M 14407.2 7685.77 L 13987.5 8255.41 M 14142.3 8072.32 L 14407.2 7685.77 M 12560.7 4194.23 L 12521 4666.36 M 12610.1 6811.17 L 13267 6652.68 M 14495.6 7618.43 L 14407.2 7685.77 M 14142.3 8072.32 L 14495.6 7618.43 M 12610.1 6811.17 L 12838.2 7167.21 M 12736 6055.85 L 12444.4 5870.93 M 14142.3 8072.32 L 14357.8 8327.9 M 12610.1 6811.17 L 12501.6 6991.42 M 12501.6 6991.42 L 12838.2 7167.21 M 12698.4 5585.53 L 12444.4 5870.93 M 11993.9 6877.75 L 12501.6 6991.42 M 12501.6 6991.42 L 12564.7 7263 M 12240.3 5311.27 L 12444.4 5870.93 M 12698.4 5585.53 L 12240.3 5311.27 M 11993.9 6877.75 L 12296.3 7359.14 M 12240.3 5311.27 L 11971 5528.48 M 12991.3 6031.44 L 12736 6055.85 M 11993.9 6877.75 L 12000.1 7282.87 M 12000.1 7282.87 L 12296.3 7359.14 M 11737.7 4997.5 L 11971 5528.48 M 12000.1 7282.87 L 11897.3 7682.06 M 11387.1 5324.62 L 11971 5528.48 M 11737.7 4997.5 L 11387.1 5324.62 M 11387.1 5324.62 L 10833.3 5560.57 M 12346 2543.89 L 12143.2 2762.72 M 12143.2 2762.72 L 11853 2662.94 M 12346 2543.89 L 12074 2561.71 M 11985.8 2593.14 L 11853 2662.94 M 12143.2 2762.72 L 11985.8 2593.14 M 12346 2543.89 L 11968.8 2316.25 M 11649.6 2116.39 L 11853 2662.94 M 12105.7 4742.28 L 12360.1 4519.79 M 11649.6 2116.39 L 11614.2 2063.28 M 11614.2 2063.28 L 11853 2662.94 M 12265 4682.82 L 12360.1 4519.79 M 11414.8 1568.58 L 11614.2 2063.28 M 11649.6 2116.39 L 11414.8 1568.58 M 11686.2 2642.37 L 11853 2662.94 M 12467.5 4867.06 L 12360.1 4519.79 M 11649.6 2116.39 L 11640.1 1476.81 M 11640.1 1476.81 L 11414.8 1568.58 M 11985.6 2593.28 L 11640.1 1476.81 M 11551.4 1256.71 L 11414.8 1568.58 M 11809.2 1910.31 L 11640.1 1476.81 M 11329.8 1341.01 L 11414.8 1568.58 M 11551.4 1256.71 L 11329.8 1341.01 M 11809.2 1910.31 L 11821.9 1867.38 M 11821.9 1867.38 L 11640.1 1476.81 M 11551.4 1256.71 L 11218.6 1050.3 M 11218.6 1050.3 L 11329.8 1341.01 M 12071.1 2565.27 L 11821.9 1867.38 M 11821.9 1867.38 L 11860.9 1389.95 M 11218.6 1050.3 L 10851.3 346.056 M 12151.7 2522.84 L 11821.9 1867.38 M 11218.6 1050.3 L 10946.6 336.511 M 11182.4 247.935 L 10946.6 336.511 M 11499.6 2148.95 L 11676.1 2420.71 M 11182.4 247.935 L 10804.7 98.9251 M 11995.5 6352.82 L 11170.7 5932.83 M 7214.82 10322.6 L 6791.62 10857.2 M 11250.7 4907.57 L 11984.3 4649.29 M 6659.43 10587.8 L 6791.62 10857.2 M 5902.03 10965.2 L 6791.62 10857.2 M 5902.03 10965.2 L 5931.16 11273.7 M 10882 1585.09 L 10492.8 1860.22 M 5902.03 10965.2 L 5407.75 11527.1 M 10882 1585.09 L 10677.6 1639.09 M 10677.6 1639.09 L 10492.8 1860.22 M 5289.98 11261.2 L 5407.75 11527.1 M 10887.6 1391.8 L 10677.6 1639.09 M 10882 1585.09 L 10887.6 1391.8 M 5289.98 11261.2 L 5053.42 11689.3 M 5053.42 11689.3 L 5407.75 11527.1 M 10887.6 1391.8 L 10754 1213.44 M 5053.42 11689.3 L 4742.34 11849.5 M 9749.77 6325.99 L 9778.83 5463.12 M 9528.88 4115.76 L 9417.39 3890 M 9781.36 5587.65 L 9778.83 5463.12 M 9749.77 6325.99 L 9781.36 5587.65 M 9781.36 5587.65 L 9800.7 5118.02 M 9800.7 5118.02 L 9778.83 5463.12 M 10900.9 5933.57 L 9781.36 5587.65 M 9800.7 5118.02 L 9500.8 5107.25 M 10779.9 5093.57 L 9781.36 5587.65 M 9800.7 5118.02 L 9533.6 4454.28 M 9533.6 4454.28 L 9500.8 5107.25 M 10990.5 4688.98 L 9781.36 5587.65 M 9800.7 5118.02 L 9855.44 3341.74 M 9533.6 4454.28 L 9208.57 4210.38 M 10990.5 4688.98 L 11812.8 4063.86 M 9873.26 2845.85 L 9855.44 3341.74 M 9533.6 4454.28 L 9569.51 3409.8 M 9569.51 3409.8 L 9208.57 4210.38 M 9838.52 2827.75 L 9855.44 3341.74 M 9873.26 2845.85 L 9838.52 2827.75 M 9861.97 3343.65 L 9569.51 3409.8 M 9569.51 3409.8 L 9551.98 3176.36 M 9838.52 2827.75 L 9574.82 2819.94 M 9873.05 2828.79 L 9838.52 2827.75 M 9873.26 2845.85 L 9873.05 2828.79 M 9970.72 550.392 L 9838.52 2827.75 M 9873.05 2828.79 L 9970.72 550.392 M 10704.3 2443.89 L 9873.05 2828.79 M 9982.45 541.216 L 9970.72 550.392 M 8603.05 9488.63 L 7899.06 9969.53 M 11725.2 6103.98 L 11209.9 6217.76 M 7452.31 9994.26 L 7899.06 9969.53 M 11725.2 6103.98 L 11168 5614.35 M 7452.31 9994.26 L 7214.37 10321.7 M 9292.44 9676.93 L 9582.47 9693.96 M 9546 10088.8 L 9582.47 9693.96 M 9280.44 9677.96 L 9292.44 9676.93 M 9280.44 9677.96 L 9485.51 10120.4 M 10475 3271.74 L 10846.4 2919.31 M 9279.25 11144.6 L 9485.51 10120.4 M 10475 3271.74 L 11302.1 2633.34 M 9279.25 11144.6 L 9420.01 11355 M 9255.88 4194.53 L 9318.38 4158.3 M 7564.34 2149.52 L 7680.65 2243.18 M 13075 2738.17 L 13180.9 2743.76 M 7564.34 2149.52 L 7595.83 2300.21 M 9722 855.412 L 9645.89 653.724 M 7564.34 2149.52 L 7415.92 2030.27 M 10805.3 6814.62 L 11261 6636.41 M 7564.34 2149.52 L 7504.15 1617.11 M 7504.15 1617.11 L 7415.92 2030.27 M 11486.1 6761.33 L 11261 6636.41 M 7504.15 1617.11 L 7305.64 1885.02 M 11486.1 6761.33 L 11616.5 6449.45 M 9190.96 3857.48 L 9296.14 3803.74 M 11843.6 6376.06 L 11616.5 6449.45 M 9323.2 4044.13 L 9296.14 3803.74 M 7680.65 2243.18 L 7958.73 2653.48 M 9323.2 4044.13 L 9710.2 3826.85 M 7616.37 2322.65 L 7958.73 2653.48 M 7181.47 2677.47 L 7958.73 2653.48 M 7181.47 2677.47 L 7265 2922.44 M 12924.7 5983.67 L 12271.8 5790.91 M 12657.2 5800.11 L 12271.8 5790.91 M 13075 2738.17 L 13180.9 2743.76" />
</svg>
