<?xml version="1.0"?>
<svg width="599" height="526" version="1.1" xmlns="http://www.w3.org/2000/svg" >
<defs>
<style type="text/css"><![CDATA[
.m {stroke:rgb(255,0,0);stroke-width:0.748750;}
.v {stroke:rgb(0,0,255);stroke-width:0.748750;}
.b {stroke:rgb(0,0,0);stroke-width:1.497500;fill:white}
.n {stroke:rgb(128,128,128);stroke-width:0.748750}
.t {stroke:rgb(0,128,0);stroke-width:0.748750;}
.c {stroke:rgb(128,128,128);stroke-width:0.748750;stroke-dasharray:5.990000, 5.990000;}
]]></style>
</defs>
<path fill="none" style="stroke:black;stroke-width:1.497500;" d=" M 249.399 243.589 L 270.923 262.255 M 260.302 272.468 L 249.144 246.253 M 249.144 246.253 L 231.388 243.21 M 225.512 263.491 L 242.566 269.292 M 213.446 241.494 L 195.697 238.417 M 191.761 250.961 L 208.898 256.526 M 195.697 238.417 L 178.612 232.7 M 173.99 248.018 L 191.761 250.961 M 178.612 232.7 L 161.991 225.75 M 161.991 225.75 L 173.99 248.018 M 287.786 255.918 L 267.242 241.163 M 266.526 218.496 L 248.514 218.174 M 248.514 218.174 L 230.659 220.623 M 231.388 243.21 L 249.399 243.589 M 213.057 224.483 L 195.21 226.999 M 195.433 241.262 L 213.446 241.494 M 195.21 226.999 L 177.195 226.725 M 177.599 243.816 L 195.433 241.262 M 177.195 226.725 L 159.265 225.031 M 159.265 225.031 L 177.599 243.816 M 267.242 241.163 L 284.839 237.301 M 284.839 237.301 L 266.526 218.496 M 255.62 184.746 L 238.368 189.925 M 247.886 215.329 L 264.033 207.341 M 238.368 189.925 L 222.164 197.783 M 230.659 220.623 L 247.886 215.329 M 206.682 206.989 L 190.555 215.019 M 195.815 229.734 L 213.057 224.483 M 190.555 215.019 L 173.362 220.401 M 179.637 237.664 L 195.815 229.734 M 173.362 220.401 L 155.774 224.286 M 155.774 224.286 L 179.637 237.664 M 264.033 207.341 L 279.494 198.105 M 279.494 198.105 L 255.62 184.746 M 249.397 174.39 L 233.044 154.498 M 233.044 154.498 L 218.27 164.804 M 236.741 187.207 L 249.397 174.39 M 218.27 164.804 L 205.357 177.374 M 222.164 197.783 L 236.741 187.207 M 193.686 191.094 L 181.084 203.965 M 191.946 217.352 L 206.682 206.989 M 181.084 203.965 L 166.562 214.636 M 179.118 230.002 L 191.946 217.352 M 166.562 214.636 L 151.108 223.89 M 167.491 243.758 L 179.118 230.002 M 151.108 223.89 L 167.491 243.758 M 223.232 146.232 L 199.661 131.965 M 199.661 131.965 L 188.928 146.435 M 215.608 162.553 L 223.232 146.232 M 188.928 146.435 L 180.73 162.476 M 205.357 177.374 L 215.608 162.553 M 174.207 179.267 L 166.62 195.608 M 182.988 205.587 L 193.686 191.094 M 166.62 195.608 L 156.463 210.478 M 174.878 221.68 L 182.988 205.587 M 156.463 210.478 L 144.827 224.244 M 168.409 238.491 L 174.878 221.68 M 144.827 224.244 L 168.409 238.491 M 184.127 124.484 L 154.663 122.773 M 154.663 122.773 L 151.702 140.548 M 185.109 142.474 L 184.127 124.484 M 151.729 158.56 L 185.109 142.474 M 180.73 162.476 L 185.385 145.074 M 185.385 145.074 L 150.014 156.111 M 149.393 174.123 L 147.778 192.065 M 168.723 196.429 L 174.207 179.267 M 147.778 192.065 L 143.222 209.491 M 166.22 214.262 L 168.723 196.429 M 143.222 209.491 L 136.771 226.308 M 165.674 232.279 L 166.22 214.262 M 136.771 226.308 L 165.674 232.279 M 201.903 527.141 L 232.946 521.797 M 232.946 521.797 L 232.005 503.799 M 196.759 509.871 L 201.903 527.141 M 228.136 486.212 L 196.759 509.871 M 151.702 140.548 L 117.709 160.264 M 121.554 177.865 L 151.729 158.56 M 150.014 156.111 L 121.554 177.865 M 149.688 192.135 L 149.393 174.123 M 126.076 195.301 L 127.684 213.246 M 152.986 209.843 L 149.688 192.135 M 127.684 213.246 L 127.151 231.254 M 158.366 227.032 L 152.986 209.843 M 127.151 231.254 L 158.366 227.032 M 315.502 0 L 340.492 22.0072 M 354.03 10.1123 L 315.502 0 M 599.456 243.398 L 598.258 225.415 M 598.258 225.415 L 561.661 241.139 M 561.174 259.151 L 599.456 243.398 M 232.005 503.799 L 263.554 476.997 M 256.283 460.508 L 228.136 486.212 M 117.709 160.264 L 93.0007 189.29 M 101.764 205.024 L 107.89 221.962 M 133.387 211.768 L 126.076 195.301 M 107.89 221.962 L 111.816 239.544 M 142.731 227.171 L 133.387 211.768 M 111.816 239.544 L 142.731 227.171 M 340.492 22.0072 L 359.654 50.8061 M 375.878 42.9678 L 354.03 10.1123 M 561.661 241.139 L 522.204 241.036 M 522.502 259.048 L 561.174 259.151 M 263.554 476.997 L 296.019 455.985 M 284.006 442.556 L 256.283 460.508 M 93.0007 189.29 L 66.5618 209.085 M 79.2115 221.908 L 101.764 205.024 M 95.6183 199.006 L 79.2115 221.908 M 93.6539 232.687 L 110.502 209.151 M 110.502 209.151 L 95.6183 199.006 M 407.427 213.636 L 400.034 241.62 M 425.353 215.431 L 407.427 213.636 M 416.526 248.877 L 425.353 215.431 M 359.654 50.8061 L 370.317 84.2242 M 388.091 81.2778 L 375.878 42.9678 M 522.204 241.036 L 482.008 242.096 M 482.57 260.103 L 522.502 259.048 M 296.019 455.985 L 321.422 425.156 M 305.968 415.893 L 284.006 442.556 M 76.791 212.114 L 48.8318 232.399 M 61.3953 245.313 L 76.791 212.114 M 66.5618 209.085 L 61.3953 245.313 M 75.6754 256.297 L 93.6539 232.687 M 400.034 241.62 L 384.13 266.675 M 397.729 278.494 L 416.526 248.877 M 370.317 84.2242 L 370.882 118.762 M 388.728 121.227 L 388.091 81.2778 M 482.008 242.096 L 442.068 243.151 M 442.367 261.166 L 482.57 260.103 M 321.422 425.156 L 336.953 388.059 M 319.516 383.537 L 305.968 415.893 M 58.6509 235.287 L 30.5637 256.302 M 43.424 268.92 L 58.6509 235.287 M 48.8318 232.399 L 43.424 268.92 M 57.8646 279.697 L 75.6754 256.297 M 384.13 266.675 L 361.882 285.905 M 371.59 301.075 L 397.729 278.494 M 370.882 118.762 L 361.413 150.404 M 377.633 158.258 L 388.728 121.227 M 442.068 243.151 L 403.411 243.054 M 402.919 261.055 L 442.367 261.166 M 336.953 388.059 L 341.617 348.887 M 323.605 349.184 L 319.516 383.537 M 311.965 382.905 L 320.836 349.466 M 302.915 347.672 L 311.965 382.905 M 30.5637 256.302 L 26.5644 292.458 M 41.458 302.599 L 57.8646 279.697 M 361.882 285.905 L 336.333 297.775 M 341.637 314.991 L 371.59 301.075 M 361.413 150.404 L 343.789 175.607 M 356.639 188.241 L 377.633 158.258 M 403.411 243.054 L 366.874 240.872 M 365.119 258.805 L 402.919 261.055 M 341.617 348.887 L 336.193 311.411 M 318.844 316.227 L 323.605 349.184 M 320.836 349.466 L 318.844 316.227 M 301.279 320.256 L 302.915 347.672 M 26.5644 292.458 L 11.8723 315.662 M 27.4409 324.712 L 41.458 302.599 M 336.333 297.775 L 310.542 302.283 M 311.341 320.281 L 341.637 314.991 M 343.789 175.607 L 321.102 192.152 M 329.113 208.294 L 356.639 188.241 M 366.874 240.872 L 333.166 236.017 M 329.723 253.699 L 365.119 258.805 M 338.618 308.158 L 321.637 276.684 M 306.916 287.062 L 338.618 308.158 M 336.193 311.411 L 306.916 287.062 M 291.637 296.618 L 301.279 320.256 M 11.8723 315.662 L 0 338.263 M 16.3592 345.805 L 27.4409 324.712 M 310.542 302.283 L 286.781 300.515 M 283.339 318.205 L 311.341 320.281 M 321.102 192.152 L 296.831 199.448 M 299.068 217.328 L 329.113 208.294 M 333.166 236.017 L 302.776 228.219 M 297.311 245.389 L 329.723 253.699 M 322.839 272.336 L 297.793 250.147 M 287.438 264.89 L 322.839 272.336 M 321.637 276.684 L 287.438 264.89 M 276.174 278.94 L 291.637 296.618 M 295.007 292.974 L 276.174 278.94 M 266.378 294.064 L 295.007 292.974 M 8.37929 365.66 L 16.3592 345.805 M 0 338.263 L 8.37929 365.66 M 286.781 300.515 L 266.378 294.064 M 259.171 310.57 L 283.339 318.205 M 228.055 313.198 L 259.171 310.57 M 296.831 199.448 L 270.323 215.955 M 268.346 233.866 L 299.068 217.328 M 302.776 228.219 L 268.346 233.866 M 263.513 251.22 L 297.311 245.389 M 297.793 250.147 L 263.513 251.22 M 257.481 268.195 L 249.768 284.475 M 249.768 284.475 L 239.42 299.22 M 218.192 174.145 L 205.844 190.559 M 218.467 203.41 L 218.192 174.145 M 239.42 299.22 L 210.783 293.182 M 196.437 304.081 L 228.055 313.198 M 270.323 215.955 L 239.834 228.334 M 239.834 228.334 L 238.249 246.275 M 238.024 264.287 L 236.164 282.207 M 253.046 285.655 L 257.481 268.195 M 236.164 282.207 L 231.337 299.559 M 251.475 303.6 L 253.046 285.655 M 231.337 299.559 L 251.475 303.6 M 205.844 190.559 L 190.388 200.933 M 190.388 200.933 L 198.313 217.108 M 207.551 232.587 L 218.467 203.41 M 182.083 281.07 L 196.437 304.081 M 210.783 293.182 L 182.083 281.07 M 237.139 228.298 L 210.237 231.736 M 210.237 231.736 L 214.317 249.283 M 238.249 246.275 L 237.139 228.298 M 219.791 266.454 L 223.821 284.011 M 239.349 282.255 L 238.024 264.287 M 223.821 284.011 L 224.974 302 M 243.458 299.791 L 239.349 282.255 M 224.974 302 L 243.458 299.791 M 187.884 202.422 L 172.388 209.448 M 172.388 209.448 L 177.817 226.622 M 198.313 217.108 L 187.884 202.422 M 177.817 226.622 L 184.515 243.351 M 214.317 249.283 L 207.551 232.587 M 193.739 258.815 L 204.198 273.497 M 204.198 273.497 L 213.526 288.906 M 226.577 283.14 L 219.791 266.454 M 213.526 288.906 L 220.318 305.592 M 235.834 298.608 L 226.577 283.14 M 220.318 305.592 L 235.834 298.608 M 160.691 216.352 L 147.406 224.732 M 173.098 229.409 L 160.691 216.352 M 155.375 240.881 L 164.45 256.442 M 184.515 243.351 L 173.098 229.409 M 164.45 256.442 L 175.772 270.459 M 201.743 274.967 L 193.739 258.815 M 188.214 283.493 L 199.703 297.355 M 210.908 290.473 L 201.743 274.967 M 199.703 297.355 L 208.968 312.81 M 222.269 304.455 L 210.908 290.473 M 208.968 312.81 L 222.269 304.455 M 147.406 224.732 L 133.254 228.435 M 136.225 246.208 L 155.375 240.881 M 141.731 251.252 L 131.362 268.21 M 131.362 268.21 L 146.35 278.203 M 158.096 258.78 L 141.731 251.252 M 162.638 285.905 L 158.096 258.78 M 175.772 270.459 L 162.38 258.404 M 162.38 258.404 L 162.638 285.905 M 178.315 294.791 L 193.364 304.694 M 201.522 295.62 L 188.214 283.493 M 193.364 304.694 L 206.801 316.701 M 216.452 305.707 L 201.522 295.62 M 206.801 316.701 L 216.452 305.707 M 133.254 228.435 L 119.509 227.896 M 117.357 245.793 L 136.225 246.208 M 124.828 277.094 L 119.818 295.289 M 119.818 295.289 L 137.017 300.647 M 142.643 279.761 L 124.828 277.094 M 154.805 303.509 L 142.643 279.761 M 146.35 278.203 L 154.805 303.509 M 172.349 307.616 L 189.583 312.856 M 194.55 302.598 L 178.315 294.791 M 189.583 312.856 L 205.893 320.511 M 211.725 308.053 L 194.55 302.598 M 205.893 320.511 L 211.725 308.053 M 119.509 227.896 L 107.106 223.74 M 100.113 240.349 L 117.357 245.793 M 116.304 305.225 L 116.369 323.307 M 116.369 323.307 L 134.373 323.754 M 134.183 303.028 L 116.304 305.225 M 152.27 321.678 L 134.183 303.028 M 137.017 300.647 L 152.27 321.678 M 170.255 320.802 L 188.268 321.105 M 190.122 310.546 L 172.349 307.616 M 188.268 321.105 L 206.056 323.935 M 208.133 311.02 L 190.122 310.546 M 206.056 323.935 L 208.133 311.02 M 107.106 223.74 L 96.7112 216.667 M 85.4952 230.764 L 100.113 240.349 M 95.0618 375.297 L 108.214 386.811 M 120.413 373.55 L 95.0618 375.297 M 132.529 326.58 L 115.826 333.316 M 115.826 333.316 L 137.977 345.77 M 154.685 339.022 L 132.529 326.58 M 134.373 323.754 L 154.685 339.022 M 171.775 333.324 L 189.21 328.785 M 188.148 318.703 L 170.255 320.802 M 205.588 314.201 L 188.148 318.703 M 207.107 326.682 L 205.588 314.201 M 224.9 340.536 L 207.107 326.682 M 74.1988 217.983 L 85.4952 230.764 M 96.7112 216.667 L 74.1988 217.983 M 108.796 393.442 L 123.065 402.787 M 133.274 387.952 L 108.796 393.442 M 108.214 386.811 L 133.274 387.952 M 145.345 374.579 L 120.413 373.55 M 137.977 345.77 L 161.409 354.35 M 176.37 344.317 L 192.011 335.374 M 188.41 326.406 L 171.775 333.324 M 208.723 328.644 L 188.41 326.406 M 189.21 328.785 L 206.96 338.912 M 229.564 337.172 L 208.723 328.644 M 220.656 356.787 L 224.9 340.536 M 206.96 338.912 L 220.656 356.787 M 156.428 482.533 L 168.795 471.167 M 156.895 457.643 L 156.428 482.533 M 123.065 402.787 L 147.788 399.869 M 157.67 384.808 L 145.345 374.579 M 161.409 354.35 L 171.567 366.734 M 183.388 353.132 L 196.229 340.496 M 190.523 333.168 L 176.37 344.317 M 210.635 329.664 L 190.523 333.168 M 192.011 335.374 L 211.826 340.285 M 233.059 332.532 L 210.635 329.664 M 229.906 353.856 L 229.564 337.172 M 211.826 340.285 L 229.906 353.856 M 168.795 471.167 L 182.067 461.052 M 171.447 446.489 L 156.895 457.643 M 147.788 399.869 L 163.7 408.979 M 170.931 392.473 L 157.67 384.808 M 171.567 366.734 L 184.096 375.544 M 192.041 359.37 L 201.331 343.94 M 194.047 338.608 L 183.388 353.132 M 212.552 329.849 L 194.047 338.608 M 196.229 340.496 L 216.698 340.064 M 221.194 338.422 L 235.175 327.043 M 235.175 327.043 L 212.552 329.849 M 237.864 348.531 L 233.059 332.532 M 216.698 340.064 L 237.864 348.531 M 182.067 461.052 L 196.031 451.884 M 186.451 436.637 L 171.447 446.489 M 163.7 408.979 L 180.647 414.894 M 184.758 397.356 L 170.931 392.473 M 184.096 375.544 L 197.889 380.522 M 201.533 362.878 L 206.818 345.654 M 198.498 342.556 L 192.041 359.37 M 214.23 329.234 L 198.498 342.556 M 201.331 343.94 L 221.194 338.422 M 224.987 335.538 L 235.801 321.13 M 235.801 321.13 L 221.258 312.634 M 221.258 312.634 L 214.23 329.234 M 196.031 451.884 L 210.546 443.338 M 201.619 427.693 L 186.451 436.637 M 180.647 414.894 L 198.089 417.309 M 198.639 399.298 L 184.758 397.356 M 197.889 380.522 L 211.85 381.768 M 211.139 363.773 L 212.28 345.794 M 203.447 344.963 L 201.533 362.878 M 212.28 345.794 L 215.584 328.077 M 215.584 328.077 L 203.447 344.963 M 206.818 345.654 L 224.987 335.538 M 216.621 326.573 L 215.902 308.57 M 215.902 308.57 L 199.052 311.18 M 199.052 311.18 L 203.875 328.537 M 210.546 443.338 L 225.449 435.052 M 216.753 419.274 L 201.619 427.693 M 198.089 417.309 L 215.358 416.007 M 212.025 398.301 L 198.639 399.298 M 211.85 381.768 L 225.115 379.72 M 220.298 362.358 L 217.433 344.572 M 208.532 345.947 L 211.139 363.773 M 217.433 344.572 L 216.621 326.573 M 203.875 328.537 L 208.532 345.947 M 161.91 423.248 L 159.643 410.017 M 141.657 411.171 L 144.596 428.234 M 144.596 428.234 L 161.91 423.248 M 225.449 435.052 L 240.579 426.633 M 231.653 410.983 L 216.753 419.274 M 215.358 416.007 L 231.653 410.983 M 224.351 394.513 L 212.025 398.301 M 220.353 378.306 L 233.121 376.503 M 228.665 359.034 L 220.353 378.306 M 225.115 379.72 L 228.665 359.034 M 213.546 345.656 L 220.298 362.358 M 222.162 342.237 L 217.476 324.845 M 204.999 329.795 L 213.546 345.656 M 217.476 324.845 L 204.999 329.795 M 159.643 410.017 L 160.255 396.013 M 142.402 393.568 L 141.657 411.171 M 240.579 426.633 L 255.759 417.69 M 246.17 402.435 L 235.106 388.214 M 235.106 388.214 L 224.351 394.513 M 228.232 374.92 L 240.639 373.733 M 237.032 356.08 L 228.232 374.92 M 233.121 376.503 L 237.032 356.08 M 231.253 339.02 L 222.162 342.237 M 235.746 400.541 L 228.376 394.323 M 226.024 415.704 L 235.746 400.541 M 215.285 406.696 L 226.024 415.704 M 160.255 396.013 L 163.802 381.786 M 146.698 376.132 L 142.402 393.568 M 255.759 417.69 L 270.762 407.822 M 260.134 393.277 L 246.17 402.435 M 239.513 388.413 L 256.134 386.802 M 251.899 369.292 L 239.772 370.396 M 239.772 370.396 L 239.513 388.413 M 240.639 373.733 L 252.36 370.43 M 245.597 353.741 L 241.009 336.319 M 241.009 336.319 L 231.253 339.02 M 228.376 394.323 L 222.597 386.013 M 206.818 394.724 L 215.285 406.696 M 163.802 381.786 L 170.178 367.853 M 154.249 359.44 L 146.698 376.132 M 270.762 407.822 L 285.307 396.681 M 273.405 383.159 L 260.134 393.277 M 256.134 386.802 L 271.855 381.202 M 263.263 365.355 L 251.899 369.292 M 252.36 370.43 L 263.263 365.355 M 253.818 350.02 L 246.448 333.586 M 246.448 333.586 L 236.753 338.045 M 236.753 338.045 L 245.597 353.741 M 222.597 386.013 L 219.055 375.946 M 201.581 380.324 L 206.818 394.724 M 170.178 367.853 L 179.193 354.613 M 164.743 343.861 L 154.249 359.44 M 285.307 396.681 L 299.082 383.912 M 285.759 371.779 L 273.405 383.159 M 271.855 381.202 L 285.759 371.779 M 273.334 358.74 L 261.649 345.026 M 261.649 345.026 L 251.854 329.901 M 251.854 329.901 L 242.427 336.069 M 242.427 336.069 L 253.818 350.02 M 219.055 375.946 L 218.351 364.701 M 200.332 364.356 L 201.581 380.324 M 179.193 354.613 L 190.637 342.394 M 177.868 329.692 L 164.743 343.861 M 302.53 383.375 L 312.992 367.14 M 296.958 358.921 L 302.53 383.375 M 299.082 383.912 L 296.958 358.921 M 281.512 349.646 L 266.677 339.432 M 260.1 346.514 L 273.334 358.74 M 266.677 339.432 L 253.352 327.304 M 253.352 327.304 L 245.359 336.151 M 245.359 336.151 L 260.1 346.514 M 218.351 364.701 L 220.859 353.045 M 203.583 347.933 L 200.332 364.356 M 190.637 342.394 L 204.295 331.435 M 193.359 317.125 L 177.868 329.692 M 170.883 321.395 L 190.094 316.021 M 183.408 299.297 L 170.883 321.395 M 312.992 367.14 L 304.563 343.179 M 287.18 338.429 L 270.168 332.5 M 265.461 341.476 L 281.512 349.646 M 270.168 332.5 L 254.108 324.322 M 254.108 324.322 L 248.436 335.577 M 248.436 335.577 L 265.461 341.476 M 220.859 353.045 L 226.773 341.915 M 211.522 332.325 L 203.583 347.933 M 211.053 306.348 L 211.522 332.325 M 204.295 331.435 L 211.053 306.348 M 199.995 292.113 L 193.359 317.125 M 190.094 316.021 L 199.995 292.113 M 189.892 277.193 L 183.408 299.297 M 304.563 343.179 L 289.695 325.583 M 289.695 325.583 L 271.711 324.507 M 269.494 334.999 L 287.18 338.429 M 271.711 324.507 L 254.052 320.95 M 251.497 334.047 L 269.494 334.999 M 236.678 316.185 L 251.497 334.047 M 226.773 341.915 L 224.005 318.873 M 229.146 290.59 L 236.678 316.185 M 224.005 318.873 L 227.618 292.437 M 227.618 292.437 L 214.532 280.057 M 200.631 268.597 L 187.629 256.121 M 178.642 263.12 L 189.892 277.193 M 187.629 256.121 L 176.533 241.932 M 176.533 241.932 L 165.503 250.797 M 165.503 250.797 L 178.642 263.12 M 257.309 292.519 L 277.02 305.852 M 277.02 305.852 L 275.315 291.805 M 254.052 320.95 L 245.142 298.883 M 242.566 269.292 L 257.309 292.519 M 245.142 298.883 L 241.596 271.602 M 241.596 271.602 L 225.512 263.491 M 214.532 280.057 L 229.146 290.59 M 208.898 256.526 L 192.862 248.309 M 185.848 258.293 L 200.631 268.597 M 192.862 248.309 L 178.201 237.845 M 169.731 250.251 L 185.848 258.293 M 178.201 237.845 L 169.731 250.251 M 294.326 269.442 L 287.786 255.918 M 270.923 262.255 L 294.326 269.442 M 275.315 291.805 L 260.302 272.468" />
<path fill="none" class="c" d=" M 270.923 262.255 L 267.242 241.163 M 267.242 241.163 L 249.399 243.589 M 270.923 262.255 L 287.786 255.918 M 248.514 218.174 L 249.399 243.589 M 267.242 241.163 L 248.514 218.174 M 230.659 220.623 L 249.399 243.589 M 267.242 241.163 L 266.526 218.496 M 230.659 220.623 L 231.388 243.21 M 230.659 220.623 L 213.057 224.483 M 213.057 224.483 L 231.388 243.21 M 206.682 206.989 L 213.057 224.483 M 213.446 241.494 L 231.388 243.21 M 213.057 224.483 L 213.446 241.494 M 190.555 215.019 L 213.057 224.483 M 225.512 263.491 L 231.388 243.21 M 213.446 241.494 L 225.512 263.491 M 230.659 220.623 L 206.682 206.989 M 195.21 226.999 L 213.446 241.494 M 190.555 215.019 L 195.815 229.734 M 208.898 256.526 L 225.512 263.491 M 195.21 226.999 L 195.433 241.262 M 173.362 220.401 L 195.815 229.734 M 214.532 280.057 L 225.512 263.491 M 208.898 256.526 L 214.532 280.057 M 229.146 290.59 L 225.512 263.491 M 200.631 268.597 L 214.532 280.057 M 208.898 256.526 L 200.631 268.597 M 229.146 290.59 L 241.596 271.602 M 200.631 268.597 L 199.995 292.113 M 199.995 292.113 L 214.532 280.057 M 192.862 248.309 L 200.631 268.597 M 200.631 268.597 L 189.892 277.193 M 189.892 277.193 L 199.995 292.113 M 199.995 292.113 L 211.053 306.348 M 192.862 248.309 L 185.848 258.293 M 187.629 256.121 L 189.892 277.193 M 183.408 299.297 L 199.995 292.113 M 211.053 306.348 L 214.532 280.057 M 187.629 256.121 L 178.642 263.12 M 183.408 299.297 L 190.094 316.021 M 211.053 306.348 L 227.618 292.437 M 229.146 290.59 L 245.142 298.883 M 176.533 241.932 L 178.642 263.12 M 177.195 226.725 L 195.433 241.262 M 173.362 220.401 L 179.637 237.664 M 236.678 316.185 L 245.142 298.883 M 230.659 220.623 L 222.164 197.783 M 222.164 197.783 L 206.682 206.989 M 236.678 316.185 L 254.052 320.95 M 247.886 215.329 L 222.164 197.783 M 193.686 191.094 L 206.682 206.989 M 222.164 197.783 L 193.686 191.094 M 251.497 334.047 L 254.052 320.95 M 247.886 215.329 L 238.368 189.925 M 181.084 203.965 L 206.682 206.989 M 222.164 197.783 L 205.357 177.374 M 205.357 177.374 L 193.686 191.094 M 269.494 334.999 L 254.052 320.95 M 205.357 177.374 L 174.207 179.267 M 269.494 334.999 L 271.711 324.507 M 205.357 177.374 L 180.73 162.476 M 180.73 162.476 L 174.207 179.267 M 287.18 338.429 L 271.711 324.507 M 215.608 162.553 L 180.73 162.476 M 180.73 162.476 L 149.393 174.123 M 149.393 174.123 L 174.207 179.267 M 287.18 338.429 L 289.695 325.583 M 215.608 162.553 L 188.928 146.435 M 180.73 162.476 L 150.014 156.111 M 150.014 156.111 L 149.393 174.123 M 223.232 146.232 L 188.928 146.435 M 147.778 192.065 L 174.207 179.267 M 121.554 177.865 L 149.393 174.123 M 287.18 338.429 L 304.563 343.179 M 147.778 192.065 L 168.723 196.429 M 121.554 177.865 L 126.076 195.301 M 126.076 195.301 L 149.393 174.123 M 296.958 358.921 L 304.563 343.179 M 287.18 338.429 L 296.958 358.921 M 143.222 209.491 L 168.723 196.429 M 101.764 205.024 L 126.076 195.301 M 121.554 177.865 L 101.764 205.024 M 126.076 195.301 L 149.688 192.135 M 296.958 358.921 L 312.992 367.14 M 281.512 349.646 L 296.958 358.921 M 287.18 338.429 L 281.512 349.646 M 143.222 209.491 L 166.22 214.262 M 93.0007 189.29 L 101.764 205.024 M 270.168 332.5 L 281.512 349.646 M 136.771 226.308 L 166.22 214.262 M 264.033 207.341 L 238.368 189.925 M 181.084 203.965 L 191.946 217.352 M 236.741 187.207 L 205.357 177.374 M 174.207 179.267 L 193.686 191.094 M 177.195 226.725 L 177.599 243.816 M 211.053 306.348 L 224.005 318.873 M 166.562 214.636 L 191.946 217.352 M 236.741 187.207 L 218.27 164.804 M 166.62 195.608 L 193.686 191.094 M 270.168 332.5 L 265.461 341.476 M 211.522 332.325 L 224.005 318.873 M 166.562 214.636 L 179.118 230.002 M 249.397 174.39 L 218.27 164.804 M 166.62 195.608 L 182.988 205.587 M 254.108 324.322 L 265.461 341.476 M 211.522 332.325 L 226.773 341.915 M 151.108 223.89 L 179.118 230.002 M 264.033 207.341 L 255.62 184.746 M 156.463 210.478 L 182.988 205.587 M 211.522 332.325 L 220.859 353.045 M 242.566 269.292 L 231.388 243.21 M 213.446 241.494 L 208.898 256.526 M 156.463 210.478 L 174.878 221.68 M 203.583 347.933 L 220.859 353.045 M 242.566 269.292 L 249.144 246.253 M 195.697 238.417 L 208.898 256.526 M 144.827 224.244 L 174.878 221.68 M 203.583 347.933 L 218.351 364.701 M 242.566 269.292 L 260.302 272.468 M 195.697 238.417 L 191.761 250.961 M 281.512 349.646 L 285.759 371.779 M 200.332 364.356 L 218.351 364.701 M 257.309 292.519 L 260.302 272.468 M 273.334 358.74 L 285.759 371.779 M 200.332 364.356 L 219.055 375.946 M 257.309 292.519 L 275.315 291.805 M 273.334 358.74 L 271.855 381.202 M 201.581 380.324 L 219.055 375.946 M 178.612 232.7 L 191.761 250.961 M 273.334 358.74 L 263.263 365.355 M 263.263 365.355 L 271.855 381.202 M 201.581 380.324 L 222.597 386.013 M 178.612 232.7 L 173.99 248.018 M 261.649 345.026 L 263.263 365.355 M 263.263 365.355 L 256.134 386.802 M 206.818 394.724 L 222.597 386.013 M 253.818 350.02 L 263.263 365.355 M 261.649 345.026 L 253.818 350.02 M 251.899 369.292 L 256.134 386.802 M 206.818 394.724 L 228.376 394.323 M 253.818 350.02 L 252.36 370.43 M 251.854 329.901 L 253.818 350.02 M 251.899 369.292 L 239.513 388.413 M 215.285 406.696 L 228.376 394.323 M 245.597 353.741 L 252.36 370.43 M 253.818 350.02 L 245.597 353.741 M 215.285 406.696 L 235.746 400.541 M 245.597 353.741 L 240.639 373.733 M 246.448 333.586 L 245.597 353.741 M 245.597 353.741 L 237.032 356.08 M 237.032 356.08 L 240.639 373.733 M 241.009 336.319 L 237.032 356.08 M 281.512 349.646 L 273.334 358.74 M 231.253 339.02 L 237.032 356.08 M 266.677 339.432 L 273.334 358.74 M 231.253 339.02 L 228.665 359.034 M 228.665 359.034 L 237.032 356.08 M 266.677 339.432 L 260.1 346.514 M 222.162 342.237 L 228.665 359.034 M 228.665 359.034 L 233.121 376.503 M 253.352 327.304 L 260.1 346.514 M 220.298 362.358 L 228.665 359.034 M 222.162 342.237 L 220.298 362.358 M 220.298 362.358 L 225.115 379.72 M 222.162 342.237 L 213.546 345.656 M 220.298 362.358 L 211.85 381.768 M 217.476 324.845 L 213.546 345.656 M 211.139 363.773 L 211.85 381.768 M 220.298 362.358 L 211.139 363.773 M 211.139 363.773 L 197.889 380.522 M 217.433 344.572 L 211.139 363.773 M 201.533 362.878 L 197.889 380.522 M 211.139 363.773 L 201.533 362.878 M 217.433 344.572 L 208.532 345.947 M 201.533 362.878 L 184.096 375.544 M 212.28 345.794 L 201.533 362.878 M 216.621 326.573 L 208.532 345.947 M 192.041 359.37 L 184.096 375.544 M 201.533 362.878 L 192.041 359.37 M 212.28 345.794 L 203.447 344.963 M 192.041 359.37 L 171.567 366.734 M 206.818 345.654 L 192.041 359.37 M 216.621 326.573 L 203.875 328.537 M 183.388 353.132 L 171.567 366.734 M 192.041 359.37 L 183.388 353.132 M 206.818 345.654 L 198.498 342.556 M 215.902 308.57 L 203.875 328.537 M 183.388 353.132 L 161.409 354.35 M 201.331 343.94 L 183.388 353.132 M 206.818 345.654 L 214.23 329.234 M 176.37 344.317 L 161.409 354.35 M 183.388 353.132 L 176.37 344.317 M 201.331 343.94 L 194.047 338.608 M 224.987 335.538 L 214.23 329.234 M 154.685 339.022 L 161.409 354.35 M 176.37 344.317 L 154.685 339.022 M 196.229 340.496 L 176.37 344.317 M 201.331 343.94 L 212.552 329.849 M 235.801 321.13 L 214.23 329.234 M 154.685 339.022 L 137.977 345.77 M 176.37 344.317 L 171.775 333.324 M 196.229 340.496 L 190.523 333.168 M 221.194 338.422 L 212.552 329.849 M 171.775 333.324 L 154.685 339.022 M 132.529 326.58 L 137.977 345.77 M 192.011 335.374 L 171.775 333.324 M 171.775 333.324 L 152.27 321.678 M 93.0007 189.29 L 79.2115 221.908 M 127.684 213.246 L 149.688 192.135 M 285.759 371.779 L 296.958 358.921 M 178.201 237.845 L 185.848 258.293 M 121.554 177.865 L 93.0007 189.29 M 192.011 335.374 L 188.41 326.406 M 171.775 333.324 L 170.255 320.802 M 66.5618 209.085 L 79.2115 221.908 M 127.684 213.246 L 152.986 209.843 M 285.759 371.779 L 299.082 383.912 M 170.255 320.802 L 152.27 321.678 M 192.011 335.374 L 208.723 328.644 M 189.21 328.785 L 170.255 320.802 M 61.3953 245.313 L 79.2115 221.908 M 285.759 371.779 L 285.307 396.681 M 154.805 303.509 L 152.27 321.678 M 170.255 320.802 L 154.805 303.509 M 211.826 340.285 L 208.723 328.644 M 189.21 328.785 L 188.148 318.703 M 75.6754 256.297 L 79.2115 221.908 M 61.3953 245.313 L 75.6754 256.297 M 273.405 383.159 L 285.307 396.681 M 172.349 307.616 L 154.805 303.509 M 170.255 320.802 L 172.349 307.616 M 61.3953 245.313 L 57.8646 279.697 M 273.405 383.159 L 270.762 407.822 M 162.638 285.905 L 154.805 303.509 M 172.349 307.616 L 162.638 285.905 M 188.268 321.105 L 172.349 307.616 M 43.424 268.92 L 57.8646 279.697 M 61.3953 245.313 L 43.424 268.92 M 260.134 393.277 L 270.762 407.822 M 162.638 285.905 L 146.35 278.203 M 178.315 294.791 L 162.638 285.905 M 43.424 268.92 L 41.458 302.599 M 61.3953 245.313 L 48.8318 232.399 M 260.134 393.277 L 255.759 417.69 M 158.096 258.78 L 146.35 278.203 M 175.772 270.459 L 162.638 285.905 M 178.315 294.791 L 175.772 270.459 M 43.424 268.92 L 26.5644 292.458 M 26.5644 292.458 L 41.458 302.599 M 246.17 402.435 L 255.759 417.69 M 141.731 251.252 L 146.35 278.203 M 26.5644 292.458 L 27.4409 324.712 M 246.17 402.435 L 240.579 426.633 M 188.214 283.493 L 175.772 270.459 M 11.8723 315.662 L 27.4409 324.712 M 231.653 410.983 L 240.579 426.633 M 246.17 402.435 L 231.653 410.983 M 193.739 258.815 L 175.772 270.459 M 188.214 283.493 L 193.739 258.815 M 11.8723 315.662 L 16.3592 345.805 M 231.653 410.983 L 225.449 435.052 M 235.106 388.214 L 231.653 410.983 M 193.739 258.815 L 184.515 243.351 M 184.515 243.351 L 175.772 270.459 M 188.214 283.493 L 201.743 274.967 M 0 338.263 L 16.3592 345.805 M 216.753 419.274 L 225.449 435.052 M 224.351 394.513 L 231.653 410.983 M 193.739 258.815 L 207.551 232.587 M 207.551 232.587 L 184.515 243.351 M 184.515 243.351 L 164.45 256.442 M 199.703 297.355 L 201.743 274.967 M 193.739 258.815 L 214.317 249.283 M 207.551 232.587 L 198.313 217.108 M 198.313 217.108 L 184.515 243.351 M 173.098 229.409 L 164.45 256.442 M 199.703 297.355 L 210.908 290.473 M 204.198 273.497 L 214.317 249.283 M 218.467 203.41 L 198.313 217.108 M 198.313 217.108 L 177.817 226.622 M 173.098 229.409 L 155.375 240.881 M 208.968 312.81 L 210.908 290.473 M 219.791 266.454 L 214.317 249.283 M 204.198 273.497 L 219.791 266.454 M 187.884 202.422 L 177.817 226.622 M 160.691 216.352 L 155.375 240.881 M 218.467 203.41 L 205.844 190.559 M 238.249 246.275 L 214.317 249.283 M 219.791 266.454 L 238.249 246.275 M 213.526 288.906 L 219.791 266.454 M 147.406 224.732 L 155.375 240.881 M 205.844 190.559 L 198.313 217.108 M 237.139 228.298 L 214.317 249.283 M 238.024 264.287 L 238.249 246.275 M 219.791 266.454 L 238.024 264.287 M 238.024 264.287 L 263.513 251.22 M 223.821 284.011 L 238.024 264.287 M 238.024 264.287 L 257.481 268.195 M 257.481 268.195 L 263.513 251.22 M 223.821 284.011 L 239.349 282.255 M 236.164 282.207 L 257.481 268.195 M 287.438 264.89 L 263.513 251.22 M 257.481 268.195 L 287.438 264.89 M 224.974 302 L 239.349 282.255 M 236.164 282.207 L 253.046 285.655 M 287.438 264.89 L 297.793 250.147 M 276.174 278.94 L 287.438 264.89 M 257.481 268.195 L 276.174 278.94 M 231.337 299.559 L 253.046 285.655 M 306.916 287.062 L 287.438 264.89 M 276.174 278.94 L 306.916 287.062 M 249.768 284.475 L 276.174 278.94 M 306.916 287.062 L 321.637 276.684 M 291.637 296.618 L 306.916 287.062 M 266.378 294.064 L 276.174 278.94 M 249.768 284.475 L 266.378 294.064 M 318.844 316.227 L 306.916 287.062 M 291.637 296.618 L 318.844 316.227 M 239.42 299.22 L 266.378 294.064 M 318.844 316.227 L 336.193 311.411 M 301.279 320.256 L 318.844 316.227 M 259.171 310.57 L 266.378 294.064 M 239.42 299.22 L 259.171 310.57 M 318.844 316.227 L 341.617 348.887 M 301.279 320.256 L 320.836 349.466 M 259.171 310.57 L 286.781 300.515 M 239.42 299.22 L 228.055 313.198 M 323.605 349.184 L 341.617 348.887 M 302.915 347.672 L 320.836 349.466 M 283.339 318.205 L 286.781 300.515 M 210.783 293.182 L 228.055 313.198 M 323.605 349.184 L 336.953 388.059 M 283.339 318.205 L 310.542 302.283 M 210.783 293.182 L 196.437 304.081 M 319.516 383.537 L 336.953 388.059 M 311.341 320.281 L 310.542 302.283 M 319.516 383.537 L 321.422 425.156 M 311.341 320.281 L 336.333 297.775 M 305.968 415.893 L 321.422 425.156 M 341.637 314.991 L 336.333 297.775 M 305.968 415.893 L 296.019 455.985 M 341.637 314.991 L 361.882 285.905 M 284.006 442.556 L 296.019 455.985 M 371.59 301.075 L 361.882 285.905 M 284.006 442.556 L 263.554 476.997 M 371.59 301.075 L 384.13 266.675 M 256.283 460.508 L 263.554 476.997 M 397.729 278.494 L 384.13 266.675 M 228.136 486.212 L 263.554 476.997 M 397.729 278.494 L 400.034 241.62 M 228.136 486.212 L 232.005 503.799 M 416.526 248.877 L 400.034 241.62 M 196.759 509.871 L 232.005 503.799 M 416.526 248.877 L 407.427 213.636 M 201.903 527.141 L 232.005 503.799 M 213.526 288.906 L 226.577 283.14 M 147.406 224.732 L 136.225 246.208 M 220.318 305.592 L 226.577 283.14 M 133.254 228.435 L 136.225 246.208 M 133.254 228.435 L 117.357 245.793 M 263.513 251.22 L 238.249 246.275 M 119.509 227.896 L 117.357 245.793 M 263.513 251.22 L 268.346 233.866 M 268.346 233.866 L 238.249 246.275 M 119.509 227.896 L 100.113 240.349 M 297.311 245.389 L 268.346 233.866 M 268.346 233.866 L 239.834 228.334 M 107.106 223.74 L 100.113 240.349 M 297.311 245.389 L 302.776 228.219 M 268.346 233.866 L 270.323 215.955 M 107.106 223.74 L 85.4952 230.764 M 297.311 245.389 L 333.166 236.017 M 299.068 217.328 L 270.323 215.955 M 96.7112 216.667 L 85.4952 230.764 M 329.723 253.699 L 333.166 236.017 M 299.068 217.328 L 296.831 199.448 M 329.723 253.699 L 366.874 240.872 M 299.068 217.328 L 321.102 192.152 M 365.119 258.805 L 366.874 240.872 M 329.113 208.294 L 321.102 192.152 M 365.119 258.805 L 403.411 243.054 M 329.113 208.294 L 343.789 175.607 M 402.919 261.055 L 403.411 243.054 M 356.639 188.241 L 343.789 175.607 M 402.919 261.055 L 442.068 243.151 M 356.639 188.241 L 361.413 150.404 M 442.367 261.166 L 442.068 243.151 M 377.633 158.258 L 361.413 150.404 M 442.367 261.166 L 482.008 242.096 M 377.633 158.258 L 370.882 118.762 M 482.57 260.103 L 482.008 242.096 M 388.728 121.227 L 370.882 118.762 M 482.57 260.103 L 522.204 241.036 M 388.728 121.227 L 370.317 84.2242 M 522.502 259.048 L 522.204 241.036 M 388.091 81.2778 L 370.317 84.2242 M 522.502 259.048 L 561.661 241.139 M 388.091 81.2778 L 359.654 50.8061 M 561.174 259.151 L 561.661 241.139 M 375.878 42.9678 L 359.654 50.8061 M 599.456 243.398 L 561.661 241.139 M 375.878 42.9678 L 340.492 22.0072 M 354.03 10.1123 L 340.492 22.0072 M 216.753 419.274 L 210.546 443.338 M 224.351 394.513 L 215.358 416.007 M 201.619 427.693 L 210.546 443.338 M 212.025 398.301 L 215.358 416.007 M 201.619 427.693 L 196.031 451.884 M 212.025 398.301 L 198.089 417.309 M 186.451 436.637 L 196.031 451.884 M 198.639 399.298 L 198.089 417.309 M 186.451 436.637 L 182.067 461.052 M 198.639 399.298 L 180.647 414.894 M 171.447 446.489 L 182.067 461.052 M 184.758 397.356 L 180.647 414.894 M 171.447 446.489 L 168.795 471.167 M 184.758 397.356 L 163.7 408.979 M 156.895 457.643 L 168.795 471.167 M 170.931 392.473 L 163.7 408.979 M 178.315 294.791 L 188.214 283.493 M 170.931 392.473 L 147.788 399.869 M 193.364 304.694 L 188.214 283.493 M 157.67 384.808 L 147.788 399.869 M 193.364 304.694 L 201.522 295.62 M 133.274 387.952 L 147.788 399.869 M 157.67 384.808 L 133.274 387.952 M 206.801 316.701 L 201.522 295.62 M 133.274 387.952 L 123.065 402.787 M 145.345 374.579 L 133.274 387.952 M 43.424 268.92 L 30.5637 256.302 M 120.413 373.55 L 133.274 387.952 M 172.349 307.616 L 178.315 294.791 M 120.413 373.55 L 108.214 386.811 M 189.583 312.856 L 178.315 294.791 M 188.268 321.105 L 190.122 310.546 M 189.583 312.856 L 194.55 302.598 M 206.056 323.935 L 190.122 310.546 M 205.893 320.511 L 194.55 302.598 M 211.826 340.285 L 229.564 337.172 M 189.21 328.785 L 207.107 326.682 M 207.107 326.682 L 188.148 318.703 M 206.96 338.912 L 207.107 326.682 M 93.6539 232.687 L 79.2115 221.908 M 206.96 338.912 L 224.9 340.536 M 93.6539 232.687 L 95.6183 199.006 M 154.805 303.509 L 137.017 300.647 M 127.151 231.254 L 152.986 209.843 M 142.643 279.761 L 137.017 300.647 M 193.359 317.125 L 211.053 306.348 M 124.828 277.094 L 137.017 300.647 M 193.359 317.125 L 204.295 331.435 M 107.89 221.962 L 126.076 195.301 M 193.359 317.125 L 190.637 342.394 M 107.89 221.962 L 133.387 211.768 M 177.868 329.692 L 190.637 342.394 M 111.816 239.544 L 133.387 211.768 M 177.868 329.692 L 179.193 354.613 M 121.554 177.865 L 117.709 160.264 M 164.743 343.861 L 179.193 354.613 M 151.729 158.56 L 117.709 160.264 M 164.743 343.861 L 170.178 367.853 M 151.729 158.56 L 151.702 140.548 M 154.249 359.44 L 170.178 367.853 M 185.109 142.474 L 151.702 140.548 M 154.249 359.44 L 163.802 381.786 M 184.127 124.484 L 151.702 140.548 M 146.698 376.132 L 163.802 381.786 M 196.229 340.496 L 210.635 329.664 M 146.698 376.132 L 160.255 396.013 M 216.698 340.064 L 210.635 329.664 M 142.402 393.568 L 160.255 396.013 M 216.698 340.064 L 233.059 332.532 M 142.402 393.568 L 159.643 410.017 M 152.27 321.678 L 154.685 339.022 M 141.657 411.171 L 159.643 410.017 M 152.27 321.678 L 134.373 323.754 M 141.657 411.171 L 161.91 423.248 M 134.183 303.028 L 134.373 323.754 M 116.304 305.225 L 134.373 323.754" />
</svg>
