<?xml version="1.0"?>
<svg width="7523" height="7059" version="1.1" xmlns="http://www.w3.org/2000/svg" >
<defs>
<style type="text/css"><![CDATA[
.m {stroke:rgb(255,0,0);stroke-width:9.403750;}
.v {stroke:rgb(0,0,255);stroke-width:9.403750;}
.b {stroke:rgb(0,0,0);stroke-width:18.807500;fill:white}
.n {stroke:rgb(128,128,128);stroke-width:9.403750}
.t {stroke:rgb(0,128,0);stroke-width:9.403750;}
.c {stroke:rgb(128,128,128);stroke-width:9.403750;stroke-dasharray:75.230000, 75.230000;}
]]></style>
</defs>
<path fill="none" style="stroke:black;stroke-width:18.807500;" d=" M 4864.94 3185.37 L 4296.37 3376.54 M 5655.71 1316.45 L 5703.69 912.068 M 5224.9 1747.76 L 5234.52 1271.84 M 6904.11 3121.65 L 7253.52 2600.94 M 7253.52 2600.94 L 6609.47 2642.92 M 6253.37 1019.5 L 5934.84 598.267 M 6717.52 2103.59 L 6192.11 1810.69 M 6609.47 2642.92 L 7237.76 2495.23 M 7069.25 1864.18 L 6663.23 1462.98 M 6334.07 1640.11 L 6717.52 2103.59 M 6663.23 1462.98 L 6334.07 1640.11 M 1748.91 4333.41 L 2228.33 4561.13 M 2234.85 3593.16 L 1673.63 3804.96 M 6250.13 1591.1 L 6524.3 1337.05 M 6524.3 1337.05 L 6253.37 1019.5 M 3256.87 3770.26 L 3676.6 3926.66 M 1627.05 5194.86 L 1560.44 4713.28 M 2013.2 4998.93 L 1929.14 4531.21 M 4009.85 3483.36 L 3605.1 3635.12 M 1498.48 4708.48 L 1640.44 5173.47 M 1106.34 4765.61 L 1017.59 5200.96 M 2443.46 2363.02 L 2530.48 2045.2 M 2361.68 1947.88 L 2183.88 2344.16 M 1855.59 3555.18 L 1451.87 3715.37 M 1651.83 3960.46 L 1810.41 3810.59 M 1929.14 4531.21 L 2058.94 4102.5 M 1810.41 3810.59 L 1683.28 3987.92 M 1683.28 3987.92 L 1351.18 4155.49 M 1565.81 4241.16 L 1498.48 4708.48 M 1560.44 4713.28 L 1565.81 4241.16 M 1319.09 4333.85 L 1106.34 4765.61 M 4433.19 3869.11 L 4863.99 4083.8 M 4749.86 3791.91 L 4412.07 3496.85 M 3629.13 1810.81 L 3188.3 1728.12 M 3289.57 1934.12 L 3629.13 1810.81 M 3212.12 1685.64 L 3323.3 1476.63 M 3323.3 1476.63 L 2971.91 1560.46 M 5047.65 3677.05 L 4749.86 3791.91 M 3276.42 2026.01 L 3321.1 2268.03 M 3777.57 2295.75 L 3597.64 2103.77 M 3325.15 1808.16 L 3276.42 2026.01 M 3771.73 1741.91 L 3507.17 1735.74 M 4188.43 3043.17 L 3879.03 2847.48 M 4226.49 3253.72 L 4335.9 3509.43 M 4108.73 1884.94 L 3771.73 1741.91 M 3800.83 2270.95 L 3866.26 2070.36 M 3597.64 2103.77 L 3800.83 2270.95 M 4069.79 3613.47 L 4433.19 3869.11 M 4037.15 3258.78 L 4069.79 3613.47 M 2814.27 1800.28 L 2862.45 2128.8 M 3116.71 2118.16 L 3091.32 1873.36 M 3091.32 1873.36 L 3212.12 1685.64 M 2567.08 1492.33 L 2579.66 1737.51 M 2389.14 1582.67 L 2179.79 1631.81 M 2179.79 1631.81 L 2107.72 1702.18 M 2107.72 1702.18 L 2361.68 1947.88 M 2530.48 2045.2 L 2678.19 2136.9 M 2702.16 1325.01 L 2567.08 1492.33 M 2742.44 1809.17 L 2827.91 1461.49 M 2827.91 1461.49 L 2702.16 1325.01 M 5127.34 4178.13 L 5158.49 3995.19 M 5028.18 4160.5 L 5127.34 4178.13 M 2854.52 2087.38 L 3012.43 2044.31 M 3012.43 2044.31 L 2742.44 1809.17 M 1351.18 4155.49 L 1319.09 4333.85 M 4863.99 4083.8 L 5028.18 4160.5 M 5158.49 3995.19 L 5197.79 3836.3 M 5197.79 3836.3 L 5047.65 3677.05 M 2579.66 1737.51 L 2389.14 1582.67 M 2678.19 2136.9 L 2899.44 2301.58 M 2899.44 2301.58 L 2854.52 2087.38 M 1285.9 4027.33 L 1651.83 3960.46 M 1451.87 3715.37 L 1285.9 4027.33 M 2735.39 2102.25 L 2567.35 2057.68 M 2567.35 2057.68 L 2443.46 2363.02 M 4489.44 2694.08 L 4140.79 2766.96 M 4034 3097.09 L 4226.49 3253.72 M 4590.83 3018.79 L 4489.44 2694.08 M 3328.54 1571.45 L 3325.15 1808.16 M 3507.17 1735.74 L 3328.54 1571.45 M 4412.07 3496.85 L 4322.74 3271.19 M 4322.74 3271.19 L 4188.43 3043.17 M 3180.69 2542.06 L 3218.68 2212.22 M 2811.62 2471.1 L 3180.69 2542.06 M 2974.88 1965.44 L 2735.39 2102.25 M 3218.68 2212.22 L 3289.57 1934.12 M 3188.3 1728.12 L 2974.88 1965.44 M 2971.91 1560.46 L 2814.27 1800.28 M 1640.44 5173.47 L 1394.02 5489.36 M 4833.03 2916.44 L 4590.83 3018.79 M 4162.26 3549.21 L 4719.4 3663.85 M 4521.88 3652.79 L 4769.02 3329.62 M 4137.64 3811.45 L 4216.16 3529.75 M 4216.16 3529.75 L 4009.85 3483.36 M 1871.59 5321.06 L 2301.22 4948.28 M 2301.22 4948.28 L 2013.2 4998.93 M 1464.88 5561.22 L 1627.05 5194.86 M 1215.61 5477.56 L 1464.88 5561.22 M 4608.19 4279.57 L 4256.47 4075.09 M 1017.59 5200.96 L 1215.61 5477.56 M 3676.6 3926.66 L 4137.64 3811.45 M 5321.4 440.975 L 5050.08 1095.74 M 5050.08 1095.74 L 4943.07 1767.56 M 5881.81 2854.15 L 5759.08 3018.55 M 5561.37 3625.95 L 5237.36 3155.03 M 5296.94 3509.34 L 5561.37 3625.95 M 6361.16 3300.42 L 6904.11 3121.65 M 1103.79 4039.91 L 1748.91 4333.41 M 1673.63 3804.96 L 1250.65 3741.66 M 1250.65 3741.66 L 680.762 3611.44 M 680.762 3611.44 L 504.935 3717.14 M 504.935 3717.14 L 1103.79 4039.91 M 5490.68 3723.78 L 5296.94 3509.34 M 5854.07 3057.11 L 5291.53 3216.11 M 5585.56 3245.6 L 5854.07 3057.11 M 5237.36 3155.03 L 4807.35 3678.25 M 5291.53 3216.11 L 4864.94 3185.37 M 5636.16 3322.71 L 5322.16 3473.6 M 5232.33 3718.43 L 5676.73 3728.41 M 1844.5 5836.17 L 1871.59 5321.06 M 5322.16 3473.6 L 5585.56 3245.6 M 470.02 6018.67 L 170.519 6065.75 M 906.331 5846.43 L 220.945 5845.81 M 220.945 5845.81 L 470.02 6018.67 M 5677.98 3861.12 L 5317.04 3278.48 M 5350.53 3982.12 L 5677.98 3861.12 M 5339.24 3707.49 L 5350.53 3982.12 M 295.977 6283.42 L 388.067 6577.84 M 170.519 6065.75 L 0 6370.36 M 0 6370.36 L 295.977 6283.42 M 1394.02 5489.36 L 906.331 5846.43 M 1471.28 5776.14 L 953.728 6345.79 M 1620.98 6220.4 L 1844.5 5836.17 M 5952.51 3626.87 L 6156.97 3389.33 M 5280.47 4616.49 L 4725.12 4414.85 M 4938.68 3273.18 L 5339.24 3707.49 M 825.757 6195.26 L 1471.28 5776.14 M 953.728 6345.79 L 874.65 6645.97 M 874.65 6645.97 L 1620.98 6220.4 M 5676.73 3728.41 L 6523.3 3874.85 M 6523.3 3874.85 L 6168.67 3399.92 M 6168.67 3399.92 L 5952.51 3626.87 M 388.067 6577.84 L 989.238 6934.69 M 989.238 6934.69 L 648.22 6449.9 M 4677.58 4837.17 L 5375.7 4874.33 M 5375.7 4874.33 L 5280.47 4616.49 M 648.22 6449.9 L 825.757 6195.26 M 5317.04 3278.48 L 4833.03 2916.44 M 4719.4 3663.85 L 5232.33 3718.43 M 4769.02 3329.62 L 4938.68 3273.18 M 4725.12 4414.85 L 4608.19 4279.57 M 4223.94 4265.84 L 4463.7 4899.24 M 4463.7 4899.24 L 4677.58 4837.17 M 5759.08 3018.55 L 5636.16 3322.71 M 6156.97 3389.33 L 6361.16 3300.42 M 5949.26 1238.04 L 5936.22 1677.03 M 5936.22 1677.03 L 6250.13 1591.1 M 5703.69 912.068 L 5710.66 1319.23 M 5883.05 1708.68 L 5655.71 1316.45 M 4090.96 3217.25 L 4418.78 2627.87 M 4648.83 2766.93 L 5314 2878.16 M 5314 2878.16 L 5062.29 2493.95 M 5420.43 1514.38 L 5535.94 1960.55 M 5535.94 1960.55 L 5628.43 2539.7 M 5307.64 1961.25 L 5420.43 1514.38 M 5062.29 2493.95 L 5307.64 1961.25 M 5059.61 1714.56 L 4771.89 2218.17 M 4976.99 2272.11 L 5224.9 1747.76 M 4943.07 1767.56 L 4976.99 2272.11 M 5628.43 2539.7 L 5916.3 2897.62 M 4644.26 2514.67 L 4648.83 2766.93 M 4472.83 2132.4 L 4227.41 2388.16 M 4418.78 2627.87 L 4644.26 2514.67 M 4513.76 1802.91 L 4494.73 1419.14 M 4494.73 1419.14 L 4160.52 1964.76 M 6046.23 2505.18 L 6263.03 2642.59 M 6329.75 2373.2 L 5741.84 2291.99 M 5741.84 2291.99 L 6046.23 2505.18 M 4804.14 1551.28 L 4513.76 1802.91 M 4843.15 1920.85 L 4804.14 1551.28 M 6098.68 2801.64 L 6000.33 2419.45 M 5916.3 2897.62 L 6098.68 2801.64 M 3836.5 2894.71 L 3888.96 3176.38 M 3888.96 3176.38 L 4090.96 3217.25 M 4771.89 2218.17 L 4843.15 1920.85 M 5907.74 2803.08 L 6158.61 2941.48 M 6158.61 2941.48 L 6329.75 2373.2 M 6000.33 2419.45 L 5907.74 2803.08 M 4160.52 1964.76 L 4472.83 2132.4 M 5234.52 1271.84 L 5059.61 1714.56 M 6395.29 2422.61 L 6090.91 2393.72 M 6263.03 2642.59 L 6395.29 2422.61 M 6090.91 2393.72 L 5881.81 2854.15 M 5710.66 1319.23 L 5991.4 1675.2 M 5991.4 1675.2 L 5949.26 1238.04 M 6192.11 1810.69 L 5883.05 1708.68 M 4227.41 2388.16 L 3836.5 2894.71 M 2582.07 3665.59 L 2234.85 3593.16 M 2228.33 4561.13 L 2626.2 4071.62 M 2626.2 4071.62 L 2904.66 3770.91 M 5616.77 0 L 5321.4 440.975 M 5934.84 598.267 L 5616.77 0 M 3788.02 5636.08 L 3795.19 6313.6 M 3795.19 6313.6 L 4268.23 5978.33 M 4629.58 5958.2 L 4645.38 5497.42 M 5585.81 4879.07 L 5206.52 5304.13 M 5985.78 4108.62 L 5490.68 3723.78 M 4268.23 5978.33 L 3866.21 6396.13 M 3866.21 6396.13 L 4189.88 6813.42 M 7508.8 2171.19 L 7436.46 1666.3 M 7237.76 2495.23 L 7508.8 2171.19 M 6776.52 1374.15 L 7069.25 1864.18 M 7232.49 1481.5 L 6776.52 1374.15 M 7436.46 1666.3 L 7232.49 1481.5 M 4189.88 6813.42 L 4526.56 7060.18 M 4526.56 7060.18 L 4458.98 6489.69 M 5484.78 6464.43 L 5851.13 6906.93 M 5851.13 6906.93 L 5938.72 6446.76 M 3605.1 3635.12 L 3435.83 3375.17 M 3067.9 3073.44 L 2803.04 3480.65 M 3871.33 3154.41 L 3357.56 3150.85 M 3435.83 3375.17 L 3628.47 3618.3 M 3628.47 3618.3 L 4005.65 3407.14 M 2803.04 3480.65 L 2685.66 3777.99 M 2967.94 4207.28 L 3137.58 3931.32 M 2685.66 3777.99 L 2967.94 4207.28 M 3137.58 3931.32 L 3252.04 3443.32 M 3383.3 3665.92 L 3534.48 3238.74 M 2183.88 2344.16 L 2245.62 2623.71 M 2245.62 2623.71 L 2380.31 2657.84 M 2145.07 3729.7 L 2261.76 3506.87 M 2061.04 3355.81 L 1855.59 3555.18 M 3357.56 3150.85 L 2770.65 3250.1 M 2058.94 4102.5 L 2145.07 3729.7 M 2901.67 3628.03 L 3256.87 3770.26 M 2787.92 3773.74 L 3000.55 3535.03 M 2750.74 3254.33 L 2787.92 3773.74 M 3294.47 3148.27 L 2983.31 3042.54 M 3000.55 3535.03 L 3294.47 3148.27 M 3274.56 3135.32 L 3375.96 2676.58 M 3085.82 2794.3 L 2978.94 2991.77 M 2978.94 2991.77 L 3274.56 3135.32 M 2983.31 3042.54 L 2798.64 2795.21 M 3257.92 2539.95 L 3596.91 2441.93 M 3567.99 2371.49 L 3257.92 2539.95 M 3375.96 2676.58 L 3567.99 2371.49 M 3596.91 2441.93 L 3328.37 2682.44 M 3879.03 2847.48 L 3706.87 2707.26 M 4130.71 3613.7 L 4093.06 3338.12 M 4123.57 2106.48 L 4108.73 1884.94 M 3866.26 2070.36 L 4123.57 2106.48 M 3706.87 2707.26 L 3853.36 2492.66 M 3853.36 2492.66 L 3777.57 2295.75 M 3523.54 3007.14 L 4037.15 3258.78 M 3604.19 2964.9 L 3463.37 2794.13 M 3321.1 2268.03 L 2978.72 2520.65 M 2978.72 2520.65 L 3116.71 2118.16 M 2770.65 3250.1 L 2676.45 3214.48 M 2464.94 3253.3 L 2722.18 3451.8 M 1946.77 3129.52 L 2247.32 3119.74 M 1961.71 2991.37 L 1946.77 3129.52 M 2380.31 2657.84 L 2271.75 2951.04 M 2271.75 2951.04 L 1961.71 2991.37 M 2771.57 3181.39 L 2625.59 3044.53 M 2676.45 3214.48 L 2771.57 3181.39 M 2625.59 3044.53 L 2563.35 2884.39 M 2530.98 3053.12 L 2569.57 3249.46 M 2876.01 3759.77 L 2750.74 3254.33 M 2569.57 3249.46 L 2876.01 3759.77 M 2563.35 2884.39 L 2530.98 3053.12 M 2247.32 3119.74 L 2061.04 3355.81 M 2261.76 3506.87 L 2464.94 3253.3 M 2726.89 2472.24 L 2504.28 2721.3 M 2722.18 3451.8 L 2901.67 3628.03 M 2504.28 2721.3 L 2838.33 2720.57 M 4140.79 2766.96 L 3604.19 2964.9 M 4093.06 3338.12 L 4034 3097.09 M 3328.37 2682.44 L 3067.9 3073.44 M 3463.37 2794.13 L 3523.54 3007.14 M 2862.45 2128.8 L 2726.89 2472.24 M 2838.33 2720.57 L 3174.67 2568.25 M 3174.67 2568.25 L 2811.62 2471.1 M 2798.64 2795.21 L 3021.01 3009.28 M 3021.01 3009.28 L 3085.82 2794.3 M 3312.5 3633.79 L 2992.63 3567.82 M 4296.37 3376.54 L 4057.45 3114.38 M 2904.66 3770.91 L 3429.24 3883.57 M 3679.72 4049.91 L 4223.94 4265.84 M 4005.65 3407.14 L 4162.26 3549.21 M 2992.63 3567.82 L 2675.89 3499.94 M 2675.89 3499.94 L 2582.07 3665.59 M 3534.48 3238.74 L 3312.5 3633.79 M 4335.9 3509.43 L 4216.7 3841.19 M 4216.7 3841.19 L 4521.88 3652.79 M 3938.49 3909.21 L 4130.71 3613.7 M 4256.47 4075.09 L 3938.49 3909.21 M 3210.08 3942.81 L 3383.3 3665.92 M 3252.04 3443.32 L 3210.08 3942.81 M 4057.45 3114.38 L 3871.33 3154.41 M 4645.38 5497.42 L 4706.93 5227.51 M 4221.73 5360.52 L 3788.02 5636.08 M 5637.53 4849.88 L 5367.26 4431.56 M 5214.04 3822.69 L 5200.27 4187.9 M 3725.33 5493.29 L 4221.73 5360.52 M 4242.44 5123.76 L 3725.33 5493.29 M 5121.72 4663.08 L 5146.86 4181.93 M 5562.77 5311.06 L 5829.18 5386.35 M 5829.18 5386.35 L 5637.53 4849.88 M 5315.44 4655.73 L 5562.77 5311.06 M 5200.27 4187.9 L 5315.44 4655.73 M 4807.35 3678.25 L 4501.71 4177.64 M 4682.22 4850.58 L 4242.44 5123.76 M 4706.93 5227.51 L 5121.72 4663.08 M 5146.86 4181.93 L 5214.04 3822.69 M 2031.35 4407.21 L 2330.25 4373.37 M 1402.63 4314.2 L 2031.35 4407.21 M 1917.1 3949.18 L 1402.63 4314.2 M 2330.25 4373.37 L 2031.74 4410.47 M 2031.74 4410.47 L 2412.97 4760.75 M 3683.12 4405.61 L 3679.72 4049.91 M 2808.19 4385.17 L 2458.61 4180.11 M 3185.4 4035.95 L 2781.12 3845.63 M 2781.12 3845.63 L 2954.96 4211.74 M 2833.71 3760.3 L 3185.4 4035.95 M 3429.24 3883.57 L 3173.58 3411.86 M 2412.97 4760.75 L 2748.37 4717.58 M 3557.94 5123.87 L 3894.55 5216.23 M 2954.96 4211.74 L 3572.06 4882.78 M 4798.83 6130.91 L 5094.07 5966.01 M 5094.07 5966.01 L 4783.68 5694.21 M 4783.68 5694.21 L 4641.25 5382.93 M 4024.34 5540.25 L 4548.56 6278.95 M 4548.56 6278.95 L 4233.67 5461.06 M 4233.67 5461.06 L 4798.83 6130.91 M 4641.25 5382.93 L 4145.63 5030.12 M 4145.63 5030.12 L 4566.49 4590.81 M 4102.64 4440.98 L 3919.93 4828.86 M 4289.2 4462.9 L 4102.64 4440.98 M 3919.93 4828.86 L 3582.55 4564.26 M 2748.37 4717.58 L 3557.94 5123.87 M 3894.55 5216.23 L 4024.34 5540.25 M 3572.06 4882.78 L 2808.19 4385.17 M 4501.71 4177.64 L 4289.2 4462.9 M 3582.55 4564.26 L 3683.12 4405.61 M 2458.61 4180.11 L 1917.1 3949.18 M 3173.58 3411.86 L 2841.51 3171.65 M 2841.51 3171.65 L 2833.71 3760.3 M 4566.49 4590.81 L 4902.34 4524.59 M 4902.34 4524.59 L 4880.75 4061.34 M 4932.06 4522.25 L 4682.22 4850.58 M 4880.75 4061.34 L 4932.06 4522.25 M 4458.98 6489.69 L 4629.58 5958.2 M 5496.15 5906.35 L 5484.78 6464.43 M 5938.72 6446.76 L 5707.05 5891.3 M 6335.54 5869.66 L 6121.34 5619.16 M 6358.65 6143.92 L 6335.54 5869.66 M 5804.49 5909.14 L 6358.65 6143.92 M 5826.32 5514.79 L 5804.49 5909.14 M 5707.05 5891.3 L 5826.32 5514.79 M 7070 4657.39 L 6837.79 4148.59 M 6121.34 5619.16 L 6369.19 4982.2 M 5656.62 5152.54 L 5507.46 5516.29 M 6009.01 3405.38 L 6518.6 3705.43 M 6692.14 3383.53 L 6009.01 3405.38 M 6369.19 4982.2 L 6074.93 4752.31 M 6912.42 3379.39 L 6692.14 3383.53 M 6840.3 3855.35 L 7130.49 3813.11 M 7130.49 3813.11 L 7196.54 3257.74 M 7346.8 5112.13 L 7523.76 4783.31 M 7107.01 4976.31 L 7346.8 5112.13 M 7523.76 4783.31 L 7376.71 4619.24 M 6380.49 4825.76 L 6225.08 5098.9 M 6225.08 5098.9 L 6496.56 5146.32 M 7376.71 4619.24 L 7070 4657.39 M 6732.35 4812.01 L 7107.01 4976.31 M 6496.56 5146.32 L 6732.35 4812.01 M 6471.79 4154 L 6494.21 4513.72 M 6222.24 3880.14 L 6471.79 4154 M 6837.79 4148.59 L 6840.3 3855.35 M 6494.21 4513.72 L 6186.72 4325.69 M 6074.93 4752.31 L 6380.49 4825.76 M 5507.46 5516.29 L 5496.15 5906.35 M 5206.52 5304.13 L 5166.32 5763.43 M 5166.32 5763.43 L 5414.24 5462.08 M 5414.24 5462.08 L 5656.62 5152.54 M 6186.72 4325.69 L 5822.87 4255.8 M 5822.87 4255.8 L 5849.06 4545.52 M 6026.41 3409.19 L 6222.24 3880.14 M 6257.93 3174.61 L 6026.41 3409.19 M 6518.6 3705.43 L 6257.93 3174.61 M 5367.26 4431.56 L 5585.81 4879.07 M 5849.06 4545.52 L 6136.85 4503.13 M 6136.85 4503.13 L 5985.78 4108.62 M 7196.54 3257.74 L 6912.42 3379.39" />
<path fill="none" class="c" d=" M 4296.37 3376.54 L 4719.4 3663.85 M 4719.4 3663.85 L 4864.94 3185.37 M 4296.37 3376.54 L 4162.26 3549.21 M 5232.33 3718.43 L 4864.94 3185.37 M 4057.45 3114.38 L 4162.26 3549.21 M 5322.16 3473.6 L 4864.94 3185.37 M 5232.33 3718.43 L 5322.16 3473.6 M 4057.45 3114.38 L 4005.65 3407.14 M 5322.16 3473.6 L 5291.53 3216.11 M 5676.73 3728.41 L 5322.16 3473.6 M 3871.33 3154.41 L 4005.65 3407.14 M 5676.73 3728.41 L 5636.16 3322.71 M 3871.33 3154.41 L 3435.83 3375.17 M 3435.83 3375.17 L 4005.65 3407.14 M 5952.51 3626.87 L 5636.16 3322.71 M 3357.56 3150.85 L 3435.83 3375.17 M 5676.73 3728.41 L 5952.51 3626.87 M 5585.56 3245.6 L 5291.53 3216.11 M 6156.97 3389.33 L 5636.16 3322.71 M 2901.67 3628.03 L 3435.83 3375.17 M 6523.3 3874.85 L 5952.51 3626.87 M 6156.97 3389.33 L 5759.08 3018.55 M 3256.87 3770.26 L 3435.83 3375.17 M 3357.56 3150.85 L 2901.67 3628.03 M 6361.16 3300.42 L 5759.08 3018.55 M 3256.87 3770.26 L 3605.1 3635.12 M 6361.16 3300.42 L 5881.81 2854.15 M 3676.6 3926.66 L 3605.1 3635.12 M 6361.16 3300.42 L 6263.03 2642.59 M 6263.03 2642.59 L 5881.81 2854.15 M 3676.6 3926.66 L 4009.85 3483.36 M 6361.16 3300.42 L 6609.47 2642.92 M 6609.47 2642.92 L 6263.03 2642.59 M 4137.64 3811.45 L 4009.85 3483.36 M 6904.11 3121.65 L 6609.47 2642.92 M 6329.75 2373.2 L 6263.03 2642.59 M 6609.47 2642.92 L 6329.75 2373.2 M 6263.03 2642.59 L 6090.91 2393.72 M 2770.65 3250.1 L 2901.67 3628.03 M 6329.75 2373.2 L 6046.23 2505.18 M 6717.52 2103.59 L 6329.75 2373.2 M 6609.47 2642.92 L 6717.52 2103.59 M 2770.65 3250.1 L 2722.18 3451.8 M 6192.11 1810.69 L 6329.75 2373.2 M 7237.76 2495.23 L 6717.52 2103.59 M 2770.65 3250.1 L 2464.94 3253.3 M 6192.11 1810.69 L 6000.33 2419.45 M 7237.76 2495.23 L 7069.25 1864.18 M 2676.45 3214.48 L 2464.94 3253.3 M 5883.05 1708.68 L 6000.33 2419.45 M 7508.8 2171.19 L 7069.25 1864.18 M 2271.75 2951.04 L 2464.94 3253.3 M 2676.45 3214.48 L 2271.75 2951.04 M 5883.05 1708.68 L 5628.43 2539.7 M 2625.59 3044.53 L 2271.75 2951.04 M 5883.05 1708.68 L 5535.94 1960.55 M 2563.35 2884.39 L 2271.75 2951.04 M 5883.05 1708.68 L 5420.43 1514.38 M 2563.35 2884.39 L 2504.28 2721.3 M 2504.28 2721.3 L 2271.75 2951.04 M 5655.71 1316.45 L 5420.43 1514.38 M 2798.64 2795.21 L 2504.28 2721.3 M 2563.35 2884.39 L 2798.64 2795.21 M 5234.52 1271.84 L 5420.43 1514.38 M 2798.64 2795.21 L 2726.89 2472.24 M 2530.98 3053.12 L 2798.64 2795.21 M 5059.61 1714.56 L 5420.43 1514.38 M 2798.64 2795.21 L 2978.72 2520.65 M 2978.72 2520.65 L 2726.89 2472.24 M 2530.98 3053.12 L 2983.31 3042.54 M 5059.61 1714.56 L 5307.64 1961.25 M 2798.64 2795.21 L 3085.82 2794.3 M 3085.82 2794.3 L 2978.72 2520.65 M 2978.72 2520.65 L 2862.45 2128.8 M 2750.74 3254.33 L 2983.31 3042.54 M 2530.98 3053.12 L 2750.74 3254.33 M 5059.61 1714.56 L 5062.29 2493.95 M 3085.82 2794.3 L 3257.92 2539.95 M 2504.28 2721.3 L 2380.31 2657.84 M 5655.71 1316.45 L 5234.52 1271.84 M 2569.57 3249.46 L 2750.74 3254.33 M 3085.82 2794.3 L 3375.96 2676.58 M 5050.08 1095.74 L 5234.52 1271.84 M 5628.43 2539.7 L 6000.33 2419.45 M 7436.46 1666.3 L 7069.25 1864.18 M 2271.75 2951.04 L 2247.32 3119.74 M 2247.32 3119.74 L 2464.94 3253.3 M 2676.45 3214.48 L 2625.59 3044.53 M 7232.49 1481.5 L 7069.25 1864.18 M 1961.71 2991.37 L 2247.32 3119.74 M 2247.32 3119.74 L 2261.76 3506.87 M 6000.33 2419.45 L 6329.75 2373.2 M 7069.25 1864.18 L 6717.52 2103.59 M 4943.07 1767.56 L 5234.52 1271.84 M 5916.3 2897.62 L 6000.33 2419.45 M 2061.04 3355.81 L 2261.76 3506.87 M 5907.74 2803.08 L 6329.75 2373.2 M 6663.23 1462.98 L 6717.52 2103.59 M 4943.07 1767.56 L 5224.9 1747.76 M 1855.59 3555.18 L 2261.76 3506.87 M 3257.92 2539.95 L 2978.72 2520.65 M 4771.89 2218.17 L 5062.29 2493.95 M 2504.28 2721.3 L 2443.46 2363.02 M 1855.59 3555.18 L 2145.07 3729.7 M 3257.92 2539.95 L 3321.1 2268.03 M 4644.26 2514.67 L 5062.29 2493.95 M 1810.41 3810.59 L 2145.07 3729.7 M 3596.91 2441.93 L 3321.1 2268.03 M 4648.83 2766.93 L 5062.29 2493.95 M 1810.41 3810.59 L 2058.94 4102.5 M 3777.57 2295.75 L 3321.1 2268.03 M 3596.91 2441.93 L 3777.57 2295.75 M 1683.28 3987.92 L 2058.94 4102.5 M 3597.64 2103.77 L 3321.1 2268.03 M 3596.91 2441.93 L 3853.36 2492.66 M 1683.28 3987.92 L 1929.14 4531.21 M 3597.64 2103.77 L 3276.42 2026.01 M 3596.91 2441.93 L 3706.87 2707.26 M 1683.28 3987.92 L 1565.81 4241.16 M 1565.81 4241.16 L 1929.14 4531.21 M 3597.64 2103.77 L 3325.15 1808.16 M 3596.91 2441.93 L 3463.37 2794.13 M 3463.37 2794.13 L 3706.87 2707.26 M 1351.18 4155.49 L 1565.81 4241.16 M 1498.48 4708.48 L 1929.14 4531.21 M 1319.09 4333.85 L 1565.81 4241.16 M 1498.48 4708.48 L 2013.2 4998.93 M 1319.09 4333.85 L 1560.44 4713.28 M 1640.44 5173.47 L 2013.2 4998.93 M 1106.34 4765.61 L 1560.44 4713.28 M 1640.44 5173.47 L 2301.22 4948.28 M 1106.34 4765.61 L 1627.05 5194.86 M 1640.44 5173.47 L 1871.59 5321.06 M 1017.59 5200.96 L 1627.05 5194.86 M 1394.02 5489.36 L 1871.59 5321.06 M 1215.61 5477.56 L 1627.05 5194.86 M 1471.28 5776.14 L 1871.59 5321.06 M 1394.02 5489.36 L 1471.28 5776.14 M 1471.28 5776.14 L 1844.5 5836.17 M 906.331 5846.43 L 1471.28 5776.14 M 953.728 6345.79 L 1844.5 5836.17 M 906.331 5846.43 L 825.757 6195.26 M 953.728 6345.79 L 1620.98 6220.4 M 470.02 6018.67 L 825.757 6195.26 M 906.331 5846.43 L 470.02 6018.67 M 470.02 6018.67 L 295.977 6283.42 M 295.977 6283.42 L 825.757 6195.26 M 170.519 6065.75 L 295.977 6283.42 M 295.977 6283.42 L 648.22 6449.9 M 3507.17 1735.74 L 3325.15 1808.16 M 388.067 6577.84 L 648.22 6449.9 M 3597.64 2103.77 L 3507.17 1735.74 M 3328.37 2682.44 L 3463.37 2794.13 M 3597.64 2103.77 L 3771.73 1741.91 M 3067.9 3073.44 L 3463.37 2794.13 M 3866.26 2070.36 L 3771.73 1741.91 M 3597.64 2103.77 L 3866.26 2070.36 M 3067.9 3073.44 L 3534.48 3238.74 M 3534.48 3238.74 L 3463.37 2794.13 M 3866.26 2070.36 L 4108.73 1884.94 M 3067.9 3073.44 L 3252.04 3443.32 M 3252.04 3443.32 L 3534.48 3238.74 M 3534.48 3238.74 L 3604.19 2964.9 M 2803.04 3480.65 L 3252.04 3443.32 M 3252.04 3443.32 L 3383.3 3665.92 M 4034 3097.09 L 3604.19 2964.9 M 3534.48 3238.74 L 4034 3097.09 M 2803.04 3480.65 L 3137.58 3931.32 M 4034 3097.09 L 4140.79 2766.96 M 3534.48 3238.74 L 4093.06 3338.12 M 2685.66 3777.99 L 3137.58 3931.32 M 4034 3097.09 L 4489.44 2694.08 M 3534.48 3238.74 L 4130.71 3613.7 M 4226.49 3253.72 L 4489.44 2694.08 M 3312.5 3633.79 L 4130.71 3613.7 M 4226.49 3253.72 L 4590.83 3018.79 M 3312.5 3633.79 L 3938.49 3909.21 M 4335.9 3509.43 L 4590.83 3018.79 M 3429.24 3883.57 L 3938.49 3909.21 M 3312.5 3633.79 L 3429.24 3883.57 M 4521.88 3652.79 L 4590.83 3018.79 M 4335.9 3509.43 L 4521.88 3652.79 M 3429.24 3883.57 L 3679.72 4049.91 M 3679.72 4049.91 L 3938.49 3909.21 M 3312.5 3633.79 L 2904.66 3770.91 M 3463.37 2794.13 L 3879.03 2847.48 M 4771.89 2218.17 L 4644.26 2514.67 M 2504.28 2721.3 L 2811.62 2471.1 M 2811.62 2471.1 L 2443.46 2363.02 M 1855.59 3555.18 L 1810.41 3810.59 M 2992.63 3567.82 L 2904.66 3770.91 M 3523.54 3007.14 L 3879.03 2847.48 M 2838.33 2720.57 L 2811.62 2471.1 M 2811.62 2471.1 L 2735.39 2102.25 M 3085.82 2794.3 L 3274.56 3135.32 M 5655.71 1316.45 L 5050.08 1095.74 M 3375.96 2676.58 L 3257.92 2539.95 M 2443.46 2363.02 L 2380.31 2657.84 M 2992.63 3567.82 L 2582.07 3665.59 M 4037.15 3258.78 L 3879.03 2847.48 M 3180.69 2542.06 L 2735.39 2102.25 M 2582.07 3665.59 L 2904.66 3770.91 M 5703.69 912.068 L 5050.08 1095.74 M 2443.46 2363.02 L 2245.62 2623.71 M 3116.71 2118.16 L 2862.45 2128.8 M 2750.74 3254.33 L 3294.47 3148.27 M 1451.87 3715.37 L 1810.41 3810.59 M 4037.15 3258.78 L 4188.43 3043.17 M 2443.46 2363.02 L 2183.88 2344.16 M 3091.32 1873.36 L 2862.45 2128.8 M 2750.74 3254.33 L 3000.55 3535.03 M 1451.87 3715.37 L 1651.83 3960.46 M 4037.15 3258.78 L 4322.74 3271.19 M 2443.46 2363.02 L 2361.68 1947.88 M 3091.32 1873.36 L 2814.27 1800.28 M 3218.68 2212.22 L 2735.39 2102.25 M 2582.07 3665.59 L 2626.2 4071.62 M 5703.69 912.068 L 5321.4 440.975 M 4771.89 2218.17 L 4472.83 2132.4 M 3091.32 1873.36 L 2971.91 1560.46 M 3218.68 2212.22 L 2974.88 1965.44 M 2582.07 3665.59 L 2228.33 4561.13 M 5934.84 598.267 L 5321.4 440.975 M 5703.69 912.068 L 5934.84 598.267 M 4843.15 1920.85 L 4472.83 2132.4 M 3212.12 1685.64 L 2971.91 1560.46 M 3218.68 2212.22 L 3188.3 1728.12 M 2234.85 3593.16 L 2228.33 4561.13 M 4513.76 1802.91 L 4472.83 2132.4 M 3289.57 1934.12 L 3188.3 1728.12 M 2234.85 3593.16 L 1748.91 4333.41 M 4513.76 1802.91 L 4160.52 1964.76 M 5703.69 912.068 L 6253.37 1019.5 M 4843.15 1920.85 L 4513.76 1802.91 M 1673.63 3804.96 L 1748.91 4333.41 M 4069.79 3613.47 L 4322.74 3271.19 M 5949.26 1238.04 L 6253.37 1019.5 M 5703.69 912.068 L 5949.26 1238.04 M 1673.63 3804.96 L 1103.79 4039.91 M 4069.79 3613.47 L 4412.07 3496.85 M 6250.13 1591.1 L 6253.37 1019.5 M 5949.26 1238.04 L 6250.13 1591.1 M 5710.66 1319.23 L 5949.26 1238.04 M 1250.65 3741.66 L 1103.79 4039.91 M 4433.19 3869.11 L 4412.07 3496.85 M 2530.48 2045.2 L 2361.68 1947.88 M 2735.39 2102.25 L 2443.46 2363.02 M 680.762 3611.44 L 1103.79 4039.91 M 4433.19 3869.11 L 4749.86 3791.91 M 2579.66 1737.51 L 2361.68 1947.88 M 2530.48 2045.2 L 2579.66 1737.51 M 4769.02 3329.62 L 4590.83 3018.79 M 4863.99 4083.8 L 4749.86 3791.91 M 2389.14 1582.67 L 2361.68 1947.88 M 2530.48 2045.2 L 2742.44 1809.17 M 2742.44 1809.17 L 2579.66 1737.51 M 4769.02 3329.62 L 4833.03 2916.44 M 4863.99 4083.8 L 5158.49 3995.19 M 5158.49 3995.19 L 4749.86 3791.91 M 2389.14 1582.67 L 2107.72 1702.18 M 2678.19 2136.9 L 2742.44 1809.17 M 2742.44 1809.17 L 2567.08 1492.33 M 4938.68 3273.18 L 4833.03 2916.44 M 5028.18 4160.5 L 5158.49 3995.19 M 5158.49 3995.19 L 5047.65 3677.05 M 2678.19 2136.9 L 2854.52 2087.38 M 2854.52 2087.38 L 2742.44 1809.17 M 2742.44 1809.17 L 2702.16 1325.01 M 4938.68 3273.18 L 5317.04 3278.48 M 4223.94 4265.84 L 3938.49 3909.21 M 5339.24 3707.49 L 5317.04 3278.48 M 4472.83 2132.4 L 4644.26 2514.67 M 4223.94 4265.84 L 4256.47 4075.09 M 5339.24 3707.49 L 5677.98 3861.12 M 4227.41 2388.16 L 4644.26 2514.67 M 3429.24 3883.57 L 3683.12 4405.61 M 4223.94 4265.84 L 4608.19 4279.57 M 4227.41 2388.16 L 4418.78 2627.87 M 3429.24 3883.57 L 3185.4 4035.95 M 3185.4 4035.95 L 3683.12 4405.61 M 4223.94 4265.84 L 4725.12 4414.85 M 4227.41 2388.16 L 4090.96 3217.25 M 3173.58 3411.86 L 3185.4 4035.95 M 3185.4 4035.95 L 3582.55 4564.26 M 4463.7 4899.24 L 4725.12 4414.85 M 3836.5 2894.71 L 4090.96 3217.25 M 3173.58 3411.86 L 2833.71 3760.3 M 3185.4 4035.95 L 3572.06 4882.78 M 3572.06 4882.78 L 3582.55 4564.26 M 4677.58 4837.17 L 4725.12 4414.85 M 3185.4 4035.95 L 2954.96 4211.74 M 3572.06 4882.78 L 3919.93 4828.86 M 4677.58 4837.17 L 5280.47 4616.49 M 3572.06 4882.78 L 3894.55 5216.23 M 3894.55 5216.23 L 3919.93 4828.86 M 3572.06 4882.78 L 3557.94 5123.87 M 3894.55 5216.23 L 4145.63 5030.12 M 4145.63 5030.12 L 3919.93 4828.86 M 3572.06 4882.78 L 2748.37 4717.58 M 3894.55 5216.23 L 4233.67 5461.06 M 4233.67 5461.06 L 4145.63 5030.12 M 4289.2 4462.9 L 3919.93 4828.86 M 4145.63 5030.12 L 4289.2 4462.9 M 2808.19 4385.17 L 2748.37 4717.58 M 4024.34 5540.25 L 4233.67 5461.06 M 4233.67 5461.06 L 4641.25 5382.93 M 2808.19 4385.17 L 2330.25 4373.37 M 4566.49 4590.81 L 4289.2 4462.9 M 4233.67 5461.06 L 4783.68 5694.21 M 2458.61 4180.11 L 2330.25 4373.37 M 4566.49 4590.81 L 4501.71 4177.64 M 4798.83 6130.91 L 4783.68 5694.21 M 1917.1 3949.18 L 2330.25 4373.37 M 4902.34 4524.59 L 4501.71 4177.64 M 2330.25 4373.37 L 2748.37 4717.58 M 1917.1 3949.18 L 2031.35 4407.21 M 4880.75 4061.34 L 4501.71 4177.64 M 2330.25 4373.37 L 2412.97 4760.75 M 4880.75 4061.34 L 4807.35 3678.25 M 5214.04 3822.69 L 4807.35 3678.25 M 4880.75 4061.34 L 5214.04 3822.69 M 5214.04 3822.69 L 5296.94 3509.34 M 5296.94 3509.34 L 4807.35 3678.25 M 4880.75 4061.34 L 5146.86 4181.93 M 5214.04 3822.69 L 5490.68 3723.78 M 5296.94 3509.34 L 5237.36 3155.03 M 4880.75 4061.34 L 5121.72 4663.08 M 5200.27 4187.9 L 5490.68 3723.78 M 4932.06 4522.25 L 5121.72 4663.08 M 5200.27 4187.9 L 5985.78 4108.62 M 4682.22 4850.58 L 5121.72 4663.08 M 5367.26 4431.56 L 5985.78 4108.62 M 5200.27 4187.9 L 5367.26 4431.56 M 4682.22 4850.58 L 4706.93 5227.51 M 5367.26 4431.56 L 5849.06 4545.52 M 5849.06 4545.52 L 5985.78 4108.62 M 5315.44 4655.73 L 5367.26 4431.56 M 4242.44 5123.76 L 4706.93 5227.51 M 5585.81 4879.07 L 5849.06 4545.52 M 5315.44 4655.73 L 5637.53 4849.88 M 4221.73 5360.52 L 4706.93 5227.51 M 4242.44 5123.76 L 4221.73 5360.52 M 5585.81 4879.07 L 6074.93 4752.31 M 6074.93 4752.31 L 5849.06 4545.52 M 5562.77 5311.06 L 5637.53 4849.88 M 4221.73 5360.52 L 4645.38 5497.42 M 5656.62 5152.54 L 6074.93 4752.31 M 6186.72 4325.69 L 5849.06 4545.52 M 6074.93 4752.31 L 6186.72 4325.69 M 4221.73 5360.52 L 4629.58 5958.2 M 5656.62 5152.54 L 6369.19 4982.2 M 5585.81 4879.07 L 5656.62 5152.54 M 6380.49 4825.76 L 6186.72 4325.69 M 4268.23 5978.33 L 4629.58 5958.2 M 4221.73 5360.52 L 4268.23 5978.33 M 5826.32 5514.79 L 6369.19 4982.2 M 5656.62 5152.54 L 5826.32 5514.79 M 5206.52 5304.13 L 5656.62 5152.54 M 6380.49 4825.76 L 6494.21 4513.72 M 3788.02 5636.08 L 4268.23 5978.33 M 5826.32 5514.79 L 6121.34 5619.16 M 5507.46 5516.29 L 5826.32 5514.79 M 5206.52 5304.13 L 5414.24 5462.08 M 6380.49 4825.76 L 6732.35 4812.01 M 6732.35 4812.01 L 6494.21 4513.72 M 5804.49 5909.14 L 6121.34 5619.16 M 5507.46 5516.29 L 5707.05 5891.3 M 4268.23 5978.33 L 4458.98 6489.69 M 6380.49 4825.76 L 6496.56 5146.32 M 6732.35 4812.01 L 6837.79 4148.59 M 6837.79 4148.59 L 6494.21 4513.72 M 6732.35 4812.01 L 7070 4657.39 M 6837.79 4148.59 L 6471.79 4154 M 7107.01 4976.31 L 7070 4657.39 M 6840.3 3855.35 L 6471.79 4154 M 7107.01 4976.31 L 7376.71 4619.24 M 6840.3 3855.35 L 6222.24 3880.14 M 7107.01 4976.31 L 7523.76 4783.31 M 6840.3 3855.35 L 6518.6 3705.43 M 6518.6 3705.43 L 6222.24 3880.14 M 6692.14 3383.53 L 6518.6 3705.43 M 6840.3 3855.35 L 6692.14 3383.53 M 6518.6 3705.43 L 6026.41 3409.19 M 6840.3 3855.35 L 6912.42 3379.39 M 5804.49 5909.14 L 6335.54 5869.66 M 6840.3 3855.35 L 7196.54 3257.74 M 5496.15 5906.35 L 5707.05 5891.3 M 3866.21 6396.13 L 4458.98 6489.69 M 5496.15 5906.35 L 5938.72 6446.76 M 4189.88 6813.42 L 4458.98 6489.69 M 5484.78 6464.43 L 5938.72 6446.76" />
</svg>
