<?xml version="1.0"?>
<svg width="5319" height="6933" version="1.1" xmlns="http://www.w3.org/2000/svg" >
<defs>
<style type="text/css"><![CDATA[
.m {stroke:rgb(255,0,0);stroke-width:8.666250;}
.v {stroke:rgb(0,0,255);stroke-width:8.666250;}
.b {stroke:rgb(0,0,0);stroke-width:17.332500;fill:white}
.n {stroke:rgb(128,128,128);stroke-width:8.666250}
.t {stroke:rgb(0,128,0);stroke-width:8.666250;}
.c {stroke:rgb(128,128,128);stroke-width:8.666250;stroke-dasharray:53.190000, 53.190000;}
]]></style>
</defs>
<path fill="none" style="stroke:black;stroke-width:17.332500;" d=" M 3190.79 967.091 L 3613.82 1254.4 M 624.502 3862.18 L 1006.53 3939.36 M 618.845 3979.4 L 0 3700.17 M 0 3700.17 L 322.252 4258.43 M 4609.2 3750.7 L 4281.57 3195.58 M 4312.2 3448.74 L 4609.2 3750.7 M 2821 3186.32 L 2377.45 3629.59 M 2377.45 3629.59 L 3017.46 3713.02 M 1006.53 3939.36 L 618.845 3979.4 M 2807.1 4221.25 L 3239.71 4031.76 M 3017.46 3713.02 L 2807.1 4221.25 M 1103.69 6004.22 L 1473.48 5710.44 M 930.455 5451.64 L 1103.69 6004.22 M 1347.44 5654.39 L 1402.78 6201.64 M 1402.78 6201.64 L 1959.85 5875.71 M 1473.48 5710.44 L 1691.61 5345.12 M 1154.35 5152.33 L 930.455 5451.64 M 3703.43 245.069 L 3232.64 0 M 3232.64 0 L 3190.79 967.091 M 3759.37 775.916 L 3703.43 245.069 M 741.419 5115.25 L 1083.11 4963.71 M 929.646 4575.52 L 741.419 5115.25 M 1119.58 2111.98 L 1419.75 2114.24 M 3022.82 1381.3 L 3656.97 1150.53 M 3208.23 963.48 L 3676.42 602.813 M 1419.75 2114.24 L 1119.97 2129.64 M 1119.97 2129.64 L 1492.68 2540.31 M 3760.13 752.067 L 3208.23 963.48 M 3696.5 1420.72 L 3022.82 1381.3 M 2144.9 714.443 L 1853.42 484.979 M 1320.6 1338.32 L 1006.81 1140.46 M 1006.81 1140.46 L 1124.52 1434.05 M 862.325 1724.74 L 1119.58 2111.98 M 1374.23 1743.49 L 1051.59 1519.54 M 1124.52 1434.05 L 1400.76 1713.22 M 684.162 1577.55 L 862.325 1724.74 M 1051.59 1519.54 L 684.162 1577.55 M 3212.96 497.786 L 2804.18 719.217 M 2804.18 719.217 L 2758.8 978.841 M 2758.8 978.841 L 2710.37 1288.49 M 2717.12 1244.56 L 2741.59 932.104 M 2399.04 1218.18 L 2717.12 1244.56 M 2737.77 1901.32 L 2618.99 1745.54 M 2803.1 2157.76 L 3045.6 2432.02 M 3231.83 2356.66 L 3547.95 1903.02 M 2407.73 2087.59 L 2512.27 2337.29 M 2512.27 2337.29 L 2756.15 2520.83 M 2756.15 2520.83 L 2803.1 2157.76 M 2479.19 2348.68 L 2407.73 2087.59 M 2853.55 1713.53 L 3207.99 1785.18 M 2717.79 1914.7 L 2868.84 2157.39 M 2369.15 1472.04 L 2077.39 1630.52 M 2396.07 1757.3 L 2369.15 1472.04 M 2580.09 1477.48 L 2396.07 1757.3 M 2422.61 835.475 L 2144.9 714.443 M 2119.49 907.63 L 2422.61 835.475 M 2545.65 732.445 L 2646.12 725.341 M 2646.12 725.341 L 2354.16 634.6 M 2354.16 634.6 L 2423.45 336.814 M 2162.68 1076.03 L 2435.83 883.884 M 2435.83 883.884 L 2119.49 907.63 M 2116.78 697.266 L 1805.55 712.329 M 1805.55 712.329 L 2080.08 871.296 M 2333.29 1009.42 L 2194.41 743.576 M 2194.41 743.576 L 2162.68 1076.03 M 2080.08 871.296 L 2437.9 883.539 M 2627.22 791.53 L 2545.65 732.445 M 2081.86 845.887 L 2333.29 1009.42 M 2437.9 883.539 L 2081.86 845.887 M 2741.59 932.104 L 2832.08 684.566 M 2832.08 684.566 L 2627.22 791.53 M 2075.29 397.182 L 2116.78 697.266 M 2423.45 336.814 L 2146.12 88.9043 M 2146.12 88.9043 L 2075.29 397.182 M 2868.84 2157.39 L 2928.57 2499.18 M 2928.57 2499.18 L 3143.11 1930.13 M 3156.33 2088.96 L 3658.42 1728.06 M 3658.42 1728.06 L 3064.41 1858.45 M 3489.32 1567.94 L 3156.33 2088.96 M 3547.95 1903.02 L 3489.32 1567.94 M 2618.99 1745.54 L 2717.79 1914.7 M 3143.11 1930.13 L 2853.55 1713.53 M 3008.55 1992.93 L 2737.77 1901.32 M 1996.42 1679.42 L 2302.8 1551.46 M 2710.37 1288.49 L 2399.04 1218.18 M 2460.86 1790.44 L 2580.09 1477.48 M 2302.8 1551.46 L 2460.86 1790.44 M 3957.81 1337.45 L 3696.5 1420.72 M 1061.55 2402.13 L 1572.86 2409.82 M 1798.98 2224.55 L 1649.84 1905.6 M 1649.84 1905.6 L 1590.07 2191.87 M 1590.07 2191.87 L 891.994 2186.58 M 891.994 2186.58 L 1061.55 2402.13 M 3656.97 1150.53 L 3904.71 497.872 M 3904.71 497.872 L 3760.13 752.067 M 3531.05 1891.7 L 3231.83 2356.66 M 3582.88 2589.78 L 3679.72 2217.68 M 3207.99 1785.18 L 3531.05 1891.7 M 3676.42 602.813 L 3710.28 252.355 M 3710.28 252.355 L 3212.96 497.786 M 890.336 3316.82 L 182.233 3347.07 M 182.233 3347.07 L 624.502 3862.18 M 3772.23 3646.56 L 3924.45 3509.02 M 2816.72 3124.64 L 3388.28 3115.98 M 3060.35 2969.19 L 2816.72 3124.64 M 3388.28 3115.98 L 2821 3186.32 M 4524.22 3455.92 L 5161.44 3145.64 M 5161.44 3145.64 L 4706.15 2867 M 3924.45 3509.02 L 4524.22 3455.92 M 4281.57 3195.58 L 3733.58 3445.08 M 3733.58 3445.08 L 3772.23 3646.56 M 4088.34 4404.9 L 4326.48 4241.16 M 4326.48 4241.16 L 4026.82 4117.62 M 2845.49 2726.5 L 3060.35 2969.19 M 4097.28 662.247 L 4126.76 1308.98 M 4332.57 1148.83 L 4097.28 662.247 M 4706.15 2867 L 4181.29 2996.01 M 4181.29 2996.01 L 4387.89 3152.71 M 3827.42 2934.72 L 4103.9 3234.38 M 4263.94 2924.95 L 3827.42 2934.72 M 4498.49 1552.71 L 4332.57 1148.83 M 3613.82 1254.4 L 4046.86 1678.45 M 3781.68 1812.2 L 4051.53 1936.25 M 4051.53 1936.25 L 3957.81 1337.45 M 4387.89 3152.71 L 4263.94 2924.95 M 4487.16 2609.84 L 4030.25 2503.71 M 4222.03 2888.11 L 4593.93 2893.6 M 4299.92 3151.7 L 4587.99 2954.54 M 4587.99 2954.54 L 4222.03 2888.11 M 4113.67 3373.87 L 4503.14 3383.79 M 4503.14 3383.79 L 4299.92 3151.7 M 4593.93 2893.6 L 4926.76 2998.89 M 4926.76 2998.89 L 4781.68 2726.65 M 4046.86 1678.45 L 3781.68 1812.2 M 4743.99 1714.25 L 4800.75 1279.08 M 4800.75 1279.08 L 4498.49 1552.71 M 3852.37 2874.76 L 3605.81 3068.25 M 4103.9 3234.38 L 3852.37 2874.76 M 4030.25 2503.71 L 3681.3 2650.03 M 4588.04 2225.71 L 4883.56 2320.72 M 4883.56 2320.72 L 5054.96 1753.32 M 5054.96 1753.32 L 4743.99 1714.25 M 3605.81 3068.25 L 4113.67 3373.87 M 4230.12 2217.46 L 4487.16 2609.84 M 4873.36 2347.99 L 4588.04 2225.71 M 4781.68 2726.65 L 4873.36 2347.99 M 3853.88 2177.18 L 4230.12 2217.46 M 4126.76 1308.98 L 3759.37 775.916 M 3488.68 2551.36 L 3853.88 2177.18 M 3679.72 2217.68 L 3488.68 2551.36 M 3681.3 2650.03 L 3191.13 2468.05 M 5173.93 4358.82 L 4846.16 4177.68 M 4656.06 4600.8 L 5173.93 4358.82 M 322.252 4258.43 L 542.817 4380.37 M 542.817 4380.37 L 909.091 4458.4 M 4694.65 3976.27 L 4412.9 3853.18 M 4774.49 6933.69 L 4827.1 6261.33 M 4553.29 6123.09 L 4774.49 6933.69 M 3417.9 4596.46 L 3724.42 5197.2 M 3883.36 4766.25 L 3417.9 4596.46 M 4064.24 4154.59 L 4443.92 4353.98 M 4424.61 4387.08 L 4064.24 4154.59 M 3557.76 4450.29 L 4424.61 4387.08 M 4412.9 3853.18 L 4002.51 3810.26 M 3478 4057.84 L 3203.41 4227.55 M 3203.41 4227.55 L 3557.76 4450.29 M 4984.95 6064.52 L 4977.52 5741.8 M 4177.74 5023.37 L 3883.36 4766.25 M 5319.52 6316 L 4984.95 6064.52 M 4827.1 6261.33 L 5319.52 6316 M 4044.03 5552.24 L 4216.11 6168.51 M 4216.11 6168.51 L 4338.07 5799.59 M 5167.03 5505.91 L 5147.69 5229.05 M 5147.69 5229.05 L 4918.48 5441.81 M 4402.91 5455.78 L 4483.8 5153.69 M 3724.42 5197.2 L 3900.51 5304.26 M 3900.51 5304.26 L 3696.47 5333.19 M 4669.9 5788.36 L 4402.91 5455.78 M 4918.48 5441.81 L 4669.9 5788.36 M 4338.07 5799.59 L 4553.29 6123.09 M 4408.88 3738.64 L 4695.83 3628.23 M 4695.83 3628.23 L 4312.2 3448.74 M 4002.51 3810.26 L 4408.88 3738.64 M 4977.52 5741.8 L 5167.03 5505.91 M 3357.28 3780.37 L 3478 4057.84 M 4483.8 5153.69 L 4656.06 4600.8 M 4846.16 4177.68 L 4694.65 3976.27 M 4443.92 4353.98 L 3797.1 4934.54 M 3797.1 4934.54 L 4177.74 5023.37 M 3239.71 4031.76 L 3357.28 3780.37 M 3844.72 6160.25 L 4044.03 5552.24 M 3696.47 5333.19 L 3844.72 6160.25 M 1572.86 2409.82 L 1523.27 3376.54 M 1942.53 2905.22 L 1916.52 2497.63 M 1735.33 2684.23 L 1897.95 3058.87 M 1414.76 3398.58 L 890.336 3316.82 M 1585.85 3962.9 L 1414.76 3398.58 M 2195.9 3925.97 L 2017.22 3518.19 M 2608.21 4289.65 L 2833.5 4119.23 M 3641.52 4844.87 L 4088.34 4404.9 M 909.091 4458.4 L 1329.85 4444.92 M 1905.99 5025 L 1613.21 5322.12 M 1959.85 5875.71 L 2123.61 5486.29 M 1613.21 5322.12 L 1347.44 5654.39 M 1574.81 4945.82 L 1154.35 5152.33 M 1691.61 5345.12 L 1849.72 4959.12 M 1329.85 4444.92 L 929.646 4575.52 M 1083.11 4963.71 L 1537.29 4849.08 M 1713.29 2013.95 L 1374.23 1743.49 M 1492.68 2540.31 L 1775.77 2498.2 M 2424.31 2490.01 L 2872.05 2420.23 M 2872.05 2420.23 L 2557.9 2268.8 M 1476.03 865.487 L 1792.54 948.682 M 1805.65 1050.91 L 1515.73 899.095 M 1504.44 1037.59 L 1805.65 1050.91 M 1514.09 426.677 L 1710.76 701.596 M 1853.42 484.979 L 1514.09 426.677 M 1555.89 1099.36 L 1674.45 1415.9 M 1904.29 1313.68 L 1555.89 1099.36 M 1710.76 701.596 L 1302.09 684.232 M 1302.09 684.232 L 1476.03 865.487 M 1950.87 2015.18 L 1653.55 1425.99 M 1674.45 1415.9 L 1950.87 2015.18 M 1653.55 1425.99 L 1320.6 1338.32 M 1400.76 1713.22 L 1713.29 2013.95 M 2259.36 1931.35 L 2203.42 1559.79 M 2307.71 1558.72 L 2259.36 1931.35 M 1637.32 2547.61 L 1984.5 2231.07 M 1679.53 2160.13 L 1637.32 2547.61 M 2831.56 1520.12 L 2620.1 1595.63 M 2744.12 1899.95 L 2831.56 1520.12 M 2620.1 1595.63 L 2685.92 1294.05 M 2315.7 1260.86 L 2307.71 1558.72 M 2175.03 1865.53 L 1896.14 1877.94 M 2081.87 2177.99 L 2271.31 2312.6 M 1896.14 1877.94 L 1766.41 2003.52 M 1766.41 2003.52 L 2081.87 2177.99 M 3566.63 1946.04 L 3213.26 1874.76 M 3204.53 2049.75 L 3566.63 1946.04 M 3171.78 2614.72 L 3203.33 2900.19 M 3203.33 2900.19 L 3429.85 2599.25 M 3045.6 2432.02 L 2932.27 2715.44 M 2932.27 2715.44 L 3171.78 2614.72 M 2588.1 2584.58 L 2479.19 2348.68 M 2303.96 2542.68 L 2588.1 2584.58 M 2271.31 2312.6 L 2303.96 2542.68 M 2557.9 2268.8 L 2890.8 2372.72 M 3429.85 2599.25 L 3660.77 2212.71 M 3660.77 2212.71 L 3431.52 2377.92 M 1984.5 2231.07 L 1966.73 2051.39 M 1966.73 2051.39 L 2175.03 1865.53 M 2077.39 1630.52 L 1749.65 1874.76 M 1215.54 916.791 L 994.479 789.014 M 994.479 789.014 L 1195.57 1086.08 M 1495.21 648.724 L 1400.75 464.043 M 1306.04 498.3 L 827.326 561.644 M 827.326 561.644 L 1170.72 665.422 M 1396.17 1307.97 L 1509.62 1176.76 M 1195.57 1086.08 L 1163.38 1567.9 M 1163.38 1567.9 L 1286.83 1440.5 M 1400.75 464.043 L 1253.1 328.986 M 1253.1 328.986 L 1306.04 498.3 M 1286.83 1440.5 L 1396.17 1307.97 M 2203.42 1559.79 L 2179.56 1262.78 M 2179.56 1262.78 L 2074.09 1432.82 M 2464.38 1174.76 L 2315.7 1260.86 M 1515.73 899.095 L 1495.21 648.724 M 1170.72 665.422 L 1215.54 916.791 M 2548.86 1023.27 L 2464.38 1174.76 M 2685.92 1294.05 L 2882.88 1028.22 M 2074.09 1432.82 L 1904.29 1313.68 M 2860.42 778.336 L 2548.86 1023.27 M 2882.88 1028.22 L 2860.42 778.336 M 1509.62 1176.76 L 1878.06 1322.73 M 1792.54 948.682 L 1504.44 1037.59 M 3350.75 1935.56 L 3008.55 1992.93 M 3431.52 2377.92 L 3706.67 2313.58 M 3706.67 2313.58 L 3350.75 1935.56 M 3064.41 1858.45 L 2589.37 2068 M 3213.26 1874.76 L 2744.12 1899.95 M 2890.8 2372.72 L 3204.53 2049.75 M 1300.93 1774.64 L 1589.76 1720.51 M 1589.76 1720.51 L 1996.42 1679.42 M 1878.06 1322.73 L 1684.32 1482.14 M 1684.32 1482.14 L 1353.64 1492.34 M 1353.64 1492.34 L 1101.82 1670.85 M 1101.82 1670.85 L 1300.93 1774.64 M 1749.65 1874.76 L 1679.53 2160.13 M 2098.38 2469.03 L 2039.43 2682.36 M 2074.64 2689.08 L 2098.38 2469.03 M 3114.4 2162.83 L 2950.2 2645.56 M 3178.8 2450.25 L 3114.4 2162.83 M 2574.56 2721.19 L 3082.44 2675.97 M 3172.78 2790.99 L 3253.93 3074.13 M 1916.52 2497.63 L 1798.98 2224.55 M 2589.37 2068 L 2424.31 2490.01 M 3082.44 2675.97 L 3403.74 2516.61 M 3403.74 2516.61 L 3172.78 2790.99 M 1775.77 2498.2 L 1490.13 2516.1 M 1490.13 2516.1 L 1735.33 2684.23 M 2070.42 3548.1 L 2295.36 3932.32 M 1523.27 3376.54 L 1585.85 3962.9 M 2833.5 4119.23 L 3328.85 4170.82 M 3666.62 4055.77 L 3403.05 4189.13 M 4026.82 4117.62 L 3666.62 4055.77 M 2017.22 3518.19 L 2156.82 3325.85 M 2243.51 3385.24 L 2070.42 3548.1 M 2831.58 2316.82 L 2197.17 2183.86 M 2197.17 2183.86 L 2583.71 2471.47 M 3623.38 4193.42 L 3186.65 3989.95 M 3328.85 4170.82 L 3623.38 4193.42 M 3638.05 2975.92 L 3582.88 2589.78 M 2521 3771.92 L 2753.53 3474.23 M 2871.41 3630.86 L 2521 3771.92 M 2583.71 2471.47 L 2845.49 2726.5 M 3191.13 2468.05 L 2831.58 2316.82 M 2474.74 3192.84 L 1896.53 3065.16 M 1896.53 3065.16 L 2243.51 3385.24 M 2156.82 3325.85 L 1942.53 2905.22 M 2883.4 2944.71 L 2812.2 2663.76 M 2812.2 2663.76 L 2478.43 2960.87 M 2039.43 2682.36 L 2149.8 3156.42 M 2149.8 3156.42 L 2571.52 3008.71 M 2571.52 3008.71 L 2574.56 2721.19 M 4403.5 2985.21 L 4367.1 2638.07 M 3997.03 2755.31 L 4173.79 3059.75 M 4613.86 3061.62 L 4828.02 2677.43 M 4828.02 2677.43 L 4516.29 2654.89 M 4367.1 2638.07 L 4102.41 2471.87 M 2950.2 2645.56 L 3029.93 2921.82 M 3029.93 2921.82 L 3521.82 2544.44 M 2912.02 2656.3 L 2883.4 2944.71 M 3109.46 3682.88 L 3012.52 3256.8 M 2753.53 3474.23 L 3109.46 3682.88 M 3331.3 1968.38 L 3540.11 2239.62 M 4319.49 3887.11 L 4613.86 3061.62 M 3919.66 2071.78 L 3218.27 1546.28 M 3218.27 1546.28 L 3331.3 1968.38 M 4102.41 2471.87 L 3919.66 2071.78 M 3569.25 2726.2 L 3997.03 2755.31 M 3795.03 2951.12 L 3992.87 2659.94 M 3992.87 2659.94 L 3569.25 2726.2 M 4173.79 3059.75 L 4319.49 3887.11 M 4516.29 2654.89 L 4403.5 2985.21 M 3012.52 3256.8 L 3795.03 2951.12 M 3521.82 2544.44 L 2912.02 2656.3 M 1897.95 3058.87 L 2474.74 3192.84 M 2478.43 2960.87 L 2074.64 2689.08 M 3356.28 1950.86 L 3178.8 2450.25 M 3540.11 2239.62 L 3356.28 1950.86 M 3637.68 3439.68 L 3638.05 2975.92 M 3253.93 3074.13 L 3637.68 3439.68 M 3261.29 3765.82 L 2871.41 3630.86 M 3186.65 3989.95 L 3683.19 3573.3 M 3683.19 3573.3 L 3261.29 3765.82 M 1537.29 4849.08 L 1943.26 4404.77 M 1943.26 4404.77 L 1840.68 4219.89 M 1849.72 4959.12 L 2126.3 4779.86 M 1880.68 4427.51 L 1574.81 4945.82 M 3518.03 5484.28 L 3222.96 5258.78 M 2268.69 4501.2 L 2608.21 4289.65 M 2650.17 4380.8 L 2268.69 4501.2 M 2724.97 5109.61 L 2991.69 4848.28 M 2930.6 4346.7 L 2650.17 4380.8 M 2611.66 5591 L 2882.79 5702.73 M 2788.27 4741.61 L 2724.97 5109.61 M 3058.8 4794.18 L 2948.84 4471.47 M 2948.84 4471.47 L 2788.27 4741.61 M 2916.53 5218.45 L 3195.22 5084.82 M 3195.22 5084.82 L 3466.24 4830.92 M 3466.24 4830.92 L 3058.8 4794.18 M 3695.4 5788.49 L 3923.91 5535.47 M 3923.91 5535.47 L 3518.03 5484.28 M 2882.79 5702.73 L 3366.5 5834.61 M 3366.5 5834.61 L 2980.96 6155.12 M 2142.35 5659.83 L 2611.66 5591 M 2942.71 6445.86 L 3344.89 6194.38 M 2980.96 6155.12 L 2942.71 6445.86 M 3774.04 6092.74 L 3695.4 5788.49 M 3344.89 6194.38 L 3774.04 6092.74 M 2411.47 5297.92 L 2067.45 5296.98 M 1840.68 4219.89 L 1880.68 4427.51 M 2229.32 4184.77 L 2195.9 3925.97 M 2295.36 3932.32 L 2229.32 4184.77 M 2991.69 4848.28 L 3226.49 4651.67 M 1809.9 5432.2 L 1705.47 5720.09 M 1705.47 5720.09 L 2142.35 5659.83 M 2123.61 5486.29 L 2411.47 5297.92 M 2126.3 4779.86 L 1905.99 5025 M 3403.05 4189.13 L 2930.6 4346.7 M 2067.45 5296.98 L 1794.36 4974.67 M 1794.36 4974.67 L 1809.9 5432.2 M 3226.49 4651.67 L 3641.52 4844.87 M 3222.96 5258.78 L 2916.53 5218.45" />
<path fill="none" class="c" d=" M 3759.37 775.916 L 3190.79 967.091 M 3703.43 245.069 L 3190.79 967.091 M 3613.82 1254.4 L 3759.37 775.916 M 3613.82 1254.4 L 4126.76 1308.98 M 4046.86 1678.45 L 4126.76 1308.98 M 4046.86 1678.45 L 4588.04 2225.71 M 4046.86 1678.45 L 4230.12 2217.46 M 4230.12 2217.46 L 4588.04 2225.71 M 4487.16 2609.84 L 4588.04 2225.71 M 4781.68 2726.65 L 4588.04 2225.71 M 4487.16 2609.84 L 4781.68 2726.65 M 4593.93 2893.6 L 4781.68 2726.65 M 4487.16 2609.84 L 4593.93 2893.6 M 4030.25 2503.71 L 4593.93 2893.6 M 4030.25 2503.71 L 4222.03 2888.11 M 4588.04 2225.71 L 4126.76 1308.98 M 4498.49 1552.71 L 4126.76 1308.98 M 3681.3 2650.03 L 4222.03 2888.11 M 3681.3 2650.03 L 3605.81 3068.25 M 3388.28 3115.98 L 3605.81 3068.25 M 3388.28 3115.98 L 3924.45 3509.02 M 3924.45 3509.02 L 3605.81 3068.25 M 3924.45 3509.02 L 4103.9 3234.38 M 3388.28 3115.98 L 3772.23 3646.56 M 4103.9 3234.38 L 3605.81 3068.25 M 3681.3 2650.03 L 3388.28 3115.98 M 3191.13 2468.05 L 3388.28 3115.98 M 3191.13 2468.05 L 3060.35 2969.19 M 3924.45 3509.02 L 4387.89 3152.71 M 4524.22 3455.92 L 4387.89 3152.71 M 4524.22 3455.92 L 4706.15 2867 M 4706.15 2867 L 4387.89 3152.71 M 4387.89 3152.71 L 4103.9 3234.38 M 4263.94 2924.95 L 4103.9 3234.38 M 4588.04 2225.71 L 4498.49 1552.71 M 4883.56 2320.72 L 4498.49 1552.71 M 4743.99 1714.25 L 4498.49 1552.71 M 4883.56 2320.72 L 4743.99 1714.25 M 3357.28 3780.37 L 3772.23 3646.56 M 3478 4057.84 L 3772.23 3646.56 M 4002.51 3810.26 L 3772.23 3646.56 M 3478 4057.84 L 4002.51 3810.26 M 3557.76 4450.29 L 4002.51 3810.26 M 3478 4057.84 L 3557.76 4450.29 M 3557.76 4450.29 L 4064.24 4154.59 M 3191.13 2468.05 L 2845.49 2726.5 M 2831.58 2316.82 L 2845.49 2726.5 M 4064.24 4154.59 L 4002.51 3810.26 M 4064.24 4154.59 L 4412.9 3853.18 M 3388.28 3115.98 L 3357.28 3780.37 M 4312.2 3448.74 L 3772.23 3646.56 M 4281.57 3195.58 L 3772.23 3646.56 M 4312.2 3448.74 L 4281.57 3195.58 M 3060.35 2969.19 L 3388.28 3115.98 M 3605.81 3068.25 L 4222.03 2888.11 M 4299.92 3151.7 L 4222.03 2888.11 M 3605.81 3068.25 L 4299.92 3151.7 M 4113.67 3373.87 L 4299.92 3151.7 M 3017.46 3713.02 L 3357.28 3780.37 M 3017.46 3713.02 L 3239.71 4031.76 M 4002.51 3810.26 L 4312.2 3448.74 M 4408.88 3738.64 L 4312.2 3448.74 M 3781.68 1812.2 L 4230.12 2217.46 M 3781.68 1812.2 L 3853.88 2177.18 M 3781.68 1812.2 L 3679.72 2217.68 M 3781.68 1812.2 L 3531.05 1891.7 M 3781.68 1812.2 L 3696.5 1420.72 M 3696.5 1420.72 L 3531.05 1891.7 M 3781.68 1812.2 L 3957.81 1337.45 M 3531.05 1891.7 L 3679.72 2217.68 M 3403.74 2516.61 L 3679.72 2217.68 M 3531.05 1891.7 L 3403.74 2516.61 M 3231.83 2356.66 L 3403.74 2516.61 M 3231.83 2356.66 L 3082.44 2675.97 M 2424.31 2490.01 L 3082.44 2675.97 M 2424.31 2490.01 L 2574.56 2721.19 M 2039.43 2682.36 L 2574.56 2721.19 M 2039.43 2682.36 L 2571.52 3008.71 M 2424.31 2490.01 L 2039.43 2682.36 M 2424.31 2490.01 L 2098.38 2469.03 M 2557.9 2268.8 L 2098.38 2469.03 M 2557.9 2268.8 L 2259.36 1931.35 M 2259.36 1931.35 L 2098.38 2469.03 M 2259.36 1931.35 L 1950.87 2015.18 M 2424.31 2490.01 L 2557.9 2268.8 M 2744.12 1899.95 L 2259.36 1931.35 M 2744.12 1899.95 L 2307.71 1558.72 M 2620.1 1595.63 L 2307.71 1558.72 M 2620.1 1595.63 L 2315.7 1260.86 M 2685.92 1294.05 L 2315.7 1260.86 M 2685.92 1294.05 L 2464.38 1174.76 M 1950.87 2015.18 L 2098.38 2469.03 M 1950.87 2015.18 L 1775.77 2498.2 M 1775.77 2498.2 L 2098.38 2469.03 M 1735.33 2684.23 L 2098.38 2469.03 M 1735.33 2684.23 L 2074.64 2689.08 M 1775.77 2498.2 L 1735.33 2684.23 M 1713.29 2013.95 L 1775.77 2498.2 M 1713.29 2013.95 L 1492.68 2540.31 M 1897.95 3058.87 L 2074.64 2689.08 M 1897.95 3058.87 L 2478.43 2960.87 M 1950.87 2015.18 L 1713.29 2013.95 M 2474.74 3192.84 L 2478.43 2960.87 M 2883.4 2944.71 L 2478.43 2960.87 M 2474.74 3192.84 L 2883.4 2944.71 M 2474.74 3192.84 L 3012.52 3256.8 M 2474.74 3192.84 L 2753.53 3474.23 M 2474.74 3192.84 L 2243.51 3385.24 M 2243.51 3385.24 L 2753.53 3474.23 M 2753.53 3474.23 L 3012.52 3256.8 M 3012.52 3256.8 L 2883.4 2944.71 M 3795.03 2951.12 L 2883.4 2944.71 M 3795.03 2951.12 L 2912.02 2656.3 M 3569.25 2726.2 L 2912.02 2656.3 M 3795.03 2951.12 L 3569.25 2726.2 M 3569.25 2726.2 L 3521.82 2544.44 M 3997.03 2755.31 L 3521.82 2544.44 M 3997.03 2755.31 L 4102.41 2471.87 M 3997.03 2755.31 L 4367.1 2638.07 M 4102.41 2471.87 L 3521.82 2544.44 M 3540.11 2239.62 L 3521.82 2544.44 M 3178.8 2450.25 L 3521.82 2544.44 M 2950.2 2645.56 L 3521.82 2544.44 M 3540.11 2239.62 L 3178.8 2450.25 M 3178.8 2450.25 L 2950.2 2645.56 M 2203.42 1559.79 L 1950.87 2015.18 M 2203.42 1559.79 L 2074.09 1432.82 M 2074.09 1432.82 L 1950.87 2015.18 M 2243.51 3385.24 L 2521 3771.92 M 2070.42 3548.1 L 2521 3771.92 M 2295.36 3932.32 L 2521 3771.92 M 2833.5 4119.23 L 2521 3771.92 M 2295.36 3932.32 L 2833.5 4119.23 M 2295.36 3932.32 L 2608.21 4289.65 M 2229.32 4184.77 L 2608.21 4289.65 M 2229.32 4184.77 L 2268.69 4501.2 M 1880.68 4427.51 L 2268.69 4501.2 M 1880.68 4427.51 L 2126.3 4779.86 M 2126.3 4779.86 L 2268.69 4501.2 M 2229.32 4184.77 L 1880.68 4427.51 M 2229.32 4184.77 L 1840.68 4219.89 M 2126.3 4779.86 L 2724.97 5109.61 M 2724.97 5109.61 L 2268.69 4501.2 M 2724.97 5109.61 L 2650.17 4380.8 M 2195.9 3925.97 L 1840.68 4219.89 M 2991.69 4848.28 L 2650.17 4380.8 M 2991.69 4848.28 L 2930.6 4346.7 M 3226.49 4651.67 L 2930.6 4346.7 M 2411.47 5297.92 L 2724.97 5109.61 M 2411.47 5297.92 L 2611.66 5591 M 2067.45 5296.98 L 2611.66 5591 M 2611.66 5591 L 2724.97 5109.61 M 2916.53 5218.45 L 2724.97 5109.61 M 3058.8 4794.18 L 2724.97 5109.61 M 3058.8 4794.18 L 2788.27 4741.61 M 2916.53 5218.45 L 3058.8 4794.18 M 3195.22 5084.82 L 3058.8 4794.18 M 2067.45 5296.98 L 2142.35 5659.83 M 1809.9 5432.2 L 2142.35 5659.83 M 2067.45 5296.98 L 1809.9 5432.2 M 2611.66 5591 L 2916.53 5218.45 M 2611.66 5591 L 3222.96 5258.78 M 2882.79 5702.73 L 3222.96 5258.78 M 2882.79 5702.73 L 3518.03 5484.28 M 2017.22 3518.19 L 1840.68 4219.89 M 2017.22 3518.19 L 1585.85 3962.9 M 2017.22 3518.19 L 1523.27 3376.54 M 2156.82 3325.85 L 1523.27 3376.54 M 1942.53 2905.22 L 1523.27 3376.54 M 1585.85 3962.9 L 1840.68 4219.89 M 1585.85 3962.9 L 1329.85 4444.92 M 1329.85 4444.92 L 1840.68 4219.89 M 1329.85 4444.92 L 1537.29 4849.08 M 1537.29 4849.08 L 1840.68 4219.89 M 2126.3 4779.86 L 2411.47 5297.92 M 1905.99 5025 L 2411.47 5297.92 M 1880.68 4427.51 L 1849.72 4959.12 M 1574.81 4945.82 L 1849.72 4959.12 M 3366.5 5834.61 L 3518.03 5484.28 M 3695.4 5788.49 L 3518.03 5484.28 M 3366.5 5834.61 L 3695.4 5788.49 M 3344.89 6194.38 L 3695.4 5788.49 M 3366.5 5834.61 L 3344.89 6194.38 M 2980.96 6155.12 L 3344.89 6194.38 M 2074.09 1432.82 L 1674.45 1415.9 M 1904.29 1313.68 L 1674.45 1415.9 M 1905.99 5025 L 2123.61 5486.29 M 1613.21 5322.12 L 2123.61 5486.29 M 3231.83 2356.66 L 2424.31 2490.01 M 3231.83 2356.66 L 2589.37 2068 M 3156.33 2088.96 L 2589.37 2068 M 4102.41 2471.87 L 3540.11 2239.62 M 3919.66 2071.78 L 3540.11 2239.62 M 3919.66 2071.78 L 3331.3 1968.38 M 1419.75 2114.24 L 1492.68 2540.31 M 3696.5 1420.72 L 3207.99 1785.18 M 3022.82 1381.3 L 3207.99 1785.18 M 3022.82 1381.3 L 2853.55 1713.53 M 2710.37 1288.49 L 2853.55 1713.53 M 2710.37 1288.49 L 2580.09 1477.48 M 2580.09 1477.48 L 2853.55 1713.53 M 2710.37 1288.49 L 2302.8 1551.46 M 2399.04 1218.18 L 2302.8 1551.46 M 2162.68 1076.03 L 2302.8 1551.46 M 3022.82 1381.3 L 2710.37 1288.49 M 3022.82 1381.3 L 2758.8 978.841 M 2618.99 1745.54 L 2853.55 1713.53 M 2162.68 1076.03 L 1996.42 1679.42 M 1878.06 1322.73 L 1996.42 1679.42 M 2302.8 1551.46 L 2580.09 1477.48 M 2399.04 1218.18 L 2162.68 1076.03 M 2333.29 1009.42 L 2162.68 1076.03 M 2399.04 1218.18 L 2333.29 1009.42 M 2437.9 883.539 L 2333.29 1009.42 M 2399.04 1218.18 L 2437.9 883.539 M 2717.12 1244.56 L 2437.9 883.539 M 2580.09 1477.48 L 2618.99 1745.54 M 2396.07 1757.3 L 2618.99 1745.54 M 2396.07 1757.3 L 2407.73 2087.59 M 2407.73 2087.59 L 2618.99 1745.54 M 2407.73 2087.59 L 2737.77 1901.32 M 2741.59 932.104 L 2437.9 883.539 M 2741.59 932.104 L 2627.22 791.53 M 2175.03 1865.53 L 2407.73 2087.59 M 2175.03 1865.53 L 2271.31 2312.6 M 2175.03 1865.53 L 2081.87 2177.99 M 2271.31 2312.6 L 2407.73 2087.59 M 1896.14 1877.94 L 2081.87 2177.99 M 2407.73 2087.59 L 2803.1 2157.76 M 2512.27 2337.29 L 2803.1 2157.76 M 2627.22 791.53 L 2437.9 883.539 M 2545.65 732.445 L 2437.9 883.539 M 2162.68 1076.03 L 1878.06 1322.73 M 1792.54 948.682 L 1878.06 1322.73 M 2717.79 1914.7 L 2853.55 1713.53 M 2717.79 1914.7 L 3143.11 1930.13 M 2868.84 2157.39 L 3143.11 1930.13 M 3208.23 963.48 L 2758.8 978.841 M 3208.23 963.48 L 2804.18 719.217 M 2396.07 1757.3 L 2175.03 1865.53 M 2396.07 1757.3 L 2077.39 1630.52 M 4173.79 3059.75 L 4367.1 2638.07 M 4173.79 3059.75 L 4403.5 2985.21 M 4319.49 3887.11 L 4403.5 2985.21 M 4613.86 3061.62 L 4403.5 2985.21 M 4613.86 3061.62 L 4516.29 2654.89 M 2557.9 2268.8 L 2744.12 1899.95 M 2890.8 2372.72 L 2744.12 1899.95 M 2545.65 732.445 L 2080.08 871.296 M 2354.16 634.6 L 2080.08 871.296 M 2354.16 634.6 L 2116.78 697.266 M 2116.78 697.266 L 2080.08 871.296 M 3403.74 2516.61 L 3582.88 2589.78 M 3172.78 2790.99 L 3582.88 2589.78 M 3679.72 2217.68 L 3853.88 2177.18 M 1613.21 5322.12 L 1959.85 5875.71 M 1347.44 5654.39 L 1959.85 5875.71 M 1713.29 2013.95 L 1419.75 2114.24 M 3156.33 2088.96 L 3064.41 1858.45 M 1006.53 3939.36 L 1329.85 4444.92 M 1006.53 3939.36 L 909.091 4458.4 M 2685.92 1294.05 L 2548.86 1023.27 M 2882.88 1028.22 L 2548.86 1023.27 M 1374.23 1743.49 L 1419.75 2114.24 M 1374.23 1743.49 L 1119.58 2111.98 M 1051.59 1519.54 L 1119.58 2111.98 M 1051.59 1519.54 L 862.325 1724.74 M 2744.12 1899.95 L 2620.1 1595.63 M 1574.81 4945.82 L 1691.61 5345.12 M 1154.35 5152.33 L 1691.61 5345.12 M 1154.35 5152.33 L 1473.48 5710.44 M 930.455 5451.64 L 1473.48 5710.44 M 2271.31 2312.6 L 2479.19 2348.68 M 2303.96 2542.68 L 2479.19 2348.68 M 3186.65 3989.95 L 2521 3771.92 M 3186.65 3989.95 L 2871.41 3630.86 M 1329.85 4444.92 L 1083.11 4963.71 M 929.646 4575.52 L 1083.11 4963.71 M 2803.1 2157.76 L 2737.77 1901.32 M 2803.1 2157.76 L 3008.55 1992.93 M 3045.6 2432.02 L 3008.55 1992.93 M 3045.6 2432.02 L 3431.52 2377.92 M 3045.6 2432.02 L 3429.85 2599.25 M 3045.6 2432.02 L 3171.78 2614.72 M 3429.85 2599.25 L 3431.52 2377.92 M 3171.78 2614.72 L 3429.85 2599.25 M 2831.58 2316.82 L 2583.71 2471.47 M 2077.39 1630.52 L 2175.03 1865.53 M 1749.65 1874.76 L 2175.03 1865.53 M 1749.65 1874.76 L 1966.73 2051.39 M 1792.54 948.682 L 1509.62 1176.76 M 1504.44 1037.59 L 1509.62 1176.76 M 1504.44 1037.59 L 1195.57 1086.08 M 1195.57 1086.08 L 1509.62 1176.76 M 1195.57 1086.08 L 1396.17 1307.97 M 1215.54 916.791 L 1195.57 1086.08 M 1195.57 1086.08 L 1286.83 1440.5 M 1504.44 1037.59 L 1215.54 916.791 M 1515.73 899.095 L 1215.54 916.791 M 1495.21 648.724 L 1215.54 916.791 M 1495.21 648.724 L 1170.72 665.422 M 1400.75 464.043 L 1170.72 665.422 M 1400.75 464.043 L 1306.04 498.3 M 1306.04 498.3 L 1170.72 665.422 M 1504.44 1037.59 L 1515.73 899.095 M 1684.32 1482.14 L 1996.42 1679.42 M 1684.32 1482.14 L 1589.76 1720.51 M 1353.64 1492.34 L 1589.76 1720.51 M 1353.64 1492.34 L 1300.93 1774.64 M 4443.92 4353.98 L 4412.9 3853.18 M 4443.92 4353.98 L 4694.65 3976.27 M 4443.92 4353.98 L 4846.16 4177.68 M 4656.06 4600.8 L 4846.16 4177.68 M 4443.92 4353.98 L 4656.06 4600.8 M 4443.92 4353.98 L 4177.74 5023.37 M 4177.74 5023.37 L 4656.06 4600.8 M 4177.74 5023.37 L 4483.8 5153.69 M 3900.51 5304.26 L 4483.8 5153.69 M 4177.74 5023.37 L 3900.51 5304.26 M 4044.03 5552.24 L 4483.8 5153.69 M 4044.03 5552.24 L 4402.91 5455.78 M 4177.74 5023.37 L 3724.42 5197.2 M 3883.36 4766.25 L 3724.42 5197.2 M 3900.51 5304.26 L 4044.03 5552.24 M 3696.47 5333.19 L 4044.03 5552.24 M 1585.85 3962.9 L 1006.53 3939.36 M 1414.76 3398.58 L 1006.53 3939.36 M 3022.82 1381.3 L 3208.23 963.48 M 3656.97 1150.53 L 3208.23 963.48 M 1916.52 2497.63 L 1523.27 3376.54 M 1916.52 2497.63 L 1572.86 2409.82 M 1590.07 2191.87 L 1572.86 2409.82 M 1590.07 2191.87 L 1061.55 2402.13 M 4044.03 5552.24 L 4338.07 5799.59 M 3231.83 2356.66 L 3156.33 2088.96 M 3547.95 1903.02 L 3156.33 2088.96 M 1653.55 1425.99 L 1713.29 2013.95 M 1653.55 1425.99 L 1400.76 1713.22 M 618.845 3979.4 L 909.091 4458.4 M 618.845 3979.4 L 542.817 4380.37 M 618.845 3979.4 L 322.252 4258.43 M 3226.49 4651.67 L 3403.05 4189.13 M 3641.52 4844.87 L 3403.05 4189.13 M 3641.52 4844.87 L 3666.62 4055.77 M 4088.34 4404.9 L 3666.62 4055.77 M 4088.34 4404.9 L 4026.82 4117.62 M 3253.93 3074.13 L 3582.88 2589.78 M 3253.93 3074.13 L 3638.05 2975.92 M 4338.07 5799.59 L 4402.91 5455.78 M 4338.07 5799.59 L 4669.9 5788.36 M 4553.29 6123.09 L 4669.9 5788.36 M 4984.95 6064.52 L 4669.9 5788.36 M 4553.29 6123.09 L 4984.95 6064.52 M 4553.29 6123.09 L 4827.1 6261.33 M 4827.1 6261.33 L 4984.95 6064.52 M 4977.52 5741.8 L 4669.9 5788.36 M 1916.52 2497.63 L 1590.07 2191.87 M 1798.98 2224.55 L 1590.07 2191.87 M 3388.28 3115.98 L 3017.46 3713.02 M 2821 3186.32 L 3017.46 3713.02 M 1679.53 2160.13 L 1966.73 2051.39 M 1679.53 2160.13 L 1984.5 2231.07 M 2545.65 732.445 L 2354.16 634.6 M 4977.52 5741.8 L 4918.48 5441.81 M 5167.03 5505.91 L 4918.48 5441.81 M 3656.97 1150.53 L 3760.13 752.067 M 3431.52 2377.92 L 3008.55 1992.93 M 3431.52 2377.92 L 3350.75 1935.56 M 4332.57 1148.83 L 4126.76 1308.98 M 2162.68 1076.03 L 1792.54 948.682 M 2162.68 1076.03 L 2119.49 907.63 M 2119.49 907.63 L 1792.54 948.682 M 2119.49 907.63 L 2144.9 714.443 M 2144.9 714.443 L 1792.54 948.682 M 1710.76 701.596 L 1792.54 948.682 M 1710.76 701.596 L 1476.03 865.487 M 890.336 3316.82 L 1006.53 3939.36 M 890.336 3316.82 L 624.502 3862.18 M 3204.53 2049.75 L 2744.12 1899.95 M 3204.53 2049.75 L 3213.26 1874.76 M 3186.65 3989.95 L 3261.29 3765.82 M 2833.5 4119.23 L 3186.65 3989.95 M 3328.85 4170.82 L 3186.65 3989.95 M 2354.16 634.6 L 2075.29 397.182 M 2423.45 336.814 L 2075.29 397.182 M 2144.9 714.443 L 1710.76 701.596 M 1853.42 484.979 L 1710.76 701.596 M 1320.6 1338.32 L 1400.76 1713.22 M 1320.6 1338.32 L 1124.52 1434.05 M 3208.23 963.48 L 3212.96 497.786 M 3676.42 602.813 L 3212.96 497.786" />
<line x1="3551.197234" y1="662.691901" x2="3521.327863" y2="999.134372" class="t" />
<line x1="3375.622212" y1="404.053382" x2="3551.197234" y2="662.691901" class="t" />
<line x1="3833.315626" y1="1113.097461" x2="3521.327863" y2="999.134372" class="t" />
<line x1="3929.146615" y1="1413.942928" x2="3833.315626" y2="1113.097461" class="t" />
<line x1="4253.886189" y1="1737.714185" x2="3929.146615" y2="1413.942928" class="t" />
<line x1="4288.340948" y1="2040.540090" x2="4253.886189" y2="1737.714185" class="t" />
<line x1="4019.554538" y1="1902.702828" x2="4288.340948" y2="2040.540090" class="t" />
<line x1="4435.108442" y1="2351.002862" x2="4288.340948" y2="2040.540090" class="t" />
<line x1="4618.961006" y1="2520.734203" x2="4435.108442" y2="2351.002862" class="t" />
<line x1="4747.693401" y1="2433.451597" x2="4618.961006" y2="2520.734203" class="t" />
<line x1="4620.924815" y1="2743.363156" x2="4618.961006" y2="2520.734203" class="t" />
<line x1="4767.458075" y1="2873.045426" x2="4620.924815" y2="2743.363156" class="t" />
<line x1="4370.448254" y1="2669.047945" x2="4620.924815" y2="2743.363156" class="t" />
<line x1="4282.069523" y1="2761.805183" x2="4370.448254" y2="2669.047945" class="t" />
<line x1="3977.856944" y1="2680.616269" x2="4282.069523" y2="2761.805183" class="t" />
<line x1="4404.429301" y1="1695.800356" x2="4253.886189" y2="1737.714185" class="t" />
<line x1="4319.272858" y1="1336.839591" x2="4404.429301" y2="1695.800356" class="t" />
<line x1="3836.377548" y1="2868.798661" x2="3977.856944" y2="2680.616269" class="t" />
<line x1="3558.461730" y1="2944.754706" x2="3836.377548" y2="2868.798661" class="t" />
<line x1="3639.513441" y1="3231.084086" x2="3558.461730" y2="2944.754706" class="t" />
<line x1="3694.987735" y1="3423.854028" x2="3639.513441" y2="3231.084086" class="t" />
<line x1="3878.053193" y1="3270.551983" x2="3639.513441" y2="3231.084086" class="t" />
<line x1="4138.746502" y1="3298.705304" x2="3878.053193" y2="3270.551983" class="t" />
<line x1="3505.932169" y1="3514.304328" x2="3694.987735" y2="3423.854028" class="t" />
<line x1="3854.025235" y1="3059.133262" x2="3878.053193" y2="3270.551983" class="t" />
<line x1="3420.233388" y1="2744.687834" x2="3558.461730" y2="2944.754706" class="t" />
<line x1="3213.251919" y1="2851.073715" x2="3420.233388" y2="2744.687834" class="t" />
<line x1="3032.322431" y1="2721.247232" x2="3213.251919" y2="2851.073715" class="t" />
<line x1="4278.852225" y1="3372.549733" x2="4138.746502" y2="3298.705304" class="t" />
<line x1="4539.419220" y1="3158.543959" x2="4278.852225" y2="3372.549733" class="t" />
<line x1="4797.268289" y1="3156.186450" x2="4539.419220" y2="3158.543959" class="t" />
<line x1="4425.110006" y1="3005.242312" x2="4539.419220" y2="3158.543959" class="t" />
<line x1="4251.910882" y1="3104.015069" x2="4138.746502" y2="3298.705304" class="t" />
<line x1="4065.086432" y1="3031.350001" x2="4251.910882" y2="3104.015069" class="t" />
<line x1="4656.697886" y1="2033.045828" x2="4404.429301" y2="1695.800356" class="t" />
<line x1="4708.682198" y1="1862.558171" x2="4656.697886" y2="2033.045828" class="t" />
<line x1="4681.079294" y1="1515.344351" x2="4708.682198" y2="1862.558171" class="t" />
<line x1="4894.173536" y1="1929.428024" x2="4708.682198" y2="1862.558171" class="t" />
<line x1="3535.839326" y1="3828.256684" x2="3505.932169" y2="3514.304328" class="t" />
<line x1="3750.915025" y1="3838.219677" x2="3535.839326" y2="3828.256684" class="t" />
<line x1="4028.980155" y1="3635.188115" x2="3750.915025" y2="3838.219677" class="t" />
<line x1="3679.423035" y1="4106.130014" x2="3750.915025" y2="3838.219677" class="t" />
<line x1="3874.835265" y1="4138.379503" x2="3679.423035" y2="4106.130014" class="t" />
<line x1="3413.055519" y1="4245.226463" x2="3679.423035" y2="4106.130014" class="t" />
<line x1="4015.534325" y1="4330.654110" x2="3874.835265" y2="4138.379503" class="t" />
<line x1="2956.065359" y1="2503.790009" x2="3032.322431" y2="2721.247232" class="t" />
<line x1="2753.593502" y1="2504.929038" x2="2956.065359" y2="2503.790009" class="t" />
<line x1="4159.884010" y1="3939.341070" x2="3874.835265" y2="4138.379503" class="t" />
<line x1="4307.021539" y1="4120.583294" x2="4159.884010" y2="3939.341070" class="t" />
<line x1="3254.339452" y1="3536.454808" x2="3505.932169" y2="3514.304328" class="t" />
<line x1="4121.998513" y1="3430.295569" x2="4028.980155" y2="3635.188115" class="t" />
<line x1="3929.127329" y1="3429.075793" x2="4121.998513" y2="3430.295569" class="t" />
<line x1="4400.988087" y1="3465.006126" x2="4121.998513" y2="3430.295569" class="t" />
<line x1="3088.450113" y1="3069.936885" x2="3213.251919" y2="2851.073715" class="t" />
<line x1="4042.585688" y1="3036.023218" x2="3836.377548" y2="2868.798661" class="t" />
<line x1="4369.979784" y1="2998.117727" x2="4042.585688" y2="3036.023218" class="t" />
<line x1="4006.465432" y1="3197.942840" x2="4042.585688" y2="3036.023218" class="t" />
<line x1="4305.574830" y1="3303.120338" x2="4006.465432" y2="3197.942840" class="t" />
<line x1="3204.815167" y1="3841.715759" x2="3254.339452" y2="3536.454808" class="t" />
<line x1="3021.420375" y1="3988.676234" x2="3204.815167" y2="3841.715759" class="t" />
<line x1="4241.195536" y1="3665.880593" x2="4028.980155" y2="3635.188115" class="t" />
<line x1="4472.301452" y1="3605.203741" x2="4241.195536" y2="3665.880593" class="t" />
<line x1="3955.227951" y1="2068.946314" x2="4019.554538" y2="1902.702828" class="t" />
<line x1="3771.761943" y1="2069.021132" x2="3955.227951" y2="2068.946314" class="t" />
<line x1="3664.153521" y1="1973.860219" x2="3771.761943" y2="2069.021132" class="t" />
<line x1="3669.747286" y1="1708.204642" x2="3664.153521" y2="1973.860219" class="t" />
<line x1="3811.999098" y1="1523.455733" x2="3669.747286" y2="1708.204642" class="t" />
<line x1="3478.517431" y1="1699.200204" x2="3669.747286" y2="1708.204642" class="t" />
<line x1="3930.340730" y1="1695.301282" x2="3811.999098" y2="1523.455733" class="t" />
<line x1="3538.173361" y1="2208.663387" x2="3664.153521" y2="1973.860219" class="t" />
<line x1="3555.446838" y1="2441.358072" x2="3538.173361" y2="2208.663387" class="t" />
<line x1="3388.874299" y1="2254.988149" x2="3538.173361" y2="2208.663387" class="t" />
<line x1="3239.336947" y1="2516.410949" x2="3388.874299" y2="2254.988149" class="t" />
<line x1="2912.860303" y1="2507.546362" x2="3239.336947" y2="2516.410949" class="t" />
<line x1="2693.770170" y1="2629.058128" x2="2912.860303" y2="2507.546362" class="t" />
<line x1="2346.098442" y1="2631.188066" x2="2693.770170" y2="2629.058128" class="t" />
<line x1="2395.167395" y1="2804.086796" x2="2346.098442" y2="2631.188066" class="t" />
<line x1="2253.580694" y1="2949.163059" x2="2395.167395" y2="2804.086796" class="t" />
<line x1="2187.373963" y1="2547.134853" x2="2346.098442" y2="2631.188066" class="t" />
<line x1="2360.197285" y1="2409.281921" x2="2187.373963" y2="2547.134853" class="t" />
<line x1="2305.214240" y1="2223.061219" x2="2360.197285" y2="2409.281921" class="t" />
<line x1="2520.458750" y1="2033.368399" x2="2305.214240" y2="2223.061219" class="t" />
<line x1="2102.873364" y1="2138.521099" x2="2305.214240" y2="2223.061219" class="t" />
<line x1="2137.885402" y1="1835.438798" x2="2102.873364" y2="2138.521099" class="t" />
<line x1="2618.086977" y1="2393.014306" x2="2360.197285" y2="2409.281921" class="t" />
<line x1="2437.062852" y1="1796.675774" x2="2520.458750" y2="2033.368399" class="t" />
<line x1="2557.307061" y1="1684.766936" x2="2437.062852" y2="1796.675774" class="t" />
<line x1="2414.502648" y1="1471.737058" x2="2557.307061" y2="1684.766936" class="t" />
<line x1="2540.572602" y1="1383.513944" x2="2414.502648" y2="1471.737058" class="t" />
<line x1="2488.666941" y1="1243.224690" x2="2540.572602" y2="1383.513944" class="t" />
<line x1="2566.387451" y1="1164.025415" x2="2488.666941" y2="1243.224690" class="t" />
<line x1="1941.675601" y1="2327.471169" x2="2102.873364" y2="2138.521099" class="t" />
<line x1="1813.312595" y1="2175.777375" x2="1941.675601" y2="2327.471169" class="t" />
<line x1="1869.826473" y1="2550.487995" x2="1941.675601" y2="2327.471169" class="t" />
<line x1="1969.451619" y1="2614.113237" x2="1869.826473" y2="2550.487995" class="t" />
<line x1="1902.642086" y1="2810.726910" x2="1969.451619" y2="2614.113237" class="t" />
<line x1="1667.074893" y1="2566.177681" x2="1869.826473" y2="2550.487995" class="t" />
<line x1="1660.581419" y1="2350.819476" x2="1813.312595" y2="2175.777375" class="t" />
<line x1="1541.908914" y1="2222.831529" x2="1660.581419" y2="2350.819476" class="t" />
<line x1="2150.344506" y1="2902.940335" x2="1902.642086" y2="2810.726910" class="t" />
<line x1="2283.708851" y1="3070.860418" x2="2150.344506" y2="2902.940335" class="t" />
<line x1="1772.572212" y1="1818.374825" x2="1813.312595" y2="2175.777375" class="t" />
<line x1="2612.189958" y1="3032.807070" x2="2283.708851" y2="3070.860418" class="t" />
<line x1="2724.676074" y1="2856.448930" x2="2612.189958" y2="3032.807070" class="t" />
<line x1="2790.218876" y1="3131.452139" x2="2612.189958" y2="3032.807070" class="t" />
<line x1="2746.928780" y1="3307.958785" x2="2790.218876" y2="3131.452139" class="t" />
<line x1="2490.592014" y1="3350.770749" x2="2746.928780" y2="3307.958785" class="t" />
<line x1="2204.926432" y1="3214.412381" x2="2490.592014" y2="3350.770749" class="t" />
<line x1="2506.011409" y1="3543.797872" x2="2490.592014" y2="3350.770749" class="t" />
<line x1="2958.502018" y1="3471.305746" x2="2746.928780" y2="3307.958785" class="t" />
<line x1="3230.315962" y1="3050.879574" x2="2790.218876" y2="3131.452139" class="t" />
<line x1="3196.814687" y1="2850.710785" x2="3230.315962" y2="3050.879574" class="t" />
<line x1="3425.433278" y1="2777.872309" x2="3196.814687" y2="2850.710785" class="t" />
<line x1="3334.363121" y1="2642.312898" x2="3425.433278" y2="2777.872309" class="t" />
<line x1="3785.716133" y1="2779.086078" x2="3425.433278" y2="2777.872309" class="t" />
<line x1="3696.033003" y1="2675.316888" x2="3334.363121" y2="2642.312898" class="t" />
<line x1="3873.750973" y1="2590.540345" x2="3696.033003" y2="2675.316888" class="t" />
<line x1="4155.511617" y1="2621.748447" x2="3873.750973" y2="2590.540345" class="t" />
<line x1="4179.304454" y1="2817.708257" x2="4155.511617" y2="2621.748447" class="t" />
<line x1="3721.446224" y1="2418.643034" x2="3873.750973" y2="2590.540345" class="t" />
<line x1="3413.578584" y1="2411.435343" x2="3721.446224" y2="2418.643034" class="t" />
<line x1="3216.939633" y1="2546.749346" x2="3413.578584" y2="2411.435343" class="t" />
<line x1="3167.314381" y1="2703.940305" x2="3216.939633" y2="2546.749346" class="t" />
<line x1="3358.398786" y1="2213.574583" x2="3413.578584" y2="2411.435343" class="t" />
<line x1="3081.132068" y1="2419.543912" x2="3216.939633" y2="2546.749346" class="t" />
<line x1="2076.127565" y1="1669.262465" x2="2137.885402" y2="1835.438798" class="t" />
<line x1="2152.355944" y1="1418.462457" x2="2076.127565" y2="1669.262465" class="t" />
<line x1="1899.805464" y1="1621.301377" x2="2076.127565" y2="1669.262465" class="t" />
<line x1="2278.310554" y1="3568.421220" x2="2506.011409" y2="3543.797872" class="t" />
<line x1="2295.592987" y1="3750.780281" x2="2278.310554" y2="3568.421220" class="t" />
<line x1="2549.951998" y1="3941.155040" x2="2295.592987" y2="3750.780281" class="t" />
<line x1="2847.050251" y1="3960.364435" x2="2549.951998" y2="3941.155040" class="t" />
<line x1="2579.024192" y1="4113.732714" x2="2549.951998" y2="3941.155040" class="t" />
<line x1="2377.630661" y1="4135.579602" x2="2579.024192" y2="4113.732714" class="t" />
<line x1="2368.742812" y1="4325.206129" x2="2377.630661" y2="4135.579602" class="t" />
<line x1="2126.231672" y1="4371.157230" x2="2368.742812" y2="4325.206129" class="t" />
<line x1="2091.889834" y1="4569.521154" x2="2126.231672" y2="4371.157230" class="t" />
<line x1="1952.230821" y1="4722.161626" x2="2091.889834" y2="4569.521154" class="t" />
<line x1="2373.319207" y1="4796.889974" x2="2091.889834" y2="4569.521154" class="t" />
<line x1="1983.559771" y1="4277.389382" x2="2126.231672" y2="4371.157230" class="t" />
<line x1="2088.632743" y1="4110.211709" x2="1983.559771" y2="4277.389382" class="t" />
<line x1="2420.912317" y1="5062.463199" x2="2373.319207" y2="4796.889974" class="t" />
<line x1="2547.945738" y1="4663.868613" x2="2373.319207" y2="4796.889974" class="t" />
<line x1="2788.944150" y1="4779.562476" x2="2547.945738" y2="4663.868613" class="t" />
<line x1="2017.931339" y1="3888.018005" x2="2088.632743" y2="4110.211709" class="t" />
<line x1="2857.487894" y1="4525.259611" x2="2788.944150" y2="4779.562476" class="t" />
<line x1="3049.591936" y1="4615.552033" x2="2857.487894" y2="4525.259611" class="t" />
<line x1="3186.710906" y1="4395.836736" x2="3049.591936" y2="4615.552033" class="t" />
<line x1="2582.701053" y1="5332.843209" x2="2420.912317" y2="5062.463199" class="t" />
<line x1="2363.529114" y1="5395.297932" x2="2582.701053" y2="5332.843209" class="t" />
<line x1="2273.821982" y1="5515.935129" x2="2363.529114" y2="5395.297932" class="t" />
<line x1="2751.053861" y1="5306.353916" x2="2582.701053" y2="5332.843209" class="t" />
<line x1="2900.099079" y1="5040.748670" x2="2751.053861" y2="5306.353916" class="t" />
<line x1="2857.345749" y1="4881.800920" x2="2900.099079" y2="5040.748670" class="t" />
<line x1="2931.970685" y1="4669.086601" x2="2857.345749" y2="4881.800920" class="t" />
<line x1="3056.849777" y1="5032.485761" x2="2900.099079" y2="5040.748670" class="t" />
<line x1="3240.085645" y1="4903.310477" x2="3056.849777" y2="5032.485761" class="t" />
<line x1="2006.566625" y1="5463.002098" x2="2273.821982" y2="5515.935129" class="t" />
<line x1="1885.906024" y1="5604.039153" x2="2006.566625" y2="5463.002098" class="t" />
<line x1="1890.568328" y1="5234.615389" x2="2006.566625" y2="5463.002098" class="t" />
<line x1="2917.050043" y1="5356.078057" x2="2751.053861" y2="5306.353916" class="t" />
<line x1="2905.801325" y1="5517.504476" x2="2917.050043" y2="5356.078057" class="t" />
<line x1="3207.924212" y1="5481.931444" x2="2905.801325" y2="5517.504476" class="t" />
<line x1="3255.772092" y1="5673.873428" x2="3207.924212" y2="5481.931444" class="t" />
<line x1="1814.583389" y1="3900.328523" x2="2017.931339" y2="3888.018005" class="t" />
<line x1="1708.781748" y1="3619.211514" x2="1814.583389" y2="3900.328523" class="t" />
<line x1="1899.103492" y1="3406.859402" x2="1708.781748" y2="3619.211514" class="t" />
<line x1="1874.208474" y1="3202.536429" x2="1899.103492" y2="3406.859402" class="t" />
<line x1="1794.107932" y1="2926.463486" x2="1874.208474" y2="3202.536429" class="t" />
<line x1="1585.462056" y1="4209.239583" x2="1814.583389" y2="3900.328523" class="t" />
<line x1="1307.410993" y1="4115.727368" x2="1585.462056" y2="4209.239583" class="t" />
<line x1="1569.275399" y1="4504.630308" x2="1585.462056" y2="4209.239583" class="t" />
<line x1="1316.750886" y1="4752.568948" x2="1569.275399" y2="4504.630308" class="t" />
<line x1="1773.742874" y1="4491.248276" x2="1569.275399" y2="4504.630308" class="t" />
<line x1="2147.919734" y1="5034.259481" x2="2420.912317" y2="5062.463199" class="t" />
<line x1="2147.023131" y1="5269.735897" x2="2147.919734" y2="5034.259481" class="t" />
<line x1="1768.400841" y1="4777.481524" x2="1952.230821" y2="4722.161626" class="t" />
<line x1="1705.377553" y1="5083.353408" x2="1768.400841" y2="4777.481524" class="t" />
<line x1="3526.642185" y1="5702.459343" x2="3255.772092" y2="5673.873428" class="t" />
<line x1="3712.446067" y1="5602.746146" x2="3526.642185" y2="5702.459343" class="t" />
<line x1="3468.928275" y1="5939.159203" x2="3526.642185" y2="5702.459343" class="t" />
<line x1="3604.773932" y1="6025.203281" x2="3468.928275" y2="5939.159203" class="t" />
<line x1="3230.781476" y1="6061.371197" x2="3468.928275" y2="5939.159203" class="t" />
<line x1="3089.519188" y1="6265.121458" x2="3230.781476" y2="6061.371197" class="t" />
<line x1="1884.275585" y1="1387.466968" x2="1899.805464" y2="1621.301377" class="t" />
<line x1="1711.542932" y1="1276.312467" x2="1884.275585" y2="1387.466968" class="t" />
<line x1="1880.936531" y1="5277.803311" x2="2147.023131" y2="5269.735897" class="t" />
<line x1="1898.889944" y1="5561.372173" x2="1880.936531" y2="5277.803311" class="t" />
<line x1="2748.501206" y1="2304.889402" x2="2912.860303" y2="2507.546362" class="t" />
<line x1="2992.508772" y1="2171.206181" x2="2748.501206" y2="2304.889402" class="t" />
<line x1="2936.704835" y1="2005.136366" x2="2992.508772" y2="2171.206181" class="t" />
<line x1="3854.060476" y1="2261.090216" x2="3721.446224" y2="2418.643034" class="t" />
<line x1="3597.024043" y1="2093.259270" x2="3854.060476" y2="2261.090216" class="t" />
<line x1="3489.743700" y1="1862.147989" x2="3597.024043" y2="2093.259270" class="t" />
<line x1="1344.133204" y1="2261.392807" x2="1541.908914" y2="2222.831529" class="t" />
<line x1="3309.105780" y1="1529.066901" x2="3478.517431" y2="1699.200204" class="t" />
<line x1="3028.122417" y1="1626.670843" x2="3309.105780" y2="1529.066901" class="t" />
<line x1="2862.248436" y1="1461.104520" x2="3028.122417" y2="1626.670843" class="t" />
<line x1="2714.671363" y1="1493.162944" x2="2862.248436" y2="1461.104520" class="t" />
<line x1="2531.086012" y1="1439.139367" x2="2714.671363" y2="1493.162944" class="t" />
<line x1="2684.211641" y1="1645.513717" x2="2714.671363" y2="1493.162944" class="t" />
<line x1="2470.737019" y1="1352.707102" x2="2531.086012" y2="1439.139367" class="t" />
<line x1="2288.173637" y1="1281.889336" x2="2470.737019" y2="1352.707102" class="t" />
<line x1="2153.967801" y1="1435.637914" x2="2288.173637" y2="1281.889336" class="t" />
<line x1="2830.664076" y1="1216.208981" x2="2862.248436" y2="1461.104520" class="t" />
<line x1="2996.615954" y1="1107.873728" x2="2830.664076" y2="1216.208981" class="t" />
<line x1="2730.111228" y1="1791.254167" x2="2684.211641" y2="1645.513717" class="t" />
<line x1="2012.389696" y1="1359.394712" x2="2153.967801" y2="1435.637914" class="t" />
<line x1="1852.937240" y1="1494.762604" x2="2012.389696" y2="1359.394712" class="t" />
<line x1="2447.914271" y1="1606.457622" x2="2531.086012" y2="1439.139367" class="t" />
<line x1="2298.337804" y1="1101.211138" x2="2288.173637" y2="1281.889336" class="t" />
<line x1="2230.128126" y1="943.010548" x2="2298.337804" y2="1101.211138" class="t" />
<line x1="2390.077771" y1="1037.046568" x2="2298.337804" y2="1101.211138" class="t" />
<line x1="2284.350699" y1="912.949413" x2="2390.077771" y2="1037.046568" class="t" />
<line x1="2518.020272" y1="1115.424725" x2="2390.077771" y2="1037.046568" class="t" />
<line x1="2632.201928" y1="1020.066720" x2="2518.020272" y2="1115.424725" class="t" />
<line x1="2531.716175" y1="1660.103613" x2="2684.211641" y2="1645.513717" class="t" />
<line x1="2474.261644" y1="1863.476806" x2="2531.716175" y2="1660.103613" class="t" />
<line x1="2326.275357" y1="1903.474011" x2="2474.261644" y2="1863.476806" class="t" />
<line x1="2588.161876" y1="1911.483247" x2="2474.261644" y2="1863.476806" class="t" />
<line x1="2649.532787" y1="2048.890168" x2="2588.161876" y2="1911.483247" class="t" />
<line x1="2602.236809" y1="869.057656" x2="2632.201928" y2="1020.066720" class="t" />
<line x1="2733.629491" y1="802.733425" x2="2602.236809" y2="869.057656" class="t" />
<line x1="2284.689148" y1="2088.573692" x2="2326.275357" y2="1903.474011" class="t" />
<line x1="2176.070103" y1="2118.706987" x2="2284.689148" y2="2088.573692" class="t" />
<line x1="2051.015131" y1="1973.822621" x2="2176.070103" y2="2118.706987" class="t" />
<line x1="2386.075952" y1="2249.624637" x2="2284.689148" y2="2088.573692" class="t" />
<line x1="1914.806869" y1="2019.819311" x2="2051.015131" y2="1973.822621" class="t" />
<line x1="2574.365836" y1="2194.212934" x2="2649.532787" y2="2048.890168" class="t" />
<line x1="2690.506322" y1="2338.625448" x2="2574.365836" y2="2194.212934" class="t" />
<line x1="2536.924889" y1="802.504654" x2="2602.236809" y2="869.057656" class="t" />
<line x1="2354.545232" y1="829.093460" x2="2536.924889" y2="802.504654" class="t" />
<line x1="1944.428613" y1="1115.813988" x2="2012.389696" y2="1359.394712" class="t" />
<line x1="1726.740318" y1="1149.390123" x2="1944.428613" y2="1115.813988" class="t" />
<line x1="2904.818054" y1="1852.785546" x2="2730.111228" y2="1791.254167" class="t" />
<line x1="2909.914377" y1="2000.738293" x2="2904.818054" y2="1852.785546" class="t" />
<line x1="2980.176588" y1="2195.565767" x2="2909.914377" y2="2000.738293" class="t" />
<line x1="2923.734774" y1="887.179328" x2="2996.615954" y2="1107.873728" class="t" />
<line x1="3075.121564" y1="726.827566" x2="2923.734774" y2="887.179328" class="t" />
<line x1="2216.163844" y1="1751.117042" x2="2326.275357" y2="1903.474011" class="t" />
<line x1="2280.870209" y1="1619.954533" x2="2216.163844" y2="1751.117042" class="t" />
<line x1="4314.794298" y1="2894.341578" x2="4179.304454" y2="2817.708257" class="t" />
<line x1="4298.922713" y1="3310.690349" x2="4314.794298" y2="2894.341578" class="t" />
<line x1="4445.613580" y1="3311.313760" x2="4298.922713" y2="3310.690349" class="t" />
<line x1="4511.214598" y1="2900.572819" x2="4445.613580" y2="3311.313760" class="t" />
<line x1="4652.722207" y1="2797.980210" x2="4511.214598" y2="2900.572819" class="t" />
<line x1="2730.937793" y1="2180.492219" x2="2520.458750" y2="2033.368399" class="t" />
<line x1="2946.480549" y1="2107.476191" x2="2730.937793" y2="2180.492219" class="t" />
<line x1="2326.630182" y1="746.113964" x2="2354.545232" y2="829.093460" class="t" />
<line x1="2183.674565" y1="734.387475" x2="2326.630182" y2="746.113964" class="t" />
<line x1="2182.076047" y1="576.349310" x2="2183.674565" y2="734.387475" class="t" />
<line x1="2000.807301" y1="760.297011" x2="2183.674565" y2="734.387475" class="t" />
<line x1="3386.464233" y1="2632.459177" x2="3555.446838" y2="2441.358072" class="t" />
<line x1="3336.526398" y1="2818.301311" x2="3386.464233" y2="2632.459177" class="t" />
<line x1="3674.094310" y1="2315.408530" x2="3771.761943" y2="2069.021132" class="t" />
<line x1="1640.168790" y1="5617.404513" x2="1898.889944" y2="5561.372173" class="t" />
<line x1="1570.023240" y1="5910.579646" x2="1640.168790" y2="5617.404513" class="t" />
<line x1="1502.425135" y1="1957.225884" x2="1541.908914" y2="2222.831529" class="t" />
<line x1="3293.055325" y1="1891.823114" x2="2936.704835" y2="2005.136366" class="t" />
<line x1="1081.823388" y1="4280.892780" x2="1307.410993" y2="4115.727368" class="t" />
<line x1="844.820945" y1="4125.718250" x2="1081.823388" y2="4280.892780" class="t" />
<line x1="2705.886559" y1="1115.180062" x2="2566.387451" y2="1164.025415" class="t" />
<line x1="2764.054804" y1="943.274736" x2="2705.886559" y2="1115.180062" class="t" />
<line x1="1304.520544" y1="1989.902342" x2="1502.425135" y2="1957.225884" class="t" />
<line x1="1181.801444" y1="1791.669757" x2="1304.520544" y2="1989.902342" class="t" />
<line x1="1011.166389" y1="1785.419578" x2="1181.801444" y2="1791.669757" class="t" />
<line x1="866.027002" y1="1607.275486" x2="1011.166389" y2="1785.419578" class="t" />
<line x1="2731.923309" y1="1671.898580" x2="2557.307061" y2="1684.766936" class="t" />
<line x1="1473.588367" y1="5147.756444" x2="1705.377553" y2="5083.353408" class="t" />
<line x1="1439.812260" y1="5402.628517" x2="1473.588367" y2="5147.756444" class="t" />
<line x1="1186.094133" y1="5438.133909" x2="1439.812260" y2="5402.628517" class="t" />
<line x1="1169.206796" y1="5722.098824" x2="1186.094133" y2="5438.133909" class="t" />
<line x1="2351.487792" y1="2401.320858" x2="2386.075952" y2="2249.624637" class="t" />
<line x1="2457.084566" y1="2491.983040" x2="2351.487792" y2="2401.320858" class="t" />
<line x1="2859.686142" y1="3797.574707" x2="2847.050251" y2="3960.364435" class="t" />
<line x1="3106.450322" y1="3795.540243" x2="2859.686142" y2="3797.574707" class="t" />
<line x1="1114.201417" y1="4661.383544" x2="1316.750886" y2="4752.568948" class="t" />
<line x1="918.056731" y1="4884.827718" x2="1114.201417" y2="4661.383544" class="t" />
<line x1="2849.808292" y1="2017.335735" x2="2649.532787" y2="2048.890168" class="t" />
<line x1="2952.419588" y1="2194.238212" x2="2849.808292" y2="2017.335735" class="t" />
<line x1="3161.891830" y1="2267.623998" x2="2952.419588" y2="2194.238212" class="t" />
<line x1="3302.325754" y1="2469.730457" x2="3161.891830" y2="2267.623998" class="t" />
<line x1="3215.746895" y1="2548.663734" x2="3302.325754" y2="2469.730457" class="t" />
<line x1="3049.887164" y1="2587.392442" x2="3215.746895" y2="2548.663734" class="t" />
<line x1="3507.382700" y1="2396.626903" x2="3302.325754" y2="2469.730457" class="t" />
<line x1="3268.323353" y1="2704.719157" x2="3215.746895" y2="2548.663734" class="t" />
<line x1="2537.487080" y1="2324.049050" x2="2753.593502" y2="2504.929038" class="t" />
<line x1="2000.689821" y1="1790.269759" x2="2216.163844" y2="1751.117042" class="t" />
<line x1="1963.803513" y1="1930.557760" x2="2000.689821" y2="1790.269759" class="t" />
<line x1="1798.634961" y1="2028.757034" x2="1963.803513" y2="1930.557760" class="t" />
<line x1="1602.199176" y1="1054.343762" x2="1726.740318" y2="1149.390123" class="t" />
<line x1="1403.208553" y1="1100.143630" x2="1602.199176" y2="1054.343762" class="t" />
<line x1="1305.184117" y1="1013.486854" x2="1403.208553" y2="1100.143630" class="t" />
<line x1="1367.116772" y1="1190.271722" x2="1403.208553" y2="1100.143630" class="t" />
<line x1="1292.854821" y1="1278.185889" x2="1367.116772" y2="1190.271722" class="t" />
<line x1="1135.196872" y1="930.628560" x2="1305.184117" y2="1013.486854" class="t" />
<line x1="1215.258882" y1="1364.827686" x2="1292.854821" y2="1278.185889" class="t" />
<line x1="1411.905030" y1="951.158060" x2="1305.184117" y2="1013.486854" class="t" />
<line x1="1408.826923" y1="821.536463" x2="1411.905030" y2="951.158060" class="t" />
<line x1="1293.821482" y1="743.645343" x2="1408.826923" y2="821.536463" class="t" />
<line x1="1355.556523" y1="592.729510" x2="1293.821482" y2="743.645343" class="t" />
<line x1="1292.502219" y1="542.588181" x2="1355.556523" y2="592.729510" class="t" />
<line x1="1319.964879" y1="430.443022" x2="1292.502219" y2="542.588181" class="t" />
<line x1="1101.361625" y1="575.121757" x2="1292.502219" y2="542.588181" class="t" />
<line x1="1608.608431" y1="995.865989" x2="1411.905030" y2="951.158060" class="t" />
<line x1="1756.834910" y1="1627.355316" x2="1852.937240" y2="1494.762604" class="t" />
<line x1="1542.572544" y1="1564.993979" x2="1756.834910" y2="1627.355316" class="t" />
<line x1="1414.773752" y1="1662.495765" x2="1542.572544" y2="1564.993979" class="t" />
<line x1="1252.126372" y1="1645.943332" x2="1414.773752" y2="1662.495765" class="t" />
<line x1="4517.158063" y1="4061.145393" x2="4307.021539" y2="4120.583294" class="t" />
<line x1="4661.575803" y1="4169.310770" x2="4517.158063" y2="4061.145393" class="t" />
<line x1="4648.714020" y1="4377.487906" x2="4661.575803" y2="4169.310770" class="t" />
<line x1="4892.048465" y1="4379.099253" x2="4648.714020" y2="4377.487906" class="t" />
<line x1="4425.906959" y1="4659.387675" x2="4648.714020" y2="4377.487906" class="t" />
<line x1="4139.587267" y1="4770.633711" x2="4425.906959" y2="4659.387675" class="t" />
<line x1="4439.197919" y1="4925.956439" x2="4425.906959" y2="4659.387675" class="t" />
<line x1="4187.348965" y1="5160.441547" x2="4439.197919" y2="4925.956439" class="t" />
<line x1="4142.780128" y1="5336.728478" x2="4187.348965" y2="5160.441547" class="t" />
<line x1="3934.223248" y1="5174.943986" x2="4187.348965" y2="5160.441547" class="t" />
<line x1="4310.246938" y1="5387.235833" x2="4142.780128" y2="5336.728478" class="t" />
<line x1="4261.670382" y1="5602.534230" x2="4310.246938" y2="5387.235833" class="t" />
<line x1="3928.504080" y1="4995.606864" x2="3934.223248" y2="5174.943986" class="t" />
<line x1="3675.226559" y1="4853.303161" x2="3928.504080" y2="4995.606864" class="t" />
<line x1="3880.337684" y1="5396.560739" x2="4142.780128" y2="5336.728478" class="t" />
<line x1="3861.740071" y1="5681.890698" x2="3880.337684" y2="5396.560739" class="t" />
<line x1="1335.712332" y1="3766.947197" x2="1307.410993" y2="4115.727368" class="t" />
<line x1="1103.872995" y1="3551.587180" x2="1335.712332" y2="3766.947197" class="t" />
<line x1="3296.006693" y1="1165.103975" x2="2996.615954" y2="1107.873728" class="t" />
<line x1="3541.775866" y1="955.359809" x2="3296.006693" y2="1165.103975" class="t" />
<line x1="1670.885065" y1="2761.329783" x2="1794.107932" y2="2926.463486" class="t" />
<line x1="1693.150460" y1="2366.438973" x2="1670.885065" y2="2761.329783" class="t" />
<line x1="1408.162126" y1="2334.606379" x2="1693.150460" y2="2366.438973" class="t" />
<line x1="1181.205745" y1="2260.193408" x2="1408.162126" y2="2334.606379" class="t" />
<line x1="4199.402626" y1="5840.110018" x2="4261.670382" y2="5602.534230" class="t" />
<line x1="3312.037925" y1="2116.213618" x2="2992.508772" y2="2171.206181" class="t" />
<line x1="3397.868012" y1="1853.308864" x2="3312.037925" y2="2116.213618" class="t" />
<line x1="1589.201332" y1="1717.722308" x2="1772.572212" y2="1818.374825" class="t" />
<line x1="1458.302465" y1="1492.511917" x2="1589.201332" y2="1717.722308" class="t" />
<line x1="690.251124" y1="4272.724095" x2="844.820945" y2="4125.718250" class="t" />
<line x1="494.637994" y1="4206.067486" x2="690.251124" y2="4272.724095" class="t" />
<line x1="313.699113" y1="3979.333343" x2="494.637994" y2="4206.067486" class="t" />
<line x1="3423.684527" y1="4561.893163" x2="3186.710906" y2="4395.836736" class="t" />
<line x1="3570.394539" y1="4363.257186" x2="3423.684527" y2="4561.893163" class="t" />
<line x1="3798.824260" y1="4435.179159" x2="3570.394539" y2="4363.257186" class="t" />
<line x1="3927.256236" y1="4192.762231" x2="3798.824260" y2="4435.179159" class="t" />
<line x1="4147.210703" y1="4254.561868" x2="3927.256236" y2="4192.762231" class="t" />
<line x1="3491.619125" y1="2879.946310" x2="3336.526398" y2="2818.301311" class="t" />
<line x1="3509.885987" y1="3163.243888" x2="3491.619125" y2="2879.946310" class="t" />
<line x1="4470.294123" y1="5681.243709" x2="4261.670382" y2="5602.534230" class="t" />
<line x1="4520.418862" y1="5903.680631" x2="4470.294123" y2="5681.243709" class="t" />
<line x1="4736.047796" y1="5991.990762" x2="4520.418862" y2="5903.680631" class="t" />
<line x1="4877.457439" y1="5864.893035" x2="4736.047796" y2="5991.990762" class="t" />
<line x1="4788.446469" y1="6149.647729" x2="4736.047796" y2="5991.990762" class="t" />
<line x1="4718.293682" y1="6439.373450" x2="4788.446469" y2="6149.647729" class="t" />
<line x1="5043.858416" y1="6213.949594" x2="4788.446469" y2="6149.647729" class="t" />
<line x1="4855.301092" y1="5657.323915" x2="4877.457439" y2="5864.893035" class="t" />
<line x1="1768.523245" y1="2304.681500" x2="1693.150460" y2="2366.438973" class="t" />
<line x1="1679.629321" y1="2107.340066" x2="1768.523245" y2="2304.681500" class="t" />
<line x1="3075.578342" y1="3338.439760" x2="3254.339452" y2="3536.454808" class="t" />
<line x1="2738.636263" y1="3509.644242" x2="3075.578342" y2="3338.439760" class="t" />
<line x1="1876.918658" y1="2147.528286" x2="1798.634961" y2="2028.757034" class="t" />
<line x1="1767.115635" y1="2312.935460" x2="1876.918658" y2="2147.528286" class="t" />
<line x1="2515.309626" y1="697.462350" x2="2326.630182" y2="746.113964" class="t" />
<line x1="5021.011729" y1="5563.171438" x2="4855.301092" y2="5657.323915" class="t" />
<line x1="5077.734726" y1="5392.255643" x2="5021.011729" y2="5563.171438" class="t" />
<line x1="3773.937704" y1="800.157096" x2="3541.775866" y2="955.359809" class="t" />
<line x1="3263.606650" y1="2102.134597" x2="3161.891830" y2="2267.623998" class="t" />
<line x1="3496.314105" y1="2209.016184" x2="3263.606650" y2="2102.134597" class="t" />
<line x1="4185.534863" y1="1040.018287" x2="4319.272858" y2="1336.839591" class="t" />
<line x1="2024.903578" y1="977.448122" x2="1944.428613" y2="1115.813988" class="t" />
<line x1="2239.334629" y1="955.848806" x2="2024.903578" y2="977.448122" class="t" />
<line x1="2018.978034" y1="856.918304" x2="2024.903578" y2="977.448122" class="t" />
<line x1="2229.002710" y1="819.182863" x2="2018.978034" y2="856.918304" class="t" />
<line x1="1882.733600" y1="788.240273" x2="2018.978034" y2="856.918304" class="t" />
<line x1="1659.774245" y1="838.588256" x2="1882.733600" y2="788.240273" class="t" />
<line x1="1496.290418" y1="750.438482" x2="1659.774245" y2="838.588256" class="t" />
<line x1="840.454627" y1="3706.119335" x2="1103.872995" y2="3551.587180" class="t" />
<line x1="565.690267" y1="3508.690363" x2="840.454627" y2="3706.119335" class="t" />
<line x1="3053.966224" y1="1941.487041" x2="2946.480549" y2="2107.476191" class="t" />
<line x1="3328.138381" y1="1956.850178" x2="3053.966224" y2="1941.487041" class="t" />
<line x1="3377.045553" y1="3776.352440" x2="3106.450322" y2="3795.540243" class="t" />
<line x1="3116.336286" y1="4093.332434" x2="2847.050251" y2="3960.364435" class="t" />
<line x1="3379.628998" y1="4118.063801" x2="3116.336286" y2="4093.332434" class="t" />
<line x1="2284.299406" y1="456.198796" x2="2182.076047" y2="576.349310" class="t" />
<line x1="2214.955366" y1="274.300081" x2="2284.299406" y2="456.198796" class="t" />
<line x1="1903.027727" y1="633.672619" x2="1882.733600" y2="788.240273" class="t" />
<line x1="1692.757905" y1="537.750445" x2="1903.027727" y2="633.672619" class="t" />
<line x1="1281.961097" y1="1495.195834" x2="1458.302465" y2="1492.511917" class="t" />
<line x1="1150.642357" y1="1304.274249" x2="1281.961097" y2="1495.195834" class="t" />
<line x1="3365.870891" y1="688.026358" x2="3075.121564" y2="726.827566" class="t" />
<line x1="3533.223748" y1="450.984673" x2="3365.870891" y2="688.026358" class="t" />
</svg>
