<?xml version="1.0"?>
<svg width="2347" height="2643" version="1.1" xmlns="http://www.w3.org/2000/svg" >
<defs>
<style type="text/css"><![CDATA[
.m {stroke:rgb(255,0,0);stroke-width:3.303750;}
.v {stroke:rgb(0,0,255);stroke-width:3.303750;}
.b {stroke:rgb(0,0,0);stroke-width:6.607500;fill:white}
.n {stroke:rgb(128,128,128);stroke-width:3.303750}
.t {stroke:rgb(0,128,0);stroke-width:3.303750;}
.c {stroke:rgb(128,128,128);stroke-width:3.303750;stroke-dasharray:23.470000, 23.470000;}
]]></style>
</defs>
<line x1="662.866617" y1="627.272727" x2="662.866617" y2="827.272727" class="n" style="stroke-width:0.660750;" />
<line x1="662.866617" y1="827.272727" x2="979.094383" y2="727.272727" class="n" style="stroke-width:0.660750;" />
<line x1="979.094383" y1="727.272727" x2="662.866617" y2="627.272727" class="n" style="stroke-width:0.660750;" />
<line x1="346.638851" y1="727.272727" x2="662.866617" y2="827.272727" class="m" style="stroke-width:4.991054;" />
<line x1="662.866617" y1="627.272727" x2="346.638851" y2="727.272727" class="m" style="stroke-width:4.991054;" />
<line x1="979.094383" y1="727.272727" x2="979.094383" y2="527.272727" class="v" style="stroke-width:3.391194;" />
<line x1="979.094383" y1="527.272727" x2="662.866617" y2="627.272727" class="m" style="stroke-width:4.991054;" />
<line x1="979.094383" y1="927.272727" x2="979.094383" y2="727.272727" class="v" style="stroke-width:3.391194;" />
<line x1="662.866617" y1="827.272727" x2="979.094383" y2="927.272727" class="m" style="stroke-width:4.991054;" />
<line x1="864.102468" y1="363.636364" x2="547.874702" y2="463.636364" class="n" style="stroke-width:0.660750;" />
<line x1="547.874702" y1="463.636364" x2="662.866617" y2="627.272727" class="n" style="stroke-width:0.660750;" />
<line x1="662.866617" y1="627.272727" x2="864.102468" y2="363.636364" class="n" style="stroke-width:0.660750;" />
<line x1="547.874702" y1="463.636364" x2="346.638851" y2="727.272727" class="m" style="stroke-width:4.991054;" />
<line x1="864.102468" y1="363.636364" x2="749.110553" y2="200.000000" class="v" style="stroke-width:3.391194;" />
<line x1="749.110553" y1="200.000000" x2="547.874702" y2="463.636364" class="m" style="stroke-width:4.991054;" />
<line x1="979.094383" y1="527.272727" x2="864.102468" y2="363.636364" class="v" style="stroke-width:3.391194;" />
<line x1="560.941965" y1="132.231405" x2="359.706114" y2="395.867769" class="n" style="stroke-width:0.660750;" />
<line x1="359.706114" y1="395.867769" x2="547.874702" y2="463.636364" class="n" style="stroke-width:0.660750;" />
<line x1="547.874702" y1="463.636364" x2="560.941965" y2="132.231405" class="n" style="stroke-width:0.660750;" />
<line x1="359.706114" y1="395.867769" x2="346.638851" y2="727.272727" class="m" style="stroke-width:4.991054;" />
<line x1="560.941965" y1="132.231405" x2="372.773377" y2="64.462810" class="v" style="stroke-width:3.391194;" />
<line x1="372.773377" y1="64.462810" x2="359.706114" y2="395.867769" class="m" style="stroke-width:4.991054;" />
<line x1="749.110553" y1="200.000000" x2="560.941965" y2="132.231405" class="v" style="stroke-width:3.391194;" />
<line x1="864.102468" y1="1090.909091" x2="662.866617" y2="827.272727" class="n" style="stroke-width:0.660750;" />
<line x1="662.866617" y1="827.272727" x2="547.874702" y2="990.909091" class="n" style="stroke-width:0.660750;" />
<line x1="547.874702" y1="990.909091" x2="864.102468" y2="1090.909091" class="n" style="stroke-width:0.660750;" />
<line x1="346.638851" y1="727.272727" x2="547.874702" y2="990.909091" class="m" style="stroke-width:4.991054;" />
<line x1="864.102468" y1="1090.909091" x2="979.094383" y2="927.272727" class="v" style="stroke-width:3.391194;" />
<line x1="749.110553" y1="1254.545455" x2="864.102468" y2="1090.909091" class="v" style="stroke-width:3.391194;" />
<line x1="547.874702" y1="990.909091" x2="749.110553" y2="1254.545455" class="m" style="stroke-width:4.991054;" />
<line x1="2347.593205" y1="1220.135237" x2="2031.365439" y2="1120.135237" class="n" style="stroke-width:0.660750;" />
<line x1="2031.365439" y1="1120.135237" x2="2031.365439" y2="1320.135237" class="n" style="stroke-width:0.660750;" />
<line x1="2031.365439" y1="1320.135237" x2="2347.593205" y2="1220.135237" class="n" style="stroke-width:0.660750;" />
<line x1="2031.365439" y1="1120.135237" x2="1715.137673" y2="1220.135237" class="m" style="stroke-width:4.991054;" />
<line x1="1715.137673" y1="1220.135237" x2="2031.365439" y2="1320.135237" class="m" style="stroke-width:4.991054;" />
<line x1="662.866617" y1="2081.818182" x2="979.094383" y2="2181.818182" class="n" style="stroke-width:0.660750;" />
<line x1="979.094383" y1="2181.818182" x2="979.094383" y2="1981.818182" class="v" style="stroke-width:3.391194;" />
<line x1="979.094383" y1="1981.818182" x2="662.866617" y2="2081.818182" class="m" style="stroke-width:4.991054;" />
<line x1="2347.593205" y1="1420.135237" x2="2347.593205" y2="1220.135237" class="v" style="stroke-width:3.391194;" />
<line x1="2031.365439" y1="1320.135237" x2="2347.593205" y2="1420.135237" class="m" style="stroke-width:4.991054;" />
<line x1="1535.284616" y1="941.472577" x2="1728.204936" y2="888.730278" class="n" style="stroke-width:0.660750;" />
<line x1="1728.204936" y1="888.730278" x2="1548.351879" y2="610.067618" class="n" style="stroke-width:0.660750;" />
<line x1="1548.351879" y1="610.067618" x2="1535.284616" y2="941.472577" class="n" style="stroke-width:0.660750;" />
<line x1="1715.137673" y1="1220.135237" x2="1728.204936" y2="888.730278" class="m" style="stroke-width:4.991054;" />
<line x1="1535.284616" y1="941.472577" x2="1715.137673" y2="1220.135237" class="m" style="stroke-width:4.991054;" />
<line x1="1548.351879" y1="610.067618" x2="1355.431559" y2="662.809917" class="v" style="stroke-width:3.391194;" />
<line x1="1355.431559" y1="662.809917" x2="1535.284616" y2="941.472577" class="m" style="stroke-width:4.991054;" />
<line x1="372.773377" y1="1519.008264" x2="179.853057" y2="1571.750563" class="v" style="stroke-width:3.391194;" />
<line x1="179.853057" y1="1571.750563" x2="359.706114" y2="1850.413223" class="n" style="stroke-width:0.660750;" />
<line x1="359.706114" y1="1850.413223" x2="372.773377" y2="1519.008264" class="m" style="stroke-width:4.991054;" />
<line x1="359.706114" y1="1850.413223" x2="547.874702" y2="1918.181818" class="n" style="stroke-width:0.660750;" />
<line x1="547.874702" y1="1918.181818" x2="560.941965" y2="1586.776860" class="n" style="stroke-width:0.660750;" />
<line x1="560.941965" y1="1586.776860" x2="359.706114" y2="1850.413223" class="n" style="stroke-width:0.660750;" />
<line x1="1715.137673" y1="1220.135237" x2="1916.373524" y2="956.498873" class="m" style="stroke-width:4.991054;" />
<line x1="1916.373524" y1="956.498873" x2="1728.204936" y2="888.730278" class="n" style="stroke-width:0.660750;" />
<line x1="560.941965" y1="1586.776860" x2="372.773377" y2="1519.008264" class="v" style="stroke-width:3.391194;" />
<line x1="749.110553" y1="1654.545455" x2="560.941965" y2="1586.776860" class="v" style="stroke-width:3.391194;" />
<line x1="547.874702" y1="1918.181818" x2="749.110553" y2="1654.545455" class="m" style="stroke-width:4.991054;" />
<line x1="864.102468" y1="1818.181818" x2="547.874702" y2="1918.181818" class="n" style="stroke-width:0.660750;" />
<line x1="547.874702" y1="1918.181818" x2="662.866617" y2="2081.818182" class="n" style="stroke-width:0.660750;" />
<line x1="662.866617" y1="2081.818182" x2="864.102468" y2="1818.181818" class="n" style="stroke-width:0.660750;" />
<line x1="2031.365439" y1="1120.135237" x2="1916.373524" y2="956.498873" class="n" style="stroke-width:0.660750;" />
<line x1="864.102468" y1="1818.181818" x2="749.110553" y2="1654.545455" class="v" style="stroke-width:3.391194;" />
<line x1="979.094383" y1="1981.818182" x2="864.102468" y2="1818.181818" class="v" style="stroke-width:3.391194;" />
<line x1="773.106800" y1="911.419985" x2="966.027120" y2="858.677686" class="n" style="stroke-width:0.660750;" />
<line x1="966.027120" y1="858.677686" x2="786.174063" y2="580.015026" class="n" style="stroke-width:0.660750;" />
<line x1="786.174063" y1="580.015026" x2="773.106800" y2="911.419985" class="n" style="stroke-width:0.660750;" />
<line x1="773.106800" y1="911.419985" x2="952.959857" y2="1190.082645" class="m" style="stroke-width:4.991054;" />
<line x1="952.959857" y1="1190.082645" x2="966.027120" y2="858.677686" class="m" style="stroke-width:4.991054;" />
<line x1="593.253743" y1="632.757325" x2="773.106800" y2="911.419985" class="m" style="stroke-width:4.991054;" />
<line x1="786.174063" y1="580.015026" x2="593.253743" y2="632.757325" class="v" style="stroke-width:3.391194;" />
<line x1="966.027120" y1="858.677686" x2="979.094383" y2="527.272727" class="m" style="stroke-width:4.991054;" />
<line x1="979.094383" y1="527.272727" x2="786.174063" y2="580.015026" class="v" style="stroke-width:3.391194;" />
<line x1="966.027120" y1="858.677686" x2="1154.195708" y2="926.446281" class="n" style="stroke-width:0.660750;" />
<line x1="1154.195708" y1="926.446281" x2="1167.262971" y2="595.041322" class="n" style="stroke-width:0.660750;" />
<line x1="1167.262971" y1="595.041322" x2="966.027120" y2="858.677686" class="n" style="stroke-width:0.660750;" />
<line x1="952.959857" y1="1190.082645" x2="1154.195708" y2="926.446281" class="m" style="stroke-width:4.991054;" />
<line x1="1167.262971" y1="595.041322" x2="979.094383" y2="527.272727" class="v" style="stroke-width:3.391194;" />
<line x1="1355.431559" y1="662.809917" x2="1167.262971" y2="595.041322" class="v" style="stroke-width:3.391194;" />
<line x1="1154.195708" y1="926.446281" x2="1355.431559" y2="662.809917" class="m" style="stroke-width:4.991054;" />
<line x1="1295.322149" y1="2081.818182" x2="979.094383" y2="2181.818182" class="n" style="stroke-width:0.660750;" />
<line x1="979.094383" y1="2181.818182" x2="1295.322149" y2="2281.818182" class="n" style="stroke-width:0.660750;" />
<line x1="1295.322149" y1="2281.818182" x2="1295.322149" y2="2081.818182" class="n" style="stroke-width:0.660750;" />
<line x1="952.959857" y1="1190.082645" x2="1269.187623" y2="1090.082645" class="m" style="stroke-width:4.991054;" />
<line x1="1269.187623" y1="1090.082645" x2="1154.195708" y2="926.446281" class="n" style="stroke-width:0.660750;" />
<line x1="1154.195708" y1="926.446281" x2="1470.423474" y2="826.446281" class="n" style="stroke-width:0.660750;" />
<line x1="1470.423474" y1="826.446281" x2="1355.431559" y2="662.809917" class="v" style="stroke-width:3.391194;" />
<line x1="1295.322149" y1="2081.818182" x2="979.094383" y2="1981.818182" class="m" style="stroke-width:4.991054;" />
<line x1="465.734534" y1="786.831501" x2="645.587591" y2="1065.494160" class="n" style="stroke-width:0.660750;" />
<line x1="645.587591" y1="1065.494160" x2="773.106800" y2="911.419985" class="n" style="stroke-width:0.660750;" />
<line x1="773.106800" y1="911.419985" x2="465.734534" y2="786.831501" class="n" style="stroke-width:0.660750;" />
<line x1="645.587591" y1="1065.494160" x2="952.959857" y2="1190.082645" class="m" style="stroke-width:4.991054;" />
<line x1="465.734534" y1="786.831501" x2="338.215326" y2="940.905676" class="v" style="stroke-width:3.391194;" />
<line x1="338.215326" y1="940.905676" x2="645.587591" y2="1065.494160" class="m" style="stroke-width:4.991054;" />
<line x1="593.253743" y1="632.757325" x2="465.734534" y2="786.831501" class="v" style="stroke-width:3.391194;" />
<line x1="864.102468" y1="1818.181818" x2="1180.330234" y2="1718.181818" class="n" style="stroke-width:0.660750;" />
<line x1="1180.330234" y1="1718.181818" x2="1065.338319" y2="1554.545455" class="n" style="stroke-width:0.660750;" />
<line x1="1065.338319" y1="1554.545455" x2="864.102468" y2="1818.181818" class="n" style="stroke-width:0.660750;" />
<line x1="1381.566085" y1="1454.545455" x2="1065.338319" y2="1554.545455" class="m" style="stroke-width:4.991054;" />
<line x1="1180.330234" y1="1718.181818" x2="1381.566085" y2="1454.545455" class="m" style="stroke-width:4.991054;" />
<line x1="979.094383" y1="1981.818182" x2="1180.330234" y2="1718.181818" class="m" style="stroke-width:4.991054;" />
<line x1="1065.338319" y1="1554.545455" x2="749.110553" y2="1654.545455" class="m" style="stroke-width:4.991054;" />
<line x1="1180.330234" y1="1718.181818" x2="1167.262971" y2="2049.586777" class="n" style="stroke-width:0.660750;" />
<line x1="1167.262971" y1="2049.586777" x2="1368.498822" y2="1785.950413" class="n" style="stroke-width:0.660750;" />
<line x1="1368.498822" y1="1785.950413" x2="1180.330234" y2="1718.181818" class="n" style="stroke-width:0.660750;" />
<line x1="1368.498822" y1="1785.950413" x2="1381.566085" y2="1454.545455" class="m" style="stroke-width:4.991054;" />
<line x1="593.253743" y1="632.757325" x2="285.881477" y2="508.168841" class="m" style="stroke-width:4.991054;" />
<line x1="285.881477" y1="508.168841" x2="465.734534" y2="786.831501" class="n" style="stroke-width:0.660750;" />
<line x1="465.734534" y1="786.831501" x2="158.362269" y2="662.243016" class="n" style="stroke-width:0.660750;" />
<line x1="158.362269" y1="662.243016" x2="338.215326" y2="940.905676" class="m" style="stroke-width:4.991054;" />
<line x1="1180.330234" y1="1190.909091" x2="864.102468" y2="1090.909091" class="n" style="stroke-width:0.660750;" />
<line x1="864.102468" y1="1090.909091" x2="1065.338319" y2="1354.545455" class="n" style="stroke-width:0.660750;" />
<line x1="1065.338319" y1="1354.545455" x2="1180.330234" y2="1190.909091" class="n" style="stroke-width:0.660750;" />
<line x1="1065.338319" y1="1354.545455" x2="1381.566085" y2="1454.545455" class="m" style="stroke-width:4.991054;" />
<line x1="1381.566085" y1="1454.545455" x2="1180.330234" y2="1190.909091" class="m" style="stroke-width:4.991054;" />
<line x1="749.110553" y1="1254.545455" x2="1065.338319" y2="1354.545455" class="m" style="stroke-width:4.991054;" />
<line x1="1180.330234" y1="1190.909091" x2="979.094383" y2="927.272727" class="m" style="stroke-width:4.991054;" />
<line x1="749.110553" y1="1454.545455" x2="1065.338319" y2="1554.545455" class="n" style="stroke-width:0.660750;" />
<line x1="1065.338319" y1="1554.545455" x2="1065.338319" y2="1354.545455" class="n" style="stroke-width:0.660750;" />
<line x1="1065.338319" y1="1354.545455" x2="749.110553" y2="1454.545455" class="n" style="stroke-width:0.660750;" />
<line x1="749.110553" y1="1454.545455" x2="749.110553" y2="1654.545455" class="v" style="stroke-width:3.391194;" />
<line x1="749.110553" y1="1254.545455" x2="749.110553" y2="1454.545455" class="v" style="stroke-width:3.391194;" />
<line x1="634.118638" y1="1818.181818" x2="432.882787" y2="1554.545455" class="n" style="stroke-width:0.660750;" />
<line x1="432.882787" y1="1554.545455" x2="317.890872" y2="1718.181818" class="n" style="stroke-width:0.660750;" />
<line x1="317.890872" y1="1718.181818" x2="634.118638" y2="1818.181818" class="n" style="stroke-width:0.660750;" />
<line x1="116.655021" y1="1454.545455" x2="317.890872" y2="1718.181818" class="m" style="stroke-width:4.991054;" />
<line x1="432.882787" y1="1554.545455" x2="116.655021" y2="1454.545455" class="m" style="stroke-width:4.991054;" />
<line x1="749.110553" y1="1654.545455" x2="432.882787" y2="1554.545455" class="m" style="stroke-width:4.991054;" />
<line x1="634.118638" y1="1818.181818" x2="749.110553" y2="1654.545455" class="v" style="stroke-width:3.391194;" />
<line x1="317.890872" y1="1718.181818" x2="519.126723" y2="1981.818182" class="m" style="stroke-width:4.991054;" />
<line x1="519.126723" y1="1981.818182" x2="634.118638" y2="1818.181818" class="v" style="stroke-width:3.391194;" />
<line x1="432.882787" y1="1554.545455" x2="749.110553" y2="1454.545455" class="n" style="stroke-width:0.660750;" />
<line x1="749.110553" y1="1454.545455" x2="432.882787" y2="1354.545455" class="n" style="stroke-width:0.660750;" />
<line x1="432.882787" y1="1354.545455" x2="432.882787" y2="1554.545455" class="n" style="stroke-width:0.660750;" />
<line x1="432.882787" y1="1354.545455" x2="116.655021" y2="1454.545455" class="m" style="stroke-width:4.991054;" />
<line x1="749.110553" y1="1254.545455" x2="432.882787" y2="1354.545455" class="m" style="stroke-width:4.991054;" />
<line x1="432.882787" y1="1354.545455" x2="634.118638" y2="1090.909091" class="n" style="stroke-width:0.660750;" />
<line x1="634.118638" y1="1090.909091" x2="317.890872" y2="1190.909091" class="n" style="stroke-width:0.660750;" />
<line x1="317.890872" y1="1190.909091" x2="432.882787" y2="1354.545455" class="n" style="stroke-width:0.660750;" />
<line x1="317.890872" y1="1190.909091" x2="116.655021" y2="1454.545455" class="m" style="stroke-width:4.991054;" />
<line x1="519.126723" y1="927.272727" x2="317.890872" y2="1190.909091" class="m" style="stroke-width:4.991054;" />
<line x1="634.118638" y1="1090.909091" x2="519.126723" y2="927.272727" class="v" style="stroke-width:3.391194;" />
<line x1="749.110553" y1="1254.545455" x2="634.118638" y2="1090.909091" class="v" style="stroke-width:3.391194;" />
<line x1="330.958135" y1="2049.586777" x2="317.890872" y2="1718.181818" class="n" style="stroke-width:0.660750;" />
<line x1="317.890872" y1="1718.181818" x2="129.722284" y2="1785.950413" class="n" style="stroke-width:0.660750;" />
<line x1="129.722284" y1="1785.950413" x2="330.958135" y2="2049.586777" class="n" style="stroke-width:0.660750;" />
<line x1="116.655021" y1="1454.545455" x2="129.722284" y2="1785.950413" class="m" style="stroke-width:4.991054;" />
<line x1="330.958135" y1="2049.586777" x2="519.126723" y2="1981.818182" class="v" style="stroke-width:3.391194;" />
<line x1="142.789547" y1="2117.355372" x2="330.958135" y2="2049.586777" class="v" style="stroke-width:3.391194;" />
<line x1="129.722284" y1="1785.950413" x2="142.789547" y2="2117.355372" class="m" style="stroke-width:4.991054;" />
<line x1="1180.330234" y1="263.636364" x2="1065.338319" y2="100.000000" class="n" style="stroke-width:0.660750;" />
<line x1="1065.338319" y1="100.000000" x2="864.102468" y2="363.636364" class="n" style="stroke-width:0.660750;" />
<line x1="864.102468" y1="363.636364" x2="1180.330234" y2="263.636364" class="n" style="stroke-width:0.660750;" />
<line x1="1180.330234" y1="263.636364" x2="1381.566085" y2="0.000000" class="m" style="stroke-width:4.991054;" />
<line x1="1381.566085" y1="0.000000" x2="1065.338319" y2="100.000000" class="m" style="stroke-width:4.991054;" />
<line x1="979.094383" y1="527.272727" x2="1180.330234" y2="263.636364" class="m" style="stroke-width:4.991054;" />
<line x1="1065.338319" y1="100.000000" x2="749.110553" y2="200.000000" class="m" style="stroke-width:4.991054;" />
<line x1="532.193986" y1="2313.223140" x2="330.958135" y2="2049.586777" class="n" style="stroke-width:0.660750;" />
<line x1="330.958135" y1="2049.586777" x2="344.025398" y2="2380.991736" class="n" style="stroke-width:0.660750;" />
<line x1="344.025398" y1="2380.991736" x2="532.193986" y2="2313.223140" class="n" style="stroke-width:0.660750;" />
<line x1="545.261249" y1="2644.628099" x2="532.193986" y2="2313.223140" class="m" style="stroke-width:4.991054;" />
<line x1="344.025398" y1="2380.991736" x2="545.261249" y2="2644.628099" class="m" style="stroke-width:4.991054;" />
<line x1="142.789547" y1="2117.355372" x2="344.025398" y2="2380.991736" class="m" style="stroke-width:4.991054;" />
<line x1="532.193986" y1="2313.223140" x2="519.126723" y2="1981.818182" class="m" style="stroke-width:4.991054;" />
<line x1="0.000000" y1="1293.087904" x2="179.853057" y2="1571.750563" class="n" style="stroke-width:0.660750;" />
<line x1="179.853057" y1="1571.750563" x2="192.920320" y2="1240.345605" class="n" style="stroke-width:0.660750;" />
<line x1="192.920320" y1="1240.345605" x2="0.000000" y2="1293.087904" class="n" style="stroke-width:0.660750;" />
<line x1="1381.566085" y1="0.000000" x2="1368.498822" y2="331.404959" class="m" style="stroke-width:4.991054;" />
<line x1="1368.498822" y1="331.404959" x2="1561.419142" y2="278.662660" class="n" style="stroke-width:0.660750;" />
<line x1="1561.419142" y1="278.662660" x2="1381.566085" y2="0.000000" class="m" style="stroke-width:4.991054;" />
<line x1="372.773377" y1="1519.008264" x2="192.920320" y2="1240.345605" class="m" style="stroke-width:4.991054;" />
<line x1="1548.351879" y1="610.067618" x2="1368.498822" y2="331.404959" class="n" style="stroke-width:0.660750;" />
<line x1="1368.498822" y1="331.404959" x2="1355.431559" y2="662.809917" class="m" style="stroke-width:4.991054;" />
<line x1="1167.262971" y1="595.041322" x2="1368.498822" y2="331.404959" class="n" style="stroke-width:0.660750;" />
<line x1="1368.498822" y1="331.404959" x2="1180.330234" y2="263.636364" class="n" style="stroke-width:0.660750;" />
<line x1="1180.330234" y1="263.636364" x2="1167.262971" y2="595.041322" class="n" style="stroke-width:0.660750;" />
<text x="662.866617" y="717.884727" transform="rotate(89.999995 662.866617 717.884727)" fill="darkgreen" font-weight="bold" font-size="46.940000">0</text>
<text x="662.866617" y="736.660727" transform="rotate(-89.999995 662.866617 736.660727)" fill="darkgreen" font-weight="bold" font-size="46.940000">0</text>
<text x="979.094383" y="636.660727" transform="rotate(-89.999995 979.094383 636.660727)" fill="darkgreen" font-weight="bold" font-size="46.940000">6</text>
<text x="891.689903" y="551.168153" transform="rotate(164.709587 891.689903 551.168153)" fill="darkgreen" font-weight="bold" font-size="46.940000">6</text>
<text x="698.769583" y="603.910452" transform="rotate(164.709587 698.769583 603.910452)" fill="darkgreen" font-weight="bold" font-size="46.940000">7</text>
<text x="979.094383" y="836.660727" transform="rotate(-89.999995 979.094383 836.660727)" fill="darkgreen" font-weight="bold" font-size="46.940000">7</text>
<text x="610.768380" y="553.135636" transform="rotate(-125.096794 610.768380 553.135636)" fill="darkgreen" font-weight="bold" font-size="46.940000">9</text>
<text x="599.972939" y="537.773455" transform="rotate(54.903196 599.972939 537.773455)" fill="darkgreen" font-weight="bold" font-size="46.940000">9</text>
<text x="553.668573" y="316.695306" transform="rotate(-87.741998 553.668573 316.695306)" fill="darkgreen" font-weight="bold" font-size="46.940000">17</text>
<text x="555.148094" y="279.172463" transform="rotate(92.257992 555.148094 279.172463)" fill="darkgreen" font-weight="bold" font-size="46.940000">17</text>
<text x="353.912243" y="542.808827" transform="rotate(92.257992 353.912243 542.808827)" fill="darkgreen" font-weight="bold" font-size="46.940000">19</text>
<text x="435.864459" y="844.165988" transform="rotate(52.645199 435.864459 844.165988)" fill="darkgreen" font-weight="bold" font-size="46.940000">19</text>
<text x="637.100310" y="1107.802352" transform="rotate(52.645199 637.100310 1107.802352)" fill="darkgreen" font-weight="bold" font-size="46.940000">20</text>
<text x="366.979506" y="211.403868" transform="rotate(92.257992 366.979506 211.403868)" fill="darkgreen" font-weight="bold" font-size="46.940000">20</text>
<text x="484.522938" y="104.709223" transform="rotate(-160.193594 484.522938 104.709223)" fill="darkgreen" font-weight="bold" font-size="46.940000">21</text>
<text x="702.410037" y="1188.089455" transform="rotate(-125.096794 702.410037 1188.089455)" fill="darkgreen" font-weight="bold" font-size="46.940000">21</text>
<text x="587.418122" y="1024.453091" transform="rotate(-125.096794 587.418122 1024.453091)" fill="darkgreen" font-weight="bold" font-size="46.940000">22</text>
<text x="672.691526" y="172.477818" transform="rotate(-160.193594 672.691526 172.477818)" fill="darkgreen" font-weight="bold" font-size="46.940000">22</text>
<text x="752.092225" y="944.165988" transform="rotate(52.645199 752.092225 944.165988)" fill="darkgreen" font-weight="bold" font-size="46.940000">25</text>
<text x="774.876860" y="974.015830" transform="rotate(-127.354791 774.876860 974.015830)" fill="darkgreen" font-weight="bold" font-size="46.940000">25</text>
<text x="803.078286" y="2126.157005" transform="rotate(17.548400 803.078286 2126.157005)" fill="darkgreen" font-weight="bold" font-size="46.940000">30</text>
<text x="2207.381536" y="1175.796414" transform="rotate(-162.451590 2207.381536 1175.796414)" fill="darkgreen" font-weight="bold" font-size="46.940000">30</text>
<text x="1615.029345" y="1065.028320" transform="rotate(57.161193 1615.029345 1065.028320)" fill="darkgreen" font-weight="bold" font-size="46.940000">31</text>
<text x="1855.349343" y="1264.474060" transform="rotate(17.548400 1855.349343 1264.474060)" fill="darkgreen" font-weight="bold" font-size="46.940000">31</text>
<text x="1423.722958" y="759.990281" transform="rotate(-125.096794 1423.722958 759.990281)" fill="darkgreen" font-weight="bold" font-size="46.940000">35</text>
<text x="2347.593205" y="1338.911237" transform="rotate(-89.999995 2347.593205 1338.911237)" fill="darkgreen" font-weight="bold" font-size="46.940000">35</text>
<text x="2171.577109" y="1364.474060" transform="rotate(17.548400 2171.577109 1364.474060)" fill="darkgreen" font-weight="bold" font-size="46.940000">36</text>
<text x="1435.176288" y="786.365661" transform="rotate(57.161193 1435.176288 786.365661)" fill="darkgreen" font-weight="bold" font-size="46.940000">36</text>
<text x="1648.460208" y="765.174535" transform="rotate(-122.838798 1648.460208 765.174535)" fill="darkgreen" font-weight="bold" font-size="46.940000">38</text>
<text x="259.597786" y="1695.306307" transform="rotate(57.161193 259.597786 1695.306307)" fill="darkgreen" font-weight="bold" font-size="46.940000">38</text>
<text x="436.125141" y="1877.935405" transform="rotate(19.806396 436.125141 1877.935405)" fill="darkgreen" font-weight="bold" font-size="46.940000">44</text>
<text x="1839.954497" y="928.976691" transform="rotate(-160.193594 1839.954497 928.976691)" fill="darkgreen" font-weight="bold" font-size="46.940000">44</text>
<text x="484.522938" y="1559.254678" transform="rotate(-160.193594 484.522938 1559.254678)" fill="darkgreen" font-weight="bold" font-size="46.940000">48</text>
<text x="565.827240" y="1915.362182" transform="rotate(-54.903196 565.827240 1915.362182)" fill="darkgreen" font-weight="bold" font-size="46.940000">48</text>
<text x="680.819155" y="1751.725818" transform="rotate(-54.903196 680.819155 1751.725818)" fill="darkgreen" font-weight="bold" font-size="46.940000">49</text>
<text x="672.691526" y="1627.023273" transform="rotate(-160.193594 672.691526 1627.023273)" fill="darkgreen" font-weight="bold" font-size="46.940000">49</text>
<text x="1984.664923" y="1053.679237" transform="rotate(-125.096794 1984.664923 1053.679237)" fill="darkgreen" font-weight="bold" font-size="46.940000">51</text>
<text x="594.575219" y="1984.637818" transform="rotate(54.903196 594.575219 1984.637818)" fill="darkgreen" font-weight="bold" font-size="46.940000">51</text>
<text x="910.802985" y="1884.637818" transform="rotate(54.903196 910.802985 1884.637818)" fill="darkgreen" font-weight="bold" font-size="46.940000">55</text>
<text x="932.393867" y="1915.362182" transform="rotate(-125.096794 932.393867 1915.362182)" fill="darkgreen" font-weight="bold" font-size="46.940000">55</text>
<text x="887.678320" y="880.097388" transform="rotate(164.709587 887.678320 880.097388)" fill="darkgreen" font-weight="bold" font-size="46.940000">56</text>
<text x="851.455600" y="890.000282" transform="rotate(-15.290403 851.455600 890.000282)" fill="darkgreen" font-weight="bold" font-size="46.940000">56</text>
<text x="1295.322149" y="2200.594182" transform="rotate(-89.999995 1295.322149 2200.594182)" fill="darkgreen" font-weight="bold" font-size="46.940000">70</text>
<text x="1222.487106" y="1023.626645" transform="rotate(-125.096794 1222.487106 1023.626645)" fill="darkgreen" font-weight="bold" font-size="46.940000">70</text>
<text x="1294.407377" y="882.107458" transform="rotate(-17.548400 1294.407377 882.107458)" fill="darkgreen" font-weight="bold" font-size="46.940000">72</text>
<text x="1119.306052" y="2226.157005" transform="rotate(17.548400 1119.306052 2226.157005)" fill="darkgreen" font-weight="bold" font-size="46.940000">72</text>
<text x="781.872836" y="1120.735228" transform="rotate(22.064393 781.872836 1120.735228)" fill="darkgreen" font-weight="bold" font-size="46.940000">73</text>
<text x="1093.171526" y="1145.743822" transform="rotate(-17.548400 1093.171526 1145.743822)" fill="darkgreen" font-weight="bold" font-size="46.940000">73</text>
<text x="1155.110480" y="2037.479359" transform="rotate(-162.451590 1155.110480 2037.479359)" fill="darkgreen" font-weight="bold" font-size="46.940000">74</text>
<text x="474.500571" y="996.146743" transform="rotate(22.064393 474.500571 996.146743)" fill="darkgreen" font-weight="bold" font-size="46.940000">74</text>
<text x="636.821555" y="856.178917" transform="rotate(-157.935597 636.821555 856.178917)" fill="darkgreen" font-weight="bold" font-size="46.940000">76</text>
<text x="602.019779" y="842.072568" transform="rotate(22.064393 602.019779 842.072568)" fill="darkgreen" font-weight="bold" font-size="46.940000">76</text>
<text x="953.328076" y="1701.288558" transform="rotate(-52.645199 953.328076 1701.288558)" fill="darkgreen" font-weight="bold" font-size="46.940000">81</text>
<text x="976.112711" y="1671.438715" transform="rotate(127.354791 976.112711 1671.438715)" fill="darkgreen" font-weight="bold" font-size="46.940000">81</text>
<text x="238.106998" y="785.798760" transform="rotate(57.161193 238.106998 785.798760)" fill="darkgreen" font-weight="bold" font-size="46.940000">85</text>
<text x="1068.319991" y="1864.924921" transform="rotate(-52.645199 1068.319991 1864.924921)" fill="darkgreen" font-weight="bold" font-size="46.940000">85</text>
<text x="1174.536363" y="1865.122876" transform="rotate(92.257992 1174.536363 1865.122876)" fill="darkgreen" font-weight="bold" font-size="46.940000">88</text>
<text x="329.449290" y="731.590433" transform="rotate(-157.935597 329.449290 731.590433)" fill="darkgreen" font-weight="bold" font-size="46.940000">88</text>
<text x="1256.488579" y="1932.693516" transform="rotate(-52.645199 1256.488579 1932.693516)" fill="darkgreen" font-weight="bold" font-size="46.940000">89</text>
<text x="365.626206" y="631.724584" transform="rotate(57.161193 365.626206 631.724584)" fill="darkgreen" font-weight="bold" font-size="46.940000">89</text>
<text x="1374.292693" y="1639.009355" transform="rotate(-87.741998 1374.292693 1639.009355)" fill="darkgreen" font-weight="bold" font-size="46.940000">90</text>
<text x="1292.340477" y="1337.652194" transform="rotate(-127.354791 1292.340477 1337.652194)" fill="darkgreen" font-weight="bold" font-size="46.940000">90</text>
<text x="1091.104626" y="1074.015830" transform="rotate(-127.354791 1091.104626 1074.015830)" fill="darkgreen" font-weight="bold" font-size="46.940000">91</text>
<text x="456.968498" y="577.516258" transform="rotate(-157.935597 456.968498 577.516258)" fill="darkgreen" font-weight="bold" font-size="46.940000">91</text>
<text x="953.328076" y="1207.802352" transform="rotate(52.645199 953.328076 1207.802352)" fill="darkgreen" font-weight="bold" font-size="46.940000">94</text>
<text x="976.112711" y="1237.652194" transform="rotate(-127.354791 976.112711 1237.652194)" fill="darkgreen" font-weight="bold" font-size="46.940000">94</text>
<text x="925.126650" y="1510.206632" transform="rotate(-162.451590 925.126650 1510.206632)" fill="darkgreen" font-weight="bold" font-size="46.940000">99</text>
<text x="889.322223" y="1498.884278" transform="rotate(17.548400 889.322223 1498.884278)" fill="darkgreen" font-weight="bold" font-size="46.940000">99</text>
<text x="391.579991" y="1613.320364" transform="rotate(125.096794 391.579991 1613.320364)" fill="darkgreen" font-weight="bold" font-size="46.940000">102</text>
<text x="359.193668" y="1659.406909" transform="rotate(-54.903196 359.193668 1659.406909)" fill="darkgreen" font-weight="bold" font-size="46.940000">102</text>
<text x="516.412236" y="1245.114655" transform="rotate(-52.645199 516.412236 1245.114655)" fill="darkgreen" font-weight="bold" font-size="46.940000">115</text>
<text x="550.589189" y="1200.339891" transform="rotate(127.354791 550.589189 1200.339891)" fill="darkgreen" font-weight="bold" font-size="46.940000">115</text>
<text x="234.361423" y="1300.339891" transform="rotate(127.354791 234.361423 1300.339891)" fill="darkgreen" font-weight="bold" font-size="46.940000">117</text>
<text x="122.079011" y="1592.105802" transform="rotate(87.741998 122.079011 1592.105802)" fill="darkgreen" font-weight="bold" font-size="46.940000">117</text>
<text x="135.146274" y="1923.510761" transform="rotate(87.741998 135.146274 1923.510761)" fill="darkgreen" font-weight="bold" font-size="46.940000">118</text>
<text x="435.597274" y="1036.703527" transform="rotate(127.354791 435.597274 1036.703527)" fill="darkgreen" font-weight="bold" font-size="46.940000">118</text>
<text x="323.314862" y="1855.742166" transform="rotate(87.741998 323.314862 1855.742166)" fill="darkgreen" font-weight="bold" font-size="46.940000">121</text>
<text x="325.534145" y="1912.026429" transform="rotate(-92.257992 325.534145 1912.026429)" fill="darkgreen" font-weight="bold" font-size="46.940000">121</text>
<text x="1106.641115" y="158.774909" transform="rotate(54.903196 1106.641115 158.774909)" fill="darkgreen" font-weight="bold" font-size="46.940000">124</text>
<text x="1139.027438" y="204.861455" transform="rotate(-125.096794 1139.027438 204.861455)" fill="darkgreen" font-weight="bold" font-size="46.940000">124</text>
<text x="995.363031" y="322.128129" transform="rotate(-17.548400 995.363031 322.128129)" fill="darkgreen" font-weight="bold" font-size="46.940000">126</text>
<text x="1049.069671" y="305.144598" transform="rotate(162.451590 1049.069671 305.144598)" fill="darkgreen" font-weight="bold" font-size="46.940000">126</text>
<text x="427.554847" y="2490.422536" transform="rotate(52.645199 427.554847 2490.422536)" fill="darkgreen" font-weight="bold" font-size="46.940000">127</text>
<text x="1250.305523" y="41.508234" transform="rotate(162.451590 1250.305523 41.508234)" fill="darkgreen" font-weight="bold" font-size="46.940000">127</text>
<text x="934.077757" y="141.508234" transform="rotate(162.451590 934.077757 141.508234)" fill="darkgreen" font-weight="bold" font-size="46.940000">130</text>
<text x="226.318996" y="2226.786172" transform="rotate(52.645199 226.318996 2226.786172)" fill="darkgreen" font-weight="bold" font-size="46.940000">130</text>
<text x="338.601408" y="2243.431388" transform="rotate(-92.257992 338.601408 2243.431388)" fill="darkgreen" font-weight="bold" font-size="46.940000">133</text>
<text x="336.382125" y="2187.147124" transform="rotate(87.741998 336.382125 2187.147124)" fill="darkgreen" font-weight="bold" font-size="46.940000">133</text>
<text x="1486.765314" y="162.994709" transform="rotate(-122.838798 1486.765314 162.994709)" fill="darkgreen" font-weight="bold" font-size="46.940000">134</text>
<text x="539.837259" y="2507.067752" transform="rotate(-92.257992 539.837259 2507.067752)" fill="darkgreen" font-weight="bold" font-size="46.940000">134</text>
<text x="526.769996" y="2175.662793" transform="rotate(-92.257992 526.769996 2175.662793)" fill="darkgreen" font-weight="bold" font-size="46.940000">135</text>
<text x="298.119548" y="1403.340314" transform="rotate(-122.838798 298.119548 1403.340314)" fill="darkgreen" font-weight="bold" font-size="46.940000">135</text>
<text x="123.627200" y="1259.289584" transform="rotate(164.709587 123.627200 1259.289584)" fill="darkgreen" font-weight="bold" font-size="46.940000">136</text>
<text x="1437.791943" y="312.460980" transform="rotate(-15.290403 1437.791943 312.460980)" fill="darkgreen" font-weight="bold" font-size="46.940000">136</text>
<text x="1473.698050" y="494.399668" transform="rotate(-122.838798 1473.698050 494.399668)" fill="darkgreen" font-weight="bold" font-size="46.940000">137</text>
<text x="74.653829" y="1408.755854" transform="rotate(57.161193 74.653829 1408.755854)" fill="darkgreen" font-weight="bold" font-size="46.940000">137</text>
<text x="1174.906244" y="401.196711" transform="rotate(92.257992 1174.906244 401.196711)" fill="darkgreen" font-weight="bold" font-size="46.940000">142</text>
<text x="1172.686961" y="457.480975" transform="rotate(-87.741998 1172.686961 457.480975)" fill="darkgreen" font-weight="bold" font-size="46.940000">142</text>
</svg>
