<?xml version="1.0"?>
<svg width="1606" height="2480" version="1.1" xmlns="http://www.w3.org/2000/svg" >
<defs>
<style type="text/css"><![CDATA[
.m {stroke:rgb(255,0,0);stroke-width:3.100000;}
.v {stroke:rgb(0,0,255);stroke-width:3.100000;}
.b {stroke:rgb(0,0,0);stroke-width:6.200000;fill:white}
.n {stroke:rgb(128,128,128);stroke-width:3.100000}
.t {stroke:rgb(0,128,0);stroke-width:3.100000;}
.c {stroke:rgb(128,128,128);stroke-width:3.100000;stroke-dasharray:16.060000, 16.060000;}
]]></style>
</defs>
<line x1="454.373575" y1="827.272727" x2="454.373575" y2="1027.272727" class="n" style="stroke-width:0.620000;" />
<line x1="454.373575" y1="1027.272727" x2="770.601341" y2="927.272727" class="n" style="stroke-width:0.620000;" />
<line x1="770.601341" y1="927.272727" x2="454.373575" y2="827.272727" class="n" style="stroke-width:0.620000;" />
<line x1="138.145809" y1="927.272727" x2="454.373575" y2="1027.272727" class="m" style="stroke-width:4.683244;" />
<line x1="454.373575" y1="827.272727" x2="138.145809" y2="927.272727" class="m" style="stroke-width:4.683244;" />
<line x1="770.601341" y1="927.272727" x2="770.601341" y2="727.272727" class="v" style="stroke-width:3.182052;" />
<line x1="770.601341" y1="727.272727" x2="454.373575" y2="827.272727" class="m" style="stroke-width:4.683244;" />
<line x1="770.601341" y1="1127.272727" x2="770.601341" y2="927.272727" class="v" style="stroke-width:3.182052;" />
<line x1="454.373575" y1="1027.272727" x2="770.601341" y2="1127.272727" class="m" style="stroke-width:4.683244;" />
<line x1="655.609426" y1="563.636364" x2="339.381660" y2="663.636364" class="n" style="stroke-width:0.620000;" />
<line x1="339.381660" y1="663.636364" x2="454.373575" y2="827.272727" class="n" style="stroke-width:0.620000;" />
<line x1="454.373575" y1="827.272727" x2="655.609426" y2="563.636364" class="n" style="stroke-width:0.620000;" />
<line x1="339.381660" y1="663.636364" x2="138.145809" y2="927.272727" class="m" style="stroke-width:4.683244;" />
<line x1="655.609426" y1="563.636364" x2="540.617511" y2="400.000000" class="v" style="stroke-width:3.182052;" />
<line x1="540.617511" y1="400.000000" x2="339.381660" y2="663.636364" class="m" style="stroke-width:4.683244;" />
<line x1="770.601341" y1="727.272727" x2="655.609426" y2="563.636364" class="v" style="stroke-width:3.182052;" />
<line x1="352.448923" y1="332.231405" x2="151.213072" y2="595.867769" class="n" style="stroke-width:0.620000;" />
<line x1="151.213072" y1="595.867769" x2="339.381660" y2="663.636364" class="n" style="stroke-width:0.620000;" />
<line x1="339.381660" y1="663.636364" x2="352.448923" y2="332.231405" class="n" style="stroke-width:0.620000;" />
<line x1="151.213072" y1="595.867769" x2="138.145809" y2="927.272727" class="m" style="stroke-width:4.683244;" />
<line x1="352.448923" y1="332.231405" x2="164.280335" y2="264.462810" class="v" style="stroke-width:3.182052;" />
<line x1="164.280335" y1="264.462810" x2="151.213072" y2="595.867769" class="m" style="stroke-width:4.683244;" />
<line x1="540.617511" y1="400.000000" x2="352.448923" y2="332.231405" class="v" style="stroke-width:3.182052;" />
<line x1="655.609426" y1="1290.909091" x2="454.373575" y2="1027.272727" class="n" style="stroke-width:0.620000;" />
<line x1="454.373575" y1="1027.272727" x2="339.381660" y2="1190.909091" class="n" style="stroke-width:0.620000;" />
<line x1="339.381660" y1="1190.909091" x2="655.609426" y2="1290.909091" class="n" style="stroke-width:0.620000;" />
<line x1="138.145809" y1="927.272727" x2="339.381660" y2="1190.909091" class="m" style="stroke-width:4.683244;" />
<line x1="655.609426" y1="1290.909091" x2="770.601341" y2="1127.272727" class="v" style="stroke-width:3.182052;" />
<line x1="540.617511" y1="1454.545455" x2="655.609426" y2="1290.909091" class="v" style="stroke-width:3.182052;" />
<line x1="339.381660" y1="1190.909091" x2="540.617511" y2="1454.545455" class="m" style="stroke-width:4.683244;" />
<line x1="487.225322" y1="1594.986681" x2="794.597588" y2="1470.398197" class="n" style="stroke-width:0.620000;" />
<line x1="794.597588" y1="1470.398197" x2="667.078379" y2="1316.324022" class="n" style="stroke-width:0.620000;" />
<line x1="667.078379" y1="1316.324022" x2="487.225322" y2="1594.986681" class="n" style="stroke-width:0.620000;" />
<line x1="794.597588" y1="1470.398197" x2="974.450645" y2="1191.735537" class="m" style="stroke-width:4.683244;" />
<line x1="974.450645" y1="1191.735537" x2="667.078379" y2="1316.324022" class="m" style="stroke-width:4.683244;" />
<line x1="487.225322" y1="1594.986681" x2="614.744531" y2="1749.060856" class="v" style="stroke-width:3.182052;" />
<line x1="614.744531" y1="1749.060856" x2="794.597588" y2="1470.398197" class="m" style="stroke-width:4.683244;" />
<line x1="359.706114" y1="1440.912506" x2="487.225322" y2="1594.986681" class="v" style="stroke-width:3.182052;" />
<line x1="667.078379" y1="1316.324022" x2="359.706114" y2="1440.912506" class="m" style="stroke-width:4.683244;" />
<line x1="1290.678411" y1="1291.735537" x2="1175.686496" y2="1455.371901" class="n" style="stroke-width:0.620000;" />
<line x1="1175.686496" y1="1455.371901" x2="1491.914262" y2="1555.371901" class="n" style="stroke-width:0.620000;" />
<line x1="1491.914262" y1="1555.371901" x2="1290.678411" y2="1291.735537" class="n" style="stroke-width:0.620000;" />
<line x1="974.450645" y1="1191.735537" x2="1175.686496" y2="1455.371901" class="m" style="stroke-width:4.683244;" />
<line x1="1290.678411" y1="1291.735537" x2="974.450645" y2="1191.735537" class="m" style="stroke-width:4.683244;" />
<line x1="1491.914262" y1="1555.371901" x2="1606.906177" y2="1391.735537" class="v" style="stroke-width:3.182052;" />
<line x1="1606.906177" y1="1391.735537" x2="1290.678411" y2="1291.735537" class="m" style="stroke-width:4.683244;" />
<line x1="1376.922347" y1="1719.008264" x2="1491.914262" y2="1555.371901" class="v" style="stroke-width:3.182052;" />
<line x1="1175.686496" y1="1455.371901" x2="1376.922347" y2="1719.008264" class="m" style="stroke-width:4.683244;" />
<line x1="1175.686496" y1="1455.371901" x2="987.517908" y2="1523.140496" class="n" style="stroke-width:0.620000;" />
<line x1="987.517908" y1="1523.140496" x2="1188.753759" y2="1786.776860" class="n" style="stroke-width:0.620000;" />
<line x1="1188.753759" y1="1786.776860" x2="1175.686496" y2="1455.371901" class="n" style="stroke-width:0.620000;" />
<line x1="974.450645" y1="1191.735537" x2="987.517908" y2="1523.140496" class="m" style="stroke-width:4.683244;" />
<line x1="1188.753759" y1="1786.776860" x2="1376.922347" y2="1719.008264" class="v" style="stroke-width:3.182052;" />
<line x1="1000.585171" y1="1854.545455" x2="1188.753759" y2="1786.776860" class="v" style="stroke-width:3.182052;" />
<line x1="987.517908" y1="1523.140496" x2="1000.585171" y2="1854.545455" class="m" style="stroke-width:4.683244;" />
<line x1="807.664851" y1="1801.803156" x2="987.517908" y2="1523.140496" class="n" style="stroke-width:0.620000;" />
<line x1="987.517908" y1="1523.140496" x2="794.597588" y2="1470.398197" class="n" style="stroke-width:0.620000;" />
<line x1="794.597588" y1="1470.398197" x2="807.664851" y2="1801.803156" class="n" style="stroke-width:0.620000;" />
<line x1="807.664851" y1="1801.803156" x2="1000.585171" y2="1854.545455" class="v" style="stroke-width:3.182052;" />
<line x1="614.744531" y1="1749.060856" x2="807.664851" y2="1801.803156" class="v" style="stroke-width:3.182052;" />
<line x1="1086.829107" y1="1027.272727" x2="1086.829107" y2="827.272727" class="n" style="stroke-width:0.620000;" />
<line x1="1086.829107" y1="827.272727" x2="770.601341" y2="927.272727" class="n" style="stroke-width:0.620000;" />
<line x1="770.601341" y1="927.272727" x2="1086.829107" y2="1027.272727" class="n" style="stroke-width:0.620000;" />
<line x1="1086.829107" y1="1027.272727" x2="1403.056873" y2="927.272727" class="m" style="stroke-width:4.683244;" />
<line x1="1403.056873" y1="927.272727" x2="1086.829107" y2="827.272727" class="m" style="stroke-width:4.683244;" />
<line x1="770.601341" y1="1127.272727" x2="1086.829107" y2="1027.272727" class="m" style="stroke-width:4.683244;" />
<line x1="1086.829107" y1="827.272727" x2="770.601341" y2="727.272727" class="m" style="stroke-width:4.683244;" />
<line x1="1086.829107" y1="827.272727" x2="1201.821022" y2="663.636364" class="n" style="stroke-width:0.620000;" />
<line x1="1201.821022" y1="663.636364" x2="885.593256" y2="563.636364" class="n" style="stroke-width:0.620000;" />
<line x1="885.593256" y1="563.636364" x2="1086.829107" y2="827.272727" class="n" style="stroke-width:0.620000;" />
<line x1="1403.056873" y1="927.272727" x2="1201.821022" y2="663.636364" class="m" style="stroke-width:4.683244;" />
<line x1="885.593256" y1="563.636364" x2="770.601341" y2="727.272727" class="v" style="stroke-width:3.182052;" />
<line x1="1000.585171" y1="400.000000" x2="885.593256" y2="563.636364" class="v" style="stroke-width:3.182052;" />
<line x1="1201.821022" y1="663.636364" x2="1000.585171" y2="400.000000" class="m" style="stroke-width:4.683244;" />
<line x1="307.372265" y1="1873.649341" x2="487.225322" y2="1594.986681" class="n" style="stroke-width:0.620000;" />
<line x1="487.225322" y1="1594.986681" x2="179.853057" y2="1719.575166" class="n" style="stroke-width:0.620000;" />
<line x1="179.853057" y1="1719.575166" x2="307.372265" y2="1873.649341" class="n" style="stroke-width:0.620000;" />
<line x1="0.000000" y1="1998.237825" x2="307.372265" y2="1873.649341" class="m" style="stroke-width:4.683244;" />
<line x1="179.853057" y1="1719.575166" x2="0.000000" y2="1998.237825" class="m" style="stroke-width:4.683244;" />
<line x1="359.706114" y1="1440.912506" x2="179.853057" y2="1719.575166" class="m" style="stroke-width:4.683244;" />
<line x1="307.372265" y1="1873.649341" x2="614.744531" y2="1749.060856" class="m" style="stroke-width:4.683244;" />
<line x1="885.593256" y1="1290.909091" x2="1201.821022" y2="1190.909091" class="n" style="stroke-width:0.620000;" />
<line x1="1201.821022" y1="1190.909091" x2="1086.829107" y2="1027.272727" class="n" style="stroke-width:0.620000;" />
<line x1="1086.829107" y1="1027.272727" x2="885.593256" y2="1290.909091" class="n" style="stroke-width:0.620000;" />
<line x1="1201.821022" y1="1190.909091" x2="1403.056873" y2="927.272727" class="m" style="stroke-width:4.683244;" />
<line x1="885.593256" y1="1290.909091" x2="1000.585171" y2="1454.545455" class="v" style="stroke-width:3.182052;" />
<line x1="1000.585171" y1="1454.545455" x2="1201.821022" y2="1190.909091" class="m" style="stroke-width:4.683244;" />
<line x1="770.601341" y1="1127.272727" x2="885.593256" y2="1290.909091" class="v" style="stroke-width:3.182052;" />
<line x1="1000.585171" y1="1654.545455" x2="684.357405" y2="1554.545455" class="n" style="stroke-width:0.620000;" />
<line x1="684.357405" y1="1554.545455" x2="684.357405" y2="1754.545455" class="n" style="stroke-width:0.620000;" />
<line x1="684.357405" y1="1754.545455" x2="1000.585171" y2="1654.545455" class="n" style="stroke-width:0.620000;" />
<line x1="368.129639" y1="1654.545455" x2="684.357405" y2="1754.545455" class="m" style="stroke-width:4.683244;" />
<line x1="684.357405" y1="1554.545455" x2="368.129639" y2="1654.545455" class="m" style="stroke-width:4.683244;" />
<line x1="1000.585171" y1="1454.545455" x2="684.357405" y2="1554.545455" class="m" style="stroke-width:4.683244;" />
<line x1="1000.585171" y1="1654.545455" x2="1000.585171" y2="1454.545455" class="v" style="stroke-width:3.182052;" />
<line x1="684.357405" y1="1754.545455" x2="1000.585171" y2="1854.545455" class="m" style="stroke-width:4.683244;" />
<line x1="1000.585171" y1="1854.545455" x2="1000.585171" y2="1654.545455" class="v" style="stroke-width:3.182052;" />
<line x1="684.357405" y1="1554.545455" x2="885.593256" y2="1290.909091" class="n" style="stroke-width:0.620000;" />
<line x1="885.593256" y1="1290.909091" x2="569.365490" y2="1390.909091" class="n" style="stroke-width:0.620000;" />
<line x1="569.365490" y1="1390.909091" x2="684.357405" y2="1554.545455" class="n" style="stroke-width:0.620000;" />
<line x1="569.365490" y1="1390.909091" x2="368.129639" y2="1654.545455" class="m" style="stroke-width:4.683244;" />
<line x1="770.601341" y1="1127.272727" x2="569.365490" y2="1390.909091" class="m" style="stroke-width:4.683244;" />
<line x1="569.365490" y1="1390.909091" x2="582.432753" y2="1059.504132" class="n" style="stroke-width:0.620000;" />
<line x1="582.432753" y1="1059.504132" x2="381.196902" y2="1323.140496" class="n" style="stroke-width:0.620000;" />
<line x1="381.196902" y1="1323.140496" x2="569.365490" y2="1390.909091" class="n" style="stroke-width:0.620000;" />
<line x1="381.196902" y1="1985.950413" x2="569.365490" y2="1918.181818" class="n" style="stroke-width:0.620000;" />
<line x1="569.365490" y1="1918.181818" x2="368.129639" y2="1654.545455" class="m" style="stroke-width:4.683244;" />
<line x1="368.129639" y1="1654.545455" x2="381.196902" y2="1985.950413" class="m" style="stroke-width:4.683244;" />
<line x1="770.601341" y1="2181.818182" x2="569.365490" y2="1918.181818" class="m" style="stroke-width:4.683244;" />
<line x1="569.365490" y1="1918.181818" x2="582.432753" y2="2249.586777" class="n" style="stroke-width:0.620000;" />
<line x1="582.432753" y1="2249.586777" x2="770.601341" y2="2181.818182" class="v" style="stroke-width:3.182052;" />
<line x1="770.601341" y1="1127.272727" x2="582.432753" y2="1059.504132" class="v" style="stroke-width:3.182052;" />
<line x1="885.593256" y1="2018.181818" x2="684.357405" y2="1754.545455" class="n" style="stroke-width:0.620000;" />
<line x1="684.357405" y1="1754.545455" x2="569.365490" y2="1918.181818" class="n" style="stroke-width:0.620000;" />
<line x1="569.365490" y1="1918.181818" x2="885.593256" y2="2018.181818" class="n" style="stroke-width:0.620000;" />
<line x1="885.593256" y1="2018.181818" x2="1000.585171" y2="1854.545455" class="v" style="stroke-width:3.182052;" />
<line x1="770.601341" y1="2181.818182" x2="885.593256" y2="2018.181818" class="v" style="stroke-width:3.182052;" />
<line x1="1188.753759" y1="1786.776860" x2="1201.821022" y2="2118.181818" class="n" style="stroke-width:0.620000;" />
<line x1="1201.821022" y1="2118.181818" x2="1389.989610" y2="2050.413223" class="n" style="stroke-width:0.620000;" />
<line x1="1389.989610" y1="2050.413223" x2="1188.753759" y2="1786.776860" class="n" style="stroke-width:0.620000;" />
<line x1="1403.056873" y1="2381.818182" x2="1389.989610" y2="2050.413223" class="m" style="stroke-width:4.683244;" />
<line x1="1201.821022" y1="2118.181818" x2="1403.056873" y2="2381.818182" class="m" style="stroke-width:4.683244;" />
<line x1="1000.585171" y1="1854.545455" x2="1201.821022" y2="2118.181818" class="m" style="stroke-width:4.683244;" />
<line x1="1389.989610" y1="2050.413223" x2="1376.922347" y2="1719.008264" class="m" style="stroke-width:4.683244;" />
<line x1="1201.821022" y1="2118.181818" x2="885.593256" y2="2018.181818" class="n" style="stroke-width:0.620000;" />
<line x1="885.593256" y1="2018.181818" x2="1086.829107" y2="2281.818182" class="n" style="stroke-width:0.620000;" />
<line x1="1086.829107" y1="2281.818182" x2="1201.821022" y2="2118.181818" class="n" style="stroke-width:0.620000;" />
<line x1="1086.829107" y1="2281.818182" x2="1403.056873" y2="2381.818182" class="m" style="stroke-width:4.683244;" />
<line x1="770.601341" y1="2181.818182" x2="1086.829107" y2="2281.818182" class="m" style="stroke-width:4.683244;" />
<line x1="1086.829107" y1="2281.818182" x2="770.601341" y2="2381.818182" class="n" style="stroke-width:0.620000;" />
<line x1="770.601341" y1="2381.818182" x2="1086.829107" y2="2481.818182" class="n" style="stroke-width:0.620000;" />
<line x1="1086.829107" y1="2481.818182" x2="1086.829107" y2="2281.818182" class="n" style="stroke-width:0.620000;" />
<line x1="1086.829107" y1="2481.818182" x2="1403.056873" y2="2381.818182" class="m" style="stroke-width:4.683244;" />
<line x1="540.617511" y1="400.000000" x2="553.684774" y2="68.595041" class="m" style="stroke-width:4.683244;" />
<line x1="553.684774" y1="68.595041" x2="352.448923" y2="332.231405" class="n" style="stroke-width:0.620000;" />
<line x1="352.448923" y1="332.231405" x2="365.516186" y2="0.826446" class="n" style="stroke-width:0.620000;" />
<line x1="365.516186" y1="0.826446" x2="164.280335" y2="264.462810" class="m" style="stroke-width:4.683244;" />
<line x1="201.343845" y1="810.067618" x2="21.490788" y2="1088.730278" class="n" style="stroke-width:0.620000;" />
<line x1="21.490788" y1="1088.730278" x2="214.411108" y2="1141.472577" class="n" style="stroke-width:0.620000;" />
<line x1="214.411108" y1="1141.472577" x2="201.343845" y2="810.067618" class="n" style="stroke-width:0.620000;" />
<line x1="21.490788" y1="1088.730278" x2="34.558051" y2="1420.135237" class="m" style="stroke-width:4.683244;" />
<line x1="34.558051" y1="1420.135237" x2="214.411108" y2="1141.472577" class="m" style="stroke-width:4.683244;" />
<line x1="201.343845" y1="810.067618" x2="8.423525" y2="757.325319" class="v" style="stroke-width:3.182052;" />
<line x1="8.423525" y1="757.325319" x2="21.490788" y2="1088.730278" class="m" style="stroke-width:4.683244;" />
<line x1="394.264165" y1="862.809917" x2="201.343845" y2="810.067618" class="v" style="stroke-width:3.182052;" />
<line x1="214.411108" y1="1141.472577" x2="394.264165" y2="862.809917" class="m" style="stroke-width:4.683244;" />
<line x1="569.365490" y1="463.636364" x2="381.196902" y2="531.404959" class="n" style="stroke-width:0.620000;" />
<line x1="381.196902" y1="531.404959" x2="582.432753" y2="795.041322" class="n" style="stroke-width:0.620000;" />
<line x1="582.432753" y1="795.041322" x2="569.365490" y2="463.636364" class="n" style="stroke-width:0.620000;" />
<line x1="569.365490" y1="463.636364" x2="368.129639" y2="200.000000" class="m" style="stroke-width:4.683244;" />
<line x1="368.129639" y1="200.000000" x2="381.196902" y2="531.404959" class="m" style="stroke-width:4.683244;" />
<line x1="770.601341" y1="727.272727" x2="569.365490" y2="463.636364" class="m" style="stroke-width:4.683244;" />
<line x1="582.432753" y1="795.041322" x2="770.601341" y2="727.272727" class="v" style="stroke-width:3.182052;" />
<line x1="381.196902" y1="531.404959" x2="394.264165" y2="862.809917" class="m" style="stroke-width:4.683244;" />
<line x1="394.264165" y1="862.809917" x2="582.432753" y2="795.041322" class="v" style="stroke-width:3.182052;" />
<line x1="188.276582" y1="478.662660" x2="201.343845" y2="810.067618" class="n" style="stroke-width:0.620000;" />
<line x1="201.343845" y1="810.067618" x2="381.196902" y2="531.404959" class="n" style="stroke-width:0.620000;" />
<line x1="381.196902" y1="531.404959" x2="188.276582" y2="478.662660" class="n" style="stroke-width:0.620000;" />
<line x1="368.129639" y1="200.000000" x2="188.276582" y2="478.662660" class="m" style="stroke-width:4.683244;" />
<line x1="188.276582" y1="478.662660" x2="8.423525" y2="757.325319" class="m" style="stroke-width:4.683244;" />
<line x1="684.357405" y1="300.000000" x2="1000.585171" y2="200.000000" class="n" style="stroke-width:0.620000;" />
<line x1="1000.585171" y1="200.000000" x2="684.357405" y2="100.000000" class="n" style="stroke-width:0.620000;" />
<line x1="684.357405" y1="100.000000" x2="684.357405" y2="300.000000" class="n" style="stroke-width:0.620000;" />
<line x1="368.129639" y1="200.000000" x2="684.357405" y2="300.000000" class="m" style="stroke-width:4.683244;" />
<line x1="684.357405" y1="100.000000" x2="368.129639" y2="200.000000" class="m" style="stroke-width:4.683244;" />
<line x1="1000.585171" y1="200.000000" x2="1000.585171" y2="0.000000" class="v" style="stroke-width:3.182052;" />
<line x1="1000.585171" y1="0.000000" x2="684.357405" y2="100.000000" class="m" style="stroke-width:4.683244;" />
<line x1="684.357405" y1="300.000000" x2="1000.585171" y2="400.000000" class="m" style="stroke-width:4.683244;" />
<line x1="1000.585171" y1="400.000000" x2="1000.585171" y2="200.000000" class="v" style="stroke-width:3.182052;" />
<line x1="885.593256" y1="563.636364" x2="684.357405" y2="300.000000" class="n" style="stroke-width:0.620000;" />
<line x1="684.357405" y1="300.000000" x2="569.365490" y2="463.636364" class="n" style="stroke-width:0.620000;" />
<line x1="569.365490" y1="463.636364" x2="885.593256" y2="563.636364" class="n" style="stroke-width:0.620000;" />
<text x="400.571158" y="750.710545" transform="rotate(-125.096794 400.571158 750.710545)" fill="darkgreen" font-weight="bold" font-size="32.120000">9</text>
<text x="393.184077" y="740.198545" transform="rotate(54.903196 393.184077 740.198545)" fill="darkgreen" font-weight="bold" font-size="32.120000">9</text>
<text x="605.500549" y="492.330182" transform="rotate(-125.096794 605.500549 492.330182)" fill="darkgreen" font-weight="bold" font-size="32.120000">14</text>
<text x="476.260509" y="833.279074" transform="rotate(-19.806396 476.260509 833.279074)" fill="darkgreen" font-weight="bold" font-size="32.120000">14</text>
<text x="664.429097" y="765.510479" transform="rotate(-19.806396 664.429097 765.510479)" fill="darkgreen" font-weight="bold" font-size="32.120000">15</text>
<text x="720.492464" y="655.966545" transform="rotate(-125.096794 720.492464 655.966545)" fill="darkgreen" font-weight="bold" font-size="32.120000">15</text>
<text x="345.409090" y="510.771908" transform="rotate(-87.741998 345.409090 510.771908)" fill="darkgreen" font-weight="bold" font-size="32.120000">17</text>
<text x="346.421494" y="485.095860" transform="rotate(92.257992 346.421494 485.095860)" fill="darkgreen" font-weight="bold" font-size="32.120000">17</text>
<text x="145.185643" y="748.732224" transform="rotate(92.257992 145.185643 748.732224)" fill="darkgreen" font-weight="bold" font-size="32.120000">19</text>
<text x="230.968225" y="1048.878117" transform="rotate(52.645199 230.968225 1048.878117)" fill="darkgreen" font-weight="bold" font-size="32.120000">19</text>
<text x="432.204076" y="1312.514480" transform="rotate(52.645199 432.204076 1312.514480)" fill="darkgreen" font-weight="bold" font-size="32.120000">20</text>
<text x="158.252906" y="417.327265" transform="rotate(92.257992 158.252906 417.327265)" fill="darkgreen" font-weight="bold" font-size="32.120000">20</text>
<text x="389.490537" y="1119.602909" transform="rotate(-54.903196 389.490537 1119.602909)" fill="darkgreen" font-weight="bold" font-size="32.120000">23</text>
<text x="404.264698" y="1098.578909" transform="rotate(125.096794 404.264698 1098.578909)" fill="darkgreen" font-weight="bold" font-size="32.120000">23</text>
<text x="705.718303" y="1219.602909" transform="rotate(-54.903196 705.718303 1219.602909)" fill="darkgreen" font-weight="bold" font-size="32.120000">26</text>
<text x="688.604997" y="1097.741884" transform="rotate(-160.193594 688.604997 1097.741884)" fill="darkgreen" font-weight="bold" font-size="32.120000">26</text>
<text x="664.429097" y="2220.055934" transform="rotate(-19.806396 664.429097 2220.055934)" fill="darkgreen" font-weight="bold" font-size="32.120000">27</text>
<text x="590.726388" y="1383.239273" transform="rotate(-54.903196 590.726388 1383.239273)" fill="darkgreen" font-weight="bold" font-size="32.120000">27</text>
<text x="652.818497" y="1527.866108" transform="rotate(157.935597 652.818497 1527.866108)" fill="darkgreen" font-weight="bold" font-size="32.120000">30</text>
<text x="629.004414" y="1537.518770" transform="rotate(-22.064393 629.004414 1537.518770)" fill="darkgreen" font-weight="bold" font-size="32.120000">30</text>
<text x="1144.814615" y="1245.609355" transform="rotate(-162.451590 1144.814615 1245.609355)" fill="darkgreen" font-weight="bold" font-size="32.120000">31</text>
<text x="832.671554" y="1249.203449" transform="rotate(157.935597 832.671554 1249.203449)" fill="darkgreen" font-weight="bold" font-size="32.120000">31</text>
<text x="525.299288" y="1373.791933" transform="rotate(157.935597 525.299288 1373.791933)" fill="darkgreen" font-weight="bold" font-size="32.120000">36</text>
<text x="1461.042381" y="1345.609355" transform="rotate(-162.451590 1461.042381 1345.609355)" fill="darkgreen" font-weight="bold" font-size="32.120000">36</text>
<text x="1240.569534" y="1363.041719" transform="rotate(125.096794 1240.569534 1363.041719)" fill="darkgreen" font-weight="bold" font-size="32.120000">37</text>
<text x="1225.795373" y="1384.065719" transform="rotate(-54.903196 1225.795373 1384.065719)" fill="darkgreen" font-weight="bold" font-size="32.120000">37</text>
<text x="1542.023139" y="1484.065719" transform="rotate(-54.903196 1542.023139 1484.065719)" fill="darkgreen" font-weight="bold" font-size="32.120000">41</text>
<text x="1000.585171" y="312.848000" transform="rotate(-89.999995 1000.585171 312.848000)" fill="darkgreen" font-weight="bold" font-size="32.120000">41</text>
<text x="1000.585171" y="112.848000" transform="rotate(-89.999995 1000.585171 112.848000)" fill="darkgreen" font-weight="bold" font-size="32.120000">42</text>
<text x="1427.031224" y="1647.702083" transform="rotate(-54.903196 1427.031224 1647.702083)" fill="darkgreen" font-weight="bold" font-size="32.120000">42</text>
<text x="878.664547" y="1493.381181" transform="rotate(15.290403 878.664547 1493.381181)" fill="darkgreen" font-weight="bold" font-size="32.120000">51</text>
<text x="903.450949" y="1500.157512" transform="rotate(-164.709587 903.450949 1500.157512)" fill="darkgreen" font-weight="bold" font-size="32.120000">51</text>
<text x="891.731810" y="1824.786140" transform="rotate(15.290403 891.731810 1824.786140)" fill="darkgreen" font-weight="bold" font-size="32.120000">54</text>
<text x="1000.585171" y="1767.393455" transform="rotate(-89.999995 1000.585171 1767.393455)" fill="darkgreen" font-weight="bold" font-size="32.120000">54</text>
<text x="1000.585171" y="1567.393455" transform="rotate(-89.999995 1000.585171 1567.393455)" fill="darkgreen" font-weight="bold" font-size="32.120000">55</text>
<text x="698.811490" y="1772.043841" transform="rotate(15.290403 698.811490 1772.043841)" fill="darkgreen" font-weight="bold" font-size="32.120000">55</text>
<text x="916.465137" y="881.146545" transform="rotate(-17.548400 916.465137 881.146545)" fill="darkgreen" font-weight="bold" font-size="32.120000">57</text>
<text x="940.965312" y="873.398910" transform="rotate(162.451590 940.965312 873.398910)" fill="darkgreen" font-weight="bold" font-size="32.120000">57</text>
<text x="1232.692903" y="981.146545" transform="rotate(-17.548400 1232.692903 981.146545)" fill="darkgreen" font-weight="bold" font-size="32.120000">60</text>
<text x="1257.193078" y="973.398910" transform="rotate(162.451590 1257.193078 973.398910)" fill="darkgreen" font-weight="bold" font-size="32.120000">60</text>
<text x="1055.957226" y="617.510181" transform="rotate(-162.451590 1055.957226 617.510181)" fill="darkgreen" font-weight="bold" font-size="32.120000">64</text>
<text x="1031.457052" y="609.762546" transform="rotate(17.548400 1031.457052 609.762546)" fill="darkgreen" font-weight="bold" font-size="32.120000">64</text>
<text x="994.006692" y="705.667338" transform="rotate(-127.354791 994.006692 705.667338)" fill="darkgreen" font-weight="bold" font-size="32.120000">65</text>
<text x="978.415671" y="685.241753" transform="rotate(52.645199 978.415671 685.241753)" fill="darkgreen" font-weight="bold" font-size="32.120000">65</text>
<text x="96.893708" y="1848.111612" transform="rotate(122.838798 96.893708 1848.111612)" fill="darkgreen" font-weight="bold" font-size="32.120000">66</text>
<text x="1310.234458" y="805.667338" transform="rotate(-127.354791 1310.234458 805.667338)" fill="darkgreen" font-weight="bold" font-size="32.120000">66</text>
<text x="1108.998607" y="542.030974" transform="rotate(-127.354791 1108.998607 542.030974)" fill="darkgreen" font-weight="bold" font-size="32.120000">69</text>
<text x="276.746765" y="1569.448952" transform="rotate(122.838798 276.746765 1569.448952)" fill="darkgreen" font-weight="bold" font-size="32.120000">69</text>
<text x="321.632148" y="1662.107254" transform="rotate(-22.064393 321.632148 1662.107254)" fill="darkgreen" font-weight="bold" font-size="32.120000">72</text>
<text x="345.446231" y="1652.454593" transform="rotate(157.935597 345.446231 1652.454593)" fill="darkgreen" font-weight="bold" font-size="32.120000">72</text>
<text x="1294.643438" y="1069.303701" transform="rotate(-52.645199 1294.643438 1069.303701)" fill="darkgreen" font-weight="bold" font-size="32.120000">73</text>
<text x="141.779091" y="1940.769914" transform="rotate(-22.064393 141.779091 1940.769914)" fill="darkgreen" font-weight="bold" font-size="32.120000">73</text>
<text x="449.151357" y="1816.181430" transform="rotate(-22.064393 449.151357 1816.181430)" fill="darkgreen" font-weight="bold" font-size="32.120000">74</text>
<text x="1093.407586" y="1332.940065" transform="rotate(-52.645199 1093.407586 1332.940065)" fill="darkgreen" font-weight="bold" font-size="32.120000">74</text>
<text x="994.006692" y="1148.878117" transform="rotate(127.354791 994.006692 1148.878117)" fill="darkgreen" font-weight="bold" font-size="32.120000">76</text>
<text x="978.415671" y="1169.303701" transform="rotate(-52.645199 978.415671 1169.303701)" fill="darkgreen" font-weight="bold" font-size="32.120000">76</text>
<text x="684.357405" y="1641.697455" transform="rotate(89.999995 684.357405 1641.697455)" fill="darkgreen" font-weight="bold" font-size="32.120000">80</text>
<text x="684.357405" y="1667.393455" transform="rotate(-89.999995 684.357405 1667.393455)" fill="darkgreen" font-weight="bold" font-size="32.120000">80</text>
<text x="476.543075" y="1512.514480" transform="rotate(127.354791 476.543075 1512.514480)" fill="darkgreen" font-weight="bold" font-size="32.120000">90</text>
<text x="374.157069" y="1807.409910" transform="rotate(87.741998 374.157069 1807.409910)" fill="darkgreen" font-weight="bold" font-size="32.120000">90</text>
<text x="463.193246" y="1956.419570" transform="rotate(-19.806396 463.193246 1956.419570)" fill="darkgreen" font-weight="bold" font-size="32.120000">92</text>
<text x="463.193246" y="1352.671339" transform="rotate(19.806396 463.193246 1352.671339)" fill="darkgreen" font-weight="bold" font-size="32.120000">92</text>
<text x="489.610338" y="1181.109522" transform="rotate(127.354791 489.610338 1181.109522)" fill="darkgreen" font-weight="bold" font-size="32.120000">94</text>
<text x="575.392920" y="2071.046273" transform="rotate(87.741998 575.392920 2071.046273)" fill="darkgreen" font-weight="bold" font-size="32.120000">94</text>
<text x="619.474367" y="1846.875636" transform="rotate(-54.903196 619.474367 1846.875636)" fill="darkgreen" font-weight="bold" font-size="32.120000">97</text>
<text x="634.248528" y="1825.851636" transform="rotate(125.096794 634.248528 1825.851636)" fill="darkgreen" font-weight="bold" font-size="32.120000">97</text>
<text x="1194.528088" y="1933.222303" transform="rotate(87.741998 1194.528088 1933.222303)" fill="darkgreen" font-weight="bold" font-size="32.120000">104</text>
<text x="1196.046693" y="1971.736375" transform="rotate(-92.257992 1196.046693 1971.736375)" fill="darkgreen" font-weight="bold" font-size="32.120000">104</text>
<text x="27.265117" y="1235.175721" transform="rotate(87.741998 27.265117 1235.175721)" fill="darkgreen" font-weight="bold" font-size="32.120000">105</text>
<text x="1397.282545" y="2235.372739" transform="rotate(-92.257992 1397.282545 2235.372739)" fill="darkgreen" font-weight="bold" font-size="32.120000">105</text>
<text x="1290.745682" y="2234.680812" transform="rotate(52.645199 1290.745682 2234.680812)" fill="darkgreen" font-weight="bold" font-size="32.120000">106</text>
<text x="1314.132213" y="2265.319188" transform="rotate(-127.354791 1314.132213 2265.319188)" fill="darkgreen" font-weight="bold" font-size="32.120000">106</text>
<text x="1384.215282" y="1903.967780" transform="rotate(-92.257992 1384.215282 1903.967780)" fill="darkgreen" font-weight="bold" font-size="32.120000">108</text>
<text x="14.197854" y="903.770762" transform="rotate(87.741998 14.197854 903.770762)" fill="darkgreen" font-weight="bold" font-size="32.120000">108</text>
<text x="1062.082270" y="2073.992545" transform="rotate(-162.451590 1062.082270 2073.992545)" fill="darkgreen" font-weight="bold" font-size="32.120000">110</text>
<text x="1025.332008" y="2062.371092" transform="rotate(17.548400 1025.332008 2062.371092)" fill="darkgreen" font-weight="bold" font-size="32.120000">110</text>
<text x="276.591526" y="117.325440" transform="rotate(127.354791 276.591526 117.325440)" fill="darkgreen" font-weight="bold" font-size="32.120000">113</text>
<text x="910.340093" y="2226.007455" transform="rotate(17.548400 910.340093 2226.007455)" fill="darkgreen" font-weight="bold" font-size="32.120000">113</text>
<text x="947.090355" y="2326.007455" transform="rotate(162.451590 947.090355 2326.007455)" fill="darkgreen" font-weight="bold" font-size="32.120000">115</text>
<text x="358.223252" y="185.785962" transform="rotate(-87.741998 358.223252 185.785962)" fill="darkgreen" font-weight="bold" font-size="32.120000">115</text>
<text x="910.340093" y="2426.007455" transform="rotate(17.548400 910.340093 2426.007455)" fill="darkgreen" font-weight="bold" font-size="32.120000">116</text>
<text x="464.760114" y="185.094035" transform="rotate(127.354791 464.760114 185.094035)" fill="darkgreen" font-weight="bold" font-size="32.120000">116</text>
<text x="1226.567859" y="2437.628908" transform="rotate(-17.548400 1226.567859 2437.628908)" fill="darkgreen" font-weight="bold" font-size="32.120000">117</text>
<text x="114.033810" y="1296.996232" transform="rotate(-57.161193 114.033810 1296.996232)" fill="darkgreen" font-weight="bold" font-size="32.120000">117</text>
<text x="293.886867" y="1018.333573" transform="rotate(-57.161193 293.886867 1018.333573)" fill="darkgreen" font-weight="bold" font-size="32.120000">118</text>
<text x="546.391840" y="253.554557" transform="rotate(-87.741998 546.391840 253.554557)" fill="darkgreen" font-weight="bold" font-size="32.120000">118</text>
<text x="100.966547" y="965.591274" transform="rotate(-57.161193 100.966547 965.591274)" fill="darkgreen" font-weight="bold" font-size="32.120000">121</text>
<text x="121.868086" y="933.206623" transform="rotate(122.838798 121.868086 933.206623)" fill="darkgreen" font-weight="bold" font-size="32.120000">121</text>
<text x="457.149271" y="504.050843" transform="rotate(-19.806396 457.149271 504.050843)" fill="darkgreen" font-weight="bold" font-size="32.120000">124</text>
<text x="493.413121" y="490.990479" transform="rotate(160.193594 493.413121 490.990479)" fill="darkgreen" font-weight="bold" font-size="32.120000">124</text>
<text x="303.326544" y="510.116057" transform="rotate(-164.709587 303.326544 510.116057)" fill="darkgreen" font-weight="bold" font-size="32.120000">131</text>
<text x="266.146940" y="499.951561" transform="rotate(15.290403 266.146940 499.951561)" fill="darkgreen" font-weight="bold" font-size="32.120000">131</text>
<text x="544.618653" y="144.189273" transform="rotate(162.451590 544.618653 144.189273)" fill="darkgreen" font-weight="bold" font-size="32.120000">134</text>
<text x="288.653880" y="323.139004" transform="rotate(122.838798 288.653880 323.139004)" fill="darkgreen" font-weight="bold" font-size="32.120000">134</text>
<text x="108.800823" y="601.801664" transform="rotate(122.838798 108.800823 601.801664)" fill="darkgreen" font-weight="bold" font-size="32.120000">135</text>
<text x="860.846419" y="44.189273" transform="rotate(162.451590 860.846419 44.189273)" fill="darkgreen" font-weight="bold" font-size="32.120000">135</text>
<text x="684.357405" y="180.728000" transform="rotate(89.999995 684.357405 180.728000)" fill="darkgreen" font-weight="bold" font-size="32.120000">136</text>
<text x="684.357405" y="219.272000" transform="rotate(-89.999995 684.357405 219.272000)" fill="darkgreen" font-weight="bold" font-size="32.120000">136</text>
</svg>
