<?xml version="1.0"?>
<svg width="3239" height="3833" version="1.1" xmlns="http://www.w3.org/2000/svg" >
<defs>
<style type="text/css"><![CDATA[
.m {stroke:rgb(255,0,0);stroke-width:4.791250;}
.v {stroke:rgb(0,0,255);stroke-width:4.791250;}
.b {stroke:rgb(0,0,0);stroke-width:9.582500;fill:white}
.n {stroke:rgb(128,128,128);stroke-width:4.791250}
.t {stroke:rgb(0,128,0);stroke-width:4.791250;}
.c {stroke:rgb(128,128,128);stroke-width:4.791250;stroke-dasharray:32.390000, 32.390000;}
]]></style>
</defs>
<line x1="1684.726588" y1="1817.355372" x2="1684.726588" y2="2017.355372" class="n" style="stroke-width:0.958250;" />
<line x1="1684.726588" y1="2017.355372" x2="2000.954354" y2="1917.355372" class="n" style="stroke-width:0.958250;" />
<line x1="2000.954354" y1="1917.355372" x2="1684.726588" y2="1817.355372" class="n" style="stroke-width:0.958250;" />
<line x1="1368.498822" y1="1917.355372" x2="1684.726588" y2="2017.355372" class="m" style="stroke-width:7.238256;" />
<line x1="1684.726588" y1="1817.355372" x2="1368.498822" y2="1917.355372" class="m" style="stroke-width:7.238256;" />
<line x1="2000.954354" y1="1917.355372" x2="2000.954354" y2="1717.355372" class="v" style="stroke-width:4.918066;" />
<line x1="2000.954354" y1="1717.355372" x2="1684.726588" y2="1817.355372" class="m" style="stroke-width:7.238256;" />
<line x1="2000.954354" y1="2117.355372" x2="2000.954354" y2="1917.355372" class="v" style="stroke-width:4.918066;" />
<line x1="1684.726588" y1="2017.355372" x2="2000.954354" y2="2117.355372" class="m" style="stroke-width:7.238256;" />
<line x1="1812.785766" y1="1785.123967" x2="1825.853029" y2="2116.528926" class="n" style="stroke-width:0.958250;" />
<line x1="1825.853029" y1="2116.528926" x2="2014.021617" y2="2048.760331" class="n" style="stroke-width:0.958250;" />
<line x1="2014.021617" y1="2048.760331" x2="1812.785766" y2="1785.123967" class="n" style="stroke-width:0.958250;" />
<line x1="1825.853029" y1="2116.528926" x2="2027.088880" y2="2380.165289" class="m" style="stroke-width:7.238256;" />
<line x1="2027.088880" y1="2380.165289" x2="2014.021617" y2="2048.760331" class="m" style="stroke-width:7.238256;" />
<line x1="1812.785766" y1="1785.123967" x2="1624.617178" y2="1852.892562" class="v" style="stroke-width:4.918066;" />
<line x1="1624.617178" y1="1852.892562" x2="1825.853029" y2="2116.528926" class="m" style="stroke-width:7.238256;" />
<line x1="2000.954354" y1="1717.355372" x2="1812.785766" y2="1785.123967" class="v" style="stroke-width:4.918066;" />
<line x1="2014.021617" y1="2048.760331" x2="2000.954354" y2="1717.355372" class="m" style="stroke-width:7.238256;" />
<line x1="632.455532" y1="2410.217881" x2="316.227766" y2="2310.217881" class="n" style="stroke-width:0.958250;" />
<line x1="316.227766" y1="2310.217881" x2="316.227766" y2="2510.217881" class="n" style="stroke-width:0.958250;" />
<line x1="316.227766" y1="2510.217881" x2="632.455532" y2="2410.217881" class="n" style="stroke-width:0.958250;" />
<line x1="316.227766" y1="2310.217881" x2="0.000000" y2="2410.217881" class="m" style="stroke-width:7.238256;" />
<line x1="0.000000" y1="2410.217881" x2="316.227766" y2="2510.217881" class="m" style="stroke-width:7.238256;" />
<line x1="632.455532" y1="2410.217881" x2="632.455532" y2="2210.217881" class="v" style="stroke-width:4.918066;" />
<line x1="632.455532" y1="2210.217881" x2="316.227766" y2="2310.217881" class="m" style="stroke-width:7.238256;" />
<line x1="632.455532" y1="2610.217881" x2="632.455532" y2="2410.217881" class="v" style="stroke-width:4.918066;" />
<line x1="316.227766" y1="2510.217881" x2="632.455532" y2="2610.217881" class="m" style="stroke-width:7.238256;" />
<line x1="1812.785766" y1="3239.669421" x2="1825.853029" y2="3571.074380" class="n" style="stroke-width:0.958250;" />
<line x1="1825.853029" y1="3571.074380" x2="2014.021617" y2="3503.305785" class="n" style="stroke-width:0.958250;" />
<line x1="2014.021617" y1="3503.305785" x2="1812.785766" y2="3239.669421" class="n" style="stroke-width:0.958250;" />
<line x1="1825.853029" y1="3571.074380" x2="2027.088880" y2="3834.710744" class="m" style="stroke-width:7.238256;" />
<line x1="2027.088880" y1="3834.710744" x2="2014.021617" y2="3503.305785" class="m" style="stroke-width:7.238256;" />
<line x1="1812.785766" y1="3239.669421" x2="1624.617178" y2="3307.438017" class="v" style="stroke-width:4.918066;" />
<line x1="1624.617178" y1="3307.438017" x2="1825.853029" y2="3571.074380" class="m" style="stroke-width:7.238256;" />
<line x1="2000.954354" y1="3171.900826" x2="1812.785766" y2="3239.669421" class="v" style="stroke-width:4.918066;" />
<line x1="2014.021617" y1="3503.305785" x2="2000.954354" y2="3171.900826" class="m" style="stroke-width:7.238256;" />
<line x1="2419.106772" y1="1322.314050" x2="2406.039509" y2="990.909091" class="n" style="stroke-width:0.958250;" />
<line x1="2406.039509" y1="990.909091" x2="2217.870921" y2="1058.677686" class="n" style="stroke-width:0.958250;" />
<line x1="2217.870921" y1="1058.677686" x2="2419.106772" y2="1322.314050" class="n" style="stroke-width:0.958250;" />
<line x1="2406.039509" y1="990.909091" x2="2204.803658" y2="727.272727" class="m" style="stroke-width:7.238256;" />
<line x1="2204.803658" y1="727.272727" x2="2217.870921" y2="1058.677686" class="m" style="stroke-width:7.238256;" />
<line x1="2419.106772" y1="1322.314050" x2="2607.275360" y2="1254.545455" class="v" style="stroke-width:4.918066;" />
<line x1="2607.275360" y1="1254.545455" x2="2406.039509" y2="990.909091" class="m" style="stroke-width:7.238256;" />
<line x1="2230.938184" y1="1390.082645" x2="2419.106772" y2="1322.314050" class="v" style="stroke-width:4.918066;" />
<line x1="2217.870921" y1="1058.677686" x2="2230.938184" y2="1390.082645" class="m" style="stroke-width:7.238256;" />
<line x1="2406.039509" y1="463.636364" x2="2521.031424" y2="627.272727" class="n" style="stroke-width:0.958250;" />
<line x1="2521.031424" y1="627.272727" x2="2722.267275" y2="363.636364" class="n" style="stroke-width:0.958250;" />
<line x1="2722.267275" y1="363.636364" x2="2406.039509" y2="463.636364" class="n" style="stroke-width:0.958250;" />
<line x1="2204.803658" y1="727.272727" x2="2521.031424" y2="627.272727" class="m" style="stroke-width:7.238256;" />
<line x1="2406.039509" y1="463.636364" x2="2204.803658" y2="727.272727" class="m" style="stroke-width:7.238256;" />
<line x1="2722.267275" y1="363.636364" x2="2607.275360" y2="200.000000" class="v" style="stroke-width:4.918066;" />
<line x1="2607.275360" y1="200.000000" x2="2406.039509" y2="463.636364" class="m" style="stroke-width:7.238256;" />
<line x1="2837.259190" y1="527.272727" x2="2722.267275" y2="363.636364" class="v" style="stroke-width:4.918066;" />
<line x1="2521.031424" y1="627.272727" x2="2837.259190" y2="527.272727" class="m" style="stroke-width:7.238256;" />
<line x1="2521.031424" y1="627.272727" x2="2521.031424" y2="827.272727" class="n" style="stroke-width:0.958250;" />
<line x1="2521.031424" y1="827.272727" x2="2837.259190" y2="727.272727" class="n" style="stroke-width:0.958250;" />
<line x1="2837.259190" y1="727.272727" x2="2521.031424" y2="627.272727" class="n" style="stroke-width:0.958250;" />
<line x1="2204.803658" y1="727.272727" x2="2521.031424" y2="827.272727" class="m" style="stroke-width:7.238256;" />
<line x1="2837.259190" y1="727.272727" x2="2837.259190" y2="527.272727" class="v" style="stroke-width:4.918066;" />
<line x1="2837.259190" y1="927.272727" x2="2837.259190" y2="727.272727" class="v" style="stroke-width:4.918066;" />
<line x1="2521.031424" y1="827.272727" x2="2837.259190" y2="927.272727" class="m" style="stroke-width:7.238256;" />
<line x1="2722.267275" y1="1090.909091" x2="2521.031424" y2="827.272727" class="n" style="stroke-width:0.958250;" />
<line x1="2521.031424" y1="827.272727" x2="2406.039509" y2="990.909091" class="n" style="stroke-width:0.958250;" />
<line x1="2406.039509" y1="990.909091" x2="2722.267275" y2="1090.909091" class="n" style="stroke-width:0.958250;" />
<line x1="2722.267275" y1="1090.909091" x2="2837.259190" y2="927.272727" class="v" style="stroke-width:4.918066;" />
<line x1="2607.275360" y1="1254.545455" x2="2722.267275" y2="1090.909091" class="v" style="stroke-width:4.918066;" />
<line x1="2317.182120" y1="2017.355372" x2="2317.182120" y2="1817.355372" class="n" style="stroke-width:0.958250;" />
<line x1="2317.182120" y1="1817.355372" x2="2000.954354" y2="1917.355372" class="n" style="stroke-width:0.958250;" />
<line x1="2000.954354" y1="1917.355372" x2="2317.182120" y2="2017.355372" class="n" style="stroke-width:0.958250;" />
<line x1="2317.182120" y1="2017.355372" x2="2633.409886" y2="1917.355372" class="m" style="stroke-width:7.238256;" />
<line x1="2633.409886" y1="1917.355372" x2="2317.182120" y2="1817.355372" class="m" style="stroke-width:7.238256;" />
<line x1="2000.954354" y1="2117.355372" x2="2317.182120" y2="2017.355372" class="m" style="stroke-width:7.238256;" />
<line x1="2317.182120" y1="1817.355372" x2="2000.954354" y2="1717.355372" class="m" style="stroke-width:7.238256;" />
<line x1="2317.182120" y1="1817.355372" x2="2432.174035" y2="1653.719008" class="n" style="stroke-width:0.958250;" />
<line x1="2432.174035" y1="1653.719008" x2="2115.946269" y2="1553.719008" class="n" style="stroke-width:0.958250;" />
<line x1="2115.946269" y1="1553.719008" x2="2317.182120" y2="1817.355372" class="n" style="stroke-width:0.958250;" />
<line x1="2633.409886" y1="1917.355372" x2="2432.174035" y2="1653.719008" class="m" style="stroke-width:7.238256;" />
<line x1="2115.946269" y1="1553.719008" x2="2000.954354" y2="1717.355372" class="v" style="stroke-width:4.918066;" />
<line x1="2230.938184" y1="1390.082645" x2="2115.946269" y2="1553.719008" class="v" style="stroke-width:4.918066;" />
<line x1="2432.174035" y1="1653.719008" x2="2230.938184" y2="1390.082645" class="m" style="stroke-width:7.238256;" />
<line x1="2620.342623" y1="1585.950413" x2="2419.106772" y2="1322.314050" class="n" style="stroke-width:0.958250;" />
<line x1="2419.106772" y1="1322.314050" x2="2432.174035" y2="1653.719008" class="n" style="stroke-width:0.958250;" />
<line x1="2432.174035" y1="1653.719008" x2="2620.342623" y2="1585.950413" class="n" style="stroke-width:0.958250;" />
<line x1="2633.409886" y1="1917.355372" x2="2620.342623" y2="1585.950413" class="m" style="stroke-width:7.238256;" />
<line x1="2620.342623" y1="1585.950413" x2="2607.275360" y2="1254.545455" class="m" style="stroke-width:7.238256;" />
<line x1="2115.946269" y1="2280.991736" x2="2432.174035" y2="2180.991736" class="n" style="stroke-width:0.958250;" />
<line x1="2432.174035" y1="2180.991736" x2="2317.182120" y2="2017.355372" class="n" style="stroke-width:0.958250;" />
<line x1="2317.182120" y1="2017.355372" x2="2115.946269" y2="2280.991736" class="n" style="stroke-width:0.958250;" />
<line x1="2432.174035" y1="2180.991736" x2="2633.409886" y2="1917.355372" class="m" style="stroke-width:7.238256;" />
<line x1="2115.946269" y1="2280.991736" x2="2230.938184" y2="2444.628099" class="v" style="stroke-width:4.918066;" />
<line x1="2230.938184" y1="2444.628099" x2="2432.174035" y2="2180.991736" class="m" style="stroke-width:7.238256;" />
<line x1="2000.954354" y1="2117.355372" x2="2115.946269" y2="2280.991736" class="v" style="stroke-width:4.918066;" />
<line x1="2230.938184" y1="2644.628099" x2="1914.710418" y2="2544.628099" class="n" style="stroke-width:0.958250;" />
<line x1="1914.710418" y1="2544.628099" x2="1914.710418" y2="2744.628099" class="n" style="stroke-width:0.958250;" />
<line x1="1914.710418" y1="2744.628099" x2="2230.938184" y2="2644.628099" class="n" style="stroke-width:0.958250;" />
<line x1="1598.482652" y1="2644.628099" x2="1914.710418" y2="2744.628099" class="m" style="stroke-width:7.238256;" />
<line x1="1914.710418" y1="2544.628099" x2="1598.482652" y2="2644.628099" class="m" style="stroke-width:7.238256;" />
<line x1="2230.938184" y1="2444.628099" x2="1914.710418" y2="2544.628099" class="m" style="stroke-width:7.238256;" />
<line x1="2230.938184" y1="2644.628099" x2="2230.938184" y2="2444.628099" class="v" style="stroke-width:4.918066;" />
<line x1="1914.710418" y1="2744.628099" x2="2230.938184" y2="2844.628099" class="m" style="stroke-width:7.238256;" />
<line x1="2230.938184" y1="2844.628099" x2="2230.938184" y2="2644.628099" class="v" style="stroke-width:4.918066;" />
<line x1="1914.710418" y1="2544.628099" x2="2115.946269" y2="2280.991736" class="n" style="stroke-width:0.958250;" />
<line x1="2115.946269" y1="2280.991736" x2="1799.718503" y2="2380.991736" class="n" style="stroke-width:0.958250;" />
<line x1="1799.718503" y1="2380.991736" x2="1914.710418" y2="2544.628099" class="n" style="stroke-width:0.958250;" />
<line x1="1799.718503" y1="2380.991736" x2="1598.482652" y2="2644.628099" class="m" style="stroke-width:7.238256;" />
<line x1="2000.954354" y1="2117.355372" x2="1799.718503" y2="2380.991736" class="m" style="stroke-width:7.238256;" />
<line x1="1611.549915" y1="2976.033058" x2="1812.785766" y2="3239.669421" class="n" style="stroke-width:0.958250;" />
<line x1="1812.785766" y1="3239.669421" x2="1799.718503" y2="2908.264463" class="n" style="stroke-width:0.958250;" />
<line x1="1799.718503" y1="2908.264463" x2="1611.549915" y2="2976.033058" class="n" style="stroke-width:0.958250;" />
<line x1="1799.718503" y1="2908.264463" x2="1598.482652" y2="2644.628099" class="m" style="stroke-width:7.238256;" />
<line x1="1598.482652" y1="2644.628099" x2="1611.549915" y2="2976.033058" class="m" style="stroke-width:7.238256;" />
<line x1="2000.954354" y1="3171.900826" x2="1799.718503" y2="2908.264463" class="m" style="stroke-width:7.238256;" />
<line x1="1611.549915" y1="2976.033058" x2="1624.617178" y2="3307.438017" class="m" style="stroke-width:7.238256;" />
<line x1="2115.946269" y1="3008.264463" x2="1914.710418" y2="2744.628099" class="n" style="stroke-width:0.958250;" />
<line x1="1914.710418" y1="2744.628099" x2="1799.718503" y2="2908.264463" class="n" style="stroke-width:0.958250;" />
<line x1="1799.718503" y1="2908.264463" x2="2115.946269" y2="3008.264463" class="n" style="stroke-width:0.958250;" />
<line x1="2115.946269" y1="3008.264463" x2="2230.938184" y2="2844.628099" class="v" style="stroke-width:4.918066;" />
<line x1="2000.954354" y1="3171.900826" x2="2115.946269" y2="3008.264463" class="v" style="stroke-width:4.918066;" />
<line x1="1050.607950" y1="1815.176559" x2="1063.675213" y2="2146.581518" class="n" style="stroke-width:0.958250;" />
<line x1="1063.675213" y1="2146.581518" x2="1251.843801" y2="2078.812923" class="n" style="stroke-width:0.958250;" />
<line x1="1251.843801" y1="2078.812923" x2="1050.607950" y2="1815.176559" class="n" style="stroke-width:0.958250;" />
<line x1="1264.911064" y1="2410.217881" x2="1251.843801" y2="2078.812923" class="m" style="stroke-width:7.238256;" />
<line x1="1063.675213" y1="2146.581518" x2="1264.911064" y2="2410.217881" class="m" style="stroke-width:7.238256;" />
<line x1="862.439362" y1="1882.945154" x2="1063.675213" y2="2146.581518" class="m" style="stroke-width:7.238256;" />
<line x1="1050.607950" y1="1815.176559" x2="862.439362" y2="1882.945154" class="v" style="stroke-width:4.918066;" />
<line x1="1251.843801" y1="2078.812923" x2="1238.776538" y2="1747.407964" class="m" style="stroke-width:7.238256;" />
<line x1="1238.776538" y1="1747.407964" x2="1050.607950" y2="1815.176559" class="v" style="stroke-width:4.918066;" />
<line x1="1063.675213" y1="2146.581518" x2="747.447447" y2="2046.581518" class="n" style="stroke-width:0.958250;" />
<line x1="747.447447" y1="2046.581518" x2="948.683298" y2="2310.217881" class="n" style="stroke-width:0.958250;" />
<line x1="948.683298" y1="2310.217881" x2="1063.675213" y2="2146.581518" class="n" style="stroke-width:0.958250;" />
<line x1="948.683298" y1="2310.217881" x2="1264.911064" y2="2410.217881" class="m" style="stroke-width:7.238256;" />
<line x1="632.455532" y1="2210.217881" x2="948.683298" y2="2310.217881" class="m" style="stroke-width:7.238256;" />
<line x1="747.447447" y1="2046.581518" x2="632.455532" y2="2210.217881" class="v" style="stroke-width:4.918066;" />
<line x1="862.439362" y1="1882.945154" x2="747.447447" y2="2046.581518" class="v" style="stroke-width:4.918066;" />
<line x1="948.683298" y1="2310.217881" x2="632.455532" y2="2410.217881" class="n" style="stroke-width:0.958250;" />
<line x1="632.455532" y1="2410.217881" x2="948.683298" y2="2510.217881" class="n" style="stroke-width:0.958250;" />
<line x1="948.683298" y1="2510.217881" x2="948.683298" y2="2310.217881" class="n" style="stroke-width:0.958250;" />
<line x1="948.683298" y1="2510.217881" x2="1264.911064" y2="2410.217881" class="m" style="stroke-width:7.238256;" />
<line x1="632.455532" y1="2610.217881" x2="948.683298" y2="2510.217881" class="m" style="stroke-width:7.238256;" />
<line x1="1431.696858" y1="1800.150263" x2="1251.843801" y2="2078.812923" class="n" style="stroke-width:0.958250;" />
<line x1="1251.843801" y1="2078.812923" x2="1444.764121" y2="2131.555222" class="n" style="stroke-width:0.958250;" />
<line x1="1444.764121" y1="2131.555222" x2="1431.696858" y2="1800.150263" class="n" style="stroke-width:0.958250;" />
<line x1="1264.911064" y1="2410.217881" x2="1444.764121" y2="2131.555222" class="m" style="stroke-width:7.238256;" />
<line x1="1431.696858" y1="1800.150263" x2="1238.776538" y2="1747.407964" class="v" style="stroke-width:4.918066;" />
<line x1="1624.617178" y1="1852.892562" x2="1431.696858" y2="1800.150263" class="v" style="stroke-width:4.918066;" />
<line x1="1444.764121" y1="2131.555222" x2="1624.617178" y2="1852.892562" class="m" style="stroke-width:7.238256;" />
<line x1="1799.718503" y1="1453.719008" x2="1611.549915" y2="1521.487603" class="n" style="stroke-width:0.958250;" />
<line x1="1611.549915" y1="1521.487603" x2="1812.785766" y2="1785.123967" class="n" style="stroke-width:0.958250;" />
<line x1="1812.785766" y1="1785.123967" x2="1799.718503" y2="1453.719008" class="n" style="stroke-width:0.958250;" />
<line x1="1799.718503" y1="1453.719008" x2="1598.482652" y2="1190.082645" class="m" style="stroke-width:7.238256;" />
<line x1="1598.482652" y1="1190.082645" x2="1611.549915" y2="1521.487603" class="m" style="stroke-width:7.238256;" />
<line x1="2000.954354" y1="1717.355372" x2="1799.718503" y2="1453.719008" class="m" style="stroke-width:7.238256;" />
<line x1="1611.549915" y1="1521.487603" x2="1624.617178" y2="1852.892562" class="m" style="stroke-width:7.238256;" />
<line x1="1418.629595" y1="1468.745304" x2="1431.696858" y2="1800.150263" class="n" style="stroke-width:0.958250;" />
<line x1="1431.696858" y1="1800.150263" x2="1611.549915" y2="1521.487603" class="n" style="stroke-width:0.958250;" />
<line x1="1611.549915" y1="1521.487603" x2="1418.629595" y2="1468.745304" class="n" style="stroke-width:0.958250;" />
<line x1="1598.482652" y1="1190.082645" x2="1418.629595" y2="1468.745304" class="m" style="stroke-width:7.238256;" />
<line x1="1418.629595" y1="1468.745304" x2="1238.776538" y2="1747.407964" class="m" style="stroke-width:7.238256;" />
<line x1="2923.503126" y1="100.000000" x2="2722.267275" y2="363.636364" class="n" style="stroke-width:0.958250;" />
<line x1="2722.267275" y1="363.636364" x2="3038.495041" y2="263.636364" class="n" style="stroke-width:0.958250;" />
<line x1="3038.495041" y1="263.636364" x2="2923.503126" y2="100.000000" class="n" style="stroke-width:0.958250;" />
<line x1="3239.730892" y1="0.000000" x2="2923.503126" y2="100.000000" class="m" style="stroke-width:7.238256;" />
<line x1="3038.495041" y1="263.636364" x2="3239.730892" y2="0.000000" class="m" style="stroke-width:7.238256;" />
<line x1="2837.259190" y1="527.272727" x2="3038.495041" y2="263.636364" class="m" style="stroke-width:7.238256;" />
<line x1="2923.503126" y1="100.000000" x2="2607.275360" y2="200.000000" class="m" style="stroke-width:7.238256;" />
<line x1="2115.946269" y1="1553.719008" x2="1914.710418" y2="1290.082645" class="n" style="stroke-width:0.958250;" />
<line x1="1914.710418" y1="1290.082645" x2="1799.718503" y2="1453.719008" class="n" style="stroke-width:0.958250;" />
<line x1="1799.718503" y1="1453.719008" x2="2115.946269" y2="1553.719008" class="n" style="stroke-width:0.958250;" />
<line x1="1914.710418" y1="1290.082645" x2="1598.482652" y2="1190.082645" class="m" style="stroke-width:7.238256;" />
<line x1="2230.938184" y1="1390.082645" x2="1914.710418" y2="1290.082645" class="m" style="stroke-width:7.238256;" />
<text x="1830.487410" y="1863.448991" transform="rotate(17.548400 1830.487410 1863.448991)" fill="darkgreen" font-weight="bold" font-size="64.780000">2</text>
<text x="1855.193532" y="1871.261753" transform="rotate(-162.451590 1855.193532 1871.261753)" fill="darkgreen" font-weight="bold" font-size="64.780000">2</text>
<text x="1918.609916" y="3692.593921" transform="rotate(52.645199 1918.609916 3692.593921)" fill="darkgreen" font-weight="bold" font-size="64.780000">3</text>
<text x="1514.259644" y="1963.448991" transform="rotate(17.548400 1514.259644 1963.448991)" fill="darkgreen" font-weight="bold" font-size="64.780000">3</text>
<text x="1538.965766" y="1863.448991" transform="rotate(162.451590 1538.965766 1863.448991)" fill="darkgreen" font-weight="bold" font-size="64.780000">4</text>
<text x="2021.065706" y="2227.408750" transform="rotate(-92.257992 2021.065706 2227.408750)" fill="darkgreen" font-weight="bold" font-size="64.780000">4</text>
<text x="2007.998443" y="1896.003792" transform="rotate(-92.257992 2007.998443 1896.003792)" fill="darkgreen" font-weight="bold" font-size="64.780000">5</text>
<text x="1855.193532" y="1763.448991" transform="rotate(162.451590 1855.193532 1763.448991)" fill="darkgreen" font-weight="bold" font-size="64.780000">5</text>
<text x="1830.487410" y="2063.448991" transform="rotate(17.548400 1830.487410 2063.448991)" fill="darkgreen" font-weight="bold" font-size="64.780000">8</text>
<text x="1717.374065" y="3428.957558" transform="rotate(52.645199 1717.374065 3428.957558)" fill="darkgreen" font-weight="bold" font-size="64.780000">8</text>
<text x="1929.125770" y="1937.539430" transform="rotate(-127.354791 1929.125770 1937.539430)" fill="darkgreen" font-weight="bold" font-size="64.780000">10</text>
<text x="1897.681614" y="1896.344867" transform="rotate(52.645199 1897.681614 1896.344867)" fill="darkgreen" font-weight="bold" font-size="64.780000">10</text>
<text x="1910.748877" y="2227.749826" transform="rotate(52.645199 1910.748877 2227.749826)" fill="darkgreen" font-weight="bold" font-size="64.780000">12</text>
<text x="133.407760" y="2452.405119" transform="rotate(17.548400 133.407760 2452.405119)" fill="darkgreen" font-weight="bold" font-size="64.780000">12</text>
<text x="449.635526" y="2552.405119" transform="rotate(17.548400 449.635526 2552.405119)" fill="darkgreen" font-weight="bold" font-size="64.780000">13</text>
<text x="1709.513026" y="1964.113462" transform="rotate(52.645199 1709.513026 1964.113462)" fill="darkgreen" font-weight="bold" font-size="64.780000">13</text>
<text x="449.635526" y="2468.030643" transform="rotate(-17.548400 449.635526 2468.030643)" fill="darkgreen" font-weight="bold" font-size="64.780000">17</text>
<text x="499.047772" y="2452.405119" transform="rotate(162.451590 499.047772 2452.405119)" fill="darkgreen" font-weight="bold" font-size="64.780000">17</text>
<text x="182.820006" y="2352.405119" transform="rotate(162.451590 182.820006 2352.405119)" fill="darkgreen" font-weight="bold" font-size="64.780000">19</text>
<text x="2021.576163" y="3694.900145" transform="rotate(-92.257992 2021.576163 3694.900145)" fill="darkgreen" font-weight="bold" font-size="64.780000">19</text>
<text x="2008.508900" y="3363.495186" transform="rotate(-92.257992 2008.508900 3363.495186)" fill="darkgreen" font-weight="bold" font-size="64.780000">20</text>
<text x="499.047772" y="2252.405119" transform="rotate(162.451590 499.047772 2252.405119)" fill="darkgreen" font-weight="bold" font-size="64.780000">20</text>
<text x="1820.340312" y="3431.263781" transform="rotate(-92.257992 1820.340312 3431.263781)" fill="darkgreen" font-weight="bold" font-size="64.780000">25</text>
<text x="1818.298483" y="3379.480020" transform="rotate(87.741998 1818.298483 3379.480020)" fill="darkgreen" font-weight="bold" font-size="64.780000">25</text>
<text x="2411.552226" y="1130.719690" transform="rotate(87.741998 2411.552226 1130.719690)" fill="darkgreen" font-weight="bold" font-size="64.780000">30</text>
<text x="2413.594055" y="1182.503451" transform="rotate(-92.257992 2413.594055 1182.503451)" fill="darkgreen" font-weight="bold" font-size="64.780000">30</text>
<text x="2321.143661" y="574.857264" transform="rotate(127.354791 2321.143661 574.857264)" fill="darkgreen" font-weight="bold" font-size="64.780000">31</text>
<text x="2210.316375" y="867.083326" transform="rotate(87.741998 2210.316375 867.083326)" fill="darkgreen" font-weight="bold" font-size="64.780000">31</text>
<text x="2223.383638" y="1198.488285" transform="rotate(87.741998 2223.383638 1198.488285)" fill="darkgreen" font-weight="bold" font-size="64.780000">36</text>
<text x="2522.379513" y="311.220900" transform="rotate(127.354791 2522.379513 311.220900)" fill="darkgreen" font-weight="bold" font-size="64.780000">36</text>
<text x="2605.927271" y="516.051827" transform="rotate(-52.645199 2605.927271 516.051827)" fill="darkgreen" font-weight="bold" font-size="64.780000">38</text>
<text x="2637.371427" y="474.857264" transform="rotate(127.354791 2637.371427 474.857264)" fill="darkgreen" font-weight="bold" font-size="64.780000">38</text>
<text x="2654.439184" y="785.085489" transform="rotate(-17.548400 2654.439184 785.085489)" fill="darkgreen" font-weight="bold" font-size="64.780000">45</text>
<text x="2703.851430" y="769.459965" transform="rotate(162.451590 2703.851430 769.459965)" fill="darkgreen" font-weight="bold" font-size="64.780000">45</text>
<text x="2837.259190" y="653.184727" transform="rotate(-89.999995 2837.259190 653.184727)" fill="darkgreen" font-weight="bold" font-size="64.780000">48</text>
<text x="1169.071366" y="1772.512162" transform="rotate(160.193594 1169.071366 1772.512162)" fill="darkgreen" font-weight="bold" font-size="64.780000">48</text>
<text x="980.902778" y="1840.280757" transform="rotate(160.193594 980.902778 1840.280757)" fill="darkgreen" font-weight="bold" font-size="64.780000">49</text>
<text x="2837.259190" y="853.184727" transform="rotate(-89.999995 2837.259190 853.184727)" fill="darkgreen" font-weight="bold" font-size="64.780000">49</text>
<text x="2764.864880" y="1030.291636" transform="rotate(-54.903196 2764.864880 1030.291636)" fill="darkgreen" font-weight="bold" font-size="64.780000">54</text>
<text x="2230.938184" y="2770.540099" transform="rotate(-89.999995 2230.938184 2770.540099)" fill="darkgreen" font-weight="bold" font-size="64.780000">54</text>
<text x="2230.938184" y="2570.540099" transform="rotate(-89.999995 2230.938184 2570.540099)" fill="darkgreen" font-weight="bold" font-size="64.780000">55</text>
<text x="2649.872965" y="1193.928000" transform="rotate(-54.903196 2649.872965 1193.928000)" fill="darkgreen" font-weight="bold" font-size="64.780000">55</text>
<text x="2450.589881" y="1859.542610" transform="rotate(17.548400 2450.589881 1859.542610)" fill="darkgreen" font-weight="bold" font-size="64.780000">59</text>
<text x="2500.002126" y="1875.168134" transform="rotate(-162.451590 2500.002126 1875.168134)" fill="darkgreen" font-weight="bold" font-size="64.780000">59</text>
<text x="2450.589881" y="1975.168134" transform="rotate(-17.548400 2450.589881 1975.168134)" fill="darkgreen" font-weight="bold" font-size="64.780000">60</text>
<text x="2500.002126" y="1959.542610" transform="rotate(162.451590 2500.002126 1959.542610)" fill="darkgreen" font-weight="bold" font-size="64.780000">60</text>
<text x="2517.069883" y="1764.939909" transform="rotate(52.645199 2517.069883 1764.939909)" fill="darkgreen" font-weight="bold" font-size="64.780000">66</text>
<text x="2548.514039" y="1806.134472" transform="rotate(-127.354791 2548.514039 1806.134472)" fill="darkgreen" font-weight="bold" font-size="64.780000">66</text>
<text x="2426.661318" y="1513.908409" transform="rotate(-92.257992 2426.661318 1513.908409)" fill="darkgreen" font-weight="bold" font-size="64.780000">72</text>
<text x="2424.619489" y="1462.124648" transform="rotate(87.741998 2424.619489 1462.124648)" fill="darkgreen" font-weight="bold" font-size="64.780000">72</text>
<text x="2517.069883" y="2069.770835" transform="rotate(-52.645199 2517.069883 2069.770835)" fill="darkgreen" font-weight="bold" font-size="64.780000">73</text>
<text x="2627.897169" y="1777.544773" transform="rotate(-92.257992 2627.897169 1777.544773)" fill="darkgreen" font-weight="bold" font-size="64.780000">73</text>
<text x="2614.829906" y="1446.139814" transform="rotate(-92.257992 2614.829906 1446.139814)" fill="darkgreen" font-weight="bold" font-size="64.780000">74</text>
<text x="2315.834032" y="2333.407199" transform="rotate(-52.645199 2315.834032 2333.407199)" fill="darkgreen" font-weight="bold" font-size="64.780000">74</text>
<text x="2232.286273" y="2128.576272" transform="rotate(127.354791 2232.286273 2128.576272)" fill="darkgreen" font-weight="bold" font-size="64.780000">76</text>
<text x="2200.842117" y="2169.770835" transform="rotate(-52.645199 2200.842117 2169.770835)" fill="darkgreen" font-weight="bold" font-size="64.780000">76</text>
<text x="1999.606266" y="2433.407199" transform="rotate(-52.645199 1999.606266 2433.407199)" fill="darkgreen" font-weight="bold" font-size="64.780000">88</text>
<text x="2031.050422" y="2392.212636" transform="rotate(127.354791 2031.050422 2392.212636)" fill="darkgreen" font-weight="bold" font-size="64.780000">88</text>
<text x="1714.822656" y="2492.212636" transform="rotate(127.354791 1714.822656 2492.212636)" fill="darkgreen" font-weight="bold" font-size="64.780000">90</text>
<text x="1603.995369" y="2784.438698" transform="rotate(87.741998 1603.995369 2784.438698)" fill="darkgreen" font-weight="bold" font-size="64.780000">90</text>
<text x="1617.062632" y="3115.843657" transform="rotate(87.741998 1617.062632 3115.843657)" fill="darkgreen" font-weight="bold" font-size="64.780000">91</text>
<text x="1916.058507" y="2228.576272" transform="rotate(127.354791 1916.058507 2228.576272)" fill="darkgreen" font-weight="bold" font-size="64.780000">91</text>
<text x="1807.273049" y="3099.858823" transform="rotate(-92.257992 1807.273049 3099.858823)" fill="darkgreen" font-weight="bold" font-size="64.780000">94</text>
<text x="1805.231220" y="3048.075062" transform="rotate(87.741998 1805.231220 3048.075062)" fill="darkgreen" font-weight="bold" font-size="64.780000">94</text>
<text x="1999.606266" y="2855.848999" transform="rotate(52.645199 1999.606266 2855.848999)" fill="darkgreen" font-weight="bold" font-size="64.780000">99</text>
<text x="2031.050422" y="2897.043563" transform="rotate(-127.354791 2031.050422 2897.043563)" fill="darkgreen" font-weight="bold" font-size="64.780000">99</text>
<text x="2151.094698" y="2958.247372" transform="rotate(-54.903196 2151.094698 2958.247372)" fill="darkgreen" font-weight="bold" font-size="64.780000">100</text>
<text x="827.290933" y="1932.962245" transform="rotate(125.096794 827.290933 1932.962245)" fill="darkgreen" font-weight="bold" font-size="64.780000">100</text>
<text x="712.299018" y="2096.598609" transform="rotate(125.096794 712.299018 2096.598609)" fill="darkgreen" font-weight="bold" font-size="64.780000">101</text>
<text x="2036.102783" y="3121.883736" transform="rotate(-54.903196 2036.102783 3121.883736)" fill="darkgreen" font-weight="bold" font-size="64.780000">101</text>
<text x="942.620514" y="2108.300661" transform="rotate(-162.451590 942.620514 2108.300661)" fill="darkgreen" font-weight="bold" font-size="64.780000">110</text>
<text x="868.502146" y="2084.862375" transform="rotate(17.548400 868.502146 2084.862375)" fill="darkgreen" font-weight="bold" font-size="64.780000">110</text>
<text x="827.628599" y="2348.498738" transform="rotate(162.451590 827.628599 2348.498738)" fill="darkgreen" font-weight="bold" font-size="64.780000">115</text>
<text x="753.510231" y="2371.937024" transform="rotate(-17.548400 753.510231 2371.937024)" fill="darkgreen" font-weight="bold" font-size="64.780000">115</text>
<text x="1069.737997" y="2471.937024" transform="rotate(-17.548400 1069.737997 2471.937024)" fill="darkgreen" font-weight="bold" font-size="64.780000">117</text>
<text x="1333.760356" y="2303.543427" transform="rotate(-57.161193 1333.760356 2303.543427)" fill="darkgreen" font-weight="bold" font-size="64.780000">117</text>
<text x="1513.613413" y="2024.880767" transform="rotate(-57.161193 1513.613413 2024.880767)" fill="darkgreen" font-weight="bold" font-size="64.780000">118</text>
<text x="753.510231" y="2571.937024" transform="rotate(-17.548400 753.510231 2571.937024)" fill="darkgreen" font-weight="bold" font-size="64.780000">118</text>
<text x="1320.693093" y="1972.138468" transform="rotate(-57.161193 1320.693093 1972.138468)" fill="darkgreen" font-weight="bold" font-size="64.780000">121</text>
<text x="1362.847566" y="1906.824717" transform="rotate(122.838798 1362.847566 1906.824717)" fill="darkgreen" font-weight="bold" font-size="64.780000">121</text>
<text x="1606.547655" y="1394.622945" transform="rotate(-92.257992 1606.547655 1394.622945)" fill="darkgreen" font-weight="bold" font-size="64.780000">127</text>
<text x="1603.484912" y="1316.947303" transform="rotate(87.741998 1603.484912 1316.947303)" fill="darkgreen" font-weight="bold" font-size="64.780000">127</text>
<text x="1722.683695" y="1352.796749" transform="rotate(-127.354791 1722.683695 1352.796749)" fill="darkgreen" font-weight="bold" font-size="64.780000">128</text>
<text x="1675.517460" y="1291.004904" transform="rotate(52.645199 1675.517460 1291.004904)" fill="darkgreen" font-weight="bold" font-size="64.780000">128</text>
<text x="1542.700623" y="1628.162058" transform="rotate(122.838798 1542.700623 1628.162058)" fill="darkgreen" font-weight="bold" font-size="64.780000">133</text>
<text x="1500.546150" y="1693.475809" transform="rotate(-57.161193 1500.546150 1693.475809)" fill="darkgreen" font-weight="bold" font-size="64.780000">133</text>
<text x="3115.529850" y="162.714104" transform="rotate(-52.645199 3115.529850 162.714104)" fill="darkgreen" font-weight="bold" font-size="64.780000">134</text>
<text x="1529.633360" y="1296.757099" transform="rotate(122.838798 1529.633360 1296.757099)" fill="darkgreen" font-weight="bold" font-size="64.780000">134</text>
<text x="1349.780303" y="1575.419759" transform="rotate(122.838798 1349.780303 1575.419759)" fill="darkgreen" font-weight="bold" font-size="64.780000">135</text>
<text x="2914.293998" y="426.350468" transform="rotate(-52.645199 2914.293998 426.350468)" fill="darkgreen" font-weight="bold" font-size="64.780000">135</text>
<text x="2799.302084" y="262.714104" transform="rotate(-52.645199 2799.302084 262.714104)" fill="darkgreen" font-weight="bold" font-size="64.780000">137</text>
<text x="2846.468318" y="200.922260" transform="rotate(127.354791 2846.468318 200.922260)" fill="darkgreen" font-weight="bold" font-size="64.780000">137</text>
<text x="1793.655719" y="1251.801788" transform="rotate(-162.451590 1793.655719 1251.801788)" fill="darkgreen" font-weight="bold" font-size="64.780000">139</text>
<text x="3118.676193" y="38.280857" transform="rotate(162.451590 3118.676193 38.280857)" fill="darkgreen" font-weight="bold" font-size="64.780000">139</text>
<text x="2802.448427" y="138.280857" transform="rotate(162.451590 2802.448427 138.280857)" fill="darkgreen" font-weight="bold" font-size="64.780000">140</text>
<text x="2109.883485" y="1351.801788" transform="rotate(-162.451590 2109.883485 1351.801788)" fill="darkgreen" font-weight="bold" font-size="64.780000">140</text>
<text x="1920.773202" y="1491.999865" transform="rotate(17.548400 1920.773202 1491.999865)" fill="darkgreen" font-weight="bold" font-size="64.780000">142</text>
<text x="1994.891570" y="1515.438151" transform="rotate(-162.451590 1994.891570 1515.438151)" fill="darkgreen" font-weight="bold" font-size="64.780000">142</text>
</svg>
