<?xml version="1.0"?>
<svg width="3239" height="3833" version="1.1" xmlns="http://www.w3.org/2000/svg" >
<defs>
<style type="text/css"><![CDATA[
.m {stroke:rgb(255,0,0);stroke-width:4.791250;}
.v {stroke:rgb(0,0,255);stroke-width:4.791250;}
.b {stroke:rgb(0,0,0);stroke-width:9.582500;fill:white}
.n {stroke:rgb(128,128,128);stroke-width:4.791250}
.t {stroke:rgb(0,128,0);stroke-width:4.791250;}
.c {stroke:rgb(128,128,128);stroke-width:4.791250;stroke-dasharray:32.390000, 32.390000;}
]]></style>
</defs>
<path fill="none" style="stroke:black;stroke-width:9.582500;" d=" M 2000.95 1917.36 L 1684.73 1817.36 M 1368.5 1917.36 L 1684.73 2017.36 M 1684.73 1817.36 L 1368.5 1917.36 M 1684.73 1817.36 L 2000.95 1917.36 M 2000.95 1717.36 L 1684.73 1817.36 M 1684.73 2017.36 L 2000.95 2117.36 M 2014.02 2048.76 L 1812.79 1785.12 M 1825.85 2116.53 L 2027.09 2380.17 M 2027.09 2380.17 L 2014.02 2048.76 M 1624.62 1852.89 L 1825.85 2116.53 M 1812.79 1785.12 L 2014.02 2048.76 M 2014.02 2048.76 L 2000.95 1717.36 M 316.228 2510.22 L 632.456 2410.22 M 316.228 2310.22 L 0 2410.22 M 0 2410.22 L 316.228 2510.22 M 632.456 2210.22 L 316.228 2310.22 M 632.456 2410.22 L 316.228 2510.22 M 316.228 2510.22 L 632.456 2610.22 M 1812.79 3239.67 L 1825.85 3571.07 M 1825.85 3571.07 L 2027.09 3834.71 M 2027.09 3834.71 L 2014.02 3503.31 M 1825.85 3571.07 L 1812.79 3239.67 M 1624.62 3307.44 L 1825.85 3571.07 M 2014.02 3503.31 L 2000.95 3171.9 M 2419.11 1322.31 L 2406.04 990.909 M 2204.8 727.273 L 2217.87 1058.68 M 2406.04 990.909 L 2419.11 1322.31 M 2217.87 1058.68 L 2230.94 1390.08 M 2521.03 627.273 L 2722.27 363.636 M 2406.04 463.636 L 2204.8 727.273 M 2607.28 200 L 2406.04 463.636 M 2722.27 363.636 L 2521.03 627.273 M 2521.03 827.273 L 2837.26 727.273 M 2837.26 727.273 L 2837.26 527.273 M 2837.26 927.273 L 2837.26 727.273 M 2837.26 727.273 L 2521.03 827.273 M 2722.27 1090.91 L 2837.26 927.273 M 2607.28 1254.55 L 2722.27 1090.91 M 2317.18 2017.36 L 2633.41 1917.36 M 2633.41 1917.36 L 2317.18 1817.36 M 2633.41 1917.36 L 2432.17 1653.72 M 2317.18 1817.36 L 2633.41 1917.36 M 2419.11 1322.31 L 2432.17 1653.72 M 2633.41 1917.36 L 2620.34 1585.95 M 2432.17 1653.72 L 2633.41 1917.36 M 2432.17 1653.72 L 2419.11 1322.31 M 2620.34 1585.95 L 2607.28 1254.55 M 2317.18 2017.36 L 2115.95 2280.99 M 2432.17 2180.99 L 2633.41 1917.36 M 2633.41 1917.36 L 2317.18 2017.36 M 2230.94 2444.63 L 2432.17 2180.99 M 2115.95 2280.99 L 2317.18 2017.36 M 2230.94 2644.63 L 2230.94 2444.63 M 2230.94 2844.63 L 2230.94 2644.63 M 1914.71 2544.63 L 2115.95 2280.99 M 1799.72 2380.99 L 1598.48 2644.63 M 2000.95 2117.36 L 1799.72 2380.99 M 2115.95 2280.99 L 1914.71 2544.63 M 1812.79 3239.67 L 1799.72 2908.26 M 1598.48 2644.63 L 1611.55 2976.03 M 1799.72 2908.26 L 1812.79 3239.67 M 1611.55 2976.03 L 1624.62 3307.44 M 2115.95 3008.26 L 1914.71 2744.63 M 1914.71 2744.63 L 2115.95 3008.26 M 2115.95 3008.26 L 2230.94 2844.63 M 2000.95 3171.9 L 2115.95 3008.26 M 1050.61 1815.18 L 862.439 1882.95 M 1238.78 1747.41 L 1050.61 1815.18 M 1063.68 2146.58 L 747.447 2046.58 M 747.447 2046.58 L 632.456 2210.22 M 862.439 1882.95 L 747.447 2046.58 M 747.447 2046.58 L 1063.68 2146.58 M 948.683 2310.22 L 632.456 2410.22 M 948.683 2510.22 L 1264.91 2410.22 M 632.456 2610.22 L 948.683 2510.22 M 632.456 2410.22 L 948.683 2310.22 M 1431.7 1800.15 L 1251.84 2078.81 M 1264.91 2410.22 L 1444.76 2131.56 M 1251.84 2078.81 L 1431.7 1800.15 M 1444.76 2131.56 L 1624.62 1852.89 M 1799.72 1453.72 L 1598.48 1190.08 M 1598.48 1190.08 L 1611.55 1521.49 M 1431.7 1800.15 L 1611.55 1521.49 M 1598.48 1190.08 L 1418.63 1468.75 M 1611.55 1521.49 L 1598.48 1190.08 M 1611.55 1521.49 L 1431.7 1800.15 M 1418.63 1468.75 L 1238.78 1747.41 M 2923.5 100 L 2722.27 363.636 M 3239.73 0 L 2923.5 100 M 3038.5 263.636 L 3239.73 0 M 2837.26 527.273 L 3038.5 263.636 M 2722.27 363.636 L 2923.5 100 M 2923.5 100 L 2607.28 200 M 1799.72 1453.72 L 2115.95 1553.72 M 1914.71 1290.08 L 1598.48 1190.08 M 1598.48 1190.08 L 1799.72 1453.72 M 2230.94 1390.08 L 1914.71 1290.08 M 2115.95 1553.72 L 1799.72 1453.72" />
<path fill="none" class="c" d=" M 2000.95 2117.36 L 2000.95 1917.36 M 2000.95 2117.36 L 2317.18 2017.36 M 2000.95 2117.36 L 2115.95 2280.99 M 2317.18 1817.36 L 2000.95 1717.36 M 2000.95 1717.36 L 2000.95 1917.36 M 2115.95 1553.72 L 2000.95 1717.36 M 1799.72 1453.72 L 2000.95 1717.36 M 1812.79 1785.12 L 2000.95 1717.36 M 1598.48 2644.63 L 1914.71 2544.63 M 1598.48 2644.63 L 1914.71 2744.63 M 1624.62 1852.89 L 1812.79 1785.12 M 1611.55 1521.49 L 1624.62 1852.89 M 1598.48 2644.63 L 1799.72 2908.26 M 1799.72 2908.26 L 2000.95 3171.9 M 1812.79 3239.67 L 2000.95 3171.9 M 1624.62 3307.44 L 1812.79 3239.67 M 1431.7 1800.15 L 1624.62 1852.89 M 2432.17 1653.72 L 2230.94 1390.08 M 2230.94 1390.08 L 2115.95 1553.72 M 2419.11 1322.31 L 2230.94 1390.08 M 1251.84 2078.81 L 1264.91 2410.22 M 1063.68 2146.58 L 1264.91 2410.22 M 948.683 2310.22 L 1264.91 2410.22 M 2406.04 990.909 L 2204.8 727.273 M 862.439 1882.95 L 1063.68 2146.58 M 2521.03 827.273 L 2204.8 727.273 M 632.456 2210.22 L 948.683 2310.22 M 632.456 2210.22 L 632.456 2410.22 M 2406.04 990.909 L 2607.28 1254.55 M 2419.11 1322.31 L 2607.28 1254.55 M 632.456 2410.22 L 632.456 2610.22 M 2521.03 627.273 L 2204.8 727.273 M 2837.26 527.273 L 2521.03 627.273 M 2722.27 363.636 L 2607.28 200 M 2837.26 527.273 L 2722.27 363.636 M 2837.26 927.273 L 2521.03 827.273 M 1914.71 2744.63 L 2230.94 2844.63 M 1251.84 2078.81 L 1238.78 1747.41 M 2230.94 2444.63 L 1914.71 2544.63 M 1431.7 1800.15 L 1238.78 1747.41 M 2230.94 2444.63 L 2115.95 2280.99" />
<line x1="1579.317333" y1="1917.355372" x2="1790.135843" y2="1917.355372" class="t" />
<line x1="1895.545099" y1="2017.355372" x2="1790.135843" y2="1917.355372" class="t" />
<line x1="2106.363610" y1="2017.355372" x2="1895.545099" y2="2017.355372" class="t" />
<line x1="2211.772865" y1="1917.355372" x2="2106.363610" y2="2017.355372" class="t" />
<line x1="2144.694248" y1="2138.567493" x2="2106.363610" y2="2017.355372" class="t" />
<line x1="2422.591376" y1="1917.355372" x2="2211.772865" y2="1917.355372" class="t" />
<line x1="2106.363610" y1="1817.355372" x2="2211.772865" y2="1917.355372" class="t" />
<line x1="1972.206375" y1="2259.779614" x2="2144.694248" y2="2138.567493" class="t" />
<line x1="2144.694248" y1="1696.143251" x2="2106.363610" y2="1817.355372" class="t" />
<line x1="1895.545099" y1="1817.355372" x2="2106.363610" y2="1817.355372" class="t" />
<line x1="1972.206375" y1="1574.931129" x2="2144.694248" y2="1696.143251" class="t" />
<line x1="1943.458397" y1="2402.203857" x2="1972.206375" y2="2259.779614" class="t" />
<line x1="1871.152874" y1="1652.066116" x2="1972.206375" y2="1574.931129" class="t" />
<line x1="1770.970524" y1="2523.415978" x2="1943.458397" y2="2402.203857" class="t" />
<line x1="1942.587246" y1="1850.413223" x2="1871.152874" y2="1652.066116" class="t" />
<line x1="1741.351395" y1="1586.776860" x2="1871.152874" y2="1652.066116" class="t" />
<line x1="1809.301163" y1="2644.628099" x2="1770.970524" y2="2523.415978" class="t" />
<line x1="2288.434141" y1="1674.931129" x2="2144.694248" y2="1696.143251" class="t" />
<line x1="1669.917023" y1="1388.429752" x2="1741.351395" y2="1586.776860" class="t" />
<line x1="1682.984286" y1="1719.834711" x2="1741.351395" y2="1586.776860" class="t" />
<line x1="1770.970524" y1="2765.840220" x2="1809.301163" y2="2644.628099" class="t" />
<line x1="2460.922014" y1="1796.143251" x2="2288.434141" y2="1674.931129" class="t" />
<line x1="1754.418658" y1="1918.181818" x2="1682.984286" y2="1719.834711" class="t" />
<line x1="1555.954650" y1="1724.843476" x2="1682.984286" y2="1719.834711" class="t" />
<line x1="1943.458397" y1="2887.052342" x2="1770.970524" y2="2765.840220" class="t" />
<line x1="1669.917023" y1="2842.975207" x2="1770.970524" y2="2765.840220" class="t" />
<line x1="1972.206375" y1="3029.476584" x2="1943.458397" y2="2887.052342" class="t" />
<line x1="1741.351395" y1="3041.322314" x2="1669.917023" y2="2842.975207" class="t" />
<line x1="1871.152874" y1="3106.611570" x2="1972.206375" y2="3029.476584" class="t" />
<line x1="1682.984286" y1="3174.380165" x2="1741.351395" y2="3041.322314" class="t" />
<line x1="1942.587246" y1="3304.958678" x2="1871.152874" y2="3106.611570" class="t" />
<line x1="1754.418658" y1="3372.727273" x2="1682.984286" y2="3174.380165" class="t" />
<line x1="1884.220138" y1="3438.016529" x2="1942.587246" y2="3304.958678" class="t" />
<line x1="1884.220138" y1="1983.471074" x2="1754.418658" y2="1918.181818" class="t" />
<line x1="1955.654509" y1="3636.363636" x2="1884.220138" y2="3438.016529" class="t" />
<line x1="1955.654509" y1="2181.818182" x2="1884.220138" y2="1983.471074" class="t" />
<line x1="1500.359386" y1="1928.199349" x2="1555.954650" y2="1724.843476" class="t" />
<line x1="2259.686163" y1="1532.506887" x2="2288.434141" y2="1674.931129" class="t" />
<line x1="1376.101593" y1="2003.506136" x2="1500.359386" y2="1928.199349" class="t" />
<line x1="2360.739664" y1="1455.371901" x2="2259.686163" y2="1532.506887" class="t" />
<line x1="2087.198290" y1="1411.294766" x2="2259.686163" y2="1532.506887" class="t" />
<line x1="1320.506329" y1="2206.862009" x2="1376.101593" y2="2003.506136" class="t" />
<line x1="2289.305292" y1="1257.024793" x2="2360.739664" y2="1455.371901" class="t" />
<line x1="2020.119673" y1="2644.628099" x2="1809.301163" y2="2644.628099" class="t" />
<line x1="1943.458397" y1="1432.506887" x2="2087.198290" y2="1411.294766" class="t" />
<line x1="1193.476693" y1="2211.870774" x2="1320.506329" y2="2206.862009" class="t" />
<line x1="2347.672401" y1="1123.966942" x2="2289.305292" y2="1257.024793" class="t" />
<line x1="2125.528929" y1="2744.628099" x2="2020.119673" y2="2644.628099" class="t" />
<line x1="1770.970524" y1="1311.294766" x2="1943.458397" y2="1432.506887" class="t" />
<line x1="1122.042321" y1="2013.523666" x2="1193.476693" y2="2211.870774" class="t" />
<line x1="1092.423192" y1="2289.005760" x2="1193.476693" y2="2211.870774" class="t" />
<line x1="2276.238029" y1="925.619835" x2="2347.672401" y2="1123.966942" class="t" />
<line x1="992.240842" y1="1948.234410" x2="1122.042321" y2="2013.523666" class="t" />
<line x1="919.935319" y1="2167.793639" x2="1092.423192" y2="2289.005760" class="t" />
<line x1="1054.092553" y1="2410.217881" x2="1092.423192" y2="2289.005760" class="t" />
<line x1="2377.291530" y1="848.484848" x2="2276.238029" y2="925.619835" class="t" />
<line x1="891.187341" y1="2025.369396" x2="992.240842" y2="1948.234410" class="t" />
<line x1="776.195426" y1="2189.005760" x2="919.935319" y2="2167.793639" class="t" />
<line x1="843.274043" y1="2410.217881" x2="1054.092553" y2="2410.217881" class="t" />
<line x1="2415.622169" y1="727.272727" x2="2377.291530" y2="848.484848" class="t" />
<line x1="2549.779403" y1="969.696970" x2="2377.291530" y2="848.484848" class="t" />
<line x1="737.864787" y1="2310.217881" x2="776.195426" y2="2189.005760" class="t" />
<line x1="2578.527381" y1="1112.121212" x2="2549.779403" y2="969.696970" class="t" />
<line x1="527.046277" y1="2310.217881" x2="737.864787" y2="2310.217881" class="t" />
<line x1="2477.473880" y1="1189.256198" x2="2578.527381" y2="1112.121212" class="t" />
<line x1="421.637021" y1="2410.217881" x2="527.046277" y2="2310.217881" class="t" />
<line x1="2548.908252" y1="1387.603306" x2="2477.473880" y2="1189.256198" class="t" />
<line x1="210.818511" y1="2410.217881" x2="421.637021" y2="2410.217881" class="t" />
<line x1="2490.541143" y1="1520.661157" x2="2548.908252" y2="1387.603306" class="t" />
<line x1="737.864787" y1="2510.217881" x2="843.274043" y2="2410.217881" class="t" />
<line x1="2561.975515" y1="1719.008264" x2="2490.541143" y2="1520.661157" class="t" />
<line x1="527.046277" y1="2510.217881" x2="737.864787" y2="2510.217881" class="t" />
<line x1="2377.291530" y1="606.060606" x2="2415.622169" y2="727.272727" class="t" />
<line x1="2626.440679" y1="727.272727" x2="2415.622169" y2="727.272727" class="t" />
<line x1="2549.779403" y1="484.848485" x2="2377.291530" y2="606.060606" class="t" />
<line x1="2731.849935" y1="627.272727" x2="2626.440679" y2="727.272727" class="t" />
<line x1="2578.527381" y1="342.424242" x2="2549.779403" y2="484.848485" class="t" />
<line x1="2693.519296" y1="506.060606" x2="2731.849935" y2="627.272727" class="t" />
<line x1="2751.015254" y1="221.212121" x2="2578.527381" y2="342.424242" class="t" />
<line x1="2866.007169" y1="384.848485" x2="2693.519296" y2="506.060606" class="t" />
<line x1="2693.519296" y1="948.484848" x2="2549.779403" y2="969.696970" class="t" />
<line x1="2894.755147" y1="242.424242" x2="2866.007169" y2="384.848485" class="t" />
<line x1="2731.849935" y1="827.272727" x2="2693.519296" y2="948.484848" class="t" />
<line x1="3067.243020" y1="121.212121" x2="2894.755147" y2="242.424242" class="t" />
<line x1="2087.198290" y1="2865.840220" x2="2125.528929" y2="2744.628099" class="t" />
<line x1="1180.409430" y1="1880.465815" x2="1122.042321" y2="2013.523666" class="t" />
<line x1="2125.528929" y1="2544.628099" x2="2020.119673" y2="2644.628099" class="t" />
<line x1="1307.439066" y1="1875.457050" x2="1180.409430" y2="1880.465815" class="t" />
<line x1="2087.198290" y1="2423.415978" x2="2125.528929" y2="2544.628099" class="t" />
<line x1="1363.034330" y1="1672.101177" x2="1307.439066" y2="1875.457050" class="t" />
<line x1="2259.686163" y1="2302.203857" x2="2087.198290" y2="2423.415978" class="t" />
<line x1="1487.292123" y1="1596.794390" x2="1363.034330" y2="1672.101177" class="t" />
<line x1="2288.434141" y1="2159.779614" x2="2259.686163" y2="2302.203857" class="t" />
<line x1="1542.887387" y1="1393.438517" x2="1487.292123" y2="1596.794390" class="t" />
<line x1="2460.922014" y1="2038.567493" x2="2288.434141" y2="2159.779614" class="t" />
</svg>
