<?xml version="1.0"?>
<svg width="4435" height="4327" version="1.1" xmlns="http://www.w3.org/2000/svg" >
<defs>
<style type="text/css"><![CDATA[
.m {stroke:rgb(255,0,0);stroke-width:5.543750;}
.v {stroke:rgb(0,0,255);stroke-width:5.543750;}
.b {stroke:rgb(0,0,0);stroke-width:11.087500;fill:white}
.n {stroke:rgb(128,128,128);stroke-width:5.543750}
.t {stroke:rgb(0,128,0);stroke-width:5.543750;}
.c {stroke:rgb(128,128,128);stroke-width:5.543750;stroke-dasharray:44.350000, 44.350000;}
]]></style>
</defs>
<path fill="none" style="stroke:black;stroke-width:11.087500;" d=" M 2204.8 1420.14 L 2521.03 1520.14 M 2521.03 1320.14 L 2204.8 1420.14 M 2837.26 1220.14 L 2521.03 1320.14 M 517.464 3466.72 L 316.228 3203.08 M 316.228 3203.08 L 0 3103.08 M 0 3103.08 L 201.236 3366.72 M 316.228 3203.08 L 517.464 3466.72 M 632.456 3303.08 L 316.228 3203.08 M 201.236 3366.72 L 402.472 3630.35 M 2419.11 2015.18 L 2406.04 1683.77 M 2204.8 1420.14 L 2217.87 1751.54 M 2406.04 1683.77 L 2419.11 2015.18 M 2217.87 1751.54 L 2230.94 2082.95 M 2521.03 1520.14 L 2406.04 1683.77 M 2406.04 1683.77 L 2521.03 1520.14 M 2521.03 1520.14 L 2204.8 1420.14 M 2722.27 1783.77 L 2837.26 1620.14 M 2607.28 1947.41 L 2722.27 1783.77 M 1569.73 2873.85 L 1381.57 2941.62 M 1381.57 2941.62 L 1569.73 2873.85 M 1582.8 3205.26 L 1770.97 3137.49 M 1394.63 3273.03 L 1582.8 3205.26 M 1201.71 3220.29 L 1381.57 2941.62 M 1368.5 2610.22 L 1188.65 2888.88 M 1381.57 2941.62 L 1201.71 3220.29 M 1188.65 2888.88 L 1008.79 3167.54 M 1684.73 2510.22 L 1684.73 2710.22 M 1684.73 2710.22 L 1684.73 2510.22 M 1684.73 2510.22 L 1368.5 2610.22 M 2000.95 2610.22 L 2000.95 2410.22 M 2000.95 2410.22 L 1684.73 2510.22 M 1885.96 2973.85 L 2000.95 2810.22 M 1770.97 3137.49 L 1885.96 2973.85 M 3153.49 1520.14 L 3153.49 1320.14 M 3153.49 1320.14 L 2837.26 1420.14 M 2620.34 3733.36 L 2432.17 3801.13 M 2633.41 4064.76 L 2620.34 3733.36 M 2837.26 1620.14 L 3153.49 1520.14 M 2837.26 1420.14 L 3153.49 1320.14 M 3153.49 1320.14 L 3268.48 1156.5 M 2317.18 4164.76 L 2432.17 4328.4 M 2432.17 4328.4 L 2633.41 4064.76 M 3268.48 1156.5 L 3456.65 1088.73 M 2317.18 3964.76 L 2317.18 4164.76 M 3255.41 825.094 L 3067.24 892.863 M 3443.58 757.325 L 3255.41 825.094 M 2115.95 3701.13 L 2317.18 3964.76 M 3456.65 1088.73 L 3636.5 810.068 M 2432.17 3801.13 L 2230.94 3537.49 M 4119.51 100 L 4119.51 300 M 4119.51 300 L 4119.51 100 M 4119.51 100 L 3803.29 200 M 4435.74 0 L 4119.51 100 M 4435.74 200 L 4435.74 0 M 4435.74 400 L 4435.74 200 M 3636.5 810.068 L 3816.35 531.405 M 3803.29 200 L 3623.43 478.663 M 1914.71 3437.49 L 2115.95 3701.13 M 3623.43 478.663 L 3443.58 757.325 M 1914.71 3237.49 L 1914.71 3437.49 M 3816.35 531.405 L 4004.52 463.636 M 2230.94 3337.49 L 2230.94 3137.49 M 2230.94 3537.49 L 2230.94 3337.49 M 4004.52 463.636 L 4320.75 563.636 M 4320.75 563.636 L 4435.74 400 M 2115.95 2973.85 L 1914.71 3237.49 M 2000.95 2410.22 L 2000.95 2610.22 M 2317.18 2710.22 L 2115.95 2973.85 M 2432.17 2873.85 L 2633.41 2610.22 M 2230.94 3137.49 L 2432.17 2873.85 M 2000.95 2810.22 L 2115.95 2973.85 M 2115.95 2973.85 L 2317.18 2710.22 M 2419.11 2015.18 L 2432.17 2346.58 M 2633.41 2610.22 L 2620.34 2278.81 M 2432.17 2346.58 L 2419.11 2015.18 M 2620.34 2278.81 L 2607.28 1947.41 M 2317.18 2510.22 L 2432.17 2346.58 M 2432.17 2346.58 L 2317.18 2510.22 M 2115.95 2246.58 L 2000.95 2410.22 M 2230.94 2082.95 L 2115.95 2246.58 M 833.691 3566.72 L 517.464 3466.72 M 718.699 3730.35 L 1034.93 3830.35 M 402.472 3630.35 L 718.699 3730.35 M 517.464 3466.72 L 833.691 3566.72 M 833.691 3566.72 L 1021.86 3498.95 M 1021.86 3498.95 L 833.691 3566.72 M 820.624 3235.31 L 632.456 3303.08 M 1008.79 3167.54 L 820.624 3235.31 M 1201.71 3220.29 L 1021.86 3498.95 M 1034.93 3830.35 L 1214.78 3551.69 M 1021.86 3498.95 L 1201.71 3220.29 M 1214.78 3551.69 L 1394.63 3273.03 M 2636.02 956.499 L 2952.25 1056.5 M 2751.02 792.863 L 2434.79 692.863 M 2434.79 692.863 L 2636.02 956.499 M 3067.24 892.863 L 2751.02 792.863 M 2952.25 1056.5 L 2636.02 956.499 M 2636.02 956.499 L 2837.26 1220.14" />
<path fill="none" class="c" d=" M 2317.18 2710.22 L 2633.41 2610.22 M 2633.41 2610.22 L 2317.18 2510.22 M 2000.95 2610.22 L 2000.95 2810.22 M 2000.95 2810.22 L 2317.18 2710.22 M 2317.18 2510.22 L 2000.95 2410.22 M 2115.95 2973.85 L 2230.94 3137.49 M 2633.41 2610.22 L 2432.17 2346.58 M 1684.73 2710.22 L 2000.95 2810.22 M 1914.71 3237.49 L 2230.94 3137.49 M 2432.17 2346.58 L 2230.94 2082.95 M 2607.28 1947.41 L 2419.11 2015.18 M 2607.28 1947.41 L 2406.04 1683.77 M 1368.5 2610.22 L 1569.73 2873.85 M 1684.73 2710.22 L 1368.5 2610.22 M 1569.73 2873.85 L 1770.97 3137.49 M 2419.11 2015.18 L 2230.94 2082.95 M 1368.5 2610.22 L 1381.57 2941.62 M 1914.71 3437.49 L 2230.94 3537.49 M 2837.26 1620.14 L 2521.03 1520.14 M 2837.26 1620.14 L 2837.26 1420.14 M 2406.04 1683.77 L 2204.8 1420.14 M 1381.57 2941.62 L 1394.63 3273.03 M 1201.71 3220.29 L 1394.63 3273.03 M 1008.79 3167.54 L 1201.71 3220.29 M 2115.95 3701.13 L 2230.94 3537.49 M 1008.79 3167.54 L 1021.86 3498.95 M 1021.86 3498.95 L 1034.93 3830.35 M 2837.26 1420.14 L 2837.26 1220.14 M 3153.49 1320.14 L 2837.26 1220.14 M 2952.25 1056.5 L 2837.26 1220.14 M 2633.41 4064.76 L 2432.17 3801.13 M 2317.18 3964.76 L 2633.41 4064.76 M 833.691 3566.72 L 1034.93 3830.35 M 632.456 3303.08 L 833.691 3566.72 M 3268.48 1156.5 L 3067.24 892.863 M 3067.24 892.863 L 2952.25 1056.5 M 2317.18 4164.76 L 2633.41 4064.76 M 632.456 3303.08 L 517.464 3466.72 M 3456.65 1088.73 L 3443.58 757.325 M 3636.5 810.068 L 3443.58 757.325 M 517.464 3466.72 L 402.472 3630.35 M 3816.35 531.405 L 3803.29 200 M 4004.52 463.636 L 3803.29 200 M 4119.51 300 L 3803.29 200 M 4435.74 400 L 4119.51 300" />
</svg>
