<?xml version="1.0"?>
<svg width="17518" height="20843" version="1.1" xmlns="http://www.w3.org/2000/svg" >
<defs>
<style type="text/css"><![CDATA[
.m {stroke:rgb(255,0,0);stroke-width:26.053750;}
.v {stroke:rgb(0,0,255);stroke-width:26.053750;}
.b {stroke:rgb(0,0,0);stroke-width:52.107500;fill:white}
.n {stroke:rgb(128,128,128);stroke-width:26.053750}
.t {stroke:rgb(0,128,0);stroke-width:26.053750;}
.c {stroke:rgb(128,128,128);stroke-width:26.053750;stroke-dasharray:175.180000, 175.180000;}
]]></style>
</defs>
<path fill="none" style="stroke:black;stroke-width:52.107500;" d=" M 7778.18 8322.03 L 6336.06 8302.34 M 6336.06 8302.34 L 6635.52 9110.28 M 8248.63 8900.53 L 7778.18 8322.03 M 4380.81 8283.63 L 4976.84 9054.06 M 6489.42 9120.72 L 5926.07 8468.73 M 3873.39 8693.01 L 3847.58 9559.23 M 4723.47 9168.59 L 3873.39 8693.01 M 3154.9 10120.2 L 2685.76 9391.61 M 2017.48 10917.3 L 1021.04 10638.1 M 1021.04 10638.1 L 990.701 11394.6 M 2685.76 9391.61 L 1332.28 10088.4 M 1332.28 10088.4 L 2158.15 10711.9 M 756.151 14342.3 L 0 15334.2 M 0 15334.2 L 644.741 15882.2 M 2564.77 7006.92 L 3291.1 7220.66 M 3029.68 5849.59 L 2564.77 7006.92 M 626.309 18609.7 L 1416.46 18202.8 M 1186.17 17030.9 L 626.309 18609.7 M 2105.43 5933.67 L 2938.77 6080.31 M 2902.03 4460 L 2105.43 5933.67 M 2881.37 3529.95 L 2015.61 4524.96 M 2015.61 4524.96 L 2902.03 4460 M 3994.14 2463.27 L 2881.37 3529.95 M 3949.76 3355.3 L 4460.21 3017.15 M 4460.21 3017.15 L 5240.39 2294.31 M 12402.9 12189.7 L 13527.7 12296.2 M 12048.2 10864 L 11322 11004.5 M 9027.81 8649.28 L 9077.98 9393.24 M 10283.3 9670.43 L 10640.8 9022.8 M 7838.08 10127.6 L 8248.63 8900.53 M 5763.01 10099.7 L 4887.75 9127.41 M 4887.75 9127.41 L 5096.64 10309 M 4976.84 9054.06 L 5763.01 10099.7 M 990.701 11394.6 L 1719.78 12050.2 M 1327.8 15278.8 L 756.151 14342.3 M 783.582 14326.1 L 1327.8 15278.8 M 1760.26 14239.6 L 783.582 14326.1 M 4288.13 20152.1 L 5410.43 20844.9 M 5410.43 20844.9 L 5941.57 20246 M 10575.9 19243.7 L 11218 19721.6 M 11218 19721.6 L 11796.8 18293 M 11328.1 12329.2 L 12402.9 12189.7 M 9406.42 10342.7 L 10283.3 9670.43 M 5096.64 10309 L 4723.47 9168.59 M 2158.15 10711.9 L 3129.19 11527.8 M 1416.46 18202.8 L 2147.34 17517.3 M 4954.33 19101.1 L 4288.13 20152.1 M 10209.4 18194.7 L 10575.9 19243.7 M 11796.8 18293 L 11152.2 16954.6 M 4326.98 1015.55 L 3994.14 2463.27 M 5240.39 2294.31 L 6173.19 1656.73 M 10330.7 12029.6 L 11328.1 12329.2 M 6635.52 9110.28 L 6667.16 10581.7 M 6667.16 10581.7 L 6489.42 9120.72 M 3129.19 11527.8 L 2017.48 10917.3 M 644.741 15882.2 L 1737.05 15855.6 M 1737.05 15855.6 L 2551.76 15480.5 M 3808.54 19881.3 L 4745.94 19063 M 3775.43 18879.8 L 3808.54 19881.3 M 5941.57 20246 L 5885.07 19111.7 M 5618.28 0 L 4326.98 1015.55 M 6173.19 1656.73 L 5618.28 0 M 12449.2 13820.4 L 11474.9 13345.7 M 10811 14427.6 L 12449.2 13820.4 M 11322 11004.5 L 10217.8 10962.6 M 9077.98 9393.24 L 8197.27 10341.2 M 7505.7 11216.1 L 7838.08 10127.6 M 1719.78 12050.2 L 2920.02 12660.3 M 3076.02 13954 L 1760.26 14239.6 M 8452.69 19811.1 L 8969.63 18827.5 M 7716.23 18946.5 L 8452.69 19811.1 M 9879.96 13012.1 L 11301.6 12406.3 M 11301.6 12406.3 L 10330.7 12029.6 M 2551.76 15480.5 L 3781.28 15073.1 M 5885.07 19111.7 L 5693.81 18059.9 M 8969.63 18827.5 L 8135 17595.2 M 11474.9 13345.7 L 9929.73 13370.1 M 6756.27 12099.6 L 7505.7 11216.1 M 4368.57 13329.7 L 3076.02 13954 M 6991 18161.1 L 7716.23 18946.5 M 9547.75 14413.6 L 10811 14427.6 M 3781.28 15073.1 L 4946.74 13990.6 M 6494.3 17282.3 L 6991 18161.1 M 9929.73 13370.1 L 9160.45 13359.6 M 5550 12833.4 L 7003.7 13075.5 M 4946.74 13990.6 L 3858.23 15150.4 M 8135 17595.2 L 7736.84 16312 M 9160.45 13359.6 L 7925.01 13475.6 M 7003.7 13075.5 L 5531.35 13011.9 M 5068.06 15259.8 L 6074.68 14044.2 M 5711.16 17050.6 L 6197.62 15530 M 6405.41 15688.3 L 6494.3 17282.3 M 6197.62 15530 L 7103.53 14556.1 M 6074.68 14044.2 L 5258.87 15395.3 M 7103.53 14556.1 L 6405.41 15688.3 M 9639.77 8694.37 L 9158.02 8063.49 M 8208.47 7221.63 L 8073.6 7567.81 M 8073.6 7567.81 L 9027.81 8649.28 M 5926.07 8468.73 L 5606.11 8279.9 M 3291.1 7220.66 L 4380.81 8283.63 M 14534.7 11954 L 15035.9 12305.8 M 13527.7 12296.2 L 14534.7 11954 M 13113.2 11210 L 12932.5 11454.7 M 11903.4 9820.43 L 12048.2 10864 M 12932.5 11454.7 L 13079.7 11188.5 M 10640.8 9022.8 L 9639.77 8694.37 M 9086.04 7089.31 L 8208.47 7221.63 M 5606.11 8279.9 L 6177.02 7600.42 M 3453.87 6150.01 L 3029.68 5849.59 M 2938.77 6080.31 L 3453.87 6150.01 M 12239.7 9101.42 L 11903.4 9820.43 M 4686.06 7929.68 L 4781.09 6343.76 M 4470.32 6391.11 L 5118.79 6881.69 M 5118.79 6881.69 L 5372.95 6050.73 M 5372.95 6050.73 L 4355.76 5621.02 M 3731.09 7153.25 L 4470.32 6391.11 M 4184.89 5527.17 L 4300.51 6388.41 M 5346.01 6794.4 L 4184.89 5527.17 M 14358 8573.56 L 13196.3 9459.05 M 9682.04 6127.15 L 9086.04 7089.31 M 10037.2 7544.05 L 9682.04 6127.15 M 17518.8 9447.23 L 16693.6 8713.49 M 16691.4 10456.3 L 17518.8 9447.23 M 4515.39 4325.88 L 3878.69 4731.31 M 4355.76 5621.02 L 4515.39 4325.88 M 4770.6 5078.95 L 4397.37 3941.17 M 4025.36 5198.84 L 4770.6 5078.95 M 14784 10695.7 L 14336.1 11101 M 14757 11546.9 L 13633.4 10597.6 M 14162.1 11651.4 L 14757 11546.9 M 13724 9481.52 L 13120.5 9929.9 M 13041.2 10432.4 L 13780.6 10296.6 M 3878.69 4731.31 L 3210.6 5197.66 M 4397.37 3941.17 L 3949.76 3355.3 M 3210.6 5197.66 L 4025.36 5198.84 M 15035.9 12305.8 L 15757.4 12457.4 M 15757.4 12457.4 L 15113 11994.9 M 15113 11994.9 L 15679.6 11439.8 M 14336.1 11101 L 13836.6 11558.3 M 14278.8 11045.5 L 13113.2 11210 M 13836.6 11558.3 L 14278.8 11045.5 M 13079.7 11188.5 L 14162.1 11651.4 M 13120.5 9929.9 L 12269.4 10053 M 12269.4 10053 L 13041.2 10432.4 M 13196.3 9459.05 L 12239.7 9101.42 M 9158.02 8063.49 L 10037.2 7544.05 M 6177.02 7600.42 L 6151.14 6468.91 M 4300.51 6388.41 L 4686.06 7929.68 M 4781.09 6343.76 L 3997.78 6125.54 M 3997.78 6125.54 L 3731.09 7153.25 M 13633.4 10597.6 L 14994.4 11155.5 M 6151.14 6468.91 L 4656.62 5219.98 M 4656.62 5219.98 L 5346.01 6794.4 M 15375.2 9572.32 L 13724 9481.52 M 16619.4 10697.8 L 14784 10695.7 M 15679.6 11439.8 L 16619.4 10697.8 M 14994.4 11155.5 L 16691.4 10456.3 M 13780.6 10296.6 L 15382.7 9886.6 M 15382.7 9886.6 L 16305.3 8612.02 M 16305.3 8612.02 L 14358 8573.56 M 16693.6 8713.49 L 15375.2 9572.32 M 4344.58 12836.6 L 5550 12833.4 M 5313.03 11601.8 L 4011.83 11083 M 2920.02 12660.3 L 4344.58 12836.6 M 4157.2 10810.4 L 5313.03 11601.8 M 3847.58 9559.23 L 4157.2 10810.4 M 4011.83 11083 L 3154.9 10120.2 M 5531.35 13011.9 L 4368.57 13329.7 M 8197.27 10341.2 L 7609.28 11315.7 M 8347.26 12260.5 L 9204.51 11415.9 M 7609.28 11315.7 L 6756.27 12099.6 M 7925.01 13475.6 L 9139.42 13220.7 M 9411.85 11699.5 L 8347.26 12260.5 M 9139.42 13220.7 L 9879.96 13012.1 M 10217.8 10962.6 L 9411.85 11699.5 M 9204.51 11415.9 L 9406.42 10342.7 M 3858.23 15150.4 L 2755.36 15829.7 M 3309.51 16930.6 L 4335.3 16443.9 M 2755.36 15829.7 L 2118.63 16461.3 M 4335.3 16443.9 L 5068.06 15259.8 M 5258.87 15395.3 L 4854.44 16727.8 M 4854.44 16727.8 L 4183.23 17643.5 M 5693.81 18059.9 L 5711.16 17050.6 M 4183.23 17643.5 L 3775.43 18879.8 M 2147.34 17517.3 L 3309.51 16930.6 M 2118.63 16461.3 L 1186.17 17030.9 M 4938.99 18595.6 L 4954.33 19101.1 M 4745.94 19063 L 4938.99 18595.6 M 10597.9 16648.8 L 9966.15 15392.2 M 9966.15 15392.2 L 8501.2 15096 M 9037.71 16300.1 L 9794.04 17525.6 M 9995.68 15076.8 L 11044.7 16013.7 M 7736.84 16312 L 8333.71 17515.7 M 9394.76 17695.2 L 9037.71 16300.1 M 8333.71 17515.7 L 9467.92 18479.3 M 9467.92 18479.3 L 9394.76 17695.2 M 9794.04 17525.6 L 10209.4 18194.7 M 11152.2 16954.6 L 10597.9 16648.8 M 11661.4 15870.4 L 10810 14465.5 M 11044.7 16013.7 L 11661.4 15870.4 M 10810 14465.5 L 9547.75 14413.6 M 8501.2 15096 L 9995.68 15076.8" />
<path fill="none" class="c" d=" M 6635.52 9110.28 L 7778.18 8322.03 M 6635.52 9110.28 L 8248.63 8900.53 M 6635.52 9110.28 L 7838.08 10127.6 M 6667.16 10581.7 L 7838.08 10127.6 M 6667.16 10581.7 L 7505.7 11216.1 M 6667.16 10581.7 L 6756.27 12099.6 M 6667.16 10581.7 L 5313.03 11601.8 M 5313.03 11601.8 L 6756.27 12099.6 M 6667.16 10581.7 L 5763.01 10099.7 M 5763.01 10099.7 L 5313.03 11601.8 M 5550 12833.4 L 6756.27 12099.6 M 5096.64 10309 L 5313.03 11601.8 M 7003.7 13075.5 L 6756.27 12099.6 M 5096.64 10309 L 4157.2 10810.4 M 7925.01 13475.6 L 6756.27 12099.6 M 7003.7 13075.5 L 7925.01 13475.6 M 5096.64 10309 L 3847.58 9559.23 M 5313.03 11601.8 L 5550 12833.4 M 6489.42 9120.72 L 5763.01 10099.7 M 5763.01 10099.7 L 5096.64 10309 M 8347.26 12260.5 L 6756.27 12099.6 M 6489.42 9120.72 L 4976.84 9054.06 M 7103.53 14556.1 L 7925.01 13475.6 M 8347.26 12260.5 L 7609.28 11315.7 M 5926.07 8468.73 L 4976.84 9054.06 M 8501.2 15096 L 7925.01 13475.6 M 7103.53 14556.1 L 8501.2 15096 M 9204.51 11415.9 L 7609.28 11315.7 M 7103.53 14556.1 L 7736.84 16312 M 7736.84 16312 L 8501.2 15096 M 9204.51 11415.9 L 8197.27 10341.2 M 6405.41 15688.3 L 7736.84 16312 M 9037.71 16300.1 L 8501.2 15096 M 7736.84 16312 L 9037.71 16300.1 M 6494.3 17282.3 L 7736.84 16312 M 9037.71 16300.1 L 9966.15 15392.2 M 8333.71 17515.7 L 9037.71 16300.1 M 6494.3 17282.3 L 8135 17595.2 M 9406.42 10342.7 L 8197.27 10341.2 M 8333.71 17515.7 L 9394.76 17695.2 M 5926.07 8468.73 L 4380.81 8283.63 M 8501.2 15096 L 9160.45 13359.6 M 9406.42 10342.7 L 9077.98 9393.24 M 5313.03 11601.8 L 4344.58 12836.6 M 4723.47 9168.59 L 3847.58 9559.23 M 5606.11 8279.9 L 4380.81 8283.63 M 9547.75 14413.6 L 9160.45 13359.6 M 8501.2 15096 L 9547.75 14413.6 M 4011.83 11083 L 4344.58 12836.6 M 10283.3 9670.43 L 9077.98 9393.24 M 9995.68 15076.8 L 9547.75 14413.6 M 4011.83 11083 L 3129.19 11527.8 M 3129.19 11527.8 L 4344.58 12836.6 M 10640.8 9022.8 L 9077.98 9393.24 M 9995.68 15076.8 L 10810 14465.5 M 3154.9 10120.2 L 3129.19 11527.8 M 3129.19 11527.8 L 2920.02 12660.3 M 10640.8 9022.8 L 9027.81 8649.28 M 11044.7 16013.7 L 10810 14465.5 M 3154.9 10120.2 L 2158.15 10711.9 M 3129.19 11527.8 L 1719.78 12050.2 M 2685.76 9391.61 L 2158.15 10711.9 M 2017.48 10917.3 L 1719.78 12050.2 M 9639.77 8694.37 L 9027.81 8649.28 M 2017.48 10917.3 L 990.701 11394.6 M 9639.77 8694.37 L 8073.6 7567.81 M 4686.06 7929.68 L 4380.81 8283.63 M 9639.77 8694.37 L 8208.47 7221.63 M 4686.06 7929.68 L 3731.09 7153.25 M 3731.09 7153.25 L 4380.81 8283.63 M 9158.02 8063.49 L 8208.47 7221.63 M 4781.09 6343.76 L 3731.09 7153.25 M 3731.09 7153.25 L 3291.1 7220.66 M 9158.02 8063.49 L 9086.04 7089.31 M 3453.87 6150.01 L 3291.1 7220.66 M 3731.09 7153.25 L 3453.87 6150.01 M 10037.2 7544.05 L 9086.04 7089.31 M 3029.68 5849.59 L 3291.1 7220.66 M 4470.32 6391.11 L 3453.87 6150.01 M 5606.11 8279.9 L 4686.06 7929.68 M 4355.76 5621.02 L 3453.87 6150.01 M 4470.32 6391.11 L 4355.76 5621.02 M 6177.02 7600.42 L 4686.06 7929.68 M 3210.6 5197.66 L 3453.87 6150.01 M 4355.76 5621.02 L 3210.6 5197.66 M 5118.79 6881.69 L 4355.76 5621.02 M 6177.02 7600.42 L 5346.01 6794.4 M 5346.01 6794.4 L 4686.06 7929.68 M 3210.6 5197.66 L 2938.77 6080.31 M 4355.76 5621.02 L 3878.69 4731.31 M 6151.14 6468.91 L 5346.01 6794.4 M 5346.01 6794.4 L 4300.51 6388.41 M 3210.6 5197.66 L 2902.03 4460 M 9547.75 14413.6 L 9929.73 13370.1 M 7925.01 13475.6 L 8347.26 12260.5 M 7003.7 13075.5 L 7103.53 14556.1 M 9037.71 16300.1 L 10597.9 16648.8 M 6991 18161.1 L 8135 17595.2 M 3949.76 3355.3 L 2902.03 4460 M 3210.6 5197.66 L 3949.76 3355.3 M 6074.68 14044.2 L 7103.53 14556.1 M 9794.04 17525.6 L 10597.9 16648.8 M 7716.23 18946.5 L 8135 17595.2 M 2881.37 3529.95 L 2902.03 4460 M 3949.76 3355.3 L 2881.37 3529.95 M 4025.36 5198.84 L 3949.76 3355.3 M 6074.68 14044.2 L 6197.62 15530 M 9794.04 17525.6 L 11152.2 16954.6 M 3949.76 3355.3 L 3994.14 2463.27 M 4025.36 5198.84 L 4397.37 3941.17 M 5258.87 15395.3 L 6197.62 15530 M 10209.4 18194.7 L 11152.2 16954.6 M 4460.21 3017.15 L 3994.14 2463.27 M 7716.23 18946.5 L 8969.63 18827.5 M 5258.87 15395.3 L 5711.16 17050.6 M 10209.4 18194.7 L 11796.8 18293 M 5240.39 2294.31 L 3994.14 2463.27 M 10811 14427.6 L 9929.73 13370.1 M 4854.44 16727.8 L 5711.16 17050.6 M 10575.9 19243.7 L 11796.8 18293 M 5240.39 2294.31 L 4326.98 1015.55 M 4183.23 17643.5 L 5711.16 17050.6 M 10811 14427.6 L 11474.9 13345.7 M 6173.19 1656.73 L 4326.98 1015.55 M 4938.99 18595.6 L 5711.16 17050.6 M 4183.23 17643.5 L 4938.99 18595.6 M 4938.99 18595.6 L 5693.81 18059.9 M 3775.43 18879.8 L 4938.99 18595.6 M 9139.42 13220.7 L 8347.26 12260.5 M 4954.33 19101.1 L 5693.81 18059.9 M 3775.43 18879.8 L 4745.94 19063 M 9139.42 13220.7 L 9411.85 11699.5 M 4954.33 19101.1 L 5885.07 19111.7 M 7003.7 13075.5 L 6074.68 14044.2 M 9879.96 13012.1 L 9411.85 11699.5 M 4954.33 19101.1 L 5941.57 20246 M 5531.35 13011.9 L 6074.68 14044.2 M 10330.7 12029.6 L 9411.85 11699.5 M 9879.96 13012.1 L 10330.7 12029.6 M 4288.13 20152.1 L 5941.57 20246 M 5531.35 13011.9 L 4946.74 13990.6 M 4946.74 13990.6 L 6074.68 14044.2 M 10330.7 12029.6 L 10217.8 10962.6 M 4368.57 13329.7 L 4946.74 13990.6 M 4946.74 13990.6 L 5068.06 15259.8 M 10330.7 12029.6 L 11322 11004.5 M 4368.57 13329.7 L 3781.28 15073.1 M 3858.23 15150.4 L 5068.06 15259.8 M 11328.1 12329.2 L 11322 11004.5 M 3076.02 13954 L 3781.28 15073.1 M 3858.23 15150.4 L 4335.3 16443.9 M 12402.9 12189.7 L 11322 11004.5 M 3076.02 13954 L 2551.76 15480.5 M 3858.23 15150.4 L 3309.51 16930.6 M 12402.9 12189.7 L 12048.2 10864 M 1760.26 14239.6 L 2551.76 15480.5 M 2755.36 15829.7 L 3309.51 16930.6 M 12932.5 11454.7 L 12048.2 10864 M 12402.9 12189.7 L 12932.5 11454.7 M 1760.26 14239.6 L 1327.8 15278.8 M 1327.8 15278.8 L 2551.76 15480.5 M 2118.63 16461.3 L 3309.51 16930.6 M 12932.5 11454.7 L 11903.4 9820.43 M 13527.7 12296.2 L 12932.5 11454.7 M 1327.8 15278.8 L 1737.05 15855.6 M 2118.63 16461.3 L 2147.34 17517.3 M 13079.7 11188.5 L 11903.4 9820.43 M 14534.7 11954 L 12932.5 11454.7 M 1327.8 15278.8 L 644.741 15882.2 M 1186.17 17030.9 L 2147.34 17517.3 M 13079.7 11188.5 L 12269.4 10053 M 12269.4 10053 L 11903.4 9820.43 M 13079.7 11188.5 L 13120.5 9929.9 M 12269.4 10053 L 12239.7 9101.42 M 13633.4 10597.6 L 13120.5 9929.9 M 13079.7 11188.5 L 13633.4 10597.6 M 12269.4 10053 L 13196.3 9459.05 M 13633.4 10597.6 L 13724 9481.52 M 14162.1 11651.4 L 13633.4 10597.6 M 13041.2 10432.4 L 13196.3 9459.05 M 14994.4 11155.5 L 13724 9481.52 M 13780.6 10296.6 L 13196.3 9459.05 M 14994.4 11155.5 L 15375.2 9572.32 M 13780.6 10296.6 L 14358 8573.56 M 16691.4 10456.3 L 15375.2 9572.32 M 15382.7 9886.6 L 14358 8573.56 M 16691.4 10456.3 L 16693.6 8713.49 M 14534.7 11954 L 13836.6 11558.3 M 13836.6 11558.3 L 12932.5 11454.7 M 14534.7 11954 L 14336.1 11101 M 13836.6 11558.3 L 13113.2 11210 M 14534.7 11954 L 15113 11994.9 M 15113 11994.9 L 14336.1 11101 M 15035.9 12305.8 L 15113 11994.9 M 15679.6 11439.8 L 14336.1 11101 M 756.151 14342.3 L 644.741 15882.2 M 15679.6 11439.8 L 14784 10695.7 M 1186.17 17030.9 L 1416.46 18202.8 M 2902.03 4460 L 2938.77 6080.31" />
<line x1="7554.112363" y1="8777.617468" x2="6916.588164" y2="8578.220282" class="t" />
<line x1="7574.077277" y1="9379.472416" x2="7554.112363" y2="8777.617468" class="t" />
<line x1="7046.919707" y1="9939.872988" x2="7574.077277" y2="9379.472416" class="t" />
<line x1="7336.977460" y1="10641.819094" x2="7046.919707" y2="9939.872988" class="t" />
<line x1="6976.374667" y1="11299.149523" x2="7336.977460" y2="10641.819094" class="t" />
<line x1="6245.486674" y1="11427.696464" x2="6976.374667" y2="11299.149523" class="t" />
<line x1="5914.400181" y1="10761.066252" x2="6245.486674" y2="11427.696464" class="t" />
<line x1="5873.099936" y1="12178.261946" x2="6245.486674" y2="11427.696464" class="t" />
<line x1="6306.529649" y1="9934.050316" x2="5914.400181" y2="10761.066252" class="t" />
<line x1="5390.892540" y1="10670.167173" x2="5914.400181" y2="10761.066252" class="t" />
<line x1="6436.654256" y1="12669.516457" x2="5873.099936" y2="12178.261946" class="t" />
<line x1="4855.623063" y1="10907.051628" x2="5390.892540" y2="10670.167173" class="t" />
<line x1="7228.324735" y1="12883.556882" x2="6436.654256" y2="12669.516457" class="t" />
<line x1="4367.139220" y1="10226.207102" x2="4855.623063" y2="10907.051628" class="t" />
<line x1="7676.178966" y1="12611.865883" x2="7228.324735" y2="12883.556882" class="t" />
<line x1="7344.078655" y1="13702.377930" x2="7228.324735" y2="12883.556882" class="t" />
<line x1="4555.896089" y1="9678.952409" x2="4367.139220" y2="10226.207102" class="t" />
<line x1="5069.204517" y1="12423.919216" x2="5873.099936" y2="12178.261946" class="t" />
<line x1="5743.088946" y1="9424.824979" x2="6306.529649" y2="9934.050316" class="t" />
<line x1="5249.130486" y1="9845.382699" x2="5390.892540" y2="10670.167173" class="t" />
<line x1="7570.936550" y1="11891.905903" x2="7676.178966" y2="12611.865883" class="t" />
<line x1="5797.443266" y1="8881.169037" x2="5743.088946" y2="9424.824979" class="t" />
<line x1="7843.245440" y1="14375.868960" x2="7344.078655" y2="13702.377930" class="t" />
<line x1="8387.017132" y1="11664.025667" x2="7570.936550" y2="11891.905903" class="t" />
<line x1="5094.573072" y1="8602.140974" x2="5797.443266" y2="8881.169037" class="t" />
<line x1="8528.884361" y1="13977.061285" x2="7843.245440" y2="14375.868960" class="t" />
<line x1="7780.522249" y1="15321.344722" x2="7843.245440" y2="14375.868960" class="t" />
<line x1="8337.021748" y1="11024.269509" x2="8387.017132" y2="11664.025667" class="t" />
<line x1="7081.925789" y1="15518.776358" x2="7780.522249" y2="15321.344722" class="t" />
<line x1="8425.248615" y1="15902.688075" x2="7780.522249" y2="15321.344722" class="t" />
<line x1="8936.068876" y1="10699.951507" x2="8337.021748" y2="11024.269509" class="t" />
<line x1="6878.848634" y1="16427.524989" x2="7081.925789" y2="15518.776358" class="t" />
<line x1="9168.353238" y1="15596.107909" x2="8425.248615" y2="15902.688075" class="t" />
<line x1="8369.418313" y1="16709.241285" x2="8425.248615" y2="15902.688075" class="t" />
<line x1="7455.379066" y1="17063.148286" x2="6878.848634" y2="16427.524989" class="t" />
<line x1="9867.244340" y1="16113.723237" x2="9168.353238" y2="15596.107909" class="t" />
<line x1="8922.059706" y1="17170.317100" x2="8369.418313" y2="16709.241285" class="t" />
<line x1="7206.766358" y1="17679.519693" x2="7455.379066" y2="17063.148286" class="t" />
<line x1="8893.891882" y1="10025.714742" x2="8936.068876" y2="10699.951507" class="t" />
<line x1="9065.465092" y1="17896.737175" x2="8922.059706" y2="17170.317100" class="t" />
<line x1="5304.332091" y1="8344.087860" x2="5094.573072" y2="8602.140974" class="t" />
<line x1="9069.798091" y1="14289.728480" x2="8528.884361" y2="13977.061285" class="t" />
<line x1="9589.231367" y1="9802.130715" x2="8893.891882" y2="10025.714742" class="t" />
<line x1="4556.479982" y1="11840.433205" x2="5069.204517" y2="12423.919216" class="t" />
<line x1="4148.147476" y1="9140.277375" x2="4555.896089" y2="9678.952409" class="t" />
<line x1="4890.995933" y1="8164.405553" x2="5304.332091" y2="8344.087860" class="t" />
<line x1="9545.976415" y1="13714.427958" x2="9069.798091" y2="14289.728480" class="t" />
<line x1="9348.210908" y1="14862.121157" x2="9069.798091" y2="14289.728480" class="t" />
<line x1="3828.533258" y1="11815.781543" x2="4556.479982" y2="11840.433205" class="t" />
<line x1="10000.689365" y1="9362.157107" x2="9589.231367" y2="9802.130715" class="t" />
<line x1="10117.803592" y1="14651.946760" x2="9348.210908" y2="14862.121157" class="t" />
<line x1="3431.973795" y1="10910.341916" x2="3828.533258" y2="11815.781543" class="t" />
<line x1="3464.596727" y1="12341.564347" x2="3828.533258" y2="11815.781543" class="t" />
<line x1="9582.197013" y1="9021.773330" x2="10000.689365" y2="9362.157107" class="t" />
<line x1="10616.787893" y1="15185.312634" x2="10117.803592" y2="14651.946760" class="t" />
<line x1="2814.081251" y1="10786.651228" x2="3431.973795" y2="10910.341916" class="t" />
<line x1="2589.663863" y1="12079.453624" x2="3464.596727" y2="12341.564347" class="t" />
<line x1="9769.462327" y1="8788.815741" x2="9582.197013" y2="9021.773330" class="t" />
<line x1="11172.019370" y1="15449.853953" x2="10616.787893" y2="15185.312634" class="t" />
<line x1="2666.268564" y1="10074.586643" x2="2814.081251" y2="10786.651228" class="t" />
<line x1="2288.818865" y1="11498.444148" x2="2589.663863" y2="12079.453624" class="t" />
<line x1="2058.727047" y1="10063.966692" x2="2666.268564" y2="10074.586643" class="t" />
<line x1="1575.988033" y1="11454.045971" x2="2288.818865" y2="11498.444148" class="t" />
<line x1="8913.730211" y1="8303.819851" x2="9769.462327" y2="8788.815741" class="t" />
<line x1="1343.074904" y1="10983.336459" x2="1575.988033" y2="11454.045971" class="t" />
<line x1="8640.616611" y1="7827.937186" x2="8913.730211" y2="8303.819851" class="t" />
<line x1="4265.989305" y1="7788.856448" x2="4890.995933" y2="8164.405553" class="t" />
<line x1="9002.087797" y1="7993.164614" x2="8640.616611" y2="7827.937186" class="t" />
<line x1="4399.414483" y1="7142.232488" x2="4265.989305" y2="7788.856448" class="t" />
<line x1="3801.001863" y1="7552.513895" x2="4265.989305" y2="7788.856448" class="t" />
<line x1="8817.509507" y1="7458.145981" x2="9002.087797" y2="7993.164614" class="t" />
<line x1="4169.986058" y1="6540.851235" x2="4399.414483" y2="7142.232488" class="t" />
<line x1="3492.020446" y1="6841.307928" x2="3801.001863" y2="7552.513895" class="t" />
<line x1="9427.089174" y1="7565.618130" x2="8817.509507" y2="7458.145981" class="t" />
<line x1="3258.216377" y1="6406.754206" x2="3492.020446" y2="6841.307928" class="t" />
<line x1="3885.092386" y1="6564.791796" x2="3492.020446" y2="6841.307928" class="t" />
<line x1="9601.762305" y1="6920.169989" x2="9427.089174" y2="7565.618130" class="t" />
<line x1="2961.851377" y1="6692.390638" x2="3258.216377" y2="6406.754206" class="t" />
<line x1="4093.313444" y1="6054.045732" x2="3885.092386" y2="6564.791796" class="t" />
<line x1="5489.730945" y1="7936.667052" x2="4890.995933" y2="8164.405553" class="t" />
<line x1="3673.409621" y1="5656.231204" x2="4093.313444" y2="6054.045732" class="t" />
<line x1="4648.287824" y1="6297.939411" x2="4093.313444" y2="6054.045732" class="t" />
<line x1="5403.030104" y1="7441.499887" x2="5489.730945" y2="7936.667052" class="t" />
<line x1="3201.079839" y1="5809.328652" x2="3673.409621" y2="5656.231204" class="t" />
<line x1="3815.016868" y1="5183.330249" x2="3673.409621" y2="5656.231204" class="t" />
<line x1="4949.166890" y1="6184.480975" x2="4648.287824" y2="6297.939411" class="t" />
<line x1="5891.389253" y1="6954.576647" x2="5403.030104" y2="7441.499887" class="t" />
<line x1="4777.527369" y1="7037.496892" x2="5403.030104" y2="7441.499887" class="t" />
<line x1="3017.133958" y1="5245.990767" x2="3201.079839" y2="5809.328652" class="t" />
<line x1="4249.944221" y1="4892.736923" x2="3815.016868" y2="5183.330249" class="t" />
<line x1="5384.588959" y1="6161.096383" x2="5891.389253" y2="6954.576647" class="t" />
<line x1="4610.469124" y1="6236.659172" x2="4777.527369" y2="7037.496892" class="t" />
<line x1="3354.129766" y1="4337.654273" x2="3017.133958" y2="5245.990767" class="t" />
<line x1="10096.149641" y1="14070.409387" x2="9545.976415" y2="13714.427958" class="t" />
<line x1="8470.564767" y1="12985.578146" x2="7676.178966" y2="12611.865883" class="t" />
<line x1="6727.301430" y1="13891.920092" x2="7344.078655" y2="13702.377930" class="t" />
<line x1="9809.874074" y1="16824.833366" x2="9867.244340" y2="16113.723237" class="t" />
<line x1="7614.076007" y1="18234.242482" x2="7206.766358" y2="17679.519693" class="t" />
<line x1="3244.383637" y1="3781.749050" x2="3354.129766" y2="4337.654273" class="t" />
<line x1="3728.572131" y1="4583.933963" x2="3354.129766" y2="4337.654273" class="t" />
<line x1="6458.607491" y1="14710.093595" x2="6727.301430" y2="13891.920092" class="t" />
<line x1="10514.714044" y1="17043.006736" x2="9809.874074" y2="16824.833366" class="t" />
<line x1="8273.617208" y1="18456.361569" x2="7614.076007" y2="18234.242482" class="t" />
<line x1="2599.669918" y1="4171.636291" x2="3244.383637" y2="3781.749050" class="t" />
<line x1="3608.421144" y1="3116.173224" x2="3244.383637" y2="3781.749050" class="t" />
<line x1="4124.159328" y1="4165.103126" x2="3728.572131" y2="4583.933963" class="t" />
<line x1="5843.721658" y1="14989.829044" x2="6458.607491" y2="14710.093595" class="t" />
<line x1="10385.211658" y1="17558.290157" x2="10514.714044" y2="17043.006736" class="t" />
<line x1="4134.701039" y1="2945.239441" x2="3608.421144" y2="3116.173224" class="t" />
<line x1="4397.772680" y1="4739.654961" x2="4124.159328" y2="4165.103126" class="t" />
<line x1="5722.550228" y1="15991.972804" x2="5843.721658" y2="14989.829044" class="t" />
<line x1="11052.789793" y1="17814.091339" x2="10385.211658" y2="17558.290157" class="t" />
<line x1="4564.912869" y1="2591.575550" x2="4134.701039" y2="2945.239441" class="t" />
<line x1="8379.514047" y1="19195.009950" x2="8273.617208" y2="18456.361569" class="t" />
<line x1="5274.826692" y1="16391.215520" x2="5722.550228" y2="15991.972804" class="t" />
<line x1="10860.669575" y1="18577.135183" x2="11052.789793" y2="17814.091339" class="t" />
<line x1="4520.505227" y1="1924.376249" x2="4564.912869" y2="2591.575550" class="t" />
<line x1="10738.516255" y1="13714.462026" x2="10096.149641" y2="14070.409387" class="t" />
<line x1="4916.280375" y1="17140.633856" x2="5274.826692" y2="16391.215520" class="t" />
<line x1="11196.880753" y1="19086.116167" x2="10860.669575" y2="18577.135183" class="t" />
<line x1="5246.853942" y1="1655.529215" x2="4520.505227" y2="1924.376249" class="t" />
<line x1="4944.463833" y1="17763.229115" x2="4916.280375" y2="17140.633856" class="t" />
<line x1="11578.354893" y1="13864.547815" x2="10738.516255" y2="13714.462026" class="t" />
<line x1="5372.816135" y1="890.760428" x2="5246.853942" y2="1655.529215" class="t" />
<line x1="5447.991010" y1="17902.030209" x2="4944.463833" y2="17763.229115" class="t" />
<line x1="4299.217493" y1="18372.973638" x2="4944.463833" y2="17763.229115" class="t" />
<line x1="5195.712029" y1="18585.513113" x2="5447.991010" y2="17902.030209" class="t" />
<line x1="4486.788416" y1="18846.134491" x2="4299.217493" y2="18372.973638" class="t" />
<line x1="8966.178418" y1="12393.548419" x2="8470.564767" y2="12985.578146" class="t" />
<line x1="5511.069476" y1="18757.548747" x2="5195.712029" y2="18585.513113" class="t" />
<line x1="4109.971582" y1="19274.729039" x2="4486.788416" y2="18846.134491" class="t" />
<line x1="9477.078400" y1="12644.101565" x2="8966.178418" y2="12393.548419" class="t" />
<line x1="5593.654061" y1="19486.255557" x2="5511.069476" y2="18757.548747" class="t" />
<line x1="6203.241933" y1="13377.217578" x2="6727.301430" y2="13891.920092" class="t" />
<line x1="9874.169442" y1="12247.056981" x2="9477.078400" y2="12644.101565" class="t" />
<line x1="5061.341430" y1="19833.051699" x2="5593.654061" y2="19486.255557" class="t" />
<line x1="5517.588706" y1="13682.249149" x2="6203.241933" y2="13377.217578" class="t" />
<line x1="9986.796284" y1="11563.884983" x2="9874.169442" y2="12247.056981" class="t" />
<line x1="10504.073231" y1="12482.662664" x2="9874.169442" y2="12247.056981" class="t" />
<line x1="5213.375892" y1="20414.326661" x2="5061.341430" y2="19833.051699" class="t" />
<line x1="4948.885582" y1="13444.097363" x2="5517.588706" y2="13682.249149" class="t" />
<line x1="5363.159226" y1="14431.526803" x2="5517.588706" y2="13682.249149" class="t" />
<line x1="10623.503085" y1="11332.242306" x2="9986.796284" y2="11563.884983" class="t" />
<line x1="4365.528005" y1="14131.133009" x2="4948.885582" y2="13444.097363" class="t" />
<line x1="4624.344382" y1="14800.270736" x2="5363.159226" y2="14431.526803" class="t" />
<line x1="10993.575294" y1="11787.767339" x2="10623.503085" y2="11332.242306" class="t" />
<line x1="3741.957004" y1="14118.939929" x2="4365.528005" y2="14131.133009" class="t" />
<line x1="4420.531385" y1="15618.040656" x2="4624.344382" y2="14800.270736" class="t" />
<line x1="11684.306924" y1="11841.123268" x2="10993.575294" y2="11787.767339" class="t" />
<line x1="3136.354302" y1="14835.879949" x2="3741.957004" y2="14118.939929" class="t" />
<line x1="3834.348790" y1="16174.989164" x2="4420.531385" y2="15618.040656" class="t" />
<line x1="11924.371031" y1="11352.718016" x2="11684.306924" y2="11841.123268" class="t" />
<line x1="2462.682506" y1="14558.063430" x2="3136.354302" y2="14835.879949" class="t" />
<line x1="3307.702931" y1="15970.244916" x2="3834.348790" y2="16174.989164" class="t" />
<line x1="12461.211917" y1="11502.773858" x2="11924.371031" y2="11352.718016" class="t" />
<line x1="1879.942706" y1="14999.648602" x2="2462.682506" y2="14558.063430" class="t" />
<line x1="2727.834252" y1="16407.222093" x2="3307.702931" y2="15970.244916" class="t" />
<line x1="12294.719446" y1="10713.031344" x2="12461.211917" y2="11502.773858" class="t" />
<line x1="12954.372061" y1="11980.194068" x2="12461.211917" y2="11502.773858" class="t" />
<line x1="1290.549759" y1="14614.843351" x2="1879.942706" y2="14999.648602" class="t" />
<line x1="1872.204986" y1="15538.305899" x2="1879.942706" y2="14999.648602" class="t" />
<line x1="2525.160886" y1="16969.751467" x2="2727.834252" y2="16407.222093" class="t" />
<line x1="12638.548610" y1="10821.206896" x2="12294.719446" y2="10713.031344" class="t" />
<line x1="13664.988083" y1="11901.637740" x2="12954.372061" y2="11980.194068" class="t" />
<line x1="1236.531460" y1="15672.174772" x2="1872.204986" y2="15538.305899" class="t" />
<line x1="1817.380900" y1="17003.170514" x2="2525.160886" y2="16969.751467" class="t" />
<line x1="12417.509407" y1="10353.981600" x2="12638.548610" y2="10821.206896" class="t" />
<line x1="13767.956077" y1="11655.655415" x2="13664.988083" y2="11901.637740" class="t" />
<line x1="909.565649" y1="15167.760612" x2="1236.531460" y2="15672.174772" class="t" />
<line x1="1583.324754" y1="17583.652179" x2="1817.380900" y2="17003.170514" class="t" />
<line x1="12823.209373" y1="10390.469719" x2="12417.509407" y2="10353.981600" class="t" />
<line x1="12137.512073" y1="9658.295315" x2="12417.509407" y2="10353.981600" class="t" />
<line x1="13277.894213" y1="10572.001158" x2="12823.209373" y2="10390.469719" class="t" />
<line x1="12568.458465" y1="9537.835652" x2="12137.512073" y2="9658.295315" class="t" />
<line x1="13492.651621" y1="10003.014908" x2="13277.894213" y2="10572.001158" class="t" />
<line x1="13625.080389" y1="11145.834959" x2="13277.894213" y2="10572.001158" class="t" />
<line x1="12835.604315" y1="9981.489931" x2="12568.458465" y2="9537.835652" class="t" />
<line x1="14117.285728" y1="10411.564260" x2="13492.651621" y2="10003.014908" class="t" />
<line x1="14184.171293" y1="11265.307973" x2="13625.080389" y2="11145.834959" class="t" />
<line x1="13339.358994" y1="10062.673618" x2="12835.604315" y2="9981.489931" class="t" />
<line x1="14697.860324" y1="10069.798303" x2="14117.285728" y2="10411.564260" class="t" />
<line x1="13778.300107" y1="9443.065307" x2="13339.358994" y2="10062.673618" class="t" />
<line x1="15686.993742" y1="10394.733723" x2="14697.860324" y2="10069.798303" class="t" />
<line x1="14507.100043" y1="9585.580743" x2="13778.300107" y2="9443.065307" class="t" />
<line x1="16253.380272" y1="9580.716347" x2="15686.993742" y2="10394.733723" class="t" />
<line x1="15348.654317" y1="9024.062416" x2="14507.100043" y2="9585.580743" class="t" />
<line x1="16967.924876" y1="9539.017852" x2="16253.380272" y2="9580.716347" class="t" />
<line x1="14235.826410" y1="11537.769789" x2="13767.956077" y2="11655.655415" class="t" />
<line x1="13294.113221" y1="11407.648176" x2="13767.956077" y2="11655.655415" class="t" />
<line x1="14661.271763" y1="11683.326511" x2="14235.826410" y2="11537.769789" class="t" />
<line x1="13742.893346" y1="11271.230645" x2="13294.113221" y2="11407.648176" class="t" />
<line x1="14894.531908" y1="12084.905406" x2="14661.271763" y2="11683.326511" class="t" />
<line x1="15042.879226" y1="11511.940161" x2="14661.271763" y2="11683.326511" class="t" />
<line x1="15302.094455" y1="12252.700195" x2="14894.531908" y2="12084.905406" class="t" />
<line x1="14933.216294" y1="11078.872417" x2="15042.879226" y2="11511.940161" class="t" />
<line x1="466.964013" y1="15186.225971" x2="909.565649" y2="15167.760612" class="t" />
<line x1="15694.306739" y1="10944.460182" x2="14933.216294" y2="11078.872417" class="t" />
<line x1="1076.314281" y1="17947.805346" x2="1583.324754" y2="17583.652179" class="t" />
<line x1="2648.744134" y1="5491.325564" x2="3017.133958" y2="5245.990767" class="t" />
</svg>
