<?xml version="1.0"?>
<svg width="17518" height="20843" version="1.1" xmlns="http://www.w3.org/2000/svg" >
<defs>
<style type="text/css"><![CDATA[
.m {stroke:rgb(255,0,0);stroke-width:26.053750;}
.v {stroke:rgb(0,0,255);stroke-width:26.053750;}
.b {stroke:rgb(0,0,0);stroke-width:52.107500;fill:white}
.n {stroke:rgb(128,128,128);stroke-width:26.053750}
.t {stroke:rgb(0,128,0);stroke-width:26.053750;}
.c {stroke:rgb(128,128,128);stroke-width:26.053750;stroke-dasharray:175.180000, 175.180000;}
]]></style>
</defs>
<path fill="none" style="stroke:black;stroke-width:52.107500;" d=" M 7778.18 8322.03 L 6336.06 8302.34 M 6336.06 8302.34 L 6635.52 9110.28 M 8248.63 8900.53 L 7778.18 8322.03 M 4380.81 8283.63 L 4976.84 9054.06 M 6489.42 9120.72 L 5926.07 8468.73 M 3873.39 8693.01 L 3847.58 9559.23 M 4723.47 9168.59 L 3873.39 8693.01 M 3154.9 10120.2 L 2685.76 9391.61 M 2017.48 10917.3 L 1021.04 10638.1 M 1021.04 10638.1 L 990.701 11394.6 M 2685.76 9391.61 L 1332.28 10088.4 M 1332.28 10088.4 L 2158.15 10711.9 M 756.151 14342.3 L 0 15334.2 M 0 15334.2 L 644.741 15882.2 M 2564.77 7006.92 L 3291.1 7220.66 M 3029.68 5849.59 L 2564.77 7006.92 M 626.309 18609.7 L 1416.46 18202.8 M 1186.17 17030.9 L 626.309 18609.7 M 2105.43 5933.67 L 2938.77 6080.31 M 2902.03 4460 L 2105.43 5933.67 M 2881.37 3529.95 L 2015.61 4524.96 M 2015.61 4524.96 L 2902.03 4460 M 3994.14 2463.27 L 2881.37 3529.95 M 3949.76 3355.3 L 4460.21 3017.15 M 4460.21 3017.15 L 5240.39 2294.31 M 12402.9 12189.7 L 13527.7 12296.2 M 12048.2 10864 L 11322 11004.5 M 9027.81 8649.28 L 9077.98 9393.24 M 10283.3 9670.43 L 10640.8 9022.8 M 7838.08 10127.6 L 8248.63 8900.53 M 5763.01 10099.7 L 4887.75 9127.41 M 4887.75 9127.41 L 5096.64 10309 M 4976.84 9054.06 L 5763.01 10099.7 M 990.701 11394.6 L 1719.78 12050.2 M 1327.8 15278.8 L 756.151 14342.3 M 783.582 14326.1 L 1327.8 15278.8 M 1760.26 14239.6 L 783.582 14326.1 M 4288.13 20152.1 L 5410.43 20844.9 M 5410.43 20844.9 L 5941.57 20246 M 10575.9 19243.7 L 11218 19721.6 M 11218 19721.6 L 11796.8 18293 M 11328.1 12329.2 L 12402.9 12189.7 M 9406.42 10342.7 L 10283.3 9670.43 M 5096.64 10309 L 4723.47 9168.59 M 2158.15 10711.9 L 3129.19 11527.8 M 1416.46 18202.8 L 2147.34 17517.3 M 4954.33 19101.1 L 4288.13 20152.1 M 10209.4 18194.7 L 10575.9 19243.7 M 11796.8 18293 L 11152.2 16954.6 M 4326.98 1015.55 L 3994.14 2463.27 M 5240.39 2294.31 L 6173.19 1656.73 M 10330.7 12029.6 L 11328.1 12329.2 M 6635.52 9110.28 L 6667.16 10581.7 M 6667.16 10581.7 L 6489.42 9120.72 M 3129.19 11527.8 L 2017.48 10917.3 M 644.741 15882.2 L 1737.05 15855.6 M 1737.05 15855.6 L 2551.76 15480.5 M 3808.54 19881.3 L 4745.94 19063 M 3775.43 18879.8 L 3808.54 19881.3 M 5941.57 20246 L 5885.07 19111.7 M 5618.28 0 L 4326.98 1015.55 M 6173.19 1656.73 L 5618.28 0 M 12449.2 13820.4 L 11474.9 13345.7 M 10811 14427.6 L 12449.2 13820.4 M 11322 11004.5 L 10217.8 10962.6 M 9077.98 9393.24 L 8197.27 10341.2 M 7505.7 11216.1 L 7838.08 10127.6 M 1719.78 12050.2 L 2920.02 12660.3 M 3076.02 13954 L 1760.26 14239.6 M 8452.69 19811.1 L 8969.63 18827.5 M 7716.23 18946.5 L 8452.69 19811.1 M 9879.96 13012.1 L 11301.6 12406.3 M 11301.6 12406.3 L 10330.7 12029.6 M 2551.76 15480.5 L 3781.28 15073.1 M 5885.07 19111.7 L 5693.81 18059.9 M 8969.63 18827.5 L 8135 17595.2 M 11474.9 13345.7 L 9929.73 13370.1 M 6756.27 12099.6 L 7505.7 11216.1 M 4368.57 13329.7 L 3076.02 13954 M 6991 18161.1 L 7716.23 18946.5 M 9547.75 14413.6 L 10811 14427.6 M 3781.28 15073.1 L 4946.74 13990.6 M 6494.3 17282.3 L 6991 18161.1 M 9929.73 13370.1 L 9160.45 13359.6 M 5550 12833.4 L 7003.7 13075.5 M 4946.74 13990.6 L 3858.23 15150.4 M 8135 17595.2 L 7736.84 16312 M 9160.45 13359.6 L 7925.01 13475.6 M 7003.7 13075.5 L 5531.35 13011.9 M 5068.06 15259.8 L 6074.68 14044.2 M 5711.16 17050.6 L 6197.62 15530 M 6405.41 15688.3 L 6494.3 17282.3 M 6197.62 15530 L 7103.53 14556.1 M 6074.68 14044.2 L 5258.87 15395.3 M 7103.53 14556.1 L 6405.41 15688.3 M 9639.77 8694.37 L 9158.02 8063.49 M 8208.47 7221.63 L 8073.6 7567.81 M 8073.6 7567.81 L 9027.81 8649.28 M 5926.07 8468.73 L 5606.11 8279.9 M 3291.1 7220.66 L 4380.81 8283.63 M 14534.7 11954 L 15035.9 12305.8 M 13527.7 12296.2 L 14534.7 11954 M 13113.2 11210 L 12932.5 11454.7 M 11903.4 9820.43 L 12048.2 10864 M 12932.5 11454.7 L 13079.7 11188.5 M 10640.8 9022.8 L 9639.77 8694.37 M 9086.04 7089.31 L 8208.47 7221.63 M 5606.11 8279.9 L 6177.02 7600.42 M 3453.87 6150.01 L 3029.68 5849.59 M 2938.77 6080.31 L 3453.87 6150.01 M 12239.7 9101.42 L 11903.4 9820.43 M 4686.06 7929.68 L 4781.09 6343.76 M 4470.32 6391.11 L 5118.79 6881.69 M 5118.79 6881.69 L 5372.95 6050.73 M 5372.95 6050.73 L 4355.76 5621.02 M 3731.09 7153.25 L 4470.32 6391.11 M 4184.89 5527.17 L 4300.51 6388.41 M 5346.01 6794.4 L 4184.89 5527.17 M 14358 8573.56 L 13196.3 9459.05 M 9682.04 6127.15 L 9086.04 7089.31 M 10037.2 7544.05 L 9682.04 6127.15 M 17518.8 9447.23 L 16693.6 8713.49 M 16691.4 10456.3 L 17518.8 9447.23 M 4515.39 4325.88 L 3878.69 4731.31 M 4355.76 5621.02 L 4515.39 4325.88 M 4770.6 5078.95 L 4397.37 3941.17 M 4025.36 5198.84 L 4770.6 5078.95 M 14784 10695.7 L 14336.1 11101 M 14757 11546.9 L 13633.4 10597.6 M 14162.1 11651.4 L 14757 11546.9 M 13724 9481.52 L 13120.5 9929.9 M 13041.2 10432.4 L 13780.6 10296.6 M 3878.69 4731.31 L 3210.6 5197.66 M 4397.37 3941.17 L 3949.76 3355.3 M 3210.6 5197.66 L 4025.36 5198.84 M 15035.9 12305.8 L 15757.4 12457.4 M 15757.4 12457.4 L 15113 11994.9 M 15113 11994.9 L 15679.6 11439.8 M 14336.1 11101 L 13836.6 11558.3 M 14278.8 11045.5 L 13113.2 11210 M 13836.6 11558.3 L 14278.8 11045.5 M 13079.7 11188.5 L 14162.1 11651.4 M 13120.5 9929.9 L 12269.4 10053 M 12269.4 10053 L 13041.2 10432.4 M 13196.3 9459.05 L 12239.7 9101.42 M 9158.02 8063.49 L 10037.2 7544.05 M 6177.02 7600.42 L 6151.14 6468.91 M 4300.51 6388.41 L 4686.06 7929.68 M 4781.09 6343.76 L 3997.78 6125.54 M 3997.78 6125.54 L 3731.09 7153.25 M 13633.4 10597.6 L 14994.4 11155.5 M 6151.14 6468.91 L 4656.62 5219.98 M 4656.62 5219.98 L 5346.01 6794.4 M 15375.2 9572.32 L 13724 9481.52 M 16619.4 10697.8 L 14784 10695.7 M 15679.6 11439.8 L 16619.4 10697.8 M 14994.4 11155.5 L 16691.4 10456.3 M 13780.6 10296.6 L 15382.7 9886.6 M 15382.7 9886.6 L 16305.3 8612.02 M 16305.3 8612.02 L 14358 8573.56 M 16693.6 8713.49 L 15375.2 9572.32 M 4344.58 12836.6 L 5550 12833.4 M 5313.03 11601.8 L 4011.83 11083 M 2920.02 12660.3 L 4344.58 12836.6 M 4157.2 10810.4 L 5313.03 11601.8 M 3847.58 9559.23 L 4157.2 10810.4 M 4011.83 11083 L 3154.9 10120.2 M 5531.35 13011.9 L 4368.57 13329.7 M 8197.27 10341.2 L 7609.28 11315.7 M 8347.26 12260.5 L 9204.51 11415.9 M 7609.28 11315.7 L 6756.27 12099.6 M 7925.01 13475.6 L 9139.42 13220.7 M 9411.85 11699.5 L 8347.26 12260.5 M 9139.42 13220.7 L 9879.96 13012.1 M 10217.8 10962.6 L 9411.85 11699.5 M 9204.51 11415.9 L 9406.42 10342.7 M 3858.23 15150.4 L 2755.36 15829.7 M 3309.51 16930.6 L 4335.3 16443.9 M 2755.36 15829.7 L 2118.63 16461.3 M 4335.3 16443.9 L 5068.06 15259.8 M 5258.87 15395.3 L 4854.44 16727.8 M 4854.44 16727.8 L 4183.23 17643.5 M 5693.81 18059.9 L 5711.16 17050.6 M 4183.23 17643.5 L 3775.43 18879.8 M 2147.34 17517.3 L 3309.51 16930.6 M 2118.63 16461.3 L 1186.17 17030.9 M 4938.99 18595.6 L 4954.33 19101.1 M 4745.94 19063 L 4938.99 18595.6 M 10597.9 16648.8 L 9966.15 15392.2 M 9966.15 15392.2 L 8501.2 15096 M 9037.71 16300.1 L 9794.04 17525.6 M 9995.68 15076.8 L 11044.7 16013.7 M 7736.84 16312 L 8333.71 17515.7 M 9394.76 17695.2 L 9037.71 16300.1 M 8333.71 17515.7 L 9467.92 18479.3 M 9467.92 18479.3 L 9394.76 17695.2 M 9794.04 17525.6 L 10209.4 18194.7 M 11152.2 16954.6 L 10597.9 16648.8 M 11661.4 15870.4 L 10810 14465.5 M 11044.7 16013.7 L 11661.4 15870.4 M 10810 14465.5 L 9547.75 14413.6 M 8501.2 15096 L 9995.68 15076.8" />
<path fill="none" class="c" d=" M 6635.52 9110.28 L 7778.18 8322.03 M 6635.52 9110.28 L 8248.63 8900.53 M 6635.52 9110.28 L 7838.08 10127.6 M 6667.16 10581.7 L 7838.08 10127.6 M 6667.16 10581.7 L 7505.7 11216.1 M 6667.16 10581.7 L 6756.27 12099.6 M 6667.16 10581.7 L 5313.03 11601.8 M 5313.03 11601.8 L 6756.27 12099.6 M 6667.16 10581.7 L 5763.01 10099.7 M 5763.01 10099.7 L 5313.03 11601.8 M 5550 12833.4 L 6756.27 12099.6 M 5096.64 10309 L 5313.03 11601.8 M 7003.7 13075.5 L 6756.27 12099.6 M 5096.64 10309 L 4157.2 10810.4 M 7925.01 13475.6 L 6756.27 12099.6 M 7003.7 13075.5 L 7925.01 13475.6 M 5096.64 10309 L 3847.58 9559.23 M 5313.03 11601.8 L 5550 12833.4 M 6489.42 9120.72 L 5763.01 10099.7 M 5763.01 10099.7 L 5096.64 10309 M 8347.26 12260.5 L 6756.27 12099.6 M 6489.42 9120.72 L 4976.84 9054.06 M 7103.53 14556.1 L 7925.01 13475.6 M 8347.26 12260.5 L 7609.28 11315.7 M 5926.07 8468.73 L 4976.84 9054.06 M 8501.2 15096 L 7925.01 13475.6 M 7103.53 14556.1 L 8501.2 15096 M 9204.51 11415.9 L 7609.28 11315.7 M 7103.53 14556.1 L 7736.84 16312 M 7736.84 16312 L 8501.2 15096 M 9204.51 11415.9 L 8197.27 10341.2 M 6405.41 15688.3 L 7736.84 16312 M 9037.71 16300.1 L 8501.2 15096 M 7736.84 16312 L 9037.71 16300.1 M 6494.3 17282.3 L 7736.84 16312 M 9037.71 16300.1 L 9966.15 15392.2 M 8333.71 17515.7 L 9037.71 16300.1 M 6494.3 17282.3 L 8135 17595.2 M 9406.42 10342.7 L 8197.27 10341.2 M 8333.71 17515.7 L 9394.76 17695.2 M 5926.07 8468.73 L 4380.81 8283.63 M 8501.2 15096 L 9160.45 13359.6 M 9406.42 10342.7 L 9077.98 9393.24 M 5313.03 11601.8 L 4344.58 12836.6 M 4723.47 9168.59 L 3847.58 9559.23 M 5606.11 8279.9 L 4380.81 8283.63 M 9547.75 14413.6 L 9160.45 13359.6 M 8501.2 15096 L 9547.75 14413.6 M 4011.83 11083 L 4344.58 12836.6 M 10283.3 9670.43 L 9077.98 9393.24 M 9995.68 15076.8 L 9547.75 14413.6 M 4011.83 11083 L 3129.19 11527.8 M 3129.19 11527.8 L 4344.58 12836.6 M 10640.8 9022.8 L 9077.98 9393.24 M 9995.68 15076.8 L 10810 14465.5 M 3154.9 10120.2 L 3129.19 11527.8 M 3129.19 11527.8 L 2920.02 12660.3 M 10640.8 9022.8 L 9027.81 8649.28 M 11044.7 16013.7 L 10810 14465.5 M 3154.9 10120.2 L 2158.15 10711.9 M 3129.19 11527.8 L 1719.78 12050.2 M 2685.76 9391.61 L 2158.15 10711.9 M 2017.48 10917.3 L 1719.78 12050.2 M 9639.77 8694.37 L 9027.81 8649.28 M 2017.48 10917.3 L 990.701 11394.6 M 9639.77 8694.37 L 8073.6 7567.81 M 4686.06 7929.68 L 4380.81 8283.63 M 9639.77 8694.37 L 8208.47 7221.63 M 4686.06 7929.68 L 3731.09 7153.25 M 3731.09 7153.25 L 4380.81 8283.63 M 9158.02 8063.49 L 8208.47 7221.63 M 4781.09 6343.76 L 3731.09 7153.25 M 3731.09 7153.25 L 3291.1 7220.66 M 9158.02 8063.49 L 9086.04 7089.31 M 3453.87 6150.01 L 3291.1 7220.66 M 3731.09 7153.25 L 3453.87 6150.01 M 10037.2 7544.05 L 9086.04 7089.31 M 3029.68 5849.59 L 3291.1 7220.66 M 4470.32 6391.11 L 3453.87 6150.01 M 5606.11 8279.9 L 4686.06 7929.68 M 4355.76 5621.02 L 3453.87 6150.01 M 4470.32 6391.11 L 4355.76 5621.02 M 6177.02 7600.42 L 4686.06 7929.68 M 3210.6 5197.66 L 3453.87 6150.01 M 4355.76 5621.02 L 3210.6 5197.66 M 5118.79 6881.69 L 4355.76 5621.02 M 6177.02 7600.42 L 5346.01 6794.4 M 5346.01 6794.4 L 4686.06 7929.68 M 3210.6 5197.66 L 2938.77 6080.31 M 4355.76 5621.02 L 3878.69 4731.31 M 6151.14 6468.91 L 5346.01 6794.4 M 5346.01 6794.4 L 4300.51 6388.41 M 3210.6 5197.66 L 2902.03 4460 M 9547.75 14413.6 L 9929.73 13370.1 M 7925.01 13475.6 L 8347.26 12260.5 M 7003.7 13075.5 L 7103.53 14556.1 M 9037.71 16300.1 L 10597.9 16648.8 M 6991 18161.1 L 8135 17595.2 M 3949.76 3355.3 L 2902.03 4460 M 3210.6 5197.66 L 3949.76 3355.3 M 6074.68 14044.2 L 7103.53 14556.1 M 9794.04 17525.6 L 10597.9 16648.8 M 7716.23 18946.5 L 8135 17595.2 M 2881.37 3529.95 L 2902.03 4460 M 3949.76 3355.3 L 2881.37 3529.95 M 4025.36 5198.84 L 3949.76 3355.3 M 6074.68 14044.2 L 6197.62 15530 M 9794.04 17525.6 L 11152.2 16954.6 M 3949.76 3355.3 L 3994.14 2463.27 M 4025.36 5198.84 L 4397.37 3941.17 M 5258.87 15395.3 L 6197.62 15530 M 10209.4 18194.7 L 11152.2 16954.6 M 4460.21 3017.15 L 3994.14 2463.27 M 7716.23 18946.5 L 8969.63 18827.5 M 5258.87 15395.3 L 5711.16 17050.6 M 10209.4 18194.7 L 11796.8 18293 M 5240.39 2294.31 L 3994.14 2463.27 M 10811 14427.6 L 9929.73 13370.1 M 4854.44 16727.8 L 5711.16 17050.6 M 10575.9 19243.7 L 11796.8 18293 M 5240.39 2294.31 L 4326.98 1015.55 M 4183.23 17643.5 L 5711.16 17050.6 M 10811 14427.6 L 11474.9 13345.7 M 6173.19 1656.73 L 4326.98 1015.55 M 4938.99 18595.6 L 5711.16 17050.6 M 4183.23 17643.5 L 4938.99 18595.6 M 4938.99 18595.6 L 5693.81 18059.9 M 3775.43 18879.8 L 4938.99 18595.6 M 9139.42 13220.7 L 8347.26 12260.5 M 4954.33 19101.1 L 5693.81 18059.9 M 3775.43 18879.8 L 4745.94 19063 M 9139.42 13220.7 L 9411.85 11699.5 M 4954.33 19101.1 L 5885.07 19111.7 M 7003.7 13075.5 L 6074.68 14044.2 M 9879.96 13012.1 L 9411.85 11699.5 M 4954.33 19101.1 L 5941.57 20246 M 5531.35 13011.9 L 6074.68 14044.2 M 10330.7 12029.6 L 9411.85 11699.5 M 9879.96 13012.1 L 10330.7 12029.6 M 4288.13 20152.1 L 5941.57 20246 M 5531.35 13011.9 L 4946.74 13990.6 M 4946.74 13990.6 L 6074.68 14044.2 M 10330.7 12029.6 L 10217.8 10962.6 M 4368.57 13329.7 L 4946.74 13990.6 M 4946.74 13990.6 L 5068.06 15259.8 M 10330.7 12029.6 L 11322 11004.5 M 4368.57 13329.7 L 3781.28 15073.1 M 3858.23 15150.4 L 5068.06 15259.8 M 11328.1 12329.2 L 11322 11004.5 M 3076.02 13954 L 3781.28 15073.1 M 3858.23 15150.4 L 4335.3 16443.9 M 12402.9 12189.7 L 11322 11004.5 M 3076.02 13954 L 2551.76 15480.5 M 3858.23 15150.4 L 3309.51 16930.6 M 12402.9 12189.7 L 12048.2 10864 M 1760.26 14239.6 L 2551.76 15480.5 M 2755.36 15829.7 L 3309.51 16930.6 M 12932.5 11454.7 L 12048.2 10864 M 12402.9 12189.7 L 12932.5 11454.7 M 1760.26 14239.6 L 1327.8 15278.8 M 1327.8 15278.8 L 2551.76 15480.5 M 2118.63 16461.3 L 3309.51 16930.6 M 12932.5 11454.7 L 11903.4 9820.43 M 13527.7 12296.2 L 12932.5 11454.7 M 1327.8 15278.8 L 1737.05 15855.6 M 2118.63 16461.3 L 2147.34 17517.3 M 13079.7 11188.5 L 11903.4 9820.43 M 14534.7 11954 L 12932.5 11454.7 M 1327.8 15278.8 L 644.741 15882.2 M 1186.17 17030.9 L 2147.34 17517.3 M 13079.7 11188.5 L 12269.4 10053 M 12269.4 10053 L 11903.4 9820.43 M 13079.7 11188.5 L 13120.5 9929.9 M 12269.4 10053 L 12239.7 9101.42 M 13633.4 10597.6 L 13120.5 9929.9 M 13079.7 11188.5 L 13633.4 10597.6 M 12269.4 10053 L 13196.3 9459.05 M 13633.4 10597.6 L 13724 9481.52 M 14162.1 11651.4 L 13633.4 10597.6 M 13041.2 10432.4 L 13196.3 9459.05 M 14994.4 11155.5 L 13724 9481.52 M 13780.6 10296.6 L 13196.3 9459.05 M 14994.4 11155.5 L 15375.2 9572.32 M 13780.6 10296.6 L 14358 8573.56 M 16691.4 10456.3 L 15375.2 9572.32 M 15382.7 9886.6 L 14358 8573.56 M 16691.4 10456.3 L 16693.6 8713.49 M 14534.7 11954 L 13836.6 11558.3 M 13836.6 11558.3 L 12932.5 11454.7 M 14534.7 11954 L 14336.1 11101 M 13836.6 11558.3 L 13113.2 11210 M 14534.7 11954 L 15113 11994.9 M 15113 11994.9 L 14336.1 11101 M 15035.9 12305.8 L 15113 11994.9 M 15679.6 11439.8 L 14336.1 11101 M 756.151 14342.3 L 644.741 15882.2 M 15679.6 11439.8 L 14784 10695.7 M 1186.17 17030.9 L 1416.46 18202.8 M 2902.03 4460 L 2938.77 6080.31" />
</svg>
