<?xml version="1.0"?>
<svg width="17518" height="20843" version="1.1" xmlns="http://www.w3.org/2000/svg" >
<defs>
<style type="text/css"><![CDATA[
.m {stroke:rgb(255,0,0);stroke-width:26.053750;}
.v {stroke:rgb(0,0,255);stroke-width:26.053750;}
.b {stroke:rgb(0,0,0);stroke-width:52.107500;fill:white}
.n {stroke:rgb(128,128,128);stroke-width:26.053750}
.t {stroke:rgb(0,128,0);stroke-width:26.053750;}
.c {stroke:rgb(128,128,128);stroke-width:26.053750;stroke-dasharray:175.180000, 175.180000;}
]]></style>
</defs>
<line x1="7778.180500" y1="8322.033611" x2="6336.059241" y2="8302.342756" class="m" style="stroke-width:21.071129;" />
<line x1="6336.059241" y1="8302.342756" x2="6635.524750" y2="9110.284478" class="m" style="stroke-width:14.149811;" />
<line x1="6635.524750" y1="9110.284478" x2="7778.180500" y2="8322.033611" class="m" style="stroke-width:10.410175;" />
<line x1="6635.524750" y1="9110.284478" x2="8248.631838" y2="8900.534316" class="m" style="stroke-width:10.588193;" />
<line x1="8248.631838" y1="8900.534316" x2="7778.180500" y2="8322.033611" class="m" style="stroke-width:15.514172;" />
<line x1="4976.837021" y1="9054.060020" x2="5926.070343" y2="8468.731277" class="m" style="stroke-width:12.891642;" />
<line x1="5926.070343" y1="8468.731277" x2="4380.811851" y2="8283.631625" class="m" style="stroke-width:14.759999;" />
<line x1="4380.811851" y1="8283.631625" x2="4976.837021" y2="9054.060020" class="m" style="stroke-width:12.486569;" />
<line x1="4976.837021" y1="9054.060020" x2="6489.422436" y2="9120.715814" class="m" style="stroke-width:10.535522;" />
<line x1="6489.422436" y1="9120.715814" x2="5926.070343" y2="8468.731277" class="m" style="stroke-width:14.149811;" />
<line x1="3873.390369" y1="8693.013694" x2="3847.582504" y2="9559.230042" class="m" style="stroke-width:10.775087;" />
<line x1="3847.582504" y1="9559.230042" x2="4723.469556" y2="9168.588391" class="m" style="stroke-width:13.325040;" />
<line x1="4723.469556" y1="9168.588391" x2="3873.390369" y2="8693.013694" class="m" style="stroke-width:12.486569;" />
<line x1="2685.755800" y1="9391.614881" x2="2158.147677" y2="10711.902385" class="m" style="stroke-width:8.921802;" />
<line x1="2158.147677" y1="10711.902385" x2="3154.902216" y2="10120.242664" class="m" style="stroke-width:13.415936;" />
<line x1="3154.902216" y1="10120.242664" x2="2685.755800" y2="9391.614881" class="m" style="stroke-width:10.775087;" />
<line x1="990.701365" y1="11394.614106" x2="2017.480721" y2="10917.294430" class="m" style="stroke-width:13.410884;" />
<line x1="2017.480721" y1="10917.294430" x2="1021.042625" y2="10638.100842" class="m" style="stroke-width:10.040529;" />
<line x1="1021.042625" y1="10638.100842" x2="990.701365" y2="11394.614106" class="m" style="stroke-width:13.485604;" />
<line x1="2685.755800" y1="9391.614881" x2="1332.277664" y2="10088.382810" class="m" style="stroke-width:30.937276;" />
<line x1="1332.277664" y1="10088.382810" x2="2158.147677" y2="10711.902385" class="m" style="stroke-width:10.040529;" />
<line x1="756.151417" y1="14342.332130" x2="0.000000" y2="15334.194217" class="m" style="stroke-width:11.784546;" />
<line x1="0.000000" y1="15334.194217" x2="644.740621" y2="15882.151564" class="m" style="stroke-width:14.333339;" />
<line x1="644.740621" y1="15882.151564" x2="756.151417" y2="14342.332130" class="m" style="stroke-width:9.250588;" />
<line x1="2564.772602" y1="7006.923019" x2="3291.099543" y2="7220.656697" class="m" style="stroke-width:13.485604;" />
<line x1="3291.099543" y1="7220.656697" x2="3029.681986" y2="5849.592198" class="m" style="stroke-width:27.238301;" />
<line x1="3029.681986" y1="5849.592198" x2="2564.772602" y2="7006.923019" class="m" style="stroke-width:11.784546;" />
<line x1="626.309222" y1="18609.746503" x2="1416.459672" y2="18202.788570" class="m" style="stroke-width:14.124104;" />
<line x1="1416.459672" y1="18202.788570" x2="1186.173948" y2="17030.880964" class="m" style="stroke-width:14.422549;" />
<line x1="1186.173948" y1="17030.880964" x2="626.309222" y2="18609.746503" class="m" style="stroke-width:5.313158;" />
<line x1="2105.434418" y1="5933.669110" x2="2938.768025" y2="6080.307516" class="m" style="stroke-width:14.333339;" />
<line x1="2938.768025" y1="6080.307516" x2="2902.029959" y2="4460.000067" class="m" style="stroke-width:29.910330;" />
<line x1="2902.029959" y1="4460.000067" x2="2105.434418" y2="5933.669110" class="m" style="stroke-width:5.313158;" />
<line x1="2902.029959" y1="4460.000067" x2="2881.365502" y2="3529.949048" class="m" style="stroke-width:14.401334;" />
<line x1="2881.365502" y1="3529.949048" x2="2015.614293" y2="4524.959757" class="m" style="stroke-width:11.653244;" />
<line x1="2015.614293" y1="4524.959757" x2="2902.029959" y2="4460.000067" class="m" style="stroke-width:14.124104;" />
<line x1="3949.755449" y1="3355.298035" x2="2881.365502" y2="3529.949048" class="m" style="stroke-width:11.813681;" />
<line x1="2902.029959" y1="4460.000067" x2="3949.755449" y2="3355.298035" class="m" style="stroke-width:22.712129;" />
<line x1="3949.755449" y1="3355.298035" x2="3994.142481" y2="2463.272590" class="m" style="stroke-width:9.760464;" />
<line x1="3994.142481" y1="2463.272590" x2="2881.365502" y2="3529.949048" class="m" style="stroke-width:10.687236;" />
<line x1="3949.755449" y1="3355.298035" x2="4460.205188" y2="3017.147698" class="m" style="stroke-width:28.820929;" />
<line x1="4460.205188" y1="3017.147698" x2="3994.142481" y2="2463.272590" class="m" style="stroke-width:9.532421;" />
<line x1="5240.390938" y1="2294.306362" x2="3994.142481" y2="2463.272590" class="m" style="stroke-width:15.804011;" />
<line x1="4460.205188" y1="3017.147698" x2="5240.390938" y2="2294.306362" class="m" style="stroke-width:14.443187;" />
<line x1="12932.494367" y1="11454.704070" x2="12402.892281" y2="12189.660565" class="m" style="stroke-width:8.306195;" />
<line x1="12402.892281" y1="12189.660565" x2="13527.729535" y2="12296.217569" class="m" style="stroke-width:18.791986;" />
<line x1="13527.729535" y1="12296.217569" x2="12932.494367" y2="11454.704070" class="m" style="stroke-width:14.563406;" />
<line x1="12932.494367" y1="11454.704070" x2="12048.249103" y2="10863.956940" class="m" style="stroke-width:21.098209;" />
<line x1="12048.249103" y1="10863.956940" x2="12402.892281" y2="12189.660565" class="m" style="stroke-width:11.306172;" />
<line x1="12048.249103" y1="10863.956940" x2="11321.971709" y2="11004.536543" class="m" style="stroke-width:15.682438;" />
<line x1="11321.971709" y1="11004.536543" x2="12402.892281" y2="12189.660565" class="m" style="stroke-width:9.708501;" />
<line x1="9077.977628" y1="9393.238736" x2="10640.798484" y2="9022.798991" class="m" style="stroke-width:6.230879;" />
<line x1="10640.798484" y1="9022.798991" x2="9027.814926" y2="8649.282264" class="m" style="stroke-width:7.153010;" />
<line x1="9027.814926" y1="8649.282264" x2="9077.977628" y2="9393.238736" class="m" style="stroke-width:15.514172;" />
<line x1="9077.977628" y1="9393.238736" x2="10283.291985" y2="9670.433595" class="m" style="stroke-width:14.142070;" />
<line x1="10283.291985" y1="9670.433595" x2="10640.798484" y2="9022.798991" class="m" style="stroke-width:15.682438;" />
<line x1="6635.524750" y1="9110.284478" x2="7838.075241" y2="10127.598453" class="m" style="stroke-width:12.969929;" />
<line x1="7838.075241" y1="10127.598453" x2="8248.631838" y2="8900.534316" class="m" style="stroke-width:12.416038;" />
<line x1="5096.636207" y1="10309.038796" x2="5763.007383" y2="10099.699102" class="m" style="stroke-width:16.367091;" />
<line x1="5763.007383" y1="10099.699102" x2="4887.747867" y2="9127.410200" class="m" style="stroke-width:6.513396;" />
<line x1="4887.747867" y1="9127.410200" x2="5096.636207" y2="10309.038796" class="m" style="stroke-width:12.672870;" />
<line x1="5763.007383" y1="10099.699102" x2="6489.422436" y2="9120.715814" class="m" style="stroke-width:13.676596;" />
<line x1="4976.837021" y1="9054.060020" x2="5763.007383" y2="10099.699102" class="m" style="stroke-width:6.513396;" />
<line x1="1719.782014" y1="12050.229377" x2="2017.480721" y2="10917.294430" class="m" style="stroke-width:9.616435;" />
<line x1="990.701365" y1="11394.614106" x2="1719.782014" y2="12050.229377" class="m" style="stroke-width:11.771265;" />
<line x1="644.740621" y1="15882.151564" x2="1327.804908" y2="15278.798141" class="m" style="stroke-width:8.153792;" />
<line x1="1327.804908" y1="15278.798141" x2="756.151417" y2="14342.332130" class="m" style="stroke-width:11.020855;" />
<line x1="783.582357" y1="14326.129196" x2="1327.804908" y2="15278.798141" class="m" style="stroke-width:11.020855;" />
<line x1="1327.804908" y1="15278.798141" x2="1760.262011" y2="14239.602717" class="m" style="stroke-width:9.668514;" />
<line x1="1760.262011" y1="14239.602717" x2="783.582357" y2="14326.129196" class="m" style="stroke-width:11.771265;" />
<line x1="5941.567458" y1="20246.037944" x2="4288.129386" y2="20152.056914" class="m" style="stroke-width:8.002277;" />
<line x1="4288.129386" y1="20152.056914" x2="5410.430832" y2="20844.885124" class="m" style="stroke-width:11.653244;" />
<line x1="5410.430832" y1="20844.885124" x2="5941.567458" y2="20246.037944" class="m" style="stroke-width:15.663875;" />
<line x1="11796.778255" y1="18292.974483" x2="10575.866976" y2="19243.734578" class="m" style="stroke-width:10.883286;" />
<line x1="10575.866976" y1="19243.734578" x2="11217.997028" y2="19721.639440" class="m" style="stroke-width:15.663875;" />
<line x1="11217.997028" y1="19721.639440" x2="11796.778255" y2="18292.974483" class="m" style="stroke-width:10.687236;" />
<line x1="11321.971709" y1="11004.536543" x2="11328.056780" y2="12329.172697" class="m" style="stroke-width:9.733597;" />
<line x1="11328.056780" y1="12329.172697" x2="12402.892281" y2="12189.660565" class="m" style="stroke-width:15.169777;" />
<line x1="9077.977628" y1="9393.238736" x2="9406.424487" y2="10342.719812" class="m" style="stroke-width:11.122154;" />
<line x1="9406.424487" y1="10342.719812" x2="10283.291985" y2="9670.433595" class="m" style="stroke-width:10.841320;" />
<line x1="3847.582504" y1="9559.230042" x2="5096.636207" y2="10309.038796" class="m" style="stroke-width:5.236540;" />
<line x1="5096.636207" y1="10309.038796" x2="4723.469556" y2="9168.588391" class="m" style="stroke-width:12.672870;" />
<line x1="2158.147677" y1="10711.902385" x2="3129.193859" y2="11527.808636" class="m" style="stroke-width:13.272714;" />
<line x1="3129.193859" y1="11527.808636" x2="3154.902216" y2="10120.242664" class="m" style="stroke-width:6.905867;" />
<line x1="1416.459672" y1="18202.788570" x2="2147.340641" y2="17517.287002" class="m" style="stroke-width:13.157357;" />
<line x1="2147.340641" y1="17517.287002" x2="1186.173948" y2="17030.880964" class="m" style="stroke-width:8.744193;" />
<line x1="5941.567458" y1="20246.037944" x2="4954.327446" y2="19101.060240" class="m" style="stroke-width:8.376658;" />
<line x1="4954.327446" y1="19101.060240" x2="4288.129386" y2="20152.056914" class="m" style="stroke-width:9.531052;" />
<line x1="11796.778255" y1="18292.974483" x2="10209.363493" y2="18194.696488" class="m" style="stroke-width:10.180509;" />
<line x1="10209.363493" y1="18194.696488" x2="10575.866976" y2="19243.734578" class="m" style="stroke-width:13.915404;" />
<line x1="11796.778255" y1="18292.974483" x2="11152.227629" y2="16954.603047" class="m" style="stroke-width:12.831588;" />
<line x1="11152.227629" y1="16954.603047" x2="10209.363493" y2="18194.696488" class="m" style="stroke-width:6.727414;" />
<line x1="4326.982263" y1="1015.549797" x2="3994.142481" y2="2463.272590" class="m" style="stroke-width:12.831588;" />
<line x1="5240.390938" y1="2294.306362" x2="4326.982263" y2="1015.549797" class="m" style="stroke-width:11.765059;" />
<line x1="5240.390938" y1="2294.306362" x2="6173.188624" y2="1656.731488" class="m" style="stroke-width:18.791986;" />
<line x1="6173.188624" y1="1656.731488" x2="4326.982263" y2="1015.549797" class="m" style="stroke-width:8.813804;" />
<line x1="10330.697393" y1="12029.592778" x2="11328.056780" y2="12329.172697" class="m" style="stroke-width:14.109265;" />
<line x1="11321.971709" y1="11004.536543" x2="10330.697393" y2="12029.592778" class="m" style="stroke-width:9.200219;" />
<line x1="6667.159129" y1="10581.736032" x2="7838.075241" y2="10127.598453" class="m" style="stroke-width:10.161714;" />
<line x1="6635.524750" y1="9110.284478" x2="6667.159129" y2="10581.736032" class="m" style="stroke-width:7.746891;" />
<line x1="5763.007383" y1="10099.699102" x2="6667.159129" y2="10581.736032" class="m" style="stroke-width:13.213157;" />
<line x1="6667.159129" y1="10581.736032" x2="6489.422436" y2="9120.715814" class="m" style="stroke-width:7.746891;" />
<line x1="1719.782014" y1="12050.229377" x2="3129.193859" y2="11527.808636" class="m" style="stroke-width:10.732598;" />
<line x1="3129.193859" y1="11527.808636" x2="2017.480721" y2="10917.294430" class="m" style="stroke-width:13.272714;" />
<line x1="2551.761200" y1="15480.544947" x2="1760.262011" y2="14239.602717" class="m" style="stroke-width:11.700801;" />
<line x1="1327.804908" y1="15278.798141" x2="2551.761200" y2="15480.544947" class="v" style="stroke-width:7.096322;" />
<line x1="644.740621" y1="15882.151564" x2="1737.048850" y2="15855.574610" class="m" style="stroke-width:11.926054;" />
<line x1="1737.048850" y1="15855.574610" x2="1327.804908" y2="15278.798141" class="m" style="stroke-width:14.415776;" />
<line x1="1737.048850" y1="15855.574610" x2="2551.761200" y2="15480.544947" class="m" style="stroke-width:13.671992;" />
<line x1="3808.544438" y1="19881.345229" x2="4745.944940" y2="19062.996793" class="m" style="stroke-width:9.531052;" />
<line x1="4745.944940" y1="19062.996793" x2="3775.425368" y2="18879.845096" class="v" style="stroke-width:8.468880;" />
<line x1="3775.425368" y1="18879.845096" x2="3808.544438" y2="19881.345229" class="m" style="stroke-width:13.157357;" />
<line x1="5885.067278" y1="19111.668487" x2="4954.327446" y2="19101.060240" class="m" style="stroke-width:10.720129;" />
<line x1="5941.567458" y1="20246.037944" x2="5885.067278" y2="19111.668487" class="m" style="stroke-width:12.177257;" />
<line x1="5618.277516" y1="0.000000" x2="4326.982263" y2="1015.549797" class="v" style="stroke-width:6.298621;" />
<line x1="6173.188624" y1="1656.731488" x2="5618.277516" y2="0.000000" class="m" style="stroke-width:9.817224;" />
<line x1="12449.248232" y1="13820.356045" x2="11474.851386" y2="13345.713258" class="m" style="stroke-width:15.169777;" />
<line x1="11474.851386" y1="13345.713258" x2="10810.965062" y2="14427.574143" class="m" style="stroke-width:12.456561;" />
<line x1="10810.965062" y1="14427.574143" x2="12449.248232" y2="13820.356045" class="m" style="stroke-width:9.817224;" />
<line x1="10217.840154" y1="10962.597595" x2="10330.697393" y2="12029.592778" class="m" style="stroke-width:5.892098;" />
<line x1="11321.971709" y1="11004.536543" x2="10217.840154" y2="10962.597595" class="m" style="stroke-width:10.841320;" />
<line x1="9077.977628" y1="9393.238736" x2="8197.273530" y2="10341.185679" class="m" style="stroke-width:12.416038;" />
<line x1="8197.273530" y1="10341.185679" x2="9406.424487" y2="10342.719812" class="m" style="stroke-width:6.843226;" />
<line x1="6667.159129" y1="10581.736032" x2="7505.698010" y2="11216.122798" class="m" style="stroke-width:12.857579;" />
<line x1="7505.698010" y1="11216.122798" x2="7838.075241" y2="10127.598453" class="m" style="stroke-width:11.713257;" />
<line x1="1719.782014" y1="12050.229377" x2="2920.015714" y2="12660.322858" class="m" style="stroke-width:9.713274;" />
<line x1="2920.015714" y1="12660.322858" x2="3129.193859" y2="11527.808636" class="m" style="stroke-width:13.266859;" />
<line x1="2551.761200" y1="15480.544947" x2="3076.024309" y2="13954.042626" class="m" style="stroke-width:9.378429;" />
<line x1="3076.024309" y1="13954.042626" x2="1760.262011" y2="14239.602717" class="m" style="stroke-width:9.713274;" />
<line x1="8452.689778" y1="19811.110185" x2="8969.626258" y2="18827.452524" class="m" style="stroke-width:13.915404;" />
<line x1="8969.626258" y1="18827.452524" x2="7716.226104" y2="18946.467142" class="m" style="stroke-width:9.798821;" />
<line x1="7716.226104" y1="18946.467142" x2="8452.689778" y2="19811.110185" class="m" style="stroke-width:12.177257;" />
<line x1="10330.697393" y1="12029.592778" x2="9879.959629" y2="13012.113591" class="m" style="stroke-width:9.558529;" />
<line x1="9879.959629" y1="13012.113591" x2="11301.562672" y2="12406.281623" class="m" style="stroke-width:6.505318;" />
<line x1="11301.562672" y1="12406.281623" x2="10330.697393" y2="12029.592778" class="m" style="stroke-width:14.109265;" />
<line x1="5313.034031" y1="11601.763621" x2="6667.159129" y2="10581.736032" class="m" style="stroke-width:9.767596;" />
<line x1="5763.007383" y1="10099.699102" x2="5313.034031" y2="11601.763621" class="m" style="stroke-width:6.424361;" />
<line x1="3781.277399" y1="15073.052274" x2="3076.024309" y2="13954.042626" class="m" style="stroke-width:11.781173;" />
<line x1="2551.761200" y1="15480.544947" x2="3781.277399" y2="15073.052274" class="m" style="stroke-width:12.067434;" />
<line x1="5885.067278" y1="19111.668487" x2="5693.813704" y2="18059.917516" class="m" style="stroke-width:12.722552;" />
<line x1="5693.813704" y1="18059.917516" x2="4954.327446" y2="19101.060240" class="v" style="stroke-width:20.921888;" />
<line x1="8134.999261" y1="17595.165040" x2="7716.226104" y2="18946.467142" class="m" style="stroke-width:8.052979;" />
<line x1="8969.626258" y1="18827.452524" x2="8134.999261" y2="17595.165040" class="v" style="stroke-width:7.117638;" />
<line x1="9929.732318" y1="13370.098677" x2="10810.965062" y2="14427.574143" class="m" style="stroke-width:11.955119;" />
<line x1="11474.851386" y1="13345.713258" x2="9929.732318" y2="13370.098677" class="m" style="stroke-width:6.505318;" />
<line x1="5313.034031" y1="11601.763621" x2="6756.266863" y2="12099.589738" class="m" style="stroke-width:13.014712;" />
<line x1="6756.266863" y1="12099.589738" x2="6667.159129" y2="10581.736032" class="m" style="stroke-width:6.462075;" />
<line x1="6756.266863" y1="12099.589738" x2="7505.698010" y2="11216.122798" class="m" style="stroke-width:12.197546;" />
<line x1="3781.277399" y1="15073.052274" x2="4368.569305" y2="13329.724886" class="m" style="stroke-width:11.331681;" />
<line x1="4368.569305" y1="13329.724886" x2="3076.024309" y2="13954.042626" class="m" style="stroke-width:11.730049;" />
<line x1="8134.999261" y1="17595.165040" x2="6991.002657" y2="18161.095263" class="m" style="stroke-width:13.509465;" />
<line x1="6991.002657" y1="18161.095263" x2="7716.226104" y2="18946.467142" class="m" style="stroke-width:12.722552;" />
<line x1="9929.732318" y1="13370.098677" x2="9547.751542" y2="14413.555342" class="m" style="stroke-width:8.503828;" />
<line x1="9547.751542" y1="14413.555342" x2="10810.965062" y2="14427.574143" class="v" style="stroke-width:6.528308;" />
<line x1="4946.737310" y1="13990.621867" x2="4368.569305" y2="13329.724886" class="m" style="stroke-width:14.840361;" />
<line x1="3781.277399" y1="15073.052274" x2="4946.737310" y2="13990.621867" class="m" style="stroke-width:6.724227;" />
<line x1="6494.297156" y1="17282.298774" x2="6991.002657" y2="18161.095263" class="m" style="stroke-width:14.615774;" />
<line x1="8134.999261" y1="17595.165040" x2="6494.297156" y2="17282.298774" class="m" style="stroke-width:7.912854;" />
<line x1="9929.732318" y1="13370.098677" x2="9160.445386" y2="13359.629853" class="m" style="stroke-width:12.758141;" />
<line x1="9160.445386" y1="13359.629853" x2="9547.751542" y2="14413.555342" class="m" style="stroke-width:11.734963;" />
<line x1="7003.696990" y1="13075.527151" x2="6756.266863" y2="12099.589738" class="m" style="stroke-width:15.917989;" />
<line x1="6756.266863" y1="12099.589738" x2="5549.998915" y2="12833.432480" class="m" style="stroke-width:10.424874;" />
<line x1="5549.998915" y1="12833.432480" x2="7003.696990" y2="13075.527151" class="m" style="stroke-width:9.094905;" />
<line x1="5068.061690" y1="15259.778296" x2="4946.737310" y2="13990.621867" class="m" style="stroke-width:12.244006;" />
<line x1="4946.737310" y1="13990.621867" x2="3858.234147" y2="15150.412044" class="m" style="stroke-width:6.724227;" />
<line x1="3858.234147" y1="15150.412044" x2="5068.061690" y2="15259.778296" class="m" style="stroke-width:10.621904;" />
<line x1="8134.999261" y1="17595.165040" x2="7736.840780" y2="16311.981043" class="m" style="stroke-width:8.909033;" />
<line x1="7736.840780" y1="16311.981043" x2="6494.297156" y2="17282.298774" class="m" style="stroke-width:13.428320;" />
<line x1="9160.445386" y1="13359.629853" x2="7925.010352" y2="13475.553757" class="m" style="stroke-width:10.941321;" />
<line x1="7925.010352" y1="13475.553757" x2="8501.197346" y2="15096.000243" class="m" style="stroke-width:9.825484;" />
<line x1="8501.197346" y1="15096.000243" x2="9160.445386" y2="13359.629853" class="m" style="stroke-width:9.922223;" />
<line x1="8501.197346" y1="15096.000243" x2="9547.751542" y2="14413.555342" class="m" style="stroke-width:8.545596;" />
<line x1="5531.350130" y1="13011.945336" x2="6074.678678" y2="14044.180245" class="m" style="stroke-width:12.756192;" />
<line x1="6074.678678" y1="14044.180245" x2="7003.696990" y2="13075.527151" class="m" style="stroke-width:10.186956;" />
<line x1="7003.696990" y1="13075.527151" x2="5531.350130" y2="13011.945336" class="m" style="stroke-width:9.094905;" />
<line x1="5531.350130" y1="13011.945336" x2="4946.737310" y2="13990.621867" class="m" style="stroke-width:6.711636;" />
<line x1="4946.737310" y1="13990.621867" x2="6074.678678" y2="14044.180245" class="m" style="stroke-width:11.510948;" />
<line x1="5068.061690" y1="15259.778296" x2="6074.678678" y2="14044.180245" class="m" style="stroke-width:7.517767;" />
<line x1="5711.164388" y1="17050.611527" x2="6197.615172" y2="15530.047659" class="m" style="stroke-width:12.035979;" />
<line x1="6197.615172" y1="15530.047659" x2="5258.871123" y2="15395.259227" class="m" style="stroke-width:15.008110;" />
<line x1="5258.871123" y1="15395.259227" x2="5711.164388" y2="17050.611527" class="v" style="stroke-width:7.534096;" />
<line x1="6074.678678" y1="14044.180245" x2="7103.528622" y2="14556.052881" class="m" style="stroke-width:14.030492;" />
<line x1="7103.528622" y1="14556.052881" x2="7003.696990" y2="13075.527151" class="m" style="stroke-width:7.966718;" />
<line x1="7736.840780" y1="16311.981043" x2="6405.407965" y2="15688.295149" class="m" style="stroke-width:12.511313;" />
<line x1="6405.407965" y1="15688.295149" x2="6494.297156" y2="17282.298774" class="m" style="stroke-width:12.035979;" />
<line x1="7925.010352" y1="13475.553757" x2="7103.528622" y2="14556.052881" class="m" style="stroke-width:12.993634;" />
<line x1="7103.528622" y1="14556.052881" x2="8501.197346" y2="15096.000243" class="m" style="stroke-width:14.376492;" />
<line x1="7925.010352" y1="13475.553757" x2="7003.696990" y2="13075.527151" class="m" style="stroke-width:16.470119;" />
<line x1="6197.615172" y1="15530.047659" x2="7103.528622" y2="14556.052881" class="m" style="stroke-width:13.918435;" />
<line x1="6074.678678" y1="14044.180245" x2="6197.615172" y2="15530.047659" class="m" style="stroke-width:9.277298;" />
<line x1="6074.678678" y1="14044.180245" x2="5258.871123" y2="15395.259227" class="m" style="stroke-width:7.517767;" />
<line x1="7103.528622" y1="14556.052881" x2="6405.407965" y2="15688.295149" class="m" style="stroke-width:13.918435;" />
<line x1="7736.840780" y1="16311.981043" x2="7103.528622" y2="14556.052881" class="m" style="stroke-width:7.100830;" />
<line x1="7736.840780" y1="16311.981043" x2="8501.197346" y2="15096.000243" class="m" style="stroke-width:10.550712;" />
<line x1="8208.474127" y1="7221.634269" x2="9639.773572" y2="8694.365968" class="m" style="stroke-width:33.059388;" />
<line x1="9639.773572" y1="8694.365968" x2="9158.015693" y2="8063.493605" class="v" style="stroke-width:24.386791;" />
<line x1="9158.015693" y1="8063.493605" x2="8208.474127" y2="7221.634269" class="v" style="stroke-width:62.208997;" />
<line x1="8208.474127" y1="7221.634269" x2="8073.602134" y2="7567.811322" class="m" style="stroke-width:9.903720;" />
<line x1="8073.602134" y1="7567.811322" x2="9639.773572" y2="8694.365968" class="v" style="stroke-width:6.016770;" />
<line x1="9027.814926" y1="8649.282264" x2="9639.773572" y2="8694.365968" class="m" style="stroke-width:19.750848;" />
<line x1="8073.602134" y1="7567.811322" x2="9027.814926" y2="8649.282264" class="m" style="stroke-width:21.071129;" />
<line x1="5926.070343" y1="8468.731277" x2="5606.114078" y2="8279.900678" class="m" style="stroke-width:9.903720;" />
<line x1="5606.114078" y1="8279.900678" x2="4380.811851" y2="8283.631625" class="m" style="stroke-width:17.975573;" />
<line x1="4686.061871" y1="7929.684357" x2="4380.811851" y2="8283.631625" class="v" style="stroke-width:8.539479;" />
<line x1="5606.114078" y1="8279.900678" x2="4686.061871" y2="7929.684357" class="v" style="stroke-width:29.385788;" />
<line x1="4686.061871" y1="7929.684357" x2="3731.094194" y2="7153.253363" class="v" style="stroke-width:43.264706;" />
<line x1="3731.094194" y1="7153.253363" x2="4380.811851" y2="8283.631625" class="v" style="stroke-width:8.234718;" />
<line x1="3731.094194" y1="7153.253363" x2="3291.099543" y2="7220.656697" class="v" style="stroke-width:8.890986;" />
<line x1="3291.099543" y1="7220.656697" x2="4380.811851" y2="8283.631625" class="m" style="stroke-width:30.937276;" />
<line x1="2938.768025" y1="6080.307516" x2="3210.603891" y2="5197.664717" class="v" style="stroke-width:6.942662;" />
<line x1="3210.603891" y1="5197.664717" x2="2902.029959" y2="4460.000067" class="v" style="stroke-width:10.176592;" />
<line x1="3210.603891" y1="5197.664717" x2="3949.755449" y2="3355.298035" class="v" style="stroke-width:46.470796;" />
<line x1="14534.740347" y1="11953.991580" x2="15035.885800" y2="12305.783878" class="m" style="stroke-width:28.820929;" />
<line x1="15035.885800" y1="12305.783878" x2="15112.969577" y2="11994.940759" class="v" style="stroke-width:30.566259;" />
<line x1="15112.969577" y1="11994.940759" x2="14534.740347" y2="11953.991580" class="v" style="stroke-width:28.039612;" />
<line x1="13836.633517" y1="11558.270594" x2="12932.494367" y2="11454.704070" class="v" style="stroke-width:7.172543;" />
<line x1="12932.494367" y1="11454.704070" x2="14534.740347" y2="11953.991580" class="m" style="stroke-width:23.262058;" />
<line x1="14534.740347" y1="11953.991580" x2="13836.633517" y2="11558.270594" class="v" style="stroke-width:50.301166;" />
<line x1="13527.729535" y1="12296.217569" x2="14534.740347" y2="11953.991580" class="m" style="stroke-width:14.443187;" />
<line x1="13836.633517" y1="11558.270594" x2="13113.211779" y2="11209.969863" class="v" style="stroke-width:48.834752;" />
<line x1="13113.211779" y1="11209.969863" x2="12932.494367" y2="11454.704070" class="v" style="stroke-width:9.033097;" />
<line x1="12932.494367" y1="11454.704070" x2="11903.414868" y2="9820.433021" class="m" style="stroke-width:14.443328;" />
<line x1="11903.414868" y1="9820.433021" x2="12048.249103" y2="10863.956940" class="m" style="stroke-width:18.675302;" />
<line x1="13079.736596" y1="11188.483595" x2="11903.414868" y2="9820.433021" class="m" style="stroke-width:12.303549;" />
<line x1="12932.494367" y1="11454.704070" x2="13079.736596" y2="11188.483595" class="v" style="stroke-width:9.033097;" />
<line x1="13079.736596" y1="11188.483595" x2="12269.376758" y2="10053.028184" class="v" style="stroke-width:58.197180;" />
<line x1="12269.376758" y1="10053.028184" x2="11903.414868" y2="9820.433021" class="v" style="stroke-width:14.078012;" />
<line x1="10640.798484" y1="9022.798991" x2="9639.773572" y2="8694.365968" class="m" style="stroke-width:18.675302;" />
<line x1="9158.015693" y1="8063.493605" x2="9086.038703" y2="7089.310069" class="v" style="stroke-width:6.150492;" />
<line x1="9086.038703" y1="7089.310069" x2="8208.474127" y2="7221.634269" class="m" style="stroke-width:31.599725;" />
<line x1="6177.016887" y1="7600.416123" x2="4686.061871" y2="7929.684357" class="v" style="stroke-width:23.473010;" />
<line x1="5606.114078" y1="8279.900678" x2="6177.016887" y2="7600.416123" class="m" style="stroke-width:31.599725;" />
<line x1="3731.094194" y1="7153.253363" x2="3453.867601" y2="6150.013723" class="v" style="stroke-width:46.780283;" />
<line x1="3453.867601" y1="6150.013723" x2="3291.099543" y2="7220.656697" class="m" style="stroke-width:5.238916;" />
<line x1="3453.867601" y1="6150.013723" x2="3029.681986" y2="5849.592198" class="v" style="stroke-width:8.017812;" />
<line x1="3453.867601" y1="6150.013723" x2="3210.603891" y2="5197.664717" class="v" style="stroke-width:45.753470;" />
<line x1="2938.768025" y1="6080.307516" x2="3453.867601" y2="6150.013723" class="v" style="stroke-width:8.017812;" />
<line x1="12269.376758" y1="10053.028184" x2="12239.744593" y2="9101.424739" class="v" style="stroke-width:47.750746;" />
<line x1="12239.744593" y1="9101.424739" x2="11903.414868" y2="9820.433021" class="v" style="stroke-width:24.386791;" />
<line x1="4781.087385" y1="6343.759744" x2="3731.094194" y2="7153.253363" class="m" style="stroke-width:13.731308;" />
<line x1="4686.061871" y1="7929.684357" x2="4781.087385" y2="6343.759744" class="m" style="stroke-width:9.196829;" />
<line x1="6177.016887" y1="7600.416123" x2="5346.011554" y2="6794.399181" class="m" style="stroke-width:11.748185;" />
<line x1="5346.011554" y1="6794.399181" x2="4686.061871" y2="7929.684357" class="m" style="stroke-width:19.167944;" />
<line x1="4470.315362" y1="6391.108302" x2="5118.790740" y2="6881.694762" class="m" style="stroke-width:18.698507;" />
<line x1="5118.790740" y1="6881.694762" x2="4355.757370" y2="5621.015170" class="v" style="stroke-width:14.795585;" />
<line x1="4355.757370" y1="5621.015170" x2="4470.315362" y2="6391.108302" class="m" style="stroke-width:18.826218;" />
<line x1="5118.790740" y1="6881.694762" x2="5372.952560" y2="6050.732993" class="m" style="stroke-width:24.451844;" />
<line x1="5372.952560" y1="6050.732993" x2="4355.757370" y2="5621.015170" class="m" style="stroke-width:20.713069;" />
<line x1="4470.315362" y1="6391.108302" x2="3453.867601" y2="6150.013723" class="m" style="stroke-width:8.837210;" />
<line x1="3731.094194" y1="7153.253363" x2="4470.315362" y2="6391.108302" class="m" style="stroke-width:12.609218;" />
<line x1="4184.887136" y1="5527.171195" x2="4300.508682" y2="6388.407138" class="m" style="stroke-width:24.451844;" />
<line x1="4300.508682" y1="6388.407138" x2="5346.011554" y2="6794.399181" class="m" style="stroke-width:20.056154;" />
<line x1="5346.011554" y1="6794.399181" x2="4184.887136" y2="5527.171195" class="m" style="stroke-width:5.917747;" />
<line x1="13780.640794" y1="10296.579244" x2="14358.005483" y2="8573.562646" class="m" style="stroke-width:23.942821;" />
<line x1="14358.005483" y1="8573.562646" x2="13196.254044" y2="9459.054032" class="m" style="stroke-width:13.507185;" />
<line x1="13196.254044" y1="9459.054032" x2="13780.640794" y2="10296.579244" class="m" style="stroke-width:18.373834;" />
<line x1="9682.035086" y1="6127.149182" x2="9086.038703" y2="7089.310069" class="m" style="stroke-width:13.947955;" />
<line x1="9086.038703" y1="7089.310069" x2="10037.213127" y2="7544.050717" class="m" style="stroke-width:12.075485;" />
<line x1="10037.213127" y1="7544.050717" x2="9682.035086" y2="6127.149182" class="m" style="stroke-width:13.507185;" />
<line x1="17518.788880" y1="9447.229143" x2="16693.576674" y2="8713.493306" class="m" style="stroke-width:20.713069;" />
<line x1="16693.576674" y1="8713.493306" x2="16691.409074" y2="10456.331106" class="m" style="stroke-width:23.378850;" />
<line x1="16691.409074" y1="10456.331106" x2="17518.788880" y2="9447.229143" class="m" style="stroke-width:12.048317;" />
<line x1="4515.385951" y1="4325.884740" x2="3878.689343" y2="4731.310859" class="m" style="stroke-width:18.852693;" />
<line x1="3878.689343" y1="4731.310859" x2="4355.757370" y2="5621.015170" class="m" style="stroke-width:13.253126;" />
<line x1="4355.757370" y1="5621.015170" x2="4515.385951" y2="4325.884740" class="m" style="stroke-width:12.048317;" />
<line x1="4770.595505" y1="5078.953540" x2="4397.365482" y2="3941.172206" class="m" style="stroke-width:19.448438;" />
<line x1="4397.365482" y1="3941.172206" x2="4025.357052" y2="5198.839137" class="m" style="stroke-width:6.992857;" />
<line x1="4025.357052" y1="5198.839137" x2="4770.595505" y2="5078.953540" class="m" style="stroke-width:18.852693;" />
<line x1="14336.105366" y1="11101.047192" x2="15679.562733" y2="11439.832532" class="m" style="stroke-width:5.285595;" />
<line x1="15679.562733" y1="11439.832532" x2="14783.980782" y2="10695.737529" class="m" style="stroke-width:19.897087;" />
<line x1="14783.980782" y1="10695.737529" x2="14336.105366" y2="11101.047192" class="m" style="stroke-width:22.509843;" />
<line x1="14757.009310" y1="11546.902638" x2="13633.431280" y2="10597.622501" class="m" style="stroke-width:12.042662;" />
<line x1="13633.431280" y1="10597.622501" x2="14162.073291" y2="11651.398780" class="m" style="stroke-width:14.781858;" />
<line x1="14162.073291" y1="11651.398780" x2="14757.009310" y2="11546.902638" class="m" style="stroke-width:22.509843;" />
<line x1="13724.008818" y1="9481.524845" x2="13120.514765" y2="9929.897377" class="m" style="stroke-width:15.223659;" />
<line x1="13120.514765" y1="9929.897377" x2="13633.431280" y2="10597.622501" class="m" style="stroke-width:14.087861;" />
<line x1="13633.431280" y1="10597.622501" x2="13724.008818" y2="9481.524845" class="m" style="stroke-width:19.404559;" />
<line x1="13196.254044" y1="9459.054032" x2="13041.182143" y2="10432.387578" class="m" style="stroke-width:8.854906;" />
<line x1="13041.182143" y1="10432.387578" x2="13780.640794" y2="10296.579244" class="m" style="stroke-width:15.223659;" />
<line x1="3210.603891" y1="5197.664717" x2="4355.757370" y2="5621.015170" class="m" style="stroke-width:7.902715;" />
<line x1="3878.689343" y1="4731.310859" x2="3210.603891" y2="5197.664717" class="m" style="stroke-width:18.930543;" />
<line x1="3453.867601" y1="6150.013723" x2="4355.757370" y2="5621.015170" class="m" style="stroke-width:14.199577;" />
<line x1="4397.365482" y1="3941.172206" x2="3949.755449" y2="3355.298035" class="m" style="stroke-width:49.053191;" />
<line x1="3949.755449" y1="3355.298035" x2="4025.357052" y2="5198.839137" class="m" style="stroke-width:10.741688;" />
<line x1="3210.603891" y1="5197.664717" x2="4025.357052" y2="5198.839137" class="m" style="stroke-width:18.930543;" />
<line x1="15035.885800" y1="12305.783878" x2="15757.427989" y2="12457.375949" class="m" style="stroke-width:49.053191;" />
<line x1="15757.427989" y1="12457.375949" x2="15112.969577" y2="11994.940759" class="v" style="stroke-width:34.388162;" />
<line x1="15112.969577" y1="11994.940759" x2="15679.562733" y2="11439.832532" class="v" style="stroke-width:34.388162;" />
<line x1="14336.105366" y1="11101.047192" x2="15112.969577" y2="11994.940759" class="v" style="stroke-width:27.668346;" />
<line x1="14336.105366" y1="11101.047192" x2="14534.740347" y2="11953.991580" class="m" style="stroke-width:40.498598;" />
<line x1="14336.105366" y1="11101.047192" x2="13836.633517" y2="11558.270594" class="v" style="stroke-width:6.493858;" />
<line x1="14278.834742" y1="11045.451479" x2="13113.211779" y2="11209.969863" class="m" style="stroke-width:8.136392;" />
<line x1="13836.633517" y1="11558.270594" x2="14278.834742" y2="11045.451479" class="v" style="stroke-width:6.493858;" />
<line x1="13079.736596" y1="11188.483595" x2="14162.073291" y2="11651.398780" class="m" style="stroke-width:8.136392;" />
<line x1="13633.431280" y1="10597.622501" x2="13079.736596" y2="11188.483595" class="m" style="stroke-width:17.885457;" />
<line x1="13120.514765" y1="9929.897377" x2="12269.376758" y2="10053.028184" class="m" style="stroke-width:17.097405;" />
<line x1="13079.736596" y1="11188.483595" x2="13120.514765" y2="9929.897377" class="m" style="stroke-width:6.696433;" />
<line x1="12269.376758" y1="10053.028184" x2="13041.182143" y2="10432.387578" class="m" style="stroke-width:17.097405;" />
<line x1="13196.254044" y1="9459.054032" x2="12269.376758" y2="10053.028184" class="m" style="stroke-width:9.956597;" />
<line x1="13196.254044" y1="9459.054032" x2="12239.744593" y2="9101.424739" class="m" style="stroke-width:14.706644;" />
<line x1="9158.015693" y1="8063.493605" x2="10037.213127" y2="7544.050717" class="m" style="stroke-width:14.706644;" />
<line x1="6151.139318" y1="6468.914637" x2="5346.011554" y2="6794.399181" class="m" style="stroke-width:23.403264;" />
<line x1="6177.016887" y1="7600.416123" x2="6151.139318" y2="6468.914637" class="m" style="stroke-width:13.947955;" />
<line x1="4300.508682" y1="6388.407138" x2="4686.061871" y2="7929.684357" class="m" style="stroke-width:9.196829;" />
<line x1="4781.087385" y1="6343.759744" x2="3997.776594" y2="6125.540598" class="m" style="stroke-width:18.698507;" />
<line x1="3997.776594" y1="6125.540598" x2="3731.094194" y2="7153.253363" class="m" style="stroke-width:12.609218;" />
<line x1="14994.417087" y1="11155.545435" x2="13724.008818" y2="9481.524845" class="m" style="stroke-width:17.844270;" />
<line x1="13633.431280" y1="10597.622501" x2="14994.417087" y2="11155.545435" class="m" style="stroke-width:12.042662;" />
<line x1="6151.139318" y1="6468.914637" x2="4656.616006" y2="5219.975331" class="m" style="stroke-width:22.071103;" />
<line x1="4656.616006" y1="5219.975331" x2="5346.011554" y2="6794.399181" class="m" style="stroke-width:5.917747;" />
<line x1="14994.417087" y1="11155.545435" x2="15375.155067" y2="9572.324628" class="m" style="stroke-width:9.439800;" />
<line x1="15375.155067" y1="9572.324628" x2="13724.008818" y2="9481.524845" class="m" style="stroke-width:10.769059;" />
<line x1="16619.376702" y1="10697.810486" x2="14783.980782" y2="10695.737529" class="m" style="stroke-width:19.639818;" />
<line x1="15679.562733" y1="11439.832532" x2="16619.376702" y2="10697.810486" class="m" style="stroke-width:19.448438;" />
<line x1="14994.417087" y1="11155.545435" x2="16691.409074" y2="10456.331106" class="m" style="stroke-width:19.639818;" />
<line x1="16691.409074" y1="10456.331106" x2="15375.155067" y2="9572.324628" class="m" style="stroke-width:9.196535;" />
<line x1="13780.640794" y1="10296.579244" x2="15382.653851" y2="9886.600341" class="m" style="stroke-width:10.769059;" />
<line x1="15382.653851" y1="9886.600341" x2="14358.005483" y2="8573.562646" class="m" style="stroke-width:8.391703;" />
<line x1="15382.653851" y1="9886.600341" x2="16305.303617" y2="8612.024260" class="m" style="stroke-width:10.348798;" />
<line x1="16305.303617" y1="8612.024260" x2="14358.005483" y2="8573.562646" class="m" style="stroke-width:22.071103;" />
<line x1="16693.576674" y1="8713.493306" x2="15375.155067" y2="9572.324628" class="m" style="stroke-width:10.348798;" />
<line x1="4344.580607" y1="12836.561547" x2="4011.825308" y2="11082.974447" class="m" style="stroke-width:11.867294;" />
<line x1="4011.825308" y1="11082.974447" x2="3129.193859" y2="11527.808636" class="m" style="stroke-width:17.812801;" />
<line x1="3129.193859" y1="11527.808636" x2="4344.580607" y2="12836.561547" class="m" style="stroke-width:9.194872;" />
<line x1="5313.034031" y1="11601.763621" x2="4344.580607" y2="12836.561547" class="m" style="stroke-width:11.116547;" />
<line x1="4344.580607" y1="12836.561547" x2="5549.998915" y2="12833.432480" class="m" style="stroke-width:13.367552;" />
<line x1="5549.998915" y1="12833.432480" x2="5313.034031" y2="11601.763621" class="m" style="stroke-width:12.163783;" />
<line x1="5313.034031" y1="11601.763621" x2="4011.825308" y2="11082.974447" class="m" style="stroke-width:12.915635;" />
<line x1="2920.015714" y1="12660.322858" x2="4344.580607" y2="12836.561547" class="m" style="stroke-width:11.730049;" />
<line x1="5096.636207" y1="10309.038796" x2="5313.034031" y2="11601.763621" class="m" style="stroke-width:11.486390;" />
<line x1="5096.636207" y1="10309.038796" x2="4157.198949" y2="10810.352469" class="m" style="stroke-width:16.036798;" />
<line x1="4157.198949" y1="10810.352469" x2="5313.034031" y2="11601.763621" class="m" style="stroke-width:12.915635;" />
<line x1="3847.582504" y1="9559.230042" x2="4157.198949" y2="10810.352469" class="m" style="stroke-width:12.914813;" />
<line x1="4011.825308" y1="11082.974447" x2="3154.902216" y2="10120.242664" class="m" style="stroke-width:12.914813;" />
<line x1="5531.350130" y1="13011.945336" x2="4368.569305" y2="13329.724886" class="m" style="stroke-width:13.367552;" />
<line x1="7609.283105" y1="11315.673819" x2="9204.508610" y2="11415.949028" class="m" style="stroke-width:7.305175;" />
<line x1="9204.508610" y1="11415.949028" x2="8197.273530" y2="10341.185679" class="m" style="stroke-width:14.152489;" />
<line x1="8197.273530" y1="10341.185679" x2="7609.283105" y2="11315.673819" class="m" style="stroke-width:11.713257;" />
<line x1="8347.259682" y1="12260.454153" x2="9204.508610" y2="11415.949028" class="m" style="stroke-width:17.890209;" />
<line x1="7609.283105" y1="11315.673819" x2="8347.259682" y2="12260.454153" class="m" style="stroke-width:13.666567;" />
<line x1="6756.266863" y1="12099.589738" x2="8347.259682" y2="12260.454153" class="m" style="stroke-width:13.328907;" />
<line x1="7609.283105" y1="11315.673819" x2="6756.266863" y2="12099.589738" class="m" style="stroke-width:12.197546;" />
<line x1="7925.010352" y1="13475.553757" x2="6756.266863" y2="12099.589738" class="v" style="stroke-width:11.302544;" />
<line x1="7925.010352" y1="13475.553757" x2="8347.259682" y2="12260.454153" class="m" style="stroke-width:15.588885;" />
<line x1="7925.010352" y1="13475.553757" x2="9139.424267" y2="13220.726529" class="m" style="stroke-width:10.941321;" />
<line x1="9139.424267" y1="13220.726529" x2="8347.259682" y2="12260.454153" class="m" style="stroke-width:13.221919;" />
<line x1="9139.424267" y1="13220.726529" x2="9411.851305" y2="11699.464575" class="m" style="stroke-width:9.015482;" />
<line x1="9411.851305" y1="11699.464575" x2="8347.259682" y2="12260.454153" class="m" style="stroke-width:17.890209;" />
<line x1="9139.424267" y1="13220.726529" x2="9879.959629" y2="13012.113591" class="m" style="stroke-width:12.758141;" />
<line x1="9879.959629" y1="13012.113591" x2="9411.851305" y2="11699.464575" class="m" style="stroke-width:9.993995;" />
<line x1="10330.697393" y1="12029.592778" x2="9411.851305" y2="11699.464575" class="m" style="stroke-width:15.254570;" />
<line x1="10217.840154" y1="10962.597595" x2="9411.851305" y2="11699.464575" class="m" style="stroke-width:13.786031;" />
<line x1="9204.508610" y1="11415.949028" x2="9406.424487" y2="10342.719812" class="m" style="stroke-width:13.786031;" />
<line x1="3309.513906" y1="16930.623822" x2="3858.234147" y2="15150.412044" class="m" style="stroke-width:5.660804;" />
<line x1="3858.234147" y1="15150.412044" x2="2755.360739" y2="15829.698881" class="m" style="stroke-width:12.067434;" />
<line x1="2755.360739" y1="15829.698881" x2="3309.513906" y2="16930.623822" class="m" style="stroke-width:12.598877;" />
<line x1="3309.513906" y1="16930.623822" x2="4335.298317" y2="16443.931626" class="m" style="stroke-width:19.348305;" />
<line x1="4335.298317" y1="16443.931626" x2="3858.234147" y2="15150.412044" class="m" style="stroke-width:13.687885;" />
<line x1="2118.628111" y1="16461.343577" x2="3309.513906" y2="16930.623822" class="m" style="stroke-width:13.963438;" />
<line x1="2755.360739" y1="15829.698881" x2="2118.628111" y2="16461.343577" class="m" style="stroke-width:13.671992;" />
<line x1="4335.298317" y1="16443.931626" x2="5068.061690" y2="15259.778296" class="m" style="stroke-width:14.629156;" />
<line x1="5258.871123" y1="15395.259227" x2="4854.444566" y2="16727.775805" class="m" style="stroke-width:14.629156;" />
<line x1="4854.444566" y1="16727.775805" x2="5711.164388" y2="17050.611527" class="m" style="stroke-width:18.594255;" />
<line x1="4854.444566" y1="16727.775805" x2="4183.232172" y2="17643.514236" class="m" style="stroke-width:19.348305;" />
<line x1="4183.232172" y1="17643.514236" x2="5711.164388" y2="17050.611527" class="m" style="stroke-width:6.377158;" />
<line x1="4183.232172" y1="17643.514236" x2="4938.994938" y2="18595.561583" class="m" style="stroke-width:18.022874;" />
<line x1="4938.994938" y1="18595.561583" x2="5711.164388" y2="17050.611527" class="v" style="stroke-width:5.937120;" />
<line x1="4938.994938" y1="18595.561583" x2="5693.813704" y2="18059.917516" class="m" style="stroke-width:28.581059;" />
<line x1="5693.813704" y1="18059.917516" x2="5711.164388" y2="17050.611527" class="m" style="stroke-width:14.615774;" />
<line x1="4183.232172" y1="17643.514236" x2="3775.425368" y2="18879.845096" class="m" style="stroke-width:8.901746;" />
<line x1="3775.425368" y1="18879.845096" x2="4938.994938" y2="18595.561583" class="m" style="stroke-width:13.984749;" />
<line x1="2147.340641" y1="17517.287002" x2="3309.513906" y2="16930.623822" class="m" style="stroke-width:8.901746;" />
<line x1="2118.628111" y1="16461.343577" x2="2147.340641" y2="17517.287002" class="m" style="stroke-width:9.648225;" />
<line x1="2118.628111" y1="16461.343577" x2="1186.173948" y2="17030.880964" class="m" style="stroke-width:11.926054;" />
<line x1="4938.994938" y1="18595.561583" x2="4954.327446" y2="19101.060240" class="m" style="stroke-width:23.463415;" />
<line x1="4745.944940" y1="19062.996793" x2="4938.994938" y2="18595.561583" class="m" style="stroke-width:23.463415;" />
<line x1="9037.707720" y1="16300.082938" x2="10597.870652" y2="16648.846226" class="m" style="stroke-width:12.820588;" />
<line x1="10597.870652" y1="16648.846226" x2="9966.154648" y2="15392.240546" class="m" style="stroke-width:12.563548;" />
<line x1="9966.154648" y1="15392.240546" x2="9037.707720" y2="16300.082938" class="m" style="stroke-width:13.285659;" />
<line x1="9966.154648" y1="15392.240546" x2="8501.197346" y2="15096.000243" class="m" style="stroke-width:8.257416;" />
<line x1="8501.197346" y1="15096.000243" x2="9037.707720" y2="16300.082938" class="m" style="stroke-width:15.079948;" />
<line x1="9794.043850" y1="17525.570936" x2="10597.870652" y2="16648.846226" class="m" style="stroke-width:18.635588;" />
<line x1="9037.707720" y1="16300.082938" x2="9794.043850" y2="17525.570936" class="m" style="stroke-width:11.323377;" />
<line x1="9995.683835" y1="15076.807886" x2="11044.704446" y2="16013.652965" class="m" style="stroke-width:12.563548;" />
<line x1="11044.704446" y1="16013.652965" x2="10809.975397" y2="14465.477051" class="m" style="stroke-width:13.416423;" />
<line x1="10809.975397" y1="14465.477051" x2="9995.683835" y2="15076.807886" class="m" style="stroke-width:13.824830;" />
<line x1="7736.840780" y1="16311.981043" x2="9037.707720" y2="16300.082938" class="m" style="stroke-width:14.420302;" />
<line x1="7736.840780" y1="16311.981043" x2="8333.706439" y2="17515.659875" class="m" style="stroke-width:8.909033;" />
<line x1="8333.706439" y1="17515.659875" x2="9037.707720" y2="16300.082938" class="m" style="stroke-width:11.337695;" />
<line x1="8333.706439" y1="17515.659875" x2="9394.764960" y2="17695.208488" class="m" style="stroke-width:14.839115;" />
<line x1="9394.764960" y1="17695.208488" x2="9037.707720" y2="16300.082938" class="m" style="stroke-width:11.323377;" />
<line x1="8333.706439" y1="17515.659875" x2="9467.923875" y2="18479.343160" class="v" style="stroke-width:7.117638;" />
<line x1="9467.923875" y1="18479.343160" x2="9394.764960" y2="17695.208488" class="m" style="stroke-width:18.734503;" />
<line x1="9794.043850" y1="17525.570936" x2="10209.363493" y2="18194.696488" class="m" style="stroke-width:18.734503;" />
<line x1="11152.227629" y1="16954.603047" x2="9794.043850" y2="17525.570936" class="v" style="stroke-width:8.408274;" />
<line x1="11152.227629" y1="16954.603047" x2="10597.870652" y2="16648.846226" class="m" style="stroke-width:22.196641;" />
<line x1="11661.378268" y1="15870.431844" x2="10809.975397" y2="14465.477051" class="v" style="stroke-width:6.298621;" />
<line x1="11044.704446" y1="16013.652965" x2="11661.378268" y2="15870.431844" class="m" style="stroke-width:22.196641;" />
<line x1="9547.751542" y1="14413.555342" x2="9995.683835" y2="15076.807886" class="m" style="stroke-width:14.239716;" />
<line x1="10809.975397" y1="14465.477051" x2="9547.751542" y2="14413.555342" class="v" style="stroke-width:6.528308;" />
<line x1="8501.197346" y1="15096.000243" x2="9995.683835" y2="15076.807886" class="m" style="stroke-width:8.257416;" />
<text x="6253.559627" y="8847.744602" transform="rotate(-130.828893 6253.559627 8847.744602)" fill="darkgreen" font-weight="bold" font-size="350.360000">0</text>
<text x="6461.438692" y="8640.609722" transform="rotate(69.662653 6461.438692 8640.609722)" fill="darkgreen" font-weight="bold" font-size="350.360000">0</text>
<text x="8504.348096" y="8056.003521" transform="rotate(48.577114 8504.348096 8056.003521)" fill="darkgreen" font-weight="bold" font-size="350.360000">2</text>
<text x="7127.185340" y="8313.144864" transform="rotate(-179.217717 7127.185340 8313.144864)" fill="darkgreen" font-weight="bold" font-size="350.360000">2</text>
<text x="8057.616798" y="8665.648524" transform="rotate(-129.118870 8057.616798 8665.648524)" fill="darkgreen" font-weight="bold" font-size="350.360000">4</text>
<text x="9048.182241" y="8951.347246" transform="rotate(86.142555 9048.182241 8951.347246)" fill="darkgreen" font-weight="bold" font-size="350.360000">4</text>
<text x="4359.582602" y="8965.012735" transform="rotate(-150.775269 4359.582602 8965.012735)" fill="darkgreen" font-weight="bold" font-size="350.360000">5</text>
<text x="4635.947828" y="8613.423069" transform="rotate(52.273448 4635.947828 8613.423069)" fill="darkgreen" font-weight="bold" font-size="350.360000">5</text>
<text x="2958.263465" y="9814.844493" transform="rotate(-122.776533 2958.263465 9814.844493)" fill="darkgreen" font-weight="bold" font-size="350.360000">9</text>
<text x="3862.573221" y="9056.080948" transform="rotate(91.706548 3862.573221 9056.080948)" fill="darkgreen" font-weight="bold" font-size="350.360000">9</text>
<text x="2793.492172" y="7074.227524" transform="rotate(16.397388 2793.492172 7074.227524)" fill="darkgreen" font-weight="bold" font-size="350.360000">13</text>
<text x="1011.488195" y="10876.326052" transform="rotate(92.296709 1011.488195 10876.326052)" fill="darkgreen" font-weight="bold" font-size="350.360000">13</text>
<text x="1654.208587" y="10815.508628" transform="rotate(-164.347565 1654.208587 10815.508628)" fill="darkgreen" font-weight="bold" font-size="350.360000">15</text>
<text x="1633.365673" y="10315.699778" transform="rotate(37.052260 1633.365673 10315.699778)" fill="darkgreen" font-weight="bold" font-size="350.360000">15</text>
<text x="2133.619107" y="9675.853784" transform="rotate(152.760669 2133.619107 9675.853784)" fill="darkgreen" font-weight="bold" font-size="350.360000">16</text>
<text x="3735.635834" y="7654.285764" transform="rotate(44.288394 3735.635834 7654.285764)" fill="darkgreen" font-weight="bold" font-size="350.360000">16</text>
<text x="215.583188" y="15517.415791" transform="rotate(40.360810 215.583188 15517.415791)" fill="darkgreen" font-weight="bold" font-size="350.360000">17</text>
<text x="2384.077812" y="5982.700881" transform="rotate(9.979941 2384.077812 5982.700881)" fill="darkgreen" font-weight="bold" font-size="350.360000">17</text>
<text x="463.040802" y="14726.812407" transform="rotate(127.320274 463.040802 14726.812407)" fill="darkgreen" font-weight="bold" font-size="350.360000">19</text>
<text x="2849.466923" y="6298.213917" transform="rotate(111.885731 2849.466923 6298.213917)" fill="darkgreen" font-weight="bold" font-size="350.360000">19</text>
<text x="2570.374192" y="5073.549617" transform="rotate(118.393545 2570.374192 5073.549617)" fill="darkgreen" font-weight="bold" font-size="350.360000">22</text>
<text x="953.079039" y="17688.228179" transform="rotate(109.524468 953.079039 17688.228179)" fill="darkgreen" font-weight="bold" font-size="350.360000">22</text>
<text x="896.794267" y="18470.436281" transform="rotate(-27.250211 896.794267 18470.436281)" fill="darkgreen" font-weight="bold" font-size="350.360000">23</text>
<text x="2319.052937" y="4502.722695" transform="rotate(-4.191346 2319.052937 4502.722695)" fill="darkgreen" font-weight="bold" font-size="350.360000">23</text>
<text x="2540.481139" y="3921.728567" transform="rotate(131.026274 2540.481139 3921.728567)" fill="darkgreen" font-weight="bold" font-size="350.360000">26</text>
<text x="4730.028872" y="20424.853880" transform="rotate(31.688197 4730.028872 20424.853880)" fill="darkgreen" font-weight="bold" font-size="350.360000">26</text>
<text x="11454.766627" y="19137.196798" transform="rotate(-67.946126 11454.766627 19137.196798)" fill="darkgreen" font-weight="bold" font-size="350.360000">29</text>
<text x="3538.924261" y="2899.631867" transform="rotate(136.211751 3538.924261 2899.631867)" fill="darkgreen" font-weight="bold" font-size="350.360000">29</text>
<text x="14670.609241" y="12049.368342" transform="rotate(35.067949 14670.609241 12049.368342)" fill="darkgreen" font-weight="bold" font-size="350.360000">32</text>
<text x="4088.146891" y="3263.619836" transform="rotate(-33.522707 4088.146891 3263.619836)" fill="darkgreen" font-weight="bold" font-size="350.360000">32</text>
<text x="13898.544090" y="12170.198686" transform="rotate(-18.769990 13898.544090 12170.198686)" fill="darkgreen" font-weight="bold" font-size="350.360000">34</text>
<text x="4747.495283" y="2750.973705" transform="rotate(-42.815074 4747.495283 2750.973705)" fill="darkgreen" font-weight="bold" font-size="350.360000">34</text>
<text x="5591.090064" y="2054.600631" transform="rotate(-34.352925 5591.090064 2054.600631)" fill="darkgreen" font-weight="bold" font-size="350.360000">36</text>
<text x="12825.791531" y="12229.722252" transform="rotate(5.411539 12825.791531 12229.722252)" fill="darkgreen" font-weight="bold" font-size="350.360000">36</text>
<text x="10394.317126" y="9469.307956" transform="rotate(-61.100472 10394.317126 9469.307956)" fill="darkgreen" font-weight="bold" font-size="350.360000">41</text>
<text x="11822.700616" y="10907.614525" transform="rotate(169.045184 11822.700616 10907.614525)" fill="darkgreen" font-weight="bold" font-size="350.360000">41</text>
<text x="7998.886493" y="9646.968689" transform="rotate(-71.500555 7998.886493 9646.968689)" fill="darkgreen" font-weight="bold" font-size="350.360000">46</text>
<text x="8733.013913" y="9764.540856" transform="rotate(132.894071 8733.013913 9764.540856)" fill="darkgreen" font-weight="bold" font-size="350.360000">46</text>
<text x="4967.795652" y="9580.220306" transform="rotate(79.974822 4967.795652 9580.220306)" fill="darkgreen" font-weight="bold" font-size="350.360000">47</text>
<text x="4953.635580" y="9872.008522" transform="rotate(-108.118602 4953.635580 9872.008522)" fill="darkgreen" font-weight="bold" font-size="350.360000">47</text>
<text x="5285.702781" y="9464.864250" transform="rotate(53.062090 5285.702781 9464.864250)" fill="darkgreen" font-weight="bold" font-size="350.360000">49</text>
<text x="5419.140826" y="9717.712238" transform="rotate(-131.993700 5419.140826 9717.712238)" fill="darkgreen" font-weight="bold" font-size="350.360000">49</text>
<text x="1251.033876" y="11628.714366" transform="rotate(41.963004 1251.033876 11628.714366)" fill="darkgreen" font-weight="bold" font-size="350.360000">52</text>
<text x="1411.519431" y="14270.498689" transform="rotate(174.937232 1411.519431 14270.498689)" fill="darkgreen" font-weight="bold" font-size="350.360000">52</text>
<text x="986.178116" y="14680.775815" transform="rotate(60.262357 986.178116 14680.775815)" fill="darkgreen" font-weight="bold" font-size="350.360000">54</text>
<text x="1114.997533" y="14930.183330" transform="rotate(-121.401428 1114.997533 14930.183330)" fill="darkgreen" font-weight="bold" font-size="350.360000">54</text>
<text x="5583.007219" y="20650.308291" transform="rotate(-48.429158 5583.007219 20650.308291)" fill="darkgreen" font-weight="bold" font-size="350.360000">56</text>
<text x="10784.507237" y="19399.014953" transform="rotate(36.658440 10784.507237 19399.014953)" fill="darkgreen" font-weight="bold" font-size="350.360000">56</text>
<text x="12088.041071" y="13644.406816" transform="rotate(-154.028609 12088.041071 13644.406816)" fill="darkgreen" font-weight="bold" font-size="350.360000">60</text>
<text x="11726.496370" y="12277.455800" transform="rotate(-7.395563 11726.496370 12277.455800)" fill="darkgreen" font-weight="bold" font-size="350.360000">60</text>
<text x="10909.948944" y="10988.886414" transform="rotate(-177.824733 10909.948944 10988.886414)" fill="darkgreen" font-weight="bold" font-size="350.360000">62</text>
<text x="9733.640361" y="10091.846422" transform="rotate(-37.477047 9733.640361 10091.846422)" fill="darkgreen" font-weight="bold" font-size="350.360000">62</text>
<text x="2536.374205" y="11029.701264" transform="rotate(40.038125 2536.374205 11029.701264)" fill="darkgreen" font-weight="bold" font-size="350.360000">64</text>
<text x="2696.176967" y="11290.010813" transform="rotate(-151.225931 2696.176967 11290.010813)" fill="darkgreen" font-weight="bold" font-size="350.360000">64</text>
<text x="1679.680878" y="17955.910409" transform="rotate(-43.164929 1679.680878 17955.910409)" fill="darkgreen" font-weight="bold" font-size="350.360000">66</text>
<text x="3787.352949" y="19240.527730" transform="rotate(88.105945 3787.352949 19240.527730)" fill="darkgreen" font-weight="bold" font-size="350.360000">66</text>
<text x="4171.670886" y="19564.336693" transform="rotate(-41.120881 4171.670886 19564.336693)" fill="darkgreen" font-weight="bold" font-size="350.360000">69</text>
<text x="4696.258312" y="19508.191118" transform="rotate(122.369486 4696.258312 19508.191118)" fill="darkgreen" font-weight="bold" font-size="350.360000">69</text>
<text x="8645.963306" y="19443.337754" transform="rotate(-62.276958 8645.963306 19443.337754)" fill="darkgreen" font-weight="bold" font-size="350.360000">71</text>
<text x="10346.392749" y="18586.913520" transform="rotate(70.742062 10346.392749 18586.913520)" fill="darkgreen" font-weight="bold" font-size="350.360000">71</text>
<text x="11535.311053" y="17750.053227" transform="rotate(-115.715145 11535.311053 17750.053227)" fill="darkgreen" font-weight="bold" font-size="350.360000">73</text>
<text x="4191.963099" y="1602.830319" transform="rotate(102.947629 4191.963099 1602.830319)" fill="darkgreen" font-weight="bold" font-size="350.360000">73</text>
<text x="10946.784400" y="12268.630169" transform="rotate(-158.794091 10946.784400 12268.630169)" fill="darkgreen" font-weight="bold" font-size="350.360000">76</text>
<text x="10695.157270" y="12139.066717" transform="rotate(16.718853 10695.157270 12139.066717)" fill="darkgreen" font-weight="bold" font-size="350.360000">76</text>
<text x="6648.329714" y="9705.898631" transform="rotate(88.768397 6648.329714 9705.898631)" fill="darkgreen" font-weight="bold" font-size="350.360000">78</text>
<text x="6595.214871" y="9990.344275" transform="rotate(-96.936084 6595.214871 9990.344275)" fill="darkgreen" font-weight="bold" font-size="350.360000">78</text>
<text x="1772.000232" y="16673.061798" transform="rotate(148.583658 1772.000232 16673.061798)" fill="darkgreen" font-weight="bold" font-size="350.360000">85</text>
<text x="1050.792200" y="15872.271922" transform="rotate(-1.393789 1050.792200 15872.271922)" fill="darkgreen" font-weight="bold" font-size="350.360000">85</text>
<text x="2536.487911" y="16046.822764" transform="rotate(135.229826 2536.487911 16046.822764)" fill="darkgreen" font-weight="bold" font-size="350.360000">86</text>
<text x="2017.101086" y="15726.660527" transform="rotate(-24.717634 2017.101086 15726.660527)" fill="darkgreen" font-weight="bold" font-size="350.360000">86</text>
<text x="5920.288957" y="19818.823704" transform="rotate(-92.851402 5920.288957 19818.823704)" fill="darkgreen" font-weight="bold" font-size="350.360000">88</text>
<text x="7993.585272" y="19272.099869" transform="rotate(49.577148 7993.585272 19272.099869)" fill="darkgreen" font-weight="bold" font-size="350.360000">88</text>
<text x="11308.308412" y="15287.808502" transform="rotate(-121.215864 11308.308412 15287.808502)" fill="darkgreen" font-weight="bold" font-size="350.360000">90</text>
<text x="5082.787862" y="421.140253" transform="rotate(141.816420 5082.787862 421.140253)" fill="darkgreen" font-weight="bold" font-size="350.360000">90</text>
<text x="5940.242998" y="961.253693" transform="rotate(-108.517922 5940.242998 961.253693)" fill="darkgreen" font-weight="bold" font-size="350.360000">91</text>
<text x="11498.698454" y="14172.670614" transform="rotate(-20.336868 11498.698454 14172.670614)" fill="darkgreen" font-weight="bold" font-size="350.360000">91</text>
<text x="7975.680148" y="10708.436767" transform="rotate(121.106097 7975.680148 10708.436767)" fill="darkgreen" font-weight="bold" font-size="350.360000">96</text>
<text x="7630.959565" y="10805.895384" transform="rotate(-73.020122 7630.959565 10805.895384)" fill="darkgreen" font-weight="bold" font-size="350.360000">96</text>
<text x="2194.968394" y="12291.772430" transform="rotate(26.944787 2194.968394 12291.772430)" fill="darkgreen" font-weight="bold" font-size="350.360000">97</text>
<text x="2555.098823" y="14067.099163" transform="rotate(167.754977 2555.098823 14067.099163)" fill="darkgreen" font-weight="bold" font-size="350.360000">97</text>
<text x="10912.481676" y="13354.588704" transform="rotate(179.095810 10912.481676 13354.588704)" fill="darkgreen" font-weight="bold" font-size="350.360000">101</text>
<text x="10397.373792" y="12791.611783" transform="rotate(-23.081817 10397.373792 12791.611783)" fill="darkgreen" font-weight="bold" font-size="350.360000">101</text>
<text x="2966.976961" y="15342.931973" transform="rotate(-18.336497 2966.976961 15342.931973)" fill="darkgreen" font-weight="bold" font-size="350.360000">105</text>
<text x="3485.786495" y="15379.811706" transform="rotate(148.370055 3485.786495 15379.811706)" fill="darkgreen" font-weight="bold" font-size="350.360000">105</text>
<text x="5827.050046" y="18792.617294" transform="rotate(-100.306219 5827.050046 18792.617294)" fill="darkgreen" font-weight="bold" font-size="350.360000">107</text>
<text x="7211.000938" y="18399.339716" transform="rotate(47.280179 7211.000938 18399.339716)" fill="darkgreen" font-weight="bold" font-size="350.360000">107</text>
<text x="8670.197646" y="18385.360269" transform="rotate(-124.109736 8670.197646 18385.360269)" fill="darkgreen" font-weight="bold" font-size="350.360000">109</text>
<text x="8740.615339" y="17861.388386" transform="rotate(40.352756 8740.615339 17861.388386)" fill="darkgreen" font-weight="bold" font-size="350.360000">109</text>
<text x="6994.996117" y="11818.163746" transform="rotate(-49.692578 6994.996117 11818.163746)" fill="darkgreen" font-weight="bold" font-size="350.360000">114</text>
<text x="7337.557101" y="11565.388103" transform="rotate(137.417202 7337.557101 11565.388103)" fill="darkgreen" font-weight="bold" font-size="350.360000">114</text>
<text x="3423.672622" y="12722.632293" transform="rotate(7.052458 3423.672622 12722.632293)" fill="darkgreen" font-weight="bold" font-size="350.360000">116</text>
<text x="3911.588216" y="13550.453295" transform="rotate(154.218784 3911.588216 13550.453295)" fill="darkgreen" font-weight="bold" font-size="350.360000">116</text>
<text x="10388.901842" y="14448.156147" transform="rotate(-177.644450 10388.901842 14448.156147)" fill="darkgreen" font-weight="bold" font-size="350.360000">119</text>
<text x="9969.155246" y="14418.231966" transform="rotate(0.635827 9969.155246 14418.231966)" fill="darkgreen" font-weight="bold" font-size="350.360000">119</text>
<text x="4209.976781" y="14674.894223" transform="rotate(-42.884646 4209.976781 14674.894223)" fill="darkgreen" font-weight="bold" font-size="350.360000">120</text>
<text x="4546.345475" y="14417.235710" transform="rotate(133.183914 4546.345475 14417.235710)" fill="darkgreen" font-weight="bold" font-size="350.360000">120</text>
<text x="6639.212475" y="17538.690285" transform="rotate(60.524382 6639.212475 17538.690285)" fill="darkgreen" font-weight="bold" font-size="350.360000">123</text>
<text x="5698.875818" y="17765.449467" transform="rotate(-89.015137 5698.875818 17765.449467)" fill="darkgreen" font-weight="bold" font-size="350.360000">123</text>
<text x="9307.351362" y="13173.420530" transform="rotate(-15.732823 9307.351362 13173.420530)" fill="darkgreen" font-weight="bold" font-size="350.360000">124</text>
<text x="9755.285389" y="13367.724720" transform="rotate(-179.220330 9755.285389 13367.724720)" fill="darkgreen" font-weight="bold" font-size="350.360000">124</text>
<text x="6477.543822" y="13052.805757" transform="rotate(-177.527266 6477.543822 13052.805757)" fill="darkgreen" font-weight="bold" font-size="350.360000">127</text>
<text x="6069.487813" y="12919.946658" transform="rotate(9.455099 6069.487813 12919.946658)" fill="darkgreen" font-weight="bold" font-size="350.360000">127</text>
<text x="7941.885245" y="16725.487297" transform="rotate(63.624661 7941.885245 16725.487297)" fill="darkgreen" font-weight="bold" font-size="350.360000">132</text>
<text x="7998.217740" y="17154.345950" transform="rotate(-107.238560 7998.217740 17154.345950)" fill="darkgreen" font-weight="bold" font-size="350.360000">132</text>
<text x="8752.024509" y="13397.952988" transform="rotate(174.639482 8752.024509 13397.952988)" fill="darkgreen" font-weight="bold" font-size="350.360000">135</text>
<text x="8326.481885" y="13391.310752" transform="rotate(-11.850755 8326.481885 13391.310752)" fill="darkgreen" font-weight="bold" font-size="350.360000">135</text>
<text x="5775.435083" y="14539.764932" transform="rotate(121.124383 5775.435083 14539.764932)" fill="darkgreen" font-weight="bold" font-size="350.360000">141</text>
<text x="5437.295444" y="14813.888909" transform="rotate(-50.372394 5437.295444 14813.888909)" fill="darkgreen" font-weight="bold" font-size="350.360000">141</text>
<text x="5890.336532" y="16490.549343" transform="rotate(-72.259756 5890.336532 16490.549343)" fill="darkgreen" font-weight="bold" font-size="350.360000">143</text>
<text x="6438.148105" y="16275.407056" transform="rotate(86.808217 6438.148105 16275.407056)" fill="darkgreen" font-weight="bold" font-size="350.360000">143</text>
<text x="6864.797373" y="14943.237543" transform="rotate(121.657246 6864.797373 14943.237543)" fill="darkgreen" font-weight="bold" font-size="350.360000">152</text>
<text x="6507.403813" y="15196.977741" transform="rotate(-47.074071 6507.403813 15196.977741)" fill="darkgreen" font-weight="bold" font-size="350.360000">152</text>
<text x="9526.477717" y="8546.002594" transform="rotate(-127.366708 9526.477717 8546.002594)" fill="darkgreen" font-weight="bold" font-size="350.360000">157</text>
<text x="12160.649334" y="9270.515193" transform="rotate(115.068725 12160.649334 9270.515193)" fill="darkgreen" font-weight="bold" font-size="350.360000">157</text>
<text x="5926.070343" y="8468.731277" transform="rotate(-149.451895 5926.070343 8468.731277)" fill="darkgreen" font-weight="bold" font-size="350.360000">158</text>
<text x="8208.474127" y="7221.634269" transform="rotate(111.286085 8208.474127 7221.634269)" fill="darkgreen" font-weight="bold" font-size="350.360000">158</text>
<text x="12932.494367" y="11454.704070" transform="rotate(-61.053726 12932.494367 11454.704070)" fill="darkgreen" font-weight="bold" font-size="350.360000">176</text>
<text x="13113.211779" y="11209.969863" transform="rotate(126.443013 13113.211779 11209.969863)" fill="darkgreen" font-weight="bold" font-size="350.360000">176</text>
<text x="11946.932419" y="10133.974949" transform="rotate(82.098200 11946.932419 10133.974949)" fill="darkgreen" font-weight="bold" font-size="350.360000">177</text>
<text x="10340.026001" y="8924.116516" transform="rotate(-161.835496 10340.026001 8924.116516)" fill="darkgreen" font-weight="bold" font-size="350.360000">177</text>
<text x="5756.337359" y="8101.105973" transform="rotate(-49.963026 5756.337359 8101.105973)" fill="darkgreen" font-weight="bold" font-size="350.360000">183</text>
<text x="8855.122638" y="7124.128912" transform="rotate(171.425203 8855.122638 7124.128912)" fill="darkgreen" font-weight="bold" font-size="350.360000">183</text>
<text x="2988.000620" y="6086.969951" transform="rotate(7.706773 2988.000620 6086.969951)" fill="darkgreen" font-weight="bold" font-size="350.360000">187</text>
<text x="3413.324453" y="6121.299796" transform="rotate(-144.692672 3413.324453 6121.299796)" fill="darkgreen" font-weight="bold" font-size="350.360000">187</text>
<text x="4721.001444" y="7346.561708" transform="rotate(-86.571043 4721.001444 7346.561708)" fill="darkgreen" font-weight="bold" font-size="350.360000">190</text>
<text x="4442.271282" y="6955.113555" transform="rotate(75.955570 4442.271282 6955.113555)" fill="darkgreen" font-weight="bold" font-size="350.360000">190</text>
<text x="4591.936625" y="6291.065057" transform="rotate(-164.432917 4591.936625 6291.065057)" fill="darkgreen" font-weight="bold" font-size="350.360000">195</text>
<text x="4626.906605" y="6509.573160" transform="rotate(37.108337 4626.906605 6509.573160)" fill="darkgreen" font-weight="bold" font-size="350.360000">195</text>
<text x="5184.385814" y="6667.236908" transform="rotate(-72.992977 5184.385814 6667.236908)" fill="darkgreen" font-weight="bold" font-size="350.360000">197</text>
<text x="4214.727195" y="5749.442327" transform="rotate(82.353714 4214.727195 5749.442327)" fill="darkgreen" font-weight="bold" font-size="350.360000">197</text>
<text x="17263.279955" y="9220.043876" transform="rotate(-138.358159 17263.279955 9220.043876)" fill="darkgreen" font-weight="bold" font-size="350.360000">198</text>
<text x="5058.000300" y="5917.680261" transform="rotate(-157.098187 5058.000300 5917.680261)" fill="darkgreen" font-weight="bold" font-size="350.360000">198</text>
<text x="3954.346295" y="6923.078020" transform="rotate(-45.874761 3954.346295 6923.078020)" fill="darkgreen" font-weight="bold" font-size="350.360000">199</text>
<text x="3917.235873" y="6435.920014" transform="rotate(104.546900 3917.235873 6435.920014)" fill="darkgreen" font-weight="bold" font-size="350.360000">199</text>
<text x="4907.464157" y="6315.777316" transform="rotate(-132.498123 4907.464157 6315.777316)" fill="darkgreen" font-weight="bold" font-size="350.360000">201</text>
<text x="4916.995185" y="5814.622614" transform="rotate(66.352749 4916.995185 5814.622614)" fill="darkgreen" font-weight="bold" font-size="350.360000">201</text>
<text x="9910.737998" y="7039.507126" transform="rotate(-104.072489 9910.737998 7039.507126)" fill="darkgreen" font-weight="bold" font-size="350.360000">204</text>
<text x="13944.318132" y="8888.876726" transform="rotate(142.685204 13944.318132 8888.876726)" fill="darkgreen" font-weight="bold" font-size="350.360000">204</text>
<text x="6168.884510" y="7244.826426" transform="rotate(-91.310128 6168.884510 7244.826426)" fill="darkgreen" font-weight="bold" font-size="350.360000">206</text>
<text x="9494.735135" y="6429.521298" transform="rotate(121.775528 9494.735135 6429.521298)" fill="darkgreen" font-weight="bold" font-size="350.360000">206</text>
<text x="4409.856515" y="5182.087195" transform="rotate(-82.973562 4409.856515 5182.087195)" fill="darkgreen" font-weight="bold" font-size="350.360000">209</text>
<text x="16971.813374" y="10114.340006" transform="rotate(-50.651090 16971.813374 10114.340006)" fill="darkgreen" font-weight="bold" font-size="350.360000">209</text>
<text x="4190.428663" y="5172.284269" transform="rotate(-9.138805 4190.428663 5172.284269)" fill="darkgreen" font-weight="bold" font-size="350.360000">210</text>
<text x="4374.356547" y="4415.687329" transform="rotate(147.512434 4374.356547 4415.687329)" fill="darkgreen" font-weight="bold" font-size="350.360000">210</text>
<text x="15984.480236" y="11199.087536" transform="rotate(-38.292551 15984.480236 11199.087536)" fill="darkgreen" font-weight="bold" font-size="350.360000">212</text>
<text x="4649.503065" y="4709.806607" transform="rotate(-108.161201 4649.503065 4709.806607)" fill="darkgreen" font-weight="bold" font-size="350.360000">212</text>
<text x="14252.494769" y="11635.516912" transform="rotate(-9.961968 14252.494769 11635.516912)" fill="darkgreen" font-weight="bold" font-size="350.360000">215</text>
<text x="14715.910341" y="10757.338605" transform="rotate(137.856134 14715.910341 10757.338605)" fill="darkgreen" font-weight="bold" font-size="350.360000">215</text>
<text x="14119.417353" y="10796.847779" transform="rotate(22.290700 14119.417353 10796.847779)" fill="darkgreen" font-weight="bold" font-size="350.360000">217</text>
<text x="14355.797723" y="11207.930016" transform="rotate(-139.806446 14355.797723 11207.930016)" fill="darkgreen" font-weight="bold" font-size="350.360000">217</text>
<text x="13204.153591" y="10402.456383" transform="rotate(-10.406916 13204.153591 10402.456383)" fill="darkgreen" font-weight="bold" font-size="350.360000">220</text>
<text x="13591.003004" y="9580.342974" transform="rotate(143.389084 13591.003004 9580.342974)" fill="darkgreen" font-weight="bold" font-size="350.360000">220</text>
<text x="3407.764690" y="5197.948913" transform="rotate(0.082589 3407.764690 5197.948913)" fill="darkgreen" font-weight="bold" font-size="350.360000">224</text>
<text x="3717.020426" y="4844.163074" transform="rotate(145.083209 3717.020426 4844.163074)" fill="darkgreen" font-weight="bold" font-size="350.360000">224</text>
<text x="15190.932183" y="12338.358275" transform="rotate(11.864966 15190.932183 12338.358275)" fill="darkgreen" font-weight="bold" font-size="350.360000">226</text>
<text x="4301.182171" y="3815.278429" transform="rotate(-127.379954 4301.182171 3815.278429)" fill="darkgreen" font-weight="bold" font-size="350.360000">226</text>
<text x="15605.993976" y="12348.713520" transform="rotate(-144.338423 15605.993976 12348.713520)" fill="darkgreen" font-weight="bold" font-size="350.360000">228</text>
<text x="15246.106912" y="11864.502139" transform="rotate(-44.413375 15246.106912 11864.502139)" fill="darkgreen" font-weight="bold" font-size="350.360000">228</text>
<text x="13920.455155" y="11461.062952" transform="rotate(-49.228972 13920.455155 11461.062952)" fill="darkgreen" font-weight="bold" font-size="350.360000">231</text>
<text x="14241.427771" y="11187.716365" transform="rotate(137.528578 14241.427771 11187.716365)" fill="darkgreen" font-weight="bold" font-size="350.360000">231</text>
<text x="13427.625007" y="11337.275398" transform="rotate(23.156385 13427.625007 11337.275398)" fill="darkgreen" font-weight="bold" font-size="350.360000">232</text>
<text x="13904.176170" y="11098.331548" transform="rotate(171.966215 13904.176170 11098.331548)" fill="darkgreen" font-weight="bold" font-size="350.360000">232</text>
<text x="12466.621126" y="10149.978148" transform="rotate(26.175135 12466.621126 10149.978148)" fill="darkgreen" font-weight="bold" font-size="350.360000">235</text>
<text x="12902.995968" y="9961.364971" transform="rotate(171.768342 12902.995968 9961.364971)" fill="darkgreen" font-weight="bold" font-size="350.360000">235</text>
<text x="9416.626408" y="7910.702557" transform="rotate(-30.575222 9416.626408 7910.702557)" fill="darkgreen" font-weight="bold" font-size="350.360000">237</text>
<text x="12914.902458" y="9353.859495" transform="rotate(-159.499725 12914.902458 9353.859495)" fill="darkgreen" font-weight="bold" font-size="350.360000">237</text>
<text x="5565.183958" y="5979.245005" transform="rotate(-140.115252 5565.183958 5979.245005)" fill="darkgreen" font-weight="bold" font-size="350.360000">240</text>
<text x="15541.829558" y="8596.944677" transform="rotate(-178.868473 15541.829558 8596.944677)" fill="darkgreen" font-weight="bold" font-size="350.360000">240</text>
<text x="14377.994427" y="10143.707589" transform="rotate(-14.354756 14377.994427 10143.707589)" fill="darkgreen" font-weight="bold" font-size="350.360000">241</text>
<text x="14759.480803" y="9538.467488" transform="rotate(-176.852353 14759.480803 9538.467488)" fill="darkgreen" font-weight="bold" font-size="350.360000">241</text>
<text x="15648.549218" y="10886.022324" transform="rotate(-22.393208 15648.549218 10886.022324)" fill="darkgreen" font-weight="bold" font-size="350.360000">243</text>
<text x="15911.894608" y="10697.011432" transform="rotate(-179.935278 15911.894608 10697.011432)" fill="darkgreen" font-weight="bold" font-size="350.360000">243</text>
<text x="16210.506666" y="9028.169318" transform="rotate(146.919420 16210.506666 9028.169318)" fill="darkgreen" font-weight="bold" font-size="350.360000">246</text>
<text x="15720.712958" y="9419.595344" transform="rotate(-54.099686 15720.712958 9419.595344)" fill="darkgreen" font-weight="bold" font-size="350.360000">246</text>
<text x="5152.739374" y="13115.416904" transform="rotate(164.714721 5152.739374 13115.416904)" fill="darkgreen" font-weight="bold" font-size="350.360000">251</text>
<text x="4737.074469" y="12835.542698" transform="rotate(-0.148730 4737.074469 12835.542698)" fill="darkgreen" font-weight="bold" font-size="350.360000">251</text>
<text x="4561.664036" y="11087.293518" transform="rotate(34.399808 4561.664036 11087.293518)" fill="darkgreen" font-weight="bold" font-size="350.360000">253</text>
<text x="4857.697878" y="11420.222057" transform="rotate(-158.262926 4857.697878 11420.222057)" fill="darkgreen" font-weight="bold" font-size="350.360000">253</text>
<text x="3951.891725" y="9980.730927" transform="rotate(76.100214 3951.891725 9980.730927)" fill="darkgreen" font-weight="bold" font-size="350.360000">256</text>
<text x="3723.129466" y="10758.631849" transform="rotate(-131.672124 3723.129466 10758.631849)" fill="darkgreen" font-weight="bold" font-size="350.360000">256</text>
<text x="8626.130037" y="11985.729465" transform="rotate(-44.570939 8626.130037 11985.729465)" fill="darkgreen" font-weight="bold" font-size="350.360000">260</text>
<text x="9065.530610" y="11881.959249" transform="rotate(152.212876 9065.530610 11881.959249)" fill="darkgreen" font-weight="bold" font-size="350.360000">260</text>
<text x="9266.598702" y="11085.925943" transform="rotate(-79.344996 9266.598702 11085.925943)" fill="darkgreen" font-weight="bold" font-size="350.360000">268</text>
<text x="9969.994752" y="11189.187694" transform="rotate(137.565200 9969.994752 11189.187694)" fill="darkgreen" font-weight="bold" font-size="350.360000">268</text>
<text x="4643.112843" y="17016.096733" transform="rotate(126.240437 4643.112843 17016.096733)" fill="darkgreen" font-weight="bold" font-size="350.360000">272</text>
<text x="3632.482893" y="16777.388421" transform="rotate(-25.382400 3632.482893 16777.388421)" fill="darkgreen" font-weight="bold" font-size="350.360000">272</text>
<text x="4591.062830" y="16030.613479" transform="rotate(-58.250450 4591.062830 16030.613479)" fill="darkgreen" font-weight="bold" font-size="350.360000">274</text>
<text x="5117.709644" y="15860.362242" transform="rotate(106.883344 5117.709644 15860.362242)" fill="darkgreen" font-weight="bold" font-size="350.360000">274</text>
<text x="2540.765935" y="17318.686551" transform="rotate(-26.784569 2540.765935 17318.686551)" fill="darkgreen" font-weight="bold" font-size="350.360000">280</text>
<text x="4045.179167" y="18062.043767" transform="rotate(108.255262 4045.179167 18062.043767)" fill="darkgreen" font-weight="bold" font-size="350.360000">280</text>
<text x="4762.225327" y="19023.576818" transform="rotate(-67.559449 4762.225327 19023.576818)" fill="darkgreen" font-weight="bold" font-size="350.360000">283</text>
<text x="4940.287967" y="18638.191544" transform="rotate(88.262664 4940.287967 18638.191544)" fill="darkgreen" font-weight="bold" font-size="350.360000">283</text>
<text x="10376.432000" y="16208.361790" transform="rotate(-116.689410 10376.432000 16208.361790)" fill="darkgreen" font-weight="bold" font-size="350.360000">284</text>
<text x="10363.402412" y="15405.204998" transform="rotate(41.766969 10363.402412 15405.204998)" fill="darkgreen" font-weight="bold" font-size="350.360000">284</text>
<text x="9038.241923" y="15089.103459" transform="rotate(-0.735758 9038.241923 15089.103459)" fill="darkgreen" font-weight="bold" font-size="350.360000">287</text>
<text x="9439.721401" y="15285.786424" transform="rotate(-168.567933 9439.721401 15285.786424)" fill="darkgreen" font-weight="bold" font-size="350.360000">287</text>
<text x="9305.470375" y="16733.937552" transform="rotate(58.318299 9305.470375 16733.937552)" fill="darkgreen" font-weight="bold" font-size="350.360000">289</text>
<text x="9268.357413" y="17201.297770" transform="rotate(-104.355673 9268.357413 17201.297770)" fill="darkgreen" font-weight="bold" font-size="350.360000">289</text>
<text x="9450.872534" y="18296.582822" transform="rotate(-95.330199 9450.872534 18296.582822)" fill="darkgreen" font-weight="bold" font-size="350.360000">296</text>
<text x="9890.843496" y="17681.525795" transform="rotate(58.172529 9890.843496 17681.525795)" fill="darkgreen" font-weight="bold" font-size="350.360000">296</text>
<text x="11059.122963" y="16903.250962" transform="rotate(-151.120962 11059.122963 16903.250962)" fill="darkgreen" font-weight="bold" font-size="350.360000">298</text>
<text x="11148.275273" y="15989.598871" transform="rotate(-13.075021 11148.275273 15989.598871)" fill="darkgreen" font-weight="bold" font-size="350.360000">298</text>
</svg>
