<?xml version="1.0"?>
<svg width="955" height="963" version="1.1" xmlns="http://www.w3.org/2000/svg" >
<defs>
<style type="text/css"><![CDATA[
.m {stroke:rgb(255,0,0);stroke-width:1.203750;}
.v {stroke:rgb(0,0,255);stroke-width:1.203750;}
.b {stroke:rgb(0,0,0);stroke-width:2.407500;fill:white}
.n {stroke:rgb(128,128,128);stroke-width:1.203750}
.t {stroke:rgb(0,128,0);stroke-width:1.203750;}
.c {stroke:rgb(128,128,128);stroke-width:1.203750;stroke-dasharray:9.550000, 9.550000;}
]]></style>
</defs>
<path fill="none" style="stroke:black;stroke-width:2.407500;" d=" M 531.815 405.04 L 810.393 453.972 M 488.46 469.925 L 743.064 593.119 M 743.064 593.119 L 531.815 405.04 M 429.025 520.493 L 640.274 708.572 M 640.274 708.572 L 488.46 469.925 M 509.848 791.542 L 429.025 520.493 M 358.034 552.895 L 298.599 603.463 M 298.599 603.463 L 255.244 668.348 M 255.244 668.348 L 231.27 742.61 M 231.27 742.61 L 228.502 820.597 M 228.502 820.597 L 247.149 896.372 M 247.149 896.372 L 285.794 964.168 M 285.794 964.168 L 509.848 791.542 M 955.946 211.455 L 884.136 180.911 M 810.393 453.972 L 955.946 211.455 M 884.136 180.911 L 806.712 171.153 M 806.712 171.153 L 729.569 182.923 M 729.569 182.923 L 658.578 215.325 M 658.578 215.325 L 599.143 265.893 M 599.143 265.893 L 555.788 330.778 M 280.89 564.665 L 358.034 552.895 M 203.467 554.906 L 280.89 564.665 M 131.657 524.362 L 203.467 554.906 M 70.9261 475.358 L 131.657 524.362 M 25.8981 411.623 L 70.9261 475.358 M 277.211 281.846 L 0 338.009 M 0 338.009 L 25.8981 411.623 M 377.05 17.2102 L 300.936 0 M 300.936 0 L 277.211 281.846 M 445.565 54.5648 L 377.05 17.2102 M 501.265 109.22 L 445.565 54.5648 M 539.909 177.016 L 501.265 109.22 M 558.557 252.791 L 539.909 177.016 M 555.788 330.778 L 558.557 252.791" />
<path fill="none" class="c" d=" M 531.815 405.04 L 277.211 281.846 M 555.788 330.778 L 277.211 281.846 M 488.46 469.925 L 531.815 405.04 M 277.211 281.846 L 488.46 469.925 M 429.025 520.493 L 488.46 469.925 M 277.211 281.846 L 429.025 520.493 M 358.034 552.895 L 429.025 520.493 M 277.211 281.846 L 358.034 552.895 M 277.211 281.846 L 280.89 564.665 M 277.211 281.846 L 203.467 554.906 M 277.211 281.846 L 131.657 524.362 M 277.211 281.846 L 70.9261 475.358 M 277.211 281.846 L 25.8981 411.623 M 558.557 252.791 L 277.211 281.846 M 531.815 405.04 L 555.788 330.778 M 358.034 552.895 L 509.848 791.542 M 298.599 603.463 L 509.848 791.542 M 255.244 668.348 L 509.848 791.542 M 231.27 742.61 L 509.848 791.542 M 228.502 820.597 L 509.848 791.542 M 247.149 896.372 L 509.848 791.542 M 539.909 177.016 L 277.211 281.846 M 810.393 453.972 L 555.788 330.778 M 810.393 453.972 L 599.143 265.893 M 501.265 109.22 L 277.211 281.846 M 810.393 453.972 L 658.578 215.325 M 445.565 54.5648 L 277.211 281.846 M 810.393 453.972 L 729.569 182.923 M 377.05 17.2102 L 277.211 281.846 M 810.393 453.972 L 806.712 171.153 M 810.393 453.972 L 884.136 180.911" />
<line x1="454.937863" y1="339.221339" x2="432.495035" y2="385.603672" class="t" />
<line x1="463.852003" y1="288.471640" x2="454.937863" y2="339.221339" class="t" />
<line x1="587.779538" y1="489.361371" x2="432.495035" y2="385.603672" class="t" />
<line x1="398.231813" y1="424.087968" x2="432.495035" y2="385.603672" class="t" />
<line x1="519.253075" y1="566.329984" x2="398.231813" y2="424.087968" class="t" />
<line x1="354.756435" y1="451.744666" x2="398.231813" y2="424.087968" class="t" />
<line x1="432.302248" y1="621.643408" x2="354.756435" y2="451.744666" class="t" />
<line x1="305.378238" y1="466.468603" x2="354.756435" y2="451.744666" class="t" />
<line x1="253.855889" y1="467.138991" x2="305.378238" y2="466.468603" class="t" />
<line x1="204.111293" y1="453.704733" x2="253.855889" y2="467.138991" class="t" />
<line x1="159.931069" y1="427.188527" x2="204.111293" y2="453.704733" class="t" />
<line x1="124.678255" y1="389.608839" x2="159.931069" y2="427.188527" class="t" />
<line x1="101.036211" y1="343.826145" x2="124.678255" y2="389.608839" class="t" />
<line x1="458.558932" y1="237.217521" x2="463.852003" y2="288.471640" class="t" />
<line x1="632.665215" y1="396.596631" x2="454.937863" y2="339.221339" class="t" />
<line x1="388.826846" y1="649.300054" x2="432.302248" y2="621.643408" class="t" />
<line x1="354.563610" y1="687.784240" x2="388.826846" y2="649.300054" class="t" />
<line x1="332.120726" y1="734.166575" x2="354.563610" y2="687.784240" class="t" />
<line x1="323.206520" y1="784.916337" x2="332.120726" y2="734.166575" class="t" />
<line x1="328.499531" y1="836.170390" x2="323.206520" y2="784.916337" class="t" />
<line x1="347.596867" y1="884.027397" x2="328.499531" y2="836.170390" class="t" />
<line x1="439.461525" y1="189.360558" x2="458.558932" y2="237.217521" class="t" />
<line x1="655.107961" y1="350.214339" x2="632.665215" y2="396.596631" class="t" />
<line x1="689.371068" y1="311.730045" x2="655.107961" y2="350.214339" class="t" />
<line x1="408.013486" y1="148.543632" x2="439.461525" y2="189.360558" class="t" />
<line x1="732.846387" y1="284.073284" x2="689.371068" y2="311.730045" class="t" />
<line x1="366.608648" y1="117.873655" x2="408.013486" y2="148.543632" class="t" />
<line x1="782.224567" y1="269.349291" x2="732.846387" y2="284.073284" class="t" />
<line x1="318.398805" y1="99.685391" x2="366.608648" y2="117.873655" class="t" />
<line x1="833.746976" y1="268.678792" x2="782.224567" y2="269.349291" class="t" />
<line x1="883.491583" y1="282.112926" x2="833.746976" y2="268.678792" class="t" />
</svg>
