<?xml version="1.0"?>
<svg width="955" height="963" version="1.1" xmlns="http://www.w3.org/2000/svg" >
<defs>
<style type="text/css"><![CDATA[
.m {stroke:rgb(255,0,0);stroke-width:1.203750;}
.v {stroke:rgb(0,0,255);stroke-width:1.203750;}
.b {stroke:rgb(0,0,0);stroke-width:2.407500;fill:white}
.n {stroke:rgb(128,128,128);stroke-width:1.203750}
.t {stroke:rgb(0,128,0);stroke-width:1.203750;}
.c {stroke:rgb(128,128,128);stroke-width:1.203750;stroke-dasharray:9.550000, 9.550000;}
]]></style>
</defs>
<path fill="none" style="stroke:black;stroke-width:2.407500;" d=" M 531.815 405.04 L 810.393 453.972 M 488.46 469.925 L 743.064 593.119 M 743.064 593.119 L 531.815 405.04 M 429.025 520.493 L 640.274 708.572 M 640.274 708.572 L 488.46 469.925 M 509.848 791.542 L 429.025 520.493 M 358.034 552.895 L 298.599 603.463 M 298.599 603.463 L 255.244 668.348 M 255.244 668.348 L 231.27 742.61 M 231.27 742.61 L 228.502 820.597 M 228.502 820.597 L 247.149 896.372 M 247.149 896.372 L 285.794 964.168 M 285.794 964.168 L 509.848 791.542 M 955.946 211.455 L 884.136 180.911 M 810.393 453.972 L 955.946 211.455 M 884.136 180.911 L 806.712 171.153 M 806.712 171.153 L 729.569 182.923 M 729.569 182.923 L 658.578 215.325 M 658.578 215.325 L 599.143 265.893 M 599.143 265.893 L 555.788 330.778 M 280.89 564.665 L 358.034 552.895 M 203.467 554.906 L 280.89 564.665 M 131.657 524.362 L 203.467 554.906 M 70.9261 475.358 L 131.657 524.362 M 25.8981 411.623 L 70.9261 475.358 M 277.211 281.846 L 0 338.009 M 0 338.009 L 25.8981 411.623 M 377.05 17.2102 L 300.936 0 M 300.936 0 L 277.211 281.846 M 445.565 54.5648 L 377.05 17.2102 M 501.265 109.22 L 445.565 54.5648 M 539.909 177.016 L 501.265 109.22 M 558.557 252.791 L 539.909 177.016 M 555.788 330.778 L 558.557 252.791" />
<path fill="none" class="c" d=" M 531.815 405.04 L 277.211 281.846 M 555.788 330.778 L 277.211 281.846 M 488.46 469.925 L 531.815 405.04 M 277.211 281.846 L 488.46 469.925 M 429.025 520.493 L 488.46 469.925 M 277.211 281.846 L 429.025 520.493 M 358.034 552.895 L 429.025 520.493 M 277.211 281.846 L 358.034 552.895 M 277.211 281.846 L 280.89 564.665 M 277.211 281.846 L 203.467 554.906 M 277.211 281.846 L 131.657 524.362 M 277.211 281.846 L 70.9261 475.358 M 277.211 281.846 L 25.8981 411.623 M 558.557 252.791 L 277.211 281.846 M 531.815 405.04 L 555.788 330.778 M 358.034 552.895 L 509.848 791.542 M 298.599 603.463 L 509.848 791.542 M 255.244 668.348 L 509.848 791.542 M 231.27 742.61 L 509.848 791.542 M 228.502 820.597 L 509.848 791.542 M 247.149 896.372 L 509.848 791.542 M 539.909 177.016 L 277.211 281.846 M 810.393 453.972 L 555.788 330.778 M 810.393 453.972 L 599.143 265.893 M 501.265 109.22 L 277.211 281.846 M 810.393 453.972 L 658.578 215.325 M 445.565 54.5648 L 277.211 281.846 M 810.393 453.972 L 729.569 182.923 M 377.05 17.2102 L 277.211 281.846 M 810.393 453.972 L 806.712 171.153 M 810.393 453.972 L 884.136 180.911" />
</svg>
