<?xml version="1.0"?>
<svg width="955" height="963" version="1.1" xmlns="http://www.w3.org/2000/svg" >
<defs>
<style type="text/css"><![CDATA[
.m {stroke:rgb(255,0,0);stroke-width:1.203750;}
.v {stroke:rgb(0,0,255);stroke-width:1.203750;}
.b {stroke:rgb(0,0,0);stroke-width:2.407500;fill:white}
.n {stroke:rgb(128,128,128);stroke-width:1.203750}
.t {stroke:rgb(0,128,0);stroke-width:1.203750;}
.c {stroke:rgb(128,128,128);stroke-width:1.203750;stroke-dasharray:9.550000, 9.550000;}
]]></style>
</defs>
<line x1="555.788468" y1="330.777929" x2="531.814582" y2="405.040128" class="m" style="stroke-width:1.905186;" />
<line x1="531.814582" y1="405.040128" x2="810.392595" y2="453.971836" class="m" style="stroke-width:0.540585;" />
<line x1="810.392595" y1="453.971836" x2="555.788468" y2="330.777929" class="m" style="stroke-width:0.540583;" />
<line x1="531.814582" y1="405.040128" x2="488.459982" y2="469.924928" class="m" style="stroke-width:1.905186;" />
<line x1="488.459982" y1="469.924928" x2="743.064050" y2="593.119057" class="m" style="stroke-width:0.540585;" />
<line x1="743.064050" y1="593.119057" x2="531.814582" y2="405.040128" class="m" style="stroke-width:0.540585;" />
<line x1="488.459982" y1="469.924928" x2="429.024916" y2="520.493015" class="m" style="stroke-width:1.905186;" />
<line x1="429.024916" y1="520.493015" x2="640.274325" y2="708.572010" class="m" style="stroke-width:0.540585;" />
<line x1="640.274325" y1="708.572010" x2="488.459982" y2="469.924928" class="m" style="stroke-width:0.540585;" />
<line x1="429.024916" y1="520.493015" x2="358.033850" y2="552.895020" class="m" style="stroke-width:1.905186;" />
<line x1="358.033850" y1="552.895020" x2="509.847978" y2="791.542188" class="m" style="stroke-width:0.540583;" />
<line x1="509.847978" y1="791.542188" x2="429.024916" y2="520.493015" class="m" style="stroke-width:0.540585;" />
<line x1="358.033850" y1="552.895020" x2="298.598709" y2="603.462954" class="m" style="stroke-width:1.905186;" />
<line x1="298.598709" y1="603.462954" x2="509.847978" y2="791.542188" class="m" style="stroke-width:0.540586;" />
<line x1="298.598709" y1="603.462954" x2="255.244144" y2="668.347577" class="m" style="stroke-width:1.905186;" />
<line x1="255.244144" y1="668.347577" x2="509.847978" y2="791.542188" class="m" style="stroke-width:0.540584;" />
<line x1="255.244144" y1="668.347577" x2="231.270056" y2="742.609962" class="m" style="stroke-width:1.905186;" />
<line x1="231.270056" y1="742.609962" x2="509.847978" y2="791.542188" class="m" style="stroke-width:0.540585;" />
<line x1="231.270056" y1="742.609962" x2="228.501526" y2="820.596861" class="m" style="stroke-width:1.905186;" />
<line x1="228.501526" y1="820.596861" x2="509.847978" y2="791.542188" class="m" style="stroke-width:0.540583;" />
<line x1="228.501526" y1="820.596861" x2="247.149088" y2="896.372120" class="m" style="stroke-width:1.905186;" />
<line x1="247.149088" y1="896.372120" x2="509.847978" y2="791.542188" class="m" style="stroke-width:0.540585;" />
<line x1="247.149088" y1="896.372120" x2="285.793533" y2="964.167883" class="m" style="stroke-width:1.905186;" />
<line x1="285.793533" y1="964.167883" x2="509.847978" y2="791.542188" class="m" style="stroke-width:0.540584;" />
<line x1="955.946149" y1="211.455470" x2="884.136004" y2="180.911473" class="m" style="stroke-width:1.905186;" />
<line x1="884.136004" y1="180.911473" x2="810.392595" y2="453.971836" class="m" style="stroke-width:0.540586;" />
<line x1="810.392595" y1="453.971836" x2="955.946149" y2="211.455470" class="m" style="stroke-width:0.540584;" />
<line x1="884.136004" y1="180.911473" x2="806.712329" y2="171.153068" class="m" style="stroke-width:1.905186;" />
<line x1="806.712329" y1="171.153068" x2="810.392595" y2="453.971836" class="m" style="stroke-width:0.540584;" />
<line x1="806.712329" y1="171.153068" x2="729.568778" y2="182.922968" class="m" style="stroke-width:1.905186;" />
<line x1="729.568778" y1="182.922968" x2="810.392595" y2="453.971836" class="m" style="stroke-width:0.540583;" />
<line x1="729.568778" y1="182.922968" x2="658.577789" y2="215.325048" class="m" style="stroke-width:1.905186;" />
<line x1="658.577789" y1="215.325048" x2="810.392595" y2="453.971836" class="m" style="stroke-width:0.540586;" />
<line x1="658.577789" y1="215.325048" x2="599.142821" y2="265.893251" class="m" style="stroke-width:1.905186;" />
<line x1="599.142821" y1="265.893251" x2="810.392595" y2="453.971836" class="m" style="stroke-width:0.540585;" />
<line x1="599.142821" y1="265.893251" x2="555.788468" y2="330.777929" class="m" style="stroke-width:1.905186;" />
<line x1="277.210539" y1="281.845961" x2="531.814582" y2="405.040128" class="m" style="stroke-width:0.540585;" />
<line x1="555.788468" y1="330.777929" x2="277.210539" y2="281.845961" class="m" style="stroke-width:0.540583;" />
<line x1="277.210539" y1="281.845961" x2="488.459982" y2="469.924928" class="m" style="stroke-width:0.540585;" />
<line x1="277.210539" y1="281.845961" x2="429.024916" y2="520.493015" class="m" style="stroke-width:0.540585;" />
<line x1="277.210539" y1="281.845961" x2="358.033850" y2="552.895020" class="m" style="stroke-width:0.540583;" />
<line x1="277.210539" y1="281.845961" x2="280.890325" y2="564.664827" class="m" style="stroke-width:0.540586;" />
<line x1="280.890325" y1="564.664827" x2="358.033850" y2="552.895020" class="m" style="stroke-width:1.905186;" />
<line x1="277.210539" y1="281.845961" x2="203.466804" y2="554.906186" class="m" style="stroke-width:0.540584;" />
<line x1="203.466804" y1="554.906186" x2="280.890325" y2="564.664827" class="m" style="stroke-width:1.905186;" />
<line x1="277.210539" y1="281.845961" x2="131.656537" y2="524.362051" class="m" style="stroke-width:0.540585;" />
<line x1="131.656537" y1="524.362051" x2="203.466804" y2="554.906186" class="m" style="stroke-width:1.905186;" />
<line x1="277.210539" y1="281.845961" x2="70.926131" y2="475.357570" class="m" style="stroke-width:0.540583;" />
<line x1="70.926131" y1="475.357570" x2="131.656537" y2="524.362051" class="m" style="stroke-width:1.905186;" />
<line x1="277.210539" y1="281.845961" x2="25.898094" y2="411.622986" class="m" style="stroke-width:0.540585;" />
<line x1="25.898094" y1="411.622986" x2="70.926131" y2="475.357570" class="m" style="stroke-width:1.905186;" />
<line x1="277.210539" y1="281.845961" x2="0.000000" y2="338.009486" class="m" style="stroke-width:0.540584;" />
<line x1="0.000000" y1="338.009486" x2="25.898094" y2="411.622986" class="m" style="stroke-width:1.905186;" />
<line x1="277.210539" y1="281.845961" x2="377.050268" y2="17.210210" class="m" style="stroke-width:0.540586;" />
<line x1="377.050268" y1="17.210210" x2="300.935609" y2="0.000000" class="m" style="stroke-width:1.905186;" />
<line x1="300.935609" y1="0.000000" x2="277.210539" y2="281.845961" class="m" style="stroke-width:0.540584;" />
<line x1="277.210539" y1="281.845961" x2="445.565136" y2="54.564792" class="m" style="stroke-width:0.540584;" />
<line x1="445.565136" y1="54.564792" x2="377.050268" y2="17.210210" class="m" style="stroke-width:1.905186;" />
<line x1="277.210539" y1="281.845961" x2="501.264784" y2="109.220142" class="m" style="stroke-width:0.540583;" />
<line x1="501.264784" y1="109.220142" x2="445.565136" y2="54.564792" class="m" style="stroke-width:1.905186;" />
<line x1="277.210539" y1="281.845961" x2="539.909253" y2="177.015571" class="m" style="stroke-width:0.540586;" />
<line x1="539.909253" y1="177.015571" x2="501.264784" y2="109.220142" class="m" style="stroke-width:1.905186;" />
<line x1="277.210539" y1="281.845961" x2="558.557003" y2="252.791030" class="m" style="stroke-width:0.540585;" />
<line x1="558.557003" y1="252.791030" x2="539.909253" y2="177.015571" class="m" style="stroke-width:1.905186;" />
<line x1="555.788468" y1="330.777929" x2="558.557003" y2="252.791030" class="m" style="stroke-width:1.905186;" />
<text x="667.341187" y="428.845123" transform="rotate(9.962273 667.341187 428.845123)" fill="darkgreen" font-weight="bold" font-size="19.100000">1</text>
<text x="640.292396" y="501.619737" transform="rotate(-138.320786 640.292396 501.619737)" fill="darkgreen" font-weight="bold" font-size="19.100000">1</text>
<text x="612.323400" y="529.858165" transform="rotate(25.820738 612.323400 529.858165)" fill="darkgreen" font-weight="bold" font-size="19.100000">4</text>
<text x="566.417518" y="592.471574" transform="rotate(-122.462302 566.417518 592.471574)" fill="darkgreen" font-weight="bold" font-size="19.100000">4</text>
<text x="531.796541" y="611.992367" transform="rotate(41.679222 531.796541 611.992367)" fill="darkgreen" font-weight="bold" font-size="19.100000">6</text>
<text x="470.528022" y="659.678321" transform="rotate(-106.603837 470.528022 659.678321)" fill="darkgreen" font-weight="bold" font-size="19.100000">6</text>
<text x="331.225727" y="575.703604" transform="rotate(139.608567 331.225727 575.703604)" fill="darkgreen" font-weight="bold" font-size="19.100000">9</text>
<text x="315.685786" y="559.356075" transform="rotate(-8.674735 315.685786 559.356075)" fill="darkgreen" font-weight="bold" font-size="19.100000">9</text>
<text x="281.165986" y="629.552840" transform="rotate(123.750022 281.165986 629.552840)" fill="darkgreen" font-weight="bold" font-size="19.100000">11</text>
<text x="234.598538" y="558.830102" transform="rotate(7.183811 234.598538 558.830102)" fill="darkgreen" font-weight="bold" font-size="19.100000">11</text>
<text x="245.604240" y="698.208244" transform="rotate(107.891603 245.604240 698.208244)" fill="darkgreen" font-weight="bold" font-size="19.100000">13</text>
<text x="160.531215" y="536.643750" transform="rotate(23.042230 160.531215 536.643750)" fill="darkgreen" font-weight="bold" font-size="19.100000">13</text>
<text x="230.156840" y="773.968221" transform="rotate(92.033138 230.156840 773.968221)" fill="darkgreen" font-weight="bold" font-size="19.100000">15</text>
<text x="95.345615" y="495.062100" transform="rotate(38.900695 95.345615 495.062100)" fill="darkgreen" font-weight="bold" font-size="19.100000">15</text>
<text x="235.999646" y="851.065828" transform="rotate(76.174774 235.999646 851.065828)" fill="darkgreen" font-weight="bold" font-size="19.100000">17</text>
<text x="44.003710" y="437.250439" transform="rotate(54.759059 44.003710 437.250439)" fill="darkgreen" font-weight="bold" font-size="19.100000">17</text>
<text x="262.687896" y="923.632579" transform="rotate(60.316308 262.687896 923.632579)" fill="darkgreen" font-weight="bold" font-size="19.100000">19</text>
<text x="10.413541" y="367.609239" transform="rotate(70.617525 10.413541 367.609239)" fill="darkgreen" font-weight="bold" font-size="19.100000">19</text>
<text x="391.768715" y="882.517910" transform="rotate(-37.612925 391.768715 882.517910)" fill="darkgreen" font-weight="bold" font-size="19.100000">20</text>
<text x="879.237756" y="339.264378" transform="rotate(-59.028643 879.237756 339.264378)" fill="darkgreen" font-weight="bold" font-size="19.100000">20</text>
<text x="927.071534" y="199.173833" transform="rotate(-156.957819 927.071534 199.173833)" fill="darkgreen" font-weight="bold" font-size="19.100000">21</text>
<text x="346.444823" y="10.290043" transform="rotate(-167.259142 346.444823 10.290043)" fill="darkgreen" font-weight="bold" font-size="19.100000">21</text>
<text x="853.004196" y="176.987650" transform="rotate(-172.816365 853.004196 176.987650)" fill="darkgreen" font-weight="bold" font-size="19.100000">23</text>
<text x="418.015530" y="39.544636" transform="rotate(-151.400596 418.015530 39.544636)" fill="darkgreen" font-weight="bold" font-size="19.100000">23</text>
<text x="775.693154" y="175.885707" transform="rotate(171.325190 775.693154 175.885707)" fill="darkgreen" font-weight="bold" font-size="19.100000">25</text>
<text x="478.868134" y="87.243401" transform="rotate(-135.542171 478.868134 87.243401)" fill="darkgreen" font-weight="bold" font-size="19.100000">25</text>
<text x="701.023553" y="195.951730" transform="rotate(155.466838 701.023553 195.951730)" fill="darkgreen" font-weight="bold" font-size="19.100000">27</text>
<text x="524.370449" y="149.755270" transform="rotate(-119.683819 524.370449 149.755270)" fill="darkgreen" font-weight="bold" font-size="19.100000">27</text>
<text x="634.679178" y="235.658361" transform="rotate(139.608335 634.679178 235.658361)" fill="darkgreen" font-weight="bold" font-size="19.100000">29</text>
<text x="551.058802" y="222.321960" transform="rotate(-103.825315 551.058802 222.321960)" fill="darkgreen" font-weight="bold" font-size="19.100000">29</text>
<text x="556.901686" y="299.419670" transform="rotate(-87.966849 556.901686 299.419670)" fill="darkgreen" font-weight="bold" font-size="19.100000">31</text>
<text x="581.710187" y="291.983153" transform="rotate(123.749869 581.710187 291.983153)" fill="darkgreen" font-weight="bold" font-size="19.100000">31</text>
<text x="289.713923" y="133.309906" transform="rotate(94.811663 289.713923 133.309906)" fill="darkgreen" font-weight="bold" font-size="19.100000">42</text>
<text x="146.093135" y="308.410664" transform="rotate(168.546758 146.093135 308.410664)" fill="darkgreen" font-weight="bold" font-size="19.100000">42</text>
</svg>
