<?xml version="1.0"?>
<svg width="19914" height="11621" version="1.1" xmlns="http://www.w3.org/2000/svg" >
<defs>
<style type="text/css"><![CDATA[
.m {stroke:rgb(255,0,0);stroke-width:24.892500;}
.v {stroke:rgb(0,0,255);stroke-width:24.892500;}
.b {stroke:rgb(0,0,0);stroke-width:49.785000;fill:white}
.n {stroke:rgb(128,128,128);stroke-width:24.892500}
.t {stroke:rgb(0,128,0);stroke-width:24.892500;}
.c {stroke:rgb(128,128,128);stroke-width:24.892500;stroke-dasharray:199.140000, 199.140000;}
]]></style>
</defs>
<path fill="none" style="stroke:black;stroke-width:49.785000;" d=" M 5805.2 8267.93 L 6104.67 9075.87 M 7717.78 8866.12 L 7247.33 8287.62 M 5923.42 9121.43 L 5805.2 8267.93 M 3849.99 4519.24 L 3137.96 4062.11 M 3255.39 3917.24 L 3849.99 4519.24 M 4758.06 3176.8 L 5074.89 2302.13 M 5279.64 2406.48 L 4758.06 3176.8 M 6251.9 2882.59 L 6804.5 2180.94 M 7989.75 3966.99 L 8556.43 3516.6 M 8556.43 3516.6 L 7666 3447.29 M 9088.73 4182.65 L 8565.93 4683.32 M 8869.43 6333.88 L 9766.4 6460.73 M 9742.18 6576.67 L 8869.43 6333.88 M 8620.89 7367.86 L 9742.18 6576.67 M 9871.59 6809.35 L 8607.59 7343.73 M 7247.33 8287.62 L 7832.11 8750.24 M 6104.67 9075.87 L 7307.22 10093.2 M 4555.71 9544.22 L 4690.29 8242.94 M 4690.29 8242.94 L 4781.43 9547.98 M 2541.42 4751.14 L 3232.8 5603.04 M 3232.8 5603.04 L 2382.12 4910.16 M 4828.79 1540.45 L 3908.08 2917.03 M 5074.89 2302.13 L 4828.79 1540.45 M 5365.96 1610.7 L 5279.64 2406.48 M 8847.15 8043.63 L 10158.2 7854.61 M 7832.11 8750.24 L 8756.07 9144.8 M 3293.2 6733.73 L 2469.27 7697.98 M 2906.21 2898.17 L 3255.39 3917.24 M 12551.7 0 L 11886.8 1516.78 M 13304.3 990.989 L 12551.7 0 M 6804.5 2180.94 L 6084.31 762.891 M 6084.31 762.891 L 5365.96 1610.7 M 9789.49 3464.02 L 10787.1 4564.67 M 11339.6 3108.1 L 9789.49 3464.02 M 10554.8 4421.83 L 9088.73 4182.65 M 9337.38 5415.47 L 10554.8 4421.83 M 10778.5 4788.83 L 9337.38 5415.47 M 11022.5 7563.82 L 10524.3 8791.18 M 10524.3 8791.18 L 11831 8220.27 M 14584.9 10179.2 L 15344.8 11558.9 M 15344.8 11558.9 L 15840.8 10173.2 M 4781.43 9547.98 L 5278.07 10444.2 M 5278.07 10444.2 L 5923.42 9121.43 M 2312.44 7537.94 L 3293.2 6733.73 M 1167.59 5162.54 L 2352.75 6035.36 M 2382.12 4910.16 L 1167.59 5162.54 M 2058.94 4234.06 L 2541.42 4751.14 M 17490.2 1791.8 L 18054 686.882 M 18054 686.882 L 17380.2 901.683 M 3908.08 2917.03 L 3139.45 1938.45 M 12969.6 1859.56 L 13304.3 990.989 M 9766.4 6460.73 L 11502.4 6263.53 M 10158.2 7854.61 L 11409.1 7639.17 M 11409.1 7639.17 L 9871.59 6809.35 M 8756.07 9144.8 L 9827.04 9079.58 M 9827.04 9079.58 L 8847.15 8043.63 M 8409.05 9595.18 L 7717.78 8866.12 M 15840.8 10173.2 L 15284.2 9281.15 M 2352.75 6035.36 L 1339.4 6921.87 M 1339.4 6921.87 L 2312.44 7537.94 M 18947.4 1584.51 L 17490.2 1791.8 M 18663.1 2900.55 L 18947.4 1584.51 M 11886.8 1516.78 L 11969.9 2624.89 M 11831 8220.27 L 12561.5 7423.49 M 4804.24 10538.2 L 4555.71 9544.22 M 17352.6 3079.76 L 18663.1 2900.55 M 13626.2 1043.91 L 13124.4 1827.81 M 14117.8 2222.54 L 13626.2 1043.91 M 13330.8 3227.37 L 12969.6 1859.56 M 11603.3 6435.16 L 11022.5 7563.82 M 3139.56 10217.4 L 3737.8 11622 M 3737.8 11622 L 4804.24 10538.2 M 16423.1 9649.71 L 16258 8138.24 M 15553.8 9058.17 L 16423.1 9649.71 M 18892.9 3888.08 L 17632.1 3488.1 M 13124.4 1827.81 L 13330.8 3227.37 M 12864 6354.3 L 11603.3 6435.16 M 17440 5067.03 L 18308.1 5198.98 M 15865.4 7108.07 L 16480.8 7904.87 M 17632.1 3488.1 L 16591.8 4115.21 M 14244.5 4212.38 L 14945.6 2800.3 M 13856.4 5595.2 L 13716.6 7447.24 M 13329.4 7376.17 L 13856.4 5595.2 M 17295.3 6751.52 L 16481.6 5915.73 M 16498.7 5690.73 L 17547.1 6201.98 M 15698.2 4432.9 L 16525.7 3969.72 M 16481.6 5915.73 L 15349.8 5716.63 M 15160.9 2929.53 L 14244.5 4212.38 M 15349.8 5716.63 L 16498.7 5690.73 M 16591.8 4115.21 L 15698.2 4432.9 M 6900.87 7797.65 L 5639.38 7935.46 M 5057.71 7141.23 L 4609.07 7272.27 M 4609.07 7272.27 L 5012.7 7036.61 M 4361.58 5992.17 L 3923.54 5913.06 M 7691.83 7864.6 L 8620.89 7367.86 M 8607.59 7343.73 L 7691.83 7864.6 M 5639.38 7935.46 L 6702.26 8628.74 M 6702.26 8628.74 L 6488 7675.69 M 3923.54 5913.06 L 4368.61 5905.79 M 5617.52 5567.47 L 4361.58 5992.17 M 5012.7 7036.61 L 5617.52 5567.47 M 6488 7675.69 L 6228.93 6547.37 M 6228.93 6547.37 L 5057.71 7141.23 M 4336 5529.02 L 3552.93 4750.47 M 5204.13 5250.65 L 4229.64 4874.28 M 4368.61 5905.79 L 5204.13 5250.65 M 5077.59 7329.99 L 6353.03 8042.03 M 5507.09 6354.94 L 6027.58 7359.96 M 6905.68 6776.48 L 5507.09 6354.94 M 4280.34 4426.19 L 4336 5529.02 M 5579.94 4308.32 L 6288.52 3343.05 M 7268.48 5027.7 L 7839.15 4829.72 M 7880.77 5332.55 L 7317.31 5114.89 M 6744.27 6273.51 L 7373.67 6684.73 M 7822.84 5972.56 L 6744.27 6273.51 M 6353.03 8042.03 L 7307.42 7795.93 M 7307.42 7795.93 L 6887.89 7172.04 M 4451.95 3217.4 L 4280.34 4426.19 M 5049.03 3771.76 L 4451.95 3217.4 M 4229.64 4874.28 L 5271.27 4965.06 M 5271.27 4965.06 L 4582.62 3956.92 M 6288.52 3343.05 L 6504.85 2638.2 M 6504.85 2638.2 L 5049.03 3771.76 M 4582.62 3956.92 L 5246.28 4429.55 M 5246.28 4429.55 L 6251.9 2882.59 M 7666 3447.29 L 7061.13 3025.71 M 7061.13 3025.71 L 7473.54 3703.27 M 7473.54 3703.27 L 6735.03 3992.72 M 7839.15 4829.72 L 7989.75 3966.99 M 7903.34 5255.99 L 8540.45 5485.38 M 8565.93 4683.32 L 7903.34 5255.99 M 8540.45 5485.38 L 7880.77 5332.55 M 7789.47 6507.95 L 8568.72 6287.78 M 8568.72 6287.78 L 7822.84 5972.56 M 7373.67 6684.73 L 6683.89 7388.74 M 6683.89 7388.74 L 7783.53 7440.78 M 7783.53 7440.78 L 6905.68 6776.48 M 6027.58 7359.96 L 6900.87 7797.65 M 4213.48 7243.39 L 4573.91 8343.54 M 4573.91 8343.54 L 5077.59 7329.99 M 2935.25 7544.25 L 4213.48 7243.39 M 3789.86 6204.91 L 2935.25 7544.25 M 2470.94 6069.93 L 3789.86 6204.91 M 3371.55 5507.62 L 2470.94 6069.93 M 3552.93 4750.47 L 2518.72 4904.31 M 2518.72 4904.31 L 3371.55 5507.62 M 6887.89 7172.04 L 7789.47 6507.95 M 7317.31 5114.89 L 5872.84 5866.59 M 6735.03 3992.72 L 5579.94 4308.32 M 5872.84 5866.59 L 7268.48 5027.7 M 1150.49 8902.48 L 2906.77 8584.27 M 2469.27 7697.98 L 1150.49 8902.48 M 17547.1 6201.98 L 18657.4 6785.54 M 19874.8 6092.65 L 18297 5258.2 M 18657.4 6785.54 L 19874.8 6092.65 M 18308.1 5198.98 L 19914.9 4419.04 M 19914.9 4419.04 L 18892.9 3888.08 M 18003 7787.08 L 17295.3 6751.52 M 16480.8 7904.87 L 18003 7787.08 M 3953.62 9190.15 L 3139.56 10217.4 M 3003.04 10092.6 L 3953.62 9190.15 M 3012.62 8691.78 L 3003.04 10092.6 M 3876.57 7735.36 L 3012.62 8691.78 M 2906.77 8584.27 L 3876.57 7735.36 M 18297 5258.2 L 17440 5067.03 M 13712 8992.69 L 14584.9 10179.2 M 15284.2 9281.15 L 14663.2 8255.63 M 14663.2 8255.63 L 15553.8 9058.17 M 14868.4 6985.73 L 16379.4 7973.78 M 16379.4 7973.78 L 15865.4 7108.07 M 16258 8138.24 L 14868.4 6985.73 M 13716.6 7447.24 L 13712 8992.69 M 12741.5 8805.43 L 13329.4 7376.17 M 12561.5 7423.49 L 11913.2 8288.49 M 11913.2 8288.49 L 11797.9 9355.23 M 11797.9 9355.23 L 12741.5 8805.43 M 7307.22 10093.2 L 8668.43 10656 M 8668.43 10656 L 8409.05 9595.18 M 16280.3 1556.43 L 16037.6 2665.56 M 17380.2 901.683 L 16280.3 1556.43 M 16525.7 3969.72 L 17352.6 3079.76 M 16037.6 2665.56 L 16014.5 1530.41 M 16014.5 1530.41 L 15160.9 2929.53 M 0 2165.77 L 1136.15 3346.99 M 1723.21 2282.59 L 0 2165.77 M 14094.7 1297.27 L 14117.8 2222.54 M 14945.6 2800.3 L 14094.7 1297.27 M 2434.13 3246.6 L 1723.21 2282.59 M 1136.15 3346.99 L 2058.94 4234.06 M 3137.96 4062.11 L 2434.13 3246.6 M 3139.45 1938.45 L 2550.48 805.343 M 2550.48 805.343 L 2682.65 1721.42 M 2682.65 1721.42 L 2906.21 2898.17 M 13000.4 4592.69 L 11927.6 3631.99 M 11502.4 6263.53 L 12367.6 5726.55 M 12262.4 3356.09 L 13000.4 4592.69 M 11969.9 2624.89 L 12262.4 3356.09 M 11927.6 3631.99 L 11339.6 3108.1 M 10787.1 4564.67 L 11405.4 4700.67 M 11405.4 4700.67 L 10778.5 4788.83 M 12367.6 5726.55 L 11601.5 6397.29 M 11601.5 6397.29 L 12864 6354.3" />
<path fill="none" class="c" d=" M 6104.67 9075.87 L 7247.33 8287.62 M 6104.67 9075.87 L 7717.78 8866.12 M 7247.33 8287.62 L 5805.2 8267.93 M 7247.33 8287.62 L 7691.83 7864.6 M 7247.33 8287.62 L 8607.59 7343.73 M 7832.11 8750.24 L 8607.59 7343.73 M 7691.83 7864.6 L 5805.2 8267.93 M 5639.38 7935.46 L 5805.2 8267.93 M 4609.07 7272.27 L 5805.2 8267.93 M 4690.29 8242.94 L 5805.2 8267.93 M 5639.38 7935.46 L 4609.07 7272.27 M 5639.38 7935.46 L 5057.71 7141.23 M 6488 7675.69 L 5057.71 7141.23 M 5639.38 7935.46 L 6488 7675.69 M 4609.07 7272.27 L 4690.29 8242.94 M 3876.57 7735.36 L 4690.29 8242.94 M 4609.07 7272.27 L 3876.57 7735.36 M 3293.2 6733.73 L 3876.57 7735.36 M 4609.07 7272.27 L 3293.2 6733.73 M 4609.07 7272.27 L 3923.54 5913.06 M 4609.07 7272.27 L 4361.58 5992.17 M 5012.7 7036.61 L 4361.58 5992.17 M 3923.54 5913.06 L 3293.2 6733.73 M 3232.8 5603.04 L 3293.2 6733.73 M 3923.54 5913.06 L 3232.8 5603.04 M 3849.99 4519.24 L 3232.8 5603.04 M 3923.54 5913.06 L 3849.99 4519.24 M 4229.64 4874.28 L 3849.99 4519.24 M 4229.64 4874.28 L 4582.62 3956.92 M 3137.96 4062.11 L 3232.8 5603.04 M 3137.96 4062.11 L 2541.42 4751.14 M 4690.29 8242.94 L 5923.42 9121.43 M 4781.43 9547.98 L 5923.42 9121.43 M 7832.11 8750.24 L 8847.15 8043.63 M 8756.07 9144.8 L 8847.15 8043.63 M 7691.83 7864.6 L 5639.38 7935.46 M 7691.83 7864.6 L 6900.87 7797.65 M 7691.83 7864.6 L 7783.53 7440.78 M 8568.72 6287.78 L 7783.53 7440.78 M 7691.83 7864.6 L 8568.72 6287.78 M 8869.43 6333.88 L 8568.72 6287.78 M 8540.45 5485.38 L 8568.72 6287.78 M 8869.43 6333.88 L 8540.45 5485.38 M 8869.43 6333.88 L 8565.93 4683.32 M 8565.93 4683.32 L 8540.45 5485.38 M 7691.83 7864.6 L 8869.43 6333.88 M 8620.89 7367.86 L 8869.43 6333.88 M 7880.77 5332.55 L 8568.72 6287.78 M 7880.77 5332.55 L 7789.47 6507.95 M 7317.31 5114.89 L 7789.47 6507.95 M 7317.31 5114.89 L 6887.89 7172.04 M 5872.84 5866.59 L 6887.89 7172.04 M 5872.84 5866.59 L 5077.59 7329.99 M 4336 5529.02 L 5077.59 7329.99 M 4213.48 7243.39 L 5077.59 7329.99 M 4336 5529.02 L 4213.48 7243.39 M 3789.86 6204.91 L 4213.48 7243.39 M 4336 5529.02 L 3789.86 6204.91 M 3552.93 4750.47 L 3789.86 6204.91 M 3552.93 4750.47 L 3371.55 5507.62 M 5872.84 5866.59 L 4336 5529.02 M 5872.84 5866.59 L 5579.94 4308.32 M 7783.53 7440.78 L 6900.87 7797.65 M 3923.54 5913.06 L 4229.64 4874.28 M 4368.61 5905.79 L 4229.64 4874.28 M 3371.55 5507.62 L 3789.86 6204.91 M 8869.43 6333.88 L 9337.38 5415.47 M 9766.4 6460.73 L 9337.38 5415.47 M 7268.48 5027.7 L 5579.94 4308.32 M 7268.48 5027.7 L 6735.03 3992.72 M 7839.15 4829.72 L 6735.03 3992.72 M 7839.15 4829.72 L 7473.54 3703.27 M 7989.75 3966.99 L 7473.54 3703.27 M 7666 3447.29 L 7473.54 3703.27 M 7989.75 3966.99 L 7666 3447.29 M 9337.38 5415.47 L 8565.93 4683.32 M 9337.38 5415.47 L 9088.73 4182.65 M 9766.4 6460.73 L 10778.5 4788.83 M 11502.4 6263.53 L 10778.5 4788.83 M 11502.4 6263.53 L 11405.4 4700.67 M 12367.6 5726.55 L 11405.4 4700.67 M 12367.6 5726.55 L 13000.4 4592.69 M 13856.4 5595.2 L 13000.4 4592.69 M 14244.5 4212.38 L 13000.4 4592.69 M 13856.4 5595.2 L 14244.5 4212.38 M 15349.8 5716.63 L 14244.5 4212.38 M 13856.4 5595.2 L 15349.8 5716.63 M 14868.4 6985.73 L 15349.8 5716.63 M 15349.8 5716.63 L 15698.2 4432.9 M 16498.7 5690.73 L 15698.2 4432.9 M 16498.7 5690.73 L 16591.8 4115.21 M 12367.6 5726.55 L 13856.4 5595.2 M 12367.6 5726.55 L 12864 6354.3 M 15698.2 4432.9 L 14244.5 4212.38 M 15698.2 4432.9 L 15160.9 2929.53 M 16525.7 3969.72 L 15160.9 2929.53 M 16525.7 3969.72 L 16037.6 2665.56 M 13856.4 5595.2 L 14868.4 6985.73 M 13716.6 7447.24 L 14868.4 6985.73 M 12864 6354.3 L 13856.4 5595.2 M 12864 6354.3 L 13329.4 7376.17 M 17440 5067.03 L 16591.8 4115.21 M 17440 5067.03 L 17632.1 3488.1 M 18308.1 5198.98 L 17632.1 3488.1 M 12561.5 7423.49 L 13329.4 7376.17 M 14244.5 4212.38 L 13330.8 3227.37 M 14945.6 2800.3 L 13330.8 3227.37 M 14945.6 2800.3 L 14117.8 2222.54 M 13716.6 7447.24 L 14663.2 8255.63 M 13712 8992.69 L 14663.2 8255.63 M 13712 8992.69 L 15284.2 9281.15 M 15865.4 7108.07 L 15349.8 5716.63 M 15865.4 7108.07 L 16481.6 5915.73 M 12864 6354.3 L 12561.5 7423.49 M 11603.3 6435.16 L 12561.5 7423.49 M 13330.8 3227.37 L 13000.4 4592.69 M 13330.8 3227.37 L 12262.4 3356.09 M 14663.2 8255.63 L 14868.4 6985.73 M 14663.2 8255.63 L 16258 8138.24 M 15553.8 9058.17 L 16258 8138.24 M 17352.6 3079.76 L 16037.6 2665.56 M 17352.6 3079.76 L 16280.3 1556.43 M 14868.4 6985.73 L 15865.4 7108.07 M 13000.4 4592.69 L 11405.4 4700.67 M 11927.6 3631.99 L 11405.4 4700.67 M 11927.6 3631.99 L 10787.1 4564.67 M 11339.6 3108.1 L 10787.1 4564.67 M 7307.22 10093.2 L 7717.78 8866.12 M 7307.22 10093.2 L 8409.05 9595.18 M 4582.62 3956.92 L 3849.99 4519.24 M 4582.62 3956.92 L 4758.06 3176.8 M 6251.9 2882.59 L 4758.06 3176.8 M 6251.9 2882.59 L 5279.64 2406.48 M 6804.5 2180.94 L 5279.64 2406.48 M 6804.5 2180.94 L 5365.96 1610.7 M 4582.62 3956.92 L 6251.9 2882.59 M 4758.06 3176.8 L 3849.99 4519.24 M 4758.06 3176.8 L 3255.39 3917.24 M 4758.06 3176.8 L 3908.08 2917.03 M 5074.89 2302.13 L 3908.08 2917.03 M 3908.08 2917.03 L 3255.39 3917.24 M 3908.08 2917.03 L 2906.21 2898.17 M 2352.75 6035.36 L 3293.2 6733.73 M 2352.75 6035.36 L 2312.44 7537.94 M 7373.67 6684.73 L 7783.53 7440.78 M 2469.27 7697.98 L 3876.57 7735.36 M 2469.27 7697.98 L 2906.77 8584.27 M 14117.8 2222.54 L 13330.8 3227.37 M 14117.8 2222.54 L 13124.4 1827.81 M 5579.94 4308.32 L 4336 5529.02 M 5579.94 4308.32 L 4280.34 4426.19 M 5579.94 4308.32 L 5049.03 3771.76 M 6288.52 3343.05 L 5049.03 3771.76 M 12561.5 7423.49 L 12741.5 8805.43 M 11913.2 8288.49 L 12741.5 8805.43 M 15865.4 7108.07 L 17295.3 6751.52 M 16480.8 7904.87 L 17295.3 6751.52 M 3137.96 4062.11 L 2058.94 4234.06 M 2434.13 3246.6 L 2058.94 4234.06 M 5077.59 7329.99 L 6887.89 7172.04 M 6353.03 8042.03 L 6887.89 7172.04 M 13330.8 3227.37 L 11969.9 2624.89 M 12969.6 1859.56 L 11969.9 2624.89 M 12969.6 1859.56 L 11886.8 1516.78 M 13304.3 990.989 L 11886.8 1516.78 M 17490.2 1791.8 L 16280.3 1556.43 M 17490.2 1791.8 L 17380.2 901.683 M 8847.15 8043.63 L 8607.59 7343.73 M 8847.15 8043.63 L 9871.59 6809.35 M 10158.2 7854.61 L 9871.59 6809.35 M 6905.68 6776.48 L 6900.87 7797.65 M 6905.68 6776.48 L 6027.58 7359.96 M 16037.6 2665.56 L 15160.9 2929.53 M 18308.1 5198.98 L 18892.9 3888.08 M 5049.03 3771.76 L 4280.34 4426.19 M 3876.57 7735.36 L 3953.62 9190.15 M 3012.62 8691.78 L 3953.62 9190.15 M 3232.8 5603.04 L 2352.75 6035.36 M 2382.12 4910.16 L 2352.75 6035.36 M 14584.9 10179.2 L 15284.2 9281.15 M 14584.9 10179.2 L 15840.8 10173.2 M 11022.5 7563.82 L 12561.5 7423.49 M 11022.5 7563.82 L 11831 8220.27 M 2434.13 3246.6 L 1136.15 3346.99 M 1723.21 2282.59 L 1136.15 3346.99 M 17352.6 3079.76 L 17490.2 1791.8 M 18663.1 2900.55 L 17490.2 1791.8 M 8568.72 6287.78 L 7373.67 6684.73 M 7822.84 5972.56 L 7373.67 6684.73 M 3953.62 9190.15 L 4690.29 8242.94 M 3953.62 9190.15 L 4555.71 9544.22 M 3139.56 10217.4 L 4555.71 9544.22 M 3139.56 10217.4 L 4804.24 10538.2 M 16498.7 5690.73 L 17440 5067.03 M 17547.1 6201.98 L 17440 5067.03 M 17547.1 6201.98 L 18297 5258.2 M 18657.4 6785.54 L 18297 5258.2 M 3139.45 1938.45 L 2906.21 2898.17 M 3139.45 1938.45 L 2682.65 1721.42" />
<line x1="7023.257077" y1="8743.202482" x2="6385.732878" y2="8543.805295" class="t" />
<line x1="7043.221991" y1="9345.057429" x2="7023.257077" y2="8743.202482" class="t" />
<line x1="6914.785297" y1="8140.048964" x2="6385.732878" y2="8543.805295" class="t" />
<line x1="7848.913090" y1="7831.984466" x2="6914.785297" y2="8140.048964" class="t" />
<line x1="7895.672609" y1="8127.198090" x2="7848.913090" y2="7831.984466" class="t" />
<line x1="8428.947726" y1="8045.867813" x2="7895.672609" y2="8127.198090" class="t" />
<line x1="6378.803764" y1="8022.664356" x2="6914.785297" y2="8140.048964" class="t" />
<line x1="5351.216574" y1="7825.220312" x2="6378.803764" y2="8022.664356" class="t" />
<line x1="5034.853597" y1="7927.712861" x2="5351.216574" y2="7825.220312" class="t" />
<line x1="5472.972366" y1="8544.101631" x2="5034.853597" y2="7927.712861" class="t" />
<line x1="5102.052942" y1="7449.654080" x2="5351.216574" y2="7825.220312" class="t" />
<line x1="5728.363387" y1="7584.129601" x2="5102.052942" y2="7449.654080" class="t" />
<line x1="5924.878317" y1="7121.431600" x2="5728.363387" y2="7584.129601" class="t" />
<line x1="6276.546731" y1="8079.968179" x2="5728.363387" y2="7584.129601" class="t" />
<line x1="4391.976714" y1="7750.189783" x2="5034.853597" y2="7927.712861" class="t" />
<line x1="4173.495610" y1="8389.482933" x2="4391.976714" y2="7750.189783" class="t" />
<line x1="3926.278398" y1="7247.120151" x2="4391.976714" y2="7750.189783" class="t" />
<line x1="3213.012953" y1="7389.024935" x2="3926.278398" y2="7247.120151" class="t" />
<line x1="3941.934340" y1="6639.687545" x2="3926.278398" y2="7247.120151" class="t" />
<line x1="4298.062641" y1="6392.501241" x2="3941.934340" y2="6639.687545" class="t" />
<line x1="4661.116231" y1="6767.018551" x2="4298.062641" y2="6392.501241" class="t" />
<line x1="4997.269382" y1="6198.752871" x2="4661.116231" y2="6767.018551" class="t" />
<line x1="3483.179703" y1="6083.278914" x2="3941.934340" y2="6639.687545" class="t" />
<line x1="2959.582475" y1="6124.045486" x2="3483.179703" y2="6083.278914" class="t" />
<line x1="3668.776718" y1="5345.113118" x2="3483.179703" y2="6083.278914" class="t" />
<line x1="3406.915553" y1="4728.130837" x2="3668.776718" y2="5345.113118" class="t" />
<line x1="4001.055378" y1="5102.190750" x2="3668.776718" y2="5345.113118" class="t" />
<line x1="4220.747894" y1="4450.142194" x2="4001.055378" y2="5102.190750" class="t" />
<line x1="4694.509218" y1="4598.750603" x2="4220.747894" y2="4450.142194" class="t" />
<line x1="2970.725355" y1="4805.430830" x2="3406.915553" y2="4728.130837" class="t" />
<line x1="2579.438411" y1="4349.103300" x2="2970.725355" y2="4805.430830" class="t" />
<line x1="5131.713939" y1="8970.785191" x2="5472.972366" y2="8544.101631" class="t" />
<line x1="5327.639202" y1="9704.535258" x2="5131.713939" y2="8970.785191" class="t" />
<line x1="8478.443361" y1="8646.221577" x2="8428.947726" y2="8045.867813" class="t" />
<line x1="9143.420687" y1="8755.999535" x2="8478.443361" y2="8646.221577" class="t" />
<line x1="6744.026749" y1="7865.904371" x2="6378.803764" y2="8022.664356" class="t" />
<line x1="7458.741752" y1="7701.010967" x2="6744.026749" y2="7865.904371" class="t" />
<line x1="8014.689901" y1="7197.722212" x2="7458.741752" y2="7701.010967" class="t" />
<line x1="7908.638339" y1="6804.432356" x2="8014.689901" y2="7197.722212" class="t" />
<line x1="8376.658127" y1="6828.754993" x2="8014.689901" y2="7197.722212" class="t" />
<line x1="8659.530908" y1="6035.680488" x2="8376.658127" y2="6828.754993" class="t" />
<line x1="8329.978262" y1="5701.901525" x2="8659.530908" y2="6035.680488" class="t" />
<line x1="8658.600446" y1="5500.859232" x2="8659.530908" y2="6035.680488" class="t" />
<line x1="8924.244515" y1="5477.558137" x2="8658.600446" y2="5500.859232" class="t" />
<line x1="8336.569855" y1="5141.559958" x2="8658.600446" y2="5500.859232" class="t" />
<line x1="8394.050058" y1="7188.779943" x2="8376.658127" y2="6828.754993" class="t" />
<line x1="9077.501475" y1="6759.469866" x2="8394.050058" y2="7188.779943" class="t" />
<line x1="8079.654388" y1="6042.758752" x2="8329.978262" y2="5701.901525" class="t" />
<line x1="7662.517643" y1="5651.794077" x2="8079.654388" y2="6042.758752" class="t" />
<line x1="7331.555524" y1="6264.958999" x2="7662.517643" y2="5651.794077" class="t" />
<line x1="6692.676687" y1="6051.172510" x2="7331.555524" y2="6264.958999" class="t" />
<line x1="5946.102843" y1="6789.540646" x2="6692.676687" y2="6051.172510" class="t" />
<line x1="5095.473456" y1="6241.867318" x2="5946.102843" y2="6789.540646" class="t" />
<line x1="4542.355865" y1="6700.801444" x2="5095.473456" y2="6241.867318" class="t" />
<line x1="4621.660586" y1="7638.974258" x2="4542.355865" y2="6700.801444" class="t" />
<line x1="4113.112822" y1="6325.773910" x2="4542.355865" y2="6700.801444" class="t" />
<line x1="3646.195735" y1="6997.516380" x2="4113.112822" y2="6325.773910" class="t" />
<line x1="3892.927055" y1="5494.799645" x2="4113.112822" y2="6325.773910" class="t" />
<line x1="3571.445922" y1="5487.664507" x2="3892.927055" y2="5494.799645" class="t" />
<line x1="3147.734995" y1="5054.132802" x2="3571.445922" y2="5487.664507" class="t" />
<line x1="5262.923262" y1="5234.643593" x2="5095.473456" y2="6241.867318" class="t" />
<line x1="6240.416584" y1="5067.536460" x2="5262.923262" y2="5234.643593" class="t" />
<line x1="7196.694393" y1="7338.303778" x2="7458.741752" y2="7701.010967" class="t" />
<line x1="4173.929225" y1="5564.376765" x2="4001.055378" y2="5102.190750" class="t" />
<line x1="4600.792304" y1="5343.572253" x2="4173.929225" y2="5564.376765" class="t" />
<line x1="3210.782799" y1="5927.486222" x2="3571.445922" y2="5487.664507" class="t" />
<line x1="9324.401652" y1="6070.027961" x2="8924.244515" y2="5477.558137" class="t" />
<line x1="9960.760855" y1="5555.011938" x2="9324.401652" y2="6070.027961" class="t" />
<line x1="6527.814290" y1="4442.914123" x2="6240.416584" y2="5067.536460" class="t" />
<line x1="7280.887431" y1="4616.713314" x2="6527.814290" y2="4442.914123" class="t" />
<line x1="7349.239973" y1="4175.236747" x2="7280.887431" y2="4616.713314" class="t" />
<line x1="7767.479130" y1="4166.660988" x2="7349.239973" y2="4175.236747" class="t" />
<line x1="7709.759874" y1="3705.852577" x2="7767.479130" y2="4166.660988" class="t" />
<line x1="7400.219449" y1="3392.089853" x2="7709.759874" y2="3705.852577" class="t" />
<line x1="8070.725711" y1="3643.627809" x2="7709.759874" y2="3705.852577" class="t" />
<line x1="8997.343811" y1="4760.479930" x2="8924.244515" y2="5477.558137" class="t" />
<line x1="9660.314169" y1="4673.317730" x2="8997.343811" y2="4760.479930" class="t" />
<line x1="10682.444098" y1="5837.697397" x2="9960.760855" y2="5555.011938" class="t" />
<line x1="11228.786772" y1="5251.011064" x2="10682.444098" y2="5837.697397" class="t" />
<line x1="11758.469147" y1="5563.582152" x2="11228.786772" y2="5251.011064" class="t" />
<line x1="12257.808119" y1="5006.634148" x2="11758.469147" y2="5563.582152" class="t" />
<line x1="13074.793590" y1="5304.810505" x2="12257.808119" y2="5006.634148" class="t" />
<line x1="13700.453583" y1="4800.087361" x2="13074.793590" y2="5304.810505" class="t" />
<line x1="13525.270976" y1="4010.811643" x2="13700.453583" y2="4800.087361" class="t" />
<line x1="14483.569719" y1="5174.735594" x2="13700.453583" y2="4800.087361" class="t" />
<line x1="15097.500810" y1="4787.301883" x2="14483.569719" y2="5174.735594" class="t" />
<line x1="14691.537824" y1="6099.185637" x2="14483.569719" y2="5174.735594" class="t" />
<line x1="15361.200820" y1="6603.476346" x2="14691.537824" y2="6099.185637" class="t" />
<line x1="15848.872640" y1="5280.086787" x2="15097.500810" y2="4787.301883" class="t" />
<line x1="16262.859424" y1="4746.278346" x2="15848.872640" y2="5280.086787" class="t" />
<line x1="16843.463834" y1="4957.656974" x2="16262.859424" y2="4746.278346" class="t" />
<line x1="13029.319891" y1="5892.013717" x2="13074.793590" y2="5304.810505" class="t" />
<line x1="12277.680446" y1="6159.379235" x2="13029.319891" y2="5892.013717" class="t" />
<line x1="15034.540028" y1="3858.269943" x2="15097.500810" y2="4787.301883" class="t" />
<line x1="15794.943884" y1="3777.383154" x2="15034.540028" y2="3858.269943" class="t" />
<line x1="15908.070900" y1="3188.270780" x2="15794.943884" y2="3777.383154" class="t" />
<line x1="16638.619375" y1="3238.344859" x2="15908.070900" y2="3188.270780" class="t" />
<line x1="14147.138237" y1="6676.054238" x2="14691.537824" y2="6099.185637" class="t" />
<line x1="14416.091685" y1="7562.866005" x2="14147.138237" y2="6676.054238" class="t" />
<line x1="13349.924560" y1="6441.886175" x2="13029.319891" y2="5892.013717" class="t" />
<line x1="12918.286495" y1="7051.316292" x2="13349.924560" y2="6441.886175" class="t" />
<line x1="17221.289377" y1="4223.444933" x2="16843.463834" y2="4957.656974" class="t" />
<line x1="17793.411603" y1="4584.704778" x2="17221.289377" y2="4223.444933" class="t" />
<line x1="18277.719161" y1="4191.721759" x2="17793.411603" y2="4584.704778" class="t" />
<line x1="12877.430285" y1="7868.362637" x2="12918.286495" y2="7051.316292" class="t" />
<line x1="14173.649059" y1="3413.349218" x2="13525.270976" y2="4010.811643" class="t" />
<line x1="14131.407410" y1="2750.071273" x2="14173.649059" y2="3413.349218" class="t" />
<line x1="14386.023283" y1="2106.705010" x2="14131.407410" y2="2750.071273" class="t" />
<line x1="14030.621379" y1="8231.853847" x2="14416.091685" y2="7562.866005" class="t" />
<line x1="14553.142994" y1="8843.157747" x2="14030.621379" y2="8231.853847" class="t" />
<line x1="14527.034954" y1="9484.333113" x2="14553.142994" y2="8843.157747" class="t" />
<line x1="15898.908715" y1="6246.810401" x2="15361.200820" y2="6603.476346" class="t" />
<line x1="16547.413571" y1="6591.771976" x2="15898.908715" y2="6246.810401" class="t" />
<line x1="12342.937656" y1="6737.649159" x2="12918.286495" y2="7051.316292" class="t" />
<line x1="11729.110420" y1="7140.823458" x2="12342.937656" y2="6737.649159" class="t" />
<line x1="12864.564908" y1="3725.380550" x2="13525.270976" y2="4010.811643" class="t" />
<line x1="12521.049446" y1="3069.447355" x2="12864.564908" y2="3725.380550" class="t" />
<line x1="15263.237705" y1="7793.198977" x2="14416.091685" y2="7562.866005" class="t" />
<line x1="15491.703761" y1="8484.011252" x2="15263.237705" y2="7793.198977" class="t" />
<line x1="16078.332413" y1="8948.704591" x2="15491.703761" y2="8484.011252" class="t" />
<line x1="16556.806772" y1="2433.914394" x2="16638.619375" y2="3238.344859" class="t" />
<line x1="17041.005288" y1="2142.662156" x2="16556.806772" y2="2433.914394" class="t" />
<line x1="15704.402851" y1="7355.858725" x2="15361.200820" y2="6603.476346" class="t" />
<line x1="12111.167850" y1="4308.446784" x2="12257.808119" y2="5006.634148" class="t" />
<line x1="11373.392972" y1="4299.106984" x2="12111.167850" y2="4308.446784" class="t" />
<line x1="11351.455946" y1="3768.252354" x2="11373.392972" y2="4299.106984" class="t" />
<line x1="10638.742837" y1="3712.262750" x2="11351.455946" y2="3768.252354" class="t" />
<line x1="7811.350285" y1="9518.160293" x2="7043.221991" y2="9345.057429" class="t" />
<line x1="8128.234540" y1="10114.782855" x2="7811.350285" y2="9518.160293" class="t" />
<line x1="4396.889485" y1="3884.315543" x2="4220.747894" y2="4450.142194" class="t" />
<line x1="5197.525349" y1="3338.766667" x2="4396.889485" y2="3884.315543" class="t" />
<line x1="5429.865286" y1="2821.956273" x2="5197.525349" y2="3338.766667" class="t" />
<line x1="6112.011289" y1="2490.005499" x2="5429.865286" y2="2821.956273" class="t" />
<line x1="5816.700152" y1="2066.042248" x2="6112.011289" y2="2490.005499" class="t" />
<line x1="6084.924394" y1="1518.177890" x2="5816.700152" y2="2066.042248" class="t" />
<line x1="5360.263099" y1="3756.351622" x2="5197.525349" y2="3338.766667" class="t" />
<line x1="3954.480983" y1="3871.088978" x2="4396.889485" y2="3884.315543" class="t" />
<line x1="3973.843724" y1="3337.021375" x2="3954.480983" y2="3871.088978" class="t" />
<line x1="4580.344223" y1="2798.653038" x2="3973.843724" y2="3337.021375" class="t" />
<line x1="4603.919572" y1="2253.204866" x2="4580.344223" y2="2798.653038" class="t" />
<line x1="3356.558407" y1="3244.145193" x2="3973.843724" y2="3337.021375" class="t" />
<line x1="3317.909177" y1="2584.550823" x2="3356.558407" y2="3244.145193" class="t" />
<line x1="2652.794599" y1="6769.010750" x2="2959.582475" y2="6124.045486" class="t" />
<line x1="2001.528946" y1="6831.722570" x2="2652.794599" y2="6769.010750" class="t" />
<line x1="7280.362632" y1="7171.417981" x2="7908.638339" y2="6804.432356" class="t" />
<line x1="3084.204354" y1="8005.870885" x2="3213.012953" y2="7389.024935" class="t" />
<line x1="2175.508466" y1="8394.910873" x2="3084.204354" y2="8005.870885" class="t" />
<line x1="13524.334202" y1="2425.909827" x2="14131.407410" y2="2750.071273" class="t" />
<line x1="13622.802889" y1="1698.090210" x2="13524.334202" y2="2425.909827" class="t" />
<line x1="4732.090335" y1="4754.509071" x2="5262.923262" y2="5234.643593" class="t" />
<line x1="4969.769283" y1="4168.755366" x2="4732.090335" y2="4754.509071" class="t" />
<line x1="5639.162795" y1="3807.708681" x2="4969.769283" y2="4168.755366" class="t" />
<line x1="5947.469114" y1="3251.002932" x2="5639.162795" y2="3807.708681" class="t" />
<line x1="12405.367786" y1="8172.472309" x2="12877.430285" y2="7868.362637" class="t" />
<line x1="12150.841270" y1="8816.386153" x2="12405.367786" y2="8172.472309" class="t" />
<line x1="16547.167624" y1="7254.818376" x2="16547.413571" y2="6591.771976" class="t" />
<line x1="17259.695503" y1="7481.155487" x2="16547.167624" y2="7254.818376" class="t" />
<line x1="2543.676215" y1="3847.591893" x2="2579.438411" y2="4349.103300" class="t" />
<line x1="1876.408344" y1="3609.216285" x2="2543.676215" y2="3847.591893" class="t" />
<line x1="6106.167326" y1="7514.688464" x2="5946.102843" y2="6789.540646" class="t" />
<line x1="6849.445173" y1="7670.000414" x2="6106.167326" y2="7514.688464" class="t" />
<line x1="12756.784152" y1="2570.604480" x2="12521.049446" y2="3069.447355" class="t" />
<line x1="12275.441210" y1="2000.407545" x2="12756.784152" y2="2570.604480" class="t" />
<line x1="12720.226724" y1="1455.775083" x2="12275.441210" y2="2000.407545" class="t" />
<line x1="12580.916014" y1="835.922821" x2="12720.226724" y2="1455.775083" class="t" />
<line x1="17050.217532" y1="1416.637451" x2="17041.005288" y2="2142.662156" class="t" />
<line x1="17641.446690" y1="1126.788977" x2="17050.217532" y2="1416.637451" class="t" />
<line x1="9108.775306" y1="7398.904768" x2="8428.947726" y2="8045.867813" class="t" />
<line x1="9625.661371" y1="7569.196465" x2="9108.775306" y2="7398.904768" class="t" />
<line x1="10479.660134" y1="7434.377373" x2="9625.661371" y2="7569.196465" class="t" />
<line x1="6611.378525" y1="7311.362376" x2="7196.694393" y2="7338.303778" class="t" />
<line x1="6146.783811" y1="6830.461392" x2="6611.378525" y2="7311.362376" class="t" />
<line x1="15737.642927" y1="2375.167091" x2="15908.070900" y2="3188.270780" class="t" />
<line x1="19038.637689" y1="4502.036757" x2="18277.719161" y2="4191.721759" class="t" />
<line x1="4593.773188" y1="3805.116506" x2="4969.769283" y2="4168.755366" class="t" />
<line x1="3614.270606" y1="8539.096600" x2="4173.495610" y2="8389.482933" class="t" />
<line x1="3323.092975" y1="9324.832765" x2="3614.270606" y2="8539.096600" class="t" />
<line x1="2655.888901" y1="5516.186473" x2="2959.582475" y2="6124.045486" class="t" />
<line x1="1967.485471" y1="5369.353766" x2="2655.888901" y2="5516.186473" class="t" />
<line x1="15236.626859" y1="9877.832537" x2="14527.034954" y2="9484.333113" class="t" />
<line x1="15256.839238" y1="10637.077752" x2="15236.626859" y2="9877.832537" class="t" />
<line x1="11804.989288" y1="7735.860212" x2="11729.110420" y2="7140.823458" class="t" />
<line x1="11125.924707" y1="8191.759245" x2="11804.989288" y2="7735.860212" class="t" />
<line x1="1764.499808" y1="2958.727879" x2="1876.408344" y2="3609.216285" class="t" />
<line x1="953.122940" y1="2598.451873" x2="1764.499808" y2="2958.727879" class="t" />
<line x1="17835.259160" y1="2590.703408" x2="17041.005288" y2="2142.662156" class="t" />
<line x1="18366.858777" y1="2092.288365" x2="17835.259160" y2="2590.703408" class="t" />
<line x1="7921.743733" y1="6315.024330" x2="7908.638339" y2="6804.432356" class="t" />
<line x1="7313.596161" y1="6310.267444" x2="7921.743733" y2="6315.024330" class="t" />
<line x1="4399.874316" y1="8992.435379" x2="4173.495610" y2="8389.482933" class="t" />
<line x1="3882.963089" y1="9650.590901" x2="4399.874316" y2="8992.435379" class="t" />
<line x1="4166.503828" y1="10099.954386" x2="3882.963089" y2="9650.590901" class="t" />
<line x1="3893.868321" y1="10792.546608" x2="4166.503828" y2="10099.954386" class="t" />
<line x1="17161.928824" y1="5653.247023" x2="16843.463834" y2="4957.656974" class="t" />
<line x1="17761.388473" y1="5509.067807" x2="17161.928824" y2="5653.247023" class="t" />
<line x1="18167.185553" y1="6081.903273" x2="17761.388473" y2="5509.067807" class="t" />
<line x1="18943.081477" y1="6045.463060" x2="18167.185553" y2="6081.903273" class="t" />
<line x1="2909.434350" y1="2186.012834" x2="3317.909177" y2="2584.550823" class="t" />
<line x1="2790.858870" y1="1488.404773" x2="2909.434350" y2="2186.012834" class="t" />
</svg>
