<?xml version="1.0"?>
<svg width="16203" height="17529" version="1.1" xmlns="http://www.w3.org/2000/svg" >
<defs>
<style type="text/css"><![CDATA[
.m {stroke:rgb(255,0,0);stroke-width:21.911250;}
.v {stroke:rgb(0,0,255);stroke-width:21.911250;}
.b {stroke:rgb(0,0,0);stroke-width:43.822500;fill:white}
.n {stroke:rgb(128,128,128);stroke-width:21.911250}
.t {stroke:rgb(0,128,0);stroke-width:21.911250;}
.c {stroke:rgb(128,128,128);stroke-width:21.911250;stroke-dasharray:162.030000, 162.030000;}
]]></style>
</defs>
<line x1="4791.493381" y1="6223.243024" x2="3349.372123" y2="6203.552169" class="m" style="stroke-width:17.720857;" />
<line x1="3349.372123" y1="6203.552169" x2="3648.837631" y2="7011.493891" class="m" style="stroke-width:11.900016;" />
<line x1="3648.837631" y1="7011.493891" x2="4791.493381" y2="6223.243024" class="m" style="stroke-width:8.754976;" />
<line x1="3648.837631" y1="7011.493891" x2="5261.944720" y2="6801.743729" class="m" style="stroke-width:8.904689;" />
<line x1="5261.944720" y1="6801.743729" x2="4791.493381" y2="6223.243024" class="m" style="stroke-width:13.047446;" />
<line x1="2255.297041" y1="6419.546042" x2="3349.372123" y2="6203.552169" class="m" style="stroke-width:10.841894;" />
<line x1="3349.372123" y1="6203.552169" x2="1966.689448" y2="5489.217297" class="m" style="stroke-width:12.413185;" />
<line x1="1966.689448" y1="5489.217297" x2="2255.297041" y2="6419.546042" class="m" style="stroke-width:10.501227;" />
<line x1="2255.297041" y1="6419.546042" x2="3648.837631" y2="7011.493891" class="m" style="stroke-width:8.860393;" />
<line x1="1435.681331" y1="10611.136116" x2="2006.731256" y2="11262.978728" class="m" style="stroke-width:9.061867;" />
<line x1="2006.731256" y1="11262.978728" x2="2382.027032" y2="10380.407423" class="m" style="stroke-width:11.206383;" />
<line x1="2382.027032" y1="10380.407423" x2="1435.681331" y2="10611.136116" class="m" style="stroke-width:10.501227;" />
<line x1="1435.681331" y1="10611.136116" x2="1107.657484" y2="11994.584627" class="m" style="stroke-width:7.503252;" />
<line x1="1107.657484" y1="11994.584627" x2="2006.731256" y2="11262.978728" class="m" style="stroke-width:11.282826;" />
<line x1="0.000000" y1="12229.541675" x2="1107.657484" y2="11994.584627" class="m" style="stroke-width:11.278577;" />
<line x1="1107.657484" y1="11994.584627" x2="199.184180" y2="11499.090737" class="m" style="stroke-width:8.444103;" />
<line x1="199.184180" y1="11499.090737" x2="0.000000" y2="12229.541675" class="m" style="stroke-width:11.341417;" />
<line x1="1435.681331" y1="10611.136116" x2="199.184180" y2="11499.090737" class="m" style="stroke-width:26.018304;" />
<line x1="1326.310846" y1="1764.325220" x2="2367.273185" y2="1077.337030" class="m" style="stroke-width:9.910824;" />
<line x1="2367.273185" y1="1077.337030" x2="1939.322510" y2="347.401456" class="m" style="stroke-width:12.054363;" />
<line x1="1939.322510" y1="347.401456" x2="1326.310846" y2="1764.325220" class="m" style="stroke-width:7.779761;" />
<line x1="1502.092135" y1="1975.678343" x2="2095.160631" y2="2446.319045" class="m" style="stroke-width:11.341417;" />
<line x1="2095.160631" y1="2446.319045" x2="2367.273185" y2="1077.337030" class="m" style="stroke-width:22.907459;" />
<line x1="2367.273185" y1="1077.337030" x2="1502.092135" y2="1975.678343" class="m" style="stroke-width:9.910824;" />
<line x1="11463.843580" y1="2733.182624" x2="12345.160554" y2="2618.148345" class="m" style="stroke-width:11.878397;" />
<line x1="12345.160554" y1="2618.148345" x2="12525.740939" y2="1437.559645" class="m" style="stroke-width:12.129389;" />
<line x1="12525.740939" y1="1437.559645" x2="11463.843580" y2="2733.182624" class="m" style="stroke-width:4.468375;" />
<line x1="2367.273185" y1="1077.337030" x2="3578.095567" y2="0.000000" class="m" style="stroke-width:25.154640;" />
<line x1="3578.095567" y1="0.000000" x2="1939.322510" y2="347.401456" class="m" style="stroke-width:4.468375;" />
<line x1="11463.843580" y1="2733.182624" x2="11537.123792" y2="3660.572471" class="m" style="stroke-width:12.111547;" />
<line x1="11537.123792" y1="3660.572471" x2="12345.160554" y2="2618.148345" class="m" style="stroke-width:9.800399;" />
<line x1="10480.333816" y1="3895.423488" x2="11537.123792" y2="3660.572471" class="m" style="stroke-width:9.935327;" />
<line x1="11463.843580" y1="2733.182624" x2="10480.333816" y2="3895.423488" class="m" style="stroke-width:19.100941;" />
<line x1="10480.333816" y1="3895.423488" x2="10486.514279" y2="4788.531211" class="m" style="stroke-width:8.208568;" />
<line x1="10486.514279" y1="4788.531211" x2="11537.123792" y2="3660.572471" class="m" style="stroke-width:8.987984;" />
<line x1="10480.333816" y1="3895.423488" x2="9989.844829" y2="4261.927431" class="m" style="stroke-width:24.238452;" />
<line x1="9989.844829" y1="4261.927431" x2="10486.514279" y2="4788.531211" class="m" style="stroke-width:8.016783;" />
<line x1="9251.829189" y1="5027.774881" x2="10486.514279" y2="4788.531211" class="m" style="stroke-width:13.291201;" />
<line x1="9989.844829" y1="4261.927431" x2="9251.829189" y2="5027.774881" class="m" style="stroke-width:12.146746;" />
<line x1="7467.835111" y1="4912.103677" x2="7982.897804" y2="5657.321659" class="m" style="stroke-width:6.985524;" />
<line x1="7982.897804" y1="5657.321659" x2="8460.131887" y2="4633.182571" class="m" style="stroke-width:15.804094;" />
<line x1="8460.131887" y1="4633.182571" x2="7467.835111" y2="4912.103677" class="m" style="stroke-width:12.247850;" />
<line x1="7467.835111" y1="4912.103677" x2="6614.991819" y2="5547.343928" class="m" style="stroke-width:17.743631;" />
<line x1="6614.991819" y1="5547.343928" x2="7982.897804" y2="5657.321659" class="m" style="stroke-width:9.508511;" />
<line x1="6614.991819" y1="5547.343928" x2="6504.135785" y2="6278.748342" class="m" style="stroke-width:13.188958;" />
<line x1="6504.135785" y1="6278.748342" x2="7982.897804" y2="5657.321659" class="m" style="stroke-width:8.164866;" />
<line x1="5261.944720" y1="6801.743729" x2="6324.171188" y2="5597.040628" class="m" style="stroke-width:5.240180;" />
<line x1="6324.171188" y1="5597.040628" x2="4791.493381" y2="6223.243024" class="m" style="stroke-width:6.015694;" />
<line x1="5261.944720" y1="6801.743729" x2="6406.142489" y2="6332.242765" class="m" style="stroke-width:11.893506;" />
<line x1="6406.142489" y1="6332.242765" x2="6324.171188" y2="5597.040628" class="m" style="stroke-width:13.188958;" />
<line x1="3716.395675" y1="7424.882032" x2="5124.550852" y2="8130.682575" class="m" style="stroke-width:10.907733;" />
<line x1="5124.550852" y1="8130.682575" x2="5234.861163" y2="6841.467795" class="m" style="stroke-width:10.441910;" />
<line x1="5234.861163" y1="6841.467795" x2="3716.395675" y2="7424.882032" class="m" style="stroke-width:8.904689;" />
<line x1="3431.986760" y1="10961.324840" x2="3688.432002" y2="10311.625303" class="m" style="stroke-width:13.764752;" />
<line x1="3688.432002" y1="10311.625303" x2="2382.027032" y2="10380.407423" class="m" style="stroke-width:5.477778;" />
<line x1="2382.027032" y1="10380.407423" x2="3431.986760" y2="10961.324840" class="m" style="stroke-width:10.657906;" />
<line x1="3600.353633" y1="9967.493062" x2="3563.690753" y2="8748.992778" class="m" style="stroke-width:11.502042;" />
<line x1="3563.690753" y1="8748.992778" x2="2335.325201" y2="9634.134407" class="m" style="stroke-width:8.860393;" />
<line x1="2335.325201" y1="9634.134407" x2="3600.353633" y2="9967.493062" class="m" style="stroke-width:5.477778;" />
<line x1="1325.129212" y1="13567.737584" x2="1381.104686" y2="12397.680807" class="m" style="stroke-width:8.087439;" />
<line x1="1381.104686" y1="12397.680807" x2="475.809890" y2="13077.792010" class="m" style="stroke-width:11.278577;" />
<line x1="475.809890" y1="13077.792010" x2="1325.129212" y2="13567.737584" class="m" style="stroke-width:9.899655;" />
<line x1="11432.187826" y1="16946.209415" x2="10588.506810" y2="16601.514598" class="m" style="stroke-width:6.857354;" />
<line x1="10588.506810" y1="16601.514598" x2="10002.628731" y2="17529.147705" class="m" style="stroke-width:9.268559;" />
<line x1="10002.628731" y1="17529.147705" x2="11432.187826" y2="16946.209415" class="m" style="stroke-width:7.779761;" />
<line x1="7681.476086" y1="17443.606364" x2="8704.786527" y2="17047.889237" class="m" style="stroke-width:9.268559;" />
<line x1="8704.786527" y1="17047.889237" x2="7741.902433" y2="16464.965146" class="m" style="stroke-width:8.131238;" />
<line x1="7741.902433" y1="16464.965146" x2="7681.476086" y2="17443.606364" class="m" style="stroke-width:9.899655;" />
<line x1="12384.631285" y1="5197.924700" x2="13519.173572" y2="3991.482123" class="m" style="stroke-width:6.729929;" />
<line x1="13519.173572" y1="3991.482123" x2="12267.124548" y2="4406.144284" class="m" style="stroke-width:9.800399;" />
<line x1="12267.124548" y1="4406.144284" x2="12384.631285" y2="5197.924700" class="m" style="stroke-width:13.173347;" />
<line x1="10848.696691" y1="5009.579189" x2="12384.631285" y2="5197.924700" class="m" style="stroke-width:9.152863;" />
<line x1="12267.124548" y1="4406.144284" x2="10848.696691" y2="5009.579189" class="m" style="stroke-width:8.987984;" />
<line x1="6504.135785" y1="6278.748342" x2="7754.264637" y2="6716.784666" class="m" style="stroke-width:8.185972;" />
<line x1="7754.264637" y1="6716.784666" x2="7982.897804" y2="5657.321659" class="m" style="stroke-width:12.757810;" />
<line x1="5261.944720" y1="6801.743729" x2="6078.273440" y2="7387.404958" class="m" style="stroke-width:9.353751;" />
<line x1="6078.273440" y1="7387.404958" x2="6406.142489" y2="6332.242765" class="m" style="stroke-width:9.117569;" />
<line x1="2006.731256" y1="11262.978728" x2="3431.986760" y2="10961.324840" class="m" style="stroke-width:4.403939;" />
<line x1="2063.396276" y1="11460.632771" x2="1381.104686" y2="12397.680807" class="m" style="stroke-width:11.282826;" />
<line x1="1381.104686" y1="12397.680807" x2="2595.353163" y2="12764.060849" class="m" style="stroke-width:11.162376;" />
<line x1="2595.353163" y1="12764.060849" x2="2063.396276" y2="11460.632771" class="m" style="stroke-width:5.807846;" />
<line x1="15066.486591" y1="7065.321107" x2="15311.488988" y2="8036.955408" class="m" style="stroke-width:11.065361;" />
<line x1="15311.488988" y1="8036.955408" x2="16203.024516" y2="7432.309522" class="m" style="stroke-width:7.353882;" />
<line x1="16203.024516" y1="7432.309522" x2="15066.486591" y2="7065.321107" class="m" style="stroke-width:12.129389;" />
<line x1="15066.486591" y1="7065.321107" x2="13424.564804" y2="6849.027932" class="m" style="stroke-width:6.729929;" />
<line x1="13424.564804" y1="6849.027932" x2="14324.210305" y2="8064.040177" class="m" style="stroke-width:7.044784;" />
<line x1="14324.210305" y1="8064.040177" x2="15066.486591" y2="7065.321107" class="m" style="stroke-width:8.015631;" />
<line x1="10848.696691" y1="5009.579189" x2="11903.754008" y2="6199.704497" class="m" style="stroke-width:8.561826;" />
<line x1="11903.754008" y1="6199.704497" x2="12384.631285" y2="5197.924700" class="m" style="stroke-width:11.702879;" />
<line x1="10848.696691" y1="5009.579189" x2="10360.539046" y2="6412.570893" class="m" style="stroke-width:10.791388;" />
<line x1="10360.539046" y1="6412.570893" x2="11903.754008" y2="6199.704497" class="m" style="stroke-width:5.657767;" />
<line x1="10236.161792" y1="6252.774100" x2="10486.514279" y2="4788.531211" class="m" style="stroke-width:10.791388;" />
<line x1="9251.829189" y1="5027.774881" x2="10236.161792" y2="6252.774100" class="m" style="stroke-width:9.894436;" />
<line x1="9251.829189" y1="5027.774881" x2="8356.619518" y2="5717.131747" class="m" style="stroke-width:15.804094;" />
<line x1="8356.619518" y1="5717.131747" x2="10236.161792" y2="6252.774100" class="m" style="stroke-width:7.412425;" />
<line x1="7137.868415" y1="7556.147266" x2="7754.264637" y2="6716.784666" class="m" style="stroke-width:11.865917;" />
<line x1="6504.135785" y1="6278.748342" x2="7137.868415" y2="7556.147266" class="m" style="stroke-width:7.737401;" />
<line x1="4608.669491" y1="9785.424082" x2="5135.412180" y2="8645.324252" class="m" style="stroke-width:8.546020;" />
<line x1="5135.412180" y1="8645.324252" x2="3563.690753" y2="8748.992778" class="m" style="stroke-width:10.907733;" />
<line x1="3563.690753" y1="8748.992778" x2="4608.669491" y2="9785.424082" class="m" style="stroke-width:6.515149;" />
<line x1="3600.353633" y1="9967.493062" x2="4608.669491" y2="9785.424082" class="m" style="stroke-width:11.112288;" />
<line x1="1325.129212" y1="13567.737584" x2="2595.353163" y2="12764.060849" class="m" style="stroke-width:9.026134;" />
<line x1="9087.207491" y1="15867.836279" x2="7741.902433" y2="16464.965146" class="m" style="stroke-width:9.840394;" />
<line x1="8704.786527" y1="17047.889237" x2="9087.207491" y2="15867.836279" class="v" style="stroke-width:5.968020;" />
<line x1="11432.187826" y1="16946.209415" x2="10924.008040" y2="15978.946831" class="m" style="stroke-width:10.029833;" />
<line x1="10924.008040" y1="15978.946831" x2="10588.506810" y2="16601.514598" class="m" style="stroke-width:12.123693;" />
<line x1="10924.008040" y1="15978.946831" x2="10226.599786" y2="15415.009612" class="m" style="stroke-width:11.498170;" />
<line x1="10226.599786" y1="15415.009612" x2="10588.506810" y2="16601.514598" class="v" style="stroke-width:5.968020;" />
<line x1="14324.210305" y1="8064.040177" x2="15311.488988" y2="8036.955408" class="v" style="stroke-width:7.122343;" />
<line x1="13396.817778" y1="7984.464605" x2="14324.210305" y2="8064.040177" class="m" style="stroke-width:9.015647;" />
<line x1="13424.564804" y1="6849.027932" x2="13396.817778" y2="7984.464605" class="m" style="stroke-width:10.241094;" />
<line x1="9004.426058" y1="7339.793834" x2="10236.161792" y2="6252.774100" class="v" style="stroke-width:5.297151;" />
<line x1="8356.619518" y1="5717.131747" x2="9004.426058" y2="7339.793834" class="m" style="stroke-width:8.256303;" />
<line x1="8356.619518" y1="5717.131747" x2="7906.376327" y2="6703.040494" class="m" style="stroke-width:12.757810;" />
<line x1="7906.376327" y1="6703.040494" x2="9004.426058" y2="7339.793834" class="m" style="stroke-width:10.475990;" />
<line x1="6078.273440" y1="7387.404958" x2="7137.868415" y2="7556.147266" class="m" style="stroke-width:4.955265;" />
<line x1="7137.868415" y1="7556.147266" x2="6406.142489" y2="6332.242765" class="m" style="stroke-width:7.737401;" />
<line x1="6078.273440" y1="7387.404958" x2="5234.861163" y2="6841.467795" class="m" style="stroke-width:9.353751;" />
<line x1="5124.550852" y1="8130.682575" x2="6078.273440" y2="7387.404958" class="m" style="stroke-width:5.755166;" />
<line x1="4608.669491" y1="9785.424082" x2="5652.537834" y2="9659.198470" class="m" style="stroke-width:10.813247;" />
<line x1="5652.537834" y1="9659.198470" x2="5135.412180" y2="8645.324252" class="m" style="stroke-width:9.850870;" />
<line x1="7592.621259" y1="16466.192176" x2="7656.212437" y2="15121.301418" class="m" style="stroke-width:8.168881;" />
<line x1="7656.212437" y1="15121.301418" x2="6537.656459" y2="15395.484723" class="m" style="stroke-width:11.157452;" />
<line x1="6537.656459" y1="15395.484723" x2="7592.621259" y2="16466.192176" class="m" style="stroke-width:9.026134;" />
<line x1="9087.207491" y1="15867.836279" x2="7656.212437" y2="15121.301418" class="m" style="stroke-width:7.887275;" />
<line x1="7656.212437" y1="15121.301418" x2="7741.902433" y2="16464.965146" class="m" style="stroke-width:8.168881;" />
<line x1="13424.564804" y1="6849.027932" x2="12383.407189" y2="7237.353232" class="m" style="stroke-width:11.702879;" />
<line x1="12383.407189" y1="7237.353232" x2="13396.817778" y2="7984.464605" class="m" style="stroke-width:8.240826;" />
<line x1="7137.868415" y1="7556.147266" x2="7969.211913" y2="8247.073937" class="m" style="stroke-width:8.038740;" />
<line x1="7969.211913" y1="8247.073937" x2="7754.264637" y2="6716.784666" class="m" style="stroke-width:5.470984;" />
<line x1="4573.032852" y1="11606.289419" x2="4631.905850" y2="9911.991619" class="m" style="stroke-width:8.214566;" />
<line x1="4631.905850" y1="9911.991619" x2="3688.432002" y2="10311.625303" class="m" style="stroke-width:11.112288;" />
<line x1="3688.432002" y1="10311.625303" x2="4573.032852" y2="11606.289419" class="m" style="stroke-width:5.402899;" />
<line x1="8868.063707" y1="14591.224997" x2="7656.212437" y2="15121.301418" class="m" style="stroke-width:9.907988;" />
<line x1="9087.207491" y1="15867.836279" x2="8868.063707" y2="14591.224997" class="m" style="stroke-width:10.148734;" />
<line x1="14315.716179" y1="9472.543755" x2="13542.135189" y2="8954.893658" class="m" style="stroke-width:9.015647;" />
<line x1="13542.135189" y1="8954.893658" x2="13127.371567" y2="9940.149550" class="m" style="stroke-width:10.699689;" />
<line x1="13127.371567" y1="9940.149550" x2="14315.716179" y2="9472.543755" class="v" style="stroke-width:17.595345;" />
<line x1="12183.656963" y1="8712.220858" x2="13396.817778" y2="7984.464605" class="m" style="stroke-width:6.772570;" />
<line x1="12383.407189" y1="7237.353232" x2="12183.656963" y2="8712.220858" class="v" style="stroke-width:5.985946;" />
<line x1="7969.211913" y1="8247.073937" x2="9004.426058" y2="7339.793834" class="m" style="stroke-width:10.054277;" />
<line x1="7906.376327" y1="6703.040494" x2="7969.211913" y2="8247.073937" class="m" style="stroke-width:5.470984;" />
<line x1="4573.032852" y1="11606.289419" x2="5867.888213" y2="10797.524036" class="m" style="stroke-width:10.945396;" />
<line x1="5867.888213" y1="10797.524036" x2="4631.905850" y2="9911.991619" class="m" style="stroke-width:5.434617;" />
<line x1="5867.888213" y1="10797.524036" x2="5652.537834" y2="9659.198470" class="m" style="stroke-width:10.258158;" />
<line x1="5652.537834" y1="9659.198470" x2="4631.905850" y2="9911.991619" class="m" style="stroke-width:10.813247;" />
<line x1="8868.063707" y1="14591.224997" x2="7232.099918" y2="13749.961278" class="m" style="stroke-width:9.529964;" />
<line x1="7232.099918" y1="13749.961278" x2="7656.212437" y2="15121.301418" class="m" style="stroke-width:9.864992;" />
<line x1="12138.685908" y1="9132.990386" x2="13127.371567" y2="9940.149550" class="m" style="stroke-width:11.361484;" />
<line x1="13542.135189" y1="8954.893658" x2="12138.685908" y2="9132.990386" class="m" style="stroke-width:6.772570;" />
<line x1="7969.211913" y1="8247.073937" x2="9021.852745" y2="8602.964937" class="m" style="stroke-width:7.151734;" />
<line x1="9021.852745" y1="8602.964937" x2="9004.426058" y2="7339.793834" class="v" style="stroke-width:5.490319;" />
<line x1="7971.989636" y1="13277.069888" x2="7232.099918" y2="13749.961278" class="m" style="stroke-width:12.480770;" />
<line x1="8868.063707" y1="14591.224997" x2="7971.989636" y2="13277.069888" class="m" style="stroke-width:5.655087;" />
<line x1="12532.976486" y1="10756.050348" x2="13127.371567" y2="9940.149550" class="m" style="stroke-width:12.291892;" />
<line x1="12138.685908" y1="9132.990386" x2="12532.976486" y2="10756.050348" class="m" style="stroke-width:6.654724;" />
<line x1="7969.211913" y1="8247.073937" x2="7977.893739" y2="9016.383111" class="m" style="stroke-width:10.729619;" />
<line x1="7977.893739" y1="9016.383111" x2="9021.852745" y2="8602.964937" class="m" style="stroke-width:9.869125;" />
<line x1="7374.620860" y1="11106.440484" x2="6372.663845" y2="11205.221262" class="m" style="stroke-width:13.387057;" />
<line x1="6372.663845" y1="11205.221262" x2="6917.966575" y2="12507.623837" class="m" style="stroke-width:8.767338;" />
<line x1="6917.966575" y1="12507.623837" x2="7374.620860" y2="11106.440484" class="m" style="stroke-width:7.648832;" />
<line x1="9245.023298" y1="13346.804696" x2="7971.989636" y2="13277.069888" class="m" style="stroke-width:10.297230;" />
<line x1="7971.989636" y1="13277.069888" x2="8956.056932" y2="14526.695411" class="m" style="stroke-width:5.655087;" />
<line x1="8956.056932" y1="14526.695411" x2="9245.023298" y2="13346.804696" class="m" style="stroke-width:8.933040;" />
<line x1="12138.685908" y1="9132.990386" x2="11135.379855" y2="10026.560926" class="m" style="stroke-width:7.492512;" />
<line x1="11135.379855" y1="10026.560926" x2="12532.976486" y2="10756.050348" class="m" style="stroke-width:11.293241;" />
<line x1="7977.893739" y1="9016.383111" x2="7907.859337" y2="10255.266986" class="m" style="stroke-width:9.201670;" />
<line x1="7907.859337" y1="10255.266986" x2="9596.223650" y2="9927.754829" class="m" style="stroke-width:8.263249;" />
<line x1="9596.223650" y1="9927.754829" x2="7977.893739" y2="9016.383111" class="m" style="stroke-width:8.344607;" />
<line x1="7977.893739" y1="9016.383111" x2="9730.134761" y2="9632.208987" class="m" style="stroke-width:8.344607;" />
<line x1="9730.134761" y1="9632.208987" x2="9021.852745" y2="8602.964937" class="m" style="stroke-width:7.186861;" />
<line x1="7091.686791" y1="12552.744822" x2="8193.535792" y2="12169.804098" class="m" style="stroke-width:10.727980;" />
<line x1="8193.535792" y1="12169.804098" x2="7374.620860" y2="11106.440484" class="m" style="stroke-width:8.567248;" />
<line x1="7374.620860" y1="11106.440484" x2="7091.686791" y2="12552.744822" class="m" style="stroke-width:7.648832;" />
<line x1="7091.686791" y1="12552.744822" x2="7971.989636" y2="13277.069888" class="m" style="stroke-width:5.644498;" />
<line x1="7971.989636" y1="13277.069888" x2="8193.535792" y2="12169.804098" class="m" style="stroke-width:9.680728;" />
<line x1="9245.023298" y1="13346.804696" x2="8193.535792" y2="12169.804098" class="m" style="stroke-width:6.322455;" />
<line x1="11111.862020" y1="12978.595616" x2="9681.087036" y2="12270.335926" class="m" style="stroke-width:10.122280;" />
<line x1="9681.087036" y1="12270.335926" x2="9407.501956" y2="13178.388520" class="m" style="stroke-width:12.621848;" />
<line x1="9407.501956" y1="13178.388520" x2="11111.862020" y2="12978.595616" class="v" style="stroke-width:6.336188;" />
<line x1="8193.535792" y1="12169.804098" x2="8853.437022" y2="11229.019229" class="m" style="stroke-width:11.799669;" />
<line x1="8853.437022" y1="11229.019229" x2="7374.620860" y2="11106.440484" class="m" style="stroke-width:6.700024;" />
<line x1="10684.299414" y1="10865.273574" x2="9868.614955" y2="12088.530005" class="m" style="stroke-width:10.522036;" />
<line x1="9868.614955" y1="12088.530005" x2="11457.998764" y2="12238.889412" class="m" style="stroke-width:10.122280;" />
<line x1="11457.998764" y1="12238.889412" x2="10684.299414" y2="10865.273574" class="m" style="stroke-width:11.293241;" />
<line x1="7907.859337" y1="10255.266986" x2="8853.437022" y2="11229.019229" class="m" style="stroke-width:10.927670;" />
<line x1="8853.437022" y1="11229.019229" x2="9596.223650" y2="9927.754829" class="m" style="stroke-width:12.090656;" />
<line x1="7907.859337" y1="10255.266986" x2="7374.620860" y2="11106.440484" class="m" style="stroke-width:13.851399;" />
<line x1="9681.087036" y1="12270.335926" x2="8853.437022" y2="11229.019229" class="m" style="stroke-width:11.705428;" />
<line x1="8193.535792" y1="12169.804098" x2="9681.087036" y2="12270.335926" class="m" style="stroke-width:7.802224;" />
<line x1="8193.535792" y1="12169.804098" x2="9407.501956" y2="13178.388520" class="m" style="stroke-width:6.322455;" />
<line x1="8853.437022" y1="11229.019229" x2="9868.614955" y2="12088.530005" class="m" style="stroke-width:11.705428;" />
<line x1="10684.299414" y1="10865.273574" x2="8853.437022" y2="11229.019229" class="m" style="stroke-width:5.971811;" />
<line x1="10684.299414" y1="10865.273574" x2="9596.223650" y2="9927.754829" class="m" style="stroke-width:8.873168;" />
<line x1="3961.105575" y1="4074.766571" x2="5583.248040" y2="5334.215093" class="m" style="stroke-width:27.803004;" />
<line x1="5583.248040" y1="5334.215093" x2="5018.463302" y2="4776.443820" class="v" style="stroke-width:20.509334;" />
<line x1="5018.463302" y1="4776.443820" x2="3961.105575" y2="4074.766571" class="v" style="stroke-width:52.317877;" />
<line x1="5583.248040" y1="5334.215093" x2="3994.590488" y2="4032.783597" class="m" style="stroke-width:27.803004;" />
<line x1="3994.590488" y1="4032.783597" x2="3899.729866" y2="4391.991711" class="m" style="stroke-width:8.329046;" />
<line x1="3899.729866" y1="4391.991711" x2="5583.248040" y2="5334.215093" class="v" style="stroke-width:5.060114;" />
<line x1="4970.116542" y1="5358.621846" x2="5583.248040" y2="5334.215093" class="m" style="stroke-width:16.610498;" />
<line x1="3899.729866" y1="4391.991711" x2="4970.116542" y2="5358.621846" class="m" style="stroke-width:17.720857;" />
<line x1="3994.590488" y1="4032.783597" x2="3658.300341" y2="2854.527086" class="m" style="stroke-width:15.117489;" />
<line x1="3658.300341" y1="2854.527086" x2="3899.729866" y2="4391.991711" class="m" style="stroke-width:12.413185;" />
<line x1="3122.177866" y1="3626.944183" x2="2706.425878" y2="3840.501031" class="v" style="stroke-width:7.181717;" />
<line x1="2706.425878" y1="3840.501031" x2="3843.609279" y2="4296.783158" class="m" style="stroke-width:15.117489;" />
<line x1="3843.609279" y1="4296.783158" x2="3122.177866" y2="3626.944183" class="v" style="stroke-width:24.713500;" />
<line x1="3122.177866" y1="3626.944183" x2="2528.300071" y2="2548.928638" class="v" style="stroke-width:36.385695;" />
<line x1="2528.300071" y1="2548.928638" x2="2706.425878" y2="3840.501031" class="v" style="stroke-width:6.925413;" />
<line x1="2528.300071" y1="2548.928638" x2="2095.160631" y2="2446.319045" class="v" style="stroke-width:7.477335;" />
<line x1="2095.160631" y1="2446.319045" x2="2706.425878" y2="3840.501031" class="m" style="stroke-width:26.018304;" />
<line x1="2367.273185" y1="1077.337030" x2="3215.860965" y2="712.848582" class="v" style="stroke-width:5.838791;" />
<line x1="3215.860965" y1="712.848582" x2="3578.095567" y2="0.000000" class="v" style="stroke-width:8.558532;" />
<line x1="11463.843580" y1="2733.182624" x2="11114.006295" y2="2014.168798" class="v" style="stroke-width:8.558532;" />
<line x1="11114.006295" y1="2014.168798" x2="10480.333816" y2="3895.423488" class="v" style="stroke-width:39.082022;" />
<line x1="8217.004122" y1="3391.224900" x2="8613.738116" y2="2924.848739" class="m" style="stroke-width:24.238452;" />
<line x1="8613.738116" y1="2924.848739" x2="8311.379197" y2="2819.281526" class="v" style="stroke-width:25.706278;" />
<line x1="8311.379197" y1="2819.281526" x2="8217.004122" y2="3391.224900" class="v" style="stroke-width:23.581364;" />
<line x1="7758.272149" y1="4049.642109" x2="7467.835111" y2="4912.103677" class="v" style="stroke-width:6.032121;" />
<line x1="7467.835111" y1="4912.103677" x2="8291.292207" y2="3449.777239" class="m" style="stroke-width:19.563432;" />
<line x1="8291.292207" y1="3449.777239" x2="7758.272149" y2="4049.642109" class="v" style="stroke-width:42.303370;" />
<line x1="8460.131887" y1="4633.182571" x2="8475.043166" y2="3569.713222" class="m" style="stroke-width:12.146746;" />
<line x1="8475.043166" y1="3569.713222" x2="7467.835111" y2="4912.103677" class="m" style="stroke-width:19.563432;" />
<line x1="7758.272149" y1="4049.642109" x2="7266.326541" y2="4684.182832" class="v" style="stroke-width:41.070113;" />
<line x1="7266.326541" y1="4684.182832" x2="7467.835111" y2="4912.103677" class="v" style="stroke-width:7.596851;" />
<line x1="7467.835111" y1="4912.103677" x2="5583.248040" y2="5334.215093" class="m" style="stroke-width:12.146865;" />
<line x1="5583.248040" y1="5334.215093" x2="6614.991819" y2="5547.343928" class="m" style="stroke-width:15.705962;" />
<line x1="7266.326541" y1="4684.182832" x2="5583.248040" y2="5334.215093" class="m" style="stroke-width:10.347306;" />
<line x1="7266.326541" y1="4684.182832" x2="5925.004213" y2="5067.323105" class="v" style="stroke-width:48.943932;" />
<line x1="5925.004213" y1="5067.323105" x2="5583.248040" y2="5334.215093" class="v" style="stroke-width:11.839633;" />
<line x1="4970.116542" y1="5358.621846" x2="6614.991819" y2="5547.343928" class="m" style="stroke-width:6.015694;" />
<line x1="3843.609279" y1="4296.783158" x2="5018.463302" y2="4776.443820" class="v" style="stroke-width:52.317877;" />
<line x1="5018.463302" y1="4776.443820" x2="4627.749349" y2="3881.146744" class="v" style="stroke-width:5.172575;" />
<line x1="4627.749349" y1="3881.146744" x2="3843.609279" y2="4296.783158" class="m" style="stroke-width:26.575425;" />
<line x1="4627.749349" y1="3881.146744" x2="3122.177866" y2="3626.944183" class="v" style="stroke-width:19.740843;" />
<line x1="2528.300071" y1="2548.928638" x2="2647.748554" y2="1514.967121" class="v" style="stroke-width:39.342301;" />
<line x1="2647.748554" y1="1514.967121" x2="2095.160631" y2="2446.319045" class="m" style="stroke-width:4.405938;" />
<line x1="2647.748554" y1="1514.967121" x2="2367.273185" y2="1077.337030" class="v" style="stroke-width:6.742994;" />
<line x1="2647.748554" y1="1514.967121" x2="3215.860965" y2="712.848582" class="v" style="stroke-width:38.478749;" />
<line x1="5925.004213" y1="5067.323105" x2="5018.463302" y2="4776.443820" class="v" style="stroke-width:40.158462;" />
<line x1="3805.309069" y1="2192.538910" x2="2528.300071" y2="2548.928638" class="m" style="stroke-width:11.548054;" />
<line x1="3122.177866" y1="3626.944183" x2="3805.309069" y2="2192.538910" class="m" style="stroke-width:7.734549;" />
<line x1="4627.749349" y1="3881.146744" x2="4159.878217" y2="2822.218144" class="m" style="stroke-width:9.880244;" />
<line x1="4159.878217" y1="2822.218144" x2="3122.177866" y2="3626.944183" class="m" style="stroke-width:16.120275;" />
<line x1="3161.102849" y1="1696.359772" x2="3805.309069" y2="2192.538910" class="m" style="stroke-width:15.725477;" />
<line x1="3805.309069" y1="2192.538910" x2="3053.212508" y2="925.304236" class="v" style="stroke-width:12.443113;" />
<line x1="3053.212508" y1="925.304236" x2="3161.102849" y2="1696.359772" class="m" style="stroke-width:15.832882;" />
<line x1="3805.309069" y1="2192.538910" x2="4066.651413" y2="1363.807428" class="m" style="stroke-width:20.564044;" />
<line x1="4066.651413" y1="1363.807428" x2="3053.212508" y2="925.304236" class="m" style="stroke-width:17.419727;" />
<line x1="3499.476119" y1="2119.824791" x2="2647.748554" y2="1514.967121" class="m" style="stroke-width:7.432110;" />
<line x1="2528.300071" y1="2548.928638" x2="3499.476119" y2="2119.824791" class="m" style="stroke-width:10.604375;" />
<line x1="3559.055050" y1="1211.911278" x2="3343.088746" y2="2053.608520" class="m" style="stroke-width:20.564044;" />
<line x1="3343.088746" y1="2053.608520" x2="4159.878217" y2="2822.218144" class="m" style="stroke-width:16.867261;" />
<line x1="4159.878217" y1="2822.218144" x2="3559.055050" y2="1211.911278" class="m" style="stroke-width:4.976835;" />
<line x1="5773.538907" y1="3544.071856" x2="3960.132112" y2="3427.059145" class="m" style="stroke-width:20.135955;" />
<line x1="3960.132112" y1="3427.059145" x2="5113.534368" y2="4323.398721" class="m" style="stroke-width:11.359566;" />
<line x1="5113.534368" y1="4323.398721" x2="5773.538907" y2="3544.071856" class="m" style="stroke-width:15.452427;" />
<line x1="4871.255533" y1="2775.854927" x2="4627.749349" y2="3881.146744" class="m" style="stroke-width:11.730255;" />
<line x1="4627.749349" y1="3881.146744" x2="5675.869195" y2="3995.017859" class="m" style="stroke-width:10.155504;" />
<line x1="5675.869195" y1="3995.017859" x2="4871.255533" y2="2775.854927" class="m" style="stroke-width:11.359566;" />
<line x1="10842.033600" y1="1141.579298" x2="10788.708417" y2="38.628761" class="m" style="stroke-width:17.419727;" />
<line x1="10788.708417" y1="38.628761" x2="9542.190169" y2="1256.693026" class="m" style="stroke-width:19.661654;" />
<line x1="9542.190169" y1="1256.693026" x2="10842.033600" y2="1141.579298" class="m" style="stroke-width:10.132656;" />
<line x1="9542.190169" y1="1256.693026" x2="10071.953546" y2="1794.376643" class="m" style="stroke-width:15.855148;" />
<line x1="10071.953546" y1="1794.376643" x2="10842.033600" y2="1141.579298" class="m" style="stroke-width:11.145902;" />
<line x1="9542.190169" y1="1256.693026" x2="8831.564861" y2="2220.466176" class="m" style="stroke-width:16.356171;" />
<line x1="8831.564861" y1="2220.466176" x2="10071.953546" y2="1794.376643" class="m" style="stroke-width:5.881005;" />
<line x1="8065.087949" y1="3819.472821" x2="9329.918969" y2="3253.914962" class="m" style="stroke-width:4.445195;" />
<line x1="9329.918969" y1="3253.914962" x2="8165.941300" y2="3223.908456" class="m" style="stroke-width:16.733485;" />
<line x1="8165.941300" y1="3223.908456" x2="8065.087949" y2="3819.472821" class="m" style="stroke-width:18.930818;" />
<line x1="8165.941300" y1="3223.908456" x2="6895.103826" y2="3964.538245" class="m" style="stroke-width:10.127900;" />
<line x1="6895.103826" y1="3964.538245" x2="8065.087949" y2="3819.472821" class="m" style="stroke-width:12.431569;" />
<line x1="5873.845985" y1="3505.288108" x2="6094.130615" y2="4224.118882" class="m" style="stroke-width:12.803124;" />
<line x1="6094.130615" y1="4224.118882" x2="6895.103826" y2="3964.538245" class="m" style="stroke-width:11.847916;" />
<line x1="6895.103826" y1="3964.538245" x2="5873.845985" y2="3505.288108" class="m" style="stroke-width:16.319269;" />
<line x1="5113.534368" y1="4323.398721" x2="6094.130615" y2="4224.118882" class="m" style="stroke-width:7.446992;" />
<line x1="6094.130615" y1="4224.118882" x2="5773.538907" y2="3544.071856" class="m" style="stroke-width:12.803124;" />
<line x1="11114.006295" y1="2014.168798" x2="10363.065995" y2="1051.521011" class="m" style="stroke-width:6.646197;" />
<line x1="10363.065995" y1="1051.521011" x2="10300.493151" y2="2059.118303" class="m" style="stroke-width:11.145902;" />
<line x1="10300.493151" y1="2059.118303" x2="11114.006295" y2="2014.168798" class="m" style="stroke-width:15.920620;" />
<line x1="2647.748554" y1="1514.967121" x2="3634.908110" y2="1859.583768" class="m" style="stroke-width:11.941869;" />
<line x1="3634.908110" y1="1859.583768" x2="3215.860965" y2="712.848582" class="m" style="stroke-width:6.646197;" />
<line x1="8831.564861" y1="2220.466176" x2="8613.738116" y2="2924.848739" class="m" style="stroke-width:41.253821;" />
<line x1="8613.738116" y1="2924.848739" x2="10071.953546" y2="1794.376643" class="m" style="stroke-width:9.033778;" />
<line x1="10300.493151" y1="2059.118303" x2="10480.333816" y2="3895.423488" class="m" style="stroke-width:9.033778;" />
<line x1="8831.564861" y1="2220.466176" x2="8311.379197" y2="2819.281526" class="v" style="stroke-width:28.920505;" />
<line x1="8311.379197" y1="2819.281526" x2="7811.184801" y2="2203.669217" class="v" style="stroke-width:28.920505;" />
<line x1="7811.184801" y1="2203.669217" x2="7349.318901" y2="3509.936070" class="m" style="stroke-width:4.445195;" />
<line x1="7349.318901" y1="3509.936070" x2="8311.379197" y2="2819.281526" class="v" style="stroke-width:23.269128;" />
<line x1="7349.318901" y1="3509.936070" x2="8217.004122" y2="3391.224900" class="m" style="stroke-width:34.059393;" />
<line x1="7349.318901" y1="3509.936070" x2="7758.272149" y2="4049.642109" class="v" style="stroke-width:5.461346;" />
<line x1="7758.272149" y1="4049.642109" x2="8217.004122" y2="3391.224900" class="v" style="stroke-width:42.303370;" />
<line x1="7349.318901" y1="3509.936070" x2="7266.326541" y2="4684.182832" class="m" style="stroke-width:6.842720;" />
<line x1="7266.326541" y1="4684.182832" x2="8065.087949" y2="3819.472821" class="m" style="stroke-width:6.842720;" />
<line x1="6895.103826" y1="3964.538245" x2="7266.326541" y2="4684.182832" class="m" style="stroke-width:15.041701;" />
<line x1="6094.130615" y1="4224.118882" x2="5925.004213" y2="5067.323105" class="m" style="stroke-width:14.378948;" />
<line x1="7266.326541" y1="4684.182832" x2="6094.130615" y2="4224.118882" class="m" style="stroke-width:5.631712;" />
<line x1="5113.534368" y1="4323.398721" x2="5925.004213" y2="5067.323105" class="m" style="stroke-width:8.373516;" />
<line x1="5925.004213" y1="5067.323105" x2="5675.869195" y2="3995.017859" class="m" style="stroke-width:8.373516;" />
<line x1="5675.869195" y1="3995.017859" x2="5018.463302" y2="4776.443820" class="m" style="stroke-width:12.368314;" />
<line x1="4871.255533" y1="2775.854927" x2="4011.871859" y2="2900.877346" class="m" style="stroke-width:19.682187;" />
<line x1="4011.871859" y1="2900.877346" x2="4627.749349" y2="3881.146744" class="m" style="stroke-width:9.880244;" />
<line x1="3343.088746" y1="2053.608520" x2="3122.177866" y2="3626.944183" class="m" style="stroke-width:7.734549;" />
<line x1="3161.102849" y1="1696.359772" x2="2528.300071" y2="2548.928638" class="m" style="stroke-width:10.604375;" />
<line x1="3499.476119" y1="2119.824791" x2="3682.230964" y2="1363.010658" class="m" style="stroke-width:15.832882;" />
<line x1="3682.230964" y1="1363.010658" x2="2647.748554" y2="1514.967121" class="m" style="stroke-width:11.941869;" />
<line x1="7876.733788" y1="2869.110024" x2="5873.845985" y2="3505.288108" class="m" style="stroke-width:15.007063;" />
<line x1="6895.103826" y1="3964.538245" x2="7876.733788" y2="2869.110024" class="m" style="stroke-width:10.127900;" />
<line x1="4871.255533" y1="2775.854927" x2="3715.992064" y2="1207.793819" class="m" style="stroke-width:18.561837;" />
<line x1="3715.992064" y1="1207.793819" x2="4011.871859" y2="2900.877346" class="m" style="stroke-width:4.976835;" />
<line x1="7876.733788" y1="2869.110024" x2="6512.553528" y2="1979.974628" class="m" style="stroke-width:7.938889;" />
<line x1="6512.553528" y1="1979.974628" x2="5873.845985" y2="3505.288108" class="m" style="stroke-width:9.056798;" />
<line x1="9608.694952" y1="2089.384600" x2="8165.941300" y2="3223.908456" class="m" style="stroke-width:16.517121;" />
<line x1="9329.918969" y1="3253.914962" x2="9608.694952" y2="2089.384600" class="m" style="stroke-width:16.356171;" />
<line x1="7876.733788" y1="2869.110024" x2="7786.438143" y2="1035.935407" class="m" style="stroke-width:16.517121;" />
<line x1="7786.438143" y1="1035.935407" x2="6512.553528" y2="1979.974628" class="m" style="stroke-width:7.734303;" />
<line x1="5773.538907" y1="3544.071856" x2="4967.090493" y2="2100.406559" class="m" style="stroke-width:9.056798;" />
<line x1="4967.090493" y1="2100.406559" x2="3960.132112" y2="3427.059145" class="m" style="stroke-width:7.057437;" />
<line x1="4967.090493" y1="2100.406559" x2="3498.782787" y2="1534.810187" class="m" style="stroke-width:8.703358;" />
<line x1="3498.782787" y1="1534.810187" x2="3960.132112" y2="3427.059145" class="m" style="stroke-width:18.561837;" />
<line x1="7786.438143" y1="1035.935407" x2="6145.038737" y2="450.020494" class="m" style="stroke-width:19.661654;" />
<line x1="6145.038737" y1="450.020494" x2="6512.553528" y2="1979.974628" class="m" style="stroke-width:8.703358;" />
<line x1="6740.890878" y1="13699.969125" x2="4957.266422" y2="13766.884049" class="m" style="stroke-width:9.980415;" />
<line x1="4957.266422" y1="13766.884049" x2="5265.179894" y2="14706.088512" class="m" style="stroke-width:14.980598;" />
<line x1="5265.179894" y1="14706.088512" x2="6740.890878" y2="13699.969125" class="m" style="stroke-width:7.732904;" />
<line x1="5664.715000" y1="12557.833654" x2="6740.890878" y2="13699.969125" class="m" style="stroke-width:9.349036;" />
<line x1="6740.890878" y1="13699.969125" x2="6917.966575" y2="12507.623837" class="m" style="stroke-width:11.242135;" />
<line x1="6917.966575" y1="12507.623837" x2="5664.715000" y2="12557.833654" class="m" style="stroke-width:10.229763;" />
<line x1="5664.715000" y1="12557.833654" x2="4957.266422" y2="13766.884049" class="m" style="stroke-width:10.862072;" />
<line x1="7232.099918" y1="13749.961278" x2="6537.656459" y2="15395.484723" class="m" style="stroke-width:7.732904;" />
<line x1="6372.663845" y1="11205.221262" x2="5664.715000" y2="12557.833654" class="m" style="stroke-width:10.945396;" />
<line x1="3431.986760" y1="10961.324840" x2="4573.032852" y2="11606.289419" class="m" style="stroke-width:9.660075;" />
<line x1="3431.986760" y1="10961.324840" x2="3230.740962" y2="12006.962391" class="m" style="stroke-width:13.486975;" />
<line x1="3230.740962" y1="12006.962391" x2="4573.032852" y2="11606.289419" class="m" style="stroke-width:10.862072;" />
<line x1="2063.396276" y1="11460.632771" x2="3230.740962" y2="12006.962391" class="m" style="stroke-width:10.861381;" />
<line x1="3431.986760" y1="10961.324840" x2="2063.396276" y2="11460.632771" class="m" style="stroke-width:4.403939;" />
<line x1="2595.353163" y1="12764.060849" x2="3230.740962" y2="12006.962391" class="m" style="stroke-width:14.980598;" />
<line x1="7091.686791" y1="12552.744822" x2="7232.099918" y2="13749.961278" class="m" style="stroke-width:11.242135;" />
<line x1="5652.537834" y1="9659.198470" x2="6579.967312" y2="8357.401984" class="m" style="stroke-width:6.143665;" />
<line x1="6579.967312" y1="8357.401984" x2="5135.412180" y2="8645.324252" class="m" style="stroke-width:11.902269;" />
<line x1="6844.538086" y1="9531.312941" x2="6579.967312" y2="8357.401984" class="m" style="stroke-width:15.045698;" />
<line x1="5652.537834" y1="9659.198470" x2="6844.538086" y2="9531.312941" class="m" style="stroke-width:11.493607;" />
<line x1="5867.888213" y1="10797.524036" x2="6844.538086" y2="9531.312941" class="m" style="stroke-width:11.209634;" />
<line x1="7907.859337" y1="10255.266986" x2="6372.663845" y2="11205.221262" class="v" style="stroke-width:9.505460;" />
<line x1="7907.859337" y1="10255.266986" x2="6844.538086" y2="9531.312941" class="m" style="stroke-width:13.110280;" />
<line x1="6844.538086" y1="9531.312941" x2="6275.125530" y2="11025.603693" class="m" style="stroke-width:11.209634;" />
<line x1="6275.125530" y1="11025.603693" x2="7907.859337" y2="10255.266986" class="v" style="stroke-width:9.505460;" />
<line x1="7977.893739" y1="9016.383111" x2="6844.538086" y2="9531.312941" class="m" style="stroke-width:11.119657;" />
<line x1="7977.893739" y1="9016.383111" x2="6579.967312" y2="8357.401984" class="m" style="stroke-width:7.582036;" />
<line x1="7969.211913" y1="8247.073937" x2="6579.967312" y2="8357.401984" class="m" style="stroke-width:8.404968;" />
<line x1="7137.868415" y1="7556.147266" x2="6579.967312" y2="8357.401984" class="m" style="stroke-width:12.829121;" />
<line x1="6078.273440" y1="7387.404958" x2="6579.967312" y2="8357.401984" class="m" style="stroke-width:11.594077;" />
<line x1="5124.550852" y1="8130.682575" x2="6579.967312" y2="8357.401984" class="m" style="stroke-width:11.902269;" />
<line x1="11260.415884" y1="14743.931574" x2="9430.923832" y2="14392.923442" class="m" style="stroke-width:4.760746;" />
<line x1="9430.923832" y1="14392.923442" x2="10226.599786" y2="15415.009612" class="m" style="stroke-width:10.148734;" />
<line x1="10226.599786" y1="15415.009612" x2="11260.415884" y2="14743.931574" class="m" style="stroke-width:10.595678;" />
<line x1="11260.415884" y1="14743.931574" x2="10664.601893" y2="13777.438614" class="m" style="stroke-width:16.271959;" />
<line x1="10664.601893" y1="13777.438614" x2="9430.923832" y2="14392.923442" class="m" style="stroke-width:11.511535;" />
<line x1="10924.008040" y1="15978.946831" x2="11260.415884" y2="14743.931574" class="m" style="stroke-width:11.743276;" />
<line x1="10664.601893" y1="13777.438614" x2="9407.501956" y2="13178.388520" class="m" style="stroke-width:12.303146;" />
<line x1="9407.501956" y1="13178.388520" x2="9430.923832" y2="14392.923442" class="m" style="stroke-width:8.933040;" />
<line x1="10664.601893" y1="13777.438614" x2="11111.862020" y2="12978.595616" class="m" style="stroke-width:15.637801;" />
<line x1="10664.601893" y1="13777.438614" x2="11469.729903" y2="14577.983329" class="m" style="stroke-width:16.271959;" />
<line x1="11469.729903" y1="14577.983329" x2="11111.862020" y2="12978.595616" class="m" style="stroke-width:5.363201;" />
<line x1="12532.976486" y1="10756.050348" x2="14124.051477" y2="11149.230778" class="m" style="stroke-width:5.363201;" />
<line x1="14124.051477" y1="11149.230778" x2="14052.923653" y2="9935.759582" class="m" style="stroke-width:15.157269;" />
<line x1="14052.923653" y1="9935.759582" x2="12532.976486" y2="10756.050348" class="v" style="stroke-width:4.993129;" />
<line x1="14052.923653" y1="9935.759582" x2="13127.371567" y2="9940.149550" class="m" style="stroke-width:24.036721;" />
<line x1="14124.051477" y1="11149.230778" x2="15168.446051" y2="10372.017578" class="m" style="stroke-width:7.486384;" />
<line x1="15168.446051" y1="10372.017578" x2="14052.923653" y2="9935.759582" class="m" style="stroke-width:11.761199;" />
<line x1="14124.051477" y1="11149.230778" x2="15377.757321" y2="11407.406258" class="m" style="stroke-width:11.743276;" />
<line x1="15377.757321" y1="11407.406258" x2="15168.446051" y2="10372.017578" class="m" style="stroke-width:8.114174;" />
<line x1="15377.757321" y1="11407.406258" x2="16198.769546" y2="10686.446808" class="m" style="stroke-width:10.029833;" />
<line x1="16198.769546" y1="10686.446808" x2="15168.446051" y2="10372.017578" class="m" style="stroke-width:7.353882;" />
<line x1="14330.962657" y1="9513.316343" x2="13127.371567" y2="9940.149550" class="v" style="stroke-width:17.595345;" />
<line x1="14052.923653" y1="9935.759582" x2="14330.962657" y2="9513.316343" class="m" style="stroke-width:19.732774;" />
<line x1="14052.923653" y1="9935.759582" x2="15249.269102" y2="9876.862839" class="m" style="stroke-width:11.761199;" />
<line x1="15249.269102" y1="9876.862839" x2="14330.962657" y2="9513.316343" class="v" style="stroke-width:7.122343;" />
<line x1="10780.339198" y1="8775.024873" x2="10704.673025" y2="7178.147033" class="m" style="stroke-width:10.782137;" />
<line x1="10704.673025" y1="7178.147033" x2="9659.523482" y2="8119.308749" class="m" style="stroke-width:10.565966;" />
<line x1="9659.523482" y1="8119.308749" x2="10780.339198" y2="8775.024873" class="m" style="stroke-width:11.173263;" />
<line x1="9659.523482" y1="8119.308749" x2="9760.703511" y2="9610.489763" class="m" style="stroke-width:6.944502;" />
<line x1="9760.703511" y1="9610.489763" x2="10780.339198" y2="8775.024873" class="m" style="stroke-width:12.682263;" />
<line x1="11762.563169" y1="7721.886114" x2="10704.673025" y2="7178.147033" class="m" style="stroke-width:15.672563;" />
<line x1="10780.339198" y1="8775.024873" x2="11762.563169" y2="7721.886114" class="m" style="stroke-width:9.522980;" />
<line x1="9659.523482" y1="8119.308749" x2="10537.387051" y2="7020.455484" class="m" style="stroke-width:10.565966;" />
<line x1="10537.387051" y1="7020.455484" x2="9004.426058" y2="7339.793834" class="m" style="stroke-width:11.283235;" />
<line x1="9004.426058" y1="7339.793834" x2="9659.523482" y2="8119.308749" class="m" style="stroke-width:11.626706;" />
<line x1="9760.703511" y1="9610.489763" x2="11135.379855" y2="10026.560926" class="m" style="stroke-width:8.873168;" />
<line x1="11135.379855" y1="10026.560926" x2="10780.339198" y2="8775.024873" class="m" style="stroke-width:12.127499;" />
<line x1="12138.685908" y1="9132.990386" x2="10780.339198" y2="8775.024873" class="m" style="stroke-width:9.535022;" />
<line x1="10780.339198" y1="8775.024873" x2="12183.656963" y2="8712.220858" class="m" style="stroke-width:9.535022;" />
<line x1="12183.656963" y1="8712.220858" x2="11762.563169" y2="7721.886114" class="m" style="stroke-width:12.479722;" />
<line x1="12383.407189" y1="7237.353232" x2="11762.563169" y2="7721.886114" class="m" style="stroke-width:15.755751;" />
<line x1="11725.624652" y1="6966.835088" x2="11903.754008" y2="6199.704497" class="m" style="stroke-width:15.755751;" />
<line x1="10360.539046" y1="6412.570893" x2="11725.624652" y2="6966.835088" class="v" style="stroke-width:7.071373;" />
<line x1="10360.539046" y1="6412.570893" x2="10537.387051" y2="7020.455484" class="m" style="stroke-width:18.667415;" />
<line x1="10537.387051" y1="7020.455484" x2="11725.624652" y2="6966.835088" class="m" style="stroke-width:15.672563;" />
<line x1="10360.539046" y1="6412.570893" x2="9004.426058" y2="7339.793834" class="v" style="stroke-width:5.297151;" />
<line x1="9021.852745" y1="8602.964937" x2="9659.523482" y2="8119.308749" class="m" style="stroke-width:11.975626;" />
<line x1="9021.852745" y1="8602.964937" x2="9760.703511" y2="9610.489763" class="m" style="stroke-width:7.186861;" />
<text x="4386.822231" y="4831.868411" transform="rotate(42.084126 4386.822231 4831.868411)" fill="darkgreen" font-weight="bold" font-size="324.060000">2</text>
<text x="4135.238711" y="6214.282463" transform="rotate(-179.217717 4135.238711 6214.282463)" fill="darkgreen" font-weight="bold" font-size="324.060000">2</text>
<text x="4391.120227" y="6914.975876" transform="rotate(-7.408527 4391.120227 6914.975876)" fill="darkgreen" font-weight="bold" font-size="324.060000">3</text>
<text x="4536.128567" y="7109.929968" transform="rotate(158.982565 4536.128567 7109.929968)" fill="darkgreen" font-weight="bold" font-size="324.060000">3</text>
<text x="1971.821695" y="10480.419650" transform="rotate(166.298021 1971.821695 10480.419650)" fill="darkgreen" font-weight="bold" font-size="324.060000">5</text>
<text x="2091.790006" y="5892.479885" transform="rotate(72.765004 2091.790006 5892.479885)" fill="darkgreen" font-weight="bold" font-size="324.060000">5</text>
<text x="2715.612314" y="5876.133059" transform="rotate(-152.677774 2715.612314 5876.133059)" fill="darkgreen" font-weight="bold" font-size="324.060000">7</text>
<text x="3768.960822" y="3559.232008" transform="rotate(81.075663 3768.960822 3559.232008)" fill="darkgreen" font-weight="bold" font-size="324.060000">7</text>
<text x="2892.414121" y="6690.180487" transform="rotate(23.014802 2892.414121 6690.180487)" fill="darkgreen" font-weight="bold" font-size="324.060000">8</text>
<text x="3002.090554" y="9153.673383" transform="rotate(144.224041 3002.090554 9153.673383)" fill="darkgreen" font-weight="bold" font-size="324.060000">8</text>
<text x="1798.550305" y="11824.367867" transform="rotate(126.059431 1798.550305 11824.367867)" fill="darkgreen" font-weight="bold" font-size="324.060000">12</text>
<text x="1456.652063" y="11710.596259" transform="rotate(-39.136381 1456.652063 11710.596259)" fill="darkgreen" font-weight="bold" font-size="324.060000">12</text>
<text x="1697.089292" y="2130.422019" transform="rotate(38.434420 1697.089292 2130.422019)" fill="darkgreen" font-weight="bold" font-size="324.060000">13</text>
<text x="133.693686" y="11739.258369" transform="rotate(105.252944 133.693686 11739.258369)" fill="darkgreen" font-weight="bold" font-size="324.060000">13</text>
<text x="427.026108" y="12138.960610" transform="rotate(-11.976102 427.026108 12138.960610)" fill="darkgreen" font-weight="bold" font-size="324.060000">14</text>
<text x="1032.093806" y="12659.878503" transform="rotate(143.083942 1032.093806 12659.878503)" fill="darkgreen" font-weight="bold" font-size="324.060000">14</text>
<text x="922.720811" y="10979.503859" transform="rotate(144.317069 922.720811 10979.503859)" fill="darkgreen" font-weight="bold" font-size="324.060000">16</text>
<text x="2348.743859" y="3024.695077" transform="rotate(66.325425 2348.743859 3024.695077)" fill="darkgreen" font-weight="bold" font-size="324.060000">16</text>
<text x="10597.379900" y="17286.623118" transform="rotate(-22.184400 10597.379900 17286.623118)" fill="darkgreen" font-weight="bold" font-size="324.060000">18</text>
<text x="1684.286251" y="936.895845" transform="rotate(113.395021 1684.286251 936.895845)" fill="darkgreen" font-weight="bold" font-size="324.060000">18</text>
<text x="1738.604363" y="1492.230096" transform="rotate(-33.423009 1738.604363 1492.230096)" fill="darkgreen" font-weight="bold" font-size="324.060000">19</text>
<text x="2024.601290" y="1433.142697" transform="rotate(133.922763 2024.601290 1433.142697)" fill="darkgreen" font-weight="bold" font-size="324.060000">19</text>
<text x="12415.851675" y="2155.987745" transform="rotate(-81.303556 12415.851675 2155.987745)" fill="darkgreen" font-weight="bold" font-size="324.060000">21</text>
<text x="15758.108306" y="7288.645953" transform="rotate(-162.104708 15758.108306 7288.645953)" fill="darkgreen" font-weight="bold" font-size="324.060000">21</text>
<text x="2885.515067" y="146.819276" transform="rotate(168.031121 2885.515067 146.819276)" fill="darkgreen" font-weight="bold" font-size="324.060000">22</text>
<text x="12076.960432" y="1985.117592" transform="rotate(129.338165 12076.960432 1985.117592)" fill="darkgreen" font-weight="bold" font-size="324.060000">22</text>
<text x="11861.728479" y="3241.809646" transform="rotate(-52.218885 11861.728479 3241.809646)" fill="darkgreen" font-weight="bold" font-size="324.060000">26</text>
<text x="13016.200192" y="4158.060288" transform="rotate(161.675800 13016.200192 4158.060288)" fill="darkgreen" font-weight="bold" font-size="324.060000">26</text>
<text x="11677.189331" y="4657.117571" transform="rotate(156.953869 11677.189331 4657.117571)" fill="darkgreen" font-weight="bold" font-size="324.060000">29</text>
<text x="10923.470976" y="4319.404367" transform="rotate(-47.033408 10923.470976 4319.404367)" fill="darkgreen" font-weight="bold" font-size="324.060000">29</text>
<text x="8331.381724" y="3256.769604" transform="rotate(-49.613055 8331.381724 3256.769604)" fill="darkgreen" font-weight="bold" font-size="324.060000">32</text>
<text x="10338.926841" y="4001.085827" transform="rotate(143.232114 10338.926841 4001.085827)" fill="darkgreen" font-weight="bold" font-size="324.060000">32</text>
<text x="8465.770201" y="4231.059157" transform="rotate(-89.196683 8465.770201 4231.059157)" fill="darkgreen" font-weight="bold" font-size="324.060000">34</text>
<text x="9710.783313" y="4551.512826" transform="rotate(133.939748 9710.783313 4551.512826)" fill="darkgreen" font-weight="bold" font-size="324.060000">34</text>
<text x="8906.926734" y="5293.367270" transform="rotate(142.401896 8906.926734 5293.367270)" fill="darkgreen" font-weight="bold" font-size="324.060000">36</text>
<text x="8166.764458" y="5262.745844" transform="rotate(-65.015154 8166.764458 5262.745844)" fill="darkgreen" font-weight="bold" font-size="324.060000">36</text>
<text x="6379.520255" y="6093.467446" transform="rotate(-96.361908 6379.520255 6093.467446)" fill="darkgreen" font-weight="bold" font-size="324.060000">41</text>
<text x="6578.988543" y="5784.885842" transform="rotate(98.618490 6578.988543 5784.885842)" fill="darkgreen" font-weight="bold" font-size="324.060000">41</text>
<text x="5677.827380" y="5861.115725" transform="rotate(157.776660 5677.827380 5861.115725)" fill="darkgreen" font-weight="bold" font-size="324.060000">43</text>
<text x="5663.775017" y="5438.207620" transform="rotate(6.545118 5663.775017 5438.207620)" fill="darkgreen" font-weight="bold" font-size="324.060000">43</text>
<text x="4304.590804" y="7719.699285" transform="rotate(26.621106 4304.590804 7719.699285)" fill="darkgreen" font-weight="bold" font-size="324.060000">45</text>
<text x="4478.894416" y="8688.627237" transform="rotate(176.226308 4478.894416 8688.627237)" fill="darkgreen" font-weight="bold" font-size="324.060000">45</text>
<text x="2842.494485" y="9767.783000" transform="rotate(14.762894 2842.494485 9767.783000)" fill="darkgreen" font-weight="bold" font-size="324.060000">49</text>
<text x="3164.674230" y="10339.201109" transform="rotate(176.986155 3164.674230 10339.201109)" fill="darkgreen" font-weight="bold" font-size="324.060000">49</text>
<text x="788.188459" y="13257.993371" transform="rotate(29.979292 788.188459 13257.993371)" fill="darkgreen" font-weight="bold" font-size="324.060000">52</text>
<text x="7719.677699" y="16824.908144" transform="rotate(93.533246 7719.677699 16824.908144)" fill="darkgreen" font-weight="bold" font-size="324.060000">52</text>
<text x="8072.232076" y="17292.499885" transform="rotate(-21.141630 8072.232076 17292.499885)" fill="darkgreen" font-weight="bold" font-size="324.060000">54</text>
<text x="10364.786462" y="16955.735740" transform="rotate(122.275838 10364.786462 16955.735740)" fill="darkgreen" font-weight="bold" font-size="324.060000">54</text>
<text x="14374.039428" y="6974.103854" transform="rotate(-172.495529 14374.039428 6974.103854)" fill="darkgreen" font-weight="bold" font-size="324.060000">57</text>
<text x="12863.101450" y="4689.132049" transform="rotate(-46.759209 12863.101450 4689.132049)" fill="darkgreen" font-weight="bold" font-size="324.060000">57</text>
<text x="8185.345060" y="6092.175701" transform="rotate(114.545148 8185.345060 6092.175701)" fill="darkgreen" font-weight="bold" font-size="324.060000">60</text>
<text x="7841.237683" y="6313.760354" transform="rotate(-77.822257 7841.237683 6313.760354)" fill="darkgreen" font-weight="bold" font-size="324.060000">60</text>
<text x="5564.786705" y="7019.012588" transform="rotate(35.656906 5564.786705 7019.012588)" fill="darkgreen" font-weight="bold" font-size="324.060000">61</text>
<text x="5765.383984" y="7184.872950" transform="rotate(-147.085182 5765.383984 7184.872950)" fill="darkgreen" font-weight="bold" font-size="324.060000">61</text>
<text x="2592.544245" y="11138.992000" transform="rotate(-11.950238 2592.544245 11138.992000)" fill="darkgreen" font-weight="bold" font-size="324.060000">63</text>
<text x="2869.464406" y="11166.551952" transform="rotate(159.956318 2869.464406 11166.551952)" fill="darkgreen" font-weight="bold" font-size="324.060000">63</text>
<text x="15649.977885" y="7807.389774" transform="rotate(-34.145404 15649.977885 7807.389774)" fill="darkgreen" font-weight="bold" font-size="324.060000">67</text>
<text x="15807.587084" y="10567.067603" transform="rotate(-163.029099 15807.587084 10567.067603)" fill="darkgreen" font-weight="bold" font-size="324.060000">67</text>
<text x="13025.437412" y="6997.892294" transform="rotate(159.545756 13025.437412 6997.892294)" fill="darkgreen" font-weight="bold" font-size="324.060000">71</text>
<text x="12088.098136" y="5815.672578" transform="rotate(-64.357923 12088.098136 5815.672578)" fill="darkgreen" font-weight="bold" font-size="324.060000">71</text>
<text x="10647.214522" y="5588.649935" transform="rotate(109.184850 10647.214522 5588.649935)" fill="darkgreen" font-weight="bold" font-size="324.060000">73</text>
<text x="10339.492268" y="5648.422542" transform="rotate(-80.297529 10339.492268 5648.422542)" fill="darkgreen" font-weight="bold" font-size="324.060000">73</text>
<text x="6763.393965" y="6801.328537" transform="rotate(63.613446 6763.393965 6801.328537)" fill="darkgreen" font-weight="bold" font-size="324.060000">77</text>
<text x="6838.521461" y="7055.451485" transform="rotate(-120.873590 6838.521461 7055.451485)" fill="darkgreen" font-weight="bold" font-size="324.060000">77</text>
<text x="3976.950421" y="9899.491956" transform="rotate(-10.235460 3976.950421 9899.491956)" fill="darkgreen" font-weight="bold" font-size="324.060000">80</text>
<text x="4279.526962" y="10061.251160" transform="rotate(157.043600 4279.526962 10061.251160)" fill="darkgreen" font-weight="bold" font-size="324.060000">80</text>
<text x="1850.701247" y="13235.205658" transform="rotate(-32.321730 1850.701247 13235.205658)" fill="darkgreen" font-weight="bold" font-size="324.060000">81</text>
<text x="6974.162160" y="15838.504156" transform="rotate(45.424320 6974.162160 15838.504156)" fill="darkgreen" font-weight="bold" font-size="324.060000">81</text>
<text x="8856.035659" y="16581.173227" transform="rotate(-72.043989 8856.035659 16581.173227)" fill="darkgreen" font-weight="bold" font-size="324.060000">82</text>
<text x="10369.735567" y="15884.277426" transform="rotate(73.037274 10369.735567 15884.277426)" fill="darkgreen" font-weight="bold" font-size="324.060000">82</text>
<text x="15690.862903" y="11132.457334" transform="rotate(-41.287493 15690.862903 11132.457334)" fill="darkgreen" font-weight="bold" font-size="324.060000">85</text>
<text x="11238.385684" y="16577.329020" transform="rotate(-117.716502 11238.385684 16577.329020)" fill="darkgreen" font-weight="bold" font-size="324.060000">85</text>
<text x="14688.274398" y="8054.052529" transform="rotate(-1.571445 14688.274398 8054.052529)" fill="darkgreen" font-weight="bold" font-size="324.060000">87</text>
<text x="14910.638877" y="9742.803199" transform="rotate(-158.401973 14910.638877 9742.803199)" fill="darkgreen" font-weight="bold" font-size="324.060000">87</text>
<text x="14036.655198" y="9285.807077" transform="rotate(-146.211104 14036.655198 9285.807077)" fill="darkgreen" font-weight="bold" font-size="324.060000">89</text>
<text x="13731.364609" y="8013.170633" transform="rotate(4.904292 13731.364609 8013.170633)" fill="darkgreen" font-weight="bold" font-size="324.060000">89</text>
<text x="9789.485850" y="6803.020382" transform="rotate(145.638180 9789.485850 6803.020382)" fill="darkgreen" font-weight="bold" font-size="324.060000">90</text>
<text x="9523.104540" y="6882.054621" transform="rotate(-41.428739 9523.104540 6882.054621)" fill="darkgreen" font-weight="bold" font-size="324.060000">90</text>
<text x="5001.917069" y="9737.872188" transform="rotate(-6.894788 5001.917069 9737.872188)" fill="darkgreen" font-weight="bold" font-size="324.060000">95</text>
<text x="5268.043891" y="9754.431068" transform="rotate(166.088763 5268.043891 9754.431068)" fill="darkgreen" font-weight="bold" font-size="324.060000">95</text>
<text x="7618.294608" y="15923.226137" transform="rotate(-87.292865 7618.294608 15923.226137)" fill="darkgreen" font-weight="bold" font-size="324.060000">97</text>
<text x="7690.807631" y="15663.772074" transform="rotate(86.350990 7690.807631 15663.772074)" fill="darkgreen" font-weight="bold" font-size="324.060000">97</text>
<text x="7929.887947" y="7280.782023" transform="rotate(87.669587 7929.887947 7280.782023)" fill="darkgreen" font-weight="bold" font-size="324.060000">101</text>
<text x="7888.783624" y="7674.475159" transform="rotate(-97.995557 7888.783624 7674.475159)" fill="darkgreen" font-weight="bold" font-size="324.060000">101</text>
<text x="9010.531430" y="15421.163679" transform="rotate(-99.740484 9010.531430 15421.163679)" fill="darkgreen" font-weight="bold" font-size="324.060000">105</text>
<text x="9709.322317" y="14750.540434" transform="rotate(52.099872 9709.322317 14750.540434)" fill="darkgreen" font-weight="bold" font-size="324.060000">105</text>
<text x="13912.420866" y="9661.745105" transform="rotate(160.473801 13912.420866 9661.745105)" fill="darkgreen" font-weight="bold" font-size="324.060000">108</text>
<text x="13540.611484" y="9777.542359" transform="rotate(-21.479310 13540.611484 9777.542359)" fill="darkgreen" font-weight="bold" font-size="324.060000">108</text>
<text x="13033.299663" y="9019.464529" transform="rotate(172.767852 13033.299663 9019.464529)" fill="darkgreen" font-weight="bold" font-size="324.060000">110</text>
<text x="12623.501373" y="8448.365056" transform="rotate(-30.958885 12623.501373 8448.365056)" fill="darkgreen" font-weight="bold" font-size="324.060000">110</text>
<text x="6108.852876" y="11709.260486" transform="rotate(117.627272 6108.852876 11709.260486)" fill="darkgreen" font-weight="bold" font-size="324.060000">112</text>
<text x="5055.549421" y="11304.910045" transform="rotate(-31.988857 5055.549421 11304.910045)" fill="darkgreen" font-weight="bold" font-size="324.060000">112</text>
<text x="8529.564573" y="14094.792413" transform="rotate(-124.288633 8529.564573 14094.792413)" fill="darkgreen" font-weight="bold" font-size="324.060000">120</text>
<text x="8343.728914" y="13749.125906" transform="rotate(51.779927 8343.728914 13749.125906)" fill="darkgreen" font-weight="bold" font-size="324.060000">120</text>
<text x="7270.482900" y="11638.773633" transform="rotate(101.068727 7270.482900 11638.773633)" fill="darkgreen" font-weight="bold" font-size="324.060000">127</text>
<text x="7086.044764" y="11991.898116" transform="rotate(-71.948888 7086.044764 11991.898116)" fill="darkgreen" font-weight="bold" font-size="324.060000">127</text>
<text x="9054.287827" y="14125.604717" transform="rotate(-76.238591 9054.287827 14125.604717)" fill="darkgreen" font-weight="bold" font-size="324.060000">130</text>
<text x="9415.463961" y="13591.256126" transform="rotate(88.895203 9415.463961 13591.256126)" fill="darkgreen" font-weight="bold" font-size="324.060000">130</text>
<text x="11166.570985" y="11721.492295" transform="rotate(-119.390704 11166.570985 11721.492295)" fill="darkgreen" font-weight="bold" font-size="324.060000">131</text>
<text x="11661.809769" y="10301.336240" transform="rotate(27.562753 11661.809769 10301.336240)" fill="darkgreen" font-weight="bold" font-size="324.060000">131</text>
<text x="8670.577319" y="9259.827060" transform="rotate(19.364046 8670.577319 9259.827060)" fill="darkgreen" font-weight="bold" font-size="324.060000">134</text>
<text x="8956.476867" y="9567.477780" transform="rotate(-150.613707 8956.476867 9567.477780)" fill="darkgreen" font-weight="bold" font-size="324.060000">134</text>
<text x="9486.218854" y="9277.761196" transform="rotate(-124.534089 9486.218854 9277.761196)" fill="darkgreen" font-weight="bold" font-size="324.060000">136</text>
<text x="9276.295821" y="8949.933131" transform="rotate(53.746188 9276.295821 8949.933131)" fill="darkgreen" font-weight="bold" font-size="324.060000">136</text>
<text x="8650.964128" y="12549.843598" transform="rotate(39.720396 8650.964128 12549.843598)" fill="darkgreen" font-weight="bold" font-size="324.060000">141</text>
<text x="8848.817708" y="12903.305164" transform="rotate(-131.776381 8848.817708 12903.305164)" fill="darkgreen" font-weight="bold" font-size="324.060000">141</text>
<text x="10570.729226" y="12710.725022" transform="rotate(-153.663743 10570.729226 12710.725022)" fill="darkgreen" font-weight="bold" font-size="324.060000">143</text>
<text x="10469.735125" y="12145.397372" transform="rotate(5.404230 10469.735125 12145.397372)" fill="darkgreen" font-weight="bold" font-size="324.060000">143</text>
<text x="9212.633272" y="11533.136407" transform="rotate(40.253260 9212.633272 11533.136407)" fill="darkgreen" font-weight="bold" font-size="324.060000">152</text>
<text x="9388.243021" y="11901.891104" transform="rotate(-128.478058 9388.243021 11901.891104)" fill="darkgreen" font-weight="bold" font-size="324.060000">152</text>
<text x="10261.943007" y="9762.199146" transform="rotate(16.839407 10261.943007 9762.199146)" fill="darkgreen" font-weight="bold" font-size="324.060000">154</text>
<text x="10287.561266" y="10523.432074" transform="rotate(-139.250818 10287.561266 10523.432074)" fill="darkgreen" font-weight="bold" font-size="324.060000">154</text>
<text x="4251.025062" y="4463.119844" transform="rotate(22.208845 4251.025062 4463.119844)" fill="darkgreen" font-weight="bold" font-size="324.060000">155</text>
<text x="4651.792874" y="4533.116240" transform="rotate(-146.431188 4651.792874 4533.116240)" fill="darkgreen" font-weight="bold" font-size="324.060000">155</text>
<text x="4618.596616" y="4585.249551" transform="rotate(37.826140 4618.596616 4585.249551)" fill="darkgreen" font-weight="bold" font-size="324.060000">156</text>
<text x="4939.329192" y="4806.715463" transform="rotate(-140.675588 4939.329192 4806.715463)" fill="darkgreen" font-weight="bold" font-size="324.060000">156</text>
<text x="3879.809072" y="3630.625067" transform="rotate(-105.929448 3879.809072 3630.625067)" fill="darkgreen" font-weight="bold" font-size="324.060000">161</text>
<text x="3094.565473" y="3996.237704" transform="rotate(21.862571 3094.565473 3996.237704)" fill="darkgreen" font-weight="bold" font-size="324.060000">161</text>
<text x="11373.993220" y="2548.514910" transform="rotate(-115.945303 11373.993220 2548.514910)" fill="darkgreen" font-weight="bold" font-size="324.060000">168</text>
<text x="3308.895387" y="529.764317" transform="rotate(-63.062558 3308.895387 529.764317)" fill="darkgreen" font-weight="bold" font-size="324.060000">168</text>
<text x="8153.932279" y="3604.363159" transform="rotate(131.623224 8153.932279 3604.363159)" fill="darkgreen" font-weight="bold" font-size="324.060000">172</text>
<text x="7876.487946" y="3879.967180" transform="rotate(-55.134326 7876.487946 3879.967180)" fill="darkgreen" font-weight="bold" font-size="324.060000">172</text>
<text x="8088.131524" y="4085.382743" transform="rotate(126.881231 8088.131524 4085.382743)" fill="darkgreen" font-weight="bold" font-size="324.060000">174</text>
<text x="7784.160160" y="4350.361621" transform="rotate(-60.615508 7784.160160 4350.361621)" fill="darkgreen" font-weight="bold" font-size="324.060000">174</text>
<text x="3380.140814" y="3085.286283" transform="rotate(-64.534012 3380.140814 3085.286283)" fill="darkgreen" font-weight="bold" font-size="324.060000">190</text>
<text x="3259.668722" y="2647.729099" transform="rotate(97.992601 3259.668722 2647.729099)" fill="darkgreen" font-weight="bold" font-size="324.060000">190</text>
<text x="4472.393914" y="3529.532159" transform="rotate(-113.837487 4472.393914 3529.532159)" fill="darkgreen" font-weight="bold" font-size="324.060000">192</text>
<text x="4216.372434" y="3226.373340" transform="rotate(57.859930 4216.372434 3226.373340)" fill="darkgreen" font-weight="bold" font-size="324.060000">192</text>
<text x="3080.213614" y="1118.271947" transform="rotate(82.034571 3080.213614 1118.271947)" fill="darkgreen" font-weight="bold" font-size="324.060000">194</text>
<text x="3545.213141" y="1930.421195" transform="rotate(-76.424155 3545.213141 1930.421195)" fill="darkgreen" font-weight="bold" font-size="324.060000">194</text>
<text x="3877.503189" y="1963.607234" transform="rotate(-72.497210 3877.503189 1963.607234)" fill="darkgreen" font-weight="bold" font-size="324.060000">197</text>
<text x="3499.395765" y="1444.424661" transform="rotate(104.390746 3499.395765 1444.424661)" fill="darkgreen" font-weight="bold" font-size="324.060000">197</text>
<text x="10824.760585" y="784.313180" transform="rotate(-92.767962 10824.760585 784.313180)" fill="darkgreen" font-weight="bold" font-size="324.060000">198</text>
<text x="3738.379771" y="1221.768118" transform="rotate(-156.602419 3738.379771 1221.768118)" fill="darkgreen" font-weight="bold" font-size="324.060000">198</text>
<text x="2836.038706" y="2412.957583" transform="rotate(-23.837729 2836.038706 2412.957583)" fill="darkgreen" font-weight="bold" font-size="324.060000">199</text>
<text x="2960.585277" y="1966.515095" transform="rotate(126.583932 2960.585277 1966.515095)" fill="darkgreen" font-weight="bold" font-size="324.060000">199</text>
<text x="3927.435882" y="2199.233697" transform="rotate(-110.461091 3927.435882 2199.233697)" fill="darkgreen" font-weight="bold" font-size="324.060000">201</text>
<text x="3830.460005" y="1862.802332" transform="rotate(80.087207 3830.460005 1862.802332)" fill="darkgreen" font-weight="bold" font-size="324.060000">201</text>
<text x="5380.662779" y="3547.716580" transform="rotate(-123.423696 5380.662779 3547.716580)" fill="darkgreen" font-weight="bold" font-size="324.060000">204</text>
<text x="4383.306317" y="3755.919077" transform="rotate(37.851727 4383.306317 3755.919077)" fill="darkgreen" font-weight="bold" font-size="324.060000">204</text>
<text x="10304.514348" y="511.770244" transform="rotate(135.661452 10304.514348 511.770244)" fill="darkgreen" font-weight="bold" font-size="324.060000">208</text>
<text x="7148.857539" y="808.344254" transform="rotate(-160.355429 7148.857539 808.344254)" fill="darkgreen" font-weight="bold" font-size="324.060000">208</text>
<text x="10343.831036" y="1361.257501" transform="rotate(93.553559 10343.831036 1361.257501)" fill="darkgreen" font-weight="bold" font-size="324.060000">211</text>
<text x="10308.676982" y="1593.706038" transform="rotate(-40.287963 10308.676982 1593.706038)" fill="darkgreen" font-weight="bold" font-size="324.060000">211</text>
<text x="9424.040074" y="2860.743058" transform="rotate(-76.537358 9424.040074 2860.743058)" fill="darkgreen" font-weight="bold" font-size="324.060000">212</text>
<text x="9302.266921" y="1582.084735" transform="rotate(126.402707 9302.266921 1582.084735)" fill="darkgreen" font-weight="bold" font-size="324.060000">212</text>
<text x="8520.003688" y="3616.061324" transform="rotate(-24.091377 8520.003688 3616.061324)" fill="darkgreen" font-weight="bold" font-size="324.060000">216</text>
<text x="7645.067696" y="2673.487984" transform="rotate(109.472416 7645.067696 2673.487984)" fill="darkgreen" font-weight="bold" font-size="324.060000">216</text>
<text x="7256.159065" y="3561.626646" transform="rotate(-48.135994 7256.159065 3561.626646)" fill="darkgreen" font-weight="bold" font-size="324.060000">217</text>
<text x="7698.512080" y="3496.320949" transform="rotate(149.766840 7698.512080 3496.320949)" fill="darkgreen" font-weight="bold" font-size="324.060000">217</text>
<text x="6016.745611" y="4059.967905" transform="rotate(-115.240393 6016.745611 4059.967905)" fill="darkgreen" font-weight="bold" font-size="324.060000">220</text>
<text x="5927.018686" y="3678.800775" transform="rotate(72.962390 5927.018686 3678.800775)" fill="darkgreen" font-weight="bold" font-size="324.060000">220</text>
<text x="10858.127897" y="1686.152344" transform="rotate(-127.957000 10858.127897 1686.152344)" fill="darkgreen" font-weight="bold" font-size="324.060000">223</text>
<text x="3492.120311" y="1468.840638" transform="rotate(-110.073625 3492.120311 1468.840638)" fill="darkgreen" font-weight="bold" font-size="324.060000">223</text>
<text x="2957.756790" y="1623.190759" transform="rotate(19.244055 2957.756790 1623.190759)" fill="darkgreen" font-weight="bold" font-size="324.060000">225</text>
<text x="3357.361428" y="1410.731166" transform="rotate(171.643500 3357.361428 1410.731166)" fill="darkgreen" font-weight="bold" font-size="324.060000">225</text>
<text x="10371.461840" y="2783.760706" transform="rotate(84.406505 10371.461840 2783.760706)" fill="darkgreen" font-weight="bold" font-size="324.060000">227</text>
<text x="9189.178812" y="2478.742055" transform="rotate(-37.784399 9189.178812 2478.742055)" fill="darkgreen" font-weight="bold" font-size="324.060000">227</text>
<text x="8698.983729" y="2373.087869" transform="rotate(130.980554 8698.983729 2373.087869)" fill="darkgreen" font-weight="bold" font-size="324.060000">228</text>
<text x="8183.893294" y="2662.378746" transform="rotate(-129.094378 8183.893294 2662.378746)" fill="darkgreen" font-weight="bold" font-size="324.060000">228</text>
<text x="7533.774568" y="4394.653338" transform="rotate(-47.270309 7533.774568 4394.653338)" fill="darkgreen" font-weight="bold" font-size="324.060000">232</text>
<text x="7321.530700" y="3903.107268" transform="rotate(94.042772 7321.530700 3903.107268)" fill="darkgreen" font-weight="bold" font-size="324.060000">232</text>
<text x="5844.439152" y="4720.561988" transform="rotate(-103.079807 5844.439152 4720.561988)" fill="darkgreen" font-weight="bold" font-size="324.060000">236</text>
<text x="5375.946765" y="4563.968326" transform="rotate(42.513400 5375.946765 4563.968326)" fill="darkgreen" font-weight="bold" font-size="324.060000">236</text>
<text x="4408.953343" y="2148.363360" transform="rotate(-126.380793 4408.953343 2148.363360)" fill="darkgreen" font-weight="bold" font-size="324.060000">240</text>
<text x="3683.401109" y="2292.032121" transform="rotate(76.298031 3683.401109 2292.032121)" fill="darkgreen" font-weight="bold" font-size="324.060000">240</text>
<text x="5465.137340" y="2991.986152" transform="rotate(-119.188233 5465.137340 2991.986152)" fill="darkgreen" font-weight="bold" font-size="324.060000">241</text>
<text x="6268.299334" y="2563.284186" transform="rotate(112.720933 6268.299334 2563.284186)" fill="darkgreen" font-weight="bold" font-size="324.060000">241</text>
<text x="7841.151593" y="2146.723274" transform="rotate(-92.819902 7841.151593 2146.723274)" fill="darkgreen" font-weight="bold" font-size="324.060000">243</text>
<text x="9040.158757" y="2536.458760" transform="rotate(141.819896 9040.158757 2536.458760)" fill="darkgreen" font-weight="bold" font-size="324.060000">243</text>
<text x="6283.381963" y="1025.939604" transform="rotate(76.492727 6283.381963 1025.939604)" fill="darkgreen" font-weight="bold" font-size="324.060000">246</text>
<text x="4414.376887" y="1887.499680" transform="rotate(-158.933162 4414.376887 1887.499680)" fill="darkgreen" font-weight="bold" font-size="324.060000">246</text>
<text x="2788.053687" y="12534.447895" transform="rotate(-49.995256 2788.053687 12534.447895)" fill="darkgreen" font-weight="bold" font-size="324.060000">247</text>
<text x="5050.650474" y="14051.726144" transform="rotate(71.848525 5050.650474 14051.726144)" fill="darkgreen" font-weight="bold" font-size="324.060000">247</text>
<text x="5842.384655" y="14312.558270" transform="rotate(-34.285624 5842.384655 14312.558270)" fill="darkgreen" font-weight="bold" font-size="324.060000">248</text>
<text x="6960.477578" y="14393.585929" transform="rotate(112.880701 6960.477578 14393.585929)" fill="darkgreen" font-weight="bold" font-size="324.060000">248</text>
<text x="7139.244557" y="12958.240673" transform="rotate(83.310734 7139.244557 12958.240673)" fill="darkgreen" font-weight="bold" font-size="324.060000">251</text>
<text x="6800.866215" y="13296.123133" transform="rotate(-81.552717 6800.866215 13296.123133)" fill="darkgreen" font-weight="bold" font-size="324.060000">251</text>
<text x="3715.574210" y="11862.240085" transform="rotate(-16.620318 3715.574210 11862.240085)" fill="darkgreen" font-weight="bold" font-size="324.060000">253</text>
<text x="5409.185935" y="12994.540331" transform="rotate(120.333068 5409.185935 12994.540331)" fill="darkgreen" font-weight="bold" font-size="324.060000">253</text>
<text x="5660.140114" y="8214.114695" transform="rotate(8.854163 5660.140114 8214.114695)" fill="darkgreen" font-weight="bold" font-size="324.060000">258</text>
<text x="6048.374988" y="8463.356588" transform="rotate(168.727772 6048.374988 8463.356588)" fill="darkgreen" font-weight="bold" font-size="324.060000">258</text>
<text x="6237.461758" y="10318.377786" transform="rotate(-52.356392 6237.461758 10318.377786)" fill="darkgreen" font-weight="bold" font-size="324.060000">261</text>
<text x="6629.066991" y="10096.766690" transform="rotate(110.859774 6629.066991 10096.766690)" fill="darkgreen" font-weight="bold" font-size="324.060000">261</text>
<text x="6915.645822" y="10723.401160" transform="rotate(-25.258307 6915.645822 10723.401160)" fill="darkgreen" font-weight="bold" font-size="324.060000">262</text>
<text x="7305.603256" y="10627.933362" transform="rotate(148.251436 7305.603256 10627.933362)" fill="darkgreen" font-weight="bold" font-size="324.060000">262</text>
<text x="10929.286998" y="14040.616964" transform="rotate(44.836451 10929.286998 14040.616964)" fill="darkgreen" font-weight="bold" font-size="324.060000">272</text>
<text x="11064.542574" y="14426.197889" transform="rotate(-121.652583 11064.542574 14426.197889)" fill="darkgreen" font-weight="bold" font-size="324.060000">272</text>
<text x="14560.464477" y="11239.101250" transform="rotate(11.636245 14560.464477 11239.101250)" fill="darkgreen" font-weight="bold" font-size="324.060000">273</text>
<text x="11041.111073" y="15549.039995" transform="rotate(-74.762777 11041.111073 15549.039995)" fill="darkgreen" font-weight="bold" font-size="324.060000">273</text>
<text x="13139.755970" y="10905.995398" transform="rotate(13.880628 13139.755970 10905.995398)" fill="darkgreen" font-weight="bold" font-size="324.060000">276</text>
<text x="11333.251804" y="13968.033667" transform="rotate(-102.612358 11333.251804 13968.033667)" fill="darkgreen" font-weight="bold" font-size="324.060000">276</text>
<text x="14791.765783" y="10224.705629" transform="rotate(-158.640540 14791.765783 10224.705629)" fill="darkgreen" font-weight="bold" font-size="324.060000">281</text>
<text x="14456.895572" y="9915.871823" transform="rotate(-2.818427 14456.895572 9915.871823)" fill="darkgreen" font-weight="bold" font-size="324.060000">281</text>
<text x="10326.585153" y="7518.616808" transform="rotate(137.996819 10326.585153 7518.616808)" fill="darkgreen" font-weight="bold" font-size="324.060000">284</text>
<text x="9977.094848" y="7721.793298" transform="rotate(-51.378968 9977.094848 7721.793298)" fill="darkgreen" font-weight="bold" font-size="324.060000">284</text>
<text x="10937.267520" y="7002.410483" transform="rotate(-2.583776 10937.267520 7002.410483)" fill="darkgreen" font-weight="bold" font-size="324.060000">290</text>
<text x="11406.548844" y="7538.900288" transform="rotate(-152.797533 11406.548844 7538.900288)" fill="darkgreen" font-weight="bold" font-size="324.060000">290</text>
<text x="11287.756508" y="8752.315943" transform="rotate(-2.562502 11287.756508 8752.315943)" fill="darkgreen" font-weight="bold" font-size="324.060000">294</text>
<text x="11647.529414" y="9003.555769" transform="rotate(-165.236475 11647.529414 9003.555769)" fill="darkgreen" font-weight="bold" font-size="324.060000">294</text>
<text x="12226.265536" y="7359.993212" transform="rotate(142.030012 12226.265536 7359.993212)" fill="darkgreen" font-weight="bold" font-size="324.060000">296</text>
<text x="11770.710923" y="6772.666883" transform="rotate(-76.927456 11770.710923 6772.666883)" fill="darkgreen" font-weight="bold" font-size="324.060000">296</text>
</svg>
