<?xml version="1.0"?>
<svg width="19914" height="11621" version="1.1" xmlns="http://www.w3.org/2000/svg" >
<defs>
<style type="text/css"><![CDATA[
.m {stroke:rgb(255,0,0);stroke-width:24.892500;}
.v {stroke:rgb(0,0,255);stroke-width:24.892500;}
.b {stroke:rgb(0,0,0);stroke-width:49.785000;fill:white}
.n {stroke:rgb(128,128,128);stroke-width:24.892500}
.t {stroke:rgb(0,128,0);stroke-width:24.892500;}
.c {stroke:rgb(128,128,128);stroke-width:24.892500;stroke-dasharray:199.140000, 199.140000;}
]]></style>
</defs>
<path fill="none" style="stroke:black;stroke-width:49.785000;" d=" M 5805.2 8267.93 L 6104.67 9075.87 M 7717.78 8866.12 L 7247.33 8287.62 M 5923.42 9121.43 L 5805.2 8267.93 M 3849.99 4519.24 L 3137.96 4062.11 M 3255.39 3917.24 L 3849.99 4519.24 M 4758.06 3176.8 L 5074.89 2302.13 M 5279.64 2406.48 L 4758.06 3176.8 M 6251.9 2882.59 L 6804.5 2180.94 M 7989.75 3966.99 L 8556.43 3516.6 M 8556.43 3516.6 L 7666 3447.29 M 9088.73 4182.65 L 8565.93 4683.32 M 8869.43 6333.88 L 9766.4 6460.73 M 9742.18 6576.67 L 8869.43 6333.88 M 8620.89 7367.86 L 9742.18 6576.67 M 9871.59 6809.35 L 8607.59 7343.73 M 7247.33 8287.62 L 7832.11 8750.24 M 6104.67 9075.87 L 7307.22 10093.2 M 4555.71 9544.22 L 4690.29 8242.94 M 4690.29 8242.94 L 4781.43 9547.98 M 2541.42 4751.14 L 3232.8 5603.04 M 3232.8 5603.04 L 2382.12 4910.16 M 4828.79 1540.45 L 3908.08 2917.03 M 5074.89 2302.13 L 4828.79 1540.45 M 5365.96 1610.7 L 5279.64 2406.48 M 8847.15 8043.63 L 10158.2 7854.61 M 7832.11 8750.24 L 8756.07 9144.8 M 3293.2 6733.73 L 2469.27 7697.98 M 2906.21 2898.17 L 3255.39 3917.24 M 12551.7 0 L 11886.8 1516.78 M 13304.3 990.989 L 12551.7 0 M 6804.5 2180.94 L 6084.31 762.891 M 6084.31 762.891 L 5365.96 1610.7 M 9789.49 3464.02 L 10787.1 4564.67 M 11339.6 3108.1 L 9789.49 3464.02 M 10554.8 4421.83 L 9088.73 4182.65 M 9337.38 5415.47 L 10554.8 4421.83 M 10778.5 4788.83 L 9337.38 5415.47 M 11022.5 7563.82 L 10524.3 8791.18 M 10524.3 8791.18 L 11831 8220.27 M 14584.9 10179.2 L 15344.8 11558.9 M 15344.8 11558.9 L 15840.8 10173.2 M 4781.43 9547.98 L 5278.07 10444.2 M 5278.07 10444.2 L 5923.42 9121.43 M 2312.44 7537.94 L 3293.2 6733.73 M 1167.59 5162.54 L 2352.75 6035.36 M 2382.12 4910.16 L 1167.59 5162.54 M 2058.94 4234.06 L 2541.42 4751.14 M 17490.2 1791.8 L 18054 686.882 M 18054 686.882 L 17380.2 901.683 M 3908.08 2917.03 L 3139.45 1938.45 M 12969.6 1859.56 L 13304.3 990.989 M 9766.4 6460.73 L 11502.4 6263.53 M 10158.2 7854.61 L 11409.1 7639.17 M 11409.1 7639.17 L 9871.59 6809.35 M 8756.07 9144.8 L 9827.04 9079.58 M 9827.04 9079.58 L 8847.15 8043.63 M 8409.05 9595.18 L 7717.78 8866.12 M 15840.8 10173.2 L 15284.2 9281.15 M 2352.75 6035.36 L 1339.4 6921.87 M 1339.4 6921.87 L 2312.44 7537.94 M 18947.4 1584.51 L 17490.2 1791.8 M 18663.1 2900.55 L 18947.4 1584.51 M 11886.8 1516.78 L 11969.9 2624.89 M 11831 8220.27 L 12561.5 7423.49 M 4804.24 10538.2 L 4555.71 9544.22 M 17352.6 3079.76 L 18663.1 2900.55 M 13626.2 1043.91 L 13124.4 1827.81 M 14117.8 2222.54 L 13626.2 1043.91 M 13330.8 3227.37 L 12969.6 1859.56 M 11603.3 6435.16 L 11022.5 7563.82 M 3139.56 10217.4 L 3737.8 11622 M 3737.8 11622 L 4804.24 10538.2 M 16423.1 9649.71 L 16258 8138.24 M 15553.8 9058.17 L 16423.1 9649.71 M 18892.9 3888.08 L 17632.1 3488.1 M 13124.4 1827.81 L 13330.8 3227.37 M 12864 6354.3 L 11603.3 6435.16 M 17440 5067.03 L 18308.1 5198.98 M 15865.4 7108.07 L 16480.8 7904.87 M 17632.1 3488.1 L 16591.8 4115.21 M 14244.5 4212.38 L 14945.6 2800.3 M 13856.4 5595.2 L 13716.6 7447.24 M 13329.4 7376.17 L 13856.4 5595.2 M 17295.3 6751.52 L 16481.6 5915.73 M 16498.7 5690.73 L 17547.1 6201.98 M 15698.2 4432.9 L 16525.7 3969.72 M 16481.6 5915.73 L 15349.8 5716.63 M 15160.9 2929.53 L 14244.5 4212.38 M 15349.8 5716.63 L 16498.7 5690.73 M 16591.8 4115.21 L 15698.2 4432.9 M 6900.87 7797.65 L 5639.38 7935.46 M 5057.71 7141.23 L 4609.07 7272.27 M 4609.07 7272.27 L 5012.7 7036.61 M 4361.58 5992.17 L 3923.54 5913.06 M 7691.83 7864.6 L 8620.89 7367.86 M 8607.59 7343.73 L 7691.83 7864.6 M 5639.38 7935.46 L 6702.26 8628.74 M 6702.26 8628.74 L 6488 7675.69 M 3923.54 5913.06 L 4368.61 5905.79 M 5617.52 5567.47 L 4361.58 5992.17 M 5012.7 7036.61 L 5617.52 5567.47 M 6488 7675.69 L 6228.93 6547.37 M 6228.93 6547.37 L 5057.71 7141.23 M 4336 5529.02 L 3552.93 4750.47 M 5204.13 5250.65 L 4229.64 4874.28 M 4368.61 5905.79 L 5204.13 5250.65 M 5077.59 7329.99 L 6353.03 8042.03 M 5507.09 6354.94 L 6027.58 7359.96 M 6905.68 6776.48 L 5507.09 6354.94 M 4280.34 4426.19 L 4336 5529.02 M 5579.94 4308.32 L 6288.52 3343.05 M 7268.48 5027.7 L 7839.15 4829.72 M 7880.77 5332.55 L 7317.31 5114.89 M 6744.27 6273.51 L 7373.67 6684.73 M 7822.84 5972.56 L 6744.27 6273.51 M 6353.03 8042.03 L 7307.42 7795.93 M 7307.42 7795.93 L 6887.89 7172.04 M 4451.95 3217.4 L 4280.34 4426.19 M 5049.03 3771.76 L 4451.95 3217.4 M 4229.64 4874.28 L 5271.27 4965.06 M 5271.27 4965.06 L 4582.62 3956.92 M 6288.52 3343.05 L 6504.85 2638.2 M 6504.85 2638.2 L 5049.03 3771.76 M 4582.62 3956.92 L 5246.28 4429.55 M 5246.28 4429.55 L 6251.9 2882.59 M 7666 3447.29 L 7061.13 3025.71 M 7061.13 3025.71 L 7473.54 3703.27 M 7473.54 3703.27 L 6735.03 3992.72 M 7839.15 4829.72 L 7989.75 3966.99 M 7903.34 5255.99 L 8540.45 5485.38 M 8565.93 4683.32 L 7903.34 5255.99 M 8540.45 5485.38 L 7880.77 5332.55 M 7789.47 6507.95 L 8568.72 6287.78 M 8568.72 6287.78 L 7822.84 5972.56 M 7373.67 6684.73 L 6683.89 7388.74 M 6683.89 7388.74 L 7783.53 7440.78 M 7783.53 7440.78 L 6905.68 6776.48 M 6027.58 7359.96 L 6900.87 7797.65 M 4213.48 7243.39 L 4573.91 8343.54 M 4573.91 8343.54 L 5077.59 7329.99 M 2935.25 7544.25 L 4213.48 7243.39 M 3789.86 6204.91 L 2935.25 7544.25 M 2470.94 6069.93 L 3789.86 6204.91 M 3371.55 5507.62 L 2470.94 6069.93 M 3552.93 4750.47 L 2518.72 4904.31 M 2518.72 4904.31 L 3371.55 5507.62 M 6887.89 7172.04 L 7789.47 6507.95 M 7317.31 5114.89 L 5872.84 5866.59 M 6735.03 3992.72 L 5579.94 4308.32 M 5872.84 5866.59 L 7268.48 5027.7 M 1150.49 8902.48 L 2906.77 8584.27 M 2469.27 7697.98 L 1150.49 8902.48 M 17547.1 6201.98 L 18657.4 6785.54 M 19874.8 6092.65 L 18297 5258.2 M 18657.4 6785.54 L 19874.8 6092.65 M 18308.1 5198.98 L 19914.9 4419.04 M 19914.9 4419.04 L 18892.9 3888.08 M 18003 7787.08 L 17295.3 6751.52 M 16480.8 7904.87 L 18003 7787.08 M 3953.62 9190.15 L 3139.56 10217.4 M 3003.04 10092.6 L 3953.62 9190.15 M 3012.62 8691.78 L 3003.04 10092.6 M 3876.57 7735.36 L 3012.62 8691.78 M 2906.77 8584.27 L 3876.57 7735.36 M 18297 5258.2 L 17440 5067.03 M 13712 8992.69 L 14584.9 10179.2 M 15284.2 9281.15 L 14663.2 8255.63 M 14663.2 8255.63 L 15553.8 9058.17 M 14868.4 6985.73 L 16379.4 7973.78 M 16379.4 7973.78 L 15865.4 7108.07 M 16258 8138.24 L 14868.4 6985.73 M 13716.6 7447.24 L 13712 8992.69 M 12741.5 8805.43 L 13329.4 7376.17 M 12561.5 7423.49 L 11913.2 8288.49 M 11913.2 8288.49 L 11797.9 9355.23 M 11797.9 9355.23 L 12741.5 8805.43 M 7307.22 10093.2 L 8668.43 10656 M 8668.43 10656 L 8409.05 9595.18 M 16280.3 1556.43 L 16037.6 2665.56 M 17380.2 901.683 L 16280.3 1556.43 M 16525.7 3969.72 L 17352.6 3079.76 M 16037.6 2665.56 L 16014.5 1530.41 M 16014.5 1530.41 L 15160.9 2929.53 M 0 2165.77 L 1136.15 3346.99 M 1723.21 2282.59 L 0 2165.77 M 14094.7 1297.27 L 14117.8 2222.54 M 14945.6 2800.3 L 14094.7 1297.27 M 2434.13 3246.6 L 1723.21 2282.59 M 1136.15 3346.99 L 2058.94 4234.06 M 3137.96 4062.11 L 2434.13 3246.6 M 3139.45 1938.45 L 2550.48 805.343 M 2550.48 805.343 L 2682.65 1721.42 M 2682.65 1721.42 L 2906.21 2898.17 M 13000.4 4592.69 L 11927.6 3631.99 M 11502.4 6263.53 L 12367.6 5726.55 M 12262.4 3356.09 L 13000.4 4592.69 M 11969.9 2624.89 L 12262.4 3356.09 M 11927.6 3631.99 L 11339.6 3108.1 M 10787.1 4564.67 L 11405.4 4700.67 M 11405.4 4700.67 L 10778.5 4788.83 M 12367.6 5726.55 L 11601.5 6397.29 M 11601.5 6397.29 L 12864 6354.3" />
<path fill="none" class="c" d=" M 6104.67 9075.87 L 7247.33 8287.62 M 6104.67 9075.87 L 7717.78 8866.12 M 7247.33 8287.62 L 5805.2 8267.93 M 7247.33 8287.62 L 7691.83 7864.6 M 7247.33 8287.62 L 8607.59 7343.73 M 7832.11 8750.24 L 8607.59 7343.73 M 7691.83 7864.6 L 5805.2 8267.93 M 5639.38 7935.46 L 5805.2 8267.93 M 4609.07 7272.27 L 5805.2 8267.93 M 4690.29 8242.94 L 5805.2 8267.93 M 5639.38 7935.46 L 4609.07 7272.27 M 5639.38 7935.46 L 5057.71 7141.23 M 6488 7675.69 L 5057.71 7141.23 M 5639.38 7935.46 L 6488 7675.69 M 4609.07 7272.27 L 4690.29 8242.94 M 3876.57 7735.36 L 4690.29 8242.94 M 4609.07 7272.27 L 3876.57 7735.36 M 3293.2 6733.73 L 3876.57 7735.36 M 4609.07 7272.27 L 3293.2 6733.73 M 4609.07 7272.27 L 3923.54 5913.06 M 4609.07 7272.27 L 4361.58 5992.17 M 5012.7 7036.61 L 4361.58 5992.17 M 3923.54 5913.06 L 3293.2 6733.73 M 3232.8 5603.04 L 3293.2 6733.73 M 3923.54 5913.06 L 3232.8 5603.04 M 3849.99 4519.24 L 3232.8 5603.04 M 3923.54 5913.06 L 3849.99 4519.24 M 4229.64 4874.28 L 3849.99 4519.24 M 4229.64 4874.28 L 4582.62 3956.92 M 3137.96 4062.11 L 3232.8 5603.04 M 3137.96 4062.11 L 2541.42 4751.14 M 4690.29 8242.94 L 5923.42 9121.43 M 4781.43 9547.98 L 5923.42 9121.43 M 7832.11 8750.24 L 8847.15 8043.63 M 8756.07 9144.8 L 8847.15 8043.63 M 7691.83 7864.6 L 5639.38 7935.46 M 7691.83 7864.6 L 6900.87 7797.65 M 7691.83 7864.6 L 7783.53 7440.78 M 8568.72 6287.78 L 7783.53 7440.78 M 7691.83 7864.6 L 8568.72 6287.78 M 8869.43 6333.88 L 8568.72 6287.78 M 8540.45 5485.38 L 8568.72 6287.78 M 8869.43 6333.88 L 8540.45 5485.38 M 8869.43 6333.88 L 8565.93 4683.32 M 8565.93 4683.32 L 8540.45 5485.38 M 7691.83 7864.6 L 8869.43 6333.88 M 8620.89 7367.86 L 8869.43 6333.88 M 7880.77 5332.55 L 8568.72 6287.78 M 7880.77 5332.55 L 7789.47 6507.95 M 7317.31 5114.89 L 7789.47 6507.95 M 7317.31 5114.89 L 6887.89 7172.04 M 5872.84 5866.59 L 6887.89 7172.04 M 5872.84 5866.59 L 5077.59 7329.99 M 4336 5529.02 L 5077.59 7329.99 M 4213.48 7243.39 L 5077.59 7329.99 M 4336 5529.02 L 4213.48 7243.39 M 3789.86 6204.91 L 4213.48 7243.39 M 4336 5529.02 L 3789.86 6204.91 M 3552.93 4750.47 L 3789.86 6204.91 M 3552.93 4750.47 L 3371.55 5507.62 M 5872.84 5866.59 L 4336 5529.02 M 5872.84 5866.59 L 5579.94 4308.32 M 7783.53 7440.78 L 6900.87 7797.65 M 3923.54 5913.06 L 4229.64 4874.28 M 4368.61 5905.79 L 4229.64 4874.28 M 3371.55 5507.62 L 3789.86 6204.91 M 8869.43 6333.88 L 9337.38 5415.47 M 9766.4 6460.73 L 9337.38 5415.47 M 7268.48 5027.7 L 5579.94 4308.32 M 7268.48 5027.7 L 6735.03 3992.72 M 7839.15 4829.72 L 6735.03 3992.72 M 7839.15 4829.72 L 7473.54 3703.27 M 7989.75 3966.99 L 7473.54 3703.27 M 7666 3447.29 L 7473.54 3703.27 M 7989.75 3966.99 L 7666 3447.29 M 9337.38 5415.47 L 8565.93 4683.32 M 9337.38 5415.47 L 9088.73 4182.65 M 9766.4 6460.73 L 10778.5 4788.83 M 11502.4 6263.53 L 10778.5 4788.83 M 11502.4 6263.53 L 11405.4 4700.67 M 12367.6 5726.55 L 11405.4 4700.67 M 12367.6 5726.55 L 13000.4 4592.69 M 13856.4 5595.2 L 13000.4 4592.69 M 14244.5 4212.38 L 13000.4 4592.69 M 13856.4 5595.2 L 14244.5 4212.38 M 15349.8 5716.63 L 14244.5 4212.38 M 13856.4 5595.2 L 15349.8 5716.63 M 14868.4 6985.73 L 15349.8 5716.63 M 15349.8 5716.63 L 15698.2 4432.9 M 16498.7 5690.73 L 15698.2 4432.9 M 16498.7 5690.73 L 16591.8 4115.21 M 12367.6 5726.55 L 13856.4 5595.2 M 12367.6 5726.55 L 12864 6354.3 M 15698.2 4432.9 L 14244.5 4212.38 M 15698.2 4432.9 L 15160.9 2929.53 M 16525.7 3969.72 L 15160.9 2929.53 M 16525.7 3969.72 L 16037.6 2665.56 M 13856.4 5595.2 L 14868.4 6985.73 M 13716.6 7447.24 L 14868.4 6985.73 M 12864 6354.3 L 13856.4 5595.2 M 12864 6354.3 L 13329.4 7376.17 M 17440 5067.03 L 16591.8 4115.21 M 17440 5067.03 L 17632.1 3488.1 M 18308.1 5198.98 L 17632.1 3488.1 M 12561.5 7423.49 L 13329.4 7376.17 M 14244.5 4212.38 L 13330.8 3227.37 M 14945.6 2800.3 L 13330.8 3227.37 M 14945.6 2800.3 L 14117.8 2222.54 M 13716.6 7447.24 L 14663.2 8255.63 M 13712 8992.69 L 14663.2 8255.63 M 13712 8992.69 L 15284.2 9281.15 M 15865.4 7108.07 L 15349.8 5716.63 M 15865.4 7108.07 L 16481.6 5915.73 M 12864 6354.3 L 12561.5 7423.49 M 11603.3 6435.16 L 12561.5 7423.49 M 13330.8 3227.37 L 13000.4 4592.69 M 13330.8 3227.37 L 12262.4 3356.09 M 14663.2 8255.63 L 14868.4 6985.73 M 14663.2 8255.63 L 16258 8138.24 M 15553.8 9058.17 L 16258 8138.24 M 17352.6 3079.76 L 16037.6 2665.56 M 17352.6 3079.76 L 16280.3 1556.43 M 14868.4 6985.73 L 15865.4 7108.07 M 13000.4 4592.69 L 11405.4 4700.67 M 11927.6 3631.99 L 11405.4 4700.67 M 11927.6 3631.99 L 10787.1 4564.67 M 11339.6 3108.1 L 10787.1 4564.67 M 7307.22 10093.2 L 7717.78 8866.12 M 7307.22 10093.2 L 8409.05 9595.18 M 4582.62 3956.92 L 3849.99 4519.24 M 4582.62 3956.92 L 4758.06 3176.8 M 6251.9 2882.59 L 4758.06 3176.8 M 6251.9 2882.59 L 5279.64 2406.48 M 6804.5 2180.94 L 5279.64 2406.48 M 6804.5 2180.94 L 5365.96 1610.7 M 4582.62 3956.92 L 6251.9 2882.59 M 4758.06 3176.8 L 3849.99 4519.24 M 4758.06 3176.8 L 3255.39 3917.24 M 4758.06 3176.8 L 3908.08 2917.03 M 5074.89 2302.13 L 3908.08 2917.03 M 3908.08 2917.03 L 3255.39 3917.24 M 3908.08 2917.03 L 2906.21 2898.17 M 2352.75 6035.36 L 3293.2 6733.73 M 2352.75 6035.36 L 2312.44 7537.94 M 7373.67 6684.73 L 7783.53 7440.78 M 2469.27 7697.98 L 3876.57 7735.36 M 2469.27 7697.98 L 2906.77 8584.27 M 14117.8 2222.54 L 13330.8 3227.37 M 14117.8 2222.54 L 13124.4 1827.81 M 5579.94 4308.32 L 4336 5529.02 M 5579.94 4308.32 L 4280.34 4426.19 M 5579.94 4308.32 L 5049.03 3771.76 M 6288.52 3343.05 L 5049.03 3771.76 M 12561.5 7423.49 L 12741.5 8805.43 M 11913.2 8288.49 L 12741.5 8805.43 M 15865.4 7108.07 L 17295.3 6751.52 M 16480.8 7904.87 L 17295.3 6751.52 M 3137.96 4062.11 L 2058.94 4234.06 M 2434.13 3246.6 L 2058.94 4234.06 M 5077.59 7329.99 L 6887.89 7172.04 M 6353.03 8042.03 L 6887.89 7172.04 M 13330.8 3227.37 L 11969.9 2624.89 M 12969.6 1859.56 L 11969.9 2624.89 M 12969.6 1859.56 L 11886.8 1516.78 M 13304.3 990.989 L 11886.8 1516.78 M 17490.2 1791.8 L 16280.3 1556.43 M 17490.2 1791.8 L 17380.2 901.683 M 8847.15 8043.63 L 8607.59 7343.73 M 8847.15 8043.63 L 9871.59 6809.35 M 10158.2 7854.61 L 9871.59 6809.35 M 6905.68 6776.48 L 6900.87 7797.65 M 6905.68 6776.48 L 6027.58 7359.96 M 16037.6 2665.56 L 15160.9 2929.53 M 18308.1 5198.98 L 18892.9 3888.08 M 5049.03 3771.76 L 4280.34 4426.19 M 3876.57 7735.36 L 3953.62 9190.15 M 3012.62 8691.78 L 3953.62 9190.15 M 3232.8 5603.04 L 2352.75 6035.36 M 2382.12 4910.16 L 2352.75 6035.36 M 14584.9 10179.2 L 15284.2 9281.15 M 14584.9 10179.2 L 15840.8 10173.2 M 11022.5 7563.82 L 12561.5 7423.49 M 11022.5 7563.82 L 11831 8220.27 M 2434.13 3246.6 L 1136.15 3346.99 M 1723.21 2282.59 L 1136.15 3346.99 M 17352.6 3079.76 L 17490.2 1791.8 M 18663.1 2900.55 L 17490.2 1791.8 M 8568.72 6287.78 L 7373.67 6684.73 M 7822.84 5972.56 L 7373.67 6684.73 M 3953.62 9190.15 L 4690.29 8242.94 M 3953.62 9190.15 L 4555.71 9544.22 M 3139.56 10217.4 L 4555.71 9544.22 M 3139.56 10217.4 L 4804.24 10538.2 M 16498.7 5690.73 L 17440 5067.03 M 17547.1 6201.98 L 17440 5067.03 M 17547.1 6201.98 L 18297 5258.2 M 18657.4 6785.54 L 18297 5258.2 M 3139.45 1938.45 L 2906.21 2898.17 M 3139.45 1938.45 L 2682.65 1721.42" />
</svg>
