<?xml version="1.0"?>
<svg width="11999" height="18630" version="1.1" xmlns="http://www.w3.org/2000/svg" >
<defs>
<style type="text/css"><![CDATA[
.m {stroke:rgb(255,0,0);stroke-width:23.287500;}
.v {stroke:rgb(0,0,255);stroke-width:23.287500;}
.b {stroke:rgb(0,0,0);stroke-width:46.575000;fill:white}
.n {stroke:rgb(128,128,128);stroke-width:23.287500}
.t {stroke:rgb(0,128,0);stroke-width:23.287500;}
.c {stroke:rgb(128,128,128);stroke-width:23.287500;stroke-dasharray:119.990000, 119.990000;}
]]></style>
</defs>
<path fill="none" style="stroke:black;stroke-width:46.575000;" d=" M 5212.02 12699.9 L 5291.58 12200.4 M 5291.58 12200.4 L 5448.68 12306 M 6577.43 13952.8 L 6312.26 14648 M 6312.26 14648 L 7161.05 14366.1 M 7044.24 10133.4 L 7316.92 10180.7 M 5133.11 7991.81 L 5495.38 8366.66 M 5623.65 12642.1 L 5915.05 12499.6 M 5915.05 12499.6 L 5761.51 12510.8 M 2768.9 4937.09 L 2232.9 6766.77 M 2232.9 6766.77 L 2913.88 6379.18 M 5488.55 7255.96 L 6156.98 7259.47 M 5933.72 11901.7 L 5881.59 11963.5 M 5881.59 11963.5 L 5949.22 11897.8 M 5949.22 11897.8 L 5933.72 11901.7 M 5933.72 11901.7 L 5881.59 11963.5 M 5881.59 11963.5 L 5949.22 11897.8 M 5949.22 11897.8 L 5933.72 11901.7 M 4879.79 10719.4 L 4362.22 10087.3 M 4362.22 10087.3 L 4513.99 10834.2 M 3359.57 8975.1 L 3676.6 9028.29 M 3802.5 8684.48 L 3359.57 8975.1 M 5031.47 10014.5 L 5160.78 10114.9 M 9147.07 14440.9 L 8936.73 14023.5 M 5472.15 6342.42 L 4779.7 5666.05 M 5925.08 2901.69 L 5091.79 1398.15 M 1971.17 4472.56 L 1169.25 5123.6 M 1169.25 5123.6 L 2768.9 4937.09 M 3510.9 13183.7 L 2767.07 12467 M 2767.07 12467 L 4584.36 14240.7 M 4912.1 5349.9 L 4607.69 4935.08 M 4607.69 4935.08 L 4478.95 5457.05 M 2177.67 12280.3 L 3510.9 13183.7 M 5035.01 9215.86 L 4875.58 8618.28 M 5713.28 8488.32 L 5330.05 8702.9 M 5330.05 8702.9 L 5752.72 8762.12 M 8416.44 11716.8 L 8121.33 11084.9 M 8121.33 11084.9 L 7997.06 11409.5 M 9278.02 15695.5 L 8248.69 16780.1 M 8248.69 16780.1 L 9556.02 15658.2 M 4295.8 13435.8 L 4614.27 13537.6 M 4614.27 13537.6 L 4036.28 13174.6 M 6940.38 12137.2 L 7291.21 12463.1 M 7291.21 12463.1 L 7334.34 12118.7 M 6433.51 1452.58 L 7730.45 2137.31 M 7730.45 2137.31 L 6920.56 1477.42 M 4104.92 5374.15 L 4323.6 5777.55 M 6536.33 10445.8 L 6505.67 10293.8 M 5948.04 12645.3 L 5623.65 12642.1 M 5298.57 12849.5 L 5948.04 12645.3 M 5465.07 12732.2 L 5298.57 12849.5 M 7713.67 11904.5 L 7964.1 12330.5 M 7964.1 12330.5 L 7900.12 11515.6 M 4860.29 8660.6 L 5004.17 8228.49 M 4778.75 8013.35 L 4860.29 8660.6 M 7619.36 12910.4 L 7478.63 13227.8 M 4271.35 6896.47 L 4360.06 7674.98 M 4360.06 7674.98 L 4916.58 6883 M 7663.04 14631 L 7629.83 14743.6 M 3833.23 11008.6 L 4211.98 11343.8 M 6179.83 9867.04 L 5907.8 9897.4 M 5907.8 9897.4 L 6239.44 10046.1 M 7981.5 9684.66 L 7398.11 9686.65 M 6746.33 12152.7 L 6424.97 12071 M 5833.25 7002.76 L 5878.57 6708.04 M 5490.59 6847.29 L 5369.92 6416.36 M 8511 10043.5 L 8742.15 10097.1 M 8742.15 10097.1 L 8564.94 9806.36 M 8364.21 11228.3 L 8223.71 11617.5 M 8670.51 11532.6 L 8364.21 11228.3 M 10281.7 16300.2 L 7939.32 17281 M 7939.32 17281 L 10150.1 16751.5 M 6419.24 8465.44 L 5839.88 8390.15 M 6286.1 8784.79 L 6419.24 8465.44 M 6601.67 9225.14 L 6255.13 9007.44 M 6255.13 9007.44 L 6452.46 9312.67 M 6563.51 10407.8 L 6714.09 10844.7 M 6672.45 10633.2 L 6563.51 10407.8 M 9519.98 14301.7 L 9199.43 14313.9 M 6793.81 10226.2 L 6839.62 10426.2 M 1620.6 3911.17 L 711.54 3395.57 M 6505.67 10293.8 L 6514.19 10007.5 M 7138.83 10824.9 L 7077.2 10675.6 M 6048.28 11872.5 L 6036.57 11723.6 M 6036.57 11723.6 L 5948.58 11850 M 10926.9 14548.5 L 10451.6 14188.7 M 10549.3 14486.6 L 10926.9 14548.5 M 6547.28 7798.48 L 6186.68 8122.36 M 4614.85 12555.2 L 4899.82 12213.8 M 6988.02 10467.7 L 6983.08 10305.3 M 7119.15 10338.6 L 6982.6 10446.1 M 6982.6 10446.1 L 7211.5 10444 M 4461.95 7898.32 L 4369.25 8292.73 M 6831.39 12197 L 6746.33 12152.7 M 5130.11 12441.4 L 5660.11 12476.9 M 6037.01 10772.6 L 6531.01 11064.4 M 6501.49 10814.4 L 6037.01 10772.6 M 5349.71 7814.18 L 5357.65 7972.57 M 5839.88 8390.15 L 5885.15 7988.69 M 5381.19 12059.3 L 5070.01 12009.3 M 5070.01 12009.3 L 5436.45 12224.7 M 5391.78 9314.12 L 5113.69 9099.3 M 5113.69 9099.3 L 4942.81 9743.65 M 6881.7 12591.5 L 7362.17 12598.8 M 3375.28 12272.9 L 3200.99 12631.8 M 8953.79 15027.1 L 8622.19 15188.1 M 8622.19 15188.1 L 9106.59 15197.9 M 3850.02 8502.53 L 3843.81 8460.93 M 3711.84 8341.36 L 3850.02 8502.53 M 6068.09 8606.24 L 6380.7 8496.21 M 6147.82 8339.87 L 6068.09 8606.24 M 6983.08 10305.3 L 7075.8 10506.9 M 7075.8 10506.9 L 7119.15 10338.6 M 6363.72 9778.08 L 6262.05 10025.2 M 6848.07 11889.7 L 6940.38 12137.2 M 3673.53 11661.5 L 3917.63 11604.7 M 4274.12 11571.4 L 4573.67 11437.6 M 7123.14 9556.4 L 6936.42 9718.07 M 5937.92 11030 L 5466.09 11591.4 M 5948.58 11850 L 5937.92 11030 M 6393.26 9625.32 L 6070.58 9591.61 M 6070.58 9591.61 L 6230.6 9729.88 M 7707.39 14022.7 L 7816.16 14589.6 M 7962.57 14510 L 7707.39 14022.7 M 8526.75 12011.8 L 8563.77 11865 M 9377.84 14570.2 L 9650.39 15163.2 M 9650.39 15163.2 L 9715.41 14656.2 M 5878.57 6708.04 L 5764.2 6413.62 M 5764.2 6413.62 L 5571.66 6568.84 M 4395.98 783.107 L 4390.18 798.97 M 5327.56 7619.02 L 5360.1 7411.19 M 5063.21 5564.8 L 5095.87 5197.63 M 10234.8 13756.7 L 10204.9 13161.3 M 10204.9 13161.3 L 9927 13766.4 M 3756.48 8209.55 L 4370.56 8293.04 M 3905.07 8060.66 L 3756.48 8209.55 M 4993.06 7103.04 L 4685.6 7095.12 M 4779.7 5666.05 L 4794.57 5630.34 M 7736.22 13919.7 L 7607.8 13632.4 M 6781.11 9831.02 L 6611.81 9740.36 M 8537.33 15173.7 L 8721.75 15439.4 M 5931.69 10539.8 L 6104.02 11020.9 M 6104.02 11020.9 L 6536.33 10445.8 M 5826.06 10971.6 L 5541.67 11410.6 M 5541.67 11410.6 L 5873.03 11170.5 M 8162.54 14530.7 L 8099.22 14962.7 M 8117.35 14841.1 L 8162.54 14530.7 M 7816.16 14589.6 L 7695.56 14025.1 M 7695.56 14025.1 L 7663.04 14631 M 6535.96 12556 L 6881.7 12591.5 M 8208.43 10607.7 L 7824.73 10765.9 M 5456.14 10276.8 L 5412.2 10026.1 M 5412.2 10026.1 L 5164.5 10375.6 M 4032.28 7630.71 L 840.744 6712.57 M 840.744 6712.57 L 3711.84 8341.36 M 9866.63 16463.4 L 11291.3 13463.5 M 11291.3 13463.5 L 10465.3 14963.9 M 4784.3 11944 L 4518.17 11958.1 M 7687.27 12175.5 L 8069.15 12247.8 M 8069.15 12247.8 L 7713.67 11904.5 M 6932.1 10790.5 L 6528.18 10565.9 M 6737.2 10880.7 L 6932.1 10790.5 M 4732.7 6762.96 L 4735.65 6649.45 M 3931.58 10342.6 L 4129.34 11072.5 M 4513.99 10834.2 L 3931.58 10342.6 M 6748.11 10586.5 L 6555.9 10592.9 M 6555.9 10592.9 L 6889.39 10819.1 M 2913.88 6379.18 L 3956.36 5637.58 M 4787.79 11921.5 L 5059.44 11975.2 M 6800.47 12441.6 L 6595.43 11762.1 M 6595.43 11762.1 L 6580.5 12257.1 M 0 3320.69 L 1973.55 4449 M 9455.74 13993.8 L 9514.78 14309.1 M 5091.79 1398.15 L 5090.96 1388.8 M 5091.78 1398.15 L 5916.23 2906.55 M 5916.23 2906.55 L 5933.75 1899.58 M 5090.96 1388.8 L 5091.78 1398.15 M 3676.6 9028.29 L 4177.91 9119.59 M 8721.75 15439.4 L 8207.73 15547.2 M 5160.78 10114.9 L 5513.23 10055.3 M 4058.85 11811.6 L 4777.08 11821.1 M 4777.08 11821.1 L 4274.12 11571.4 M 5254.24 9648.08 L 5226.32 9858.53 M 6332.81 1532.31 L 6565.63 2767.48 M 6565.63 2767.48 L 6642.38 2326.68 M 11103.9 16297.3 L 11194.1 15917.4 M 6240.35 9708.15 L 6179.83 9867.04 M 6588.46 1192.83 L 7914.79 246.179 M 7914.79 246.179 L 4621.7 18.8367 M 7040.69 12303.8 L 6831.39 12197 M 4706.78 11081.4 L 4479.12 10737.9 M 7048.05 10910.8 L 7071.53 11382.8 M 7338.93 11174.5 L 7048.05 10910.8 M 7931.36 14341.9 L 7822.97 14944.3 M 6211.99 12032.2 L 6354.73 12497.4 M 6424.97 12071 L 6211.99 12032.2 M 6032.48 10208.6 L 5647.9 10199.7 M 9173.81 10473.4 L 8890.08 10213.6 M 8890.08 10213.6 L 8842.19 10524.8 M 9243.69 14853.3 L 8953.79 15027.1 M 7077.2 10675.6 L 7213.68 10762 M 6980.37 11699.2 L 7225.16 11892.7 M 6050.94 9738.9 L 5685.43 9795.94 M 5545.6 10241.4 L 6050.94 9738.9 M 6045 6528.51 L 5836.58 6595.36 M 9234.44 11183.5 L 9173.81 10473.4 M 6673.81 10404.2 L 6471.38 10484 M 6471.38 10484 L 6672.45 10633.2 M 6655.38 8422.39 L 6438.41 8113.71 M 7398.11 9686.88 L 7981.5 9684.66 M 2811.95 323.408 L 2287.02 336.484 M 6354.73 12497.4 L 6404.55 12877.8 M 6404.55 12877.8 L 6535.96 12556 M 5905.39 8326.5 L 6147.82 8339.87 M 6186.68 8122.36 L 5905.39 8326.5 M 9663.14 12488.7 L 9385.7 12457 M 5816.71 9111.6 L 5345.87 8582.61 M 6531.04 9940.9 L 6619.32 10000.8 M 4778.94 5665.73 L 3210.65 6749.93 M 3210.65 6749.93 L 5172.26 6503.59 M 5285.11 5995.5 L 5063.21 5564.8 M 7375.26 9774.83 L 7403.48 10040.4 M 7403.48 10040.4 L 8082.04 9971.91 M 7824.73 10765.9 L 7668.45 11000 M 7668.45 11000 L 7988.93 11039.6 M 8082.04 9971.91 L 7400.45 9948.05 M 9347.02 12628.5 L 9388.05 12457.5 M 9388.05 12457.5 L 9256.93 12473.4 M 7484.18 9594.67 L 7120.02 9895.8 M 7319.09 10016.7 L 7484.18 9594.67 M 5655.45 8112.39 L 5395.31 7954.48 M 6911.29 11164.6 L 7060.82 11008.1 M 7364.41 9239.29 L 7013.49 9377.92 M 7212.19 9514.14 L 7364.41 9239.29 M 5342.85 6665.15 L 5122.81 6759.72 M 4478.28 11084.1 L 4208.19 11339.8 M 9336.5 13643 L 9340.08 13405.4 M 6580.5 12257.1 L 6595.61 11762.1 M 5369.92 6416.36 L 4981.75 6358.07 M 4981.75 6358.07 L 5107.51 7018.25 M 5245.12 9860.18 L 5254.24 9648.08 M 4211.98 11343.8 L 4478.28 11084.1 M 3917.63 11604.7 L 3669.02 11636.5 M 9193.67 16540 L 10281.7 16300.2 M 9031.32 16209.3 L 9193.67 16540 M 4429.49 6056.88 L 3723.67 6106.74 M 3723.67 6106.74 L 5342.85 6665.15 M 1719.18 2622.39 L 1985.87 3632.89 M 10438.4 16834.1 L 11146.1 17457.7 M 11695.2 18176.7 L 11863.9 18436 M 11863.9 18436 L 11615.2 17979.4 M 2640.78 3747.43 L 2112.04 3621.73 M 2112.04 3621.73 L 2563.03 3880.44 M 6211.36 9555.35 L 5816.71 9111.6 M 9514.78 14309.1 L 9890.92 14569 M 7262.03 10259.2 L 8244.07 10772.8 M 8244.07 10772.8 L 8328.43 10545 M 8780.17 10498.6 L 8620.2 10407.8 M 8620.2 10407.8 L 8607.02 10801.9 M 6281.68 9531.75 L 6192.41 9572.95 M 6192.41 9572.95 L 6363.72 9778.08 M 5177.23 7953.71 L 5327.56 7619.02 M 7398.11 9686.65 L 7169.45 9721.67 M 7169.45 9721.67 L 7375.26 9774.83 M 6230.6 9729.88 L 6531.04 9940.9 M 5752.72 8762.12 L 5843.81 9179.09 M 5843.81 9179.09 L 6286.1 8784.79 M 8563.77 11865 L 8828.44 11477.1 M 8828.44 11477.1 L 8416.44 11716.8 M 5436.45 12224.7 L 5076.42 11998.7 M 6386.25 9432.7 L 6093.07 9639.63 M 6093.07 9639.63 L 6424.41 9633.07 M 3942.99 13329.7 L 4295.8 13435.8 M 3345.15 12263.6 L 3883.63 12348.3 M 4015.63 12137.5 L 3345.15 12263.6 M 8556.41 10628.9 L 8409.01 10322 M 8328.43 10545 L 8556.41 10628.9 M 4446.38 5713.27 L 4429.49 6056.88 M 4482.09 12180.6 L 4738.22 11857.7 M 5660.11 12476.9 L 6415.12 12386.2 M 6415.12 12386.2 L 5572.37 12086.7 M 7146.34 10571.8 L 7104.05 10353.9 M 7104.05 10353.9 L 6988.02 10467.7 M 5873.03 11170.5 L 5465.48 11133.6 M 5465.48 11133.6 L 6041.66 11549.4 M 4357.66 10897.6 L 4781.49 11539.6 M 10147.6 15026.6 L 10467.8 14978.2 M 7404.86 9096.46 L 7869.78 9343.93 M 7869.78 9343.93 L 7838.42 9018.32 M 5448.68 12306 L 5497.66 12376.9 M 6916.92 12779.6 L 6811.29 13148.4 M 6811.29 13148.4 L 7034.27 12876.5 M 3844.37 8218.56 L 4032.28 7630.71 M 7024.25 7892.89 L 7027.49 8703.43 M 1988.73 4456.81 L 3956.04 5610.22 M 8493.33 10100.2 L 8058.84 9933.61 M 8409.01 10322 L 8493.33 10100.2 M 8052.4 15285.1 L 7874.35 15427.1 M 7027.49 8703.43 L 6806.14 8870.64 M 6072.79 8742.72 L 6358.5 8863.87 M 6358.5 8863.87 L 5789.07 8197.8 M 4573.29 11437 L 4272.35 11567.7 M 8099.22 14962.7 L 7718.46 14749.1 M 9385.7 12457 L 9347.02 12628.5 M 8849.01 12792.4 L 9256.93 12473.4 M 5614.14 9039.28 L 5232.08 9054.16 M 5466.09 11591.4 L 5438.07 11616.7 M 5415.21 6993.62 L 5199.4 7183.36 M 5360.1 7411.19 L 5415.21 6993.62 M 3284.39 610.576 L 3723.88 586.075 M 3675.4 73.4935 L 3192.63 410.191 M 4267.07 4711.39 L 5127.48 4404.78 M 6889.44 6641.65 L 5606.41 6012.74 M 5172.26 6503.59 L 6889.44 6641.65 M 7366.53 10588.1 L 7270.63 10775.3 M 7270.63 10775.3 L 7480.85 10633.7 M 7321.33 11213.2 L 7194.34 10993.9 M 7060.82 11008.1 L 7321.33 11213.2 M 5933.72 11901.7 L 5881.59 11963.5 M 5881.59 11963.5 L 5949.22 11897.8 M 5949.22 11897.8 L 5933.72 11901.7 M 7809.46 10672.1 L 7565.76 10460.3 M 7575.86 10646.8 L 7809.46 10672.1 M 4931.57 7198.49 L 4993.06 7103.04 M 4916.58 6883 L 4931.57 7198.49 M 10862.4 15431.2 L 10758.9 16237.2 M 11194.1 15917.4 L 10862.4 15431.2 M 5626.22 9105.41 L 5924.38 8652.66 M 5924.38 8652.66 L 5740.1 8882.82 M 9574.98 12941.4 L 9578.6 12274.8 M 9404.71 12627.1 L 9574.98 12941.4 M 9715.41 14656.2 L 9243.69 14853.3 M 7976.56 15114.5 L 8109.53 14728.7 M 6111.03 8889.07 L 6281.68 9531.75 M 5095.87 5197.63 L 5101.5 4859.64 M 5101.5 4859.64 L 4912.1 5349.9 M 6302.98 9072.77 L 6386.25 9432.7 M 6545.87 9068.15 L 6302.98 9072.77 M 5747.02 9166.22 L 6081.9 9656.64 M 6267.43 9785.44 L 6335.49 9714.49 M 6335.49 9714.49 L 6149.04 9669.44 M 7354.59 9620.73 L 7404.86 9096.46 M 4177.32 4855 L 4202.8 4853.93 M 4202.8 4853.93 L 4187.54 4843.58 M 4272.11 10424.7 L 4357.66 10897.6 M 4479.12 10737.9 L 4272.11 10424.7 M 9890.92 14569 L 9519.98 14301.7 M 3622.46 12287.5 L 4058.85 11811.6 M 3669.02 11636.5 L 3622.46 12287.5 M 9485.87 15563.2 L 9563.1 15473.8 M 7412.55 8619.84 L 7321.59 8640.68 M 6889.39 10819.1 L 6785.11 10831.5 M 8109.53 14728.7 L 7976.57 15114.5 M 7976.57 15114.5 L 8294.09 14574.7 M 6290.55 7010.55 L 6014.35 6846.09 M 7391.07 10774.7 L 7571.02 10665.8 M 7571.02 10665.8 L 7374.78 10586.4 M 2563.03 3880.44 L 2386.16 3626.61 M 2386.16 3626.61 L 2551.8 3891.54 M 6033.06 9710.11 L 6200.25 9741 M 6200.25 9741 L 6182.14 9677.98 M 8162.85 14530.8 L 8147.53 14724.6 M 8447.48 15001.5 L 8162.85 14530.8 M 5151.62 7583.16 L 5349.71 7814.18 M 7597.31 8903.49 L 7412.65 8798.19 M 7328.01 12817.4 L 7074.26 12660.9 M 6766.03 6533.84 L 6203.97 6283 M 7413.38 14238.4 L 7143.99 14037.6 M 4584.36 14240.7 L 3942.99 13329.7 M 5422.17 9018.42 L 5235.07 8945.37 M 5633.34 9394.91 L 6033.06 9710.11 M 6507.94 10757.6 L 6681.03 10524.3 M 6951.78 10570.7 L 6804.66 10462 M 5358.12 10080.4 L 5110.9 9948.91 M 7249.4 7769.25 L 7024.25 7892.89 M 7575.25 9963.26 L 7319.09 10016.7 M 8069.08 12223.7 L 7436.82 12554.7 M 5443.48 9818.2 L 5245.12 9860.18 M 7007.58 13647.6 L 7199.4 13486.5 M 7199.4 13486.5 L 7308.3 13294.4 M 6260.66 9857.78 L 6483.8 9953.49 M 6424.41 9633.07 L 6260.66 9857.78 M 5395.31 7954.48 L 4818.53 7942.99 M 4763.29 4713.86 L 5054.06 4622.08 M 5054.06 4622.08 L 4200.27 4843.88 M 4198.76 4858.21 L 4955.15 5312.11 M 4955.15 5312.11 L 4267.07 4711.39 M 8581.44 11992.5 L 8583.31 12097.4 M 6438.41 8113.71 L 6729.26 8232.52 M 6729.26 8232.52 L 6547.28 7798.48 M 7161.05 14366.1 L 7510.4 15041.5 M 7510.4 15041.5 L 7856.83 14299.1 M 3953.38 5402.07 L 4147.73 5542.51 M 4478.95 5457.05 L 3953.38 5402.07 M 4510.21 12735.8 L 4624.54 12709.2 M 7071.53 11382.8 L 6623.05 11317.5 M 6623.05 11317.5 L 6814.95 11495.4 M 3677.38 12470.9 L 3458.94 12595.6 M 5722.74 10514.9 L 5959.03 10565.2 M 5235.07 8945.37 L 4964.04 8829.27 M 4964.04 8829.27 L 5633.34 9394.91 M 8440.34 12616.1 L 8114.84 12744.3 M 8114.84 12744.3 L 8404.47 13126.8 M 8566.4 12942.4 L 8440.34 12616.1 M 8368.64 12781.3 L 8566.4 12942.4 M 4111.31 5363.37 L 4108.01 5365.75 M 9106.59 15197.9 L 9350.92 15087.3 M 4108.01 5365.75 L 4109.96 5362.18 M 4144.67 8685.09 L 4164.51 8255 M 6026.61 1753.27 L 6304.57 2831.22 M 6482.28 6597.72 L 6045 6528.51 M 6014.35 6846.09 L 6482.28 6597.72 M 6681.03 10524.3 L 6873.22 10346.4 M 9335.03 13642.9 L 9924.26 13772.2 M 5597.68 10686.6 L 5379.03 10953.8 M 10766.3 14395.2 L 10865.6 13876.1 M 10865.6 13876.1 L 10535.4 14153.5 M 5791.11 8342.11 L 6206.98 8744.73 M 6206.98 8744.73 L 6224.13 7909.23 M 8842.19 10524.8 L 8893.37 10214.1 M 8893.37 10214.1 L 8498.94 10598.8 M 1985.2 4462.84 L 1971.17 4472.56 M 5258.01 7246.31 L 4606.89 7393.23 M 4606.89 7393.23 L 5151.62 7583.16 M 4496.93 8945.49 L 4465.99 9348.31 M 4465.99 9348.31 L 5035.01 9215.86 M 7900.12 11515.6 L 7430.65 11636.2 M 8321.23 15414.4 L 8537.33 15173.7 M 8699.59 10867 L 8596.62 10486.3 M 8435.81 10852.7 L 8699.59 10867 M 11162.1 17143.9 L 10960.6 16777.6 M 3733.91 8345.23 L 3580.45 8301.46 M 3580.45 8301.46 L 3802.5 8684.48 M 4785.03 11299.4 L 4573.29 11437 M 7143.99 14037.6 L 6577.43 13952.8 M 7822.97 14944.3 L 7771.77 15013.7 M 7334.34 12118.7 L 7040.69 12303.8 M 5836.58 6595.36 L 6045.04 6528.65 M 6045.04 6528.65 L 6010.94 6504.03 M 3843.81 8460.93 L 3733.91 8345.23 M 7163.65 10071 L 7242.9 9744.35 M 5550.2 11416 L 5826.06 10971.6 M 5619.57 11152.4 L 5550.2 11416 M 8294.09 14574.7 L 8051.21 15345.4 M 8051.21 15345.4 L 8412.39 14891.1 M 7718.46 14749.1 L 7507.19 15529 M 7507.19 15529 L 7976.56 15114.5 M 8466.36 10700.4 L 8341.38 11045.6 M 8341.38 11045.6 L 8754.41 11021.3 M 4954.53 10250.1 L 5172.73 10181.6 M 8072.14 12229.6 L 7687.27 12175.5 M 7436.82 12554.7 L 8072.14 12229.6 M 10121.2 12004.8 L 10060.6 11792.6 M 4518.17 11958.1 L 4647.05 11191.1 M 4647.05 11191.1 L 4111.48 11988.7 M 10438.7 16833.9 L 10254.2 16421.7 M 5122.81 6759.72 L 5255.87 6958.86 M 5255.87 6958.86 L 5210.28 6173.8 M 5572.37 12086.7 L 5381.19 12059.3 M 8748.38 11018.8 L 8813.85 11445.6 M 5959.03 10565.1 L 5722.79 10514.7 M 5722.79 10514.7 L 5597.68 10686.6 M 8657.68 11530.8 L 8581.44 11992.5 M 8959.06 11897.8 L 8657.68 11530.8 M 8035.5 10439.8 L 7403.48 9944.16 M 6010.94 6504.03 L 6186.73 6623.07 M 8468.82 12018 L 8403.91 12154.8 M 6996.54 10354.4 L 7163.65 10071 M 8482.25 10287.6 L 8313.88 10146.1 M 6556.25 2862.04 L 6520.54 2750.9 M 6011.85 1766.77 L 6556.25 2862.04 M 9287.55 14439.1 L 9601.46 14331.4 M 9601.46 14331.4 L 9147.07 14440.9 M 4147.73 5542.51 L 4446.38 5713.27 M 5438.07 11616.7 L 5164.97 11629.1 M 5164.97 11629.1 L 5255.25 11799.9 M 4953.29 11586.9 L 5553.32 11416.8 M 4735.65 6649.45 L 4653.17 6362.9 M 4653.17 6362.9 L 4290.81 6926.22 M 8950.55 10523.6 L 8748.38 11018.8 M 9042.38 14920.8 L 9338.15 14570.9 M 9338.15 14570.9 L 8929.28 14723 M 10465.3 14963.9 L 10147.6 15026.6 M 10843.2 17178.9 L 10698.3 17656.2 M 5059.44 11975.2 L 4784.3 11944 M 6874.24 8937.49 L 6950.27 8665.25 M 6950.27 8665.25 L 6735.63 8735.4 M 4468.85 280.359 L 4222.32 826.349 M 4222.32 826.349 L 4428.03 608.196 M 6719.63 13455.8 L 6511.68 13545.7 M 1985.87 3632.89 L 2069.95 3851.37 M 5789.07 8197.8 L 5655.45 8112.39 M 6426.82 12838.6 L 6579.49 13024.9 M 6262.05 10025.2 L 6191.25 10175.6 M 4187.54 4843.58 L 4198.76 4858.21 M 5199.4 7183.36 L 4982.1 7375.16 M 5343.13 8724.74 L 5713.28 8488.32 M 3983.69 631.794 L 4468.85 280.359 M 10535.4 14153.5 L 10135.5 14443.3 M 5144.77 10044.2 L 5373.4 10038.5 M 5226.32 9858.53 L 5144.77 10044.2 M 8583.63 11992.4 L 8670.51 11532.6 M 4249.09 692.679 L 4011.64 577.735 M 5471.54 11125.3 L 4897.75 11369.8 M 3192.63 410.191 L 2811.95 323.408 M 7460.78 8142.45 L 7401.34 7687.35 M 5468.28 6912.29 L 5833.25 7002.76 M 8936.73 14023.5 L 9111.55 14305.6 M 9111.55 14305.6 L 8939.03 13857 M 5553.32 11416.8 L 5619.57 11152.4 M 6080.88 11726.8 L 6048.28 11872.5 M 4897.75 11369.8 L 4706.78 11081.4 M 9340.08 13405.4 L 9335.03 13642.9 M 7036.95 12881.7 L 7328.01 12817.4 M 7341.08 12721.3 L 7036.95 12881.7 M 4177.91 9119.59 L 3883.28 9606.35 M 3883.28 9606.35 L 4354.07 9549.61 M 5606.41 6012.74 L 5285.11 5995.5 M 10128.4 14080.5 L 10234.8 13756.7 M 4369.25 8292.73 L 4496.93 8945.49 M 4036.28 13174.6 L 3682.94 12989.9 M 8583.31 12097.4 L 8583.63 11992.4 M 8442.67 14623 L 8665.43 14806.8 M 8045.3 9686.12 L 7529.54 9413.13 M 6611.81 9740.36 L 6393.26 9625.32 M 8985.52 10513.3 L 8876.24 10186.7 M 7401.34 7687.35 L 7039.38 7628.43 M 7039.38 7628.43 L 7249.4 7769.25 M 7799.65 14940.1 L 8164.92 15673.5 M 8201.46 15385.4 L 7799.65 14940.1 M 7771.77 15013.7 L 7718.86 15195.4 M 9410.54 12256.1 L 9404.71 12627.1 M 6483.8 9953.49 L 6813.58 9991.4 M 4130 10125.5 L 4879.79 10719.4 M 4846.29 10286.4 L 4130 10125.5 M 2141.53 4200.56 L 1549.15 4190.31 M 1549.15 4190.31 L 2005.82 4426.79 M 7738.81 15456.4 L 7765.76 15482.9 M 6360.91 8858.03 L 6072.79 8742.72 M 7478.63 13227.8 L 7607.21 13632.3 M 7529.54 9413.13 L 7573.52 9328.06 M 7573.52 9328.06 L 7417.07 9538.02 M 5100.49 12544.7 L 5166.99 12038.3 M 4899.82 12213.8 L 5100.49 12544.7 M 5303.96 7348.43 L 5372.32 7256.27 M 6806.14 8870.64 L 6601.67 9225.14 M 4390.18 798.97 L 4402.99 787.958 M 9258.14 11349.3 L 9424.41 10866 M 9424.41 10866 L 9234.44 11183.5 M 3571.41 12483.5 L 3443.82 12476.5 M 3200.99 12631.8 L 3571.41 12483.5 M 5647.9 10199.7 L 5431.94 9816.83 M 5357.65 7972.57 L 5435.63 8509.04 M 6239.44 10046.1 L 6346.69 9790.3 M 4875.58 8618.28 L 5034.73 9215.93 M 7049.02 5765.46 L 6215.5 5758.06 M 941.833 1664.85 L 3284.39 610.576 M 2287.02 336.484 L 941.833 1664.85 M 6424.29 6710.71 L 6071.76 5937.74 M 6084.58 6558.29 L 6867.56 6887.99 M 3582.42 480.144 L 1037.54 830.329 M 1037.54 830.329 L 4310.36 930.707 M 6802.61 10267.6 L 7044.24 10133.4 M 7120.02 9895.8 L 7212.19 9514.14 M 6203.97 6283 L 6780.96 6068.73 M 4164.51 8255 L 3985.92 8059.9 M 4794.57 5630.34 L 4778.94 5665.73 M 711.54 3395.57 L 0 3320.69 M 6531.01 11064.4 L 6733.51 11170.8 M 6511.68 13545.7 L 6633.85 14299.1 M 6633.85 14299.1 L 7143.69 14037.9 M 5967.1 13048.8 L 6105.39 12851.6 M 5803.14 12303.3 L 5967.1 13048.8 M 7838.42 9018.32 L 7597.31 8903.49 M 9519.66 14832.7 L 9155.28 15238.1 M 4192.83 7753.1 L 3905.07 8060.66 M 6853.86 10483.4 L 6996.54 10354.4 M 6757.44 13165 L 6983.53 13342.3 M 6408.17 1450.9 L 6332.81 1532.31 M 6589.08 2763.25 L 6333.18 1532.65 M 5435.63 8509.04 L 5670.47 8919.45 M 5670.47 8919.45 L 5791.11 8342.11 M 6735.63 8735.4 L 6979.46 8483.75 M 6979.46 8483.75 L 6655.38 8422.39 M 8849.18 14941 L 9377.84 14570.2 M 9199.43 14313.9 L 8849.18 14941 M 4870.61 4569.06 L 4408.19 5364.87 M 4408.19 5364.87 L 5668.45 4567.91 M 4802.64 5678.73 L 5506.18 5890.41 M 5506.18 5890.41 L 4111.31 5363.37 M 4621.7 18.8367 L 4013.62 0 M 4013.62 0 L 4474.26 269.051 M 4474.26 269.051 L 3960.32 126.053 M 3960.32 126.053 L 3675.4 73.4935 M 3082.56 11276.2 L 3595.33 11437.8 M 3509.6 11216.3 L 3082.56 11276.2 M 9923.56 11597 L 9680.02 11678.7 M 9680.02 11678.7 L 9861.09 11855.2 M 10060.6 11792.6 L 9923.56 11597 M 6233.15 11971.9 L 6401.3 11473.4 M 6401.3 11473.4 L 6080.88 11726.8 M 5915.03 3785 L 6076.15 3120.35 M 6559.89 8825.63 L 6545.87 9068.15 M 9256.93 12473.4 L 8849.01 12792.4 M 10960.6 16777.6 L 10843.2 17178.9 M 6041.66 11549.4 L 5471.54 11125.3 M 6693.8 10144.1 L 6672.49 10391.7 M 6672.49 10391.7 L 6793.81 10226.2 M 7876.08 15429.3 L 8052.4 15285.1 M 4136.3 7674.82 L 3844.37 8218.56 M 3985.92 8059.9 L 4136.3 7674.82 M 5804.24 6698.03 L 5664.21 6610.07 M 5408.45 6578.66 L 5804.24 6698.03 M 7412.52 8619.72 L 7460.78 8142.45 M 4290.86 7255.37 L 4396.22 7358.74 M 4564.7 7197.58 L 4618.08 7048.36 M 4738.22 11857.7 L 4953.29 11586.9 M 5034.73 9215.93 L 5365.68 9316.84 M 5365.68 9316.84 L 5343.13 8724.74 M 9861.09 11855.2 L 9517.04 11728.2 M 7351.23 9325.68 L 7123.14 9556.4 M 6514.19 10007.5 L 6481.36 10292 M 4677.34 5941.11 L 4271.35 6896.47 M 4362.09 10604.1 L 3833.23 11008.6 M 4129.34 11072.5 L 4362.09 10604.1 M 6487.59 3590.59 L 6589.08 2763.25 M 6304.57 2831.22 L 6487.59 3590.59 M 5225.82 12499.9 L 5345.85 12807.6 M 5345.85 12807.6 L 5465.07 12732.2 M 4319.62 7190.72 L 4290.86 7255.37 M 7565.76 10460.3 L 7842.86 10411.1 M 4204.28 13085 L 4214.08 13333.5 M 4214.08 13333.5 L 4510.21 12735.8 M 6873.22 10346.4 L 7039.49 10125.2 M 7039.49 10125.2 L 6802.61 10267.6 M 6257.55 12633.9 L 6426.82 12838.6 M 7817.18 13998.1 L 7736.22 13919.7 M 7761.28 14034.8 L 7817.18 13998.1 M 5495.38 8366.66 L 5177.23 7953.71 M 5650.08 9467.34 L 5626.03 9372.84 M 10441.9 14870.1 L 10766.3 14395.2 M 2005.82 4426.79 L 1543.77 4201 M 4368.06 10890.9 L 4521.38 11914.5 M 4781.49 11539.6 L 4368.06 10890.9 M 7856.83 14299.1 L 8284.83 13599.6 M 8284.83 13599.6 L 7761.28 14034.8 M 11615.2 17979.4 L 11999.9 18363.4 M 11999.9 18363.4 L 11399.7 17582.6 M 2462.8 3591.31 L 2100.72 2762.25 M 4370.56 8293.04 L 4461.95 7898.32 M 7086 14584 L 7931.36 14341.9 M 7447.17 14352.4 L 7086 14584 M 6030.87 12677.5 L 5371.06 12096.2 M 5497.66 12376.9 L 6030.87 12677.5 M 5371.06 12096.2 L 5225.82 12499.9 M 3956.04 5610.22 L 1985.2 4462.84 M 5345.87 8582.61 L 5747.02 9166.22 M 5723.98 12104 L 6233.15 11971.9 M 4618.08 7048.36 L 4732.7 6762.96 M 3969.73 5631.6 L 4096.12 6904.7 M 4096.12 6904.7 L 4609.4 6002.43 M 6936.42 9718.07 L 6781.11 9831.02 M 5379.03 10953.8 L 5456.14 10276.8 M 4323.6 5777.55 L 4677.34 5941.11 M 8207.73 15547.2 L 7807.17 15744.4 M 7807.17 15744.4 L 8203.78 15785.4 M 8197.74 15093.4 L 7994.69 15237 M 6890.41 9868.15 L 6682.81 9560.95 M 10223.2 12361.3 L 10121.2 12004.8 M 10160.4 12286.6 L 10223.2 12361.3 M 4208.19 11339.8 L 3849.49 10983.3 M 5107.51 7018.25 L 5468.28 6912.29 M 8223.71 11617.5 L 8468.82 12018 M 7143.22 9363.82 L 7351.23 9325.68 M 7552.43 9119.39 L 7143.22 9363.82 M 3467.3 11001.5 L 3055.44 11022.4 M 3055.44 11022.4 L 3509.6 11216.3 M 4977.5 9785.87 L 4677.15 9923.74 M 4677.15 9923.74 L 4954.53 10250.1 M 6983.53 13342.3 L 6719.63 13455.8 M 4628.53 13316 L 5154.54 12646.8 M 4624.54 12709.2 L 4628.53 13316 M 5740.1 8882.82 L 5614.14 9039.28 M 5466.07 10156.5 L 5358.12 10080.4 M 5172.73 10181.6 L 5466.07 10156.5 M 5513.23 10055.3 L 5704.78 9953.88 M 5704.78 9953.88 L 5443.48 9818.2 M 3723.88 586.075 L 3983.69 631.794 M 8412.39 14891.1 L 8442.67 14623 M 6834.54 11388.1 L 6331.91 11111.4 M 4982.1 7375.16 L 4778.75 8013.35 M 9462.1 15104.7 L 9042.38 14920.8 M 8449.46 14615 L 8408.27 14881.7 M 8665.43 14806.8 L 8449.46 14615 M 9517.04 11728.2 L 9258.14 11349.3 M 8754.41 11021.3 L 8950.55 10523.6 M 8498.94 10598.8 L 8466.36 10700.4 M 6160.4 11088.2 L 6507.94 10757.6 M 6486.71 10447 L 6160.4 11088.2 M 7321.59 8640.68 L 7412.52 8619.72 M 4007.45 7533.54 L 4192.83 7753.1 M 6224.13 7909.23 L 6129.51 7444.57 M 3956.36 5637.58 L 3958.69 5624.87 M 7430.65 11636.2 L 7338.93 11174.5 M 10640.4 15074.9 L 9277.55 15690 M 9277.55 15690 L 10489.7 15591.1 M 10489.7 15591.1 L 9278.02 15695.5 M 9256.93 12473.4 L 9409.7 12627.2 M 9409.7 12627.2 L 9410.54 12256.1 M 5164.5 10375.6 L 4846.29 10286.4 M 8147.53 14724.6 L 8162.81 14530.8 M 8162.81 14530.8 L 8117.35 14841.1 M 9708.06 15226 L 9984.65 14794.3 M 9984.65 14794.3 L 9868.65 14847.9 M 7587.77 10189.7 L 7836.89 9941.71 M 7836.89 9941.71 L 7575.25 9963.26 M 6800.14 12440.7 L 6445.55 12564.2 M 5004.17 8228.49 L 4859.8 8660.43 M 7480.85 10633.7 L 7575.86 10646.8 M 4685.6 7095.12 L 4564.7 7197.58 M 3595.33 11437.8 L 3148.94 11693.7 M 3148.94 11693.7 L 3673.53 11661.5 M 6438.19 1441.48 L 6920.81 1409.18 M 6920.56 1477.42 L 6438.19 1441.48 M 10139.1 14443.7 L 10549.3 14486.6 M 8058.84 9933.61 L 8511 10043.5 M 6090.6 1897.33 L 5925.08 2901.69 M 6076.15 3120.35 L 6090.6 1897.33 M 10698.3 17656.2 L 10565.2 18632 M 10565.2 18632 L 11112.3 16822.4 M 6712.23 9226.4 L 6360.91 8858.03 M 6452.46 9312.67 L 6712.23 9226.4 M 4521.38 11914.5 L 4787.79 11921.5 M 4272.35 11567.7 L 4249.33 12475.1 M 4249.33 12475.1 L 4482.09 12180.6 M 8939.03 13857 L 9523.9 14551.2 M 9523.9 14551.2 L 9455.74 13993.8 M 5431.94 9816.83 L 5545.6 10241.4 M 7629.83 14743.6 L 8197.74 15093.4 M 3443.82 12476.5 L 2177.67 12280.3 M 5664.21 6610.07 L 5613.49 6452.68 M 6971.7 11587.3 L 7381.02 11785.3 M 7381.02 11785.3 L 7039.14 11490.4 M 7994.69 15237 L 7803.57 15503.1 M 7803.57 15503.1 L 8321.23 15414.4 M 10254.2 16421.7 L 10438.4 16834.1 M 6619.32 10000.8 L 6494.99 10284.3 M 3682.94 12989.9 L 4078.38 12782.6 M 6579.49 13024.9 L 6757.44 13165 M 6191.25 10175.6 L 5931.69 10539.8 M 9155.28 15238.1 L 9783.93 15503.1 M 9783.93 15503.1 L 9462.1 15104.7 M 9563.1 15473.8 L 11199.8 14364.9 M 11199.8 14364.9 L 9995.15 14801.2 M 9570.75 14998.2 L 9688.84 14684.7 M 9688.84 14684.7 L 9519.66 14832.7 M 3883.63 12348.3 L 3682.81 12449.3 M 3682.81 12449.3 L 3957.11 12529.8 M 10150.1 16751.5 L 10250 17459.9 M 10250 17459.9 L 10438.7 16833.9 M 4354.07 9549.61 L 5185.41 9634.74 M 9350.92 15087.3 L 9105.97 15196.6 M 9105.97 15196.6 L 9427.62 15205.4 M 6743.81 9188.25 L 6874.24 8937.49 M 10451.6 14188.7 L 10128.4 14080.5 M 7988.93 11039.6 L 8300.09 10727 M 5232.08 9054.16 L 5267.9 8485.23 M 10441.9 13847.4 L 9829.09 13404.2 M 9924.26 13772.2 L 10441.9 13847.4 M 5127.48 4404.78 L 4870.61 4569.06 M 6186.73 6623.07 L 6859 7660.67 M 6859 7660.67 L 6424.29 6710.71 M 6215.5 5758.06 L 5506.5 5889.33 M 5039.97 9007.74 L 5422.17 9018.42 M 5267.9 8485.23 L 5039.97 9007.74 M 6122.99 9703.3 L 6267.43 9785.44 M 3958.69 5624.87 L 3969.73 5631.6 M 6733.51 11170.8 L 6745.72 11622.2 M 6745.72 11622.2 L 6911.29 11164.6 M 1985.46 3633.05 L 2141.53 4200.56 M 2069.95 3851.37 L 1985.46 3633.05 M 1543.77 4201 L 2136.21 4195.03 M 2136.21 4195.03 L 1620.6 3911.17 M 6149.04 9669.44 L 6282.39 9531.56 M 3849.49 10983.3 L 3467.3 11001.5 M 4428.03 608.196 L 4395.98 783.107 M 9556.02 15658.2 L 9485.87 15563.2 M 5255.25 11799.9 L 5803.14 12303.3 M 3458.94 12595.6 L 3594.12 12383.5 M 4276.56 5799.7 L 4104.92 5374.15 M 4144.1 7316.95 L 4084.28 7279.14 M 8404.47 13126.8 L 9179.9 13110 M 4078.38 12782.6 L 4204.28 13085 M 7400.45 9948.05 L 8035.5 10439.8 M 5372.32 7256.27 L 5258.01 7246.31 M 4859.8 8660.43 L 4769.78 9000.53 M 4769.78 9000.53 L 4868.49 8662.85 M 6920.81 1409.18 L 8046.5 1920.43 M 8046.5 1920.43 L 6588.46 1192.83 M 6520.54 2750.9 L 6026.61 1753.27 M 6528.18 10565.9 L 6673.81 10404.2 M 9829.09 13404.2 L 10583.4 13090.5 M 10583.4 13090.5 L 9627.07 13105.4 M 6481.36 10292 L 6486.71 10447 M 10701.8 15898 L 10757.5 16237.4 M 10757.5 16237.4 L 10864.6 15431.9 M 6642.38 2326.68 L 6433.51 1452.58 M 9823.58 15214 L 9762.87 14822.6 M 9762.87 14822.6 L 9389.67 16201.9 M 7316.92 10180.7 L 7262.03 10259.2 M 11146.1 17457.7 L 11695.2 18176.7 M 10864.6 15431.9 L 10921.1 15147.8 M 7039.14 11490.4 L 6834.54 11388.1 M 5076.42 11998.7 L 4639.38 11445.4 M 4639.38 11445.4 L 4572.91 11951.8 M 4290.81 6926.22 L 4319.62 7190.72 M 5488.2 7256.11 L 5659.1 7674.5 M 6129.51 7444.57 L 5488.2 7256.11 M 7211.5 10444 L 7366.53 10588.1 M 6081.9 9656.64 L 5650.08 9467.34 M 11399.7 17582.6 L 11162.1 17143.9 M 7586.86 15683.7 L 7738.81 15456.4 M 7718.86 15195.4 L 7586.86 15683.7 M 8929.28 14723 L 9158.76 15466.1 M 9158.76 15466.1 L 9287.55 14439.1 M 8876.24 10186.7 L 8549.42 10078.2 M 8549.42 10078.2 L 8482.25 10287.6 M 4109.96 5362.18 L 4763.29 4713.86 M 11112.3 16822.4 L 11103.9 16297.3 M 8360.56 12648.8 L 7825.79 12952 M 8404.47 13126.6 L 8360.56 12648.8 M 9868.65 14847.9 L 9570.75 14998.2 M 4242.15 7428.06 L 4144.1 7316.95 M 5529.55 9568.28 L 5626.22 9105.41 M 6785.11 10831.5 L 6874.99 10885.8 M 6874.99 10885.8 L 6853.86 10483.4 M 7403.48 9944.16 L 7354.59 9620.73 M 8874.06 15914.2 L 9031.32 16209.3 M 6380.7 8496.21 L 6191.27 8801 M 6191.27 8801 L 6559.89 8825.63 M 3528.46 11979.4 L 4015.63 12137.5 M 9427.62 15205.4 L 9823.58 15214 M 2162.37 4194.02 L 2551.35 3890.95 M 6445.55 12564.2 L 6800.47 12441.6 M 4310.36 930.707 L 2640.78 3747.43 M 6717.4 9523.24 L 6955.69 9266.34 M 6955.69 9266.34 L 6743.81 9188.25 M 7374.78 10586.4 L 7146.34 10571.8 M 10096.4 14793.3 L 10139.1 14443.7 M 1562.36 1987.68 L 1719.18 2622.39 M 2100.72 2762.25 L 1562.36 1987.68 M 5659.1 7674.5 L 5488.55 7255.96 M 6595.61 11762.1 L 7289.21 11912.8 M 7289.21 11912.8 L 6971.7 11587.3 M 6780.96 6068.73 L 7496.1 5783.41 M 7496.1 5783.41 L 7049.02 5765.46 M 5571.66 6568.84 L 5472.15 6342.42 M 4609.4 6002.43 L 4276.56 5799.7 M 5984.23 10560.1 L 5959.03 10565.1 M 6983.68 10291.5 L 7009.34 10054.1 M 6346.69 9790.3 L 6983.68 10291.5 M 4011.64 577.735 L 3582.42 480.144 M 7607.21 13632.3 L 7603.2 13947 M 7242.9 9744.35 L 7552.43 9119.39 M 7417.07 9538.02 L 7168.96 9718.59 M 7168.96 9718.59 L 7398.11 9686.88 M 6683.14 3560.16 L 6573.49 3600.22 M 5991.66 3923.49 L 6683.14 3560.16 M 6573.49 3600.22 L 5915.03 3785 M 2551.8 3891.54 L 2162.37 4194.02 M 4657.72 7535.55 L 5303.96 7348.43 M 6494.99 10284.3 L 6532.41 9976.96 M 6532.41 9976.96 L 6032.48 10208.6 M 5244.98 7642.38 L 5133.11 7991.81 M 5959.03 10565.2 L 5984.23 10560.1 M 3820.28 7312.23 L 4007.45 7533.54 M 4084.28 7279.14 L 3820.28 7312.23 M 4200.27 4843.88 L 4177.32 4855 M 8596.62 10486.3 L 8780.17 10498.6 M 7362.17 12598.8 L 6916.92 12779.6 M 5885.15 7988.69 L 5781.23 7331.73 M 5781.23 7331.73 L 5244.98 7642.38 M 4818.53 7942.99 L 5330.17 7514.3 M 5330.17 7514.3 L 4657.72 7535.55 M 4897.02 12689.7 L 5212.02 12699.9 M 5166.99 12038.3 L 4897.02 12689.7 M 6071.76 5937.74 L 5120.15 5847.03 M 5120.15 5847.03 L 5408.45 6578.66 M 8813.85 11445.6 L 8959.06 11897.8 M 7842.86 10411.1 L 8208.43 10607.7 M 6086.3 6556.43 L 5425.62 5951.01 M 5210.28 6173.8 L 6086.3 6556.43 M 8360.84 12649.3 L 8526.75 12011.8 M 8115.86 12747.2 L 8368.64 12781.3 M 8403.91 12154.8 L 8115.86 12747.2 M 7143.69 14037.9 L 7413.38 14238.4 M 5613.49 6452.68 L 5350.76 6422.2 M 5350.76 6422.2 L 5490.59 6847.29 M 6331.91 11111.4 L 6737.2 10880.7 M 5506.5 5889.33 L 4802.64 5678.73 M 10921.1 15147.8 L 10793.4 14552.9 M 10793.4 14552.9 L 10675.3 14986.5 M 10793.8 14553 L 10640.4 15074.9 M 10675.3 14986.5 L 10793.8 14553 M 9389.67 16201.9 L 9866.63 16463.4 M 8313.88 10146.1 L 7587.77 10189.7 M 8607.02 10801.9 L 8808.67 11218.9 M 8808.67 11218.9 L 8985.52 10513.3 M 6682.81 9560.95 L 6211.36 9555.35 M 7874.35 15427.1 L 8281.04 15979.8 M 8281.04 15979.8 L 8201.46 15385.4 M 7765.76 15482.9 L 8351.85 15923.7 M 8351.85 15923.7 L 7876.08 15429.3 M 7536.98 14038.3 L 7793.36 14032.3 M 7603.2 13947 L 7536.98 14038.3 M 6156.98 7259.47 L 6725.73 7275.63 M 6725.73 7275.63 L 6290.55 7010.55 M 9819.85 12441.5 L 9663.14 12488.7 M 9627.07 13105.4 L 9865.16 12410.9 M 9865.16 12410.9 L 9819.85 12441.5 M 6282.39 9531.56 L 6111.03 8889.07 M 3957.11 12529.8 L 3677.38 12470.9 M 8305.11 7178.44 L 7478.44 6825.89 M 6867.56 6887.99 L 8305.11 7178.44 M 5154.54 12646.8 L 5660.08 12477.3 M 5660.08 12477.3 L 5130.11 12441.4 M 1973.55 4449 L 1988.73 4456.81 M 5626.03 9372.84 L 5391.78 9314.12 M 7825.79 12952 L 8360.84 12649.3 M 7478.89 13228 L 7619.36 12910.4 M 7009.34 10054.1 L 6890.41 9868.15 M 5933.75 1899.58 L 6804.99 2404.78 M 6804.99 2404.78 L 6011.85 1766.77 M 3594.12 12383.5 L 3623.4 12049.8 M 3623.4 12049.8 L 3375.28 12272.9 M 9296.25 13121.5 L 8404.47 13126.6 M 6182.14 9677.98 L 6240.35 9708.15 M 2551.35 3890.95 L 2462.8 3591.31 M 6333.18 1532.65 L 6408.17 1450.9 M 6714.09 10844.7 L 6501.49 10814.4 M 4548.87 686.27 L 4249.09 692.679 M 4402.99 787.958 L 4548.87 686.27 M 9578.6 12274.8 L 9924.36 12337.5 M 5425.62 5951.01 L 6084.58 6558.29 M 8384.13 15454 L 8652.79 15827.5 M 8652.79 15827.5 L 8447.48 15001.5 M 5502.13 4215.16 L 5991.66 3923.49 M 7412.65 8798.19 L 7696.45 8681.49 M 7696.45 8681.49 L 7412.55 8619.84 M 6814.95 11495.4 L 6980.37 11699.2 M 7213.68 10762 L 7391.07 10774.7 M 9927 13766.4 L 9336.5 13643 M 7013.49 9377.92 L 6717.4 9523.24 M 8408.27 14881.7 L 7962.57 14510 M 7194.34 10993.9 L 7138.83 10824.9 M 9924.36 12337.5 L 10160.4 12286.6 M 8404.47 13126.7 L 9296.25 13121.5 M 9179.9 13110 L 8404.47 13126.7 M 9995.15 14801.2 L 9708.06 15226 M 8164.92 15673.5 L 8681.7 15804.9 M 8681.7 15804.9 L 8384.13 15454 M 7793.36 14032.3 L 7447.17 14352.4 M 7478.44 6825.89 L 6766.03 6533.84 M 6804.66 10462 L 6640.33 10275.6 M 6640.33 10275.6 L 6748.11 10586.5 M 5110.9 9948.91 L 4894.57 9771.15 M 4894.57 9771.15 L 5031.47 10014.5 M 5395.61 10966.8 L 5602.31 10690.2 M 5431.47 10286.3 L 5395.61 10966.8 M 6506.71 9864.83 L 6693.8 10144.1 M 6813.58 9991.4 L 6506.71 9864.83 M 7074.26 12660.9 L 6800.14 12440.7 M 6839.62 10426.2 L 6951.78 10570.7 M 4942.81 9743.65 L 4977.5 9785.87 M 7607.8 13632.4 L 7478.89 13228 M 10758.9 16237.2 L 10701.8 15898 M 3196.21 11696.7 L 3528.46 11979.4 M 4111.48 11988.7 L 3196.21 11696.7 M 5185.41 9634.74 L 5445.15 10152 M 5445.15 10152 L 5529.55 9568.28 M 10135.5 14443.3 L 10096.4 14793.3 M 4572.91 11951.8 L 4307.63 12233.6 M 4307.63 12233.6 L 4614.85 12555.2 M 4419.53 8546.77 L 4157.26 8254.73 M 4157.26 8254.73 L 4144.67 8685.09 M 6105.39 12851.6 L 6257.55 12633.9 M 8564.94 9806.36 L 7526.87 9418.24 M 7526.87 9418.24 L 8045.3 9686.12 M 5373.4 10038.5 L 5431.47 10286.3 M 8300.09 10727 L 7999.26 11049.6 M 7999.26 11049.6 L 8435.81 10852.7 M 5602.31 10690.2 L 5722.74 10514.9 M 5668.45 4567.91 L 5991.55 3923.3 M 5991.55 3923.3 L 5502.13 4215.16 M 4573.67 11437.6 L 4785.03 11299.4 M 10467.8 14978.2 L 10818.8 15592.5 M 10818.8 15592.5 L 10714.1 15376.8 M 10714.1 15376.8 L 10441.9 14870.1 M 5761.51 12510.8 L 5723.98 12104 M 4868.49 8662.85 L 4826.38 8011.85 M 4826.38 8011.85 L 4419.53 8546.77 M 8203.78 15785.4 L 8874.06 15914.2 M 4396.22 7358.74 L 4269.85 7282.48 M 4269.85 7282.48 L 4242.15 7428.06 M 7004.01 11672.6 L 6741.33 11439 M 6741.33 11439 L 6848.07 11889.7 M 7997.06 11409.5 L 8069.08 12223.7 M 5685.43 9795.94 L 6122.99 9703.3 M 7034.27 12876.5 L 7341.08 12721.3 M 7225.16 11892.7 L 7004.01 11672.6" />
<path fill="none" class="c" d=" M 5291.58 12200.4 L 5166.99 12038.3 M 5291.58 12200.4 L 5371.06 12096.2 M 5371.06 12096.2 L 5166.99 12038.3 M 5371.06 12096.2 L 5059.44 11975.2 M 4897.75 11369.8 L 5059.44 11975.2 M 5371.06 12096.2 L 4897.75 11369.8 M 5059.44 11975.2 L 5166.99 12038.3 M 4781.49 11539.6 L 5059.44 11975.2 M 4781.49 11539.6 L 4787.79 11921.5 M 5059.44 11975.2 L 4899.82 12213.8 M 4784.3 11944 L 4899.82 12213.8 M 4899.82 12213.8 L 5166.99 12038.3 M 5371.06 12096.2 L 5471.54 11125.3 M 5371.06 12096.2 L 5723.98 12104 M 5723.98 12104 L 5471.54 11125.3 M 5723.98 12104 L 6041.66 11549.4 M 6233.15 11971.9 L 6041.66 11549.4 M 6595.61 11762.1 L 6041.66 11549.4 M 6595.61 11762.1 L 5873.03 11170.5 M 6331.91 11111.4 L 5873.03 11170.5 M 5984.23 10560.1 L 5873.03 11170.5 M 5959.03 10565.1 L 5873.03 11170.5 M 5959.03 10565.1 L 5826.06 10971.6 M 6331.91 11111.4 L 5984.23 10560.1 M 6032.48 10208.6 L 5984.23 10560.1 M 6032.48 10208.6 L 5959.03 10565.2 M 6331.91 11111.4 L 6032.48 10208.6 M 6528.18 10565.9 L 6032.48 10208.6 M 6032.48 10208.6 L 5722.74 10514.9 M 6494.99 10284.3 L 6032.48 10208.6 M 5722.79 10514.7 L 5826.06 10971.6 M 5597.68 10686.6 L 5826.06 10971.6 M 5826.06 10971.6 L 5873.03 11170.5 M 5647.9 10199.7 L 5722.74 10514.9 M 5431.47 10286.3 L 5722.74 10514.9 M 5647.9 10199.7 L 5431.47 10286.3 M 5431.47 10286.3 L 5602.31 10690.2 M 6595.61 11762.1 L 6331.91 11111.4 M 6595.61 11762.1 L 6834.54 11388.1 M 5873.03 11170.5 L 6041.66 11549.4 M 6331.91 11111.4 L 6528.18 10565.9 M 6737.2 10880.7 L 6528.18 10565.9 M 4897.75 11369.8 L 4781.49 11539.6 M 4781.49 11539.6 L 4521.38 11914.5 M 5166.99 12038.3 L 5212.02 12699.9 M 5597.68 10686.6 L 5619.57 11152.4 M 5379.03 10953.8 L 5619.57 11152.4 M 5379.03 10953.8 L 5553.32 11416.8 M 5379.03 10953.8 L 4879.79 10719.4 M 5164.5 10375.6 L 4879.79 10719.4 M 5379.03 10953.8 L 5164.5 10375.6 M 5456.14 10276.8 L 5164.5 10375.6 M 4879.79 10719.4 L 5553.32 11416.8 M 4879.79 10719.4 L 4953.29 11586.9 M 4785.03 11299.4 L 4953.29 11586.9 M 4879.79 10719.4 L 4785.03 11299.4 M 4513.99 10834.2 L 4785.03 11299.4 M 4478.28 11084.1 L 4785.03 11299.4 M 4478.28 11084.1 L 4573.67 11437.6 M 4513.99 10834.2 L 4478.28 11084.1 M 4129.34 11072.5 L 4478.28 11084.1 M 4513.99 10834.2 L 4129.34 11072.5 M 4208.19 11339.8 L 4573.67 11437.6 M 4208.19 11339.8 L 4274.12 11571.4 M 4208.19 11339.8 L 4058.85 11811.6 M 4208.19 11339.8 L 3917.63 11604.7 M 3917.63 11604.7 L 4058.85 11811.6 M 4058.85 11811.6 L 4274.12 11571.4 M 3669.02 11636.5 L 4058.85 11811.6 M 4129.34 11072.5 L 4211.98 11343.8 M 4573.29 11437 L 4953.29 11586.9 M 4879.79 10719.4 L 4513.99 10834.2 M 3849.49 10983.3 L 3917.63 11604.7 M 3595.33 11437.8 L 3917.63 11604.7 M 3595.33 11437.8 L 3673.53 11661.5 M 4272.35 11567.7 L 4953.29 11586.9 M 4272.35 11567.7 L 4738.22 11857.7 M 4129.34 11072.5 L 3833.23 11008.6 M 6528.18 10565.9 L 6494.99 10284.3 M 6673.81 10404.2 L 6494.99 10284.3 M 3849.49 10983.3 L 3595.33 11437.8 M 3509.6 11216.3 L 3595.33 11437.8 M 6673.81 10404.2 L 6619.32 10000.8 M 6673.81 10404.2 L 6853.86 10483.4 M 6672.45 10633.2 L 6853.86 10483.4 M 6673.81 10404.2 L 6672.45 10633.2 M 6714.09 10844.7 L 6853.86 10483.4 M 6785.11 10831.5 L 6853.86 10483.4 M 6714.09 10844.7 L 6785.11 10831.5 M 6733.51 11170.8 L 6785.11 10831.5 M 6733.51 11170.8 L 6911.29 11164.6 M 6911.29 11164.6 L 6785.11 10831.5 M 6714.09 10844.7 L 6733.51 11170.8 M 6911.29 11164.6 L 6889.39 10819.1 M 7060.82 11008.1 L 6889.39 10819.1 M 7138.83 10824.9 L 6889.39 10819.1 M 7077.2 10675.6 L 6889.39 10819.1 M 7077.2 10675.6 L 6951.78 10570.7 M 7077.2 10675.6 L 6988.02 10467.7 M 7146.34 10571.8 L 6988.02 10467.7 M 6951.78 10570.7 L 6889.39 10819.1 M 6748.11 10586.5 L 6889.39 10819.1 M 6951.78 10570.7 L 6748.11 10586.5 M 6804.66 10462 L 6748.11 10586.5 M 6988.02 10467.7 L 6951.78 10570.7 M 6988.02 10467.7 L 6839.62 10426.2 M 6853.86 10483.4 L 6619.32 10000.8 M 6996.54 10354.4 L 6619.32 10000.8 M 6996.54 10354.4 L 6781.11 9831.02 M 6781.11 9831.02 L 6619.32 10000.8 M 6672.45 10633.2 L 6714.09 10844.7 M 7163.65 10071 L 6781.11 9831.02 M 7163.65 10071 L 6936.42 9718.07 M 6714.09 10844.7 L 6531.01 11064.4 M 6501.49 10814.4 L 6531.01 11064.4 M 6983.08 10305.3 L 6839.62 10426.2 M 6983.08 10305.3 L 6793.81 10226.2 M 6813.58 9991.4 L 6793.81 10226.2 M 6813.58 9991.4 L 6693.8 10144.1 M 6693.8 10144.1 L 6793.81 10226.2 M 6983.08 10305.3 L 6813.58 9991.4 M 6983.08 10305.3 L 7119.15 10338.6 M 7119.15 10338.6 L 6813.58 9991.4 M 7319.09 10016.7 L 6813.58 9991.4 M 7319.09 10016.7 L 7120.02 9895.8 M 7120.02 9895.8 L 6813.58 9991.4 M 7120.02 9895.8 L 6717.4 9523.24 M 6717.4 9523.24 L 6813.58 9991.4 M 6717.4 9523.24 L 6424.41 9633.07 M 6386.25 9432.7 L 6424.41 9633.07 M 6717.4 9523.24 L 6386.25 9432.7 M 6717.4 9523.24 L 6743.81 9188.25 M 6743.81 9188.25 L 6386.25 9432.7 M 6545.87 9068.15 L 6386.25 9432.7 M 6424.41 9633.07 L 6813.58 9991.4 M 6424.41 9633.07 L 6483.8 9953.49 M 6743.81 9188.25 L 6545.87 9068.15 M 6874.24 8937.49 L 6545.87 9068.15 M 6874.24 8937.49 L 6559.89 8825.63 M 6874.24 8937.49 L 6735.63 8735.4 M 6735.63 8735.4 L 6559.89 8825.63 M 6655.38 8422.39 L 6559.89 8825.63 M 6735.63 8735.4 L 6655.38 8422.39 M 6380.7 8496.21 L 6559.89 8825.63 M 6655.38 8422.39 L 6380.7 8496.21 M 6438.41 8113.71 L 6380.7 8496.21 M 6186.68 8122.36 L 6380.7 8496.21 M 6147.82 8339.87 L 6380.7 8496.21 M 7119.15 10338.6 L 7319.09 10016.7 M 7565.76 10460.3 L 7319.09 10016.7 M 7565.76 10460.3 L 7587.77 10189.7 M 7842.86 10411.1 L 7587.77 10189.7 M 7842.86 10411.1 L 8313.88 10146.1 M 8208.43 10607.7 L 8313.88 10146.1 M 8208.43 10607.7 L 8482.25 10287.6 M 8596.62 10486.3 L 8482.25 10287.6 M 8876.24 10186.7 L 8482.25 10287.6 M 8596.62 10486.3 L 8876.24 10186.7 M 8780.17 10498.6 L 8876.24 10186.7 M 8208.43 10607.7 L 8596.62 10486.3 M 8300.09 10727 L 8596.62 10486.3 M 8435.81 10852.7 L 8596.62 10486.3 M 8208.43 10607.7 L 8300.09 10727 M 8300.09 10727 L 8435.81 10852.7 M 8780.17 10498.6 L 8985.52 10513.3 M 8607.02 10801.9 L 8985.52 10513.3 M 8780.17 10498.6 L 8607.02 10801.9 M 6438.41 8113.71 L 6186.68 8122.36 M 6438.41 8113.71 L 6547.28 7798.48 M 7587.77 10189.7 L 7319.09 10016.7 M 7587.77 10189.7 L 7575.25 9963.26 M 7077.2 10675.6 L 7146.34 10571.8 M 7213.68 10762 L 7146.34 10571.8 M 7120.02 9895.8 L 7013.49 9377.92 M 7212.19 9514.14 L 7013.49 9377.92 M 8208.43 10607.7 L 7988.93 11039.6 M 7824.73 10765.9 L 7988.93 11039.6 M 6595.61 11762.1 L 6971.7 11587.3 M 4518.17 11958.1 L 4899.82 12213.8 M 4518.17 11958.1 L 4614.85 12555.2 M 4518.17 11958.1 L 4510.21 12735.8 M 4510.21 12735.8 L 4614.85 12555.2 M 4624.54 12709.2 L 4614.85 12555.2 M 5130.11 12441.4 L 4614.85 12555.2 M 5130.11 12441.4 L 4572.91 11951.8 M 5076.42 11998.7 L 4572.91 11951.8 M 5130.11 12441.4 L 5076.42 11998.7 M 4572.91 11951.8 L 4614.85 12555.2 M 4624.54 12709.2 L 5130.11 12441.4 M 4624.54 12709.2 L 5154.54 12646.8 M 5154.54 12646.8 L 5130.11 12441.4 M 4111.48 11988.7 L 4510.21 12735.8 M 3957.11 12529.8 L 4510.21 12735.8 M 4078.38 12782.6 L 4510.21 12735.8 M 3957.11 12529.8 L 4078.38 12782.6 M 4111.48 11988.7 L 3957.11 12529.8 M 4111.48 11988.7 L 4015.63 12137.5 M 4015.63 12137.5 L 3957.11 12529.8 M 3883.63 12348.3 L 3957.11 12529.8 M 4015.63 12137.5 L 3883.63 12348.3 M 3957.11 12529.8 L 3682.94 12989.9 M 3677.38 12470.9 L 3682.94 12989.9 M 3458.94 12595.6 L 3682.94 12989.9 M 6233.15 11971.9 L 6595.61 11762.1 M 6233.15 11971.9 L 6580.5 12257.1 M 6445.55 12564.2 L 6580.5 12257.1 M 6233.15 11971.9 L 6445.55 12564.2 M 6233.15 11971.9 L 6257.55 12633.9 M 6233.15 11971.9 L 5803.14 12303.3 M 5803.14 12303.3 L 6257.55 12633.9 M 6048.28 11872.5 L 5803.14 12303.3 M 6048.28 11872.5 L 5948.58 11850 M 5948.58 11850 L 5803.14 12303.3 M 6233.15 11971.9 L 6048.28 11872.5 M 6233.15 11971.9 L 6080.88 11726.8 M 5948.58 11850 L 5438.07 11616.7 M 5948.58 11850 L 5466.09 11591.4 M 5803.14 12303.3 L 6105.39 12851.6 M 5438.07 11616.7 L 5803.14 12303.3 M 5438.07 11616.7 L 5255.25 11799.9 M 6257.55 12633.9 L 6445.55 12564.2 M 6426.82 12838.6 L 6445.55 12564.2 M 6426.82 12838.6 L 6800.14 12440.7 M 6579.49 13024.9 L 6800.14 12440.7 M 6579.49 13024.9 L 7074.26 12660.9 M 6757.44 13165 L 7074.26 12660.9 M 6757.44 13165 L 7328.01 12817.4 M 6983.53 13342.3 L 7328.01 12817.4 M 7607.8 13632.4 L 7328.01 12817.4 M 7478.89 13228 L 7328.01 12817.4 M 7619.36 12910.4 L 7328.01 12817.4 M 7619.36 12910.4 L 7825.79 12952 M 7825.79 12952 L 7328.01 12817.4 M 7619.36 12910.4 L 8404.47 13126.6 M 7478.63 13227.8 L 8404.47 13126.6 M 8404.47 13126.6 L 7825.79 12952 M 7607.21 13632.3 L 8404.47 13126.6 M 8360.84 12649.3 L 7328.01 12817.4 M 8360.84 12649.3 L 7362.17 12598.8 M 8360.84 12649.3 L 8069.08 12223.7 M 8360.84 12649.3 L 8416.44 11716.8 M 8526.75 12011.8 L 8416.44 11716.8 M 8069.08 12223.7 L 7362.17 12598.8 M 7436.82 12554.7 L 7362.17 12598.8 M 7334.34 12118.7 L 7362.17 12598.8 M 7436.82 12554.7 L 7334.34 12118.7 M 7436.82 12554.7 L 7687.27 12175.5 M 7687.27 12175.5 L 7334.34 12118.7 M 7713.67 11904.5 L 7334.34 12118.7 M 7430.65 11636.2 L 7334.34 12118.7 M 7430.65 11636.2 L 7225.16 11892.7 M 7713.67 11904.5 L 7430.65 11636.2 M 7793.36 14032.3 L 8404.47 13126.6 M 7607.21 13632.3 L 7793.36 14032.3 M 7793.36 14032.3 L 7931.36 14341.9 M 7931.36 14341.9 L 8404.47 13126.6 M 7931.36 14341.9 L 8939.03 13857 M 8939.03 13857 L 8404.47 13126.6 M 8939.03 13857 L 9340.08 13405.4 M 9340.08 13405.4 L 8404.47 13126.6 M 9340.08 13405.4 L 9296.25 13121.5 M 9340.08 13405.4 L 9627.07 13105.4 M 9335.03 13642.9 L 9627.07 13105.4 M 9627.07 13105.4 L 9296.25 13121.5 M 9627.07 13105.4 L 9179.9 13110 M 8849.01 12792.4 L 9179.9 13110 M 9627.07 13105.4 L 8849.01 12792.4 M 9627.07 13105.4 L 9347.02 12628.5 M 9179.9 13110 L 9296.25 13121.5 M 9627.07 13105.4 L 9385.7 12457 M 9347.02 12628.5 L 8849.01 12792.4 M 9347.02 12628.5 L 9256.93 12473.4 M 8849.01 12792.4 L 8404.47 13126.8 M 9256.93 12473.4 L 8404.47 13126.8 M 8583.31 12097.4 L 8404.47 13126.8 M 8440.34 12616.1 L 8404.47 13126.8 M 8583.31 12097.4 L 8440.34 12616.1 M 8468.82 12018 L 8440.34 12616.1 M 8403.91 12154.8 L 8440.34 12616.1 M 8403.91 12154.8 L 8368.64 12781.3 M 8368.64 12781.3 L 8440.34 12616.1 M 8939.03 13857 L 9336.5 13643 M 9335.03 13642.9 L 9829.09 13404.2 M 9924.26 13772.2 L 9829.09 13404.2 M 6983.53 13342.3 L 7607.8 13632.4 M 7687.27 12175.5 L 7713.67 11904.5 M 7225.16 11892.7 L 7334.34 12118.7 M 7225.16 11892.7 L 6940.38 12137.2 M 7225.16 11892.7 L 6848.07 11889.7 M 8583.31 12097.4 L 8468.82 12018 M 8583.63 11992.4 L 8468.82 12018 M 7143.69 14037.9 L 7607.8 13632.4 M 7143.69 14037.9 L 7736.22 13919.7 M 7143.69 14037.9 L 7761.28 14034.8 M 7413.38 14238.4 L 7761.28 14034.8 M 7413.38 14238.4 L 7856.83 14299.1 M 7161.05 14366.1 L 7856.83 14299.1 M 7413.38 14238.4 L 7161.05 14366.1 M 7856.83 14299.1 L 7761.28 14034.8 M 7143.99 14037.6 L 7161.05 14366.1 M 9256.93 12473.4 L 8583.31 12097.4 M 8416.44 11716.8 L 8069.08 12223.7 M 6940.38 12137.2 L 7334.34 12118.7 M 7430.65 11636.2 L 6980.37 11699.2 M 7071.53 11382.8 L 6980.37 11699.2 M 7603.2 13947 L 7793.36 14032.3 M 8416.44 11716.8 L 7997.06 11409.5 M 9256.93 12473.4 L 8581.44 11992.5 M 8959.06 11897.8 L 8581.44 11992.5 M 8563.77 11865 L 8416.44 11716.8 M 9455.74 13993.8 L 9336.5 13643 M 9455.74 13993.8 L 9927 13766.4 M 8294.09 14574.7 L 8939.03 13857 M 8294.09 14574.7 L 8936.73 14023.5 M 7004.01 11672.6 L 6848.07 11889.7 M 8442.67 14623 L 8936.73 14023.5 M 7931.36 14341.9 L 8294.09 14574.7 M 8670.51 11532.6 L 8468.82 12018 M 8670.51 11532.6 L 8223.71 11617.5 M 8442.67 14623 L 8929.28 14723 M 8665.43 14806.8 L 8929.28 14723 M 8665.43 14806.8 L 9042.38 14920.8 M 9042.38 14920.8 L 8929.28 14723 M 8537.33 15173.7 L 9042.38 14920.8 M 8721.75 15439.4 L 9042.38 14920.8 M 8721.75 15439.4 L 9155.28 15238.1 M 9278.02 15695.5 L 9155.28 15238.1 M 9485.87 15563.2 L 9155.28 15238.1 M 8721.75 15439.4 L 9278.02 15695.5 M 8721.75 15439.4 L 8874.06 15914.2 M 9278.02 15695.5 L 9485.87 15563.2 M 8874.06 15914.2 L 9278.02 15695.5 M 9031.32 16209.3 L 9278.02 15695.5 M 8665.43 14806.8 L 8537.33 15173.7 M 8665.43 14806.8 L 8408.27 14881.7 M 7713.67 11904.5 L 7900.12 11515.6 M 8294.09 14574.7 L 8442.67 14623 M 9193.67 16540 L 9278.02 15695.5 M 10281.7 16300.2 L 9278.02 15695.5 M 8408.27 14881.7 L 8537.33 15173.7 M 8408.27 14881.7 L 8197.74 15093.4 M 6577.43 13952.8 L 7161.05 14366.1 M 8939.03 13857 L 9455.74 13993.8 M 6800.47 12441.6 L 6580.5 12257.1 M 9485.87 15563.2 L 9519.66 14832.7 M 9570.75 14998.2 L 9519.66 14832.7 M 7071.53 11382.8 L 6814.95 11495.4 M 5130.11 12441.4 L 5436.45 12224.7 M 6971.7 11587.3 L 6834.54 11388.1 M 6971.7 11587.3 L 7039.14 11490.4 M 9256.93 12473.4 L 8959.06 11897.8 M 9517.04 11728.2 L 8959.06 11897.8 M 9517.04 11728.2 L 8813.85 11445.6 M 9256.93 12473.4 L 9517.04 11728.2 M 9256.93 12473.4 L 9410.54 12256.1 M 9258.14 11349.3 L 8813.85 11445.6 M 9258.14 11349.3 L 8748.38 11018.8 M 9234.44 11183.5 L 8748.38 11018.8 M 9410.54 12256.1 L 9517.04 11728.2 M 9410.54 12256.1 L 9578.6 12274.8 M 9404.71 12627.1 L 9578.6 12274.8 M 9578.6 12274.8 L 9517.04 11728.2 M 9578.6 12274.8 L 9861.09 11855.2 M 9578.6 12274.8 L 10060.6 11792.6 M 9924.36 12337.5 L 10060.6 11792.6 M 9924.36 12337.5 L 10121.2 12004.8 M 9173.81 10473.4 L 8748.38 11018.8 M 9173.81 10473.4 L 8950.55 10523.6 M 8842.19 10524.8 L 8950.55 10523.6 M 9173.81 10473.4 L 8842.19 10524.8 M 8498.94 10598.8 L 8950.55 10523.6 M 8842.19 10524.8 L 8498.94 10598.8 M 8498.94 10598.8 L 8754.41 11021.3 M 8466.36 10700.4 L 8754.41 11021.3 M 10160.4 12286.6 L 10121.2 12004.8 M 7060.82 11008.1 L 7138.83 10824.9 M 7060.82 11008.1 L 7194.34 10993.9 M 9627.07 13105.4 L 9663.14 12488.7 M 7822.97 14944.3 L 8294.09 14574.7 M 7822.97 14944.3 L 8109.53 14728.7 M 5647.9 10199.7 L 5373.4 10038.5 M 5431.94 9816.83 L 5373.4 10038.5 M 5226.32 9858.53 L 5373.4 10038.5 M 5431.94 9816.83 L 5226.32 9858.53 M 5431.94 9816.83 L 5254.24 9648.08 M 5650.08 9467.34 L 5254.24 9648.08 M 5626.03 9372.84 L 5254.24 9648.08 M 5626.03 9372.84 L 4942.81 9743.65 M 5391.78 9314.12 L 4942.81 9743.65 M 4942.81 9743.65 L 5254.24 9648.08 M 4977.5 9785.87 L 5254.24 9648.08 M 4977.5 9785.87 L 5245.12 9860.18 M 5431.94 9816.83 L 5650.08 9467.34 M 5431.94 9816.83 L 5685.43 9795.94 M 5110.9 9948.91 L 5245.12 9860.18 M 5160.78 10114.9 L 5245.12 9860.18 M 5545.6 10241.4 L 5685.43 9795.94 M 5685.43 9795.94 L 5650.08 9467.34 M 6122.99 9703.3 L 5650.08 9467.34 M 6122.99 9703.3 L 6081.9 9656.64 M 6149.04 9669.44 L 6081.9 9656.64 M 6149.04 9669.44 L 5747.02 9166.22 M 6282.39 9531.56 L 5747.02 9166.22 M 6282.39 9531.56 L 5345.87 8582.61 M 5752.72 8762.12 L 5345.87 8582.61 M 5752.72 8762.12 L 5267.9 8485.23 M 5752.72 8762.12 L 5495.38 8366.66 M 5839.88 8390.15 L 5495.38 8366.66 M 5752.72 8762.12 L 5839.88 8390.15 M 5752.72 8762.12 L 6286.1 8784.79 M 6286.1 8784.79 L 5839.88 8390.15 M 5267.9 8485.23 L 5345.87 8582.61 M 5267.9 8485.23 L 5422.17 9018.42 M 5422.17 9018.42 L 5345.87 8582.61 M 5839.88 8390.15 L 5133.11 7991.81 M 6033.06 9710.11 L 5345.87 8582.61 M 6033.06 9710.11 L 6182.14 9677.98 M 5495.38 8366.66 L 5267.9 8485.23 M 5495.38 8366.66 L 5004.17 8228.49 M 6182.14 9677.98 L 5345.87 8582.61 M 6182.14 9677.98 L 5816.71 9111.6 M 6182.14 9677.98 L 6211.36 9555.35 M 5422.17 9018.42 L 6033.06 9710.11 M 6282.39 9531.56 L 5752.72 8762.12 M 5004.17 8228.49 L 5267.9 8485.23 M 6282.39 9531.56 L 5713.28 8488.32 M 6282.39 9531.56 L 5655.45 8112.39 M 6111.03 8889.07 L 5655.45 8112.39 M 6072.79 8742.72 L 5655.45 8112.39 M 6072.79 8742.72 L 5789.07 8197.8 M 6111.03 8889.07 L 6072.79 8742.72 M 6111.03 8889.07 L 6452.46 9312.67 M 6452.46 9312.67 L 6072.79 8742.72 M 6452.46 9312.67 L 6360.91 8858.03 M 6281.68 9531.75 L 6452.46 9312.67 M 6363.72 9778.08 L 6452.46 9312.67 M 6363.72 9778.08 L 6601.67 9225.14 M 6363.72 9778.08 L 7354.59 9620.73 M 7044.24 10133.4 L 7354.59 9620.73 M 7354.59 9620.73 L 6601.67 9225.14 M 6363.72 9778.08 L 7044.24 10133.4 M 6514.19 10007.5 L 7044.24 10133.4 M 7354.59 9620.73 L 6806.14 8870.64 M 7404.86 9096.46 L 6806.14 8870.64 M 7404.86 9096.46 L 7027.49 8703.43 M 7404.86 9096.46 L 7321.59 8640.68 M 7412.65 8798.19 L 7321.59 8640.68 M 7044.24 10133.4 L 7403.48 9944.16 M 7316.92 10180.7 L 7403.48 9944.16 M 7316.92 10180.7 L 8035.5 10439.8 M 7262.03 10259.2 L 8035.5 10439.8 M 7262.03 10259.2 L 8328.43 10545 M 8328.43 10545 L 8035.5 10439.8 M 8409.01 10322 L 8035.5 10439.8 M 8328.43 10545 L 8409.01 10322 M 8409.01 10322 L 7400.45 9948.05 M 8409.01 10322 L 8082.04 9971.91 M 8493.33 10100.2 L 8082.04 9971.91 M 8058.84 9933.61 L 8082.04 9971.91 M 7398.11 9686.65 L 8082.04 9971.91 M 7398.11 9686.65 L 7375.26 9774.83 M 7375.26 9774.83 L 8082.04 9971.91 M 8058.84 9933.61 L 7398.11 9686.65 M 8511 10043.5 L 7398.11 9686.65 M 8511 10043.5 L 7981.5 9684.66 M 8511 10043.5 L 8564.94 9806.36 M 8564.94 9806.36 L 7981.5 9684.66 M 8564.94 9806.36 L 8045.3 9686.12 M 8045.3 9686.12 L 7981.5 9684.66 M 7417.07 9538.02 L 7981.5 9684.66 M 7417.07 9538.02 L 7398.11 9686.88 M 8045.3 9686.12 L 7417.07 9538.02 M 5655.45 8112.39 L 5713.28 8488.32 M 5655.45 8112.39 L 5343.13 8724.74 M 5395.31 7954.48 L 5343.13 8724.74 M 5235.07 8945.37 L 6033.06 9710.11 M 5235.07 8945.37 L 5633.34 9394.91 M 5839.88 8390.15 L 5244.98 7642.38 M 5885.15 7988.69 L 5244.98 7642.38 M 7412.65 8798.19 L 7412.55 8619.84 M 7404.86 9096.46 L 7412.65 8798.19 M 7404.86 9096.46 L 7597.31 8903.49 M 4859.8 8660.43 L 5267.9 8485.23 M 4859.8 8660.43 L 5232.08 9054.16 M 4769.78 9000.53 L 5232.08 9054.16 M 4769.78 9000.53 L 5185.41 9634.74 M 4769.78 9000.53 L 4177.91 9119.59 M 4177.91 9119.59 L 5185.41 9634.74 M 4769.78 9000.53 L 4419.53 8546.77 M 4868.49 8662.85 L 4419.53 8546.77 M 5185.41 9634.74 L 5232.08 9054.16 M 5529.55 9568.28 L 5232.08 9054.16 M 4419.53 8546.77 L 4177.91 9119.59 M 4419.53 8546.77 L 4144.67 8685.09 M 4144.67 8685.09 L 4177.91 9119.59 M 4144.67 8685.09 L 3802.5 8684.48 M 4164.51 8255 L 3802.5 8684.48 M 4164.51 8255 L 3733.91 8345.23 M 4164.51 8255 L 3844.37 8218.56 M 3844.37 8218.56 L 3733.91 8345.23 M 3844.37 8218.56 L 3711.84 8341.36 M 3802.5 8684.48 L 4177.91 9119.59 M 5185.41 9634.74 L 5529.55 9568.28 M 6240.35 9708.15 L 6211.36 9555.35 M 6240.35 9708.15 L 6682.81 9560.95 M 6346.69 9790.3 L 6682.81 9560.95 M 4818.53 7942.99 L 5343.13 8724.74 M 4875.58 8618.28 L 5343.13 8724.74 M 5034.73 9215.93 L 5343.13 8724.74 M 5713.28 8488.32 L 5752.72 8762.12 M 4818.53 7942.99 L 4875.58 8618.28 M 4818.53 7942.99 L 4369.25 8292.73 M 4818.53 7942.99 L 4461.95 7898.32 M 4657.72 7535.55 L 4461.95 7898.32 M 4657.72 7535.55 L 4192.83 7753.1 M 4242.15 7428.06 L 4192.83 7753.1 M 4657.72 7535.55 L 4242.15 7428.06 M 4396.22 7358.74 L 4242.15 7428.06 M 4657.72 7535.55 L 4396.22 7358.74 M 4818.53 7942.99 L 4657.72 7535.55 M 4192.83 7753.1 L 4461.95 7898.32 M 4192.83 7753.1 L 4370.56 8293.04 M 4369.25 8292.73 L 4875.58 8618.28 M 4657.72 7535.55 L 4564.7 7197.58 M 5303.96 7348.43 L 4564.7 7197.58 M 5303.96 7348.43 L 4685.6 7095.12 M 5303.96 7348.43 L 4993.06 7103.04 M 5372.32 7256.27 L 4993.06 7103.04 M 5372.32 7256.27 L 4916.58 6883 M 5122.81 6759.72 L 4916.58 6883 M 5122.81 6759.72 L 4271.35 6896.47 M 5210.28 6173.8 L 4271.35 6896.47 M 4271.35 6896.47 L 4916.58 6883 M 4916.58 6883 L 4993.06 7103.04 M 5372.32 7256.27 L 5122.81 6759.72 M 5372.32 7256.27 L 5342.85 6665.15 M 5468.28 6912.29 L 5342.85 6665.15 M 5468.28 6912.29 L 5571.66 6568.84 M 5571.66 6568.84 L 5342.85 6665.15 M 5372.32 7256.27 L 5468.28 6912.29 M 5372.32 7256.27 L 5488.55 7255.96 M 5372.32 7256.27 L 5349.71 7814.18 M 5349.71 7814.18 L 5488.55 7255.96 M 5349.71 7814.18 L 5659.1 7674.5 M 5833.25 7002.76 L 5571.66 6568.84 M 5878.57 6708.04 L 5571.66 6568.84 M 5488.55 7255.96 L 5468.28 6912.29 M 5490.59 6847.29 L 5468.28 6912.29 M 5490.59 6847.29 L 5107.51 7018.25 M 5488.55 7255.96 L 5490.59 6847.29 M 5664.21 6610.07 L 5490.59 6847.29 M 5488.55 7255.96 L 5664.21 6610.07 M 6014.35 6846.09 L 5664.21 6610.07 M 6014.35 6846.09 L 5836.58 6595.36 M 5836.58 6595.36 L 5664.21 6610.07 M 6010.94 6504.03 L 5664.21 6610.07 M 5488.55 7255.96 L 6014.35 6846.09 M 6156.98 7259.47 L 6014.35 6846.09 M 5791.11 8342.11 L 5659.1 7674.5 M 5791.11 8342.11 L 6129.51 7444.57 M 5791.11 8342.11 L 6224.13 7909.23 M 6129.51 7444.57 L 5659.1 7674.5 M 5369.92 6416.36 L 5107.51 7018.25 M 5258.01 7246.31 L 5349.71 7814.18 M 5258.01 7246.31 L 5151.62 7583.16 M 3905.07 8060.66 L 4370.56 8293.04 M 6014.35 6846.09 L 6045 6528.51 M 4564.7 7197.58 L 4396.22 7358.74 M 4564.7 7197.58 L 4290.86 7255.37 M 4618.08 7048.36 L 4290.86 7255.37 M 4618.08 7048.36 L 4319.62 7190.72 M 4618.08 7048.36 L 4290.81 6926.22 M 4732.7 6762.96 L 4290.81 6926.22 M 4735.65 6649.45 L 4290.81 6926.22 M 4369.25 8292.73 L 5035.01 9215.86 M 4496.93 8945.49 L 5035.01 9215.86 M 6156.98 7259.47 L 6290.55 7010.55 M 5177.23 7953.71 L 5004.17 8228.49 M 5177.23 7953.71 L 4778.75 8013.35 M 5327.56 7619.02 L 4778.75 8013.35 M 5327.56 7619.02 L 4982.1 7375.16 M 5360.1 7411.19 L 4982.1 7375.16 M 4778.75 8013.35 L 5004.17 8228.49 M 6514.19 10007.5 L 6802.61 10267.6 M 6481.36 10292 L 6802.61 10267.6 M 5836.58 6595.36 L 6010.94 6504.03 M 3711.84 8341.36 L 3733.91 8345.23 M 6010.94 6504.03 L 5408.45 6578.66 M 6071.76 5937.74 L 5408.45 6578.66 M 5160.78 10114.9 L 5443.48 9818.2 M 5513.23 10055.3 L 5443.48 9818.2 M 5360.1 7411.19 L 5199.4 7183.36 M 5613.49 6452.68 L 5490.59 6847.29 M 5472.15 6342.42 L 5342.85 6665.15 M 4779.7 5666.05 L 5342.85 6665.15 M 4177.91 9119.59 L 4354.07 9549.61 M 5349.71 7814.18 L 5791.11 8342.11 M 5357.65 7972.57 L 5791.11 8342.11 M 5435.63 8509.04 L 5791.11 8342.11 M 3985.92 8059.9 L 3844.37 8218.56 M 7404.86 9096.46 L 7838.42 9018.32 M 6122.99 9703.3 L 6149.04 9669.44 M 3733.91 8345.23 L 3802.5 8684.48 M 6240.35 9708.15 L 6346.69 9790.3 M 6240.35 9708.15 L 6239.44 10046.1 M 6179.83 9867.04 L 6239.44 10046.1 M 5529.55 9568.28 L 5614.14 9039.28 M 5626.22 9105.41 L 5614.14 9039.28 M 6346.69 9790.3 L 6890.41 9868.15 M 6281.68 9531.75 L 6363.72 9778.08 M 5448.68 12306 L 5371.06 12096.2 M 7321.59 8640.68 L 7027.49 8703.43 M 7321.59 8640.68 L 7024.25 7892.89 M 7412.52 8619.72 L 7024.25 7892.89 M 7460.78 8142.45 L 7024.25 7892.89 M 7460.78 8142.45 L 7249.4 7769.25 M 3802.5 8684.48 L 3676.6 9028.29 M 7430.65 11636.2 L 7071.53 11382.8 M 7338.93 11174.5 L 7071.53 11382.8 M 5110.9 9948.91 L 5160.78 10114.9 M 5110.9 9948.91 L 5031.47 10014.5 M 3849.49 10983.3 L 3509.6 11216.3 M 3467.3 11001.5 L 3509.6 11216.3 M 7362.17 12598.8 L 7328.01 12817.4 M 7341.08 12721.3 L 7328.01 12817.4 M 9514.78 14309.1 L 9927 13766.4 M 9514.78 14309.1 L 10128.4 14080.5 M 9890.92 14569 L 10128.4 14080.5 M 9890.92 14569 L 10139.1 14443.7 M 9890.92 14569 L 10096.4 14793.3 M 9823.58 15214 L 10096.4 14793.3 M 10147.6 15026.6 L 10096.4 14793.3 M 9890.92 14569 L 9823.58 15214 M 9823.58 15214 L 10147.6 15026.6 M 10147.6 15026.6 L 10441.9 14870.1 M 10441.9 14870.1 L 10096.4 14793.3 M 9715.41 14656.2 L 9823.58 15214 M 10441.9 14870.1 L 10135.5 14443.3 M 9823.58 15214 L 10465.3 14963.9 M 9890.92 14569 L 9715.41 14656.2 M 10139.1 14443.7 L 10128.4 14080.5 M 10139.1 14443.7 L 10451.6 14188.7 M 9389.67 16201.9 L 10465.3 14963.9 M 9519.98 14301.7 L 9715.41 14656.2 M 9377.84 14570.2 L 9715.41 14656.2 M 7362.17 12598.8 L 7341.08 12721.3 M 8109.53 14728.7 L 8294.09 14574.7 M 7771.77 15013.7 L 8109.53 14728.7 M 7771.77 15013.7 L 7976.56 15114.5 M 7718.86 15195.4 L 7976.56 15114.5 M 8052.4 15285.1 L 7976.56 15114.5 M 7718.86 15195.4 L 8052.4 15285.1 M 7718.86 15195.4 L 7876.08 15429.3 M 7718.86 15195.4 L 7738.81 15456.4 M 8447.48 15001.5 L 7976.56 15114.5 M 8447.48 15001.5 L 8099.22 14962.7 M 8052.4 15285.1 L 8447.48 15001.5 M 8052.4 15285.1 L 8201.46 15385.4 M 8201.46 15385.4 L 8447.48 15001.5 M 8099.22 14962.7 L 7976.56 15114.5 M 7874.35 15427.1 L 8201.46 15385.4 M 7738.81 15456.4 L 7876.08 15429.3 M 7765.76 15482.9 L 7876.08 15429.3 M 8447.48 15001.5 L 8117.35 14841.1 M 4032.28 7630.71 L 3711.84 8341.36 M 10060.6 11792.6 L 9861.09 11855.2 M 9923.56 11597 L 9861.09 11855.2 M 6186.68 8122.36 L 6147.82 8339.87 M 6363.72 9778.08 L 6514.19 10007.5 M 6262.05 10025.2 L 6514.19 10007.5 M 6191.25 10175.6 L 6514.19 10007.5 M 6191.25 10175.6 L 6505.67 10293.8 M 5931.69 10539.8 L 6505.67 10293.8 M 5931.69 10539.8 L 6536.33 10445.8 M 9485.87 15563.2 L 9570.75 14998.2 M 9563.1 15473.8 L 9570.75 14998.2 M 9708.06 15226 L 9570.75 14998.2 M 7040.69 12303.8 L 7362.17 12598.8 M 7040.69 12303.8 L 6881.7 12591.5 M 6831.39 12197 L 6881.7 12591.5 M 6831.39 12197 L 6535.96 12556 M 6746.33 12152.7 L 6535.96 12556 M 6424.97 12071 L 6535.96 12556 M 6354.73 12497.4 L 6535.96 12556 M 6424.97 12071 L 6354.73 12497.4 M 8201.46 15385.4 L 8384.13 15454 M 8164.92 15673.5 L 8384.13 15454 M 8201.46 15385.4 L 8164.92 15673.5 M 6781.11 9831.02 L 6531.04 9940.9 M 6611.81 9740.36 L 6531.04 9940.9 M 8197.74 15093.4 L 8537.33 15173.7 M 8197.74 15093.4 L 8321.23 15414.4 M 7994.69 15237 L 8321.23 15414.4 M 10549.3 14486.6 L 10451.6 14188.7 M 6983.53 13342.3 L 7143.69 14037.9 M 6719.63 13455.8 L 7143.69 14037.9 M 6511.68 13545.7 L 7143.69 14037.9 M 7529.54 9413.13 L 7417.07 9538.02 M 6601.67 9225.14 L 6452.46 9312.67 M 4518.17 11958.1 L 4111.48 11988.7 M 5619.57 11152.4 L 5826.06 10971.6 M 8384.13 15454 L 8447.48 15001.5 M 3200.99 12631.8 L 3682.94 12989.9 M 3200.99 12631.8 L 3510.9 13183.7 M 3510.9 13183.7 L 3682.94 12989.9 M 5210.28 6173.8 L 4677.34 5941.11 M 5210.28 6173.8 L 5425.62 5951.01 M 5425.62 5951.01 L 4677.34 5941.11 M 4802.64 5678.73 L 4677.34 5941.11 M 4802.64 5678.73 L 4323.6 5777.55 M 4802.64 5678.73 L 4104.92 5374.15 M 4111.31 5363.37 L 4104.92 5374.15 M 4108.01 5365.75 L 4104.92 5374.15 M 2141.53 4200.56 L 4104.92 5374.15 M 2141.53 4200.56 L 2005.82 4426.79 M 4108.01 5365.75 L 2141.53 4200.56 M 2162.37 4194.02 L 2141.53 4200.56 M 4108.01 5365.75 L 2162.37 4194.02 M 4109.96 5362.18 L 2162.37 4194.02 M 4177.32 4855 L 2162.37 4194.02 M 4177.32 4855 L 2551.8 3891.54 M 2563.03 3880.44 L 2551.8 3891.54 M 4177.32 4855 L 2563.03 3880.44 M 4177.32 4855 L 4187.54 4843.58 M 4187.54 4843.58 L 2563.03 3880.44 M 4187.54 4843.58 L 4267.07 4711.39 M 4267.07 4711.39 L 2563.03 3880.44 M 4267.07 4711.39 L 2640.78 3747.43 M 5915.03 3785 L 2640.78 3747.43 M 2640.78 3747.43 L 2563.03 3880.44 M 2005.82 4426.79 L 4104.92 5374.15 M 3956.04 5610.22 L 4104.92 5374.15 M 3956.04 5610.22 L 3958.69 5624.87 M 3958.69 5624.87 L 4104.92 5374.15 M 2005.82 4426.79 L 3956.04 5610.22 M 2005.82 4426.79 L 1988.73 4456.81 M 1985.2 4462.84 L 3958.69 5624.87 M 1985.2 4462.84 L 2768.9 4937.09 M 1971.17 4472.56 L 2768.9 4937.09 M 2768.9 4937.09 L 3958.69 5624.87 M 2768.9 4937.09 L 3956.36 5637.58 M 3969.73 5631.6 L 4104.92 5374.15 M 2551.35 3890.95 L 2141.53 4200.56 M 2551.35 3890.95 L 2069.95 3851.37 M 2462.8 3591.31 L 2069.95 3851.37 M 4198.76 4858.21 L 4267.07 4711.39 M 5925.08 2901.69 L 2640.78 3747.43 M 4109.96 5362.18 L 4177.32 4855 M 4109.96 5362.18 L 4200.27 4843.88 M 5925.08 2901.69 L 4310.36 930.707 M 5091.79 1398.15 L 4310.36 930.707 M 5090.96 1388.8 L 4310.36 930.707 M 4390.18 798.97 L 4310.36 930.707 M 5090.96 1388.8 L 4390.18 798.97 M 5090.96 1388.8 L 6011.85 1766.77 M 5933.75 1899.58 L 6011.85 1766.77 M 6011.85 1766.77 L 4390.18 798.97 M 5090.96 1388.8 L 5933.75 1899.58 M 5091.78 1398.15 L 5933.75 1899.58 M 6011.85 1766.77 L 4395.98 783.107 M 6026.61 1753.27 L 4395.98 783.107 M 6408.17 1450.9 L 4395.98 783.107 M 6408.17 1450.9 L 4428.03 608.196 M 6408.17 1450.9 L 4468.85 280.359 M 6408.17 1450.9 L 6433.51 1452.58 M 6433.51 1452.58 L 4468.85 280.359 M 6433.51 1452.58 L 4474.26 269.051 M 6438.19 1441.48 L 4474.26 269.051 M 4621.7 18.8367 L 4474.26 269.051 M 6438.19 1441.48 L 4621.7 18.8367 M 6588.46 1192.83 L 4621.7 18.8367 M 6438.19 1441.48 L 6588.46 1192.83 M 4474.26 269.051 L 4468.85 280.359 M 6433.51 1452.58 L 6438.19 1441.48 M 4011.64 577.735 L 4310.36 930.707 M 6433.51 1452.58 L 6920.56 1477.42 M 6011.85 1766.77 L 6026.61 1753.27 M 3969.73 5631.6 L 4276.56 5799.7 M 3960.32 126.053 L 4468.85 280.359 M 4763.29 4713.86 L 4200.27 4843.88 M 3969.73 5631.6 L 4609.4 6002.43 M 3582.42 480.144 L 4310.36 930.707 M 4267.07 4711.39 L 5915.03 3785 M 5991.66 3923.49 L 5915.03 3785 M 5425.62 5951.01 L 4802.64 5678.73 M 5425.62 5951.01 L 5506.5 5889.33 M 6203.97 6283 L 5506.5 5889.33 M 6203.97 6283 L 6215.5 5758.06 M 5425.62 5951.01 L 6203.97 6283 M 6084.58 6558.29 L 6203.97 6283 M 2005.82 4426.79 L 1973.55 4449 M 5127.48 4404.78 L 5991.66 3923.49 M 5127.48 4404.78 L 5502.13 4215.16 M 4870.61 4569.06 L 5502.13 4215.16 M 5668.45 4567.91 L 5502.13 4215.16 M 4870.61 4569.06 L 5668.45 4567.91 M 4802.64 5678.73 L 4111.31 5363.37 M 10281.7 16300.2 L 10489.7 15591.1 M 10254.2 16421.7 L 10489.7 15591.1 M 10254.2 16421.7 L 10701.8 15898 M 10701.8 15898 L 10489.7 15591.1 M 10921.1 15147.8 L 10489.7 15591.1 M 10921.1 15147.8 L 10675.3 14986.5 M 10675.3 14986.5 L 10489.7 15591.1 M 10675.3 14986.5 L 10640.4 15074.9 M 10640.4 15074.9 L 10489.7 15591.1 M 10701.8 15898 L 10921.1 15147.8 M 10701.8 15898 L 10864.6 15431.9 M 10438.4 16834.1 L 10701.8 15898 M 10438.4 16834.1 L 10758.9 16237.2 M 11194.1 15917.4 L 10758.9 16237.2 M 10438.4 16834.1 L 11194.1 15917.4 M 10438.4 16834.1 L 10960.6 16777.6 M 8207.73 15547.2 L 8874.06 15914.2 M 8207.73 15547.2 L 8203.78 15785.4 M 10281.7 16300.2 L 10254.2 16421.7 M 10150.1 16751.5 L 10254.2 16421.7 M 10150.1 16751.5 L 10438.7 16833.9 M 10281.7 16300.2 L 10150.1 16751.5 M 5497.66 12376.9 L 5371.06 12096.2 M 4390.18 798.97 L 4011.64 577.735 M 4390.18 798.97 L 4249.09 692.679 M 4402.99 787.958 L 4249.09 692.679 M 10960.6 16777.6 L 11194.1 15917.4 M 10960.6 16777.6 L 11103.9 16297.3 M 10960.6 16777.6 L 11112.3 16822.4 M 6346.69 9790.3 L 7009.34 10054.1 M 3675.4 73.4935 L 4468.85 280.359 M 3675.4 73.4935 L 3983.69 631.794 M 3192.63 410.191 L 3983.69 631.794 M 3192.63 410.191 L 3723.88 586.075 M 2811.95 323.408 L 3723.88 586.075 M 2811.95 323.408 L 3284.39 610.576 M 2287.02 336.484 L 3284.39 610.576 M 6486.71 10447 L 6802.61 10267.6 M 6873.22 10346.4 L 6802.61 10267.6 M 6486.71 10447 L 6873.22 10346.4 M 6486.71 10447 L 6681.03 10524.3 M 6486.71 10447 L 6507.94 10757.6 M 9258.14 11349.3 L 9234.44 11183.5 M 9243.69 14853.3 L 9823.58 15214 M 9243.69 14853.3 L 9350.92 15087.3 M 7401.34 7687.35 L 7249.4 7769.25 M 3942.99 13329.7 L 3682.94 12989.9 M 3942.99 13329.7 L 4036.28 13174.6 M 6267.43 9785.44 L 6149.04 9669.44 M 5626.22 9105.41 L 5740.1 8882.82 M 5408.45 6578.66 L 5664.21 6610.07 M 6010.94 6504.03 L 6071.76 5937.74 M 6916.92 12779.6 L 7341.08 12721.3 M 6916.92 12779.6 L 7034.27 12876.5 M 6026.61 1753.27 L 6408.17 1450.9 M 6026.61 1753.27 L 6333.18 1532.65 M 7761.28 14034.8 L 7736.22 13919.7 M 4242.15 7428.06 L 4007.45 7533.54 M 4144.1 7316.95 L 4007.45 7533.54 M 4084.28 7279.14 L 4007.45 7533.54 M 9519.98 14301.7 L 9377.84 14570.2 M 9199.43 14313.9 L 9377.84 14570.2 M 6332.81 1532.31 L 6433.51 1452.58 M 7718.46 14749.1 L 7976.56 15114.5 M 9278.02 15695.5 L 9556.02 15658.2 M 4295.8 13435.8 L 4036.28 13174.6 M 7119.15 10338.6 L 7565.76 10460.3 M 7119.15 10338.6 L 7211.5 10444 M 10128.4 14080.5 L 9927 13766.4 M 10234.8 13756.7 L 9927 13766.4 M 6084.58 6558.29 L 6766.03 6533.84 M 4846.29 10286.4 L 4879.79 10719.4 M 9829.09 13404.2 L 9627.07 13105.4 M 10441.9 14870.1 L 10535.4 14153.5 M 10766.3 14395.2 L 10535.4 14153.5 M 3458.94 12595.6 L 3200.99 12631.8 M 3458.94 12595.6 L 3375.28 12272.9 M 3594.12 12383.5 L 3375.28 12272.9 M 4272.35 11567.7 L 4482.09 12180.6 M 9823.58 15214 L 9389.67 16201.9 M 9627.07 13105.4 L 9819.85 12441.5 M 7308.3 13294.4 L 7007.58 13647.6 M 4779.7 5666.05 L 4429.49 6056.88 M 4779.7 5666.05 L 4446.38 5713.27 M 4794.57 5630.34 L 4446.38 5713.27 M 4794.57 5630.34 L 4478.95 5457.05 M 4912.1 5349.9 L 4478.95 5457.05 M 4794.57 5630.34 L 4912.1 5349.9 M 4794.57 5630.34 L 5063.21 5564.8 M 4778.94 5665.73 L 5063.21 5564.8 M 4478.95 5457.05 L 4446.38 5713.27 M 4478.95 5457.05 L 4147.73 5542.51 M 5063.21 5564.8 L 4912.1 5349.9 M 4977.5 9785.87 L 5110.9 9948.91 M 4977.5 9785.87 L 4954.53 10250.1 M 4954.53 10250.1 L 5110.9 9948.91 M 5172.73 10181.6 L 5110.9 9948.91 M 5225.82 12499.9 L 5723.98 12104 M 5225.82 12499.9 L 5761.51 12510.8 M 5225.82 12499.9 L 5623.65 12642.1 M 5225.82 12499.9 L 5465.07 12732.2 M 5465.07 12732.2 L 5623.65 12642.1 M 5298.57 12849.5 L 5623.65 12642.1 M 7447.17 14352.4 L 7931.36 14341.9 M 4778.94 5665.73 L 5285.11 5995.5 M 5172.26 6503.59 L 5285.11 5995.5 M 4778.94 5665.73 L 5172.26 6503.59 M 5172.26 6503.59 L 5606.41 6012.74 M 5660.11 12476.9 L 5436.45 12224.7 M 5572.37 12086.7 L 5436.45 12224.7 M 5381.19 12059.3 L 5436.45 12224.7 M 5660.11 12476.9 L 5572.37 12086.7 M 9866.63 16463.4 L 10465.3 14963.9 M 10843.2 17178.9 L 11112.3 16822.4 M 7211.5 10444 L 7565.76 10460.3 M 7366.53 10588.1 L 7565.76 10460.3 M 7480.85 10633.7 L 7565.76 10460.3 M 7575.86 10646.8 L 7565.76 10460.3 M 7366.53 10588.1 L 7480.85 10633.7 M 5172.73 10181.6 L 5358.12 10080.4 M 9708.06 15226 L 9868.65 14847.9 M 7242.9 9744.35 L 6936.42 9718.07 M 7242.9 9744.35 L 7123.14 9556.4 M 7242.9 9744.35 L 7351.23 9325.68 M 8447.48 15001.5 L 8147.53 14724.6 M 9155.28 15238.1 L 9042.38 14920.8 M 9155.28 15238.1 L 9462.1 15104.7 M 6867.56 6887.99 L 6766.03 6533.84 M 6867.56 6887.99 L 7478.44 6825.89 M 5095.87 5197.63 L 4912.1 5349.9 M 7213.68 10762 L 7374.78 10586.4 M 7391.07 10774.7 L 7374.78 10586.4 M 4204.28 13085 L 4510.21 12735.8 M 6026.61 1753.27 L 6589.08 2763.25 M 6304.57 2831.22 L 6589.08 2763.25 M 5623.65 12642.1 L 5761.51 12510.8 M 8929.28 14723 L 8936.73 14023.5 M 8929.28 14723 L 9147.07 14440.9 M 8929.28 14723 L 9287.55 14439.1 M 8936.73 14023.5 L 8939.03 13857 M 9563.1 15473.8 L 9708.06 15226 M 8294.09 14574.7 L 8412.39 14891.1 M 6186.73 6623.07 L 6071.76 5937.74 M 6186.73 6623.07 L 6424.29 6710.71 M 5122.81 6759.72 L 5210.28 6173.8 M 6203.97 6283 L 7049.02 5765.46 M 6780.96 6068.73 L 7049.02 5765.46 M 3711.84 8341.36 L 3843.81 8460.93 M 9350.92 15087.3 L 9823.58 15214 M 9350.92 15087.3 L 9427.62 15205.4 M 9563.1 15473.8 L 9995.15 14801.2 M 8408.27 14881.7 L 7629.83 14743.6 M 7962.57 14510 L 7629.83 14743.6 M 7962.57 14510 L 7816.16 14589.6 M 7816.16 14589.6 L 7629.83 14743.6 M 7816.16 14589.6 L 7663.04 14631 M 6611.81 9740.36 L 6230.6 9729.88 M 6393.26 9625.32 L 6230.6 9729.88 M 10698.3 17656.2 L 11112.3 16822.4 M 6332.81 1532.31 L 6642.38 2326.68 M 4468.85 280.359 L 4428.03 608.196 M 2100.72 2762.25 L 2069.95 3851.37 M 2100.72 2762.25 L 1985.87 3632.89 M 2100.72 2762.25 L 1719.18 2622.39 M 8147.53 14724.6 L 8117.35 14841.1 M 3510.9 13183.7 L 3942.99 13329.7 M 3200.99 12631.8 L 2177.67 12280.3 M 3200.99 12631.8 L 3443.82 12476.5 M 11146.1 17457.7 L 10960.6 16777.6 M 11146.1 17457.7 L 11162.1 17143.9 M 11146.1 17457.7 L 11399.7 17582.6 M 9287.55 14439.1 L 9147.07 14440.9 M 8953.79 15027.1 L 9350.92 15087.3 M 8953.79 15027.1 L 9106.59 15197.9 M 7552.43 9119.39 L 7351.23 9325.68 M 4111.48 11988.7 L 3528.46 11979.4 M 4706.78 11081.4 L 4781.49 11539.6 M 4706.78 11081.4 L 4357.66 10897.6 M 4479.12 10737.9 L 4357.66 10897.6 M 6011.85 1766.77 L 6520.54 2750.9 M 11695.2 18176.7 L 11399.7 17582.6 M 11695.2 18176.7 L 11615.2 17979.4 M 2069.95 3851.37 L 2141.53 4200.56 M 8117.35 14841.1 L 8099.22 14962.7 M 5991.66 3923.49 L 6573.49 3600.22 M 1543.77 4201 L 1973.55 4449 M 5915.03 3785 L 5925.08 2901.69 M 6076.15 3120.35 L 5925.08 2901.69 M 1543.77 4201 L 0 3320.69 M 1543.77 4201 L 711.54 3395.57 M 1543.77 4201 L 1620.6 3911.17 M 11615.2 17979.4 L 11399.7 17582.6 M 6920.81 1409.18 L 6588.46 1192.83 M 10467.8 14978.2 L 10441.9 14870.1 M 10467.8 14978.2 L 10714.1 15376.8 M 3510.9 13183.7 L 4584.36 14240.7 M 7308.3 13294.4 L 7007.58 13647.6" />
</svg>
