<?xml version="1.0"?>
<svg width="14619" height="11307" version="1.1" xmlns="http://www.w3.org/2000/svg" >
<defs>
<style type="text/css"><![CDATA[
.m {stroke:rgb(255,0,0);stroke-width:18.273750;}
.v {stroke:rgb(0,0,255);stroke-width:18.273750;}
.b {stroke:rgb(0,0,0);stroke-width:36.547500;fill:white}
.n {stroke:rgb(128,128,128);stroke-width:18.273750}
.t {stroke:rgb(0,128,0);stroke-width:18.273750;}
.c {stroke:rgb(128,128,128);stroke-width:18.273750;stroke-dasharray:146.190000, 146.190000;}
]]></style>
</defs>
<path fill="none" style="stroke:black;stroke-width:36.547500;" d=" M 8789.81 2443.05 L 8665.22 2280.99 M 7739.73 2871.54 L 7956.03 2928.36 M 6672.2 3672.13 L 6036.32 4254.66 M 6036.32 4254.66 L 6285.55 4792.1 M 10060.6 2687.61 L 10329.2 2024.87 M 2784.6 3975.09 L 2681.44 3745.3 M 4036.27 3739.39 L 4130.67 4071.53 M 9617.79 3842.03 L 9683.1 3663.19 M 6426.67 5243.46 L 6767.49 4969.48 M 6767.49 4969.48 L 6204.01 4613.2 M 9997.4 3430 L 13337.9 4015.5 M 9388.21 2498.7 L 9708.65 2288.2 M 9708.65 2288.2 L 9320.68 1914.87 M 4132.13 2354.9 L 4225.91 2272.65 M 9431.95 2144.42 L 9379.81 2206.23 M 9379.81 2206.23 L 9447.45 2140.5 M 9447.45 2140.5 L 9431.95 2144.42 M 9431.95 2144.42 L 9379.81 2206.23 M 9379.81 2206.23 L 9447.45 2140.5 M 9447.45 2140.5 L 9431.95 2144.42 M 6804.19 1307.24 L 7183.67 1252.59 M 3715.2 4206.24 L 3439.99 4040.13 M 7532.79 1918.46 L 7385.64 1846.75 M 7385.64 1846.75 L 7468.52 1998.99 M 6246.08 2544.89 L 6809.65 2130.47 M 6809.65 2130.47 L 6453.29 2125.94 M 7825.24 2203.88 L 8078.46 2932.6 M 2514.62 3762.34 L 1237.75 4913.26 M 6509.15 204.373 L 5602.99 380.549 M 5602.99 380.549 L 5158.45 2880.73 M 5680.86 2737.3 L 5480.42 2338.66 M 5480.42 2338.66 L 5143.33 2727.39 M 5428.72 1398.67 L 6018.43 1168.71 M 6018.43 1168.71 L 6509.15 204.373 M 6212.75 2369.39 L 6210.31 2615.81 M 9269.32 1318.49 L 8422.49 2048.82 M 10915.2 4604.33 L 10756.1 4295.32 M 12084.1 3361.13 L 12695.9 3016.69 M 12695.9 3016.69 L 12578.9 2569.07 M 5606.02 1684.89 L 5916.74 1882.38 M 976.316 3591.78 L 0 5682.32 M 5075.04 2788.5 L 5268.89 3449.55 M 6345.04 4261.63 L 8647.3 4413.83 M 8647.3 4413.83 L 8631.39 4123.73 M 9247.39 2820.93 L 8809.83 3769.58 M 5685.72 9212.13 L 3507.1 8515.11 M 5594.34 9475.84 L 5685.72 9212.13 M 3426.32 8766.25 L 5594.34 9475.84 M 7648.73 4850.84 L 7243.92 4634.79 M 3764.78 4172.5 L 3180.41 3991.03 M 9683.1 3663.19 L 9706.73 3482.36 M 9706.73 3482.36 L 9713.39 3278.8 M 10756.1 4295.32 L 10586.7 3898.73 M 4549.77 2097.75 L 4822.64 1947.28 M 9825.57 2339.67 L 8895.9 2283.61 M 8587.35 1722.54 L 7814.87 1812.43 M 7814.87 1812.43 L 7757.73 2047.3 M 10283.4 1531.33 L 10188.8 1569.94 M 6102.55 1534.97 L 6069.94 1233.8 M 5871.14 1698.82 L 6102.55 1534.97 M 5961 6540.67 L 5930.83 6389.38 M 2894.28 3215.95 L 3036.55 3091.92 M 4009.54 5192.94 L 4446.81 5273.87 M 2581.09 3473.49 L 3098.26 3743.48 M 11623.5 2763.33 L 11151.4 2606.25 M 6876.54 4608.05 L 6809.43 4277.79 M 7757.73 2047.3 L 7809.95 1811.29 M 7809.95 1811.29 L 7691.24 2200.12 M 4822.64 1947.28 L 5080.75 1616.58 M 2121.5 3094.03 L 1933.25 2939.99 M 2279.72 2909.27 L 2121.5 3094.03 M 4454.71 3103.5 L 4002.65 3153.23 M 7882.97 2592.34 L 8192.15 2427.42 M 5161.75 2877.9 L 5621.11 380.399 M 5621.11 380.399 L 4855.85 2521.05 M 10460.4 3657.53 L 10575.1 3904.43 M 10575.1 3904.43 L 10793.3 3527.39 M 5885.8 1024.93 L 5710.77 832.019 M 2731.12 2840.64 L 2894.28 3215.95 M 12112.1 3162.34 L 11934.7 3223.58 M 1951.15 8017.3 L 2927.87 8639.66 M 3702.01 3681.1 L 3673.77 3802.6 M 3673.77 3802.6 L 3784.55 4233.27 M 3390.14 4366.48 L 3141.08 4141.09 M 9485.17 3920.22 L 9566.41 3982.25 M 9566.41 3982.25 L 9617.79 3842.03 M 6105.54 638.723 L 5911.9 885.341 M 10230.4 4079.04 L 10536.8 3947.24 M 10536.8 3947.24 L 10818 3777.15 M 11812 2784.52 L 11993.2 2521.34 M 11993.2 2521.34 L 11542.3 2754.14 M 11934.7 3223.58 L 12116.4 3270.72 M 11701.6 3068.22 L 11819.8 3143.51 M 12004.8 4525.48 L 12201.2 4515.16 M 12201.2 4515.16 L 12099.4 4310.05 M 7598.95 3628.5 L 7636.83 3060.39 M 11304.7 3045.17 L 11386.8 2995.48 M 12114.7 3801.59 L 12292.7 3979.66 M 4201.29 2871.34 L 4079.87 2769.34 M 4523.79 3978.36 L 4633.17 3258.78 M 8156.02 1676.24 L 8505.48 2169.94 M 9590.7 1815.76 L 9454.75 1531.42 M 9486.14 1955.3 L 9590.7 1815.76 M 6663.05 2516.03 L 6730.83 2042.88 M 7490.25 2367.18 L 7424.91 2115.02 M 7424.91 2115.02 L 7113.83 2234.85 M 7074.04 2722.04 L 7022.37 2574.63 M 11967.1 4139.88 L 12004.8 4525.48 M 9402.73 2555.7 L 9363.63 2540.22 M 12443.3 1634.11 L 12619.2 1849.44 M 6970.62 3749.35 L 7110.08 3423.98 M 6871.41 3431.08 L 6970.62 3749.35 M 3274.68 4459.54 L 3028.05 4404.18 M 1990.64 3900.61 L 1992.83 3945.33 M 1992.83 3945.33 L 2456.39 4477 M 10816.4 3772.77 L 11167.7 3909.83 M 11169.6 3645.67 L 10816.4 3772.77 M 7351.68 2368.8 L 7000.86 2461.95 M 7000.86 2461.95 L 7209.19 2574.98 M 9865.02 1722.63 L 9740.41 1516.59 M 10049.7 1463.29 L 10226.7 1393.19 M 12296.3 1827.38 L 12328.2 1606.8 M 12328.2 1606.8 L 12081.2 1607.52 M 8866.88 2723.91 L 8688.53 3241.45 M 8688.53 3241.45 L 9496.35 3100.22 M 4636.17 3036.68 L 4328.47 2933.83 M 4328.47 2933.83 L 4454.71 3103.5 M 8305.98 1779.59 L 7968.88 1485.74 M 9448.09 3862.31 L 9430.62 4012.73 M 9430.62 4012.73 L 9596.1 4140.32 M 7315.47 3075.04 L 7662.49 3044.61 M 4118.44 6936.08 L 5535.34 5685.9 M 5535.34 5685.9 L 4111.33 6921.98 M 6041.43 4264.78 L 6377.95 4246.83 M 4111.33 6921.98 L 5961.13 6555.99 M 5961.13 6555.99 L 5961 6540.67 M 4837.95 3212.52 L 4732.39 2847.77 M 4732.39 2847.77 L 4632.73 3258.71 M 7968.88 1485.74 L 7861.07 2028.12 M 7861.07 2028.12 L 8342.04 2236.78 M 7092.07 2257.88 L 7211.59 2051.31 M 6412.56 662.876 L 6105.54 638.723 M 5106.69 3658.01 L 4837.95 3212.52 M 2903.69 2852.61 L 3239.65 2518.53 M 6076.79 4421.03 L 6352.09 4136.27 M 7210.9 2927.58 L 7539.32 2642.1 M 7321.09 2530.61 L 7210.9 2927.58 M 7366.21 3296.86 L 7226.97 2908.86 M 7226.97 2908.86 L 7078.39 3400.16 M 6745.48 1783.63 L 6426.33 1621.59 M 6426.33 1621.59 L 6711.03 1801.24 M 10292.9 1598.04 L 9688.92 1614.41 M 12587.7 3573.63 L 12795.1 3634.45 M 12795.1 3634.45 L 12661.4 3396.3 M 3180.41 3991.03 L 3791.88 3968.27 M 14619.9 4319.05 L 14275.8 4097.6 M 7829.2 2481.83 L 7690.96 2200.26 M 8192.15 2427.42 L 7855.64 1922.51 M 10941.5 2883.27 L 11304.7 3045.17 M 3106.4 4667.16 L 3580.19 4664.56 M 3580.19 4664.56 L 3332.31 4539.19 M 11277.7 2939.19 L 11403.7 3407.04 M 988.183 3593.83 L 976.316 3591.78 M 12224.5 2784.6 L 11829.8 3028.34 M 11894.1 2393.31 L 12189 2481.73 M 12298.4 2251.99 L 11894.1 2393.31 M 11951.2 2822.05 L 12071.2 2711.06 M 8739.86 1960.83 L 7435.94 3071.4 M 12081.6 2497.96 L 12139.2 2822.2 M 10793.3 3527.39 L 10363.4 3597.86 M 5665.31 795.046 L 5513.73 992.277 M 5569.49 1179.91 L 5665.31 795.046 M 8381.76 2133.3 L 8634.83 1984.78 M 10586.7 3898.73 L 10460.4 3657.53 M 12298.1 4462.38 L 12178.8 4103.87 M 2844.13 3938.84 L 3099.18 3784.02 M 9320.68 1914.87 L 9707.61 2289.27 M 6377.95 4246.83 L 6738.29 3866.51 M 9707.61 2289.27 L 10013.3 1955.64 M 10013.3 1955.64 L 9674.29 2039.07 M 6368.76 1184.11 L 6804.19 1307.24 M 12098.2 4128.3 L 12366.8 4172.76 M 3789.8 11058.6 L 3415.72 8799.12 M 7587.04 4566.44 L 8065.67 3273.52 M 7636.83 3060.39 L 7225.68 2909.33 M 7225.68 2909.33 L 7366.21 3296.86 M 11269.4 3314.44 L 11591.1 3409.19 M 8874.35 1682.67 L 8560.92 1900.9 M 12084.2 3358.81 L 11591.4 3408.35 M 2122.02 9957.08 L 1893.4 9516.67 M 1066.58 7943.61 L 2122.02 9957.08 M 8484.93 3125.68 L 7973.41 3015.46 M 1237.75 4913.26 L 1228.84 4916.18 M 1536.38 3979.9 L 1389.38 3933.76 M 1237.76 4913.27 L 2521.35 3769.87 M 2521.35 3769.87 L 1536.38 3979.9 M 1228.84 4916.18 L 1237.76 4913.27 M 3007.45 3770.76 L 3196.41 4313.48 M 7649.34 4863.35 L 7648.73 4850.84 M 6898.69 4981.29 L 7649.34 4863.35 M 4411 7358.37 L 5664.08 5444.74 M 6920.93 1553.3 L 6249.83 1911.55 M 6730.83 2042.88 L 6256.71 2103.47 M 7454.99 2633.74 L 7719.1 2392.87 M 7532.1 2231.23 L 7454.99 2633.74 M 5377.6 1734.28 L 5634.03 2405.24 M 7539.32 2642.1 L 7506.47 2432.36 M 9622.81 3136.61 L 9288.15 3433.6 M 478.948 6672.05 L 208.838 7521.39 M 208.838 7521.39 L 372.583 7047.73 M 1673.23 7405.54 L 1251.86 6620.19 M 2941.56 3166.17 L 2756.98 3126.71 M 2756.98 3126.71 L 3047.79 3298.91 M 6195.49 3804.34 L 6140.74 4038.28 M 12071.2 2711.06 L 12081.6 2507.04 M 12081.6 2507.04 L 11832.8 2617.44 M 10952.4 3218.85 L 11187 3204.68 M 11187 3204.68 L 10943.4 2890.26 M 6364.56 2234.87 L 6227.57 1864.88 M 12220.3 2503.03 L 12223.1 2164.13 M 11437.1 3650.42 L 11570.4 4061.44 M 11795.2 2864.1 L 11980.8 2943.17 M 12444.2 2888.03 L 12515.7 2567.2 M 7224.51 1747.51 L 6995.29 1902.19 M 13079.1 2298.21 L 12722.4 2200.34 M 3596.75 4502.5 L 3815.56 4496.76 M 3815.56 4496.76 L 3715.2 4206.24 M 3784.82 3598.41 L 4284.28 3480.51 M 13052.6 2810.71 L 13079.1 2298.21 M 12099.4 4310.05 L 12094.4 4538.98 M 12541.4 2234.69 L 12546.3 1847.89 M 12546.3 1847.89 L 12284.3 1958.52 M 3016.4 3861.34 L 3101.3 3737.61 M 3101.3 3737.61 L 2581.4 3472.93 M 2581.4 3472.93 L 2525.32 3442.48 M 7022.37 2574.63 L 6807.04 2126.94 M 6807.04 2126.94 L 6246.08 2544.89 M 1535.62 6412.39 L 1781.84 6907.4 M 12285 1480.01 L 12296.3 1827.38 M 11768.6 2350.36 L 11644 2414.4 M 7716.73 2128.58 L 7974.22 1486.42 M 3624.76 2848.97 L 4132.13 2354.9 M 4093.01 3193.07 L 4201.29 2871.34 M 12661.4 3396.3 L 12817.6 3172.2 M 4773.52 1343.07 L 4571.97 1875.76 M 4571.97 1875.76 L 5375.37 1422.66 M 6711.03 1801.24 L 6895.88 2376.38 M 6001.84 2490.48 L 6169.91 3070.75 M 6419.05 2179.33 L 6001.84 2490.48 M 6862.09 2006.09 L 6995.83 1896.1 M 6995.83 1896.1 L 6307.1 2141.74 M 1808.16 3457.72 L 1990.64 3900.61 M 11835.8 2228.45 L 11770 2451.91 M 10344.3 1002 L 10476.9 0 M 10476.9 0 L 10020 862.53 M 4991.92 4717.16 L 5670.34 4827.89 M 13134.9 4551.79 L 13231.5 4600.9 M 13231.5 4600.9 L 13452.7 4659.85 M 11627.4 4310.1 L 11777.5 3998.14 M 11570.4 4061.44 L 11627.4 4310.1 M 12284.3 1958.52 L 12229.9 2193.21 M 6725.88 3970.16 L 6280.46 3580.42 M 9486.71 1724.63 L 9671.86 2040.51 M 5628.03 3004.84 L 6112.29 2643.92 M 11591.1 3409.19 L 12084.1 3361.13 M 9908.77 4293.96 L 10230.4 4079.04 M 10054.5 3898.77 L 9908.77 4293.96 M 12703.3 1528.9 L 12285 1480.01 M 7506.47 2432.36 L 7309.18 2353.96 M 7309.18 2353.96 L 7348.25 2660.63 M 9671.86 2040.51 L 10012.7 1964.71 M 10012.7 1964.71 L 9865.02 1722.63 M 9224.34 2972.73 L 9392.93 2874.43 M 8912.58 2812.72 L 9224.34 2972.73 M 7599.91 2401.9 L 7351.68 2368.8 M 9026.18 4156.2 L 10649.9 3611.04 M 10649.9 3611.04 L 9555.08 3686.16 M 5645.17 3077.51 L 5815.66 4161.55 M 2945.08 8340.31 L 2275.34 7772.28 M 2275.34 7772.28 L 1673.23 7405.54 M 3603.68 7034.25 L 3815.39 7012.16 M 5553.72 1165.49 L 5517.63 1526.66 M 3199.14 3263.1 L 3624.76 2848.97 M 7710.45 3944.93 L 7826.19 3300.46 M 12795.5 4461.87 L 13232.1 4599.88 M 13232.1 4599.88 L 13134.9 4551.79 M 11543.2 3789.09 L 11190.3 3965.18 M 11190.3 3965.18 L 11539.4 3973.02 M 3332.31 4539.19 L 3274.68 4459.54 M 10531 2906.64 L 9529.04 3208.54 M 4037.02 2940.5 L 4266.5 3271.69 M 2914.68 3643.31 L 2945.8 3728.93 M 4702.27 3374.63 L 4824.59 3196.36 M 4096.84 4666.27 L 4009.54 5192.94 M 10247.5 4402.99 L 10127.8 4574.31 M 6036.32 4254.66 L 6672.2 3672.13 M 6140.74 4038.28 L 6036.32 4254.66 M 9454.75 1531.42 L 9129.97 1837.02 M 12822.4 1867.41 L 12703.3 1528.9 M 12619.2 1849.44 L 12822.4 1867.41 M 5576.49 3979.17 L 4950.75 4239.41 M 5916.74 1882.38 L 5616.49 1669.31 M 6804.07 3042.58 L 7050.34 3077.67 M 1782.26 3123.02 L 1962.22 3277.44 M 6169.91 3070.75 L 5909.54 2857.36 M 7808.89 4132.55 L 8298.36 3815.52 M 6227.57 1864.88 L 5679.09 1846.98 M 5679.09 1846.98 L 6167.44 2272.63 M 9591.75 1925.95 L 9415.49 2284.95 M 6536.32 4375.32 L 6470.58 4395.34 M 12064.4 3125.65 L 11920.7 3002.08 M 8078.46 2932.6 L 8530.1 2640.18 M 8587.37 2982.14 L 8604.39 3519.92 M 10908.3 1302.66 L 11284.6 1127.98 M 11284.6 1127.98 L 11314.9 719.897 M 9212.97 1365.08 L 9170.78 972.807 M 7435.94 3071.4 L 7445.13 2960.69 M 7445.13 2960.69 L 7116.62 3017.47 M 2943.44 4114.33 L 2620.03 4163.33 M 7957.23 2923.61 L 7739.73 2871.54 M 7653.53 2872.84 L 7957.23 2923.61 M 10991.4 2502.85 L 10811.1 2804.74 M 2970.76 3408.56 L 3182.39 3622.22 M 5577.23 9526.14 L 3426.32 8766.25 M 4923.39 1008.18 L 4846.08 858.941 M 4772.03 1292.62 L 4923.39 1008.18 M 1575.12 2642.88 L 1584.82 2686.59 M 1933.25 2939.99 L 1575.12 2642.88 M 1584.82 2686.59 L 1782.26 3123.02 M 9278.96 2541.29 L 9110.47 2478.97 M 2710.12 3313.14 L 2844.13 3938.84 M 4114.23 5741.65 L 3702.7 5285.49 M 7695.79 2647.57 L 7882.97 2592.34 M 7976.34 1487.27 L 7716.73 2128.58 M 7861.07 2028.11 L 7976.34 1487.27 M 10188.8 1569.94 L 9645.2 1634.3 M 9645.2 1634.3 L 9636.71 1671.07 M 3182.39 3622.22 L 2970.49 3408.83 M 372.583 7047.73 L 683.813 6590.78 M 10281.8 2711.61 L 12053.3 2051.51 M 12053.3 2051.51 L 11155.8 2221.23 M 11228.3 3814.3 L 11534.4 4178.84 M 11539.4 3973.02 L 11228.3 3814.3 M 11386.8 2995.48 L 11490 3062.47 M 9431.95 2144.42 L 9379.81 2206.23 M 9379.81 2206.23 L 9447.45 2140.5 M 9447.45 2140.5 L 9431.95 2144.42 M 8667.89 2156.31 L 9080.19 1684.41 M 11358.9 2718.7 L 11277.7 2939.19 M 6352.09 4136.27 L 6140.74 4038.28 M 6064.26 6533.68 L 5777.92 6221.12 M 5871.09 6424.34 L 6064.26 6533.68 M 9868.93 1487.38 L 10049.7 1463.29 M 7078.39 3400.16 L 6757.16 2999.83 M 4079.87 2769.34 L 3853.82 2580.03 M 7719.1 2392.87 L 7466.72 2646 M 3316.83 4566.25 L 3201.4 4818.92 M 6826.15 2351.97 L 7075.01 2650.5 M 7075.01 2650.5 L 7142.98 2391.42 M 7208.24 2049.41 L 7092.07 2257.88 M 4950.75 4239.41 L 5576.61 3979.47 M 5576.61 3979.47 L 5106.69 3658.01 M 12862.3 1833.54 L 12730.3 1458.11 M 12730.3 1458.11 L 12555.8 1627.19 M 3414.81 4401.36 L 4014.15 4165.47 M 4014.15 4165.47 L 3446.83 4340.97 M 3269.08 4480.31 L 3316.83 4566.25 M 2721.59 4592 L 3211.05 5004.17 M 3211.05 5004.17 L 2943.44 4114.33 M 5131 5344.6 L 5145.34 5350 M 7421.47 3296.12 L 7410.95 3491.8 M 6809.43 4277.79 L 6597.29 4148.86 M 3099.18 3784.02 L 3249.13 3687.44 M 11777.5 3998.14 L 12098.2 4128.3 M 3714.56 4207.3 L 3576.02 3792.54 M 3439.99 4040.13 L 3714.56 4207.3 M 11490 3062.47 L 11701.6 3068.22 M 3815.39 7012.16 L 4118.44 6936.08 M 3075.32 3239.41 L 2941.56 3166.17 M 7691.24 2200.12 L 7788.23 2368.69 M 10227.6 2562.92 L 10281.8 2711.61 M 6076.7 4420.75 L 5741.41 4531.99 M 3114.41 3570.55 L 2891.94 3371.73 M 2891.94 3371.73 L 2914.68 3643.31 M 10811.1 2804.74 L 10612.4 2243.49 M 9635.16 2755.75 L 9921.67 2211 M 9921.67 2211 L 9654.64 2074.14 M 3700.18 2450.66 L 3764.77 2260.46 M 3764.77 2260.46 L 3333.53 2678.47 M 12116.4 3270.72 L 12252.6 3282.24 M 12252.6 3282.24 L 12169.5 3095.64 M 12179.6 2138.12 L 11768.6 2350.36 M 8120.57 2794.48 L 7916.36 2803.5 M 3237.67 3715.14 L 3676.89 3470.34 M 3248.15 3458.48 L 3237.67 3715.14 M 11773.1 2448.43 L 11792 2767.42 M 11967.4 2623.67 L 11773.1 2448.43 M 8610.56 1454.61 L 8156.02 1676.24 M 8886.53 1804.91 L 8610.56 1454.61 M 10457.5 3181.26 L 10525.7 3127.75 M 9874.05 3592.26 L 10457.5 3181.26 M 7719.28 2595.82 L 7532.1 2231.23 M 12578.9 2569.07 L 12224.5 2784.6 M 6849.48 909.119 L 6796.27 1302.15 M 6943.32 759.037 L 6849.48 909.119 M 12621.6 1847.47 L 12443.3 1634.11 M 11981 1909.34 L 11435.1 2098.96 M 12053.8 2053.96 L 11981 1909.34 M 11155.9 2221.38 L 12053.8 2053.96 M 8604.39 3519.92 L 7853.13 3344.51 M 8298.36 3815.52 L 8635.15 3620.26 M 12515.7 2567.2 L 12541.4 2234.69 M 5445.67 3210.52 L 5645.17 3077.51 M 11987.4 1393.85 L 11721.6 1690.04 M 11721.6 1690.04 L 12137.7 1569.92 M 11151.4 2606.25 L 11169.2 2108.99 M 11169.2 2108.99 L 10991.4 2502.85 M 7855.64 1922.51 L 8007.16 1893.53 M 11770 2451.91 L 11967.4 2623.67 M 5685.77 1431.89 L 6111.71 1135.45 M 13680.6 4237.42 L 13321.6 4298.18 M 3395.72 5240.02 L 3833.67 5650.99 M 3833.67 5650.99 L 4114.23 5741.65 M 8530.1 2640.18 L 8606.93 2803.09 M 5655.82 5441.3 L 4405.33 7337.28 M 5664.08 5444.74 L 5653.58 5437.91 M 5653.58 5437.91 L 5655.82 5441.3 M 6895.88 2376.38 L 6959.33 2636.98 M 4405.33 7337.28 L 5652.96 5439.42 M 5652.96 5439.42 L 5649.47 5437.33 M 4505.33 798.283 L 4379.22 1116.37 M 9885.34 3265.62 L 9622.81 3136.61 M 7392.37 3769.24 L 7710.45 3944.93 M 2781.28 3976.58 L 2826.32 4072.35 M 5126.46 2532.44 L 5148.86 2911.9 M 5148.86 2911.9 L 5679.69 2772.95 M 13919 4526.35 L 14245.3 4639.28 M 14245.3 4639.28 L 14348.5 4344.97 M 5288.23 2915.62 L 5445.67 3210.52 M 3298.19 3408.24 L 3514.5 2835.44 M 3399.27 8794.59 L 3554.46 9704.58 M 5741.41 4531.99 L 6076.79 4421.03 M 10363.4 3597.86 L 10054.5 3898.77 M 11167.7 3909.83 L 11543.2 3789.09 M 2114.79 7281.99 L 2449.82 7902.3 M 2449.82 7902.3 L 2394.24 7592.99 M 3445.61 4553.67 L 3596.75 4502.5 M 3196.41 4313.48 L 3445.61 4553.67 M 10773.4 2745.25 L 10060.6 2687.61 M 7308.33 2775.58 L 7653.53 2872.84 M 11944.3 4526.65 L 11967.1 4139.88 M 11903.5 4174.16 L 11944.3 4526.65 M 6581.95 3429.3 L 6358.17 3206.66 M 6358.17 3206.66 L 6386.29 3556.07 M 10818 3777.15 L 11169.6 3645.67 M 4965.27 1298.63 L 4746.72 1310.65 M 4746.72 1310.65 L 4773.52 1343.07 M 7348.25 2660.63 L 7546.1 2588.3 M 7546.1 2588.3 L 7719.28 2595.82 M 9363.63 2540.22 L 9208.42 2577.28 M 12081.2 1607.52 L 12023.1 2023.25 M 4284.28 3480.51 L 4702.27 3374.63 M 10483.8 3203.63 L 10101.3 3806.13 M 2895.63 2709.79 L 3220.46 2919.34 M 3434.89 2867.02 L 2895.63 2709.79 M 13063.7 4254.15 L 13137.8 3638.16 M 13137.8 3638.16 L 12683.3 3724.88 M 8014.71 1622.84 L 8418.05 1683.24 M 915.716 7632.46 L 1066.58 7943.61 M 4855.85 2521.05 L 5075.04 2788.5 M 6285.55 4792.1 L 6228.25 5096.61 M 5667.54 4073.08 L 6195.49 3804.34 M 5727.92 1004 L 5553.72 1165.49 M 9586.6 1812.78 L 9486.14 1955.3 M 13719.4 4475.86 L 13925.1 4529.93 M 13925.1 4529.93 L 14107.6 4213.61 M 10047.6 4660.31 L 9783.12 4945.98 M 2615.82 4165.9 L 2780.24 3975.09 M 2199.22 3479.21 L 2615.82 4165.9 M 9194 2594.43 L 9757.18 3001.52 M 9757.18 3001.52 L 9402.73 2555.7 M 9596.1 4140.32 L 9874.05 3592.26 M 8737.26 3561.89 L 8758.75 3411.98 M 6592.96 2662.89 L 6826.15 2351.97 M 11736.3 3665.51 L 11869.6 3490.69 M 7314.42 2301.4 L 7321.09 2530.61 M 9950.07 3168.47 L 9885.34 3265.62 M 11466.5 2529.84 L 11394.6 2629.7 M 5178.07 3200.64 L 5263.93 3996.92 M 5909.54 2857.36 L 5680.86 2737.3 M 9859.63 1798.87 L 9586.6 1812.78 M 9677.79 1983.04 L 9859.63 1798.87 M 9624.36 3296.98 L 8822.59 2957.71 M 9080.19 1684.41 L 9388.21 2498.7 M 7233.66 4991.39 L 6876.54 4608.05 M 6611.19 4744.07 L 7233.66 4991.39 M 12412.1 2549.29 L 12521.1 2750.54 M 8713.79 963.87 L 8600.01 766.377 M 8600.01 766.377 L 8305.46 1117.4 M 7116.62 3017.47 L 6747.27 3077.99 M 2232.71 7176.54 L 2675.2 7237.56 M 8560.92 1900.9 L 8381.76 2133.3 M 12137.7 1569.92 L 12358.6 1617 M 5680.27 1845.63 L 5871.14 1698.82 M 876.781 5889.29 L 617.853 5738.08 M 10832.6 2190.12 L 10292.9 1598.04 M 2972.23 7340.2 L 3837.43 7490.64 M 3702.55 5285.57 L 4104.2 5750.45 M 4104.2 5750.45 L 4253.9 5802.77 M 10830 3506.46 L 11438 3649.14 M 11438 3649.14 L 10994.9 3330.82 M 3028.05 4404.18 L 3269.08 4480.31 M 5135.14 5326.63 L 4978.43 5367.41 M 4978.43 5367.41 L 5131 5344.6 M 6738.29 3866.51 L 7115.11 3819.74 M 11542.3 2754.14 L 12032.4 2622.39 M 4111.01 5450.29 L 4233.24 5810.46 M 4233.24 5810.46 L 4434.49 5153.18 M 289.257 5772.25 L 676.765 6494.88 M 8745.02 3710.36 L 8925.76 4203.71 M 7468.52 1998.99 L 7333.89 1836.97 M 10127.8 4574.31 L 10047.6 4660.31 M 903.038 6160.88 L 812.249 5731.93 M 828.449 5907.83 L 903.038 6160.88 M 812.249 5731.93 L 682.086 6150.61 M 7956.03 2928.36 L 8693.43 3567.86 M 8822.59 2957.71 L 8234 2742.65 M 682.086 6150.61 L 478.948 6672.05 M 3256.54 3286.08 L 3248.15 3458.48 M 14348.5 4344.97 L 14241.8 4638.04 M 14241.8 4638.04 L 14619.9 4319.05 M 10226.7 1393.19 L 10283.4 1531.33 M 3693.72 2068.35 L 3757.54 1607.35 M 5679.69 2772.95 L 5148.32 2909.86 M 5148.32 2909.86 L 5287.63 3242.61 M 5287.63 3242.61 L 5628.03 3004.84 M 3576.02 3792.54 L 3298.19 3408.24 M 6829.11 2690.48 L 6900.62 2376.76 M 6900.62 2376.76 L 6419.05 2179.33 M 8733.69 3307.23 L 8484.93 3125.68 M 5236.82 1547.52 L 5551.01 1838.06 M 5616.49 1669.31 L 5236.82 1547.52 M 8635.15 3620.26 L 8737.26 3561.89 M 6882.76 2327.96 L 6614.6 2259.15 M 6614.6 2259.15 L 6974.19 2601.92 M 4253.9 5802.77 L 4111.01 5450.29 M 4824.59 3196.36 L 4636.17 3036.68 M 11534.4 4178.84 L 11855.5 4054.33 M 7664.71 4227.43 L 7808.89 4132.55 M 7916.36 2803.5 L 7695.79 2647.57 M 8106.46 2458.61 L 8076.29 2292.22 M 7455.8 914.166 L 7044.09 306.35 M 8837.28 2700.5 L 8866.88 2723.91 M 3201.4 4818.92 L 3395.72 5240.02 M 8895.9 2283.61 L 9825.57 2339.67 M 9766.91 1919.3 L 8895.9 2283.61 M 2859.28 3921.01 L 2781.28 3976.58 M 5710.77 832.019 L 5428.72 1398.67 M 6135.63 4519.2 L 6422.49 4227.62 M 6422.49 4227.62 L 6076.7 4420.75 M 2362.23 3017.84 L 2731.12 2840.64 M 2332.92 2089.1 L 2362.23 3017.84 M 795.486 5729.85 L 828.449 5907.83 M 3791.88 3968.27 L 3784.82 3598.41 M 12482.6 2115.42 L 12298.4 2251.99 M 3633.8 2461.27 L 3514.09 2835.31 M 7653.53 2872.85 L 7308.33 2775.58 M 3047.79 3298.91 L 2710.12 3313.14 M 4430.08 4573.22 L 4991.92 4717.16 M 4037.18 2940.4 L 3943.55 3237.61 M 4266.5 3271.69 L 4037.18 2940.4 M 12711 3167.12 L 12204.8 3061.82 M 9654.64 2074.14 L 9194 2594.43 M 9275.21 2834.27 L 9635.16 2755.75 M 958.593 5779.98 L 1535.62 6412.39 M 12223.1 2164.13 L 12270.8 1928 M 9871.46 2177.05 L 9604.87 2731.81 M 4933.97 1014.07 L 4772.03 1292.62 M 5022.43 1207.42 L 4933.97 1014.07 M 6995.29 1902.19 L 6745.48 1783.63 M 8505.48 2169.94 L 8593.79 2296.43 M 1893.4 9516.67 L 1625.83 8389.85 M 11885.9 3723.05 L 12114.7 3801.59 M 10242.9 2961.46 L 10830 3506.46 M 2518.45 4410.32 L 2721.59 4592 M 2525.32 3442.48 L 2581.09 3473.49 M 6210.31 2615.81 L 6804.07 3042.58 M 7115.11 3819.74 L 7598.95 3628.5 M 8422.49 2048.82 L 8152.73 2589.2 M 12366.8 4172.76 L 12795.5 4461.87 M 10333.1 2310.77 L 10531 2906.64 M 1088.57 3673.96 L 988.183 3593.83 M 9035.43 4247.85 L 9412.27 4273.31 M 9128.65 2615 L 9766.91 1919.3 M 3514.5 2835.44 L 3633.8 2461.27 M 7368.6 3263.67 L 7315.47 3075.04 M 7973.41 3015.46 L 7599.91 2401.9 M 3446.83 4340.97 L 3390.14 4366.48 M 5263.93 3996.92 L 5027.45 4758.92 M 5649.47 5437.33 L 5502.37 4691.85 M 0 5682.32 L 118.79 6278.98 M 118.79 6278.98 L 277.021 5769.53 M 277.021 5769.53 L 253.615 6302.47 M 266.67 6591.91 L 289.257 5772.25 M 5143.33 2727.39 L 5288.23 2915.62 M 7451.73 4371.05 L 7664.71 4227.43 M 7443.16 4105.54 L 7267.56 4219 M 7267.56 4219 L 7451.73 4371.05 M 10371.2 2629.62 L 9950.07 3168.47 M 12689.7 1424.48 L 12340.1 1372.64 M 12555.8 1627.19 L 12689.7 1424.48 M 8342.04 2236.78 L 7861.07 2028.11 M 2394.24 7592.99 L 2232.71 7176.54 M 11314.9 719.897 L 10344.3 1002 M 12082.9 3365.4 L 12209.8 3390.79 M 7352.09 1500.72 L 7349.56 723.029 M 7349.56 723.029 L 6943.32 759.037 M 9110.47 2478.97 L 8765.33 2466.22 M 8765.33 2466.22 L 8970.9 2658.95 M 12218.3 1440.01 L 11785.8 1462.52 M 11785.8 1462.52 L 12021.4 1712.25 M 9154.22 2418.19 L 9052.21 2231.63 M 9052.21 2231.63 L 8739.86 1960.83 M 5375.37 1422.66 L 5022.43 1207.42 M 3676.89 3470.34 L 3651.23 2968.17 M 6386.29 3556.07 L 6666.1 3550.56 M 6398.85 3633.65 L 6359.62 3787.2 M 6666.1 3550.56 L 6398.85 3633.65 M 9740.41 1516.59 L 9212.97 1365.08 M 4434.49 5153.18 L 4430.08 4573.22 M 10484.4 4567.1 L 10749.8 4753.67 M 10749.8 4753.67 L 10915.2 4604.33 M 6069.94 1233.8 L 6368.76 1184.11 M 9622.43 3136.18 L 9885.08 3264.95 M 9730.13 1512.64 L 9868.93 1487.38 M 12198.1 4727.73 L 12574 5007.61 M 12574 5007.61 L 12298.1 4462.38 M 6359.62 3787.2 L 6643.5 3617.62 M 11582.8 3032.64 L 11812 2784.52 M 12722.4 2200.34 L 12824.9 1886.14 M 12824.9 1886.14 L 12482.6 2115.42 M 7344.09 1494.05 L 7050.9 1854.03 M 7069.62 2101.98 L 7344.09 1494.05 M 2826.32 4072.35 L 2784.6 3975.09 M 9683.42 3338.53 L 9793.03 3364.85 M 9712.87 3278.51 L 9683.42 3338.53 M 2938.13 2954.63 L 2531.77 2733.62 M 2531.77 2733.62 L 2862.6 3016.3 M 9365.6 3833.1 L 9207.9 3538.34 M 8895.9 2283.61 L 9436.94 2553.13 M 9436.94 2553.13 L 9633.42 2628.9 M 2927.87 8639.66 L 3399.27 8794.59 M 8418.05 1683.24 L 8874.35 1682.67 M 9496.35 3100.22 L 9485.17 3920.22 M 3815.39 7012.18 L 3603.68 7034.25 M 3162.63 7131.17 L 3815.39 7012.18 M 7108.63 3151.68 L 7592.92 3148.34 M 7592.92 3148.34 L 7957.47 2922.13 M 7957.47 2922.13 L 7653.53 2872.85 M 10020 862.53 L 9734.12 1182.4 M 3415.72 8799.12 L 5582.78 9539.96 M 12677.5 4072.21 L 12487.1 4022.74 M 4446.81 5273.87 L 3921.97 4798.4 M 10491.9 1506.92 L 10908.3 1302.66 M 7826.19 3300.46 L 8450.71 3497.23 M 12209.8 3390.79 L 12587.7 3573.63 M 9747.34 4013.18 L 9795.83 3709.1 M 6858.61 4693.3 L 6898.69 4981.29 M 6898.29 4981.35 L 6858.61 4693.3 M 6228.25 5096.61 L 6898.29 4981.35 M 6943.23 4507.98 L 6830.28 4376.95 M 6844.27 4798.98 L 6943.23 4507.98 M 9382.67 2687.98 L 9278.96 2541.29 M 12657.1 2158.35 L 12825.2 1859.04 M 12825.2 1859.04 L 12621.6 1847.47 M 5219.85 1585.64 L 5606.02 1684.89 M 2862.6 3016.3 L 2970.76 3408.56 M 3220.46 2919.34 L 2938.13 2954.63 M 9713.39 3278.8 L 9908.69 2926.14 M 6470.58 4395.34 L 6403.72 4379.47 M 6403.72 4379.47 L 6611.19 4744.07 M 1155.38 7151.56 L 1332.64 7805.42 M 10236.1 5088.62 L 10556.5 4765.88 M 10556.5 4765.88 L 10484.4 4567.1 M 9207.9 3538.34 L 9029.35 3411.67 M 7333.89 1836.97 L 7034.59 1977.1 M 7034.59 1977.1 L 7314.42 2301.4 M 8593.79 2296.43 L 8912.58 2812.72 M 3853.82 2580.03 L 3700.18 2450.66 M 1019.82 6110.95 L 876.781 5889.29 M 1251.86 6620.19 L 1019.82 6110.95 M 6974.19 2601.92 L 7074.04 2722.04 M 12683.3 3724.88 L 12084.2 3358.81 M 4699.42 2841.15 L 4037.02 2940.5 M 4633.17 3258.78 L 4699.42 2841.15 M 6256.71 2103.47 L 5923.89 2137.73 M 5923.89 2137.73 L 6268.24 2440.06 M 7142.98 2391.42 L 6882.76 2327.96 M 1389.38 3933.76 L 1372.89 3922.43 M 4002.65 3153.23 L 3256.54 3286.08 M 8234 2742.65 L 8120.57 2794.48 M 6703.31 2219.53 L 6862.09 2006.09 M 6747.27 3077.99 L 6871.41 3431.08 M 6112.29 2643.92 L 7108.63 3151.68 M 12521.1 2750.54 L 12711 3167.12 M 12817.6 3172.2 L 13052.6 2810.71 M 5551.01 1838.06 L 5685.77 1431.89 M 8693.43 3567.86 L 9184.25 3629.41 M 3514.09 2835.31 L 3536.43 3447.19 M 3536.43 3447.19 L 3941.22 3694.18 M 3554.46 9704.58 L 3778.55 11064.9 M 12229.9 2193.21 L 12081.6 2497.96 M 5641.46 3440.06 L 6046.61 3925.73 M 5991.6 3848.18 L 5641.46 3440.06 M 6046.61 3925.73 L 5641.83 3439.75 M 5639.33 3441.89 L 5991.6 3848.18 M 5158.45 2880.73 L 5639.33 3441.89 M 9904.84 2769.87 L 10333.1 2310.77 M 3702.7 5285.49 L 3631.62 5151.97 M 12198 2458.6 L 12657.1 2158.35 M 8076.29 2292.22 L 7825.24 2203.88 M 9014.16 1967.68 L 8886.53 1804.91 M 7183.67 1252.59 L 7626.58 1197.1 M 7626.58 1197.1 L 7455.8 914.166 M 6796.27 1302.15 L 6920.93 1553.3 M 7788.23 2368.69 L 7691.22 2200.14 M 7691.22 2200.14 L 7829.2 2481.83 M 7219.03 2128.35 L 7129.36 2582.16 M 7129.36 2582.16 L 7385.02 1848.04 M 7113.83 2234.85 L 6703.31 2219.53 M 7662.49 3044.61 L 7421.47 3296.12 M 10994.9 3330.82 L 11437.1 3650.42 M 4225.91 2272.65 L 4549.77 2097.75 M 10525.7 3127.75 L 10483.8 3203.63 M 11394.6 2629.7 L 11358.9 2718.7 M 6390.76 3831.16 L 6300.92 3700.6 M 7437.18 2510.2 L 7208.24 2049.41 M 7209.19 2574.98 L 7437.18 2510.2 M 8631.39 4123.73 L 8895.08 4245.71 M 8895.08 4245.71 L 8906.99 4247.48 M 9029.35 3411.67 L 8733.69 3307.23 M 3098.26 3743.48 L 2628.63 3217.17 M 2628.63 3217.17 L 2279.72 2909.27 M 5135.78 1327.82 L 4965.27 1298.63 M 3333.53 2678.47 L 2903.69 2852.61 M 8634.83 1984.78 L 9007.4 1900.76 M 9007.4 1900.76 L 8587.35 1722.54 M 6167.44 2272.63 L 5680.27 1845.63 M 7661.68 1794.77 L 7069.62 2101.98 M 3651.55 1013 L 3114.32 2008.9 M 3757.54 1607.35 L 3651.55 1013 M 3036.55 3091.92 L 3075.32 3239.41 M 8028.9 3305.58 L 7490.25 2367.18 M 7205.24 2324.15 L 8028.9 3305.58 M 5080.75 1616.58 L 5135.78 1327.82 M 880.725 6944.46 L 915.716 7632.46 M 12873.1 4162.17 L 12677.5 4072.21 M 5645.19 1449.89 L 5569.49 1179.91 M 10612.4 2243.49 L 10813.2 2803.99 M 3141.08 4141.09 L 3371.5 4385.5 M 6993.46 2568.68 L 6663.05 2516.03 M 8065.67 3273.52 L 7205.24 2324.15 M 12032.4 2622.39 L 12198 2458.6 M 5513.73 992.277 L 5522.25 819.32 M 1625.83 8389.85 L 1332.92 7805.34 M 2969.72 2639.83 L 3007.45 3770.76 M 6959.33 2636.98 L 6897.33 2376.03 M 6897.33 2376.03 L 6829.11 2690.48 M 12340.1 1372.64 L 11987.4 1393.85 M 8450.71 3497.23 L 8745.02 3710.36 M 11403.7 3407.04 L 10961.9 3208.06 M 10961.9 3208.06 L 11288.8 3504.2 M 8152.73 2589.2 L 7953.68 2953.59 M 7953.68 2953.59 L 8268.92 2851.99 M 6774.16 545.662 L 6412.56 662.876 M 3935.93 3786.39 L 3702.01 3681.1 M 11435.1 2098.96 L 10646.8 1976.27 M 10756.3 2350.55 L 11155.9 2221.38 M 8809.83 3769.58 L 9275.21 2834.27 M 10646.8 1976.27 L 9871.46 2177.05 M 3778.55 11064.9 L 3937.6 11308.3 M 3937.6 11308.3 L 3789.8 11058.6 M 3837.43 7490.64 L 4411.11 7359.03 M 4411.11 7359.03 L 4059.17 7415.59 M 3507.1 8515.11 L 2945.08 8340.31 M 3921.97 4798.4 L 3414.81 4401.36 M 5911.9 885.341 L 5727.92 1004 M 6307.1 2141.74 L 6212.75 2369.39 M 10329.2 2024.87 L 10491.9 1506.92 M 9636.71 1671.07 L 9591.75 1925.95 M 6197.06 905.571 L 5885.8 1024.93 M 6111.71 1135.45 L 6197.06 905.571 M 7648.87 4850.58 L 7587.04 4566.44 M 7243.92 4634.79 L 7648.87 4850.58 M 6643.5 3617.62 L 6908.85 3632.17 M 2456.39 4477 L 2518.45 4410.32 M 8896.43 2282.52 L 8305.98 1779.59 M 7050.9 1854.03 L 7352.09 1500.72 M 2620.03 4163.33 L 2199.22 3479.21 M 3883.13 1643.24 L 3693.72 2068.35 M 4180.75 1830.83 L 4415.59 1430.98 M 4059.17 7415.59 L 4411 7358.37 M 9412.27 4273.31 L 9432.03 4276.45 M 3943.55 3237.61 L 3829.5 3587.56 M 3829.5 3587.56 L 4036.27 3739.39 M 12094.4 4538.98 L 12198.1 4727.73 M 7044.09 306.35 L 6774.16 545.662 M 2556.36 4131.6 L 2112.03 4533.77 M 2112.03 4533.77 L 3106.4 4667.16 M 3239.65 2518.53 L 2332.92 2089.1 M 676.765 6494.88 L 880.725 6944.46 M 8906.99 4247.48 L 9035.43 4247.85 M 2780.24 3975.09 L 2859.28 3921.01 M 3815.43 7012.4 L 3162.63 7131.17 M 5268.89 3449.55 L 5777.18 4043.35 M 253.615 6302.47 L 220.045 7083.39 M 220.045 7083.39 L 266.67 6591.91 M 12074.3 3874.77 L 11885.9 3723.05 M 8190.7 2469.88 L 8395.25 2932.36 M 6643.48 3617.91 L 6390.76 3831.16 M 11246 2478.1 L 10773.4 2745.25 M 11176.4 3136.85 L 11246 2478.1 M 2970.49 3408.83 L 3214.67 3734.34 M 5964.86 4996.7 L 6426.67 5243.46 M 11644 2414.4 L 11466.5 2529.84 M 3371.5 4385.5 L 3424.14 4418.58 M 3424.14 4418.58 L 3891.92 4477.56 M 6647.14 3295.7 L 6750.9 3429.04 M 6757.16 2999.83 L 6647.14 3295.7 M 2675.2 7237.56 L 2972.23 7340.2 M 8970.9 2658.95 L 8789.81 2443.05 M 8710.25 2942.58 L 8837.28 2700.5 M 9170.78 972.807 L 8713.79 963.87 M 6376.34 1777.95 L 6364.56 2234.87 M 6453.29 2125.94 L 6376.34 1777.95 M 11855.5 4054.33 L 11948.6 3722.77 M 11948.6 3722.77 L 11736.3 3665.51 M 8665.22 2280.99 L 8667.89 2156.31 M 5027.45 4758.92 L 5135.14 5326.63 M 1781.84 6907.4 L 2114.79 7281.99 M 9437 2552.97 L 8896.43 2282.52 M 5522.25 819.32 L 5473.05 557.885 M 5473.05 557.885 L 5190.64 856.23 M 14107.6 4213.61 L 13919 4526.35 M 7211.59 2051.31 L 7580.64 1800.52 M 12487.1 4022.74 L 12132.4 4028.99 M 2420.63 3547.87 L 2556.36 4131.6 M 2681.44 3745.3 L 2420.63 3547.87 M 12545.5 2002.05 L 12862.3 1833.54 M 7225.43 3103.65 L 6993.46 2568.68 M 7050.34 3077.67 L 7225.43 3103.65 M 3784.55 4233.27 L 4096.84 4666.27 M 11591.4 3408.35 L 11269.4 3314.44 M 4079.29 6771.28 L 2514.62 3762.34 M 12358.6 1617 L 12218.3 1440.01 M 11920.7 3002.08 L 11791.2 2847.43 M 9662.57 2890.32 L 9382.67 2687.98 M 9392.93 2874.43 L 9662.57 2890.32 M 5582.78 9539.96 L 5675.52 9264.93 M 5675.52 9264.93 L 5577.23 9526.14 M 6597.29 4148.86 L 6135.63 4519.2 M 7410.95 3491.8 L 7113.26 3554.35 M 1332.64 7805.42 L 1951.15 8017.3 M 5670.34 4827.89 L 5964.86 4996.7 M 9288.15 3433.6 L 9622.43 3136.18 M 5815.66 4161.55 L 6041.43 4264.78 M 7522.28 1548.92 L 7224.51 1747.51 M 7580.64 1800.52 L 7522.28 1548.92 M 11829.8 3028.34 L 11176.4 3136.85 M 7853.13 3344.51 L 7765.5 3595.81 M 7765.5 3595.81 L 7598.8 3624.2 M 11980.8 2943.17 L 12164.6 2897.01 M 14275.8 4097.6 L 13666.7 4215.79 M 13666.7 4215.79 L 13680.6 4237.42 M 13337.9 4015.5 L 12254.6 2466.15 M 12254.6 2466.15 L 10371.2 2629.62 M 3651.23 2968.17 L 3434.89 2867.02 M 683.813 6590.78 L 958.593 5779.98 M 9688.92 1614.41 L 9483.12 1581.58 M 2945.8 3728.93 L 3016.4 3861.34 M 9885.08 3264.95 L 9949.77 3167.78 M 9949.77 3167.78 L 10371.3 2629.22 M 10371.3 2629.22 L 10227.6 2562.92 M 5145.34 5350 L 4118.45 6936.21 M 3631.62 5151.97 L 3702.55 5285.57 M 6300.92 3700.6 L 5955.33 3759.3 M 9208.42 2577.28 L 9154.22 2418.19 M 13321.6 4298.18 L 12873.1 4162.17 M 13088.5 4247.54 L 13063.7 4254.15 M 13036.8 4607.9 L 13088.5 4247.54 M 5517.63 1526.66 L 5377.6 1734.28 M 5641.83 3439.75 L 5161.75 2877.9 M 12520.4 4281.21 L 13036.8 4607.9 M 7953.68 2953.58 L 8384.25 2832.82 M 8268.92 2851.99 L 7953.68 2953.58 M 6908.85 3632.17 L 6643.48 3617.91 M 9795.83 3709.1 L 9624.36 3296.98 M 10943.4 2890.26 L 10530.6 3003.54 M 4632.73 3258.71 L 4523.79 3978.36 M 3931.08 1041.42 L 3883.13 1643.24 M 5955.33 3759.3 L 5576.49 3979.17 M 7598.8 3624.2 L 7268.72 4220.77 M 7268.72 4220.77 L 7443.16 4105.54 M 8395.25 2932.36 L 8710.25 2942.58 M 6280.46 3580.42 L 5471.41 3137.48 M 9783.12 4945.98 L 9599.25 5499.4 M 9599.25 5499.4 L 10236.1 5088.62 M 11849 3835.26 L 11903.5 4174.16 M 12164.6 2897.01 L 12113.2 2800.61 M 12113.2 2800.61 L 11951.2 2822.05 M 5361.16 4026.79 L 5667.54 4073.08 M 12270.8 1928 L 12545.5 2002.05 M 9529.04 3208.54 L 9448.09 3862.31 M 8758.75 3411.98 L 8858.47 2760.82 M 9793.03 3364.85 L 10242.9 2961.46 M 9908.69 2926.14 L 9712.87 3278.51 M 5930.83 6389.38 L 4079.29 6771.28 M 6268.24 2440.06 L 6316.11 2662.9 M 6316.11 2662.9 L 6592.96 2662.89 M 12292.7 3979.66 L 12520.4 4281.21 M 5502.37 4691.85 L 5361.16 4026.79 M 11819.8 3143.51 L 11980 3577.4 M 5777.18 4043.35 L 6345.04 4261.63 M 11792 2767.42 L 11582.8 3032.64 M 11869.6 3490.69 L 12125.2 3089.13 M 3214.67 3734.34 L 3199.14 3263.1 M 12132.4 4028.99 L 11849 3835.26 M 9483.12 1581.58 L 9688.42 1617.37 M 9688.42 1617.37 L 9730.13 1512.64 M 6830.28 4376.95 L 6536.32 4375.32 M 4846.08 858.941 L 4505.33 798.283 M 7385.02 1848.04 L 7532.79 1918.46 M 7974.22 1486.42 L 7330.94 1840.17 M 5304.15 1073.58 L 5219.85 1585.64 M 9129.97 1837.02 L 8979.11 1978.53 M 7466.72 2646 L 8137.67 3038.56 M 8858.47 2760.82 L 9904.84 2769.87 M 9633.42 2628.9 L 9437 2552.97 M 9432.03 4276.45 L 9571.22 4342.5 M 9571.22 4342.5 L 9997.4 3430 M 5190.64 856.23 L 5304.15 1073.58 M 4118.45 6936.21 L 3815.43 7012.4 M 1372.89 3922.43 L 992.257 3618.9 M 1371.53 3924.14 L 1088.57 3673.96 M 992.257 3618.9 L 1371.53 3924.14 M 8606.93 2803.09 L 8587.37 2982.14 M 12178.8 4103.87 L 12074.3 3874.77 M 617.853 5738.08 L 874.863 5892.53 M 874.863 5892.53 L 795.486 5729.85 M 8066.64 2807.75 L 8619.37 2907.79 M 8619.37 2907.79 L 8106.46 2458.61 M 5471.41 3137.48 L 5178.07 3200.64 M 9132.59 2412.25 L 9014.16 1967.68 M 11155.8 2221.23 L 10756.3 2350.55 M 3249.13 3687.44 L 3114.41 3570.55 M 12139.2 2822.2 L 12220.3 2503.03 M 11791.2 2847.43 L 11620.5 2897.56 M 4358.02 1128.72 L 4452.52 799.847 M 4452.52 799.847 L 3931.08 1041.42 M 5634.03 2405.24 L 5126.46 2532.44 M 11832.8 2617.44 L 11623.5 2763.33 M 12021.4 1712.25 L 11835.8 2228.45 M 7690.96 2200.26 L 7661.68 1794.77 M 11620.5 2897.56 L 11795.2 2864.1 M 8137.67 3038.56 L 8415.05 2975.19 M 8415.05 2975.19 L 8066.64 2807.75 M 8384.25 2832.82 L 9128.65 2615 M 8979.11 1978.53 L 9132.59 2412.25 M 9734.12 1182.4 L 9269.32 1318.49 M 9604.87 2731.81 L 9247.39 2820.93 M 12204.8 3061.82 L 12112.1 3162.34 M 9184.25 3629.41 L 9313.41 3949.61 M 12023.1 2023.25 L 12179.6 2138.12 M 10813.2 2803.99 L 11155.7 2724.47 M 11155.7 2724.47 L 10832.6 2190.12 M 12169.5 3095.64 L 12064.4 3125.65 M 7330.94 1840.17 L 7219.03 2128.35 M 1332.92 7805.34 L 1155.38 7151.56 M 3941.22 3694.18 L 4093.01 3193.07 M 8305.46 1117.4 L 8014.71 1622.84 M 3173.17 2354.42 L 2969.72 2639.83 M 6868.54 3810.14 L 7392.37 3769.24 M 7113.26 3554.35 L 6868.54 3810.14 M 8007.16 1893.53 L 8190.7 2469.88 M 4379.22 1116.37 L 4401.88 1423.23 M 7110.08 3423.98 L 7368.6 3263.67 M 13611.8 4830.19 L 13719.4 4475.86 M 13452.7 4659.85 L 13611.8 4830.19 M 12189 2481.73 L 12412.1 2549.29 M 11980 3577.4 L 12146.7 3478.01 M 12146.7 3478.01 L 12082.9 3365.4 M 11288.8 3504.2 L 10952.4 3218.85 M 9313.41 3949.61 L 9400.74 4143.52 M 9400.74 4143.52 L 9747.34 4013.18 M 9674.29 2039.07 L 9486.71 1724.63 M 9555.08 3686.16 L 9365.6 3833.1 M 8925.76 4203.71 L 9026.18 4156.2 M 1962.22 3277.44 L 1808.16 3457.72 M 4401.88 1423.23 L 4180.75 1830.83 M 4415.59 1430.98 L 4358.02 1128.72 M 6249.83 1911.55 L 5645.19 1449.89 M 3114.32 2008.9 L 3173.17 2354.42 M 4130.67 4071.53 L 3935.93 3786.39 M 6750.9 3429.04 L 6581.95 3429.3 M 9415.49 2284.95 L 9677.79 1983.04 M 6204.01 4613.2 L 6844.27 4798.98 M 10101.3 3806.13 L 10247.5 4402.99 M 3891.92 4477.56 L 3764.78 4172.5 M 10530.6 3003.54 L 10941.5 2883.27 M 12125.2 3089.13 L 12444.2 2888.03" />
<path fill="none" class="c" d=" M 8710.25 2942.58 L 8789.81 2443.05 M 8665.22 2280.99 L 8710.25 2942.58 M 8837.28 2700.5 L 8789.81 2443.05 M 8665.22 2280.99 L 8395.25 2932.36 M 8837.28 2700.5 L 8970.9 2658.95 M 8665.22 2280.99 L 8190.7 2469.88 M 8866.88 2723.91 L 8970.9 2658.95 M 8381.76 2133.3 L 8190.7 2469.88 M 8665.22 2280.99 L 8381.76 2133.3 M 9496.35 3100.22 L 8970.9 2658.95 M 8381.76 2133.3 L 8007.16 1893.53 M 9278.96 2541.29 L 8970.9 2658.95 M 9496.35 3100.22 L 9278.96 2541.29 M 8381.76 2133.3 L 8587.35 1722.54 M 9110.47 2478.97 L 8970.9 2658.95 M 9415.49 2284.95 L 9278.96 2541.29 M 8587.35 1722.54 L 8007.16 1893.53 M 8634.83 1984.78 L 8587.35 1722.54 M 8667.89 2156.31 L 8381.76 2133.3 M 8866.88 2723.91 L 9496.35 3100.22 M 9132.59 2412.25 L 9278.96 2541.29 M 8667.89 2156.31 L 8560.92 1900.9 M 7814.87 1812.43 L 8007.16 1893.53 M 9132.59 2412.25 L 8912.58 2812.72 M 8912.58 2812.72 L 9278.96 2541.29 M 8667.89 2156.31 L 8874.35 1682.67 M 8912.58 2812.72 L 9382.67 2687.98 M 9080.19 1684.41 L 8874.35 1682.67 M 8912.58 2812.72 L 9392.93 2874.43 M 9392.93 2874.43 L 9382.67 2687.98 M 9212.97 1365.08 L 8874.35 1682.67 M 9080.19 1684.41 L 9212.97 1365.08 M 9170.78 972.807 L 8874.35 1682.67 M 9080.19 1684.41 L 9740.41 1516.59 M 9170.78 972.807 L 8418.05 1683.24 M 9486.71 1724.63 L 9740.41 1516.59 M 9080.19 1684.41 L 9486.71 1724.63 M 8713.79 963.87 L 8418.05 1683.24 M 7814.87 1812.43 L 7855.64 1922.51 M 9014.16 1967.68 L 8912.58 2812.72 M 9496.35 3100.22 L 9415.49 2284.95 M 9415.49 2284.95 L 9132.59 2412.25 M 7757.73 2047.3 L 7855.64 1922.51 M 9014.16 1967.68 L 8593.79 2296.43 M 9496.35 3100.22 L 10060.6 2687.61 M 9415.49 2284.95 L 8979.11 1978.53 M 7757.73 2047.3 L 8192.15 2427.42 M 8886.53 1804.91 L 8593.79 2296.43 M 10060.6 2687.61 L 9415.49 2284.95 M 7691.24 2200.12 L 8192.15 2427.42 M 8886.53 1804.91 L 8505.48 2169.94 M 10060.6 2687.61 L 9591.75 1925.95 M 7788.23 2368.69 L 8192.15 2427.42 M 8886.53 1804.91 L 8156.02 1676.24 M 10329.2 2024.87 L 9591.75 1925.95 M 7829.2 2481.83 L 8192.15 2427.42 M 7788.23 2368.69 L 7829.2 2481.83 M 10329.2 2024.87 L 9636.71 1671.07 M 7829.2 2481.83 L 7882.97 2592.34 M 9908.69 2926.14 L 10060.6 2687.61 M 10329.2 2024.87 L 10188.8 1569.94 M 10188.8 1569.94 L 9636.71 1671.07 M 7690.96 2200.26 L 7882.97 2592.34 M 10242.9 2961.46 L 10060.6 2687.61 M 9908.69 2926.14 L 10242.9 2961.46 M 10329.2 2024.87 L 10283.4 1531.33 M 7690.96 2200.26 L 7695.79 2647.57 M 10491.9 1506.92 L 10283.4 1531.33 M 7074.04 2722.04 L 7695.79 2647.57 M 7690.96 2200.26 L 7074.04 2722.04 M 10491.9 1506.92 L 10226.7 1393.19 M 7308.33 2775.58 L 7695.79 2647.57 M 7074.04 2722.04 L 7308.33 2775.58 M 7690.96 2200.26 L 7142.98 2391.42 M 7142.98 2391.42 L 7074.04 2722.04 M 10344.3 1002 L 10226.7 1393.19 M 7661.68 1794.77 L 7142.98 2391.42 M 7142.98 2391.42 L 6974.19 2601.92 M 9734.12 1182.4 L 10226.7 1393.19 M 10344.3 1002 L 9734.12 1182.4 M 7069.62 2101.98 L 7142.98 2391.42 M 6882.76 2327.96 L 6974.19 2601.92 M 9734.12 1182.4 L 10049.7 1463.29 M 10344.3 1002 L 10020 862.53 M 6826.15 2351.97 L 7142.98 2391.42 M 7069.62 2101.98 L 6826.15 2351.97 M 9734.12 1182.4 L 9868.93 1487.38 M 7308.33 2775.58 L 7739.73 2871.54 M 7739.73 2871.54 L 7695.79 2647.57 M 7074.04 2722.04 L 7653.53 2872.85 M 10491.9 1506.92 L 10344.3 1002 M 9734.12 1182.4 L 9730.13 1512.64 M 7653.53 2872.84 L 7739.73 2871.54 M 7739.73 2871.54 L 7916.36 2803.5 M 7108.63 3151.68 L 7653.53 2872.85 M 9734.12 1182.4 L 9483.12 1581.58 M 10242.9 2961.46 L 10773.4 2745.25 M 9712.87 3278.51 L 10242.9 2961.46 M 9496.35 3100.22 L 9908.69 2926.14 M 9415.49 2284.95 L 9129.97 1837.02 M 7757.73 2047.3 L 7691.24 2200.12 M 9269.32 1318.49 L 9483.12 1581.58 M 7956.03 2928.36 L 7916.36 2803.5 M 10830 3506.46 L 10773.4 2745.25 M 9415.49 2284.95 L 9486.14 1955.3 M 9712.87 3278.51 L 9793.03 3364.85 M 9128.65 2615 L 9483.12 1581.58 M 7956.03 2928.36 L 8120.57 2794.48 M 10830 3506.46 L 10994.9 3330.82 M 10994.9 3330.82 L 10773.4 2745.25 M 9677.79 1983.04 L 9486.14 1955.3 M 9766.91 1919.3 L 9483.12 1581.58 M 11176.4 3136.85 L 10773.4 2745.25 M 9677.79 1983.04 L 9586.6 1812.78 M 9766.91 1919.3 L 9688.92 1614.41 M 7956.03 2928.36 L 8234 2742.65 M 9496.35 3100.22 L 9713.39 3278.8 M 9766.91 1919.3 L 10292.9 1598.04 M 7956.03 2928.36 L 8822.59 2957.71 M 9485.17 3920.22 L 9713.39 3278.8 M 9766.91 1919.3 L 10333.1 2310.77 M 10333.1 2310.77 L 10292.9 1598.04 M 8693.43 3567.86 L 8822.59 2957.71 M 9485.17 3920.22 L 9683.1 3663.19 M 9683.1 3663.19 L 9713.39 3278.8 M 9766.91 1919.3 L 9904.84 2769.87 M 10612.4 2243.49 L 10292.9 1598.04 M 10333.1 2310.77 L 10612.4 2243.49 M 8693.43 3567.86 L 9624.36 3296.98 M 9485.17 3920.22 L 9617.79 3842.03 M 9766.91 1919.3 L 9825.57 2339.67 M 9825.57 2339.67 L 9904.84 2769.87 M 10612.4 2243.49 L 10832.6 2190.12 M 10531 2906.64 L 10612.4 2243.49 M 9184.25 3629.41 L 9624.36 3296.98 M 9825.57 2339.67 L 9633.42 2628.9 M 10813.2 2803.99 L 10832.6 2190.12 M 10531 2906.64 L 10811.1 2804.74 M 9184.25 3629.41 L 9795.83 3709.1 M 8895.9 2283.61 L 9633.42 2628.9 M 9633.42 2628.9 L 9904.84 2769.87 M 10531 2906.64 L 10530.6 3003.54 M 10530.6 3003.54 L 10811.1 2804.74 M 9184.25 3629.41 L 9747.34 4013.18 M 9437 2552.97 L 9904.84 2769.87 M 10525.7 3127.75 L 10530.6 3003.54 M 9437 2552.97 L 8858.47 2760.82 M 10525.7 3127.75 L 10943.4 2890.26 M 8896.43 2282.52 L 8858.47 2760.82 M 10952.4 3218.85 L 10943.4 2890.26 M 10525.7 3127.75 L 10952.4 3218.85 M 8896.43 2282.52 L 8530.1 2640.18 M 8530.1 2640.18 L 8858.47 2760.82 M 10793.3 3527.39 L 10952.4 3218.85 M 10525.7 3127.75 L 10793.3 3527.39 M 8896.43 2282.52 L 8078.46 2932.6 M 8606.93 2803.09 L 8858.47 2760.82 M 10793.3 3527.39 L 11169.6 3645.67 M 10483.8 3203.63 L 10793.3 3527.39 M 8896.43 2282.52 L 7825.24 2203.88 M 8606.93 2803.09 L 8758.75 3411.98 M 10793.3 3527.39 L 10818 3777.15 M 10460.4 3657.53 L 10793.3 3527.39 M 10483.8 3203.63 L 10460.4 3657.53 M 8342.04 2236.78 L 7825.24 2203.88 M 8896.43 2282.52 L 8342.04 2236.78 M 8587.37 2982.14 L 8758.75 3411.98 M 7861.07 2028.11 L 7825.24 2203.88 M 8305.98 1779.59 L 8342.04 2236.78 M 8587.37 2982.14 L 8737.26 3561.89 M 7716.73 2128.58 L 7825.24 2203.88 M 7861.07 2028.11 L 7716.73 2128.58 M 7968.88 1485.74 L 8342.04 2236.78 M 8604.39 3519.92 L 8737.26 3561.89 M 7716.73 2128.58 L 7532.1 2231.23 M 7532.1 2231.23 L 7825.24 2203.88 M 8604.39 3519.92 L 8635.15 3620.26 M 7716.73 2128.58 L 7468.52 1998.99 M 7468.52 1998.99 L 7532.1 2231.23 M 7532.1 2231.23 L 7719.1 2392.87 M 7719.1 2392.87 L 7825.24 2203.88 M 7853.13 3344.51 L 8635.15 3620.26 M 7532.79 1918.46 L 7468.52 1998.99 M 7716.73 2128.58 L 7532.79 1918.46 M 7314.42 2301.4 L 7532.1 2231.23 M 7719.1 2392.87 L 8076.29 2292.22 M 7853.13 3344.51 L 8298.36 3815.52 M 7468.52 1998.99 L 7314.42 2301.4 M 7974.22 1486.42 L 7532.79 1918.46 M 7506.47 2432.36 L 7532.1 2231.23 M 10793.3 3527.39 L 10536.8 3947.24 M 10101.3 3806.13 L 10460.4 3657.53 M 7333.89 1836.97 L 7314.42 2301.4 M 7974.22 1486.42 L 7385.02 1848.04 M 7506.47 2432.36 L 7719.28 2595.82 M 10363.4 3597.86 L 10536.8 3947.24 M 10101.3 3806.13 L 10586.7 3898.73 M 11169.6 3645.67 L 10952.4 3218.85 M 7330.94 1840.17 L 7385.02 1848.04 M 7506.47 2432.36 L 7546.1 2588.3 M 10054.5 3898.77 L 10536.8 3947.24 M 10101.3 3806.13 L 10756.1 4295.32 M 11169.6 3645.67 L 11288.8 3504.2 M 7219.03 2128.35 L 7385.02 1848.04 M 7506.47 2432.36 L 7348.25 2660.63 M 10054.5 3898.77 L 10230.4 4079.04 M 11543.2 3789.09 L 11288.8 3504.2 M 10531 2906.64 L 10525.7 3127.75 M 10941.5 2883.27 L 10811.1 2804.74 M 9313.41 3949.61 L 9747.34 4013.18 M 10994.9 3330.82 L 11176.4 3136.85 M 9486.14 1955.3 L 9129.97 1837.02 M 9269.32 1318.49 L 9128.65 2615 M 7108.63 3151.68 L 7957.47 2922.13 M 9529.04 3208.54 L 10525.7 3127.75 M 10941.5 2883.27 L 10991.4 2502.85 M 11269.4 3314.44 L 11176.4 3136.85 M 9486.14 1955.3 L 9454.75 1531.42 M 8422.49 2048.82 L 9128.65 2615 M 10994.9 3330.82 L 11269.4 3314.44 M 9529.04 3208.54 L 9874.05 3592.26 M 10941.5 2883.27 L 11151.4 2606.25 M 11151.4 2606.25 L 10991.4 2502.85 M 11269.4 3314.44 L 11829.8 3028.34 M 9874.05 3592.26 L 10525.7 3127.75 M 8152.73 2589.2 L 9128.65 2615 M 11437.1 3650.42 L 11269.4 3314.44 M 9529.04 3208.54 L 9596.1 4140.32 M 11304.7 3045.17 L 11151.4 2606.25 M 11591.1 3409.19 L 11829.8 3028.34 M 8152.73 2589.2 L 8268.92 2851.99 M 8268.92 2851.99 L 9128.65 2615 M 11437.1 3650.42 L 11591.4 3408.35 M 9448.09 3862.31 L 9596.1 4140.32 M 11386.8 2995.48 L 11151.4 2606.25 M 12084.1 3361.13 L 11829.8 3028.34 M 8268.92 2851.99 L 8384.25 2832.82 M 11437.1 3650.42 L 12084.2 3358.81 M 11386.8 2995.48 L 11623.5 2763.33 M 12084.1 3361.13 L 12224.5 2784.6 M 9080.19 1684.41 L 9320.68 1914.87 M 11437.1 3650.42 L 11885.9 3723.05 M 11885.9 3723.05 L 12084.2 3358.81 M 11386.8 2995.48 L 11620.5 2897.56 M 11620.5 2897.56 L 11623.5 2763.33 M 12084.1 3361.13 L 12578.9 2569.07 M 11437.1 3650.42 L 11849 3835.26 M 12114.7 3801.59 L 12084.2 3358.81 M 11490 3062.47 L 11620.5 2897.56 M 11795.2 2864.1 L 11623.5 2763.33 M 9388.21 2498.7 L 9320.68 1914.87 M 11437.1 3650.42 L 11777.5 3998.14 M 11777.5 3998.14 L 11849 3835.26 M 12114.7 3801.59 L 12683.3 3724.88 M 11570.4 4061.44 L 11777.5 3998.14 M 11777.5 3998.14 L 12132.4 4028.99 M 12292.7 3979.66 L 12683.3 3724.88 M 11701.6 3068.22 L 11620.5 2897.56 M 12098.2 4128.3 L 12132.4 4028.99 M 12520.4 4281.21 L 12683.3 3724.88 M 11701.6 3068.22 L 11791.2 2847.43 M 12098.2 4128.3 L 12487.1 4022.74 M 13036.8 4607.9 L 12683.3 3724.88 M 11701.6 3068.22 L 11920.7 3002.08 M 12366.8 4172.76 L 12487.1 4022.74 M 13063.7 4254.15 L 12683.3 3724.88 M 13036.8 4607.9 L 13063.7 4254.15 M 11819.8 3143.51 L 11920.7 3002.08 M 12795.5 4461.87 L 12487.1 4022.74 M 11795.2 2864.1 L 11832.8 2617.44 M 11934.7 3223.58 L 11920.7 3002.08 M 11819.8 3143.51 L 11934.7 3223.58 M 12795.5 4461.87 L 12677.5 4072.21 M 11951.2 2822.05 L 11832.8 2617.44 M 11795.2 2864.1 L 11951.2 2822.05 M 11980 3577.4 L 11934.7 3223.58 M 12795.5 4461.87 L 12873.1 4162.17 M 12071.2 2711.06 L 11832.8 2617.44 M 11980.8 2943.17 L 11951.2 2822.05 M 12082.9 3365.4 L 11934.7 3223.58 M 11980 3577.4 L 12082.9 3365.4 M 12795.5 4461.87 L 13321.6 4298.18 M 12164.6 2897.01 L 11951.2 2822.05 M 12082.9 3365.4 L 12112.1 3162.34 M 11934.7 3223.58 L 12064.4 3125.65 M 12795.5 4461.87 L 13134.9 4551.79 M 13134.9 4551.79 L 13321.6 4298.18 M 12209.8 3390.79 L 12112.1 3162.34 M 12116.4 3270.72 L 12064.4 3125.65 M 13452.7 4659.85 L 13321.6 4298.18 M 13134.9 4551.79 L 13452.7 4659.85 M 12209.8 3390.79 L 12204.8 3061.82 M 12116.4 3270.72 L 12169.5 3095.64 M 13452.7 4659.85 L 13719.4 4475.86 M 13719.4 4475.86 L 13321.6 4298.18 M 12209.8 3390.79 L 12661.4 3396.3 M 12661.4 3396.3 L 12204.8 3061.82 M 13719.4 4475.86 L 13680.6 4237.42 M 12587.7 3573.63 L 12661.4 3396.3 M 12661.4 3396.3 L 12711 3167.12 M 13719.4 4475.86 L 14107.6 4213.61 M 14107.6 4213.61 L 13680.6 4237.42 M 12817.6 3172.2 L 12711 3167.12 M 14107.6 4213.61 L 14275.8 4097.6 M 14275.8 4097.6 L 13680.6 4237.42 M 14107.6 4213.61 L 14619.9 4319.05 M 13052.6 2810.71 L 12711 3167.12 M 14107.6 4213.61 L 14348.5 4344.97 M 13052.6 2810.71 L 12521.1 2750.54 M 13919 4526.35 L 14348.5 4344.97 M 13052.6 2810.71 L 12412.1 2549.29 M 11849 3835.26 L 11885.9 3723.05 M 13079.1 2298.21 L 12412.1 2549.29 M 11849 3835.26 L 12074.3 3874.77 M 12722.4 2200.34 L 12412.1 2549.29 M 11967.1 4139.88 L 12074.3 3874.77 M 11849 3835.26 L 11967.1 4139.88 M 12482.6 2115.42 L 12412.1 2549.29 M 12722.4 2200.34 L 12482.6 2115.42 M 11967.1 4139.88 L 12178.8 4103.87 M 11903.5 4174.16 L 11967.1 4139.88 M 12298.4 2251.99 L 12412.1 2549.29 M 11967.1 4139.88 L 12298.1 4462.38 M 12298.4 2251.99 L 12189 2481.73 M 11967.1 4139.88 L 12099.4 4310.05 M 12099.4 4310.05 L 12298.1 4462.38 M 12004.8 4525.48 L 12099.4 4310.05 M 12094.4 4538.98 L 12298.1 4462.38 M 14348.5 4344.97 L 14619.9 4319.05 M 12198.1 4727.73 L 12298.1 4462.38 M 8713.79 963.87 L 8014.71 1622.84 M 10908.3 1302.66 L 10344.3 1002 M 8713.79 963.87 L 8305.46 1117.4 M 10908.3 1302.66 L 11314.9 719.897 M 11403.7 3407.04 L 11288.8 3504.2 M 9483.12 1581.58 L 9730.13 1512.64 M 11543.2 3789.09 L 11403.7 3407.04 M 7069.62 2101.98 L 6730.83 2042.88 M 11543.2 3789.09 L 11736.3 3665.51 M 11736.3 3665.51 L 11403.7 3407.04 M 7050.9 1854.03 L 6730.83 2042.88 M 7069.62 2101.98 L 7050.9 1854.03 M 11543.2 3789.09 L 11855.5 4054.33 M 11855.5 4054.33 L 11736.3 3665.51 M 11869.6 3490.69 L 11403.7 3407.04 M 7050.9 1854.03 L 6920.93 1553.3 M 6920.93 1553.3 L 6730.83 2042.88 M 11543.2 3789.09 L 11539.4 3973.02 M 11539.4 3973.02 L 11855.5 4054.33 M 11582.8 3032.64 L 11403.7 3407.04 M 11869.6 3490.69 L 11582.8 3032.64 M 7352.09 1500.72 L 6920.93 1553.3 M 6249.83 1911.55 L 6730.83 2042.88 M 11539.4 3973.02 L 11534.4 4178.84 M 11582.8 3032.64 L 11277.7 2939.19 M 11869.6 3490.69 L 11792 2767.42 M 7352.09 1500.72 L 6796.27 1302.15 M 6212.75 2369.39 L 6730.83 2042.88 M 6249.83 1911.55 L 6212.75 2369.39 M 11582.8 3032.64 L 11542.3 2754.14 M 7352.09 1500.72 L 6943.32 759.037 M 6212.75 2369.39 L 6663.05 2516.03 M 6249.83 1911.55 L 5916.74 1882.38 M 5916.74 1882.38 L 6212.75 2369.39 M 11812 2784.52 L 11542.3 2754.14 M 6210.31 2615.81 L 6663.05 2516.03 M 6249.83 1911.55 L 5606.02 1684.89 M 5551.01 1838.06 L 6212.75 2369.39 M 5916.74 1882.38 L 5551.01 1838.06 M 6804.07 3042.58 L 6663.05 2516.03 M 5645.19 1449.89 L 5606.02 1684.89 M 5158.45 2880.73 L 6212.75 2369.39 M 5551.01 1838.06 L 5158.45 2880.73 M 5616.49 1669.31 L 5551.01 1838.06 M 7050.34 3077.67 L 6663.05 2516.03 M 5645.19 1449.89 L 5219.85 1585.64 M 5639.33 3441.89 L 6212.75 2369.39 M 5428.72 1398.67 L 5158.45 2880.73 M 5551.01 1838.06 L 5428.72 1398.67 M 7050.34 3077.67 L 6993.46 2568.68 M 5569.49 1179.91 L 5219.85 1585.64 M 5991.6 3848.18 L 6212.75 2369.39 M 5428.72 1398.67 L 5602.99 380.549 M 5685.77 1431.89 L 5428.72 1398.67 M 6419.05 2179.33 L 6212.75 2369.39 M 5428.72 1398.67 L 6509.15 204.373 M 5685.77 1431.89 L 5710.77 832.019 M 6419.05 2179.33 L 6307.1 2141.74 M 5569.49 1179.91 L 5304.15 1073.58 M 5685.77 1431.89 L 5885.8 1024.93 M 6862.09 2006.09 L 6307.1 2141.74 M 6419.05 2179.33 L 6862.09 2006.09 M 5569.49 1179.91 L 5513.73 992.277 M 5513.73 992.277 L 5304.15 1073.58 M 6111.71 1135.45 L 5885.8 1024.93 M 6419.05 2179.33 L 6703.31 2219.53 M 5522.25 819.32 L 5304.15 1073.58 M 5991.6 3848.18 L 6419.05 2179.33 M 6419.05 2179.33 L 7205.24 2324.15 M 7205.24 2324.15 L 6703.31 2219.53 M 5522.25 819.32 L 5190.64 856.23 M 5991.6 3848.18 L 6829.11 2690.48 M 6829.11 2690.48 L 6419.05 2179.33 M 7205.24 2324.15 L 7113.83 2234.85 M 5991.6 3848.18 L 6747.27 3077.99 M 6747.27 3077.99 L 6829.11 2690.48 M 6419.05 2179.33 L 6169.91 3070.75 M 7490.25 2367.18 L 7113.83 2234.85 M 7205.24 2324.15 L 7490.25 2367.18 M 7435.94 3071.4 L 6747.27 3077.99 M 5991.6 3848.18 L 7435.94 3071.4 M 6747.27 3077.99 L 6959.33 2636.98 M 6959.33 2636.98 L 6829.11 2690.48 M 6345.04 4261.63 L 7435.94 3071.4 M 5991.6 3848.18 L 6345.04 4261.63 M 7209.19 2574.98 L 6959.33 2636.98 M 6747.27 3077.99 L 7209.19 2574.98 M 6672.2 3672.13 L 7587.04 4566.44 M 6345.04 4261.63 L 8739.86 1960.83 M 5991.6 3848.18 L 6046.61 3925.73 M 6046.61 3925.73 L 6345.04 4261.63 M 7092.07 2257.88 L 6959.33 2636.98 M 6672.2 3672.13 L 6858.61 4693.3 M 6345.04 4261.63 L 9194 2594.43 M 9194 2594.43 L 8739.86 1960.83 M 6046.61 3925.73 L 5777.18 4043.35 M 7092.07 2257.88 L 6895.88 2376.38 M 6285.55 4792.1 L 6858.61 4693.3 M 6672.2 3672.13 L 6285.55 4792.1 M 8631.39 4123.73 L 9194 2594.43 M 9194 2594.43 L 9154.22 2418.19 M 9154.22 2418.19 L 8739.86 1960.83 M 5641.83 3439.75 L 5777.18 4043.35 M 6995.29 1902.19 L 6895.88 2376.38 M 6228.25 5096.61 L 6858.61 4693.3 M 7092.07 2257.88 L 6995.29 1902.19 M 8809.83 3769.58 L 9194 2594.43 M 6345.04 4261.63 L 8631.39 4123.73 M 7209.19 2574.98 L 7092.07 2257.88 M 7315.47 3075.04 L 7209.19 2574.98 M 6747.27 3077.99 L 7315.47 3075.04 M 6858.61 4693.3 L 7587.04 4566.44 M 6995.29 1902.19 L 6711.03 1801.24 M 7211.59 2051.31 L 6995.29 1902.19 M 9275.21 2834.27 L 9194 2594.43 M 7209.19 2574.98 L 7208.24 2049.41 M 7662.49 3044.61 L 7209.19 2574.98 M 7243.92 4634.79 L 7587.04 4566.44 M 6140.74 4038.28 L 6672.2 3672.13 M 6169.91 3070.75 L 6140.74 4038.28 M 7435.94 3071.4 L 7116.62 3017.47 M 7662.49 3044.61 L 7599.91 2401.9 M 11542.3 2754.14 L 11277.7 2939.19 M 12125.2 3089.13 L 11792 2767.42 M 6943.32 759.037 L 6796.27 1302.15 M 11542.3 2754.14 L 11358.9 2718.7 M 11169.6 3645.67 L 11543.2 3789.09 M 7074.04 2722.04 L 7108.63 3151.68 M 10247.5 4402.99 L 10756.1 4295.32 M 6169.91 3070.75 L 5815.66 4161.55 M 5815.66 4161.55 L 6140.74 4038.28 M 12125.2 3089.13 L 12139.2 2822.2 M 12139.2 2822.2 L 11792 2767.42 M 11542.3 2754.14 L 11394.6 2629.7 M 11169.6 3645.67 L 11167.7 3909.83 M 7074.04 2722.04 L 6112.29 2643.92 M 10247.5 4402.99 L 10915.2 4604.33 M 6169.91 3070.75 L 5645.17 3077.51 M 12139.2 2822.2 L 11967.4 2623.67 M 11542.3 2754.14 L 11466.5 2529.84 M 6041.43 4264.78 L 6140.74 4038.28 M 6246.08 2544.89 L 6112.29 2643.92 M 10484.4 4567.1 L 10915.2 4604.33 M 10247.5 4402.99 L 10484.4 4567.1 M 5909.54 2857.36 L 5645.17 3077.51 M 12220.3 2503.03 L 11967.4 2623.67 M 11542.3 2754.14 L 11644 2414.4 M 6377.95 4246.83 L 6140.74 4038.28 M 6364.56 2234.87 L 6112.29 2643.92 M 12220.3 2503.03 L 11770 2451.91 M 11542.3 2754.14 L 11768.6 2350.36 M 6377.95 4246.83 L 6352.09 4136.27 M 6364.56 2234.87 L 6167.44 2272.63 M 6167.44 2272.63 L 6112.29 2643.92 M 12220.3 2503.03 L 11835.8 2228.45 M 12032.4 2622.39 L 11768.6 2350.36 M 6738.29 3866.51 L 6352.09 4136.27 M 6227.57 1864.88 L 6167.44 2272.63 M 5680.27 1845.63 L 6112.29 2643.92 M 12223.1 2164.13 L 11835.8 2228.45 M 12032.4 2622.39 L 12179.6 2138.12 M 6738.29 3866.51 L 6390.76 3831.16 M 6390.76 3831.16 L 6352.09 4136.27 M 5680.27 1845.63 L 5634.03 2405.24 M 5634.03 2405.24 L 6112.29 2643.92 M 12270.8 1928 L 11835.8 2228.45 M 12198 2458.6 L 12179.6 2138.12 M 6738.29 3866.51 L 6643.48 3617.91 M 6390.76 3831.16 L 6076.79 4421.03 M 5680.27 1845.63 L 5377.6 1734.28 M 5679.69 2772.95 L 6112.29 2643.92 M 5634.03 2405.24 L 5679.69 2772.95 M 12270.8 1928 L 12021.4 1712.25 M 12657.1 2158.35 L 12179.6 2138.12 M 6738.29 3866.51 L 6908.85 3632.17 M 6300.92 3700.6 L 6076.79 4421.03 M 5126.46 2532.44 L 5679.69 2772.95 M 12270.8 1928 L 12358.6 1617 M 12358.6 1617 L 12021.4 1712.25 M 12657.1 2158.35 L 12621.6 1847.47 M 12621.6 1847.47 L 12179.6 2138.12 M 7115.11 3819.74 L 6908.85 3632.17 M 5955.33 3759.3 L 6076.79 4421.03 M 12555.8 1627.19 L 12358.6 1617 M 12270.8 1928 L 12555.8 1627.19 M 12218.3 1440.01 L 12021.4 1712.25 M 12621.6 1847.47 L 12296.3 1827.38 M 12296.3 1827.38 L 12179.6 2138.12 M 7115.11 3819.74 L 7078.39 3400.16 M 7078.39 3400.16 L 6908.85 3632.17 M 12340.1 1372.64 L 12358.6 1617 M 12545.5 2002.05 L 12555.8 1627.19 M 6750.9 3429.04 L 6908.85 3632.17 M 12340.1 1372.64 L 12137.7 1569.92 M 12862.3 1833.54 L 12555.8 1627.19 M 6666.1 3550.56 L 6908.85 3632.17 M 6750.9 3429.04 L 6666.1 3550.56 M 11987.4 1393.85 L 12137.7 1569.92 M 6666.1 3550.56 L 6643.5 3617.62 M 6581.95 3429.3 L 6666.1 3550.56 M 5576.49 3979.17 L 6076.79 4421.03 M 6666.1 3550.56 L 6359.62 3787.2 M 6581.95 3429.3 L 6386.29 3556.07 M 5576.49 3979.17 L 5741.41 4531.99 M 12443.3 1634.11 L 12296.3 1827.38 M 12296.3 1827.38 L 12023.1 2023.25 M 4991.92 4717.16 L 5741.41 4531.99 M 5576.49 3979.17 L 4991.92 4717.16 M 12443.3 1634.11 L 12285 1480.01 M 12296.3 1827.38 L 12081.2 1607.52 M 5670.34 4827.89 L 5741.41 4531.99 M 4950.75 4239.41 L 4991.92 4717.16 M 12443.3 1634.11 L 12703.3 1528.9 M 5670.34 4827.89 L 6076.7 4420.75 M 4950.75 4239.41 L 4430.08 4573.22 M 12619.2 1849.44 L 12703.3 1528.9 M 6135.63 4519.2 L 6076.7 4420.75 M 5670.34 4827.89 L 6135.63 4519.2 M 4950.75 4239.41 L 5106.69 3658.01 M 5106.69 3658.01 L 4430.08 4573.22 M 5871.09 6424.34 L 5777.92 6221.12 M 6204.01 4613.2 L 6135.63 4519.2 M 5670.34 4827.89 L 6204.01 4613.2 M 4523.79 3978.36 L 4430.08 4573.22 M 5106.69 3658.01 L 4523.79 3978.36 M 6725.88 3970.16 L 6140.74 4038.28 M 6204.01 4613.2 L 6470.58 4395.34 M 6470.58 4395.34 L 6135.63 4519.2 M 5964.86 4996.7 L 6204.01 4613.2 M 4130.67 4071.53 L 4430.08 4573.22 M 4523.79 3978.36 L 4130.67 4071.53 M 5106.69 3658.01 L 4632.73 3258.71 M 6470.58 4395.34 L 6597.29 4148.86 M 6426.67 5243.46 L 6204.01 4613.2 M 4130.67 4071.53 L 4096.84 4666.27 M 4096.84 4666.27 L 4430.08 4573.22 M 4633.17 3258.78 L 4130.67 4071.53 M 4837.95 3212.52 L 4632.73 3258.71 M 6470.58 4395.34 L 6809.43 4277.79 M 4130.67 4071.53 L 3784.55 4233.27 M 4096.84 4666.27 L 4434.49 5153.18 M 4266.5 3271.69 L 4130.67 4071.53 M 4633.17 3258.78 L 4266.5 3271.69 M 6611.19 4744.07 L 6809.43 4277.79 M 6470.58 4395.34 L 6611.19 4744.07 M 3935.93 3786.39 L 3784.55 4233.27 M 4009.54 5192.94 L 4434.49 5153.18 M 4266.5 3271.69 L 4036.27 3739.39 M 4633.17 3258.78 L 4037.02 2940.5 M 6611.19 4744.07 L 6876.54 4608.05 M 3702.01 3681.1 L 3784.55 4233.27 M 4009.54 5192.94 L 4111.01 5450.29 M 4111.01 5450.29 L 4434.49 5153.18 M 4266.5 3271.69 L 3943.55 3237.61 M 3943.55 3237.61 L 4036.27 3739.39 M 3316.83 4566.25 L 4111.01 5450.29 M 4009.54 5192.94 L 3316.83 4566.25 M 6725.88 3970.16 L 6195.49 3804.34 M 6204.01 4613.2 L 6536.32 4375.32 M 3316.83 4566.25 L 4253.9 5802.77 M 4446.81 5273.87 L 3316.83 4566.25 M 6280.46 3580.42 L 6195.49 3804.34 M 6204.01 4613.2 L 6830.28 4376.95 M 3316.83 4566.25 L 3631.62 5151.97 M 3631.62 5151.97 L 4253.9 5802.77 M 3921.97 4798.4 L 3316.83 4566.25 M 6280.46 3580.42 L 5667.54 4073.08 M 3201.4 4818.92 L 3631.62 5151.97 M 3702.55 5285.57 L 4253.9 5802.77 M 3414.81 4401.36 L 3316.83 4566.25 M 5471.41 3137.48 L 5667.54 4073.08 M 3201.4 4818.92 L 3702.7 5285.49 M 6844.27 4798.98 L 6830.28 4376.95 M 3414.81 4401.36 L 3269.08 4480.31 M 5471.41 3137.48 L 5361.16 4026.79 M 3395.72 5240.02 L 3702.7 5285.49 M 3390.14 4366.48 L 3269.08 4480.31 M 3414.81 4401.36 L 3390.14 4366.48 M 5178.07 3200.64 L 5361.16 4026.79 M 3395.72 5240.02 L 4114.23 5741.65 M 3390.14 4366.48 L 3028.05 4404.18 M 3414.81 4401.36 L 3446.83 4340.97 M 5263.93 3996.92 L 5361.16 4026.79 M 3141.08 4141.09 L 3028.05 4404.18 M 5263.93 3996.92 L 5502.37 4691.85 M 3141.08 4141.09 L 2826.32 4072.35 M 2826.32 4072.35 L 3028.05 4404.18 M 5263.93 3996.92 L 5649.47 5437.33 M 3141.08 4141.09 L 3180.41 3991.03 M 3180.41 3991.03 L 2826.32 4072.35 M 2556.36 4131.6 L 3028.05 4404.18 M 2826.32 4072.35 L 2556.36 4131.6 M 5027.45 4758.92 L 5649.47 5437.33 M 3141.08 4141.09 L 3764.78 4172.5 M 3180.41 3991.03 L 2781.28 3976.58 M 3106.4 4667.16 L 3028.05 4404.18 M 2556.36 4131.6 L 3106.4 4667.16 M 2784.6 3975.09 L 2556.36 4131.6 M 5135.14 5326.63 L 5649.47 5437.33 M 3371.5 4385.5 L 3764.78 4172.5 M 3180.41 3991.03 L 3016.4 3861.34 M 3016.4 3861.34 L 2781.28 3976.58 M 3106.4 4667.16 L 3274.68 4459.54 M 2681.44 3745.3 L 2556.36 4131.6 M 5135.14 5326.63 L 5145.34 5350 M 5145.34 5350 L 5649.47 5437.33 M 3371.5 4385.5 L 3891.92 4477.56 M 3180.41 3991.03 L 3249.13 3687.44 M 3249.13 3687.44 L 3016.4 3861.34 M 3106.4 4667.16 L 3332.31 4539.19 M 3114.41 3570.55 L 3016.4 3861.34 M 3016.4 3861.34 L 2859.28 3921.01 M 3114.41 3570.55 L 2945.8 3728.93 M 3016.4 3861.34 L 2525.32 3442.48 M 2525.32 3442.48 L 2859.28 3921.01 M 3114.41 3570.55 L 2914.68 3643.31 M 3016.4 3861.34 L 2581.4 3472.93 M 2121.5 3094.03 L 2859.28 3921.01 M 2525.32 3442.48 L 2121.5 3094.03 M 2121.5 3094.03 L 1962.22 3277.44 M 1962.22 3277.44 L 2859.28 3921.01 M 2581.09 3473.49 L 2121.5 3094.03 M 2121.5 3094.03 L 1782.26 3123.02 M 2199.22 3479.21 L 2859.28 3921.01 M 1962.22 3277.44 L 2199.22 3479.21 M 2581.09 3473.49 L 2279.72 2909.27 M 1933.25 2939.99 L 1782.26 3123.02 M 2199.22 3479.21 L 2780.24 3975.09 M 1808.16 3457.72 L 2199.22 3479.21 M 3098.26 3743.48 L 2279.72 2909.27 M 1933.25 2939.99 L 1584.82 2686.59 M 1808.16 3457.72 L 2620.03 4163.33 M 5135.14 5326.63 L 5131 5344.6 M 1990.64 3900.61 L 2620.03 4163.33 M 4405.33 7337.28 L 5649.47 5437.33 M 1990.64 3900.61 L 2518.45 4410.32 M 2518.45 4410.32 L 2620.03 4163.33 M 1990.64 3900.61 L 2456.39 4477 M 2721.59 4592 L 2620.03 4163.33 M 5145.34 5350 L 4405.33 7337.28 M 2721.59 4592 L 2943.44 4114.33 M 4118.45 6936.21 L 4405.33 7337.28 M 3180.41 3991.03 L 3676.89 3470.34 M 4411 7358.37 L 4405.33 7337.28 M 4118.45 6936.21 L 4411 7358.37 M 3791.88 3968.27 L 3676.89 3470.34 M 4411 7358.37 L 5655.82 5441.3 M 4118.45 6936.21 L 4059.17 7415.59 M 3784.82 3598.41 L 3676.89 3470.34 M 5664.08 5444.74 L 5655.82 5441.3 M 3815.43 7012.4 L 4059.17 7415.59 M 4284.28 3480.51 L 3676.89 3470.34 M 2972.23 7340.2 L 4059.17 7415.59 M 3815.43 7012.4 L 2972.23 7340.2 M 4284.28 3480.51 L 4002.65 3153.23 M 4002.65 3153.23 L 3676.89 3470.34 M 3837.43 7490.64 L 4059.17 7415.59 M 3162.63 7131.17 L 2972.23 7340.2 M 4284.28 3480.51 L 4454.71 3103.5 M 3256.54 3286.08 L 3676.89 3470.34 M 3162.63 7131.17 L 2675.2 7237.56 M 4702.27 3374.63 L 4454.71 3103.5 M 3248.15 3458.48 L 3676.89 3470.34 M 3162.63 7131.17 L 2232.71 7176.54 M 4824.59 3196.36 L 4454.71 3103.5 M 4079.29 6771.28 L 2232.71 7176.54 M 3162.63 7131.17 L 4079.29 6771.28 M 4636.17 3036.68 L 4454.71 3103.5 M 1535.62 6412.39 L 2232.71 7176.54 M 4079.29 6771.28 L 1535.62 6412.39 M 3603.68 7034.25 L 4079.29 6771.28 M 3162.63 7131.17 L 3603.68 7034.25 M 1781.84 6907.4 L 2232.71 7176.54 M 4079.29 6771.28 L 958.593 5779.98 M 3603.68 7034.25 L 4111.33 6921.98 M 4111.33 6921.98 L 4079.29 6771.28 M 2114.79 7281.99 L 2232.71 7176.54 M 2514.62 3762.34 L 958.593 5779.98 M 3815.39 7012.16 L 4111.33 6921.98 M 4111.33 6921.98 L 5930.83 6389.38 M 2114.79 7281.99 L 2394.24 7592.99 M 1237.75 4913.26 L 958.593 5779.98 M 4118.44 6936.08 L 4111.33 6921.98 M 4111.33 6921.98 L 5961 6540.67 M 1228.84 4916.18 L 958.593 5779.98 M 3676.89 3470.34 L 3249.13 3687.44 M 1228.84 4916.18 L 812.249 5731.93 M 812.249 5731.93 L 958.593 5779.98 M 3651.23 2968.17 L 3249.13 3687.44 M 1389.38 3933.76 L 812.249 5731.93 M 1228.84 4916.18 L 1389.38 3933.76 M 682.086 6150.61 L 958.593 5779.98 M 3651.23 2968.17 L 3182.39 3622.22 M 3182.39 3622.22 L 3249.13 3687.44 M 795.486 5729.85 L 812.249 5731.93 M 1389.38 3933.76 L 795.486 5729.85 M 1228.84 4916.18 L 1536.38 3979.9 M 682.086 6150.61 L 683.813 6590.78 M 3651.23 2968.17 L 2970.76 3408.56 M 3182.39 3622.22 L 3099.18 3784.02 M 1372.89 3922.43 L 795.486 5729.85 M 1237.76 4913.27 L 1536.38 3979.9 M 682.086 6150.61 L 372.583 7047.73 M 3434.89 2867.02 L 2970.76 3408.56 M 3182.39 3622.22 L 2844.13 3938.84 M 992.257 3618.9 L 795.486 5729.85 M 828.449 5907.83 L 812.249 5731.93 M 478.948 6672.05 L 372.583 7047.73 M 3434.89 2867.02 L 3220.46 2919.34 M 3220.46 2919.34 L 2970.76 3408.56 M 2970.49 3408.83 L 2844.13 3938.84 M 617.853 5738.08 L 795.486 5729.85 M 992.257 3618.9 L 617.853 5738.08 M 3220.46 2919.34 L 2862.6 3016.3 M 2970.49 3408.83 L 2710.12 3313.14 M 992.257 3618.9 L 289.257 5772.25 M 289.257 5772.25 L 617.853 5738.08 M 2938.13 2954.63 L 2862.6 3016.3 M 2970.49 3408.83 L 3047.79 3298.91 M 988.183 3593.83 L 289.257 5772.25 M 992.257 3618.9 L 988.183 3593.83 M 289.257 5772.25 L 876.781 5889.29 M 3214.67 3734.34 L 3047.79 3298.91 M 277.021 5769.53 L 289.257 5772.25 M 988.183 3593.83 L 277.021 5769.53 M 992.257 3618.9 L 1088.57 3673.96 M 676.765 6494.88 L 876.781 5889.29 M 976.316 3591.78 L 277.021 5769.53 M 3199.14 3263.1 L 3047.79 3298.91 M 1251.86 6620.19 L 876.781 5889.29 M 676.765 6494.88 L 1251.86 6620.19 M 0 5682.32 L 277.021 5769.53 M 3199.14 3263.1 L 3075.32 3239.41 M 3075.32 3239.41 L 3047.79 3298.91 M 676.765 6494.88 L 1155.38 7151.56 M 1155.38 7151.56 L 1251.86 6620.19 M 3624.76 2848.97 L 3075.32 3239.41 M 2941.56 3166.17 L 3047.79 3298.91 M 880.725 6944.46 L 1155.38 7151.56 M 1332.64 7805.42 L 1251.86 6620.19 M 4132.13 2354.9 L 3075.32 3239.41 M 880.725 6944.46 L 1332.92 7805.34 M 1332.64 7805.42 L 1673.23 7405.54 M 4132.13 2354.9 L 3036.55 3091.92 M 915.716 7632.46 L 1332.92 7805.34 M 1332.64 7805.42 L 2275.34 7772.28 M 3700.18 2450.66 L 3036.55 3091.92 M 4132.13 2354.9 L 3700.18 2450.66 M 1066.58 7943.61 L 1332.92 7805.34 M 1951.15 8017.3 L 2275.34 7772.28 M 3764.77 2260.46 L 3036.55 3091.92 M 4225.91 2272.65 L 3700.18 2450.66 M 1066.58 7943.61 L 1625.83 8389.85 M 1951.15 8017.3 L 2945.08 8340.31 M 3333.53 2678.47 L 3036.55 3091.92 M 4225.91 2272.65 L 3693.72 2068.35 M 3693.72 2068.35 L 3700.18 2450.66 M 1066.58 7943.61 L 1893.4 9516.67 M 2927.87 8639.66 L 2945.08 8340.31 M 2903.69 2852.61 L 3036.55 3091.92 M 4225.91 2272.65 L 4180.75 1830.83 M 4180.75 1830.83 L 3693.72 2068.35 M 3693.72 2068.35 L 3173.17 2354.42 M 3173.17 2354.42 L 3700.18 2450.66 M 2927.87 8639.66 L 3507.1 8515.11 M 2903.69 2852.61 L 2894.28 3215.95 M 4549.77 2097.75 L 4180.75 1830.83 M 4180.75 1830.83 L 3883.13 1643.24 M 3633.8 2461.27 L 3700.18 2450.66 M 3173.17 2354.42 L 3633.8 2461.27 M 3426.32 8766.25 L 3507.1 8515.11 M 2927.87 8639.66 L 3426.32 8766.25 M 2903.69 2852.61 L 2731.12 2840.64 M 4822.64 1947.28 L 4180.75 1830.83 M 4415.59 1430.98 L 3883.13 1643.24 M 3633.8 2461.27 L 3853.82 2580.03 M 3173.17 2354.42 L 3514.5 2835.44 M 3426.32 8766.25 L 5685.72 9212.13 M 3399.27 8794.59 L 3426.32 8766.25 M 3239.65 2518.53 L 2731.12 2840.64 M 4822.64 1947.28 L 4401.88 1423.23 M 4415.59 1430.98 L 3931.08 1041.42 M 3633.8 2461.27 L 4079.87 2769.34 M 2969.72 2639.83 L 3514.5 2835.44 M 3399.27 8794.59 L 3415.72 8799.12 M 2332.92 2089.1 L 2731.12 2840.64 M 4822.64 1947.28 L 4772.03 1292.62 M 4772.03 1292.62 L 4401.88 1423.23 M 4358.02 1128.72 L 3931.08 1041.42 M 3514.09 2835.31 L 4079.87 2769.34 M 2969.72 2639.83 L 3298.19 3408.24 M 3554.46 9704.58 L 3415.72 8799.12 M 5080.75 1616.58 L 4772.03 1292.62 M 4772.03 1292.62 L 4379.22 1116.37 M 3415.72 8799.12 L 3426.32 8766.25 M 3514.09 2835.31 L 4201.29 2871.34 M 3007.45 3770.76 L 3298.19 3408.24 M 3554.46 9704.58 L 3789.8 11058.6 M 5022.43 1207.42 L 4772.03 1292.62 M 5080.75 1616.58 L 5022.43 1207.42 M 4772.03 1292.62 L 4505.33 798.283 M 3415.72 8799.12 L 5577.23 9526.14 M 3514.09 2835.31 L 4093.01 3193.07 M 3007.45 3770.76 L 3576.02 3792.54 M 3778.55 11064.9 L 3789.8 11058.6 M 5582.78 9539.96 L 5577.23 9526.14 M 3514.09 2835.31 L 3941.22 3694.18 M 3007.45 3770.76 L 3439.99 4040.13 M 3439.99 4040.13 L 3576.02 3792.54 M 5135.78 1327.82 L 5022.43 1207.42 M 4772.03 1292.62 L 4846.08 858.941 M 3693.72 2068.35 L 3114.32 2008.9 M 3196.41 4313.48 L 3439.99 4040.13 M 5135.78 1327.82 L 5375.37 1422.66 M 3757.54 1607.35 L 3114.32 2008.9 M 3196.41 4313.48 L 3715.2 4206.24 M 4773.52 1343.07 L 5375.37 1422.66 M 5135.78 1327.82 L 4773.52 1343.07 M 3596.75 4502.5 L 3715.2 4206.24 M 3196.41 4313.48 L 3596.75 4502.5 M 4965.27 1298.63 L 4773.52 1343.07 M 253.615 6302.47 L 289.257 5772.25 M 253.615 6302.47 L 266.67 6591.91 M 7598.95 3628.5 L 7078.39 3400.16 M 7078.39 3400.16 L 6750.9 3429.04 M 7598.95 3628.5 L 7366.21 3296.86 M 7366.21 3296.86 L 7078.39 3400.16 M 6757.16 2999.83 L 6750.9 3429.04 M 7636.83 3060.39 L 7366.21 3296.86 M 12555.8 1627.19 L 12340.1 1372.64 M 5871.14 1698.82 L 5377.6 1734.28 M 5679.69 2772.95 L 5628.03 3004.84 M 5871.14 1698.82 L 5517.63 1526.66 M 5679.69 2772.95 L 5287.63 3242.61 M 5871.14 1698.82 L 6069.94 1233.8 M 6069.94 1233.8 L 5517.63 1526.66 M 6246.08 2544.89 L 6364.56 2234.87 M 6069.94 1233.8 L 5553.72 1165.49 M 6453.29 2125.94 L 6364.56 2234.87 M 6246.08 2544.89 L 6453.29 2125.94 M 6069.94 1233.8 L 5727.92 1004 M 6069.94 1233.8 L 5911.9 885.341 M 10247.5 4402.99 L 10556.5 4765.88 M 6069.94 1233.8 L 6105.54 638.723 M 10127.8 4574.31 L 10556.5 4765.88 M 6069.94 1233.8 L 6412.56 662.876 M 10127.8 4574.31 L 10236.1 5088.62 M 6368.76 1184.11 L 6412.56 662.876 M 10047.6 4660.31 L 10236.1 5088.62 M 6368.76 1184.11 L 6774.16 545.662 M 9783.12 4945.98 L 10236.1 5088.62 M 6804.19 1307.24 L 6774.16 545.662 M 5680.86 2737.3 L 5645.17 3077.51 M 7183.67 1252.59 L 6774.16 545.662 M 5680.86 2737.3 L 5445.67 3210.52 M 7183.67 1252.59 L 7044.09 306.35 M 5680.86 2737.3 L 5288.23 2915.62 M 7183.67 1252.59 L 7455.8 914.166 M 5680.86 2737.3 L 5143.33 2727.39 M 12444.2 2888.03 L 12139.2 2822.2 M 11967.4 2623.67 L 11792 2767.42 M 12515.7 2567.2 L 12139.2 2822.2 M 7074.04 2722.04 L 6246.08 2544.89 M 12515.7 2567.2 L 12081.6 2497.96 M 7022.37 2574.63 L 6246.08 2544.89 M 12515.7 2567.2 L 12229.9 2193.21 M 12541.4 2234.69 L 12229.9 2193.21 M 7662.49 3044.61 L 7973.41 3015.46 M 12541.4 2234.69 L 12284.3 1958.52 M 7662.49 3044.61 L 7826.19 3300.46 M 7826.19 3300.46 L 7973.41 3015.46 M 7421.47 3296.12 L 7826.19 3300.46 M 7826.19 3300.46 L 8484.93 3125.68 M 7410.95 3491.8 L 7826.19 3300.46 M 8450.71 3497.23 L 8484.93 3125.68 M 7410.95 3491.8 L 7710.45 3944.93 M 8450.71 3497.23 L 8733.69 3307.23 M 7410.95 3491.8 L 7392.37 3769.24 M 8745.02 3710.36 L 8733.69 3307.23 M 7113.26 3554.35 L 7392.37 3769.24 M 8745.02 3710.36 L 9029.35 3411.67 M 8745.02 3710.36 L 9207.9 3538.34 M 8925.76 4203.71 L 9207.9 3538.34 M 9320.68 1914.87 L 9486.71 1724.63 M 8925.76 4203.71 L 9365.6 3833.1 M 9320.68 1914.87 L 9674.29 2039.07 M 9026.18 4156.2 L 9365.6 3833.1 M 9707.61 2289.27 L 9674.29 2039.07 M 9026.18 4156.2 L 9555.08 3686.16 M 6730.83 2042.88 L 6826.15 2351.97 M 7599.91 2401.9 L 7209.19 2574.98 M 6268.24 2440.06 L 6826.15 2351.97 M 6730.83 2042.88 L 6268.24 2440.06 M 7351.68 2368.8 L 7209.19 2574.98 M 6268.24 2440.06 L 6592.96 2662.89 M 6256.71 2103.47 L 6268.24 2440.06 M 7211.59 2051.31 L 7224.51 1747.51 M 7580.64 1800.52 L 7224.51 1747.51 M 9275.21 2834.27 L 9654.64 2074.14 M 9635.16 2755.75 L 9654.64 2074.14 M 6858.61 4693.3 L 7243.92 4634.79 M 6745.48 1783.63 L 6711.03 1801.24 M 6898.69 4981.29 L 7243.92 4634.79 M 6898.69 4981.29 L 7648.73 4850.84 M 6747.27 3077.99 L 7368.6 3263.67 M 9486.71 1724.63 L 9865.02 1722.63 M 6747.27 3077.99 L 7110.08 3423.98 M 9671.86 2040.51 L 9865.02 1722.63 M 6871.41 3431.08 L 7110.08 3423.98 M 7853.13 3344.51 L 7808.89 4132.55 M 7765.5 3595.81 L 7808.89 4132.55 M 7598.8 3624.2 L 7808.89 4132.55 M 7598.8 3624.2 L 7443.16 4105.54 M 7443.16 4105.54 L 7808.89 4132.55 M 7314.42 2301.4 L 7506.47 2432.36 M 7443.16 4105.54 L 7664.71 4227.43 M 7321.09 2530.61 L 7506.47 2432.36 M 7443.16 4105.54 L 7451.73 4371.05 M 7321.09 2530.61 L 7539.32 2642.1 M 9194 2594.43 L 9208.42 2577.28 M 5641.83 3439.75 L 5268.89 3449.55 M 9194 2594.43 L 9363.63 2540.22 M 5641.83 3439.75 L 5075.04 2788.5 M 9194 2594.43 L 9402.73 2555.7 M 5161.75 2877.9 L 5075.04 2788.5 M 5161.75 2877.9 L 4855.85 2521.05 M 7719.1 2392.87 L 8106.46 2458.61 M 8631.39 4123.73 L 8809.83 3769.58 M 7466.72 2646 L 8106.46 2458.61 M 8895.08 4245.71 L 8809.83 3769.58 M 8066.64 2807.75 L 8106.46 2458.61 M 7466.72 2646 L 8066.64 2807.75 M 8906.99 4247.48 L 8809.83 3769.58 M 8137.67 3038.56 L 8066.64 2807.75 M 8906.99 4247.48 L 9247.39 2820.93 M 9288.15 3433.6 L 9247.39 2820.93 M 8906.99 4247.48 L 9288.15 3433.6 M 9288.15 3433.6 L 9604.87 2731.81 M 9035.43 4247.85 L 9288.15 3433.6 M 9622.43 3136.18 L 9604.87 2731.81 M 9035.43 4247.85 L 9622.81 3136.61 M 9622.43 3136.18 L 9871.46 2177.05 M 9412.27 4273.31 L 9622.81 3136.61 M 9622.43 3136.18 L 10227.6 2562.92 M 10227.6 2562.92 L 9871.46 2177.05 M 9412.27 4273.31 L 9885.34 3265.62 M 9885.08 3264.95 L 10227.6 2562.92 M 10227.6 2562.92 L 10646.8 1976.27 M 9432.03 4276.45 L 9885.34 3265.62 M 9949.77 3167.78 L 10227.6 2562.92 M 10756.3 2350.55 L 10646.8 1976.27 M 10227.6 2562.92 L 10756.3 2350.55 M 9432.03 4276.45 L 9950.07 3168.47 M 10756.3 2350.55 L 11435.1 2098.96 M 10227.6 2562.92 L 11155.8 2221.23 M 9997.4 3430 L 9950.07 3168.47 M 9432.03 4276.45 L 9997.4 3430 M 11155.9 2221.38 L 11435.1 2098.96 M 9997.4 3430 L 10371.2 2629.62 M 11155.9 2221.38 L 11981 1909.34 M 13337.9 4015.5 L 10371.2 2629.62 M 5871.09 6424.34 L 5777.92 6221.12" />
</svg>
