<?xml version="1.0"?>
<svg width="575" height="635" version="1.1" xmlns="http://www.w3.org/2000/svg" >
<defs>
<style type="text/css"><![CDATA[
.m {stroke:rgb(255,0,0);stroke-width:0.793750;}
.v {stroke:rgb(0,0,255);stroke-width:0.793750;}
.b {stroke:rgb(0,0,0);stroke-width:1.587500;fill:white}
.n {stroke:rgb(128,128,128);stroke-width:0.793750}
.t {stroke:rgb(0,128,0);stroke-width:0.793750;}
.c {stroke:rgb(128,128,128);stroke-width:0.793750;stroke-dasharray:5.750000, 5.750000;}
]]></style>
</defs>
<path fill="none" style="stroke:black;stroke-width:1.587500;" d=" M 371.097 193.618 L 353.254 196.044 M 357.446 219.635 L 374.779 214.71 M 319.085 207.422 L 339.576 221.9 M 339.576 221.9 L 317.275 210.404 M 300.838 217.774 L 321.907 225.411 M 321.907 225.411 L 302.318 214.524 M 284.413 216.515 L 304.017 227.561 M 395.866 205.928 L 393.392 221.735 M 411.399 222.209 L 395.866 205.928 M 389.083 192.58 L 371.097 193.618 M 391.642 208.374 L 389.083 192.58 M 374.779 214.71 L 391.642 208.374 M 353.254 196.044 L 369.543 188.367 M 312.851 188.745 L 335.963 201.096 M 335.963 201.096 L 311.276 192.305 M 296.34 202.393 L 319.085 207.422 M 317.275 210.404 L 294.633 204.93 M 278.175 212.263 L 300.838 217.774 M 284.547 199.42 L 284.413 216.515 M 302.318 214.524 L 284.547 199.42 M 385.166 179.395 L 379.661 163.211 M 369.543 188.367 L 385.166 179.395 M 362.048 166.963 L 357.625 143.262 M 339.741 145.413 L 344.771 172.07 M 344.771 172.07 L 331.721 148.288 M 302.799 169.706 L 328.478 179.772 M 328.478 179.772 L 301.513 173.976 M 288.545 186.481 L 312.851 188.745 M 311.276 192.305 L 286.986 189.875 M 272.135 200.074 L 296.34 202.393 M 272.536 194.781 L 278.175 212.263 M 294.633 204.93 L 272.536 194.781 M 379.661 163.211 L 379.279 144.847 M 361.376 142.863 L 362.048 166.963 M 357.625 143.262 L 357.213 117.514 M 339.235 116.382 L 339.741 145.413 M 331.721 148.288 L 313.993 125.293 M 288.562 150.765 L 316.806 158.382 M 316.806 158.382 L 287.664 155.832 M 277.031 170.372 L 302.799 169.706 M 301.513 173.976 L 275.753 174.924 M 263.045 187.701 L 288.545 186.481 M 262.474 182.741 L 272.135 200.074 M 286.986 189.875 L 262.474 182.741 M 379.279 144.847 L 385.036 125.856 M 368.738 118.186 L 361.376 142.863 M 357.213 117.514 L 361.88 90.3607 M 344.488 85.657 L 339.235 116.382 M 313.993 125.293 L 291.614 103.595 M 280.023 117.386 L 300.676 137.433 M 300.676 137.433 L 276.55 121.738 M 261.363 154.391 L 288.562 150.765 M 287.664 155.832 L 260.619 160.466 M 250.528 175.381 L 277.031 170.372 M 275.753 174.924 L 249.021 171.332 M 233.684 180.801 L 263.045 187.701 M 385.036 125.856 L 384.656 95.6979 M 384.656 95.6979 L 368.738 118.186 M 361.88 90.3607 L 372.735 62.9153 M 356.782 54.5352 L 344.488 85.657 M 291.614 103.595 L 264.809 83.5648 M 254.898 98.6051 L 280.023 117.386 M 276.55 121.738 L 246.058 114.371 M 242.647 150.233 L 269.48 138.307 M 269.48 138.307 L 241.367 146.785 M 234.123 163.276 L 261.363 154.391 M 260.619 160.466 L 231.971 160.982 M 218.782 173.247 L 250.528 175.381 M 249.021 171.332 L 222.745 153.389 M 222.745 153.389 L 233.684 180.801 M 372.735 62.9153 L 390.591 36.966 M 377.053 25.0691 L 356.782 54.5352 M 264.809 83.5648 L 234.023 65.3601 M 225.58 81.2646 L 254.898 98.6051 M 246.058 114.371 L 212.168 117.8 M 220.851 152.757 L 244.848 132.354 M 244.848 132.354 L 218.824 150.1 M 217.933 168.095 L 242.647 150.233 M 241.367 146.785 L 211.296 151.844 M 200.717 166.427 L 234.123 163.276 M 231.971 160.982 L 201.513 146.903 M 201.513 146.903 L 218.782 173.247 M 162.993 153.64 L 200.717 166.427 M 405.427 0 L 377.053 25.0691 M 390.591 36.966 L 405.427 0 M 234.023 65.3601 L 199.938 48.8747 M 199.938 48.8747 L 192.627 65.3431 M 192.627 65.3431 L 225.58 81.2646 M 212.168 117.8 L 178.915 133.084 M 178.915 133.084 L 188.965 148.043 M 188.965 148.043 L 216.901 135.183 M 216.901 135.183 L 187.99 145.668 M 201.802 178.81 L 220.851 152.757 M 218.824 150.1 L 190.577 165.709 M 186.161 183.175 L 217.933 168.095 M 211.296 151.844 L 177.33 142.723 M 145.071 184.946 L 186.161 183.175 M 143.5 119.335 L 162.993 153.64 M 177.33 142.723 L 143.5 119.335 M 170.187 114.427 L 137.841 137.022 M 137.841 137.022 L 148.438 151.59 M 180.142 129.446 L 170.187 114.427 M 148.438 151.59 L 160.917 164.587 M 187.99 145.668 L 180.142 129.446 M 183.173 192.788 L 196.234 161.68 M 196.234 161.68 L 174.077 187.123 M 176.504 204.977 L 201.802 178.81 M 190.577 165.709 L 154.379 169.519 M 141.43 204.419 L 138.551 222.205 M 138.551 222.205 L 176.504 204.977 M 113.915 159.528 L 145.071 184.946 M 154.379 169.519 L 113.915 159.528 M 134.973 139.713 L 109.579 170.89 M 109.579 170.89 L 123.602 182.2 M 148.828 151.227 L 134.973 139.713 M 123.602 182.2 L 139.109 191.374 M 160.917 164.587 L 148.828 151.227 M 154.568 200.627 L 168.482 212.072 M 168.482 212.072 L 173.141 177.817 M 173.141 177.817 L 158.363 209.07 M 158.363 209.07 L 165.888 225.44 M 165.888 225.44 L 183.173 192.788 M 174.077 187.123 L 141.43 204.419 M 0 279.334 L 33.9291 285.817 M 39.9775 268.847 L 0.736458 261.332 M 0.736458 261.332 L 0 279.334 M 87.8409 180.749 L 87.98 220.703 M 105.997 220.817 L 87.8409 180.749 M 122.374 182.287 L 105.49 176.004 M 105.49 176.004 L 108.17 219.912 M 125.756 223.812 L 122.374 182.287 M 139.109 191.374 L 123.599 182.205 M 123.599 182.205 L 125.756 223.812 M 143.266 228.059 L 159.99 234.763 M 171.191 207.573 L 154.568 200.627 M 159.99 234.763 L 175.491 243.935 M 188.657 211.999 L 171.191 207.573 M 175.491 243.935 L 188.657 211.999 M 33.9291 285.817 L 62.978 301.533 M 73.9717 287.253 L 39.9775 268.847 M 71.3968 232.776 L 85.6303 268.718 M 102.533 262.505 L 71.3968 232.776 M 87.98 220.703 L 104.982 260.253 M 122.89 258.289 L 105.997 220.817 M 108.17 219.912 L 122.89 258.289 M 140.848 256.911 L 158.834 257.988 M 161.188 229.914 L 143.266 228.059 M 158.834 257.988 L 176.416 261.914 M 179.176 229.002 L 161.188 229.914 M 176.416 261.914 L 179.176 229.002 M 391.221 635.665 L 417.493 619.678 M 410.808 602.943 L 391.221 635.665 M 62.978 301.533 L 99.0489 313.915 M 112.632 302.077 L 73.9717 287.253 M 85.6303 268.718 L 114.449 298.448 M 130.684 290.663 L 102.533 262.505 M 104.982 260.253 L 130.684 290.663 M 147.269 283.614 L 164.606 278.744 M 158.498 253.285 L 140.848 256.911 M 164.606 278.744 L 182.518 276.824 M 175.35 246.917 L 158.498 253.285 M 182.518 276.824 L 175.35 246.917 M 347.848 514.809 L 373.51 503.411 M 369.077 485.944 L 347.848 514.809 M 417.493 619.678 L 444.075 595.652 M 441.089 577.887 L 410.808 602.943 M 99.0489 313.915 L 134.872 330.082 M 147.544 317.282 L 112.632 302.077 M 114.449 298.448 L 147.544 317.282 M 160.909 305.194 L 175.619 294.795 M 162.889 274.654 L 147.269 283.614 M 175.619 294.795 L 191.879 287.026 M 176.871 263.294 L 162.889 274.654 M 191.879 287.026 L 176.871 263.294 M 407.083 531.694 L 425.226 513.998 M 414.971 499.181 L 407.083 531.694 M 373.51 503.411 L 400.351 483.438 M 399.937 465.424 L 369.077 485.944 M 444.075 595.652 L 474.355 574.286 M 470.415 556.707 L 441.089 577.887 M 134.872 330.082 L 170.61 335.693 M 179.234 319.885 L 189.558 305.116 M 172.869 291.724 L 160.909 305.194 M 189.558 305.116 L 202.246 292.333 M 182.475 276.476 L 172.869 291.724 M 202.246 292.333 L 182.475 276.476 M 449.71 523.803 L 462.965 505.276 M 450.185 492.579 L 449.71 523.803 M 425.226 513.998 L 441.091 487.101 M 434.559 470.307 L 414.971 499.181 M 400.351 483.438 L 431.074 466.904 M 430.003 448.92 L 399.937 465.424 M 474.355 574.286 L 496.625 548.202 M 488.125 532.319 L 470.415 556.707 M 170.61 335.693 L 199.523 327.182 M 199.523 327.182 L 204.259 309.802 M 186.224 303.276 L 179.234 319.885 M 204.259 309.802 L 211.86 293.47 M 190.423 285.762 L 186.224 303.276 M 211.86 293.47 L 190.423 285.762 M 467.981 506.394 L 482.511 491.876 M 471.817 477.38 L 467.981 506.394 M 462.965 505.276 L 471.817 477.38 M 462.396 462.022 L 450.185 492.579 M 441.091 487.101 L 462.396 462.022 M 455.502 445.383 L 434.559 470.307 M 431.074 466.904 L 455.502 445.383 M 449.859 428.277 L 430.003 448.92 M 496.625 548.202 L 504.107 520.554 M 478.191 517.291 L 488.125 532.319 M 465.972 504.056 L 478.191 517.291 M 482.511 491.876 L 465.972 504.056 M 499.27 483.773 L 493.694 466.646 M 493.694 466.646 L 486.719 450.024 M 456.877 405.006 L 449.859 428.277 M 504.107 520.554 L 503.336 496.261 M 491.453 482.706 L 492.1 507.121 M 492.1 507.121 L 499.27 483.773 M 511.328 476.312 L 525.368 466.701 M 498.507 463.662 L 511.328 476.312 M 517.038 450.732 L 507.535 435.421 M 486.719 450.024 L 498.507 463.662 M 482.914 409.153 L 477.156 434.758 M 477.156 434.758 L 478.852 408.569 M 465.021 397.03 L 466.396 420.299 M 466.396 420.299 L 468.76 397.11 M 459.234 381.818 L 456.877 405.006 M 503.336 496.261 L 505.463 473.05 M 505.463 473.05 L 491.453 482.706 M 525.368 466.701 L 540.448 462.305 M 537.236 444.586 L 517.038 450.732 M 521.201 447.167 L 536.661 432.79 M 536.661 432.79 L 525.02 419.043 M 507.535 435.421 L 521.201 447.167 M 525.02 419.043 L 511.435 407.207 M 496.918 396.532 L 495.764 421.795 M 495.764 421.795 L 492.906 396.668 M 477.511 387.331 L 482.914 409.153 M 478.852 408.569 L 473.272 386.791 M 459.365 375.334 L 465.021 397.03 M 468.76 397.11 L 473.473 375.19 M 473.473 375.19 L 459.234 381.818 M 540.448 462.305 L 555.073 462.644 M 557.112 444.74 L 537.236 444.586 M 543.216 423.982 L 553.277 406.839 M 553.277 406.839 L 538.11 397.12 M 526.718 416.752 L 543.216 423.982 M 538.11 397.12 L 521.686 389.714 M 511.435 407.207 L 526.718 416.752 M 488.163 376.548 L 496.918 396.532 M 492.906 396.668 L 483.77 376.856 M 468.272 367.661 L 477.511 387.331 M 473.272 386.791 L 470.015 365.305 M 470.015 365.305 L 459.365 375.334 M 463.532 344.606 L 468.272 367.661 M 575.136 450.337 L 557.112 444.74 M 555.073 462.644 L 575.136 450.337 M 556.937 396.711 L 561.513 378.401 M 561.513 378.401 L 544.192 373.454 M 539.064 394.468 L 556.937 396.711 M 544.192 373.454 L 526.341 371.016 M 521.686 389.714 L 539.064 394.468 M 490.467 367.854 L 504.703 383.686 M 504.703 383.686 L 492.706 366.097 M 476.098 359.114 L 488.163 376.548 M 483.77 376.856 L 476.768 356.843 M 467.913 337.567 L 476.098 359.114 M 478.053 333.83 L 463.532 344.606 M 476.768 356.843 L 478.053 333.83 M 562.155 367.975 L 561.511 349.905 M 561.511 349.905 L 543.502 350.035 M 544.356 370.744 L 562.155 367.975 M 543.502 350.035 L 525.68 352.683 M 526.341 371.016 L 544.356 370.744 M 490.329 359.501 L 508.35 370.019 M 508.35 370.019 L 491.867 357.225 M 473.974 355.16 L 490.467 367.854 M 492.706 366.097 L 482.722 347.836 M 459.948 337.282 L 473.974 355.16 M 480.307 325.241 L 467.913 337.567 M 482.722 347.836 L 480.307 325.241 M 559.351 340.102 L 553.977 323.468 M 553.977 323.468 L 536.701 328.583 M 542.945 347.529 L 559.351 340.102 M 536.701 328.583 L 520.289 336.023 M 525.68 352.683 L 542.945 347.529 M 488.067 352.102 L 508.121 356.67 M 508.121 356.67 L 488.854 349.472 M 471.059 352.307 L 490.329 359.501 M 491.867 357.225 L 477.041 342.967 M 452.712 339.195 L 471.059 352.307 M 468.064 322.28 L 459.948 337.282 M 477.041 342.967 L 468.064 322.28 M 549.444 314.978 L 539.959 300.801 M 539.959 300.801 L 524.767 310.471 M 535.57 326.474 L 549.444 314.978 M 524.767 310.471 L 511.004 322.096 M 520.289 336.023 L 535.57 326.474 M 511.004 322.096 L 498.014 334.576 M 484.164 346.1 L 504.449 344.603 M 504.449 344.603 L 484.153 343.266 M 467.688 350.58 L 488.067 352.102 M 488.854 349.472 L 470.704 340.082 M 464.177 339.055 L 446.559 342.79 M 446.559 342.79 L 467.688 350.58 M 456.286 322.783 L 452.712 339.195 M 470.704 340.082 L 456.286 322.783 M 539.293 299.96 L 528.278 287.28 M 528.278 287.28 L 514.426 298.796 M 526.796 312.926 L 539.293 299.96 M 514.426 298.796 L 502.214 312.038 M 512.7 324.145 L 526.796 312.926 M 502.214 312.038 L 490.761 325.952 M 498.014 334.576 L 512.7 324.145 M 478.264 338.928 L 464.153 350.142 M 464.153 350.142 L 484.164 346.1 M 484.153 343.266 L 464.177 339.055 M 458.758 345.145 L 445.203 357.007 M 445.203 357.007 L 457.458 368.335 M 457.458 368.335 L 467.52 353.4 M 536.43 309.379 L 526.379 296.058 M 511.766 306.607 L 536.43 309.379 M 520.237 314.408 L 534.987 304.066 M 534.987 304.066 L 510.75 298.719 M 496.414 309.637 L 520.237 314.408 M 504.759 317.825 L 519.702 307.765 M 519.702 307.765 L 495.501 305.623 M 483.016 318.618 L 504.759 317.825 M 490.761 325.952 L 504.288 314.045 M 504.288 314.045 L 483.016 318.618 M 471.754 332.674 L 458.758 345.145 M 467.52 353.4 L 478.264 338.928 M 452.717 340.584 L 440.235 353.589 M 440.235 353.589 L 453.51 363.729 M 453.51 363.729 L 462.344 348.033 M 527.959 303.924 L 518.157 290.398 M 503.368 300.671 L 527.959 303.924 M 526.379 296.058 L 501.986 291.555 M 488 302.907 L 511.766 306.607 M 510.75 298.719 L 486.698 298.655 M 475.039 312.39 L 496.414 309.637 M 495.501 305.623 L 475.039 312.39 M 464.769 327.194 L 452.717 340.584 M 462.344 348.033 L 471.754 332.674 M 446.021 336.192 L 434.355 349.918 M 434.355 349.918 L 448.358 359.279 M 448.358 359.279 L 456.377 343.135 M 519.669 300.601 L 510.447 286.506 M 495.241 296.164 L 519.669 300.601 M 518.157 290.398 L 493.734 285.931 M 479.79 297.346 L 503.368 300.671 M 501.986 291.555 L 478.212 292.874 M 467.039 306.999 L 488 302.907 M 486.698 298.655 L 467.039 306.999 M 457.416 322.229 L 446.021 336.192 M 456.377 343.135 L 464.769 327.194 M 247.899 385.477 L 255.779 375.268 M 242.849 362.721 L 232.441 376.227 M 232.441 376.227 L 247.899 385.477 M 225.198 350.689 L 242.248 350.87 M 242.506 332.856 L 225.198 350.689 M 510.447 286.506 L 486.116 281.445 M 471.946 292.574 L 495.241 296.164 M 493.734 285.931 L 470.248 287.906 M 459.164 302.112 L 479.79 297.346 M 478.212 292.874 L 459.164 302.112 M 449.763 317.48 L 438.665 331.673 M 449.62 338.478 L 457.416 322.229 M 438.665 331.673 L 449.62 338.478 M 255.779 375.268 L 266.135 366.727 M 256.197 351.692 L 242.849 362.721 M 243.972 352.657 L 261.115 350.221 M 258.392 332.412 L 243.972 352.657 M 242.248 350.87 L 259.556 333.031 M 257.615 315.119 L 242.506 332.856 M 486.116 281.445 L 462.897 283.388 M 451.513 297.367 L 471.946 292.574 M 470.248 287.906 L 451.513 297.367 M 441.887 312.592 L 430.702 326.71 M 442.106 333.789 L 449.763 317.48 M 430.702 326.71 L 442.106 333.789 M 266.135 366.727 L 278.591 360.3 M 271.843 343.592 L 256.197 351.692 M 261.683 351.06 L 278.636 346.263 M 273.234 329.074 L 261.683 351.06 M 261.115 350.221 L 275.009 329.636 M 269.777 312.393 L 258.392 332.412 M 259.556 333.031 L 269.777 312.393 M 263.997 295.329 L 257.615 315.119 M 462.897 283.388 L 444.159 292.402 M 433.891 307.201 L 441.887 312.592 M 359.789 374.558 L 356.261 365.584 M 344.028 383.277 L 359.789 374.558 M 338.862 370.247 L 344.028 383.277 M 291.98 363.991 L 303.278 354.645 M 292.867 339.943 L 291.98 363.991 M 278.591 360.3 L 289.109 338.656 M 283.311 321.601 L 271.843 343.592 M 278.636 346.263 L 289.066 323.761 M 280.995 307.655 L 273.234 329.074 M 275.009 329.636 L 280.995 307.655 M 272.204 291.939 L 263.997 295.329 M 444.159 292.402 L 437.18 286.913 M 425.913 300.971 L 433.891 307.201 M 356.261 365.584 L 355.126 355.525 M 337.104 355.689 L 338.862 370.247 M 316.874 355.223 L 326.194 343.061 M 312.54 331.311 L 316.874 355.223 M 303.278 354.645 L 308.851 330.99 M 298.998 315.909 L 292.867 339.943 M 289.109 338.656 L 298.998 315.909 M 290.315 300.113 L 283.311 321.601 M 289.066 323.761 L 291.18 301.259 M 279.896 287.222 L 272.204 291.939 M 437.18 286.913 L 430.663 280.672 M 418.161 293.636 L 425.913 300.971 M 355.126 355.525 L 356.795 344.985 M 339.341 340.531 L 337.104 355.689 M 329.686 317.905 L 339.341 340.531 M 326.194 343.061 L 326.241 318.461 M 312.848 306.406 L 312.54 331.311 M 308.851 330.99 L 312.848 306.406 M 300.348 293.439 L 290.315 300.113 M 291.18 301.259 L 300.348 293.439 M 287.043 281.29 L 279.896 287.222 M 430.663 280.672 L 424.776 273.488 M 410.919 285.006 L 418.161 293.636 M 352.106 323.463 L 369.495 336.973 M 369.495 336.973 L 369.988 325.717 M 356.795 344.985 L 345.832 325.888 M 340.053 301.609 L 352.106 323.463 M 345.832 325.888 L 340.053 301.609 M 323.972 293.483 L 329.686 317.905 M 326.241 318.461 L 323.972 293.483 M 308.473 284.298 L 293.579 274.17 M 293.579 274.17 L 287.043 281.29 M 424.776 273.488 L 419.661 265.287 M 404.471 274.977 L 410.919 285.006 M 363.267 304.247 L 382.357 315.859 M 382.357 315.859 L 381.281 303.985 M 369.988 325.717 L 357.081 307.477 M 348.52 283.547 L 363.267 304.247 M 357.081 307.477 L 348.52 283.547 M 331.486 277.697 L 314.076 273.049 M 314.076 273.049 L 297.029 267.218 M 297.029 267.218 L 292.374 276.222 M 292.374 276.222 L 308.473 284.298 M 419.661 265.287 L 415.543 256.026 M 399.165 263.545 L 404.471 274.977 M 372.194 282.849 L 392.935 292.139 M 392.935 292.139 L 389.965 279.89 M 381.281 303.985 L 366.199 286.984 M 354.591 263.74 L 372.194 282.849 M 366.199 286.984 L 354.591 263.74 M 336.87 260.441 L 318.972 258.357 M 314.846 270.78 L 331.486 277.697 M 318.972 258.357 L 301.269 255.006 M 301.269 255.006 L 297.739 265.132 M 297.739 265.132 L 314.846 270.78 M 415.543 256.026 L 412.631 245.705 M 395.341 250.76 L 399.165 263.545 M 378.289 259.352 L 400.561 265.879 M 400.561 265.879 L 395.358 253.591 M 389.965 279.89 L 372.592 264.501 M 357.736 242.338 L 378.289 259.352 M 372.592 264.501 L 357.736 242.338 M 339.731 241.774 L 321.727 242.438 M 319.408 255.997 L 336.87 260.441 M 321.727 242.438 L 303.721 241.746 M 303.721 241.746 L 301.651 252.948 M 301.651 252.948 L 319.408 255.997 M 412.631 245.705 L 411.169 234.408 M 393.31 236.757 L 395.341 250.76 M 375.636 240.274 L 397.188 250.365 M 397.188 250.365 L 393.31 236.757 M 395.358 253.591 L 375.636 240.274 M 375.461 220.001 L 357.446 219.635 M 321.798 240.041 L 339.731 241.774 M 303.782 239.76 L 321.798 240.041 M 304.017 227.561 L 303.782 239.76 M 411.169 234.408 L 411.399 222.209 M 393.392 221.735 L 375.461 220.001" />
<path fill="none" class="c" d=" M 374.779 214.71 L 371.097 193.618 M 353.254 196.044 L 374.779 214.71 M 391.642 208.374 L 371.097 193.618 M 353.254 196.044 L 357.446 219.635 M 353.254 196.044 L 335.963 201.096 M 335.963 201.096 L 357.446 219.635 M 353.254 196.044 L 328.478 179.772 M 328.478 179.772 L 335.963 201.096 M 335.963 201.096 L 339.576 221.9 M 344.771 172.07 L 328.478 179.772 M 328.478 179.772 L 312.851 188.745 M 316.806 158.382 L 328.478 179.772 M 344.771 172.07 L 316.806 158.382 M 301.513 173.976 L 312.851 188.745 M 316.806 158.382 L 302.799 169.706 M 331.721 148.288 L 316.806 158.382 M 301.513 173.976 L 288.545 186.481 M 335.963 201.096 L 319.085 207.422 M 339.576 221.9 L 357.446 219.635 M 353.254 196.044 L 344.771 172.07 M 300.676 137.433 L 316.806 158.382 M 357.736 242.338 L 357.446 219.635 M 369.543 188.367 L 344.771 172.07 M 300.676 137.433 L 288.562 150.765 M 357.736 242.338 L 375.636 240.274 M 375.636 240.274 L 357.446 219.635 M 362.048 166.963 L 344.771 172.07 M 375.636 240.274 L 375.461 220.001 M 362.048 166.963 L 339.741 145.413 M 375.636 240.274 L 393.31 236.757 M 393.31 236.757 L 375.461 220.001 M 357.625 143.262 L 339.741 145.413 M 393.31 236.757 L 393.392 221.735 M 357.625 143.262 L 339.235 116.382 M 393.31 236.757 L 411.169 234.408 M 411.169 234.408 L 393.392 221.735 M 357.213 117.514 L 339.235 116.382 M 393.31 236.757 L 412.631 245.705 M 411.399 222.209 L 393.392 221.735 M 269.48 138.307 L 288.562 150.765 M 300.676 137.433 L 269.48 138.307 M 378.289 259.352 L 375.636 240.274 M 395.341 250.76 L 412.631 245.705 M 369.543 188.367 L 362.048 166.963 M 269.48 138.307 L 261.363 154.391 M 276.55 121.738 L 269.48 138.307 M 378.289 259.352 L 395.358 253.591 M 385.166 179.395 L 362.048 166.963 M 275.753 174.924 L 288.545 186.481 M 311.276 192.305 L 319.085 207.422 M 339.576 221.9 L 357.736 242.338 M 275.753 174.924 L 263.045 187.701 M 311.276 192.305 L 296.34 202.393 M 339.731 241.774 L 357.736 242.338 M 339.576 221.9 L 339.731 241.774 M 249.021 171.332 L 263.045 187.701 M 286.986 189.875 L 296.34 202.393 M 354.591 263.74 L 357.736 242.338 M 339.731 241.774 L 354.591 263.74 M 354.591 263.74 L 372.592 264.501 M 339.731 241.774 L 336.87 260.441 M 336.87 260.441 L 354.591 263.74 M 372.194 282.849 L 372.592 264.501 M 321.727 242.438 L 336.87 260.441 M 348.52 283.547 L 354.591 263.74 M 336.87 260.441 L 348.52 283.547 M 372.194 282.849 L 389.965 279.89 M 321.727 242.438 L 319.408 255.997 M 348.52 283.547 L 366.199 286.984 M 331.486 277.697 L 348.52 283.547 M 303.721 241.746 L 319.408 255.997 M 363.267 304.247 L 366.199 286.984 M 340.053 301.609 L 348.52 283.547 M 331.486 277.697 L 340.053 301.609 M 363.267 304.247 L 381.281 303.985 M 340.053 301.609 L 357.081 307.477 M 323.972 293.483 L 340.053 301.609 M 331.486 277.697 L 323.972 293.483 M 352.106 323.463 L 357.081 307.477 M 329.686 317.905 L 340.053 301.609 M 314.076 273.049 L 323.972 293.483 M 352.106 323.463 L 369.988 325.717 M 329.686 317.905 L 345.832 325.888 M 308.473 284.298 L 323.972 293.483 M 314.076 273.049 L 308.473 284.298 M 336.87 260.441 L 331.486 277.697 M 308.473 284.298 L 312.848 306.406 M 321.907 225.411 L 339.731 241.774 M 249.021 171.332 L 233.684 180.801 M 286.986 189.875 L 272.135 200.074 M 339.576 221.9 L 321.907 225.411 M 300.348 293.439 L 312.848 306.406 M 321.907 225.411 L 321.798 240.041 M 244.848 132.354 L 269.48 138.307 M 379.661 163.211 L 362.048 166.963 M 395.341 250.76 L 415.543 256.026 M 276.55 121.738 L 244.848 132.354 M 241.367 146.785 L 261.363 154.391 M 298.998 315.909 L 312.848 306.406 M 304.017 227.561 L 321.798 240.041 M 244.848 132.354 L 242.647 150.233 M 379.661 163.211 L 361.376 142.863 M 399.165 263.545 L 415.543 256.026 M 241.367 146.785 L 234.123 163.276 M 298.998 315.909 L 308.851 330.99 M 246.058 114.371 L 244.848 132.354 M 379.279 144.847 L 361.376 142.863 M 399.165 263.545 L 419.661 265.287 M 216.901 135.183 L 244.848 132.354 M 379.279 144.847 L 368.738 118.186 M 404.471 274.977 L 419.661 265.287 M 216.901 135.183 L 220.851 152.757 M 385.036 125.856 L 368.738 118.186 M 404.471 274.977 L 424.776 273.488 M 196.234 161.68 L 220.851 152.757 M 216.901 135.183 L 196.234 161.68 M 410.919 285.006 L 424.776 273.488 M 196.234 161.68 L 201.802 178.81 M 187.99 145.668 L 196.234 161.68 M 410.919 285.006 L 430.663 280.672 M 174.077 187.123 L 201.802 178.81 M 187.99 145.668 L 173.141 177.817 M 173.141 177.817 L 196.234 161.68 M 418.161 293.636 L 430.663 280.672 M 174.077 187.123 L 176.504 204.977 M 187.99 145.668 L 160.917 164.587 M 160.917 164.587 L 173.141 177.817 M 173.141 177.817 L 183.173 192.788 M 418.161 293.636 L 437.18 286.913 M 141.43 204.419 L 176.504 204.977 M 180.142 129.446 L 160.917 164.587 M 154.568 200.627 L 173.141 177.817 M 180.142 129.446 L 148.438 151.59 M 160.917 164.587 L 154.568 200.627 M 170.187 114.427 L 148.438 151.59 M 139.109 191.374 L 154.568 200.627 M 160.917 164.587 L 139.109 191.374 M 143.266 228.059 L 154.568 200.627 M 139.109 191.374 L 143.266 228.059 M 148.828 151.227 L 139.109 191.374 M 159.99 234.763 L 154.568 200.627 M 139.109 191.374 L 125.756 223.812 M 125.756 223.812 L 143.266 228.059 M 148.828 151.227 L 123.602 182.2 M 159.99 234.763 L 171.191 207.573 M 125.756 223.812 L 140.848 256.911 M 140.848 256.911 L 143.266 228.059 M 134.973 139.713 L 123.602 182.2 M 175.491 243.935 L 171.191 207.573 M 125.756 223.812 L 122.89 258.289 M 122.89 258.289 L 140.848 256.911 M 158.834 257.988 L 143.266 228.059 M 125.756 223.812 L 108.17 219.912 M 147.269 283.614 L 140.848 256.911 M 158.834 257.988 L 161.188 229.914 M 122.374 182.287 L 108.17 219.912 M 164.606 278.744 L 140.848 256.911 M 176.416 261.914 L 161.188 229.914 M 122.89 258.289 L 147.269 283.614 M 164.606 278.744 L 158.498 253.285 M 130.684 290.663 L 147.269 283.614 M 122.89 258.289 L 130.684 290.663 M 182.518 276.824 L 158.498 253.285 M 160.909 305.194 L 147.269 283.614 M 130.684 290.663 L 160.909 305.194 M 122.89 258.289 L 104.982 260.253 M 175.619 294.795 L 147.269 283.614 M 147.544 317.282 L 160.909 305.194 M 130.684 290.663 L 147.544 317.282 M 105.997 220.817 L 104.982 260.253 M 175.619 294.795 L 162.889 274.654 M 147.544 317.282 L 179.234 319.885 M 179.234 319.885 L 160.909 305.194 M 130.684 290.663 L 114.449 298.448 M 105.997 220.817 L 87.98 220.703 M 191.879 287.026 L 162.889 274.654 M 147.544 317.282 L 170.61 335.693 M 170.61 335.693 L 179.234 319.885 M 189.558 305.116 L 160.909 305.194 M 102.533 262.505 L 114.449 298.448 M 147.544 317.282 L 134.872 330.082 M 199.523 327.182 L 179.234 319.885 M 189.558 305.116 L 172.869 291.724 M 112.632 302.077 L 134.872 330.082 M 158.363 209.07 L 183.173 192.788 M 425.913 300.971 L 437.18 286.913 M 202.246 292.333 L 172.869 291.724 M 211.296 151.844 L 234.123 163.276 M 292.867 339.943 L 308.851 330.99 M 246.058 114.371 L 216.901 135.183 M 112.632 302.077 L 99.0489 313.915 M 218.824 150.1 L 242.647 150.233 M 287.664 155.832 L 302.799 169.706 M 331.721 148.288 L 300.676 137.433 M 317.275 210.404 L 321.907 225.411 M 321.907 225.411 L 304.017 227.561 M 300.348 293.439 L 298.998 315.909 M 212.168 117.8 L 216.901 135.183 M 73.9717 287.253 L 99.0489 313.915 M 218.824 150.1 L 217.933 168.095 M 287.664 155.832 L 277.031 170.372 M 313.993 125.293 L 300.676 137.433 M 302.318 214.524 L 304.017 227.561 M 290.315 300.113 L 298.998 315.909 M 212.168 117.8 L 188.965 148.043 M 318.972 258.357 L 331.486 277.697 M 190.577 165.709 L 217.933 168.095 M 260.619 160.466 L 277.031 170.372 M 313.993 125.293 L 280.023 117.386 M 302.318 214.524 L 284.413 216.515 M 283.311 321.601 L 298.998 315.909 M 308.473 284.298 L 300.348 293.439 M 318.972 258.357 L 314.846 270.78 M 260.619 160.466 L 250.528 175.381 M 291.614 103.595 L 280.023 117.386 M 190.577 165.709 L 186.161 183.175 M 283.311 321.601 L 289.109 338.656 M 293.579 274.17 L 300.348 293.439 M 301.269 255.006 L 314.846 270.78 M 231.971 160.982 L 250.528 175.381 M 291.614 103.595 L 254.898 98.6051 M 154.379 169.519 L 186.161 183.175 M 271.843 343.592 L 289.109 338.656 M 287.043 281.29 L 300.348 293.439 M 73.9717 287.253 L 62.978 301.533 M 231.971 160.982 L 218.782 173.247 M 271.843 343.592 L 278.591 360.3 M 287.043 281.29 L 291.18 301.259 M 73.9717 287.253 L 33.9291 285.817 M 264.809 83.5648 L 254.898 98.6051 M 271.843 343.592 L 266.135 366.727 M 279.896 287.222 L 291.18 301.259 M 39.9775 268.847 L 33.9291 285.817 M 264.809 83.5648 L 225.58 81.2646 M 256.197 351.692 L 266.135 366.727 M 280.995 307.655 L 291.18 301.259 M 279.896 287.222 L 280.995 307.655 M 39.9775 268.847 L 0 279.334 M 234.023 65.3601 L 225.58 81.2646 M 256.197 351.692 L 255.779 375.268 M 280.995 307.655 L 289.066 323.761 M 272.204 291.939 L 280.995 307.655 M 234.023 65.3601 L 192.627 65.3431 M 242.849 362.721 L 255.779 375.268 M 273.234 329.074 L 289.066 323.761 M 269.777 312.393 L 280.995 307.655 M 272.204 291.939 L 269.777 312.393 M 242.849 362.721 L 247.899 385.477 M 273.234 329.074 L 278.636 346.263 M 269.777 312.393 L 275.009 329.636 M 263.997 295.329 L 269.777 312.393 M 154.379 169.519 L 145.071 184.946 M 258.392 332.412 L 275.009 329.636 M 257.615 315.119 L 269.777 312.393 M 312.848 306.406 L 323.972 293.483 M 297.029 267.218 L 308.473 284.298 M 258.392 332.412 L 261.115 350.221 M 257.615 315.119 L 259.556 333.031 M 312.848 306.406 L 326.241 318.461 M 317.275 210.404 L 300.838 217.774 M 425.913 300.971 L 444.159 292.402 M 242.506 332.856 L 259.556 333.031 M 312.54 331.311 L 326.241 318.461 M 294.633 204.93 L 300.838 217.774 M 433.891 307.201 L 444.159 292.402 M 242.506 332.856 L 242.248 350.87 M 312.54 331.311 L 326.194 343.061 M 294.633 204.93 L 278.175 212.263 M 433.891 307.201 L 451.513 297.367 M 451.513 297.367 L 444.159 292.402 M 292.867 339.943 L 303.278 354.645 M 211.296 151.844 L 200.717 166.427 M 441.887 312.592 L 451.513 297.367 M 451.513 297.367 L 462.897 283.388 M 357.213 117.514 L 344.488 85.657 M 177.33 142.723 L 200.717 166.427 M 459.164 302.112 L 451.513 297.367 M 441.887 312.592 L 459.164 302.112 M 471.946 292.574 L 462.897 283.388 M 361.88 90.3607 L 344.488 85.657 M 441.887 312.592 L 449.763 317.48 M 471.946 292.574 L 486.116 281.445 M 361.88 90.3607 L 356.782 54.5352 M 430.702 326.71 L 449.763 317.48 M 495.241 296.164 L 486.116 281.445 M 372.735 62.9153 L 356.782 54.5352 M 177.33 142.723 L 162.993 153.64 M 495.241 296.164 L 510.447 286.506 M 372.735 62.9153 L 377.053 25.0691 M 459.164 302.112 L 470.248 287.906 M 449.763 317.48 L 459.164 302.112 M 390.591 36.966 L 377.053 25.0691 M 479.79 297.346 L 470.248 287.906 M 449.763 317.48 L 467.039 306.999 M 467.039 306.999 L 459.164 302.112 M 479.79 297.346 L 493.734 285.931 M 457.416 322.229 L 467.039 306.999 M 449.763 317.48 L 457.416 322.229 M 467.039 306.999 L 478.212 292.874 M 503.368 300.671 L 493.734 285.931 M 475.039 312.39 L 467.039 306.999 M 457.416 322.229 L 475.039 312.39 M 438.665 331.673 L 457.416 322.229 M 488 302.907 L 478.212 292.874 M 503.368 300.671 L 518.157 290.398 M 475.039 312.39 L 486.698 298.655 M 457.416 322.229 L 464.769 327.194 M 464.769 327.194 L 475.039 312.39 M 488 302.907 L 501.986 291.555 M 496.414 309.637 L 486.698 298.655 M 446.021 336.192 L 464.769 327.194 M 483.016 318.618 L 475.039 312.39 M 464.769 327.194 L 483.016 318.618 M 511.766 306.607 L 501.986 291.555 M 496.414 309.637 L 510.75 298.719 M 446.021 336.192 L 456.377 343.135 M 483.016 318.618 L 495.501 305.623 M 464.769 327.194 L 471.754 332.674 M 471.754 332.674 L 483.016 318.618 M 511.766 306.607 L 526.379 296.058 M 520.237 314.408 L 510.75 298.719 M 452.717 340.584 L 471.754 332.674 M 490.761 325.952 L 483.016 318.618 M 471.754 332.674 L 490.761 325.952 M 434.355 349.918 L 456.377 343.135 M 452.717 340.584 L 462.344 348.033 M 504.759 317.825 L 495.501 305.623 M 478.264 338.928 L 490.761 325.952 M 471.754 332.674 L 478.264 338.928 M 440.235 353.589 L 462.344 348.033 M 478.264 338.928 L 498.014 334.576 M 498.014 334.576 L 490.761 325.952 M 458.758 345.145 L 478.264 338.928 M 484.164 346.1 L 498.014 334.576 M 478.264 338.928 L 484.164 346.1 M 512.7 324.145 L 490.761 325.952 M 458.758 345.145 L 467.52 353.4 M 504.449 344.603 L 498.014 334.576 M 512.7 324.145 L 502.214 312.038 M 445.203 357.007 L 467.52 353.4 M 520.289 336.023 L 498.014 334.576 M 504.449 344.603 L 520.289 336.023 M 526.796 312.926 L 502.214 312.038 M 520.289 336.023 L 511.004 322.096 M 525.68 352.683 L 520.289 336.023 M 504.449 344.603 L 525.68 352.683 M 526.796 312.926 L 514.426 298.796 M 535.57 326.474 L 511.004 322.096 M 539.293 299.96 L 514.426 298.796 M 535.57 326.474 L 524.767 310.471 M 542.945 347.529 L 520.289 336.023 M 549.444 314.978 L 524.767 310.471 M 542.945 347.529 L 536.701 328.583 M 508.121 356.67 L 525.68 352.683 M 559.351 340.102 L 536.701 328.583 M 526.341 371.016 L 525.68 352.683 M 508.121 356.67 L 526.341 371.016 M 544.356 370.744 L 525.68 352.683 M 508.35 370.019 L 526.341 371.016 M 508.121 356.67 L 508.35 370.019 M 544.356 370.744 L 543.502 350.035 M 521.686 389.714 L 526.341 371.016 M 508.35 370.019 L 521.686 389.714 M 508.121 356.67 L 490.329 359.501 M 562.155 367.975 L 543.502 350.035 M 539.064 394.468 L 526.341 371.016 M 504.703 383.686 L 521.686 389.714 M 508.35 370.019 L 504.703 383.686 M 488.854 349.472 L 490.329 359.501 M 539.064 394.468 L 544.192 373.454 M 511.435 407.207 L 521.686 389.714 M 504.703 383.686 L 511.435 407.207 M 508.35 370.019 L 490.467 367.854 M 488.854 349.472 L 471.059 352.307 M 526.718 416.752 L 521.686 389.714 M 496.918 396.532 L 511.435 407.207 M 504.703 383.686 L 496.918 396.532 M 491.867 357.225 L 490.467 367.854 M 470.704 340.082 L 471.059 352.307 M 526.718 416.752 L 538.11 397.12 M 495.764 421.795 L 511.435 407.207 M 504.703 383.686 L 488.163 376.548 M 491.867 357.225 L 473.974 355.16 M 470.704 340.082 L 452.712 339.195 M 543.216 423.982 L 538.11 397.12 M 507.535 435.421 L 511.435 407.207 M 492.706 366.097 L 488.163 376.548 M 477.041 342.967 L 473.974 355.16 M 495.764 421.795 L 507.535 435.421 M 507.535 435.421 L 525.02 419.043 M 492.706 366.097 L 476.098 359.114 M 477.041 342.967 L 459.948 337.282 M 495.764 421.795 L 486.719 450.024 M 486.719 450.024 L 507.535 435.421 M 521.201 447.167 L 525.02 419.043 M 482.722 347.836 L 476.098 359.114 M 477.156 434.758 L 486.719 450.024 M 495.764 421.795 L 477.156 434.758 M 498.507 463.662 L 507.535 435.421 M 482.722 347.836 L 467.913 337.567 M 462.396 462.022 L 486.719 450.024 M 498.507 463.662 L 517.038 450.732 M 477.156 434.758 L 462.396 462.022 M 471.817 477.38 L 486.719 450.024 M 511.328 476.312 L 517.038 450.732 M 455.502 445.383 L 462.396 462.022 M 477.156 434.758 L 455.502 445.383 M 471.817 477.38 L 493.694 466.646 M 525.368 466.701 L 517.038 450.732 M 434.559 470.307 L 462.396 462.022 M 477.156 434.758 L 466.396 420.299 M 466.396 420.299 L 455.502 445.383 M 471.817 477.38 L 482.511 491.876 M 482.511 491.876 L 493.694 466.646 M 525.368 466.701 L 537.236 444.586 M 434.559 470.307 L 441.091 487.101 M 466.396 420.299 L 449.859 428.277 M 478.852 408.569 L 466.396 420.299 M 482.511 491.876 L 499.27 483.773 M 540.448 462.305 L 537.236 444.586 M 414.971 499.181 L 441.091 487.101 M 466.396 420.299 L 456.877 405.006 M 478.852 408.569 L 465.021 397.03 M 482.511 491.876 L 492.1 507.121 M 540.448 462.305 L 557.112 444.74 M 414.971 499.181 L 425.226 513.998 M 473.272 386.791 L 465.021 397.03 M 478.191 517.291 L 492.1 507.121 M 482.511 491.876 L 478.191 517.291 M 555.073 462.644 L 557.112 444.74 M 473.272 386.791 L 459.365 375.334 M 488.125 532.319 L 492.1 507.121 M 468.76 397.11 L 456.877 405.006 M 449.859 428.277 L 455.502 445.383 M 488.125 532.319 L 504.107 520.554 M 504.107 520.554 L 492.1 507.121 M 468.76 397.11 L 459.234 381.818 M 430.003 448.92 L 455.502 445.383 M 488.125 532.319 L 496.625 548.202 M 503.336 496.261 L 492.1 507.121 M 430.003 448.92 L 431.074 466.904 M 470.415 556.707 L 496.625 548.202 M 503.336 496.261 L 491.453 482.706 M 399.937 465.424 L 431.074 466.904 M 470.415 556.707 L 474.355 574.286 M 495.764 421.795 L 482.914 409.153 M 399.937 465.424 L 400.351 483.438 M 441.089 577.887 L 474.355 574.286 M 492.906 396.668 L 482.914 409.153 M 369.077 485.944 L 400.351 483.438 M 441.089 577.887 L 444.075 595.652 M 492.906 396.668 L 477.511 387.331 M 369.077 485.944 L 373.51 503.411 M 410.808 602.943 L 444.075 595.652 M 483.77 376.856 L 477.511 387.331 M 462.396 462.022 L 471.817 477.38 M 410.808 602.943 L 417.493 619.678 M 483.77 376.856 L 468.272 367.661 M 450.185 492.579 L 471.817 477.38 M 556.937 396.711 L 544.192 373.454 M 476.768 356.843 L 468.272 367.661 M 450.185 492.579 L 462.965 505.276 M 476.768 356.843 L 463.532 344.606 M 504.449 344.603 L 508.121 356.67 M 339.341 340.531 L 345.832 325.888 M 504.449 344.603 L 488.067 352.102 M 339.341 340.531 L 356.795 344.985 M 484.153 343.266 L 488.067 352.102 M 339.341 340.531 L 355.126 355.525 M 484.153 343.266 L 467.688 350.58 M 337.104 355.689 L 355.126 355.525 M 464.177 339.055 L 467.688 350.58 M 337.104 355.689 L 356.261 365.584 M 338.862 370.247 L 356.261 365.584 M 204.259 309.802 L 179.234 319.885 M 338.862 370.247 L 359.789 374.558 M 204.259 309.802 L 186.224 303.276 M 102.533 262.505 L 85.6303 268.718 M 211.86 293.47 L 186.224 303.276" />
<line x1="379.172723" y1="205.567307" x2="366.376756" y2="201.457429" class="t" />
<line x1="361.826300" y1="210.129714" x2="366.376756" y2="201.457429" class="t" />
<line x1="383.940754" y1="198.190381" x2="379.172723" y2="205.567307" class="t" />
<line x1="348.887683" y1="205.591528" x2="361.826300" y2="210.129714" class="t" />
<line x1="339.231711" y1="192.304086" x2="348.887683" y2="205.591528" class="t" />
<line x1="344.328294" y1="214.210242" x2="348.887683" y2="205.591528" class="t" />
<line x1="342.167891" y1="182.628837" x2="339.231711" y2="192.304086" class="t" />
<line x1="325.763870" y1="189.871113" x2="339.231711" y2="192.304086" class="t" />
<line x1="331.541413" y1="210.139350" x2="344.328294" y2="214.210242" class="t" />
<line x1="330.018427" y1="170.074686" x2="342.167891" y2="182.628837" class="t" />
<line x1="314.280412" y1="180.831005" x2="325.763870" y2="189.871113" class="t" />
<line x1="316.027651" y1="169.286586" x2="330.018427" y2="170.074686" class="t" />
<line x1="331.099365" y1="159.579961" x2="330.018427" y2="170.074686" class="t" />
<line x1="300.969242" y1="183.067242" x2="314.280412" y2="180.831005" class="t" />
<line x1="302.423064" y1="161.306389" x2="316.027651" y2="169.286586" class="t" />
<line x1="316.400722" y1="148.034254" x2="331.099365" y2="159.579961" class="t" />
<line x1="288.603489" y1="178.460347" x2="300.969242" y2="183.067242" class="t" />
<line x1="322.108076" y1="200.274389" x2="331.541413" y2="210.139350" class="t" />
<line x1="351.586010" y1="227.957765" x2="344.328294" y2="214.210242" class="t" />
<line x1="355.856240" y1="185.493715" x2="342.167891" y2="182.628837" class="t" />
<line x1="302.014442" y1="148.859723" x2="316.400722" y2="148.034254" class="t" />
<line x1="363.605999" y1="234.082491" x2="351.586010" y2="227.957765" class="t" />
<line x1="358.787374" y1="175.800180" x2="355.856240" y2="185.493715" class="t" />
<line x1="286.239295" y1="142.168067" x2="302.014442" y2="148.859723" class="t" />
<line x1="370.553625" y1="247.321635" x2="363.605999" y2="234.082491" class="t" />
<line x1="369.514293" y1="226.636728" x2="363.605999" y2="234.082491" class="t" />
<line x1="348.853428" y1="161.482233" x2="358.787374" y2="175.800180" class="t" />
<line x1="381.468999" y1="232.344052" x2="369.514293" y2="226.636728" class="t" />
<line x1="353.137942" y1="151.879597" x2="348.853428" y2="161.482233" class="t" />
<line x1="388.711234" y1="242.465344" x2="381.468999" y2="232.344052" class="t" />
<line x1="387.387661" y1="226.164300" x2="381.468999" y2="232.344052" class="t" />
<line x1="345.533633" y1="135.019041" x2="353.137942" y2="151.879597" class="t" />
<line x1="399.290355" y1="230.966618" x2="387.387661" y2="226.164300" class="t" />
<line x1="351.357425" y1="125.719463" x2="345.533633" y2="135.019041" class="t" />
<line x1="405.703445" y1="238.956637" x2="399.290355" y2="230.966618" class="t" />
<line x1="405.319895" y1="226.117362" x2="399.290355" y2="230.966618" class="t" />
<line x1="346.978468" y1="106.517703" x2="351.357425" y2="125.719463" class="t" />
<line x1="400.427577" y1="244.407303" x2="405.703445" y2="238.956637" class="t" />
<line x1="400.218876" y1="216.623835" x2="405.319895" y2="226.117362" class="t" />
<line x1="273.135087" y1="147.820627" x2="286.239295" y2="142.168067" class="t" />
<line x1="282.235120" y1="132.492601" x2="286.239295" y2="142.168067" class="t" />
<line x1="383.094305" y1="251.072496" x2="370.553625" y2="247.321635" class="t" />
<line x1="407.838584" y1="250.830282" x2="400.427577" y2="244.407303" class="t" />
<line x1="372.252150" y1="178.241950" x2="358.787374" y2="175.800180" class="t" />
<line x1="257.403240" y1="146.493984" x2="273.135087" y2="147.820627" class="t" />
<line x1="263.626053" y1="130.799446" x2="282.235120" y2="132.492601" class="t" />
<line x1="391.402529" y1="259.607474" x2="383.094305" y2="251.072496" class="t" />
<line x1="375.624920" y1="169.856547" x2="372.252150" y2="178.241950" class="t" />
<line x1="275.780924" y1="183.035358" x2="288.603489" y2="178.460347" class="t" />
<line x1="308.900395" y1="200.706669" x2="322.108076" y2="200.274389" class="t" />
<line x1="345.681082" y1="235.337390" x2="351.586010" y2="227.957765" class="t" />
<line x1="262.606457" y1="177.985675" x2="275.780924" y2="183.035358" class="t" />
<line x1="298.200608" y1="194.857573" x2="308.900395" y2="200.706669" class="t" />
<line x1="350.686140" y1="249.283966" x2="345.681082" y2="235.337390" class="t" />
<line x1="333.737949" y1="229.694998" x2="345.681082" y2="235.337390" class="t" />
<line x1="248.583288" y1="179.944682" x2="262.606457" y2="177.985675" class="t" />
<line x1="285.153740" y1="197.447196" x2="298.200608" y2="194.857573" class="t" />
<line x1="361.639665" y1="256.859875" x2="350.686140" y2="249.283966" class="t" />
<line x1="343.730644" y1="255.318271" x2="350.686140" y2="249.283966" class="t" />
<line x1="366.458996" y1="270.363462" x2="361.639665" y2="256.859875" class="t" />
<line x1="332.775966" y1="248.217649" x2="343.730644" y2="255.318271" class="t" />
<line x1="346.660225" y1="269.242848" x2="343.730644" y2="255.318271" class="t" />
<line x1="378.250180" y1="275.746871" x2="366.458996" y2="270.363462" class="t" />
<line x1="326.001429" y1="252.958627" x2="332.775966" y2="248.217649" class="t" />
<line x1="356.436826" y1="278.090310" x2="346.660225" y2="269.242848" class="t" />
<line x1="338.958498" y1="273.895362" x2="346.660225" y2="269.242848" class="t" />
<line x1="385.031293" y1="284.959333" x2="378.250180" y2="275.746871" class="t" />
<line x1="314.952049" y1="246.726918" x2="326.001429" y2="252.958627" class="t" />
<line x1="359.328654" y1="291.592665" x2="356.436826" y2="278.090310" class="t" />
<line x1="340.019711" y1="287.618059" x2="338.958498" y2="273.895362" class="t" />
<line x1="308.259909" y1="250.230142" x2="314.952049" y2="246.726918" class="t" />
<line x1="370.248961" y1="298.405167" x2="359.328654" y2="291.592665" class="t" />
<line x1="348.551513" y1="297.544660" x2="340.019711" y2="287.618059" class="t" />
<line x1="331.837119" y1="290.930015" x2="340.019711" y2="287.618059" class="t" />
<line x1="375.634786" y1="308.030222" x2="370.248961" y2="298.405167" class="t" />
<line x1="349.746939" y1="310.849781" x2="348.551513" y2="297.544660" class="t" />
<line x1="331.237216" y1="304.332425" x2="331.837119" y2="290.930015" class="t" />
<line x1="323.177965" y1="281.409845" x2="331.837119" y2="290.930015" class="t" />
<line x1="359.725195" y1="318.885663" x2="349.746939" y2="310.849781" class="t" />
<line x1="338.523720" y1="315.134039" x2="331.237216" y2="304.332425" class="t" />
<line x1="315.506932" y1="283.610080" x2="323.177965" y2="281.409845" class="t" />
<line x1="363.863050" y1="328.717566" x2="359.725195" y2="318.885663" class="t" />
<line x1="338.286157" y1="328.107889" x2="338.523720" y2="315.134039" class="t" />
<line x1="315.097673" y1="294.729123" x2="315.506932" y2="283.610080" class="t" />
<line x1="306.526015" y1="274.855012" x2="315.506932" y2="283.610080" class="t" />
<line x1="329.109081" y1="265.498651" x2="338.958498" y2="273.895362" class="t" />
<line x1="307.222776" y1="294.714465" x2="315.097673" y2="294.729123" class="t" />
<line x1="327.812076" y1="235.741979" x2="333.737949" y2="229.694998" class="t" />
<line x1="235.150152" y1="168.507493" x2="248.583288" y2="179.944682" class="t" />
<line x1="273.865171" y1="190.896529" x2="285.153740" y2="197.447196" class="t" />
<line x1="326.252578" y1="219.238602" x2="333.737949" y2="229.694998" class="t" />
<line x1="304.064575" y1="305.251569" x2="307.222776" y2="294.714465" class="t" />
<line x1="315.907261" y1="231.004554" x2="327.812076" y2="235.741979" class="t" />
<line x1="252.325272" y1="140.297814" x2="263.626053" y2="130.799446" class="t" />
<line x1="367.695150" y1="157.678893" x2="375.624920" y2="169.856547" class="t" />
<line x1="403.349750" y1="256.776854" x2="407.838584" y2="250.830282" class="t" />
<line x1="255.818667" y1="122.820943" x2="263.626053" y2="130.799446" class="t" />
<line x1="245.617573" y1="154.817182" x2="257.403240" y2="146.493984" class="t" />
<line x1="306.899112" y1="317.768516" x2="304.064575" y2="305.251569" class="t" />
<line x1="309.865565" y1="235.787599" x2="315.907261" y2="231.004554" class="t" />
<line x1="235.439805" y1="144.228915" x2="252.325272" y2="140.297814" class="t" />
<line x1="373.438869" y1="150.306665" x2="367.695150" y2="157.678893" class="t" />
<line x1="411.456321" y1="261.619268" x2="403.349750" y2="256.776854" class="t" />
<line x1="228.928561" y1="153.968317" x2="245.617573" y2="154.817182" class="t" />
<line x1="300.238787" y1="328.947619" x2="306.899112" y2="317.768516" class="t" />
<line x1="235.935860" y1="127.302396" x2="255.818667" y2="122.820943" class="t" />
<line x1="369.797554" y1="135.298369" x2="373.438869" y2="150.306665" class="t" />
<line x1="407.765504" y1="267.936444" x2="411.456321" y2="261.619268" class="t" />
<line x1="227.533358" y1="140.097816" x2="235.935860" y2="127.302396" class="t" />
<line x1="377.683972" y1="129.629586" x2="369.797554" y2="135.298369" class="t" />
<line x1="416.302735" y1="271.250780" x2="407.765504" y2="267.936444" class="t" />
<line x1="211.328432" y1="149.873180" x2="227.533358" y2="140.097816" class="t" />
<line x1="379.476367" y1="113.246644" x2="377.683972" y2="129.629586" class="t" />
<line x1="413.388554" y1="277.823650" x2="416.302735" y2="271.250780" class="t" />
<line x1="206.295437" y1="164.415503" x2="211.328432" y2="149.873180" class="t" />
<line x1="200.374794" y1="147.509972" x2="211.328432" y2="149.873180" class="t" />
<line x1="422.119291" y1="279.722020" x2="413.388554" y2="277.823650" class="t" />
<line x1="190.704147" y1="175.870807" x2="206.295437" y2="164.415503" class="t" />
<line x1="185.788039" y1="161.721470" x2="200.374794" y2="147.509972" class="t" />
<line x1="419.914253" y1="286.438121" x2="422.119291" y2="279.722020" class="t" />
<line x1="184.127534" y1="190.303315" x2="190.704147" y2="175.870807" class="t" />
<line x1="174.016001" y1="162.690466" x2="185.788039" y2="161.721470" class="t" />
<line x1="184.182546" y1="177.428229" x2="185.788039" y2="161.721470" class="t" />
<line x1="428.668168" y1="287.073723" x2="419.914253" y2="286.438121" class="t" />
<line x1="164.003546" y1="198.839958" x2="184.127534" y2="190.303315" class="t" />
<line x1="176.349581" y1="146.566678" x2="174.016001" y2="162.690466" class="t" />
<line x1="162.875585" y1="181.010278" x2="174.016001" y2="162.690466" class="t" />
<line x1="171.558949" y1="193.225008" x2="184.182546" y2="177.428229" class="t" />
<line x1="427.084871" y1="293.839817" x2="428.668168" y2="287.073723" class="t" />
<line x1="152.161673" y1="210.533950" x2="164.003546" y2="198.839958" class="t" />
<line x1="163.165684" y1="148.540938" x2="176.349581" y2="146.566678" class="t" />
<line x1="165.396975" y1="196.838872" x2="162.875585" y2="181.010278" class="t" />
<line x1="166.255562" y1="131.820907" x2="163.165684" y2="148.540938" class="t" />
<line x1="151.531531" y1="185.529411" x2="162.875585" y2="181.010278" class="t" />
<line x1="152.155292" y1="134.346297" x2="166.255562" y2="131.820907" class="t" />
<line x1="145.647683" y1="206.686848" x2="151.531531" y2="185.529411" class="t" />
<line x1="149.618056" y1="169.062668" x2="151.531531" y2="185.529411" class="t" />
<line x1="152.608250" y1="221.149771" x2="145.647683" y2="206.686848" class="t" />
<line x1="136.043624" y1="214.415182" x2="145.647683" y2="206.686848" class="t" />
<line x1="137.179615" y1="174.933681" x2="149.618056" y2="169.062668" class="t" />
<line x1="161.916732" y1="214.321257" x2="152.608250" y2="221.149771" class="t" />
<line x1="129.488003" y1="199.130497" x2="136.043624" y2="214.415182" class="t" />
<line x1="136.623462" y1="236.260617" x2="136.043624" y2="214.415182" class="t" />
<line x1="135.800932" y1="157.713136" x2="137.179615" y2="174.933681" class="t" />
<line x1="168.890812" y1="228.757109" x2="161.916732" y2="214.321257" class="t" />
<line x1="129.831405" y1="246.337262" x2="136.623462" y2="236.260617" class="t" />
<line x1="147.649431" y1="247.652480" x2="136.623462" y2="236.260617" class="t" />
<line x1="122.717874" y1="164.267355" x2="135.800932" y2="157.713136" class="t" />
<line x1="178.446204" y1="221.169163" x2="168.890812" y2="228.757109" class="t" />
<line x1="118.938651" y1="234.004261" x2="129.831405" y2="246.337262" class="t" />
<line x1="137.002220" y1="266.271250" x2="129.831405" y2="246.337262" class="t" />
<line x1="154.429486" y1="238.653506" x2="147.649431" y2="247.652480" class="t" />
<line x1="118.766848" y1="208.670133" x2="118.938651" y2="234.004261" class="t" />
<line x1="150.907512" y1="273.089636" x2="137.002220" y2="266.271250" class="t" />
<line x1="165.479605" y1="249.938632" x2="154.429486" y2="238.653506" class="t" />
<line x1="112.011255" y1="192.733969" x2="118.766848" y2="208.670133" class="t" />
<line x1="154.650519" y1="262.979809" x2="150.907512" y2="273.089636" class="t" />
<line x1="172.260107" y1="240.276734" x2="165.479605" y2="249.938632" class="t" />
<line x1="133.614110" y1="277.521927" x2="137.002220" y2="266.271250" class="t" />
<line x1="168.540426" y1="269.617690" x2="154.650519" y2="262.979809" class="t" />
<line x1="146.287212" y1="293.157026" x2="133.614110" y2="277.521927" class="t" />
<line x1="119.518503" y1="269.734842" x2="133.614110" y2="277.521927" class="t" />
<line x1="172.121963" y1="259.008778" x2="168.540426" y2="269.617690" class="t" />
<line x1="161.265444" y1="294.534597" x2="146.287212" y2="293.157026" class="t" />
<line x1="146.379014" y1="304.379807" x2="146.287212" y2="293.157026" class="t" />
<line x1="111.289508" y1="246.453062" x2="119.518503" y2="269.734842" class="t" />
<line x1="161.925507" y1="284.354507" x2="161.265444" y2="294.534597" class="t" />
<line x1="162.562288" y1="314.120407" x2="146.379014" y2="304.379807" class="t" />
<line x1="130.892181" y1="302.131076" x2="146.379014" y2="304.379807" class="t" />
<line x1="99.652950" y1="233.924434" x2="111.289508" y2="246.453062" class="t" />
<line x1="176.795676" y1="285.491744" x2="161.925507" y2="284.354507" class="t" />
<line x1="165.795809" y1="324.286642" x2="162.562288" y2="314.120407" class="t" />
<line x1="176.567054" y1="310.064910" x2="162.562288" y2="314.120407" class="t" />
<line x1="115.888377" y1="283.871885" x2="130.892181" y2="302.131076" class="t" />
<line x1="93.939271" y1="207.423216" x2="99.652950" y2="233.924434" class="t" />
<line x1="177.213197" y1="274.991318" x2="176.795676" y2="285.491744" class="t" />
<line x1="151.008663" y1="327.685850" x2="165.795809" y2="324.286642" class="t" />
<line x1="183.122003" y1="327.586608" x2="165.795809" y2="324.286642" class="t" />
<line x1="174.445545" y1="300.677892" x2="176.567054" y2="310.064910" class="t" />
<line x1="100.870523" y1="276.556898" x2="115.888377" y2="283.871885" class="t" />
<line x1="131.682889" y1="316.480432" x2="151.008663" y2="327.685850" class="t" />
<line x1="194.338547" y1="318.956247" x2="183.122003" y2="327.586608" class="t" />
<line x1="188.224589" y1="296.390846" x2="174.445545" y2="300.677892" class="t" />
<line x1="115.517816" y1="315.357889" x2="131.682889" y2="316.480432" class="t" />
<line x1="169.141407" y1="209.099482" x2="171.558949" y2="193.225008" class="t" />
<line x1="435.750698" y1="293.428546" x2="427.084871" y2="293.839817" class="t" />
<line x1="185.863521" y1="286.844052" x2="188.224589" y2="296.390846" class="t" />
<line x1="215.378796" y1="160.515655" x2="228.928561" y2="153.968317" class="t" />
<line x1="301.665483" y1="341.859327" x2="300.238787" y2="328.947619" class="t" />
<line x1="225.042534" y1="122.451192" x2="235.935860" y2="127.302396" class="t" />
<line x1="95.217627" y1="301.081547" x2="115.517816" y2="315.357889" class="t" />
<line x1="226.467916" y1="156.142668" x2="235.439805" y2="144.228915" class="t" />
<line x1="289.164844" y1="165.303288" x2="302.423064" y2="161.306389" class="t" />
<line x1="315.463045" y1="137.004653" x2="316.400722" y2="148.034254" class="t" />
<line x1="313.339813" y1="217.863372" x2="326.252578" y2="219.238602" class="t" />
<line x1="309.413963" y1="222.498977" x2="315.907261" y2="231.004554" class="t" />
<line x1="296.553506" y1="303.153772" x2="304.064575" y2="305.251569" class="t" />
<line x1="206.011476" y1="133.675012" x2="225.042534" y2="122.451192" class="t" />
<line x1="78.666203" y1="300.900300" x2="95.217627" y2="301.081547" class="t" />
<line x1="209.111036" y1="161.301304" x2="226.467916" y2="156.142668" class="t" />
<line x1="275.104701" y1="162.223360" x2="289.164844" y2="165.303288" class="t" />
<line x1="298.230549" y1="126.703944" x2="315.463045" y2="137.004653" class="t" />
<line x1="296.915997" y1="219.533382" x2="309.413963" y2="222.498977" class="t" />
<line x1="290.874619" y1="312.540994" x2="296.553506" y2="303.153772" class="t" />
<line x1="193.349497" y1="132.975588" x2="206.011476" y2="133.675012" class="t" />
<line x1="321.768047" y1="268.944846" x2="329.109081" y2="265.498651" class="t" />
<line x1="198.223309" y1="172.326202" x2="209.111036" y2="161.301304" class="t" />
<line x1="262.725865" y1="168.739878" x2="275.104701" y2="162.223360" class="t" />
<line x1="295.209920" y1="115.424640" x2="298.230549" y2="126.703944" class="t" />
<line x1="290.425983" y1="210.152943" x2="296.915997" y2="219.533382" class="t" />
<line x1="290.472695" y1="325.388908" x2="290.874619" y2="312.540994" class="t" />
<line x1="300.799771" y1="283.969155" x2="307.222776" y2="294.714465" class="t" />
<line x1="311.695821" y1="261.381183" x2="321.768047" y2="268.944846" class="t" />
<line x1="247.705899" y1="165.609837" x2="262.725865" y2="168.739878" class="t" />
<line x1="275.511741" y1="106.528783" x2="295.209920" y2="115.424640" class="t" />
<line x1="177.038839" y1="172.800806" x2="198.223309" y2="172.326202" class="t" />
<line x1="281.420851" y1="334.616502" x2="290.472695" y2="325.388908" class="t" />
<line x1="293.656519" y1="282.966534" x2="300.799771" y2="283.969155" class="t" />
<line x1="304.618131" y1="263.639458" x2="311.695821" y2="261.381183" class="t" />
<line x1="233.760263" y1="169.870295" x2="247.705899" y2="165.609837" class="t" />
<line x1="270.440227" y1="95.255041" x2="275.511741" y2="106.528783" class="t" />
<line x1="161.870472" y1="179.213130" x2="177.038839" y2="172.800806" class="t" />
<line x1="279.847605" y1="347.516210" x2="281.420851" y2="334.616502" class="t" />
<line x1="292.856872" y1="291.996136" x2="293.656519" y2="282.966534" class="t" />
<line x1="56.959583" y1="291.534288" x2="78.666203" y2="300.900300" class="t" />
<line x1="217.422109" y1="160.377617" x2="233.760263" y2="169.870295" class="t" />
<line x1="272.189461" y1="356.873174" x2="279.847605" y2="347.516210" class="t" />
<line x1="286.039571" y1="289.923622" x2="292.856872" y2="291.996136" class="t" />
<line x1="49.292763" y1="280.638851" x2="56.959583" y2="291.534288" class="t" />
<line x1="248.428869" y1="87.811524" x2="270.440227" y2="95.255041" class="t" />
<line x1="264.724655" y1="354.003681" x2="272.189461" y2="356.873174" class="t" />
<line x1="284.023627" y1="298.711854" x2="286.039571" y2="289.923622" class="t" />
<line x1="24.635521" y1="277.999195" x2="49.292763" y2="280.638851" class="t" />
<line x1="241.470567" y1="76.729836" x2="248.428869" y2="87.811524" class="t" />
<line x1="259.370103" y1="364.562317" x2="264.724655" y2="354.003681" class="t" />
<line x1="287.080331" y1="310.891514" x2="284.023627" y2="298.711854" class="t" />
<line x1="277.698208" y1="295.605281" x2="284.023627" y2="298.711854" class="t" />
<line x1="13.571322" y1="269.837610" x2="24.635521" y2="277.999195" class="t" />
<line x1="217.409847" y1="70.655932" x2="241.470567" y2="76.729836" class="t" />
<line x1="251.608185" y1="363.226861" x2="259.370103" y2="364.562317" class="t" />
<line x1="281.098444" y1="320.163317" x2="287.080331" y2="310.891514" class="t" />
<line x1="274.325459" y1="303.995861" x2="277.698208" y2="295.605281" class="t" />
<line x1="208.862784" y1="59.859318" x2="217.409847" y2="70.655932" class="t" />
<line x1="248.842219" y1="374.488587" x2="251.608185" y2="363.226861" class="t" />
<line x1="280.311947" y1="333.032646" x2="281.098444" y2="320.163317" class="t" />
<line x1="275.260463" y1="316.561588" x2="274.325459" y2="303.995861" class="t" />
<line x1="268.659534" y1="299.887190" x2="274.325459" y2="303.995861" class="t" />
<line x1="241.062732" y1="374.808262" x2="248.842219" y2="374.488587" class="t" />
<line x1="271.184457" y1="342.132335" x2="280.311947" y2="333.032646" class="t" />
<line x1="267.725932" y1="324.813812" x2="275.260463" y2="316.561588" class="t" />
<line x1="263.796767" y1="307.613851" x2="268.659534" y2="299.887190" class="t" />
<line x1="137.788432" y1="171.330958" x2="161.870472" y2="179.213130" class="t" />
<line x1="264.838400" y1="337.423132" x2="267.725932" y2="324.813812" class="t" />
<line x1="262.316411" y1="320.181086" x2="263.796767" y2="307.613851" class="t" />
<line x1="321.020443" y1="306.116872" x2="315.097673" y2="294.729123" class="t" />
<line x1="299.292106" y1="275.912539" x2="306.526015" y2="274.855012" class="t" />
<line x1="254.492729" y1="345.096693" x2="264.838400" y2="337.423132" class="t" />
<line x1="253.225958" y1="327.001851" x2="262.316411" y2="320.181086" class="t" />
<line x1="317.209815" y1="318.726121" x2="321.020443" y2="306.116872" class="t" />
<line x1="304.248470" y1="211.036249" x2="313.339813" y2="217.863372" class="t" />
<line x1="434.654134" y1="300.191408" x2="435.750698" y2="293.428546" class="t" />
<line x1="248.103458" y1="338.918664" x2="253.225958" y2="327.001851" class="t" />
<line x1="321.658542" y1="330.944518" x2="317.209815" y2="318.726121" class="t" />
<line x1="291.215107" y1="211.655662" x2="304.248470" y2="211.036249" class="t" />
<line x1="443.187420" y1="298.990355" x2="434.654134" y2="300.191408" class="t" />
<line x1="236.650529" y1="344.804927" x2="248.103458" y2="338.918664" class="t" />
<line x1="318.536300" y1="343.198539" x2="321.658542" y2="330.944518" class="t" />
<line x1="281.781357" y1="203.991327" x2="291.215107" y2="211.655662" class="t" />
<line x1="442.430020" y1="305.720160" x2="443.187420" y2="298.990355" class="t" />
<line x1="452.856211" y1="291.052434" x2="443.187420" y2="298.990355" class="t" />
<line x1="296.041634" y1="352.859602" x2="301.665483" y2="341.859327" class="t" />
<line x1="196.447809" y1="153.664577" x2="215.378796" y2="160.515655" class="t" />
<line x1="450.854623" y1="304.023580" x2="442.430020" y2="305.720160" class="t" />
<line x1="462.118773" y1="291.109753" x2="452.856211" y2="291.052434" class="t" />
<line x1="354.526904" y1="97.844052" x2="346.978468" y2="106.517703" class="t" />
<line x1="180.346941" y1="154.263314" x2="196.447809" y2="153.664577" class="t" />
<line x1="460.308325" y1="295.795103" x2="450.854623" y2="304.023580" class="t" />
<line x1="450.271456" y1="310.727642" x2="450.854623" y2="304.023580" class="t" />
<line x1="473.652989" y1="285.802222" x2="462.118773" y2="291.109753" class="t" />
<line x1="354.383335" y1="76.850975" x2="354.526904" y2="97.844052" class="t" />
<line x1="440.783828" y1="318.927146" x2="450.271456" y2="310.727642" class="t" />
<line x1="484.434242" y1="290.060933" x2="473.652989" y2="285.802222" class="t" />
<line x1="363.798930" y1="69.270407" x2="354.383335" y2="76.850975" class="t" />
<line x1="440.857117" y1="325.992916" x2="440.783828" y2="318.927146" class="t" />
<line x1="497.267671" y1="288.038253" x2="484.434242" y2="290.060933" class="t" />
<line x1="368.856702" y1="47.506539" x2="363.798930" y2="69.270407" class="t" />
<line x1="161.274611" y1="138.566121" x2="180.346941" y2="154.263314" class="t" />
<line x1="508.452213" y1="294.423598" x2="497.267671" y2="288.038253" class="t" />
<line x1="380.126406" y1="41.650126" x2="368.856702" y2="47.506539" class="t" />
<line x1="469.734086" y1="295.787931" x2="460.308325" y2="295.795103" class="t" />
<line x1="458.655600" y1="308.863490" x2="450.271456" y2="310.727642" class="t" />
<line x1="391.023846" y1="20.678366" x2="380.126406" y2="41.650126" class="t" />
<line x1="481.257282" y1="290.394481" x2="469.734086" y2="295.787931" class="t" />
<line x1="458.072680" y1="315.569175" x2="458.655600" y2="308.863490" class="t" />
<line x1="468.138396" y1="300.661668" x2="458.655600" y2="308.863490" class="t" />
<line x1="492.297261" y1="294.649362" x2="481.257282" y2="290.394481" class="t" />
<line x1="466.497885" y1="313.872810" x2="458.072680" y2="315.569175" class="t" />
<line x1="448.614753" y1="323.793803" x2="458.072680" y2="315.569175" class="t" />
<line x1="477.750197" y1="300.926747" x2="468.138396" y2="300.661668" class="t" />
<line x1="505.086228" y1="292.333325" x2="492.297261" y2="294.649362" class="t" />
<line x1="476.258661" y1="306.014881" x2="466.497885" y2="313.872810" class="t" />
<line x1="465.741173" y1="320.604256" x2="466.497885" y2="313.872810" class="t" />
<line x1="448.566942" y1="330.793280" x2="448.614753" y2="323.793803" class="t" />
<line x1="489.399192" y1="295.778794" x2="477.750197" y2="300.926747" class="t" />
<line x1="516.494407" y1="298.330978" x2="505.086228" y2="292.333325" class="t" />
<line x1="486.050373" y1="306.894230" x2="476.258661" y2="306.014881" class="t" />
<line x1="456.068449" y1="328.538060" x2="465.741173" y2="320.604256" class="t" />
<line x1="474.274671" y1="319.400551" x2="465.741173" y2="320.604256" class="t" />
<line x1="500.583770" y1="300.356357" x2="489.399192" y2="295.778794" class="t" />
<line x1="497.953995" y1="302.336930" x2="486.050373" y2="306.894230" class="t" />
<line x1="455.722246" y1="335.506667" x2="456.068449" y2="328.538060" class="t" />
<line x1="484.518644" y1="312.210514" x2="474.274671" y2="319.400551" class="t" />
<line x1="473.179716" y1="326.161720" x2="474.274671" y2="319.400551" class="t" />
<line x1="513.376898" y1="298.073231" x2="500.583770" y2="300.356357" class="t" />
<line x1="509.133738" y1="307.588048" x2="497.953995" y2="302.336930" class="t" />
<line x1="445.584307" y1="343.081618" x2="455.722246" y2="335.506667" class="t" />
<line x1="494.425456" y1="314.022020" x2="484.518644" y2="312.210514" class="t" />
<line x1="463.080021" y1="333.483703" x2="473.179716" y2="326.161720" class="t" />
<line x1="481.843927" y1="325.747780" x2="473.179716" y2="326.161720" class="t" />
<line x1="524.858289" y1="304.014514" x2="513.376898" y2="298.073231" class="t" />
<line x1="521.991315" y1="305.731066" x2="509.133738" y2="307.588048" class="t" />
<line x1="462.271706" y1="340.430055" x2="463.080021" y2="333.483703" class="t" />
<line x1="492.688514" y1="319.538017" x2="481.843927" y2="325.747780" class="t" />
<line x1="480.259864" y1="332.517783" x2="481.843927" y2="325.747780" class="t" />
<line x1="446.363429" y1="350.777360" x2="445.584307" y2="343.081618" class="t" />
<line x1="451.765310" y1="347.401781" x2="462.271706" y2="340.430055" class="t" />
<line x1="506.654187" y1="310.404422" x2="494.425456" y2="314.022020" class="t" />
<line x1="489.013079" y1="333.151801" x2="480.259864" y2="332.517783" class="t" />
<line x1="469.591939" y1="338.915625" x2="480.259864" y2="332.517783" class="t" />
<line x1="452.029459" y1="355.117018" x2="451.765310" y2="347.401781" class="t" />
<line x1="486.813888" y1="339.867868" x2="489.013079" y2="333.151801" class="t" />
<line x1="500.491865" y1="328.224311" x2="489.013079" y2="333.151801" class="t" />
<line x1="468.180540" y1="345.824148" x2="469.591939" y2="338.915625" class="t" />
<line x1="495.542114" y1="341.759600" x2="486.813888" y2="339.867868" class="t" />
<line x1="475.527003" y1="345.056415" x2="486.813888" y2="339.867868" class="t" />
<line x1="501.891828" y1="320.711670" x2="500.491865" y2="328.224311" class="t" />
<line x1="457.160324" y1="351.850737" x2="468.180540" y2="345.824148" class="t" />
<line x1="507.583731" y1="338.400524" x2="495.542114" y2="341.759600" class="t" />
<line x1="513.903437" y1="316.369656" x2="501.891828" y2="320.711670" class="t" />
<line x1="456.726989" y1="359.580709" x2="457.160324" y2="351.850737" class="t" />
<line x1="509.768802" y1="330.898190" x2="507.583731" y2="338.400524" class="t" />
<line x1="516.805822" y1="344.436109" x2="507.583731" y2="338.400524" class="t" />
<line x1="514.478566" y1="307.919811" x2="513.903437" y2="316.369656" class="t" />
<line x1="522.287649" y1="328.197548" x2="509.768802" y2="330.898190" class="t" />
<line x1="529.637837" y1="345.411477" x2="516.805822" y2="344.436109" class="t" />
<line x1="512.750019" y1="351.318584" x2="516.805822" y2="344.436109" class="t" />
<line x1="526.838302" y1="303.893695" x2="514.478566" y2="307.919811" class="t" />
<line x1="523.780427" y1="319.680171" x2="522.287649" y2="328.197548" class="t" />
<line x1="527.332218" y1="295.344962" x2="526.838302" y2="303.893695" class="t" />
<line x1="536.593812" y1="317.307427" x2="523.780427" y2="319.680171" class="t" />
<line x1="533.311440" y1="337.378312" x2="529.637837" y2="345.411477" class="t" />
<line x1="538.056588" y1="308.749799" x2="536.593812" y2="317.307427" class="t" />
<line x1="546.332309" y1="338.737998" x2="533.311440" y2="337.378312" class="t" />
<line x1="520.047400" y1="360.123043" x2="512.750019" y2="351.318584" class="t" />
<line x1="550.009897" y1="330.717608" x2="546.332309" y2="338.737998" class="t" />
<line x1="532.125478" y1="364.814194" x2="520.047400" y2="360.123043" class="t" />
<line x1="514.270792" y1="365.901920" x2="520.047400" y2="360.123043" class="t" />
<line x1="537.845839" y1="357.820334" x2="532.125478" y2="364.814194" class="t" />
<line x1="518.792252" y1="376.916396" x2="514.270792" y2="365.901920" class="t" />
<line x1="502.266979" y1="362.063652" x2="514.270792" y2="365.901920" class="t" />
<line x1="550.004199" y1="362.917881" x2="537.845839" y2="357.820334" class="t" />
<line x1="529.030111" y1="385.066077" x2="518.792252" y2="376.916396" class="t" />
<line x1="511.579578" y1="381.139796" x2="518.792252" y2="376.916396" class="t" />
<line x1="495.768273" y1="355.214416" x2="502.266979" y2="362.063652" class="t" />
<line x1="555.722625" y1="355.971565" x2="550.004199" y2="362.917881" class="t" />
<line x1="536.532191" y1="379.646173" x2="529.030111" y2="385.066077" class="t" />
<line x1="512.607909" y1="393.535533" x2="511.579578" y2="381.139796" class="t" />
<line x1="501.173440" y1="373.853299" x2="511.579578" y2="381.139796" class="t" />
<line x1="483.414232" y1="353.760017" x2="495.768273" y2="355.214416" class="t" />
<line x1="546.731046" y1="388.211071" x2="536.532191" y2="379.646173" class="t" />
<line x1="519.946256" y1="404.557272" x2="512.607909" y2="393.535533" class="t" />
<line x1="504.351903" y1="395.808316" x2="512.607909" y2="393.535533" class="t" />
<line x1="496.894998" y1="365.032812" x2="501.173440" y2="373.853299" class="t" />
<line x1="476.872335" y1="347.286844" x2="483.414232" y2="353.760017" class="t" />
<line x1="528.837862" y1="401.194921" x2="519.946256" y2="404.557272" class="t" />
<line x1="501.372328" y1="408.511328" x2="504.351903" y2="395.808316" class="t" />
<line x1="496.594355" y1="385.588935" x2="504.351903" y2="395.808316" class="t" />
<line x1="485.436378" y1="360.079804" x2="496.894998" y2="365.032812" class="t" />
<line x1="464.824992" y1="343.861316" x2="476.872335" y2="347.286844" class="t" />
<line x1="536.014712" y1="412.617737" x2="528.837862" y2="401.194921" class="t" />
<line x1="504.911400" y1="421.474242" x2="501.372328" y2="408.511328" class="t" />
<line x1="495.190557" y1="375.443876" x2="496.594355" y2="385.588935" class="t" />
<line x1="480.961091" y1="351.784107" x2="485.436378" y2="360.079804" class="t" />
<line x1="459.900544" y1="334.020130" x2="464.824992" y2="343.861316" class="t" />
<line x1="544.867675" y1="409.313492" x2="536.014712" y2="412.617737" class="t" />
<line x1="514.663546" y1="420.556836" x2="504.911400" y2="421.474242" class="t" />
<line x1="485.655527" y1="367.253176" x2="495.190557" y2="375.443876" class="t" />
<line x1="470.321185" y1="345.136612" x2="480.961091" y2="351.784107" class="t" />
<line x1="496.672742" y1="435.746806" x2="504.911400" y2="421.474242" class="t" />
<line x1="517.918644" y1="433.877073" x2="514.663546" y2="420.556836" class="t" />
<line x1="483.842154" y1="357.682223" x2="485.655527" y2="367.253176" class="t" />
<line x1="468.351080" y1="334.176560" x2="470.321185" y2="345.136612" class="t" />
<line x1="486.546307" y1="435.525859" x2="496.672742" y2="435.746806" class="t" />
<line x1="497.586949" y1="449.702297" x2="496.672742" y2="435.746806" class="t" />
<line x1="527.627283" y1="433.000248" x2="517.918644" y2="433.877073" class="t" />
<line x1="475.577587" y1="348.172382" x2="483.842154" y2="357.682223" class="t" />
<line x1="475.423638" y1="448.934824" x2="486.546307" y2="435.525859" class="t" />
<line x1="485.277784" y1="421.902162" x2="486.546307" y2="435.525859" class="t" />
<line x1="507.693236" y1="449.938038" x2="497.586949" y2="449.702297" class="t" />
<line x1="476.980733" y1="336.881161" x2="475.577587" y2="348.172382" class="t" />
<line x1="473.644125" y1="463.142119" x2="475.423638" y2="448.934824" class="t" />
<line x1="508.957674" y1="463.568633" x2="507.693236" y2="449.938038" class="t" />
<line x1="465.017775" y1="447.387836" x2="475.423638" y2="448.934824" class="t" />
<line x1="484.076763" y1="464.683345" x2="473.644125" y2="463.142119" class="t" />
<line x1="517.911610" y1="464.581659" x2="508.957674" y2="463.568633" class="t" />
<line x1="450.818868" y1="459.237659" x2="465.017775" y2="447.387836" class="t" />
<line x1="466.351245" y1="433.480012" x2="465.017775" y2="447.387836" class="t" />
<line x1="482.673885" y1="478.633762" x2="484.076763" y2="464.683345" class="t" />
<line x1="526.547499" y1="454.006032" x2="517.911610" y2="464.581659" class="t" />
<line x1="446.015292" y1="473.143454" x2="450.818868" y2="459.237659" class="t" />
<line x1="474.134753" y1="421.208444" x2="466.351245" y2="433.480012" class="t" />
<line x1="457.252230" y1="431.319634" x2="466.351245" y2="433.480012" class="t" />
<line x1="474.103021" y1="491.883052" x2="482.673885" y2="478.633762" class="t" />
<line x1="491.824764" y1="480.764903" x2="482.673885" y2="478.633762" class="t" />
<line x1="534.350675" y1="457.863940" x2="526.547499" y2="454.006032" class="t" />
<line x1="430.206992" y1="485.529553" x2="446.015292" y2="473.143454" class="t" />
<line x1="457.710549" y1="417.860666" x2="457.252230" y2="431.319634" class="t" />
<line x1="470.089976" y1="408.632536" x2="474.134753" y2="421.208444" class="t" />
<line x1="491.293494" y1="494.256631" x2="491.824764" y2="480.764903" class="t" />
<line x1="544.931996" y1="450.543786" x2="534.350675" y2="457.863940" class="t" />
<line x1="427.096119" y1="500.092954" x2="430.206992" y2="485.529553" class="t" />
<line x1="464.010902" y1="407.471635" x2="457.710549" y2="417.860666" class="t" />
<line x1="472.381982" y1="397.463262" x2="470.089976" y2="408.632536" class="t" />
<line x1="484.267244" y1="505.429370" x2="491.293494" y2="494.256631" class="t" />
<line x1="550.877576" y1="456.563298" x2="544.931996" y2="450.543786" class="t" />
<line x1="415.760051" y1="514.957360" x2="427.096119" y2="500.092954" class="t" />
<line x1="465.886359" y1="386.385169" x2="472.381982" y2="397.463262" class="t" />
<line x1="486.138718" y1="518.910522" x2="484.267244" y2="505.429370" class="t" />
<line x1="475.557839" y1="504.407492" x2="484.267244" y2="505.429370" class="t" />
<line x1="562.440489" y1="452.573999" x2="550.877576" y2="456.563298" class="t" />
<line x1="467.550949" y1="375.810124" x2="465.886359" y2="386.385169" class="t" />
<line x1="494.777435" y1="519.998043" x2="486.138718" y2="518.910522" class="t" />
<line x1="461.623321" y1="394.644831" x2="464.010902" y2="407.471635" class="t" />
<line x1="445.120937" y1="440.860133" x2="457.252230" y2="431.319634" class="t" />
<line x1="496.285756" y1="533.691792" x2="494.777435" y2="519.998043" class="t" />
<line x1="499.847817" y1="507.978579" x2="494.777435" y2="519.998043" class="t" />
<line x1="467.155540" y1="384.705965" x2="461.623321" y2="394.644831" class="t" />
<line x1="438.859589" y1="453.735740" x2="445.120937" y2="440.860133" class="t" />
<line x1="485.055063" y1="545.742675" x2="496.285756" y2="533.691792" class="t" />
<line x1="495.629629" y1="495.362518" x2="499.847817" y2="507.978579" class="t" />
<line x1="420.338033" y1="460.415859" x2="438.859589" y2="453.735740" class="t" />
<line x1="480.465175" y1="559.731706" x2="485.055063" y2="545.742675" class="t" />
<line x1="500.083793" y1="484.005570" x2="495.629629" y2="495.362518" class="t" />
<line x1="410.454087" y1="471.921825" x2="420.338033" y2="460.415859" class="t" />
<line x1="461.953195" y1="569.626714" x2="480.465175" y2="559.731706" class="t" />
<line x1="490.527901" y1="409.205428" x2="485.277784" y2="421.902162" class="t" />
<line x1="389.788300" y1="478.268756" x2="410.454087" y2="471.921825" class="t" />
<line x1="453.173130" y1="582.608625" x2="461.953195" y2="569.626714" class="t" />
<line x1="484.443680" y1="397.717257" x2="490.527901" y2="409.205428" class="t" />
<line x1="380.979259" y1="490.931199" x2="389.788300" y2="478.268756" class="t" />
<line x1="431.990766" y1="592.160837" x2="453.173130" y2="582.608625" class="t" />
<line x1="484.729002" y1="386.951368" x2="484.443680" y2="397.717257" class="t" />
<line x1="363.478389" y1="501.387984" x2="380.979259" y2="490.931199" class="t" />
<line x1="424.125310" y1="606.090879" x2="431.990766" y2="592.160837" class="t" />
<line x1="476.517570" y1="377.282637" x2="484.729002" y2="386.951368" class="t" />
<line x1="461.465975" y1="477.327064" x2="473.644125" y2="463.142119" class="t" />
<line x1="406.507411" y1="619.428540" x2="424.125310" y2="606.090879" class="t" />
<line x1="476.269670" y1="367.120139" x2="476.517570" y2="377.282637" class="t" />
<line x1="461.655731" y1="491.744824" x2="461.465975" y2="477.327064" class="t" />
<line x1="554.214065" y1="382.855248" x2="546.731046" y2="388.211071" class="t" />
<line x1="469.523909" y1="356.370309" x2="476.269670" y2="367.120139" class="t" />
<line x1="454.286668" y1="507.219093" x2="461.655731" y2="491.744824" class="t" />
<line x1="472.784291" y1="345.093143" x2="469.523909" y2="356.370309" class="t" />
<line x1="500.212321" y1="351.125075" x2="512.750019" y2="351.318584" class="t" />
<line x1="347.322500" y1="337.134657" x2="338.286157" y2="328.107889" class="t" />
<line x1="492.222777" y1="346.656940" x2="500.212321" y2="351.125075" class="t" />
<line x1="350.420657" y1="347.013732" x2="347.322500" y2="337.134657" class="t" />
<line x1="479.969318" y1="348.649349" x2="492.222777" y2="346.656940" class="t" />
<line x1="343.856764" y1="350.581829" x2="350.420657" y2="347.013732" class="t" />
<line x1="472.005956" y1="344.300220" x2="479.969318" y2="348.649349" class="t" />
<line x1="349.496859" y1="358.932805" x2="343.856764" y2="350.581829" class="t" />
<line x1="459.474890" y1="344.141655" x2="472.005956" y2="344.300220" class="t" />
<line x1="344.075306" y1="363.840007" x2="349.496859" y2="358.932805" class="t" />
<line x1="351.637251" y1="370.129708" x2="344.075306" y2="363.840007" class="t" />
<line x1="189.905803" y1="310.987504" x2="194.338547" y2="318.956247" class="t" />
<line x1="347.559688" y1="376.027376" x2="351.637251" y2="370.129708" class="t" />
<line x1="200.781127" y1="302.182687" x2="189.905803" y2="310.987504" class="t" />
<line x1="86.519953" y1="254.666225" x2="100.870523" y2="276.556898" class="t" />
<line x1="196.169027" y1="294.169325" x2="200.781127" y2="302.182687" class="t" />
</svg>
