<?xml version="1.0"?>
<svg width="575" height="635" version="1.1" xmlns="http://www.w3.org/2000/svg" >
<defs>
<style type="text/css"><![CDATA[
.m {stroke:rgb(255,0,0);stroke-width:0.793750;}
.v {stroke:rgb(0,0,255);stroke-width:0.793750;}
.b {stroke:rgb(0,0,0);stroke-width:1.587500;fill:white}
.n {stroke:rgb(128,128,128);stroke-width:0.793750}
.t {stroke:rgb(0,128,0);stroke-width:0.793750;}
.c {stroke:rgb(128,128,128);stroke-width:0.793750;stroke-dasharray:5.750000, 5.750000;}
]]></style>
</defs>
<path fill="none" style="stroke:black;stroke-width:1.587500;" d=" M 371.097 193.618 L 353.254 196.044 M 357.446 219.635 L 374.779 214.71 M 319.085 207.422 L 339.576 221.9 M 339.576 221.9 L 317.275 210.404 M 300.838 217.774 L 321.907 225.411 M 321.907 225.411 L 302.318 214.524 M 284.413 216.515 L 304.017 227.561 M 395.866 205.928 L 393.392 221.735 M 411.399 222.209 L 395.866 205.928 M 389.083 192.58 L 371.097 193.618 M 391.642 208.374 L 389.083 192.58 M 374.779 214.71 L 391.642 208.374 M 353.254 196.044 L 369.543 188.367 M 312.851 188.745 L 335.963 201.096 M 335.963 201.096 L 311.276 192.305 M 296.34 202.393 L 319.085 207.422 M 317.275 210.404 L 294.633 204.93 M 278.175 212.263 L 300.838 217.774 M 284.547 199.42 L 284.413 216.515 M 302.318 214.524 L 284.547 199.42 M 385.166 179.395 L 379.661 163.211 M 369.543 188.367 L 385.166 179.395 M 362.048 166.963 L 357.625 143.262 M 339.741 145.413 L 344.771 172.07 M 344.771 172.07 L 331.721 148.288 M 302.799 169.706 L 328.478 179.772 M 328.478 179.772 L 301.513 173.976 M 288.545 186.481 L 312.851 188.745 M 311.276 192.305 L 286.986 189.875 M 272.135 200.074 L 296.34 202.393 M 272.536 194.781 L 278.175 212.263 M 294.633 204.93 L 272.536 194.781 M 379.661 163.211 L 379.279 144.847 M 361.376 142.863 L 362.048 166.963 M 357.625 143.262 L 357.213 117.514 M 339.235 116.382 L 339.741 145.413 M 331.721 148.288 L 313.993 125.293 M 288.562 150.765 L 316.806 158.382 M 316.806 158.382 L 287.664 155.832 M 277.031 170.372 L 302.799 169.706 M 301.513 173.976 L 275.753 174.924 M 263.045 187.701 L 288.545 186.481 M 262.474 182.741 L 272.135 200.074 M 286.986 189.875 L 262.474 182.741 M 379.279 144.847 L 385.036 125.856 M 368.738 118.186 L 361.376 142.863 M 357.213 117.514 L 361.88 90.3607 M 344.488 85.657 L 339.235 116.382 M 313.993 125.293 L 291.614 103.595 M 280.023 117.386 L 300.676 137.433 M 300.676 137.433 L 276.55 121.738 M 261.363 154.391 L 288.562 150.765 M 287.664 155.832 L 260.619 160.466 M 250.528 175.381 L 277.031 170.372 M 275.753 174.924 L 249.021 171.332 M 233.684 180.801 L 263.045 187.701 M 385.036 125.856 L 384.656 95.6979 M 384.656 95.6979 L 368.738 118.186 M 361.88 90.3607 L 372.735 62.9153 M 356.782 54.5352 L 344.488 85.657 M 291.614 103.595 L 264.809 83.5648 M 254.898 98.6051 L 280.023 117.386 M 276.55 121.738 L 246.058 114.371 M 242.647 150.233 L 269.48 138.307 M 269.48 138.307 L 241.367 146.785 M 234.123 163.276 L 261.363 154.391 M 260.619 160.466 L 231.971 160.982 M 218.782 173.247 L 250.528 175.381 M 249.021 171.332 L 222.745 153.389 M 222.745 153.389 L 233.684 180.801 M 372.735 62.9153 L 390.591 36.966 M 377.053 25.0691 L 356.782 54.5352 M 264.809 83.5648 L 234.023 65.3601 M 225.58 81.2646 L 254.898 98.6051 M 246.058 114.371 L 212.168 117.8 M 220.851 152.757 L 244.848 132.354 M 244.848 132.354 L 218.824 150.1 M 217.933 168.095 L 242.647 150.233 M 241.367 146.785 L 211.296 151.844 M 200.717 166.427 L 234.123 163.276 M 231.971 160.982 L 201.513 146.903 M 201.513 146.903 L 218.782 173.247 M 162.993 153.64 L 200.717 166.427 M 405.427 0 L 377.053 25.0691 M 390.591 36.966 L 405.427 0 M 234.023 65.3601 L 199.938 48.8747 M 199.938 48.8747 L 192.627 65.3431 M 192.627 65.3431 L 225.58 81.2646 M 212.168 117.8 L 178.915 133.084 M 178.915 133.084 L 188.965 148.043 M 188.965 148.043 L 216.901 135.183 M 216.901 135.183 L 187.99 145.668 M 201.802 178.81 L 220.851 152.757 M 218.824 150.1 L 190.577 165.709 M 186.161 183.175 L 217.933 168.095 M 211.296 151.844 L 177.33 142.723 M 145.071 184.946 L 186.161 183.175 M 143.5 119.335 L 162.993 153.64 M 177.33 142.723 L 143.5 119.335 M 170.187 114.427 L 137.841 137.022 M 137.841 137.022 L 148.438 151.59 M 180.142 129.446 L 170.187 114.427 M 148.438 151.59 L 160.917 164.587 M 187.99 145.668 L 180.142 129.446 M 183.173 192.788 L 196.234 161.68 M 196.234 161.68 L 174.077 187.123 M 176.504 204.977 L 201.802 178.81 M 190.577 165.709 L 154.379 169.519 M 141.43 204.419 L 138.551 222.205 M 138.551 222.205 L 176.504 204.977 M 113.915 159.528 L 145.071 184.946 M 154.379 169.519 L 113.915 159.528 M 134.973 139.713 L 109.579 170.89 M 109.579 170.89 L 123.602 182.2 M 148.828 151.227 L 134.973 139.713 M 123.602 182.2 L 139.109 191.374 M 160.917 164.587 L 148.828 151.227 M 154.568 200.627 L 168.482 212.072 M 168.482 212.072 L 173.141 177.817 M 173.141 177.817 L 158.363 209.07 M 158.363 209.07 L 165.888 225.44 M 165.888 225.44 L 183.173 192.788 M 174.077 187.123 L 141.43 204.419 M 0 279.334 L 33.9291 285.817 M 39.9775 268.847 L 0.736458 261.332 M 0.736458 261.332 L 0 279.334 M 87.8409 180.749 L 87.98 220.703 M 105.997 220.817 L 87.8409 180.749 M 122.374 182.287 L 105.49 176.004 M 105.49 176.004 L 108.17 219.912 M 125.756 223.812 L 122.374 182.287 M 139.109 191.374 L 123.599 182.205 M 123.599 182.205 L 125.756 223.812 M 143.266 228.059 L 159.99 234.763 M 171.191 207.573 L 154.568 200.627 M 159.99 234.763 L 175.491 243.935 M 188.657 211.999 L 171.191 207.573 M 175.491 243.935 L 188.657 211.999 M 33.9291 285.817 L 62.978 301.533 M 73.9717 287.253 L 39.9775 268.847 M 71.3968 232.776 L 85.6303 268.718 M 102.533 262.505 L 71.3968 232.776 M 87.98 220.703 L 104.982 260.253 M 122.89 258.289 L 105.997 220.817 M 108.17 219.912 L 122.89 258.289 M 140.848 256.911 L 158.834 257.988 M 161.188 229.914 L 143.266 228.059 M 158.834 257.988 L 176.416 261.914 M 179.176 229.002 L 161.188 229.914 M 176.416 261.914 L 179.176 229.002 M 391.221 635.665 L 417.493 619.678 M 410.808 602.943 L 391.221 635.665 M 62.978 301.533 L 99.0489 313.915 M 112.632 302.077 L 73.9717 287.253 M 85.6303 268.718 L 114.449 298.448 M 130.684 290.663 L 102.533 262.505 M 104.982 260.253 L 130.684 290.663 M 147.269 283.614 L 164.606 278.744 M 158.498 253.285 L 140.848 256.911 M 164.606 278.744 L 182.518 276.824 M 175.35 246.917 L 158.498 253.285 M 182.518 276.824 L 175.35 246.917 M 347.848 514.809 L 373.51 503.411 M 369.077 485.944 L 347.848 514.809 M 417.493 619.678 L 444.075 595.652 M 441.089 577.887 L 410.808 602.943 M 99.0489 313.915 L 134.872 330.082 M 147.544 317.282 L 112.632 302.077 M 114.449 298.448 L 147.544 317.282 M 160.909 305.194 L 175.619 294.795 M 162.889 274.654 L 147.269 283.614 M 175.619 294.795 L 191.879 287.026 M 176.871 263.294 L 162.889 274.654 M 191.879 287.026 L 176.871 263.294 M 407.083 531.694 L 425.226 513.998 M 414.971 499.181 L 407.083 531.694 M 373.51 503.411 L 400.351 483.438 M 399.937 465.424 L 369.077 485.944 M 444.075 595.652 L 474.355 574.286 M 470.415 556.707 L 441.089 577.887 M 134.872 330.082 L 170.61 335.693 M 179.234 319.885 L 189.558 305.116 M 172.869 291.724 L 160.909 305.194 M 189.558 305.116 L 202.246 292.333 M 182.475 276.476 L 172.869 291.724 M 202.246 292.333 L 182.475 276.476 M 449.71 523.803 L 462.965 505.276 M 450.185 492.579 L 449.71 523.803 M 425.226 513.998 L 441.091 487.101 M 434.559 470.307 L 414.971 499.181 M 400.351 483.438 L 431.074 466.904 M 430.003 448.92 L 399.937 465.424 M 474.355 574.286 L 496.625 548.202 M 488.125 532.319 L 470.415 556.707 M 170.61 335.693 L 199.523 327.182 M 199.523 327.182 L 204.259 309.802 M 186.224 303.276 L 179.234 319.885 M 204.259 309.802 L 211.86 293.47 M 190.423 285.762 L 186.224 303.276 M 211.86 293.47 L 190.423 285.762 M 467.981 506.394 L 482.511 491.876 M 471.817 477.38 L 467.981 506.394 M 462.965 505.276 L 471.817 477.38 M 462.396 462.022 L 450.185 492.579 M 441.091 487.101 L 462.396 462.022 M 455.502 445.383 L 434.559 470.307 M 431.074 466.904 L 455.502 445.383 M 449.859 428.277 L 430.003 448.92 M 496.625 548.202 L 504.107 520.554 M 478.191 517.291 L 488.125 532.319 M 465.972 504.056 L 478.191 517.291 M 482.511 491.876 L 465.972 504.056 M 499.27 483.773 L 493.694 466.646 M 493.694 466.646 L 486.719 450.024 M 456.877 405.006 L 449.859 428.277 M 504.107 520.554 L 503.336 496.261 M 491.453 482.706 L 492.1 507.121 M 492.1 507.121 L 499.27 483.773 M 511.328 476.312 L 525.368 466.701 M 498.507 463.662 L 511.328 476.312 M 517.038 450.732 L 507.535 435.421 M 486.719 450.024 L 498.507 463.662 M 482.914 409.153 L 477.156 434.758 M 477.156 434.758 L 478.852 408.569 M 465.021 397.03 L 466.396 420.299 M 466.396 420.299 L 468.76 397.11 M 459.234 381.818 L 456.877 405.006 M 503.336 496.261 L 505.463 473.05 M 505.463 473.05 L 491.453 482.706 M 525.368 466.701 L 540.448 462.305 M 537.236 444.586 L 517.038 450.732 M 521.201 447.167 L 536.661 432.79 M 536.661 432.79 L 525.02 419.043 M 507.535 435.421 L 521.201 447.167 M 525.02 419.043 L 511.435 407.207 M 496.918 396.532 L 495.764 421.795 M 495.764 421.795 L 492.906 396.668 M 477.511 387.331 L 482.914 409.153 M 478.852 408.569 L 473.272 386.791 M 459.365 375.334 L 465.021 397.03 M 468.76 397.11 L 473.473 375.19 M 473.473 375.19 L 459.234 381.818 M 540.448 462.305 L 555.073 462.644 M 557.112 444.74 L 537.236 444.586 M 543.216 423.982 L 553.277 406.839 M 553.277 406.839 L 538.11 397.12 M 526.718 416.752 L 543.216 423.982 M 538.11 397.12 L 521.686 389.714 M 511.435 407.207 L 526.718 416.752 M 488.163 376.548 L 496.918 396.532 M 492.906 396.668 L 483.77 376.856 M 468.272 367.661 L 477.511 387.331 M 473.272 386.791 L 470.015 365.305 M 470.015 365.305 L 459.365 375.334 M 463.532 344.606 L 468.272 367.661 M 575.136 450.337 L 557.112 444.74 M 555.073 462.644 L 575.136 450.337 M 556.937 396.711 L 561.513 378.401 M 561.513 378.401 L 544.192 373.454 M 539.064 394.468 L 556.937 396.711 M 544.192 373.454 L 526.341 371.016 M 521.686 389.714 L 539.064 394.468 M 490.467 367.854 L 504.703 383.686 M 504.703 383.686 L 492.706 366.097 M 476.098 359.114 L 488.163 376.548 M 483.77 376.856 L 476.768 356.843 M 467.913 337.567 L 476.098 359.114 M 478.053 333.83 L 463.532 344.606 M 476.768 356.843 L 478.053 333.83 M 562.155 367.975 L 561.511 349.905 M 561.511 349.905 L 543.502 350.035 M 544.356 370.744 L 562.155 367.975 M 543.502 350.035 L 525.68 352.683 M 526.341 371.016 L 544.356 370.744 M 490.329 359.501 L 508.35 370.019 M 508.35 370.019 L 491.867 357.225 M 473.974 355.16 L 490.467 367.854 M 492.706 366.097 L 482.722 347.836 M 459.948 337.282 L 473.974 355.16 M 480.307 325.241 L 467.913 337.567 M 482.722 347.836 L 480.307 325.241 M 559.351 340.102 L 553.977 323.468 M 553.977 323.468 L 536.701 328.583 M 542.945 347.529 L 559.351 340.102 M 536.701 328.583 L 520.289 336.023 M 525.68 352.683 L 542.945 347.529 M 488.067 352.102 L 508.121 356.67 M 508.121 356.67 L 488.854 349.472 M 471.059 352.307 L 490.329 359.501 M 491.867 357.225 L 477.041 342.967 M 452.712 339.195 L 471.059 352.307 M 468.064 322.28 L 459.948 337.282 M 477.041 342.967 L 468.064 322.28 M 549.444 314.978 L 539.959 300.801 M 539.959 300.801 L 524.767 310.471 M 535.57 326.474 L 549.444 314.978 M 524.767 310.471 L 511.004 322.096 M 520.289 336.023 L 535.57 326.474 M 511.004 322.096 L 498.014 334.576 M 484.164 346.1 L 504.449 344.603 M 504.449 344.603 L 484.153 343.266 M 467.688 350.58 L 488.067 352.102 M 488.854 349.472 L 470.704 340.082 M 464.177 339.055 L 446.559 342.79 M 446.559 342.79 L 467.688 350.58 M 456.286 322.783 L 452.712 339.195 M 470.704 340.082 L 456.286 322.783 M 539.293 299.96 L 528.278 287.28 M 528.278 287.28 L 514.426 298.796 M 526.796 312.926 L 539.293 299.96 M 514.426 298.796 L 502.214 312.038 M 512.7 324.145 L 526.796 312.926 M 502.214 312.038 L 490.761 325.952 M 498.014 334.576 L 512.7 324.145 M 478.264 338.928 L 464.153 350.142 M 464.153 350.142 L 484.164 346.1 M 484.153 343.266 L 464.177 339.055 M 458.758 345.145 L 445.203 357.007 M 445.203 357.007 L 457.458 368.335 M 457.458 368.335 L 467.52 353.4 M 536.43 309.379 L 526.379 296.058 M 511.766 306.607 L 536.43 309.379 M 520.237 314.408 L 534.987 304.066 M 534.987 304.066 L 510.75 298.719 M 496.414 309.637 L 520.237 314.408 M 504.759 317.825 L 519.702 307.765 M 519.702 307.765 L 495.501 305.623 M 483.016 318.618 L 504.759 317.825 M 490.761 325.952 L 504.288 314.045 M 504.288 314.045 L 483.016 318.618 M 471.754 332.674 L 458.758 345.145 M 467.52 353.4 L 478.264 338.928 M 452.717 340.584 L 440.235 353.589 M 440.235 353.589 L 453.51 363.729 M 453.51 363.729 L 462.344 348.033 M 527.959 303.924 L 518.157 290.398 M 503.368 300.671 L 527.959 303.924 M 526.379 296.058 L 501.986 291.555 M 488 302.907 L 511.766 306.607 M 510.75 298.719 L 486.698 298.655 M 475.039 312.39 L 496.414 309.637 M 495.501 305.623 L 475.039 312.39 M 464.769 327.194 L 452.717 340.584 M 462.344 348.033 L 471.754 332.674 M 446.021 336.192 L 434.355 349.918 M 434.355 349.918 L 448.358 359.279 M 448.358 359.279 L 456.377 343.135 M 519.669 300.601 L 510.447 286.506 M 495.241 296.164 L 519.669 300.601 M 518.157 290.398 L 493.734 285.931 M 479.79 297.346 L 503.368 300.671 M 501.986 291.555 L 478.212 292.874 M 467.039 306.999 L 488 302.907 M 486.698 298.655 L 467.039 306.999 M 457.416 322.229 L 446.021 336.192 M 456.377 343.135 L 464.769 327.194 M 247.899 385.477 L 255.779 375.268 M 242.849 362.721 L 232.441 376.227 M 232.441 376.227 L 247.899 385.477 M 225.198 350.689 L 242.248 350.87 M 242.506 332.856 L 225.198 350.689 M 510.447 286.506 L 486.116 281.445 M 471.946 292.574 L 495.241 296.164 M 493.734 285.931 L 470.248 287.906 M 459.164 302.112 L 479.79 297.346 M 478.212 292.874 L 459.164 302.112 M 449.763 317.48 L 438.665 331.673 M 449.62 338.478 L 457.416 322.229 M 438.665 331.673 L 449.62 338.478 M 255.779 375.268 L 266.135 366.727 M 256.197 351.692 L 242.849 362.721 M 243.972 352.657 L 261.115 350.221 M 258.392 332.412 L 243.972 352.657 M 242.248 350.87 L 259.556 333.031 M 257.615 315.119 L 242.506 332.856 M 486.116 281.445 L 462.897 283.388 M 451.513 297.367 L 471.946 292.574 M 470.248 287.906 L 451.513 297.367 M 441.887 312.592 L 430.702 326.71 M 442.106 333.789 L 449.763 317.48 M 430.702 326.71 L 442.106 333.789 M 266.135 366.727 L 278.591 360.3 M 271.843 343.592 L 256.197 351.692 M 261.683 351.06 L 278.636 346.263 M 273.234 329.074 L 261.683 351.06 M 261.115 350.221 L 275.009 329.636 M 269.777 312.393 L 258.392 332.412 M 259.556 333.031 L 269.777 312.393 M 263.997 295.329 L 257.615 315.119 M 462.897 283.388 L 444.159 292.402 M 433.891 307.201 L 441.887 312.592 M 359.789 374.558 L 356.261 365.584 M 344.028 383.277 L 359.789 374.558 M 338.862 370.247 L 344.028 383.277 M 291.98 363.991 L 303.278 354.645 M 292.867 339.943 L 291.98 363.991 M 278.591 360.3 L 289.109 338.656 M 283.311 321.601 L 271.843 343.592 M 278.636 346.263 L 289.066 323.761 M 280.995 307.655 L 273.234 329.074 M 275.009 329.636 L 280.995 307.655 M 272.204 291.939 L 263.997 295.329 M 444.159 292.402 L 437.18 286.913 M 425.913 300.971 L 433.891 307.201 M 356.261 365.584 L 355.126 355.525 M 337.104 355.689 L 338.862 370.247 M 316.874 355.223 L 326.194 343.061 M 312.54 331.311 L 316.874 355.223 M 303.278 354.645 L 308.851 330.99 M 298.998 315.909 L 292.867 339.943 M 289.109 338.656 L 298.998 315.909 M 290.315 300.113 L 283.311 321.601 M 289.066 323.761 L 291.18 301.259 M 279.896 287.222 L 272.204 291.939 M 437.18 286.913 L 430.663 280.672 M 418.161 293.636 L 425.913 300.971 M 355.126 355.525 L 356.795 344.985 M 339.341 340.531 L 337.104 355.689 M 329.686 317.905 L 339.341 340.531 M 326.194 343.061 L 326.241 318.461 M 312.848 306.406 L 312.54 331.311 M 308.851 330.99 L 312.848 306.406 M 300.348 293.439 L 290.315 300.113 M 291.18 301.259 L 300.348 293.439 M 287.043 281.29 L 279.896 287.222 M 430.663 280.672 L 424.776 273.488 M 410.919 285.006 L 418.161 293.636 M 352.106 323.463 L 369.495 336.973 M 369.495 336.973 L 369.988 325.717 M 356.795 344.985 L 345.832 325.888 M 340.053 301.609 L 352.106 323.463 M 345.832 325.888 L 340.053 301.609 M 323.972 293.483 L 329.686 317.905 M 326.241 318.461 L 323.972 293.483 M 308.473 284.298 L 293.579 274.17 M 293.579 274.17 L 287.043 281.29 M 424.776 273.488 L 419.661 265.287 M 404.471 274.977 L 410.919 285.006 M 363.267 304.247 L 382.357 315.859 M 382.357 315.859 L 381.281 303.985 M 369.988 325.717 L 357.081 307.477 M 348.52 283.547 L 363.267 304.247 M 357.081 307.477 L 348.52 283.547 M 331.486 277.697 L 314.076 273.049 M 314.076 273.049 L 297.029 267.218 M 297.029 267.218 L 292.374 276.222 M 292.374 276.222 L 308.473 284.298 M 419.661 265.287 L 415.543 256.026 M 399.165 263.545 L 404.471 274.977 M 372.194 282.849 L 392.935 292.139 M 392.935 292.139 L 389.965 279.89 M 381.281 303.985 L 366.199 286.984 M 354.591 263.74 L 372.194 282.849 M 366.199 286.984 L 354.591 263.74 M 336.87 260.441 L 318.972 258.357 M 314.846 270.78 L 331.486 277.697 M 318.972 258.357 L 301.269 255.006 M 301.269 255.006 L 297.739 265.132 M 297.739 265.132 L 314.846 270.78 M 415.543 256.026 L 412.631 245.705 M 395.341 250.76 L 399.165 263.545 M 378.289 259.352 L 400.561 265.879 M 400.561 265.879 L 395.358 253.591 M 389.965 279.89 L 372.592 264.501 M 357.736 242.338 L 378.289 259.352 M 372.592 264.501 L 357.736 242.338 M 339.731 241.774 L 321.727 242.438 M 319.408 255.997 L 336.87 260.441 M 321.727 242.438 L 303.721 241.746 M 303.721 241.746 L 301.651 252.948 M 301.651 252.948 L 319.408 255.997 M 412.631 245.705 L 411.169 234.408 M 393.31 236.757 L 395.341 250.76 M 375.636 240.274 L 397.188 250.365 M 397.188 250.365 L 393.31 236.757 M 395.358 253.591 L 375.636 240.274 M 375.461 220.001 L 357.446 219.635 M 321.798 240.041 L 339.731 241.774 M 303.782 239.76 L 321.798 240.041 M 304.017 227.561 L 303.782 239.76 M 411.169 234.408 L 411.399 222.209 M 393.392 221.735 L 375.461 220.001" />
<path fill="none" class="c" d=" M 374.779 214.71 L 371.097 193.618 M 353.254 196.044 L 374.779 214.71 M 391.642 208.374 L 371.097 193.618 M 353.254 196.044 L 357.446 219.635 M 353.254 196.044 L 335.963 201.096 M 335.963 201.096 L 357.446 219.635 M 353.254 196.044 L 328.478 179.772 M 328.478 179.772 L 335.963 201.096 M 335.963 201.096 L 339.576 221.9 M 344.771 172.07 L 328.478 179.772 M 328.478 179.772 L 312.851 188.745 M 316.806 158.382 L 328.478 179.772 M 344.771 172.07 L 316.806 158.382 M 301.513 173.976 L 312.851 188.745 M 316.806 158.382 L 302.799 169.706 M 331.721 148.288 L 316.806 158.382 M 301.513 173.976 L 288.545 186.481 M 335.963 201.096 L 319.085 207.422 M 339.576 221.9 L 357.446 219.635 M 353.254 196.044 L 344.771 172.07 M 300.676 137.433 L 316.806 158.382 M 357.736 242.338 L 357.446 219.635 M 369.543 188.367 L 344.771 172.07 M 300.676 137.433 L 288.562 150.765 M 357.736 242.338 L 375.636 240.274 M 375.636 240.274 L 357.446 219.635 M 362.048 166.963 L 344.771 172.07 M 375.636 240.274 L 375.461 220.001 M 362.048 166.963 L 339.741 145.413 M 375.636 240.274 L 393.31 236.757 M 393.31 236.757 L 375.461 220.001 M 357.625 143.262 L 339.741 145.413 M 393.31 236.757 L 393.392 221.735 M 357.625 143.262 L 339.235 116.382 M 393.31 236.757 L 411.169 234.408 M 411.169 234.408 L 393.392 221.735 M 357.213 117.514 L 339.235 116.382 M 393.31 236.757 L 412.631 245.705 M 411.399 222.209 L 393.392 221.735 M 269.48 138.307 L 288.562 150.765 M 300.676 137.433 L 269.48 138.307 M 378.289 259.352 L 375.636 240.274 M 395.341 250.76 L 412.631 245.705 M 369.543 188.367 L 362.048 166.963 M 269.48 138.307 L 261.363 154.391 M 276.55 121.738 L 269.48 138.307 M 378.289 259.352 L 395.358 253.591 M 385.166 179.395 L 362.048 166.963 M 275.753 174.924 L 288.545 186.481 M 311.276 192.305 L 319.085 207.422 M 339.576 221.9 L 357.736 242.338 M 275.753 174.924 L 263.045 187.701 M 311.276 192.305 L 296.34 202.393 M 339.731 241.774 L 357.736 242.338 M 339.576 221.9 L 339.731 241.774 M 249.021 171.332 L 263.045 187.701 M 286.986 189.875 L 296.34 202.393 M 354.591 263.74 L 357.736 242.338 M 339.731 241.774 L 354.591 263.74 M 354.591 263.74 L 372.592 264.501 M 339.731 241.774 L 336.87 260.441 M 336.87 260.441 L 354.591 263.74 M 372.194 282.849 L 372.592 264.501 M 321.727 242.438 L 336.87 260.441 M 348.52 283.547 L 354.591 263.74 M 336.87 260.441 L 348.52 283.547 M 372.194 282.849 L 389.965 279.89 M 321.727 242.438 L 319.408 255.997 M 348.52 283.547 L 366.199 286.984 M 331.486 277.697 L 348.52 283.547 M 303.721 241.746 L 319.408 255.997 M 363.267 304.247 L 366.199 286.984 M 340.053 301.609 L 348.52 283.547 M 331.486 277.697 L 340.053 301.609 M 363.267 304.247 L 381.281 303.985 M 340.053 301.609 L 357.081 307.477 M 323.972 293.483 L 340.053 301.609 M 331.486 277.697 L 323.972 293.483 M 352.106 323.463 L 357.081 307.477 M 329.686 317.905 L 340.053 301.609 M 314.076 273.049 L 323.972 293.483 M 352.106 323.463 L 369.988 325.717 M 329.686 317.905 L 345.832 325.888 M 308.473 284.298 L 323.972 293.483 M 314.076 273.049 L 308.473 284.298 M 336.87 260.441 L 331.486 277.697 M 308.473 284.298 L 312.848 306.406 M 321.907 225.411 L 339.731 241.774 M 249.021 171.332 L 233.684 180.801 M 286.986 189.875 L 272.135 200.074 M 339.576 221.9 L 321.907 225.411 M 300.348 293.439 L 312.848 306.406 M 321.907 225.411 L 321.798 240.041 M 244.848 132.354 L 269.48 138.307 M 379.661 163.211 L 362.048 166.963 M 395.341 250.76 L 415.543 256.026 M 276.55 121.738 L 244.848 132.354 M 241.367 146.785 L 261.363 154.391 M 298.998 315.909 L 312.848 306.406 M 304.017 227.561 L 321.798 240.041 M 244.848 132.354 L 242.647 150.233 M 379.661 163.211 L 361.376 142.863 M 399.165 263.545 L 415.543 256.026 M 241.367 146.785 L 234.123 163.276 M 298.998 315.909 L 308.851 330.99 M 246.058 114.371 L 244.848 132.354 M 379.279 144.847 L 361.376 142.863 M 399.165 263.545 L 419.661 265.287 M 216.901 135.183 L 244.848 132.354 M 379.279 144.847 L 368.738 118.186 M 404.471 274.977 L 419.661 265.287 M 216.901 135.183 L 220.851 152.757 M 385.036 125.856 L 368.738 118.186 M 404.471 274.977 L 424.776 273.488 M 196.234 161.68 L 220.851 152.757 M 216.901 135.183 L 196.234 161.68 M 410.919 285.006 L 424.776 273.488 M 196.234 161.68 L 201.802 178.81 M 187.99 145.668 L 196.234 161.68 M 410.919 285.006 L 430.663 280.672 M 174.077 187.123 L 201.802 178.81 M 187.99 145.668 L 173.141 177.817 M 173.141 177.817 L 196.234 161.68 M 418.161 293.636 L 430.663 280.672 M 174.077 187.123 L 176.504 204.977 M 187.99 145.668 L 160.917 164.587 M 160.917 164.587 L 173.141 177.817 M 173.141 177.817 L 183.173 192.788 M 418.161 293.636 L 437.18 286.913 M 141.43 204.419 L 176.504 204.977 M 180.142 129.446 L 160.917 164.587 M 154.568 200.627 L 173.141 177.817 M 180.142 129.446 L 148.438 151.59 M 160.917 164.587 L 154.568 200.627 M 170.187 114.427 L 148.438 151.59 M 139.109 191.374 L 154.568 200.627 M 160.917 164.587 L 139.109 191.374 M 143.266 228.059 L 154.568 200.627 M 139.109 191.374 L 143.266 228.059 M 148.828 151.227 L 139.109 191.374 M 159.99 234.763 L 154.568 200.627 M 139.109 191.374 L 125.756 223.812 M 125.756 223.812 L 143.266 228.059 M 148.828 151.227 L 123.602 182.2 M 159.99 234.763 L 171.191 207.573 M 125.756 223.812 L 140.848 256.911 M 140.848 256.911 L 143.266 228.059 M 134.973 139.713 L 123.602 182.2 M 175.491 243.935 L 171.191 207.573 M 125.756 223.812 L 122.89 258.289 M 122.89 258.289 L 140.848 256.911 M 158.834 257.988 L 143.266 228.059 M 125.756 223.812 L 108.17 219.912 M 147.269 283.614 L 140.848 256.911 M 158.834 257.988 L 161.188 229.914 M 122.374 182.287 L 108.17 219.912 M 164.606 278.744 L 140.848 256.911 M 176.416 261.914 L 161.188 229.914 M 122.89 258.289 L 147.269 283.614 M 164.606 278.744 L 158.498 253.285 M 130.684 290.663 L 147.269 283.614 M 122.89 258.289 L 130.684 290.663 M 182.518 276.824 L 158.498 253.285 M 160.909 305.194 L 147.269 283.614 M 130.684 290.663 L 160.909 305.194 M 122.89 258.289 L 104.982 260.253 M 175.619 294.795 L 147.269 283.614 M 147.544 317.282 L 160.909 305.194 M 130.684 290.663 L 147.544 317.282 M 105.997 220.817 L 104.982 260.253 M 175.619 294.795 L 162.889 274.654 M 147.544 317.282 L 179.234 319.885 M 179.234 319.885 L 160.909 305.194 M 130.684 290.663 L 114.449 298.448 M 105.997 220.817 L 87.98 220.703 M 191.879 287.026 L 162.889 274.654 M 147.544 317.282 L 170.61 335.693 M 170.61 335.693 L 179.234 319.885 M 189.558 305.116 L 160.909 305.194 M 102.533 262.505 L 114.449 298.448 M 147.544 317.282 L 134.872 330.082 M 199.523 327.182 L 179.234 319.885 M 189.558 305.116 L 172.869 291.724 M 112.632 302.077 L 134.872 330.082 M 158.363 209.07 L 183.173 192.788 M 425.913 300.971 L 437.18 286.913 M 202.246 292.333 L 172.869 291.724 M 211.296 151.844 L 234.123 163.276 M 292.867 339.943 L 308.851 330.99 M 246.058 114.371 L 216.901 135.183 M 112.632 302.077 L 99.0489 313.915 M 218.824 150.1 L 242.647 150.233 M 287.664 155.832 L 302.799 169.706 M 331.721 148.288 L 300.676 137.433 M 317.275 210.404 L 321.907 225.411 M 321.907 225.411 L 304.017 227.561 M 300.348 293.439 L 298.998 315.909 M 212.168 117.8 L 216.901 135.183 M 73.9717 287.253 L 99.0489 313.915 M 218.824 150.1 L 217.933 168.095 M 287.664 155.832 L 277.031 170.372 M 313.993 125.293 L 300.676 137.433 M 302.318 214.524 L 304.017 227.561 M 290.315 300.113 L 298.998 315.909 M 212.168 117.8 L 188.965 148.043 M 318.972 258.357 L 331.486 277.697 M 190.577 165.709 L 217.933 168.095 M 260.619 160.466 L 277.031 170.372 M 313.993 125.293 L 280.023 117.386 M 302.318 214.524 L 284.413 216.515 M 283.311 321.601 L 298.998 315.909 M 308.473 284.298 L 300.348 293.439 M 318.972 258.357 L 314.846 270.78 M 260.619 160.466 L 250.528 175.381 M 291.614 103.595 L 280.023 117.386 M 190.577 165.709 L 186.161 183.175 M 283.311 321.601 L 289.109 338.656 M 293.579 274.17 L 300.348 293.439 M 301.269 255.006 L 314.846 270.78 M 231.971 160.982 L 250.528 175.381 M 291.614 103.595 L 254.898 98.6051 M 154.379 169.519 L 186.161 183.175 M 271.843 343.592 L 289.109 338.656 M 287.043 281.29 L 300.348 293.439 M 73.9717 287.253 L 62.978 301.533 M 231.971 160.982 L 218.782 173.247 M 271.843 343.592 L 278.591 360.3 M 287.043 281.29 L 291.18 301.259 M 73.9717 287.253 L 33.9291 285.817 M 264.809 83.5648 L 254.898 98.6051 M 271.843 343.592 L 266.135 366.727 M 279.896 287.222 L 291.18 301.259 M 39.9775 268.847 L 33.9291 285.817 M 264.809 83.5648 L 225.58 81.2646 M 256.197 351.692 L 266.135 366.727 M 280.995 307.655 L 291.18 301.259 M 279.896 287.222 L 280.995 307.655 M 39.9775 268.847 L 0 279.334 M 234.023 65.3601 L 225.58 81.2646 M 256.197 351.692 L 255.779 375.268 M 280.995 307.655 L 289.066 323.761 M 272.204 291.939 L 280.995 307.655 M 234.023 65.3601 L 192.627 65.3431 M 242.849 362.721 L 255.779 375.268 M 273.234 329.074 L 289.066 323.761 M 269.777 312.393 L 280.995 307.655 M 272.204 291.939 L 269.777 312.393 M 242.849 362.721 L 247.899 385.477 M 273.234 329.074 L 278.636 346.263 M 269.777 312.393 L 275.009 329.636 M 263.997 295.329 L 269.777 312.393 M 154.379 169.519 L 145.071 184.946 M 258.392 332.412 L 275.009 329.636 M 257.615 315.119 L 269.777 312.393 M 312.848 306.406 L 323.972 293.483 M 297.029 267.218 L 308.473 284.298 M 258.392 332.412 L 261.115 350.221 M 257.615 315.119 L 259.556 333.031 M 312.848 306.406 L 326.241 318.461 M 317.275 210.404 L 300.838 217.774 M 425.913 300.971 L 444.159 292.402 M 242.506 332.856 L 259.556 333.031 M 312.54 331.311 L 326.241 318.461 M 294.633 204.93 L 300.838 217.774 M 433.891 307.201 L 444.159 292.402 M 242.506 332.856 L 242.248 350.87 M 312.54 331.311 L 326.194 343.061 M 294.633 204.93 L 278.175 212.263 M 433.891 307.201 L 451.513 297.367 M 451.513 297.367 L 444.159 292.402 M 292.867 339.943 L 303.278 354.645 M 211.296 151.844 L 200.717 166.427 M 441.887 312.592 L 451.513 297.367 M 451.513 297.367 L 462.897 283.388 M 357.213 117.514 L 344.488 85.657 M 177.33 142.723 L 200.717 166.427 M 459.164 302.112 L 451.513 297.367 M 441.887 312.592 L 459.164 302.112 M 471.946 292.574 L 462.897 283.388 M 361.88 90.3607 L 344.488 85.657 M 441.887 312.592 L 449.763 317.48 M 471.946 292.574 L 486.116 281.445 M 361.88 90.3607 L 356.782 54.5352 M 430.702 326.71 L 449.763 317.48 M 495.241 296.164 L 486.116 281.445 M 372.735 62.9153 L 356.782 54.5352 M 177.33 142.723 L 162.993 153.64 M 495.241 296.164 L 510.447 286.506 M 372.735 62.9153 L 377.053 25.0691 M 459.164 302.112 L 470.248 287.906 M 449.763 317.48 L 459.164 302.112 M 390.591 36.966 L 377.053 25.0691 M 479.79 297.346 L 470.248 287.906 M 449.763 317.48 L 467.039 306.999 M 467.039 306.999 L 459.164 302.112 M 479.79 297.346 L 493.734 285.931 M 457.416 322.229 L 467.039 306.999 M 449.763 317.48 L 457.416 322.229 M 467.039 306.999 L 478.212 292.874 M 503.368 300.671 L 493.734 285.931 M 475.039 312.39 L 467.039 306.999 M 457.416 322.229 L 475.039 312.39 M 438.665 331.673 L 457.416 322.229 M 488 302.907 L 478.212 292.874 M 503.368 300.671 L 518.157 290.398 M 475.039 312.39 L 486.698 298.655 M 457.416 322.229 L 464.769 327.194 M 464.769 327.194 L 475.039 312.39 M 488 302.907 L 501.986 291.555 M 496.414 309.637 L 486.698 298.655 M 446.021 336.192 L 464.769 327.194 M 483.016 318.618 L 475.039 312.39 M 464.769 327.194 L 483.016 318.618 M 511.766 306.607 L 501.986 291.555 M 496.414 309.637 L 510.75 298.719 M 446.021 336.192 L 456.377 343.135 M 483.016 318.618 L 495.501 305.623 M 464.769 327.194 L 471.754 332.674 M 471.754 332.674 L 483.016 318.618 M 511.766 306.607 L 526.379 296.058 M 520.237 314.408 L 510.75 298.719 M 452.717 340.584 L 471.754 332.674 M 490.761 325.952 L 483.016 318.618 M 471.754 332.674 L 490.761 325.952 M 434.355 349.918 L 456.377 343.135 M 452.717 340.584 L 462.344 348.033 M 504.759 317.825 L 495.501 305.623 M 478.264 338.928 L 490.761 325.952 M 471.754 332.674 L 478.264 338.928 M 440.235 353.589 L 462.344 348.033 M 478.264 338.928 L 498.014 334.576 M 498.014 334.576 L 490.761 325.952 M 458.758 345.145 L 478.264 338.928 M 484.164 346.1 L 498.014 334.576 M 478.264 338.928 L 484.164 346.1 M 512.7 324.145 L 490.761 325.952 M 458.758 345.145 L 467.52 353.4 M 504.449 344.603 L 498.014 334.576 M 512.7 324.145 L 502.214 312.038 M 445.203 357.007 L 467.52 353.4 M 520.289 336.023 L 498.014 334.576 M 504.449 344.603 L 520.289 336.023 M 526.796 312.926 L 502.214 312.038 M 520.289 336.023 L 511.004 322.096 M 525.68 352.683 L 520.289 336.023 M 504.449 344.603 L 525.68 352.683 M 526.796 312.926 L 514.426 298.796 M 535.57 326.474 L 511.004 322.096 M 539.293 299.96 L 514.426 298.796 M 535.57 326.474 L 524.767 310.471 M 542.945 347.529 L 520.289 336.023 M 549.444 314.978 L 524.767 310.471 M 542.945 347.529 L 536.701 328.583 M 508.121 356.67 L 525.68 352.683 M 559.351 340.102 L 536.701 328.583 M 526.341 371.016 L 525.68 352.683 M 508.121 356.67 L 526.341 371.016 M 544.356 370.744 L 525.68 352.683 M 508.35 370.019 L 526.341 371.016 M 508.121 356.67 L 508.35 370.019 M 544.356 370.744 L 543.502 350.035 M 521.686 389.714 L 526.341 371.016 M 508.35 370.019 L 521.686 389.714 M 508.121 356.67 L 490.329 359.501 M 562.155 367.975 L 543.502 350.035 M 539.064 394.468 L 526.341 371.016 M 504.703 383.686 L 521.686 389.714 M 508.35 370.019 L 504.703 383.686 M 488.854 349.472 L 490.329 359.501 M 539.064 394.468 L 544.192 373.454 M 511.435 407.207 L 521.686 389.714 M 504.703 383.686 L 511.435 407.207 M 508.35 370.019 L 490.467 367.854 M 488.854 349.472 L 471.059 352.307 M 526.718 416.752 L 521.686 389.714 M 496.918 396.532 L 511.435 407.207 M 504.703 383.686 L 496.918 396.532 M 491.867 357.225 L 490.467 367.854 M 470.704 340.082 L 471.059 352.307 M 526.718 416.752 L 538.11 397.12 M 495.764 421.795 L 511.435 407.207 M 504.703 383.686 L 488.163 376.548 M 491.867 357.225 L 473.974 355.16 M 470.704 340.082 L 452.712 339.195 M 543.216 423.982 L 538.11 397.12 M 507.535 435.421 L 511.435 407.207 M 492.706 366.097 L 488.163 376.548 M 477.041 342.967 L 473.974 355.16 M 495.764 421.795 L 507.535 435.421 M 507.535 435.421 L 525.02 419.043 M 492.706 366.097 L 476.098 359.114 M 477.041 342.967 L 459.948 337.282 M 495.764 421.795 L 486.719 450.024 M 486.719 450.024 L 507.535 435.421 M 521.201 447.167 L 525.02 419.043 M 482.722 347.836 L 476.098 359.114 M 477.156 434.758 L 486.719 450.024 M 495.764 421.795 L 477.156 434.758 M 498.507 463.662 L 507.535 435.421 M 482.722 347.836 L 467.913 337.567 M 462.396 462.022 L 486.719 450.024 M 498.507 463.662 L 517.038 450.732 M 477.156 434.758 L 462.396 462.022 M 471.817 477.38 L 486.719 450.024 M 511.328 476.312 L 517.038 450.732 M 455.502 445.383 L 462.396 462.022 M 477.156 434.758 L 455.502 445.383 M 471.817 477.38 L 493.694 466.646 M 525.368 466.701 L 517.038 450.732 M 434.559 470.307 L 462.396 462.022 M 477.156 434.758 L 466.396 420.299 M 466.396 420.299 L 455.502 445.383 M 471.817 477.38 L 482.511 491.876 M 482.511 491.876 L 493.694 466.646 M 525.368 466.701 L 537.236 444.586 M 434.559 470.307 L 441.091 487.101 M 466.396 420.299 L 449.859 428.277 M 478.852 408.569 L 466.396 420.299 M 482.511 491.876 L 499.27 483.773 M 540.448 462.305 L 537.236 444.586 M 414.971 499.181 L 441.091 487.101 M 466.396 420.299 L 456.877 405.006 M 478.852 408.569 L 465.021 397.03 M 482.511 491.876 L 492.1 507.121 M 540.448 462.305 L 557.112 444.74 M 414.971 499.181 L 425.226 513.998 M 473.272 386.791 L 465.021 397.03 M 478.191 517.291 L 492.1 507.121 M 482.511 491.876 L 478.191 517.291 M 555.073 462.644 L 557.112 444.74 M 473.272 386.791 L 459.365 375.334 M 488.125 532.319 L 492.1 507.121 M 468.76 397.11 L 456.877 405.006 M 449.859 428.277 L 455.502 445.383 M 488.125 532.319 L 504.107 520.554 M 504.107 520.554 L 492.1 507.121 M 468.76 397.11 L 459.234 381.818 M 430.003 448.92 L 455.502 445.383 M 488.125 532.319 L 496.625 548.202 M 503.336 496.261 L 492.1 507.121 M 430.003 448.92 L 431.074 466.904 M 470.415 556.707 L 496.625 548.202 M 503.336 496.261 L 491.453 482.706 M 399.937 465.424 L 431.074 466.904 M 470.415 556.707 L 474.355 574.286 M 495.764 421.795 L 482.914 409.153 M 399.937 465.424 L 400.351 483.438 M 441.089 577.887 L 474.355 574.286 M 492.906 396.668 L 482.914 409.153 M 369.077 485.944 L 400.351 483.438 M 441.089 577.887 L 444.075 595.652 M 492.906 396.668 L 477.511 387.331 M 369.077 485.944 L 373.51 503.411 M 410.808 602.943 L 444.075 595.652 M 483.77 376.856 L 477.511 387.331 M 462.396 462.022 L 471.817 477.38 M 410.808 602.943 L 417.493 619.678 M 483.77 376.856 L 468.272 367.661 M 450.185 492.579 L 471.817 477.38 M 556.937 396.711 L 544.192 373.454 M 476.768 356.843 L 468.272 367.661 M 450.185 492.579 L 462.965 505.276 M 476.768 356.843 L 463.532 344.606 M 504.449 344.603 L 508.121 356.67 M 339.341 340.531 L 345.832 325.888 M 504.449 344.603 L 488.067 352.102 M 339.341 340.531 L 356.795 344.985 M 484.153 343.266 L 488.067 352.102 M 339.341 340.531 L 355.126 355.525 M 484.153 343.266 L 467.688 350.58 M 337.104 355.689 L 355.126 355.525 M 464.177 339.055 L 467.688 350.58 M 337.104 355.689 L 356.261 365.584 M 338.862 370.247 L 356.261 365.584 M 204.259 309.802 L 179.234 319.885 M 338.862 370.247 L 359.789 374.558 M 204.259 309.802 L 186.224 303.276 M 102.533 262.505 L 85.6303 268.718 M 211.86 293.47 L 186.224 303.276" />
</svg>
