<?xml version="1.0"?>
<svg width="522" height="459" version="1.1" xmlns="http://www.w3.org/2000/svg" >
<defs>
<style type="text/css"><![CDATA[
.m {stroke:rgb(255,0,0);stroke-width:0.652500;}
.v {stroke:rgb(0,0,255);stroke-width:0.652500;}
.b {stroke:rgb(0,0,0);stroke-width:1.305000;fill:white}
.n {stroke:rgb(128,128,128);stroke-width:0.652500}
.t {stroke:rgb(0,128,0);stroke-width:0.652500;}
.c {stroke:rgb(128,128,128);stroke-width:0.652500;stroke-dasharray:5.220000, 5.220000;}
]]></style>
</defs>
<path fill="none" style="stroke:black;stroke-width:1.305000;" d=" M 290.266 64.0687 L 286.585 42.9761 M 286.585 42.9761 L 268.742 45.4022 M 272.934 68.9929 L 290.266 64.0687 M 234.573 56.7802 L 255.064 71.2583 M 255.064 71.2583 L 232.763 59.7626 M 232.763 59.7626 L 216.325 67.1327 M 216.325 67.1327 L 237.394 74.7695 M 323.803 75.8085 L 339.914 83.8757 M 339.914 83.8757 L 329.572 63.9947 M 313.535 55.7855 L 323.803 75.8085 M 326.644 74.0745 L 313.535 55.7855 M 296.929 48.8 L 290.949 69.3594 M 309.407 29.8631 L 294.872 19.2197 M 294.872 19.2197 L 280.948 40.4997 M 280.948 40.4997 L 296.929 48.8 M 268.742 45.4022 L 260.259 21.4284 M 260.259 21.4284 L 243.966 29.1306 M 243.966 29.1306 L 251.451 50.4542 M 139.265 188.704 L 120.482 201.271 M 133.069 214.166 L 139.265 188.704 M 251.451 50.4542 L 226.764 41.6635 M 211.828 51.751 L 234.573 56.7802 M 325.898 64.7474 L 338.587 77.533 M 338.587 77.533 L 335.731 54.4139 M 323.069 41.5963 L 325.898 64.7474 M 329.572 63.9947 L 323.069 41.5963 M 328.167 14.7186 L 317.783 0 M 317.783 0 L 296.71 17.0826 M 296.71 17.0826 L 309.407 29.8631 M 106.877 189.451 L 90.3524 210.965 M 90.3524 210.965 L 105.592 220.561 M 120.482 201.271 L 106.877 189.451 M 136.939 238.269 L 133.069 214.166 M 226.764 41.6635 L 202.474 39.233 M 202.474 39.233 L 187.623 49.4323 M 187.623 49.4323 L 211.828 51.751 M 335.731 54.4139 L 337.442 30.1588 M 9.28405 265.634 L 31.9722 277.814 M 41.7179 262.665 L 16.116 248.967 M 16.116 248.967 L 9.28405 265.634 M 88.9067 213.784 L 79.6641 241.309 M 79.6641 241.309 L 97.1614 245.62 M 105.592 220.561 L 88.9067 213.784 M 132.568 252.154 L 121.594 228.83 M 121.594 228.83 L 128.937 253.538 M 128.937 253.538 L 144.479 262.659 M 144.479 262.659 L 136.939 238.269 M 4.70095 286.657 L 0 304.049 M 0 304.049 L 23.2916 293.598 M 31.9722 277.814 L 4.70095 286.657 M 337.442 30.1588 L 352.254 5.61281 M 352.254 5.61281 L 328.167 14.7186 M 65.9931 282.218 L 76.2693 267.422 M 76.2693 267.422 L 53.8653 249.354 M 53.8653 249.354 L 41.7179 262.665 M 97.1614 245.62 L 97.5447 274.399 M 97.5447 274.399 L 115.245 271.054 M 133.126 268.849 L 114.979 248.267 M 114.979 248.267 L 130.1 271.164 M 130.1 271.164 L 147.814 274.404 M 147.814 274.404 L 132.568 252.154 M 23.3381 297.375 L 15.0651 313.385 M 15.0651 313.385 L 41.6386 308.763 M 53.4141 295.116 L 23.3381 297.375 M 23.2916 293.598 L 53.4141 295.116 M 87.1859 308.113 L 100.427 295.902 M 100.427 295.902 L 80.563 271.623 M 80.563 271.623 L 65.9931 282.218 M 97.2654 272.159 L 104.345 302.719 M 104.345 302.719 L 120.962 295.741 M 115.245 271.054 L 97.2654 272.159 M 137.932 289.696 L 155.666 286.538 M 155.666 286.538 L 133.126 268.849 M 41.6386 308.763 L 28.4591 321.035 M 28.4591 321.035 L 56.4922 326.958 M 56.4922 326.958 L 72.0969 317.964 M 103.047 340.169 L 118.803 331.45 M 103.699 300.919 L 87.1859 308.113 M 118.803 331.45 L 133.419 320.918 M 120.962 295.741 L 103.699 300.919 M 148.49 311.053 L 164.976 303.785 M 164.976 303.785 L 137.932 289.696 M 57.525 328.55 L 41.7969 337.328 M 41.7969 337.328 L 68.8276 351.442 M 68.8276 351.442 L 86.0631 346.198 M 72.0969 317.964 L 57.525 328.55 M 111.122 377.16 L 128.591 372.745 M 128.591 372.745 L 103.047 340.169 M 117.975 330.194 L 103.838 341.347 M 103.838 341.347 L 141.716 358.046 M 141.716 358.046 L 153.383 344.312 M 133.419 320.918 L 117.975 330.194 M 165.484 330.973 L 179.57 319.747 M 179.57 319.747 L 148.49 311.053 M 69.3302 352.874 L 51.8831 357.37 M 51.8831 357.37 L 75.1811 379.703 M 75.1811 379.703 L 93.1697 378.73 M 86.0631 346.198 L 69.3302 352.874 M 109.273 416.574 L 127.281 417.073 M 127.281 417.073 L 111.122 377.16 M 140.947 357.353 L 130.376 371.945 M 130.376 371.945 L 172.809 379.27 M 172.809 379.27 L 180.599 363.023 M 153.383 344.312 L 140.947 357.353 M 188.698 346.934 L 199.197 332.286 M 199.197 332.286 L 165.484 330.973 M 75.2668 380.736 L 57.2597 380.305 M 57.2597 380.305 L 73.9103 409.649 M 73.9103 409.649 L 91.5582 413.283 M 93.1697 378.73 L 75.2668 380.736 M 238.799 307.184 L 197.405 312.055 M 91.5582 413.283 L 96.4305 454.677 M 96.4305 454.677 L 113.53 460.349 M 113.53 460.349 L 109.273 416.574 M 172.331 379.032 L 166.412 396.047 M 166.412 396.047 L 210.187 391.785 M 210.187 391.785 L 213.336 374.044 M 180.599 363.023 L 172.331 379.032 M 216.575 356.321 L 222.41 339.276 M 194.288 329.801 L 188.698 346.934 M 222.41 339.276 L 230.648 323.252 M 197.405 312.055 L 194.288 329.801 M 253.12 303.827 L 215.262 320.41 M 230.648 323.252 L 271.368 330.327 M 271.368 330.327 L 281.948 315.744 M 281.948 315.744 L 238.799 307.184 M 210.193 391.786 L 209.704 409.795 M 209.704 409.795 L 250.389 393.068 M 250.389 393.068 L 248.397 375.165 M 213.336 374.044 L 210.193 391.786 M 246.229 357.278 L 246.638 339.265 M 217.247 338.318 L 216.575 356.321 M 246.638 339.265 L 249.787 321.532 M 215.262 320.41 L 217.247 338.318 M 266.298 314.355 L 264.235 296.452 M 264.235 296.452 L 234.51 323.321 M 249.787 321.532 L 289.565 316.717 M 289.565 316.717 L 295.989 299.894 M 295.989 299.894 L 253.12 303.827 M 250.916 393.001 L 256.153 410.241 M 256.153 410.241 L 288.876 382.269 M 288.876 382.269 L 281.687 365.75 M 248.397 375.165 L 250.916 393.001 M 281.687 365.75 L 274.094 349.417 M 274.094 349.417 L 268.791 332.197 M 241.676 339.845 L 246.229 357.278 M 234.51 323.321 L 241.676 339.845 M 297.05 313.961 L 299.811 296.154 M 263.212 296.6 L 266.298 314.355 M 299.811 296.154 L 300.275 278.142 M 300.275 278.142 L 263.212 296.6 M 263.783 385.932 L 264.615 403.921 M 264.615 403.921 L 301.646 385.397 M 265.818 368.032 L 263.783 385.932 M 299.113 367.571 L 295.897 349.84 M 268.435 350.212 L 265.818 368.032 M 295.897 349.84 L 294.971 331.856 M 268.791 332.197 L 268.435 350.212 M 324.363 320.473 L 331.438 303.899 M 298.314 295.985 L 297.05 313.961 M 331.438 303.899 L 336.482 286.606 M 336.482 286.606 L 298.314 295.985 M 301.646 385.397 L 307.044 402.588 M 307.044 402.588 L 336.22 376.254 M 329.575 359.513 L 322.075 343.128 M 297.388 349.633 L 299.113 367.571 M 322.075 343.128 L 316.59 325.969 M 316.59 325.969 L 297.388 349.633 M 294.971 331.856 L 290.044 349.176 M 290.044 349.176 L 318.146 337.388 M 347.005 331.861 L 357.672 317.338 M 329.643 303.243 L 324.363 320.473 M 357.672 317.338 L 366.672 301.727 M 366.672 301.727 L 329.643 303.243 M 336.22 376.254 L 345.535 391.673 M 345.535 391.673 L 365.825 360.661 M 355.69 345.766 L 344.667 331.527 M 323.861 342.422 L 329.575 359.513 M 344.667 331.527 L 335.278 316.146 M 335.278 316.146 L 323.861 342.422 M 318.146 337.388 L 309.257 353.056 M 309.257 353.056 L 337.261 347.008 M 337.261 347.008 L 347.005 331.861 M 409.529 370.903 L 400.437 355.351 M 378.265 373.697 L 391.962 385.406 M 400.437 355.351 L 389.835 340.781 M 365.825 360.661 L 378.265 373.697 M 346.525 330.265 L 355.69 345.766 M 363.18 316.572 L 350.674 303.606 M 350.674 303.606 L 346.525 330.265 M 404.882 397.954 L 415.599 412.441 M 415.599 412.441 L 419.697 385.773 M 419.697 385.773 L 409.529 370.903 M 391.962 385.406 L 404.882 397.954 M 404.599 351.112 L 420.261 360.014 M 421.49 330.773 L 408.373 318.422 M 389.835 340.781 L 404.599 351.112 M 408.373 318.422 L 393.394 308.421 M 377.7 299.579 L 376.93 328.211 M 376.93 328.211 L 373.71 299.75 M 373.71 299.75 L 357.601 291.68 M 357.601 291.68 L 363.18 316.572 M 431.403 369.956 L 442.639 384.037 M 442.639 384.037 L 444.348 358.584 M 433.436 344.256 L 431.403 369.956 M 420.261 360.014 L 435.272 369.971 M 435.272 369.971 L 433.436 344.256 M 442.321 318.129 L 433.89 302.196 M 410.736 316.318 L 421.49 330.773 M 433.89 302.196 L 423.002 287.845 M 402.383 300.361 L 410.736 316.318 M 410.994 274.404 L 402.383 300.361 M 393.394 308.421 L 384.55 282.543 M 384.55 282.543 L 367.213 277.652 M 367.213 277.652 L 377.7 299.579 M 440.696 357.508 L 446.675 374.504 M 446.675 374.504 L 455.223 351.751 M 449.404 334.69 L 440.696 357.508 M 444.348 358.584 L 449.404 334.69 M 464.367 313.17 L 461.362 295.402 M 461.362 295.402 L 436.569 301.045 M 436.569 301.045 L 442.321 318.129 M 435.994 300.323 L 452.628 281.092 M 452.628 281.092 L 437.894 270.742 M 423.002 287.845 L 435.994 300.323 M 407.547 251.351 L 410.994 274.404 M 452.094 349.781 L 452.397 367.792 M 452.397 367.792 L 466.346 349.117 M 466.037 331.104 L 452.094 349.781 M 455.223 351.751 L 466.037 331.104 M 485.389 315.122 L 487.886 297.282 M 487.886 297.282 L 464.023 295.153 M 464.023 295.153 L 464.367 313.17 M 454.08 278.63 L 463.702 256.689 M 463.702 256.689 L 446.553 251.16 M 437.894 270.742 L 454.08 278.63 M 411.8 241.758 L 422.353 261.609 M 422.353 261.609 L 414.851 240.416 M 414.851 240.416 L 399.976 230.247 M 399.976 230.247 L 407.547 251.351 M 466.346 349.117 L 481.659 332.739 M 484.244 223.592 L 507.388 230.703 M 481.659 332.739 L 503.73 322.784 M 503.73 322.784 L 511.32 306.448 M 511.32 306.448 L 490.334 297.8 M 490.334 297.8 L 485.389 315.122 M 464.36 253.915 L 467.099 231.383 M 467.099 231.383 L 449.085 231.044 M 446.553 251.16 L 464.36 253.915 M 413.087 232.146 L 429.005 247.066 M 429.005 247.066 L 415.32 230.074 M 415.32 230.074 L 398.05 224.93 M 398.05 224.93 L 411.8 241.758 M 507.388 230.703 L 522.614 221.068 M 522.614 221.068 L 501.186 217.454 M 481.238 204.96 L 502.655 214.724 M 501.186 217.454 L 481.238 204.96 M 466.932 228.57 L 484.244 223.592 M 463.369 207.234 L 446 212.024 M 449.085 231.044 L 466.932 228.57 M 446 212.024 L 429.071 218.194 M 411.781 223.247 L 431.101 232.193 M 431.101 232.193 L 413.147 220.749 M 413.147 220.749 L 395.13 220.873 M 395.13 220.873 L 413.087 232.146 M 502.655 214.724 L 519.218 207.625 M 519.218 207.625 L 498.925 201.483 M 499.051 188.403 L 481.094 186.878 M 463.088 186.51 L 445.2 188.664 M 445.2 188.664 L 463.369 207.234 M 446.664 214.302 L 463.938 209.181 M 463.938 209.181 L 441.084 196.826 M 441.084 196.826 L 425.251 205.401 M 429.071 218.194 L 446.664 214.302 M 408.882 212.925 L 391.622 218.075 M 391.622 218.075 L 411.781 223.247 M 498.925 201.483 L 516.805 199.264 M 516.805 199.264 L 499.051 188.403 M 500.974 173.567 L 483.413 169.552 M 481.094 186.878 L 499.094 185.998 M 465.619 166.723 L 447.603 166.363 M 447.603 166.363 L 463.088 186.51 M 442.085 199.011 L 458.465 191.508 M 458.465 191.508 L 434.43 183.262 M 434.43 183.262 L 419.936 193.961 M 425.251 205.401 L 442.085 199.011 M 404.756 203.665 L 388.385 211.194 M 388.385 211.194 L 408.882 212.925 M 499.094 185.998 L 517.103 186.333 M 517.103 186.333 L 500.974 173.567 M 504.693 159.315 L 487.798 153.068 M 483.413 169.552 L 501.362 171.083 M 470.505 148.043 L 452.687 145.381 M 452.687 145.381 L 465.619 166.723 M 435.776 185.381 L 451.058 175.832 M 451.058 175.832 L 426.492 171.454 M 426.492 171.454 L 413.502 183.934 M 419.936 193.961 L 435.776 185.381 M 399.652 195.458 L 384.364 204.99 M 384.364 204.99 L 404.756 203.665 M 501.362 171.083 L 519.187 173.721 M 519.187 173.721 L 504.693 159.315 M 509.943 145.587 L 493.894 137.417 M 487.798 153.068 L 505.429 156.757 M 477.254 130.517 L 459.849 125.872 M 459.849 125.872 L 470.505 148.043 M 428.195 177.029 L 443.901 168.203 M 443.901 168.203 L 419.776 163.403 M 406.249 175.31 L 428.195 177.029 M 413.502 183.934 L 428.188 173.503 M 428.188 173.503 L 406.249 175.31 M 393.752 188.286 L 379.641 199.5 M 379.641 199.5 L 399.652 195.458 M 505.429 156.757 L 522.832 161.418 M 522.832 161.418 L 509.943 145.587 M 372.945 217.693 L 383.008 202.758 M 348.18 219.34 L 372.945 217.693 M 493.894 137.417 L 485.406 114.094 M 485.406 114.094 L 468.501 107.852 M 468.501 107.852 L 477.254 130.517 M 420.247 167.183 L 435.19 157.123 M 435.19 157.123 L 410.988 154.982 M 398.504 167.976 L 420.247 167.183 M 419.776 163.403 L 398.504 167.976 M 387.242 182.032 L 374.245 194.504 M 383.008 202.758 L 393.752 188.286 M 336.284 201.94 L 360.691 206.366 M 360.691 206.366 L 335.886 206.261 M 324.135 219.914 L 348.18 219.34 M 355.465 202.182 L 368.2 214.932 M 368.2 214.932 L 365.053 191.087 M 349.884 181.366 L 355.465 202.182 M 410.988 154.982 L 390.527 161.749 M 380.257 176.552 L 387.242 182.032 M 388.23 183.152 L 383.467 175.659 M 374.245 194.504 L 388.23 183.152 M 367.646 184.275 L 363.522 172.509 M 328.884 182.247 L 351.548 192.386 M 351.548 192.386 L 327.366 186.757 M 312.892 197.492 L 336.284 201.94 M 312.723 211.776 L 324.135 219.914 M 335.886 206.261 L 312.723 211.776 M 365.053 191.087 L 371.216 178.498 M 354.159 172.718 L 349.884 181.366 M 390.527 161.749 L 382.527 156.358 M 372.903 171.587 L 380.257 176.552 M 383.467 175.659 L 380.099 167.451 M 362.875 172.756 L 367.646 184.275 M 363.522 172.509 L 362.17 159.684 M 344.153 159.542 L 345.955 176.498 M 345.955 176.498 L 340.692 160.279 M 323.535 165.776 L 328.884 182.247 M 140.63 182.394 L 157.142 187.618 M 160.643 169.944 L 140.63 182.394 M 303.812 187.607 L 312.892 197.492 M 327.366 186.757 L 303.812 187.607 M 371.216 178.498 L 374.054 165.379 M 356.118 163.659 L 354.159 172.718 M 382.527 156.358 L 374.652 151.47 M 365.251 166.838 L 372.903 171.587 M 380.099 167.451 L 378.392 158.608 M 360.436 160.093 L 362.875 172.756 M 362.17 159.684 L 363.759 146.355 M 346.187 142.347 L 344.153 159.542 M 179.706 228.51 L 193.461 217.992 M 182.366 203.797 L 179.706 228.51 M 318.267 149.559 L 323.535 165.776 M 340.692 160.279 L 318.267 149.559 M 157.142 187.618 L 174.135 189.025 M 173.493 171.02 L 160.643 169.944 M 374.054 165.379 L 373.908 152.485 M 356.011 154.657 L 356.118 163.659 M 374.652 151.47 L 367.001 146.726 M 357.374 161.95 L 365.251 166.838 M 378.392 158.608 L 378.707 149.343 M 360.893 146.678 L 360.436 160.093 M 212.073 230.271 L 220.512 219.079 M 207.188 206.948 L 212.073 230.271 M 351.907 125.683 L 346.187 142.347 M 363.759 146.355 L 351.907 125.683 M 193.461 217.992 L 207.188 206.948 M 195.495 193.24 L 182.366 203.797 M 174.135 189.025 L 190.792 186.5 M 185.821 169.18 L 173.493 171.02 M 373.908 152.485 L 371.259 140.306 M 354.158 145.979 L 356.011 154.657 M 367.001 146.726 L 359.646 141.761 M 349.378 156.56 L 357.374 161.95 M 378.707 149.343 L 381.364 140.073 M 364.717 133.192 L 360.893 146.678 M 226.589 218.324 L 234.766 206.153 M 220.607 195.015 L 226.589 218.324 M 220.512 219.079 L 220.607 195.015 M 207.989 182.159 L 195.495 193.24 M 190.792 186.5 L 206.234 180.144 M 197.108 164.611 L 185.821 169.18 M 371.259 140.306 L 366.59 129.059 M 350.82 137.752 L 354.158 145.979 M 359.646 141.761 L 352.668 136.271 M 341.401 150.329 L 349.378 156.56 M 381.364 140.073 L 386.581 131.399 M 372.176 120.568 L 364.717 133.192 M 241.001 204.969 L 248.542 191.631 M 233.389 181.89 L 241.001 204.969 M 234.766 206.153 L 233.389 181.89 M 219.658 170.23 L 207.989 182.159 M 206.234 180.144 L 219.658 170.23 M 206.844 157.551 L 197.108 164.611 M 366.59 129.059 L 360.258 118.834 M 346.151 130.03 L 350.82 137.752 M 352.668 136.271 L 346.151 130.03 M 320.109 154.876 L 341.401 150.329 M 386.581 131.399 L 383.171 109.896 M 383.171 109.896 L 372.176 120.568 M 311.698 141.245 L 295.987 150.052 M 295.987 150.052 L 320.109 154.876 M 248.542 191.631 L 245.174 167.263 M 230.237 157.183 L 214.568 148.302 M 214.568 148.302 L 206.844 157.551 M 360.258 118.834 L 352.496 109.618 M 352.496 109.618 L 340.264 122.846 M 311.702 144.786 L 333.649 142.994 M 333.649 142.994 L 311.698 141.245 M 304.567 129.641 L 288.05 136.822 M 288.05 136.822 L 311.702 144.786 M 245.174 167.263 L 261.319 175.246 M 261.319 175.246 L 255.541 150.968 M 239.46 142.841 L 222.836 135.897 M 216.058 146.077 L 230.237 157.183 M 222.836 135.897 L 206.68 127.934 M 206.68 127.934 L 216.058 146.077 M 340.264 122.846 L 355.526 113.271 M 355.526 113.271 L 335.149 114.646 M 319.958 124.335 L 304.11 132.903 M 304.11 132.903 L 326.406 134.364 M 326.406 134.364 L 304.567 129.641 M 297.802 119.277 L 281.422 126.763 M 281.422 126.763 L 305.457 135.026 M 255.541 150.968 L 272.569 156.835 M 272.569 156.835 L 264.008 132.906 M 246.974 127.056 L 229.563 122.407 M 223.961 133.656 L 239.46 142.841 M 229.563 122.407 L 212.517 116.576 M 212.517 116.576 L 223.961 133.656 M 335.149 114.646 L 351.516 107.128 M 351.516 107.128 L 331.031 105.384 M 314.652 112.903 L 297.802 119.277 M 305.457 135.026 L 319.958 124.335 M 293.231 103.972 L 275.954 109.084 M 275.954 109.084 L 298.799 121.46 M 264.008 132.906 L 281.687 136.342 M 281.687 136.342 L 270.079 113.098 M 252.357 109.8 L 234.459 107.715 M 230.334 120.138 L 246.974 127.056 M 234.459 107.715 L 216.757 104.365 M 216.757 104.365 L 230.334 120.138 M 331.031 105.384 L 348.286 100.204 M 348.286 100.204 L 328.119 95.0633 M 310.829 100.118 L 293.231 103.972 M 298.799 121.46 L 314.652 112.903 M 290.813 87.2482 L 272.964 89.7142 M 272.964 89.7142 L 293.894 106.262 M 270.079 113.098 L 288.08 113.86 M 288.08 113.86 L 273.224 91.6967 M 234.895 105.355 L 252.357 109.8 M 237.215 91.7962 L 219.209 91.1045 M 219.209 91.1045 L 234.895 105.355 M 328.119 95.0633 L 345.956 92.5229 M 345.956 92.5229 L 326.657 83.7664 M 308.798 86.1149 L 290.813 87.2482 M 293.894 106.262 L 310.829 100.118 M 290.949 69.3594 L 272.934 68.9929 M 273.224 91.6967 L 291.124 89.6325 M 237.394 74.7695 L 255.219 91.1318 M 255.219 91.1318 L 235.379 77.2817 M 235.379 77.2817 L 217.933 81.7885 M 217.933 81.7885 L 237.215 91.7962 M 324.715 86.1224 L 342.518 88.9056 M 342.518 88.9056 L 326.644 74.0745 M 308.88 71.0933 L 324.715 86.1224 M 326.657 83.7664 L 308.88 71.0933 M 291.124 89.6325 L 308.798 86.1149" />
<path fill="none" class="c" d=" M 268.742 45.4022 L 290.266 64.0687 M 268.742 45.4022 L 272.934 68.9929 M 251.451 50.4542 L 272.934 68.9929 M 255.064 71.2583 L 272.934 68.9929 M 255.064 71.2583 L 273.224 91.6967 M 255.219 91.1318 L 273.224 91.6967 M 255.219 91.1318 L 270.079 113.098 M 255.219 91.1318 L 252.357 109.8 M 270.079 113.098 L 273.224 91.6967 M 252.357 109.8 L 270.079 113.098 M 264.008 132.906 L 270.079 113.098 M 252.357 109.8 L 264.008 132.906 M 252.357 109.8 L 246.974 127.056 M 246.974 127.056 L 264.008 132.906 M 255.541 150.968 L 264.008 132.906 M 246.974 127.056 L 255.541 150.968 M 239.46 142.841 L 255.541 150.968 M 246.974 127.056 L 239.46 142.841 M 255.064 71.2583 L 255.219 91.1318 M 273.224 91.6967 L 272.934 68.9929 M 291.124 89.6325 L 272.934 68.9929 M 245.174 167.263 L 255.541 150.968 M 291.124 89.6325 L 290.949 69.3594 M 308.798 86.1149 L 290.949 69.3594 M 308.798 86.1149 L 308.88 71.0933 M 308.798 86.1149 L 326.657 83.7664 M 328.119 95.0633 L 326.657 83.7664 M 308.798 86.1149 L 328.119 95.0633 M 308.798 86.1149 L 310.829 100.118 M 310.829 100.118 L 328.119 95.0633 M 331.031 105.384 L 328.119 95.0633 M 310.829 100.118 L 331.031 105.384 M 310.829 100.118 L 314.652 112.903 M 314.652 112.903 L 331.031 105.384 M 314.652 112.903 L 335.149 114.646 M 319.958 124.335 L 335.149 114.646 M 319.958 124.335 L 340.264 122.846 M 326.406 134.364 L 340.264 122.846 M 326.406 134.364 L 346.151 130.03 M 314.652 112.903 L 319.958 124.335 M 333.649 142.994 L 346.151 130.03 M 333.649 142.994 L 352.668 136.271 M 341.401 150.329 L 352.668 136.271 M 341.401 150.329 L 359.646 141.761 M 335.149 114.646 L 331.031 105.384 M 349.378 156.56 L 359.646 141.761 M 349.378 156.56 L 367.001 146.726 M 290.813 87.2482 L 310.829 100.118 M 290.813 87.2482 L 293.894 106.262 M 357.374 161.95 L 367.001 146.726 M 357.374 161.95 L 374.652 151.47 M 365.251 166.838 L 374.652 151.47 M 365.251 166.838 L 382.527 156.358 M 372.903 171.587 L 382.527 156.358 M 372.903 171.587 L 390.527 161.749 M 380.257 176.552 L 390.527 161.749 M 380.257 176.552 L 398.504 167.976 M 387.242 182.032 L 398.504 167.976 M 387.242 182.032 L 406.249 175.31 M 393.752 188.286 L 406.249 175.31 M 393.752 188.286 L 413.502 183.934 M 399.652 195.458 L 413.502 183.934 M 419.936 193.961 L 413.502 183.934 M 399.652 195.458 L 419.936 193.961 M 399.652 195.458 L 404.756 203.665 M 404.756 203.665 L 419.936 193.961 M 425.251 205.401 L 419.936 193.961 M 404.756 203.665 L 425.251 205.401 M 404.756 203.665 L 408.882 212.925 M 413.502 183.934 L 406.249 175.31 M 408.882 212.925 L 425.251 205.401 M 429.071 218.194 L 425.251 205.401 M 446.664 214.302 L 425.251 205.401 M 446.664 214.302 L 441.084 196.826 M 393.752 188.286 L 399.652 195.458 M 319.958 124.335 L 326.406 134.364 M 239.46 142.841 L 245.174 167.263 M 230.237 157.183 L 245.174 167.263 M 229.563 122.407 L 239.46 142.841 M 229.563 122.407 L 223.961 133.656 M 239.46 142.841 L 230.237 157.183 M 222.836 135.897 L 230.237 157.183 M 408.882 212.925 L 429.071 218.194 M 408.882 212.925 L 411.781 223.247 M 411.781 223.247 L 429.071 218.194 M 431.101 232.193 L 429.071 218.194 M 449.085 231.044 L 429.071 218.194 M 431.101 232.193 L 449.085 231.044 M 431.101 232.193 L 446.553 251.16 M 429.005 247.066 L 446.553 251.16 M 429.005 247.066 L 437.894 270.742 M 422.353 261.609 L 437.894 270.742 M 449.085 231.044 L 446 212.024 M 466.932 228.57 L 446 212.024 M 466.932 228.57 L 463.369 207.234 M 484.244 223.592 L 463.369 207.234 M 484.244 223.592 L 481.238 204.96 M 484.244 223.592 L 501.186 217.454 M 507.388 230.703 L 501.186 217.454 M 481.238 204.96 L 463.369 207.234 M 481.238 204.96 L 463.088 186.51 M 481.238 204.96 L 481.094 186.878 M 463.088 186.51 L 463.369 207.234 M 481.094 186.878 L 463.088 186.51 M 465.619 166.723 L 463.088 186.51 M 481.094 186.878 L 465.619 166.723 M 481.094 186.878 L 483.413 169.552 M 483.413 169.552 L 465.619 166.723 M 470.505 148.043 L 465.619 166.723 M 483.413 169.552 L 470.505 148.043 M 483.413 169.552 L 487.798 153.068 M 487.798 153.068 L 470.505 148.043 M 477.254 130.517 L 470.505 148.043 M 487.798 153.068 L 477.254 130.517 M 493.894 137.417 L 477.254 130.517 M 487.798 153.068 L 493.894 137.417 M 505.429 156.757 L 493.894 137.417 M 505.429 156.757 L 509.943 145.587 M 501.362 171.083 L 487.798 153.068 M 501.362 171.083 L 504.693 159.315 M 422.353 261.609 L 423.002 287.845 M 410.994 274.404 L 423.002 287.845 M 431.101 232.193 L 429.005 247.066 M 402.383 300.361 L 423.002 287.845 M 410.736 316.318 L 423.002 287.845 M 340.264 122.846 L 335.149 114.646 M 442.085 199.011 L 419.936 193.961 M 442.085 199.011 L 434.43 183.262 M 410.736 316.318 L 433.89 302.196 M 421.49 330.773 L 433.89 302.196 M 421.49 330.773 L 442.321 318.129 M 433.436 344.256 L 442.321 318.129 M 449.404 334.69 L 442.321 318.129 M 449.404 334.69 L 464.367 313.17 M 466.037 331.104 L 464.367 313.17 M 421.49 330.773 L 433.436 344.256 M 421.49 330.773 L 420.261 360.014 M 420.261 360.014 L 433.436 344.256 M 421.49 330.773 L 404.599 351.112 M 408.373 318.422 L 404.599 351.112 M 408.373 318.422 L 389.835 340.781 M 393.394 308.421 L 389.835 340.781 M 393.394 308.421 L 376.93 328.211 M 393.394 308.421 L 377.7 299.579 M 384.55 282.543 L 377.7 299.579 M 433.436 344.256 L 449.404 334.69 M 466.037 331.104 L 485.389 315.122 M 481.659 332.739 L 485.389 315.122 M 376.93 328.211 L 389.835 340.781 M 376.93 328.211 L 365.825 360.661 M 376.93 328.211 L 355.69 345.766 M 365.825 360.661 L 389.835 340.781 M 378.265 373.697 L 389.835 340.781 M 378.265 373.697 L 400.437 355.351 M 391.962 385.406 L 400.437 355.351 M 391.962 385.406 L 409.529 370.903 M 355.69 345.766 L 365.825 360.661 M 336.22 376.254 L 365.825 360.661 M 355.69 345.766 L 336.22 376.254 M 355.69 345.766 L 329.575 359.513 M 344.667 331.527 L 329.575 359.513 M 344.667 331.527 L 323.861 342.422 M 329.575 359.513 L 336.22 376.254 M 301.646 385.397 L 336.22 376.254 M 329.575 359.513 L 301.646 385.397 M 329.575 359.513 L 299.113 367.571 M 322.075 343.128 L 299.113 367.571 M 322.075 343.128 L 297.388 349.633 M 299.113 367.571 L 301.646 385.397 M 263.783 385.932 L 301.646 385.397 M 299.113 367.571 L 263.783 385.932 M 299.113 367.571 L 265.818 368.032 M 295.897 349.84 L 265.818 368.032 M 295.897 349.84 L 268.435 350.212 M 294.971 331.856 L 268.435 350.212 M 294.971 331.856 L 268.791 332.197 M 297.05 313.961 L 268.791 332.197 M 297.05 313.961 L 266.298 314.355 M 294.971 331.856 L 297.05 313.961 M 324.363 320.473 L 297.05 313.961 M 294.971 331.856 L 324.363 320.473 M 294.971 331.856 L 318.146 337.388 M 331.438 303.899 L 297.05 313.961 M 331.438 303.899 L 298.314 295.985 M 318.146 337.388 L 324.363 320.473 M 347.005 331.861 L 324.363 320.473 M 357.672 317.338 L 324.363 320.473 M 357.672 317.338 L 329.643 303.243 M 318.146 337.388 L 347.005 331.861 M 318.146 337.388 L 337.261 347.008 M 299.811 296.154 L 266.298 314.355 M 299.811 296.154 L 263.212 296.6 M 404.882 397.954 L 409.529 370.903 M 404.882 397.954 L 419.697 385.773 M 266.298 314.355 L 268.791 332.197 M 266.298 314.355 L 241.676 339.845 M 241.676 339.845 L 268.791 332.197 M 266.298 314.355 L 234.51 323.321 M 246.229 357.278 L 268.791 332.197 M 246.229 357.278 L 274.094 349.417 M 248.397 375.165 L 274.094 349.417 M 248.397 375.165 L 281.687 365.75 M 246.229 357.278 L 248.397 375.165 M 246.229 357.278 L 213.336 374.044 M 246.229 357.278 L 216.575 356.321 M 246.638 339.265 L 216.575 356.321 M 246.638 339.265 L 217.247 338.318 M 249.787 321.532 L 217.247 338.318 M 213.336 374.044 L 248.397 375.165 M 249.787 321.532 L 215.262 320.41 M 216.575 356.321 L 213.336 374.044 M 216.575 356.321 L 180.599 363.023 M 216.575 356.321 L 188.698 346.934 M 180.599 363.023 L 213.336 374.044 M 188.698 346.934 L 180.599 363.023 M 188.698 346.934 L 153.383 344.312 M 188.698 346.934 L 165.484 330.973 M 153.383 344.312 L 180.599 363.023 M 165.484 330.973 L 153.383 344.312 M 133.419 320.918 L 153.383 344.312 M 165.484 330.973 L 133.419 320.918 M 165.484 330.973 L 148.49 311.053 M 148.49 311.053 L 133.419 320.918 M 120.962 295.741 L 133.419 320.918 M 103.699 300.919 L 133.419 320.918 M 103.699 300.919 L 118.803 331.45 M 87.1859 308.113 L 118.803 331.45 M 87.1859 308.113 L 103.047 340.169 M 72.0969 317.964 L 103.047 340.169 M 72.0969 317.964 L 86.0631 346.198 M 86.0631 346.198 L 103.047 340.169 M 111.122 377.16 L 103.047 340.169 M 86.0631 346.198 L 111.122 377.16 M 86.0631 346.198 L 93.1697 378.73 M 93.1697 378.73 L 111.122 377.16 M 109.273 416.574 L 111.122 377.16 M 93.1697 378.73 L 109.273 416.574 M 93.1697 378.73 L 91.5582 413.283 M 75.2668 380.736 L 91.5582 413.283 M 75.2668 380.736 L 73.9103 409.649 M 91.5582 413.283 L 109.273 416.574 M 96.4305 454.677 L 109.273 416.574 M 87.1859 308.113 L 72.0969 317.964 M 87.1859 308.113 L 53.4141 295.116 M 117.975 330.194 L 153.383 344.312 M 117.975 330.194 L 141.716 358.046 M 222.41 339.276 L 188.698 346.934 M 222.41 339.276 L 194.288 329.801 M 230.648 323.252 L 194.288 329.801 M 230.648 323.252 L 197.405 312.055 M 148.49 311.053 L 120.962 295.741 M 148.49 311.053 L 137.932 289.696 M 137.932 289.696 L 120.962 295.741 M 230.648 323.252 L 238.799 307.184 M 271.368 330.327 L 238.799 307.184 M 53.4141 295.116 L 72.0969 317.964 M 115.245 271.054 L 120.962 295.741 M 97.2654 272.159 L 120.962 295.741 M 87.1859 308.113 L 65.9931 282.218 M 100.427 295.902 L 65.9931 282.218 M 69.3302 352.874 L 93.1697 378.73 M 69.3302 352.874 L 75.1811 379.703 M 65.9931 282.218 L 53.4141 295.116 M 65.9931 282.218 L 31.9722 277.814 M 140.947 357.353 L 180.599 363.023 M 140.947 357.353 L 172.809 379.27 M 249.787 321.532 L 253.12 303.827 M 289.565 316.717 L 253.12 303.827 M 250.916 393.001 L 281.687 365.75 M 250.916 393.001 L 288.876 382.269 M 503.73 322.784 L 485.389 315.122 M 511.32 306.448 L 485.389 315.122 M 222.836 135.897 L 216.058 146.077 M 172.331 379.032 L 213.336 374.044 M 172.331 379.032 L 210.187 391.785 M 466.037 331.104 L 481.659 332.739 M 255.064 71.2583 L 237.394 74.7695 M 232.763 59.7626 L 237.394 74.7695 M 308.88 71.0933 L 290.949 69.3594 M 308.88 71.0933 L 296.929 48.8 M 313.535 55.7855 L 296.929 48.8 M 313.535 55.7855 L 309.407 29.8631 M 323.069 41.5963 L 309.407 29.8631 M 323.069 41.5963 L 328.167 14.7186 M 337.442 30.1588 L 328.167 14.7186 M 363.18 316.572 L 355.69 345.766 M 363.18 316.572 L 346.525 330.265 M 422.353 261.609 L 410.994 274.404 M 308.88 71.0933 L 313.535 55.7855 M 308.88 71.0933 L 326.644 74.0745 M 324.715 86.1224 L 326.644 74.0745 M 31.9722 277.814 L 53.4141 295.116 M 31.9722 277.814 L 23.2916 293.598 M 210.193 391.786 L 248.397 375.165 M 210.193 391.786 L 250.389 393.068 M 251.451 50.4542 L 255.064 71.2583 M 251.451 50.4542 L 234.573 56.7802 M 449.404 334.69 L 466.037 331.104 M 376.93 328.211 L 363.18 316.572 M 373.71 299.75 L 363.18 316.572 M 429.005 247.066 L 422.353 261.609 M 446.553 251.16 L 449.085 231.044 M 464.36 253.915 L 449.085 231.044 M 137.932 289.696 L 115.245 271.054 M 137.932 289.696 L 133.126 268.849 M 133.126 268.849 L 115.245 271.054 M 114.979 248.267 L 115.245 271.054 M 97.1614 245.62 L 115.245 271.054 M 114.979 248.267 L 97.1614 245.62 M 114.979 248.267 L 105.592 220.561 M 121.594 228.83 L 105.592 220.561 M 121.594 228.83 L 120.482 201.271 M 133.069 214.166 L 120.482 201.271 M 65.9931 282.218 L 41.7179 262.665 M 76.2693 267.422 L 41.7179 262.665 M 485.406 114.094 L 477.254 130.517 M 41.7179 262.665 L 31.9722 277.814 M 41.7179 262.665 L 9.28405 265.634 M 406.249 175.31 L 398.504 167.976 M 53.4141 295.116 L 41.6386 308.763 M 23.3381 297.375 L 41.6386 308.763 M 423.002 287.845 L 437.894 270.742 M 435.994 300.323 L 437.894 270.742 M 57.525 328.55 L 86.0631 346.198 M 57.525 328.55 L 68.8276 351.442 M 431.101 232.193 L 413.087 232.146 M 413.147 220.749 L 413.087 232.146 M 464.367 313.17 L 442.321 318.129 M 461.362 295.402 L 442.321 318.129 M 485.389 315.122 L 464.367 313.17 M 487.886 297.282 L 464.367 313.17 M 481.238 204.96 L 498.925 201.483 M 502.655 214.724 L 498.925 201.483 M 268.742 45.4022 L 251.451 50.4542 M 268.742 45.4022 L 243.966 29.1306 M 437.894 270.742 L 446.553 251.16 M 454.08 278.63 L 446.553 251.16 M 499.094 185.998 L 483.413 169.552 M 499.094 185.998 L 500.974 173.567 M 234.459 107.715 L 246.974 127.056 M 234.459 107.715 L 230.334 120.138 M 387.242 182.032 L 393.752 188.286 M 374.245 194.504 L 393.752 188.286 M 374.245 194.504 L 383.008 202.758 M 360.691 206.366 L 383.008 202.758 M 374.245 194.504 L 360.691 206.366 M 374.245 194.504 L 351.548 192.386 M 367.646 184.275 L 351.548 192.386 M 367.646 184.275 L 345.955 176.498 M 363.522 172.509 L 345.955 176.498 M 360.691 206.366 L 372.945 217.693 M 360.691 206.366 L 348.18 219.34 M 363.522 172.509 L 344.153 159.542 M 362.17 159.684 L 344.153 159.542 M 433.436 344.256 L 444.348 358.584 M 431.403 369.956 L 444.348 358.584 M 293.231 103.972 L 314.652 112.903 M 293.231 103.972 L 298.799 121.46 M 226.764 41.6635 L 234.573 56.7802 M 230.237 157.183 L 233.389 181.89 M 219.658 170.23 L 233.389 181.89 M 4.70095 286.657 L 23.2916 293.598 M 313.535 55.7855 L 323.069 41.5963 M 313.535 55.7855 L 329.572 63.9947 M 323.803 75.8085 L 329.572 63.9947 M 114.979 248.267 L 121.594 228.83 M 114.979 248.267 L 132.568 252.154 M 130.1 271.164 L 132.568 252.154 M 233.389 181.89 L 245.174 167.263 M 326.406 134.364 L 333.649 142.994 M 498.925 201.483 L 481.094 186.878 M 498.925 201.483 L 499.051 188.403 M 105.592 220.561 L 97.1614 245.62 M 88.9067 213.784 L 97.1614 245.62 M 323.069 41.5963 L 337.442 30.1588 M 121.594 228.83 L 133.069 214.166 M 309.407 29.8631 L 296.929 48.8 M 294.872 19.2197 L 296.929 48.8 M 230.237 157.183 L 219.658 170.23 M 214.568 148.302 L 219.658 170.23 M 206.844 157.551 L 219.658 170.23 M 206.844 157.551 L 206.234 180.144 M 197.108 164.611 L 206.234 180.144 M 197.108 164.611 L 190.792 186.5 M 185.821 169.18 L 190.792 186.5 M 185.821 169.18 L 174.135 189.025 M 173.493 171.02 L 174.135 189.025 M 435.776 185.381 L 413.502 183.934 M 435.776 185.381 L 426.492 171.454 M 328.167 14.7186 L 309.407 29.8631 M 317.783 0 L 309.407 29.8631 M 120.482 201.271 L 105.592 220.561 M 106.877 189.451 L 105.592 220.561 M 41.6386 308.763 L 72.0969 317.964 M 41.6386 308.763 L 56.4922 326.958 M 121.594 228.83 L 136.939 238.269 M 128.937 253.538 L 136.939 238.269 M 406.249 175.31 L 419.776 163.403 M 428.195 177.029 L 419.776 163.403 M 237.215 91.7962 L 252.357 109.8 M 237.215 91.7962 L 234.895 105.355 M 255.219 91.1318 L 237.215 91.7962 M 235.379 77.2817 L 237.215 91.7962 M 346.151 130.03 L 340.264 122.846 M 360.258 118.834 L 340.264 122.846 M 429.005 247.066 L 411.8 241.758 M 415.32 230.074 L 411.8 241.758 M 326.406 134.364 L 311.702 144.786 M 304.567 129.641 L 311.702 144.786 M 323.069 41.5963 L 335.731 54.4139 M 325.898 64.7474 L 335.731 54.4139 M 449.404 334.69 L 455.223 351.751 M 440.696 357.508 L 455.223 351.751 M 335.886 206.261 L 348.18 219.34 M 335.886 206.261 L 324.135 219.914 M 398.504 167.976 L 390.527 161.749 M 398.504 167.976 L 410.988 154.982 M 420.247 167.183 L 410.988 154.982 M 351.548 192.386 L 360.691 206.366 M 351.548 192.386 L 336.284 201.94 M 374.245 194.504 L 367.646 184.275 M 388.23 183.152 L 367.646 184.275 M 383.467 175.659 L 367.646 184.275 M 383.467 175.659 L 362.875 172.756 M 380.099 167.451 L 362.875 172.756 M 380.099 167.451 L 360.436 160.093 M 378.392 158.608 L 360.436 160.093 M 378.392 158.608 L 360.893 146.678 M 378.707 149.343 L 360.893 146.678 M 378.707 149.343 L 364.717 133.192 M 381.364 140.073 L 364.717 133.192 M 381.364 140.073 L 372.176 120.568 M 386.581 131.399 L 372.176 120.568 M 219.658 170.23 L 220.607 195.015 M 207.989 182.159 L 220.607 195.015 M 297.802 119.277 L 319.958 124.335 M 297.802 119.277 L 305.457 135.026 M 346.151 130.03 L 360.258 118.834 M 346.151 130.03 L 366.59 129.059 M 350.82 137.752 L 366.59 129.059 M 350.82 137.752 L 371.259 140.306 M 354.158 145.979 L 371.259 140.306 M 354.158 145.979 L 373.908 152.485 M 356.011 154.657 L 373.908 152.485 M 356.011 154.657 L 374.054 165.379 M 356.118 163.659 L 374.054 165.379 M 356.118 163.659 L 371.216 178.498 M 354.159 172.718 L 371.216 178.498 M 354.159 172.718 L 365.053 191.087 M 349.884 181.366 L 365.053 191.087 M 355.465 202.182 L 365.053 191.087 M 233.389 181.89 L 248.542 191.631 M 362.17 159.684 L 346.187 142.347 M 363.759 146.355 L 346.187 142.347 M 220.607 195.015 L 233.389 181.89 M 220.607 195.015 L 234.766 206.153 M 226.764 41.6635 L 211.828 51.751 M 202.474 39.233 L 211.828 51.751 M 422.353 261.609 L 407.547 251.351 M 414.851 240.416 L 407.547 251.351 M 333.649 142.994 L 341.401 150.329 M 333.649 142.994 L 320.109 154.876 M 311.698 141.245 L 320.109 154.876 M 466.037 331.104 L 466.346 349.117 M 452.094 349.781 L 466.346 349.117 M 173.493 171.02 L 157.142 187.618 M 160.643 169.944 L 157.142 187.618 M 327.366 186.757 L 336.284 201.94 M 327.366 186.757 L 312.892 197.492 M 345.955 176.498 L 351.548 192.386 M 345.955 176.498 L 328.884 182.247 M 207.989 182.159 L 207.188 206.948 M 195.495 193.24 L 207.188 206.948 M 207.188 206.948 L 220.607 195.015 M 207.188 206.948 L 220.512 219.079 M 345.955 176.498 L 323.535 165.776 M 340.692 160.279 L 323.535 165.776 M 195.495 193.24 L 193.461 217.992 M 182.366 203.797 L 193.461 217.992" />
<line x1="277.314034" y1="59.487947" x2="281.864490" y2="50.815662" class="t" />
<line x1="264.375417" y1="54.949762" x2="277.314034" y2="59.487947" class="t" />
<line x1="259.816027" y1="63.568475" x2="264.375417" y2="54.949762" class="t" />
<line x1="267.073744" y1="77.315998" x2="259.816027" y2="63.568475" class="t" />
<line x1="261.168815" y1="84.695623" x2="267.073744" y2="77.315998" class="t" />
<line x1="266.173874" y1="98.642199" x2="261.168815" y2="84.695623" class="t" />
<line x1="259.218378" y1="104.676504" x2="266.173874" y2="98.642199" class="t" />
<line x1="248.263700" y1="97.575882" x2="259.218378" y2="104.676504" class="t" />
<line x1="277.127399" y1="106.218108" x2="266.173874" y2="98.642199" class="t" />
<line x1="262.147959" y1="118.601082" x2="259.218378" y2="104.676504" class="t" />
<line x1="271.924560" y1="127.448544" x2="262.147959" y2="118.601082" class="t" />
<line x1="254.446232" y1="123.253595" x2="262.147959" y2="118.601082" class="t" />
<line x1="244.596815" y1="114.856884" x2="254.446232" y2="123.253595" class="t" />
<line x1="255.507445" y1="136.976293" x2="254.446232" y2="123.253595" class="t" />
<line x1="264.039247" y1="146.902893" x2="255.507445" y2="136.976293" class="t" />
<line x1="247.324853" y1="140.288248" x2="255.507445" y2="136.976293" class="t" />
<line x1="246.724950" y1="153.690659" x2="247.324853" y2="140.288248" class="t" />
<line x1="238.665699" y1="130.768078" x2="247.324853" y2="140.288248" class="t" />
<line x1="249.225683" y1="79.053232" x2="261.168815" y2="84.695623" class="t" />
<line x1="279.093733" y1="83.440725" x2="267.073744" y2="77.315998" class="t" />
<line x1="285.002027" y1="75.994962" x2="279.093733" y2="83.440725" class="t" />
<line x1="254.011454" y1="164.492272" x2="246.724950" y2="153.690659" class="t" />
<line x1="296.956733" y1="81.702286" x2="285.002027" y2="75.994962" class="t" />
<line x1="302.875395" y1="75.522533" x2="296.956733" y2="81.702286" class="t" />
<line x1="314.778089" y1="80.324852" x2="302.875395" y2="75.522533" class="t" />
<line x1="321.191179" y1="88.314870" x2="314.778089" y2="80.324852" class="t" />
<line x1="333.577118" y1="90.450869" x2="321.191179" y2="88.314870" class="t" />
<line x1="315.915311" y1="93.765537" x2="321.191179" y2="88.314870" class="t" />
<line x1="303.479899" y1="91.160498" x2="315.915311" y2="93.765537" class="t" />
<line x1="323.326318" y1="100.188515" x2="315.915311" y2="93.765537" class="t" />
<line x1="335.812005" y1="100.217043" x2="323.326318" y2="100.188515" class="t" />
<line x1="318.837484" y1="106.135088" x2="323.326318" y2="100.188515" class="t" />
<line x1="306.237530" y1="105.664614" x2="318.837484" y2="106.135088" class="t" />
<line x1="326.944055" y1="110.977501" x2="318.837484" y2="106.135088" class="t" />
<line x1="323.253238" y1="117.294678" x2="326.944055" y2="110.977501" class="t" />
<line x1="331.790469" y1="120.609014" x2="323.253238" y2="117.294678" class="t" />
<line x1="328.876288" y1="127.181884" x2="331.790469" y2="120.609014" class="t" />
<line x1="337.607025" y1="129.080253" x2="328.876288" y2="127.181884" class="t" />
<line x1="335.401987" y1="135.796355" x2="337.607025" y2="129.080253" class="t" />
<line x1="310.804365" y1="118.838388" x2="323.253238" y2="117.294678" class="t" />
<line x1="344.155902" y1="136.431957" x2="335.401987" y2="135.796355" class="t" />
<line x1="342.572605" y1="143.198051" x2="344.155902" y2="136.431957" class="t" />
<line x1="351.238432" y1="142.786779" x2="342.572605" y2="143.198051" class="t" />
<line x1="350.141868" y1="149.549641" x2="351.238432" y2="142.786779" class="t" />
<line x1="339.231935" y1="109.052413" x2="326.944055" y2="110.977501" class="t" />
<line x1="358.675154" y1="148.348589" x2="350.141868" y2="149.549641" class="t" />
<line x1="357.917754" y1="155.078393" x2="358.675154" y2="148.348589" class="t" />
<line x1="298.511855" y1="97.876063" x2="303.479899" y2="91.160498" class="t" />
<line x1="285.890046" y1="94.407989" x2="298.511855" y2="97.876063" class="t" />
<line x1="366.342357" y1="153.381814" x2="357.917754" y2="155.078393" class="t" />
<line x1="365.759190" y1="160.085875" x2="366.342357" y2="153.381814" class="t" />
<line x1="374.143334" y1="158.221724" x2="365.759190" y2="160.085875" class="t" />
<line x1="373.560414" y1="164.927408" x2="374.143334" y2="158.221724" class="t" />
<line x1="381.985619" y1="163.231044" x2="373.560414" y2="164.927408" class="t" />
<line x1="381.228907" y1="169.962490" x2="381.985619" y2="163.231044" class="t" />
<line x1="389.762405" y1="168.758784" x2="381.228907" y2="169.962490" class="t" />
<line x1="388.667450" y1="175.519953" x2="389.762405" y2="168.758784" class="t" />
<line x1="397.331661" y1="175.106013" x2="388.667450" y2="175.519953" class="t" />
<line x1="395.747598" y1="181.876017" x2="397.331661" y2="175.106013" class="t" />
<line x1="404.500813" y1="182.510035" x2="395.747598" y2="181.876017" class="t" />
<line x1="402.301622" y1="189.226101" x2="404.500813" y2="182.510035" class="t" />
<line x1="411.029848" y1="191.117834" x2="402.301622" y2="189.226101" class="t" />
<line x1="423.071465" y1="187.758757" x2="411.029848" y2="191.117834" class="t" />
<line x1="408.114737" y1="197.694682" x2="411.029848" y2="191.117834" class="t" />
<line x1="396.257191" y1="201.371030" x2="408.114737" y2="197.694682" class="t" />
<line x1="416.647806" y1="201.008858" x2="408.114737" y2="197.694682" class="t" />
<line x1="429.090684" y1="199.457695" x2="416.647806" y2="201.008858" class="t" />
<line x1="412.962845" y1="207.330201" x2="416.647806" y2="201.008858" class="t" />
<line x1="400.674285" y1="209.261240" x2="412.962845" y2="207.330201" class="t" />
<line x1="415.979599" y1="177.582544" x2="404.500813" y2="182.510035" class="t" />
<line x1="421.067842" y1="212.173159" x2="412.962845" y2="207.330201" class="t" />
<line x1="433.662015" y1="212.632119" x2="421.067842" y2="212.173159" class="t" />
<line x1="437.666201" y1="205.509541" x2="433.662015" y2="212.632119" class="t" />
<line x1="450.561888" y1="206.769760" x2="437.666201" y2="205.509541" class="t" />
<line x1="391.014737" y1="194.414648" x2="402.301622" y2="189.226101" class="t" />
<line x1="316.824811" y1="130.534106" x2="328.876288" y2="127.181884" class="t" />
<line x1="238.290346" y1="155.762527" x2="246.724950" y2="153.690659" class="t" />
<line x1="236.266805" y1="168.778645" x2="238.290346" y2="155.762527" class="t" />
<line x1="230.994666" y1="132.968314" x2="238.665699" y2="130.768078" class="t" />
<line x1="222.013749" y1="124.213246" x2="230.994666" y2="132.968314" class="t" />
<line x1="230.844254" y1="145.307110" x2="238.290346" y2="155.762527" class="t" />
<line x1="223.043552" y1="146.385652" x2="230.844254" y2="145.307110" class="t" />
<line x1="416.577847" y1="218.121782" x2="421.067842" y2="212.173159" class="t" />
<line x1="404.094630" y1="218.082090" x2="416.577847" y2="218.121782" class="t" />
<line x1="423.984436" y1="224.544280" x2="416.577847" y2="218.121782" class="t" />
<line x1="436.419284" y1="227.143376" x2="423.984436" y2="224.544280" class="t" />
<line x1="441.385600" y1="220.420618" x2="436.419284" y2="227.143376" class="t" />
<line x1="442.246571" y1="238.132212" x2="436.419284" y2="227.143376" class="t" />
<line x1="435.552998" y1="243.472930" x2="442.246571" y2="238.132212" class="t" />
<line x1="437.817340" y1="256.322721" x2="435.552998" y2="243.472930" class="t" />
<line x1="429.750578" y1="259.805539" x2="437.817340" y2="256.322721" class="t" />
<line x1="427.749538" y1="273.398427" x2="429.750578" y2="259.805539" class="t" />
<line x1="454.005736" y1="223.879408" x2="441.385600" y2="220.420618" class="t" />
<line x1="458.766823" y1="215.942870" x2="454.005736" y2="223.879408" class="t" />
<line x1="471.514641" y1="219.798679" x2="458.766823" y2="215.942870" class="t" />
<line x1="476.283446" y1="211.928551" x2="471.514641" y2="219.798679" class="t" />
<line x1="488.889102" y1="215.335089" x2="476.283446" y2="211.928551" class="t" />
<line x1="497.605831" y1="223.916119" x2="488.889102" y2="215.335089" class="t" />
<line x1="510.396096" y1="223.074951" x2="497.605831" y2="223.916119" class="t" />
<line x1="469.231661" y1="199.567834" x2="476.283446" y2="211.928551" class="t" />
<line x1="475.140107" y1="192.782411" x2="469.231661" y2="199.567834" class="t" />
<line x1="487.085774" y1="197.773643" x2="475.140107" y2="192.782411" class="t" />
<line x1="457.219010" y1="194.135808" x2="469.231661" y2="199.567834" class="t" />
<line x1="469.933682" y1="180.036765" x2="475.140107" y2="192.782411" class="t" />
<line x1="458.769943" y1="173.198438" x2="469.933682" y2="180.036765" class="t" />
<line x1="476.708654" y1="174.384238" x2="469.933682" y2="180.036765" class="t" />
<line x1="487.867051" y1="180.809459" x2="476.708654" y2="174.384238" class="t" />
<line x1="473.179090" y1="161.439126" x2="476.708654" y2="174.384238" class="t" />
<line x1="462.937046" y1="153.382249" x2="473.179090" y2="161.439126" class="t" />
<line x1="480.572078" y1="156.887594" x2="473.179090" y2="161.439126" class="t" />
<line x1="490.857709" y1="164.567753" x2="480.572078" y2="156.887594" class="t" />
<line x1="478.518881" y1="143.875924" x2="480.572078" y2="156.887594" class="t" />
<line x1="469.202638" y1="134.810590" x2="478.518881" y2="143.875924" class="t" />
<line x1="486.315040" y1="140.334074" x2="478.518881" y2="143.875924" class="t" />
<line x1="485.517696" y1="127.342620" x2="486.315040" y2="140.334074" class="t" />
<line x1="495.706919" y1="149.080841" x2="486.315040" y2="140.334074" class="t" />
<line x1="503.088755" y1="146.587001" x2="495.706919" y2="149.080841" class="t" />
<line x1="512.734777" y1="154.587440" x2="503.088755" y2="146.587001" class="t" />
<line x1="497.951016" y1="161.155496" x2="490.857709" y2="164.567753" class="t" />
<line x1="508.414273" y1="168.039750" x2="497.951016" y2="161.155496" class="t" />
<line x1="418.782851" y1="274.619188" x2="427.749538" y2="273.398427" class="t" />
<line x1="412.126247" y1="287.536772" x2="418.782851" y2="274.619188" class="t" />
<line x1="424.397547" y1="237.134852" x2="435.552998" y2="243.472930" class="t" />
<line x1="412.040025" y1="301.508110" x2="412.126247" y2="287.536772" class="t" />
<line x1="422.542458" y1="302.119710" x2="412.040025" y2="301.508110" class="t" />
<line x1="343.646233" y1="116.920796" x2="331.790469" y2="120.609014" class="t" />
<line x1="432.150419" y1="192.078262" x2="429.090684" y2="199.457695" class="t" />
<line x1="444.993438" y1="191.260457" x2="432.150419" y2="192.078262" class="t" />
<line x1="422.038716" y1="316.429153" x2="422.542458" y2="302.119710" class="t" />
<line x1="432.567303" y1="317.032623" x2="422.038716" y2="316.429153" class="t" />
<line x1="432.415753" y1="331.052581" x2="432.567303" y2="317.032623" class="t" />
<line x1="441.720380" y1="332.358067" x2="432.415753" y2="331.052581" class="t" />
<line x1="452.030905" y1="321.995986" x2="441.720380" y2="332.358067" class="t" />
<line x1="459.936159" y1="326.321048" x2="452.030905" y2="321.995986" class="t" />
<line x1="471.931054" y1="319.798399" x2="459.936159" y2="326.321048" class="t" />
<line x1="425.062246" y1="345.014290" x2="432.415753" y2="331.052581" class="t" />
<line x1="415.450040" y1="347.299485" x2="425.062246" y2="345.014290" class="t" />
<line x1="429.656284" y1="358.080219" x2="425.062246" y2="345.014290" class="t" />
<line x1="411.487412" y1="333.435670" x2="415.450040" y2="347.299485" class="t" />
<line x1="400.935772" y1="336.771647" x2="411.487412" y2="333.435670" class="t" />
<line x1="397.200771" y1="322.541565" x2="400.935772" y2="336.771647" class="t" />
<line x1="386.719750" y1="325.804615" x2="397.200771" y2="322.541565" class="t" />
<line x1="382.674720" y1="312.070589" x2="386.719750" y2="325.804615" class="t" />
<line x1="385.214698" y1="296.847649" x2="382.674720" y2="312.070589" class="t" />
<line x1="376.487660" y1="286.591301" x2="385.214698" y2="296.847649" class="t" />
<line x1="442.395996" y1="345.843337" x2="441.720380" y2="332.358067" class="t" />
<line x1="477.694835" y1="326.321576" x2="471.931054" y2="319.798399" class="t" />
<line x1="490.259015" y1="323.548422" x2="477.694835" y2="326.321576" class="t" />
<line x1="377.529961" y1="343.217823" x2="386.719750" y2="325.804615" class="t" />
<line x1="366.148216" y1="344.879531" x2="377.529961" y2="343.217823" class="t" />
<line x1="365.266730" y1="330.183170" x2="366.148216" y2="344.879531" class="t" />
<line x1="377.974928" y1="358.379672" x2="377.529961" y2="343.217823" class="t" />
<line x1="389.512350" y1="356.609771" x2="377.974928" y2="358.379672" class="t" />
<line x1="390.221089" y1="371.484847" x2="389.512350" y2="356.609771" class="t" />
<line x1="400.642611" y1="370.553649" x2="390.221089" y2="371.484847" class="t" />
<line x1="402.124323" y1="384.754485" x2="400.642611" y2="370.553649" class="t" />
<line x1="352.578100" y1="360.893792" x2="366.148216" y2="344.879531" class="t" />
<line x1="349.192885" y1="376.196074" x2="352.578100" y2="360.893792" class="t" />
<line x1="340.495032" y1="360.511159" x2="352.578100" y2="360.893792" class="t" />
<line x1="343.310809" y1="345.601911" x2="340.495032" y2="360.511159" class="t" />
<line x1="332.701109" y1="344.487356" x2="343.310809" y2="345.601911" class="t" />
<line x1="334.601938" y1="330.031653" x2="332.701109" y2="344.487356" class="t" />
<line x1="322.480294" y1="373.721617" x2="340.495032" y2="360.511159" class="t" />
<line x1="314.969694" y1="388.079909" x2="322.480294" y2="373.721617" class="t" />
<line x1="310.111537" y1="370.827198" x2="322.480294" y2="373.721617" class="t" />
<line x1="316.921183" y1="356.737219" x2="310.111537" y2="370.827198" class="t" />
<line x1="306.192092" y1="353.443915" x2="316.921183" y2="356.737219" class="t" />
<line x1="312.017832" y1="339.576476" x2="306.192092" y2="353.443915" class="t" />
<line x1="288.180696" y1="379.633467" x2="310.111537" y2="370.827198" class="t" />
<line x1="276.681421" y1="391.750053" x2="288.180696" y2="379.633467" class="t" />
<line x1="276.237893" y1="373.844983" x2="288.180696" y2="379.633467" class="t" />
<line x1="286.942444" y1="361.814296" x2="276.237893" y2="373.844983" class="t" />
<line x1="276.716262" y1="356.027912" x2="286.942444" y2="361.814296" class="t" />
<line x1="286.433993" y1="343.969172" x2="276.716262" y2="356.027912" class="t" />
<line x1="277.398845" y1="338.088288" x2="286.433993" y2="343.969172" class="t" />
<line x1="286.937125" y1="326.004737" x2="277.398845" y2="338.088288" class="t" />
<line x1="277.379567" y1="320.171255" x2="286.937125" y2="326.004737" class="t" />
<line x1="287.719543" y1="308.156713" x2="277.379567" y2="320.171255" class="t" />
<line x1="305.461123" y1="322.096579" x2="286.937125" y2="326.004737" class="t" />
<line x1="317.616919" y1="312.777745" x2="305.461123" y2="322.096579" class="t" />
<line x1="312.493425" y1="329.905549" x2="305.461123" y2="322.096579" class="t" />
<line x1="301.053577" y1="339.473469" x2="312.493425" y2="329.905549" class="t" />
<line x1="308.934035" y1="304.615228" x2="317.616919" y2="312.777745" class="t" />
<line x1="322.078019" y1="295.496722" x2="308.934035" y2="304.615228" class="t" />
<line x1="329.838231" y1="329.907198" x2="312.493425" y2="329.905549" class="t" />
<line x1="343.013579" y1="323.223764" x2="329.838231" y2="329.907198" class="t" />
<line x1="337.226153" y1="313.684563" x2="343.013579" y2="323.223764" class="t" />
<line x1="351.328996" y1="307.435844" x2="337.226153" y2="313.684563" class="t" />
<line x1="334.137424" y1="338.752132" x2="329.838231" y2="329.907198" class="t" />
<line x1="321.554667" y1="345.817191" x2="334.137424" y2="338.752132" class="t" />
<line x1="276.440274" y1="302.369692" x2="287.719543" y2="308.156713" class="t" />
<line x1="287.765767" y1="290.298416" x2="276.440274" y2="302.369692" class="t" />
<line x1="411.369347" y1="384.876889" x2="402.124323" y2="384.754485" class="t" />
<line x1="413.392416" y1="398.722635" x2="411.369347" y2="384.876889" class="t" />
<line x1="258.921873" y1="328.799033" x2="277.379567" y2="320.171255" class="t" />
<line x1="247.494991" y1="325.840344" x2="258.921873" y2="328.799033" class="t" />
<line x1="252.232197" y1="343.106634" x2="258.921873" y2="328.799033" class="t" />
<line x1="255.014499" y1="311.376289" x2="247.494991" y2="325.840344" class="t" />
<line x1="263.038158" y1="346.297541" x2="252.232197" y2="343.106634" class="t" />
<line x1="256.240059" y1="360.619984" x2="263.038158" y2="346.297541" class="t" />
<line x1="268.059366" y1="363.443950" x2="256.240059" y2="360.619984" class="t" />
<line x1="260.333233" y1="377.971919" x2="268.059366" y2="363.443950" class="t" />
<line x1="235.987391" y1="368.829047" x2="256.240059" y2="360.619984" class="t" />
<line x1="225.380250" y1="362.547833" x2="235.987391" y2="368.829047" class="t" />
<line x1="236.480751" y1="350.954536" x2="225.380250" y2="362.547833" class="t" />
<line x1="226.819930" y1="344.634333" x2="236.480751" y2="350.954536" class="t" />
<line x1="237.890339" y1="333.037883" x2="226.819930" y2="344.634333" class="t" />
<line x1="227.431736" y1="326.752975" x2="237.890339" y2="333.037883" class="t" />
<line x1="223.975284" y1="380.331526" x2="235.987391" y2="368.829047" class="t" />
<line x1="239.389396" y1="315.256022" x2="227.431736" y2="326.752975" class="t" />
<line x1="203.503560" y1="364.462840" x2="225.380250" y2="362.547833" class="t" />
<line x1="195.290920" y1="355.426101" x2="203.503560" y2="364.462840" class="t" />
<line x1="209.228057" y1="347.510419" x2="195.290920" y2="355.426101" class="t" />
<line x1="188.755526" y1="372.033210" x2="203.503560" y2="364.462840" class="t" />
<line x1="174.226734" y1="351.423046" x2="195.290920" y2="355.426101" class="t" />
<line x1="169.188265" y1="340.739710" x2="174.226734" y2="351.423046" class="t" />
<line x1="184.459539" y1="336.731212" x2="169.188265" y2="340.739710" class="t" />
<line x1="158.309448" y1="354.896106" x2="174.226734" y2="351.423046" class="t" />
<line x1="150.761714" y1="332.067782" x2="169.188265" y2="340.739710" class="t" />
<line x1="134.925545" y1="331.808214" x2="150.761714" y2="332.067782" class="t" />
<line x1="149.130730" y1="320.981447" x2="150.761714" y2="332.067782" class="t" />
<line x1="164.514417" y1="320.591103" x2="149.130730" y2="320.981447" class="t" />
<line x1="134.290336" y1="309.237509" x2="149.130730" y2="320.981447" class="t" />
<line x1="119.360013" y1="305.859602" x2="134.290336" y2="309.237509" class="t" />
<line x1="118.640063" y1="317.762560" x2="119.360013" y2="305.859602" class="t" />
<line x1="103.229104" y1="313.494111" x2="118.640063" y2="317.762560" class="t" />
<line x1="103.011869" y1="326.577480" x2="103.229104" y2="313.494111" class="t" />
<line x1="87.443342" y1="322.082124" x2="103.011869" y2="326.577480" class="t" />
<line x1="87.069077" y1="334.777151" x2="87.443342" y2="322.082124" class="t" />
<line x1="71.894999" y1="330.904063" x2="87.069077" y2="334.777151" class="t" />
<line x1="100.077365" y1="354.509190" x2="87.069077" y2="334.777151" class="t" />
<line x1="114.253326" y1="363.358119" x2="100.077365" y2="354.509190" class="t" />
<line x1="96.784865" y1="367.362786" x2="100.077365" y2="354.509190" class="t" />
<line x1="82.854317" y1="359.267339" x2="96.784865" y2="367.362786" class="t" />
<line x1="104.521515" y1="390.821257" x2="96.784865" y2="367.362786" class="t" />
<line x1="115.892035" y1="403.602386" x2="104.521515" y2="390.821257" class="t" />
<line x1="98.000298" y1="402.862314" x2="104.521515" y2="390.821257" class="t" />
<line x1="86.664871" y1="390.916379" x2="98.000298" y2="402.862314" class="t" />
<line x1="80.245081" y1="401.222758" x2="86.664871" y2="390.916379" class="t" />
<line x1="68.812250" y1="390.230055" x2="80.245081" y2="401.222758" class="t" />
<line x1="99.087224" y1="428.178156" x2="98.000298" y2="402.862314" class="t" />
<line x1="106.411254" y1="443.866729" x2="99.087224" y2="428.178156" class="t" />
<line x1="70.898964" y1="307.064449" x2="87.443342" y2="322.082124" class="t" />
<line x1="68.864343" y1="295.148965" x2="70.898964" y2="307.064449" class="t" />
<line x1="137.691422" y1="344.184193" x2="134.925545" y2="331.808214" class="t" />
<line x1="121.176342" y1="343.195986" x2="137.691422" y2="344.184193" class="t" />
<line x1="201.798783" y1="338.670546" x2="209.228057" y2="347.510419" class="t" />
<line x1="215.781896" y1="330.776499" x2="201.798783" y2="338.670546" class="t" />
<line x1="207.446768" y1="321.702729" x2="215.781896" y2="330.776499" class="t" />
<line x1="222.283970" y1="314.163708" x2="207.446768" y2="321.702729" class="t" />
<line x1="135.794884" y1="298.830031" x2="134.290336" y2="309.237509" class="t" />
<line x1="150.466075" y1="301.511165" x2="135.794884" y2="298.830031" class="t" />
<line x1="124.713227" y1="285.497011" x2="135.794884" y2="298.830031" class="t" />
<line x1="246.938282" y1="320.254550" x2="222.283970" y2="314.163708" class="t" />
<line x1="264.038434" y1="317.751801" x2="246.938282" y2="320.254550" class="t" />
<line x1="55.716538" y1="307.281152" x2="70.898964" y2="307.064449" class="t" />
<line x1="111.157551" y1="279.651474" x2="124.713227" y2="285.497011" class="t" />
<line x1="107.524136" y1="290.206572" x2="111.157551" y2="279.651474" class="t" />
<line x1="84.535212" y1="295.410861" x2="68.864343" y2="295.148965" class="t" />
<line x1="82.327581" y1="283.247643" x2="84.535212" y2="295.410861" class="t" />
<line x1="79.226972" y1="370.435703" x2="82.854317" y2="359.267339" class="t" />
<line x1="65.464790" y1="363.315778" x2="79.226972" y2="370.435703" class="t" />
<line x1="50.459764" y1="285.049391" x2="68.864343" y2="295.148965" class="t" />
<line x1="46.561055" y1="274.232221" x2="50.459764" y2="285.049391" class="t" />
<line x1="164.784706" y1="366.548740" x2="158.309448" y2="354.896106" class="t" />
<line x1="148.043692" y1="369.522836" x2="164.784706" y2="366.548740" class="t" />
<line x1="264.156958" y1="314.025057" x2="239.389396" y2="315.256022" class="t" />
<line x1="279.557727" y1="306.812441" x2="264.156958" y2="314.025057" class="t" />
<line x1="273.826407" y1="380.339908" x2="260.333233" y2="377.971919" class="t" />
<line x1="265.315080" y1="395.170057" x2="273.826407" y2="380.339908" class="t" />
<line x1="500.146266" y1="314.784671" x2="490.259015" y2="323.548422" class="t" />
<line x1="495.681101" y1="306.456689" x2="500.146266" y2="314.784671" class="t" />
<line x1="215.191241" y1="136.635889" x2="223.043552" y2="146.385652" class="t" />
<line x1="198.618119" y1="381.620329" x2="188.755526" y2="372.033210" class="t" />
<line x1="182.976550" y1="388.954446" x2="198.618119" y2="381.620329" class="t" />
<line x1="471.347201" y1="337.653329" x2="477.694835" y2="326.321576" class="t" />
<line x1="241.740311" y1="68.596836" x2="249.225683" y2="79.053232" class="t" />
<line x1="228.827547" y1="67.221605" x2="241.740311" y2="68.596836" class="t" />
<line x1="298.919013" y1="63.084234" x2="302.875395" y2="75.522533" class="t" />
<line x1="306.447677" y1="58.559593" x2="298.919013" y2="63.084234" class="t" />
<line x1="306.623312" y1="44.816211" x2="306.447677" y2="58.559593" class="t" />
<line x1="315.336783" y1="42.414963" x2="306.623312" y2="44.816211" class="t" />
<line x1="320.214130" y1="28.725989" x2="315.336783" y2="42.414963" class="t" />
<line x1="329.559201" y1="28.824542" x2="320.214130" y2="28.725989" class="t" />
<line x1="339.287537" y1="16.830059" x2="329.559201" y2="28.824542" class="t" />
<line x1="355.131766" y1="330.867738" x2="365.266730" y2="330.183170" class="t" />
<line x1="353.459807" y1="316.814320" x2="355.131766" y2="330.867738" class="t" />
<line x1="413.631248" y1="262.454704" x2="418.782851" y2="274.619188" class="t" />
<line x1="316.352874" y1="66.984418" x2="306.447677" y2="58.559593" class="t" />
<line x1="320.079657" y1="77.096714" x2="316.352874" y2="66.984418" class="t" />
<line x1="331.292351" y1="83.034164" x2="320.079657" y2="77.096714" class="t" />
<line x1="36.225940" y1="288.842695" x2="50.459764" y2="285.049391" class="t" />
<line x1="19.988237" y1="286.023035" x2="36.225940" y2="288.842695" class="t" />
<line x1="236.326312" y1="386.672588" x2="223.975284" y2="380.331526" class="t" />
<line x1="223.428690" y1="398.216016" x2="236.326312" y2="386.672588" class="t" />
<line x1="247.029147" y1="59.497583" x2="259.816027" y2="63.568475" class="t" />
<line x1="237.595810" y1="49.632622" x2="247.029147" y2="59.497583" class="t" />
<line x1="456.888232" y1="339.181427" x2="459.936159" y2="326.321048" class="t" />
<line x1="371.273216" y1="314.844514" x2="365.266730" y2="330.183170" class="t" />
<line x1="364.830347" y1="302.667353" x2="371.273216" y2="314.844514" class="t" />
<line x1="421.052546" y1="250.144274" x2="429.750578" y2="259.805539" class="t" />
<line x1="453.332711" y1="245.372898" x2="442.246571" y2="238.132212" class="t" />
<line x1="460.181384" y1="238.780346" x2="453.332711" y2="245.372898" class="t" />
<line x1="128.767751" y1="276.532842" x2="124.713227" y2="285.497011" class="t" />
<line x1="142.241289" y1="281.694367" x2="128.767751" y2="276.532842" class="t" />
<line x1="121.116541" y1="262.723063" x2="128.767751" y2="276.532842" class="t" />
<line x1="109.128376" y1="254.979962" x2="121.116541" y2="262.723063" class="t" />
<line x1="103.317026" y1="263.690661" x2="109.128376" y2="254.979962" class="t" />
<line x1="105.910868" y1="238.149004" x2="109.128376" y2="254.979962" class="t" />
<line x1="114.055026" y1="232.552423" x2="105.910868" y2="238.149004" class="t" />
<line x1="115.889439" y1="216.887070" x2="114.055026" y2="232.552423" class="t" />
<line x1="125.048254" y1="214.755609" x2="115.889439" y2="216.887070" class="t" />
<line x1="130.938596" y1="201.380363" x2="125.048254" y2="214.755609" class="t" />
<line x1="61.326756" y1="270.768004" x2="46.561055" y2="274.232221" class="t" />
<line x1="57.284152" y1="259.813358" x2="61.326756" y2="270.768004" class="t" />
<line x1="477.053345" y1="117.487651" x2="485.517696" y2="127.342620" class="t" />
<line x1="27.658049" y1="268.704179" x2="46.561055" y2="274.232221" class="t" />
<line x1="22.372666" y1="259.088389" x2="27.658049" y2="268.704179" class="t" />
<line x1="408.176248" y1="168.896250" x2="397.331661" y2="175.106013" class="t" />
<line x1="39.463588" y1="300.418205" x2="55.716538" y2="307.281152" class="t" />
<line x1="26.680588" y1="306.507696" x2="39.463588" y2="300.418205" class="t" />
<line x1="432.296678" y1="286.303380" x2="427.749538" y2="273.398427" class="t" />
<line x1="442.172217" y1="284.052327" x2="432.296678" y2="286.303380" class="t" />
<line x1="70.805211" y1="342.063217" x2="71.894999" y2="330.904063" class="t" />
<line x1="56.049800" y1="339.106591" x2="70.805211" y2="342.063217" class="t" />
<line x1="419.111573" y1="228.362661" x2="424.397547" y2="237.134852" class="t" />
<line x1="407.121304" y1="224.589358" x2="419.111573" y2="228.362661" class="t" />
<line x1="456.016970" y1="308.900062" x2="452.030905" y2="321.995986" class="t" />
<line x1="446.750956" y1="304.858576" x2="456.016970" y2="308.900062" class="t" />
<line x1="479.214084" y1="308.524540" x2="471.931054" y2="319.798399" class="t" />
<line x1="472.092251" y1="301.868265" x2="479.214084" y2="308.524540" class="t" />
<line x1="494.272725" y1="207.055469" x2="487.085774" y2="197.773643" class="t" />
<line x1="506.932687" y1="207.944016" x2="494.272725" y2="207.055469" class="t" />
<line x1="254.719445" y1="41.662319" x2="264.375417" y2="54.949762" class="t" />
<line x1="257.655625" y1="31.987071" x2="254.719445" y2="41.662319" class="t" />
<line x1="446.175818" y1="266.844033" x2="437.817340" y2="256.322721" class="t" />
<line x1="454.778420" y1="262.159888" x2="446.175818" y2="266.844033" class="t" />
<line x1="494.493832" y1="176.372325" x2="487.867051" y2="180.809459" class="t" />
<line x1="505.723619" y1="181.965954" x2="494.493832" y2="176.372325" class="t" />
<line x1="237.255781" y1="118.303080" x2="244.596815" y2="114.856884" class="t" />
<line x1="227.183555" y1="110.739417" x2="237.255781" y2="118.303080" class="t" />
<line x1="385.079673" y1="188.273859" x2="395.747598" y2="181.876017" class="t" />
<line x1="383.668274" y1="195.182381" x2="385.079673" y2="188.273859" class="t" />
<line x1="372.648058" y1="201.208970" x2="383.668274" y2="195.182381" class="t" />
<line x1="372.214723" y1="208.938942" x2="372.648058" y2="201.208970" class="t" />
<line x1="362.161338" y1="197.751687" x2="372.648058" y2="201.208970" class="t" />
<line x1="364.479727" y1="190.388283" x2="362.161338" y2="197.751687" class="t" />
<line x1="355.049668" y1="184.386309" x2="364.479727" y2="190.388283" class="t" />
<line x1="359.041269" y1="177.760707" x2="355.049668" y2="184.386309" class="t" />
<line x1="351.210161" y1="169.516198" x2="359.041269" y2="177.760707" class="t" />
<line x1="360.605538" y1="214.466207" x2="372.214723" y2="208.938942" class="t" />
<line x1="348.252408" y1="210.655516" x2="360.605538" y2="214.466207" class="t" />
<line x1="356.614948" y1="163.911657" x2="351.210161" y2="169.516198" class="t" />
<line x1="350.836511" y1="153.857468" x2="356.614948" y2="163.911657" class="t" />
<line x1="436.395503" y1="357.598861" x2="442.395996" y2="345.843337" class="t" />
<line x1="439.463321" y1="370.859041" x2="436.395503" y2="357.598861" class="t" />
<line x1="302.227426" y1="112.778388" x2="306.237530" y2="105.664614" class="t" />
<line x1="289.328115" y1="111.505254" x2="302.227426" y2="112.778388" class="t" />
<line x1="224.388129" y1="50.064902" x2="237.595810" y2="49.632622" class="t" />
<line x1="227.761481" y1="169.767617" x2="236.266805" y2="168.778645" class="t" />
<line x1="224.551606" y1="182.378286" x2="227.761481" y2="169.767617" class="t" />
<line x1="9.330851" y1="294.767857" x2="19.988237" y2="286.023035" class="t" />
<line x1="322.058465" y1="53.792166" x2="315.336783" y2="42.414963" class="t" />
<line x1="322.302924" y1="65.196251" x2="322.058465" y2="53.792166" class="t" />
<line x1="331.096144" y1="74.559647" x2="322.302924" y2="65.196251" class="t" />
<line x1="123.046921" y1="243.083396" x2="114.055026" y2="232.552423" class="t" />
<line x1="125.882173" y1="257.194914" x2="123.046921" y2="243.083396" class="t" />
<line x1="136.827209" y1="265.907362" x2="125.882173" y2="257.194914" class="t" />
<line x1="242.368419" y1="180.261272" x2="236.266805" y2="168.778645" class="t" />
<line x1="323.919010" y1="140.714866" x2="335.401987" y2="135.796355" class="t" />
<line x1="493.023346" y1="192.254921" x2="487.085774" y2="197.773643" class="t" />
<line x1="504.926939" y1="196.383437" x2="493.023346" y2="192.254921" class="t" />
<line x1="97.220167" y1="226.654738" x2="105.910868" y2="238.149004" class="t" />
<line x1="88.577403" y1="233.570948" x2="97.220167" y2="226.654738" class="t" />
<line x1="332.080714" y1="42.056307" x2="329.559201" y2="28.824542" class="t" />
<line x1="130.533751" y1="227.088384" x2="125.048254" y2="214.755609" class="t" />
<line x1="300.402345" y1="32.627609" x2="306.623312" y2="44.816211" class="t" />
<line x1="290.916276" y1="36.173123" x2="300.402345" y2="32.627609" class="t" />
<line x1="221.487654" y1="158.571740" x2="227.761481" y2="169.767617" class="t" />
<line x1="213.690097" y1="158.694294" x2="221.487654" y2="158.571740" class="t" />
<line x1="210.912142" y1="169.308090" x2="213.690097" y2="158.694294" class="t" />
<line x1="203.395622" y1="167.435254" x2="210.912142" y2="169.308090" class="t" />
<line x1="198.044734" y1="177.084984" x2="203.395622" y2="167.435254" class="t" />
<line x1="191.240243" y1="173.430599" x2="198.044734" y2="177.084984" class="t" />
<line x1="183.582364" y1="181.568489" x2="191.240243" y2="173.430599" class="t" />
<line x1="177.816231" y1="176.408467" x2="183.582364" y2="181.568489" class="t" />
<line x1="168.256604" y1="182.554417" x2="177.816231" y2="176.408467" class="t" />
<line x1="425.256536" y1="180.256424" x2="423.071465" y2="187.758757" class="t" />
<line x1="437.775383" y1="177.555781" x2="425.256536" y2="180.256424" class="t" />
<line x1="318.452188" y1="14.860571" x2="320.214130" y2="28.725989" class="t" />
<line x1="307.966641" y1="15.648577" x2="318.452188" y2="14.860571" class="t" />
<line x1="110.983806" y1="203.760849" x2="115.889439" y2="216.887070" class="t" />
<line x1="100.940610" y1="206.992241" x2="110.983806" y2="203.760849" class="t" />
<line x1="56.742601" y1="317.895192" x2="55.716538" y2="307.281152" class="t" />
<line x1="42.196649" y1="318.918691" x2="56.742601" y2="317.895192" class="t" />
<line x1="129.156575" y1="240.212359" x2="130.533751" y2="227.088384" class="t" />
<line x1="136.785074" y1="251.488657" x2="129.156575" y2="240.212359" class="t" />
<line x1="418.073326" y1="171.913876" x2="408.176248" y2="168.896250" class="t" />
<line x1="430.624032" y1="169.544990" x2="418.073326" y2="171.913876" class="t" />
<line x1="241.489163" y1="102.316860" x2="248.263700" y2="97.575882" class="t" />
<line x1="230.439783" y1="96.085152" x2="241.489163" y2="102.316860" class="t" />
<line x1="242.604365" y1="86.736560" x2="248.263700" y2="97.575882" class="t" />
<line x1="230.175847" y1="83.622112" x2="242.604365" y2="86.736560" class="t" />
<line x1="348.891032" y1="123.903554" x2="337.607025" y2="129.080253" class="t" />
<line x1="351.006155" y1="117.099352" x2="348.891032" y2="123.903554" class="t" />
<line x1="418.708252" y1="239.632848" x2="421.052546" y2="250.144274" class="t" />
<line x1="408.389967" y1="232.254165" x2="418.708252" y2="239.632848" class="t" />
<line x1="314.224943" y1="136.263660" x2="323.919010" y2="140.714866" class="t" />
<line x1="301.439419" y1="137.083022" x2="314.224943" y2="136.263660" class="t" />
<line x1="328.232637" y1="53.585833" x2="332.080714" y2="42.056307" class="t" />
<line x1="333.405411" y1="65.564758" x2="328.232637" y2="53.585833" class="t" />
<line x1="448.441097" y1="347.982891" x2="456.888232" y2="339.181427" class="t" />
<line x1="447.531501" y1="361.254316" x2="448.441097" y2="347.982891" class="t" />
<line x1="336.067059" y1="215.171493" x2="348.252408" y2="210.655516" class="t" />
<line x1="324.247911" y1="212.650256" x2="336.067059" y2="215.171493" class="t" />
<line x1="400.006378" y1="161.568747" x2="389.762405" y2="168.758784" class="t" />
<line x1="409.913190" y1="163.380254" x2="400.006378" y2="161.568747" class="t" />
<line x1="422.141921" y1="159.762656" x2="409.913190" y2="163.380254" class="t" />
<line x1="349.507449" y1="200.230588" x2="362.161338" y2="197.751687" class="t" />
<line x1="338.399075" y1="193.694348" x2="349.507449" y2="200.230588" class="t" />
<line x1="376.707358" y1="187.310242" x2="364.479727" y2="190.388283" class="t" />
<line x1="379.781215" y1="181.028794" x2="376.707358" y2="187.310242" class="t" />
<line x1="371.329414" y1="177.563659" x2="379.781215" y2="181.028794" class="t" />
<line x1="375.480326" y1="171.955515" x2="371.329414" y2="177.563659" class="t" />
<line x1="367.803285" y1="166.766748" x2="375.480326" y2="171.955515" class="t" />
<line x1="372.975620" y1="162.050615" x2="367.803285" y2="166.766748" class="t" />
<line x1="366.573561" y1="155.126146" x2="372.975620" y2="162.050615" class="t" />
<line x1="372.663780" y1="151.542892" x2="366.573561" y2="155.126146" class="t" />
<line x1="368.105375" y1="143.070964" x2="372.663780" y2="151.542892" class="t" />
<line x1="374.929077" y1="140.869580" x2="368.105375" y2="143.070964" class="t" />
<line x1="372.752086" y1="131.277705" x2="374.929077" y2="140.869580" class="t" />
<line x1="380.040198" y1="130.679959" x2="372.752086" y2="131.277705" class="t" />
<line x1="380.642415" y1="120.620794" x2="380.040198" y2="130.679959" class="t" />
<line x1="216.084727" y1="182.468133" x2="224.551606" y2="182.378286" class="t" />
<line x1="211.927981" y1="194.707652" x2="216.084727" y2="182.468133" class="t" />
<line x1="307.739115" y1="126.212578" x2="310.804365" y2="118.838388" class="t" />
<line x1="294.893563" y1="127.021951" x2="307.739115" y2="126.212578" class="t" />
<line x1="357.666480" y1="125.974439" x2="348.891032" y2="123.903554" class="t" />
<line x1="354.520395" y1="132.280299" x2="357.666480" y2="125.974439" class="t" />
<line x1="362.889711" y1="135.705474" x2="354.520395" y2="132.280299" class="t" />
<line x1="358.745673" y1="141.345584" x2="362.889711" y2="135.705474" class="t" />
<line x1="366.441761" y1="146.256595" x2="358.745673" y2="141.345584" class="t" />
<line x1="361.359238" y1="151.040190" x2="366.441761" y2="146.256595" class="t" />
<line x1="367.990994" y1="157.506884" x2="361.359238" y2="151.040190" class="t" />
<line x1="362.061011" y1="161.231685" x2="367.990994" y2="157.506884" class="t" />
<line x1="367.129285" y1="169.178863" x2="362.061011" y2="161.231685" class="t" />
<line x1="360.497747" y1="171.625058" x2="367.129285" y2="169.178863" class="t" />
<line x1="363.475827" y1="180.767707" x2="360.497747" y2="171.625058" class="t" />
<line x1="356.365145" y1="181.723529" x2="363.475827" y2="180.767707" class="t" />
<line x1="356.800607" y1="191.544999" x2="356.365145" y2="181.723529" class="t" />
<line x1="362.905958" y1="202.733827" x2="356.800607" y2="191.544999" class="t" />
<line x1="240.977295" y1="192.830051" x2="242.368419" y2="180.261272" class="t" />
<line x1="357.371809" y1="149.461939" x2="350.836511" y2="153.857468" class="t" />
<line x1="353.950891" y1="138.128213" x2="357.371809" y2="149.461939" class="t" />
<line x1="229.587754" y1="194.352628" x2="224.551606" y2="182.378286" class="t" />
<line x1="227.320841" y1="206.497373" x2="229.587754" y2="194.352628" class="t" />
<line x1="213.688342" y1="44.215806" x2="224.388129" y2="50.064902" class="t" />
<line x1="200.641474" y1="46.805429" x2="213.688342" y2="44.215806" class="t" />
<line x1="414.916720" y1="251.125382" x2="413.631248" y2="262.454704" class="t" />
<line x1="407.457810" y1="240.671582" x2="414.916720" y2="251.125382" class="t" />
<line x1="331.719630" y1="149.399765" x2="342.572605" y2="143.198051" class="t" />
<line x1="321.818816" y1="146.371797" x2="331.719630" y2="149.399765" class="t" />
<line x1="309.264772" y1="148.724243" x2="321.818816" y2="146.371797" class="t" />
<line x1="461.492303" y1="343.333775" x2="471.347201" y2="337.653329" class="t" />
<line x1="456.945564" y1="355.563027" x2="461.492303" y2="343.333775" class="t" />
<line x1="163.759393" y1="176.194181" x2="168.256604" y2="182.554417" class="t" />
<line x1="152.805023" y1="179.985459" x2="163.759393" y2="176.194181" class="t" />
<line x1="325.514000" y1="195.396274" x2="338.399075" y2="193.694348" class="t" />
<line x1="314.690080" y1="190.618418" x2="325.514000" y2="195.396274" class="t" />
<line x1="342.128885" y1="183.710237" x2="355.049668" y2="184.386309" class="t" />
<line x1="332.791398" y1="174.840178" x2="342.128885" y2="183.710237" class="t" />
<line x1="203.557302" y1="194.115962" x2="211.927981" y2="194.707652" class="t" />
<line x1="198.714579" y1="206.060142" x2="203.557302" y2="194.115962" class="t" />
<line x1="216.102463" y1="207.014206" x2="211.927981" y2="194.707652" class="t" />
<line x1="213.257729" y1="218.766118" x2="216.102463" y2="207.014206" class="t" />
<line x1="336.727404" y1="167.517456" x2="332.791398" y2="174.840178" class="t" />
<line x1="327.497876" y1="158.537840" x2="336.727404" y2="167.517456" class="t" />
<line x1="190.440521" y1="205.009568" x2="198.714579" y2="206.060142" class="t" />
<line x1="185.177339" y1="216.766071" x2="190.440521" y2="205.009568" class="t" />
</svg>
