<?xml version="1.0"?>
<svg width="599" height="526" version="1.1" xmlns="http://www.w3.org/2000/svg" >
<defs>
<style type="text/css"><![CDATA[
.m {stroke:rgb(255,0,0);stroke-width:0.748750;}
.v {stroke:rgb(0,0,255);stroke-width:0.748750;}
.b {stroke:rgb(0,0,0);stroke-width:1.497500;fill:white}
.n {stroke:rgb(128,128,128);stroke-width:0.748750}
.t {stroke:rgb(0,128,0);stroke-width:0.748750;}
.c {stroke:rgb(128,128,128);stroke-width:0.748750;stroke-dasharray:5.990000, 5.990000;}
]]></style>
</defs>
<path fill="none" style="stroke:black;stroke-width:1.497500;" d=" M 249.399 243.589 L 270.923 262.255 M 260.302 272.468 L 249.144 246.253 M 249.144 246.253 L 231.388 243.21 M 225.512 263.491 L 242.566 269.292 M 213.446 241.494 L 195.697 238.417 M 191.761 250.961 L 208.898 256.526 M 195.697 238.417 L 178.612 232.7 M 173.99 248.018 L 191.761 250.961 M 178.612 232.7 L 161.991 225.75 M 161.991 225.75 L 173.99 248.018 M 287.786 255.918 L 267.242 241.163 M 266.526 218.496 L 248.514 218.174 M 248.514 218.174 L 230.659 220.623 M 231.388 243.21 L 249.399 243.589 M 213.057 224.483 L 195.21 226.999 M 195.433 241.262 L 213.446 241.494 M 195.21 226.999 L 177.195 226.725 M 177.599 243.816 L 195.433 241.262 M 177.195 226.725 L 159.265 225.031 M 159.265 225.031 L 177.599 243.816 M 267.242 241.163 L 284.839 237.301 M 284.839 237.301 L 266.526 218.496 M 255.62 184.746 L 238.368 189.925 M 247.886 215.329 L 264.033 207.341 M 238.368 189.925 L 222.164 197.783 M 230.659 220.623 L 247.886 215.329 M 206.682 206.989 L 190.555 215.019 M 195.815 229.734 L 213.057 224.483 M 190.555 215.019 L 173.362 220.401 M 179.637 237.664 L 195.815 229.734 M 173.362 220.401 L 155.774 224.286 M 155.774 224.286 L 179.637 237.664 M 264.033 207.341 L 279.494 198.105 M 279.494 198.105 L 255.62 184.746 M 249.397 174.39 L 233.044 154.498 M 233.044 154.498 L 218.27 164.804 M 236.741 187.207 L 249.397 174.39 M 218.27 164.804 L 205.357 177.374 M 222.164 197.783 L 236.741 187.207 M 193.686 191.094 L 181.084 203.965 M 191.946 217.352 L 206.682 206.989 M 181.084 203.965 L 166.562 214.636 M 179.118 230.002 L 191.946 217.352 M 166.562 214.636 L 151.108 223.89 M 167.491 243.758 L 179.118 230.002 M 151.108 223.89 L 167.491 243.758 M 223.232 146.232 L 199.661 131.965 M 199.661 131.965 L 188.928 146.435 M 215.608 162.553 L 223.232 146.232 M 188.928 146.435 L 180.73 162.476 M 205.357 177.374 L 215.608 162.553 M 174.207 179.267 L 166.62 195.608 M 182.988 205.587 L 193.686 191.094 M 166.62 195.608 L 156.463 210.478 M 174.878 221.68 L 182.988 205.587 M 156.463 210.478 L 144.827 224.244 M 168.409 238.491 L 174.878 221.68 M 144.827 224.244 L 168.409 238.491 M 184.127 124.484 L 154.663 122.773 M 154.663 122.773 L 151.702 140.548 M 185.109 142.474 L 184.127 124.484 M 151.729 158.56 L 185.109 142.474 M 180.73 162.476 L 185.385 145.074 M 185.385 145.074 L 150.014 156.111 M 149.393 174.123 L 147.778 192.065 M 168.723 196.429 L 174.207 179.267 M 147.778 192.065 L 143.222 209.491 M 166.22 214.262 L 168.723 196.429 M 143.222 209.491 L 136.771 226.308 M 165.674 232.279 L 166.22 214.262 M 136.771 226.308 L 165.674 232.279 M 201.903 527.141 L 232.946 521.797 M 232.946 521.797 L 232.005 503.799 M 196.759 509.871 L 201.903 527.141 M 228.136 486.212 L 196.759 509.871 M 151.702 140.548 L 117.709 160.264 M 121.554 177.865 L 151.729 158.56 M 150.014 156.111 L 121.554 177.865 M 149.688 192.135 L 149.393 174.123 M 126.076 195.301 L 127.684 213.246 M 152.986 209.843 L 149.688 192.135 M 127.684 213.246 L 127.151 231.254 M 158.366 227.032 L 152.986 209.843 M 127.151 231.254 L 158.366 227.032 M 315.502 0 L 340.492 22.0072 M 354.03 10.1123 L 315.502 0 M 599.456 243.398 L 598.258 225.415 M 598.258 225.415 L 561.661 241.139 M 561.174 259.151 L 599.456 243.398 M 232.005 503.799 L 263.554 476.997 M 256.283 460.508 L 228.136 486.212 M 117.709 160.264 L 93.0007 189.29 M 101.764 205.024 L 107.89 221.962 M 133.387 211.768 L 126.076 195.301 M 107.89 221.962 L 111.816 239.544 M 142.731 227.171 L 133.387 211.768 M 111.816 239.544 L 142.731 227.171 M 340.492 22.0072 L 359.654 50.8061 M 375.878 42.9678 L 354.03 10.1123 M 561.661 241.139 L 522.204 241.036 M 522.502 259.048 L 561.174 259.151 M 263.554 476.997 L 296.019 455.985 M 284.006 442.556 L 256.283 460.508 M 93.0007 189.29 L 66.5618 209.085 M 79.2115 221.908 L 101.764 205.024 M 95.6183 199.006 L 79.2115 221.908 M 93.6539 232.687 L 110.502 209.151 M 110.502 209.151 L 95.6183 199.006 M 407.427 213.636 L 400.034 241.62 M 425.353 215.431 L 407.427 213.636 M 416.526 248.877 L 425.353 215.431 M 359.654 50.8061 L 370.317 84.2242 M 388.091 81.2778 L 375.878 42.9678 M 522.204 241.036 L 482.008 242.096 M 482.57 260.103 L 522.502 259.048 M 296.019 455.985 L 321.422 425.156 M 305.968 415.893 L 284.006 442.556 M 76.791 212.114 L 48.8318 232.399 M 61.3953 245.313 L 76.791 212.114 M 66.5618 209.085 L 61.3953 245.313 M 75.6754 256.297 L 93.6539 232.687 M 400.034 241.62 L 384.13 266.675 M 397.729 278.494 L 416.526 248.877 M 370.317 84.2242 L 370.882 118.762 M 388.728 121.227 L 388.091 81.2778 M 482.008 242.096 L 442.068 243.151 M 442.367 261.166 L 482.57 260.103 M 321.422 425.156 L 336.953 388.059 M 319.516 383.537 L 305.968 415.893 M 58.6509 235.287 L 30.5637 256.302 M 43.424 268.92 L 58.6509 235.287 M 48.8318 232.399 L 43.424 268.92 M 57.8646 279.697 L 75.6754 256.297 M 384.13 266.675 L 361.882 285.905 M 371.59 301.075 L 397.729 278.494 M 370.882 118.762 L 361.413 150.404 M 377.633 158.258 L 388.728 121.227 M 442.068 243.151 L 403.411 243.054 M 402.919 261.055 L 442.367 261.166 M 336.953 388.059 L 341.617 348.887 M 323.605 349.184 L 319.516 383.537 M 311.965 382.905 L 320.836 349.466 M 302.915 347.672 L 311.965 382.905 M 30.5637 256.302 L 26.5644 292.458 M 41.458 302.599 L 57.8646 279.697 M 361.882 285.905 L 336.333 297.775 M 341.637 314.991 L 371.59 301.075 M 361.413 150.404 L 343.789 175.607 M 356.639 188.241 L 377.633 158.258 M 403.411 243.054 L 366.874 240.872 M 365.119 258.805 L 402.919 261.055 M 341.617 348.887 L 336.193 311.411 M 318.844 316.227 L 323.605 349.184 M 320.836 349.466 L 318.844 316.227 M 301.279 320.256 L 302.915 347.672 M 26.5644 292.458 L 11.8723 315.662 M 27.4409 324.712 L 41.458 302.599 M 336.333 297.775 L 310.542 302.283 M 311.341 320.281 L 341.637 314.991 M 343.789 175.607 L 321.102 192.152 M 329.113 208.294 L 356.639 188.241 M 366.874 240.872 L 333.166 236.017 M 329.723 253.699 L 365.119 258.805 M 338.618 308.158 L 321.637 276.684 M 306.916 287.062 L 338.618 308.158 M 336.193 311.411 L 306.916 287.062 M 291.637 296.618 L 301.279 320.256 M 11.8723 315.662 L 0 338.263 M 16.3592 345.805 L 27.4409 324.712 M 310.542 302.283 L 286.781 300.515 M 283.339 318.205 L 311.341 320.281 M 321.102 192.152 L 296.831 199.448 M 299.068 217.328 L 329.113 208.294 M 333.166 236.017 L 302.776 228.219 M 297.311 245.389 L 329.723 253.699 M 322.839 272.336 L 297.793 250.147 M 287.438 264.89 L 322.839 272.336 M 321.637 276.684 L 287.438 264.89 M 276.174 278.94 L 291.637 296.618 M 295.007 292.974 L 276.174 278.94 M 266.378 294.064 L 295.007 292.974 M 8.37929 365.66 L 16.3592 345.805 M 0 338.263 L 8.37929 365.66 M 286.781 300.515 L 266.378 294.064 M 259.171 310.57 L 283.339 318.205 M 228.055 313.198 L 259.171 310.57 M 296.831 199.448 L 270.323 215.955 M 268.346 233.866 L 299.068 217.328 M 302.776 228.219 L 268.346 233.866 M 263.513 251.22 L 297.311 245.389 M 297.793 250.147 L 263.513 251.22 M 257.481 268.195 L 249.768 284.475 M 249.768 284.475 L 239.42 299.22 M 218.192 174.145 L 205.844 190.559 M 218.467 203.41 L 218.192 174.145 M 239.42 299.22 L 210.783 293.182 M 196.437 304.081 L 228.055 313.198 M 270.323 215.955 L 239.834 228.334 M 239.834 228.334 L 238.249 246.275 M 238.024 264.287 L 236.164 282.207 M 253.046 285.655 L 257.481 268.195 M 236.164 282.207 L 231.337 299.559 M 251.475 303.6 L 253.046 285.655 M 231.337 299.559 L 251.475 303.6 M 205.844 190.559 L 190.388 200.933 M 190.388 200.933 L 198.313 217.108 M 207.551 232.587 L 218.467 203.41 M 182.083 281.07 L 196.437 304.081 M 210.783 293.182 L 182.083 281.07 M 237.139 228.298 L 210.237 231.736 M 210.237 231.736 L 214.317 249.283 M 238.249 246.275 L 237.139 228.298 M 219.791 266.454 L 223.821 284.011 M 239.349 282.255 L 238.024 264.287 M 223.821 284.011 L 224.974 302 M 243.458 299.791 L 239.349 282.255 M 224.974 302 L 243.458 299.791 M 187.884 202.422 L 172.388 209.448 M 172.388 209.448 L 177.817 226.622 M 198.313 217.108 L 187.884 202.422 M 177.817 226.622 L 184.515 243.351 M 214.317 249.283 L 207.551 232.587 M 193.739 258.815 L 204.198 273.497 M 204.198 273.497 L 213.526 288.906 M 226.577 283.14 L 219.791 266.454 M 213.526 288.906 L 220.318 305.592 M 235.834 298.608 L 226.577 283.14 M 220.318 305.592 L 235.834 298.608 M 160.691 216.352 L 147.406 224.732 M 173.098 229.409 L 160.691 216.352 M 155.375 240.881 L 164.45 256.442 M 184.515 243.351 L 173.098 229.409 M 164.45 256.442 L 175.772 270.459 M 201.743 274.967 L 193.739 258.815 M 188.214 283.493 L 199.703 297.355 M 210.908 290.473 L 201.743 274.967 M 199.703 297.355 L 208.968 312.81 M 222.269 304.455 L 210.908 290.473 M 208.968 312.81 L 222.269 304.455 M 147.406 224.732 L 133.254 228.435 M 136.225 246.208 L 155.375 240.881 M 141.731 251.252 L 131.362 268.21 M 131.362 268.21 L 146.35 278.203 M 158.096 258.78 L 141.731 251.252 M 162.638 285.905 L 158.096 258.78 M 175.772 270.459 L 162.38 258.404 M 162.38 258.404 L 162.638 285.905 M 178.315 294.791 L 193.364 304.694 M 201.522 295.62 L 188.214 283.493 M 193.364 304.694 L 206.801 316.701 M 216.452 305.707 L 201.522 295.62 M 206.801 316.701 L 216.452 305.707 M 133.254 228.435 L 119.509 227.896 M 117.357 245.793 L 136.225 246.208 M 124.828 277.094 L 119.818 295.289 M 119.818 295.289 L 137.017 300.647 M 142.643 279.761 L 124.828 277.094 M 154.805 303.509 L 142.643 279.761 M 146.35 278.203 L 154.805 303.509 M 172.349 307.616 L 189.583 312.856 M 194.55 302.598 L 178.315 294.791 M 189.583 312.856 L 205.893 320.511 M 211.725 308.053 L 194.55 302.598 M 205.893 320.511 L 211.725 308.053 M 119.509 227.896 L 107.106 223.74 M 100.113 240.349 L 117.357 245.793 M 116.304 305.225 L 116.369 323.307 M 116.369 323.307 L 134.373 323.754 M 134.183 303.028 L 116.304 305.225 M 152.27 321.678 L 134.183 303.028 M 137.017 300.647 L 152.27 321.678 M 170.255 320.802 L 188.268 321.105 M 190.122 310.546 L 172.349 307.616 M 188.268 321.105 L 206.056 323.935 M 208.133 311.02 L 190.122 310.546 M 206.056 323.935 L 208.133 311.02 M 107.106 223.74 L 96.7112 216.667 M 85.4952 230.764 L 100.113 240.349 M 95.0618 375.297 L 108.214 386.811 M 120.413 373.55 L 95.0618 375.297 M 132.529 326.58 L 115.826 333.316 M 115.826 333.316 L 137.977 345.77 M 154.685 339.022 L 132.529 326.58 M 134.373 323.754 L 154.685 339.022 M 171.775 333.324 L 189.21 328.785 M 188.148 318.703 L 170.255 320.802 M 205.588 314.201 L 188.148 318.703 M 207.107 326.682 L 205.588 314.201 M 224.9 340.536 L 207.107 326.682 M 74.1988 217.983 L 85.4952 230.764 M 96.7112 216.667 L 74.1988 217.983 M 108.796 393.442 L 123.065 402.787 M 133.274 387.952 L 108.796 393.442 M 108.214 386.811 L 133.274 387.952 M 145.345 374.579 L 120.413 373.55 M 137.977 345.77 L 161.409 354.35 M 176.37 344.317 L 192.011 335.374 M 188.41 326.406 L 171.775 333.324 M 208.723 328.644 L 188.41 326.406 M 189.21 328.785 L 206.96 338.912 M 229.564 337.172 L 208.723 328.644 M 220.656 356.787 L 224.9 340.536 M 206.96 338.912 L 220.656 356.787 M 156.428 482.533 L 168.795 471.167 M 156.895 457.643 L 156.428 482.533 M 123.065 402.787 L 147.788 399.869 M 157.67 384.808 L 145.345 374.579 M 161.409 354.35 L 171.567 366.734 M 183.388 353.132 L 196.229 340.496 M 190.523 333.168 L 176.37 344.317 M 210.635 329.664 L 190.523 333.168 M 192.011 335.374 L 211.826 340.285 M 233.059 332.532 L 210.635 329.664 M 229.906 353.856 L 229.564 337.172 M 211.826 340.285 L 229.906 353.856 M 168.795 471.167 L 182.067 461.052 M 171.447 446.489 L 156.895 457.643 M 147.788 399.869 L 163.7 408.979 M 170.931 392.473 L 157.67 384.808 M 171.567 366.734 L 184.096 375.544 M 192.041 359.37 L 201.331 343.94 M 194.047 338.608 L 183.388 353.132 M 212.552 329.849 L 194.047 338.608 M 196.229 340.496 L 216.698 340.064 M 221.194 338.422 L 235.175 327.043 M 235.175 327.043 L 212.552 329.849 M 237.864 348.531 L 233.059 332.532 M 216.698 340.064 L 237.864 348.531 M 182.067 461.052 L 196.031 451.884 M 186.451 436.637 L 171.447 446.489 M 163.7 408.979 L 180.647 414.894 M 184.758 397.356 L 170.931 392.473 M 184.096 375.544 L 197.889 380.522 M 201.533 362.878 L 206.818 345.654 M 198.498 342.556 L 192.041 359.37 M 214.23 329.234 L 198.498 342.556 M 201.331 343.94 L 221.194 338.422 M 224.987 335.538 L 235.801 321.13 M 235.801 321.13 L 221.258 312.634 M 221.258 312.634 L 214.23 329.234 M 196.031 451.884 L 210.546 443.338 M 201.619 427.693 L 186.451 436.637 M 180.647 414.894 L 198.089 417.309 M 198.639 399.298 L 184.758 397.356 M 197.889 380.522 L 211.85 381.768 M 211.139 363.773 L 212.28 345.794 M 203.447 344.963 L 201.533 362.878 M 212.28 345.794 L 215.584 328.077 M 215.584 328.077 L 203.447 344.963 M 206.818 345.654 L 224.987 335.538 M 216.621 326.573 L 215.902 308.57 M 215.902 308.57 L 199.052 311.18 M 199.052 311.18 L 203.875 328.537 M 210.546 443.338 L 225.449 435.052 M 216.753 419.274 L 201.619 427.693 M 198.089 417.309 L 215.358 416.007 M 212.025 398.301 L 198.639 399.298 M 211.85 381.768 L 225.115 379.72 M 220.298 362.358 L 217.433 344.572 M 208.532 345.947 L 211.139 363.773 M 217.433 344.572 L 216.621 326.573 M 203.875 328.537 L 208.532 345.947 M 161.91 423.248 L 159.643 410.017 M 141.657 411.171 L 144.596 428.234 M 144.596 428.234 L 161.91 423.248 M 225.449 435.052 L 240.579 426.633 M 231.653 410.983 L 216.753 419.274 M 215.358 416.007 L 231.653 410.983 M 224.351 394.513 L 212.025 398.301 M 220.353 378.306 L 233.121 376.503 M 228.665 359.034 L 220.353 378.306 M 225.115 379.72 L 228.665 359.034 M 213.546 345.656 L 220.298 362.358 M 222.162 342.237 L 217.476 324.845 M 204.999 329.795 L 213.546 345.656 M 217.476 324.845 L 204.999 329.795 M 159.643 410.017 L 160.255 396.013 M 142.402 393.568 L 141.657 411.171 M 240.579 426.633 L 255.759 417.69 M 246.17 402.435 L 235.106 388.214 M 235.106 388.214 L 224.351 394.513 M 228.232 374.92 L 240.639 373.733 M 237.032 356.08 L 228.232 374.92 M 233.121 376.503 L 237.032 356.08 M 231.253 339.02 L 222.162 342.237 M 235.746 400.541 L 228.376 394.323 M 226.024 415.704 L 235.746 400.541 M 215.285 406.696 L 226.024 415.704 M 160.255 396.013 L 163.802 381.786 M 146.698 376.132 L 142.402 393.568 M 255.759 417.69 L 270.762 407.822 M 260.134 393.277 L 246.17 402.435 M 239.513 388.413 L 256.134 386.802 M 251.899 369.292 L 239.772 370.396 M 239.772 370.396 L 239.513 388.413 M 240.639 373.733 L 252.36 370.43 M 245.597 353.741 L 241.009 336.319 M 241.009 336.319 L 231.253 339.02 M 228.376 394.323 L 222.597 386.013 M 206.818 394.724 L 215.285 406.696 M 163.802 381.786 L 170.178 367.853 M 154.249 359.44 L 146.698 376.132 M 270.762 407.822 L 285.307 396.681 M 273.405 383.159 L 260.134 393.277 M 256.134 386.802 L 271.855 381.202 M 263.263 365.355 L 251.899 369.292 M 252.36 370.43 L 263.263 365.355 M 253.818 350.02 L 246.448 333.586 M 246.448 333.586 L 236.753 338.045 M 236.753 338.045 L 245.597 353.741 M 222.597 386.013 L 219.055 375.946 M 201.581 380.324 L 206.818 394.724 M 170.178 367.853 L 179.193 354.613 M 164.743 343.861 L 154.249 359.44 M 285.307 396.681 L 299.082 383.912 M 285.759 371.779 L 273.405 383.159 M 271.855 381.202 L 285.759 371.779 M 273.334 358.74 L 261.649 345.026 M 261.649 345.026 L 251.854 329.901 M 251.854 329.901 L 242.427 336.069 M 242.427 336.069 L 253.818 350.02 M 219.055 375.946 L 218.351 364.701 M 200.332 364.356 L 201.581 380.324 M 179.193 354.613 L 190.637 342.394 M 177.868 329.692 L 164.743 343.861 M 302.53 383.375 L 312.992 367.14 M 296.958 358.921 L 302.53 383.375 M 299.082 383.912 L 296.958 358.921 M 281.512 349.646 L 266.677 339.432 M 260.1 346.514 L 273.334 358.74 M 266.677 339.432 L 253.352 327.304 M 253.352 327.304 L 245.359 336.151 M 245.359 336.151 L 260.1 346.514 M 218.351 364.701 L 220.859 353.045 M 203.583 347.933 L 200.332 364.356 M 190.637 342.394 L 204.295 331.435 M 193.359 317.125 L 177.868 329.692 M 170.883 321.395 L 190.094 316.021 M 183.408 299.297 L 170.883 321.395 M 312.992 367.14 L 304.563 343.179 M 287.18 338.429 L 270.168 332.5 M 265.461 341.476 L 281.512 349.646 M 270.168 332.5 L 254.108 324.322 M 254.108 324.322 L 248.436 335.577 M 248.436 335.577 L 265.461 341.476 M 220.859 353.045 L 226.773 341.915 M 211.522 332.325 L 203.583 347.933 M 211.053 306.348 L 211.522 332.325 M 204.295 331.435 L 211.053 306.348 M 199.995 292.113 L 193.359 317.125 M 190.094 316.021 L 199.995 292.113 M 189.892 277.193 L 183.408 299.297 M 304.563 343.179 L 289.695 325.583 M 289.695 325.583 L 271.711 324.507 M 269.494 334.999 L 287.18 338.429 M 271.711 324.507 L 254.052 320.95 M 251.497 334.047 L 269.494 334.999 M 236.678 316.185 L 251.497 334.047 M 226.773 341.915 L 224.005 318.873 M 229.146 290.59 L 236.678 316.185 M 224.005 318.873 L 227.618 292.437 M 227.618 292.437 L 214.532 280.057 M 200.631 268.597 L 187.629 256.121 M 178.642 263.12 L 189.892 277.193 M 187.629 256.121 L 176.533 241.932 M 176.533 241.932 L 165.503 250.797 M 165.503 250.797 L 178.642 263.12 M 257.309 292.519 L 277.02 305.852 M 277.02 305.852 L 275.315 291.805 M 254.052 320.95 L 245.142 298.883 M 242.566 269.292 L 257.309 292.519 M 245.142 298.883 L 241.596 271.602 M 241.596 271.602 L 225.512 263.491 M 214.532 280.057 L 229.146 290.59 M 208.898 256.526 L 192.862 248.309 M 185.848 258.293 L 200.631 268.597 M 192.862 248.309 L 178.201 237.845 M 169.731 250.251 L 185.848 258.293 M 178.201 237.845 L 169.731 250.251 M 294.326 269.442 L 287.786 255.918 M 270.923 262.255 L 294.326 269.442 M 275.315 291.805 L 260.302 272.468" />
<path fill="none" class="c" d=" M 270.923 262.255 L 267.242 241.163 M 267.242 241.163 L 249.399 243.589 M 270.923 262.255 L 287.786 255.918 M 248.514 218.174 L 249.399 243.589 M 267.242 241.163 L 248.514 218.174 M 230.659 220.623 L 249.399 243.589 M 267.242 241.163 L 266.526 218.496 M 230.659 220.623 L 231.388 243.21 M 230.659 220.623 L 213.057 224.483 M 213.057 224.483 L 231.388 243.21 M 206.682 206.989 L 213.057 224.483 M 213.446 241.494 L 231.388 243.21 M 213.057 224.483 L 213.446 241.494 M 190.555 215.019 L 213.057 224.483 M 225.512 263.491 L 231.388 243.21 M 213.446 241.494 L 225.512 263.491 M 230.659 220.623 L 206.682 206.989 M 195.21 226.999 L 213.446 241.494 M 190.555 215.019 L 195.815 229.734 M 208.898 256.526 L 225.512 263.491 M 195.21 226.999 L 195.433 241.262 M 173.362 220.401 L 195.815 229.734 M 214.532 280.057 L 225.512 263.491 M 208.898 256.526 L 214.532 280.057 M 229.146 290.59 L 225.512 263.491 M 200.631 268.597 L 214.532 280.057 M 208.898 256.526 L 200.631 268.597 M 229.146 290.59 L 241.596 271.602 M 200.631 268.597 L 199.995 292.113 M 199.995 292.113 L 214.532 280.057 M 192.862 248.309 L 200.631 268.597 M 200.631 268.597 L 189.892 277.193 M 189.892 277.193 L 199.995 292.113 M 199.995 292.113 L 211.053 306.348 M 192.862 248.309 L 185.848 258.293 M 187.629 256.121 L 189.892 277.193 M 183.408 299.297 L 199.995 292.113 M 211.053 306.348 L 214.532 280.057 M 187.629 256.121 L 178.642 263.12 M 183.408 299.297 L 190.094 316.021 M 211.053 306.348 L 227.618 292.437 M 229.146 290.59 L 245.142 298.883 M 176.533 241.932 L 178.642 263.12 M 177.195 226.725 L 195.433 241.262 M 173.362 220.401 L 179.637 237.664 M 236.678 316.185 L 245.142 298.883 M 230.659 220.623 L 222.164 197.783 M 222.164 197.783 L 206.682 206.989 M 236.678 316.185 L 254.052 320.95 M 247.886 215.329 L 222.164 197.783 M 193.686 191.094 L 206.682 206.989 M 222.164 197.783 L 193.686 191.094 M 251.497 334.047 L 254.052 320.95 M 247.886 215.329 L 238.368 189.925 M 181.084 203.965 L 206.682 206.989 M 222.164 197.783 L 205.357 177.374 M 205.357 177.374 L 193.686 191.094 M 269.494 334.999 L 254.052 320.95 M 205.357 177.374 L 174.207 179.267 M 269.494 334.999 L 271.711 324.507 M 205.357 177.374 L 180.73 162.476 M 180.73 162.476 L 174.207 179.267 M 287.18 338.429 L 271.711 324.507 M 215.608 162.553 L 180.73 162.476 M 180.73 162.476 L 149.393 174.123 M 149.393 174.123 L 174.207 179.267 M 287.18 338.429 L 289.695 325.583 M 215.608 162.553 L 188.928 146.435 M 180.73 162.476 L 150.014 156.111 M 150.014 156.111 L 149.393 174.123 M 223.232 146.232 L 188.928 146.435 M 147.778 192.065 L 174.207 179.267 M 121.554 177.865 L 149.393 174.123 M 287.18 338.429 L 304.563 343.179 M 147.778 192.065 L 168.723 196.429 M 121.554 177.865 L 126.076 195.301 M 126.076 195.301 L 149.393 174.123 M 296.958 358.921 L 304.563 343.179 M 287.18 338.429 L 296.958 358.921 M 143.222 209.491 L 168.723 196.429 M 101.764 205.024 L 126.076 195.301 M 121.554 177.865 L 101.764 205.024 M 126.076 195.301 L 149.688 192.135 M 296.958 358.921 L 312.992 367.14 M 281.512 349.646 L 296.958 358.921 M 287.18 338.429 L 281.512 349.646 M 143.222 209.491 L 166.22 214.262 M 93.0007 189.29 L 101.764 205.024 M 270.168 332.5 L 281.512 349.646 M 136.771 226.308 L 166.22 214.262 M 264.033 207.341 L 238.368 189.925 M 181.084 203.965 L 191.946 217.352 M 236.741 187.207 L 205.357 177.374 M 174.207 179.267 L 193.686 191.094 M 177.195 226.725 L 177.599 243.816 M 211.053 306.348 L 224.005 318.873 M 166.562 214.636 L 191.946 217.352 M 236.741 187.207 L 218.27 164.804 M 166.62 195.608 L 193.686 191.094 M 270.168 332.5 L 265.461 341.476 M 211.522 332.325 L 224.005 318.873 M 166.562 214.636 L 179.118 230.002 M 249.397 174.39 L 218.27 164.804 M 166.62 195.608 L 182.988 205.587 M 254.108 324.322 L 265.461 341.476 M 211.522 332.325 L 226.773 341.915 M 151.108 223.89 L 179.118 230.002 M 264.033 207.341 L 255.62 184.746 M 156.463 210.478 L 182.988 205.587 M 211.522 332.325 L 220.859 353.045 M 242.566 269.292 L 231.388 243.21 M 213.446 241.494 L 208.898 256.526 M 156.463 210.478 L 174.878 221.68 M 203.583 347.933 L 220.859 353.045 M 242.566 269.292 L 249.144 246.253 M 195.697 238.417 L 208.898 256.526 M 144.827 224.244 L 174.878 221.68 M 203.583 347.933 L 218.351 364.701 M 242.566 269.292 L 260.302 272.468 M 195.697 238.417 L 191.761 250.961 M 281.512 349.646 L 285.759 371.779 M 200.332 364.356 L 218.351 364.701 M 257.309 292.519 L 260.302 272.468 M 273.334 358.74 L 285.759 371.779 M 200.332 364.356 L 219.055 375.946 M 257.309 292.519 L 275.315 291.805 M 273.334 358.74 L 271.855 381.202 M 201.581 380.324 L 219.055 375.946 M 178.612 232.7 L 191.761 250.961 M 273.334 358.74 L 263.263 365.355 M 263.263 365.355 L 271.855 381.202 M 201.581 380.324 L 222.597 386.013 M 178.612 232.7 L 173.99 248.018 M 261.649 345.026 L 263.263 365.355 M 263.263 365.355 L 256.134 386.802 M 206.818 394.724 L 222.597 386.013 M 253.818 350.02 L 263.263 365.355 M 261.649 345.026 L 253.818 350.02 M 251.899 369.292 L 256.134 386.802 M 206.818 394.724 L 228.376 394.323 M 253.818 350.02 L 252.36 370.43 M 251.854 329.901 L 253.818 350.02 M 251.899 369.292 L 239.513 388.413 M 215.285 406.696 L 228.376 394.323 M 245.597 353.741 L 252.36 370.43 M 253.818 350.02 L 245.597 353.741 M 215.285 406.696 L 235.746 400.541 M 245.597 353.741 L 240.639 373.733 M 246.448 333.586 L 245.597 353.741 M 245.597 353.741 L 237.032 356.08 M 237.032 356.08 L 240.639 373.733 M 241.009 336.319 L 237.032 356.08 M 281.512 349.646 L 273.334 358.74 M 231.253 339.02 L 237.032 356.08 M 266.677 339.432 L 273.334 358.74 M 231.253 339.02 L 228.665 359.034 M 228.665 359.034 L 237.032 356.08 M 266.677 339.432 L 260.1 346.514 M 222.162 342.237 L 228.665 359.034 M 228.665 359.034 L 233.121 376.503 M 253.352 327.304 L 260.1 346.514 M 220.298 362.358 L 228.665 359.034 M 222.162 342.237 L 220.298 362.358 M 220.298 362.358 L 225.115 379.72 M 222.162 342.237 L 213.546 345.656 M 220.298 362.358 L 211.85 381.768 M 217.476 324.845 L 213.546 345.656 M 211.139 363.773 L 211.85 381.768 M 220.298 362.358 L 211.139 363.773 M 211.139 363.773 L 197.889 380.522 M 217.433 344.572 L 211.139 363.773 M 201.533 362.878 L 197.889 380.522 M 211.139 363.773 L 201.533 362.878 M 217.433 344.572 L 208.532 345.947 M 201.533 362.878 L 184.096 375.544 M 212.28 345.794 L 201.533 362.878 M 216.621 326.573 L 208.532 345.947 M 192.041 359.37 L 184.096 375.544 M 201.533 362.878 L 192.041 359.37 M 212.28 345.794 L 203.447 344.963 M 192.041 359.37 L 171.567 366.734 M 206.818 345.654 L 192.041 359.37 M 216.621 326.573 L 203.875 328.537 M 183.388 353.132 L 171.567 366.734 M 192.041 359.37 L 183.388 353.132 M 206.818 345.654 L 198.498 342.556 M 215.902 308.57 L 203.875 328.537 M 183.388 353.132 L 161.409 354.35 M 201.331 343.94 L 183.388 353.132 M 206.818 345.654 L 214.23 329.234 M 176.37 344.317 L 161.409 354.35 M 183.388 353.132 L 176.37 344.317 M 201.331 343.94 L 194.047 338.608 M 224.987 335.538 L 214.23 329.234 M 154.685 339.022 L 161.409 354.35 M 176.37 344.317 L 154.685 339.022 M 196.229 340.496 L 176.37 344.317 M 201.331 343.94 L 212.552 329.849 M 235.801 321.13 L 214.23 329.234 M 154.685 339.022 L 137.977 345.77 M 176.37 344.317 L 171.775 333.324 M 196.229 340.496 L 190.523 333.168 M 221.194 338.422 L 212.552 329.849 M 171.775 333.324 L 154.685 339.022 M 132.529 326.58 L 137.977 345.77 M 192.011 335.374 L 171.775 333.324 M 171.775 333.324 L 152.27 321.678 M 93.0007 189.29 L 79.2115 221.908 M 127.684 213.246 L 149.688 192.135 M 285.759 371.779 L 296.958 358.921 M 178.201 237.845 L 185.848 258.293 M 121.554 177.865 L 93.0007 189.29 M 192.011 335.374 L 188.41 326.406 M 171.775 333.324 L 170.255 320.802 M 66.5618 209.085 L 79.2115 221.908 M 127.684 213.246 L 152.986 209.843 M 285.759 371.779 L 299.082 383.912 M 170.255 320.802 L 152.27 321.678 M 192.011 335.374 L 208.723 328.644 M 189.21 328.785 L 170.255 320.802 M 61.3953 245.313 L 79.2115 221.908 M 285.759 371.779 L 285.307 396.681 M 154.805 303.509 L 152.27 321.678 M 170.255 320.802 L 154.805 303.509 M 211.826 340.285 L 208.723 328.644 M 189.21 328.785 L 188.148 318.703 M 75.6754 256.297 L 79.2115 221.908 M 61.3953 245.313 L 75.6754 256.297 M 273.405 383.159 L 285.307 396.681 M 172.349 307.616 L 154.805 303.509 M 170.255 320.802 L 172.349 307.616 M 61.3953 245.313 L 57.8646 279.697 M 273.405 383.159 L 270.762 407.822 M 162.638 285.905 L 154.805 303.509 M 172.349 307.616 L 162.638 285.905 M 188.268 321.105 L 172.349 307.616 M 43.424 268.92 L 57.8646 279.697 M 61.3953 245.313 L 43.424 268.92 M 260.134 393.277 L 270.762 407.822 M 162.638 285.905 L 146.35 278.203 M 178.315 294.791 L 162.638 285.905 M 43.424 268.92 L 41.458 302.599 M 61.3953 245.313 L 48.8318 232.399 M 260.134 393.277 L 255.759 417.69 M 158.096 258.78 L 146.35 278.203 M 175.772 270.459 L 162.638 285.905 M 178.315 294.791 L 175.772 270.459 M 43.424 268.92 L 26.5644 292.458 M 26.5644 292.458 L 41.458 302.599 M 246.17 402.435 L 255.759 417.69 M 141.731 251.252 L 146.35 278.203 M 26.5644 292.458 L 27.4409 324.712 M 246.17 402.435 L 240.579 426.633 M 188.214 283.493 L 175.772 270.459 M 11.8723 315.662 L 27.4409 324.712 M 231.653 410.983 L 240.579 426.633 M 246.17 402.435 L 231.653 410.983 M 193.739 258.815 L 175.772 270.459 M 188.214 283.493 L 193.739 258.815 M 11.8723 315.662 L 16.3592 345.805 M 231.653 410.983 L 225.449 435.052 M 235.106 388.214 L 231.653 410.983 M 193.739 258.815 L 184.515 243.351 M 184.515 243.351 L 175.772 270.459 M 188.214 283.493 L 201.743 274.967 M 0 338.263 L 16.3592 345.805 M 216.753 419.274 L 225.449 435.052 M 224.351 394.513 L 231.653 410.983 M 193.739 258.815 L 207.551 232.587 M 207.551 232.587 L 184.515 243.351 M 184.515 243.351 L 164.45 256.442 M 199.703 297.355 L 201.743 274.967 M 193.739 258.815 L 214.317 249.283 M 207.551 232.587 L 198.313 217.108 M 198.313 217.108 L 184.515 243.351 M 173.098 229.409 L 164.45 256.442 M 199.703 297.355 L 210.908 290.473 M 204.198 273.497 L 214.317 249.283 M 218.467 203.41 L 198.313 217.108 M 198.313 217.108 L 177.817 226.622 M 173.098 229.409 L 155.375 240.881 M 208.968 312.81 L 210.908 290.473 M 219.791 266.454 L 214.317 249.283 M 204.198 273.497 L 219.791 266.454 M 187.884 202.422 L 177.817 226.622 M 160.691 216.352 L 155.375 240.881 M 218.467 203.41 L 205.844 190.559 M 238.249 246.275 L 214.317 249.283 M 219.791 266.454 L 238.249 246.275 M 213.526 288.906 L 219.791 266.454 M 147.406 224.732 L 155.375 240.881 M 205.844 190.559 L 198.313 217.108 M 237.139 228.298 L 214.317 249.283 M 238.024 264.287 L 238.249 246.275 M 219.791 266.454 L 238.024 264.287 M 238.024 264.287 L 263.513 251.22 M 223.821 284.011 L 238.024 264.287 M 238.024 264.287 L 257.481 268.195 M 257.481 268.195 L 263.513 251.22 M 223.821 284.011 L 239.349 282.255 M 236.164 282.207 L 257.481 268.195 M 287.438 264.89 L 263.513 251.22 M 257.481 268.195 L 287.438 264.89 M 224.974 302 L 239.349 282.255 M 236.164 282.207 L 253.046 285.655 M 287.438 264.89 L 297.793 250.147 M 276.174 278.94 L 287.438 264.89 M 257.481 268.195 L 276.174 278.94 M 231.337 299.559 L 253.046 285.655 M 306.916 287.062 L 287.438 264.89 M 276.174 278.94 L 306.916 287.062 M 249.768 284.475 L 276.174 278.94 M 306.916 287.062 L 321.637 276.684 M 291.637 296.618 L 306.916 287.062 M 266.378 294.064 L 276.174 278.94 M 249.768 284.475 L 266.378 294.064 M 318.844 316.227 L 306.916 287.062 M 291.637 296.618 L 318.844 316.227 M 239.42 299.22 L 266.378 294.064 M 318.844 316.227 L 336.193 311.411 M 301.279 320.256 L 318.844 316.227 M 259.171 310.57 L 266.378 294.064 M 239.42 299.22 L 259.171 310.57 M 318.844 316.227 L 341.617 348.887 M 301.279 320.256 L 320.836 349.466 M 259.171 310.57 L 286.781 300.515 M 239.42 299.22 L 228.055 313.198 M 323.605 349.184 L 341.617 348.887 M 302.915 347.672 L 320.836 349.466 M 283.339 318.205 L 286.781 300.515 M 210.783 293.182 L 228.055 313.198 M 323.605 349.184 L 336.953 388.059 M 283.339 318.205 L 310.542 302.283 M 210.783 293.182 L 196.437 304.081 M 319.516 383.537 L 336.953 388.059 M 311.341 320.281 L 310.542 302.283 M 319.516 383.537 L 321.422 425.156 M 311.341 320.281 L 336.333 297.775 M 305.968 415.893 L 321.422 425.156 M 341.637 314.991 L 336.333 297.775 M 305.968 415.893 L 296.019 455.985 M 341.637 314.991 L 361.882 285.905 M 284.006 442.556 L 296.019 455.985 M 371.59 301.075 L 361.882 285.905 M 284.006 442.556 L 263.554 476.997 M 371.59 301.075 L 384.13 266.675 M 256.283 460.508 L 263.554 476.997 M 397.729 278.494 L 384.13 266.675 M 228.136 486.212 L 263.554 476.997 M 397.729 278.494 L 400.034 241.62 M 228.136 486.212 L 232.005 503.799 M 416.526 248.877 L 400.034 241.62 M 196.759 509.871 L 232.005 503.799 M 416.526 248.877 L 407.427 213.636 M 201.903 527.141 L 232.005 503.799 M 213.526 288.906 L 226.577 283.14 M 147.406 224.732 L 136.225 246.208 M 220.318 305.592 L 226.577 283.14 M 133.254 228.435 L 136.225 246.208 M 133.254 228.435 L 117.357 245.793 M 263.513 251.22 L 238.249 246.275 M 119.509 227.896 L 117.357 245.793 M 263.513 251.22 L 268.346 233.866 M 268.346 233.866 L 238.249 246.275 M 119.509 227.896 L 100.113 240.349 M 297.311 245.389 L 268.346 233.866 M 268.346 233.866 L 239.834 228.334 M 107.106 223.74 L 100.113 240.349 M 297.311 245.389 L 302.776 228.219 M 268.346 233.866 L 270.323 215.955 M 107.106 223.74 L 85.4952 230.764 M 297.311 245.389 L 333.166 236.017 M 299.068 217.328 L 270.323 215.955 M 96.7112 216.667 L 85.4952 230.764 M 329.723 253.699 L 333.166 236.017 M 299.068 217.328 L 296.831 199.448 M 329.723 253.699 L 366.874 240.872 M 299.068 217.328 L 321.102 192.152 M 365.119 258.805 L 366.874 240.872 M 329.113 208.294 L 321.102 192.152 M 365.119 258.805 L 403.411 243.054 M 329.113 208.294 L 343.789 175.607 M 402.919 261.055 L 403.411 243.054 M 356.639 188.241 L 343.789 175.607 M 402.919 261.055 L 442.068 243.151 M 356.639 188.241 L 361.413 150.404 M 442.367 261.166 L 442.068 243.151 M 377.633 158.258 L 361.413 150.404 M 442.367 261.166 L 482.008 242.096 M 377.633 158.258 L 370.882 118.762 M 482.57 260.103 L 482.008 242.096 M 388.728 121.227 L 370.882 118.762 M 482.57 260.103 L 522.204 241.036 M 388.728 121.227 L 370.317 84.2242 M 522.502 259.048 L 522.204 241.036 M 388.091 81.2778 L 370.317 84.2242 M 522.502 259.048 L 561.661 241.139 M 388.091 81.2778 L 359.654 50.8061 M 561.174 259.151 L 561.661 241.139 M 375.878 42.9678 L 359.654 50.8061 M 599.456 243.398 L 561.661 241.139 M 375.878 42.9678 L 340.492 22.0072 M 354.03 10.1123 L 340.492 22.0072 M 216.753 419.274 L 210.546 443.338 M 224.351 394.513 L 215.358 416.007 M 201.619 427.693 L 210.546 443.338 M 212.025 398.301 L 215.358 416.007 M 201.619 427.693 L 196.031 451.884 M 212.025 398.301 L 198.089 417.309 M 186.451 436.637 L 196.031 451.884 M 198.639 399.298 L 198.089 417.309 M 186.451 436.637 L 182.067 461.052 M 198.639 399.298 L 180.647 414.894 M 171.447 446.489 L 182.067 461.052 M 184.758 397.356 L 180.647 414.894 M 171.447 446.489 L 168.795 471.167 M 184.758 397.356 L 163.7 408.979 M 156.895 457.643 L 168.795 471.167 M 170.931 392.473 L 163.7 408.979 M 178.315 294.791 L 188.214 283.493 M 170.931 392.473 L 147.788 399.869 M 193.364 304.694 L 188.214 283.493 M 157.67 384.808 L 147.788 399.869 M 193.364 304.694 L 201.522 295.62 M 133.274 387.952 L 147.788 399.869 M 157.67 384.808 L 133.274 387.952 M 206.801 316.701 L 201.522 295.62 M 133.274 387.952 L 123.065 402.787 M 145.345 374.579 L 133.274 387.952 M 43.424 268.92 L 30.5637 256.302 M 120.413 373.55 L 133.274 387.952 M 172.349 307.616 L 178.315 294.791 M 120.413 373.55 L 108.214 386.811 M 189.583 312.856 L 178.315 294.791 M 188.268 321.105 L 190.122 310.546 M 189.583 312.856 L 194.55 302.598 M 206.056 323.935 L 190.122 310.546 M 205.893 320.511 L 194.55 302.598 M 211.826 340.285 L 229.564 337.172 M 189.21 328.785 L 207.107 326.682 M 207.107 326.682 L 188.148 318.703 M 206.96 338.912 L 207.107 326.682 M 93.6539 232.687 L 79.2115 221.908 M 206.96 338.912 L 224.9 340.536 M 93.6539 232.687 L 95.6183 199.006 M 154.805 303.509 L 137.017 300.647 M 127.151 231.254 L 152.986 209.843 M 142.643 279.761 L 137.017 300.647 M 193.359 317.125 L 211.053 306.348 M 124.828 277.094 L 137.017 300.647 M 193.359 317.125 L 204.295 331.435 M 107.89 221.962 L 126.076 195.301 M 193.359 317.125 L 190.637 342.394 M 107.89 221.962 L 133.387 211.768 M 177.868 329.692 L 190.637 342.394 M 111.816 239.544 L 133.387 211.768 M 177.868 329.692 L 179.193 354.613 M 121.554 177.865 L 117.709 160.264 M 164.743 343.861 L 179.193 354.613 M 151.729 158.56 L 117.709 160.264 M 164.743 343.861 L 170.178 367.853 M 151.729 158.56 L 151.702 140.548 M 154.249 359.44 L 170.178 367.853 M 185.109 142.474 L 151.702 140.548 M 154.249 359.44 L 163.802 381.786 M 184.127 124.484 L 151.702 140.548 M 146.698 376.132 L 163.802 381.786 M 196.229 340.496 L 210.635 329.664 M 146.698 376.132 L 160.255 396.013 M 216.698 340.064 L 210.635 329.664 M 142.402 393.568 L 160.255 396.013 M 216.698 340.064 L 233.059 332.532 M 142.402 393.568 L 159.643 410.017 M 152.27 321.678 L 154.685 339.022 M 141.657 411.171 L 159.643 410.017 M 152.27 321.678 L 134.373 323.754 M 141.657 411.171 L 161.91 423.248 M 134.183 303.028 L 134.373 323.754 M 116.304 305.225 L 134.373 323.754" />
<line x1="275.317115" y1="253.112019" x2="262.521148" y2="249.002141" class="t" />
<line x1="255.051323" y1="234.308349" x2="262.521148" y2="249.002141" class="t" />
<line x1="284.345152" y1="262.538513" x2="275.317115" y2="253.112019" class="t" />
<line x1="242.856966" y1="227.461738" x2="255.051323" y2="234.308349" class="t" />
<line x1="260.760436" y1="225.944008" x2="255.051323" y2="234.308349" class="t" />
<line x1="237.148536" y1="235.807121" x2="242.856966" y2="227.461738" class="t" />
<line x1="272.868728" y1="232.319878" x2="260.760436" y2="225.944008" class="t" />
<line x1="225.034676" y1="229.438721" x2="237.148536" y2="235.807121" class="t" />
<line x1="216.799301" y1="217.365116" x2="225.034676" y2="229.438721" class="t" />
<line x1="219.297139" y1="236.395777" x2="225.034676" y2="229.438721" class="t" />
<line x1="203.431481" y1="215.497122" x2="216.799301" y2="217.365116" class="t" />
<line x1="223.448844" y1="249.398418" x2="219.297139" y2="236.395777" class="t" />
<line x1="207.237657" y1="230.992208" x2="219.297139" y2="236.395777" class="t" />
<line x1="199.809102" y1="223.078627" x2="203.431481" y2="215.497122" class="t" />
<line x1="233.155337" y1="258.664509" x2="223.448844" y2="249.398418" class="t" />
<line x1="215.952112" y1="253.837217" x2="223.448844" y2="249.398418" class="t" />
<line x1="219.834890" y1="208.464992" x2="216.799301" y2="217.365116" class="t" />
<line x1="201.363176" y1="236.585127" x2="207.237657" y2="230.992208" class="t" />
<line x1="186.577513" y1="221.717765" x2="199.809102" y2="223.078627" class="t" />
<line x1="216.314160" y1="266.691629" x2="215.952112" y2="253.837217" class="t" />
<line x1="189.279404" y1="231.662253" x2="201.363176" y2="236.585127" class="t" />
<line x1="182.938100" y1="229.266169" x2="186.577513" y2="221.717765" class="t" />
<line x1="223.063404" y1="278.046043" x2="216.314160" y2="266.691629" class="t" />
<line x1="208.020428" y1="268.393379" x2="216.314160" y2="266.691629" class="t" />
<line x1="232.084671" y1="275.227568" x2="223.063404" y2="278.046043" class="t" />
<line x1="205.052661" y1="280.255560" x2="208.020428" y2="268.393379" class="t" />
<line x1="200.797111" y1="257.810774" x2="208.020428" y2="268.393379" class="t" />
<line x1="238.628035" y1="287.024890" x2="232.084671" y2="275.227568" class="t" />
<line x1="196.839280" y1="279.300779" x2="205.052661" y2="280.255560" class="t" />
<line x1="208.526761" y1="292.839456" x2="205.052661" y2="280.255560" class="t" />
<line x1="193.113836" y1="258.399739" x2="200.797111" y2="257.810774" class="t" />
<line x1="192.717304" y1="267.303600" x2="196.839280" y2="279.300779" class="t" />
<line x1="191.098174" y1="289.534240" x2="196.839280" y2="279.300779" class="t" />
<line x1="201.469170" y1="305.195293" x2="208.526761" y2="292.839456" class="t" />
<line x1="185.637128" y1="248.149049" x2="193.113836" y2="258.399739" class="t" />
<line x1="185.387560" y1="265.478179" x2="192.717304" y2="267.303600" class="t" />
<line x1="191.165318" y1="302.476854" x2="191.098174" y2="289.534240" class="t" />
<line x1="217.734371" y1="292.947509" x2="208.526761" y2="292.839456" class="t" />
<line x1="180.934369" y1="253.724751" x2="185.387560" y2="265.478179" class="t" />
<line x1="181.461366" y1="312.237588" x2="191.165318" y2="302.476854" class="t" />
<line x1="220.891956" y1="305.885971" x2="217.734371" y2="292.947509" class="t" />
<line x1="236.988732" y1="301.886152" x2="238.628035" y2="287.024890" class="t" />
<line x1="173.559108" y1="251.949905" x2="180.934369" y2="253.724751" class="t" />
<line x1="183.409226" y1="237.267687" x2="189.279404" y2="231.662253" class="t" />
<line x1="169.591178" y1="227.450324" x2="182.938100" y2="229.266169" class="t" />
<line x1="245.290756" y1="312.006132" x2="236.988732" y2="301.886152" class="t" />
<line x1="233.569361" y1="211.244780" x2="219.834890" y2="208.464992" class="t" />
<line x1="207.510649" y1="198.622156" x2="219.834890" y2="208.464992" class="t" />
<line x1="247.409111" y1="323.727267" x2="245.290756" y2="312.006132" class="t" />
<line x1="236.139269" y1="201.012319" x2="233.569361" y2="211.244780" class="t" />
<line x1="193.817266" y1="200.682943" x2="207.510649" y2="198.622156" class="t" />
<line x1="207.068839" y1="188.750285" x2="207.510649" y2="198.622156" class="t" />
<line x1="258.347760" y1="329.998322" x2="247.409111" y2="323.727267" class="t" />
<line x1="250.095745" y1="204.198249" x2="236.139269" y2="201.012319" class="t" />
<line x1="193.237107" y1="209.435446" x2="193.817266" y2="200.682943" class="t" />
<line x1="221.420416" y1="187.454634" x2="207.068839" y2="188.750285" class="t" />
<line x1="191.083230" y1="182.578269" x2="207.068839" y2="188.750285" class="t" />
<line x1="265.085639" y1="326.818332" x2="258.347760" y2="329.998322" class="t" />
<line x1="186.764680" y1="173.038971" x2="191.083230" y2="182.578269" class="t" />
<line x1="276.128451" y1="332.644951" x2="265.085639" y2="326.818332" class="t" />
<line x1="200.564912" y1="167.467512" x2="186.764680" y2="173.038971" class="t" />
<line x1="168.110185" y1="171.955488" x2="186.764680" y2="173.038971" class="t" />
<line x1="282.862238" y1="329.506541" x2="276.128451" y2="332.644951" class="t" />
<line x1="195.088484" y1="157.154624" x2="200.564912" y2="167.467512" class="t" />
<line x1="160.045973" y1="164.236661" x2="168.110185" y2="171.955488" class="t" />
<line x1="157.126176" y1="181.818459" x2="168.110185" y2="171.955488" class="t" />
<line x1="293.813080" y1="335.730508" x2="282.862238" y2="329.506541" class="t" />
<line x1="209.255574" y1="151.739804" x2="195.088484" y2="157.154624" class="t" />
<line x1="172.043290" y1="154.553512" x2="160.045973" y2="164.236661" class="t" />
<line x1="140.320412" y1="169.366150" x2="160.045973" y2="164.236661" class="t" />
<line x1="203.940192" y1="141.543833" x2="209.255574" y2="151.739804" class="t" />
<line x1="163.569302" y1="189.253620" x2="157.126176" y2="181.818459" class="t" />
<line x1="132.340989" y1="182.429595" x2="140.320412" y2="169.366150" class="t" />
<line x1="296.233994" y1="346.842916" x2="293.813080" y2="335.730508" class="t" />
<line x1="153.240857" y1="199.328380" x2="163.569302" y2="189.253620" class="t" />
<line x1="116.464521" y1="192.729845" x2="132.340989" y2="182.429595" class="t" />
<line x1="141.719239" y1="187.186452" x2="132.340989" y2="182.429595" class="t" />
<line x1="304.837775" y1="356.413158" x2="296.233994" y2="346.842916" class="t" />
<line x1="288.550327" y1="348.998615" x2="296.233994" y2="346.842916" class="t" />
<line x1="159.388090" y1="206.727249" x2="153.240857" y2="199.328380" class="t" />
<line x1="111.909949" y1="207.429031" x2="116.464521" y2="192.729845" class="t" />
<line x1="105.439437" y1="190.726233" x2="116.464521" y2="192.729845" class="t" />
<line x1="134.482876" y1="200.227439" x2="141.719239" y2="187.186452" class="t" />
<line x1="304.160135" y1="369.811863" x2="304.837775" y2="356.413158" class="t" />
<line x1="288.076572" y1="360.115096" x2="288.550327" y2="348.998615" class="t" />
<line x1="279.620349" y1="340.191595" x2="288.550327" y2="348.998615" class="t" />
<line x1="148.737394" y1="216.686913" x2="159.388090" y2="206.727249" class="t" />
<line x1="91.325395" y1="205.407307" x2="105.439437" y2="190.726233" class="t" />
<line x1="272.380427" y1="341.207140" x2="279.620349" y2="340.191595" class="t" />
<line x1="156.221695" y1="224.282693" x2="148.737394" y2="216.686913" class="t" />
<line x1="252.673961" y1="194.004110" x2="250.095745" y2="204.198249" class="t" />
<line x1="179.863529" y1="211.984232" x2="193.237107" y2="209.435446" class="t" />
<line x1="220.122426" y1="176.461611" x2="221.420416" y2="187.454634" class="t" />
<line x1="178.170950" y1="188.656486" x2="191.083230" y2="182.578269" class="t" />
<line x1="171.353215" y1="231.857107" x2="183.409226" y2="237.267687" class="t" />
<line x1="215.526761" y1="319.182117" x2="220.891956" y2="305.885971" class="t" />
<line x1="179.208311" y1="220.662977" x2="179.863529" y2="211.984232" class="t" />
<line x1="234.802340" y1="175.467111" x2="220.122426" y2="176.461611" class="t" />
<line x1="181.098041" y1="197.429869" x2="178.170950" y2="188.656486" class="t" />
<line x1="263.245791" y1="332.765790" x2="272.380427" y2="341.207140" class="t" />
<line x1="220.766704" y1="331.037752" x2="215.526761" y2="319.182117" class="t" />
<line x1="165.595754" y1="222.842449" x2="179.208311" y2="220.662977" class="t" />
<line x1="233.570028" y1="164.563896" x2="234.802340" y2="175.467111" class="t" />
<line x1="168.690344" y1="203.891264" x2="181.098041" y2="197.429869" class="t" />
<line x1="256.001710" y1="333.791526" x2="263.245791" y2="332.765790" class="t" />
<line x1="219.718047" y1="342.428681" x2="220.766704" y2="331.037752" class="t" />
<line x1="165.905448" y1="232.549909" x2="165.595754" y2="222.842449" class="t" />
<line x1="266.382369" y1="196.730612" x2="252.673961" y2="194.004110" class="t" />
<line x1="171.443093" y1="212.581770" x2="168.690344" y2="203.891264" class="t" />
<line x1="211.988183" y1="344.434583" x2="219.718047" y2="342.428681" class="t" />
<line x1="241.032550" y1="252.918226" x2="233.155337" y2="258.664509" class="t" />
<line x1="206.013665" y1="245.479107" x2="215.952112" y2="253.837217" class="t" />
<line x1="158.722636" y1="218.800850" x2="171.443093" y2="212.581770" class="t" />
<line x1="214.264628" y1="355.226552" x2="211.988183" y2="344.434583" class="t" />
<line x1="250.670485" y1="262.670821" x2="241.032550" y2="252.918226" class="t" />
<line x1="198.785150" y1="248.634867" x2="206.013665" y2="245.479107" class="t" />
<line x1="162.704808" y1="228.138371" x2="158.722636" y2="218.800850" class="t" />
<line x1="207.422121" y1="358.996748" x2="214.264628" y2="355.226552" class="t" />
<line x1="253.392173" y1="278.093098" x2="250.670485" y2="262.670821" class="t" />
<line x1="188.689706" y1="240.692831" x2="198.785150" y2="248.634867" class="t" />
<line x1="280.201893" y1="360.054755" x2="288.076572" y2="360.115096" class="t" />
<line x1="212.579252" y1="368.334422" x2="207.422121" y2="358.996748" class="t" />
<line x1="264.308802" y1="285.597480" x2="253.392173" y2="278.093098" class="t" />
<line x1="276.982620" y1="370.573361" x2="280.201893" y2="360.054755" class="t" />
<line x1="206.989082" y1="373.542084" x2="212.579252" y2="368.334422" class="t" />
<line x1="269.881413" y1="296.725666" x2="264.308802" y2="285.597480" class="t" />
<line x1="269.483846" y1="368.432028" x2="276.982620" y2="370.573361" class="t" />
<line x1="214.410765" y1="380.761039" x2="206.989082" y2="373.542084" class="t" />
<line x1="181.453985" y1="243.893110" x2="188.689706" y2="240.692831" class="t" />
<line x1="266.082002" y1="356.373493" x2="269.483846" y2="368.432028" class="t" />
<line x1="263.750599" y1="377.786148" x2="269.483846" y2="368.432028" class="t" />
<line x1="210.331896" y1="387.020339" x2="214.410765" y2="380.761039" class="t" />
<line x1="171.530812" y1="235.489466" x2="181.453985" y2="243.893110" class="t" />
<line x1="259.576456" y1="353.466815" x2="266.082002" y2="356.373493" class="t" />
<line x1="257.098797" y1="373.816373" x2="263.750599" y2="377.786148" class="t" />
<line x1="219.263615" y1="391.686584" x2="210.331896" y2="387.020339" class="t" />
<line x1="256.480063" y1="361.934955" x2="259.576456" y2="353.466815" class="t" />
<line x1="255.773677" y1="341.648781" x2="259.576456" y2="353.466815" class="t" />
<line x1="249.182170" y1="381.502483" x2="257.098797" y2="373.816373" class="t" />
<line x1="216.826310" y1="398.581033" x2="219.263615" y2="391.686584" class="t" />
<line x1="250.591540" y1="358.063647" x2="256.480063" y2="361.934955" class="t" />
<line x1="249.366268" y1="338.663264" x2="255.773677" y2="341.648781" class="t" />
<line x1="243.727915" y1="376.033779" x2="249.182170" y2="381.502483" class="t" />
<line x1="226.469071" y1="400.520232" x2="216.826310" y2="398.581033" class="t" />
<line x1="246.198539" y1="365.968002" x2="250.591540" y2="358.063647" class="t" />
<line x1="248.621029" y1="345.782304" x2="250.591540" y2="358.063647" class="t" />
<line x1="225.685019" y1="407.647242" x2="226.469071" y2="400.520232" class="t" />
<line x1="241.089356" y1="361.184684" x2="246.198539" y2="365.968002" class="t" />
<line x1="242.932815" y1="341.790926" x2="248.621029" y2="345.782304" class="t" />
<line x1="241.212728" y1="348.713545" x2="241.089356" y2="361.184684" class="t" />
<line x1="235.300788" y1="368.244448" x2="241.089356" y2="361.184684" class="t" />
<line x1="236.431357" y1="343.806688" x2="241.212728" y2="348.713545" class="t" />
<line x1="273.841330" y1="349.272366" x2="280.201893" y2="360.054755" class="t" />
<line x1="232.316808" y1="351.378344" x2="236.431357" y2="343.806688" class="t" />
<line x1="266.704015" y1="348.228324" x2="273.841330" y2="349.272366" class="t" />
<line x1="227.360104" y1="346.763692" x2="232.316808" y2="351.378344" class="t" />
<line x1="232.939562" y1="363.872675" x2="232.316808" y2="351.378344" class="t" />
<line x1="260.043277" y1="337.749935" x2="266.704015" y2="348.228324" class="t" />
<line x1="223.708418" y1="354.542992" x2="227.360104" y2="346.763692" class="t" />
<line x1="227.379764" y1="371.281249" x2="232.939562" y2="363.872675" class="t" />
<line x1="252.937001" y1="336.656353" x2="260.043277" y2="337.749935" class="t" />
<line x1="224.692679" y1="367.037453" x2="223.708418" y2="354.542992" class="t" />
<line x1="218.668685" y1="350.083664" x2="223.708418" y2="354.542992" class="t" />
<line x1="219.087552" y1="374.615551" x2="224.692679" y2="367.037453" class="t" />
<line x1="217.727900" y1="337.579189" x2="218.668685" y2="350.083664" class="t" />
<line x1="214.428777" y1="369.299822" x2="219.087552" y2="374.615551" class="t" />
<line x1="212.006754" y1="333.432026" x2="217.727900" y2="337.579189" class="t" />
<line x1="206.958946" y1="375.354457" x2="214.428777" y2="369.299822" class="t" />
<line x1="216.289948" y1="356.901057" x2="214.428777" y2="369.299822" class="t" />
<line x1="203.520117" y1="369.057645" x2="206.958946" y2="375.354457" class="t" />
<line x1="212.368077" y1="351.430688" x2="216.289948" y2="356.901057" class="t" />
<line x1="194.505951" y1="372.981381" x2="203.520117" y2="369.057645" class="t" />
<line x1="208.317376" y1="357.481545" x2="203.520117" y2="369.057645" class="t" />
<line x1="214.195522" y1="339.030796" x2="212.368077" y2="351.430688" class="t" />
<line x1="192.556651" y1="365.930679" x2="194.505951" y2="372.981381" class="t" />
<line x1="205.753504" y1="351.211654" x2="208.317376" y2="357.481545" class="t" />
<line x1="209.676180" y1="333.685657" x2="214.195522" y2="339.030796" class="t" />
<line x1="182.567923" y1="367.215902" x2="192.556651" y2="365.930679" class="t" />
<line x1="200.130700" y1="355.967276" x2="192.556651" y2="365.930679" class="t" />
<line x1="210.437111" y1="339.611195" x2="205.753504" y2="351.211654" class="t" />
<line x1="182.331917" y1="359.745285" x2="182.567923" y2="367.215902" class="t" />
<line x1="199.118896" y1="349.193165" x2="200.130700" y2="355.967276" class="t" />
<line x1="212.132833" y1="321.226655" x2="209.676180" y2="333.685657" class="t" />
<line x1="172.121237" y1="358.071898" x2="182.331917" y2="359.745285" class="t" />
<line x1="192.253430" y1="352.147273" x2="182.331917" y2="359.745285" class="t" />
<line x1="206.515390" y1="339.147909" x2="199.118896" y2="349.193165" class="t" />
<line x1="206.276549" y1="316.095714" x2="212.132833" y2="321.226655" class="t" />
<line x1="173.722117" y1="350.599492" x2="172.121237" y2="358.071898" class="t" />
<line x1="192.922253" y1="345.226661" x2="192.253430" y2="352.147273" class="t" />
<line x1="215.345311" y1="336.808554" x2="206.515390" y2="339.147909" class="t" />
<line x1="164.154358" y1="345.895971" x2="173.722117" y2="350.599492" class="t" />
<line x1="185.328887" y1="345.981528" x2="173.722117" y2="350.599492" class="t" />
<line x1="202.643642" y1="337.465758" x2="192.922253" y2="345.226661" class="t" />
<line x1="225.006378" y1="328.634113" x2="215.345311" y2="336.808554" class="t" />
<line x1="151.356690" y1="346.380394" x2="164.154358" y2="345.895971" class="t" />
<line x1="167.609720" y1="338.887403" x2="164.154358" y2="345.895971" class="t" />
<line x1="187.707350" y1="339.326838" x2="185.328887" y2="345.981528" class="t" />
<line x1="211.692609" y1="337.403564" x2="202.643642" y2="337.465758" class="t" />
<line x1="223.763075" y1="320.999608" x2="225.006378" y2="328.634113" class="t" />
<line x1="141.730015" y1="337.123813" x2="151.356690" y2="346.380394" class="t" />
<line x1="180.051820" y1="337.671642" x2="167.609720" y2="338.887403" class="t" />
<line x1="199.129288" y1="334.442768" x2="187.707350" y2="339.326838" class="t" />
<line x1="222.973886" y1="331.771327" x2="211.692609" y2="337.403564" class="t" />
<line x1="159.576578" y1="331.341288" x2="167.609720" y2="338.887403" class="t" />
<line x1="128.777213" y1="335.222058" x2="141.730015" y2="337.123813" class="t" />
<line x1="184.065315" y1="331.701327" x2="180.051820" y2="337.671642" class="t" />
<line x1="164.766517" y1="325.268189" x2="159.576578" y2="331.341288" class="t" />
<line x1="79.591357" y1="206.760887" x2="91.325395" y2="205.407307" class="t" />
<line x1="143.453038" y1="205.074762" x2="134.482876" y2="200.227439" class="t" />
<line x1="293.933182" y1="371.537012" x2="288.076572" y2="360.115096" class="t" />
<line x1="177.926631" y1="248.796248" x2="185.637128" y2="248.149049" class="t" />
<line x1="110.754565" y1="175.806412" x2="105.439437" y2="190.726233" class="t" />
<line x1="196.381271" y1="330.141138" x2="184.065315" y2="331.701327" class="t" />
<line x1="177.079894" y1="327.637172" x2="164.766517" y2="325.268189" class="t" />
<line x1="69.056207" y1="225.435335" x2="79.591357" y2="206.760887" class="t" />
<line x1="135.940569" y1="218.114186" x2="143.453038" y2="205.074762" class="t" />
<line x1="290.049471" y1="384.123943" x2="293.933182" y2="371.537012" class="t" />
<line x1="159.109900" y1="315.329731" x2="164.766517" y2="325.268189" class="t" />
<line x1="204.186735" y1="334.767668" x2="196.381271" y2="330.141138" class="t" />
<line x1="182.537572" y1="322.763563" x2="177.079894" y2="327.637172" class="t" />
<line x1="72.094054" y1="241.172974" x2="69.056207" y2="225.435335" class="t" />
<line x1="281.490517" y1="383.873122" x2="290.049471" y2="384.123943" class="t" />
<line x1="148.030615" y1="308.611374" x2="159.109900" y2="315.329731" class="t" />
<line x1="165.802721" y1="310.642433" x2="159.109900" y2="315.329731" class="t" />
<line x1="216.704471" y1="335.366884" x2="204.186735" y2="334.767668" class="t" />
<line x1="194.821543" y1="324.723578" x2="182.537572" y2="322.763563" class="t" />
<line x1="82.846934" y1="236.964287" x2="72.094054" y2="241.172974" class="t" />
<line x1="64.978398" y1="260.435854" x2="72.094054" y2="241.172974" class="t" />
<line x1="276.491536" y1="395.887382" x2="281.490517" y2="383.873122" class="t" />
<line x1="163.263791" y1="299.009887" x2="165.802721" y2="310.642433" class="t" />
<line x1="176.957058" y1="316.507976" x2="165.802721" y2="310.642433" class="t" />
<line x1="54.227946" y1="264.643493" x2="64.978398" y2="260.435854" class="t" />
<line x1="268.100588" y1="394.752436" x2="276.491536" y2="395.887382" class="t" />
<line x1="154.597653" y1="289.205342" x2="163.263791" y2="299.009887" class="t" />
<line x1="171.100573" y1="296.103924" x2="163.263791" y2="299.009887" class="t" />
<line x1="183.579626" y1="313.089237" x2="176.957058" y2="316.507976" class="t" />
<line x1="47.582206" y1="283.738627" x2="54.227946" y2="264.643493" class="t" />
<line x1="51.217024" y1="248.877707" x2="54.227946" y2="264.643493" class="t" />
<line x1="262.218328" y1="406.262579" x2="268.100588" y2="394.752436" class="t" />
<line x1="155.694635" y1="274.295730" x2="154.597653" y2="289.205342" class="t" />
<line x1="172.241634" y1="283.718055" x2="171.100573" y2="296.103924" class="t" />
<line x1="37.148816" y1="287.992453" x2="47.582206" y2="283.738627" class="t" />
<line x1="62.339356" y1="229.942276" x2="51.217024" y2="248.877707" class="t" />
<line x1="254.021082" y1="404.467159" x2="262.218328" y2="406.262579" class="t" />
<line x1="148.725667" y1="262.744912" x2="155.694635" y2="274.295730" class="t" />
<line x1="166.929925" y1="271.588925" x2="172.241634" y2="283.718055" class="t" />
<line x1="180.766961" y1="282.914318" x2="172.241634" y2="283.718055" class="t" />
<line x1="33.517364" y1="272.560050" x2="37.148816" y2="287.992453" class="t" />
<line x1="31.821103" y1="306.589773" x2="37.148816" y2="287.992453" class="t" />
<line x1="247.502739" y1="415.585909" x2="254.021082" y2="404.467159" class="t" />
<line x1="139.814361" y1="265.888414" x2="148.725667" y2="262.744912" class="t" />
<line x1="21.959198" y1="310.944259" x2="31.821103" y2="306.589773" class="t" />
<line x1="239.467430" y1="413.350390" x2="247.502739" y2="415.585909" class="t" />
<line x1="185.908357" y1="270.922218" x2="180.766961" y2="282.914318" class="t" />
<line x1="18.557451" y1="328.726688" x2="21.959198" y2="310.944259" class="t" />
<line x1="232.560171" y1="424.222659" x2="239.467430" y2="413.350390" class="t" />
<line x1="237.642868" y1="400.543995" x2="239.467430" y2="413.350390" class="t" />
<line x1="184.675413" y1="257.541561" x2="185.908357" y2="270.922218" class="t" />
<line x1="194.565392" y1="272.425014" x2="185.908357" y2="270.922218" class="t" />
<line x1="9.410496" y1="333.243672" x2="18.557451" y2="328.726688" class="t" />
<line x1="224.618031" y1="421.769697" x2="232.560171" y2="424.222659" class="t" />
<line x1="230.369634" y1="397.903129" x2="237.642868" y2="400.543995" class="t" />
<line x1="195.268609" y1="244.917545" x2="184.675413" y2="257.541561" class="t" />
<line x1="174.912199" y1="256.750583" x2="184.675413" y2="257.541561" class="t" />
<line x1="196.553396" y1="285.271946" x2="194.565392" y2="272.425014" class="t" />
<line x1="8.246151" y1="349.909607" x2="9.410496" y2="333.243672" class="t" />
<line x1="217.582576" y1="432.554874" x2="224.618031" y2="421.769697" class="t" />
<line x1="223.787252" y1="407.167654" x2="230.369634" y2="397.903129" class="t" />
<line x1="205.202630" y1="246.894593" x2="195.268609" y2="244.917545" class="t" />
<line x1="196.793065" y1="231.015476" x2="195.268609" y2="244.917545" class="t" />
<line x1="174.020994" y1="243.067377" x2="174.912199" y2="256.750583" class="t" />
<line x1="204.118245" y1="287.598399" x2="196.553396" y2="285.271946" class="t" />
<line x1="204.084750" y1="260.531478" x2="205.202630" y2="246.894593" class="t" />
<line x1="208.110265" y1="217.701793" x2="196.793065" y2="231.015476" class="t" />
<line x1="186.881455" y1="229.027359" x2="196.793065" y2="231.015476" class="t" />
<line x1="164.307676" y1="242.243995" x2="174.020994" y2="243.067377" class="t" />
<line x1="206.526653" y1="300.212552" x2="204.118245" y2="287.598399" class="t" />
<line x1="212.768475" y1="263.077975" x2="204.084750" y2="260.531478" class="t" />
<line x1="207.541236" y1="203.692568" x2="208.110265" y2="217.701793" class="t" />
<line x1="188.004558" y1="215.384391" x2="186.881455" y2="229.027359" class="t" />
<line x1="163.054711" y1="228.880892" x2="164.307676" y2="242.243995" class="t" />
<line x1="214.048428" y1="302.579099" x2="206.526653" y2="300.212552" class="t" />
<line x1="224.118949" y1="254.003774" x2="212.768475" y2="263.077975" class="t" />
<line x1="212.504699" y1="276.285704" x2="212.768475" y2="263.077975" class="t" />
<line x1="179.362824" y1="212.831033" x2="188.004558" y2="215.384391" class="t" />
<line x1="154.490687" y1="227.321886" x2="163.054711" y2="228.880892" class="t" />
<line x1="214.167645" y1="189.371461" x2="207.541236" y2="203.692568" class="t" />
<line x1="229.901813" y1="241.285119" x2="224.118949" y2="254.003774" class="t" />
<line x1="232.021208" y1="259.005136" x2="224.118949" y2="254.003774" class="t" />
<line x1="219.964331" y1="279.500098" x2="212.504699" y2="276.285704" class="t" />
<line x1="146.335358" y1="237.273751" x2="154.490687" y2="227.321886" class="t" />
<line x1="198.181822" y1="202.866900" x2="207.541236" y2="203.692568" class="t" />
<line x1="220.564277" y1="236.438928" x2="229.901813" y2="241.285119" class="t" />
<line x1="246.595298" y1="253.927216" x2="232.021208" y2="259.005136" class="t" />
<line x1="227.211882" y1="271.583859" x2="232.021208" y2="259.005136" class="t" />
<line x1="253.005776" y1="261.234057" x2="246.595298" y2="253.927216" class="t" />
<line x1="233.731385" y1="276.850705" x2="227.211882" y2="271.583859" class="t" />
<line x1="243.889497" y1="271.563009" x2="253.005776" y2="261.234057" class="t" />
<line x1="269.477322" y1="261.435135" x2="253.005776" y2="261.234057" class="t" />
<line x1="229.381541" y1="289.421980" x2="233.731385" y2="276.850705" class="t" />
<line x1="248.896977" y1="278.685879" x2="243.889497" y2="271.563009" class="t" />
<line x1="282.914888" y1="255.419166" x2="269.477322" y2="261.435135" class="t" />
<line x1="273.697810" y1="270.674919" x2="269.477322" y2="261.435135" class="t" />
<line x1="235.927002" y1="294.681885" x2="229.381541" y2="289.421980" class="t" />
<line x1="240.182310" y1="289.140469" x2="248.896977" y2="278.685879" class="t" />
<line x1="302.690243" y1="262.457626" x2="282.914888" y2="255.419166" class="t" />
<line x1="290.176178" y1="276.963810" x2="273.697810" y2="270.674919" class="t" />
<line x1="261.140963" y1="277.203290" x2="273.697810" y2="270.674919" class="t" />
<line x1="245.285913" y1="296.271472" x2="240.182310" y2="289.140469" class="t" />
<line x1="305.330352" y1="276.211948" x2="290.176178" y2="276.963810" class="t" />
<line x1="291.575727" y1="287.539690" x2="290.176178" y2="276.963810" class="t" />
<line x1="264.106711" y1="285.826191" x2="261.140963" y2="277.203290" class="t" />
<line x1="322.390158" y1="290.634499" x2="305.330352" y2="276.211948" class="t" />
<line x1="305.798808" y1="299.968754" x2="291.575727" y2="287.539690" class="t" />
<line x1="279.186268" y1="288.659036" x2="264.106711" y2="285.826191" class="t" />
<line x1="251.855181" y1="292.586182" x2="264.106711" y2="285.826191" class="t" />
<line x1="320.650805" y1="304.899977" x2="305.798808" y2="299.968754" class="t" />
<line x1="303.919993" y1="311.033531" x2="305.798808" y2="299.968754" class="t" />
<line x1="254.989673" y1="301.284481" x2="251.855181" y2="292.586182" class="t" />
<line x1="332.218010" y1="325.508518" x2="320.650805" y2="304.899977" class="t" />
<line x1="313.653088" y1="328.649736" x2="303.919993" y2="311.033531" class="t" />
<line x1="270.776641" y1="301.716150" x2="254.989673" y2="301.284481" class="t" />
<line x1="242.215448" y1="307.662443" x2="254.989673" y2="301.284481" class="t" />
<line x1="328.021834" y1="338.099356" x2="332.218010" y2="325.508518" class="t" />
<line x1="308.343454" y1="339.131378" x2="313.653088" y2="328.649736" class="t" />
<line x1="276.430290" y1="309.763023" x2="270.776641" y2="301.716150" class="t" />
<line x1="226.085904" y1="301.866417" x2="242.215448" y2="307.662443" class="t" />
<line x1="334.058215" y1="362.043452" x2="328.021834" y2="338.099356" class="t" />
<line x1="311.905327" y1="360.014327" x2="308.343454" y2="339.131378" class="t" />
<line x1="293.553746" y1="307.000861" x2="276.430290" y2="309.763023" class="t" />
<line x1="211.758249" y1="303.486937" x2="226.085904" y2="301.866417" class="t" />
<line x1="326.691091" y1="373.593284" x2="334.058215" y2="362.043452" class="t" />
<line x1="301.740509" y1="313.589501" x2="293.553746" y2="307.000861" class="t" />
<line x1="196.434108" y1="292.777562" x2="211.758249" y2="303.486937" class="t" />
<line x1="325.963467" y1="398.917542" x2="326.691091" y2="373.593284" class="t" />
<line x1="319.405087" y1="306.779590" x2="301.740509" y2="313.589501" class="t" />
<line x1="315.635130" y1="408.195604" x2="325.963467" y2="398.917542" class="t" />
<line x1="329.770060" y1="311.015600" x2="319.405087" y2="306.779590" class="t" />
<line x1="307.802956" y1="432.344876" x2="315.635130" y2="408.195604" class="t" />
<line x1="346.617138" y1="299.556936" x2="329.770060" y2="311.015600" class="t" />
<line x1="295.331210" y1="438.144804" x2="307.802956" y2="432.344876" class="t" />
<line x1="358.369469" y1="300.657017" x2="346.617138" y2="299.556936" class="t" />
<line x1="281.193304" y1="458.512626" x2="295.331210" y2="438.144804" class="t" />
<line x1="372.533906" y1="284.551554" x2="358.369469" y2="300.657017" class="t" />
<line x1="267.947941" y1="460.020344" x2="281.193304" y2="458.512626" class="t" />
<line x1="384.482972" y1="282.081275" x2="372.533906" y2="284.551554" class="t" />
<line x1="249.324356" y1="474.572403" x2="267.947941" y2="460.020344" class="t" />
<line x1="393.964413" y1="262.263068" x2="384.482972" y2="282.081275" class="t" />
<line x1="241.231618" y1="489.002649" x2="249.324356" y2="474.572403" class="t" />
<line x1="404.763102" y1="256.330449" x2="393.964413" y2="262.263068" class="t" />
<line x1="218.966585" y1="499.960699" x2="241.231618" y2="489.002649" class="t" />
<line x1="407.995754" y1="234.711033" x2="404.763102" y2="256.330449" class="t" />
<line x1="210.222477" y1="513.603567" x2="218.966585" y2="499.960699" class="t" />
<line x1="416.435326" y1="225.981270" x2="407.995754" y2="234.711033" class="t" />
<line x1="222.284883" y1="517.578762" x2="210.222477" y2="513.603567" class="t" />
<line x1="220.140120" y1="292.546037" x2="219.964331" y2="279.500098" class="t" />
<line x1="138.961572" y1="233.125050" x2="146.335358" y2="237.273751" class="t" />
<line x1="227.576152" y1="295.780289" x2="220.140120" y2="292.546037" class="t" />
<line x1="128.945044" y1="240.145351" x2="138.961572" y2="233.125050" class="t" />
<line x1="123.373003" y1="234.041416" x2="128.945044" y2="240.145351" class="t" />
<line x1="256.702703" y1="243.786895" x2="246.595298" y2="253.927216" class="t" />
<line x1="112.326165" y1="238.012806" x2="123.373003" y2="234.041416" class="t" />
<line x1="276.389877" y1="243.491614" x2="256.702703" y2="243.786895" class="t" />
<line x1="248.809685" y1="236.158030" x2="256.702703" y2="243.786895" class="t" />
<line x1="108.909409" y1="230.661831" x2="112.326165" y2="238.012806" class="t" />
<line x1="289.477752" y1="235.824333" x2="276.389877" y2="243.491614" class="t" />
<line x1="259.501076" y1="226.051615" x2="248.809685" y2="236.158030" class="t" />
<line x1="97.571556" y1="231.617640" x2="108.909409" y2="230.661831" class="t" />
<line x1="311.084331" y1="236.541289" x2="289.477752" y2="235.824333" class="t" />
<line x1="279.245960" y1="222.383187" x2="259.501076" y2="226.051615" class="t" />
<line x1="96.437546" y1="223.723565" x2="97.571556" y2="231.617640" class="t" />
<line x1="320.066511" y1="245.034625" x2="311.084331" y2="236.541289" class="t" />
<line x1="288.740848" y1="210.910728" x2="279.245960" y2="222.383187" class="t" />
<line x1="85.468407" y1="221.804701" x2="96.437546" y2="223.723565" class="t" />
<line x1="343.254236" y1="243.529077" x2="320.066511" y2="245.034625" class="t" />
<line x1="305.667211" y1="202.976295" x2="288.740848" y2="210.910728" class="t" />
<line x1="353.905233" y1="251.125069" x2="343.254236" y2="243.529077" class="t" />
<line x1="316.428096" y1="205.924855" x2="305.667211" y2="202.976295" class="t" />
<line x1="378.467829" y1="247.576758" x2="353.905233" y2="251.125069" class="t" />
<line x1="331.335011" y1="192.017710" x2="316.428096" y2="205.924855" class="t" />
<line x1="390.482768" y1="254.304348" x2="378.467829" y2="247.576758" class="t" />
<line x1="343.180655" y1="190.713919" x2="331.335011" y2="192.017710" class="t" />
<line x1="416.132598" y1="249.086431" x2="390.482768" y2="254.304348" class="t" />
<line x1="353.947278" y1="171.417199" x2="343.180655" y2="190.713919" class="t" />
<line x1="429.117985" y1="255.123748" x2="416.132598" y2="249.086431" class="t" />
<line x1="365.228597" y1="165.634174" x2="353.947278" y2="171.417199" class="t" />
<line x1="455.481235" y1="248.803961" x2="429.117985" y2="255.123748" class="t" />
<line x1="369.976144" y1="142.474720" x2="365.228597" y2="165.634174" class="t" />
<line x1="468.981838" y1="254.454603" x2="455.481235" y2="248.803961" class="t" />
<line x1="379.081219" y1="132.749069" x2="369.976144" y2="142.474720" class="t" />
<line x1="495.594294" y1="247.744638" x2="468.981838" y2="254.454603" class="t" />
<line x1="376.642368" y1="108.071156" x2="379.081219" y2="132.749069" class="t" />
<line x1="509.092124" y1="253.395548" x2="495.594294" y2="247.744638" class="t" />
<line x1="382.378810" y1="95.576310" x2="376.642368" y2="108.071156" class="t" />
<line x1="535.455709" y1="247.074224" x2="509.092124" y2="253.395548" class="t" />
<line x1="372.687377" y1="72.102716" x2="382.378810" y2="95.576310" class="t" />
<line x1="548.445466" y1="253.112556" x2="535.455709" y2="247.074224" class="t" />
<line x1="374.541078" y1="58.350561" x2="372.687377" y2="72.102716" class="t" />
<line x1="574.096692" y1="247.895632" x2="548.445466" y2="253.112556" class="t" />
<line x1="358.674778" y1="38.593695" x2="374.541078" y2="58.350561" class="t" />
<line x1="586.458164" y1="236.650392" x2="574.096692" y2="247.895632" class="t" />
<line x1="356.799885" y1="25.029105" x2="358.674778" y2="38.593695" class="t" />
<line x1="336.674798" y1="10.706517" x2="356.799885" y2="25.029105" class="t" />
<line x1="209.639237" y1="430.101761" x2="217.582576" y2="432.554874" class="t" />
<line x1="217.244556" y1="402.940285" x2="223.787252" y2="407.167654" class="t" />
<line x1="202.732067" y1="440.971794" x2="209.639237" y2="430.101761" class="t" />
<line x1="208.490711" y1="410.539115" x2="217.244556" y2="402.940285" class="t" />
<line x1="194.700213" y1="438.737873" x2="202.732067" y2="440.971794" class="t" />
<line x1="202.917591" y1="404.969233" x2="208.490711" y2="410.539115" class="t" />
<line x1="188.183094" y1="449.857475" x2="194.700213" y2="438.737873" class="t" />
<line x1="192.458459" y1="410.500210" x2="202.917591" y2="404.969233" class="t" />
<line x1="179.988369" y1="448.059268" x2="188.183094" y2="449.857475" class="t" />
<line x1="188.014576" y1="403.849152" x2="192.458459" y2="410.500210" class="t" />
<line x1="174.103022" y1="459.569432" x2="179.988369" y2="448.059268" class="t" />
<line x1="176.368332" y1="407.076204" x2="188.014576" y2="403.849152" class="t" />
<line x1="165.712167" y1="458.433297" x2="174.103022" y2="459.569432" class="t" />
<line x1="173.129695" y1="399.602528" x2="176.368332" y2="407.076204" class="t" />
<line x1="160.705883" y1="470.447903" x2="165.712167" y2="458.433297" class="t" />
<line x1="160.806580" y1="400.440220" x2="173.129695" y2="399.602528" class="t" />
<line x1="186.630904" y1="294.326130" x2="180.766961" y2="282.914318" class="t" />
<line x1="158.796614" y1="392.383274" x2="160.806580" y2="400.440220" class="t" />
<line x1="194.366533" y1="294.602512" x2="186.630904" y2="294.326130" class="t" />
<line x1="146.244055" y1="390.876403" x2="158.796614" y2="392.383274" class="t" />
<line x1="200.562234" y1="305.671625" x2="194.366533" y2="294.602512" class="t" />
<line x1="134.709080" y1="396.869485" x2="146.244055" y2="390.876403" class="t" />
<line x1="145.429656" y1="382.446254" x2="146.244055" y2="390.876403" class="t" />
<line x1="208.258465" y1="306.009364" x2="200.562234" y2="305.671625" class="t" />
<line x1="121.711811" y1="394.727021" x2="134.709080" y2="396.869485" class="t" />
<line x1="133.010426" y1="378.693642" x2="145.429656" y2="382.446254" class="t" />
<line x1="44.212876" y1="253.503154" x2="33.517364" y2="272.560050" class="t" />
<line x1="120.633533" y1="382.771048" x2="133.010426" y2="378.693642" class="t" />
<line x1="180.082408" y1="305.087652" x2="171.100573" y2="296.103924" class="t" />
<line x1="107.896270" y1="378.552529" x2="120.633533" y2="382.771048" class="t" />
<line x1="187.482905" y1="303.415017" x2="180.082408" y2="305.087652" class="t" />
<line x1="194.815436" y1="318.528800" x2="183.579626" y2="313.089237" class="t" />
<line x1="196.675474" y1="311.988293" x2="187.482905" y2="303.415017" class="t" />
<line x1="201.437062" y1="315.167154" x2="194.815436" y2="318.528800" class="t" />
<line x1="204.055952" y1="310.387272" x2="196.675474" y2="311.988293" class="t" />
<line x1="223.765604" y1="343.771140" x2="216.704471" y2="335.366884" class="t" />
<line x1="201.092361" y1="331.459692" x2="194.821543" y2="324.723578" class="t" />
<line x1="200.280718" y1="319.862265" x2="194.821543" y2="324.723578" class="t" />
<line x1="212.989024" y1="335.376594" x2="201.092361" y2="331.459692" class="t" />
<line x1="89.494578" y1="217.867107" x2="82.846934" y2="236.964287" class="t" />
<line x1="217.505578" y1="345.411527" x2="212.989024" y2="335.376594" class="t" />
<line x1="99.924678" y1="213.614758" x2="89.494578" y2="217.867107" class="t" />
<line x1="144.821673" y1="294.638829" x2="148.030615" y2="308.611374" class="t" />
<line x1="146.167891" y1="222.709426" x2="135.940569" y2="218.114186" class="t" />
<line x1="134.829439" y1="285.833753" x2="144.821673" y2="294.638829" class="t" />
<line x1="202.902388" y1="318.302749" x2="201.469170" y2="305.195293" class="t" />
<line x1="127.221137" y1="291.010061" x2="134.829439" y2="285.833753" class="t" />
<line x1="196.096984" y1="330.317853" x2="202.902388" y2="318.302749" class="t" />
<line x1="122.451085" y1="209.677017" x2="111.909949" y2="207.429031" class="t" />
<line x1="187.288056" y1="329.736722" x2="196.096984" y2="330.317853" class="t" />
<line x1="117.697777" y1="224.424797" x2="122.451085" y2="209.677017" class="t" />
<line x1="182.565870" y1="342.232971" x2="187.288056" y2="329.736722" class="t" />
<line x1="129.311370" y1="226.161008" x2="117.697777" y2="224.424797" class="t" />
<line x1="173.934668" y1="342.721972" x2="182.565870" y2="342.232971" class="t" />
<line x1="130.330820" y1="165.563094" x2="110.754565" y2="175.806412" class="t" />
<line x1="171.371390" y1="355.442304" x2="173.934668" y2="342.721972" class="t" />
<line x1="140.380259" y1="153.124201" x2="130.330820" y2="165.563094" class="t" />
<line x1="163.056908" y1="357.051042" x2="171.371390" y2="355.442304" class="t" />
<line x1="162.846667" y1="147.194076" x2="140.380259" y2="153.124201" class="t" />
<line x1="162.743098" y1="369.692677" x2="163.056908" y2="357.051042" class="t" />
<line x1="173.645972" y1="135.835390" x2="162.846667" y2="147.194076" class="t" />
<line x1="154.916372" y1="372.452299" x2="162.743098" y2="369.692677" class="t" />
<line x1="163.497422" y1="129.268399" x2="173.645972" y2="135.835390" class="t" />
<line x1="156.918046" y1="384.643568" x2="154.916372" y2="372.452299" class="t" />
<line x1="207.854027" y1="336.741498" x2="199.129288" y2="334.442768" class="t" />
<line x1="149.784735" y1="388.571126" x2="156.918046" y2="384.643568" class="t" />
<line x1="220.130747" y1="334.086863" x2="207.854027" y2="336.741498" class="t" />
<line x1="154.099835" y1="399.866252" x2="149.784735" y2="388.571126" class="t" />
<line x1="229.206842" y1="340.375631" x2="220.130747" y2="334.086863" class="t" />
<line x1="147.900578" y1="404.918629" x2="154.099835" y2="399.866252" class="t" />
<line x1="147.109209" y1="328.151200" x2="159.576578" y2="331.341288" class="t" />
<line x1="154.403105" y1="414.811716" x2="147.900578" y2="404.918629" class="t" />
<line x1="140.275259" y1="316.153412" x2="147.109209" y2="328.151200" class="t" />
<line x1="149.387496" y1="420.884151" x2="154.403105" y2="414.811716" class="t" />
<line x1="128.286482" y1="310.668896" x2="140.275259" y2="316.153412" class="t" />
<line x1="122.348413" y1="317.428411" x2="128.286482" y2="310.668896" class="t" />
</svg>
