<?xml version="1.0"?>
<svg width="479" height="471" version="1.1" xmlns="http://www.w3.org/2000/svg" >
<defs>
<style type="text/css"><![CDATA[
.m {stroke:rgb(255,0,0);stroke-width:0.598750;}
.v {stroke:rgb(0,0,255);stroke-width:0.598750;}
.b {stroke:rgb(0,0,0);stroke-width:1.197500;fill:white}
.n {stroke:rgb(128,128,128);stroke-width:0.598750}
.t {stroke:rgb(0,128,0);stroke-width:0.598750;}
.c {stroke:rgb(128,128,128);stroke-width:0.598750;stroke-dasharray:4.790000, 4.790000;}
]]></style>
</defs>
<path fill="none" style="stroke:black;stroke-width:1.197500;" d=" M 156.635 202.285 L 138.791 204.711 M 138.791 204.711 L 160.316 223.378 M 120.794 230.681 L 137.722 236.856 M 137.722 236.856 L 131.232 209.114 M 114.263 203.067 L 96.8823 198.294 M 89.8198 212.322 L 104.99 222.038 M 96.8823 198.294 L 79.9251 192.215 M 79.9251 192.215 L 89.8198 212.322 M 194.442 211.897 L 212.285 209.388 M 212.285 209.388 L 192.482 198.897 M 174.62 201.247 L 156.635 202.285 M 160.316 223.378 L 177.179 217.041 M 156.501 182.254 L 138.494 181.747 M 138.494 181.747 L 156.985 204.927 M 131.232 209.114 L 148.928 212.447 M 148.928 212.447 L 138.419 184.72 M 120.704 181.405 L 102.784 179.51 M 97.7811 195.772 L 114.263 203.067 M 102.784 179.51 L 85.0557 176.26 M 85.0557 176.26 L 97.7811 195.772 M 192.482 198.897 L 210.491 199.334 M 210.491 199.334 L 192.421 184.632 M 174.41 184.153 L 156.501 182.254 M 156.985 204.927 L 174.62 201.247 M 159.476 161.232 L 141.793 157.804 M 138.419 184.72 L 156.429 185.149 M 103.324 176.647 L 120.704 181.405 M 105.806 158.193 L 87.7949 157.811 M 87.7949 157.811 L 103.324 176.647 M 192.421 184.632 L 210.131 187.979 M 210.131 187.979 L 194.587 169.156 M 176.859 165.949 L 159.476 161.232 M 156.429 185.149 L 174.41 184.153 M 159.648 155.425 L 158.908 129.685 M 158.908 129.685 L 140.917 128.781 M 141.793 157.804 L 159.648 155.425 M 105.381 134.502 L 123.792 157.233 M 123.792 157.233 L 101.682 138.08 M 101.682 138.08 L 84.5426 143.623 M 84.5426 143.623 L 105.806 158.193 M 194.587 169.156 L 211.544 175.242 M 211.544 175.242 L 199.281 152.569 M 158.918 164.36 L 176.859 165.949 M 165.733 139.527 L 158.918 164.36 M 464.509 93.9221 L 447.696 115.749 M 460.874 128.034 L 479.875 103.324 M 479.875 103.324 L 464.509 93.9221 M 140.917 128.781 L 135.512 98.0825 M 101.098 108.586 L 123.01 130.806 M 123.01 130.806 L 97.2292 113.221 M 81.2223 121.49 L 105.381 134.502 M 192.163 155.896 L 203.389 169.985 M 203.389 169.985 L 206.043 142.674 M 194.313 129.01 L 192.163 155.896 M 190.658 127.012 L 182.197 146.836 M 199.281 152.569 L 190.658 127.012 M 182.197 146.836 L 194.313 129.01 M 181.152 116.694 L 165.733 139.527 M 447.696 115.749 L 425.275 134.942 M 435.463 149.805 L 460.874 128.034 M 135.512 98.0825 L 125.545 66.1394 M 108.698 72.5109 L 118.037 102.457 M 388.085 304.583 L 387.993 273.215 M 370.238 276.314 L 388.085 304.583 M 118.037 102.457 L 88.6543 86.5101 M 74.076 97.0933 L 101.098 108.586 M 97.2292 113.221 L 69.4848 103.603 M 53.9471 112.714 L 81.2223 121.49 M 206.043 142.674 L 213.092 114.902 M 204.735 98.9474 L 181.152 116.694 M 425.275 134.942 L 397.363 149.541 M 403.773 166.385 L 435.463 149.805 M 125.545 66.1394 L 111.283 33.3406 M 95.1171 41.2724 L 108.698 72.5109 M 387.993 273.215 L 376.606 241.111 M 360.847 249.841 L 370.238 276.314 M 375.217 273.593 L 362.199 248.702 M 347.353 258.903 L 375.217 273.593 M 57.9273 79.5779 L 74.076 97.0933 M 88.6543 86.5101 L 57.9273 79.5779 M 405.146 105.765 L 382.989 114.517 M 388.866 131.548 L 405.146 105.765 M 42.1598 90.0682 L 53.9471 112.714 M 69.4848 103.603 L 42.1598 90.0682 M 397.363 149.541 L 411.867 119.284 M 411.867 119.284 L 390.311 132.963 M 213.092 114.902 L 234.698 89.2294 M 234.698 89.2294 L 204.735 98.9474 M 366.974 175.292 L 403.773 166.385 M 111.283 33.3406 L 93.34 0 M 93.34 0 L 77.7605 9.05243 M 77.7605 9.05243 L 95.1171 41.2724 M 376.606 241.111 L 353.855 212.445 M 341.715 225.762 L 360.847 249.841 M 362.199 248.702 L 341.715 225.762 M 316.085 250.908 L 347.353 258.903 M 382.989 114.517 L 362.59 139.526 M 365 157.38 L 388.866 131.548 M 390.311 132.963 L 365 157.38 M 327.529 174.332 L 366.974 175.292 M 364.096 197.619 L 331.093 175.994 M 331.093 175.994 L 321.51 191.249 M 353.855 212.445 L 364.096 197.619 M 321.51 191.249 L 314.086 207.666 M 296.182 238.812 L 329.916 239.369 M 329.916 239.369 L 298.058 228.262 M 298.058 228.262 L 282.387 237.153 M 282.387 237.153 L 316.085 250.908 M 362.59 139.526 L 330.418 156.548 M 283.939 161.559 L 315.123 133.905 M 330.418 156.548 L 289.145 162.352 M 289.145 162.352 L 283.86 179.575 M 321.992 191.476 L 327.529 174.332 M 283.86 179.575 L 281.109 197.382 M 314.086 207.666 L 321.992 191.476 M 278.269 215.173 L 272.818 232.345 M 272.818 232.345 L 306.349 223.932 M 306.349 223.932 L 271.842 221.835 M 271.842 221.835 L 259.444 234.908 M 259.444 234.908 L 296.182 238.812 M 315.123 133.905 L 307.539 117.561 M 307.539 117.561 L 281.445 143.715 M 243.986 161.181 L 243.639 179.195 M 283.854 179.575 L 283.939 161.559 M 243.639 179.195 L 246.033 197.048 M 281.109 197.382 L 283.854 179.575 M 248.601 214.882 L 248.596 232.9 M 278.002 233.187 L 278.269 215.173 M 248.596 232.9 L 245.846 250.699 M 245.846 250.699 L 278.002 233.187 M 281.445 143.715 L 279.041 125.859 M 279.041 125.859 L 246.904 143.403 M 207.249 149.148 L 201.221 166.117 M 238.706 178.407 L 243.986 161.181 M 201.221 166.117 L 197.963 183.835 M 197.963 183.835 L 238.706 178.407 M 246.033 197.048 L 243.114 179.273 M 243.114 179.273 L 212.962 207.207 M 220.919 223.366 L 226.607 240.462 M 253.544 232.209 L 248.601 214.882 M 226.607 240.462 L 229.5 258.244 M 229.5 258.244 L 253.544 232.209 M 246.904 143.403 L 250.161 125.689 M 250.161 125.689 L 215.513 133.133 M 177.81 127.399 L 166.561 141.475 M 197.022 163.97 L 207.249 149.148 M 166.561 141.475 L 157.786 157.197 M 157.786 157.197 L 197.022 163.97 M 212.962 207.207 L 204.48 191.314 M 204.48 191.314 L 185.808 226.481 M 198.518 239.255 L 209.485 253.538 M 230.848 238.401 L 220.919 223.366 M 209.485 253.538 L 217.928 269.452 M 217.928 269.452 L 230.848 238.401 M 215.513 133.133 L 224.302 117.407 M 224.302 117.407 L 190.766 114.874 M 158.462 99.3724 L 143.152 108.864 M 163.463 138.299 L 177.81 127.399 M 143.152 108.864 L 129.65 120.785 M 129.65 120.785 L 163.463 138.299 M 185.808 226.481 L 172.544 214.304 M 172.544 214.304 L 167.366 252.03 M 183.557 259.942 L 198.68 269.73 M 198.68 269.73 L 212.644 250.424 M 212.644 250.424 L 198.518 239.255 M 190.733 83.3479 L 174.803 91.7742 M 204.273 102.954 L 190.733 83.3479 M 190.766 114.874 L 204.273 102.954 M 150.194 69.1076 L 132.57 72.8583 M 132.57 72.8583 L 158.462 99.3724 M 146.446 246.307 L 128.539 244.348 M 128.539 244.348 L 140.864 279.298 M 158.852 280.288 L 146.446 246.307 M 167.366 252.03 L 150.772 245.027 M 150.772 245.027 L 158.852 280.288 M 176.734 282.415 L 194.283 286.508 M 194.283 286.508 L 200.509 266.036 M 200.509 266.036 L 183.557 259.942 M 185.903 64.4389 L 168.125 67.3249 M 191.536 85.0826 L 185.903 64.4389 M 174.803 91.7742 L 191.536 85.0826 M 152.297 40.4066 L 134.443 37.9749 M 134.443 37.9749 L 150.194 69.1076 M 137.081 282.225 L 119.618 286.669 M 119.618 286.669 L 142.623 312.901 M 159.907 307.823 L 137.081 282.225 M 140.864 279.298 L 159.907 307.823 M 177.504 303.963 L 195.399 301.897 M 195.399 301.897 L 194.751 282.729 M 194.751 282.729 L 176.734 282.415 M 187.586 47.5596 L 169.816 44.6071 M 186.125 66.6829 L 187.586 47.5596 M 168.125 67.3249 L 186.125 66.6829 M 235.568 305.807 L 210.727 290.332 M 169.816 44.6071 L 162.873 16.1759 M 162.873 16.1759 L 146.841 7.95571 M 146.841 7.95571 L 152.297 40.4066 M 140.087 317.06 L 125.187 327.192 M 125.187 327.192 L 154.405 342.33 M 169.074 331.879 L 140.087 317.06 M 142.623 312.901 L 169.074 331.879 M 184.479 322.542 L 200.671 314.642 M 194.667 298.491 L 177.504 303.963 M 200.671 314.642 L 217.95 309.56 M 210.727 290.332 L 194.667 298.491 M 322.4 465.687 L 349.431 460.125 M 217.95 309.56 L 236.309 330.164 M 236.309 330.164 L 254.328 330.676 M 254.328 330.676 L 235.568 305.807 M 153.482 347.088 L 142.754 361.563 M 142.754 361.563 L 173.695 365.171 M 184.285 350.598 L 153.482 347.088 M 154.405 342.33 L 184.285 350.598 M 195.963 336.87 L 208.73 324.162 M 208.73 324.162 L 184.479 322.542 M 356.264 443.46 L 365.614 428.06 M 365.614 428.06 L 342.6 435.877 M 342.6 435.877 L 333.097 451.195 M 349.431 460.125 L 356.264 443.46 M 306.964 449.184 L 293.162 460.77 M 293.162 460.77 L 322.4 465.687 M 173.695 365.171 L 165.446 381.198 M 165.446 381.198 L 195.016 379.026 M 195.016 379.026 L 203.259 363.019 M 210.188 346.377 L 218.33 330.31 M 218.33 330.31 L 195.963 336.87 M 344.866 437.54 L 358.568 425.848 M 358.568 425.848 L 335.286 426.967 M 335.286 426.967 L 321.585 438.666 M 333.097 451.195 L 344.866 437.54 M 298.006 430.067 L 281.357 436.943 M 281.357 436.943 L 306.964 449.184 M 197.653 380.129 L 194.632 397.895 M 194.632 397.895 L 220.7 386.669 M 220.7 386.669 L 223.839 368.926 M 203.259 363.019 L 197.653 380.129 M 225.502 350.983 L 228.414 333.216 M 228.414 333.216 L 210.188 346.377 M 336.964 429.282 L 353.558 422.276 M 353.558 422.276 L 331.645 417.255 M 331.645 417.255 L 315.088 424.366 M 321.585 438.666 L 336.964 429.282 M 295.331 410.371 L 277.4 412.094 M 277.4 412.094 L 298.006 430.067 M 223.539 386.942 L 225.849 404.807 M 225.849 404.807 L 246.234 386.583 M 246.234 386.583 L 244.113 368.691 M 223.839 368.926 L 223.539 386.942 M 240.522 351.032 L 238.112 333.179 M 238.112 333.179 L 225.502 350.983 M 332.565 419.979 L 350.477 418.161 M 350.477 418.161 L 331.252 407.847 M 331.252 407.847 L 313.343 409.842 M 315.088 424.366 L 332.565 419.979 M 298.306 391.734 L 280.622 388.303 M 280.622 388.303 L 295.331 410.371 M 248.997 386.033 L 256.29 402.505 M 256.29 402.505 L 269.648 379.594 M 269.648 379.594 L 262.534 363.041 M 244.113 368.691 L 248.997 386.033 M 254.113 347.112 L 246.75 330.672 M 246.75 330.672 L 240.522 351.032 M 331.344 410.655 L 349.048 413.985 M 349.048 413.985 L 333.481 399.461 M 333.481 399.461 L 315.744 396.297 M 313.343 409.842 L 331.344 410.655 M 306.041 375.39 L 289.989 367.225 M 289.989 367.225 L 298.306 391.734 M 272.055 378.337 L 283.603 392.162 M 283.603 392.162 L 289.36 366.929 M 289.36 366.929 L 277.903 353.024 M 262.534 363.041 L 272.055 378.337 M 265.434 340.034 L 253.836 326.248 M 253.836 326.248 L 254.113 347.112 M 332.809 402.076 L 348.921 410.131 M 348.921 410.131 L 337.703 392.538 M 337.703 392.538 L 321.547 384.575 M 315.744 396.297 L 332.809 402.076 M 317.524 362.21 L 304.234 350.043 M 291.219 365.16 L 306.041 375.39 M 304.234 350.043 L 289.399 339.815 M 277.903 353.024 L 291.219 365.16 M 273.881 330.665 L 259.01 320.495 M 259.01 320.495 L 265.434 340.034 M 336.39 394.777 L 349.718 406.899 M 349.718 406.899 L 343.299 387.359 M 343.299 387.359 L 329.966 375.237 M 321.547 384.575 L 336.39 394.777 M 331.721 352.754 L 322.084 337.542 M 306.057 348.312 L 317.524 362.21 M 322.084 337.542 L 310.488 323.754 M 310.488 323.754 L 306.057 348.312 M 289.399 339.815 L 305.459 347.987 M 305.459 347.987 L 296.546 324.679 M 279.155 319.983 L 262.141 314.056 M 257.74 322.661 L 273.881 330.665 M 262.141 314.056 L 246.092 305.87 M 246.092 305.87 L 257.74 322.661 M 329.966 375.237 L 341.583 389.012 M 341.583 389.012 L 340.252 368.62 M 347.621 347.34 L 342.185 330.166 M 324.431 336.288 L 331.721 352.754 M 342.185 330.166 L 334.531 313.859 M 334.531 313.859 L 324.431 336.288 M 296.546 324.679 L 314.169 328.419 M 314.169 328.419 L 299.217 308.887 M 281.196 308.901 L 263.234 307.512 M 261.453 316.626 L 279.155 319.983 M 263.234 307.512 L 245.606 303.757 M 245.606 303.757 L 261.453 316.626 M 340.252 368.62 L 347.892 384.935 M 347.892 384.935 L 351.705 364.88 M 364.261 346.081 L 363.281 328.084 M 345.002 329.518 L 347.621 347.34 M 363.281 328.084 L 359.961 310.372 M 359.961 310.372 L 345.002 329.518 M 299.217 308.887 L 317.211 308.043 M 317.211 308.043 L 297.636 293.652 M 280.22 298.279 L 262.482 301.402 M 263.243 310.397 L 281.196 308.901 M 262.482 301.402 L 244.487 302.19 M 244.487 302.19 L 263.243 310.397 M 351.705 364.88 L 354.986 382.603 M 354.986 382.603 L 363.717 364.085 M 380.725 348.906 L 384.123 331.222 M 366.432 328.189 L 364.261 346.081 M 384.123 331.222 L 385.279 313.246 M 385.279 313.246 L 366.432 328.189 M 297.636 293.652 L 314.87 288.387 M 314.87 288.387 L 292.335 279.98 M 276.634 288.816 L 260.172 296.138 M 263.298 304.448 L 280.22 298.279 M 260.172 296.138 L 242.921 301.328 M 242.921 301.328 L 263.298 304.448 M 363.717 364.085 L 362.505 382.056 M 362.505 382.056 L 375.701 366.218 M 387.434 332.195 L 380.725 348.906 M 403.583 339.215 L 408.959 322.015 M 408.959 322.015 L 387.434 332.195 M 292.335 279.98 L 307.822 270.781 M 307.822 270.781 L 284.109 268.631 M 271.002 280.983 L 256.692 291.926 M 261.865 299.134 L 276.634 288.816 M 256.692 291.926 L 241.159 301.067 M 241.159 301.067 L 261.865 299.134 M 375.701 366.218 L 370.273 383.396 M 370.273 383.396 L 387.125 371.211 M 420.671 351.484 L 396.168 355.631 M 396.168 355.631 L 419.288 346.515 M 419.288 346.515 L 425.029 329.437 M 425.029 329.437 L 403.583 339.215 M 284.109 268.631 L 297.113 256.156 M 297.113 256.156 L 273.854 259.971 M 263.921 275.003 L 252.387 288.842 M 259.268 294.652 L 271.002 280.983 M 252.387 288.842 L 239.344 301.272 M 239.344 301.272 L 259.268 294.652 M 387.125 371.211 L 377.928 386.71 M 377.928 386.71 L 397.438 378.955 M 434.628 367.253 L 409.811 365.858 M 409.811 365.858 L 434.318 361.707 M 434.318 361.707 L 443.344 346.114 M 443.344 346.114 L 420.671 351.484 M 273.854 259.971 L 283.865 244.99 M 283.865 244.99 L 262.399 254.05 M 255.921 270.875 L 247.52 286.808 M 247.52 286.808 L 255.757 291.062 M 255.757 291.062 L 263.921 275.003 M 391.134 399.194 L 406.116 389.195 M 385.14 392.122 L 391.134 399.194 M 397.438 378.955 L 385.14 392.122 M 444.963 385.647 L 421.018 379.058 M 421.018 379.058 L 445.841 379.827 M 457.634 366.203 L 434.628 367.253 M 262.399 254.05 L 269.192 237.363 M 269.192 237.363 L 250.4 250.677 M 242.226 285.697 L 251.5 288.336 M 251.5 288.336 L 255.921 270.875 M 391.43 399.624 L 395.941 408.147 M 406.116 389.195 L 391.43 399.624 M 412.709 401.565 L 416.887 415.621 M 451.467 405.769 L 429.325 394.595 M 429.325 394.595 L 453.536 399.978 M 467.546 388.653 L 444.963 385.647 M 467.627 373.162 L 457.634 366.203 M 445.841 379.827 L 467.627 373.162 M 250.4 250.677 L 238.277 249.523 M 238.556 267.528 L 247.388 268.44 M 247.388 268.44 L 239.05 265.39 M 232.707 282.252 L 242.226 285.697 M 395.941 408.147 L 398.194 418.015 M 416.085 415.835 L 412.709 401.565 M 416.887 415.621 L 418.48 430.86 M 454.207 426.842 L 434.49 411.794 M 457.367 421.379 L 451.467 405.769 M 434.49 411.794 L 457.367 421.379 M 0 250.475 L 14.2706 259.126 M 21.1303 242.456 L 0 250.475 M 475.97 397.237 L 467.546 388.653 M 453.536 399.978 L 475.97 397.237 M 238.277 249.523 L 226.277 250.319 M 229.547 268.03 L 238.556 267.528 M 239.05 265.39 L 230.916 261.483 M 223.06 277.689 L 232.707 282.252 M 398.194 418.015 L 397.716 428.676 M 415.559 431.148 L 416.085 415.835 M 35.2358 317.994 L 49.0804 309.939 M 40.6835 294.005 L 35.2358 317.994 M 418.48 430.86 L 435.357 448.757 M 453.371 448.305 L 436.473 430.007 M 457.532 443.307 L 454.207 426.842 M 436.473 430.007 L 457.532 443.307 M 14.2706 259.126 L 30.3581 263.955 M 32.62 246.086 L 21.1303 242.456 M 226.277 250.319 L 214.496 252.85 M 220.44 269.858 L 229.547 268.03 M 230.916 261.483 L 223.089 256.483 M 213.495 271.736 L 223.06 277.689 M 397.716 428.676 L 394.164 439.368 M 410.748 446.425 L 415.559 431.148 M 55.5852 311.654 L 68.9889 301.623 M 58.6363 286.884 L 55.5852 311.654 M 49.0804 309.939 L 58.6363 286.884 M 50.3754 270.872 L 40.6835 294.005 M 454.176 465.337 L 453.371 448.305 M 435.357 448.757 L 454.176 465.337 M 30.3581 263.955 L 47.4003 264.516 M 44.8357 246.683 L 32.62 246.086 M 214.496 252.85 L 203.006 257.039 M 211.308 273.023 L 220.44 269.858 M 223.089 256.483 L 215.679 250.277 M 204.25 264.207 L 213.495 271.736 M 394.164 439.368 L 387.481 449.242 M 401.592 460.442 L 410.748 446.425 M 75.8933 302.633 L 88.3918 290.369 M 76.0861 277.218 L 75.8933 302.633 M 68.9889 301.623 L 76.0861 277.218 M 65.7184 262.491 L 50.3754 270.872 M 47.4003 264.516 L 64.4084 260.47 M 57.1118 243.994 L 44.8357 246.683 M 203.006 257.039 L 191.87 262.864 M 202.257 277.585 L 211.308 273.023 M 215.679 250.277 L 208.887 242.753 M 195.655 254.988 L 204.25 264.207 M 95.6721 290.535 L 107.026 310.222 M 107.026 310.222 L 111.802 298.559 M 387.481 449.242 L 388.394 471.95 M 388.394 471.95 L 401.592 460.442 M 92.6188 264.734 L 95.6721 290.535 M 88.3918 290.369 L 92.6188 264.734 M 80.198 251.67 L 65.7184 262.491 M 64.4084 260.47 L 80.198 251.67 M 68.6598 237.83 L 57.1118 243.994 M 191.87 262.864 L 181.162 270.392 M 181.162 270.392 L 193.393 283.621 M 193.393 283.621 L 202.257 277.585 M 208.887 242.753 L 202.913 233.848 M 172.519 253.154 L 195.655 254.988 M 111.802 298.559 L 106.753 275.906 M 166.021 235.023 L 148.921 240.704 M 148.921 240.704 L 172.519 253.154 M 106.753 275.906 L 107.716 249.242 M 93.4627 238.227 L 78.4891 228.208 M 78.4891 228.208 L 68.6598 237.83 M 219.078 225.892 L 212.996 213.554 M 212.996 213.554 L 198.014 223.564 M 202.913 233.848 L 219.078 225.892 M 165.025 238.009 L 188.049 244.024 M 188.049 244.024 L 166.021 235.023 M 161.176 218.104 L 143.394 221.011 M 143.394 221.011 L 165.025 238.009 M 107.716 249.242 L 123.426 258.066 M 123.426 258.066 L 120.794 230.681 M 104.99 222.038 L 88.6188 214.521 M 79.9524 226.308 L 93.4627 238.227 M 88.6188 214.521 L 72.8668 205.772 M 72.8668 205.772 L 79.9524 226.308 M 198.014 223.564 L 215.224 218.226 M 215.224 218.226 L 194.442 211.897 M 177.179 217.041 L 159.597 220.963 M 159.597 220.963 L 181.768 231.345 M 181.768 231.345 L 161.176 218.104" />
<path fill="none" class="c" d=" M 160.316 223.378 L 156.635 202.285 M 177.179 217.041 L 156.635 202.285 M 177.179 217.041 L 174.62 201.247 M 194.442 211.897 L 174.62 201.247 M 177.179 217.041 L 194.442 211.897 M 177.179 217.041 L 198.014 223.564 M 181.768 231.345 L 198.014 223.564 M 192.482 198.897 L 174.62 201.247 M 174.41 184.153 L 174.62 201.247 M 192.482 198.897 L 174.41 184.153 M 192.482 198.897 L 192.421 184.632 M 192.421 184.632 L 174.41 184.153 M 194.442 211.897 L 192.482 198.897 M 181.768 231.345 L 202.913 233.848 M 188.049 244.024 L 202.913 233.848 M 188.049 244.024 L 208.887 242.753 M 195.655 254.988 L 208.887 242.753 M 195.655 254.988 L 215.679 250.277 M 176.859 165.949 L 174.41 184.153 M 159.476 161.232 L 174.41 184.153 M 204.25 264.207 L 215.679 250.277 M 204.25 264.207 L 223.089 256.483 M 159.476 161.232 L 156.429 185.149 M 141.793 157.804 L 156.429 185.149 M 141.793 157.804 L 138.419 184.72 M 123.792 157.233 L 138.419 184.72 M 120.704 181.405 L 138.419 184.72 M 120.704 181.405 L 131.232 209.114 M 120.704 181.405 L 114.263 203.067 M 131.232 209.114 L 138.419 184.72 M 114.263 203.067 L 131.232 209.114 M 120.794 230.681 L 131.232 209.114 M 114.263 203.067 L 120.794 230.681 M 104.99 222.038 L 120.794 230.681 M 114.263 203.067 L 104.99 222.038 M 141.793 157.804 L 123.792 157.233 M 141.793 157.804 L 123.01 130.806 M 123.792 157.233 L 120.704 181.405 M 107.716 249.242 L 120.794 230.681 M 177.179 217.041 L 181.768 231.345 M 140.917 128.781 L 123.01 130.806 M 104.99 222.038 L 107.716 249.242 M 93.4627 238.227 L 107.716 249.242 M 140.917 128.781 L 118.037 102.457 M 192.421 184.632 L 176.859 165.949 M 194.587 169.156 L 176.859 165.949 M 192.421 184.632 L 194.587 169.156 M 104.99 222.038 L 93.4627 238.227 M 88.6188 214.521 L 93.4627 238.227 M 198.014 223.564 L 194.442 211.897 M 96.8823 198.294 L 104.99 222.038 M 96.8823 198.294 L 89.8198 212.322 M 213.495 271.736 L 223.089 256.483 M 213.495 271.736 L 230.916 261.483 M 88.6188 214.521 L 79.9524 226.308 M 156.501 182.254 L 174.62 201.247 M 156.501 182.254 L 156.985 204.927 M 135.512 98.0825 L 118.037 102.457 M 135.512 98.0825 L 108.698 72.5109 M 223.06 277.689 L 230.916 261.483 M 223.06 277.689 L 239.05 265.39 M 123.01 130.806 L 123.792 157.233 M 123.01 130.806 L 105.381 134.502 M 182.197 146.836 L 176.859 165.949 M 165.733 139.527 L 176.859 165.949 M 182.197 146.836 L 165.733 139.527 M 182.197 146.836 L 181.152 116.694 M 194.313 129.01 L 181.152 116.694 M 93.4627 238.227 L 92.6188 264.734 M 80.198 251.67 L 92.6188 264.734 M 141.793 157.804 L 140.917 128.781 M 159.648 155.425 L 140.917 128.781 M 92.6188 264.734 L 107.716 249.242 M 181.768 231.345 L 188.049 244.024 M 125.545 66.1394 L 108.698 72.5109 M 125.545 66.1394 L 95.1171 41.2724 M 102.784 179.51 L 114.263 203.067 M 102.784 179.51 L 97.7811 195.772 M 93.4627 238.227 L 80.198 251.67 M 78.4891 228.208 L 80.198 251.67 M 68.6598 237.83 L 80.198 251.67 M 68.6598 237.83 L 64.4084 260.47 M 57.1118 243.994 L 64.4084 260.47 M 57.1118 243.994 L 47.4003 264.516 M 44.8357 246.683 L 47.4003 264.516 M 44.8357 246.683 L 30.3581 263.955 M 32.62 246.086 L 30.3581 263.955 M 232.707 282.252 L 239.05 265.39 M 232.707 282.252 L 247.388 268.44 M 194.587 169.156 L 182.197 146.836 M 199.281 152.569 L 182.197 146.836 M 194.587 169.156 L 199.281 152.569 M 202.913 233.848 L 198.014 223.564 M 219.078 225.892 L 198.014 223.564 M 123.792 157.233 L 105.806 158.193 M 101.682 138.08 L 105.806 158.193 M 194.313 129.01 L 204.735 98.9474 M 213.092 114.902 L 204.735 98.9474 M 111.283 33.3406 L 95.1171 41.2724 M 111.283 33.3406 L 77.7605 9.05243 M 242.226 285.697 L 247.388 268.44 M 242.226 285.697 L 255.921 270.875 M 255.921 270.875 L 247.388 268.44 M 255.921 270.875 L 262.399 254.05 M 262.399 254.05 L 247.388 268.44 M 250.4 250.677 L 247.388 268.44 M 250.4 250.677 L 238.556 267.528 M 238.277 249.523 L 238.556 267.528 M 238.277 249.523 L 229.547 268.03 M 226.277 250.319 L 229.547 268.03 M 226.277 250.319 L 220.44 269.858 M 255.921 270.875 L 273.854 259.971 M 263.921 275.003 L 273.854 259.971 M 284.109 268.631 L 273.854 259.971 M 263.921 275.003 L 284.109 268.631 M 271.002 280.983 L 284.109 268.631 M 292.335 279.98 L 284.109 268.631 M 263.921 275.003 L 271.002 280.983 M 271.002 280.983 L 292.335 279.98 M 271.002 280.983 L 276.634 288.816 M 276.634 288.816 L 292.335 279.98 M 297.636 293.652 L 292.335 279.98 M 276.634 288.816 L 297.636 293.652 M 276.634 288.816 L 280.22 298.279 M 280.22 298.279 L 297.636 293.652 M 280.22 298.279 L 299.217 308.887 M 280.22 298.279 L 281.196 308.901 M 299.217 308.887 L 297.636 293.652 M 281.196 308.901 L 299.217 308.887 M 281.196 308.901 L 296.546 324.679 M 279.155 319.983 L 296.546 324.679 M 279.155 319.983 L 289.399 339.815 M 273.881 330.665 L 289.399 339.815 M 281.196 308.901 L 279.155 319.983 M 273.881 330.665 L 277.903 353.024 M 265.434 340.034 L 277.903 353.024 M 273.881 330.665 L 265.434 340.034 M 279.155 319.983 L 273.881 330.665 M 296.546 324.679 L 299.217 308.887 M 262.534 363.041 L 277.903 353.024 M 265.434 340.034 L 262.534 363.041 M 265.434 340.034 L 254.113 347.112 M 254.113 347.112 L 262.534 363.041 M 244.113 368.691 L 262.534 363.041 M 289.399 339.815 L 296.546 324.679 M 277.903 353.024 L 289.399 339.815 M 254.113 347.112 L 244.113 368.691 M 254.113 347.112 L 240.522 351.032 M 248.997 386.033 L 262.534 363.041 M 248.997 386.033 L 269.648 379.594 M 272.055 378.337 L 277.903 353.024 M 272.055 378.337 L 289.36 366.929 M 240.522 351.032 L 244.113 368.691 M 223.839 368.926 L 244.113 368.691 M 240.522 351.032 L 223.839 368.926 M 240.522 351.032 L 225.502 350.983 M 223.539 386.942 L 244.113 368.691 M 223.539 386.942 L 246.234 386.583 M 291.219 365.16 L 289.399 339.815 M 291.219 365.16 L 304.234 350.043 M 306.041 375.39 L 304.234 350.043 M 306.041 375.39 L 317.524 362.21 M 306.041 375.39 L 321.547 384.575 M 306.041 375.39 L 315.744 396.297 M 321.547 384.575 L 317.524 362.21 M 329.966 375.237 L 317.524 362.21 M 315.744 396.297 L 321.547 384.575 M 298.306 391.734 L 315.744 396.297 M 298.306 391.734 L 313.343 409.842 M 313.343 409.842 L 315.744 396.297 M 298.306 391.734 L 295.331 410.371 M 329.966 375.237 L 331.721 352.754 M 340.252 368.62 L 331.721 352.754 M 347.621 347.34 L 331.721 352.754 M 329.966 375.237 L 340.252 368.62 M 321.547 384.575 L 329.966 375.237 M 306.041 375.39 L 298.306 391.734 M 340.252 368.62 L 347.621 347.34 M 340.252 368.62 L 351.705 364.88 M 351.705 364.88 L 347.621 347.34 M 364.261 346.081 L 347.621 347.34 M 351.705 364.88 L 364.261 346.081 M 351.705 364.88 L 363.717 364.085 M 363.717 364.085 L 364.261 346.081 M 380.725 348.906 L 364.261 346.081 M 363.717 364.085 L 380.725 348.906 M 363.717 364.085 L 375.701 366.218 M 331.721 352.754 L 317.524 362.21 M 375.701 366.218 L 380.725 348.906 M 375.701 366.218 L 396.168 355.631 M 396.168 355.631 L 380.725 348.906 M 375.701 366.218 L 387.125 371.211 M 387.125 371.211 L 396.168 355.631 M 387.125 371.211 L 409.811 365.858 M 397.438 378.955 L 409.811 365.858 M 397.438 378.955 L 421.018 379.058 M 406.116 389.195 L 421.018 379.058 M 409.811 365.858 L 396.168 355.631 M 387.125 371.211 L 397.438 378.955 M 295.331 410.371 L 313.343 409.842 M 315.088 424.366 L 313.343 409.842 M 295.331 410.371 L 315.088 424.366 M 295.331 410.371 L 298.006 430.067 M 322.084 337.542 L 317.524 362.21 M 322.084 337.542 L 306.057 348.312 M 342.185 330.166 L 331.721 352.754 M 342.185 330.166 L 324.431 336.288 M 406.116 389.195 L 429.325 394.595 M 412.709 401.565 L 429.325 394.595 M 298.006 430.067 L 315.088 424.366 M 321.585 438.666 L 315.088 424.366 M 298.006 430.067 L 321.585 438.666 M 298.006 430.067 L 306.964 449.184 M 225.502 350.983 L 223.839 368.926 M 203.259 363.019 L 223.839 368.926 M 225.502 350.983 L 203.259 363.019 M 225.502 350.983 L 210.188 346.377 M 214.496 252.85 L 220.44 269.858 M 214.496 252.85 L 211.308 273.023 M 336.964 429.282 L 315.088 424.366 M 336.964 429.282 L 331.645 417.255 M 197.653 380.129 L 223.839 368.926 M 197.653 380.129 L 220.7 386.669 M 210.188 346.377 L 203.259 363.019 M 210.188 346.377 L 184.285 350.598 M 184.285 350.598 L 203.259 363.019 M 210.188 346.377 L 195.963 336.87 M 195.963 336.87 L 184.285 350.598 M 195.963 336.87 L 169.074 331.879 M 169.074 331.879 L 184.285 350.598 M 184.479 322.542 L 169.074 331.879 M 184.479 322.542 L 159.907 307.823 M 177.504 303.963 L 159.907 307.823 M 177.504 303.963 L 158.852 280.288 M 176.734 282.415 L 158.852 280.288 M 195.963 336.87 L 184.479 322.542 M 176.734 282.415 L 167.366 252.03 M 183.557 259.942 L 167.366 252.03 M 185.808 226.481 L 167.366 252.03 M 183.557 259.942 L 185.808 226.481 M 198.518 239.255 L 185.808 226.481 M 212.962 207.207 L 185.808 226.481 M 198.518 239.255 L 212.962 207.207 M 198.518 239.255 L 220.919 223.366 M 220.919 223.366 L 212.962 207.207 M 246.033 197.048 L 212.962 207.207 M 220.919 223.366 L 246.033 197.048 M 220.919 223.366 L 248.601 214.882 M 248.601 214.882 L 246.033 197.048 M 248.601 214.882 L 281.109 197.382 M 278.269 215.173 L 281.109 197.382 M 281.109 197.382 L 246.033 197.048 M 283.854 179.575 L 246.033 197.048 M 283.854 179.575 L 243.639 179.195 M 283.939 161.559 L 243.639 179.195 M 283.939 161.559 L 243.986 161.181 M 283.939 161.559 L 281.445 143.715 M 248.601 214.882 L 278.269 215.173 M 209.485 253.538 L 220.919 223.366 M 209.485 253.538 L 230.848 238.401 M 281.445 143.715 L 243.986 161.181 M 281.445 143.715 L 246.904 143.403 M 246.904 143.403 L 243.986 161.181 M 207.249 149.148 L 243.986 161.181 M 246.904 143.403 L 207.249 149.148 M 246.904 143.403 L 215.513 133.133 M 215.513 133.133 L 207.249 149.148 M 215.513 133.133 L 177.81 127.399 M 190.766 114.874 L 177.81 127.399 M 215.513 133.133 L 190.766 114.874 M 177.81 127.399 L 207.249 149.148 M 190.766 114.874 L 158.462 99.3724 M 174.803 91.7742 L 158.462 99.3724 M 201.221 166.117 L 243.986 161.181 M 201.221 166.117 L 238.706 178.407 M 278.269 215.173 L 314.086 207.666 M 306.349 223.932 L 314.086 207.666 M 158.462 99.3724 L 177.81 127.399 M 190.766 114.874 L 174.803 91.7742 M 204.273 102.954 L 174.803 91.7742 M 183.557 259.942 L 198.518 239.255 M 198.68 269.73 L 198.518 239.255 M 174.803 91.7742 L 150.194 69.1076 M 168.125 67.3249 L 150.194 69.1076 M 226.607 240.462 L 248.601 214.882 M 226.607 240.462 L 253.544 232.209 M 159.907 307.823 L 169.074 331.879 M 306.964 449.184 L 321.585 438.666 M 333.097 451.195 L 321.585 438.666 M 344.866 437.54 L 321.585 438.666 M 344.866 437.54 L 335.286 426.967 M 363.281 328.084 L 347.621 347.34 M 363.281 328.084 L 345.002 329.518 M 306.964 449.184 L 333.097 451.195 M 306.964 449.184 L 322.4 465.687 M 322.4 465.687 L 333.097 451.195 M 349.431 460.125 L 333.097 451.195 M 356.264 443.46 L 333.097 451.195 M 356.264 443.46 L 342.6 435.877 M 184.479 322.542 L 177.504 303.963 M 200.671 314.642 L 177.504 303.963 M 150.194 69.1076 L 158.462 99.3724 M 167.366 252.03 L 158.852 280.288 M 314.086 207.666 L 281.109 197.382 M 321.992 191.476 L 281.109 197.382 M 321.992 191.476 L 283.86 179.575 M 327.529 174.332 L 283.86 179.575 M 327.529 174.332 L 289.145 162.352 M 327.529 174.332 L 330.418 156.548 M 278.269 215.173 L 306.349 223.932 M 315.123 133.905 L 281.445 143.715 M 174.803 91.7742 L 168.125 67.3249 M 191.536 85.0826 L 168.125 67.3249 M 176.734 282.415 L 183.557 259.942 M 194.283 286.508 L 183.557 259.942 M 200.671 314.642 L 194.667 298.491 M 217.95 309.56 L 194.667 298.491 M 217.95 309.56 L 210.727 290.332 M 217.95 309.56 L 235.568 305.807 M 236.309 330.164 L 235.568 305.807 M 152.297 40.4066 L 150.194 69.1076 M 158.852 280.288 L 159.907 307.823 M 168.125 67.3249 L 152.297 40.4066 M 169.816 44.6071 L 152.297 40.4066 M 162.873 16.1759 L 152.297 40.4066 M 168.125 67.3249 L 169.816 44.6071 M 186.125 66.6829 L 169.816 44.6071 M 177.504 303.963 L 176.734 282.415 M 195.399 301.897 L 176.734 282.415 M 273.854 259.971 L 262.399 254.05 M 421.018 379.058 L 409.811 365.858 M 255.921 270.875 L 263.921 275.003 M 247.52 286.808 L 263.921 275.003 M 397.438 378.955 L 406.116 389.195 M 385.14 392.122 L 406.116 389.195 M 252.387 288.842 L 271.002 280.983 M 252.387 288.842 L 259.268 294.652 M 166.561 141.475 L 207.249 149.148 M 166.561 141.475 L 197.022 163.97 M 384.123 331.222 L 364.261 346.081 M 384.123 331.222 L 366.432 328.189 M 173.695 365.171 L 203.259 363.019 M 173.695 365.171 L 195.016 379.026 M 203.006 257.039 L 211.308 273.023 M 203.006 257.039 L 202.257 277.585 M 327.529 174.332 L 365 157.38 M 366.974 175.292 L 365 157.38 M 332.565 419.979 L 313.343 409.842 M 332.565 419.979 L 331.252 407.847 M 306.349 223.932 L 341.715 225.762 M 329.916 239.369 L 341.715 225.762 M 256.692 291.926 L 276.634 288.816 M 256.692 291.926 L 261.865 299.134 M 248.596 232.9 L 278.269 215.173 M 248.596 232.9 L 278.002 233.187 M 412.709 401.565 L 434.49 411.794 M 416.887 415.621 L 434.49 411.794 M 366.974 175.292 L 397.363 149.541 M 403.773 166.385 L 397.363 149.541 M 403.773 166.385 L 425.275 134.942 M 435.463 149.805 L 425.275 134.942 M 435.463 149.805 L 447.696 115.749 M 184.285 350.598 L 173.695 365.171 M 153.482 347.088 L 173.695 365.171 M 403.583 339.215 L 380.725 348.906 M 403.583 339.215 L 387.434 332.195 M 169.074 331.879 L 154.405 342.33 M 140.087 317.06 L 154.405 342.33 M 341.715 225.762 L 314.086 207.666 M 353.855 212.445 L 314.086 207.666 M 341.715 225.762 L 353.855 212.445 M 341.715 225.762 L 376.606 241.111 M 360.847 249.841 L 376.606 241.111 M 360.847 249.841 L 387.993 273.215 M 370.238 276.314 L 387.993 273.215 M 353.855 212.445 L 321.51 191.249 M 364.096 197.619 L 321.51 191.249 M 306.349 223.932 L 329.916 239.369 M 365 157.38 L 330.418 156.548 M 365 157.38 L 362.59 139.526 M 260.172 296.138 L 280.22 298.279 M 260.172 296.138 L 263.298 304.448 M 262.399 254.05 L 250.4 250.677 M 429.325 394.595 L 421.018 379.058 M 406.116 389.195 L 412.709 401.565 M 391.43 399.624 L 412.709 401.565 M 191.87 262.864 L 202.257 277.585 M 191.87 262.864 L 193.393 283.621 M 395.941 408.147 L 412.709 401.565 M 395.941 408.147 L 416.085 415.835 M 398.194 418.015 L 416.085 415.835 M 398.194 418.015 L 415.559 431.148 M 397.716 428.676 L 415.559 431.148 M 397.716 428.676 L 410.748 446.425 M 394.164 439.368 L 410.748 446.425 M 394.164 439.368 L 401.592 460.442 M 387.481 449.242 L 401.592 460.442 M 143.152 108.864 L 177.81 127.399 M 143.152 108.864 L 163.463 138.299 M 331.344 410.655 L 315.744 396.297 M 331.344 410.655 L 333.481 399.461 M 429.325 394.595 L 444.963 385.647 M 460.874 128.034 L 447.696 115.749 M 460.874 128.034 L 464.509 93.9221 M 159.907 307.823 L 142.623 312.901 M 137.081 282.225 L 142.623 312.901 M 32.62 246.086 L 14.2706 259.126 M 21.1303 242.456 L 14.2706 259.126 M 105.806 158.193 L 120.704 181.405 M 105.806 158.193 L 103.324 176.647 M 80.198 251.67 L 76.0861 277.218 M 65.7184 262.491 L 76.0861 277.218 M 97.2292 113.221 L 105.381 134.502 M 97.2292 113.221 L 81.2223 121.49 M 262.482 301.402 L 281.196 308.901 M 262.482 301.402 L 263.243 310.397 M 421.018 379.058 L 434.628 367.253 M 445.841 379.827 L 434.628 367.253 M 445.841 379.827 L 457.634 366.203 M 396.168 355.631 L 403.583 339.215 M 419.288 346.515 L 403.583 339.215 M 118.037 102.457 L 123.01 130.806 M 118.037 102.457 L 101.098 108.586 M 409.811 365.858 L 420.671 351.484 M 434.318 361.707 L 420.671 351.484 M 181.768 231.345 L 165.025 238.009 M 161.176 218.104 L 165.025 238.009 M 76.0861 277.218 L 92.6188 264.734 M 76.0861 277.218 L 88.3918 290.369 M 188.049 244.024 L 195.655 254.988 M 188.049 244.024 L 172.519 253.154 M 166.021 235.023 L 172.519 253.154 M 306.349 223.932 L 296.182 238.812 M 271.842 221.835 L 296.182 238.812 M 453.536 399.978 L 444.963 385.647 M 453.536 399.978 L 467.546 388.653 M 416.887 415.621 L 436.473 430.007 M 418.48 430.86 L 436.473 430.007 M 92.6188 264.734 L 106.753 275.906 M 95.6721 290.535 L 106.753 275.906 M 95.6721 290.535 L 111.802 298.559 M 329.916 239.369 L 362.199 248.702 M 347.353 258.903 L 362.199 248.702 M 434.49 411.794 L 429.325 394.595 M 434.49 411.794 L 451.467 405.769 M 329.916 239.369 L 347.353 258.903 M 329.916 239.369 L 316.085 250.908 M 298.058 228.262 L 316.085 250.908 M 388.866 131.548 L 362.59 139.526 M 388.866 131.548 L 382.989 114.517 M 397.363 149.541 L 365 157.38 M 397.363 149.541 L 390.311 132.963 M 158.852 280.288 L 140.864 279.298 M 146.446 246.307 L 140.864 279.298 M 332.809 402.076 L 321.547 384.575 M 332.809 402.076 L 337.703 392.538 M 263.234 307.512 L 279.155 319.983 M 263.234 307.512 L 261.453 316.626 M 69.4848 103.603 L 81.2223 121.49 M 69.4848 103.603 L 53.9471 112.714 M 88.6543 86.5101 L 101.098 108.586 M 88.6543 86.5101 L 74.076 97.0933 M 194.313 129.01 L 213.092 114.902 M 194.313 129.01 L 206.043 142.674 M 192.163 155.896 L 206.043 142.674 M 65.7184 262.491 L 58.6363 286.884 M 50.3754 270.872 L 58.6363 286.884 M 58.6363 286.884 L 76.0861 277.218 M 58.6363 286.884 L 68.9889 301.623 M 436.473 430.007 L 434.49 411.794 M 436.473 430.007 L 454.207 426.842 M 262.141 314.056 L 273.881 330.665 M 262.141 314.056 L 257.74 322.661 M 336.39 394.777 L 329.966 375.237 M 336.39 394.777 L 343.299 387.359 M 40.6835 294.005 L 58.6363 286.884 M 40.6835 294.005 L 49.0804 309.939 M 435.357 448.757 L 436.473 430.007 M 435.357 448.757 L 453.371 448.305" />
</svg>
