<?xml version="1.0"?>
<svg width="8597" height="6376" version="1.1" xmlns="http://www.w3.org/2000/svg" >
<defs>
<style type="text/css"><![CDATA[
.m {stroke:rgb(255,0,0);stroke-width:10.746250;}
.v {stroke:rgb(0,0,255);stroke-width:10.746250;}
.b {stroke:rgb(0,0,0);stroke-width:21.492500;fill:white}
.n {stroke:rgb(128,128,128);stroke-width:10.746250}
.t {stroke:rgb(0,128,0);stroke-width:10.746250;}
.c {stroke:rgb(128,128,128);stroke-width:10.746250;stroke-dasharray:85.970000, 85.970000;}
]]></style>
</defs>
<path fill="none" style="stroke:black;stroke-width:21.492500;" d=" M 8327.94 2223.98 L 8473.48 1745.5 M 2724.47 2759.46 L 2217.72 3139.26 M 2824.4 3136.17 L 2644.97 3790.95 M 2890.94 3723.64 L 3146.23 3385.68 M 2893.41 3725.49 L 2978.85 4294.17 M 2978.85 4294.17 L 3185.43 4101.42 M 2836.37 3832.94 L 2304.13 4164.51 M 4310.93 3219.96 L 4689.34 3131.64 M 4689.34 3131.64 L 4295.23 2747.93 M 3763.89 3029.94 L 4310.93 3219.96 M 2519.48 4779.04 L 2908.73 4390.4 M 2094.01 4782.95 L 2209.06 5342.04 M 2209.06 5342.04 L 2519.48 4779.04 M 4295.23 2747.93 L 3656.85 2671.81 M 1250.27 2851.39 L 2127.63 2971.19 M 2126.7 2440.44 L 1250.27 2851.39 M 8473.48 1745.5 L 8417.55 1214.65 M 8417.55 1214.65 L 7904.91 1936.67 M 3252.35 2774.86 L 3763.89 3029.94 M 7237.01 2178.43 L 6913.2 2364.64 M 7078.7 2653.57 L 6999.15 3103.71 M 6999.15 3103.71 L 7559.25 2727.28 M 7351.74 2455.83 L 7614.19 1967.27 M 4169.52 2721.75 L 3678.5 3082.83 M 3678.5 3082.83 L 4351.89 3126.91 M 5937.12 2813.45 L 6112.27 2898.82 M 6262.13 2491.15 L 6001.87 2490.36 M 6112.27 2898.82 L 6422.33 2695.15 M 6422.33 2695.15 L 6262.13 2491.15 M 6644.52 2638.12 L 6652.32 3009 M 6652.32 3009 L 6832.45 2748.99 M 6420.27 2135.09 L 5991.01 2549.02 M 6268.98 2574.69 L 6420.27 2135.09 M 6832.45 2748.99 L 7351.74 2455.83 M 6913.2 2364.64 L 6644.52 2638.12 M 6260.31 2805.63 L 6268.98 2574.69 M 7105.7 2188.64 L 6686.79 2390.27 M 6629.05 2647.43 L 7078.7 2653.57 M 6686.79 2390.27 L 6629.05 2647.43 M 4510.27 3168.49 L 4518.6 3625.53 M 4518.6 3625.53 L 4919.52 3421.86 M 4919.52 3421.86 L 4832.7 3120.72 M 4523.46 2795.86 L 4510.27 3168.49 M 5035.32 3238.71 L 5210.42 3498.64 M 5478.47 3347.87 L 5300.85 3061.61 M 4695.95 2319.79 L 4919.7 2563.05 M 5017.14 2337.05 L 4653.16 2060.17 M 4722.58 2667.82 L 4818.25 2277.33 M 4818.25 2277.33 L 4561.6 2556.18 M 4919.7 2563.05 L 4769.68 2268.55 M 4769.68 2268.55 L 4722.58 2667.82 M 4521.65 2656.31 L 4695.95 2319.79 M 4084.29 2580.62 L 4326.63 2477.43 M 3625.24 2763.8 L 3397.22 2923.06 M 4471.81 2168.02 L 4167.25 2147.85 M 4653.16 2060.17 L 4471.81 2168.02 M 4351.89 3126.91 L 4523.46 2795.86 M 4359.31 2502.64 L 4084.29 2580.62 M 4226.75 2907.08 L 4359.31 2502.64 M 5910.4 2854.89 L 5729.87 2928.21 M 5900.11 3328.91 L 6181.57 3101.06 M 5942.33 3156.14 L 5900.11 3328.91 M 5729.87 2928.21 L 5566.75 2988.34 M 5785.74 3240.48 L 5942.33 3156.14 M 6429.27 3365.23 L 6271.51 2905.72 M 6181.57 3101.06 L 6429.27 3365.23 M 6271.51 2905.72 L 6687.56 3156.6 M 6687.56 3156.6 L 6455.78 2883.72 M 6455.78 2883.72 L 6260.31 2805.63 M 5497.41 3157.86 L 5434.31 3308.89 M 5434.31 3308.89 L 5785.74 3240.48 M 5210.42 3498.64 L 5293.44 3748.78 M 5293.44 3748.78 L 5387.39 3537.64 M 5387.39 3537.64 L 5478.47 3347.87 M 5300.85 3061.61 L 5516.51 3320.42 M 5516.51 3320.42 L 5497.41 3157.86 M 5991.01 2549.02 L 5910.4 2854.89 M 5763.71 2801.01 L 5937.12 2813.45 M 6001.87 2490.36 L 5620 2452.85 M 3739.32 2543.41 L 3625.24 2763.8 M 4561.6 2556.18 L 4169.52 2721.75 M 4326.63 2477.43 L 4244.87 2727.81 M 4244.87 2727.81 L 4521.65 2656.31 M 5566.75 2988.34 L 5244.18 2451.99 M 5244.18 2451.99 L 5763.71 2801.01 M 5091.15 2710.27 L 4871.01 2894.4 M 4832.7 3120.72 L 5091.15 2710.27 M 5125.72 2762.16 L 5035.32 3238.71 M 4871.01 2894.4 L 5125.72 2762.16 M 4048.16 3761.94 L 4163.92 3513.32 M 3818.25 3310.78 L 4048.16 3761.94 M 4079.14 3288.8 L 3929.55 3072.56 M 3294.8 3134.37 L 3661.59 3310.4 M 7563.61 2315.71 L 7770.8 2109.34 M 7770.8 2109.34 L 8351.21 2497.24 M 8351.21 2497.24 L 8327.94 2223.98 M 7559.25 2727.28 L 7642.86 2034.21 M 7642.86 2034.21 L 7563.61 2315.71 M 3929.55 3072.56 L 3818.25 3310.78 M 3397.22 2923.06 L 3294.8 3134.37 M 3353.81 3044.34 L 3286.52 3225.77 M 3661.59 3310.4 L 3353.81 3044.34 M 4163.92 3513.32 L 4226.75 2907.08 M 7614.19 1967.27 L 7105.7 2188.64 M 2558.34 3760.79 L 2824.4 3136.17 M 3165.57 4228.88 L 2890.94 3723.64 M 3313.52 4866.89 L 3165.57 4228.88 M 2971.91 4296.57 L 3313.52 4866.89 M 3096.83 3707.69 L 2836.37 3832.94 M 2217.72 3139.26 L 1961.34 3607.45 M 2262.06 3911.57 L 2558.34 3760.79 M 2790.06 4162.47 L 2470.2 3652.35 M 2470.2 3652.35 L 2262.06 3911.57 M 2644.97 3790.95 L 2971.91 4296.57 M 2912.49 3441.08 L 2807.93 3715.64 M 2807.93 3715.64 L 3096.83 3707.69 M 1961.34 3607.45 L 1886.65 4250.53 M 2115.5 4125.48 L 2322.58 4509.89 M 2214.45 4550.76 L 2115.5 4125.48 M 4284.86 3503.01 L 4640.92 3376.06 M 4416.8 2911.46 L 4079.14 3288.8 M 3981.67 4439.28 L 3626.23 4262.08 M 3626.23 4262.08 L 3823.43 3836.47 M 3141.41 4012.78 L 3326.65 4308.66 M 3278.55 4875.53 L 3451.74 4526.54 M 3326.65 4308.66 L 3155.62 4612.98 M 3920.65 4181.03 L 4661.5 3470.89 M 4661.5 3470.89 L 4284.86 3503.01 M 1886.65 4250.53 L 2194.84 5229.41 M 2194.84 5229.41 L 2214.45 4550.76 M 2614.97 4539.45 L 2463.87 4127.43 M 2787.32 5207.21 L 2670.13 5719.02 M 2670.13 5719.02 L 3003.75 5433.89 M 3626.55 3871.2 L 4259.87 3765.95 M 4259.87 3765.95 L 3751.45 3464.99 M 3751.45 3464.99 L 3407.96 3945.71 M 3803.7 4693.61 L 4651.13 4552.27 M 4651.13 4552.27 L 3981.67 4439.28 M 3019.39 5012.45 L 2614.97 4539.45 M 2322.58 4509.89 L 3019.39 5012.45 M 3003.75 5433.89 L 3278.55 4875.53 M 3155.62 4612.98 L 2787.32 5207.21 M 3407.96 3945.71 L 3253.13 3322.65 M 3253.13 3322.65 L 3141.41 4012.78 M 3823.43 3836.47 L 3523.83 4197.4 M 3523.83 4197.4 L 3920.65 4181.03 M 3451.74 4526.54 L 3803.7 4693.61 M 4640.92 3376.06 L 4900.1 2782.8 M 4900.1 2782.8 L 4416.8 2911.46 M 2463.87 4127.43 L 2542.24 4646.61 M 2542.24 4646.61 L 2790.06 4162.47 M 3890.26 4346.87 L 3626.55 3871.2 M 3404.87 3892.6 L 3890.26 4346.87 M 3690.64 3077.23 L 3232.33 3148.81 M 3232.33 3148.81 L 3696 3135.3 M 3696 3135.3 L 3252.35 2774.86 M 4192.18 5678.25 L 4170.58 5183.27 M 3639.65 3816.66 L 3599.56 3389.68 M 3637.84 3387.81 L 3639.65 3816.66 M 4163.82 4079.73 L 3637.84 3387.81 M 3196.81 3688.95 L 3384.78 4056.28 M 3384.78 4056.28 L 3878.46 4360.72 M 3523.33 4484.96 L 3414.1 3915.33 M 3414.1 3915.33 L 3198.24 4097.61 M 3878.46 4360.72 L 3782.72 4656.74 M 3733.23 5696.64 L 4067.54 6048.7 M 4170.52 4498.23 L 4422.79 4502.12 M 4422.79 4502.12 L 4163.82 4079.73 M 4030.11 4910.6 L 4170.52 4498.23 M 4170.58 5183.27 L 4413.92 5116.63 M 4413.92 5116.63 L 4030.11 4910.6 M 3053.2 4751.12 L 3365.9 4747.05 M 3306.14 5047.51 L 2998.55 5104.01 M 2998.55 5104.01 L 3547.19 5330.35 M 3644.53 4958.65 L 3306.14 5047.51 M 3543.22 5616.84 L 3310.64 5935.67 M 3310.64 5935.67 L 3733.23 5696.64 M 3365.9 4747.05 L 3644.53 4958.65 M 3782.72 4656.74 L 3523.33 4484.96 M 3547.19 5330.35 L 2965.27 5446.96 M 3161.18 5715.8 L 3543.22 5616.84 M 3146.23 3385.68 L 2893.41 3725.49 M 3185.43 4101.42 L 3196.81 3688.95 M 2533.83 5833.26 L 3161.18 5715.8 M 2965.27 5446.96 L 2533.83 5833.26 M 3599.56 3389.68 L 4305.76 3247.48 M 4305.76 3247.48 L 3690.64 3077.23 M 4708.57 6377.37 L 4192.18 5678.25 M 4067.54 6048.7 L 4708.57 6377.37 M 3198.24 4097.61 L 2588.78 4337.4 M 2588.78 4337.4 L 3224.54 4532.8 M 3224.54 4532.8 L 3404.87 3892.6 M 2908.73 4390.4 L 3053.2 4751.12 M 7904.91 1936.67 L 8477.4 1156.12 M 8477.4 1156.12 L 7665.99 1674.51 M 7668.72 1690.47 L 8597.74 1437.41 M 8597.74 1437.41 L 7967.44 1411.96 M 7967.44 1411.96 L 7559.86 1369.05 M 2127.63 2971.19 L 2724.47 2759.46 M 2151.01 1826.7 L 2657.49 2183.53 M 2871.65 1891.79 L 2525.99 1586.69 M 2445.78 1234.37 L 2163.91 1215.66 M 2163.91 1215.66 L 2448.25 1709.3 M 2142.7 3732.23 L 2768.8 3697.34 M 3930.52 1461.15 L 3567.66 1819.59 M 3945.13 1997.1 L 4352.21 1486.31 M 4352.21 1486.31 L 3930.52 1461.15 M 2304.13 4164.51 L 2094.01 4782.95 M 3656.85 2671.81 L 4016.15 2228.28 M 4016.15 2228.28 L 3600.68 2206.76 M 3540.41 2093.47 L 3945.13 1997.1 M 3600.68 2206.76 L 3173.5 2361.33 M 6902.81 2345.27 L 7237.01 2178.43 M 7002.21 1054.1 L 6592.33 1001.89 M 6592.33 1001.89 L 6783.97 1448.26 M 6783.97 1448.26 L 6966.1 1710.98 M 7344.54 1420.24 L 7002.21 1054.1 M 4514.46 1039.65 L 4529.35 1492.55 M 4717.82 1199.11 L 4514.46 1039.65 M 6003.57 2462.98 L 6259.32 2414.68 M 6128 2160.29 L 5989.06 2161.82 M 6535.95 2236.59 L 6344.12 2514.9 M 6344.12 2514.9 L 6596.3 2575.56 M 6259.32 2414.68 L 6510.21 2188.16 M 6330.72 2011.93 L 6128 2160.29 M 6510.21 2188.16 L 7044.37 1935.3 M 6966.1 1710.98 L 6379.19 1810.23 M 6596.3 2575.56 L 6902.81 2345.27 M 7044.37 1935.3 L 6535.95 2236.59 M 5506.88 859.298 L 5287.16 1091.5 M 5528.4 1379.58 L 5506.88 859.298 M 5289.56 1584.28 L 5528.4 1379.58 M 5287.16 1091.5 L 4981.73 1469.23 M 4981.73 1469.23 L 4924.02 1935.49 M 5201.77 1790.95 L 5289.56 1584.28 M 5625.45 1901.71 L 5964.93 1750.32 M 5826.8 1486.31 L 5536.01 1606.27 M 5054.41 2060.38 L 4726.16 2189.92 M 4726.16 2189.92 L 4560.08 2352.47 M 4560.08 2352.47 L 5017.14 2337.05 M 4761.59 2257.32 L 5054.41 2060.38 M 4757.6 1880.67 L 4761.59 2257.32 M 4095.12 1937.86 L 4141.88 1654.47 M 4141.88 1654.47 L 3842.47 1883.02 M 3253.29 2743.45 L 3515.4 2650.39 M 4167.25 2147.85 L 4352.94 1905.59 M 4221.19 1679.79 L 4095.12 1937.86 M 4352.94 1905.59 L 4450.35 1718.43 M 4450.35 1718.43 L 4221.19 1679.79 M 5024.09 1476.45 L 4717.82 1199.11 M 3919.53 1922.99 L 3498.76 2083.28 M 3781.07 2095.67 L 3919.53 1922.99 M 6073.48 1813.43 L 5774.8 2012.13 M 5774.8 2012.13 L 5943.93 2033.46 M 5923.34 2225.95 L 5986.1 2349.92 M 5846.18 2110 L 5923.34 2225.95 M 6232.77 2177.92 L 6161.31 2023.16 M 6284.99 1774.61 L 5880.29 1511.17 M 5880.29 1511.17 L 6073.48 1813.43 M 6354.98 1611.6 L 6143.48 1312.92 M 6143.48 1312.92 L 6284.99 1774.61 M 6379.19 1810.23 L 6354.98 1611.6 M 6161.31 2023.16 L 5898.25 1768.71 M 5898.25 1768.71 L 5874.31 1938.84 M 5964.93 1750.32 L 5995.48 1552.57 M 5881.09 968.419 L 5826.8 1486.31 M 5995.48 1552.57 L 5881.09 968.419 M 5874.31 1938.84 L 5985 1807.44 M 5985 1807.44 L 5625.45 1901.71 M 5986.1 2349.92 L 6134.47 2552.63 M 6134.47 2552.63 L 6232.77 2177.92 M 5943.93 2033.46 L 6330.72 2011.93 M 5530.26 2218.56 L 5846.18 2110 M 5852.97 2132.24 L 5530.26 2218.56 M 5620 2452.85 L 6003.57 2462.98 M 5989.06 2161.82 L 5852.97 2132.24 M 3515.4 2650.39 L 3739.32 2543.41 M 4924.02 1935.49 L 5024.09 1476.45 M 4529.35 1492.55 L 4757.6 1880.67 M 3842.47 1883.02 L 3781.07 2095.67 M 5374.44 1762.19 L 5334.18 2053.28 M 5536.01 1606.27 L 5374.44 1762.19 M 5334.18 2053.28 L 5201.77 1790.95 M 7559.86 1369.05 L 7205.8 1124.57 M 329.499 1677.31 L 835.025 1610.7 M 558.656 1492.25 L 329.499 1677.31 M 2849.32 1575.24 L 2846.02 2111.77 M 3066.74 1946.54 L 2849.32 1575.24 M 2846.02 2111.77 L 2924.79 2615.55 M 3378.94 2778.42 L 3105.48 2668.97 M 7479.87 1714.54 L 7668.72 1690.47 M 3498.76 2083.28 L 3066.74 1946.54 M 3651.55 3001.93 L 3378.94 2778.42 M 3454.15 3129.09 L 3651.55 3001.93 M 2924.79 2615.55 L 3253.29 2743.45 M 3286.52 3225.77 L 3454.15 3129.09 M 7205.8 1124.57 L 6947.58 1114.17 M 6947.58 1114.17 L 7344.54 1420.24 M 7665.99 1674.51 L 7479.87 1714.54 M 2657.49 2183.53 L 2093.23 1927.68 M 2333.63 2824.89 L 1957.7 2835.23 M 1957.7 2835.23 L 2410.97 3041.58 M 2683.05 3156.61 L 2397.1 3082.51 M 2768.8 3697.34 L 2912.49 3441.08 M 2093.23 1927.68 L 1865.05 1861.23 M 1981.41 1660.22 L 2151.01 1826.7 M 2525.99 1586.69 L 2691.38 1041.54 M 2548.18 693.805 L 2356.76 1367.6 M 2691.38 1041.54 L 2548.18 693.805 M 2410.97 3041.58 L 2683.05 3156.61 M 2356.76 1367.6 L 2050.07 1147.07 M 2050.07 1147.07 L 1981.41 1660.22 M 2476.65 2368.96 L 2174.06 2142.85 M 2174.06 2142.85 L 2333.63 2824.89 M 1541.49 2204.96 L 2126.7 2440.44 M 1865.05 1861.23 L 1959.18 1352.13 M 491.171 1143 L 558.656 1492.25 M 1430.99 1216.93 L 1674.99 1628.07 M 1674.99 1628.07 L 1426.53 1219.61 M 1145.64 1291.04 L 1443.02 1624.56 M 1443.02 1624.56 L 1047.39 1416.85 M 835.025 1610.7 L 1171.55 2028.57 M 2999.37 1336.75 L 2710.46 1532.62 M 2988.43 1803.61 L 3173.46 1504.13 M 2710.46 1532.62 L 2304.01 1631.35 M 1426.53 1219.61 L 1121.74 360.421 M 1959.18 1352.13 L 2171.4 998.322 M 1769.43 1897.97 L 2098.59 1991.94 M 2304.01 1631.35 L 1769.43 1897.97 M 987.27 649.355 L 1145.64 1291.04 M 2131.29 271.953 L 1744.37 1090.96 M 2171.4 998.322 L 2302.92 415.598 M 2098.59 1991.94 L 2688.8 1844.42 M 3026.7 2322.09 L 2988.43 1803.61 M 2688.8 1844.42 L 2749.31 2449.77 M 561.479 968.809 L 235.446 690.347 M 235.446 690.347 L 491.171 1143 M 1121.74 360.421 L 780.552 273.714 M 780.552 273.714 L 987.27 649.355 M 3173.46 1504.13 L 3834.22 985.316 M 3834.22 985.316 L 2999.37 1336.75 M 2302.92 415.598 L 2350.1 0 M 2350.1 0 L 2131.29 271.953 M 1744.37 1090.96 L 1446.58 305.414 M 1446.58 305.414 L 1430.99 1216.93 M 3105.48 2668.97 L 3026.7 2322.09 M 1047.39 1416.85 L 561.479 968.809 M 1171.55 2028.57 L 1541.49 2204.96 M 2749.31 2449.77 L 2581.44 2748.09 M 2581.44 2748.09 L 2947.62 3032.67 M 2563.91 2772.21 L 2476.65 2368.96 M 2947.62 3032.67 L 2563.91 2772.21 M 3173.5 2361.33 L 3540.41 2093.47 M 3131.6 1377.9 L 3038.3 1761.67 M 3038.3 1761.67 L 2927.29 1382.64 M 1533.27 2494.38 L 1186.88 2360.48 M 3402.68 1534.26 L 3762.41 953.112 M 3762.41 953.112 L 3131.6 1377.9 M 2927.29 1382.64 L 2584.38 1176.63 M 2584.38 1176.63 L 2663.47 1561.73 M 2753.97 3111.31 L 2396.42 2440.1 M 2358.53 3171.77 L 2753.97 3111.31 M 0 2207.66 L 418.784 2625.18 M 667.04 2356.66 L 0 2207.66 M 2092.77 2657.43 L 2358.53 3171.77 M 2381.52 3268.67 L 2527.94 3027.1 M 2527.94 3027.1 L 1949.35 3006.86 M 418.784 2625.18 L 693.004 2850.52 M 881.412 2407.53 L 667.04 2356.66 M 693.004 2850.52 L 984.564 2881.9 M 2396.42 2440.1 L 2336.62 2228.05 M 1788.7 2736.78 L 2092.77 2657.43 M 2336.62 2228.05 L 2044.45 2127.27 M 2044.45 2127.27 L 1673.21 2117.45 M 1673.21 2117.45 L 1937.26 2429.91 M 1937.26 2429.91 L 1533.27 2494.38 M 1243.89 3140.23 L 1485.86 2873.12 M 1221.94 3510.09 L 1243.89 3140.23 M 984.564 2881.9 L 772.814 3084.76 M 1485.86 2873.12 L 1565.81 3224.55 M 1949.35 3006.86 L 1788.7 2736.78 M 772.814 3084.76 L 889.974 3419.79 M 2448.25 1709.3 L 2871.65 1891.79 M 2663.47 1561.73 L 2445.78 1234.37 M 1565.81 3224.55 L 1769.7 3533.91 M 889.974 3419.79 L 1021.34 3979.02 M 1021.34 3979.02 L 1221.94 3510.09 M 3567.66 1819.59 L 3983.53 1423.3 M 3983.53 1423.3 L 3402.68 1534.26 M 1958.91 3312.95 L 2213.56 3737.53 M 2213.56 3737.53 L 2381.52 3268.67 M 1769.7 3533.91 L 2142.7 3732.23 M 2397.1 3082.51 L 1958.91 3312.95 M 1186.88 2360.48 L 881.412 2407.53" />
<path fill="none" class="c" d=" M 8473.48 1745.5 L 7904.91 1936.67 M 7904.91 1936.67 L 8327.94 2223.98 M 7904.91 1936.67 L 7770.8 2109.34 M 7665.99 1674.51 L 7770.8 2109.34 M 7904.91 1936.67 L 7665.99 1674.51 M 7665.99 1674.51 L 7614.19 1967.27 M 7479.87 1714.54 L 7614.19 1967.27 M 7770.8 2109.34 L 8327.94 2223.98 M 7479.87 1714.54 L 7044.37 1935.3 M 6966.1 1710.98 L 7044.37 1935.3 M 6966.1 1710.98 L 6510.21 2188.16 M 6379.19 1810.23 L 6510.21 2188.16 M 6379.19 1810.23 L 6330.72 2011.93 M 6073.48 1813.43 L 6330.72 2011.93 M 6379.19 1810.23 L 6073.48 1813.43 M 6284.99 1774.61 L 6073.48 1813.43 M 6379.19 1810.23 L 6284.99 1774.61 M 7044.37 1935.3 L 7614.19 1967.27 M 7044.37 1935.3 L 7237.01 2178.43 M 7044.37 1935.3 L 6902.81 2345.27 M 7237.01 2178.43 L 7614.19 1967.27 M 7237.01 2178.43 L 7351.74 2455.83 M 6913.2 2364.64 L 7351.74 2455.83 M 7614.19 1967.27 L 7770.8 2109.34 M 7614.19 1967.27 L 7563.61 2315.71 M 7105.7 2188.64 L 7563.61 2315.71 M 7105.7 2188.64 L 7078.7 2653.57 M 6686.79 2390.27 L 7078.7 2653.57 M 6535.95 2236.59 L 6902.81 2345.27 M 6535.95 2236.59 L 6596.3 2575.56 M 7479.87 1714.54 L 6966.1 1710.98 M 7344.54 1420.24 L 6966.1 1710.98 M 7479.87 1714.54 L 7344.54 1420.24 M 6330.72 2011.93 L 6510.21 2188.16 M 6330.72 2011.93 L 6259.32 2414.68 M 6128 2160.29 L 6259.32 2414.68 M 6128 2160.29 L 6003.57 2462.98 M 5989.06 2161.82 L 6003.57 2462.98 M 5852.97 2132.24 L 6003.57 2462.98 M 5852.97 2132.24 L 5620 2452.85 M 5530.26 2218.56 L 5620 2452.85 M 5530.26 2218.56 L 5244.18 2451.99 M 5530.26 2218.56 L 5334.18 2053.28 M 5334.18 2053.28 L 5244.18 2451.99 M 5334.18 2053.28 L 5017.14 2337.05 M 5334.18 2053.28 L 5054.41 2060.38 M 5017.14 2337.05 L 5244.18 2451.99 M 5017.14 2337.05 L 4919.7 2563.05 M 5017.14 2337.05 L 4695.95 2319.79 M 5054.41 2060.38 L 5017.14 2337.05 M 4726.16 2189.92 L 5017.14 2337.05 M 4653.16 2060.17 L 4695.95 2319.79 M 4471.81 2168.02 L 4695.95 2319.79 M 5201.77 1790.95 L 5054.41 2060.38 M 4924.02 1935.49 L 5054.41 2060.38 M 5201.77 1790.95 L 4924.02 1935.49 M 5244.18 2451.99 L 5620 2452.85 M 5763.71 2801.01 L 5620 2452.85 M 5763.71 2801.01 L 6001.87 2490.36 M 5937.12 2813.45 L 6001.87 2490.36 M 6112.27 2898.82 L 6001.87 2490.36 M 6112.27 2898.82 L 6262.13 2491.15 M 4919.7 2563.05 L 5244.18 2451.99 M 5125.72 2762.16 L 5244.18 2451.99 M 4919.7 2563.05 L 5125.72 2762.16 M 4919.7 2563.05 L 4871.01 2894.4 M 4722.58 2667.82 L 4871.01 2894.4 M 4523.46 2795.86 L 4871.01 2894.4 M 4919.7 2563.05 L 4722.58 2667.82 M 4523.46 2795.86 L 4832.7 3120.72 M 4722.58 2667.82 L 4523.46 2795.86 M 4722.58 2667.82 L 4561.6 2556.18 M 4561.6 2556.18 L 4523.46 2795.86 M 4510.27 3168.49 L 4832.7 3120.72 M 4510.27 3168.49 L 4919.52 3421.86 M 5125.72 2762.16 L 5566.75 2988.34 M 5300.85 3061.61 L 5566.75 2988.34 M 5300.85 3061.61 L 5497.41 3157.86 M 5497.41 3157.86 L 5566.75 2988.34 M 5785.74 3240.48 L 5566.75 2988.34 M 5497.41 3157.86 L 5785.74 3240.48 M 5785.74 3240.48 L 5729.87 2928.21 M 5942.33 3156.14 L 5729.87 2928.21 M 5942.33 3156.14 L 5910.4 2854.89 M 6181.57 3101.06 L 5910.4 2854.89 M 6260.31 2805.63 L 5910.4 2854.89 M 6260.31 2805.63 L 5991.01 2549.02 M 6268.98 2574.69 L 5991.01 2549.02 M 6181.57 3101.06 L 6260.31 2805.63 M 6181.57 3101.06 L 6271.51 2905.72 M 6271.51 2905.72 L 6260.31 2805.63 M 5530.26 2218.56 L 5625.45 1901.71 M 5846.18 2110 L 5625.45 1901.71 M 5874.31 1938.84 L 5625.45 1901.71 M 4471.81 2168.02 L 4326.63 2477.43 M 4167.25 2147.85 L 4326.63 2477.43 M 4167.25 2147.85 L 4084.29 2580.62 M 3781.07 2095.67 L 4084.29 2580.62 M 3781.07 2095.67 L 3739.32 2543.41 M 3739.32 2543.41 L 4084.29 2580.62 M 3739.32 2543.41 L 4226.75 2907.08 M 3625.24 2763.8 L 4226.75 2907.08 M 3625.24 2763.8 L 3929.55 3072.56 M 3397.22 2923.06 L 3929.55 3072.56 M 3294.8 3134.37 L 3929.55 3072.56 M 3661.59 3310.4 L 3929.55 3072.56 M 3498.76 2083.28 L 3739.32 2543.41 M 3498.76 2083.28 L 3515.4 2650.39 M 3498.76 2083.28 L 3253.29 2743.45 M 3066.74 1946.54 L 3253.29 2743.45 M 4226.75 2907.08 L 4084.29 2580.62 M 3661.59 3310.4 L 4079.14 3288.8 M 3661.59 3310.4 L 3751.45 3464.99 M 3661.59 3310.4 L 3286.52 3225.77 M 3286.52 3225.77 L 3751.45 3464.99 M 3404.87 3892.6 L 3751.45 3464.99 M 3286.52 3225.77 L 3404.87 3892.6 M 3286.52 3225.77 L 3096.83 3707.69 M 2912.49 3441.08 L 3096.83 3707.69 M 3286.52 3225.77 L 2912.49 3441.08 M 2947.62 3032.67 L 2912.49 3441.08 M 3286.52 3225.77 L 2947.62 3032.67 M 3105.48 2668.97 L 2947.62 3032.67 M 2947.62 3032.67 L 2683.05 3156.61 M 3286.52 3225.77 L 3105.48 2668.97 M 3286.52 3225.77 L 3378.94 2778.42 M 3454.15 3129.09 L 3378.94 2778.42 M 2683.05 3156.61 L 2912.49 3441.08 M 2683.05 3156.61 L 2768.8 3697.34 M 3096.83 3707.69 L 3404.87 3892.6 M 2836.37 3832.94 L 3404.87 3892.6 M 3404.87 3892.6 L 3626.55 3871.2 M 3626.55 3871.2 L 3751.45 3464.99 M 3105.48 2668.97 L 2581.44 2748.09 M 3105.48 2668.97 L 2749.31 2449.77 M 3751.45 3464.99 L 4079.14 3288.8 M 2908.73 4390.4 L 3404.87 3892.6 M 2908.73 4390.4 L 3224.54 4532.8 M 3026.7 2322.09 L 2749.31 2449.77 M 4167.25 2147.85 L 3781.07 2095.67 M 4167.25 2147.85 L 3842.47 1883.02 M 4095.12 1937.86 L 3842.47 1883.02 M 2683.05 3156.61 L 2142.7 3732.23 M 2397.1 3082.51 L 2142.7 3732.23 M 1958.91 3312.95 L 2142.7 3732.23 M 4167.25 2147.85 L 4095.12 1937.86 M 4352.94 1905.59 L 4095.12 1937.86 M 4352.94 1905.59 L 4221.19 1679.79 M 2836.37 3832.94 L 2908.73 4390.4 M 2304.13 4164.51 L 2908.73 4390.4 M 2947.62 3032.67 L 2333.63 2824.89 M 2563.91 2772.21 L 2333.63 2824.89 M 2304.13 4164.51 L 2519.48 4779.04 M 2094.01 4782.95 L 2519.48 4779.04 M 3066.74 1946.54 L 2924.79 2615.55 M 3066.74 1946.54 L 2846.02 2111.77 M 1958.91 3312.95 L 1769.7 3533.91 M 1958.91 3312.95 L 1565.81 3224.55 M 1949.35 3006.86 L 1565.81 3224.55 M 1958.91 3312.95 L 1949.35 3006.86 M 1958.91 3312.95 L 2381.52 3268.67 M 1788.7 2736.78 L 1565.81 3224.55 M 1788.7 2736.78 L 1485.86 2873.12 M 1533.27 2494.38 L 1485.86 2873.12 M 2381.52 3268.67 L 1949.35 3006.86 M 984.564 2881.9 L 1485.86 2873.12 M 984.564 2881.9 L 1243.89 3140.23 M 772.814 3084.76 L 1243.89 3140.23 M 772.814 3084.76 L 1221.94 3510.09 M 889.974 3419.79 L 1221.94 3510.09 M 1533.27 2494.38 L 984.564 2881.9 M 1186.88 2360.48 L 984.564 2881.9 M 1186.88 2360.48 L 693.004 2850.52 M 881.412 2407.53 L 693.004 2850.52 M 667.04 2356.66 L 693.004 2850.52 M 667.04 2356.66 L 418.784 2625.18 M 5201.77 1790.95 L 4981.73 1469.23 M 5289.56 1584.28 L 4981.73 1469.23 M 5528.4 1379.58 L 4981.73 1469.23 M 1788.7 2736.78 L 1533.27 2494.38 M 1788.7 2736.78 L 1937.26 2429.91 M 2092.77 2657.43 L 1937.26 2429.91 M 2092.77 2657.43 L 2396.42 2440.1 M 2358.53 3171.77 L 2396.42 2440.1 M 5528.4 1379.58 L 5287.16 1091.5 M 2333.63 2824.89 L 2683.05 3156.61 M 2333.63 2824.89 L 2410.97 3041.58 M 5846.18 2110 L 5874.31 1938.84 M 5846.18 2110 L 6161.31 2023.16 M 5923.34 2225.95 L 6161.31 2023.16 M 5923.34 2225.95 L 6232.77 2177.92 M 5986.1 2349.92 L 6232.77 2177.92 M 6161.31 2023.16 L 5874.31 1938.84 M 5942.33 3156.14 L 6181.57 3101.06 M 2476.65 2368.96 L 2333.63 2824.89 M 5125.72 2762.16 L 5300.85 3061.61 M 5035.32 3238.71 L 5300.85 3061.61 M 5035.32 3238.71 L 5478.47 3347.87 M 5210.42 3498.64 L 5478.47 3347.87 M 5210.42 3498.64 L 5387.39 3537.64 M 7344.54 1420.24 L 6783.97 1448.26 M 7002.21 1054.1 L 6783.97 1448.26 M 6913.2 2364.64 L 6832.45 2748.99 M 6644.52 2638.12 L 6832.45 2748.99 M 3053.2 4751.12 L 3224.54 4532.8 M 3365.9 4747.05 L 3224.54 4532.8 M 3365.9 4747.05 L 3523.33 4484.96 M 3523.33 4484.96 L 3224.54 4532.8 M 3198.24 4097.61 L 3224.54 4532.8 M 3523.33 4484.96 L 3198.24 4097.61 M 3365.9 4747.05 L 3782.72 4656.74 M 3644.53 4958.65 L 3782.72 4656.74 M 3644.53 4958.65 L 4030.11 4910.6 M 3644.53 4958.65 L 3547.19 5330.35 M 3306.14 5047.51 L 3547.19 5330.35 M 3547.19 5330.35 L 4030.11 4910.6 M 3547.19 5330.35 L 3733.23 5696.64 M 3543.22 5616.84 L 3733.23 5696.64 M 3733.23 5696.64 L 4030.11 4910.6 M 3733.23 5696.64 L 4170.58 5183.27 M 3733.23 5696.64 L 4192.18 5678.25 M 4067.54 6048.7 L 4192.18 5678.25 M 4030.11 4910.6 L 3782.72 4656.74 M 4170.52 4498.23 L 3782.72 4656.74 M 4170.52 4498.23 L 3878.46 4360.72 M 4163.82 4079.73 L 3878.46 4360.72 M 4163.82 4079.73 L 3384.78 4056.28 M 3639.65 3816.66 L 3384.78 4056.28 M 3639.65 3816.66 L 3196.81 3688.95 M 3599.56 3389.68 L 3196.81 3688.95 M 3599.56 3389.68 L 3146.23 3385.68 M 3232.33 3148.81 L 3146.23 3385.68 M 3232.33 3148.81 L 2824.4 3136.17 M 3252.35 2774.86 L 2824.4 3136.17 M 3252.35 2774.86 L 2724.47 2759.46 M 3173.5 2361.33 L 2724.47 2759.46 M 3252.35 2774.86 L 3173.5 2361.33 M 3173.5 2361.33 L 2657.49 2183.53 M 2657.49 2183.53 L 2724.47 2759.46 M 3173.5 2361.33 L 2871.65 1891.79 M 3540.41 2093.47 L 2871.65 1891.79 M 3038.3 1761.67 L 2871.65 1891.79 M 3540.41 2093.47 L 3038.3 1761.67 M 2871.65 1891.79 L 2657.49 2183.53 M 2657.49 2183.53 L 2126.7 2440.44 M 2824.4 3136.17 L 3146.23 3385.68 M 2724.47 2759.46 L 2824.4 3136.17 M 2217.72 3139.26 L 2824.4 3136.17 M 2871.65 1891.79 L 2151.01 1826.7 M 2525.99 1586.69 L 2151.01 1826.7 M 2093.23 1927.68 L 2126.7 2440.44 M 2126.7 2440.44 L 2724.47 2759.46 M 2126.7 2440.44 L 2127.63 2971.19 M 3599.56 3389.68 L 3232.33 3148.81 M 3599.56 3389.68 L 3690.64 3077.23 M 3232.33 3148.81 L 3252.35 2774.86 M 3656.85 2671.81 L 3173.5 2361.33 M 3656.85 2671.81 L 3600.68 2206.76 M 2217.72 3139.26 L 2558.34 3760.79 M 1961.34 3607.45 L 2558.34 3760.79 M 1961.34 3607.45 L 2262.06 3911.57 M 3252.35 2774.86 L 3656.85 2671.81 M 3763.89 3029.94 L 3656.85 2671.81 M 3540.41 2093.47 L 3567.66 1819.59 M 3945.13 1997.1 L 3567.66 1819.59 M 3945.13 1997.1 L 3930.52 1461.15 M 3567.66 1819.59 L 3038.3 1761.67 M 3567.66 1819.59 L 3402.68 1534.26 M 2644.97 3790.95 L 3146.23 3385.68 M 2644.97 3790.95 L 2890.94 3723.64 M 1961.34 3607.45 L 2115.5 4125.48 M 2356.76 1367.6 L 2151.01 1826.7 M 2356.76 1367.6 L 1981.41 1660.22 M 2115.5 4125.48 L 2262.06 3911.57 M 2115.5 4125.48 L 2463.87 4127.43 M 3402.68 1534.26 L 3038.3 1761.67 M 3402.68 1534.26 L 3131.6 1377.9 M 3038.3 1761.67 L 2663.47 1561.73 M 2927.29 1382.64 L 2663.47 1561.73 M 2663.47 1561.73 L 2871.65 1891.79 M 2663.47 1561.73 L 2448.25 1709.3 M 2445.78 1234.37 L 2448.25 1709.3 M 1865.05 1861.23 L 2126.7 2440.44 M 1865.05 1861.23 L 1541.49 2204.96 M 1674.99 1628.07 L 1541.49 2204.96 M 1443.02 1624.56 L 1541.49 2204.96 M 1443.02 1624.56 L 1171.55 2028.57 M 1674.99 1628.07 L 1443.02 1624.56 M 1047.39 1416.85 L 1171.55 2028.57 M 1047.39 1416.85 L 835.025 1610.7 M 4170.52 4498.23 L 4163.82 4079.73 M 491.171 1143 L 835.025 1610.7 M 558.656 1492.25 L 835.025 1610.7 M 4170.58 5183.27 L 4030.11 4910.6 M 2644.97 3790.95 L 3165.57 4228.88 M 2971.91 4296.57 L 3165.57 4228.88 M 4326.63 2477.43 L 4695.95 2319.79 M 4326.63 2477.43 L 4521.65 2656.31 M 2396.42 2440.1 L 1937.26 2429.91 M 2336.62 2228.05 L 1937.26 2429.91 M 2044.45 2127.27 L 1937.26 2429.91 M 5625.45 1901.71 L 5334.18 2053.28 M 5625.45 1901.71 L 5374.44 1762.19 M 5625.45 1901.71 L 5536.01 1606.27 M 5964.93 1750.32 L 5536.01 1606.27 M 5964.93 1750.32 L 5826.8 1486.31 M 5995.48 1552.57 L 5826.8 1486.31 M 4163.82 4079.73 L 3639.65 3816.66 M 1886.65 4250.53 L 2115.5 4125.48 M 1886.65 4250.53 L 2214.45 4550.76 M 6073.48 1813.43 L 5943.93 2033.46 M 6271.51 2905.72 L 6455.78 2883.72 M 3781.07 2095.67 L 3498.76 2083.28 M 1047.39 1416.85 L 491.171 1143 M 561.479 968.809 L 491.171 1143 M 3146.23 3385.68 L 3196.81 3688.95 M 2893.41 3725.49 L 3196.81 3688.95 M 2893.41 3725.49 L 3185.43 4101.42 M 3929.55 3072.56 L 4226.75 2907.08 M 3929.55 3072.56 L 4163.92 3513.32 M 3818.25 3310.78 L 4163.92 3513.32 M 2463.87 4127.43 L 2262.06 3911.57 M 2463.87 4127.43 L 2790.06 4162.47 M 2790.06 4162.47 L 2262.06 3911.57 M 7668.72 1690.47 L 7344.54 1420.24 M 7668.72 1690.47 L 7559.86 1369.05 M 7668.72 1690.47 L 7967.44 1411.96 M 3823.43 3836.47 L 4079.14 3288.8 M 4284.86 3503.01 L 4079.14 3288.8 M 4284.86 3503.01 L 4416.8 2911.46 M 4640.92 3376.06 L 4416.8 2911.46 M 3763.89 3029.94 L 4295.23 2747.93 M 4310.93 3219.96 L 4295.23 2747.93 M 4924.02 1935.49 L 4761.59 2257.32 M 4924.02 1935.49 L 4757.6 1880.67 M 5024.09 1476.45 L 4757.6 1880.67 M 5024.09 1476.45 L 4529.35 1492.55 M 4717.82 1199.11 L 4529.35 1492.55 M 7559.86 1369.05 L 7344.54 1420.24 M 2322.58 4509.89 L 2463.87 4127.43 M 2322.58 4509.89 L 2614.97 4539.45 M 3751.45 3464.99 L 3823.43 3836.47 M 3407.96 3945.71 L 3823.43 3836.47 M 7078.7 2653.57 L 7563.61 2315.71 M 7078.7 2653.57 L 7559.25 2727.28 M 7559.25 2727.28 L 7563.61 2315.71 M 1426.53 1219.61 L 1443.02 1624.56 M 1426.53 1219.61 L 1145.64 1291.04 M 1121.74 360.421 L 1145.64 1291.04 M 1121.74 360.421 L 987.27 649.355 M 3326.65 4308.66 L 3823.43 3836.47 M 3326.65 4308.66 L 3626.23 4262.08 M 3451.74 4526.54 L 3626.23 4262.08 M 3326.65 4308.66 L 3451.74 4526.54 M 3155.62 4612.98 L 3451.74 4526.54 M 3155.62 4612.98 L 3278.55 4875.53 M 3547.19 5330.35 L 3543.22 5616.84 M 2965.27 5446.96 L 3543.22 5616.84 M 2965.27 5446.96 L 3161.18 5715.8 M 3823.43 3836.47 L 4284.86 3503.01 M 3823.43 3836.47 L 3920.65 4181.03 M 3920.65 4181.03 L 4284.86 3503.01 M 3451.74 4526.54 L 3981.67 4439.28 M 3803.7 4693.61 L 3981.67 4439.28 M 4169.52 2721.75 L 4523.46 2795.86 M 4169.52 2721.75 L 4351.89 3126.91 M 3026.7 2322.09 L 2688.8 1844.42 M 2988.43 1803.61 L 2688.8 1844.42 M 2988.43 1803.61 L 2710.46 1532.62 M 2710.46 1532.62 L 2688.8 1844.42 M 3173.46 1504.13 L 2710.46 1532.62 M 3173.46 1504.13 L 2999.37 1336.75 M 6354.98 1611.6 L 6284.99 1774.61 M 1865.05 1861.23 L 1674.99 1628.07 M 1959.18 1352.13 L 1674.99 1628.07 M 1959.18 1352.13 L 1744.37 1090.96 M 2171.4 998.322 L 1744.37 1090.96 M 1744.37 1090.96 L 1674.99 1628.07 M 1744.37 1090.96 L 1430.99 1216.93 M 4832.7 3120.72 L 4871.01 2894.4 M 7205.8 1124.57 L 7344.54 1420.24 M 2525.99 1586.69 L 2356.76 1367.6 M 2691.38 1041.54 L 2356.76 1367.6 M 2302.92 415.598 L 1744.37 1090.96 M 2302.92 415.598 L 2131.29 271.953 M 2787.32 5207.21 L 3278.55 4875.53 M 2787.32 5207.21 L 3003.75 5433.89 M 2304.01 1631.35 L 2688.8 1844.42 M 2304.01 1631.35 L 2098.59 1991.94 M 3407.96 3945.71 L 3326.65 4308.66 M 3407.96 3945.71 L 3141.41 4012.78" />
</svg>
