<?xml version="1.0"?>
<svg width="5319" height="6933" version="1.1" xmlns="http://www.w3.org/2000/svg" >
<defs>
<style type="text/css"><![CDATA[
.m {stroke:rgb(255,0,0);stroke-width:8.666250;}
.v {stroke:rgb(0,0,255);stroke-width:8.666250;}
.b {stroke:rgb(0,0,0);stroke-width:17.332500;fill:white}
.n {stroke:rgb(128,128,128);stroke-width:8.666250}
.t {stroke:rgb(0,128,0);stroke-width:8.666250;}
.c {stroke:rgb(128,128,128);stroke-width:8.666250;stroke-dasharray:53.190000, 53.190000;}
]]></style>
</defs>
<path fill="none" style="stroke:black;stroke-width:17.332500;" d=" M 3190.79 967.091 L 3613.82 1254.4 M 624.502 3862.18 L 1006.53 3939.36 M 618.845 3979.4 L 0 3700.17 M 0 3700.17 L 322.252 4258.43 M 4609.2 3750.7 L 4281.57 3195.58 M 4312.2 3448.74 L 4609.2 3750.7 M 2821 3186.32 L 2377.45 3629.59 M 2377.45 3629.59 L 3017.46 3713.02 M 1006.53 3939.36 L 618.845 3979.4 M 2807.1 4221.25 L 3239.71 4031.76 M 3017.46 3713.02 L 2807.1 4221.25 M 1103.69 6004.22 L 1473.48 5710.44 M 930.455 5451.64 L 1103.69 6004.22 M 1347.44 5654.39 L 1402.78 6201.64 M 1402.78 6201.64 L 1959.85 5875.71 M 1473.48 5710.44 L 1691.61 5345.12 M 1154.35 5152.33 L 930.455 5451.64 M 3703.43 245.069 L 3232.64 0 M 3232.64 0 L 3190.79 967.091 M 3759.37 775.916 L 3703.43 245.069 M 741.419 5115.25 L 1083.11 4963.71 M 929.646 4575.52 L 741.419 5115.25 M 1119.58 2111.98 L 1419.75 2114.24 M 3022.82 1381.3 L 3656.97 1150.53 M 3208.23 963.48 L 3676.42 602.813 M 1419.75 2114.24 L 1119.97 2129.64 M 1119.97 2129.64 L 1492.68 2540.31 M 3760.13 752.067 L 3208.23 963.48 M 3696.5 1420.72 L 3022.82 1381.3 M 2144.9 714.443 L 1853.42 484.979 M 1320.6 1338.32 L 1006.81 1140.46 M 1006.81 1140.46 L 1124.52 1434.05 M 862.325 1724.74 L 1119.58 2111.98 M 1374.23 1743.49 L 1051.59 1519.54 M 1124.52 1434.05 L 1400.76 1713.22 M 684.162 1577.55 L 862.325 1724.74 M 1051.59 1519.54 L 684.162 1577.55 M 3212.96 497.786 L 2804.18 719.217 M 2804.18 719.217 L 2758.8 978.841 M 2758.8 978.841 L 2710.37 1288.49 M 2717.12 1244.56 L 2741.59 932.104 M 2399.04 1218.18 L 2717.12 1244.56 M 2737.77 1901.32 L 2618.99 1745.54 M 2803.1 2157.76 L 3045.6 2432.02 M 3231.83 2356.66 L 3547.95 1903.02 M 2407.73 2087.59 L 2512.27 2337.29 M 2512.27 2337.29 L 2756.15 2520.83 M 2756.15 2520.83 L 2803.1 2157.76 M 2479.19 2348.68 L 2407.73 2087.59 M 2853.55 1713.53 L 3207.99 1785.18 M 2717.79 1914.7 L 2868.84 2157.39 M 2369.15 1472.04 L 2077.39 1630.52 M 2396.07 1757.3 L 2369.15 1472.04 M 2580.09 1477.48 L 2396.07 1757.3 M 2422.61 835.475 L 2144.9 714.443 M 2119.49 907.63 L 2422.61 835.475 M 2545.65 732.445 L 2646.12 725.341 M 2646.12 725.341 L 2354.16 634.6 M 2354.16 634.6 L 2423.45 336.814 M 2162.68 1076.03 L 2435.83 883.884 M 2435.83 883.884 L 2119.49 907.63 M 2116.78 697.266 L 1805.55 712.329 M 1805.55 712.329 L 2080.08 871.296 M 2333.29 1009.42 L 2194.41 743.576 M 2194.41 743.576 L 2162.68 1076.03 M 2080.08 871.296 L 2437.9 883.539 M 2627.22 791.53 L 2545.65 732.445 M 2081.86 845.887 L 2333.29 1009.42 M 2437.9 883.539 L 2081.86 845.887 M 2741.59 932.104 L 2832.08 684.566 M 2832.08 684.566 L 2627.22 791.53 M 2075.29 397.182 L 2116.78 697.266 M 2423.45 336.814 L 2146.12 88.9043 M 2146.12 88.9043 L 2075.29 397.182 M 2868.84 2157.39 L 2928.57 2499.18 M 2928.57 2499.18 L 3143.11 1930.13 M 3156.33 2088.96 L 3658.42 1728.06 M 3658.42 1728.06 L 3064.41 1858.45 M 3489.32 1567.94 L 3156.33 2088.96 M 3547.95 1903.02 L 3489.32 1567.94 M 2618.99 1745.54 L 2717.79 1914.7 M 3143.11 1930.13 L 2853.55 1713.53 M 3008.55 1992.93 L 2737.77 1901.32 M 1996.42 1679.42 L 2302.8 1551.46 M 2710.37 1288.49 L 2399.04 1218.18 M 2460.86 1790.44 L 2580.09 1477.48 M 2302.8 1551.46 L 2460.86 1790.44 M 3957.81 1337.45 L 3696.5 1420.72 M 1061.55 2402.13 L 1572.86 2409.82 M 1798.98 2224.55 L 1649.84 1905.6 M 1649.84 1905.6 L 1590.07 2191.87 M 1590.07 2191.87 L 891.994 2186.58 M 891.994 2186.58 L 1061.55 2402.13 M 3656.97 1150.53 L 3904.71 497.872 M 3904.71 497.872 L 3760.13 752.067 M 3531.05 1891.7 L 3231.83 2356.66 M 3582.88 2589.78 L 3679.72 2217.68 M 3207.99 1785.18 L 3531.05 1891.7 M 3676.42 602.813 L 3710.28 252.355 M 3710.28 252.355 L 3212.96 497.786 M 890.336 3316.82 L 182.233 3347.07 M 182.233 3347.07 L 624.502 3862.18 M 3772.23 3646.56 L 3924.45 3509.02 M 2816.72 3124.64 L 3388.28 3115.98 M 3060.35 2969.19 L 2816.72 3124.64 M 3388.28 3115.98 L 2821 3186.32 M 4524.22 3455.92 L 5161.44 3145.64 M 5161.44 3145.64 L 4706.15 2867 M 3924.45 3509.02 L 4524.22 3455.92 M 4281.57 3195.58 L 3733.58 3445.08 M 3733.58 3445.08 L 3772.23 3646.56 M 4088.34 4404.9 L 4326.48 4241.16 M 4326.48 4241.16 L 4026.82 4117.62 M 2845.49 2726.5 L 3060.35 2969.19 M 4097.28 662.247 L 4126.76 1308.98 M 4332.57 1148.83 L 4097.28 662.247 M 4706.15 2867 L 4181.29 2996.01 M 4181.29 2996.01 L 4387.89 3152.71 M 3827.42 2934.72 L 4103.9 3234.38 M 4263.94 2924.95 L 3827.42 2934.72 M 4498.49 1552.71 L 4332.57 1148.83 M 3613.82 1254.4 L 4046.86 1678.45 M 3781.68 1812.2 L 4051.53 1936.25 M 4051.53 1936.25 L 3957.81 1337.45 M 4387.89 3152.71 L 4263.94 2924.95 M 4487.16 2609.84 L 4030.25 2503.71 M 4222.03 2888.11 L 4593.93 2893.6 M 4299.92 3151.7 L 4587.99 2954.54 M 4587.99 2954.54 L 4222.03 2888.11 M 4113.67 3373.87 L 4503.14 3383.79 M 4503.14 3383.79 L 4299.92 3151.7 M 4593.93 2893.6 L 4926.76 2998.89 M 4926.76 2998.89 L 4781.68 2726.65 M 4046.86 1678.45 L 3781.68 1812.2 M 4743.99 1714.25 L 4800.75 1279.08 M 4800.75 1279.08 L 4498.49 1552.71 M 3852.37 2874.76 L 3605.81 3068.25 M 4103.9 3234.38 L 3852.37 2874.76 M 4030.25 2503.71 L 3681.3 2650.03 M 4588.04 2225.71 L 4883.56 2320.72 M 4883.56 2320.72 L 5054.96 1753.32 M 5054.96 1753.32 L 4743.99 1714.25 M 3605.81 3068.25 L 4113.67 3373.87 M 4230.12 2217.46 L 4487.16 2609.84 M 4873.36 2347.99 L 4588.04 2225.71 M 4781.68 2726.65 L 4873.36 2347.99 M 3853.88 2177.18 L 4230.12 2217.46 M 4126.76 1308.98 L 3759.37 775.916 M 3488.68 2551.36 L 3853.88 2177.18 M 3679.72 2217.68 L 3488.68 2551.36 M 3681.3 2650.03 L 3191.13 2468.05 M 5173.93 4358.82 L 4846.16 4177.68 M 4656.06 4600.8 L 5173.93 4358.82 M 322.252 4258.43 L 542.817 4380.37 M 542.817 4380.37 L 909.091 4458.4 M 4694.65 3976.27 L 4412.9 3853.18 M 4774.49 6933.69 L 4827.1 6261.33 M 4553.29 6123.09 L 4774.49 6933.69 M 3417.9 4596.46 L 3724.42 5197.2 M 3883.36 4766.25 L 3417.9 4596.46 M 4064.24 4154.59 L 4443.92 4353.98 M 4424.61 4387.08 L 4064.24 4154.59 M 3557.76 4450.29 L 4424.61 4387.08 M 4412.9 3853.18 L 4002.51 3810.26 M 3478 4057.84 L 3203.41 4227.55 M 3203.41 4227.55 L 3557.76 4450.29 M 4984.95 6064.52 L 4977.52 5741.8 M 4177.74 5023.37 L 3883.36 4766.25 M 5319.52 6316 L 4984.95 6064.52 M 4827.1 6261.33 L 5319.52 6316 M 4044.03 5552.24 L 4216.11 6168.51 M 4216.11 6168.51 L 4338.07 5799.59 M 5167.03 5505.91 L 5147.69 5229.05 M 5147.69 5229.05 L 4918.48 5441.81 M 4402.91 5455.78 L 4483.8 5153.69 M 3724.42 5197.2 L 3900.51 5304.26 M 3900.51 5304.26 L 3696.47 5333.19 M 4669.9 5788.36 L 4402.91 5455.78 M 4918.48 5441.81 L 4669.9 5788.36 M 4338.07 5799.59 L 4553.29 6123.09 M 4408.88 3738.64 L 4695.83 3628.23 M 4695.83 3628.23 L 4312.2 3448.74 M 4002.51 3810.26 L 4408.88 3738.64 M 4977.52 5741.8 L 5167.03 5505.91 M 3357.28 3780.37 L 3478 4057.84 M 4483.8 5153.69 L 4656.06 4600.8 M 4846.16 4177.68 L 4694.65 3976.27 M 4443.92 4353.98 L 3797.1 4934.54 M 3797.1 4934.54 L 4177.74 5023.37 M 3239.71 4031.76 L 3357.28 3780.37 M 3844.72 6160.25 L 4044.03 5552.24 M 3696.47 5333.19 L 3844.72 6160.25 M 1572.86 2409.82 L 1523.27 3376.54 M 1942.53 2905.22 L 1916.52 2497.63 M 1735.33 2684.23 L 1897.95 3058.87 M 1414.76 3398.58 L 890.336 3316.82 M 1585.85 3962.9 L 1414.76 3398.58 M 2195.9 3925.97 L 2017.22 3518.19 M 2608.21 4289.65 L 2833.5 4119.23 M 3641.52 4844.87 L 4088.34 4404.9 M 909.091 4458.4 L 1329.85 4444.92 M 1905.99 5025 L 1613.21 5322.12 M 1959.85 5875.71 L 2123.61 5486.29 M 1613.21 5322.12 L 1347.44 5654.39 M 1574.81 4945.82 L 1154.35 5152.33 M 1691.61 5345.12 L 1849.72 4959.12 M 1329.85 4444.92 L 929.646 4575.52 M 1083.11 4963.71 L 1537.29 4849.08 M 1713.29 2013.95 L 1374.23 1743.49 M 1492.68 2540.31 L 1775.77 2498.2 M 2424.31 2490.01 L 2872.05 2420.23 M 2872.05 2420.23 L 2557.9 2268.8 M 1476.03 865.487 L 1792.54 948.682 M 1805.65 1050.91 L 1515.73 899.095 M 1504.44 1037.59 L 1805.65 1050.91 M 1514.09 426.677 L 1710.76 701.596 M 1853.42 484.979 L 1514.09 426.677 M 1555.89 1099.36 L 1674.45 1415.9 M 1904.29 1313.68 L 1555.89 1099.36 M 1710.76 701.596 L 1302.09 684.232 M 1302.09 684.232 L 1476.03 865.487 M 1950.87 2015.18 L 1653.55 1425.99 M 1674.45 1415.9 L 1950.87 2015.18 M 1653.55 1425.99 L 1320.6 1338.32 M 1400.76 1713.22 L 1713.29 2013.95 M 2259.36 1931.35 L 2203.42 1559.79 M 2307.71 1558.72 L 2259.36 1931.35 M 1637.32 2547.61 L 1984.5 2231.07 M 1679.53 2160.13 L 1637.32 2547.61 M 2831.56 1520.12 L 2620.1 1595.63 M 2744.12 1899.95 L 2831.56 1520.12 M 2620.1 1595.63 L 2685.92 1294.05 M 2315.7 1260.86 L 2307.71 1558.72 M 2175.03 1865.53 L 1896.14 1877.94 M 2081.87 2177.99 L 2271.31 2312.6 M 1896.14 1877.94 L 1766.41 2003.52 M 1766.41 2003.52 L 2081.87 2177.99 M 3566.63 1946.04 L 3213.26 1874.76 M 3204.53 2049.75 L 3566.63 1946.04 M 3171.78 2614.72 L 3203.33 2900.19 M 3203.33 2900.19 L 3429.85 2599.25 M 3045.6 2432.02 L 2932.27 2715.44 M 2932.27 2715.44 L 3171.78 2614.72 M 2588.1 2584.58 L 2479.19 2348.68 M 2303.96 2542.68 L 2588.1 2584.58 M 2271.31 2312.6 L 2303.96 2542.68 M 2557.9 2268.8 L 2890.8 2372.72 M 3429.85 2599.25 L 3660.77 2212.71 M 3660.77 2212.71 L 3431.52 2377.92 M 1984.5 2231.07 L 1966.73 2051.39 M 1966.73 2051.39 L 2175.03 1865.53 M 2077.39 1630.52 L 1749.65 1874.76 M 1215.54 916.791 L 994.479 789.014 M 994.479 789.014 L 1195.57 1086.08 M 1495.21 648.724 L 1400.75 464.043 M 1306.04 498.3 L 827.326 561.644 M 827.326 561.644 L 1170.72 665.422 M 1396.17 1307.97 L 1509.62 1176.76 M 1195.57 1086.08 L 1163.38 1567.9 M 1163.38 1567.9 L 1286.83 1440.5 M 1400.75 464.043 L 1253.1 328.986 M 1253.1 328.986 L 1306.04 498.3 M 1286.83 1440.5 L 1396.17 1307.97 M 2203.42 1559.79 L 2179.56 1262.78 M 2179.56 1262.78 L 2074.09 1432.82 M 2464.38 1174.76 L 2315.7 1260.86 M 1515.73 899.095 L 1495.21 648.724 M 1170.72 665.422 L 1215.54 916.791 M 2548.86 1023.27 L 2464.38 1174.76 M 2685.92 1294.05 L 2882.88 1028.22 M 2074.09 1432.82 L 1904.29 1313.68 M 2860.42 778.336 L 2548.86 1023.27 M 2882.88 1028.22 L 2860.42 778.336 M 1509.62 1176.76 L 1878.06 1322.73 M 1792.54 948.682 L 1504.44 1037.59 M 3350.75 1935.56 L 3008.55 1992.93 M 3431.52 2377.92 L 3706.67 2313.58 M 3706.67 2313.58 L 3350.75 1935.56 M 3064.41 1858.45 L 2589.37 2068 M 3213.26 1874.76 L 2744.12 1899.95 M 2890.8 2372.72 L 3204.53 2049.75 M 1300.93 1774.64 L 1589.76 1720.51 M 1589.76 1720.51 L 1996.42 1679.42 M 1878.06 1322.73 L 1684.32 1482.14 M 1684.32 1482.14 L 1353.64 1492.34 M 1353.64 1492.34 L 1101.82 1670.85 M 1101.82 1670.85 L 1300.93 1774.64 M 1749.65 1874.76 L 1679.53 2160.13 M 2098.38 2469.03 L 2039.43 2682.36 M 2074.64 2689.08 L 2098.38 2469.03 M 3114.4 2162.83 L 2950.2 2645.56 M 3178.8 2450.25 L 3114.4 2162.83 M 2574.56 2721.19 L 3082.44 2675.97 M 3172.78 2790.99 L 3253.93 3074.13 M 1916.52 2497.63 L 1798.98 2224.55 M 2589.37 2068 L 2424.31 2490.01 M 3082.44 2675.97 L 3403.74 2516.61 M 3403.74 2516.61 L 3172.78 2790.99 M 1775.77 2498.2 L 1490.13 2516.1 M 1490.13 2516.1 L 1735.33 2684.23 M 2070.42 3548.1 L 2295.36 3932.32 M 1523.27 3376.54 L 1585.85 3962.9 M 2833.5 4119.23 L 3328.85 4170.82 M 3666.62 4055.77 L 3403.05 4189.13 M 4026.82 4117.62 L 3666.62 4055.77 M 2017.22 3518.19 L 2156.82 3325.85 M 2243.51 3385.24 L 2070.42 3548.1 M 2831.58 2316.82 L 2197.17 2183.86 M 2197.17 2183.86 L 2583.71 2471.47 M 3623.38 4193.42 L 3186.65 3989.95 M 3328.85 4170.82 L 3623.38 4193.42 M 3638.05 2975.92 L 3582.88 2589.78 M 2521 3771.92 L 2753.53 3474.23 M 2871.41 3630.86 L 2521 3771.92 M 2583.71 2471.47 L 2845.49 2726.5 M 3191.13 2468.05 L 2831.58 2316.82 M 2474.74 3192.84 L 1896.53 3065.16 M 1896.53 3065.16 L 2243.51 3385.24 M 2156.82 3325.85 L 1942.53 2905.22 M 2883.4 2944.71 L 2812.2 2663.76 M 2812.2 2663.76 L 2478.43 2960.87 M 2039.43 2682.36 L 2149.8 3156.42 M 2149.8 3156.42 L 2571.52 3008.71 M 2571.52 3008.71 L 2574.56 2721.19 M 4403.5 2985.21 L 4367.1 2638.07 M 3997.03 2755.31 L 4173.79 3059.75 M 4613.86 3061.62 L 4828.02 2677.43 M 4828.02 2677.43 L 4516.29 2654.89 M 4367.1 2638.07 L 4102.41 2471.87 M 2950.2 2645.56 L 3029.93 2921.82 M 3029.93 2921.82 L 3521.82 2544.44 M 2912.02 2656.3 L 2883.4 2944.71 M 3109.46 3682.88 L 3012.52 3256.8 M 2753.53 3474.23 L 3109.46 3682.88 M 3331.3 1968.38 L 3540.11 2239.62 M 4319.49 3887.11 L 4613.86 3061.62 M 3919.66 2071.78 L 3218.27 1546.28 M 3218.27 1546.28 L 3331.3 1968.38 M 4102.41 2471.87 L 3919.66 2071.78 M 3569.25 2726.2 L 3997.03 2755.31 M 3795.03 2951.12 L 3992.87 2659.94 M 3992.87 2659.94 L 3569.25 2726.2 M 4173.79 3059.75 L 4319.49 3887.11 M 4516.29 2654.89 L 4403.5 2985.21 M 3012.52 3256.8 L 3795.03 2951.12 M 3521.82 2544.44 L 2912.02 2656.3 M 1897.95 3058.87 L 2474.74 3192.84 M 2478.43 2960.87 L 2074.64 2689.08 M 3356.28 1950.86 L 3178.8 2450.25 M 3540.11 2239.62 L 3356.28 1950.86 M 3637.68 3439.68 L 3638.05 2975.92 M 3253.93 3074.13 L 3637.68 3439.68 M 3261.29 3765.82 L 2871.41 3630.86 M 3186.65 3989.95 L 3683.19 3573.3 M 3683.19 3573.3 L 3261.29 3765.82 M 1537.29 4849.08 L 1943.26 4404.77 M 1943.26 4404.77 L 1840.68 4219.89 M 1849.72 4959.12 L 2126.3 4779.86 M 1880.68 4427.51 L 1574.81 4945.82 M 3518.03 5484.28 L 3222.96 5258.78 M 2268.69 4501.2 L 2608.21 4289.65 M 2650.17 4380.8 L 2268.69 4501.2 M 2724.97 5109.61 L 2991.69 4848.28 M 2930.6 4346.7 L 2650.17 4380.8 M 2611.66 5591 L 2882.79 5702.73 M 2788.27 4741.61 L 2724.97 5109.61 M 3058.8 4794.18 L 2948.84 4471.47 M 2948.84 4471.47 L 2788.27 4741.61 M 2916.53 5218.45 L 3195.22 5084.82 M 3195.22 5084.82 L 3466.24 4830.92 M 3466.24 4830.92 L 3058.8 4794.18 M 3695.4 5788.49 L 3923.91 5535.47 M 3923.91 5535.47 L 3518.03 5484.28 M 2882.79 5702.73 L 3366.5 5834.61 M 3366.5 5834.61 L 2980.96 6155.12 M 2142.35 5659.83 L 2611.66 5591 M 2942.71 6445.86 L 3344.89 6194.38 M 2980.96 6155.12 L 2942.71 6445.86 M 3774.04 6092.74 L 3695.4 5788.49 M 3344.89 6194.38 L 3774.04 6092.74 M 2411.47 5297.92 L 2067.45 5296.98 M 1840.68 4219.89 L 1880.68 4427.51 M 2229.32 4184.77 L 2195.9 3925.97 M 2295.36 3932.32 L 2229.32 4184.77 M 2991.69 4848.28 L 3226.49 4651.67 M 1809.9 5432.2 L 1705.47 5720.09 M 1705.47 5720.09 L 2142.35 5659.83 M 2123.61 5486.29 L 2411.47 5297.92 M 2126.3 4779.86 L 1905.99 5025 M 3403.05 4189.13 L 2930.6 4346.7 M 2067.45 5296.98 L 1794.36 4974.67 M 1794.36 4974.67 L 1809.9 5432.2 M 3226.49 4651.67 L 3641.52 4844.87 M 3222.96 5258.78 L 2916.53 5218.45" />
<path fill="none" class="c" d=" M 3759.37 775.916 L 3190.79 967.091 M 3703.43 245.069 L 3190.79 967.091 M 3613.82 1254.4 L 3759.37 775.916 M 3613.82 1254.4 L 4126.76 1308.98 M 4046.86 1678.45 L 4126.76 1308.98 M 4046.86 1678.45 L 4588.04 2225.71 M 4046.86 1678.45 L 4230.12 2217.46 M 4230.12 2217.46 L 4588.04 2225.71 M 4487.16 2609.84 L 4588.04 2225.71 M 4781.68 2726.65 L 4588.04 2225.71 M 4487.16 2609.84 L 4781.68 2726.65 M 4593.93 2893.6 L 4781.68 2726.65 M 4487.16 2609.84 L 4593.93 2893.6 M 4030.25 2503.71 L 4593.93 2893.6 M 4030.25 2503.71 L 4222.03 2888.11 M 4588.04 2225.71 L 4126.76 1308.98 M 4498.49 1552.71 L 4126.76 1308.98 M 3681.3 2650.03 L 4222.03 2888.11 M 3681.3 2650.03 L 3605.81 3068.25 M 3388.28 3115.98 L 3605.81 3068.25 M 3388.28 3115.98 L 3924.45 3509.02 M 3924.45 3509.02 L 3605.81 3068.25 M 3924.45 3509.02 L 4103.9 3234.38 M 3388.28 3115.98 L 3772.23 3646.56 M 4103.9 3234.38 L 3605.81 3068.25 M 3681.3 2650.03 L 3388.28 3115.98 M 3191.13 2468.05 L 3388.28 3115.98 M 3191.13 2468.05 L 3060.35 2969.19 M 3924.45 3509.02 L 4387.89 3152.71 M 4524.22 3455.92 L 4387.89 3152.71 M 4524.22 3455.92 L 4706.15 2867 M 4706.15 2867 L 4387.89 3152.71 M 4387.89 3152.71 L 4103.9 3234.38 M 4263.94 2924.95 L 4103.9 3234.38 M 4588.04 2225.71 L 4498.49 1552.71 M 4883.56 2320.72 L 4498.49 1552.71 M 4743.99 1714.25 L 4498.49 1552.71 M 4883.56 2320.72 L 4743.99 1714.25 M 3357.28 3780.37 L 3772.23 3646.56 M 3478 4057.84 L 3772.23 3646.56 M 4002.51 3810.26 L 3772.23 3646.56 M 3478 4057.84 L 4002.51 3810.26 M 3557.76 4450.29 L 4002.51 3810.26 M 3478 4057.84 L 3557.76 4450.29 M 3557.76 4450.29 L 4064.24 4154.59 M 3191.13 2468.05 L 2845.49 2726.5 M 2831.58 2316.82 L 2845.49 2726.5 M 4064.24 4154.59 L 4002.51 3810.26 M 4064.24 4154.59 L 4412.9 3853.18 M 3388.28 3115.98 L 3357.28 3780.37 M 4312.2 3448.74 L 3772.23 3646.56 M 4281.57 3195.58 L 3772.23 3646.56 M 4312.2 3448.74 L 4281.57 3195.58 M 3060.35 2969.19 L 3388.28 3115.98 M 3605.81 3068.25 L 4222.03 2888.11 M 4299.92 3151.7 L 4222.03 2888.11 M 3605.81 3068.25 L 4299.92 3151.7 M 4113.67 3373.87 L 4299.92 3151.7 M 3017.46 3713.02 L 3357.28 3780.37 M 3017.46 3713.02 L 3239.71 4031.76 M 4002.51 3810.26 L 4312.2 3448.74 M 4408.88 3738.64 L 4312.2 3448.74 M 3781.68 1812.2 L 4230.12 2217.46 M 3781.68 1812.2 L 3853.88 2177.18 M 3781.68 1812.2 L 3679.72 2217.68 M 3781.68 1812.2 L 3531.05 1891.7 M 3781.68 1812.2 L 3696.5 1420.72 M 3696.5 1420.72 L 3531.05 1891.7 M 3781.68 1812.2 L 3957.81 1337.45 M 3531.05 1891.7 L 3679.72 2217.68 M 3403.74 2516.61 L 3679.72 2217.68 M 3531.05 1891.7 L 3403.74 2516.61 M 3231.83 2356.66 L 3403.74 2516.61 M 3231.83 2356.66 L 3082.44 2675.97 M 2424.31 2490.01 L 3082.44 2675.97 M 2424.31 2490.01 L 2574.56 2721.19 M 2039.43 2682.36 L 2574.56 2721.19 M 2039.43 2682.36 L 2571.52 3008.71 M 2424.31 2490.01 L 2039.43 2682.36 M 2424.31 2490.01 L 2098.38 2469.03 M 2557.9 2268.8 L 2098.38 2469.03 M 2557.9 2268.8 L 2259.36 1931.35 M 2259.36 1931.35 L 2098.38 2469.03 M 2259.36 1931.35 L 1950.87 2015.18 M 2424.31 2490.01 L 2557.9 2268.8 M 2744.12 1899.95 L 2259.36 1931.35 M 2744.12 1899.95 L 2307.71 1558.72 M 2620.1 1595.63 L 2307.71 1558.72 M 2620.1 1595.63 L 2315.7 1260.86 M 2685.92 1294.05 L 2315.7 1260.86 M 2685.92 1294.05 L 2464.38 1174.76 M 1950.87 2015.18 L 2098.38 2469.03 M 1950.87 2015.18 L 1775.77 2498.2 M 1775.77 2498.2 L 2098.38 2469.03 M 1735.33 2684.23 L 2098.38 2469.03 M 1735.33 2684.23 L 2074.64 2689.08 M 1775.77 2498.2 L 1735.33 2684.23 M 1713.29 2013.95 L 1775.77 2498.2 M 1713.29 2013.95 L 1492.68 2540.31 M 1897.95 3058.87 L 2074.64 2689.08 M 1897.95 3058.87 L 2478.43 2960.87 M 1950.87 2015.18 L 1713.29 2013.95 M 2474.74 3192.84 L 2478.43 2960.87 M 2883.4 2944.71 L 2478.43 2960.87 M 2474.74 3192.84 L 2883.4 2944.71 M 2474.74 3192.84 L 3012.52 3256.8 M 2474.74 3192.84 L 2753.53 3474.23 M 2474.74 3192.84 L 2243.51 3385.24 M 2243.51 3385.24 L 2753.53 3474.23 M 2753.53 3474.23 L 3012.52 3256.8 M 3012.52 3256.8 L 2883.4 2944.71 M 3795.03 2951.12 L 2883.4 2944.71 M 3795.03 2951.12 L 2912.02 2656.3 M 3569.25 2726.2 L 2912.02 2656.3 M 3795.03 2951.12 L 3569.25 2726.2 M 3569.25 2726.2 L 3521.82 2544.44 M 3997.03 2755.31 L 3521.82 2544.44 M 3997.03 2755.31 L 4102.41 2471.87 M 3997.03 2755.31 L 4367.1 2638.07 M 4102.41 2471.87 L 3521.82 2544.44 M 3540.11 2239.62 L 3521.82 2544.44 M 3178.8 2450.25 L 3521.82 2544.44 M 2950.2 2645.56 L 3521.82 2544.44 M 3540.11 2239.62 L 3178.8 2450.25 M 3178.8 2450.25 L 2950.2 2645.56 M 2203.42 1559.79 L 1950.87 2015.18 M 2203.42 1559.79 L 2074.09 1432.82 M 2074.09 1432.82 L 1950.87 2015.18 M 2243.51 3385.24 L 2521 3771.92 M 2070.42 3548.1 L 2521 3771.92 M 2295.36 3932.32 L 2521 3771.92 M 2833.5 4119.23 L 2521 3771.92 M 2295.36 3932.32 L 2833.5 4119.23 M 2295.36 3932.32 L 2608.21 4289.65 M 2229.32 4184.77 L 2608.21 4289.65 M 2229.32 4184.77 L 2268.69 4501.2 M 1880.68 4427.51 L 2268.69 4501.2 M 1880.68 4427.51 L 2126.3 4779.86 M 2126.3 4779.86 L 2268.69 4501.2 M 2229.32 4184.77 L 1880.68 4427.51 M 2229.32 4184.77 L 1840.68 4219.89 M 2126.3 4779.86 L 2724.97 5109.61 M 2724.97 5109.61 L 2268.69 4501.2 M 2724.97 5109.61 L 2650.17 4380.8 M 2195.9 3925.97 L 1840.68 4219.89 M 2991.69 4848.28 L 2650.17 4380.8 M 2991.69 4848.28 L 2930.6 4346.7 M 3226.49 4651.67 L 2930.6 4346.7 M 2411.47 5297.92 L 2724.97 5109.61 M 2411.47 5297.92 L 2611.66 5591 M 2067.45 5296.98 L 2611.66 5591 M 2611.66 5591 L 2724.97 5109.61 M 2916.53 5218.45 L 2724.97 5109.61 M 3058.8 4794.18 L 2724.97 5109.61 M 3058.8 4794.18 L 2788.27 4741.61 M 2916.53 5218.45 L 3058.8 4794.18 M 3195.22 5084.82 L 3058.8 4794.18 M 2067.45 5296.98 L 2142.35 5659.83 M 1809.9 5432.2 L 2142.35 5659.83 M 2067.45 5296.98 L 1809.9 5432.2 M 2611.66 5591 L 2916.53 5218.45 M 2611.66 5591 L 3222.96 5258.78 M 2882.79 5702.73 L 3222.96 5258.78 M 2882.79 5702.73 L 3518.03 5484.28 M 2017.22 3518.19 L 1840.68 4219.89 M 2017.22 3518.19 L 1585.85 3962.9 M 2017.22 3518.19 L 1523.27 3376.54 M 2156.82 3325.85 L 1523.27 3376.54 M 1942.53 2905.22 L 1523.27 3376.54 M 1585.85 3962.9 L 1840.68 4219.89 M 1585.85 3962.9 L 1329.85 4444.92 M 1329.85 4444.92 L 1840.68 4219.89 M 1329.85 4444.92 L 1537.29 4849.08 M 1537.29 4849.08 L 1840.68 4219.89 M 2126.3 4779.86 L 2411.47 5297.92 M 1905.99 5025 L 2411.47 5297.92 M 1880.68 4427.51 L 1849.72 4959.12 M 1574.81 4945.82 L 1849.72 4959.12 M 3366.5 5834.61 L 3518.03 5484.28 M 3695.4 5788.49 L 3518.03 5484.28 M 3366.5 5834.61 L 3695.4 5788.49 M 3344.89 6194.38 L 3695.4 5788.49 M 3366.5 5834.61 L 3344.89 6194.38 M 2980.96 6155.12 L 3344.89 6194.38 M 2074.09 1432.82 L 1674.45 1415.9 M 1904.29 1313.68 L 1674.45 1415.9 M 1905.99 5025 L 2123.61 5486.29 M 1613.21 5322.12 L 2123.61 5486.29 M 3231.83 2356.66 L 2424.31 2490.01 M 3231.83 2356.66 L 2589.37 2068 M 3156.33 2088.96 L 2589.37 2068 M 4102.41 2471.87 L 3540.11 2239.62 M 3919.66 2071.78 L 3540.11 2239.62 M 3919.66 2071.78 L 3331.3 1968.38 M 1419.75 2114.24 L 1492.68 2540.31 M 3696.5 1420.72 L 3207.99 1785.18 M 3022.82 1381.3 L 3207.99 1785.18 M 3022.82 1381.3 L 2853.55 1713.53 M 2710.37 1288.49 L 2853.55 1713.53 M 2710.37 1288.49 L 2580.09 1477.48 M 2580.09 1477.48 L 2853.55 1713.53 M 2710.37 1288.49 L 2302.8 1551.46 M 2399.04 1218.18 L 2302.8 1551.46 M 2162.68 1076.03 L 2302.8 1551.46 M 3022.82 1381.3 L 2710.37 1288.49 M 3022.82 1381.3 L 2758.8 978.841 M 2618.99 1745.54 L 2853.55 1713.53 M 2162.68 1076.03 L 1996.42 1679.42 M 1878.06 1322.73 L 1996.42 1679.42 M 2302.8 1551.46 L 2580.09 1477.48 M 2399.04 1218.18 L 2162.68 1076.03 M 2333.29 1009.42 L 2162.68 1076.03 M 2399.04 1218.18 L 2333.29 1009.42 M 2437.9 883.539 L 2333.29 1009.42 M 2399.04 1218.18 L 2437.9 883.539 M 2717.12 1244.56 L 2437.9 883.539 M 2580.09 1477.48 L 2618.99 1745.54 M 2396.07 1757.3 L 2618.99 1745.54 M 2396.07 1757.3 L 2407.73 2087.59 M 2407.73 2087.59 L 2618.99 1745.54 M 2407.73 2087.59 L 2737.77 1901.32 M 2741.59 932.104 L 2437.9 883.539 M 2741.59 932.104 L 2627.22 791.53 M 2175.03 1865.53 L 2407.73 2087.59 M 2175.03 1865.53 L 2271.31 2312.6 M 2175.03 1865.53 L 2081.87 2177.99 M 2271.31 2312.6 L 2407.73 2087.59 M 1896.14 1877.94 L 2081.87 2177.99 M 2407.73 2087.59 L 2803.1 2157.76 M 2512.27 2337.29 L 2803.1 2157.76 M 2627.22 791.53 L 2437.9 883.539 M 2545.65 732.445 L 2437.9 883.539 M 2162.68 1076.03 L 1878.06 1322.73 M 1792.54 948.682 L 1878.06 1322.73 M 2717.79 1914.7 L 2853.55 1713.53 M 2717.79 1914.7 L 3143.11 1930.13 M 2868.84 2157.39 L 3143.11 1930.13 M 3208.23 963.48 L 2758.8 978.841 M 3208.23 963.48 L 2804.18 719.217 M 2396.07 1757.3 L 2175.03 1865.53 M 2396.07 1757.3 L 2077.39 1630.52 M 4173.79 3059.75 L 4367.1 2638.07 M 4173.79 3059.75 L 4403.5 2985.21 M 4319.49 3887.11 L 4403.5 2985.21 M 4613.86 3061.62 L 4403.5 2985.21 M 4613.86 3061.62 L 4516.29 2654.89 M 2557.9 2268.8 L 2744.12 1899.95 M 2890.8 2372.72 L 2744.12 1899.95 M 2545.65 732.445 L 2080.08 871.296 M 2354.16 634.6 L 2080.08 871.296 M 2354.16 634.6 L 2116.78 697.266 M 2116.78 697.266 L 2080.08 871.296 M 3403.74 2516.61 L 3582.88 2589.78 M 3172.78 2790.99 L 3582.88 2589.78 M 3679.72 2217.68 L 3853.88 2177.18 M 1613.21 5322.12 L 1959.85 5875.71 M 1347.44 5654.39 L 1959.85 5875.71 M 1713.29 2013.95 L 1419.75 2114.24 M 3156.33 2088.96 L 3064.41 1858.45 M 1006.53 3939.36 L 1329.85 4444.92 M 1006.53 3939.36 L 909.091 4458.4 M 2685.92 1294.05 L 2548.86 1023.27 M 2882.88 1028.22 L 2548.86 1023.27 M 1374.23 1743.49 L 1419.75 2114.24 M 1374.23 1743.49 L 1119.58 2111.98 M 1051.59 1519.54 L 1119.58 2111.98 M 1051.59 1519.54 L 862.325 1724.74 M 2744.12 1899.95 L 2620.1 1595.63 M 1574.81 4945.82 L 1691.61 5345.12 M 1154.35 5152.33 L 1691.61 5345.12 M 1154.35 5152.33 L 1473.48 5710.44 M 930.455 5451.64 L 1473.48 5710.44 M 2271.31 2312.6 L 2479.19 2348.68 M 2303.96 2542.68 L 2479.19 2348.68 M 3186.65 3989.95 L 2521 3771.92 M 3186.65 3989.95 L 2871.41 3630.86 M 1329.85 4444.92 L 1083.11 4963.71 M 929.646 4575.52 L 1083.11 4963.71 M 2803.1 2157.76 L 2737.77 1901.32 M 2803.1 2157.76 L 3008.55 1992.93 M 3045.6 2432.02 L 3008.55 1992.93 M 3045.6 2432.02 L 3431.52 2377.92 M 3045.6 2432.02 L 3429.85 2599.25 M 3045.6 2432.02 L 3171.78 2614.72 M 3429.85 2599.25 L 3431.52 2377.92 M 3171.78 2614.72 L 3429.85 2599.25 M 2831.58 2316.82 L 2583.71 2471.47 M 2077.39 1630.52 L 2175.03 1865.53 M 1749.65 1874.76 L 2175.03 1865.53 M 1749.65 1874.76 L 1966.73 2051.39 M 1792.54 948.682 L 1509.62 1176.76 M 1504.44 1037.59 L 1509.62 1176.76 M 1504.44 1037.59 L 1195.57 1086.08 M 1195.57 1086.08 L 1509.62 1176.76 M 1195.57 1086.08 L 1396.17 1307.97 M 1215.54 916.791 L 1195.57 1086.08 M 1195.57 1086.08 L 1286.83 1440.5 M 1504.44 1037.59 L 1215.54 916.791 M 1515.73 899.095 L 1215.54 916.791 M 1495.21 648.724 L 1215.54 916.791 M 1495.21 648.724 L 1170.72 665.422 M 1400.75 464.043 L 1170.72 665.422 M 1400.75 464.043 L 1306.04 498.3 M 1306.04 498.3 L 1170.72 665.422 M 1504.44 1037.59 L 1515.73 899.095 M 1684.32 1482.14 L 1996.42 1679.42 M 1684.32 1482.14 L 1589.76 1720.51 M 1353.64 1492.34 L 1589.76 1720.51 M 1353.64 1492.34 L 1300.93 1774.64 M 4443.92 4353.98 L 4412.9 3853.18 M 4443.92 4353.98 L 4694.65 3976.27 M 4443.92 4353.98 L 4846.16 4177.68 M 4656.06 4600.8 L 4846.16 4177.68 M 4443.92 4353.98 L 4656.06 4600.8 M 4443.92 4353.98 L 4177.74 5023.37 M 4177.74 5023.37 L 4656.06 4600.8 M 4177.74 5023.37 L 4483.8 5153.69 M 3900.51 5304.26 L 4483.8 5153.69 M 4177.74 5023.37 L 3900.51 5304.26 M 4044.03 5552.24 L 4483.8 5153.69 M 4044.03 5552.24 L 4402.91 5455.78 M 4177.74 5023.37 L 3724.42 5197.2 M 3883.36 4766.25 L 3724.42 5197.2 M 3900.51 5304.26 L 4044.03 5552.24 M 3696.47 5333.19 L 4044.03 5552.24 M 1585.85 3962.9 L 1006.53 3939.36 M 1414.76 3398.58 L 1006.53 3939.36 M 3022.82 1381.3 L 3208.23 963.48 M 3656.97 1150.53 L 3208.23 963.48 M 1916.52 2497.63 L 1523.27 3376.54 M 1916.52 2497.63 L 1572.86 2409.82 M 1590.07 2191.87 L 1572.86 2409.82 M 1590.07 2191.87 L 1061.55 2402.13 M 4044.03 5552.24 L 4338.07 5799.59 M 3231.83 2356.66 L 3156.33 2088.96 M 3547.95 1903.02 L 3156.33 2088.96 M 1653.55 1425.99 L 1713.29 2013.95 M 1653.55 1425.99 L 1400.76 1713.22 M 618.845 3979.4 L 909.091 4458.4 M 618.845 3979.4 L 542.817 4380.37 M 618.845 3979.4 L 322.252 4258.43 M 3226.49 4651.67 L 3403.05 4189.13 M 3641.52 4844.87 L 3403.05 4189.13 M 3641.52 4844.87 L 3666.62 4055.77 M 4088.34 4404.9 L 3666.62 4055.77 M 4088.34 4404.9 L 4026.82 4117.62 M 3253.93 3074.13 L 3582.88 2589.78 M 3253.93 3074.13 L 3638.05 2975.92 M 4338.07 5799.59 L 4402.91 5455.78 M 4338.07 5799.59 L 4669.9 5788.36 M 4553.29 6123.09 L 4669.9 5788.36 M 4984.95 6064.52 L 4669.9 5788.36 M 4553.29 6123.09 L 4984.95 6064.52 M 4553.29 6123.09 L 4827.1 6261.33 M 4827.1 6261.33 L 4984.95 6064.52 M 4977.52 5741.8 L 4669.9 5788.36 M 1916.52 2497.63 L 1590.07 2191.87 M 1798.98 2224.55 L 1590.07 2191.87 M 3388.28 3115.98 L 3017.46 3713.02 M 2821 3186.32 L 3017.46 3713.02 M 1679.53 2160.13 L 1966.73 2051.39 M 1679.53 2160.13 L 1984.5 2231.07 M 2545.65 732.445 L 2354.16 634.6 M 4977.52 5741.8 L 4918.48 5441.81 M 5167.03 5505.91 L 4918.48 5441.81 M 3656.97 1150.53 L 3760.13 752.067 M 3431.52 2377.92 L 3008.55 1992.93 M 3431.52 2377.92 L 3350.75 1935.56 M 4332.57 1148.83 L 4126.76 1308.98 M 2162.68 1076.03 L 1792.54 948.682 M 2162.68 1076.03 L 2119.49 907.63 M 2119.49 907.63 L 1792.54 948.682 M 2119.49 907.63 L 2144.9 714.443 M 2144.9 714.443 L 1792.54 948.682 M 1710.76 701.596 L 1792.54 948.682 M 1710.76 701.596 L 1476.03 865.487 M 890.336 3316.82 L 1006.53 3939.36 M 890.336 3316.82 L 624.502 3862.18 M 3204.53 2049.75 L 2744.12 1899.95 M 3204.53 2049.75 L 3213.26 1874.76 M 3186.65 3989.95 L 3261.29 3765.82 M 2833.5 4119.23 L 3186.65 3989.95 M 3328.85 4170.82 L 3186.65 3989.95 M 2354.16 634.6 L 2075.29 397.182 M 2423.45 336.814 L 2075.29 397.182 M 2144.9 714.443 L 1710.76 701.596 M 1853.42 484.979 L 1710.76 701.596 M 1320.6 1338.32 L 1400.76 1713.22 M 1320.6 1338.32 L 1124.52 1434.05 M 3208.23 963.48 L 3212.96 497.786 M 3676.42 602.813 L 3212.96 497.786" />
</svg>
