<?xml version="1.0"?>
<svg width="7523" height="7059" version="1.1" xmlns="http://www.w3.org/2000/svg" >
<defs>
<style type="text/css"><![CDATA[
.m {stroke:rgb(255,0,0);stroke-width:9.403750;}
.v {stroke:rgb(0,0,255);stroke-width:9.403750;}
.b {stroke:rgb(0,0,0);stroke-width:18.807500;fill:white}
.n {stroke:rgb(128,128,128);stroke-width:9.403750}
.t {stroke:rgb(0,128,0);stroke-width:9.403750;}
.c {stroke:rgb(128,128,128);stroke-width:9.403750;stroke-dasharray:75.230000, 75.230000;}
]]></style>
</defs>
<path fill="none" style="stroke:black;stroke-width:18.807500;" d=" M 4864.94 3185.37 L 4296.37 3376.54 M 5655.71 1316.45 L 5703.69 912.068 M 5224.9 1747.76 L 5234.52 1271.84 M 6904.11 3121.65 L 7253.52 2600.94 M 7253.52 2600.94 L 6609.47 2642.92 M 6253.37 1019.5 L 5934.84 598.267 M 6717.52 2103.59 L 6192.11 1810.69 M 6609.47 2642.92 L 7237.76 2495.23 M 7069.25 1864.18 L 6663.23 1462.98 M 6334.07 1640.11 L 6717.52 2103.59 M 6663.23 1462.98 L 6334.07 1640.11 M 1748.91 4333.41 L 2228.33 4561.13 M 2234.85 3593.16 L 1673.63 3804.96 M 6250.13 1591.1 L 6524.3 1337.05 M 6524.3 1337.05 L 6253.37 1019.5 M 3256.87 3770.26 L 3676.6 3926.66 M 1627.05 5194.86 L 1560.44 4713.28 M 2013.2 4998.93 L 1929.14 4531.21 M 4009.85 3483.36 L 3605.1 3635.12 M 1498.48 4708.48 L 1640.44 5173.47 M 1106.34 4765.61 L 1017.59 5200.96 M 2443.46 2363.02 L 2530.48 2045.2 M 2361.68 1947.88 L 2183.88 2344.16 M 1855.59 3555.18 L 1451.87 3715.37 M 1651.83 3960.46 L 1810.41 3810.59 M 1929.14 4531.21 L 2058.94 4102.5 M 1810.41 3810.59 L 1683.28 3987.92 M 1683.28 3987.92 L 1351.18 4155.49 M 1565.81 4241.16 L 1498.48 4708.48 M 1560.44 4713.28 L 1565.81 4241.16 M 1319.09 4333.85 L 1106.34 4765.61 M 4433.19 3869.11 L 4863.99 4083.8 M 4749.86 3791.91 L 4412.07 3496.85 M 3629.13 1810.81 L 3188.3 1728.12 M 3289.57 1934.12 L 3629.13 1810.81 M 3212.12 1685.64 L 3323.3 1476.63 M 3323.3 1476.63 L 2971.91 1560.46 M 5047.65 3677.05 L 4749.86 3791.91 M 3276.42 2026.01 L 3321.1 2268.03 M 3777.57 2295.75 L 3597.64 2103.77 M 3325.15 1808.16 L 3276.42 2026.01 M 3771.73 1741.91 L 3507.17 1735.74 M 4188.43 3043.17 L 3879.03 2847.48 M 4226.49 3253.72 L 4335.9 3509.43 M 4108.73 1884.94 L 3771.73 1741.91 M 3800.83 2270.95 L 3866.26 2070.36 M 3597.64 2103.77 L 3800.83 2270.95 M 4069.79 3613.47 L 4433.19 3869.11 M 4037.15 3258.78 L 4069.79 3613.47 M 2814.27 1800.28 L 2862.45 2128.8 M 3116.71 2118.16 L 3091.32 1873.36 M 3091.32 1873.36 L 3212.12 1685.64 M 2567.08 1492.33 L 2579.66 1737.51 M 2389.14 1582.67 L 2179.79 1631.81 M 2179.79 1631.81 L 2107.72 1702.18 M 2107.72 1702.18 L 2361.68 1947.88 M 2530.48 2045.2 L 2678.19 2136.9 M 2702.16 1325.01 L 2567.08 1492.33 M 2742.44 1809.17 L 2827.91 1461.49 M 2827.91 1461.49 L 2702.16 1325.01 M 5127.34 4178.13 L 5158.49 3995.19 M 5028.18 4160.5 L 5127.34 4178.13 M 2854.52 2087.38 L 3012.43 2044.31 M 3012.43 2044.31 L 2742.44 1809.17 M 1351.18 4155.49 L 1319.09 4333.85 M 4863.99 4083.8 L 5028.18 4160.5 M 5158.49 3995.19 L 5197.79 3836.3 M 5197.79 3836.3 L 5047.65 3677.05 M 2579.66 1737.51 L 2389.14 1582.67 M 2678.19 2136.9 L 2899.44 2301.58 M 2899.44 2301.58 L 2854.52 2087.38 M 1285.9 4027.33 L 1651.83 3960.46 M 1451.87 3715.37 L 1285.9 4027.33 M 2735.39 2102.25 L 2567.35 2057.68 M 2567.35 2057.68 L 2443.46 2363.02 M 4489.44 2694.08 L 4140.79 2766.96 M 4034 3097.09 L 4226.49 3253.72 M 4590.83 3018.79 L 4489.44 2694.08 M 3328.54 1571.45 L 3325.15 1808.16 M 3507.17 1735.74 L 3328.54 1571.45 M 4412.07 3496.85 L 4322.74 3271.19 M 4322.74 3271.19 L 4188.43 3043.17 M 3180.69 2542.06 L 3218.68 2212.22 M 2811.62 2471.1 L 3180.69 2542.06 M 2974.88 1965.44 L 2735.39 2102.25 M 3218.68 2212.22 L 3289.57 1934.12 M 3188.3 1728.12 L 2974.88 1965.44 M 2971.91 1560.46 L 2814.27 1800.28 M 1640.44 5173.47 L 1394.02 5489.36 M 4833.03 2916.44 L 4590.83 3018.79 M 4162.26 3549.21 L 4719.4 3663.85 M 4521.88 3652.79 L 4769.02 3329.62 M 4137.64 3811.45 L 4216.16 3529.75 M 4216.16 3529.75 L 4009.85 3483.36 M 1871.59 5321.06 L 2301.22 4948.28 M 2301.22 4948.28 L 2013.2 4998.93 M 1464.88 5561.22 L 1627.05 5194.86 M 1215.61 5477.56 L 1464.88 5561.22 M 4608.19 4279.57 L 4256.47 4075.09 M 1017.59 5200.96 L 1215.61 5477.56 M 3676.6 3926.66 L 4137.64 3811.45 M 5321.4 440.975 L 5050.08 1095.74 M 5050.08 1095.74 L 4943.07 1767.56 M 5881.81 2854.15 L 5759.08 3018.55 M 5561.37 3625.95 L 5237.36 3155.03 M 5296.94 3509.34 L 5561.37 3625.95 M 6361.16 3300.42 L 6904.11 3121.65 M 1103.79 4039.91 L 1748.91 4333.41 M 1673.63 3804.96 L 1250.65 3741.66 M 1250.65 3741.66 L 680.762 3611.44 M 680.762 3611.44 L 504.935 3717.14 M 504.935 3717.14 L 1103.79 4039.91 M 5490.68 3723.78 L 5296.94 3509.34 M 5854.07 3057.11 L 5291.53 3216.11 M 5585.56 3245.6 L 5854.07 3057.11 M 5237.36 3155.03 L 4807.35 3678.25 M 5291.53 3216.11 L 4864.94 3185.37 M 5636.16 3322.71 L 5322.16 3473.6 M 5232.33 3718.43 L 5676.73 3728.41 M 1844.5 5836.17 L 1871.59 5321.06 M 5322.16 3473.6 L 5585.56 3245.6 M 470.02 6018.67 L 170.519 6065.75 M 906.331 5846.43 L 220.945 5845.81 M 220.945 5845.81 L 470.02 6018.67 M 5677.98 3861.12 L 5317.04 3278.48 M 5350.53 3982.12 L 5677.98 3861.12 M 5339.24 3707.49 L 5350.53 3982.12 M 295.977 6283.42 L 388.067 6577.84 M 170.519 6065.75 L 0 6370.36 M 0 6370.36 L 295.977 6283.42 M 1394.02 5489.36 L 906.331 5846.43 M 1471.28 5776.14 L 953.728 6345.79 M 1620.98 6220.4 L 1844.5 5836.17 M 5952.51 3626.87 L 6156.97 3389.33 M 5280.47 4616.49 L 4725.12 4414.85 M 4938.68 3273.18 L 5339.24 3707.49 M 825.757 6195.26 L 1471.28 5776.14 M 953.728 6345.79 L 874.65 6645.97 M 874.65 6645.97 L 1620.98 6220.4 M 5676.73 3728.41 L 6523.3 3874.85 M 6523.3 3874.85 L 6168.67 3399.92 M 6168.67 3399.92 L 5952.51 3626.87 M 388.067 6577.84 L 989.238 6934.69 M 989.238 6934.69 L 648.22 6449.9 M 4677.58 4837.17 L 5375.7 4874.33 M 5375.7 4874.33 L 5280.47 4616.49 M 648.22 6449.9 L 825.757 6195.26 M 5317.04 3278.48 L 4833.03 2916.44 M 4719.4 3663.85 L 5232.33 3718.43 M 4769.02 3329.62 L 4938.68 3273.18 M 4725.12 4414.85 L 4608.19 4279.57 M 4223.94 4265.84 L 4463.7 4899.24 M 4463.7 4899.24 L 4677.58 4837.17 M 5759.08 3018.55 L 5636.16 3322.71 M 6156.97 3389.33 L 6361.16 3300.42 M 5949.26 1238.04 L 5936.22 1677.03 M 5936.22 1677.03 L 6250.13 1591.1 M 5703.69 912.068 L 5710.66 1319.23 M 5883.05 1708.68 L 5655.71 1316.45 M 4090.96 3217.25 L 4418.78 2627.87 M 4648.83 2766.93 L 5314 2878.16 M 5314 2878.16 L 5062.29 2493.95 M 5420.43 1514.38 L 5535.94 1960.55 M 5535.94 1960.55 L 5628.43 2539.7 M 5307.64 1961.25 L 5420.43 1514.38 M 5062.29 2493.95 L 5307.64 1961.25 M 5059.61 1714.56 L 4771.89 2218.17 M 4976.99 2272.11 L 5224.9 1747.76 M 4943.07 1767.56 L 4976.99 2272.11 M 5628.43 2539.7 L 5916.3 2897.62 M 4644.26 2514.67 L 4648.83 2766.93 M 4472.83 2132.4 L 4227.41 2388.16 M 4418.78 2627.87 L 4644.26 2514.67 M 4513.76 1802.91 L 4494.73 1419.14 M 4494.73 1419.14 L 4160.52 1964.76 M 6046.23 2505.18 L 6263.03 2642.59 M 6329.75 2373.2 L 5741.84 2291.99 M 5741.84 2291.99 L 6046.23 2505.18 M 4804.14 1551.28 L 4513.76 1802.91 M 4843.15 1920.85 L 4804.14 1551.28 M 6098.68 2801.64 L 6000.33 2419.45 M 5916.3 2897.62 L 6098.68 2801.64 M 3836.5 2894.71 L 3888.96 3176.38 M 3888.96 3176.38 L 4090.96 3217.25 M 4771.89 2218.17 L 4843.15 1920.85 M 5907.74 2803.08 L 6158.61 2941.48 M 6158.61 2941.48 L 6329.75 2373.2 M 6000.33 2419.45 L 5907.74 2803.08 M 4160.52 1964.76 L 4472.83 2132.4 M 5234.52 1271.84 L 5059.61 1714.56 M 6395.29 2422.61 L 6090.91 2393.72 M 6263.03 2642.59 L 6395.29 2422.61 M 6090.91 2393.72 L 5881.81 2854.15 M 5710.66 1319.23 L 5991.4 1675.2 M 5991.4 1675.2 L 5949.26 1238.04 M 6192.11 1810.69 L 5883.05 1708.68 M 4227.41 2388.16 L 3836.5 2894.71 M 2582.07 3665.59 L 2234.85 3593.16 M 2228.33 4561.13 L 2626.2 4071.62 M 2626.2 4071.62 L 2904.66 3770.91 M 5616.77 0 L 5321.4 440.975 M 5934.84 598.267 L 5616.77 0 M 3788.02 5636.08 L 3795.19 6313.6 M 3795.19 6313.6 L 4268.23 5978.33 M 4629.58 5958.2 L 4645.38 5497.42 M 5585.81 4879.07 L 5206.52 5304.13 M 5985.78 4108.62 L 5490.68 3723.78 M 4268.23 5978.33 L 3866.21 6396.13 M 3866.21 6396.13 L 4189.88 6813.42 M 7508.8 2171.19 L 7436.46 1666.3 M 7237.76 2495.23 L 7508.8 2171.19 M 6776.52 1374.15 L 7069.25 1864.18 M 7232.49 1481.5 L 6776.52 1374.15 M 7436.46 1666.3 L 7232.49 1481.5 M 4189.88 6813.42 L 4526.56 7060.18 M 4526.56 7060.18 L 4458.98 6489.69 M 5484.78 6464.43 L 5851.13 6906.93 M 5851.13 6906.93 L 5938.72 6446.76 M 3605.1 3635.12 L 3435.83 3375.17 M 3067.9 3073.44 L 2803.04 3480.65 M 3871.33 3154.41 L 3357.56 3150.85 M 3435.83 3375.17 L 3628.47 3618.3 M 3628.47 3618.3 L 4005.65 3407.14 M 2803.04 3480.65 L 2685.66 3777.99 M 2967.94 4207.28 L 3137.58 3931.32 M 2685.66 3777.99 L 2967.94 4207.28 M 3137.58 3931.32 L 3252.04 3443.32 M 3383.3 3665.92 L 3534.48 3238.74 M 2183.88 2344.16 L 2245.62 2623.71 M 2245.62 2623.71 L 2380.31 2657.84 M 2145.07 3729.7 L 2261.76 3506.87 M 2061.04 3355.81 L 1855.59 3555.18 M 3357.56 3150.85 L 2770.65 3250.1 M 2058.94 4102.5 L 2145.07 3729.7 M 2901.67 3628.03 L 3256.87 3770.26 M 2787.92 3773.74 L 3000.55 3535.03 M 2750.74 3254.33 L 2787.92 3773.74 M 3294.47 3148.27 L 2983.31 3042.54 M 3000.55 3535.03 L 3294.47 3148.27 M 3274.56 3135.32 L 3375.96 2676.58 M 3085.82 2794.3 L 2978.94 2991.77 M 2978.94 2991.77 L 3274.56 3135.32 M 2983.31 3042.54 L 2798.64 2795.21 M 3257.92 2539.95 L 3596.91 2441.93 M 3567.99 2371.49 L 3257.92 2539.95 M 3375.96 2676.58 L 3567.99 2371.49 M 3596.91 2441.93 L 3328.37 2682.44 M 3879.03 2847.48 L 3706.87 2707.26 M 4130.71 3613.7 L 4093.06 3338.12 M 4123.57 2106.48 L 4108.73 1884.94 M 3866.26 2070.36 L 4123.57 2106.48 M 3706.87 2707.26 L 3853.36 2492.66 M 3853.36 2492.66 L 3777.57 2295.75 M 3523.54 3007.14 L 4037.15 3258.78 M 3604.19 2964.9 L 3463.37 2794.13 M 3321.1 2268.03 L 2978.72 2520.65 M 2978.72 2520.65 L 3116.71 2118.16 M 2770.65 3250.1 L 2676.45 3214.48 M 2464.94 3253.3 L 2722.18 3451.8 M 1946.77 3129.52 L 2247.32 3119.74 M 1961.71 2991.37 L 1946.77 3129.52 M 2380.31 2657.84 L 2271.75 2951.04 M 2271.75 2951.04 L 1961.71 2991.37 M 2771.57 3181.39 L 2625.59 3044.53 M 2676.45 3214.48 L 2771.57 3181.39 M 2625.59 3044.53 L 2563.35 2884.39 M 2530.98 3053.12 L 2569.57 3249.46 M 2876.01 3759.77 L 2750.74 3254.33 M 2569.57 3249.46 L 2876.01 3759.77 M 2563.35 2884.39 L 2530.98 3053.12 M 2247.32 3119.74 L 2061.04 3355.81 M 2261.76 3506.87 L 2464.94 3253.3 M 2726.89 2472.24 L 2504.28 2721.3 M 2722.18 3451.8 L 2901.67 3628.03 M 2504.28 2721.3 L 2838.33 2720.57 M 4140.79 2766.96 L 3604.19 2964.9 M 4093.06 3338.12 L 4034 3097.09 M 3328.37 2682.44 L 3067.9 3073.44 M 3463.37 2794.13 L 3523.54 3007.14 M 2862.45 2128.8 L 2726.89 2472.24 M 2838.33 2720.57 L 3174.67 2568.25 M 3174.67 2568.25 L 2811.62 2471.1 M 2798.64 2795.21 L 3021.01 3009.28 M 3021.01 3009.28 L 3085.82 2794.3 M 3312.5 3633.79 L 2992.63 3567.82 M 4296.37 3376.54 L 4057.45 3114.38 M 2904.66 3770.91 L 3429.24 3883.57 M 3679.72 4049.91 L 4223.94 4265.84 M 4005.65 3407.14 L 4162.26 3549.21 M 2992.63 3567.82 L 2675.89 3499.94 M 2675.89 3499.94 L 2582.07 3665.59 M 3534.48 3238.74 L 3312.5 3633.79 M 4335.9 3509.43 L 4216.7 3841.19 M 4216.7 3841.19 L 4521.88 3652.79 M 3938.49 3909.21 L 4130.71 3613.7 M 4256.47 4075.09 L 3938.49 3909.21 M 3210.08 3942.81 L 3383.3 3665.92 M 3252.04 3443.32 L 3210.08 3942.81 M 4057.45 3114.38 L 3871.33 3154.41 M 4645.38 5497.42 L 4706.93 5227.51 M 4221.73 5360.52 L 3788.02 5636.08 M 5637.53 4849.88 L 5367.26 4431.56 M 5214.04 3822.69 L 5200.27 4187.9 M 3725.33 5493.29 L 4221.73 5360.52 M 4242.44 5123.76 L 3725.33 5493.29 M 5121.72 4663.08 L 5146.86 4181.93 M 5562.77 5311.06 L 5829.18 5386.35 M 5829.18 5386.35 L 5637.53 4849.88 M 5315.44 4655.73 L 5562.77 5311.06 M 5200.27 4187.9 L 5315.44 4655.73 M 4807.35 3678.25 L 4501.71 4177.64 M 4682.22 4850.58 L 4242.44 5123.76 M 4706.93 5227.51 L 5121.72 4663.08 M 5146.86 4181.93 L 5214.04 3822.69 M 2031.35 4407.21 L 2330.25 4373.37 M 1402.63 4314.2 L 2031.35 4407.21 M 1917.1 3949.18 L 1402.63 4314.2 M 2330.25 4373.37 L 2031.74 4410.47 M 2031.74 4410.47 L 2412.97 4760.75 M 3683.12 4405.61 L 3679.72 4049.91 M 2808.19 4385.17 L 2458.61 4180.11 M 3185.4 4035.95 L 2781.12 3845.63 M 2781.12 3845.63 L 2954.96 4211.74 M 2833.71 3760.3 L 3185.4 4035.95 M 3429.24 3883.57 L 3173.58 3411.86 M 2412.97 4760.75 L 2748.37 4717.58 M 3557.94 5123.87 L 3894.55 5216.23 M 2954.96 4211.74 L 3572.06 4882.78 M 4798.83 6130.91 L 5094.07 5966.01 M 5094.07 5966.01 L 4783.68 5694.21 M 4783.68 5694.21 L 4641.25 5382.93 M 4024.34 5540.25 L 4548.56 6278.95 M 4548.56 6278.95 L 4233.67 5461.06 M 4233.67 5461.06 L 4798.83 6130.91 M 4641.25 5382.93 L 4145.63 5030.12 M 4145.63 5030.12 L 4566.49 4590.81 M 4102.64 4440.98 L 3919.93 4828.86 M 4289.2 4462.9 L 4102.64 4440.98 M 3919.93 4828.86 L 3582.55 4564.26 M 2748.37 4717.58 L 3557.94 5123.87 M 3894.55 5216.23 L 4024.34 5540.25 M 3572.06 4882.78 L 2808.19 4385.17 M 4501.71 4177.64 L 4289.2 4462.9 M 3582.55 4564.26 L 3683.12 4405.61 M 2458.61 4180.11 L 1917.1 3949.18 M 3173.58 3411.86 L 2841.51 3171.65 M 2841.51 3171.65 L 2833.71 3760.3 M 4566.49 4590.81 L 4902.34 4524.59 M 4902.34 4524.59 L 4880.75 4061.34 M 4932.06 4522.25 L 4682.22 4850.58 M 4880.75 4061.34 L 4932.06 4522.25 M 4458.98 6489.69 L 4629.58 5958.2 M 5496.15 5906.35 L 5484.78 6464.43 M 5938.72 6446.76 L 5707.05 5891.3 M 6335.54 5869.66 L 6121.34 5619.16 M 6358.65 6143.92 L 6335.54 5869.66 M 5804.49 5909.14 L 6358.65 6143.92 M 5826.32 5514.79 L 5804.49 5909.14 M 5707.05 5891.3 L 5826.32 5514.79 M 7070 4657.39 L 6837.79 4148.59 M 6121.34 5619.16 L 6369.19 4982.2 M 5656.62 5152.54 L 5507.46 5516.29 M 6009.01 3405.38 L 6518.6 3705.43 M 6692.14 3383.53 L 6009.01 3405.38 M 6369.19 4982.2 L 6074.93 4752.31 M 6912.42 3379.39 L 6692.14 3383.53 M 6840.3 3855.35 L 7130.49 3813.11 M 7130.49 3813.11 L 7196.54 3257.74 M 7346.8 5112.13 L 7523.76 4783.31 M 7107.01 4976.31 L 7346.8 5112.13 M 7523.76 4783.31 L 7376.71 4619.24 M 6380.49 4825.76 L 6225.08 5098.9 M 6225.08 5098.9 L 6496.56 5146.32 M 7376.71 4619.24 L 7070 4657.39 M 6732.35 4812.01 L 7107.01 4976.31 M 6496.56 5146.32 L 6732.35 4812.01 M 6471.79 4154 L 6494.21 4513.72 M 6222.24 3880.14 L 6471.79 4154 M 6837.79 4148.59 L 6840.3 3855.35 M 6494.21 4513.72 L 6186.72 4325.69 M 6074.93 4752.31 L 6380.49 4825.76 M 5507.46 5516.29 L 5496.15 5906.35 M 5206.52 5304.13 L 5166.32 5763.43 M 5166.32 5763.43 L 5414.24 5462.08 M 5414.24 5462.08 L 5656.62 5152.54 M 6186.72 4325.69 L 5822.87 4255.8 M 5822.87 4255.8 L 5849.06 4545.52 M 6026.41 3409.19 L 6222.24 3880.14 M 6257.93 3174.61 L 6026.41 3409.19 M 6518.6 3705.43 L 6257.93 3174.61 M 5367.26 4431.56 L 5585.81 4879.07 M 5849.06 4545.52 L 6136.85 4503.13 M 6136.85 4503.13 L 5985.78 4108.62 M 7196.54 3257.74 L 6912.42 3379.39" />
<path fill="none" class="c" d=" M 4296.37 3376.54 L 4719.4 3663.85 M 4719.4 3663.85 L 4864.94 3185.37 M 4296.37 3376.54 L 4162.26 3549.21 M 5232.33 3718.43 L 4864.94 3185.37 M 4057.45 3114.38 L 4162.26 3549.21 M 5322.16 3473.6 L 4864.94 3185.37 M 5232.33 3718.43 L 5322.16 3473.6 M 4057.45 3114.38 L 4005.65 3407.14 M 5322.16 3473.6 L 5291.53 3216.11 M 5676.73 3728.41 L 5322.16 3473.6 M 3871.33 3154.41 L 4005.65 3407.14 M 5676.73 3728.41 L 5636.16 3322.71 M 3871.33 3154.41 L 3435.83 3375.17 M 3435.83 3375.17 L 4005.65 3407.14 M 5952.51 3626.87 L 5636.16 3322.71 M 3357.56 3150.85 L 3435.83 3375.17 M 5676.73 3728.41 L 5952.51 3626.87 M 5585.56 3245.6 L 5291.53 3216.11 M 6156.97 3389.33 L 5636.16 3322.71 M 2901.67 3628.03 L 3435.83 3375.17 M 6523.3 3874.85 L 5952.51 3626.87 M 6156.97 3389.33 L 5759.08 3018.55 M 3256.87 3770.26 L 3435.83 3375.17 M 3357.56 3150.85 L 2901.67 3628.03 M 6361.16 3300.42 L 5759.08 3018.55 M 3256.87 3770.26 L 3605.1 3635.12 M 6361.16 3300.42 L 5881.81 2854.15 M 3676.6 3926.66 L 3605.1 3635.12 M 6361.16 3300.42 L 6263.03 2642.59 M 6263.03 2642.59 L 5881.81 2854.15 M 3676.6 3926.66 L 4009.85 3483.36 M 6361.16 3300.42 L 6609.47 2642.92 M 6609.47 2642.92 L 6263.03 2642.59 M 4137.64 3811.45 L 4009.85 3483.36 M 6904.11 3121.65 L 6609.47 2642.92 M 6329.75 2373.2 L 6263.03 2642.59 M 6609.47 2642.92 L 6329.75 2373.2 M 6263.03 2642.59 L 6090.91 2393.72 M 2770.65 3250.1 L 2901.67 3628.03 M 6329.75 2373.2 L 6046.23 2505.18 M 6717.52 2103.59 L 6329.75 2373.2 M 6609.47 2642.92 L 6717.52 2103.59 M 2770.65 3250.1 L 2722.18 3451.8 M 6192.11 1810.69 L 6329.75 2373.2 M 7237.76 2495.23 L 6717.52 2103.59 M 2770.65 3250.1 L 2464.94 3253.3 M 6192.11 1810.69 L 6000.33 2419.45 M 7237.76 2495.23 L 7069.25 1864.18 M 2676.45 3214.48 L 2464.94 3253.3 M 5883.05 1708.68 L 6000.33 2419.45 M 7508.8 2171.19 L 7069.25 1864.18 M 2271.75 2951.04 L 2464.94 3253.3 M 2676.45 3214.48 L 2271.75 2951.04 M 5883.05 1708.68 L 5628.43 2539.7 M 2625.59 3044.53 L 2271.75 2951.04 M 5883.05 1708.68 L 5535.94 1960.55 M 2563.35 2884.39 L 2271.75 2951.04 M 5883.05 1708.68 L 5420.43 1514.38 M 2563.35 2884.39 L 2504.28 2721.3 M 2504.28 2721.3 L 2271.75 2951.04 M 5655.71 1316.45 L 5420.43 1514.38 M 2798.64 2795.21 L 2504.28 2721.3 M 2563.35 2884.39 L 2798.64 2795.21 M 5234.52 1271.84 L 5420.43 1514.38 M 2798.64 2795.21 L 2726.89 2472.24 M 2530.98 3053.12 L 2798.64 2795.21 M 5059.61 1714.56 L 5420.43 1514.38 M 2798.64 2795.21 L 2978.72 2520.65 M 2978.72 2520.65 L 2726.89 2472.24 M 2530.98 3053.12 L 2983.31 3042.54 M 5059.61 1714.56 L 5307.64 1961.25 M 2798.64 2795.21 L 3085.82 2794.3 M 3085.82 2794.3 L 2978.72 2520.65 M 2978.72 2520.65 L 2862.45 2128.8 M 2750.74 3254.33 L 2983.31 3042.54 M 2530.98 3053.12 L 2750.74 3254.33 M 5059.61 1714.56 L 5062.29 2493.95 M 3085.82 2794.3 L 3257.92 2539.95 M 2504.28 2721.3 L 2380.31 2657.84 M 5655.71 1316.45 L 5234.52 1271.84 M 2569.57 3249.46 L 2750.74 3254.33 M 3085.82 2794.3 L 3375.96 2676.58 M 5050.08 1095.74 L 5234.52 1271.84 M 5628.43 2539.7 L 6000.33 2419.45 M 7436.46 1666.3 L 7069.25 1864.18 M 2271.75 2951.04 L 2247.32 3119.74 M 2247.32 3119.74 L 2464.94 3253.3 M 2676.45 3214.48 L 2625.59 3044.53 M 7232.49 1481.5 L 7069.25 1864.18 M 1961.71 2991.37 L 2247.32 3119.74 M 2247.32 3119.74 L 2261.76 3506.87 M 6000.33 2419.45 L 6329.75 2373.2 M 7069.25 1864.18 L 6717.52 2103.59 M 4943.07 1767.56 L 5234.52 1271.84 M 5916.3 2897.62 L 6000.33 2419.45 M 2061.04 3355.81 L 2261.76 3506.87 M 5907.74 2803.08 L 6329.75 2373.2 M 6663.23 1462.98 L 6717.52 2103.59 M 4943.07 1767.56 L 5224.9 1747.76 M 1855.59 3555.18 L 2261.76 3506.87 M 3257.92 2539.95 L 2978.72 2520.65 M 4771.89 2218.17 L 5062.29 2493.95 M 2504.28 2721.3 L 2443.46 2363.02 M 1855.59 3555.18 L 2145.07 3729.7 M 3257.92 2539.95 L 3321.1 2268.03 M 4644.26 2514.67 L 5062.29 2493.95 M 1810.41 3810.59 L 2145.07 3729.7 M 3596.91 2441.93 L 3321.1 2268.03 M 4648.83 2766.93 L 5062.29 2493.95 M 1810.41 3810.59 L 2058.94 4102.5 M 3777.57 2295.75 L 3321.1 2268.03 M 3596.91 2441.93 L 3777.57 2295.75 M 1683.28 3987.92 L 2058.94 4102.5 M 3597.64 2103.77 L 3321.1 2268.03 M 3596.91 2441.93 L 3853.36 2492.66 M 1683.28 3987.92 L 1929.14 4531.21 M 3597.64 2103.77 L 3276.42 2026.01 M 3596.91 2441.93 L 3706.87 2707.26 M 1683.28 3987.92 L 1565.81 4241.16 M 1565.81 4241.16 L 1929.14 4531.21 M 3597.64 2103.77 L 3325.15 1808.16 M 3596.91 2441.93 L 3463.37 2794.13 M 3463.37 2794.13 L 3706.87 2707.26 M 1351.18 4155.49 L 1565.81 4241.16 M 1498.48 4708.48 L 1929.14 4531.21 M 1319.09 4333.85 L 1565.81 4241.16 M 1498.48 4708.48 L 2013.2 4998.93 M 1319.09 4333.85 L 1560.44 4713.28 M 1640.44 5173.47 L 2013.2 4998.93 M 1106.34 4765.61 L 1560.44 4713.28 M 1640.44 5173.47 L 2301.22 4948.28 M 1106.34 4765.61 L 1627.05 5194.86 M 1640.44 5173.47 L 1871.59 5321.06 M 1017.59 5200.96 L 1627.05 5194.86 M 1394.02 5489.36 L 1871.59 5321.06 M 1215.61 5477.56 L 1627.05 5194.86 M 1471.28 5776.14 L 1871.59 5321.06 M 1394.02 5489.36 L 1471.28 5776.14 M 1471.28 5776.14 L 1844.5 5836.17 M 906.331 5846.43 L 1471.28 5776.14 M 953.728 6345.79 L 1844.5 5836.17 M 906.331 5846.43 L 825.757 6195.26 M 953.728 6345.79 L 1620.98 6220.4 M 470.02 6018.67 L 825.757 6195.26 M 906.331 5846.43 L 470.02 6018.67 M 470.02 6018.67 L 295.977 6283.42 M 295.977 6283.42 L 825.757 6195.26 M 170.519 6065.75 L 295.977 6283.42 M 295.977 6283.42 L 648.22 6449.9 M 3507.17 1735.74 L 3325.15 1808.16 M 388.067 6577.84 L 648.22 6449.9 M 3597.64 2103.77 L 3507.17 1735.74 M 3328.37 2682.44 L 3463.37 2794.13 M 3597.64 2103.77 L 3771.73 1741.91 M 3067.9 3073.44 L 3463.37 2794.13 M 3866.26 2070.36 L 3771.73 1741.91 M 3597.64 2103.77 L 3866.26 2070.36 M 3067.9 3073.44 L 3534.48 3238.74 M 3534.48 3238.74 L 3463.37 2794.13 M 3866.26 2070.36 L 4108.73 1884.94 M 3067.9 3073.44 L 3252.04 3443.32 M 3252.04 3443.32 L 3534.48 3238.74 M 3534.48 3238.74 L 3604.19 2964.9 M 2803.04 3480.65 L 3252.04 3443.32 M 3252.04 3443.32 L 3383.3 3665.92 M 4034 3097.09 L 3604.19 2964.9 M 3534.48 3238.74 L 4034 3097.09 M 2803.04 3480.65 L 3137.58 3931.32 M 4034 3097.09 L 4140.79 2766.96 M 3534.48 3238.74 L 4093.06 3338.12 M 2685.66 3777.99 L 3137.58 3931.32 M 4034 3097.09 L 4489.44 2694.08 M 3534.48 3238.74 L 4130.71 3613.7 M 4226.49 3253.72 L 4489.44 2694.08 M 3312.5 3633.79 L 4130.71 3613.7 M 4226.49 3253.72 L 4590.83 3018.79 M 3312.5 3633.79 L 3938.49 3909.21 M 4335.9 3509.43 L 4590.83 3018.79 M 3429.24 3883.57 L 3938.49 3909.21 M 3312.5 3633.79 L 3429.24 3883.57 M 4521.88 3652.79 L 4590.83 3018.79 M 4335.9 3509.43 L 4521.88 3652.79 M 3429.24 3883.57 L 3679.72 4049.91 M 3679.72 4049.91 L 3938.49 3909.21 M 3312.5 3633.79 L 2904.66 3770.91 M 3463.37 2794.13 L 3879.03 2847.48 M 4771.89 2218.17 L 4644.26 2514.67 M 2504.28 2721.3 L 2811.62 2471.1 M 2811.62 2471.1 L 2443.46 2363.02 M 1855.59 3555.18 L 1810.41 3810.59 M 2992.63 3567.82 L 2904.66 3770.91 M 3523.54 3007.14 L 3879.03 2847.48 M 2838.33 2720.57 L 2811.62 2471.1 M 2811.62 2471.1 L 2735.39 2102.25 M 3085.82 2794.3 L 3274.56 3135.32 M 5655.71 1316.45 L 5050.08 1095.74 M 3375.96 2676.58 L 3257.92 2539.95 M 2443.46 2363.02 L 2380.31 2657.84 M 2992.63 3567.82 L 2582.07 3665.59 M 4037.15 3258.78 L 3879.03 2847.48 M 3180.69 2542.06 L 2735.39 2102.25 M 2582.07 3665.59 L 2904.66 3770.91 M 5703.69 912.068 L 5050.08 1095.74 M 2443.46 2363.02 L 2245.62 2623.71 M 3116.71 2118.16 L 2862.45 2128.8 M 2750.74 3254.33 L 3294.47 3148.27 M 1451.87 3715.37 L 1810.41 3810.59 M 4037.15 3258.78 L 4188.43 3043.17 M 2443.46 2363.02 L 2183.88 2344.16 M 3091.32 1873.36 L 2862.45 2128.8 M 2750.74 3254.33 L 3000.55 3535.03 M 1451.87 3715.37 L 1651.83 3960.46 M 4037.15 3258.78 L 4322.74 3271.19 M 2443.46 2363.02 L 2361.68 1947.88 M 3091.32 1873.36 L 2814.27 1800.28 M 3218.68 2212.22 L 2735.39 2102.25 M 2582.07 3665.59 L 2626.2 4071.62 M 5703.69 912.068 L 5321.4 440.975 M 4771.89 2218.17 L 4472.83 2132.4 M 3091.32 1873.36 L 2971.91 1560.46 M 3218.68 2212.22 L 2974.88 1965.44 M 2582.07 3665.59 L 2228.33 4561.13 M 5934.84 598.267 L 5321.4 440.975 M 5703.69 912.068 L 5934.84 598.267 M 4843.15 1920.85 L 4472.83 2132.4 M 3212.12 1685.64 L 2971.91 1560.46 M 3218.68 2212.22 L 3188.3 1728.12 M 2234.85 3593.16 L 2228.33 4561.13 M 4513.76 1802.91 L 4472.83 2132.4 M 3289.57 1934.12 L 3188.3 1728.12 M 2234.85 3593.16 L 1748.91 4333.41 M 4513.76 1802.91 L 4160.52 1964.76 M 5703.69 912.068 L 6253.37 1019.5 M 4843.15 1920.85 L 4513.76 1802.91 M 1673.63 3804.96 L 1748.91 4333.41 M 4069.79 3613.47 L 4322.74 3271.19 M 5949.26 1238.04 L 6253.37 1019.5 M 5703.69 912.068 L 5949.26 1238.04 M 1673.63 3804.96 L 1103.79 4039.91 M 4069.79 3613.47 L 4412.07 3496.85 M 6250.13 1591.1 L 6253.37 1019.5 M 5949.26 1238.04 L 6250.13 1591.1 M 5710.66 1319.23 L 5949.26 1238.04 M 1250.65 3741.66 L 1103.79 4039.91 M 4433.19 3869.11 L 4412.07 3496.85 M 2530.48 2045.2 L 2361.68 1947.88 M 2735.39 2102.25 L 2443.46 2363.02 M 680.762 3611.44 L 1103.79 4039.91 M 4433.19 3869.11 L 4749.86 3791.91 M 2579.66 1737.51 L 2361.68 1947.88 M 2530.48 2045.2 L 2579.66 1737.51 M 4769.02 3329.62 L 4590.83 3018.79 M 4863.99 4083.8 L 4749.86 3791.91 M 2389.14 1582.67 L 2361.68 1947.88 M 2530.48 2045.2 L 2742.44 1809.17 M 2742.44 1809.17 L 2579.66 1737.51 M 4769.02 3329.62 L 4833.03 2916.44 M 4863.99 4083.8 L 5158.49 3995.19 M 5158.49 3995.19 L 4749.86 3791.91 M 2389.14 1582.67 L 2107.72 1702.18 M 2678.19 2136.9 L 2742.44 1809.17 M 2742.44 1809.17 L 2567.08 1492.33 M 4938.68 3273.18 L 4833.03 2916.44 M 5028.18 4160.5 L 5158.49 3995.19 M 5158.49 3995.19 L 5047.65 3677.05 M 2678.19 2136.9 L 2854.52 2087.38 M 2854.52 2087.38 L 2742.44 1809.17 M 2742.44 1809.17 L 2702.16 1325.01 M 4938.68 3273.18 L 5317.04 3278.48 M 4223.94 4265.84 L 3938.49 3909.21 M 5339.24 3707.49 L 5317.04 3278.48 M 4472.83 2132.4 L 4644.26 2514.67 M 4223.94 4265.84 L 4256.47 4075.09 M 5339.24 3707.49 L 5677.98 3861.12 M 4227.41 2388.16 L 4644.26 2514.67 M 3429.24 3883.57 L 3683.12 4405.61 M 4223.94 4265.84 L 4608.19 4279.57 M 4227.41 2388.16 L 4418.78 2627.87 M 3429.24 3883.57 L 3185.4 4035.95 M 3185.4 4035.95 L 3683.12 4405.61 M 4223.94 4265.84 L 4725.12 4414.85 M 4227.41 2388.16 L 4090.96 3217.25 M 3173.58 3411.86 L 3185.4 4035.95 M 3185.4 4035.95 L 3582.55 4564.26 M 4463.7 4899.24 L 4725.12 4414.85 M 3836.5 2894.71 L 4090.96 3217.25 M 3173.58 3411.86 L 2833.71 3760.3 M 3185.4 4035.95 L 3572.06 4882.78 M 3572.06 4882.78 L 3582.55 4564.26 M 4677.58 4837.17 L 4725.12 4414.85 M 3185.4 4035.95 L 2954.96 4211.74 M 3572.06 4882.78 L 3919.93 4828.86 M 4677.58 4837.17 L 5280.47 4616.49 M 3572.06 4882.78 L 3894.55 5216.23 M 3894.55 5216.23 L 3919.93 4828.86 M 3572.06 4882.78 L 3557.94 5123.87 M 3894.55 5216.23 L 4145.63 5030.12 M 4145.63 5030.12 L 3919.93 4828.86 M 3572.06 4882.78 L 2748.37 4717.58 M 3894.55 5216.23 L 4233.67 5461.06 M 4233.67 5461.06 L 4145.63 5030.12 M 4289.2 4462.9 L 3919.93 4828.86 M 4145.63 5030.12 L 4289.2 4462.9 M 2808.19 4385.17 L 2748.37 4717.58 M 4024.34 5540.25 L 4233.67 5461.06 M 4233.67 5461.06 L 4641.25 5382.93 M 2808.19 4385.17 L 2330.25 4373.37 M 4566.49 4590.81 L 4289.2 4462.9 M 4233.67 5461.06 L 4783.68 5694.21 M 2458.61 4180.11 L 2330.25 4373.37 M 4566.49 4590.81 L 4501.71 4177.64 M 4798.83 6130.91 L 4783.68 5694.21 M 1917.1 3949.18 L 2330.25 4373.37 M 4902.34 4524.59 L 4501.71 4177.64 M 2330.25 4373.37 L 2748.37 4717.58 M 1917.1 3949.18 L 2031.35 4407.21 M 4880.75 4061.34 L 4501.71 4177.64 M 2330.25 4373.37 L 2412.97 4760.75 M 4880.75 4061.34 L 4807.35 3678.25 M 5214.04 3822.69 L 4807.35 3678.25 M 4880.75 4061.34 L 5214.04 3822.69 M 5214.04 3822.69 L 5296.94 3509.34 M 5296.94 3509.34 L 4807.35 3678.25 M 4880.75 4061.34 L 5146.86 4181.93 M 5214.04 3822.69 L 5490.68 3723.78 M 5296.94 3509.34 L 5237.36 3155.03 M 4880.75 4061.34 L 5121.72 4663.08 M 5200.27 4187.9 L 5490.68 3723.78 M 4932.06 4522.25 L 5121.72 4663.08 M 5200.27 4187.9 L 5985.78 4108.62 M 4682.22 4850.58 L 5121.72 4663.08 M 5367.26 4431.56 L 5985.78 4108.62 M 5200.27 4187.9 L 5367.26 4431.56 M 4682.22 4850.58 L 4706.93 5227.51 M 5367.26 4431.56 L 5849.06 4545.52 M 5849.06 4545.52 L 5985.78 4108.62 M 5315.44 4655.73 L 5367.26 4431.56 M 4242.44 5123.76 L 4706.93 5227.51 M 5585.81 4879.07 L 5849.06 4545.52 M 5315.44 4655.73 L 5637.53 4849.88 M 4221.73 5360.52 L 4706.93 5227.51 M 4242.44 5123.76 L 4221.73 5360.52 M 5585.81 4879.07 L 6074.93 4752.31 M 6074.93 4752.31 L 5849.06 4545.52 M 5562.77 5311.06 L 5637.53 4849.88 M 4221.73 5360.52 L 4645.38 5497.42 M 5656.62 5152.54 L 6074.93 4752.31 M 6186.72 4325.69 L 5849.06 4545.52 M 6074.93 4752.31 L 6186.72 4325.69 M 4221.73 5360.52 L 4629.58 5958.2 M 5656.62 5152.54 L 6369.19 4982.2 M 5585.81 4879.07 L 5656.62 5152.54 M 6380.49 4825.76 L 6186.72 4325.69 M 4268.23 5978.33 L 4629.58 5958.2 M 4221.73 5360.52 L 4268.23 5978.33 M 5826.32 5514.79 L 6369.19 4982.2 M 5656.62 5152.54 L 5826.32 5514.79 M 5206.52 5304.13 L 5656.62 5152.54 M 6380.49 4825.76 L 6494.21 4513.72 M 3788.02 5636.08 L 4268.23 5978.33 M 5826.32 5514.79 L 6121.34 5619.16 M 5507.46 5516.29 L 5826.32 5514.79 M 5206.52 5304.13 L 5414.24 5462.08 M 6380.49 4825.76 L 6732.35 4812.01 M 6732.35 4812.01 L 6494.21 4513.72 M 5804.49 5909.14 L 6121.34 5619.16 M 5507.46 5516.29 L 5707.05 5891.3 M 4268.23 5978.33 L 4458.98 6489.69 M 6380.49 4825.76 L 6496.56 5146.32 M 6732.35 4812.01 L 6837.79 4148.59 M 6837.79 4148.59 L 6494.21 4513.72 M 6732.35 4812.01 L 7070 4657.39 M 6837.79 4148.59 L 6471.79 4154 M 7107.01 4976.31 L 7070 4657.39 M 6840.3 3855.35 L 6471.79 4154 M 7107.01 4976.31 L 7376.71 4619.24 M 6840.3 3855.35 L 6222.24 3880.14 M 7107.01 4976.31 L 7523.76 4783.31 M 6840.3 3855.35 L 6518.6 3705.43 M 6518.6 3705.43 L 6222.24 3880.14 M 6692.14 3383.53 L 6518.6 3705.43 M 6840.3 3855.35 L 6692.14 3383.53 M 6518.6 3705.43 L 6026.41 3409.19 M 6840.3 3855.35 L 6912.42 3379.39 M 5804.49 5909.14 L 6335.54 5869.66 M 6840.3 3855.35 L 7196.54 3257.74 M 5496.15 5906.35 L 5707.05 5891.3 M 3866.21 6396.13 L 4458.98 6489.69 M 5496.15 5906.35 L 5938.72 6446.76 M 4189.88 6813.42 L 4458.98 6489.69 M 5484.78 6464.43 L 5938.72 6446.76" />
<line x1="4392.677682" y1="3529.865457" x2="4626.903722" y2="3408.585583" class="t" />
<line x1="4938.891485" y1="3522.548672" x2="4626.903722" y2="3408.585583" class="t" />
<line x1="4172.028311" y1="3346.711096" x2="4392.677682" y2="3529.865457" class="t" />
<line x1="5139.810935" y1="3459.134405" x2="4938.891485" y2="3522.548672" class="t" />
<line x1="4075.121062" y1="3356.910469" x2="4172.028311" y2="3346.711096" class="t" />
<line x1="5159.542874" y1="3291.694418" x2="5139.810935" y2="3459.134405" class="t" />
<line x1="5410.406948" y1="3640.149697" x2="5139.810935" y2="3459.134405" class="t" />
<line x1="3978.144184" y1="3225.312774" x2="4075.121062" y2="3356.910469" class="t" />
<line x1="5399.747748" y1="3311.772615" x2="5159.542874" y2="3291.694418" class="t" />
<line x1="5545.014989" y1="3508.242633" x2="5410.406948" y2="3640.149697" class="t" />
<line x1="3770.936397" y1="3312.242960" x2="3978.144184" y2="3225.312774" class="t" />
<line x1="5755.134047" y1="3559.331884" x2="5545.014989" y2="3508.242633" class="t" />
<line x1="3554.907928" y1="3226.813165" x2="3770.936397" y2="3312.242960" class="t" />
<line x1="3689.982575" y1="3466.873347" x2="3770.936397" y2="3312.242960" class="t" />
<line x1="5915.215300" y1="3446.305834" x2="5755.134047" y2="3559.331884" class="t" />
<line x1="3231.685736" y1="3384.685822" x2="3554.907928" y2="3226.813165" class="t" />
<line x1="6050.846669" y1="3743.379168" x2="5755.134047" y2="3559.331884" class="t" />
<line x1="5577.051523" y1="3172.942373" x2="5399.747748" y2="3311.772615" class="t" />
<line x1="5850.737191" y1="3243.530609" x2="5915.215300" y2="3446.305834" class="t" />
<line x1="3198.122757" y1="3591.154549" x2="3231.685736" y2="3384.685822" class="t" />
<line x1="6214.825887" y1="3633.882915" x2="6050.846669" y2="3743.379168" class="t" />
<line x1="6092.405837" y1="3236.101388" x2="5850.737191" y2="3243.530609" class="t" />
<line x1="3432.601830" y1="3593.516117" x2="3198.122757" y2="3591.154549" class="t" />
<line x1="3009.959347" y1="3342.995247" x2="3231.685736" y2="3384.685822" class="t" />
<line x1="6000.683627" y1="3057.706646" x2="6092.405837" y2="3236.101388" class="t" />
<line x1="3512.860528" y1="3777.343535" x2="3432.601830" y2="3593.516117" class="t" />
<line x1="6168.667206" y1="2932.387929" x2="6000.683627" y2="3057.706646" class="t" />
<line x1="3763.854212" y1="3681.712169" x2="3512.860528" y2="3777.343535" class="t" />
<line x1="6411.220594" y1="2861.979174" x2="6168.667206" y2="2932.387929" class="t" />
<line x1="6078.583328" y1="2630.153888" x2="6168.667206" y2="2932.387929" class="t" />
<line x1="3941.365750" y1="3740.488922" x2="3763.854212" y2="3681.712169" class="t" />
<line x1="6624.914947" y1="3021.667050" x2="6411.220594" y2="2861.979174" class="t" />
<line x1="6400.748891" y1="2552.904351" x2="6411.220594" y2="2861.979174" class="t" />
<line x1="4121.216616" y1="3608.185198" x2="3941.365750" y2="3740.488922" class="t" />
<line x1="6922.366881" y1="2788.507693" x2="6624.914947" y2="3021.667050" class="t" />
<line x1="6213.003109" y1="2506.988029" x2="6400.748891" y2="2552.904351" class="t" />
<line x1="6552.245371" y1="2373.238418" x2="6400.748891" y2="2552.904351" class="t" />
<line x1="6249.742872" y1="2486.305604" x2="6078.583328" y2="2630.153888" class="t" />
<line x1="2798.165706" y1="3443.310557" x2="3009.959347" y2="3342.995247" class="t" />
<line x1="6039.272635" y1="2390.121610" x2="6213.003109" y2="2506.988029" class="t" />
<line x1="6413.125140" y1="2095.827289" x2="6552.245371" y2="2373.238418" class="t" />
<line x1="6854.915653" y1="2413.914547" x2="6552.245371" y2="2373.238418" class="t" />
<line x1="2652.589662" y1="3318.401374" x2="2798.165706" y2="3443.310557" class="t" />
<line x1="6174.062082" y1="2201.111556" x2="6413.125140" y2="2095.827289" class="t" />
<line x1="7008.177823" y1="2154.332644" x2="6854.915653" y2="2413.914547" class="t" />
<line x1="2637.345406" y1="3239.296313" x2="2652.589662" y2="3318.401374" class="t" />
<line x1="6025.162769" y1="1979.606364" x2="6174.062082" y2="2201.111556" class="t" />
<line x1="7271.936401" y1="2176.864206" x2="7008.177823" y2="2154.332644" class="t" />
<line x1="2471.046309" y1="3139.607946" x2="2637.345406" y2="3239.296313" class="t" />
<line x1="5837.269084" y1="2222.609676" x2="6025.162769" y2="1979.606364" class="t" />
<line x1="7338.170354" y1="1900.555162" x2="7271.936401" y2="2176.864206" class="t" />
<line x1="2328.003780" y1="3108.028419" x2="2471.046309" y2="3139.607946" class="t" />
<line x1="2524.596632" y1="3070.017268" x2="2471.046309" y2="3139.607946" class="t" />
<line x1="5682.473443" y1="2069.645673" x2="5837.269084" y2="2222.609676" class="t" />
<line x1="2486.898380" y1="2959.986488" x2="2524.596632" y2="3070.017268" class="t" />
<line x1="5613.142632" y1="1727.871568" x2="5682.473443" y2="2069.645673" class="t" />
<line x1="2446.461319" y1="2852.243357" x2="2486.898380" y2="2959.986488" class="t" />
<line x1="5653.064859" y1="1513.170757" x2="5613.142632" y2="1727.871568" class="t" />
<line x1="2622.090283" y1="2800.299542" x2="2446.461319" y2="2852.243357" class="t" />
<line x1="2385.447326" y1="2776.725265" x2="2446.461319" y2="2852.243357" class="t" />
<line x1="5436.889241" y1="1367.555298" x2="5653.064859" y2="1513.170757" class="t" />
<line x1="2676.601335" y1="2662.915355" x2="2622.090283" y2="2800.299542" class="t" />
<line x1="2630.989889" y1="2910.906051" x2="2622.090283" y2="2800.299542" class="t" />
<line x1="5238.189624" y1="1500.258301" x2="5436.889241" y2="1367.555298" class="t" />
<line x1="2834.747976" y1="2596.030209" x2="2676.601335" y2="2662.915355" class="t" />
<line x1="2770.976263" y1="2963.623103" x2="2630.989889" y2="2910.906051" class="t" />
<line x1="5262.561096" y1="1730.061908" x2="5238.189624" y2="1500.258301" class="t" />
<line x1="2954.390977" y1="2703.383280" x2="2834.747976" y2="2596.030209" class="t" />
<line x1="2856.019223" y1="2373.893242" x2="2834.747976" y2="2596.030209" class="t" />
<line x1="2755.010800" y1="3116.665761" x2="2770.976263" y2="2963.623103" class="t" />
<line x1="5143.180064" y1="2056.584884" x2="5262.561096" y2="1730.061908" class="t" />
<line x1="2968.489110" y1="2866.261750" x2="2954.390977" y2="2703.383280" class="t" />
<line x1="3107.484579" y1="2618.297846" x2="2954.390977" y2="2703.383280" class="t" />
<line x1="2985.960840" y1="2255.867241" x2="2856.019223" y2="2373.893242" class="t" />
<line x1="3009.508131" y1="3148.382285" x2="2755.010800" y2="3116.665761" class="t" />
<line x1="2617.097188" y1="3185.639589" x2="2755.010800" y2="3116.665761" class="t" />
<line x1="4964.597985" y1="2142.226055" x2="5143.180064" y2="2056.584884" class="t" />
<line x1="3239.897850" y1="2670.275470" x2="3107.484579" y2="2618.297846" class="t" />
<line x1="2442.684939" y1="2580.718246" x2="2385.447326" y2="2776.725265" class="t" />
<line x1="5313.439129" y1="1228.008131" x2="5436.889241" y2="1367.555298" class="t" />
<line x1="2732.106391" y1="3421.190631" x2="2617.097188" y2="3185.639589" class="t" />
<line x1="3245.444647" y1="2868.733198" x2="3239.897850" y2="2670.275470" class="t" />
<line x1="5075.892180" y1="1378.379180" x2="5313.439129" y2="1228.008131" class="t" />
<line x1="5848.353625" y1="2618.922160" x2="5837.269084" y2="2222.609676" class="t" />
<line x1="7246.068180" y1="1670.660874" x2="7338.170354" y2="1900.555162" class="t" />
<line x1="2160.259874" y1="3020.717811" x2="2328.003780" y2="3108.028419" class="t" />
<line x1="2324.675240" y1="3293.304238" x2="2328.003780" y2="3108.028419" class="t" />
<line x1="2691.201744" y1="3146.801302" x2="2524.596632" y2="3070.017268" class="t" />
<line x1="7026.089514" y1="1573.278307" x2="7246.068180" y2="1670.660874" class="t" />
<line x1="2051.932972" y1="3080.211627" x2="2160.259874" y2="3020.717811" class="t" />
<line x1="2190.043216" y1="3327.472879" x2="2324.675240" y2="3293.304238" class="t" />
<line x1="6079.273105" y1="2531.907885" x2="6174.062082" y2="2201.111556" class="t" />
<line x1="6816.666509" y1="1810.251854" x2="7008.177823" y2="2154.332644" class="t" />
<line x1="5134.165835" y1="1595.721195" x2="5075.892180" y2="1378.379180" class="t" />
<line x1="6005.103961" y1="2706.236786" x2="5848.353625" y2="2618.922160" class="t" />
<line x1="2059.467101" y1="3472.618741" x2="2190.043216" y2="3327.472879" class="t" />
<line x1="6132.032466" y1="2705.919130" x2="6079.273105" y2="2531.907885" class="t" />
<line x1="6571.605354" y1="1735.562159" x2="6816.666509" y2="1810.251854" class="t" />
<line x1="5048.320079" y1="1929.146656" x2="5134.165835" y2="1595.721195" class="t" />
<line x1="2087.476984" y1="3597.249811" x2="2059.467101" y2="3472.618741" class="t" />
<line x1="3185.911633" y1="2442.875655" x2="3107.484579" y2="2618.297846" class="t" />
<line x1="4826.146933" y1="2408.929602" x2="4964.597985" y2="2142.226055" class="t" />
<line x1="2586.455407" y1="2518.473892" x2="2442.684939" y2="2580.718246" class="t" />
<line x1="1937.024922" y1="3698.492258" x2="2087.476984" y2="3597.249811" class="t" />
<line x1="3391.975403" y1="2416.636602" x2="3185.911633" y2="2442.875655" class="t" />
<line x1="4785.125280" y1="2591.849518" x2="4826.146933" y2="2408.929602" class="t" />
<line x1="2004.805681" y1="3880.933054" x2="1937.024922" y2="3698.492258" class="t" />
<line x1="3565.193483" y1="2335.238062" x2="3391.975403" y2="2416.636602" class="t" />
<line x1="5008.373864" y1="2713.012992" x2="4785.125280" y2="2591.849518" class="t" />
<line x1="1850.874433" y1="3967.006583" x2="2004.805681" y2="3880.933054" class="t" />
<line x1="3565.436950" y1="2222.516932" x2="3565.193483" y2="2335.238062" class="t" />
<line x1="3742.615705" y1="2410.116119" x2="3565.193483" y2="2335.238062" class="t" />
<line x1="1890.452704" y1="4207.211609" x2="1850.874433" y2="3967.006583" class="t" />
<line x1="3398.384600" y1="2132.601321" x2="3565.436950" y2="2222.516932" class="t" />
<line x1="3719.049589" y1="2547.283710" x2="3742.615705" y2="2410.116119" class="t" />
<line x1="1726.077736" y1="4253.431266" x2="1890.452704" y2="4207.211609" class="t" />
<line x1="3399.734634" y1="1979.311090" x2="3398.384600" y2="2132.601321" class="t" />
<line x1="3589.053017" y1="2647.772270" x2="3719.049589" y2="2547.283710" class="t" />
<line x1="1533.422123" y1="4128.193198" x2="1726.077736" y2="4253.431266" class="t" />
<line x1="1664.479543" y1="4493.617679" x2="1726.077736" y2="4253.431266" class="t" />
<line x1="3476.651534" y1="1882.555358" x2="3399.734634" y2="1979.311090" class="t" />
<line x1="3462.886579" y1="2639.499739" x2="3589.053017" y2="2647.772270" class="t" />
<line x1="3683.091984" y1="2782.954561" x2="3589.053017" y2="2647.772270" class="t" />
<line x1="1412.024298" y1="4243.501421" x2="1533.422123" y2="4128.193198" class="t" />
<line x1="1813.609202" y1="4746.206377" x2="1664.479543" y2="4493.617679" class="t" />
<line x1="1481.778810" y1="4429.429165" x2="1412.024298" y2="4243.501421" class="t" />
<line x1="1717.374291" y1="4960.293238" x2="1813.609202" y2="4746.206377" class="t" />
<line x1="1328.620792" y1="4604.244227" x2="1481.778810" y2="4429.429165" class="t" />
<line x1="1984.952035" y1="5040.225411" x2="1717.374291" y2="4960.293238" class="t" />
<line x1="1431.276140" y1="4891.249445" x2="1328.620792" y2="4604.244227" class="t" />
<line x1="1937.749291" y1="5147.600932" x2="1984.952035" y2="5040.225411" class="t" />
<line x1="1250.325742" y1="5053.812087" x2="1431.276140" y2="4891.249445" class="t" />
<line x1="1635.349425" y1="5327.962730" x2="1937.749291" y2="5147.600932" class="t" />
<line x1="1286.750119" y1="5291.128149" x2="1250.325742" y2="5053.812087" class="t" />
<line x1="1578.964232" y1="5528.851617" x2="1635.349425" y2="5327.962730" class="t" />
<line x1="1435.846978" y1="5411.211720" x2="1286.750119" y2="5291.128149" class="t" />
<line x1="1729.123657" y1="5644.454691" x2="1578.964232" y2="5528.851617" class="t" />
<line x1="1257.210643" y1="5703.976043" x2="1578.964232" y2="5528.851617" class="t" />
<line x1="1423.169321" y1="5986.032737" x2="1729.123657" y2="5644.454691" class="t" />
<line x1="1067.790166" y1="5939.273999" x2="1257.210643" y2="5703.976043" class="t" />
<line x1="1473.068363" y1="6134.120830" x2="1423.169321" y2="5986.032737" class="t" />
<line x1="734.035749" y1="6020.118412" x2="1067.790166" y2="5939.273999" class="t" />
<line x1="1149.786176" y1="6404.051515" x2="1473.068363" y2="6134.120830" class="t" />
<line x1="530.584743" y1="6165.783033" x2="734.035749" y2="6020.118412" class="t" />
<line x1="532.432003" y1="5903.636006" x2="734.035749" y2="6020.118412" class="t" />
<line x1="312.172256" y1="6122.614842" x2="530.584743" y2="6165.783033" class="t" />
<line x1="589.984851" y1="6309.525546" x2="530.584743" y2="6165.783033" class="t" />
<line x1="155.498920" y1="6239.845184" x2="312.172256" y2="6122.614842" class="t" />
<line x1="444.088247" y1="6437.051848" x2="589.984851" y2="6309.525546" class="t" />
<line x1="3386.949941" y1="1705.115189" x2="3476.651534" y2="1882.555358" class="t" />
<line x1="675.175104" y1="6654.140777" x2="444.088247" y2="6437.051848" class="t" />
<line x1="3625.511761" y1="1860.471797" x2="3476.651534" y2="1882.555358" class="t" />
<line x1="3286.548284" y1="2850.002003" x2="3462.886579" y2="2639.499739" class="t" />
<line x1="3745.211024" y1="1972.010415" x2="3625.511761" y2="1860.471797" class="t" />
<line x1="3355.249987" y1="3035.435668" x2="3286.548284" y2="2850.002003" class="t" />
<line x1="3915.573081" y1="1899.069643" x2="3745.211024" y2="1972.010415" class="t" />
<line x1="3754.911638" y1="2148.356241" x2="3745.211024" y2="1972.010415" class="t" />
<line x1="3284.805680" y1="3251.832570" x2="3355.249987" y2="3035.435668" class="t" />
<line x1="3534.015286" y1="2999.256630" x2="3355.249987" y2="3035.435668" class="t" />
<line x1="4032.852646" y1="2020.593234" x2="3915.573081" y2="1899.069643" class="t" />
<line x1="3040.993276" y1="3332.469771" x2="3284.805680" y2="3251.832570" class="t" />
<line x1="3389.940528" y1="3449.328450" x2="3284.805680" y2="3251.832570" class="t" />
<line x1="3724.222770" y1="3100.242946" x2="3534.015286" y2="2999.256630" class="t" />
<line x1="3064.220239" y1="3618.431435" x2="3040.993276" y2="3332.469771" class="t" />
<line x1="3281.806248" y1="3684.016979" x2="3389.940528" y2="3449.328450" class="t" />
<line x1="3926.325486" y1="2942.982253" x2="3724.222770" y2="3100.242946" class="t" />
<line x1="3887.180387" y1="3224.651282" x2="3724.222770" y2="3100.242946" class="t" />
<line x1="2875.424795" y1="3729.989233" x2="3064.220239" y2="3618.431435" class="t" />
<line x1="4221.407425" y1="2852.709625" x2="3926.325486" y2="2942.982253" class="t" />
<line x1="3919.417096" y1="3396.854816" x2="3887.180387" y2="3224.651282" class="t" />
<line x1="2930.390919" y1="3972.199003" x2="2875.424795" y2="3729.989233" class="t" />
<line x1="4249.974152" y1="3014.964328" x2="4221.407425" y2="2852.709625" class="t" />
<line x1="3659.229589" y1="3495.411178" x2="3919.417096" y2="3396.854816" class="t" />
<line x1="4435.585536" y1="2988.863907" x2="4249.974152" y2="3014.964328" class="t" />
<line x1="3793.899371" y1="3718.901237" x2="3659.229589" y2="3495.411178" class="t" />
<line x1="4384.406475" y1="3260.647677" x2="4435.585536" y2="2988.863907" class="t" />
<line x1="3560.076335" y1="3808.858911" x2="3793.899371" y2="3718.901237" class="t" />
<line x1="4482.868776" y1="3393.671175" x2="4384.406475" y2="3260.647677" class="t" />
<line x1="3682.482161" y1="3947.564815" x2="3560.076335" y2="3808.858911" class="t" />
<line x1="3215.468010" y1="3762.758264" x2="3560.076335" y2="3808.858911" class="t" />
<line x1="4627.242014" y1="3333.733196" x2="4482.868776" y2="3393.671175" class="t" />
<line x1="4358.157305" y1="3667.806814" x2="4482.868776" y2="3393.671175" class="t" />
<line x1="3597.358613" y1="4113.030517" x2="3682.482161" y2="3947.564815" class="t" />
<line x1="3947.383391" y1="4074.985846" x2="3682.482161" y2="3947.564815" class="t" />
<line x1="3069.932185" y1="3657.507484" x2="3215.468010" y2="3762.758264" class="t" />
<line x1="3621.981445" y1="2882.913868" x2="3683.091984" y2="2782.954561" class="t" />
<line x1="4629.658774" y1="2288.414762" x2="4826.146933" y2="2408.929602" class="t" />
<line x1="2718.076315" y1="2637.658044" x2="2586.455407" y2="2518.473892" class="t" />
<line x1="2663.492504" y1="2312.122648" x2="2586.455407" y2="2518.473892" class="t" />
<line x1="1705.958627" y1="3693.714284" x2="1937.024922" y2="3698.492258" class="t" />
<line x1="2826.454988" y1="3668.105555" x2="3069.932185" y2="3657.507484" class="t" />
<line x1="3813.238968" y1="3037.798559" x2="3621.981445" y2="2882.913868" class="t" />
<line x1="2941.540485" y1="2586.640608" x2="2718.076315" y2="2637.658044" class="t" />
<line x1="2909.233065" y1="2371.803929" x2="2663.492504" y2="2312.122648" class="t" />
<line x1="3113.105392" y1="2973.796775" x2="3245.444647" y2="2868.733198" class="t" />
<line x1="5469.828171" y1="1108.085452" x2="5313.439129" y2="1228.008131" class="t" />
<line x1="3400.622248" y1="2529.339570" x2="3239.897850" y2="2670.275470" class="t" />
<line x1="2356.463825" y1="2548.186614" x2="2442.684939" y2="2580.718246" class="t" />
<line x1="2750.197914" y1="3577.782801" x2="2826.454988" y2="3668.105555" class="t" />
<line x1="4034.868893" y1="3049.809817" x2="3813.238968" y2="3037.798559" class="t" />
<line x1="3044.918395" y1="2285.508641" x2="2909.233065" y2="2371.803929" class="t" />
<line x1="2704.310349" y1="3836.037499" x2="2826.454988" y2="3668.105555" class="t" />
<line x1="5358.390594" y1="816.259937" x2="5469.828171" y2="1108.085452" class="t" />
<line x1="2290.985677" y1="2443.627936" x2="2356.463825" y2="2548.186614" class="t" />
<line x1="3023.493979" y1="2040.105210" x2="2985.960840" y2="2255.867241" class="t" />
<line x1="3015.252257" y1="3312.544592" x2="3009.508131" y2="3148.382285" class="t" />
<line x1="1638.037310" y1="3828.807777" x2="1705.958627" y2="3693.714284" class="t" />
<line x1="4182.772681" y1="3191.047325" x2="4034.868893" y2="3049.809817" class="t" />
<line x1="2329.672701" y1="2218.352311" x2="2290.985677" y2="2443.627936" class="t" />
<line x1="2922.680414" y1="1934.146999" x2="3023.493979" y2="2040.105210" class="t" />
<line x1="2846.402491" y1="3521.033111" x2="3015.252257" y2="3312.544592" class="t" />
<line x1="1463.202551" y1="3901.052230" x2="1638.037310" y2="3828.807777" class="t" />
<line x1="4143.224834" y1="3381.147307" x2="4182.772681" y2="3191.047325" class="t" />
<line x1="2445.208190" y1="2118.699068" x2="2329.672701" y2="2218.352311" class="t" />
<line x1="2959.165543" y1="1744.702814" x2="2922.680414" y2="1934.146999" class="t" />
<line x1="2976.316610" y1="2093.301391" x2="3044.918395" y2="2285.508641" class="t" />
<line x1="2478.865459" y1="4099.444691" x2="2704.310349" y2="3836.037499" class="t" />
<line x1="5653.308056" y1="650.436706" x2="5358.390594" y2="816.259937" class="t" />
<line x1="4695.955318" y1="2090.473832" x2="4629.658774" y2="2288.414762" class="t" />
<line x1="3091.781741" y1="1706.487298" x2="2959.165543" y2="1744.702814" class="t" />
<line x1="3127.288034" y1="1968.593037" x2="2976.316610" y2="2093.301391" class="t" />
<line x1="2348.415888" y1="3939.958249" x2="2478.865459" y2="4099.444691" class="t" />
<line x1="5624.333193" y1="346.413877" x2="5653.308056" y2="650.436706" class="t" />
<line x1="5963.964897" y1="843.278316" x2="5653.308056" y2="650.436706" class="t" />
<line x1="4609.910557" y1="1952.053721" x2="4695.955318" y2="2090.473832" class="t" />
<line x1="3169.108722" y1="1574.244074" x2="3091.781741" y2="1706.487298" class="t" />
<line x1="3232.185871" y1="1958.153638" x2="3127.288034" y2="1968.593037" class="t" />
<line x1="2070.695464" y1="4162.565792" x2="2348.415888" y2="3939.958249" class="t" />
<line x1="4382.366307" y1="1966.692310" x2="4609.910557" y2="1952.053721" class="t" />
<line x1="3369.002246" y1="1824.350023" x2="3232.185871" y2="1958.153638" class="t" />
<line x1="1885.796433" y1="3910.508615" x2="2070.695464" y2="4162.565792" class="t" />
<line x1="4389.668518" y1="1728.939004" x2="4382.366307" y2="1966.692310" class="t" />
<line x1="5968.772104" y1="1056.537405" x2="5963.964897" y2="843.278316" class="t" />
<line x1="4720.348431" y1="1758.346407" x2="4609.910557" y2="1952.053721" class="t" />
<line x1="1508.776504" y1="4059.425435" x2="1885.796433" y2="3910.508615" class="t" />
<line x1="4268.200678" y1="3460.501110" x2="4143.224834" y2="3381.147307" class="t" />
<line x1="6150.918212" y1="1282.882233" x2="5968.772104" y2="1056.537405" class="t" />
<line x1="5787.869671" y1="1156.446914" x2="5968.772104" y2="1056.537405" class="t" />
<line x1="1342.689957" y1="3862.176965" x2="1508.776504" y2="4059.425435" class="t" />
<line x1="4305.017839" y1="3659.807688" x2="4268.200678" y2="3460.501110" class="t" />
<line x1="6342.599600" y1="1315.882927" x2="6150.918212" y2="1282.882233" class="t" />
<line x1="6045.202230" y1="1502.058827" x2="6150.918212" y2="1282.882233" class="t" />
<line x1="5883.773763" y1="1410.822705" x2="5787.869671" y2="1156.446914" class="t" />
<line x1="1011.733140" y1="3797.669479" x2="1342.689957" y2="3862.176965" class="t" />
<line x1="4531.708023" y1="3719.288318" x2="4305.017839" y2="3659.807688" class="t" />
<line x1="2490.606759" y1="1910.196555" x2="2445.208190" y2="2118.699068" class="t" />
<line x1="2582.067251" y1="2174.313864" x2="2663.492504" y2="2312.122648" class="t" />
<line x1="763.161641" y1="3789.494396" x2="1011.733140" y2="3797.669479" class="t" />
<line x1="4682.345110" y1="3914.940725" x2="4531.708023" y2="3719.288318" class="t" />
<line x1="2443.492989" y1="1756.019578" x2="2490.606759" y2="1910.196555" class="t" />
<line x1="2617.528878" y1="1863.958770" x2="2490.606759" y2="1910.196555" class="t" />
<line x1="4730.959937" y1="3088.282342" x2="4627.242014" y2="3333.733196" class="t" />
<line x1="4924.110792" y1="3956.966121" x2="4682.345110" y2="3914.940725" class="t" />
<line x1="2286.181066" y1="1744.241628" x2="2443.492989" y2="1756.019578" class="t" />
<line x1="2650.372453" y1="1997.087280" x2="2617.528878" y2="1863.958770" class="t" />
<line x1="2629.726784" y1="1679.668371" x2="2617.528878" y2="1863.958770" class="t" />
<line x1="4846.910369" y1="3173.080156" x2="4730.959937" y2="3088.282342" class="t" />
<line x1="5016.882821" y1="4079.827818" x2="4924.110792" y2="3956.966121" class="t" />
<line x1="4985.330659" y1="3821.383203" x2="4924.110792" y2="3956.966121" class="t" />
<line x1="2225.551396" y1="1638.883690" x2="2286.181066" y2="1744.241628" class="t" />
<line x1="2758.384751" y1="2011.145919" x2="2650.372453" y2="1997.087280" class="t" />
<line x1="2670.561898" y1="1542.168143" x2="2629.726784" y2="1679.668371" class="t" />
<line x1="5029.582683" y1="3156.032948" x2="4846.910369" y2="3173.080156" class="t" />
<line x1="5104.668237" y1="4111.270937" x2="5016.882821" y2="4079.827818" class="t" />
<line x1="5134.640761" y1="3836.178892" x2="4985.330659" y2="3821.383203" class="t" />
<line x1="2810.715764" y1="2175.284433" x2="2758.384751" y2="2011.145919" class="t" />
<line x1="2869.797656" y1="1980.282720" x2="2758.384751" y2="2011.145919" class="t" />
<line x1="2757.505534" y1="1531.889483" x2="2670.561898" y2="1542.168143" class="t" />
<line x1="5198.320370" y1="3419.716231" x2="5029.582683" y2="3156.032948" class="t" />
<line x1="4139.634962" y1="4083.377492" x2="3947.383391" y2="4074.985846" class="t" />
<line x1="5444.752310" y1="3615.696412" x2="5198.320370" y2="3419.716231" class="t" />
<line x1="4448.165698" y1="2345.078527" x2="4629.658774" y2="2288.414762" class="t" />
<line x1="4362.869967" y1="4206.831473" x2="4139.634962" y2="4083.377492" class="t" />
<line x1="5455.917496" y1="3850.243574" x2="5444.752310" y2="3615.696412" class="t" />
<line x1="4430.149813" y1="2510.235326" x2="4448.165698" y2="2345.078527" class="t" />
<line x1="3432.586013" y1="4108.377175" x2="3597.358613" y2="4113.030517" class="t" />
<line x1="4519.083852" y1="4320.086503" x2="4362.869967" y2="4206.831473" class="t" />
<line x1="4245.715871" y1="2744.428682" x2="4430.149813" y2="2510.235326" class="t" />
<line x1="3262.740245" y1="3777.128540" x2="3432.586013" y2="4108.377175" class="t" />
<line x1="3483.690923" y1="4335.274630" x2="3432.586013" y2="4108.377175" class="t" />
<line x1="4470.917939" y1="4526.640666" x2="4519.083852" y2="4320.086503" class="t" />
<line x1="4051.622838" y1="2833.374397" x2="4245.715871" y2="2744.428682" class="t" />
<line x1="3064.232277" y1="3736.037144" x2="3262.740245" y2="3777.128540" class="t" />
<line x1="3446.670669" y1="4494.333199" x2="3483.690923" y2="4335.274630" class="t" />
<line x1="4622.130271" y1="4717.083987" x2="4470.917939" y2="4526.640666" class="t" />
<line x1="3938.806841" y1="3096.113065" x2="4051.622838" y2="2833.374397" class="t" />
<line x1="2949.603261" y1="3447.938040" x2="3064.232277" y2="3736.037144" class="t" />
<line x1="3237.473665" y1="4376.823552" x2="3446.670669" y2="4494.333199" class="t" />
<line x1="3691.515109" y1="4758.636829" x2="3446.670669" y2="4494.333199" class="t" />
<line x1="4894.386990" y1="4622.835372" x2="4622.130271" y2="4717.083987" class="t" />
<line x1="2973.826498" y1="4031.105530" x2="3237.473665" y2="4376.823552" class="t" />
<line x1="3795.512695" y1="4975.959379" x2="3691.515109" y2="4758.636829" class="t" />
<line x1="5111.247462" y1="4775.993411" x2="4894.386990" y2="4622.835372" class="t" />
<line x1="3674.847826" y1="5074.296315" x2="3795.512695" y2="4975.959379" class="t" />
<line x1="3986.704857" y1="5025.070513" x2="3795.512695" y2="4975.959379" class="t" />
<line x1="3292.788169" y1="4908.077712" x2="3674.847826" y2="5074.296315" class="t" />
<line x1="4091.283619" y1="5235.803905" x2="3986.704857" y2="5025.070513" class="t" />
<line x1="4118.257258" y1="4773.959039" x2="3986.704857" y2="5025.070513" class="t" />
<line x1="3042.871858" y1="4661.842983" x2="3292.788169" y2="4908.077712" class="t" />
<line x1="4050.852133" y1="5405.847846" x2="4091.283619" y2="5235.803905" class="t" />
<line x1="4340.185293" y1="5291.370956" x2="4091.283619" y2="5235.803905" class="t" />
<line x1="4103.926636" y1="4577.578358" x2="4118.257258" y2="4773.959039" class="t" />
<line x1="4333.777258" y1="4694.608226" x2="4118.257258" y2="4773.959039" class="t" />
<line x1="2628.935420" y1="4492.037184" x2="3042.871858" y2="4661.842983" class="t" />
<line x1="4268.856726" y1="5760.087330" x2="4050.852133" y2="5405.847846" class="t" />
<line x1="4552.866867" y1="5512.733786" x2="4340.185293" y2="5291.370956" class="t" />
<line x1="2532.349403" y1="4312.882819" x2="2628.935420" y2="4492.037184" class="t" />
<line x1="4452.468689" y1="4410.448449" x2="4333.777258" y2="4694.608226" class="t" />
<line x1="4605.393933" y1="5762.057679" x2="4552.866867" y2="5512.733786" class="t" />
<line x1="2235.318472" y1="4167.553809" x2="2532.349403" y2="4312.882819" class="t" />
<line x1="4656.847646" y1="4431.013771" x2="4452.468689" y2="4410.448449" class="t" />
<line x1="4892.192625" y1="5930.374315" x2="4605.393933" y2="5762.057679" class="t" />
<line x1="2092.899861" y1="4243.254263" x2="2235.318472" y2="4167.553809" class="t" />
<line x1="4761.599935" y1="4254.524214" x2="4656.847646" y2="4431.013771" class="t" />
<line x1="2497.195604" y1="4617.230033" x2="2628.935420" y2="4492.037184" class="t" />
<line x1="1783.692109" y1="4223.533154" x2="2092.899861" y2="4243.254263" class="t" />
<line x1="4729.935130" y1="3972.409812" x2="4761.599935" y2="4254.524214" class="t" />
<line x1="2258.319660" y1="4514.859700" x2="2497.195604" y2="4617.230033" class="t" />
<line x1="4967.377745" y1="3854.092570" x2="4729.935130" y2="3972.409812" class="t" />
<line x1="5106.108211" y1="3670.090823" x2="4967.377745" y2="3854.092570" class="t" />
<line x1="5080.550064" y1="4021.985919" x2="4967.377745" y2="3854.092570" class="t" />
<line x1="5333.886164" y1="3685.268539" x2="5106.108211" y2="3670.090823" class="t" />
<line x1="5113.883553" y1="3447.537596" x2="5106.108211" y2="3670.090823" class="t" />
<line x1="5049.778588" y1="4302.115660" x2="5080.550064" y2="4021.985919" class="t" />
<line x1="5301.660697" y1="3911.455810" x2="5333.886164" y2="3685.268539" class="t" />
<line x1="5365.225330" y1="3430.105179" x2="5113.883553" y2="3447.537596" class="t" />
<line x1="4978.176943" y1="4415.555381" x2="5049.778588" y2="4302.115660" class="t" />
<line x1="5558.909183" y1="4006.765601" x2="5301.660697" y2="3911.455810" class="t" />
<line x1="4911.998388" y1="4678.633980" x2="4978.176943" y2="4415.555381" class="t" />
<line x1="5517.768660" y1="4242.690091" x2="5558.909183" y2="4006.765601" class="t" />
<line x1="4836.956212" y1="4913.719861" x2="4911.998388" y2="4678.633980" class="t" />
<line x1="5734.031929" y1="4361.896959" x2="5517.768660" y2="4242.690091" class="t" />
<line x1="5294.322783" y1="4425.061287" x2="5517.768660" y2="4242.690091" class="t" />
<line x1="4543.860957" y1="5067.281831" x2="4836.956212" y2="4913.719861" class="t" />
<line x1="5600.708397" y1="4618.716097" x2="5734.031929" y2="4361.896959" class="t" />
<line x1="5990.562081" y1="4385.754501" x2="5734.031929" y2="4361.896959" class="t" />
<line x1="5440.076121" y1="4645.720882" x2="5294.322783" y2="4425.061287" class="t" />
<line x1="4390.367068" y1="5237.263051" x2="4543.860957" y2="5067.281831" class="t" />
<line x1="5836.600550" y1="4725.633428" x2="5600.708397" y2="4618.716097" class="t" />
<line x1="5505.247495" y1="4938.890031" x2="5440.076121" y2="4645.720882" class="t" />
<line x1="4524.681355" y1="5361.814975" x2="4390.367068" y2="5237.263051" class="t" />
<line x1="4063.168026" y1="5325.858441" x2="4390.367068" y2="5237.263051" class="t" />
<line x1="5772.455423" y1="4927.974939" x2="5836.600550" y2="4725.633428" class="t" />
<line x1="6036.904543" y1="4541.173428" x2="5836.600550" y2="4725.633428" class="t" />
<line x1="5676.491892" y1="5182.430026" x2="5505.247495" y2="4938.890031" class="t" />
<line x1="4498.897292" y1="5605.378976" x2="4524.681355" y2="5361.814975" class="t" />
<line x1="6033.580751" y1="4962.351603" x2="5772.455423" y2="4927.974939" class="t" />
<line x1="5952.884127" y1="4375.671159" x2="6036.904543" y2="4541.173428" class="t" />
<line x1="6214.047690" y1="4634.585989" x2="6036.904543" y2="4541.173428" class="t" />
<line x1="4373.180170" y1="5765.682260" x2="4498.897292" y2="5605.378976" class="t" />
<line x1="5950.710376" y1="5216.512586" x2="6033.580751" y2="4962.351603" class="t" />
<line x1="5482.985751" y1="5111.915870" x2="5772.455423" y2="4927.974939" class="t" />
<line x1="6353.806542" y1="4555.055560" x2="6214.047690" y2="4634.585989" class="t" />
<line x1="4452.263551" y1="6142.070952" x2="4373.180170" y2="5765.682260" class="t" />
<line x1="4092.659851" y1="5658.308563" x2="4373.180170" y2="5765.682260" class="t" />
<line x1="6105.618063" y1="5372.052666" x2="5950.710376" y2="5216.512586" class="t" />
<line x1="5663.467030" y1="5394.540464" x2="5950.710376" y2="5216.512586" class="t" />
<line x1="5425.795544" y1="5306.250429" x2="5482.985751" y2="5111.915870" class="t" />
<line x1="6535.683129" y1="4717.162397" x2="6353.806542" y2="4555.055560" class="t" />
<line x1="3950.478358" y1="5976.002969" x2="4092.659851" y2="5658.308563" class="t" />
<line x1="5917.386662" y1="5681.031650" x2="6105.618063" y2="5372.052666" class="t" />
<line x1="5680.275475" y1="5640.793652" x2="5663.467030" y2="5394.540464" class="t" />
<line x1="5262.363129" y1="5509.879213" x2="5425.795544" y2="5306.250429" class="t" />
<line x1="6536.466470" y1="4928.030105" x2="6535.683129" y2="4717.162397" class="t" />
<line x1="6688.119361" y1="4491.439209" x2="6535.683129" y2="4717.162397" class="t" />
<line x1="6087.126171" y1="5799.320504" x2="5917.386662" y2="5681.031650" class="t" />
<line x1="5570.218584" y1="5771.312468" x2="5680.275475" y2="5640.793652" class="t" />
<line x1="4197.807408" y1="6288.046976" x2="4452.263551" y2="6142.070952" class="t" />
<line x1="6367.377010" y1="5023.658360" x2="6536.466470" y2="4928.030105" class="t" />
<line x1="6880.050811" y1="4539.329327" x2="6688.119361" y2="4491.439209" class="t" />
<line x1="6601.265328" y1="4272.100376" x2="6688.119361" y2="4491.439209" class="t" />
<line x1="6969.788281" y1="4815.238103" x2="6880.050811" y2="4539.329327" class="t" />
<line x1="6716.628905" y1="4052.645488" x2="6601.265328" y2="4272.100376" class="t" />
<line x1="7184.573204" y1="4750.980231" x2="6969.788281" y2="4815.238103" class="t" />
<line x1="6511.443928" y1="3963.164408" x2="6716.628905" y2="4052.645488" class="t" />
<line x1="7335.825832" y1="4792.952835" x2="7184.573204" y2="4750.980231" class="t" />
<line x1="6527.045345" y1="3813.640836" x2="6511.443928" y2="3963.164408" class="t" />
<line x1="7325.858075" y1="4957.247931" x2="7335.825832" y2="4792.952835" class="t" />
<line x1="6683.678137" y1="3648.102019" x2="6527.045345" y2="3813.640836" class="t" />
<line x1="6255.749598" y1="3664.919923" x2="6527.045345" y2="3813.640836" class="t" />
<line x1="6406.580286" y1="3498.109600" x2="6683.678137" y2="3648.102019" class="t" />
<line x1="6814.954200" y1="3539.423844" x2="6683.678137" y2="3648.102019" class="t" />
<line x1="6267.647474" y1="3429.742570" x2="6255.749598" y2="3664.919923" class="t" />
<line x1="6983.088699" y1="3497.495178" x2="6814.954200" y2="3539.423844" class="t" />
<line x1="6166.227109" y1="5974.239897" x2="6087.126171" y2="5799.320504" class="t" />
<line x1="7055.776469" y1="3642.068724" x2="6983.088699" y2="3497.495178" class="t" />
<line x1="5713.972969" y1="6081.470897" x2="5570.218584" y2="5771.312468" class="t" />
<line x1="4171.692120" y1="6566.412514" x2="4197.807408" y2="6288.046976" class="t" />
<line x1="5639.884267" y1="6272.512493" x2="5713.972969" y2="6081.470897" class="t" />
<line x1="4391.809619" y1="6787.762319" x2="4171.692120" y2="6566.412514" class="t" />
<line x1="5758.211643" y1="6606.040350" x2="5639.884267" y2="6272.512493" class="t" />
</svg>
