<?xml version="1.0"?>
<svg width="1606" height="2480" version="1.1" xmlns="http://www.w3.org/2000/svg" >
<defs>
<style type="text/css"><![CDATA[
.m {stroke:rgb(255,0,0);stroke-width:3.100000;}
.v {stroke:rgb(0,0,255);stroke-width:3.100000;}
.b {stroke:rgb(0,0,0);stroke-width:6.200000;fill:white}
.n {stroke:rgb(128,128,128);stroke-width:3.100000}
.t {stroke:rgb(0,128,0);stroke-width:3.100000;}
.c {stroke:rgb(128,128,128);stroke-width:3.100000;stroke-dasharray:16.060000, 16.060000;}
]]></style>
</defs>
<path fill="none" style="stroke:black;stroke-width:6.200000;" d=" M 339.382 663.636 L 454.374 827.273 M 454.374 827.273 L 339.382 663.636 M 655.609 563.636 L 540.618 400 M 770.601 727.273 L 655.609 563.636 M 339.382 663.636 L 352.449 332.231 M 151.213 595.868 L 138.146 927.273 M 164.28 264.463 L 151.213 595.868 M 352.449 332.231 L 339.382 663.636 M 454.374 1027.27 L 339.382 1190.91 M 339.382 1190.91 L 454.374 1027.27 M 138.146 927.273 L 339.382 1190.91 M 655.609 1290.91 L 770.601 1127.27 M 540.618 1454.55 L 655.609 1290.91 M 339.382 1190.91 L 540.618 1454.55 M 487.225 1594.99 L 794.598 1470.4 M 974.451 1191.74 L 667.078 1316.32 M 794.598 1470.4 L 487.225 1594.99 M 667.078 1316.32 L 359.706 1440.91 M 1290.68 1291.74 L 1175.69 1455.37 M 1175.69 1455.37 L 1290.68 1291.74 M 1290.68 1291.74 L 974.451 1191.74 M 1491.91 1555.37 L 1606.91 1391.74 M 1606.91 1391.74 L 1290.68 1291.74 M 1376.92 1719.01 L 1491.91 1555.37 M 987.518 1523.14 L 794.598 1470.4 M 794.598 1470.4 L 987.518 1523.14 M 807.665 1801.8 L 1000.59 1854.55 M 614.745 1749.06 L 807.665 1801.8 M 1086.83 827.273 L 770.601 927.273 M 1086.83 1027.27 L 1403.06 927.273 M 770.601 927.273 L 1086.83 827.273 M 1201.82 663.636 L 885.593 563.636 M 885.593 563.636 L 1086.83 827.273 M 1403.06 927.273 L 1201.82 663.636 M 1086.83 827.273 L 885.593 563.636 M 885.593 563.636 L 1201.82 663.636 M 1201.82 663.636 L 1000.59 400 M 487.225 1594.99 L 179.853 1719.58 M 0 1998.24 L 307.372 1873.65 M 179.853 1719.58 L 0 1998.24 M 179.853 1719.58 L 487.225 1594.99 M 359.706 1440.91 L 179.853 1719.58 M 307.372 1873.65 L 614.745 1749.06 M 1086.83 1027.27 L 885.593 1290.91 M 1201.82 1190.91 L 1403.06 927.273 M 1403.06 927.273 L 1086.83 1027.27 M 1000.59 1454.55 L 1201.82 1190.91 M 885.593 1290.91 L 1086.83 1027.27 M 684.357 1554.55 L 684.357 1754.55 M 684.357 1754.55 L 684.357 1554.55 M 1000.59 1654.55 L 1000.59 1454.55 M 1000.59 1854.55 L 1000.59 1654.55 M 569.365 1390.91 L 368.13 1654.55 M 582.433 1059.5 L 381.197 1323.14 M 381.197 1323.14 L 569.365 1390.91 M 381.197 1985.95 L 569.365 1918.18 M 368.13 1654.55 L 381.197 1985.95 M 569.365 1918.18 L 582.433 2249.59 M 582.433 2249.59 L 770.601 2181.82 M 770.601 1127.27 L 582.433 1059.5 M 684.357 1754.55 L 569.365 1918.18 M 569.365 1918.18 L 684.357 1754.55 M 1188.75 1786.78 L 1201.82 2118.18 M 1403.06 2381.82 L 1389.99 2050.41 M 1201.82 2118.18 L 1403.06 2381.82 M 1201.82 2118.18 L 1188.75 1786.78 M 1389.99 2050.41 L 1376.92 1719.01 M 1201.82 2118.18 L 885.593 2018.18 M 1403.06 2381.82 L 1201.82 2118.18 M 770.601 2181.82 L 1086.83 2281.82 M 885.593 2018.18 L 1201.82 2118.18 M 1086.83 2281.82 L 770.601 2381.82 M 770.601 2381.82 L 1086.83 2481.82 M 1086.83 2481.82 L 1403.06 2381.82 M 540.618 400 L 553.685 68.595 M 553.685 68.595 L 352.449 332.231 M 352.449 332.231 L 365.516 0.826446 M 365.516 0.826446 L 164.28 264.463 M 201.344 810.068 L 21.4908 1088.73 M 21.4908 1088.73 L 34.5581 1420.14 M 34.5581 1420.14 L 214.411 1141.47 M 21.4908 1088.73 L 201.344 810.068 M 8.42352 757.325 L 21.4908 1088.73 M 214.411 1141.47 L 394.264 862.81 M 569.365 463.636 L 381.197 531.405 M 381.197 531.405 L 569.365 463.636 M 582.433 795.041 L 770.601 727.273 M 394.264 862.81 L 582.433 795.041 M 381.197 531.405 L 188.277 478.663 M 368.13 200 L 188.277 478.663 M 188.277 478.663 L 381.197 531.405 M 188.277 478.663 L 8.42352 757.325 M 684.357 100 L 684.357 300 M 684.357 300 L 684.357 100 M 684.357 100 L 368.13 200 M 1000.59 200 L 1000.59 0 M 1000.59 0 L 684.357 100 M 1000.59 400 L 1000.59 200" />
<path fill="none" class="c" d=" M 770.601 1127.27 L 770.601 927.273 M 454.374 827.273 L 138.146 927.273 M 138.146 927.273 L 454.374 1027.27 M 454.374 1027.27 L 770.601 1127.27 M 770.601 927.273 L 770.601 727.273 M 770.601 727.273 L 454.374 827.273 M 1086.83 827.273 L 770.601 727.273 M 885.593 563.636 L 770.601 727.273 M 569.365 463.636 L 770.601 727.273 M 1000.59 400 L 684.357 300 M 381.197 531.405 L 394.264 862.81 M 684.357 300 L 368.13 200 M 368.13 200 L 569.365 463.636 M 368.13 200 L 381.197 531.405 M 8.42352 757.325 L 201.344 810.068 M 885.593 563.636 L 1000.59 400 M 201.344 810.068 L 394.264 862.81 M 1403.06 927.273 L 1086.83 827.273 M 770.601 1127.27 L 1086.83 1027.27 M 770.601 1127.27 L 885.593 1290.91 M 770.601 1127.27 L 569.365 1390.91 M 684.357 1554.55 L 1000.59 1454.55 M 684.357 1754.55 L 1000.59 1854.55 M 569.365 1918.18 L 770.601 2181.82 M 1000.59 1454.55 L 885.593 1290.91 M 368.13 1654.55 L 684.357 1554.55 M 368.13 1654.55 L 684.357 1754.55 M 368.13 1654.55 L 569.365 1918.18 M 885.593 2018.18 L 1000.59 1854.55 M 770.601 2181.82 L 885.593 2018.18 M 1201.82 2118.18 L 1000.59 1854.55 M 1188.75 1786.78 L 1000.59 1854.55 M 987.518 1523.14 L 1000.59 1854.55 M 1188.75 1786.78 L 1376.92 1719.01 M 974.451 1191.74 L 987.518 1523.14 M 1175.69 1455.37 L 974.451 1191.74 M 1376.92 1719.01 L 1175.69 1455.37 M 974.451 1191.74 L 794.598 1470.4 M 339.382 663.636 L 138.146 927.273 M 540.618 400 L 339.382 663.636 M 540.618 400 L 352.449 332.231 M 359.706 1440.91 L 487.225 1594.99 M 794.598 1470.4 L 614.745 1749.06 M 487.225 1594.99 L 614.745 1749.06 M 352.449 332.231 L 164.28 264.463 M 1086.83 2281.82 L 1403.06 2381.82" />
</svg>
