<?xml version="1.0"?>
<svg width="4435" height="4327" version="1.1" xmlns="http://www.w3.org/2000/svg" >
<defs>
<style type="text/css"><![CDATA[
.m {stroke:rgb(255,0,0);stroke-width:5.543750;}
.v {stroke:rgb(0,0,255);stroke-width:5.543750;}
.b {stroke:rgb(0,0,0);stroke-width:11.087500;fill:white}
.n {stroke:rgb(128,128,128);stroke-width:5.543750}
.t {stroke:rgb(0,128,0);stroke-width:5.543750;}
.c {stroke:rgb(128,128,128);stroke-width:5.543750;stroke-dasharray:44.350000, 44.350000;}
]]></style>
</defs>
<path fill="none" style="stroke:black;stroke-width:11.087500;" d=" M 2204.8 1420.14 L 2521.03 1520.14 M 2521.03 1320.14 L 2204.8 1420.14 M 2837.26 1220.14 L 2521.03 1320.14 M 517.464 3466.72 L 316.228 3203.08 M 316.228 3203.08 L 0 3103.08 M 0 3103.08 L 201.236 3366.72 M 316.228 3203.08 L 517.464 3466.72 M 632.456 3303.08 L 316.228 3203.08 M 201.236 3366.72 L 402.472 3630.35 M 2419.11 2015.18 L 2406.04 1683.77 M 2204.8 1420.14 L 2217.87 1751.54 M 2406.04 1683.77 L 2419.11 2015.18 M 2217.87 1751.54 L 2230.94 2082.95 M 2521.03 1520.14 L 2406.04 1683.77 M 2406.04 1683.77 L 2521.03 1520.14 M 2521.03 1520.14 L 2204.8 1420.14 M 2722.27 1783.77 L 2837.26 1620.14 M 2607.28 1947.41 L 2722.27 1783.77 M 1569.73 2873.85 L 1381.57 2941.62 M 1381.57 2941.62 L 1569.73 2873.85 M 1582.8 3205.26 L 1770.97 3137.49 M 1394.63 3273.03 L 1582.8 3205.26 M 1201.71 3220.29 L 1381.57 2941.62 M 1368.5 2610.22 L 1188.65 2888.88 M 1381.57 2941.62 L 1201.71 3220.29 M 1188.65 2888.88 L 1008.79 3167.54 M 1684.73 2510.22 L 1684.73 2710.22 M 1684.73 2710.22 L 1684.73 2510.22 M 1684.73 2510.22 L 1368.5 2610.22 M 2000.95 2610.22 L 2000.95 2410.22 M 2000.95 2410.22 L 1684.73 2510.22 M 1885.96 2973.85 L 2000.95 2810.22 M 1770.97 3137.49 L 1885.96 2973.85 M 3153.49 1520.14 L 3153.49 1320.14 M 3153.49 1320.14 L 2837.26 1420.14 M 2620.34 3733.36 L 2432.17 3801.13 M 2633.41 4064.76 L 2620.34 3733.36 M 2837.26 1620.14 L 3153.49 1520.14 M 2837.26 1420.14 L 3153.49 1320.14 M 3153.49 1320.14 L 3268.48 1156.5 M 2317.18 4164.76 L 2432.17 4328.4 M 2432.17 4328.4 L 2633.41 4064.76 M 3268.48 1156.5 L 3456.65 1088.73 M 2317.18 3964.76 L 2317.18 4164.76 M 3255.41 825.094 L 3067.24 892.863 M 3443.58 757.325 L 3255.41 825.094 M 2115.95 3701.13 L 2317.18 3964.76 M 3456.65 1088.73 L 3636.5 810.068 M 2432.17 3801.13 L 2230.94 3537.49 M 4119.51 100 L 4119.51 300 M 4119.51 300 L 4119.51 100 M 4119.51 100 L 3803.29 200 M 4435.74 0 L 4119.51 100 M 4435.74 200 L 4435.74 0 M 4435.74 400 L 4435.74 200 M 3636.5 810.068 L 3816.35 531.405 M 3803.29 200 L 3623.43 478.663 M 1914.71 3437.49 L 2115.95 3701.13 M 3623.43 478.663 L 3443.58 757.325 M 1914.71 3237.49 L 1914.71 3437.49 M 3816.35 531.405 L 4004.52 463.636 M 2230.94 3337.49 L 2230.94 3137.49 M 2230.94 3537.49 L 2230.94 3337.49 M 4004.52 463.636 L 4320.75 563.636 M 4320.75 563.636 L 4435.74 400 M 2115.95 2973.85 L 1914.71 3237.49 M 2000.95 2410.22 L 2000.95 2610.22 M 2317.18 2710.22 L 2115.95 2973.85 M 2432.17 2873.85 L 2633.41 2610.22 M 2230.94 3137.49 L 2432.17 2873.85 M 2000.95 2810.22 L 2115.95 2973.85 M 2115.95 2973.85 L 2317.18 2710.22 M 2419.11 2015.18 L 2432.17 2346.58 M 2633.41 2610.22 L 2620.34 2278.81 M 2432.17 2346.58 L 2419.11 2015.18 M 2620.34 2278.81 L 2607.28 1947.41 M 2317.18 2510.22 L 2432.17 2346.58 M 2432.17 2346.58 L 2317.18 2510.22 M 2115.95 2246.58 L 2000.95 2410.22 M 2230.94 2082.95 L 2115.95 2246.58 M 833.691 3566.72 L 517.464 3466.72 M 718.699 3730.35 L 1034.93 3830.35 M 402.472 3630.35 L 718.699 3730.35 M 517.464 3466.72 L 833.691 3566.72 M 833.691 3566.72 L 1021.86 3498.95 M 1021.86 3498.95 L 833.691 3566.72 M 820.624 3235.31 L 632.456 3303.08 M 1008.79 3167.54 L 820.624 3235.31 M 1201.71 3220.29 L 1021.86 3498.95 M 1034.93 3830.35 L 1214.78 3551.69 M 1021.86 3498.95 L 1201.71 3220.29 M 1214.78 3551.69 L 1394.63 3273.03 M 2636.02 956.499 L 2952.25 1056.5 M 2751.02 792.863 L 2434.79 692.863 M 2434.79 692.863 L 2636.02 956.499 M 3067.24 892.863 L 2751.02 792.863 M 2952.25 1056.5 L 2636.02 956.499 M 2636.02 956.499 L 2837.26 1220.14" />
<path fill="none" class="c" d=" M 2317.18 2710.22 L 2633.41 2610.22 M 2633.41 2610.22 L 2317.18 2510.22 M 2000.95 2610.22 L 2000.95 2810.22 M 2000.95 2810.22 L 2317.18 2710.22 M 2317.18 2510.22 L 2000.95 2410.22 M 2115.95 2973.85 L 2230.94 3137.49 M 2633.41 2610.22 L 2432.17 2346.58 M 1684.73 2710.22 L 2000.95 2810.22 M 1914.71 3237.49 L 2230.94 3137.49 M 2432.17 2346.58 L 2230.94 2082.95 M 2607.28 1947.41 L 2419.11 2015.18 M 2607.28 1947.41 L 2406.04 1683.77 M 1368.5 2610.22 L 1569.73 2873.85 M 1684.73 2710.22 L 1368.5 2610.22 M 1569.73 2873.85 L 1770.97 3137.49 M 2419.11 2015.18 L 2230.94 2082.95 M 1368.5 2610.22 L 1381.57 2941.62 M 1914.71 3437.49 L 2230.94 3537.49 M 2837.26 1620.14 L 2521.03 1520.14 M 2837.26 1620.14 L 2837.26 1420.14 M 2406.04 1683.77 L 2204.8 1420.14 M 1381.57 2941.62 L 1394.63 3273.03 M 1201.71 3220.29 L 1394.63 3273.03 M 1008.79 3167.54 L 1201.71 3220.29 M 2115.95 3701.13 L 2230.94 3537.49 M 1008.79 3167.54 L 1021.86 3498.95 M 1021.86 3498.95 L 1034.93 3830.35 M 2837.26 1420.14 L 2837.26 1220.14 M 3153.49 1320.14 L 2837.26 1220.14 M 2952.25 1056.5 L 2837.26 1220.14 M 2633.41 4064.76 L 2432.17 3801.13 M 2317.18 3964.76 L 2633.41 4064.76 M 833.691 3566.72 L 1034.93 3830.35 M 632.456 3303.08 L 833.691 3566.72 M 3268.48 1156.5 L 3067.24 892.863 M 3067.24 892.863 L 2952.25 1056.5 M 2317.18 4164.76 L 2633.41 4064.76 M 632.456 3303.08 L 517.464 3466.72 M 3456.65 1088.73 L 3443.58 757.325 M 3636.5 810.068 L 3443.58 757.325 M 517.464 3466.72 L 402.472 3630.35 M 3816.35 531.405 L 3803.29 200 M 4004.52 463.636 L 3803.29 200 M 4119.51 300 L 3803.29 200 M 4435.74 400 L 4119.51 300" />
<line x1="2211.772865" y1="2610.217881" x2="2422.591376" y2="2610.217881" class="t" />
<line x1="2460.922014" y1="2731.430003" x2="2422.591376" y2="2610.217881" class="t" />
<line x1="2288.434141" y1="2852.642124" x2="2460.922014" y2="2731.430003" class="t" />
<line x1="2460.922014" y1="2489.005760" x2="2422.591376" y2="2610.217881" class="t" />
<line x1="2106.363610" y1="2710.217881" x2="2211.772865" y2="2610.217881" class="t" />
<line x1="2106.363610" y1="2510.217881" x2="2211.772865" y2="2610.217881" class="t" />
<line x1="1895.545099" y1="2710.217881" x2="2106.363610" y2="2710.217881" class="t" />
<line x1="2144.694248" y1="2831.430003" x2="2106.363610" y2="2710.217881" class="t" />
<line x1="2144.694248" y1="2389.005760" x2="2106.363610" y2="2510.217881" class="t" />
<line x1="2259.686163" y1="2995.066366" x2="2288.434141" y2="2852.642124" class="t" />
<line x1="2087.198290" y1="3116.278487" x2="2259.686163" y2="2995.066366" class="t" />
<line x1="2561.975515" y1="2411.870774" x2="2460.922014" y2="2489.005760" class="t" />
<line x1="2288.434141" y1="2367.793639" x2="2144.694248" y2="2389.005760" class="t" />
<line x1="1790.135843" y1="2610.217881" x2="1895.545099" y2="2710.217881" class="t" />
<line x1="1857.214461" y1="2831.430003" x2="1895.545099" y2="2710.217881" class="t" />
<line x1="1713.474567" y1="2852.642124" x2="1857.214461" y2="2831.430003" class="t" />
<line x1="2125.528929" y1="3237.490609" x2="2087.198290" y2="3116.278487" class="t" />
<line x1="2490.541143" y1="2213.523666" x2="2561.975515" y2="2411.870774" class="t" />
<line x1="2548.908252" y1="2080.465815" x2="2490.541143" y2="2213.523666" class="t" />
<line x1="2259.686163" y1="2225.369396" x2="2288.434141" y2="2367.793639" class="t" />
<line x1="2360.739664" y1="2148.234410" x2="2259.686163" y2="2225.369396" class="t" />
<line x1="2477.473880" y1="1882.118708" x2="2548.908252" y2="2080.465815" class="t" />
<line x1="2578.527381" y1="1804.983722" x2="2477.473880" y2="1882.118708" class="t" />
<line x1="1895.545099" y1="2510.217881" x2="1790.135843" y2="2610.217881" class="t" />
<line x1="1540.986695" y1="2731.430003" x2="1713.474567" y2="2852.642124" class="t" />
<line x1="1742.222546" y1="2995.066366" x2="1713.474567" y2="2852.642124" class="t" />
<line x1="1439.933194" y1="2808.564989" x2="1540.986695" y2="2731.430003" class="t" />
<line x1="1579.317333" y1="2610.217881" x2="1540.986695" y2="2731.430003" class="t" />
<line x1="1641.169045" y1="3072.201352" x2="1742.222546" y2="2995.066366" class="t" />
<line x1="2020.119673" y1="3337.490609" x2="2125.528929" y2="3237.490609" class="t" />
<line x1="2289.305292" y1="1949.887303" x2="2360.739664" y2="2148.234410" class="t" />
<line x1="2347.672401" y1="1816.829452" x2="2289.305292" y2="1949.887303" class="t" />
<line x1="2549.779403" y1="1662.559479" x2="2578.527381" y2="1804.983722" class="t" />
<line x1="2693.519296" y1="1641.347358" x2="2549.779403" y2="1662.559479" class="t" />
<line x1="1312.903557" y1="2813.573754" x2="1439.933194" y2="2808.564989" class="t" />
<line x1="1511.367565" y1="3006.912096" x2="1641.169045" y2="3072.201352" class="t" />
<line x1="1257.308293" y1="3016.929627" x2="1312.903557" y2="2813.573754" class="t" />
<line x1="2125.528929" y1="3437.490609" x2="2020.119673" y2="3337.490609" class="t" />
<line x1="2087.198290" y1="3558.702730" x2="2125.528929" y2="3437.490609" class="t" />
<line x1="2731.849935" y1="1520.135237" x2="2693.519296" y2="1641.347358" class="t" />
<line x1="2942.668445" y1="1520.135237" x2="2731.849935" y2="1520.135237" class="t" />
<line x1="2276.238029" y1="1618.482344" x2="2347.672401" y2="1816.829452" class="t" />
<line x1="2377.291530" y1="1541.347358" x2="2276.238029" y2="1618.482344" class="t" />
<line x1="1453.000457" y1="3139.969947" x2="1511.367565" y2="3006.912096" class="t" />
<line x1="1325.970821" y1="3144.978713" x2="1453.000457" y2="3139.969947" class="t" />
<line x1="1133.050500" y1="3092.236414" x2="1257.308293" y2="3016.929627" class="t" />
<line x1="1270.375556" y1="3348.334586" x2="1325.970821" y2="3144.978713" class="t" />
<line x1="1077.455236" y1="3295.592287" x2="1133.050500" y2="3092.236414" class="t" />
<line x1="3048.077701" y1="1420.135237" x2="2942.668445" y2="1520.135237" class="t" />
<line x1="2259.686163" y1="3679.914851" x2="2087.198290" y2="3558.702730" class="t" />
<line x1="950.425600" y1="3300.601052" x2="1077.455236" y2="3295.592287" class="t" />
<line x1="1146.117764" y1="3423.641372" x2="1270.375556" y2="3348.334586" class="t" />
<line x1="2626.440679" y1="1420.135237" x2="2731.849935" y2="1520.135237" class="t" />
<line x1="2288.434141" y1="3822.339093" x2="2259.686163" y2="3679.914851" class="t" />
<line x1="892.058491" y1="3433.658903" x2="950.425600" y2="3300.601052" class="t" />
<line x1="1090.522499" y1="3626.997245" x2="1146.117764" y2="3423.641372" class="t" />
<line x1="963.492863" y1="3632.006011" x2="1090.522499" y2="3626.997245" class="t" />
<line x1="2415.622169" y1="1420.135237" x2="2626.440679" y2="1420.135237" class="t" />
<line x1="2731.849935" y1="1320.135237" x2="2626.440679" y2="1420.135237" class="t" />
<line x1="2942.668445" y1="1320.135237" x2="2731.849935" y2="1320.135237" class="t" />
<line x1="2980.999084" y1="1198.923115" x2="2942.668445" y2="1320.135237" class="t" />
<line x1="3124.738977" y1="1177.710994" x2="2980.999084" y2="1198.923115" class="t" />
<line x1="2808.511211" y1="1077.710994" x2="2980.999084" y2="1198.923115" class="t" />
<line x1="2460.922014" y1="3943.551215" x2="2288.434141" y2="3822.339093" class="t" />
<line x1="2561.975515" y1="3866.416228" x2="2460.922014" y2="3943.551215" class="t" />
<line x1="2422.591376" y1="4064.763336" x2="2460.922014" y2="3943.551215" class="t" />
<line x1="762.257012" y1="3368.369647" x2="892.058491" y2="3433.658903" class="t" />
<line x1="862.439362" y1="3709.140997" x2="963.492863" y2="3632.006011" class="t" />
<line x1="661.203511" y1="3445.504633" x2="762.257012" y2="3368.369647" class="t" />
<line x1="3095.990998" y1="1035.286752" x2="3124.738977" y2="1177.710994" class="t" />
<line x1="3197.044499" y1="958.151766" x2="3095.990998" y2="1035.286752" class="t" />
<line x1="2923.503126" y1="914.074631" x2="3095.990998" y2="1035.286752" class="t" />
<line x1="2460.922014" y1="4185.975457" x2="2422.591376" y2="4064.763336" class="t" />
<line x1="3326.845979" y1="1023.441022" x2="3197.044499" y2="958.151766" class="t" />
<line x1="689.951489" y1="3587.928876" x2="862.439362" y2="3709.140997" class="t" />
<line x1="488.715638" y1="3324.292512" x2="661.203511" y2="3445.504633" class="t" />
<line x1="2779.763232" y1="935.286752" x2="2923.503126" y2="914.074631" class="t" />
<line x1="3385.213088" y1="890.383171" x2="3326.845979" y2="1023.441022" class="t" />
<line x1="3512.242724" y1="885.374405" x2="3385.213088" y2="890.383171" class="t" />
<line x1="3567.837988" y1="682.018532" x2="3512.242724" y2="885.374405" class="t" />
<line x1="3692.095781" y1="606.711746" x2="3567.837988" y2="682.018532" class="t" />
<line x1="546.211596" y1="3609.140997" x2="689.951489" y2="3587.928876" class="t" />
<line x1="373.723723" y1="3487.928876" x2="546.211596" y2="3609.140997" class="t" />
<line x1="2607.275360" y1="814.074631" x2="2779.763232" y2="935.286752" class="t" />
<line x1="344.975745" y1="3345.504633" x2="373.723723" y2="3487.928876" class="t" />
<line x1="3747.691045" y1="403.355873" x2="3692.095781" y2="606.711746" class="t" />
<line x1="3874.720681" y1="398.347107" x2="3747.691045" y2="403.355873" class="t" />
<line x1="3975.774182" y1="321.212121" x2="3874.720681" y2="398.347107" class="t" />
<line x1="4014.104821" y1="200.000000" x2="3975.774182" y2="321.212121" class="t" />
<line x1="4148.262055" y1="442.424242" x2="3975.774182" y2="321.212121" class="t" />
<line x1="172.487872" y1="3224.292512" x2="344.975745" y2="3345.504633" class="t" />
<line x1="4292.001948" y1="421.212121" x2="4148.262055" y2="442.424242" class="t" />
<line x1="4330.332587" y1="300.000000" x2="4292.001948" y2="421.212121" class="t" />
<line x1="4224.923331" y1="200.000000" x2="4330.332587" y2="300.000000" class="t" />
<line x1="4330.332587" y1="100.000000" x2="4224.923331" y2="200.000000" class="t" />
</svg>
