<?xml version="1.0"?>
<svg width="4435" height="4327" version="1.1" xmlns="http://www.w3.org/2000/svg" >
<defs>
<style type="text/css"><![CDATA[
.m {stroke:rgb(255,0,0);stroke-width:5.543750;}
.v {stroke:rgb(0,0,255);stroke-width:5.543750;}
.b {stroke:rgb(0,0,0);stroke-width:11.087500;fill:white}
.n {stroke:rgb(128,128,128);stroke-width:5.543750}
.t {stroke:rgb(0,128,0);stroke-width:5.543750;}
.c {stroke:rgb(128,128,128);stroke-width:5.543750;stroke-dasharray:44.350000, 44.350000;}
]]></style>
</defs>
<line x1="2521.031424" y1="1320.135237" x2="2521.031424" y2="1520.135237" class="n" style="stroke-width:1.108750;" />
<line x1="2521.031424" y1="1520.135237" x2="2837.259190" y2="1420.135237" class="n" style="stroke-width:1.108750;" />
<line x1="2837.259190" y1="1420.135237" x2="2521.031424" y2="1320.135237" class="n" style="stroke-width:1.108750;" />
<line x1="2204.803658" y1="1420.135237" x2="2521.031424" y2="1520.135237" class="m" style="stroke-width:8.375076;" />
<line x1="2521.031424" y1="1320.135237" x2="2204.803658" y2="1420.135237" class="m" style="stroke-width:8.375076;" />
<line x1="2837.259190" y1="1420.135237" x2="2837.259190" y2="1220.135237" class="v" style="stroke-width:5.690483;" />
<line x1="2837.259190" y1="1220.135237" x2="2521.031424" y2="1320.135237" class="m" style="stroke-width:8.375076;" />
<line x1="2837.259190" y1="1620.135237" x2="2837.259190" y2="1420.135237" class="v" style="stroke-width:5.690483;" />
<line x1="2521.031424" y1="1520.135237" x2="2837.259190" y2="1620.135237" class="m" style="stroke-width:8.375076;" />
<line x1="517.463617" y1="3466.716754" x2="316.227766" y2="3203.080391" class="n" style="stroke-width:1.108750;" />
<line x1="316.227766" y1="3203.080391" x2="201.235851" y2="3366.716754" class="n" style="stroke-width:1.108750;" />
<line x1="201.235851" y1="3366.716754" x2="517.463617" y2="3466.716754" class="n" style="stroke-width:1.108750;" />
<line x1="316.227766" y1="3203.080391" x2="0.000000" y2="3103.080391" class="m" style="stroke-width:8.375076;" />
<line x1="0.000000" y1="3103.080391" x2="201.235851" y2="3366.716754" class="m" style="stroke-width:8.375076;" />
<line x1="517.463617" y1="3466.716754" x2="632.455532" y2="3303.080391" class="v" style="stroke-width:5.690483;" />
<line x1="632.455532" y1="3303.080391" x2="316.227766" y2="3203.080391" class="m" style="stroke-width:8.375076;" />
<line x1="402.471702" y1="3630.353118" x2="517.463617" y2="3466.716754" class="v" style="stroke-width:5.690483;" />
<line x1="201.235851" y1="3366.716754" x2="402.471702" y2="3630.353118" class="m" style="stroke-width:8.375076;" />
<line x1="2419.106772" y1="2015.176559" x2="2406.039509" y2="1683.771600" class="n" style="stroke-width:1.108750;" />
<line x1="2406.039509" y1="1683.771600" x2="2217.870921" y2="1751.540195" class="n" style="stroke-width:1.108750;" />
<line x1="2217.870921" y1="1751.540195" x2="2419.106772" y2="2015.176559" class="n" style="stroke-width:1.108750;" />
<line x1="2406.039509" y1="1683.771600" x2="2204.803658" y2="1420.135237" class="m" style="stroke-width:8.375076;" />
<line x1="2204.803658" y1="1420.135237" x2="2217.870921" y2="1751.540195" class="m" style="stroke-width:8.375076;" />
<line x1="2419.106772" y1="2015.176559" x2="2607.275360" y2="1947.407964" class="v" style="stroke-width:5.690483;" />
<line x1="2607.275360" y1="1947.407964" x2="2406.039509" y2="1683.771600" class="m" style="stroke-width:8.375076;" />
<line x1="2230.938184" y1="2082.945154" x2="2419.106772" y2="2015.176559" class="v" style="stroke-width:5.690483;" />
<line x1="2217.870921" y1="1751.540195" x2="2230.938184" y2="2082.945154" class="m" style="stroke-width:8.375076;" />
<line x1="2722.267275" y1="1783.771600" x2="2521.031424" y2="1520.135237" class="n" style="stroke-width:1.108750;" />
<line x1="2521.031424" y1="1520.135237" x2="2406.039509" y2="1683.771600" class="n" style="stroke-width:1.108750;" />
<line x1="2406.039509" y1="1683.771600" x2="2722.267275" y2="1783.771600" class="n" style="stroke-width:1.108750;" />
<line x1="2722.267275" y1="1783.771600" x2="2837.259190" y2="1620.135237" class="v" style="stroke-width:5.690483;" />
<line x1="2607.275360" y1="1947.407964" x2="2722.267275" y2="1783.771600" class="v" style="stroke-width:5.690483;" />
<line x1="1582.801936" y1="3205.259204" x2="1569.734673" y2="2873.854245" class="n" style="stroke-width:1.108750;" />
<line x1="1569.734673" y1="2873.854245" x2="1381.566085" y2="2941.622840" class="n" style="stroke-width:1.108750;" />
<line x1="1381.566085" y1="2941.622840" x2="1582.801936" y2="3205.259204" class="n" style="stroke-width:1.108750;" />
<line x1="1569.734673" y1="2873.854245" x2="1368.498822" y2="2610.217881" class="m" style="stroke-width:8.375076;" />
<line x1="1368.498822" y1="2610.217881" x2="1381.566085" y2="2941.622840" class="m" style="stroke-width:8.375076;" />
<line x1="1582.801936" y1="3205.259204" x2="1770.970524" y2="3137.490609" class="v" style="stroke-width:5.690483;" />
<line x1="1770.970524" y1="3137.490609" x2="1569.734673" y2="2873.854245" class="m" style="stroke-width:8.375076;" />
<line x1="1394.633348" y1="3273.027799" x2="1582.801936" y2="3205.259204" class="v" style="stroke-width:5.690483;" />
<line x1="1381.566085" y1="2941.622840" x2="1394.633348" y2="3273.027799" class="m" style="stroke-width:8.375076;" />
<line x1="1381.566085" y1="2941.622840" x2="1188.645765" y2="2888.880541" class="n" style="stroke-width:1.108750;" />
<line x1="1188.645765" y1="2888.880541" x2="1201.713028" y2="3220.285500" class="n" style="stroke-width:1.108750;" />
<line x1="1201.713028" y1="3220.285500" x2="1381.566085" y2="2941.622840" class="n" style="stroke-width:1.108750;" />
<line x1="1368.498822" y1="2610.217881" x2="1188.645765" y2="2888.880541" class="m" style="stroke-width:8.375076;" />
<line x1="1201.713028" y1="3220.285500" x2="1394.633348" y2="3273.027799" class="v" style="stroke-width:5.690483;" />
<line x1="1008.792708" y1="3167.543201" x2="1201.713028" y2="3220.285500" class="v" style="stroke-width:5.690483;" />
<line x1="1188.645765" y1="2888.880541" x2="1008.792708" y2="3167.543201" class="m" style="stroke-width:8.375076;" />
<line x1="1684.726588" y1="2510.217881" x2="1684.726588" y2="2710.217881" class="n" style="stroke-width:1.108750;" />
<line x1="1684.726588" y1="2710.217881" x2="2000.954354" y2="2610.217881" class="n" style="stroke-width:1.108750;" />
<line x1="2000.954354" y1="2610.217881" x2="1684.726588" y2="2510.217881" class="n" style="stroke-width:1.108750;" />
<line x1="1368.498822" y1="2610.217881" x2="1684.726588" y2="2710.217881" class="m" style="stroke-width:8.375076;" />
<line x1="1684.726588" y1="2510.217881" x2="1368.498822" y2="2610.217881" class="m" style="stroke-width:8.375076;" />
<line x1="2000.954354" y1="2610.217881" x2="2000.954354" y2="2410.217881" class="v" style="stroke-width:5.690483;" />
<line x1="2000.954354" y1="2410.217881" x2="1684.726588" y2="2510.217881" class="m" style="stroke-width:8.375076;" />
<line x1="2000.954354" y1="2810.217881" x2="2000.954354" y2="2610.217881" class="v" style="stroke-width:5.690483;" />
<line x1="1684.726588" y1="2710.217881" x2="2000.954354" y2="2810.217881" class="m" style="stroke-width:8.375076;" />
<line x1="1885.962439" y1="2973.854245" x2="1684.726588" y2="2710.217881" class="n" style="stroke-width:1.108750;" />
<line x1="1684.726588" y1="2710.217881" x2="1569.734673" y2="2873.854245" class="n" style="stroke-width:1.108750;" />
<line x1="1569.734673" y1="2873.854245" x2="1885.962439" y2="2973.854245" class="n" style="stroke-width:1.108750;" />
<line x1="1885.962439" y1="2973.854245" x2="2000.954354" y2="2810.217881" class="v" style="stroke-width:5.690483;" />
<line x1="1770.970524" y1="3137.490609" x2="1885.962439" y2="2973.854245" class="v" style="stroke-width:5.690483;" />
<line x1="3153.486956" y1="1520.135237" x2="3153.486956" y2="1320.135237" class="n" style="stroke-width:1.108750;" />
<line x1="3153.486956" y1="1320.135237" x2="2837.259190" y2="1420.135237" class="n" style="stroke-width:1.108750;" />
<line x1="2837.259190" y1="1420.135237" x2="3153.486956" y2="1520.135237" class="n" style="stroke-width:1.108750;" />
<line x1="2620.342623" y1="3733.358377" x2="2432.174035" y2="3801.126972" class="n" style="stroke-width:1.108750;" />
<line x1="2432.174035" y1="3801.126972" x2="2633.409886" y2="4064.763336" class="m" style="stroke-width:8.375076;" />
<line x1="2633.409886" y1="4064.763336" x2="2620.342623" y2="3733.358377" class="m" style="stroke-width:8.375076;" />
<line x1="2837.259190" y1="1620.135237" x2="3153.486956" y2="1520.135237" class="m" style="stroke-width:8.375076;" />
<line x1="3153.486956" y1="1320.135237" x2="2837.259190" y2="1220.135237" class="m" style="stroke-width:8.375076;" />
<line x1="3153.486956" y1="1320.135237" x2="3268.478871" y2="1156.498873" class="n" style="stroke-width:1.108750;" />
<line x1="3268.478871" y1="1156.498873" x2="2952.251105" y2="1056.498873" class="n" style="stroke-width:1.108750;" />
<line x1="2952.251105" y1="1056.498873" x2="3153.486956" y2="1320.135237" class="n" style="stroke-width:1.108750;" />
<line x1="2633.409886" y1="4064.763336" x2="2317.182120" y2="4164.763336" class="m" style="stroke-width:8.375076;" />
<line x1="2317.182120" y1="4164.763336" x2="2432.174035" y2="4328.399699" class="n" style="stroke-width:1.108750;" />
<line x1="2432.174035" y1="4328.399699" x2="2633.409886" y2="4064.763336" class="m" style="stroke-width:8.375076;" />
<line x1="2952.251105" y1="1056.498873" x2="2837.259190" y2="1220.135237" class="v" style="stroke-width:5.690483;" />
<line x1="3067.243020" y1="892.862509" x2="2952.251105" y2="1056.498873" class="v" style="stroke-width:5.690483;" />
<line x1="3268.478871" y1="1156.498873" x2="3067.243020" y2="892.862509" class="m" style="stroke-width:8.375076;" />
<line x1="3456.647459" y1="1088.730278" x2="3255.411608" y2="825.093914" class="n" style="stroke-width:1.108750;" />
<line x1="3255.411608" y1="825.093914" x2="3268.478871" y2="1156.498873" class="n" style="stroke-width:1.108750;" />
<line x1="3268.478871" y1="1156.498873" x2="3456.647459" y2="1088.730278" class="n" style="stroke-width:1.108750;" />
<line x1="2633.409886" y1="4064.763336" x2="2317.182120" y2="3964.763336" class="m" style="stroke-width:8.375076;" />
<line x1="2317.182120" y1="3964.763336" x2="2317.182120" y2="4164.763336" class="n" style="stroke-width:1.108750;" />
<line x1="3255.411608" y1="825.093914" x2="3067.243020" y2="892.862509" class="v" style="stroke-width:5.690483;" />
<line x1="3456.647459" y1="1088.730278" x2="3443.580196" y2="757.325319" class="m" style="stroke-width:8.375076;" />
<line x1="3443.580196" y1="757.325319" x2="3255.411608" y2="825.093914" class="v" style="stroke-width:5.690483;" />
<line x1="2115.946269" y1="3701.126972" x2="2317.182120" y2="3964.763336" class="n" style="stroke-width:1.108750;" />
<line x1="2317.182120" y1="3964.763336" x2="2432.174035" y2="3801.126972" class="n" style="stroke-width:1.108750;" />
<line x1="2432.174035" y1="3801.126972" x2="2115.946269" y2="3701.126972" class="n" style="stroke-width:1.108750;" />
<line x1="3456.647459" y1="1088.730278" x2="3636.500516" y2="810.067618" class="n" style="stroke-width:1.108750;" />
<line x1="3636.500516" y1="810.067618" x2="3443.580196" y2="757.325319" class="v" style="stroke-width:5.690483;" />
<line x1="2230.938184" y1="3537.490609" x2="2115.946269" y2="3701.126972" class="v" style="stroke-width:5.690483;" />
<line x1="2432.174035" y1="3801.126972" x2="2230.938184" y2="3537.490609" class="m" style="stroke-width:8.375076;" />
<line x1="4435.741842" y1="200.000000" x2="4119.514076" y2="100.000000" class="n" style="stroke-width:1.108750;" />
<line x1="4119.514076" y1="100.000000" x2="4119.514076" y2="300.000000" class="n" style="stroke-width:1.108750;" />
<line x1="4119.514076" y1="300.000000" x2="4435.741842" y2="200.000000" class="n" style="stroke-width:1.108750;" />
<line x1="3803.286310" y1="200.000000" x2="4119.514076" y2="300.000000" class="m" style="stroke-width:8.375076;" />
<line x1="4119.514076" y1="100.000000" x2="3803.286310" y2="200.000000" class="m" style="stroke-width:8.375076;" />
<line x1="4435.741842" y1="0.000000" x2="4119.514076" y2="100.000000" class="m" style="stroke-width:8.375076;" />
<line x1="4435.741842" y1="200.000000" x2="4435.741842" y2="0.000000" class="v" style="stroke-width:5.690483;" />
<line x1="4119.514076" y1="300.000000" x2="4435.741842" y2="400.000000" class="m" style="stroke-width:8.375076;" />
<line x1="4435.741842" y1="400.000000" x2="4435.741842" y2="200.000000" class="v" style="stroke-width:5.690483;" />
<line x1="3623.433253" y1="478.662660" x2="3636.500516" y2="810.067618" class="n" style="stroke-width:1.108750;" />
<line x1="3636.500516" y1="810.067618" x2="3816.353573" y2="531.404959" class="n" style="stroke-width:1.108750;" />
<line x1="3816.353573" y1="531.404959" x2="3623.433253" y2="478.662660" class="n" style="stroke-width:1.108750;" />
<line x1="3816.353573" y1="531.404959" x2="3803.286310" y2="200.000000" class="m" style="stroke-width:8.375076;" />
<line x1="3803.286310" y1="200.000000" x2="3623.433253" y2="478.662660" class="m" style="stroke-width:8.375076;" />
<line x1="2230.938184" y1="3537.490609" x2="1914.710418" y2="3437.490609" class="m" style="stroke-width:8.375076;" />
<line x1="1914.710418" y1="3437.490609" x2="2115.946269" y2="3701.126972" class="n" style="stroke-width:1.108750;" />
<line x1="3623.433253" y1="478.662660" x2="3443.580196" y2="757.325319" class="m" style="stroke-width:8.375076;" />
<line x1="1914.710418" y1="3437.490609" x2="2230.938184" y2="3337.490609" class="n" style="stroke-width:1.108750;" />
<line x1="2230.938184" y1="3337.490609" x2="1914.710418" y2="3237.490609" class="n" style="stroke-width:1.108750;" />
<line x1="1914.710418" y1="3237.490609" x2="1914.710418" y2="3437.490609" class="n" style="stroke-width:1.108750;" />
<line x1="3816.353573" y1="531.404959" x2="4004.522161" y2="463.636364" class="n" style="stroke-width:1.108750;" />
<line x1="4004.522161" y1="463.636364" x2="3803.286310" y2="200.000000" class="m" style="stroke-width:8.375076;" />
<line x1="2230.938184" y1="3137.490609" x2="1914.710418" y2="3237.490609" class="m" style="stroke-width:8.375076;" />
<line x1="2230.938184" y1="3337.490609" x2="2230.938184" y2="3137.490609" class="v" style="stroke-width:5.690483;" />
<line x1="2230.938184" y1="3537.490609" x2="2230.938184" y2="3337.490609" class="v" style="stroke-width:5.690483;" />
<line x1="4320.749927" y1="563.636364" x2="4119.514076" y2="300.000000" class="n" style="stroke-width:1.108750;" />
<line x1="4119.514076" y1="300.000000" x2="4004.522161" y2="463.636364" class="n" style="stroke-width:1.108750;" />
<line x1="4004.522161" y1="463.636364" x2="4320.749927" y2="563.636364" class="n" style="stroke-width:1.108750;" />
<line x1="4320.749927" y1="563.636364" x2="4435.741842" y2="400.000000" class="v" style="stroke-width:5.690483;" />
<line x1="2230.938184" y1="3137.490609" x2="2115.946269" y2="2973.854245" class="v" style="stroke-width:5.690483;" />
<line x1="2115.946269" y1="2973.854245" x2="1914.710418" y2="3237.490609" class="n" style="stroke-width:1.108750;" />
<line x1="2000.954354" y1="2610.217881" x2="2317.182120" y2="2710.217881" class="n" style="stroke-width:1.108750;" />
<line x1="2317.182120" y1="2710.217881" x2="2317.182120" y2="2510.217881" class="n" style="stroke-width:1.108750;" />
<line x1="2317.182120" y1="2510.217881" x2="2000.954354" y2="2610.217881" class="n" style="stroke-width:1.108750;" />
<line x1="2633.409886" y1="2610.217881" x2="2317.182120" y2="2510.217881" class="m" style="stroke-width:8.375076;" />
<line x1="2317.182120" y1="2710.217881" x2="2633.409886" y2="2610.217881" class="m" style="stroke-width:8.375076;" />
<line x1="2000.954354" y1="2810.217881" x2="2317.182120" y2="2710.217881" class="m" style="stroke-width:8.375076;" />
<line x1="2317.182120" y1="2510.217881" x2="2000.954354" y2="2410.217881" class="m" style="stroke-width:8.375076;" />
<line x1="2317.182120" y1="2710.217881" x2="2115.946269" y2="2973.854245" class="n" style="stroke-width:1.108750;" />
<line x1="2115.946269" y1="2973.854245" x2="2432.174035" y2="2873.854245" class="n" style="stroke-width:1.108750;" />
<line x1="2432.174035" y1="2873.854245" x2="2317.182120" y2="2710.217881" class="n" style="stroke-width:1.108750;" />
<line x1="2432.174035" y1="2873.854245" x2="2633.409886" y2="2610.217881" class="m" style="stroke-width:8.375076;" />
<line x1="2230.938184" y1="3137.490609" x2="2432.174035" y2="2873.854245" class="m" style="stroke-width:8.375076;" />
<line x1="2000.954354" y1="2810.217881" x2="2115.946269" y2="2973.854245" class="v" style="stroke-width:5.690483;" />
<line x1="2620.342623" y1="2278.812923" x2="2419.106772" y2="2015.176559" class="n" style="stroke-width:1.108750;" />
<line x1="2419.106772" y1="2015.176559" x2="2432.174035" y2="2346.581518" class="n" style="stroke-width:1.108750;" />
<line x1="2432.174035" y1="2346.581518" x2="2620.342623" y2="2278.812923" class="n" style="stroke-width:1.108750;" />
<line x1="2432.174035" y1="2346.581518" x2="2633.409886" y2="2610.217881" class="m" style="stroke-width:8.375076;" />
<line x1="2633.409886" y1="2610.217881" x2="2620.342623" y2="2278.812923" class="m" style="stroke-width:8.375076;" />
<line x1="2230.938184" y1="2082.945154" x2="2432.174035" y2="2346.581518" class="m" style="stroke-width:8.375076;" />
<line x1="2620.342623" y1="2278.812923" x2="2607.275360" y2="1947.407964" class="m" style="stroke-width:8.375076;" />
<line x1="2115.946269" y1="2246.581518" x2="2317.182120" y2="2510.217881" class="n" style="stroke-width:1.108750;" />
<line x1="2317.182120" y1="2510.217881" x2="2432.174035" y2="2346.581518" class="n" style="stroke-width:1.108750;" />
<line x1="2432.174035" y1="2346.581518" x2="2115.946269" y2="2246.581518" class="n" style="stroke-width:1.108750;" />
<line x1="2115.946269" y1="2246.581518" x2="2000.954354" y2="2410.217881" class="v" style="stroke-width:5.690483;" />
<line x1="2230.938184" y1="2082.945154" x2="2115.946269" y2="2246.581518" class="v" style="stroke-width:5.690483;" />
<line x1="718.699468" y1="3730.353118" x2="833.691383" y2="3566.716754" class="n" style="stroke-width:1.108750;" />
<line x1="833.691383" y1="3566.716754" x2="517.463617" y2="3466.716754" class="n" style="stroke-width:1.108750;" />
<line x1="517.463617" y1="3466.716754" x2="718.699468" y2="3730.353118" class="n" style="stroke-width:1.108750;" />
<line x1="718.699468" y1="3730.353118" x2="1034.927234" y2="3830.353118" class="m" style="stroke-width:8.375076;" />
<line x1="1034.927234" y1="3830.353118" x2="833.691383" y2="3566.716754" class="m" style="stroke-width:8.375076;" />
<line x1="402.471702" y1="3630.353118" x2="718.699468" y2="3730.353118" class="m" style="stroke-width:8.375076;" />
<line x1="833.691383" y1="3566.716754" x2="632.455532" y2="3303.080391" class="m" style="stroke-width:8.375076;" />
<line x1="1021.859971" y1="3498.948159" x2="820.624120" y2="3235.311796" class="n" style="stroke-width:1.108750;" />
<line x1="820.624120" y1="3235.311796" x2="833.691383" y2="3566.716754" class="n" style="stroke-width:1.108750;" />
<line x1="833.691383" y1="3566.716754" x2="1021.859971" y2="3498.948159" class="n" style="stroke-width:1.108750;" />
<line x1="1034.927234" y1="3830.353118" x2="1021.859971" y2="3498.948159" class="m" style="stroke-width:8.375076;" />
<line x1="820.624120" y1="3235.311796" x2="632.455532" y2="3303.080391" class="v" style="stroke-width:5.690483;" />
<line x1="1021.859971" y1="3498.948159" x2="1008.792708" y2="3167.543201" class="m" style="stroke-width:8.375076;" />
<line x1="1008.792708" y1="3167.543201" x2="820.624120" y2="3235.311796" class="v" style="stroke-width:5.690483;" />
<line x1="1214.780291" y1="3551.690458" x2="1201.713028" y2="3220.285500" class="n" style="stroke-width:1.108750;" />
<line x1="1201.713028" y1="3220.285500" x2="1021.859971" y2="3498.948159" class="n" style="stroke-width:1.108750;" />
<line x1="1021.859971" y1="3498.948159" x2="1214.780291" y2="3551.690458" class="n" style="stroke-width:1.108750;" />
<line x1="1034.927234" y1="3830.353118" x2="1214.780291" y2="3551.690458" class="m" style="stroke-width:8.375076;" />
<line x1="1214.780291" y1="3551.690458" x2="1394.633348" y2="3273.027799" class="m" style="stroke-width:8.375076;" />
<line x1="2952.251105" y1="1056.498873" x2="2751.015254" y2="792.862509" class="n" style="stroke-width:1.108750;" />
<line x1="2751.015254" y1="792.862509" x2="2636.023339" y2="956.498873" class="n" style="stroke-width:1.108750;" />
<line x1="2636.023339" y1="956.498873" x2="2952.251105" y2="1056.498873" class="n" style="stroke-width:1.108750;" />
<line x1="2751.015254" y1="792.862509" x2="2434.787488" y2="692.862509" class="m" style="stroke-width:8.375076;" />
<line x1="2434.787488" y1="692.862509" x2="2636.023339" y2="956.498873" class="m" style="stroke-width:8.375076;" />
<line x1="3067.243020" y1="892.862509" x2="2751.015254" y2="792.862509" class="m" style="stroke-width:8.375076;" />
<line x1="2636.023339" y1="956.498873" x2="2837.259190" y2="1220.135237" class="m" style="stroke-width:8.375076;" />
<text x="2379.420071" y="1475.353795" transform="rotate(-162.451590 2379.420071 1475.353795)" fill="darkgreen" font-weight="bold" font-size="86.540000">3</text>
<text x="2346.415010" y="1464.916678" transform="rotate(17.548400 2346.415010 1464.916678)" fill="darkgreen" font-weight="bold" font-size="86.540000">3</text>
<text x="2379.420071" y="1364.916678" transform="rotate(162.451590 2379.420071 1364.916678)" fill="darkgreen" font-weight="bold" font-size="86.540000">4</text>
<text x="90.116315" y="3221.140555" transform="rotate(52.645199 90.116315 3221.140555)" fill="darkgreen" font-weight="bold" font-size="86.540000">4</text>
<text x="291.352166" y="3484.776919" transform="rotate(52.645199 291.352166 3484.776919)" fill="darkgreen" font-weight="bold" font-size="86.540000">5</text>
<text x="2695.647837" y="1264.916678" transform="rotate(162.451590 2695.647837 1264.916678)" fill="darkgreen" font-weight="bold" font-size="86.540000">5</text>
<text x="395.842471" y="3307.382538" transform="rotate(52.645199 395.842471 3307.382538)" fill="darkgreen" font-weight="bold" font-size="86.540000">11</text>
<text x="437.848912" y="3362.414607" transform="rotate(-127.354791 437.848912 3362.414607)" fill="darkgreen" font-weight="bold" font-size="86.540000">11</text>
<text x="191.118944" y="3163.517507" transform="rotate(-162.451590 191.118944 3163.517507)" fill="darkgreen" font-weight="bold" font-size="86.540000">12</text>
<text x="2209.973444" y="1551.248594" transform="rotate(87.741998 2209.973444 1551.248594)" fill="darkgreen" font-weight="bold" font-size="86.540000">12</text>
<text x="2223.040707" y="1882.653552" transform="rotate(87.741998 2223.040707 1882.653552)" fill="darkgreen" font-weight="bold" font-size="86.540000">13</text>
<text x="507.346710" y="3263.517507" transform="rotate(-162.451590 507.346710 3263.517507)" fill="darkgreen" font-weight="bold" font-size="86.540000">13</text>
<text x="2411.209295" y="1814.884957" transform="rotate(87.741998 2411.209295 1814.884957)" fill="darkgreen" font-weight="bold" font-size="86.540000">18</text>
<text x="2413.936986" y="1884.063202" transform="rotate(-92.257992 2413.936986 1884.063202)" fill="darkgreen" font-weight="bold" font-size="86.540000">18</text>
<text x="2443.632666" y="1630.275600" transform="rotate(-54.903196 2443.632666 1630.275600)" fill="darkgreen" font-weight="bold" font-size="86.540000">23</text>
<text x="2483.438267" y="1573.631237" transform="rotate(125.096794 2483.438267 1573.631237)" fill="darkgreen" font-weight="bold" font-size="86.540000">23</text>
<text x="2759.860432" y="1730.275600" transform="rotate(-54.903196 2759.860432 1730.275600)" fill="darkgreen" font-weight="bold" font-size="86.540000">26</text>
<text x="2230.938184" y="3472.106609" transform="rotate(-89.999995 2230.938184 3472.106609)" fill="darkgreen" font-weight="bold" font-size="86.540000">26</text>
<text x="2230.938184" y="3272.106609" transform="rotate(-89.999995 2230.938184 3272.106609)" fill="darkgreen" font-weight="bold" font-size="86.540000">27</text>
<text x="2644.868517" y="1893.911964" transform="rotate(-54.903196 2644.868517 1893.911964)" fill="darkgreen" font-weight="bold" font-size="86.540000">27</text>
<text x="1443.082160" y="2919.467931" transform="rotate(-19.806396 1443.082160 2919.467931)" fill="darkgreen" font-weight="bold" font-size="86.540000">28</text>
<text x="1508.218598" y="2896.009154" transform="rotate(160.193594 1508.218598 2896.009154)" fill="darkgreen" font-weight="bold" font-size="86.540000">28</text>
<text x="1644.318011" y="3183.104295" transform="rotate(-19.806396 1644.318011 3183.104295)" fill="darkgreen" font-weight="bold" font-size="86.540000">34</text>
<text x="3382.064121" y="779.480228" transform="rotate(160.193594 3382.064121 779.480228)" fill="darkgreen" font-weight="bold" font-size="86.540000">34</text>
<text x="3193.895533" y="847.248823" transform="rotate(160.193594 3193.895533 847.248823)" fill="darkgreen" font-weight="bold" font-size="86.540000">35</text>
<text x="1456.149423" y="3250.872890" transform="rotate(-19.806396 1456.149423 3250.872890)" fill="darkgreen" font-weight="bold" font-size="86.540000">35</text>
<text x="1310.411030" y="3051.869823" transform="rotate(122.838798 1310.411030 3051.869823)" fill="darkgreen" font-weight="bold" font-size="86.540000">39</text>
<text x="1272.868083" y="3110.038517" transform="rotate(-57.161193 1272.868083 3110.038517)" fill="darkgreen" font-weight="bold" font-size="86.540000">39</text>
<text x="1559.617766" y="2549.780765" transform="rotate(162.451590 1559.617766 2549.780765)" fill="darkgreen" font-weight="bold" font-size="86.540000">40</text>
<text x="1297.343767" y="2720.464864" transform="rotate(122.838798 1297.343767 2720.464864)" fill="darkgreen" font-weight="bold" font-size="86.540000">40</text>
<text x="1117.490710" y="2999.127524" transform="rotate(122.838798 1117.490710 2999.127524)" fill="darkgreen" font-weight="bold" font-size="86.540000">43</text>
<text x="1875.845532" y="2449.780765" transform="rotate(162.451590 1875.845532 2449.780765)" fill="darkgreen" font-weight="bold" font-size="86.540000">43</text>
<text x="1684.726588" y="2575.601881" transform="rotate(89.999995 1684.726588 2575.601881)" fill="darkgreen" font-weight="bold" font-size="86.540000">44</text>
<text x="1684.726588" y="2644.833881" transform="rotate(-89.999995 1684.726588 2644.833881)" fill="darkgreen" font-weight="bold" font-size="86.540000">44</text>
<text x="2000.954354" y="2544.833881" transform="rotate(-89.999995 2000.954354 2544.833881)" fill="darkgreen" font-weight="bold" font-size="86.540000">48</text>
<text x="2000.954354" y="2475.601881" transform="rotate(89.999995 2000.954354 2475.601881)" fill="darkgreen" font-weight="bold" font-size="86.540000">48</text>
<text x="1923.555596" y="2920.358245" transform="rotate(-54.903196 1923.555596 2920.358245)" fill="darkgreen" font-weight="bold" font-size="86.540000">54</text>
<text x="4435.741842" y="334.616000" transform="rotate(-89.999995 4435.741842 334.616000)" fill="darkgreen" font-weight="bold" font-size="86.540000">54</text>
<text x="4435.741842" y="134.616000" transform="rotate(-89.999995 4435.741842 134.616000)" fill="darkgreen" font-weight="bold" font-size="86.540000">55</text>
<text x="1808.563681" y="3083.994609" transform="rotate(-54.903196 1808.563681 3083.994609)" fill="darkgreen" font-weight="bold" font-size="86.540000">55</text>
<text x="2558.826548" y="3755.513286" transform="rotate(160.193594 2558.826548 3755.513286)" fill="darkgreen" font-weight="bold" font-size="86.540000">56</text>
<text x="3153.486956" y="1454.751237" transform="rotate(-89.999995 3153.486956 1454.751237)" fill="darkgreen" font-weight="bold" font-size="86.540000">56</text>
<text x="2962.368012" y="1380.572353" transform="rotate(-17.548400 2962.368012 1380.572353)" fill="darkgreen" font-weight="bold" font-size="86.540000">57</text>
<text x="3028.378134" y="1359.698120" transform="rotate(162.451590 3028.378134 1359.698120)" fill="darkgreen" font-weight="bold" font-size="86.540000">57</text>
<text x="2511.788740" y="4224.097553" transform="rotate(-52.645199 2511.788740 4224.097553)" fill="darkgreen" font-weight="bold" font-size="86.540000">59</text>
<text x="2628.240100" y="3933.649979" transform="rotate(-92.257992 2628.240100 3933.649979)" fill="darkgreen" font-weight="bold" font-size="86.540000">59</text>
<text x="2352.559330" y="3696.824825" transform="rotate(-127.354791 2352.559330 3696.824825)" fill="darkgreen" font-weight="bold" font-size="86.540000">61</text>
<text x="2962.368012" y="1580.572353" transform="rotate(-17.548400 2962.368012 1580.572353)" fill="darkgreen" font-weight="bold" font-size="86.540000">61</text>
<text x="3191.080113" y="1266.639237" transform="rotate(-54.903196 3191.080113 1266.639237)" fill="darkgreen" font-weight="bold" font-size="86.540000">63</text>
<text x="2354.775277" y="4218.259336" transform="rotate(54.903196 2354.775277 4218.259336)" fill="darkgreen" font-weight="bold" font-size="86.540000">63</text>
<text x="3329.994946" y="1134.343964" transform="rotate(-19.806396 3329.994946 1134.343964)" fill="darkgreen" font-weight="bold" font-size="86.540000">70</text>
<text x="2317.182120" y="4030.147336" transform="rotate(89.999995 2317.182120 4030.147336)" fill="darkgreen" font-weight="bold" font-size="86.540000">70</text>
<text x="3527.802514" y="978.483295" transform="rotate(-57.161193 3527.802514 978.483295)" fill="darkgreen" font-weight="bold" font-size="86.540000">77</text>
<text x="2195.560974" y="3805.429119" transform="rotate(52.645199 2195.560974 3805.429119)" fill="darkgreen" font-weight="bold" font-size="86.540000">77</text>
<text x="4119.514076" y="165.384000" transform="rotate(89.999995 4119.514076 165.384000)" fill="darkgreen" font-weight="bold" font-size="86.540000">80</text>
<text x="4119.514076" y="234.616000" transform="rotate(-89.999995 4119.514076 234.616000)" fill="darkgreen" font-weight="bold" font-size="86.540000">80</text>
<text x="3994.405254" y="139.562883" transform="rotate(162.451590 3994.405254 139.562883)" fill="darkgreen" font-weight="bold" font-size="86.540000">84</text>
<text x="3732.131255" y="310.246983" transform="rotate(122.838798 3732.131255 310.246983)" fill="darkgreen" font-weight="bold" font-size="86.540000">84</text>
<text x="3552.278198" y="588.909642" transform="rotate(122.838798 3552.278198 588.909642)" fill="darkgreen" font-weight="bold" font-size="86.540000">85</text>
<text x="4310.633020" y="39.562883" transform="rotate(162.451590 4310.633020 39.562883)" fill="darkgreen" font-weight="bold" font-size="86.540000">85</text>
<text x="3707.655571" y="699.820636" transform="rotate(-57.161193 3707.655571 699.820636)" fill="darkgreen" font-weight="bold" font-size="86.540000">89</text>
<text x="1994.325123" y="3541.792755" transform="rotate(52.645199 1994.325123 3541.792755)" fill="darkgreen" font-weight="bold" font-size="86.540000">89</text>
<text x="3877.869648" y="509.250050" transform="rotate(-19.806396 3877.869648 509.250050)" fill="darkgreen" font-weight="bold" font-size="86.540000">92</text>
<text x="1914.710418" y="3302.874609" transform="rotate(89.999995 1914.710418 3302.874609)" fill="darkgreen" font-weight="bold" font-size="86.540000">92</text>
<text x="4129.630983" y="503.199247" transform="rotate(17.548400 4129.630983 503.199247)" fill="darkgreen" font-weight="bold" font-size="86.540000">98</text>
<text x="2036.331564" y="3078.156392" transform="rotate(127.354791 2036.331564 3078.156392)" fill="darkgreen" font-weight="bold" font-size="86.540000">98</text>
<text x="4348.391683" y="524.301455" transform="rotate(-54.903196 4348.391683 524.301455)" fill="darkgreen" font-weight="bold" font-size="86.540000">100</text>
<text x="2028.596111" y="2849.552790" transform="rotate(54.903196 2028.596111 2849.552790)" fill="darkgreen" font-weight="bold" font-size="86.540000">100</text>
<text x="2248.069026" y="2800.762011" transform="rotate(127.354791 2248.069026 2800.762011)" fill="darkgreen" font-weight="bold" font-size="86.540000">110</text>
<text x="2185.059364" y="2883.310116" transform="rotate(-52.645199 2185.059364 2883.310116)" fill="darkgreen" font-weight="bold" font-size="86.540000">110</text>
<text x="2501.287130" y="2783.310116" transform="rotate(-52.645199 2501.287130 2783.310116)" fill="darkgreen" font-weight="bold" font-size="86.540000">112</text>
<text x="2628.922023" y="2496.399085" transform="rotate(-92.257992 2628.922023 2496.399085)" fill="darkgreen" font-weight="bold" font-size="86.540000">112</text>
<text x="2615.854760" y="2164.994127" transform="rotate(-92.257992 2615.854760 2164.994127)" fill="darkgreen" font-weight="bold" font-size="86.540000">113</text>
<text x="2300.051279" y="3046.946479" transform="rotate(-52.645199 2300.051279 3046.946479)" fill="darkgreen" font-weight="bold" font-size="86.540000">113</text>
<text x="2423.594635" y="2128.995355" transform="rotate(87.741998 2423.594635 2128.995355)" fill="darkgreen" font-weight="bold" font-size="86.540000">116</text>
<text x="2427.686172" y="2232.762722" transform="rotate(-92.257992 2427.686172 2232.762722)" fill="darkgreen" font-weight="bold" font-size="86.540000">116</text>
<text x="2404.532279" y="2385.916427" transform="rotate(125.096794 2404.532279 2385.916427)" fill="darkgreen" font-weight="bold" font-size="86.540000">119</text>
<text x="2344.823877" y="2470.882972" transform="rotate(-54.903196 2344.823877 2470.882972)" fill="darkgreen" font-weight="bold" font-size="86.540000">119</text>
<text x="2088.304513" y="2285.916427" transform="rotate(125.096794 2088.304513 2285.916427)" fill="darkgreen" font-weight="bold" font-size="86.540000">122</text>
<text x="963.560743" y="3183.833415" transform="rotate(160.193594 963.560743 3183.833415)" fill="darkgreen" font-weight="bold" font-size="86.540000">122</text>
<text x="775.392155" y="3251.602011" transform="rotate(160.193594 775.392155 3251.602011)" fill="darkgreen" font-weight="bold" font-size="86.540000">123</text>
<text x="2203.296427" y="2122.280063" transform="rotate(125.096794 2203.296427 2122.280063)" fill="darkgreen" font-weight="bold" font-size="86.540000">123</text>
<text x="626.069909" y="3501.061079" transform="rotate(17.548400 626.069909 3501.061079)" fill="darkgreen" font-weight="bold" font-size="86.540000">125</text>
<text x="725.085092" y="3532.372429" transform="rotate(-162.451590 725.085092 3532.372429)" fill="darkgreen" font-weight="bold" font-size="86.540000">125</text>
<text x="827.305760" y="3764.697443" transform="rotate(17.548400 827.305760 3764.697443)" fill="darkgreen" font-weight="bold" font-size="86.540000">128</text>
<text x="2503.900582" y="783.406639" transform="rotate(52.645199 2503.900582 783.406639)" fill="darkgreen" font-weight="bold" font-size="86.540000">128</text>
<text x="2705.136433" y="1047.043002" transform="rotate(52.645199 2705.136433 1047.043002)" fill="darkgreen" font-weight="bold" font-size="86.540000">129</text>
<text x="511.077994" y="3664.697443" transform="rotate(17.548400 511.077994 3664.697443)" fill="darkgreen" font-weight="bold" font-size="86.540000">129</text>
<text x="878.923348" y="3550.426539" transform="rotate(-19.806396 878.923348 3550.426539)" fill="darkgreen" font-weight="bold" font-size="86.540000">131</text>
<text x="976.628006" y="3515.238374" transform="rotate(160.193594 976.628006 3515.238374)" fill="darkgreen" font-weight="bold" font-size="86.540000">131</text>
<text x="1083.629289" y="3403.243350" transform="rotate(-57.161193 1083.629289 3403.243350)" fill="darkgreen" font-weight="bold" font-size="86.540000">138</text>
<text x="1139.943710" y="3315.990309" transform="rotate(122.838798 1139.943710 3315.990309)" fill="darkgreen" font-weight="bold" font-size="86.540000">138</text>
<text x="2642.408962" y="758.518184" transform="rotate(-162.451590 2642.408962 758.518184)" fill="darkgreen" font-weight="bold" font-size="86.540000">139</text>
<text x="1096.696553" y="3734.648309" transform="rotate(-57.161193 1096.696553 3734.648309)" fill="darkgreen" font-weight="bold" font-size="86.540000">139</text>
<text x="1276.549610" y="3455.985649" transform="rotate(-57.161193 1276.549610 3455.985649)" fill="darkgreen" font-weight="bold" font-size="86.540000">140</text>
<text x="2958.636728" y="858.518184" transform="rotate(-162.451590 2958.636728 858.518184)" fill="darkgreen" font-weight="bold" font-size="86.540000">140</text>
<text x="2744.629630" y="990.843198" transform="rotate(17.548400 2744.629630 990.843198)" fill="darkgreen" font-weight="bold" font-size="86.540000">142</text>
<text x="2843.644813" y="1022.154548" transform="rotate(-162.451590 2843.644813 1022.154548)" fill="darkgreen" font-weight="bold" font-size="86.540000">142</text>
</svg>
