<?xml version="1.0"?>
<svg width="3239" height="3833" version="1.1" xmlns="http://www.w3.org/2000/svg" >
<defs>
<style type="text/css"><![CDATA[
.m {stroke:rgb(255,0,0);stroke-width:4.791250;}
.v {stroke:rgb(0,0,255);stroke-width:4.791250;}
.b {stroke:rgb(0,0,0);stroke-width:9.582500;fill:white}
.n {stroke:rgb(128,128,128);stroke-width:4.791250}
.t {stroke:rgb(0,128,0);stroke-width:4.791250;}
.c {stroke:rgb(128,128,128);stroke-width:4.791250;stroke-dasharray:32.390000, 32.390000;}
]]></style>
</defs>
<path fill="none" style="stroke:black;stroke-width:9.582500;" d=" M 2000.95 1917.36 L 1684.73 1817.36 M 1368.5 1917.36 L 1684.73 2017.36 M 1684.73 1817.36 L 1368.5 1917.36 M 1684.73 1817.36 L 2000.95 1917.36 M 2000.95 1717.36 L 1684.73 1817.36 M 1684.73 2017.36 L 2000.95 2117.36 M 2014.02 2048.76 L 1812.79 1785.12 M 1825.85 2116.53 L 2027.09 2380.17 M 2027.09 2380.17 L 2014.02 2048.76 M 1624.62 1852.89 L 1825.85 2116.53 M 1812.79 1785.12 L 2014.02 2048.76 M 2014.02 2048.76 L 2000.95 1717.36 M 316.228 2510.22 L 632.456 2410.22 M 316.228 2310.22 L 0 2410.22 M 0 2410.22 L 316.228 2510.22 M 632.456 2210.22 L 316.228 2310.22 M 632.456 2410.22 L 316.228 2510.22 M 316.228 2510.22 L 632.456 2610.22 M 1812.79 3239.67 L 1825.85 3571.07 M 1825.85 3571.07 L 2027.09 3834.71 M 2027.09 3834.71 L 2014.02 3503.31 M 1825.85 3571.07 L 1812.79 3239.67 M 1624.62 3307.44 L 1825.85 3571.07 M 2014.02 3503.31 L 2000.95 3171.9 M 2419.11 1322.31 L 2406.04 990.909 M 2204.8 727.273 L 2217.87 1058.68 M 2406.04 990.909 L 2419.11 1322.31 M 2217.87 1058.68 L 2230.94 1390.08 M 2521.03 627.273 L 2722.27 363.636 M 2406.04 463.636 L 2204.8 727.273 M 2607.28 200 L 2406.04 463.636 M 2722.27 363.636 L 2521.03 627.273 M 2521.03 827.273 L 2837.26 727.273 M 2837.26 727.273 L 2837.26 527.273 M 2837.26 927.273 L 2837.26 727.273 M 2837.26 727.273 L 2521.03 827.273 M 2722.27 1090.91 L 2837.26 927.273 M 2607.28 1254.55 L 2722.27 1090.91 M 2317.18 2017.36 L 2633.41 1917.36 M 2633.41 1917.36 L 2317.18 1817.36 M 2633.41 1917.36 L 2432.17 1653.72 M 2317.18 1817.36 L 2633.41 1917.36 M 2419.11 1322.31 L 2432.17 1653.72 M 2633.41 1917.36 L 2620.34 1585.95 M 2432.17 1653.72 L 2633.41 1917.36 M 2432.17 1653.72 L 2419.11 1322.31 M 2620.34 1585.95 L 2607.28 1254.55 M 2317.18 2017.36 L 2115.95 2280.99 M 2432.17 2180.99 L 2633.41 1917.36 M 2633.41 1917.36 L 2317.18 2017.36 M 2230.94 2444.63 L 2432.17 2180.99 M 2115.95 2280.99 L 2317.18 2017.36 M 2230.94 2644.63 L 2230.94 2444.63 M 2230.94 2844.63 L 2230.94 2644.63 M 1914.71 2544.63 L 2115.95 2280.99 M 1799.72 2380.99 L 1598.48 2644.63 M 2000.95 2117.36 L 1799.72 2380.99 M 2115.95 2280.99 L 1914.71 2544.63 M 1812.79 3239.67 L 1799.72 2908.26 M 1598.48 2644.63 L 1611.55 2976.03 M 1799.72 2908.26 L 1812.79 3239.67 M 1611.55 2976.03 L 1624.62 3307.44 M 2115.95 3008.26 L 1914.71 2744.63 M 1914.71 2744.63 L 2115.95 3008.26 M 2115.95 3008.26 L 2230.94 2844.63 M 2000.95 3171.9 L 2115.95 3008.26 M 1050.61 1815.18 L 862.439 1882.95 M 1238.78 1747.41 L 1050.61 1815.18 M 1063.68 2146.58 L 747.447 2046.58 M 747.447 2046.58 L 632.456 2210.22 M 862.439 1882.95 L 747.447 2046.58 M 747.447 2046.58 L 1063.68 2146.58 M 948.683 2310.22 L 632.456 2410.22 M 948.683 2510.22 L 1264.91 2410.22 M 632.456 2610.22 L 948.683 2510.22 M 632.456 2410.22 L 948.683 2310.22 M 1431.7 1800.15 L 1251.84 2078.81 M 1264.91 2410.22 L 1444.76 2131.56 M 1251.84 2078.81 L 1431.7 1800.15 M 1444.76 2131.56 L 1624.62 1852.89 M 1799.72 1453.72 L 1598.48 1190.08 M 1598.48 1190.08 L 1611.55 1521.49 M 1431.7 1800.15 L 1611.55 1521.49 M 1598.48 1190.08 L 1418.63 1468.75 M 1611.55 1521.49 L 1598.48 1190.08 M 1611.55 1521.49 L 1431.7 1800.15 M 1418.63 1468.75 L 1238.78 1747.41 M 2923.5 100 L 2722.27 363.636 M 3239.73 0 L 2923.5 100 M 3038.5 263.636 L 3239.73 0 M 2837.26 527.273 L 3038.5 263.636 M 2722.27 363.636 L 2923.5 100 M 2923.5 100 L 2607.28 200 M 1799.72 1453.72 L 2115.95 1553.72 M 1914.71 1290.08 L 1598.48 1190.08 M 1598.48 1190.08 L 1799.72 1453.72 M 2230.94 1390.08 L 1914.71 1290.08 M 2115.95 1553.72 L 1799.72 1453.72" />
<path fill="none" class="c" d=" M 2000.95 2117.36 L 2000.95 1917.36 M 2000.95 2117.36 L 2317.18 2017.36 M 2000.95 2117.36 L 2115.95 2280.99 M 2317.18 1817.36 L 2000.95 1717.36 M 2000.95 1717.36 L 2000.95 1917.36 M 2115.95 1553.72 L 2000.95 1717.36 M 1799.72 1453.72 L 2000.95 1717.36 M 1812.79 1785.12 L 2000.95 1717.36 M 1598.48 2644.63 L 1914.71 2544.63 M 1598.48 2644.63 L 1914.71 2744.63 M 1624.62 1852.89 L 1812.79 1785.12 M 1611.55 1521.49 L 1624.62 1852.89 M 1598.48 2644.63 L 1799.72 2908.26 M 1799.72 2908.26 L 2000.95 3171.9 M 1812.79 3239.67 L 2000.95 3171.9 M 1624.62 3307.44 L 1812.79 3239.67 M 1431.7 1800.15 L 1624.62 1852.89 M 2432.17 1653.72 L 2230.94 1390.08 M 2230.94 1390.08 L 2115.95 1553.72 M 2419.11 1322.31 L 2230.94 1390.08 M 1251.84 2078.81 L 1264.91 2410.22 M 1063.68 2146.58 L 1264.91 2410.22 M 948.683 2310.22 L 1264.91 2410.22 M 2406.04 990.909 L 2204.8 727.273 M 862.439 1882.95 L 1063.68 2146.58 M 2521.03 827.273 L 2204.8 727.273 M 632.456 2210.22 L 948.683 2310.22 M 632.456 2210.22 L 632.456 2410.22 M 2406.04 990.909 L 2607.28 1254.55 M 2419.11 1322.31 L 2607.28 1254.55 M 632.456 2410.22 L 632.456 2610.22 M 2521.03 627.273 L 2204.8 727.273 M 2837.26 527.273 L 2521.03 627.273 M 2722.27 363.636 L 2607.28 200 M 2837.26 527.273 L 2722.27 363.636 M 2837.26 927.273 L 2521.03 827.273 M 1914.71 2744.63 L 2230.94 2844.63 M 1251.84 2078.81 L 1238.78 1747.41 M 2230.94 2444.63 L 1914.71 2544.63 M 1431.7 1800.15 L 1238.78 1747.41 M 2230.94 2444.63 L 2115.95 2280.99" />
</svg>
