<?xml version="1.0"?>
<svg width="2347" height="2643" version="1.1" xmlns="http://www.w3.org/2000/svg" >
<defs>
<style type="text/css"><![CDATA[
.m {stroke:rgb(255,0,0);stroke-width:3.303750;}
.v {stroke:rgb(0,0,255);stroke-width:3.303750;}
.b {stroke:rgb(0,0,0);stroke-width:6.607500;fill:white}
.n {stroke:rgb(128,128,128);stroke-width:3.303750}
.t {stroke:rgb(0,128,0);stroke-width:3.303750;}
.c {stroke:rgb(128,128,128);stroke-width:3.303750;stroke-dasharray:23.470000, 23.470000;}
]]></style>
</defs>
<path fill="none" style="stroke:black;stroke-width:6.607500;" d=" M 662.867 627.273 L 662.867 827.273 M 662.867 827.273 L 662.867 627.273 M 979.094 727.273 L 979.094 527.273 M 979.094 927.273 L 979.094 727.273 M 547.875 463.636 L 662.867 627.273 M 662.867 627.273 L 547.875 463.636 M 547.875 463.636 L 560.942 132.231 M 359.706 395.868 L 346.639 727.273 M 560.942 132.231 L 372.773 64.4628 M 372.773 64.4628 L 359.706 395.868 M 749.111 200 L 560.942 132.231 M 560.942 132.231 L 547.875 463.636 M 864.102 1090.91 L 662.867 827.273 M 346.639 727.273 L 547.875 990.909 M 662.867 827.273 L 864.102 1090.91 M 547.875 990.909 L 749.111 1254.55 M 2347.59 1220.14 L 2031.37 1120.14 M 1715.14 1220.14 L 2031.37 1320.14 M 662.867 2081.82 L 979.094 2181.82 M 2347.59 1420.14 L 2347.59 1220.14 M 2031.37 1320.14 L 2347.59 1420.14 M 1728.2 888.73 L 1548.35 610.068 M 1535.28 941.473 L 1715.14 1220.14 M 1355.43 662.81 L 1535.28 941.473 M 179.853 1571.75 L 359.706 1850.41 M 359.706 1850.41 L 547.875 1918.18 M 1916.37 956.499 L 1728.2 888.73 M 560.942 1586.78 L 372.773 1519.01 M 749.111 1654.55 L 560.942 1586.78 M 547.875 1918.18 L 662.867 2081.82 M 2031.37 1120.14 L 1916.37 956.499 M 979.094 1981.82 L 864.102 1818.18 M 773.107 911.42 L 966.027 858.678 M 966.027 858.678 L 773.107 911.42 M 786.174 580.015 L 593.254 632.757 M 979.094 527.273 L 786.174 580.015 M 979.094 2181.82 L 1295.32 2281.82 M 1295.32 2281.82 L 1295.32 2081.82 M 952.96 1190.08 L 1269.19 1090.08 M 1269.19 1090.08 L 1154.2 926.446 M 1154.2 926.446 L 1470.42 826.446 M 1470.42 826.446 L 1355.43 662.81 M 1295.32 2081.82 L 979.094 1981.82 M 773.107 911.42 L 465.735 786.832 M 645.588 1065.49 L 952.96 1190.08 M 338.215 940.906 L 645.588 1065.49 M 465.735 786.832 L 773.107 911.42 M 1065.34 1554.55 L 864.102 1818.18 M 979.094 1981.82 L 1180.33 1718.18 M 864.102 1818.18 L 979.094 1981.82 M 864.102 1818.18 L 1065.34 1554.55 M 1180.33 1718.18 L 1167.26 2049.59 M 1167.26 2049.59 L 1368.5 1785.95 M 1368.5 1785.95 L 1381.57 1454.55 M 593.254 632.757 L 285.881 508.169 M 285.881 508.169 L 465.735 786.832 M 465.735 786.832 L 158.362 662.243 M 158.362 662.243 L 338.215 940.906 M 864.102 1090.91 L 1065.34 1354.55 M 1381.57 1454.55 L 1180.33 1190.91 M 1065.34 1354.55 L 864.102 1090.91 M 1180.33 1190.91 L 979.094 927.273 M 749.111 1454.55 L 1065.34 1554.55 M 1065.34 1554.55 L 749.111 1454.55 M 432.883 1554.55 L 317.891 1718.18 M 317.891 1718.18 L 432.883 1554.55 M 634.119 1818.18 L 749.111 1654.55 M 519.127 1981.82 L 634.119 1818.18 M 432.883 1354.55 L 634.119 1090.91 M 317.891 1190.91 L 116.655 1454.55 M 519.127 927.273 L 317.891 1190.91 M 634.119 1090.91 L 519.127 927.273 M 749.111 1254.55 L 634.119 1090.91 M 634.119 1090.91 L 432.883 1354.55 M 330.958 2049.59 L 317.891 1718.18 M 116.655 1454.55 L 129.722 1785.95 M 317.891 1718.18 L 330.958 2049.59 M 129.722 1785.95 L 142.79 2117.36 M 1180.33 263.636 L 1065.34 100 M 864.102 363.636 L 1180.33 263.636 M 1065.34 100 L 1180.33 263.636 M 1381.57 0 L 1065.34 100 M 1180.33 263.636 L 864.102 363.636 M 1065.34 100 L 749.111 200 M 330.958 2049.59 L 344.025 2380.99 M 545.261 2644.63 L 532.194 2313.22 M 344.025 2380.99 L 545.261 2644.63 M 344.025 2380.99 L 330.958 2049.59 M 142.79 2117.36 L 344.025 2380.99 M 532.194 2313.22 L 519.127 1981.82 M 0 1293.09 L 179.853 1571.75 M 192.92 1240.35 L 0 1293.09 M 1368.5 331.405 L 1561.42 278.663 M 1561.42 278.663 L 1381.57 0 M 372.773 1519.01 L 192.92 1240.35 M 1548.35 610.068 L 1368.5 331.405 M 1180.33 263.636 L 1167.26 595.041 M 1167.26 595.041 L 1180.33 263.636" />
<path fill="none" class="c" d=" M 979.094 527.273 L 662.867 627.273 M 749.111 200 L 547.875 463.636 M 662.867 827.273 L 979.094 927.273 M 979.094 527.273 L 864.102 363.636 M 979.094 527.273 L 1180.33 263.636 M 979.094 527.273 L 1167.26 595.041 M 979.094 527.273 L 966.027 858.678 M 966.027 858.678 L 952.96 1190.08 M 1355.43 662.81 L 1167.26 595.041 M 1381.57 0 L 1180.33 263.636 M 1154.2 926.446 L 1355.43 662.81 M 952.96 1190.08 L 1154.2 926.446 M 1355.43 662.81 L 1368.5 331.405 M 1368.5 331.405 L 1381.57 0 M 864.102 363.636 L 749.111 200 M 864.102 1090.91 L 979.094 927.273 M 1355.43 662.81 L 1548.35 610.068 M 1065.34 1354.55 L 1381.57 1454.55 M 1065.34 1554.55 L 1381.57 1454.55 M 749.111 1254.55 L 749.111 1454.55 M 116.655 1454.55 L 432.883 1554.55 M 749.111 1254.55 L 432.883 1354.55 M 432.883 1554.55 L 749.111 1654.55 M 749.111 1654.55 L 749.111 1454.55 M 749.111 1654.55 L 1065.34 1554.55 M 432.883 1354.55 L 116.655 1454.55 M 1065.34 1354.55 L 749.111 1254.55 M 1715.14 1220.14 L 1728.2 888.73 M 1715.14 1220.14 L 1916.37 956.499 M 1715.14 1220.14 L 2031.37 1120.14 M 749.111 1654.55 L 864.102 1818.18 M 749.111 1654.55 L 547.875 1918.18 M 662.867 2081.82 L 979.094 1981.82 M 372.773 1519.01 L 359.706 1850.41 M 864.102 1090.91 L 749.111 1254.55 M 662.867 827.273 L 346.639 727.273 M 662.867 627.273 L 346.639 727.273 M 547.875 463.636 L 346.639 727.273 M 372.773 1519.01 L 179.853 1571.75 M 116.655 1454.55 L 317.891 1718.18 M 593.254 632.757 L 773.107 911.42 M 593.254 632.757 L 465.735 786.832 M 317.891 1718.18 L 519.127 1981.82 M 330.958 2049.59 L 519.127 1981.82 M 142.79 2117.36 L 330.958 2049.59 M 773.107 911.42 L 952.96 1190.08 M 465.735 786.832 L 338.215 940.906 M 1180.33 1718.18 L 1381.57 1454.55 M 979.094 2181.82 L 979.094 1981.82" />
<line x1="873.685128" y1="827.272727" x2="768.275872" y2="727.272727" class="t" />
<line x1="873.685128" y1="627.272727" x2="768.275872" y2="727.272727" class="t" />
<line x1="835.354489" y1="506.060606" x2="873.685128" y2="627.272727" class="t" />
<line x1="691.614596" y1="484.848485" x2="835.354489" y2="506.060606" class="t" />
<line x1="720.362574" y1="342.424242" x2="691.614596" y2="484.848485" class="t" />
<line x1="619.309073" y1="265.289256" x2="720.362574" y2="342.424242" class="t" />
<line x1="835.354489" y1="948.484848" x2="873.685128" y2="827.272727" class="t" />
<line x1="1007.842362" y1="384.848485" x2="835.354489" y2="506.060606" class="t" />
<line x1="1108.895863" y1="461.983471" x2="1007.842362" y2="384.848485" class="t" />
<line x1="1037.461491" y1="660.330579" x2="1108.895863" y2="461.983471" class="t" />
<line x1="910.431855" y1="655.321813" x2="1037.461491" y2="660.330579" class="t" />
<line x1="1095.828600" y1="793.388430" x2="1037.461491" y2="660.330579" class="t" />
<line x1="1225.630079" y1="728.099174" x2="1095.828600" y2="793.388430" class="t" />
<line x1="1024.394228" y1="991.735537" x2="1095.828600" y2="793.388430" class="t" />
<line x1="897.364592" y1="986.726772" x2="1024.394228" y2="991.735537" class="t" />
<line x1="1297.064451" y1="529.752066" x2="1225.630079" y2="728.099174" class="t" />
<line x1="1238.697342" y1="396.694215" x2="1297.064451" y2="529.752066" class="t" />
<line x1="1310.131714" y1="198.347107" x2="1238.697342" y2="396.694215" class="t" />
<line x1="1209.078213" y1="121.212121" x2="1310.131714" y2="198.347107" class="t" />
<line x1="1326.683580" y1="805.234160" x2="1225.630079" y2="728.099174" class="t" />
<line x1="1125.447729" y1="1068.870523" x2="1024.394228" y2="991.735537" class="t" />
<line x1="1424.094087" y1="534.760831" x2="1297.064451" y2="529.752066" class="t" />
<line x1="1437.161350" y1="203.355873" x2="1310.131714" y2="198.347107" class="t" />
<line x1="892.850447" y1="221.212121" x2="720.362574" y2="342.424242" class="t" />
<line x1="1036.590340" y1="242.424242" x2="892.850447" y2="221.212121" class="t" />
<line x1="1007.842362" y1="1069.696970" x2="835.354489" y2="948.484848" class="t" />
<line x1="1036.590340" y1="1212.121212" x2="1007.842362" y2="1069.696970" class="t" />
<line x1="1479.689351" y1="738.116704" x2="1424.094087" y2="534.760831" class="t" />
<line x1="1603.947144" y1="813.423491" x2="1479.689351" y2="738.116704" class="t" />
<line x1="1209.078213" y1="1333.333333" x2="1036.590340" y2="1212.121212" class="t" />
<line x1="1170.747575" y1="1454.545455" x2="1209.078213" y2="1333.333333" class="t" />
<line x1="1209.078213" y1="1575.757576" x2="1170.747575" y2="1454.545455" class="t" />
<line x1="959.929064" y1="1454.545455" x2="1170.747575" y2="1454.545455" class="t" />
<line x1="854.519808" y1="1354.545455" x2="959.929064" y2="1454.545455" class="t" />
<line x1="643.701298" y1="1354.545455" x2="854.519808" y2="1354.545455" class="t" />
<line x1="538.292042" y1="1454.545455" x2="643.701298" y2="1354.545455" class="t" />
<line x1="327.473532" y1="1454.545455" x2="538.292042" y2="1454.545455" class="t" />
<line x1="289.142893" y1="1575.757576" x2="327.473532" y2="1454.545455" class="t" />
<line x1="605.370660" y1="1233.333333" x2="643.701298" y2="1354.545455" class="t" />
<line x1="643.701298" y1="1554.545455" x2="538.292042" y2="1454.545455" class="t" />
<line x1="605.370660" y1="1675.757576" x2="643.701298" y2="1554.545455" class="t" />
<line x1="854.519808" y1="1554.545455" x2="643.701298" y2="1554.545455" class="t" />
<line x1="892.850447" y1="1675.757576" x2="854.519808" y2="1554.545455" class="t" />
<line x1="289.142893" y1="1333.333333" x2="327.473532" y2="1454.545455" class="t" />
<line x1="892.850447" y1="1233.333333" x2="854.519808" y2="1354.545455" class="t" />
<line x1="1659.542408" y1="1016.779364" x2="1603.947144" y2="813.423491" class="t" />
<line x1="1786.572044" y1="1021.788129" x2="1659.542408" y2="1016.779364" class="t" />
<line x1="1887.625545" y1="1098.923115" x2="1786.572044" y2="1021.788129" class="t" />
<line x1="1925.956184" y1="1220.135237" x2="1887.625545" y2="1098.923115" class="t" />
<line x1="1036.590340" y1="1696.969697" x2="1209.078213" y2="1575.757576" class="t" />
<line x1="1007.842362" y1="1839.393939" x2="1036.590340" y2="1696.969697" class="t" />
<line x1="720.362574" y1="1796.969697" x2="892.850447" y2="1675.757576" class="t" />
<line x1="619.309073" y1="1719.834711" x2="720.362574" y2="1796.969697" class="t" />
<line x1="691.614596" y1="1939.393939" x2="720.362574" y2="1796.969697" class="t" />
<line x1="835.354489" y1="1960.606061" x2="691.614596" y2="1939.393939" class="t" />
<line x1="873.685128" y1="2081.818182" x2="835.354489" y2="1960.606061" class="t" />
<line x1="489.507594" y1="1785.123967" x2="619.309073" y2="1719.834711" class="t" />
<line x1="431.140485" y1="1652.066116" x2="489.507594" y2="1785.123967" class="t" />
<line x1="304.110849" y1="1647.057350" x2="431.140485" y2="1652.066116" class="t" />
<line x1="720.362574" y1="1112.121212" x2="892.850447" y2="1233.333333" class="t" />
<line x1="691.614596" y1="969.696970" x2="720.362574" y2="1112.121212" class="t" />
<line x1="519.126723" y1="848.484848" x2="691.614596" y2="969.696970" class="t" />
<line x1="557.457362" y1="727.272727" x2="519.126723" y2="848.484848" class="t" />
<line x1="519.126723" y1="606.060606" x2="557.457362" y2="727.272727" class="t" />
<line x1="418.073222" y1="528.925620" x2="519.126723" y2="606.060606" class="t" />
<line x1="248.515585" y1="1443.701478" x2="304.110849" y2="1647.057350" class="t" />
<line x1="124.257792" y1="1368.394691" x2="248.515585" y2="1443.701478" class="t" />
<line x1="841.769328" y1="783.370899" x2="910.431855" y2="655.321813" class="t" />
<line x1="717.511535" y1="708.064112" x2="841.769328" y2="783.370899" class="t" />
<line x1="461.630766" y1="1696.969697" x2="605.370660" y2="1675.757576" class="t" />
<line x1="490.378745" y1="1839.393939" x2="461.630766" y2="1696.969697" class="t" />
<line x1="188.089393" y1="1652.892562" x2="289.142893" y2="1575.757576" class="t" />
<line x1="259.523764" y1="1851.239669" x2="188.089393" y2="1652.892562" class="t" />
<line x1="610.698359" y1="777.002937" x2="717.511535" y2="708.064112" class="t" />
<line x1="448.289918" y1="642.585889" x2="610.698359" y2="777.002937" class="t" />
<line x1="389.325244" y1="1916.528926" x2="490.378745" y2="1839.393939" class="t" />
<line x1="460.759615" y1="2114.876033" x2="389.325244" y2="1916.528926" class="t" />
<line x1="201.156656" y1="1984.297521" x2="259.523764" y2="1851.239669" class="t" />
<line x1="272.591027" y1="2182.644628" x2="201.156656" y2="1984.297521" class="t" />
<line x1="790.551416" y1="1055.665597" x2="897.364592" y2="986.726772" class="t" />
<line x1="628.142975" y1="921.248549" x2="790.551416" y2="1055.665597" class="t" />
<line x1="483.179151" y1="931.077112" x2="628.142975" y2="921.248549" class="t" />
<line x1="320.770710" y1="796.660064" x2="483.179151" y2="931.077112" class="t" />
<line x1="402.392507" y1="2247.933884" x2="460.759615" y2="2114.876033" class="t" />
<line x1="473.826878" y1="2446.280992" x2="402.392507" y2="2247.933884" class="t" />
<line x1="1310.131714" y1="1652.892562" x2="1209.078213" y2="1575.757576" class="t" />
<line x1="1238.697342" y1="1851.239669" x2="1310.131714" y2="1652.892562" class="t" />
<line x1="461.630766" y1="1212.121212" x2="289.142893" y2="1333.333333" class="t" />
<line x1="490.378745" y1="1069.696970" x2="461.630766" y2="1212.121212" class="t" />
<line x1="489.507594" y1="330.578512" x2="418.073222" y2="528.925620" class="t" />
<line x1="431.140485" y1="197.520661" x2="489.507594" y2="330.578512" class="t" />
<line x1="1084.503638" y1="2081.818182" x2="873.685128" y2="2081.818182" class="t" />
<line x1="1189.912894" y1="2181.818182" x2="1084.503638" y2="2081.818182" class="t" />
<line x1="2136.774694" y1="1220.135237" x2="1925.956184" y2="1220.135237" class="t" />
<line x1="2242.183950" y1="1320.135237" x2="2136.774694" y2="1220.135237" class="t" />
</svg>
