<?xml version="1.0"?>
<svg width="1606" height="2480" version="1.1" xmlns="http://www.w3.org/2000/svg" >
<defs>
<style type="text/css"><![CDATA[
.m {stroke:rgb(255,0,0);stroke-width:3.100000;}
.v {stroke:rgb(0,0,255);stroke-width:3.100000;}
.b {stroke:rgb(0,0,0);stroke-width:6.200000;fill:white}
.n {stroke:rgb(128,128,128);stroke-width:3.100000}
.t {stroke:rgb(0,128,0);stroke-width:3.100000;}
.c {stroke:rgb(128,128,128);stroke-width:3.100000;stroke-dasharray:16.060000, 16.060000;}
]]></style>
</defs>
<path fill="none" style="stroke:black;stroke-width:6.200000;" d=" M 339.382 663.636 L 454.374 827.273 M 454.374 827.273 L 339.382 663.636 M 655.609 563.636 L 540.618 400 M 770.601 727.273 L 655.609 563.636 M 339.382 663.636 L 352.449 332.231 M 151.213 595.868 L 138.146 927.273 M 164.28 264.463 L 151.213 595.868 M 352.449 332.231 L 339.382 663.636 M 454.374 1027.27 L 339.382 1190.91 M 339.382 1190.91 L 454.374 1027.27 M 138.146 927.273 L 339.382 1190.91 M 655.609 1290.91 L 770.601 1127.27 M 540.618 1454.55 L 655.609 1290.91 M 339.382 1190.91 L 540.618 1454.55 M 487.225 1594.99 L 794.598 1470.4 M 974.451 1191.74 L 667.078 1316.32 M 794.598 1470.4 L 487.225 1594.99 M 667.078 1316.32 L 359.706 1440.91 M 1290.68 1291.74 L 1175.69 1455.37 M 1175.69 1455.37 L 1290.68 1291.74 M 1290.68 1291.74 L 974.451 1191.74 M 1491.91 1555.37 L 1606.91 1391.74 M 1606.91 1391.74 L 1290.68 1291.74 M 1376.92 1719.01 L 1491.91 1555.37 M 987.518 1523.14 L 794.598 1470.4 M 794.598 1470.4 L 987.518 1523.14 M 807.665 1801.8 L 1000.59 1854.55 M 614.745 1749.06 L 807.665 1801.8 M 1086.83 827.273 L 770.601 927.273 M 1086.83 1027.27 L 1403.06 927.273 M 770.601 927.273 L 1086.83 827.273 M 1201.82 663.636 L 885.593 563.636 M 885.593 563.636 L 1086.83 827.273 M 1403.06 927.273 L 1201.82 663.636 M 1086.83 827.273 L 885.593 563.636 M 885.593 563.636 L 1201.82 663.636 M 1201.82 663.636 L 1000.59 400 M 487.225 1594.99 L 179.853 1719.58 M 0 1998.24 L 307.372 1873.65 M 179.853 1719.58 L 0 1998.24 M 179.853 1719.58 L 487.225 1594.99 M 359.706 1440.91 L 179.853 1719.58 M 307.372 1873.65 L 614.745 1749.06 M 1086.83 1027.27 L 885.593 1290.91 M 1201.82 1190.91 L 1403.06 927.273 M 1403.06 927.273 L 1086.83 1027.27 M 1000.59 1454.55 L 1201.82 1190.91 M 885.593 1290.91 L 1086.83 1027.27 M 684.357 1554.55 L 684.357 1754.55 M 684.357 1754.55 L 684.357 1554.55 M 1000.59 1654.55 L 1000.59 1454.55 M 1000.59 1854.55 L 1000.59 1654.55 M 569.365 1390.91 L 368.13 1654.55 M 582.433 1059.5 L 381.197 1323.14 M 381.197 1323.14 L 569.365 1390.91 M 381.197 1985.95 L 569.365 1918.18 M 368.13 1654.55 L 381.197 1985.95 M 569.365 1918.18 L 582.433 2249.59 M 582.433 2249.59 L 770.601 2181.82 M 770.601 1127.27 L 582.433 1059.5 M 684.357 1754.55 L 569.365 1918.18 M 569.365 1918.18 L 684.357 1754.55 M 1188.75 1786.78 L 1201.82 2118.18 M 1403.06 2381.82 L 1389.99 2050.41 M 1201.82 2118.18 L 1403.06 2381.82 M 1201.82 2118.18 L 1188.75 1786.78 M 1389.99 2050.41 L 1376.92 1719.01 M 1201.82 2118.18 L 885.593 2018.18 M 1403.06 2381.82 L 1201.82 2118.18 M 770.601 2181.82 L 1086.83 2281.82 M 885.593 2018.18 L 1201.82 2118.18 M 1086.83 2281.82 L 770.601 2381.82 M 770.601 2381.82 L 1086.83 2481.82 M 1086.83 2481.82 L 1403.06 2381.82 M 540.618 400 L 553.685 68.595 M 553.685 68.595 L 352.449 332.231 M 352.449 332.231 L 365.516 0.826446 M 365.516 0.826446 L 164.28 264.463 M 201.344 810.068 L 21.4908 1088.73 M 21.4908 1088.73 L 34.5581 1420.14 M 34.5581 1420.14 L 214.411 1141.47 M 21.4908 1088.73 L 201.344 810.068 M 8.42352 757.325 L 21.4908 1088.73 M 214.411 1141.47 L 394.264 862.81 M 569.365 463.636 L 381.197 531.405 M 381.197 531.405 L 569.365 463.636 M 582.433 795.041 L 770.601 727.273 M 394.264 862.81 L 582.433 795.041 M 381.197 531.405 L 188.277 478.663 M 368.13 200 L 188.277 478.663 M 188.277 478.663 L 381.197 531.405 M 188.277 478.663 L 8.42352 757.325 M 684.357 100 L 684.357 300 M 684.357 300 L 684.357 100 M 684.357 100 L 368.13 200 M 1000.59 200 L 1000.59 0 M 1000.59 0 L 684.357 100 M 1000.59 400 L 1000.59 200" />
<path fill="none" class="c" d=" M 770.601 1127.27 L 770.601 927.273 M 454.374 827.273 L 138.146 927.273 M 138.146 927.273 L 454.374 1027.27 M 454.374 1027.27 L 770.601 1127.27 M 770.601 927.273 L 770.601 727.273 M 770.601 727.273 L 454.374 827.273 M 1086.83 827.273 L 770.601 727.273 M 885.593 563.636 L 770.601 727.273 M 569.365 463.636 L 770.601 727.273 M 1000.59 400 L 684.357 300 M 381.197 531.405 L 394.264 862.81 M 684.357 300 L 368.13 200 M 368.13 200 L 569.365 463.636 M 368.13 200 L 381.197 531.405 M 8.42352 757.325 L 201.344 810.068 M 885.593 563.636 L 1000.59 400 M 201.344 810.068 L 394.264 862.81 M 1403.06 927.273 L 1086.83 827.273 M 770.601 1127.27 L 1086.83 1027.27 M 770.601 1127.27 L 885.593 1290.91 M 770.601 1127.27 L 569.365 1390.91 M 684.357 1554.55 L 1000.59 1454.55 M 684.357 1754.55 L 1000.59 1854.55 M 569.365 1918.18 L 770.601 2181.82 M 1000.59 1454.55 L 885.593 1290.91 M 368.13 1654.55 L 684.357 1554.55 M 368.13 1654.55 L 684.357 1754.55 M 368.13 1654.55 L 569.365 1918.18 M 885.593 2018.18 L 1000.59 1854.55 M 770.601 2181.82 L 885.593 2018.18 M 1201.82 2118.18 L 1000.59 1854.55 M 1188.75 1786.78 L 1000.59 1854.55 M 987.518 1523.14 L 1000.59 1854.55 M 1188.75 1786.78 L 1376.92 1719.01 M 974.451 1191.74 L 987.518 1523.14 M 1175.69 1455.37 L 974.451 1191.74 M 1376.92 1719.01 L 1175.69 1455.37 M 974.451 1191.74 L 794.598 1470.4 M 339.382 663.636 L 138.146 927.273 M 540.618 400 L 339.382 663.636 M 540.618 400 L 352.449 332.231 M 359.706 1440.91 L 487.225 1594.99 M 794.598 1470.4 L 614.745 1749.06 M 487.225 1594.99 L 614.745 1749.06 M 352.449 332.231 L 164.28 264.463 M 1086.83 2281.82 L 1403.06 2381.82" />
<line x1="348.964320" y1="927.272727" x2="559.782830" y2="927.272727" class="t" />
<line x1="665.192086" y1="1027.272727" x2="559.782830" y2="927.272727" class="t" />
<line x1="876.010597" y1="1027.272727" x2="665.192086" y2="1027.272727" class="t" />
<line x1="310.633682" y1="806.060606" x2="348.964320" y2="927.272727" class="t" />
<line x1="310.633682" y1="1048.484848" x2="348.964320" y2="927.272727" class="t" />
<line x1="626.861448" y1="1148.484848" x2="665.192086" y2="1027.272727" class="t" />
<line x1="665.192086" y1="827.272727" x2="559.782830" y2="927.272727" class="t" />
<line x1="876.010597" y1="827.272727" x2="665.192086" y2="827.272727" class="t" />
<line x1="626.861448" y1="706.060606" x2="665.192086" y2="827.272727" class="t" />
<line x1="981.419852" y1="927.272727" x2="876.010597" y2="1027.272727" class="t" />
<line x1="1192.238363" y1="927.272727" x2="981.419852" y2="927.272727" class="t" />
<line x1="914.341235" y1="706.060606" x2="876.010597" y2="827.272727" class="t" />
<line x1="741.853362" y1="584.848485" x2="914.341235" y2="706.060606" class="t" />
<line x1="713.105384" y1="442.424242" x2="741.853362" y2="584.848485" class="t" />
<line x1="640.799861" y1="661.983471" x2="741.853362" y2="584.848485" class="t" />
<line x1="510.998382" y1="596.694215" x2="640.799861" y2="661.983471" class="t" />
<line x1="856.845277" y1="421.212121" x2="713.105384" y2="442.424242" class="t" />
<line x1="895.175916" y1="300.000000" x2="856.845277" y2="421.212121" class="t" />
<line x1="452.631273" y1="729.752066" x2="510.998382" y2="596.694215" class="t" />
<line x1="325.601637" y1="734.760831" x2="452.631273" y2="729.752066" class="t" />
<line x1="789.766660" y1="200.000000" x2="895.175916" y2="300.000000" class="t" />
<line x1="895.175916" y1="100.000000" x2="789.766660" y2="200.000000" class="t" />
<line x1="256.939110" y1="606.711746" x2="325.601637" y2="734.760831" class="t" />
<line x1="132.681317" y1="682.018532" x2="256.939110" y2="606.711746" class="t" />
<line x1="540.617511" y1="321.212121" x2="713.105384" y2="442.424242" class="t" />
<line x1="578.948150" y1="200.000000" x2="540.617511" y2="321.212121" class="t" />
<line x1="439.564010" y1="398.347107" x2="540.617511" y2="321.212121" class="t" />
<line x1="312.534374" y1="403.355873" x2="439.564010" y2="398.347107" class="t" />
<line x1="77.086053" y1="885.374405" x2="132.681317" y2="682.018532" class="t" />
<line x1="1029.333150" y1="542.424242" x2="856.845277" y2="421.212121" class="t" />
<line x1="270.006373" y1="938.116704" x2="325.601637" y2="734.760831" class="t" />
<line x1="1230.569001" y1="806.060606" x2="1192.238363" y2="927.272727" class="t" />
<line x1="1058.081128" y1="684.848485" x2="1230.569001" y2="806.060606" class="t" />
<line x1="914.341235" y1="1148.484848" x2="876.010597" y2="1027.272727" class="t" />
<line x1="741.853362" y1="1269.696970" x2="914.341235" y2="1148.484848" class="t" />
<line x1="713.105384" y1="1412.121212" x2="741.853362" y2="1269.696970" class="t" />
<line x1="640.799861" y1="1192.561983" x2="741.853362" y2="1269.696970" class="t" />
<line x1="510.998382" y1="1257.851240" x2="640.799861" y2="1192.561983" class="t" />
<line x1="856.845277" y1="1433.333333" x2="713.105384" y2="1412.121212" class="t" />
<line x1="895.175916" y1="1554.545455" x2="856.845277" y2="1433.333333" class="t" />
<line x1="789.766660" y1="1654.545455" x2="895.175916" y2="1554.545455" class="t" />
<line x1="895.175916" y1="1754.545455" x2="789.766660" y2="1654.545455" class="t" />
<line x1="856.845277" y1="1875.757576" x2="895.175916" y2="1754.545455" class="t" />
<line x1="713.105384" y1="1896.969697" x2="856.845277" y2="1875.757576" class="t" />
<line x1="741.853362" y1="2039.393939" x2="713.105384" y2="1896.969697" class="t" />
<line x1="640.799861" y1="2116.528926" x2="741.853362" y2="2039.393939" class="t" />
<line x1="1029.333150" y1="1312.121212" x2="856.845277" y2="1433.333333" class="t" />
<line x1="540.617511" y1="1533.333333" x2="713.105384" y2="1412.121212" class="t" />
<line x1="578.948150" y1="1654.545455" x2="540.617511" y2="1533.333333" class="t" />
<line x1="540.617511" y1="1775.757576" x2="578.948150" y2="1654.545455" class="t" />
<line x1="439.564010" y1="1852.892562" x2="540.617511" y2="1775.757576" class="t" />
<line x1="1029.333150" y1="1996.969697" x2="856.845277" y2="1875.757576" class="t" />
<line x1="914.341235" y1="2160.606061" x2="741.853362" y2="2039.393939" class="t" />
<line x1="1130.386651" y1="1919.834711" x2="1029.333150" y2="1996.969697" class="t" />
<line x1="1058.952279" y1="1721.487603" x2="1130.386651" y2="1919.834711" class="t" />
<line x1="931.922643" y1="1726.496369" x2="1058.952279" y2="1721.487603" class="t" />
<line x1="1117.319388" y1="1588.429752" x2="1058.952279" y2="1721.487603" class="t" />
<line x1="1045.885016" y1="1390.082645" x2="1117.319388" y2="1588.429752" class="t" />
<line x1="1247.120867" y1="1653.719008" x2="1117.319388" y2="1588.429752" class="t" />
<line x1="1318.555239" y1="1852.066116" x2="1247.120867" y2="1653.719008" class="t" />
<line x1="918.855380" y1="1395.091410" x2="1045.885016" y2="1390.082645" class="t" />
<line x1="1146.938517" y1="1312.947658" x2="1045.885016" y2="1390.082645" class="t" />
<line x1="1348.174368" y1="1576.584022" x2="1247.120867" y2="1653.719008" class="t" />
<line x1="1058.081128" y1="2139.393939" x2="914.341235" y2="2160.606061" class="t" />
<line x1="1230.569001" y1="2260.606061" x2="1058.081128" y2="2139.393939" class="t" />
<line x1="1260.188130" y1="1985.123967" x2="1318.555239" y2="1852.066116" class="t" />
<line x1="1331.622502" y1="2183.471074" x2="1260.188130" y2="1985.123967" class="t" />
<line x1="145.748580" y1="1013.423491" x2="270.006373" y2="938.116704" class="t" />
<line x1="90.153316" y1="1216.779364" x2="145.748580" y2="1013.423491" class="t" />
<line x1="1058.081128" y1="1169.696970" x2="1029.333150" y2="1312.121212" class="t" />
<line x1="1230.569001" y1="1048.484848" x2="1058.081128" y2="1169.696970" class="t" />
<line x1="483.121554" y1="684.848485" x2="626.861448" y2="706.060606" class="t" />
<line x1="511.869533" y1="542.424242" x2="483.121554" y2="684.848485" class="t" />
<line x1="812.042204" y1="1326.152585" x2="918.855380" y2="1395.091410" class="t" />
<line x1="649.633763" y1="1460.569633" x2="812.042204" y2="1326.152585" class="t" />
<line x1="863.260116" y1="1598.447283" x2="931.922643" y2="1726.496369" class="t" />
<line x1="739.002323" y1="1673.754070" x2="863.260116" y2="1598.447283" class="t" />
<line x1="209.580181" y1="728.925620" x2="310.633682" y2="806.060606" class="t" />
<line x1="281.014552" y1="530.578512" x2="209.580181" y2="728.925620" class="t" />
<line x1="410.816032" y1="465.289256" x2="511.869533" y2="542.424242" class="t" />
<line x1="482.250403" y1="266.942149" x2="410.816032" y2="465.289256" class="t" />
<line x1="504.669939" y1="1450.741070" x2="649.633763" y2="1460.569633" class="t" />
<line x1="342.261498" y1="1585.158118" x2="504.669939" y2="1450.741070" class="t" />
<line x1="632.189147" y1="1604.815245" x2="739.002323" y2="1673.754070" class="t" />
<line x1="469.780706" y1="1739.232293" x2="632.189147" y2="1604.815245" class="t" />
<line x1="222.647444" y1="397.520661" x2="281.014552" y2="530.578512" class="t" />
<line x1="294.081815" y1="199.173554" x2="222.647444" y2="397.520661" class="t" />
<line x1="1319.426390" y1="1434.159780" x2="1348.174368" y2="1576.584022" class="t" />
<line x1="1463.166283" y1="1412.947658" x2="1319.426390" y2="1434.159780" class="t" />
<line x1="483.121554" y1="1169.696970" x2="626.861448" y2="1148.484848" class="t" />
<line x1="511.869533" y1="1312.121212" x2="483.121554" y2="1169.696970" class="t" />
<line x1="324.816882" y1="1729.403729" x2="469.780706" y2="1739.232293" class="t" />
<line x1="162.408441" y1="1863.820777" x2="324.816882" y2="1729.403729" class="t" />
<line x1="1192.238363" y1="2381.818182" x2="1230.569001" y2="2260.606061" class="t" />
<line x1="981.419852" y1="2381.818182" x2="1192.238363" y2="2381.818182" class="t" />
</svg>
