<?xml version="1.0"?>
<svg width="1067" height="1167" version="1.1" xmlns="http://www.w3.org/2000/svg" >
<defs>
<style type="text/css"><![CDATA[
.m {stroke:rgb(255,0,0);stroke-width:1.458750;}
.v {stroke:rgb(0,0,255);stroke-width:1.458750;}
.b {stroke:rgb(0,0,0);stroke-width:2.917500;fill:white}
.n {stroke:rgb(128,128,128);stroke-width:1.458750}
.t {stroke:rgb(0,128,0);stroke-width:1.458750;}
.c {stroke:rgb(128,128,128);stroke-width:1.458750;stroke-dasharray:10.670000, 10.670000;}
]]></style>
</defs>
<path fill="none" style="stroke:black;stroke-width:2.917500;" d=" M 832.98 715.567 L 813.671 714.54 M 816.791 745.768 L 826.566 746.288 M 851.087 722.351 L 832.98 715.567 M 826.566 746.288 L 835.733 749.722 M 866.316 734.266 L 851.087 722.351 M 835.733 749.722 L 843.442 755.754 M 877.257 750.209 L 866.316 734.266 M 843.442 755.754 L 848.981 763.825 M 882.899 768.705 L 877.257 750.209 M 851.837 773.188 L 882.899 768.705 M 848.981 763.825 L 851.837 773.188 M 847.666 786.502 L 878.101 794.161 M 879.913 774.91 L 848.583 776.756 M 843.791 795.491 L 870.386 812.154 M 878.04 794.397 L 847.666 786.502 M 717.828 954.025 L 704.119 922.62 M 704.119 922.62 L 718.071 953.917 M 718.071 953.917 L 713.905 922.811 M 698.234 953.523 L 694.867 919.422 M 694.867 919.422 L 698.499 953.496 M 678.015 946.974 L 686.355 913.737 M 687.05 913.53 L 680.008 947.065 M 652.432 918.575 L 663.038 934.743 M 686.355 913.737 L 680.986 905.553 M 647.178 899.966 L 652.432 918.575 M 680.986 905.553 L 678.326 896.132 M 647.762 880.639 L 647.178 899.966 M 678.326 896.132 L 678.622 886.348 M 654.131 862.381 L 647.762 880.639 M 678.622 886.348 L 681.846 877.106 M 687.7 869.26 L 665.695 846.884 M 709.614 844.202 L 690.441 819.356 M 677.108 833.36 L 702.865 851.291 M 748.581 804.438 L 730.024 779.129 M 716.351 792.802 L 741.66 811.36 M 764.501 743.795 L 790.258 761.726 M 777.834 729.791 L 805.882 749.477 M 805.577 749.905 L 777.834 729.791 M 794.946 719.368 L 816.791 745.768 M 815.446 747.393 L 794.616 720.185 M 813.136 671.694 L 841.115 699.107 M 819.931 703.447 L 839.192 701.735 M 839.192 701.735 L 812.664 672.917 M 869.355 671.963 L 841.265 667.723 M 841.115 699.107 L 860.235 701.993 M 895.058 684.06 L 869.355 671.963 M 860.235 701.993 L 877.73 710.227 M 916.228 703.004 L 895.058 684.06 M 877.73 710.227 L 892.14 723.121 M 931.095 727.211 L 916.228 703.004 M 902.26 739.598 L 931.095 727.211 M 892.14 723.121 L 902.26 739.598 M 878.101 794.161 L 908.593 801.587 M 911.255 773.304 L 879.913 774.91 M 870.386 812.154 L 897.107 828.613 M 908.353 802.526 L 878.04 794.397 M 698.499 953.496 L 693.116 984.415 M 721.513 985.191 L 717.828 954.025 M 688.11 984.82 L 678.015 946.974 M 680.008 947.065 L 692.137 984.309 M 692.137 984.309 L 698.234 953.523 M 656.144 974.407 L 660.293 935.458 M 663.038 934.743 L 661.886 973.896 M 621.486 930.142 L 635.582 954.806 M 660.293 935.458 L 650.698 918.67 M 615.033 902.476 L 621.486 930.142 M 650.698 918.67 L 646.306 899.84 M 616.762 874.121 L 615.033 902.476 M 646.306 899.84 L 647.483 880.539 M 626.53 847.445 L 616.762 874.121 M 647.483 880.539 L 654.131 862.381 M 665.695 846.884 L 643.519 824.677 M 690.441 819.356 L 671.078 794.658 M 651.489 815.232 L 677.108 833.36 M 730.024 779.129 L 711.272 753.963 M 691.185 774.051 L 716.351 792.802 M 738.883 725.667 L 764.501 743.795 M 758.471 705.092 L 794.946 719.368 M 794.616 720.185 L 758.471 705.092 M 786.269 683.42 L 819.931 703.447 M 813.671 714.54 L 782.802 690.429 M 805.051 639.744 L 843.277 663.589 M 841.265 667.723 L 804.643 641.482 M 877.772 634.609 L 841.066 632.283 M 843.277 663.589 L 871.628 665.385 M 912.558 646.557 L 877.772 634.609 M 871.628 665.385 L 898.495 674.613 M 942.946 667.276 L 912.558 646.557 M 898.495 674.613 L 921.966 690.617 M 966.776 695.293 L 942.946 667.276 M 940.372 712.256 L 966.776 695.293 M 921.966 690.617 L 940.372 712.256 M 939.168 808.669 L 942.614 772.05 M 908.593 801.587 L 939.168 808.669 M 942.614 772.05 L 911.255 773.304 M 897.107 828.613 L 924.013 844.77 M 938.573 810.995 L 908.353 802.526 M 693.116 984.415 L 688.081 1015.39 M 724.847 1016.4 L 721.513 985.191 M 670.096 1017.25 L 656.144 974.407 M 661.886 973.896 L 680.013 1015.14 M 680.013 1015.14 L 688.11 984.82 M 626.617 1000.97 L 629.554 956.012 M 635.582 954.806 L 637.712 999.808 M 587.708 939.318 L 603.014 972.762 M 629.554 956.012 L 617.733 930.181 M 581.789 903.017 L 587.708 939.318 M 617.733 930.181 L 613.161 902.143 M 585.678 866.444 L 581.789 903.017 M 613.161 902.143 L 616.164 873.895 M 599.098 832.199 L 585.678 866.444 M 616.164 873.895 L 626.53 847.445 M 643.519 824.677 L 621.094 802.721 M 671.078 794.658 L 651.438 770.179 M 626.076 796.817 L 651.489 815.232 M 711.272 753.963 L 692.239 729.01 M 666.232 755.017 L 691.185 774.051 M 713.47 707.252 L 738.883 725.667 M 741.517 678.219 L 786.269 683.42 M 782.802 690.429 L 738.831 680.614 M 770.88 656.069 L 813.136 671.694 M 812.664 672.917 L 770.88 656.069 M 795.168 602.576 L 843.477 619.269 M 841.066 632.283 L 795.074 609.988 M 881.216 584.801 L 837.127 588.534 M 843.477 619.269 L 880.125 616.166 M 924.939 591.588 L 881.216 584.801 M 880.125 616.166 L 916.47 621.808 M 965.821 608.511 L 924.939 591.588 M 916.47 621.808 L 950.453 635.875 M 1001.55 634.613 L 965.821 608.511 M 950.453 635.875 L 980.152 657.572 M 1030.1 668.415 L 1001.55 634.613 M 1003.89 685.67 L 1030.1 668.415 M 980.152 657.572 L 1003.89 685.67 M 924.013 844.77 L 951.15 860.534 M 968.666 819.902 L 938.573 810.995 M 688.081 1015.39 L 683.497 1046.44 M 727.727 1047.65 L 724.847 1016.4 M 640.721 1050.1 L 626.617 1000.97 M 637.712 999.808 L 658.61 1046.45 M 658.61 1046.45 L 670.096 1017.25 M 564.232 987.14 L 587.408 1024.83 M 587.408 1024.83 L 592.731 973.998 M 603.014 972.762 L 605.115 1023.83 M 550.615 945.041 L 564.232 987.14 M 592.731 973.998 L 581.412 939.003 M 547.327 900.917 L 550.615 945.041 M 581.412 939.003 L 578.679 902.325 M 554.556 857.265 L 547.327 900.917 M 578.679 902.325 L 584.688 866.039 M 571.891 816.556 L 554.556 857.265 M 584.688 866.039 L 599.098 832.199 M 621.094 802.721 L 598.352 781.094 M 651.438 770.179 L 631.444 745.989 M 600.934 778.034 L 626.076 796.817 M 692.239 729.01 L 672.845 704.336 M 641.558 735.623 L 666.232 755.017 M 738.831 680.614 L 718.837 656.424 M 688.327 688.469 L 713.47 707.252 M 719.771 655.591 L 741.517 678.219 M 755.094 628.944 L 805.051 639.744 M 804.643 641.482 L 755.094 628.944 M 781.356 565.401 L 837.674 572.688 M 837.127 588.534 L 782.236 573.981 M 824.973 525.31 L 881.095 533.978 M 837.674 572.688 L 880.546 561.746 M 880.546 561.746 L 826.864 543.225 M 920.354 492.947 L 871.011 504.258 M 881.095 533.978 L 924.223 524.091 M 970.965 491.843 L 920.354 492.947 M 924.223 524.091 L 968.458 523.127 M 1020.75 500.993 L 970.965 491.843 M 968.458 523.127 L 1011.98 531.124 M 1067.67 520.018 L 1020.75 500.993 M 1052.98 547.753 L 1067.67 520.018 M 1011.98 531.124 L 1052.98 547.753 M 951.15 860.534 L 978.558 875.821 M 998.599 829.334 L 968.666 819.902 M 683.497 1046.44 L 679.457 1077.56 M 730.061 1078.95 L 727.727 1047.65 M 565.329 1085.42 L 565.437 1028.63 M 605.115 1023.83 L 624.753 1077.11 M 624.753 1077.11 L 640.721 1050.1 M 518.957 996.005 L 537.577 1043.08 M 565.437 1028.63 L 549.163 987.487 M 510.237 946.139 L 518.957 996.005 M 549.163 987.487 L 541.541 943.902 M 511.777 895.539 L 510.237 946.139 M 541.541 943.902 L 542.887 899.676 M 523.513 846.295 L 511.777 895.539 M 542.887 899.676 L 553.144 856.635 M 544.961 800.44 L 523.513 846.295 M 553.144 856.635 L 571.891 816.556 M 598.352 781.094 L 575.236 759.867 M 631.444 745.989 L 611.03 722.151 M 576.123 758.815 L 600.934 778.034 M 672.845 704.336 L 653.023 680.005 M 617.226 715.801 L 641.558 735.623 M 718.837 656.424 L 698.423 632.586 M 663.517 669.25 L 688.327 688.469 M 698.423 632.586 L 719.771 655.591 M 738.469 599.419 L 795.168 602.576 M 795.074 609.988 L 738.837 602.099 M 763.383 529.069 L 824.973 525.31 M 826.864 543.225 L 765.348 538.407 M 800.56 466.534 L 861.711 458.291 M 871.011 504.258 L 809.632 497.932 M 893.289 405.28 L 844.413 432.105 M 861.711 458.291 L 906.089 433.935 M 945.883 386.777 L 893.289 405.28 M 906.089 433.935 L 953.844 417.134 M 1000.79 377.09 L 945.883 386.777 M 953.844 417.134 L 1003.7 408.339 M 1056.54 376.479 L 1000.79 377.09 M 1054.32 407.784 L 1056.54 376.479 M 1003.7 408.339 L 1054.32 407.784 M 1006.27 890.559 L 1028.34 839.36 M 978.558 875.821 L 1006.27 890.559 M 1028.34 839.36 L 998.599 829.334 M 578.328 1145.74 L 565.329 1085.42 M 679.457 1077.56 L 731.77 1110.28 M 731.77 1110.28 L 730.061 1078.95 M 477.786 1052.1 L 496.426 1104.64 M 496.426 1104.64 L 508.123 1044.06 M 537.577 1043.08 L 540.575 1104.71 M 467.956 997.218 L 477.786 1052.1 M 508.123 1044.06 L 499.197 994.228 M 467.199 941.47 L 467.956 997.218 M 499.197 994.228 L 498.51 943.61 M 475.535 886.343 L 467.199 941.47 M 498.51 943.61 L 506.079 893.555 M 492.742 833.31 L 475.535 886.343 M 506.079 893.555 L 521.702 845.403 M 518.358 783.79 L 492.742 833.31 M 521.702 845.403 L 544.961 800.44 M 575.236 759.867 L 551.701 739.105 M 611.03 722.151 L 590.145 698.726 M 551.701 739.105 L 576.123 758.815 M 653.023 680.005 L 632.719 656.074 M 593.295 695.497 L 617.226 715.801 M 639.094 649.54 L 663.517 669.25 M 677.539 609.16 L 738.469 599.419 M 738.837 602.099 L 677.539 609.16 M 719.877 570.67 L 781.356 565.401 M 782.236 573.981 L 720.533 573.665 M 737.656 485.135 L 800.56 466.534 M 809.632 497.932 L 744.329 504.131 M 765.85 413.112 L 826.08 387.127 M 844.413 432.105 L 779.737 443.054 M 844.681 324.223 L 802.6 366.304 M 826.08 387.127 L 865.504 347.704 M 891.489 287.473 L 844.681 324.223 M 865.504 347.704 L 909.357 313.274 M 942.354 256.581 L 891.489 287.473 M 909.357 313.274 L 957.01 284.332 M 996.547 231.99 L 942.354 256.581 M 957.01 284.332 L 1007.78 261.294 M 1053.29 214.051 L 996.547 231.99 M 1060.94 244.488 L 1053.29 214.051 M 1007.78 261.294 L 1060.94 244.488 M 415.229 1107.64 L 426.91 1165.99 M 426.91 1165.99 L 446.316 1103.33 M 540.575 1104.71 L 556.548 1168.33 M 556.548 1168.33 L 578.328 1145.74 M 410.607 1048.31 L 415.229 1107.64 M 446.316 1103.33 L 441.985 1047.75 M 413.108 988.849 L 410.607 1048.31 M 441.985 1047.75 L 444.329 992.043 M 422.698 930.115 L 413.108 988.849 M 444.329 992.043 L 453.313 937.018 M 439.238 872.949 L 422.698 930.115 M 453.313 937.018 L 468.809 883.461 M 462.492 818.169 L 439.238 872.949 M 468.809 883.461 L 490.595 832.14 M 492.127 766.561 L 462.492 818.169 M 490.595 832.14 L 518.358 783.79 M 527.717 718.865 L 492.127 766.561 M 590.145 698.726 L 568.752 675.764 M 632.719 656.074 L 611.896 632.593 M 569.815 674.674 L 593.295 695.497 M 615.11 629.299 L 639.094 649.54 M 656.145 586.198 L 719.877 570.67 M 720.533 573.665 L 656.145 586.198 M 699.289 543.028 L 763.383 529.069 M 765.348 538.407 L 700.217 546.207 M 705.958 445.914 L 765.85 413.112 M 779.737 443.054 L 714.669 463.768 M 735.072 386.025 L 792.41 348.94 M 802.6 366.304 L 740.474 394.646 M 759.737 324.17 L 814.215 282.999 M 792.41 348.94 L 825.645 299.574 M 825.645 299.574 L 765.754 332.375 M 817.102 214.774 L 786.42 268.424 M 814.215 282.999 L 843.758 231.339 M 851.618 163.507 L 817.102 214.774 M 843.758 231.339 L 876.994 181.973 M 889.783 114.896 L 851.618 163.507 M 876.994 181.973 L 913.744 135.165 M 226.023 35.1142 L 157.743 34.2704 M 157.743 34.2704 L 170.777 62.8193 M 913.744 135.165 L 953.812 91.1637 M 953.812 91.1637 L 889.783 114.896 M 310.888 1079.94 L 300.041 1140.79 M 331.118 1145.16 L 341.563 1086.58 M 300.041 1140.79 L 331.118 1145.16 M 326.147 1020.05 L 310.888 1079.94 M 341.563 1086.58 L 356.256 1028.91 M 345.736 961.436 L 326.147 1020.05 M 356.256 1028.91 L 375.119 972.463 M 369.552 904.405 L 345.736 961.436 M 375.119 972.463 L 398.051 917.548 M 397.467 849.265 L 369.552 904.405 M 398.051 917.548 L 424.931 864.453 M 429.332 796.309 L 397.467 849.265 M 424.931 864.453 L 455.614 813.462 M 464.977 745.821 L 429.332 796.309 M 455.614 813.462 L 489.937 764.846 M 504.212 698.069 L 464.977 745.821 M 489.937 764.846 L 527.717 718.865 M 568.752 675.764 L 546.828 653.308 M 611.896 632.593 L 590.529 609.606 M 546.828 653.308 L 569.815 674.674 M 591.605 608.503 L 615.11 629.299 M 634.221 563.742 L 699.289 543.028 M 700.217 546.207 L 634.221 563.742 M 674.273 510.543 L 737.656 485.135 M 744.329 504.131 L 677.923 520.041 M 677.918 425.845 L 735.072 386.025 M 740.474 394.646 L 679.712 428.708 M 705.642 368.056 L 759.737 324.17 M 765.754 332.375 L 707.64 370.78 M 729.073 308.398 L 779.821 260.681 M 786.42 268.424 L 731.265 310.969 M 713.609 223.216 L 750.381 164.055 M 779.821 260.681 L 802.365 203.136 M 802.365 203.136 L 750.461 249.593 M 710.672 155.944 L 740.11 92.8128 M 750.381 164.055 L 757.37 102.648 M 757.37 102.648 L 719.157 160.888 M 634.278 69.3287 L 641.041 0 M 641.041 0 L 611.645 10.9915 M 740.11 92.8128 L 739.711 31.0107 M 739.711 31.0107 L 708.732 93.4007 M 170.777 62.8193 L 184.501 91.0434 M 240.435 62.993 L 226.023 35.1142 M 0 273.991 L 28.3427 287.468 M 25.8519 217.855 L 0 273.991 M 54.5169 230.631 L 25.8519 217.855 M 246.831 969.578 L 212.068 1021.61 M 238.375 1038.72 L 272.71 987.332 M 212.068 1021.61 L 238.375 1038.72 M 282.86 918.418 L 246.831 969.578 M 272.71 987.332 L 308.295 936.801 M 320.134 868.157 L 282.86 918.418 M 308.295 936.801 L 345.111 887.16 M 358.63 818.826 L 320.134 868.157 M 345.111 887.16 L 383.133 838.436 M 398.326 770.456 L 358.63 818.826 M 383.133 838.436 L 422.34 790.661 M 439.197 723.074 L 398.326 770.456 M 422.34 790.661 L 462.708 743.862 M 481.219 676.709 L 439.197 723.074 M 462.708 743.862 L 504.212 698.069 M 524.366 631.39 L 481.219 676.709 M 590.529 609.606 L 568.612 587.144 M 568.612 587.144 L 591.605 608.503 M 610.547 538.671 L 674.273 510.543 M 677.923 520.041 L 611.759 541.825 M 646.051 481.456 L 705.958 445.914 M 714.669 463.768 L 650.271 490.324 M 707.64 370.78 L 650.486 410.6 M 650.486 410.6 L 705.642 368.056 M 731.265 310.969 L 677.17 354.854 M 677.17 354.854 L 729.073 308.398 M 750.461 249.593 L 699.714 297.309 M 675.395 281.456 L 713.609 223.216 M 719.157 160.888 L 682.385 220.049 M 679.693 218.334 L 710.672 155.944 M 708.732 93.4007 L 679.294 156.532 M 625.816 138.471 L 634.278 69.3287 M 611.645 10.9915 L 604.883 80.3201 M 537.795 73.2878 L 521.15 5.64822 M 521.15 5.64822 L 497.574 26.3632 M 254.158 91.2171 L 240.435 62.993 M 184.501 91.0434 L 198.912 118.922 M 82.8597 244.108 L 54.5169 230.631 M 28.3427 287.468 L 57.0078 300.244 M 134.149 943.688 L 186.178 908.925 M 117.035 917.381 L 134.149 943.688 M 168.424 883.046 L 117.035 917.381 M 186.178 908.925 L 237.338 872.896 M 218.954 847.46 L 168.424 883.046 M 237.338 872.896 L 287.599 835.622 M 268.596 810.645 L 218.954 847.46 M 287.599 835.622 L 336.929 797.125 M 317.319 772.623 L 268.596 810.645 M 336.929 797.125 L 385.3 757.43 M 365.095 733.416 L 317.319 772.623 M 385.3 757.43 L 432.682 716.559 M 411.893 693.048 L 365.095 733.416 M 432.682 716.559 L 479.047 674.537 M 457.687 651.544 L 411.893 693.048 M 479.047 674.537 L 524.366 631.39 M 502.448 608.928 L 457.687 651.544 M 611.759 541.825 L 546.15 565.226 M 546.15 565.226 L 610.547 538.671 M 650.271 490.324 L 586.545 518.451 M 585.289 515.517 L 646.051 481.456 M 679.712 428.708 L 619.804 464.25 M 619.804 464.25 L 677.918 425.845 M 648.386 342.347 L 622.692 396.026 M 699.714 297.309 L 648.386 342.347 M 633.335 335.251 L 675.395 281.456 M 682.385 220.049 L 644.363 276.77 M 644.363 276.77 L 679.693 218.334 M 679.294 156.532 L 648.324 217.391 M 611.935 205.331 L 625.816 138.471 M 604.883 80.3201 L 595.919 148.015 M 548.565 140.719 L 537.795 73.2878 M 497.574 26.3632 L 513.237 92.8283 M 471.067 96.487 L 438.23 36.6145 M 438.23 36.6145 L 421.681 63.2804 M 267.193 119.766 L 254.158 91.2171 M 198.912 118.922 L 213.996 146.443 M 110.868 258.268 L 82.8597 244.108 M 57.0078 300.244 L 85.9744 312.322 M 49.826 325.701 L 42.5267 387.072 M 80.8339 330.543 L 49.826 325.701 M 42.5267 387.072 L 73.8054 389.638 M 125.434 811.566 L 184.932 794.842 M 118.051 781.064 L 125.434 811.566 M 175.342 764.96 L 118.051 781.064 M 184.932 794.842 L 243.05 773.82 M 231.304 744.717 L 175.342 764.96 M 243.05 773.82 L 299.479 748.612 M 285.64 720.444 L 231.304 744.717 M 299.479 748.612 L 353.917 719.352 M 338.06 692.269 L 285.64 720.444 M 353.917 719.352 L 406.075 686.197 M 388.283 660.344 L 338.06 692.269 M 406.075 686.197 L 455.673 649.323 M 436.042 624.838 L 388.283 660.344 M 455.673 649.323 L 502.448 608.928 M 481.082 585.941 L 436.042 624.838 M 586.545 518.451 L 523.162 543.86 M 523.162 543.86 L 585.289 515.517 M 593.148 447.686 L 559.912 497.052 M 622.692 396.026 L 593.148 447.686 M 615.396 391.994 L 633.335 335.251 M 602.898 327.599 L 586.092 380.759 M 613.23 272.811 L 602.898 327.599 M 648.324 217.391 L 613.23 272.811 M 589.738 267.057 L 611.935 205.331 M 595.919 148.015 L 581.258 211.952 M 549.738 206.305 L 548.565 140.719 M 513.237 92.8283 L 522.24 157.804 M 494.244 157.852 L 471.067 96.487 M 421.681 63.2804 L 452.027 121.436 M 420.695 128.067 L 377.64 78.5769 M 377.64 78.5769 L 368.455 108.586 M 279.557 148.612 L 267.193 119.766 M 213.996 146.443 L 229.719 173.605 M 138.537 273.078 L 110.868 258.268 M 85.9744 312.322 L 115.215 323.72 M 111.72 336.109 L 80.8339 330.543 M 73.8054 389.638 L 105.135 391.472 M 95.1856 707.937 L 154.613 711.102 M 98.7278 676.754 L 95.1856 707.937 M 154.403 679.719 L 98.7278 676.754 M 154.613 711.102 L 213.992 707.142 M 210.033 676.009 L 154.403 679.719 M 213.992 707.142 L 272.472 696.113 M 264.821 665.677 L 210.033 676.009 M 272.472 696.113 L 329.216 678.175 M 317.981 648.871 L 264.821 665.677 M 329.216 678.175 L 383.408 653.583 M 368.752 625.832 L 317.981 648.871 M 383.408 653.583 L 434.273 622.691 M 416.405 596.89 L 368.752 625.832 M 434.273 622.691 L 481.082 585.941 M 559.912 497.052 L 590.805 446.186 M 563.053 431.53 L 534.112 479.184 M 590.805 446.186 L 615.396 391.994 M 586.092 380.759 L 563.053 431.53 M 579.439 377.713 L 589.126 322.808 M 557.878 319.899 L 549.082 369.753 M 589.126 322.808 L 589.738 267.057 M 558.433 269.279 L 557.878 319.899 M 581.258 211.952 L 558.433 269.279 M 538.722 267.017 L 549.738 206.305 M 522.24 157.804 L 521.263 219.5 M 504.305 218.73 L 494.244 157.852 M 452.027 121.436 L 471.872 179.861 M 451.279 181.657 L 420.695 128.067 M 368.455 108.586 L 407.362 156.478 M 402.717 158.524 L 359.052 114.926 M 359.052 114.926 L 353.706 145.851 M 291.285 177.721 L 279.557 148.612 M 229.719 173.605 L 246.033 200.415 M 165.874 288.492 L 138.537 273.078 M 115.215 323.72 L 144.699 334.473 M 142.477 342.35 L 111.72 336.109 M 105.135 391.472 L 136.498 392.619 M 96.1868 626.691 L 149.174 644.036 M 108.355 597.763 L 96.1868 626.691 M 156.467 613.511 L 108.355 597.763 M 149.174 644.036 L 204.279 652.516 M 206.501 621.211 L 156.467 613.511 M 204.279 652.516 L 260.029 651.904 M 257.121 620.656 L 206.501 621.211 M 260.029 651.904 L 314.935 642.218 M 306.975 611.86 L 257.121 620.656 M 314.935 642.218 L 367.529 623.715 M 354.729 595.06 L 306.975 611.86 M 367.529 623.715 L 416.405 596.89 M 460.258 562.46 L 399.108 570.704 M 398.805 568.015 L 460.258 562.46 M 499.682 523.037 L 475.751 502.733 M 476.664 501.703 L 499.682 523.037 M 534.112 479.184 L 560.936 430.307 M 532.282 417.507 L 507.926 461.886 M 560.936 430.307 L 579.439 377.713 M 549.082 369.753 L 532.282 417.507 M 543.434 367.63 L 546.216 317.083 M 514.867 318.551 L 512.435 362.731 M 546.216 317.083 L 538.722 267.017 M 508.317 274.792 L 514.867 318.551 M 521.263 219.5 L 508.317 274.792 M 499.185 275.287 L 504.305 218.73 M 471.872 179.861 L 478.29 236.285 M 466.128 236.469 L 451.279 181.657 M 407.362 156.478 L 432.984 207.157 M 431.528 207.46 L 402.717 158.524 M 353.706 145.851 L 391.814 187.953 M 374.86 194.724 L 329.949 159.97 M 329.949 159.97 L 330.743 191.343 M 302.431 207.059 L 291.285 177.721 M 246.033 200.415 L 262.879 226.894 M 192.899 304.447 L 165.874 288.492 M 144.699 334.473 L 174.391 344.637 M 173.103 349.204 L 142.477 342.35 M 136.498 392.619 L 167.877 393.14 M 113.409 568.728 L 157.447 593.696 M 131.581 543.141 L 113.409 568.728 M 170.072 564.963 L 131.581 543.141 M 157.447 593.696 L 205.622 609.246 M 212.179 578.555 L 170.072 564.963 M 205.622 609.246 L 255.947 614.738 M 256.164 583.355 L 212.179 578.555 M 255.947 614.738 L 306.343 609.943 M 300.211 579.164 L 256.164 583.355 M 306.343 609.943 L 354.729 595.06 M 342.502 566.156 L 300.211 579.164 M 399.108 570.704 L 342.502 566.156 M 342.779 558.748 L 398.805 568.015 M 439.955 538.529 L 383.212 540.779 M 383.167 538.515 L 439.955 538.529 M 475.751 502.733 L 451.42 482.911 M 454.076 479.916 L 476.664 501.703 M 507.926 461.886 L 530.493 416.571 M 530.493 416.571 L 543.434 367.63 M 512.435 362.731 L 501.124 405.507 M 510.935 362.362 L 510.276 318.121 M 479.174 322.317 L 479.722 359.093 M 510.276 318.121 L 499.185 275.287 M 469.955 286.712 L 479.174 322.317 M 478.29 236.285 L 469.955 286.712 M 463.703 287.523 L 466.128 236.469 M 432.984 207.157 L 442.687 257.338 M 442.687 257.338 L 431.528 207.46 M 391.814 187.953 L 414.439 233.783 M 403.728 236.901 L 374.86 194.724 M 330.743 191.343 L 368.757 225.508 M 359.374 229.344 L 317.301 200.324 M 317.301 200.324 L 322.643 231.25 M 313.062 236.587 L 302.431 207.059 M 262.879 226.894 L 280.185 253.075 M 219.642 320.873 L 192.899 304.447 M 174.391 344.637 L 204.257 354.28 M 203.605 356.591 L 173.103 349.204 M 167.877 393.14 L 199.261 393.114 M 143.084 497.583 L 174.72 528.517 M 167.538 477.913 L 143.084 497.583 M 193.836 503.627 L 167.538 477.913 M 174.72 528.517 L 212.768 551.102 M 225.464 522.4 L 193.836 503.627 M 212.768 551.102 L 255.075 564.06 M 260.631 533.172 L 225.464 522.4 M 255.075 564.06 L 299.245 566.658 M 297.348 535.331 L 260.631 533.172 M 299.245 566.658 L 342.779 558.748 M 333.535 528.756 L 297.348 535.331 M 383.212 540.779 L 333.535 528.756 M 334.528 522.812 L 383.167 538.515 M 420.133 514.198 L 369.161 510.43 M 369.324 508.652 L 420.133 514.198 M 451.42 482.911 L 426.746 463.517 M 431.872 457.737 L 454.076 479.916 M 481.4 445.114 L 454.585 428.807 M 455.171 427.881 L 481.4 445.114 M 501.124 405.507 L 510.935 362.362 M 479.722 359.093 L 471.567 394.958 M 478.675 358.871 L 475.99 322.189 M 445.276 328.635 L 447.349 356.967 M 475.99 322.189 L 463.703 287.523 M 435.785 301.859 L 445.276 328.635 M 419.553 278.545 L 435.785 301.859 M 414.439 233.783 L 419.553 278.545 M 413.836 280.806 L 403.728 236.901 M 368.757 225.508 L 390.113 265.178 M 384.554 266.704 L 359.374 229.344 M 322.643 231.25 L 356.805 260.623 M 356.263 260.883 L 321.014 232.824 M 321.014 232.824 L 327.969 263.427 M 323.263 266.267 L 313.062 236.587 M 280.185 253.075 L 297.87 279.001 M 246.142 337.685 L 219.642 320.873 M 204.257 354.28 L 234.259 363.488 M 233.996 364.421 L 203.605 356.591 M 199.261 393.114 L 230.641 392.63 M 181.251 447.005 L 201.296 477.843 M 209.611 433.564 L 181.251 447.005 M 225.093 457.382 L 209.611 433.564 M 201.296 477.843 L 228.78 502.284 M 246.321 476.26 L 225.093 457.382 M 228.78 502.284 L 261.748 518.589 M 271.785 488.854 L 246.321 476.26 M 261.748 518.589 L 297.854 525.599 M 299.672 494.268 L 271.785 488.854 M 297.854 525.599 L 334.528 522.812 M 327.998 492.116 L 299.672 494.268 M 369.161 510.43 L 327.998 492.116 M 329.417 487.742 L 369.324 508.652 M 400.739 489.524 L 356.723 479.909 M 357.022 478.633 L 400.739 489.524 M 426.746 463.517 L 401.793 444.483 M 409.993 435.237 L 431.872 457.737 M 454.585 428.807 L 427.536 412.893 M 429.195 410.268 L 455.171 427.881 M 471.567 394.958 L 478.675 358.871 M 447.349 356.967 L 441.859 384.839 M 446.721 356.85 L 443.374 328.64 M 413.07 336.803 L 415.349 356.005 M 443.374 328.64 L 432.099 302.566 M 405.396 319.055 L 413.07 336.803 M 432.099 302.566 L 413.836 280.806 M 392.965 304.243 L 405.396 319.055 M 390.113 265.178 L 392.965 304.243 M 390.391 305.436 L 384.554 266.704 M 356.805 260.623 L 373.476 296.067 M 373.476 296.067 L 356.263 260.883 M 327.969 263.427 L 354.526 292.218 M 352.721 293.065 L 324.642 265.755 M 324.642 265.755 L 333.584 295.838 M 333.13 296.059 L 323.263 266.267 M 297.87 279.001 L 315.845 304.727 M 272.452 354.795 L 246.142 337.685 M 234.259 363.488 L 264.363 372.358 M 264.297 372.593 L 233.996 364.421 M 230.641 392.63 L 262.013 391.794 M 221.148 415.118 L 232.206 441.286 M 251.519 407.208 L 221.148 415.118 M 259.045 425.02 L 251.519 407.208 M 232.206 441.286 L 250.286 463.197 M 271.352 439.934 L 259.045 425.02 M 250.286 463.197 L 273.878 479.022 M 287.41 450.706 L 271.352 439.934 M 273.878 479.022 L 301.011 487.438 M 305.878 456.434 L 287.41 450.706 M 301.011 487.438 L 329.417 487.742 M 325.214 456.641 L 305.878 456.434 M 356.723 479.909 L 325.214 456.641 M 326.754 453.771 L 357.022 478.633 M 381.705 464.571 L 345.591 449.405 M 345.942 448.596 L 381.705 464.571 M 401.793 444.483 L 376.627 425.732 M 388.368 412.492 L 409.993 435.237 M 427.536 412.893 L 400.309 397.283 M 403.419 392.365 L 429.195 410.268 M 441.859 384.839 L 446.721 356.85 M 415.349 356.005 L 412.039 375.056 M 415.056 355.956 L 412.19 336.833 M 382.222 346.152 L 383.672 355.832 M 412.19 336.833 L 403.707 319.457 M 377.927 337.355 L 382.222 346.152 M 403.707 319.457 L 390.391 305.436 M 371.186 330.257 L 377.927 337.355 M 362.623 325.515 L 371.186 330.257 M 354.526 292.218 L 362.623 325.515 M 362.105 326.022 L 352.721 293.065 M 333.584 295.838 L 352.444 324.447 M 352.444 324.447 L 333.362 295.985 M 333.362 295.985 L 342.767 325.926 M 342.767 325.926 L 333.13 296.059 M 315.845 304.727 L 334.017 330.314 M 298.629 372.106 L 272.452 354.795 M 264.363 372.358 L 294.535 380.997 M 294.535 380.997 L 264.297 372.593 M 262.013 391.794 L 293.379 390.717 M 258.876 397.924 L 264.062 416.552 M 290.038 394.204 L 258.876 397.924 M 292.664 403.634 L 290.038 394.204 M 264.062 416.552 L 274.609 432.759 M 298.003 411.839 L 292.664 403.634 M 274.609 432.759 L 289.541 445.044 M 305.562 418.058 L 298.003 411.839 M 289.541 445.044 L 307.476 452.271 M 314.641 421.717 L 305.562 418.058 M 307.476 452.271 L 326.754 453.771 M 324.4 422.476 L 314.641 421.717 M 345.591 449.405 L 324.4 422.476 M 325.785 420.884 L 345.942 448.596 M 362.954 439.405 L 335.398 419.036 M 335.714 418.616 L 362.954 439.405 M 376.627 425.732 L 351.318 407.174 M 366.919 389.583 L 388.368 412.492 M 400.309 397.283 L 372.964 381.883 M 377.782 374.263 L 403.419 392.365 M 412.039 375.056 L 415.056 355.956 M 825.187 748.358 L 815.446 747.393 M 834.157 752.277 L 825.187 748.358 M 841.484 758.769 L 834.157 752.277 M 846.454 767.202 L 841.484 758.769 M 848.583 776.756 L 846.454 767.202 M 817.262 778.724 L 843.791 795.491 M 713.905 922.811 L 709.618 891.722 M 681.429 905.516 L 687.05 913.53 M 678.55 896.16 L 681.429 905.516 M 678.694 886.373 L 678.55 896.16 M 681.846 877.106 L 678.694 886.373 M 709.618 891.722 L 687.7 869.26 M 728.691 869.122 L 709.614 844.202 M 702.865 851.291 L 728.691 869.122 M 767.041 829.819 L 748.581 804.438 M 741.66 811.36 L 767.041 829.819 M 816.084 779.557 L 797.007 754.636 M 790.258 761.726 L 816.084 779.557 M 816.277 779.408 L 805.577 749.905 M 797.007 754.636 L 816.277 779.408 M 805.882 749.477 L 817.262 778.724 M 383.672 355.832 L 382.146 346.163 M 382.146 346.163 L 377.716 337.435 M 377.716 337.435 L 370.811 330.496 M 370.811 330.496 L 362.105 326.022 M 334.017 330.314 L 352.289 355.831 M 324.739 389.518 L 298.629 372.106 M 293.379 390.717 L 295.273 400.321 M 295.273 400.321 L 300.035 408.873 M 300.035 408.873 L 307.2 415.543 M 307.2 415.543 L 316.071 419.681 M 316.071 419.681 L 325.785 420.884 M 335.398 419.036 L 324.739 389.518 M 344.396 414.096 L 325.74 388.859 M 325.74 388.859 L 335.714 418.616 M 351.318 407.174 L 325.937 388.715 M 325.937 388.715 L 344.396 414.096 M 372.964 381.883 L 345.558 366.59 M 345.558 366.59 L 366.919 389.583 M 382.145 365.501 L 352.215 356.063 M 352.215 356.063 L 377.782 374.263 M 352.289 355.831 L 382.145 365.501" />
<path fill="none" class="c" d=" M 481.082 585.941 L 523.162 543.86 M 460.258 562.46 L 481.082 585.941 M 523.162 543.86 L 499.682 523.037 M 499.682 523.037 L 460.258 562.46 M 523.162 543.86 L 559.912 497.052 M 559.912 497.052 L 534.112 479.184 M 534.112 479.184 L 499.682 523.037 M 590.805 446.186 L 563.053 431.53 M 615.396 391.994 L 586.092 380.759 M 439.955 538.529 L 460.258 562.46 M 475.751 502.733 L 439.955 538.529 M 534.112 479.184 L 507.926 461.886 M 507.926 461.886 L 476.664 501.703 M 560.936 430.307 L 532.282 417.507 M 579.439 377.713 L 549.082 369.753 M 420.133 514.198 L 439.955 538.529 M 451.42 482.911 L 420.133 514.198 M 507.926 461.886 L 481.4 445.114 M 481.4 445.114 L 454.076 479.916 M 530.493 416.571 L 501.124 405.507 M 501.124 405.507 L 481.4 445.114 M 543.434 367.63 L 512.435 362.731 M 400.739 489.524 L 420.133 514.198 M 426.746 463.517 L 400.739 489.524 M 454.585 428.807 L 431.872 457.737 M 501.124 405.507 L 471.567 394.958 M 471.567 394.958 L 455.171 427.881 M 510.935 362.362 L 479.722 359.093 M 381.705 464.571 L 400.739 489.524 M 401.793 444.483 L 381.705 464.571 M 427.536 412.893 L 409.993 435.237 M 471.567 394.958 L 441.859 384.839 M 441.859 384.839 L 429.195 410.268 M 478.675 358.871 L 447.349 356.967 M 362.954 439.405 L 381.705 464.571 M 376.627 425.732 L 362.954 439.405 M 400.309 397.283 L 388.368 412.492 M 441.859 384.839 L 412.039 375.056 M 412.039 375.056 L 403.419 392.365 M 446.721 356.85 L 415.349 356.005 M 344.396 414.096 L 362.954 439.405 M 351.318 407.174 L 344.396 414.096 M 372.964 381.883 L 366.919 389.583 M 412.039 375.056 L 382.145 365.501 M 382.145 365.501 L 377.782 374.263 M 415.056 355.956 L 383.672 355.832 M 383.672 355.832 L 382.145 365.501 M 383.672 355.832 L 352.289 355.831 M 546.15 565.226 L 523.162 543.86 M 546.15 565.226 L 586.545 518.451 M 585.289 515.517 L 559.912 497.052 M 585.289 515.517 L 619.804 464.25 M 619.804 464.25 L 593.148 447.686 M 619.804 464.25 L 650.486 410.6 M 650.486 410.6 L 622.692 396.026 M 633.335 335.251 L 602.898 327.599 M 633.335 335.251 L 644.363 276.77 M 644.363 276.77 L 613.23 272.811 M 644.363 276.77 L 648.324 217.391 M 460.258 562.46 L 416.405 596.89 M 589.126 322.808 L 557.878 319.899 M 589.738 267.057 L 558.433 269.279 M 589.738 267.057 L 581.258 211.952 M 399.108 570.704 L 416.405 596.89 M 439.955 538.529 L 398.805 568.015 M 546.216 317.083 L 514.867 318.551 M 538.722 267.017 L 508.317 274.792 M 538.722 267.017 L 521.263 219.5 M 383.212 540.779 L 398.805 568.015 M 420.133 514.198 L 383.167 538.515 M 510.276 318.121 L 479.174 322.317 M 499.185 275.287 L 469.955 286.712 M 499.185 275.287 L 478.29 236.285 M 369.161 510.43 L 383.167 538.515 M 400.739 489.524 L 369.324 508.652 M 475.99 322.189 L 445.276 328.635 M 463.703 287.523 L 435.785 301.859 M 463.703 287.523 L 442.687 257.338 M 442.687 257.338 L 419.553 278.545 M 442.687 257.338 L 414.439 233.783 M 356.723 479.909 L 369.324 508.652 M 381.705 464.571 L 357.022 478.633 M 443.374 328.64 L 413.07 336.803 M 432.099 302.566 L 405.396 319.055 M 413.836 280.806 L 392.965 304.243 M 413.836 280.806 L 390.113 265.178 M 345.591 449.405 L 357.022 478.633 M 362.954 439.405 L 345.942 448.596 M 412.19 336.833 L 382.222 346.152 M 403.707 319.457 L 377.927 337.355 M 390.391 305.436 L 371.186 330.257 M 390.391 305.436 L 373.476 296.067 M 373.476 296.067 L 362.623 325.515 M 373.476 296.067 L 354.526 292.218 M 335.398 419.036 L 345.942 448.596 M 344.396 414.096 L 335.714 418.616 M 382.146 346.163 L 352.289 355.831 M 377.716 337.435 L 352.289 355.831 M 370.811 330.496 L 352.289 355.831 M 362.105 326.022 L 352.289 355.831 M 362.105 326.022 L 352.444 324.447 M 352.444 324.447 L 352.289 355.831 M 352.444 324.447 L 342.767 325.926 M 342.767 325.926 L 352.289 355.831 M 342.767 325.926 L 334.017 330.314 M 502.448 608.928 L 546.15 565.226 M 568.612 587.144 L 546.15 565.226 M 610.547 538.671 L 586.545 518.451 M 610.547 538.671 L 650.271 490.324 M 646.051 481.456 L 619.804 464.25 M 646.051 481.456 L 679.712 428.708 M 677.918 425.845 L 650.486 410.6 M 650.486 410.6 L 677.17 354.854 M 677.17 354.854 L 648.386 342.347 M 677.17 354.854 L 699.714 297.309 M 675.395 281.456 L 644.363 276.77 M 675.395 281.456 L 682.385 220.049 M 679.693 218.334 L 648.324 217.391 M 679.693 218.334 L 679.294 156.532 M 481.082 585.941 L 502.448 608.928 M 611.935 205.331 L 581.258 211.952 M 611.935 205.331 L 595.919 148.015 M 416.405 596.89 L 434.273 622.691 M 549.738 206.305 L 521.263 219.5 M 549.738 206.305 L 522.24 157.804 M 399.108 570.704 L 354.729 595.06 M 504.305 218.73 L 478.29 236.285 M 504.305 218.73 L 471.872 179.861 M 342.502 566.156 L 354.729 595.06 M 383.212 540.779 L 342.779 558.748 M 466.128 236.469 L 442.687 257.338 M 466.128 236.469 L 432.984 207.157 M 431.528 207.46 L 414.439 233.783 M 431.528 207.46 L 391.814 187.953 M 333.535 528.756 L 342.779 558.748 M 369.161 510.43 L 334.528 522.812 M 403.728 236.901 L 390.113 265.178 M 403.728 236.901 L 368.757 225.508 M 327.998 492.116 L 334.528 522.812 M 356.723 479.909 L 329.417 487.742 M 384.554 266.704 L 373.476 296.067 M 384.554 266.704 L 356.805 260.623 M 356.263 260.883 L 354.526 292.218 M 356.263 260.883 L 327.969 263.427 M 325.214 456.641 L 329.417 487.742 M 345.591 449.405 L 326.754 453.771 M 352.721 293.065 L 352.444 324.447 M 352.721 293.065 L 333.584 295.838 M 324.4 422.476 L 326.754 453.771 M 335.398 419.036 L 325.785 420.884 M 324.739 389.518 L 325.785 420.884 M 568.612 587.144 L 611.759 541.825 M 674.273 510.543 L 650.271 490.324 M 705.958 445.914 L 679.712 428.708 M 674.273 510.543 L 714.669 463.768 M 677.918 425.845 L 707.64 370.78 M 705.642 368.056 L 677.17 354.854 M 705.642 368.056 L 731.265 310.969 M 729.073 308.398 L 699.714 297.309 M 729.073 308.398 L 750.461 249.593 M 713.609 223.216 L 682.385 220.049 M 713.609 223.216 L 719.157 160.888 M 710.672 155.944 L 679.294 156.532 M 710.672 155.944 L 708.732 93.4007 M 625.816 138.471 L 595.919 148.015 M 625.816 138.471 L 604.883 80.3201 M 548.565 140.719 L 522.24 157.804 M 548.565 140.719 L 513.237 92.8283 M 494.244 157.852 L 471.872 179.861 M 494.244 157.852 L 452.027 121.436 M 354.729 595.06 L 367.529 623.715 M 451.279 181.657 L 432.984 207.157 M 451.279 181.657 L 407.362 156.478 M 402.717 158.524 L 391.814 187.953 M 402.717 158.524 L 353.706 145.851 M 374.86 194.724 L 368.757 225.508 M 374.86 194.724 L 330.743 191.343 M 359.374 229.344 L 356.805 260.623 M 359.374 229.344 L 322.643 231.25 M 333.13 296.059 L 315.845 304.727 M 324.739 389.518 L 316.071 419.681 M 591.605 608.503 L 634.221 563.742 M 737.656 485.135 L 714.669 463.768 M 735.072 386.025 L 707.64 370.78 M 705.958 445.914 L 740.474 394.646 M 759.737 324.17 L 731.265 310.969 M 735.072 386.025 L 765.754 332.375 M 779.821 260.681 L 750.461 249.593 M 759.737 324.17 L 786.42 268.424 M 750.381 164.055 L 719.157 160.888 M 740.11 92.8128 L 708.732 93.4007 M 634.221 563.742 L 611.759 541.825 M 634.221 563.742 L 677.923 520.041 M 634.278 69.3287 L 604.883 80.3201 M 634.278 69.3287 L 611.645 10.9915 M 524.366 631.39 L 568.612 587.144 M 502.448 608.928 L 524.366 631.39 M 537.795 73.2878 L 513.237 92.8283 M 537.795 73.2878 L 497.574 26.3632 M 436.042 624.838 L 455.673 649.323 M 471.067 96.487 L 452.027 121.436 M 471.067 96.487 L 421.681 63.2804 M 368.752 625.832 L 383.408 653.583 M 420.695 128.067 L 407.362 156.478 M 420.695 128.067 L 368.455 108.586 M 300.211 579.164 L 306.343 609.943 M 297.348 535.331 L 299.245 566.658 M 299.672 494.268 L 297.854 525.599 M 305.878 456.434 L 301.011 487.438 M 314.641 421.717 L 307.476 452.271 M 324.739 389.518 L 307.2 415.543 M 615.11 629.299 L 656.145 586.198 M 765.85 413.112 L 740.474 394.646 M 737.656 485.135 L 779.737 443.054 M 792.41 348.94 L 765.754 332.375 M 765.85 413.112 L 802.6 366.304 M 814.215 282.999 L 786.42 268.424 M 656.145 586.198 L 634.221 563.742 M 699.289 543.028 L 677.923 520.041 M 656.145 586.198 L 700.217 546.207 M 699.289 543.028 L 744.329 504.131 M 546.828 653.308 L 590.529 609.606 M 524.366 631.39 L 546.828 653.308 M 306.975 611.86 L 314.935 642.218 M 323.263 266.267 L 297.87 279.001 M 324.739 389.518 L 300.035 408.873 M 639.094 649.54 L 677.539 609.16 M 800.56 466.534 L 779.737 443.054 M 826.08 387.127 L 802.6 366.304 M 800.56 466.534 L 844.413 432.105 M 677.539 609.16 L 656.145 586.198 M 719.877 570.67 L 700.217 546.207 M 677.539 609.16 L 720.533 573.665 M 763.383 529.069 L 744.329 504.131 M 719.877 570.67 L 765.348 538.407 M 843.758 231.339 L 817.102 214.774 M 569.815 674.674 L 611.896 632.593 M 504.212 698.069 L 546.828 653.308 M 481.219 676.709 L 504.212 698.069 M 457.687 651.544 L 479.047 674.537 M 388.283 660.344 L 406.075 686.197 M 317.981 648.871 L 329.216 678.175 M 256.164 583.355 L 255.947 614.738 M 260.631 533.172 L 255.075 564.06 M 271.785 488.854 L 261.748 518.589 M 287.41 450.706 L 273.878 479.022 M 305.562 418.058 L 289.541 445.044 M 324.739 389.518 L 295.273 400.321 M 663.517 669.25 L 698.423 632.586 M 861.711 458.291 L 844.413 432.105 M 698.423 632.586 L 677.539 609.16 M 738.469 599.419 L 720.533 573.665 M 698.423 632.586 L 738.837 602.099 M 781.356 565.401 L 765.348 538.407 M 738.469 599.419 L 782.236 573.981 M 763.383 529.069 L 809.632 497.932 M 865.504 347.704 L 844.681 324.223 M 593.295 695.497 L 632.719 656.074 M 876.994 181.973 L 851.618 163.507 M 527.717 718.865 L 568.752 675.764 M 504.212 698.069 L 527.717 718.865 M 439.197 723.074 L 462.708 743.862 M 257.121 620.656 L 260.029 651.904 M 313.062 236.587 L 280.185 253.075 M 324.739 389.518 L 293.379 390.717 M 688.327 688.469 L 718.837 656.424 M 755.094 628.944 L 738.837 602.099 M 719.771 655.591 L 755.094 628.944 M 795.168 602.576 L 782.236 573.981 M 755.094 628.944 L 795.074 609.988 M 824.973 525.31 L 809.632 497.932 M 781.356 565.401 L 826.864 543.225 M 824.973 525.31 L 871.011 504.258 M 906.089 433.935 L 893.289 405.28 M 617.226 715.801 L 653.023 680.005 M 909.357 313.274 L 891.489 287.473 M 551.701 739.105 L 590.145 698.726 M 527.717 718.865 L 551.701 739.105 M 913.744 135.165 L 889.783 114.896 M 464.977 745.821 L 489.937 764.846 M 398.326 770.456 L 422.34 790.661 M 411.893 693.048 L 432.682 716.559 M 338.06 692.269 L 353.917 719.352 M 264.821 665.677 L 272.472 696.113 M 212.179 578.555 L 205.622 609.246 M 225.464 522.4 L 212.768 551.102 M 246.321 476.26 L 228.78 502.284 M 271.352 439.934 L 250.286 463.197 M 298.003 411.839 L 274.609 432.759 M 294.535 380.997 L 293.379 390.717 M 324.739 389.518 L 294.535 380.997 M 713.47 707.252 L 738.831 680.614 M 758.471 705.092 L 738.831 680.614 M 770.88 656.069 L 755.094 628.944 M 741.517 678.219 L 770.88 656.069 M 805.051 639.744 L 795.074 609.988 M 770.88 656.069 L 804.643 641.482 M 837.674 572.688 L 826.864 543.225 M 795.168 602.576 L 837.127 588.534 M 881.095 533.978 L 871.011 504.258 M 641.558 735.623 L 672.845 704.336 M 953.844 417.134 L 945.883 386.777 M 576.123 758.815 L 611.03 722.151 M 957.01 284.332 L 942.354 256.581 M 518.358 783.79 L 551.701 739.105 M 492.127 766.561 L 518.358 783.79 M 429.332 796.309 L 455.614 813.462 M 358.63 818.826 L 383.133 838.436 M 206.501 621.211 L 204.279 652.516 M 302.431 207.059 L 262.879 226.894 M 298.629 372.106 L 294.535 380.997 M 758.471 705.092 L 782.802 690.429 M 794.946 719.368 L 782.802 690.429 M 738.883 725.667 L 758.471 705.092 M 786.269 683.42 L 770.88 656.069 M 813.136 671.694 L 804.643 641.482 M 786.269 683.42 L 812.664 672.917 M 843.477 619.269 L 837.127 588.534 M 805.051 639.744 L 841.066 632.283 M 666.232 755.017 L 692.239 729.01 M 924.223 524.091 L 920.354 492.947 M 600.934 778.034 L 631.444 745.989 M 1003.7 408.339 L 1000.79 377.09 M 544.961 800.44 L 575.236 759.867 M 518.358 783.79 L 544.961 800.44 M 1007.78 261.294 L 996.547 231.99 M 462.492 818.169 L 490.595 832.14 M 397.467 849.265 L 424.931 864.453 M 320.134 868.157 L 345.111 887.16 M 365.095 733.416 L 385.3 757.43 M 285.64 720.444 L 299.479 748.612 M 210.033 676.009 L 213.992 707.142 M 170.072 564.963 L 157.447 593.696 M 193.836 503.627 L 174.72 528.517 M 225.093 457.382 L 201.296 477.843 M 259.045 425.02 L 232.206 441.286 M 264.297 372.593 L 262.013 391.794 M 292.664 403.634 L 264.062 416.552 M 794.946 719.368 L 813.671 714.54 M 777.834 729.791 L 758.471 705.092 M 764.501 743.795 L 777.834 729.791 M 777.834 729.791 L 794.616 720.185 M 819.931 703.447 L 812.664 672.917 M 843.277 663.589 L 841.066 632.283 M 813.136 671.694 L 841.265 667.723 M 691.185 774.051 L 711.272 753.963 M 880.125 616.166 L 881.216 584.801 M 626.076 796.817 L 651.438 770.179 M 968.458 523.127 L 970.965 491.843 M 571.891 816.556 L 598.352 781.094 M 544.961 800.44 L 571.891 816.556 M 492.742 833.31 L 521.702 845.403 M 439.238 872.949 L 468.809 883.461 M 369.552 904.405 L 398.051 917.548 M 282.86 918.418 L 308.295 936.801 M 156.467 613.511 L 149.174 644.036 M 291.285 177.721 L 246.033 200.415 M 272.452 354.795 L 264.363 372.358 M 816.791 745.768 L 813.671 714.54 M 797.007 754.636 L 777.834 729.791 M 790.258 761.726 L 797.007 754.636 M 805.882 749.477 L 794.616 720.185 M 797.007 754.636 L 805.577 749.905 M 805.882 749.477 L 815.446 747.393 M 841.115 699.107 L 841.265 667.723 M 716.351 792.802 L 730.024 779.129 M 871.628 665.385 L 877.772 634.609 M 651.489 815.232 L 671.078 794.658 M 916.47 621.808 L 924.939 591.588 M 599.098 832.199 L 621.094 802.721 M 571.891 816.556 L 599.098 832.199 M 1011.98 531.124 L 1020.75 500.993 M 523.513 846.295 L 553.144 856.635 M 475.535 886.343 L 506.079 893.555 M 422.698 930.115 L 453.313 937.018 M 345.736 961.436 L 375.119 972.463 M 246.831 969.578 L 272.71 987.332 M 317.319 772.623 L 336.929 797.125 M 231.304 744.717 L 243.05 773.82 M 154.403 679.719 L 154.613 711.102 M 233.996 364.421 L 230.641 392.63 M 817.262 778.724 L 815.446 747.393 M 826.566 746.288 L 832.98 715.567 M 741.66 811.36 L 748.581 804.438 M 860.235 701.993 L 869.355 671.963 M 677.108 833.36 L 690.441 819.356 M 898.495 674.613 L 912.558 646.557 M 626.53 847.445 L 643.519 824.677 M 599.098 832.199 L 626.53 847.445 M 950.453 635.875 L 965.821 608.511 M 554.556 857.265 L 584.688 866.039 M 511.777 895.539 L 542.887 899.676 M 467.199 941.47 L 498.51 943.61 M 413.108 988.849 L 444.329 992.043 M 326.147 1020.05 L 356.256 1028.91 M 279.557 148.612 L 229.719 173.605 M 246.142 337.685 L 234.259 363.488 M 817.262 778.724 L 825.187 748.358 M 817.262 778.724 L 834.157 752.277 M 817.262 778.724 L 841.484 758.769 M 817.262 778.724 L 846.454 767.202 M 817.262 778.724 L 848.583 776.756 M 847.666 786.502 L 848.583 776.756 M 817.262 778.724 L 847.666 786.502 M 843.791 795.491 L 847.666 786.502 M 835.733 749.722 L 851.087 722.351 M 702.865 851.291 L 709.614 844.202 M 877.73 710.227 L 895.058 684.06 M 654.131 862.381 L 665.695 846.884 M 626.53 847.445 L 654.131 862.381 M 921.966 690.617 L 942.946 667.276 M 585.678 866.444 L 616.164 873.895 M 980.152 657.572 L 1001.55 634.613 M 547.327 900.917 L 578.679 902.325 M 510.237 946.139 L 541.541 943.902 M 467.956 997.218 L 499.197 994.228 M 410.607 1048.31 L 441.985 1047.75 M 310.888 1079.94 L 341.563 1086.58 M 268.596 810.645 L 287.599 835.622 M 175.342 764.96 L 184.932 794.842 M 203.605 356.591 L 199.261 393.114 M 843.442 755.754 L 866.316 734.266 M 878.101 794.161 L 879.913 774.91 M 870.386 812.154 L 878.04 794.397 M 654.131 862.381 L 681.846 877.106 M 681.846 877.106 L 687.7 869.26 M 892.14 723.121 L 916.228 703.004 M 616.762 874.121 L 647.483 880.539 M 581.789 903.017 L 613.161 902.143 M 550.615 945.041 L 581.412 939.003 M 518.957 996.005 L 549.163 987.487 M 477.786 1052.1 L 508.123 1044.06 M 415.229 1107.64 L 446.316 1103.33 M 267.193 119.766 L 213.996 146.443 M 219.642 320.873 L 204.257 354.28 M 681.846 877.106 L 709.618 891.722 M 848.981 763.825 L 877.257 750.209 M 647.762 880.639 L 678.622 886.348 M 908.593 801.587 L 911.255 773.304 M 897.107 828.613 L 908.353 802.526 M 615.033 902.476 L 646.306 899.84 M 587.708 939.318 L 617.733 930.181 M 564.232 987.14 L 592.731 973.998 M 537.577 1043.08 L 565.437 1028.63 M 218.954 847.46 L 237.338 872.896 M 173.103 349.204 L 167.877 393.14 M 678.694 886.373 L 709.618 891.722 M 647.178 899.966 L 678.326 896.132 M 621.486 930.142 L 650.698 918.67 M 924.013 844.77 L 938.573 810.995 M 603.014 972.762 L 629.554 956.012 M 537.577 1043.08 L 565.329 1085.42 M 540.575 1104.71 L 565.329 1085.42 M 254.158 91.2171 L 198.912 118.922 M 192.899 304.447 L 174.391 344.637 M 678.55 896.16 L 709.618 891.722 M 652.432 918.575 L 680.986 905.553 M 635.582 954.806 L 660.293 935.458 M 603.014 972.762 L 626.617 1000.97 M 951.15 860.534 L 968.666 819.902 M 605.115 1023.83 L 626.617 1000.97 M 540.575 1104.71 L 578.328 1145.74 M 168.424 883.046 L 186.178 908.925 M 142.477 342.35 L 136.498 392.619 M 681.429 905.516 L 709.618 891.722 M 663.038 934.743 L 686.355 913.737 M 635.582 954.806 L 656.144 974.407 M 637.712 999.808 L 656.144 974.407 M 605.115 1023.83 L 640.721 1050.1 M 978.558 875.821 L 998.599 829.334 M 240.435 62.993 L 184.501 91.0434 M 165.874 288.492 L 144.699 334.473 M 687.05 913.53 L 709.618 891.722 M 663.038 934.743 L 678.015 946.974 M 661.886 973.896 L 678.015 946.974 M 637.712 999.808 L 670.096 1017.25 M 226.023 35.1142 L 170.777 62.8193 M 111.72 336.109 L 105.135 391.472 M 687.05 913.53 L 694.867 919.422 M 694.867 919.422 L 709.618 891.722 M 680.008 947.065 L 694.867 919.422 M 661.886 973.896 L 688.11 984.82 M 138.537 273.078 L 115.215 323.72 M 694.867 919.422 L 704.119 922.62 M 704.119 922.62 L 709.618 891.722 M 680.008 947.065 L 698.234 953.523 M 698.499 953.496 L 704.119 922.62 M 80.8339 330.543 L 73.8054 389.638 M 704.119 922.62 L 713.905 922.811 M 698.499 953.496 L 717.828 954.025 M 110.868 258.268 L 85.9744 312.322 M 693.116 984.415 L 721.513 985.191 M 688.081 1015.39 L 724.847 1016.4 M 82.8597 244.108 L 57.0078 300.244 M 683.497 1046.44 L 727.727 1047.65 M 679.457 1077.56 L 730.061 1078.95 M 54.5169 230.631 L 28.3427 287.468" />
</svg>
