<?xml version="1.0"?>
<svg width="1496" height="1526" version="1.1" xmlns="http://www.w3.org/2000/svg" >
<defs>
<style type="text/css"><![CDATA[
.m {stroke:rgb(255,0,0);stroke-width:1.907500;}
.v {stroke:rgb(0,0,255);stroke-width:1.907500;}
.b {stroke:rgb(0,0,0);stroke-width:3.815000;fill:white}
.n {stroke:rgb(128,128,128);stroke-width:1.907500}
.t {stroke:rgb(0,128,0);stroke-width:1.907500;}
.c {stroke:rgb(128,128,128);stroke-width:1.907500;stroke-dasharray:14.960000, 14.960000;}
]]></style>
</defs>
<path fill="none" style="stroke:black;stroke-width:3.815000;" d=" M 1250.87 424.371 L 1278.66 409.78 M 1244.59 406.083 L 1274.99 390.269 M 1275.48 400.522 L 1275.23 390.737 M 1275.23 390.737 L 1244.59 406.083 M 1248.86 368.1 L 1243.8 386.763 M 1274.99 390.269 L 1277.55 380.821 M 1259.3 351.821 L 1248.86 368.1 M 1277.55 380.821 L 1282.83 372.58 M 1274.14 339.433 L 1259.3 351.821 M 1282.83 372.58 L 1290.35 366.308 M 1292.03 332.083 L 1274.14 339.433 M 1299.4 362.588 L 1292.03 332.083 M 1290.35 366.308 L 1299.4 362.588 M 1310.58 363.979 L 1314.66 332.861 M 1295.32 333.297 L 1300.8 364.2 M 1319.96 366.784 L 1333.42 338.434 M 1314.9 332.893 L 1310.58 363.979 M 1328.02 372.342 L 1349.56 349.519 M 1333.64 338.54 L 1319.96 366.784 M 1333.97 380.112 L 1361.5 365.036 M 1349.74 349.687 L 1328.02 372.342 M 1177.9 1104.31 L 1179.48 1070.08 M 1179.48 1070.08 L 1178.17 1104.32 M 1178.17 1104.32 L 1188.17 1074.57 M 1158.84 1094.92 L 1171.87 1063.23 M 1172.59 1063.12 L 1160.8 1095.29 M 1171.87 1063.23 L 1167.74 1054.35 M 1135.08 1043.96 L 1137.61 1063.13 M 1167.74 1054.35 L 1166.46 1044.65 M 1138.44 1024.92 L 1135.08 1043.96 M 1166.46 1044.65 L 1168.16 1035.01 M 1147.37 1007.77 L 1138.44 1024.92 M 1168.16 1035.01 L 1172.68 1026.33 M 1179.6 1019.41 L 1161.04 994.097 M 1249.22 926.679 L 1226.69 904.837 M 1215.5 920.607 L 1243.56 934.663 M 1301.78 821.373 L 1275.98 803.493 M 1267.51 820.876 L 1297.49 830.172 M 1336.47 708.911 L 1308.11 695.473 M 1302.58 714.003 L 1333.67 718.291 M 1222.98 438.749 L 1250.87 424.371 M 130.193 535.398 L 91.0234 535.336 M 1243.8 386.763 L 1213.75 411.882 M 112.844 557.893 L 75.0845 547.478 M 91.0234 535.336 L 75.3284 546.631 M 75.3284 546.631 L 112.844 557.893 M 63.5401 584.907 L 90.1648 575.001 M 75.0845 547.478 L 56.9618 554.221 M 35.1943 586.785 L 63.5401 584.907 M 56.9618 554.221 L 37.6677 555.499 M 7.49567 580.476 L 35.1943 586.785 M 18.8141 551.205 L 7.49567 580.476 M 37.6677 555.499 L 18.8141 551.205 M 1314.66 332.861 L 1318.49 301.712 M 1290.09 302.353 L 1295.32 333.297 M 1333.42 338.434 L 1346.67 309.982 M 1319.45 301.842 L 1314.9 332.893 M 1349.56 349.519 L 1370.93 326.531 M 1347.54 310.401 L 1333.64 338.54 M 1361.5 365.036 L 1388.91 349.749 M 1371.63 327.199 L 1349.74 349.687 M 1163.38 1133.82 L 1158.84 1094.92 M 1160.8 1095.29 L 1167.44 1133.9 M 1167.44 1133.9 L 1177.9 1104.31 M 1138.41 1119.13 L 1145.78 1080.66 M 1145.78 1080.66 L 1139 1119.24 M 1115.72 1096.56 L 1135.88 1062.98 M 1137.61 1063.13 L 1119.55 1097.89 M 1102.91 1041.82 L 1105.32 1070.13 M 1135.88 1062.98 L 1134.24 1043.71 M 1108.7 1014.01 L 1102.91 1041.82 M 1134.24 1043.71 L 1138.18 1024.78 M 1122.2 989.018 L 1108.7 1014.01 M 1138.18 1024.78 L 1147.37 1007.77 M 1161.04 994.097 L 1142.29 968.931 M 1226.69 904.837 L 1203.98 883.167 M 1187.55 906.336 L 1215.5 920.607 M 1275.98 803.493 L 1250.05 785.812 M 1237.61 811.35 L 1267.51 820.876 M 1308.11 695.473 L 1279.65 682.253 M 1271.53 709.476 L 1302.58 714.003 M 1213.75 411.882 L 1182.97 418.026 M 1194.92 452.812 L 1222.98 438.749 M 157.378 551.078 L 130.193 535.398 M 134.917 580.203 L 90.0324 576.304 M 90.1648 575.001 L 134.917 580.203 M 106.277 604.981 L 63.1074 592.09 M 90.0324 576.304 L 63.9541 587.571 M 63.9541 587.571 L 106.211 603.197 M 37.5002 629.159 L 73.5155 621.698 M 63.1074 592.09 L 35.29 597.853 M 0.793816 626.832 L 37.5002 629.159 M 6.93899 596.056 L 0.793816 626.832 M 35.29 597.853 L 6.93899 596.056 M 1318.49 301.712 L 1321.97 270.522 M 1285.2 271.352 L 1290.09 302.353 M 1346.67 309.982 L 1359.59 281.383 M 1324.35 270.843 L 1319.45 301.842 M 1370.93 326.531 L 1392.03 303.304 M 1361.76 282.421 L 1347.54 310.401 M 1388.91 349.749 L 1416.14 334.154 M 1393.77 304.959 L 1371.63 327.199 M 1148.77 1162.98 L 1138.41 1119.13 M 1139 1119.24 L 1151.01 1162.66 M 1151.01 1162.66 L 1163.38 1133.82 M 1110.35 1141.3 L 1115.72 1096.56 M 1119.55 1097.89 L 1117.94 1142.92 M 1080.91 1109.65 L 1101.6 1069.63 M 1105.32 1070.13 L 1088.31 1111.85 M 1101.6 1069.63 L 1101.11 1041.22 M 1079.05 1001.94 L 1069.94 1037.58 M 1101.11 1041.22 L 1108.14 1013.7 M 1097.25 969.985 L 1079.05 1001.94 M 1108.14 1013.7 L 1122.2 989.018 M 1142.29 968.931 L 1123.26 943.978 M 1203.98 883.167 L 1181.04 861.755 M 1159.76 891.752 L 1187.55 906.336 M 1250.05 785.812 L 1223.93 768.425 M 1207.82 801.488 L 1237.61 811.35 M 1279.65 682.253 L 1251.03 669.354 M 1240.53 704.6 L 1271.53 709.476 M 1182.97 418.026 L 1152.29 424.618 M 1166.66 466.465 L 1194.92 452.812 M 184.333 567.152 L 157.378 551.078 M 157.311 602.189 L 106.277 604.981 M 106.211 603.197 L 157.311 602.189 M 124.099 633.28 L 73.292 627.72 M 73.5155 621.698 L 123.765 631.04 M 44.1389 669.701 L 86.3009 656.28 M 73.292 627.72 L 38.2447 638.876 M 0 672.782 L 44.1389 669.701 M 1.55399 641.437 L 0 672.782 M 38.2447 638.876 L 1.55399 641.437 M 1321.97 270.522 L 1325 239.285 M 1280.77 240.283 L 1285.2 271.352 M 1359.59 281.383 L 1372.1 252.599 M 1329.71 239.919 L 1324.35 270.843 M 1392.03 303.304 L 1412.8 279.773 M 1376.37 254.651 L 1361.76 282.421 M 1416.14 334.154 L 1443.15 318.165 M 1416.24 283.044 L 1393.77 304.959 M 1121.76 1191.12 L 1110.35 1141.3 M 1117.94 1142.92 L 1134.9 1191.13 M 1134.9 1191.13 L 1148.77 1162.98 M 1074.16 1160.31 L 1080.91 1109.65 M 1088.31 1111.85 L 1087.63 1162.95 M 1050.67 1121.43 L 1070.57 1074.35 M 1070.57 1074.35 L 1052.05 1121.99 M 1033.04 1074.68 L 1066.96 1036.44 M 1069.94 1037.58 L 1039.48 1078.62 M 1049.57 988.383 L 1036.13 1030.54 M 1066.96 1036.44 L 1078.12 1001.4 M 1072.58 950.591 L 1049.57 988.383 M 1078.12 1001.4 L 1097.25 969.985 M 1123.26 943.978 L 1103.86 919.304 M 1181.04 861.755 L 1157.79 840.679 M 1132.18 876.764 L 1159.76 891.752 M 1223.93 768.425 L 1197.55 751.418 M 1178.17 791.194 L 1207.82 801.488 M 1251.03 669.354 L 1222.24 656.872 M 1209.6 699.274 L 1240.53 704.6 M 1152.29 424.618 L 1121.73 431.745 M 1138.17 479.623 L 1166.66 466.465 M 211.003 583.695 L 184.333 567.152 M 180.087 623.781 L 124.099 633.28 M 123.765 631.04 L 180.087 623.781 M 143.697 660.923 L 86.9758 663.663 M 86.3009 656.28 L 143.053 658.294 M 98.4081 793.777 L 45.2899 813.859 M 86.9758 663.663 L 46.6994 681.98 M 46.6994 681.98 L 102.804 690.763 M 31.314 868.9 L 68.697 834.764 M 12.6159 843.694 L 31.314 868.9 M 45.2899 813.859 L 12.6159 843.694 M 1325 239.285 L 1327.49 208 M 1276.88 209.142 L 1280.77 240.283 M 1372.1 252.599 L 1384.1 223.6 M 1335.6 209.094 L 1329.71 239.919 M 1412.8 279.773 L 1433.15 255.883 M 1391.48 227.14 L 1376.37 254.651 M 1443.15 318.165 L 1469.87 301.707 M 1439.08 261.524 L 1416.24 283.044 M 1082.35 1216.51 L 1074.16 1160.31 M 1087.63 1162.95 L 1104.35 1217.23 M 1104.35 1217.23 L 1121.76 1191.12 M 1043.72 1177.79 L 1050.67 1121.43 M 1052.05 1121.99 L 1048.71 1178.68 M 1008.41 1125.85 L 1033.04 1074.68 M 1039.48 1078.62 L 1021.27 1132.41 M 992.925 1069.96 L 1031.92 1028.67 M 1036.13 1030.54 L 1001.67 1075.68 M 1031.92 1028.67 L 1048.26 987.556 M 1048.25 930.768 L 1020.42 973.061 M 1048.26 987.556 L 1072.58 950.591 M 1103.86 919.304 L 1084.04 894.972 M 1157.79 840.679 L 1134.17 820.012 M 1104.87 861.298 L 1132.18 876.764 M 1197.55 751.418 L 1170.88 734.876 M 1148.7 780.383 L 1178.17 791.194 M 1222.24 656.872 L 1193.23 644.896 M 1178.77 693.408 L 1209.6 699.274 M 1121.73 431.745 L 1091.31 439.479 M 1109.42 492.209 L 1138.17 479.623 M 237.338 600.765 L 211.003 583.695 M 203.288 644.914 L 143.697 660.923 M 143.053 658.294 L 203.288 644.914 M 150.169 760.188 L 98.4081 793.777 M 102.804 690.763 L 164.207 684.677 M 127.052 812.53 L 72.9774 842.252 M 68.697 834.764 L 125.238 810.058 M 62.6181 903.08 L 98.5479 860.447 M 40.354 880.961 L 62.6181 903.08 M 72.9774 842.252 L 40.354 880.961 M 1327.49 208 L 1329.35 176.672 M 1273.61 177.929 L 1276.88 209.142 M 1384.1 223.6 L 1395.52 194.369 M 1342.1 178.392 L 1335.6 209.094 M 1433.15 255.883 L 1453.02 231.592 M 1407.13 199.936 L 1391.48 227.14 M 1469.87 301.707 L 1496.26 284.72 M 1462.35 240.464 L 1439.08 261.524 M 1049.35 1239.24 L 1043.72 1177.79 M 1048.71 1178.68 L 1060.69 1239.21 M 1060.69 1239.21 L 1082.35 1216.51 M 994.083 1185.87 L 1008.41 1125.85 M 1021.27 1132.41 L 1016.82 1193.96 M 961.057 1122.79 L 992.925 1069.96 M 1001.67 1075.68 L 977.755 1132.56 M 959.837 1065.41 L 1001.73 1020.11 M 1001.73 1020.11 L 961.677 1067.04 M 967.185 1005.79 L 1018.76 971.918 M 1020.42 973.061 L 971.713 1010.94 M 1024.32 910.465 L 991.841 955.785 M 1018.76 971.918 L 1048.25 930.768 M 1084.04 894.972 L 1063.74 871.041 M 1134.17 820.012 L 1110.14 799.82 M 1077.88 845.29 L 1104.87 861.298 M 1170.88 734.876 L 1143.89 718.868 M 1119.46 768.987 L 1148.7 780.383 M 1193.23 644.896 L 1163.99 633.5 M 1148.06 686.929 L 1178.77 693.408 M 1091.31 439.479 L 1061.07 447.879 M 1080.4 504.163 L 1109.42 492.209 M 263.292 618.41 L 237.338 600.765 M 199.088 716.487 L 150.169 760.188 M 164.207 684.677 L 226.948 665.534 M 179.03 772.516 L 127.052 812.53 M 125.238 810.058 L 179.03 772.516 M 166.403 889.058 L 129.281 943.14 M 98.5479 860.447 L 154.936 826.932 M 147.059 1006.28 L 160.246 948.25 M 116.926 997.507 L 147.059 1006.28 M 129.281 943.14 L 116.926 997.507 M 1329.35 176.672 L 1330.52 145.31 M 1271.02 146.652 L 1273.61 177.929 M 1395.52 194.369 L 1406.3 164.893 M 1349.28 147.84 L 1342.1 178.392 M 1453.02 231.592 L 1472.35 206.871 M 1423.37 173.081 L 1407.13 199.936 M 1065.25 1302.88 L 1049.35 1239.24 M 1496.26 284.72 L 1486.07 219.919 M 1486.07 219.919 L 1462.35 240.464 M 988.784 1251.25 L 994.083 1185.87 M 1016.82 1193.96 L 1025 1259.04 M 936.166 1183.49 L 961.057 1122.79 M 977.755 1132.56 L 964.68 1196.84 M 923.192 1119.82 L 959.837 1065.41 M 961.677 1067.04 L 929.711 1124.33 M 918.507 1049.76 L 967.185 1005.79 M 971.713 1010.94 L 928.828 1060.57 M 933.193 987.315 L 989.885 954.318 M 991.841 955.785 L 938.257 993.622 M 1000.83 889.642 L 964.085 936.45 M 989.885 954.318 L 1024.32 910.465 M 1063.74 871.041 L 1042.92 847.561 M 1110.14 799.82 L 1085.68 780.159 M 1051.24 828.695 L 1077.88 845.29 M 1143.89 718.868 L 1116.55 703.456 M 1090.48 756.953 L 1119.46 768.987 M 1163.99 633.5 L 1134.51 622.748 M 1117.5 679.778 L 1148.06 686.929 M 1061.07 447.879 L 1031.04 456.983 M 1051.11 515.435 L 1080.4 504.163 M 226.948 665.534 L 251.083 685.595 M 288.827 636.656 L 263.292 618.41 M 229.002 725.978 L 199.088 716.487 M 199.606 829.388 L 166.403 889.058 M 154.936 826.932 L 208.171 784.166 M 203.5 936.824 L 190.295 1003.82 M 160.246 948.25 L 197.716 891.162 M 240.304 1037.83 L 248.382 1105.64 M 248.382 1105.64 L 274.985 1088.99 M 190.295 1003.82 L 202.674 1062.03 M 202.674 1062.03 L 220.733 996.176 M 1330.52 145.31 L 1330.96 113.929 M 1269.17 115.323 L 1271.02 146.652 M 1406.3 164.893 L 1416.38 135.174 M 1357.17 117.464 L 1349.28 147.84 M 1472.35 206.871 L 1491.11 181.704 M 1440.23 146.613 L 1423.37 173.081 M 989.663 1319.53 L 988.784 1251.25 M 1025 1259.04 L 1042.92 1324.93 M 1042.92 1324.93 L 1065.25 1302.88 M 916.283 1248.81 L 936.166 1183.49 M 964.68 1196.84 L 960.573 1265 M 890.514 1179.78 L 923.192 1119.82 M 929.711 1124.33 L 905.113 1188.03 M 872.341 1100.08 L 918.507 1049.76 M 928.828 1060.57 L 891.861 1117.99 M 877.65 1027.04 L 933.193 987.315 M 938.257 993.622 L 888.541 1040.43 M 900.579 964.649 L 961.938 934.682 M 964.085 936.45 L 905.791 972.014 M 977.848 868.275 L 937.452 915.05 M 961.938 934.682 L 1000.83 889.642 M 1042.92 847.561 L 1021.55 824.574 M 1085.68 780.159 L 1060.77 761.076 M 1025 811.481 L 1051.24 828.695 M 1116.55 703.456 L 1088.86 688.687 M 1061.78 744.245 L 1090.48 756.953 M 1134.51 622.748 L 1104.78 612.688 M 1087.12 671.915 L 1117.5 679.778 M 1031.04 456.983 L 1001.23 466.813 M 1021.56 525.993 L 1051.11 515.435 M 251.083 685.595 L 275.697 705.065 M 313.911 655.516 L 288.827 636.656 M 208.171 784.166 L 237.587 795.105 M 258.677 736.193 L 229.002 725.978 M 197.716 891.162 L 229.071 892.507 M 230.985 829.963 L 199.606 829.388 M 220.733 996.176 L 250.977 987.795 M 233.529 927.703 L 203.5 936.824 M 274.985 1088.99 L 301.175 1071.7 M 266.062 1019.91 L 240.304 1037.83 M 1305.42 70.8342 L 1357.17 117.464 M 1330.96 113.929 L 1268.08 83.9582 M 1268.08 83.9582 L 1269.17 115.323 M 1405.37 86.3085 L 1440.23 146.613 M 1416.38 135.174 L 1365.79 87.2884 M 992.956 1389.11 L 989.663 1319.53 M 1491.11 181.704 L 1457.73 120.562 M 898.305 1316.11 L 916.283 1248.81 M 960.573 1265 L 962.157 1334.64 M 859.304 1242.05 L 890.514 1179.78 M 905.113 1188.03 L 885.488 1254.86 M 827.041 1152.99 L 872.341 1100.08 M 891.861 1117.99 L 859.132 1179.48 M 822.42 1069.49 L 877.65 1027.04 M 888.541 1040.43 L 841.956 1092.22 M 839.076 997.353 L 900.579 964.649 M 905.791 972.014 L 849.536 1013.09 M 870.217 938.041 L 935.232 913.036 M 937.452 915.05 L 875.165 946.235 M 955.385 846.358 L 912.238 891.677 M 935.232 913.036 L 977.848 868.275 M 1021.55 824.574 L 999.632 802.111 M 1060.77 761.076 L 1035.39 742.603 M 999.185 793.636 L 1025 811.481 M 1088.86 688.687 L 1060.81 674.594 M 1033.4 730.845 L 1061.78 744.245 M 1104.78 612.688 L 1074.82 603.352 M 1056.94 663.317 L 1087.12 671.915 M 991.756 535.823 L 1021.56 525.993 M 1001.23 466.813 L 971.679 477.372 M 338.525 674.985 L 313.911 655.516 M 275.697 705.065 L 300.781 723.925 M 288.092 747.132 L 258.677 736.193 M 237.587 795.105 L 267.261 805.319 M 262.339 831.308 L 230.985 829.963 M 229.071 892.507 L 260.449 893.082 M 263.773 919.323 L 233.529 927.703 M 250.977 987.795 L 281.006 978.675 M 292.253 1002.61 L 266.062 1019.91 M 301.175 1071.7 L 326.934 1053.77 M 1365.79 87.2884 L 1314.04 40.6587 M 1314.04 40.6587 L 1305.42 70.8342 M 1371.99 25.1664 L 1405.37 86.3085 M 1457.73 120.562 L 1422.87 60.2575 M 994.54 1458.75 L 992.956 1389.11 M 962.157 1334.64 L 965.45 1404.22 M 878.681 1382.95 L 898.305 1316.11 M 885.488 1254.86 L 867.511 1322.16 M 826.575 1303.54 L 859.304 1242.05 M 859.132 1179.48 L 827.922 1241.75 M 780.455 1204.78 L 827.041 1152.99 M 841.956 1092.22 L 796.656 1145.14 M 766.164 1110.57 L 822.42 1069.49 M 849.536 1013.09 L 794.305 1055.54 M 776.788 1028.54 L 839.076 997.353 M 875.165 946.235 L 813.662 978.939 M 804.607 961.443 L 870.217 938.041 M 912.238 891.677 L 847.223 916.682 M 842.913 908.016 L 910.066 889.505 M 910.066 889.505 L 955.385 846.358 M 999.632 802.111 L 933.468 823.896 M 933.468 823.896 L 998.498 798.929 M 998.498 798.929 L 974.999 778.126 M 973.815 775.162 L 999.185 793.636 M 1035.39 742.603 L 1009.58 724.758 M 1005.36 716.752 L 1033.4 730.845 M 1060.81 674.594 L 1032.44 661.194 M 1026.97 653.981 L 1056.94 663.317 M 1074.82 603.352 L 1044.63 594.754 M 961.721 544.927 L 991.756 535.823 M 971.679 477.372 L 942.389 488.644 M 362.66 695.046 L 338.525 674.985 M 300.781 723.925 L 326.316 742.171 M 317.233 758.782 L 288.092 747.132 M 267.261 805.319 L 297.176 814.811 M 293.652 833.412 L 262.339 831.308 M 260.449 893.082 L 291.832 892.896 M 294.211 911.678 L 263.773 919.323 M 281.006 978.675 L 310.806 968.829 M 318.856 985.964 L 292.253 1002.61 M 326.934 1053.77 L 352.25 1035.22 M 1422.87 60.2575 L 1390.74 0 M 1390.74 0 L 1371.99 25.1664 M 966.329 1472.5 L 990.433 1526.91 M 990.433 1526.91 L 994.54 1458.75 M 965.45 1404.22 L 966.329 1472.5 M 854.083 1446.65 L 878.681 1382.95 M 867.511 1322.16 L 847.628 1387.49 M 789.608 1360.95 L 826.575 1303.54 M 827.922 1241.75 L 795.244 1301.71 M 730.74 1251.59 L 780.455 1204.78 M 796.656 1145.14 L 750.49 1195.45 M 707.871 1146.13 L 766.164 1110.57 M 794.305 1055.54 L 738.763 1095.26 M 713.406 1053.95 L 776.788 1028.54 M 813.662 978.939 L 787.809 961.147 M 782.683 938.987 L 804.607 961.443 M 847.223 916.682 L 823.719 895.886 M 822.701 884.008 L 842.913 908.016 M 888.707 866.511 L 866.796 844.043 M 867.911 843.007 L 888.707 866.511 M 974.999 778.126 L 911.012 801.971 M 911.012 801.971 L 973.815 775.162 M 1009.58 724.758 L 948.9 756.079 M 947.767 753.435 L 1005.36 716.752 M 1032.44 661.194 L 977.671 701.983 M 976.123 699.558 L 1026.97 653.981 M 1044.63 594.754 L 997.245 643.921 M 1025.56 576.369 L 994.281 573.771 M 987.192 632.859 L 1025.56 576.369 M 931.483 553.327 L 961.721 544.927 M 942.389 488.644 L 913.371 500.597 M 386.319 715.666 L 362.66 695.046 M 326.316 742.171 L 352.27 759.815 M 346.095 771.109 L 317.233 758.782 M 297.176 814.811 L 327.303 823.601 M 324.908 836.249 L 293.652 833.412 M 291.832 892.896 L 323.202 891.976 M 324.82 904.747 L 294.211 911.678 M 310.806 968.829 L 340.367 958.289 M 345.84 969.94 L 318.856 985.964 M 352.25 1035.22 L 377.126 1016.09 M 853.422 1506.16 L 854.083 1446.65 M 822.117 1503.93 L 853.422 1506.16 M 822.737 1448.18 L 822.117 1503.93 M 847.628 1387.49 L 822.737 1448.18 M 746.723 1410.59 L 789.608 1360.95 M 795.244 1301.71 L 758.599 1356.12 M 677.155 1289.43 L 730.74 1251.59 M 750.49 1195.45 L 701.811 1239.42 M 647.64 1172.11 L 707.871 1146.13 M 738.763 1095.26 L 682.07 1128.26 M 649.701 1069.59 L 713.406 1053.95 M 752.303 1008.91 L 727.365 989.852 M 728.283 988.708 L 752.303 1008.91 M 787.809 961.147 L 761.547 943.964 M 761.29 916.024 L 782.683 938.987 M 823.719 895.886 L 799.734 875.645 M 803.055 859.534 L 822.701 884.008 M 866.796 844.043 L 844.365 822.092 M 847.67 819.022 L 867.911 843.007 M 948.9 756.079 L 888.05 780.578 M 888.05 780.578 L 947.767 753.435 M 977.671 701.983 L 921.626 736.068 M 921.626 736.068 L 976.123 699.558 M 997.245 643.921 L 947.502 686.683 M 943.102 681.428 L 987.192 632.859 M 994.281 573.771 L 956.312 627.262 M 976.952 560.065 L 945.707 563.014 M 947.613 618.735 L 976.952 560.065 M 913.371 500.597 L 901.067 561.062 M 896.537 558.772 L 902.504 497.357 M 902.504 497.357 L 875.215 512.858 M 409.521 736.8 L 386.319 715.666 M 352.27 759.815 L 378.605 776.886 M 374.678 784.067 L 346.095 771.109 M 327.303 823.601 L 357.616 831.728 M 356.093 839.769 L 324.908 836.249 M 323.202 891.976 L 354.545 890.369 M 355.573 898.488 L 324.82 904.747 M 340.367 958.289 L 369.689 947.104 M 373.169 954.511 L 345.84 969.94 M 377.126 1016.09 L 401.576 996.413 M 726.13 1462.4 L 746.723 1410.59 M 698.011 1448.47 L 726.13 1462.4 M 716.709 1401.42 L 698.011 1448.47 M 758.599 1356.12 L 716.709 1401.42 M 620.75 1314.44 L 677.155 1289.43 M 701.811 1239.42 L 650.236 1273.29 M 587.291 1184.97 L 647.64 1172.11 M 682.07 1128.26 L 624.622 1150.78 M 588.056 1072.26 L 649.701 1069.59 M 690.924 1032.05 L 630.538 1044.73 M 630.04 1042.07 L 690.924 1032.05 M 727.365 989.852 L 702.016 971.35 M 704.712 967.987 L 728.283 988.708 M 761.547 943.964 L 734.915 927.361 M 740.405 892.599 L 761.29 916.024 M 799.734 875.645 L 775.312 855.935 M 783.95 834.635 L 803.055 859.534 M 844.365 822.092 L 821.46 800.639 M 827.96 794.6 L 847.67 819.022 M 895.111 719.279 L 864.624 759.693 M 947.502 686.683 L 895.111 719.279 M 893.475 718.096 L 943.102 681.428 M 956.312 627.262 L 913.322 671.525 M 909.73 667.441 L 947.613 618.735 M 945.707 563.014 L 916.265 617.241 M 909.492 610.979 L 931.483 553.327 M 875.215 512.858 L 866.877 569.03 M 858.242 564.533 L 859.14 507.753 M 859.14 507.753 L 834.503 527.194 M 432.296 758.391 L 409.521 736.8 M 378.605 776.886 L 405.275 793.428 M 402.998 797.592 L 374.678 784.067 M 357.616 831.728 L 388.085 839.249 M 387.202 843.911 L 356.093 839.769 M 354.545 890.369 L 385.849 888.137 M 386.445 892.844 L 355.573 898.488 M 369.689 947.104 L 398.783 935.336 M 400.801 939.631 L 373.169 954.511 M 401.576 996.413 L 425.63 976.254 M 583.555 1348.78 L 620.75 1314.44 M 564.719 1323.68 L 583.555 1348.78 M 597.229 1293.67 L 564.719 1323.68 M 650.236 1273.29 L 597.229 1293.67 M 568.555 1159.8 L 530.559 1182.47 M 530.559 1182.47 L 587.291 1184.97 M 624.622 1150.78 L 568.555 1159.8 M 532.523 1060.39 L 588.056 1072.26 M 630.538 1044.73 L 573.752 1044.33 M 573.487 1036.92 L 630.04 1042.07 M 668.928 1009.66 L 612.501 1016.05 M 612.291 1013.79 L 668.928 1009.66 M 702.016 971.35 L 676.303 953.356 M 681.558 946.801 L 704.712 967.987 M 734.915 927.361 L 707.957 911.293 M 719.992 868.761 L 740.405 892.599 M 775.312 855.935 L 750.501 836.716 M 765.346 809.36 L 783.95 834.635 M 821.46 800.639 L 798.13 779.646 M 808.741 769.789 L 827.96 794.6 M 864.624 759.693 L 893.475 718.096 M 866.003 702.922 L 840.787 739.28 M 913.322 671.525 L 866.003 702.922 M 864.718 702.064 L 909.73 667.441 M 916.265 617.241 L 879.182 660.248 M 876.567 657.248 L 909.492 610.979 M 901.067 561.062 L 878.175 613.031 M 877.017 612.099 L 896.537 558.772 M 834.503 527.194 L 829.942 578.101 M 825.047 575.294 L 824.625 524.185 M 824.625 524.185 L 802.383 546.327 M 454.691 780.378 L 432.296 758.391 M 405.275 793.428 L 432.229 809.502 M 431.078 811.609 L 402.998 797.592 M 388.085 839.249 L 418.681 846.237 M 418.234 848.596 L 387.202 843.911 M 385.849 888.137 L 417.109 885.359 M 417.411 887.74 L 386.445 892.844 M 398.783 935.336 L 427.667 923.062 M 428.688 925.235 L 400.801 939.631 M 425.63 976.254 L 449.327 955.678 M 444.667 1061.6 L 488.668 1066.26 M 451.661 1031 L 444.667 1061.6 M 488.236 1034.88 L 451.661 1031 M 488.668 1066.26 L 532.523 1060.39 M 524.691 1030 L 488.236 1034.88 M 573.752 1044.33 L 524.691 1030 M 526.468 1016.88 L 573.487 1036.92 M 612.501 1016.05 L 562.079 1007.68 M 562.636 1001.68 L 612.291 1013.79 M 647.383 986.843 L 596.272 986.806 M 596.305 985.021 L 647.383 986.843 M 676.303 953.356 L 650.279 935.815 M 658.778 925.214 L 681.558 946.801 M 707.957 911.293 L 680.722 895.697 M 699.998 844.571 L 719.992 868.761 M 750.501 836.716 L 725.359 817.933 M 747.186 783.764 L 765.346 809.36 M 798.13 779.646 L 774.438 759.065 M 789.959 744.647 L 808.741 769.789 M 840.787 739.28 L 864.718 702.064 M 836.49 688.35 L 816.596 719.286 M 879.182 660.248 L 836.49 688.35 M 835.581 687.785 L 876.567 657.248 M 878.175 613.031 L 845.563 652.385 M 845.563 652.385 L 877.017 612.099 M 866.877 569.03 L 845.83 615.606 M 841.785 612.922 L 858.242 564.533 M 802.383 546.327 L 797.971 591.164 M 797.447 590.87 L 800.159 545.898 M 800.159 545.898 L 779.108 569.174 M 476.764 802.688 L 454.691 780.378 M 432.229 809.502 L 459.415 825.183 M 458.95 826.033 L 431.078 811.609 M 418.681 846.237 L 449.375 852.779 M 449.195 853.731 L 418.234 848.596 M 417.109 885.359 L 448.326 882.126 M 448.448 883.087 L 417.411 887.74 M 427.667 923.062 L 456.369 910.369 M 456.781 911.246 L 428.688 925.235 M 449.327 955.678 L 472.723 934.76 M 454.368 1006.09 L 489.692 1016.34 M 467.054 977.386 L 454.368 1006.09 M 494.337 985.301 L 467.054 977.386 M 489.692 1016.34 L 526.468 1016.88 M 522.742 985.721 L 494.337 985.301 M 562.079 1007.68 L 522.742 985.721 M 553.882 971.545 L 525.789 975.759 M 525.789 975.759 L 562.636 1001.68 M 596.272 986.806 L 553.882 971.545 M 554.978 967.08 L 596.305 985.021 M 626.24 963.651 L 581.64 957.274 M 581.844 955.98 L 626.24 963.651 M 650.279 935.815 L 624.003 918.654 M 636.315 903.298 L 658.778 925.214 M 680.722 895.697 L 653.264 880.5 M 680.358 820.092 L 699.998 844.571 M 725.359 817.933 L 699.946 799.518 M 729.4 757.907 L 747.186 783.764 M 774.438 759.065 L 750.449 738.83 M 771.543 719.234 L 789.959 744.647 M 816.596 719.286 L 835.581 687.785 M 806.781 675.315 L 792.118 699.646 M 814.491 647.973 L 806.781 675.315 M 845.83 615.606 L 814.491 647.973 M 812.701 647.33 L 841.785 612.922 M 829.942 578.101 L 810.99 618.974 M 808.938 617.369 L 825.047 575.294 M 779.108 569.174 L 770.803 607.453 M 769.548 606.724 L 776.068 568.101 M 776.068 568.101 L 756.394 592.552 M 498.584 825.244 L 476.764 802.688 M 459.415 825.183 L 486.776 840.556 M 486.658 840.77 L 458.95 826.033 M 449.375 852.779 L 480.141 858.975 M 480.096 859.215 L 449.195 853.731 M 448.326 882.126 L 479.504 878.542 M 479.535 878.784 L 448.448 883.087 M 456.369 910.369 L 484.927 897.354 M 485.031 897.574 L 456.781 911.246 M 472.723 934.76 L 495.881 913.579 M 474.267 948.376 L 498.951 962.436 M 493.578 923.637 L 474.267 948.376 M 510.38 933.208 L 493.578 923.637 M 498.951 962.436 L 526.625 968.85 M 529.217 937.573 L 510.38 933.208 M 526.625 968.85 L 554.978 967.08 M 548.516 936.368 L 529.217 937.573 M 581.64 957.274 L 548.516 936.368 M 549.843 933.393 L 581.844 955.98 M 605.435 940.154 L 584.369 916.892 M 584.897 916.423 L 605.435 940.154 M 624.003 918.654 L 597.536 901.789 M 614.099 881.13 L 636.315 903.298 M 653.264 880.5 L 625.636 865.612 M 660.994 795.394 L 680.358 820.092 M 699.946 799.518 L 674.328 781.39 M 711.906 731.851 L 729.4 757.907 M 750.449 738.83 L 726.234 718.866 M 753.415 693.616 L 771.543 719.234 M 792.118 699.646 L 806.23 674.991 M 777.025 663.501 L 767.42 680.282 M 806.23 674.991 L 812.701 647.33 M 781.43 644.673 L 777.025 663.501 M 810.99 618.974 L 781.43 644.673 M 780.592 644.401 L 808.938 617.369 M 797.971 591.164 L 778.541 625.174 M 778.541 625.174 L 797.447 590.87 M 756.394 592.552 L 743.567 624.328 M 743.567 624.328 L 756.146 592.454 M 756.146 592.454 L 736.852 617.206 M 520.231 847.968 L 498.584 825.244 M 486.776 840.556 L 514.253 855.719 M 514.253 855.719 L 486.658 840.77 M 480.141 858.975 L 510.954 864.935 M 510.954 864.935 L 480.096 859.215 M 479.504 878.542 L 510.654 874.719 M 510.654 874.719 L 479.535 878.784 M 484.927 897.354 L 513.384 884.12 M 513.384 884.12 L 485.031 897.574 M 495.881 913.579 L 518.877 892.222 M 496.303 916.243 L 512.092 927.406 M 518.108 893.672 L 496.303 916.243 M 526.1 899.322 L 518.108 893.672 M 512.092 927.406 L 530.506 933.305 M 535.423 902.309 L 526.1 899.322 M 530.506 933.305 L 549.843 933.393 M 545.211 902.354 L 535.423 902.309 M 568.311 927.664 L 545.211 902.354 M 554.995 899.245 L 545.602 902.002 M 545.602 902.002 L 568.311 927.664 M 584.369 916.892 L 563.124 893.792 M 564.542 892.537 L 584.897 916.423 M 597.536 901.789 L 570.94 885.128 M 592.055 858.793 L 614.099 881.13 M 625.636 865.612 L 597.895 850.937 M 641.821 770.548 L 660.994 795.394 M 674.328 781.39 L 648.571 763.459 M 694.613 705.662 L 711.906 731.851 M 726.234 718.866 L 701.866 699.089 M 735.484 667.859 L 753.415 693.616 M 767.42 680.282 L 776.767 663.355 M 747.306 652.54 L 742.574 661.109 M 776.767 663.355 L 780.592 644.401 M 749.242 642.945 L 747.306 652.54 M 748.204 633.211 L 749.242 642.945 M 770.803 607.453 L 748.204 633.211 M 747.761 633.173 L 769.548 606.724 M 1278.66 409.78 L 1306.39 395.081 M 1275.31 390.735 L 1275.48 400.522 M 1278.16 381.371 L 1275.31 390.735 M 1283.75 373.34 L 1278.16 381.371 M 1291.55 367.425 L 1283.75 373.34 M 1300.8 364.2 L 1291.55 367.425 M 1306.39 395.081 L 1333.97 380.112 M 1188.17 1074.57 L 1198.06 1044.79 M 1168.18 1054.38 L 1172.59 1063.12 M 1166.68 1044.71 L 1168.18 1054.38 M 1168.23 1035.04 L 1166.68 1044.71 M 1172.68 1026.33 L 1168.23 1035.04 M 1198.06 1044.79 L 1179.6 1019.41 M 1271.67 948.609 L 1249.22 926.679 M 1243.56 934.663 L 1271.67 948.609 M 1327.5 839.352 L 1301.78 821.373 M 1297.49 830.172 L 1327.5 839.352 M 1333.67 718.291 L 1364.78 722.459 M 1364.78 722.459 L 1336.47 708.911 M 736.852 617.206 L 717.654 642.032 M 541.789 870.775 L 520.231 847.968 M 518.877 892.222 L 526.599 898.238 M 526.599 898.238 L 535.798 901.582 M 535.798 901.582 L 545.581 901.929 M 545.581 901.929 L 554.995 899.245 M 563.124 893.792 L 541.789 870.775 M 570.94 885.128 L 544.279 868.571 M 544.279 868.571 L 564.542 892.537 M 597.895 850.937 L 570.097 836.37 M 570.097 836.37 L 592.055 858.793 M 648.571 763.459 L 622.745 745.628 M 622.745 745.628 L 641.821 770.548 M 701.866 699.089 L 677.421 679.406 M 677.421 679.406 L 694.613 705.662 M 717.654 642.032 L 735.484 667.859 M 742.574 661.109 L 747.239 652.504 M 747.239 652.504 L 749.026 642.879 M 749.026 642.879 L 747.761 633.173" />
<path fill="none" class="c" d=" M 1000.83 889.642 L 1042.92 847.561 M 977.848 868.275 L 1000.83 889.642 M 1021.55 824.574 L 977.848 868.275 M 955.385 846.358 L 977.848 868.275 M 1024.32 910.465 L 1063.74 871.041 M 1000.83 889.642 L 1024.32 910.465 M 937.452 915.05 L 961.938 934.682 M 912.238 891.677 L 935.232 913.036 M 999.632 802.111 L 955.385 846.358 M 1048.25 930.768 L 1084.04 894.972 M 1024.32 910.465 L 1048.25 930.768 M 964.085 936.45 L 989.885 954.318 M 937.452 915.05 L 900.579 964.649 M 912.238 891.677 L 870.217 938.041 M 875.165 946.235 L 900.579 964.649 M 847.223 916.682 L 870.217 938.041 M 933.468 823.896 L 955.385 846.358 M 933.468 823.896 L 888.707 866.511 M 933.468 823.896 L 911.012 801.971 M 933.468 823.896 L 974.999 778.126 M 911.012 801.971 L 867.911 843.007 M 911.012 801.971 L 888.05 780.578 M 911.012 801.971 L 948.9 756.079 M 888.05 780.578 L 847.67 819.022 M 888.05 780.578 L 864.624 759.693 M 888.05 780.578 L 921.626 736.068 M 921.626 736.068 L 895.111 719.279 M 921.626 736.068 L 947.502 686.683 M 864.624 759.693 L 827.96 794.6 M 864.624 759.693 L 840.787 739.28 M 893.475 718.096 L 866.003 702.922 M 893.475 718.096 L 913.322 671.525 M 840.787 739.28 L 808.741 769.789 M 840.787 739.28 L 816.596 719.286 M 864.718 702.064 L 836.49 688.35 M 864.718 702.064 L 879.182 660.248 M 816.596 719.286 L 789.959 744.647 M 792.118 699.646 L 771.543 719.234 M 816.596 719.286 L 792.118 699.646 M 835.581 687.785 L 806.781 675.315 M 845.563 652.385 L 814.491 647.973 M 845.563 652.385 L 845.83 615.606 M 792.118 699.646 L 767.42 680.282 M 767.42 680.282 L 753.415 693.616 M 806.23 674.991 L 777.025 663.501 M 812.701 647.33 L 781.43 644.673 M 812.701 647.33 L 810.99 618.974 M 767.42 680.282 L 742.574 661.109 M 742.574 661.109 L 735.484 667.859 M 776.767 663.355 L 747.306 652.54 M 780.592 644.401 L 749.242 642.945 M 780.592 644.401 L 778.541 625.174 M 778.541 625.174 L 748.204 633.211 M 778.541 625.174 L 770.803 607.453 M 742.574 661.109 L 717.654 642.032 M 747.239 652.504 L 717.654 642.032 M 749.026 642.879 L 717.654 642.032 M 747.761 633.173 L 717.654 642.032 M 747.761 633.173 L 743.567 624.328 M 743.567 624.328 L 717.654 642.032 M 1072.58 950.591 L 1103.86 919.304 M 1048.25 930.768 L 1072.58 950.591 M 991.841 955.785 L 1018.76 971.918 M 964.085 936.45 L 933.193 987.315 M 905.791 972.014 L 933.193 987.315 M 875.165 946.235 L 839.076 997.353 M 813.662 978.939 L 839.076 997.353 M 847.223 916.682 L 804.607 961.443 M 823.719 895.886 L 782.683 938.987 M 973.815 775.162 L 948.9 756.079 M 973.815 775.162 L 1009.58 724.758 M 799.734 875.645 L 761.29 916.024 M 947.767 753.435 L 921.626 736.068 M 947.767 753.435 L 977.671 701.983 M 976.123 699.558 L 947.502 686.683 M 976.123 699.558 L 997.245 643.921 M 775.312 855.935 L 740.405 892.599 M 943.102 681.428 L 913.322 671.525 M 943.102 681.428 L 956.312 627.262 M 750.501 836.716 L 719.992 868.761 M 909.73 667.441 L 879.182 660.248 M 909.73 667.441 L 916.265 617.241 M 725.359 817.933 L 699.998 844.571 M 835.581 687.785 L 845.563 652.385 M 876.567 657.248 L 845.563 652.385 M 877.017 612.099 L 845.83 615.606 M 877.017 612.099 L 866.877 569.03 M 699.946 799.518 L 680.358 820.092 M 841.785 612.922 L 810.99 618.974 M 841.785 612.922 L 829.942 578.101 M 674.328 781.39 L 660.994 795.394 M 808.938 617.369 L 778.541 625.174 M 808.938 617.369 L 797.971 591.164 M 797.447 590.87 L 770.803 607.453 M 648.571 763.459 L 641.821 770.548 M 769.548 606.724 L 743.567 624.328 M 743.567 624.328 L 736.852 617.206 M 1097.25 969.985 L 1123.26 943.978 M 1072.58 950.591 L 1097.25 969.985 M 1020.42 973.061 L 1048.26 987.556 M 991.841 955.785 L 967.185 1005.79 M 938.257 993.622 L 967.185 1005.79 M 905.791 972.014 L 877.65 1027.04 M 849.536 1013.09 L 877.65 1027.04 M 813.662 978.939 L 776.788 1028.54 M 888.707 866.511 L 910.066 889.505 M 752.303 1008.91 L 776.788 1028.54 M 787.809 961.147 L 752.303 1008.91 M 1005.36 716.752 L 977.671 701.983 M 1005.36 716.752 L 1032.44 661.194 M 1026.97 653.981 L 997.245 643.921 M 1026.97 653.981 L 1044.63 594.754 M 761.547 943.964 L 728.283 988.708 M 987.192 632.859 L 956.312 627.262 M 987.192 632.859 L 994.281 573.771 M 734.915 927.361 L 704.712 967.987 M 947.613 618.735 L 916.265 617.241 M 947.613 618.735 L 945.707 563.014 M 707.957 911.293 L 681.558 946.801 M 876.567 657.248 L 878.175 613.031 M 909.492 610.979 L 878.175 613.031 M 896.537 558.772 L 866.877 569.03 M 680.722 895.697 L 658.778 925.214 M 858.242 564.533 L 829.942 578.101 M 653.264 880.5 L 636.315 903.298 M 825.047 575.294 L 797.971 591.164 M 797.447 590.87 L 779.108 569.174 M 625.636 865.612 L 614.099 881.13 M 769.548 606.724 L 756.394 592.552 M 597.895 850.937 L 592.055 858.793 M 1122.2 989.018 L 1142.29 968.931 M 1097.25 969.985 L 1122.2 989.018 M 1049.57 988.383 L 1078.12 1001.4 M 1020.42 973.061 L 1001.73 1020.11 M 1001.73 1020.11 L 1031.92 1028.67 M 971.713 1010.94 L 1001.73 1020.11 M 938.257 993.622 L 918.507 1049.76 M 888.541 1040.43 L 918.507 1049.76 M 849.536 1013.09 L 822.42 1069.49 M 794.305 1055.54 L 822.42 1069.49 M 888.707 866.511 L 842.913 908.016 M 999.185 793.636 L 1035.39 742.603 M 752.303 1008.91 L 713.406 1053.95 M 866.796 844.043 L 822.701 884.008 M 690.924 1032.05 L 713.406 1053.95 M 727.365 989.852 L 690.924 1032.05 M 844.365 822.092 L 803.055 859.534 M 668.928 1009.66 L 690.924 1032.05 M 702.016 971.35 L 668.928 1009.66 M 821.46 800.639 L 783.95 834.635 M 909.492 610.979 L 901.067 561.062 M 896.537 558.772 L 875.215 512.858 M 647.383 986.843 L 668.928 1009.66 M 676.303 953.356 L 647.383 986.843 M 798.13 779.646 L 765.346 809.36 M 858.242 564.533 L 834.503 527.194 M 626.24 963.651 L 647.383 986.843 M 650.279 935.815 L 626.24 963.651 M 774.438 759.065 L 747.186 783.764 M 825.047 575.294 L 802.383 546.327 M 605.435 940.154 L 626.24 963.651 M 624.003 918.654 L 605.435 940.154 M 750.449 738.83 L 729.4 757.907 M 597.536 901.789 L 584.897 916.423 M 726.234 718.866 L 711.906 731.851 M 570.94 885.128 L 564.542 892.537 M 701.866 699.089 L 694.613 705.662 M 1147.37 1007.77 L 1161.04 994.097 M 1122.2 989.018 L 1147.37 1007.77 M 1079.05 1001.94 L 1108.14 1013.7 M 1036.13 1030.54 L 1066.96 1036.44 M 1001.73 1020.11 L 992.925 1069.96 M 971.713 1010.94 L 959.837 1065.41 M 961.677 1067.04 L 992.925 1069.96 M 928.828 1060.57 L 959.837 1065.41 M 888.541 1040.43 L 872.341 1100.08 M 841.956 1092.22 L 872.341 1100.08 M 1025 811.481 L 1060.77 761.076 M 794.305 1055.54 L 766.164 1110.57 M 1033.4 730.845 L 1060.81 674.594 M 1056.94 663.317 L 1074.82 603.352 M 738.763 1095.26 L 766.164 1110.57 M 690.924 1032.05 L 649.701 1069.59 M 931.483 553.327 L 901.067 561.062 M 630.538 1044.73 L 649.701 1069.59 M 668.928 1009.66 L 630.04 1042.07 M 612.501 1016.05 L 630.04 1042.07 M 647.383 986.843 L 612.291 1013.79 M 596.272 986.806 L 612.291 1013.79 M 626.24 963.651 L 596.305 985.021 M 581.64 957.274 L 596.305 985.021 M 605.435 940.154 L 581.844 955.98 M 568.311 927.664 L 581.844 955.98 M 584.369 916.892 L 568.311 927.664 M 554.995 899.245 L 568.311 927.664 M 563.124 893.792 L 554.995 899.245 M 541.789 870.775 L 554.995 899.245 M 1147.37 1007.77 L 1172.68 1026.33 M 1172.68 1026.33 L 1179.6 1019.41 M 1108.7 1014.01 L 1138.18 1024.78 M 1069.94 1037.58 L 1101.11 1041.22 M 1036.13 1030.54 L 1033.04 1074.68 M 1001.67 1075.68 L 1033.04 1074.68 M 961.677 1067.04 L 961.057 1122.79 M 928.828 1060.57 L 923.192 1119.82 M 929.711 1124.33 L 961.057 1122.79 M 891.861 1117.99 L 923.192 1119.82 M 1051.24 828.695 L 1085.68 780.159 M 841.956 1092.22 L 827.041 1152.99 M 1061.78 744.245 L 1088.86 688.687 M 1087.12 671.915 L 1104.78 612.688 M 796.656 1145.14 L 827.041 1152.99 M 738.763 1095.26 L 707.871 1146.13 M 931.483 553.327 L 913.371 500.597 M 682.07 1128.26 L 707.871 1146.13 M 630.538 1044.73 L 588.056 1072.26 M 573.752 1044.33 L 588.056 1072.26 M 612.501 1016.05 L 573.487 1036.92 M 562.079 1007.68 L 573.487 1036.92 M 596.272 986.806 L 562.636 1001.68 M 553.882 971.545 L 562.636 1001.68 M 581.64 957.274 L 554.978 967.08 M 548.516 936.368 L 554.978 967.08 M 568.311 927.664 L 549.843 933.393 M 545.211 902.354 L 549.843 933.393 M 1172.68 1026.33 L 1198.06 1044.79 M 541.789 870.775 L 545.581 901.929 M 1138.44 1024.92 L 1168.16 1035.01 M 1102.91 1041.82 L 1134.24 1043.71 M 1069.94 1037.58 L 1070.57 1074.35 M 1070.57 1074.35 L 1101.6 1069.63 M 1039.48 1078.62 L 1070.57 1074.35 M 1001.67 1075.68 L 1008.41 1125.85 M 977.755 1132.56 L 1008.41 1125.85 M 929.711 1124.33 L 936.166 1183.49 M 1077.88 845.29 L 1110.14 799.82 M 891.861 1117.99 L 890.514 1179.78 M 905.113 1188.03 L 936.166 1183.49 M 1090.48 756.953 L 1116.55 703.456 M 1117.5 679.778 L 1134.51 622.748 M 859.132 1179.48 L 890.514 1179.78 M 796.656 1145.14 L 780.455 1204.78 M 750.49 1195.45 L 780.455 1204.78 M 682.07 1128.26 L 647.64 1172.11 M 624.622 1150.78 L 647.64 1172.11 M 573.752 1044.33 L 532.523 1060.39 M 524.691 1030 L 532.523 1060.39 M 562.079 1007.68 L 526.468 1016.88 M 522.742 985.721 L 526.468 1016.88 M 1168.23 1035.04 L 1198.06 1044.79 M 541.789 870.775 L 535.798 901.582 M 1135.08 1043.96 L 1166.46 1044.65 M 1105.32 1070.13 L 1135.88 1062.98 M 1070.57 1074.35 L 1080.91 1109.65 M 1039.48 1078.62 L 1050.67 1121.43 M 1052.05 1121.99 L 1080.91 1109.65 M 1021.27 1132.41 L 1050.67 1121.43 M 977.755 1132.56 L 994.083 1185.87 M 1104.87 861.298 L 1134.17 820.012 M 964.68 1196.84 L 994.083 1185.87 M 1119.46 768.987 L 1143.89 718.868 M 1148.06 686.929 L 1163.99 633.5 M 905.113 1188.03 L 916.283 1248.81 M 859.132 1179.48 L 859.304 1242.05 M 885.488 1254.86 L 916.283 1248.81 M 827.922 1241.75 L 859.304 1242.05 M 961.721 544.927 L 942.389 488.644 M 750.49 1195.45 L 730.74 1251.59 M 701.811 1239.42 L 730.74 1251.59 M 624.622 1150.78 L 587.291 1184.97 M 568.555 1159.8 L 587.291 1184.97 M 529.217 937.573 L 526.625 968.85 M 535.423 902.309 L 530.506 933.305 M 1166.68 1044.71 L 1198.06 1044.79 M 541.789 870.775 L 526.599 898.238 M 1137.61 1063.13 L 1167.74 1054.35 M 1105.32 1070.13 L 1115.72 1096.56 M 1088.31 1111.85 L 1115.72 1096.56 M 1052.05 1121.99 L 1074.16 1160.31 M 1021.27 1132.41 L 1043.72 1177.79 M 1048.71 1178.68 L 1074.16 1160.31 M 1132.18 876.764 L 1157.79 840.679 M 1016.82 1193.96 L 1043.72 1177.79 M 1148.7 780.383 L 1170.88 734.876 M 1178.77 693.408 L 1193.23 644.896 M 964.68 1196.84 L 988.784 1251.25 M 960.573 1265 L 988.784 1251.25 M 885.488 1254.86 L 898.305 1316.11 M 867.511 1322.16 L 898.305 1316.11 M 827.922 1241.75 L 826.575 1303.54 M 795.244 1301.71 L 826.575 1303.54 M 701.811 1239.42 L 677.155 1289.43 M 650.236 1273.29 L 677.155 1289.43 M 488.236 1034.88 L 488.668 1066.26 M 494.337 985.301 L 489.692 1016.34 M 1168.18 1054.38 L 1198.06 1044.79 M 541.789 870.775 L 518.877 892.222 M 1137.61 1063.13 L 1145.78 1080.66 M 1145.78 1080.66 L 1171.87 1063.23 M 1119.55 1097.89 L 1145.78 1080.66 M 1088.31 1111.85 L 1110.35 1141.3 M 1087.63 1162.95 L 1110.35 1141.3 M 1159.76 891.752 L 1181.04 861.755 M 1048.71 1178.68 L 1082.35 1216.51 M 1178.17 791.194 L 1197.55 751.418 M 1209.6 699.274 L 1222.24 656.872 M 1016.82 1193.96 L 1049.35 1239.24 M 1025 1259.04 L 1049.35 1239.24 M 960.573 1265 L 989.663 1319.53 M 962.157 1334.64 L 989.663 1319.53 M 991.756 535.823 L 971.679 477.372 M 867.511 1322.16 L 878.681 1382.95 M 847.628 1387.49 L 878.681 1382.95 M 795.244 1301.71 L 789.608 1360.95 M 758.599 1356.12 L 789.608 1360.95 M 650.236 1273.29 L 620.75 1314.44 M 597.229 1293.67 L 620.75 1314.44 M 510.38 933.208 L 498.951 962.436 M 526.1 899.322 L 512.092 927.406 M 1172.59 1063.12 L 1198.06 1044.79 M 513.384 884.12 L 518.877 892.222 M 541.789 870.775 L 513.384 884.12 M 1145.78 1080.66 L 1158.84 1094.92 M 1119.55 1097.89 L 1138.41 1119.13 M 1139 1119.24 L 1158.84 1094.92 M 1117.94 1142.92 L 1138.41 1119.13 M 1187.55 906.336 L 1203.98 883.167 M 1087.63 1162.95 L 1121.76 1191.12 M 1207.82 801.488 L 1223.93 768.425 M 1240.53 704.6 L 1251.03 669.354 M 1025 1259.04 L 1065.25 1302.88 M 962.157 1334.64 L 992.956 1389.11 M 965.45 1404.22 L 992.956 1389.11 M 847.628 1387.49 L 854.083 1446.65 M 822.737 1448.18 L 854.083 1446.65 M 758.599 1356.12 L 746.723 1410.59 M 716.709 1401.42 L 746.723 1410.59 M 1172.59 1063.12 L 1179.48 1070.08 M 1179.48 1070.08 L 1198.06 1044.79 M 510.654 874.719 L 513.384 884.12 M 541.789 870.775 L 510.654 874.719 M 1160.8 1095.29 L 1179.48 1070.08 M 1139 1119.24 L 1163.38 1133.82 M 1215.5 920.607 L 1226.69 904.837 M 1117.94 1142.92 L 1148.77 1162.98 M 1237.61 811.35 L 1250.05 785.812 M 1271.53 709.476 L 1279.65 682.253 M 1021.56 525.993 L 1001.23 466.813 M 965.45 1404.22 L 994.54 1458.75 M 966.329 1472.5 L 994.54 1458.75 M 485.031 897.574 L 495.881 913.579 M 1179.48 1070.08 L 1188.17 1074.57 M 510.954 864.935 L 510.654 874.719 M 541.789 870.775 L 510.954 864.935 M 1160.8 1095.29 L 1177.9 1104.31 M 1243.56 934.663 L 1249.22 926.679 M 1267.51 820.876 L 1275.98 803.493 M 1302.58 714.003 L 1308.11 695.473 M 1051.11 515.435 L 1031.04 456.983 M 479.535 878.784 L 484.927 897.354 M 514.253 855.719 L 510.954 864.935 M 541.789 870.775 L 514.253 855.719 M 1297.49 830.172 L 1301.78 821.373 M 1333.67 718.291 L 1336.47 708.911 M 1080.4 504.163 L 1061.07 447.879 M 456.781 911.246 L 472.723 934.76 M 480.096 859.215 L 479.504 878.542 M 520.231 847.968 L 514.253 855.719 M 1109.42 492.209 L 1091.31 439.479 M 448.448 883.087 L 456.369 910.369 M 486.658 840.77 L 480.141 858.975 M 1138.17 479.623 L 1121.73 431.745 M 428.688 925.235 L 449.327 955.678 M 449.195 853.731 L 448.326 882.126 M 498.584 825.244 L 486.776 840.556 M 1166.66 466.465 L 1152.29 424.618 M 417.411 887.74 L 427.667 923.062 M 458.95 826.033 L 449.375 852.779 M 1194.92 452.812 L 1182.97 418.026 M 400.801 939.631 L 425.63 976.254 M 418.234 848.596 L 417.109 885.359 M 476.764 802.688 L 459.415 825.183 M 1222.98 438.749 L 1213.75 411.882 M 386.445 892.844 L 398.783 935.336 M 431.078 811.609 L 418.681 846.237 M 1250.87 424.371 L 1244.59 406.083 M 1244.59 406.083 L 1213.75 411.882 M 1244.59 406.083 L 1243.8 386.763 M 373.169 954.511 L 401.576 996.413 M 387.202 843.911 L 385.849 888.137 M 454.691 780.378 L 432.229 809.502 M 1275.48 400.522 L 1244.59 406.083 M 1278.66 409.78 L 1275.48 400.522 M 1274.99 390.269 L 1243.8 386.763 M 355.573 898.488 L 369.689 947.104 M 402.998 797.592 L 388.085 839.249 M 1306.39 395.081 L 1275.48 400.522 M 1306.39 395.081 L 1275.31 390.735 M 1306.39 395.081 L 1278.16 381.371 M 1306.39 395.081 L 1283.75 373.34 M 1306.39 395.081 L 1291.55 367.425 M 1306.39 395.081 L 1300.8 364.2 M 1310.58 363.979 L 1300.8 364.2 M 1306.39 395.081 L 1310.58 363.979 M 1319.96 366.784 L 1310.58 363.979 M 1306.39 395.081 L 1319.96 366.784 M 1328.02 372.342 L 1319.96 366.784 M 1306.39 395.081 L 1328.02 372.342 M 1333.97 380.112 L 1328.02 372.342 M 1277.55 380.821 L 1248.86 368.1 M 345.84 969.94 L 377.126 1016.09 M 356.093 839.769 L 354.545 890.369 M 432.296 758.391 L 405.275 793.428 M 1282.83 372.58 L 1259.3 351.821 M 1314.66 332.861 L 1295.32 333.297 M 1333.42 338.434 L 1314.9 332.893 M 1349.56 349.519 L 1333.64 338.54 M 1361.5 365.036 L 1349.74 349.687 M 324.82 904.747 L 340.367 958.289 M 374.678 784.067 L 357.616 831.728 M 1290.35 366.308 L 1274.14 339.433 M 1318.49 301.712 L 1290.09 302.353 M 1346.67 309.982 L 1319.45 301.842 M 1370.93 326.531 L 1347.54 310.401 M 1388.91 349.749 L 1371.63 327.199 M 318.856 985.964 L 352.25 1035.22 M 324.908 836.249 L 323.202 891.976 M 409.521 736.8 L 378.605 776.886 M 1321.97 270.522 L 1285.2 271.352 M 1359.59 281.383 L 1324.35 270.843 M 1392.03 303.304 L 1361.76 282.421 M 1416.14 334.154 L 1393.77 304.959 M 294.211 911.678 L 310.806 968.829 M 346.095 771.109 L 327.303 823.601 M 1325 239.285 L 1280.77 240.283 M 1372.1 252.599 L 1329.71 239.919 M 1412.8 279.773 L 1376.37 254.651 M 1443.15 318.165 L 1416.24 283.044 M 292.253 1002.61 L 326.934 1053.77 M 293.652 833.412 L 291.832 892.896 M 386.319 715.666 L 352.27 759.815 M 1327.49 208 L 1276.88 209.142 M 1384.1 223.6 L 1335.6 209.094 M 1433.15 255.883 L 1391.48 227.14 M 1469.87 301.707 L 1439.08 261.524 M 263.773 919.323 L 281.006 978.675 M 317.233 758.782 L 297.176 814.811 M 1329.35 176.672 L 1273.61 177.929 M 1395.52 194.369 L 1342.1 178.392 M 1453.02 231.592 L 1407.13 199.936 M 1496.26 284.72 L 1462.35 240.464 M 266.062 1019.91 L 301.175 1071.7 M 262.339 831.308 L 260.449 893.082 M 362.66 695.046 L 326.316 742.171 M 1330.52 145.31 L 1271.02 146.652 M 1406.3 164.893 L 1349.28 147.84 M 1472.35 206.871 L 1423.37 173.081 M 240.304 1037.83 L 274.985 1088.99 M 233.529 927.703 L 250.977 987.795 M 288.092 747.132 L 267.261 805.319 M 1330.96 113.929 L 1269.17 115.323 M 1416.38 135.174 L 1357.17 117.464 M 1491.11 181.704 L 1440.23 146.613 M 203.5 936.824 L 220.733 996.176 M 1365.79 87.2884 L 1357.17 117.464 M 1457.73 120.562 L 1440.23 146.613 M 230.985 829.963 L 229.071 892.507 M 338.525 674.985 L 300.781 723.925 M 190.295 1003.82 L 220.733 996.176 M 199.606 829.388 L 197.716 891.162 M 1365.79 87.2884 L 1305.42 70.8342 M 1457.73 120.562 L 1405.37 86.3085 M 258.677 736.193 L 237.587 795.105 M 1422.87 60.2575 L 1405.37 86.3085 M 166.403 889.058 L 197.716 891.162 M 166.403 889.058 L 160.246 948.25 M 229.002 725.978 L 208.171 784.166 M 313.911 655.516 L 275.697 705.065 M 1422.87 60.2575 L 1371.99 25.1664 M 129.281 943.14 L 160.246 948.25 M 179.03 772.516 L 208.171 784.166 M 199.088 716.487 L 179.03 772.516 M 179.03 772.516 L 154.936 826.932 M 288.827 636.656 L 251.083 685.595 M 150.169 760.188 L 179.03 772.516 M 127.052 812.53 L 154.936 826.932 M 150.169 760.188 L 125.238 810.058 M 127.052 812.53 L 98.5479 860.447 M 263.292 618.41 L 226.948 665.534 M 98.4081 793.777 L 125.238 810.058 M 72.9774 842.252 L 98.5479 860.447 M 98.4081 793.777 L 68.697 834.764 M 203.288 644.914 L 226.948 665.534 M 237.338 600.765 L 203.288 644.914 M 203.288 644.914 L 164.207 684.677 M 45.2899 813.859 L 68.697 834.764 M 180.087 623.781 L 203.288 644.914 M 211.003 583.695 L 180.087 623.781 M 143.697 660.923 L 164.207 684.677 M 180.087 623.781 L 143.053 658.294 M 143.697 660.923 L 102.804 690.763 M 157.311 602.189 L 180.087 623.781 M 184.333 567.152 L 157.311 602.189 M 124.099 633.28 L 143.053 658.294 M 157.311 602.189 L 123.765 631.04 M 86.9758 663.663 L 102.804 690.763 M 124.099 633.28 L 86.3009 656.28 M 134.917 580.203 L 157.311 602.189 M 157.378 551.078 L 134.917 580.203 M 106.277 604.981 L 123.765 631.04 M 134.917 580.203 L 106.211 603.197 M 73.292 627.72 L 86.3009 656.28 M 106.277 604.981 L 73.5155 621.698 M 112.844 557.893 L 134.917 580.203 M 130.193 535.398 L 112.844 557.893 M 90.0324 576.304 L 106.211 603.197 M 112.844 557.893 L 90.1648 575.001 M 63.1074 592.09 L 73.5155 621.698 M 38.2447 638.876 L 44.1389 669.701 M 91.0234 535.336 L 112.844 557.893 M 75.0845 547.478 L 90.1648 575.001 M 35.29 597.853 L 37.5002 629.159 M 56.9618 554.221 L 63.5401 584.907 M 37.6677 555.499 L 35.1943 586.785" />
</svg>
