<?xml version="1.0"?>
<svg width="10000" height="8666" version="1.1" xmlns="http://www.w3.org/2000/svg" >
<defs>
<style type="text/css"><![CDATA[
.m {stroke:rgb(255,0,0);stroke-width:12.500000;}
.v {stroke:rgb(0,0,255);stroke-width:12.500000;}
.b {stroke:rgb(0,0,0);stroke-width:25.000000;fill:white}
.n {stroke:rgb(128,128,128);stroke-width:12.500000}
.t {stroke:rgb(0,128,0);stroke-width:12.500000;}
.c {stroke:rgb(128,128,128);stroke-width:12.500000;stroke-dasharray:100.000000, 100.000000;}
]]></style>
</defs>
<path fill="none" style="stroke:black;stroke-width:25.000000;" d=" M 7333.33 6000 L 8000 6666.67 M 8000 6666.67 L 7333.33 6000 M 6666.67 6000 L 7333.33 6666.67 M 2666.67 7333.33 L 3333.33 8000 M 3333.33 8000 L 4000 8000 M 7333.33 6666.67 L 8000 7333.33 M 2000 6666.67 L 2666.67 7333.33 M 3333.33 7333.33 L 2666.67 6666.67 M 2666.67 6666.67 L 3333.33 7333.33 M 4000 7333.33 L 3333.33 6666.67 M 3333.33 6666.67 L 4000 7333.33 M 2666.67 6666.67 L 2000 6000 M 2000 6000 L 2666.67 6666.67 M 3333.33 6666.67 L 2666.67 6000 M 2666.67 6000 L 3333.33 6666.67 M 4000 6666.67 L 3333.33 6000 M 3333.33 6000 L 4000 6666.67 M 2000 5333.33 L 2000 6000 M 2666.67 6000 L 2666.67 5333.33 M 2666.67 5333.33 L 2666.67 6000 M 3333.33 6000 L 3333.33 5333.33 M 3333.33 5333.33 L 3333.33 6000 M 2000 4666.67 L 2000 5333.33 M 2666.67 5333.33 L 2666.67 4666.67 M 2666.67 4666.67 L 2666.67 5333.33 M 3333.33 5333.33 L 3333.33 4666.67 M 3333.33 4666.67 L 3333.33 5333.33 M 2000 4000 L 2000 4666.67 M 2666.67 4666.67 L 2666.67 4000 M 2666.67 4000 L 2666.67 4666.67 M 3333.33 4666.67 L 3333.33 4000 M 3333.33 4000 L 3333.33 4666.67 M 2000 3333.33 L 2000 4000 M 2666.67 4000 L 2666.67 3333.33 M 2666.67 3333.33 L 2666.67 4000 M 3333.33 4000 L 3333.33 3333.33 M 3333.33 3333.33 L 3333.33 4000 M 4000 4000 L 4000 3333.33 M 2000 2666.67 L 2000 3333.33 M 2666.67 3333.33 L 2666.67 2666.67 M 2666.67 2666.67 L 2666.67 3333.33 M 3333.33 3333.33 L 3333.33 2666.67 M 3333.33 2666.67 L 3333.33 3333.33 M 4000 3333.33 L 4000 2666.67 M 2000 2000 L 2000 2666.67 M 2666.67 2666.67 L 2666.67 2000 M 2666.67 2000 L 2666.67 2666.67 M 3333.33 2666.67 L 3333.33 2000 M 3333.33 2000 L 3333.33 2666.67 M 4000 2666.67 L 4000 2000 M 2666.67 2000 L 2000 1333.33 M 2000 1333.33 L 2666.67 2000 M 3333.33 2000 L 2666.67 1333.33 M 2666.67 1333.33 L 3333.33 2000 M 4000 2000 L 3333.33 1333.33 M 6666.67 4666.67 L 6000 4000 M 2666.67 1333.33 L 2000 666.667 M 2000 666.667 L 2666.67 1333.33 M 3333.33 1333.33 L 2666.67 666.667 M 7333.33 5333.33 L 6666.67 4666.67 M 6000 4666.67 L 6666.67 5333.33 M 6666.67 5333.33 L 6000 4666.67 M 2666.67 666.667 L 2000 0 M 8000 6000 L 7333.33 5333.33 M 6666.67 5333.33 L 7333.33 6000 M 7333.33 6000 L 6666.67 5333.33 M 6000 5333.33 L 6666.67 6000 M 4000 8000 L 4000 8666.67 M 4000 8666.67 L 4666.67 8000 M 5333.33 4666.67 L 6000 4666.67 M 6000 4000 L 5333.33 4000 M 5333.33 5333.33 L 6000 5333.33 M 6000 4666.67 L 5333.33 4666.67 M 4666.67 8000 L 4666.67 7333.33 M 4666.67 4666.67 L 5333.33 4666.67 M 5333.33 4000 L 4666.67 4000 M 4666.67 5333.33 L 5333.33 5333.33 M 5333.33 4666.67 L 4666.67 4666.67 M 4666.67 7333.33 L 4666.67 6666.67 M 4666.67 4000 L 4000 4666.67 M 4666.67 4000 L 4000 4000 M 4000 4666.67 L 4666.67 4000 M 4666.67 4666.67 L 4000 5333.33 M 4000 5333.33 L 4666.67 4666.67 M 4666.67 6666.67 L 4000 6000 M 4000 6000 L 4666.67 5333.33 M 1333.33 2000 L 2000 2000 M 2000 1333.33 L 1333.33 2000 M 1333.33 2000 L 2000 1333.33 M 2000 666.667 L 1333.33 1333.33 M 1333.33 1333.33 L 2000 666.667 M 2000 0 L 1333.33 666.667 M 8666.67 6666.67 L 8000 6000 M 666.667 2000 L 1333.33 2000 M 1333.33 1333.33 L 666.667 2000 M 666.667 2000 L 1333.33 1333.33 M 1333.33 666.667 L 666.667 1333.33 M 9333.33 7333.33 L 8666.67 6666.67 M 8000 6666.67 L 8666.67 7333.33 M 8666.67 7333.33 L 8000 6666.67 M 0 2000 L 666.667 2000 M 666.667 1333.33 L 0 2000 M 9333.33 8000 L 10000 8000 M 10000 8000 L 9333.33 7333.33 M 8666.67 7333.33 L 9333.33 8000 M 8666.67 8000 L 9333.33 8000 M 9333.33 8000 L 8666.67 7333.33 M 8000 7333.33 L 8666.67 8000 M 2000 6000 L 1333.33 6000 M 1333.33 6000 L 2000 6666.67" />
<path fill="none" class="c" d=" M 3333.33 6000 L 4000 6000 M 4000 6000 L 4000 5333.33 M 4000 4000 L 3333.33 4000 M 4000 4666.67 L 4000 4000 M 4000 2000 L 3333.33 2000 M 4000 5333.33 L 4000 4666.67 M 4000 6666.67 L 4000 6000 M 2000 0 L 2000 666.667 M 4000 6666.67 L 4000 7333.33 M 3333.33 6000 L 2666.67 6000 M 3333.33 4000 L 2666.67 4000 M 3333.33 2000 L 2666.67 2000 M 6000 5333.33 L 6000 4666.67 M 4000 7333.33 L 4000 8000 M 4000 8000 L 4666.67 8000 M 6000 4666.67 L 6000 4000 M 2000 666.667 L 2000 1333.33 M 6666.67 6000 L 7333.33 6000 M 2666.67 6000 L 2000 6000 M 2666.67 4000 L 2000 4000 M 2666.67 2000 L 2000 2000 M 2000 1333.33 L 2000 2000 M 7333.33 6000 L 8000 6000 M 8000 6666.67 L 8000 6000 M 8000 7333.33 L 8000 6666.67 M 2000 6000 L 2000 6666.67" />
<line x1="3777.777800" y1="6222.222200" x2="3555.555600" y2="5777.777800" class="t" />
<line x1="3777.777800" y1="5555.555600" x2="3555.555600" y2="5777.777800" class="t" />
<line x1="4222.222200" y1="5555.555600" x2="3777.777800" y2="5555.555600" class="t" />
<line x1="3555.555600" y1="5111.111133" x2="3777.777800" y2="5555.555600" class="t" />
<line x1="3777.777800" y1="4888.888867" x2="3555.555600" y2="5111.111133" class="t" />
<line x1="3555.555600" y1="4444.444400" x2="3777.777800" y2="4888.888867" class="t" />
<line x1="3777.777800" y1="4222.222200" x2="3555.555600" y2="4444.444400" class="t" />
<line x1="3555.555600" y1="3777.777800" x2="3777.777800" y2="4222.222200" class="t" />
<line x1="4222.222200" y1="4222.222200" x2="3777.777800" y2="4222.222200" class="t" />
<line x1="3777.777800" y1="3555.555600" x2="3555.555600" y2="3777.777800" class="t" />
<line x1="3555.555600" y1="3111.111133" x2="3777.777800" y2="3555.555600" class="t" />
<line x1="3777.777800" y1="2888.888867" x2="3555.555600" y2="3111.111133" class="t" />
<line x1="3555.555600" y1="2444.444400" x2="3777.777800" y2="2888.888867" class="t" />
<line x1="3777.777800" y1="2222.222200" x2="3555.555600" y2="2444.444400" class="t" />
<line x1="3555.555600" y1="1777.777800" x2="3777.777800" y2="2222.222200" class="t" />
<line x1="3111.111133" y1="1555.555600" x2="3555.555600" y2="1777.777800" class="t" />
<line x1="4222.222200" y1="4888.888867" x2="3777.777800" y2="4888.888867" class="t" />
<line x1="4444.444400" y1="5111.111133" x2="4222.222200" y2="5555.555600" class="t" />
<line x1="4222.222200" y1="6444.444400" x2="3777.777800" y2="6222.222200" class="t" />
<line x1="2888.888867" y1="1111.111133" x2="3111.111133" y2="1555.555600" class="t" />
<line x1="2444.444400" y1="888.888867" x2="2888.888867" y2="1111.111133" class="t" />
<line x1="4444.444400" y1="4444.444400" x2="4222.222200" y2="4888.888867" class="t" />
<line x1="4888.888867" y1="4888.888867" x2="4444.444400" y2="5111.111133" class="t" />
<line x1="4444.444400" y1="6888.888867" x2="4222.222200" y2="6444.444400" class="t" />
<line x1="2222.222200" y1="444.444400" x2="2444.444400" y2="888.888867" class="t" />
<line x1="1777.777800" y1="444.444400" x2="2222.222200" y2="444.444400" class="t" />
<line x1="4888.888867" y1="4222.222200" x2="4444.444400" y2="4444.444400" class="t" />
<line x1="5111.111133" y1="5111.111133" x2="4888.888867" y2="4888.888867" class="t" />
<line x1="4222.222200" y1="7111.111133" x2="4444.444400" y2="6888.888867" class="t" />
<line x1="1555.555600" y1="888.888867" x2="1777.777800" y2="444.444400" class="t" />
<line x1="5111.111133" y1="4444.444400" x2="4888.888867" y2="4222.222200" class="t" />
<line x1="5555.555600" y1="4888.888867" x2="5111.111133" y2="5111.111133" class="t" />
<line x1="3777.777800" y1="6888.888867" x2="4222.222200" y2="7111.111133" class="t" />
<line x1="4444.444400" y1="7555.555600" x2="4222.222200" y2="7111.111133" class="t" />
<line x1="1111.111133" y1="1111.111133" x2="1555.555600" y2="888.888867" class="t" />
<line x1="888.888867" y1="1555.555600" x2="1111.111133" y2="1111.111133" class="t" />
<line x1="3555.555600" y1="6444.444400" x2="3777.777800" y2="6888.888867" class="t" />
<line x1="3111.111133" y1="6222.222200" x2="3555.555600" y2="6444.444400" class="t" />
<line x1="5555.555600" y1="4222.222200" x2="5111.111133" y2="4444.444400" class="t" />
<line x1="5777.777800" y1="5111.111133" x2="5555.555600" y2="4888.888867" class="t" />
<line x1="4222.222200" y1="7777.777800" x2="4444.444400" y2="7555.555600" class="t" />
<line x1="444.444400" y1="1777.777800" x2="888.888867" y2="1555.555600" class="t" />
<line x1="2888.888867" y1="5777.777800" x2="3111.111133" y2="6222.222200" class="t" />
<line x1="3111.111133" y1="5555.555600" x2="2888.888867" y2="5777.777800" class="t" />
<line x1="2888.888867" y1="5111.111133" x2="3111.111133" y2="5555.555600" class="t" />
<line x1="3111.111133" y1="4888.888867" x2="2888.888867" y2="5111.111133" class="t" />
<line x1="2888.888867" y1="4444.444400" x2="3111.111133" y2="4888.888867" class="t" />
<line x1="3111.111133" y1="4222.222200" x2="2888.888867" y2="4444.444400" class="t" />
<line x1="2888.888867" y1="3777.777800" x2="3111.111133" y2="4222.222200" class="t" />
<line x1="3111.111133" y1="3555.555600" x2="2888.888867" y2="3777.777800" class="t" />
<line x1="2888.888867" y1="3111.111133" x2="3111.111133" y2="3555.555600" class="t" />
<line x1="3111.111133" y1="2888.888867" x2="2888.888867" y2="3111.111133" class="t" />
<line x1="2888.888867" y1="2444.444400" x2="3111.111133" y2="2888.888867" class="t" />
<line x1="3111.111133" y1="2222.222200" x2="2888.888867" y2="2444.444400" class="t" />
<line x1="2888.888867" y1="1777.777800" x2="3111.111133" y2="2222.222200" class="t" />
<line x1="2444.444400" y1="1555.555600" x2="2888.888867" y2="1777.777800" class="t" />
<line x1="5777.777800" y1="4444.444400" x2="5555.555600" y2="4222.222200" class="t" />
<line x1="6222.222200" y1="5111.111133" x2="5777.777800" y2="5111.111133" class="t" />
<line x1="3777.777800" y1="7555.555600" x2="4222.222200" y2="7777.777800" class="t" />
<line x1="4222.222200" y1="8222.222200" x2="4222.222200" y2="7777.777800" class="t" />
<line x1="3555.555600" y1="7777.777800" x2="3777.777800" y2="7555.555600" class="t" />
<line x1="3555.555600" y1="7111.111133" x2="3777.777800" y2="7555.555600" class="t" />
<line x1="3111.111133" y1="6888.888867" x2="3555.555600" y2="7111.111133" class="t" />
<line x1="2222.222200" y1="1111.111133" x2="2444.444400" y2="1555.555600" class="t" />
<line x1="6222.222200" y1="4444.444400" x2="5777.777800" y2="4444.444400" class="t" />
<line x1="1777.777800" y1="1111.111133" x2="2222.222200" y2="1111.111133" class="t" />
<line x1="6444.444400" y1="4888.888867" x2="6222.222200" y2="4444.444400" class="t" />
<line x1="6444.444400" y1="5555.555600" x2="6222.222200" y2="5111.111133" class="t" />
<line x1="6888.888867" y1="5777.777800" x2="6444.444400" y2="5555.555600" class="t" />
<line x1="1555.555600" y1="1555.555600" x2="1777.777800" y2="1111.111133" class="t" />
<line x1="3111.111133" y1="7555.555600" x2="3555.555600" y2="7777.777800" class="t" />
<line x1="2888.888867" y1="6444.444400" x2="3111.111133" y2="6888.888867" class="t" />
<line x1="2444.444400" y1="6222.222200" x2="2888.888867" y2="6444.444400" class="t" />
<line x1="6888.888867" y1="5111.111133" x2="6444.444400" y2="4888.888867" class="t" />
<line x1="7111.111133" y1="5555.555600" x2="6888.888867" y2="5111.111133" class="t" />
<line x1="7111.111133" y1="6222.222200" x2="6888.888867" y2="5777.777800" class="t" />
<line x1="1111.111133" y1="1777.777800" x2="1555.555600" y2="1555.555600" class="t" />
<line x1="7555.555600" y1="6444.444400" x2="7111.111133" y2="6222.222200" class="t" />
<line x1="2888.888867" y1="7111.111133" x2="3111.111133" y2="7555.555600" class="t" />
<line x1="2444.444400" y1="6888.888867" x2="2888.888867" y2="7111.111133" class="t" />
<line x1="2222.222200" y1="5777.777800" x2="2444.444400" y2="6222.222200" class="t" />
<line x1="2444.444400" y1="5555.555600" x2="2222.222200" y2="5777.777800" class="t" />
<line x1="2222.222200" y1="5111.111133" x2="2444.444400" y2="5555.555600" class="t" />
<line x1="2444.444400" y1="4888.888867" x2="2222.222200" y2="5111.111133" class="t" />
<line x1="2222.222200" y1="4444.444400" x2="2444.444400" y2="4888.888867" class="t" />
<line x1="2444.444400" y1="4222.222200" x2="2222.222200" y2="4444.444400" class="t" />
<line x1="2222.222200" y1="3777.777800" x2="2444.444400" y2="4222.222200" class="t" />
<line x1="2444.444400" y1="3555.555600" x2="2222.222200" y2="3777.777800" class="t" />
<line x1="2222.222200" y1="3111.111133" x2="2444.444400" y2="3555.555600" class="t" />
<line x1="2444.444400" y1="2888.888867" x2="2222.222200" y2="3111.111133" class="t" />
<line x1="2222.222200" y1="2444.444400" x2="2444.444400" y2="2888.888867" class="t" />
<line x1="2444.444400" y1="2222.222200" x2="2222.222200" y2="2444.444400" class="t" />
<line x1="2222.222200" y1="1777.777800" x2="2444.444400" y2="2222.222200" class="t" />
<line x1="1777.777800" y1="1777.777800" x2="2222.222200" y2="1777.777800" class="t" />
<line x1="7555.555600" y1="5777.777800" x2="7111.111133" y2="5555.555600" class="t" />
<line x1="7777.777800" y1="6222.222200" x2="7555.555600" y2="5777.777800" class="t" />
<line x1="8222.222200" y1="6444.444400" x2="7777.777800" y2="6222.222200" class="t" />
<line x1="7777.777800" y1="6888.888867" x2="7555.555600" y2="6444.444400" class="t" />
<line x1="8222.222200" y1="7111.111133" x2="7777.777800" y2="6888.888867" class="t" />
<line x1="2222.222200" y1="6444.444400" x2="2444.444400" y2="6888.888867" class="t" />
<line x1="1777.777800" y1="6222.222200" x2="2222.222200" y2="6444.444400" class="t" />
<line x1="8444.444400" y1="6888.888867" x2="8222.222200" y2="6444.444400" class="t" />
<line x1="8888.888867" y1="7111.111133" x2="8444.444400" y2="6888.888867" class="t" />
<line x1="8444.444400" y1="7555.555600" x2="8222.222200" y2="7111.111133" class="t" />
<line x1="8888.888867" y1="7777.777800" x2="8444.444400" y2="7555.555600" class="t" />
<line x1="9111.111133" y1="7555.555600" x2="8888.888867" y2="7111.111133" class="t" />
<line x1="9555.555600" y1="7777.777800" x2="9111.111133" y2="7555.555600" class="t" />
</svg>
