<?xml version="1.0"?>
<svg width="4666" height="8665" version="1.1" xmlns="http://www.w3.org/2000/svg" >
<defs>
<style type="text/css"><![CDATA[
.m {stroke:rgb(255,0,0);stroke-width:10.831250;}
.v {stroke:rgb(0,0,255);stroke-width:10.831250;}
.b {stroke:rgb(0,0,0);stroke-width:21.662500;fill:white}
.n {stroke:rgb(128,128,128);stroke-width:10.831250}
.t {stroke:rgb(0,128,0);stroke-width:10.831250;}
.c {stroke:rgb(128,128,128);stroke-width:10.831250;stroke-dasharray:46.660000, 46.660000;}
]]></style>
</defs>
<path fill="none" style="stroke:black;stroke-width:21.662500;" d=" M 2000 5333.33 L 2000 4666.67 M 2000 4666.67 L 2000 5333.33 M 3333.33 5333.33 L 3333.33 4666.67 M 1333.33 4000 L 1333.33 4666.67 M 2000 4666.67 L 2000 4000 M 2000 4000 L 2000 4666.67 M 3333.33 4666.67 L 2666.67 4000 M 2666.67 4000 L 3333.33 4666.67 M 3333.33 4666.67 L 3333.33 4000 M 1333.33 3333.33 L 1333.33 4000 M 2000 4000 L 2000 3333.33 M 2000 3333.33 L 2000 4000 M 3333.33 2666.67 L 2666.67 2666.67 M 2666.67 2666.67 L 3333.33 2666.67 M 3333.33 2000 L 2666.67 2000 M 2666.67 2000 L 3333.33 2000 M 1333.33 666.667 L 1333.33 1333.33 M 2000 1333.33 L 2000 666.667 M 2000 666.667 L 2000 1333.33 M 2666.67 1333.33 L 2666.67 666.667 M 2666.67 666.667 L 2666.67 1333.33 M 3333.33 1333.33 L 3333.33 666.667 M 2000 8666.67 L 2000 8000 M 2666.67 666.667 L 2000 2.13163e-012 M 2000 2.13163e-012 L 2000 666.667 M 2000 8000 L 2666.67 8666.67 M 2666.67 8666.67 L 2666.67 8000 M 2666.67 2.84217e-012 L 2666.67 666.667 M 2666.67 8000 L 3333.33 8666.67 M 3333.33 8666.67 L 3333.33 8000 M 1333.33 7333.33 L 1333.33 8000 M 2000 8000 L 2000 7333.33 M 2000 7333.33 L 2000 8000 M 2666.67 8000 L 2666.67 7333.33 M 2666.67 7333.33 L 2666.67 8000 M 2000 6000 L 1333.33 6000 M 1333.33 6000 L 2000 6000 M 3333.33 7333.33 L 4000 7333.33 M 4000 6000 L 3333.33 6000 M 4000 5333.33 L 3333.33 5333.33 M 3333.33 6000 L 4000 6000 M 4666.67 6666.67 L 4000 6666.67 M 4000 7333.33 L 4666.67 6666.67 M 4000 2000 L 4666.67 1333.33 M 4666.67 1333.33 L 4000 1333.33 M 4000 6666.67 L 4666.67 6000 M 4666.67 2000 L 4000 2000 M 4000 6000 L 4666.67 5333.33 M 4666.67 5333.33 L 4000 5333.33 M 4000 3333.33 L 4666.67 2666.67 M 3333.33 2000 L 4000 2000 M 4000 1333.33 L 3333.33 1333.33 M 3333.33 2666.67 L 4000 2666.67 M 4000 2000 L 3333.33 2000 M 3333.33 3333.33 L 4000 3333.33 M 4000 2666.67 L 3333.33 2666.67 M 666.667 7333.33 L 1333.33 7333.33 M 1333.33 6666.67 L 666.667 6666.67 M 666.667 6666.67 L 1333.33 6666.67 M 1333.33 6000 L 666.667 6000 M 666.667 6000 L 1333.33 6000 M 1333.33 5333.33 L 666.667 5333.33 M 1.06581e-012 7333.33 L 666.667 7333.33 M 666.667 6666.67 L 1.06581e-012 7333.33 M 666.667 1333.33 L 7.10543e-013 2000 M 666.667 6000 L 7.10543e-013 6666.67 M 7.10543e-013 6666.67 L 666.667 6666.67 M 1.06581e-012 6000 L 666.667 6000 M 0 3333.33 L 666.667 3333.33 M 666.667 2666.67 L 0 3333.33 M 1333.33 1333.33 L 666.667 1333.33 M 666.667 2000 L 1333.33 2000 M 1333.33 2000 L 666.667 2000 M 666.667 2666.67 L 1333.33 2666.67 M 1333.33 2666.67 L 666.667 2666.67" />
<path fill="none" class="c" d=" M 2666.67 3333.33 L 2000 3333.33 M 2666.67 3333.33 L 3333.33 3333.33 M 3333.33 3333.33 L 3333.33 2666.67 M 1333.33 2000 L 1333.33 2666.67 M 3333.33 2666.67 L 3333.33 2000 M 1333.33 1333.33 L 1333.33 2000 M 2000 1333.33 L 1333.33 1333.33 M 2666.67 1333.33 L 2000 1333.33 M 3333.33 1333.33 L 2666.67 1333.33 M 3333.33 2000 L 3333.33 1333.33 M 2000 5333.33 L 2666.67 5333.33 M 3333.33 6000 L 3333.33 5333.33 M 1333.33 3333.33 L 2000 3333.33 M 1333.33 2666.67 L 1333.33 3333.33 M 3333.33 5333.33 L 2666.67 5333.33 M 3333.33 6666.67 L 3333.33 6000 M 2000 5333.33 L 1333.33 5333.33 M 3333.33 7333.33 L 3333.33 6666.67 M 1333.33 5333.33 L 1333.33 6000 M 2666.67 7333.33 L 3333.33 7333.33 M 1333.33 6000 L 1333.33 6666.67 M 2000 7333.33 L 2666.67 7333.33 M 1333.33 7333.33 L 2000 7333.33 M 1333.33 6666.67 L 1333.33 7333.33" />
<line x1="2444.444533" y1="4888.889000" x2="2222.222267" y2="4444.444533" class="t" />
<line x1="2444.444533" y1="4222.222267" x2="2222.222267" y2="4444.444533" class="t" />
<line x1="2222.222267" y1="3777.777800" x2="2444.444533" y2="4222.222267" class="t" />
<line x1="2444.444533" y1="3555.555600" x2="2222.222267" y2="3777.777800" class="t" />
<line x1="2222.222267" y1="3111.111200" x2="2444.444533" y2="3555.555600" class="t" />
<line x1="1777.777800" y1="2888.889000" x2="2222.222267" y2="3111.111200" class="t" />
<line x1="2444.444533" y1="2888.889000" x2="2222.222267" y2="3111.111200" class="t" />
<line x1="2888.889000" y1="3111.111200" x2="2444.444533" y2="2888.889000" class="t" />
<line x1="3111.111200" y1="3555.555600" x2="2888.889000" y2="3111.111200" class="t" />
<line x1="3111.111200" y1="2888.889000" x2="2888.889000" y2="3111.111200" class="t" />
<line x1="3555.555600" y1="2888.889000" x2="3111.111200" y2="2888.889000" class="t" />
<line x1="3777.777800" y1="3111.111200" x2="3555.555600" y2="2888.889000" class="t" />
<line x1="2222.222267" y1="5111.111200" x2="2444.444533" y2="4888.889000" class="t" />
<line x1="2888.889000" y1="3777.777800" x2="3111.111200" y2="3555.555600" class="t" />
<line x1="1555.555600" y1="3111.111200" x2="1777.777800" y2="2888.889000" class="t" />
<line x1="1555.555600" y1="2444.444533" x2="1777.777800" y2="2888.889000" class="t" />
<line x1="1777.777800" y1="2222.222267" x2="1555.555600" y2="2444.444533" class="t" />
<line x1="1111.111200" y1="2444.444533" x2="1555.555600" y2="2444.444533" class="t" />
<line x1="2222.222267" y1="2444.444533" x2="1777.777800" y2="2222.222267" class="t" />
<line x1="1555.555600" y1="1777.777800" x2="1777.777800" y2="2222.222267" class="t" />
<line x1="2444.444533" y1="2222.222267" x2="2222.222267" y2="2444.444533" class="t" />
<line x1="2888.889000" y1="2444.444533" x2="2444.444533" y2="2222.222267" class="t" />
<line x1="3111.111200" y1="2222.222267" x2="2888.889000" y2="2444.444533" class="t" />
<line x1="3555.555600" y1="2222.222267" x2="3111.111200" y2="2222.222267" class="t" />
<line x1="1777.777800" y1="1555.555600" x2="1555.555600" y2="1777.777800" class="t" />
<line x1="1111.111200" y1="1777.777800" x2="1555.555600" y2="1777.777800" class="t" />
<line x1="2222.222267" y1="1777.777800" x2="1777.777800" y2="1555.555600" class="t" />
<line x1="1555.555600" y1="1111.111200" x2="1777.777800" y2="1555.555600" class="t" />
<line x1="2444.444533" y1="1555.555600" x2="2222.222267" y2="1777.777800" class="t" />
<line x1="2888.889000" y1="1777.777800" x2="2444.444533" y2="1555.555600" class="t" />
<line x1="2222.222267" y1="1111.111200" x2="2444.444533" y2="1555.555600" class="t" />
<line x1="3111.111200" y1="1555.555600" x2="2888.889000" y2="1777.777800" class="t" />
<line x1="2888.889000" y1="1111.111200" x2="3111.111200" y2="1555.555600" class="t" />
<line x1="3555.555600" y1="1555.555600" x2="3111.111200" y2="1555.555600" class="t" />
<line x1="1777.777800" y1="888.889000" x2="1555.555600" y2="1111.111200" class="t" />
<line x1="1555.555600" y1="444.444533" x2="1777.777800" y2="888.889000" class="t" />
<line x1="2444.444533" y1="888.889000" x2="2222.222267" y2="1111.111200" class="t" />
<line x1="2222.222267" y1="444.444533" x2="2444.444533" y2="888.889000" class="t" />
<line x1="3111.111200" y1="888.889000" x2="2888.889000" y2="1111.111200" class="t" />
<line x1="2888.889000" y1="444.444533" x2="3111.111200" y2="888.889000" class="t" />
<line x1="2444.444533" y1="5555.555600" x2="2222.222267" y2="5111.111200" class="t" />
<line x1="2222.222267" y1="5777.777800" x2="2444.444533" y2="5555.555600" class="t" />
<line x1="2888.889000" y1="5777.777800" x2="2444.444533" y2="5555.555600" class="t" />
<line x1="3111.111200" y1="5555.555600" x2="2888.889000" y2="5777.777800" class="t" />
<line x1="3555.555600" y1="5555.555600" x2="3111.111200" y2="5555.555600" class="t" />
<line x1="3777.777800" y1="5777.777800" x2="3555.555600" y2="5555.555600" class="t" />
<line x1="4222.222267" y1="5555.555600" x2="3777.777800" y2="5777.777800" class="t" />
<line x1="3777.777800" y1="1777.777800" x2="3555.555600" y2="1555.555600" class="t" />
<line x1="3777.777800" y1="2444.444533" x2="3555.555600" y2="2222.222267" class="t" />
<line x1="4222.222267" y1="2888.889000" x2="3777.777800" y2="3111.111200" class="t" />
<line x1="888.889000" y1="1555.555600" x2="1111.111200" y2="1777.777800" class="t" />
<line x1="888.889000" y1="2222.222267" x2="1111.111200" y2="2444.444533" class="t" />
<line x1="3111.111200" y1="4222.222267" x2="2888.889000" y2="3777.777800" class="t" />
<line x1="1777.777800" y1="3555.555600" x2="1555.555600" y2="3111.111200" class="t" />
<line x1="1111.111200" y1="3111.111200" x2="1555.555600" y2="3111.111200" class="t" />
<line x1="2444.444533" y1="6222.222267" x2="2222.222267" y2="5777.777800" class="t" />
<line x1="1777.777800" y1="5555.555600" x2="2222.222267" y2="5777.777800" class="t" />
<line x1="2888.889000" y1="5111.111200" x2="3111.111200" y2="5555.555600" class="t" />
<line x1="4222.222267" y1="1555.555600" x2="3777.777800" y2="1777.777800" class="t" />
<line x1="4222.222267" y1="2222.222267" x2="3777.777800" y2="2444.444533" class="t" />
<line x1="444.444533" y1="1777.777800" x2="888.889000" y2="1555.555600" class="t" />
<line x1="444.444533" y1="2444.444533" x2="888.889000" y2="2222.222267" class="t" />
<line x1="888.889000" y1="2888.889000" x2="1111.111200" y2="3111.111200" class="t" />
<line x1="3111.111200" y1="4888.889000" x2="2888.889000" y2="5111.111200" class="t" />
<line x1="2888.889000" y1="4444.444533" x2="3111.111200" y2="4888.889000" class="t" />
<line x1="1555.555600" y1="3777.777800" x2="1777.777800" y2="3555.555600" class="t" />
<line x1="2222.222267" y1="6444.444533" x2="2444.444533" y2="6222.222267" class="t" />
<line x1="2888.889000" y1="6444.444533" x2="2444.444533" y2="6222.222267" class="t" />
<line x1="3111.111200" y1="6888.889000" x2="2888.889000" y2="6444.444533" class="t" />
<line x1="3111.111200" y1="6222.222267" x2="2888.889000" y2="6444.444533" class="t" />
<line x1="3555.555600" y1="6222.222267" x2="3111.111200" y2="6222.222267" class="t" />
<line x1="1555.555600" y1="5111.111200" x2="1777.777800" y2="5555.555600" class="t" />
<line x1="1555.555600" y1="5777.777800" x2="1777.777800" y2="5555.555600" class="t" />
<line x1="3777.777800" y1="6444.444533" x2="3555.555600" y2="6222.222267" class="t" />
<line x1="4222.222267" y1="6222.222267" x2="3777.777800" y2="6444.444533" class="t" />
<line x1="444.444533" y1="3111.111200" x2="888.889000" y2="2888.889000" class="t" />
<line x1="1777.777800" y1="4888.889000" x2="1555.555600" y2="5111.111200" class="t" />
<line x1="1555.555600" y1="4444.444533" x2="1777.777800" y2="4888.889000" class="t" />
<line x1="1777.777800" y1="4222.222267" x2="1555.555600" y2="3777.777800" class="t" />
<line x1="2888.889000" y1="7111.111200" x2="3111.111200" y2="6888.889000" class="t" />
<line x1="3555.555600" y1="6888.889000" x2="3111.111200" y2="6888.889000" class="t" />
<line x1="1777.777800" y1="6222.222267" x2="2222.222267" y2="6444.444533" class="t" />
<line x1="1111.111200" y1="5777.777800" x2="1555.555600" y2="5777.777800" class="t" />
<line x1="3777.777800" y1="7111.111200" x2="3555.555600" y2="6888.889000" class="t" />
<line x1="4222.222267" y1="6888.889000" x2="3777.777800" y2="7111.111200" class="t" />
<line x1="888.889000" y1="5555.555600" x2="1111.111200" y2="5777.777800" class="t" />
<line x1="444.444533" y1="5777.777800" x2="888.889000" y2="5555.555600" class="t" />
<line x1="3111.111200" y1="7555.555600" x2="2888.889000" y2="7111.111200" class="t" />
<line x1="2444.444533" y1="6888.889000" x2="2888.889000" y2="7111.111200" class="t" />
<line x1="1555.555600" y1="6444.444533" x2="1777.777800" y2="6222.222267" class="t" />
<line x1="2888.889000" y1="7777.777800" x2="3111.111200" y2="7555.555600" class="t" />
<line x1="2222.222267" y1="7111.111200" x2="2444.444533" y2="6888.889000" class="t" />
<line x1="1111.111200" y1="6444.444533" x2="1555.555600" y2="6444.444533" class="t" />
<line x1="888.889000" y1="6222.222267" x2="1111.111200" y2="6444.444533" class="t" />
<line x1="444.444533" y1="6444.444533" x2="888.889000" y2="6222.222267" class="t" />
<line x1="3111.111200" y1="8222.222267" x2="2888.889000" y2="7777.777800" class="t" />
<line x1="2444.444533" y1="7555.555600" x2="2222.222267" y2="7111.111200" class="t" />
<line x1="1777.777800" y1="6888.889000" x2="2222.222267" y2="7111.111200" class="t" />
<line x1="2222.222267" y1="7777.777800" x2="2444.444533" y2="7555.555600" class="t" />
<line x1="1555.555600" y1="7111.111200" x2="1777.777800" y2="6888.889000" class="t" />
<line x1="2444.444533" y1="8222.222267" x2="2222.222267" y2="7777.777800" class="t" />
<line x1="1777.777800" y1="7555.555600" x2="1555.555600" y2="7111.111200" class="t" />
<line x1="1111.111200" y1="7111.111200" x2="1555.555600" y2="7111.111200" class="t" />
<line x1="888.889000" y1="6888.889000" x2="1111.111200" y2="7111.111200" class="t" />
<line x1="444.444533" y1="7111.111200" x2="888.889000" y2="6888.889000" class="t" />
<line x1="1555.555600" y1="7777.777800" x2="1777.777800" y2="7555.555600" class="t" />
<line x1="1777.777800" y1="8222.222267" x2="1555.555600" y2="7777.777800" class="t" />
</svg>
