<?xml version="1.0"?>
<svg width="4666" height="8665" version="1.1" xmlns="http://www.w3.org/2000/svg" >
<defs>
<style type="text/css"><![CDATA[
.m {stroke:rgb(255,0,0);stroke-width:10.831250;}
.v {stroke:rgb(0,0,255);stroke-width:10.831250;}
.b {stroke:rgb(0,0,0);stroke-width:21.662500;fill:white}
.n {stroke:rgb(128,128,128);stroke-width:10.831250}
.t {stroke:rgb(0,128,0);stroke-width:10.831250;}
.c {stroke:rgb(128,128,128);stroke-width:10.831250;stroke-dasharray:46.660000, 46.660000;}
]]></style>
</defs>
<line x1="1333.333400" y1="5333.333400" x2="2000.000000" y2="5333.333400" class="m" style="stroke-width:17.330000;" />
<line x1="2000.000000" y1="5333.333400" x2="1333.333400" y2="4666.666800" class="n" style="stroke-width:2.166250;" />
<line x1="1333.333400" y1="4666.666800" x2="1333.333400" y2="5333.333400" class="m" style="stroke-width:17.330000;" />
<line x1="2000.000000" y1="4666.666800" x2="1333.333400" y2="4666.666800" class="n" style="stroke-width:2.166250;" />
<line x1="2000.000000" y1="5333.333400" x2="2000.000000" y2="4666.666800" class="n" style="stroke-width:2.166250;" />
<line x1="2000.000000" y1="5333.333400" x2="2666.666800" y2="5333.333400" class="m" style="stroke-width:17.330000;" />
<line x1="2666.666800" y1="5333.333400" x2="2000.000000" y2="4666.666800" class="n" style="stroke-width:2.166250;" />
<line x1="2666.666800" y1="4666.666800" x2="2000.000000" y2="4666.666800" class="n" style="stroke-width:2.166250;" />
<line x1="2666.666800" y1="5333.333400" x2="2666.666800" y2="4666.666800" class="n" style="stroke-width:2.166250;" />
<line x1="2666.666800" y1="5333.333400" x2="3333.333400" y2="5333.333400" class="m" style="stroke-width:17.330000;" />
<line x1="3333.333400" y1="5333.333400" x2="2666.666800" y2="4666.666800" class="n" style="stroke-width:2.166250;" />
<line x1="3333.333400" y1="4666.666800" x2="2666.666800" y2="4666.666800" class="n" style="stroke-width:2.166250;" />
<line x1="3333.333400" y1="5333.333400" x2="3333.333400" y2="4666.666800" class="m" style="stroke-width:17.330000;" />
<line x1="2000.000000" y1="4666.666800" x2="1333.333400" y2="4000.000000" class="n" style="stroke-width:2.166250;" />
<line x1="1333.333400" y1="4000.000000" x2="1333.333400" y2="4666.666800" class="m" style="stroke-width:17.330000;" />
<line x1="2000.000000" y1="4000.000000" x2="1333.333400" y2="4000.000000" class="n" style="stroke-width:2.166250;" />
<line x1="2000.000000" y1="4666.666800" x2="2000.000000" y2="4000.000000" class="n" style="stroke-width:2.166250;" />
<line x1="2666.666800" y1="4666.666800" x2="2000.000000" y2="4000.000000" class="n" style="stroke-width:2.166250;" />
<line x1="2666.666800" y1="4000.000000" x2="2000.000000" y2="4000.000000" class="n" style="stroke-width:2.166250;" />
<line x1="2666.666800" y1="4666.666800" x2="2666.666800" y2="4000.000000" class="n" style="stroke-width:2.166250;" />
<line x1="3333.333400" y1="4666.666800" x2="2666.666800" y2="4000.000000" class="n" style="stroke-width:2.166250;" />
<line x1="3333.333400" y1="4000.000000" x2="2666.666800" y2="4000.000000" class="n" style="stroke-width:2.166250;" />
<line x1="3333.333400" y1="4666.666800" x2="3333.333400" y2="4000.000000" class="m" style="stroke-width:17.330000;" />
<line x1="2000.000000" y1="4000.000000" x2="1333.333400" y2="3333.333400" class="n" style="stroke-width:2.166250;" />
<line x1="1333.333400" y1="3333.333400" x2="1333.333400" y2="4000.000000" class="m" style="stroke-width:17.330000;" />
<line x1="2000.000000" y1="3333.333400" x2="1333.333400" y2="3333.333400" class="m" style="stroke-width:17.330000;" />
<line x1="2000.000000" y1="4000.000000" x2="2000.000000" y2="3333.333400" class="n" style="stroke-width:2.166250;" />
<line x1="2666.666800" y1="4000.000000" x2="2000.000000" y2="3333.333400" class="n" style="stroke-width:2.166250;" />
<line x1="2666.666800" y1="3333.333400" x2="2000.000000" y2="3333.333400" class="m" style="stroke-width:17.330000;" />
<line x1="2666.666800" y1="4000.000000" x2="2666.666800" y2="3333.333400" class="n" style="stroke-width:2.166250;" />
<line x1="3333.333400" y1="4000.000000" x2="2666.666800" y2="3333.333400" class="n" style="stroke-width:2.166250;" />
<line x1="3333.333400" y1="3333.333400" x2="2666.666800" y2="3333.333400" class="m" style="stroke-width:17.330000;" />
<line x1="3333.333400" y1="4000.000000" x2="3333.333400" y2="3333.333400" class="m" style="stroke-width:17.330000;" />
<line x1="2000.000000" y1="3333.333400" x2="1333.333400" y2="2666.666800" class="n" style="stroke-width:2.166250;" />
<line x1="1333.333400" y1="2666.666800" x2="1333.333400" y2="3333.333400" class="m" style="stroke-width:17.330000;" />
<line x1="2000.000000" y1="2666.666800" x2="1333.333400" y2="2666.666800" class="n" style="stroke-width:2.166250;" />
<line x1="2000.000000" y1="3333.333400" x2="2000.000000" y2="2666.666800" class="n" style="stroke-width:2.166250;" />
<line x1="2666.666800" y1="3333.333400" x2="2000.000000" y2="2666.666800" class="n" style="stroke-width:2.166250;" />
<line x1="2666.666800" y1="2666.666800" x2="2000.000000" y2="2666.666800" class="n" style="stroke-width:2.166250;" />
<line x1="2666.666800" y1="3333.333400" x2="2666.666800" y2="2666.666800" class="n" style="stroke-width:2.166250;" />
<line x1="3333.333400" y1="3333.333400" x2="2666.666800" y2="2666.666800" class="n" style="stroke-width:2.166250;" />
<line x1="3333.333400" y1="2666.666800" x2="2666.666800" y2="2666.666800" class="n" style="stroke-width:2.166250;" />
<line x1="3333.333400" y1="3333.333400" x2="3333.333400" y2="2666.666800" class="m" style="stroke-width:17.330000;" />
<line x1="2000.000000" y1="2666.666800" x2="1333.333400" y2="2000.000000" class="n" style="stroke-width:2.166250;" />
<line x1="1333.333400" y1="2000.000000" x2="1333.333400" y2="2666.666800" class="m" style="stroke-width:17.330000;" />
<line x1="2000.000000" y1="2000.000000" x2="1333.333400" y2="2000.000000" class="n" style="stroke-width:2.166250;" />
<line x1="2000.000000" y1="2666.666800" x2="2000.000000" y2="2000.000000" class="n" style="stroke-width:2.166250;" />
<line x1="2666.666800" y1="2666.666800" x2="2000.000000" y2="2000.000000" class="n" style="stroke-width:2.166250;" />
<line x1="2666.666800" y1="2000.000000" x2="2000.000000" y2="2000.000000" class="n" style="stroke-width:2.166250;" />
<line x1="2666.666800" y1="2666.666800" x2="2666.666800" y2="2000.000000" class="n" style="stroke-width:2.166250;" />
<line x1="3333.333400" y1="2666.666800" x2="2666.666800" y2="2000.000000" class="n" style="stroke-width:2.166250;" />
<line x1="3333.333400" y1="2000.000000" x2="2666.666800" y2="2000.000000" class="n" style="stroke-width:2.166250;" />
<line x1="3333.333400" y1="2666.666800" x2="3333.333400" y2="2000.000000" class="m" style="stroke-width:17.330000;" />
<line x1="2000.000000" y1="2000.000000" x2="1333.333400" y2="1333.333400" class="n" style="stroke-width:2.166250;" />
<line x1="1333.333400" y1="1333.333400" x2="1333.333400" y2="2000.000000" class="m" style="stroke-width:17.330000;" />
<line x1="2000.000000" y1="1333.333400" x2="1333.333400" y2="1333.333400" class="m" style="stroke-width:17.330000;" />
<line x1="2000.000000" y1="2000.000000" x2="2000.000000" y2="1333.333400" class="n" style="stroke-width:2.166250;" />
<line x1="2666.666800" y1="2000.000000" x2="2000.000000" y2="1333.333400" class="n" style="stroke-width:2.166250;" />
<line x1="2666.666800" y1="1333.333400" x2="2000.000000" y2="1333.333400" class="m" style="stroke-width:17.330000;" />
<line x1="2666.666800" y1="2000.000000" x2="2666.666800" y2="1333.333400" class="n" style="stroke-width:2.166250;" />
<line x1="3333.333400" y1="2000.000000" x2="2666.666800" y2="1333.333400" class="n" style="stroke-width:2.166250;" />
<line x1="3333.333400" y1="1333.333400" x2="2666.666800" y2="1333.333400" class="m" style="stroke-width:17.330000;" />
<line x1="3333.333400" y1="2000.000000" x2="3333.333400" y2="1333.333400" class="m" style="stroke-width:17.330000;" />
<line x1="2000.000000" y1="1333.333400" x2="1333.333400" y2="666.666800" class="n" style="stroke-width:2.166250;" />
<line x1="1333.333400" y1="666.666800" x2="1333.333400" y2="1333.333400" class="m" style="stroke-width:17.330000;" />
<line x1="2000.000000" y1="666.666800" x2="1333.333400" y2="666.666800" class="n" style="stroke-width:2.166250;" />
<line x1="2000.000000" y1="1333.333400" x2="2000.000000" y2="666.666800" class="n" style="stroke-width:2.166250;" />
<line x1="2666.666800" y1="1333.333400" x2="2000.000000" y2="666.666800" class="n" style="stroke-width:2.166250;" />
<line x1="2666.666800" y1="666.666800" x2="2000.000000" y2="666.666800" class="n" style="stroke-width:2.166250;" />
<line x1="2666.666800" y1="1333.333400" x2="2666.666800" y2="666.666800" class="n" style="stroke-width:2.166250;" />
<line x1="3333.333400" y1="1333.333400" x2="2666.666800" y2="666.666800" class="n" style="stroke-width:2.166250;" />
<line x1="3333.333400" y1="666.666800" x2="2666.666800" y2="666.666800" class="n" style="stroke-width:2.166250;" />
<line x1="3333.333400" y1="1333.333400" x2="3333.333400" y2="666.666800" class="m" style="stroke-width:17.330000;" />
<line x1="2000.000000" y1="666.666800" x2="1333.333400" y2="0.000000" class="n" style="stroke-width:2.166250;" />
<line x1="1333.333400" y1="0.000000" x2="1333.333400" y2="666.666800" class="m" style="stroke-width:17.330000;" />
<line x1="2000.000000" y1="8000.000000" x2="1333.333400" y2="8000.000000" class="n" style="stroke-width:2.166250;" />
<line x1="1333.333400" y1="8000.000000" x2="2000.000000" y2="8666.666800" class="n" style="stroke-width:2.166250;" />
<line x1="2000.000000" y1="8666.666800" x2="2000.000000" y2="8000.000000" class="n" style="stroke-width:2.166250;" />
<line x1="2666.666800" y1="666.666800" x2="2000.000000" y2="0.000000" class="n" style="stroke-width:2.166250;" />
<line x1="2000.000000" y1="0.000000" x2="2000.000000" y2="666.666800" class="n" style="stroke-width:2.166250;" />
<line x1="2666.666800" y1="8000.000000" x2="2000.000000" y2="8000.000000" class="n" style="stroke-width:2.166250;" />
<line x1="2000.000000" y1="8000.000000" x2="2666.666800" y2="8666.666800" class="n" style="stroke-width:2.166250;" />
<line x1="2666.666800" y1="8666.666800" x2="2666.666800" y2="8000.000000" class="n" style="stroke-width:2.166250;" />
<line x1="3333.333400" y1="666.666800" x2="2666.666800" y2="0.000000" class="n" style="stroke-width:2.166250;" />
<line x1="2666.666800" y1="0.000000" x2="2666.666800" y2="666.666800" class="n" style="stroke-width:2.166250;" />
<line x1="3333.333400" y1="8000.000000" x2="2666.666800" y2="8000.000000" class="n" style="stroke-width:2.166250;" />
<line x1="2666.666800" y1="8000.000000" x2="3333.333400" y2="8666.666800" class="n" style="stroke-width:2.166250;" />
<line x1="3333.333400" y1="8666.666800" x2="3333.333400" y2="8000.000000" class="m" style="stroke-width:17.330000;" />
<line x1="2000.000000" y1="8000.000000" x2="1333.333400" y2="7333.333400" class="n" style="stroke-width:2.166250;" />
<line x1="1333.333400" y1="7333.333400" x2="1333.333400" y2="8000.000000" class="m" style="stroke-width:17.330000;" />
<line x1="2000.000000" y1="7333.333400" x2="1333.333400" y2="7333.333400" class="m" style="stroke-width:17.330000;" />
<line x1="2000.000000" y1="8000.000000" x2="2000.000000" y2="7333.333400" class="n" style="stroke-width:2.166250;" />
<line x1="2666.666800" y1="8000.000000" x2="2000.000000" y2="7333.333400" class="n" style="stroke-width:2.166250;" />
<line x1="2666.666800" y1="7333.333400" x2="2000.000000" y2="7333.333400" class="m" style="stroke-width:17.330000;" />
<line x1="2666.666800" y1="8000.000000" x2="2666.666800" y2="7333.333400" class="n" style="stroke-width:2.166250;" />
<line x1="3333.333400" y1="8000.000000" x2="2666.666800" y2="7333.333400" class="n" style="stroke-width:2.166250;" />
<line x1="3333.333400" y1="7333.333400" x2="2666.666800" y2="7333.333400" class="m" style="stroke-width:17.330000;" />
<line x1="3333.333400" y1="8000.000000" x2="3333.333400" y2="7333.333400" class="m" style="stroke-width:17.330000;" />
<line x1="2000.000000" y1="7333.333400" x2="1333.333400" y2="6666.666800" class="n" style="stroke-width:2.166250;" />
<line x1="1333.333400" y1="6666.666800" x2="1333.333400" y2="7333.333400" class="m" style="stroke-width:17.330000;" />
<line x1="2000.000000" y1="6666.666800" x2="1333.333400" y2="6666.666800" class="n" style="stroke-width:2.166250;" />
<line x1="2000.000000" y1="7333.333400" x2="2000.000000" y2="6666.666800" class="n" style="stroke-width:2.166250;" />
<line x1="2666.666800" y1="7333.333400" x2="2000.000000" y2="6666.666800" class="n" style="stroke-width:2.166250;" />
<line x1="2666.666800" y1="6666.666800" x2="2000.000000" y2="6666.666800" class="n" style="stroke-width:2.166250;" />
<line x1="2666.666800" y1="7333.333400" x2="2666.666800" y2="6666.666800" class="n" style="stroke-width:2.166250;" />
<line x1="3333.333400" y1="7333.333400" x2="2666.666800" y2="6666.666800" class="n" style="stroke-width:2.166250;" />
<line x1="3333.333400" y1="6666.666800" x2="2666.666800" y2="6666.666800" class="n" style="stroke-width:2.166250;" />
<line x1="3333.333400" y1="7333.333400" x2="3333.333400" y2="6666.666800" class="m" style="stroke-width:17.330000;" />
<line x1="2000.000000" y1="6666.666800" x2="1333.333400" y2="6000.000000" class="n" style="stroke-width:2.166250;" />
<line x1="1333.333400" y1="6000.000000" x2="1333.333400" y2="6666.666800" class="m" style="stroke-width:17.330000;" />
<line x1="2000.000000" y1="6000.000000" x2="1333.333400" y2="6000.000000" class="n" style="stroke-width:2.166250;" />
<line x1="2000.000000" y1="6666.666800" x2="2000.000000" y2="6000.000000" class="n" style="stroke-width:2.166250;" />
<line x1="2666.666800" y1="6666.666800" x2="2000.000000" y2="6000.000000" class="n" style="stroke-width:2.166250;" />
<line x1="2666.666800" y1="6000.000000" x2="2000.000000" y2="6000.000000" class="n" style="stroke-width:2.166250;" />
<line x1="2666.666800" y1="6666.666800" x2="2666.666800" y2="6000.000000" class="n" style="stroke-width:2.166250;" />
<line x1="3333.333400" y1="6666.666800" x2="2666.666800" y2="6000.000000" class="n" style="stroke-width:2.166250;" />
<line x1="3333.333400" y1="6000.000000" x2="2666.666800" y2="6000.000000" class="n" style="stroke-width:2.166250;" />
<line x1="3333.333400" y1="6666.666800" x2="3333.333400" y2="6000.000000" class="m" style="stroke-width:17.330000;" />
<line x1="1333.333400" y1="5333.333400" x2="1333.333400" y2="6000.000000" class="m" style="stroke-width:17.330000;" />
<line x1="2000.000000" y1="6000.000000" x2="1333.333400" y2="5333.333400" class="n" style="stroke-width:2.166250;" />
<line x1="2000.000000" y1="6000.000000" x2="2000.000000" y2="5333.333400" class="n" style="stroke-width:2.166250;" />
<line x1="2666.666800" y1="6000.000000" x2="2000.000000" y2="5333.333400" class="n" style="stroke-width:2.166250;" />
<line x1="2666.666800" y1="6000.000000" x2="2666.666800" y2="5333.333400" class="n" style="stroke-width:2.166250;" />
<line x1="3333.333400" y1="6000.000000" x2="2666.666800" y2="5333.333400" class="n" style="stroke-width:2.166250;" />
<line x1="3333.333400" y1="6000.000000" x2="3333.333400" y2="5333.333400" class="m" style="stroke-width:17.330000;" />
<line x1="4000.000000" y1="6666.666800" x2="3333.333400" y2="6666.666800" class="n" style="stroke-width:2.166250;" />
<line x1="3333.333400" y1="7333.333400" x2="4000.000000" y2="6666.666800" class="n" style="stroke-width:2.166250;" />
<line x1="3333.333400" y1="7333.333400" x2="4000.000000" y2="7333.333400" class="m" style="stroke-width:17.330000;" />
<line x1="4000.000000" y1="7333.333400" x2="4000.000000" y2="6666.666800" class="n" style="stroke-width:2.166250;" />
<line x1="4000.000000" y1="6000.000000" x2="3333.333400" y2="6000.000000" class="n" style="stroke-width:2.166250;" />
<line x1="3333.333400" y1="6666.666800" x2="4000.000000" y2="6000.000000" class="n" style="stroke-width:2.166250;" />
<line x1="4000.000000" y1="6666.666800" x2="4000.000000" y2="6000.000000" class="n" style="stroke-width:2.166250;" />
<line x1="3333.333400" y1="6000.000000" x2="4000.000000" y2="5333.333400" class="n" style="stroke-width:2.166250;" />
<line x1="4000.000000" y1="5333.333400" x2="3333.333400" y2="5333.333400" class="m" style="stroke-width:17.330000;" />
<line x1="4000.000000" y1="6000.000000" x2="4000.000000" y2="5333.333400" class="n" style="stroke-width:2.166250;" />
<line x1="4666.666800" y1="6666.666800" x2="4000.000000" y2="6666.666800" class="n" style="stroke-width:2.166250;" />
<line x1="4000.000000" y1="7333.333400" x2="4666.666800" y2="6666.666800" class="n" style="stroke-width:2.166250;" />
<line x1="4000.000000" y1="2000.000000" x2="4666.666800" y2="1333.333400" class="n" style="stroke-width:2.166250;" />
<line x1="4666.666800" y1="1333.333400" x2="4000.000000" y2="1333.333400" class="m" style="stroke-width:17.330000;" />
<line x1="4000.000000" y1="1333.333400" x2="4000.000000" y2="2000.000000" class="n" style="stroke-width:2.166250;" />
<line x1="4666.666800" y1="6000.000000" x2="4000.000000" y2="6000.000000" class="n" style="stroke-width:2.166250;" />
<line x1="4000.000000" y1="6666.666800" x2="4666.666800" y2="6000.000000" class="n" style="stroke-width:2.166250;" />
<line x1="4666.666800" y1="2000.000000" x2="4000.000000" y2="2000.000000" class="n" style="stroke-width:2.166250;" />
<line x1="4000.000000" y1="2000.000000" x2="4000.000000" y2="2666.666800" class="n" style="stroke-width:2.166250;" />
<line x1="4000.000000" y1="2666.666800" x2="4666.666800" y2="2000.000000" class="n" style="stroke-width:2.166250;" />
<line x1="4000.000000" y1="6000.000000" x2="4666.666800" y2="5333.333400" class="n" style="stroke-width:2.166250;" />
<line x1="4666.666800" y1="5333.333400" x2="4000.000000" y2="5333.333400" class="m" style="stroke-width:17.330000;" />
<line x1="4000.000000" y1="3333.333400" x2="4666.666800" y2="2666.666800" class="n" style="stroke-width:2.166250;" />
<line x1="4666.666800" y1="2666.666800" x2="4000.000000" y2="2666.666800" class="n" style="stroke-width:2.166250;" />
<line x1="4000.000000" y1="2666.666800" x2="4000.000000" y2="3333.333400" class="n" style="stroke-width:2.166250;" />
<line x1="4000.000000" y1="1333.333400" x2="3333.333400" y2="2000.000000" class="n" style="stroke-width:2.166250;" />
<line x1="3333.333400" y1="2000.000000" x2="4000.000000" y2="2000.000000" class="n" style="stroke-width:2.166250;" />
<line x1="4000.000000" y1="1333.333400" x2="3333.333400" y2="1333.333400" class="m" style="stroke-width:17.330000;" />
<line x1="4000.000000" y1="2000.000000" x2="3333.333400" y2="2666.666800" class="n" style="stroke-width:2.166250;" />
<line x1="3333.333400" y1="2666.666800" x2="4000.000000" y2="2666.666800" class="n" style="stroke-width:2.166250;" />
<line x1="4000.000000" y1="2666.666800" x2="3333.333400" y2="3333.333400" class="n" style="stroke-width:2.166250;" />
<line x1="3333.333400" y1="3333.333400" x2="4000.000000" y2="3333.333400" class="m" style="stroke-width:17.330000;" />
<line x1="666.666800" y1="7333.333400" x2="1333.333400" y2="7333.333400" class="m" style="stroke-width:17.330000;" />
<line x1="1333.333400" y1="6666.666800" x2="666.666800" y2="7333.333400" class="n" style="stroke-width:2.166250;" />
<line x1="1333.333400" y1="6666.666800" x2="666.666800" y2="6666.666800" class="n" style="stroke-width:2.166250;" />
<line x1="666.666800" y1="6666.666800" x2="666.666800" y2="7333.333400" class="n" style="stroke-width:2.166250;" />
<line x1="1333.333400" y1="6000.000000" x2="666.666800" y2="6666.666800" class="n" style="stroke-width:2.166250;" />
<line x1="666.666800" y1="6000.000000" x2="666.666800" y2="6666.666800" class="n" style="stroke-width:2.166250;" />
<line x1="1333.333400" y1="6000.000000" x2="666.666800" y2="6000.000000" class="n" style="stroke-width:2.166250;" />
<line x1="1333.333400" y1="5333.333400" x2="666.666800" y2="6000.000000" class="n" style="stroke-width:2.166250;" />
<line x1="1333.333400" y1="5333.333400" x2="666.666800" y2="5333.333400" class="m" style="stroke-width:17.330000;" />
<line x1="666.666800" y1="5333.333400" x2="666.666800" y2="6000.000000" class="n" style="stroke-width:2.166250;" />
<line x1="0.000000" y1="7333.333400" x2="666.666800" y2="7333.333400" class="m" style="stroke-width:17.330000;" />
<line x1="666.666800" y1="6666.666800" x2="0.000000" y2="7333.333400" class="n" style="stroke-width:2.166250;" />
<line x1="666.666800" y1="1333.333400" x2="0.000000" y2="2000.000000" class="n" style="stroke-width:2.166250;" />
<line x1="0.000000" y1="2000.000000" x2="666.666800" y2="2000.000000" class="n" style="stroke-width:2.166250;" />
<line x1="666.666800" y1="2000.000000" x2="666.666800" y2="1333.333400" class="n" style="stroke-width:2.166250;" />
<line x1="666.666800" y1="6000.000000" x2="0.000000" y2="6666.666800" class="n" style="stroke-width:2.166250;" />
<line x1="0.000000" y1="6666.666800" x2="666.666800" y2="6666.666800" class="n" style="stroke-width:2.166250;" />
<line x1="666.666800" y1="2666.666800" x2="666.666800" y2="2000.000000" class="n" style="stroke-width:2.166250;" />
<line x1="666.666800" y1="2000.000000" x2="0.000000" y2="2666.666800" class="n" style="stroke-width:2.166250;" />
<line x1="0.000000" y1="2666.666800" x2="666.666800" y2="2666.666800" class="n" style="stroke-width:2.166250;" />
<line x1="0.000000" y1="6000.000000" x2="666.666800" y2="6000.000000" class="n" style="stroke-width:2.166250;" />
<line x1="666.666800" y1="5333.333400" x2="0.000000" y2="6000.000000" class="n" style="stroke-width:2.166250;" />
<line x1="0.000000" y1="3333.333400" x2="666.666800" y2="3333.333400" class="m" style="stroke-width:17.330000;" />
<line x1="666.666800" y1="3333.333400" x2="666.666800" y2="2666.666800" class="n" style="stroke-width:2.166250;" />
<line x1="666.666800" y1="2666.666800" x2="0.000000" y2="3333.333400" class="n" style="stroke-width:2.166250;" />
<line x1="1333.333400" y1="1333.333400" x2="666.666800" y2="1333.333400" class="m" style="stroke-width:17.330000;" />
<line x1="666.666800" y1="2000.000000" x2="1333.333400" y2="1333.333400" class="n" style="stroke-width:2.166250;" />
<line x1="666.666800" y1="2000.000000" x2="1333.333400" y2="2000.000000" class="n" style="stroke-width:2.166250;" />
<line x1="666.666800" y1="2666.666800" x2="1333.333400" y2="2000.000000" class="n" style="stroke-width:2.166250;" />
<line x1="666.666800" y1="2666.666800" x2="1333.333400" y2="2666.666800" class="n" style="stroke-width:2.166250;" />
<line x1="666.666800" y1="3333.333400" x2="1333.333400" y2="2666.666800" class="n" style="stroke-width:2.166250;" />
<line x1="666.666800" y1="3333.333400" x2="1333.333400" y2="3333.333400" class="m" style="stroke-width:17.330000;" />
<text x="1018.664100" y="5333.333400" transform="rotate(179.999990 1018.664100 5333.333400)" fill="darkgreen" font-weight="bold" font-size="93.320000">2</text>
<text x="2000.000000" y="5018.664100" transform="rotate(-89.999995 2000.000000 5018.664100)" fill="darkgreen" font-weight="bold" font-size="93.320000">3</text>
<text x="2000.000000" y="4981.336100" transform="rotate(89.999995 2000.000000 4981.336100)" fill="darkgreen" font-weight="bold" font-size="93.320000">3</text>
<text x="3333.333400" y="5037.328100" transform="rotate(-89.999995 3333.333400 5037.328100)" fill="darkgreen" font-weight="bold" font-size="93.320000">11</text>
<text x="3703.994700" y="5333.333400" transform="rotate(179.999990 3703.994700 5333.333400)" fill="darkgreen" font-weight="bold" font-size="93.320000">11</text>
<text x="296.005400" y="3333.333400" transform="rotate(0.000000 296.005400 3333.333400)" fill="darkgreen" font-weight="bold" font-size="93.320000">14</text>
<text x="1333.333400" y="4296.005400" transform="rotate(89.999995 1333.333400 4296.005400)" fill="darkgreen" font-weight="bold" font-size="93.320000">14</text>
<text x="2000.000000" y="4370.661400" transform="rotate(-89.999995 2000.000000 4370.661400)" fill="darkgreen" font-weight="bold" font-size="93.320000">15</text>
<text x="2000.000000" y="4296.005400" transform="rotate(89.999995 2000.000000 4296.005400)" fill="darkgreen" font-weight="bold" font-size="93.320000">15</text>
<text x="3026.394978" y="4359.728286" transform="rotate(-134.999984 3026.394978 4359.728286)" fill="darkgreen" font-weight="bold" font-size="93.320000">20</text>
<text x="2973.605222" y="4306.938514" transform="rotate(45.000006 2973.605222 4306.938514)" fill="darkgreen" font-weight="bold" font-size="93.320000">20</text>
<text x="3333.333400" y="4370.661400" transform="rotate(-89.999995 3333.333400 4370.661400)" fill="darkgreen" font-weight="bold" font-size="93.320000">21</text>
<text x="4370.661400" y="5333.333400" transform="rotate(179.999990 4370.661400 5333.333400)" fill="darkgreen" font-weight="bold" font-size="93.320000">21</text>
<text x="1333.333400" y="3629.338700" transform="rotate(89.999995 1333.333400 3629.338700)" fill="darkgreen" font-weight="bold" font-size="93.320000">24</text>
<text x="2000.000000" y="3703.994700" transform="rotate(-89.999995 2000.000000 3703.994700)" fill="darkgreen" font-weight="bold" font-size="93.320000">25</text>
<text x="2000.000000" y="3629.338700" transform="rotate(89.999995 2000.000000 3629.338700)" fill="darkgreen" font-weight="bold" font-size="93.320000">25</text>
<text x="3629.338700" y="3333.333400" transform="rotate(0.000000 3629.338700 3333.333400)" fill="darkgreen" font-weight="bold" font-size="93.320000">31</text>
<text x="2962.672100" y="2666.666800" transform="rotate(0.000000 2962.672100 2666.666800)" fill="darkgreen" font-weight="bold" font-size="93.320000">42</text>
<text x="3037.328100" y="2666.666800" transform="rotate(179.999990 3037.328100 2666.666800)" fill="darkgreen" font-weight="bold" font-size="93.320000">42</text>
<text x="2962.672100" y="2000.000000" transform="rotate(0.000000 2962.672100 2000.000000)" fill="darkgreen" font-weight="bold" font-size="93.320000">52</text>
<text x="3037.328100" y="2000.000000" transform="rotate(179.999990 3037.328100 2000.000000)" fill="darkgreen" font-weight="bold" font-size="93.320000">52</text>
<text x="1037.328100" y="1333.333400" transform="rotate(179.999990 1037.328100 1333.333400)" fill="darkgreen" font-weight="bold" font-size="93.320000">64</text>
<text x="1333.333400" y="962.672100" transform="rotate(89.999995 1333.333400 962.672100)" fill="darkgreen" font-weight="bold" font-size="93.320000">64</text>
<text x="2000.000000" y="1037.328100" transform="rotate(-89.999995 2000.000000 1037.328100)" fill="darkgreen" font-weight="bold" font-size="93.320000">65</text>
<text x="2000.000000" y="962.672100" transform="rotate(89.999995 2000.000000 962.672100)" fill="darkgreen" font-weight="bold" font-size="93.320000">65</text>
<text x="2666.666800" y="1037.328100" transform="rotate(-89.999995 2666.666800 1037.328100)" fill="darkgreen" font-weight="bold" font-size="93.320000">68</text>
<text x="2666.666800" y="962.672100" transform="rotate(89.999995 2666.666800 962.672100)" fill="darkgreen" font-weight="bold" font-size="93.320000">68</text>
<text x="3333.333400" y="1037.328100" transform="rotate(-89.999995 3333.333400 1037.328100)" fill="darkgreen" font-weight="bold" font-size="93.320000">71</text>
<text x="3703.994700" y="1333.333400" transform="rotate(179.999990 3703.994700 1333.333400)" fill="darkgreen" font-weight="bold" font-size="93.320000">71</text>
<text x="296.005400" y="7333.333400" transform="rotate(0.000000 296.005400 7333.333400)" fill="darkgreen" font-weight="bold" font-size="93.320000">74</text>
<text x="2000.000000" y="8370.661400" transform="rotate(-89.999995 2000.000000 8370.661400)" fill="darkgreen" font-weight="bold" font-size="93.320000">75</text>
<text x="2000.000000" y="296.005400" transform="rotate(89.999995 2000.000000 296.005400)" fill="darkgreen" font-weight="bold" font-size="93.320000">75</text>
<text x="2359.728282" y="359.728282" transform="rotate(-134.999993 2359.728282 359.728282)" fill="darkgreen" font-weight="bold" font-size="93.320000">77</text>
<text x="2306.938518" y="8306.938518" transform="rotate(44.999998 2306.938518 8306.938518)" fill="darkgreen" font-weight="bold" font-size="93.320000">77</text>
<text x="2666.666800" y="8370.661400" transform="rotate(-89.999995 2666.666800 8370.661400)" fill="darkgreen" font-weight="bold" font-size="93.320000">78</text>
<text x="2666.666800" y="296.005400" transform="rotate(89.999995 2666.666800 296.005400)" fill="darkgreen" font-weight="bold" font-size="93.320000">78</text>
<text x="2973.605222" y="8306.938514" transform="rotate(45.000006 2973.605222 8306.938514)" fill="darkgreen" font-weight="bold" font-size="93.320000">80</text>
<text x="3333.333400" y="8370.661400" transform="rotate(-89.999995 3333.333400 8370.661400)" fill="darkgreen" font-weight="bold" font-size="93.320000">81</text>
<text x="4370.661400" y="1333.333400" transform="rotate(179.999990 4370.661400 1333.333400)" fill="darkgreen" font-weight="bold" font-size="93.320000">81</text>
<text x="962.672100" y="7333.333400" transform="rotate(0.000000 962.672100 7333.333400)" fill="darkgreen" font-weight="bold" font-size="93.320000">84</text>
<text x="1333.333400" y="7629.338700" transform="rotate(89.999995 1333.333400 7629.338700)" fill="darkgreen" font-weight="bold" font-size="93.320000">84</text>
<text x="2000.000000" y="7703.994700" transform="rotate(-89.999995 2000.000000 7703.994700)" fill="darkgreen" font-weight="bold" font-size="93.320000">85</text>
<text x="2000.000000" y="7629.338700" transform="rotate(89.999995 2000.000000 7629.338700)" fill="darkgreen" font-weight="bold" font-size="93.320000">85</text>
<text x="2666.666800" y="7703.994700" transform="rotate(-89.999995 2666.666800 7703.994700)" fill="darkgreen" font-weight="bold" font-size="93.320000">88</text>
<text x="2666.666800" y="7629.338700" transform="rotate(89.999995 2666.666800 7629.338700)" fill="darkgreen" font-weight="bold" font-size="93.320000">88</text>
<text x="3629.338700" y="7333.333400" transform="rotate(0.000000 3629.338700 7333.333400)" fill="darkgreen" font-weight="bold" font-size="93.320000">91</text>
<text x="1610.674700" y="6000.000000" transform="rotate(0.000000 1610.674700 6000.000000)" fill="darkgreen" font-weight="bold" font-size="93.320000">106</text>
<text x="1722.658700" y="6000.000000" transform="rotate(179.999990 1722.658700 6000.000000)" fill="darkgreen" font-weight="bold" font-size="93.320000">106</text>
<text x="3610.674700" y="6000.000000" transform="rotate(0.000000 3610.674700 6000.000000)" fill="darkgreen" font-weight="bold" font-size="93.320000">124</text>
<text x="3722.658700" y="6000.000000" transform="rotate(179.999990 3722.658700 6000.000000)" fill="darkgreen" font-weight="bold" font-size="93.320000">124</text>
<text x="4293.741071" y="7039.592417" transform="rotate(-44.999989 4293.741071 7039.592417)" fill="darkgreen" font-weight="bold" font-size="93.320000">128</text>
<text x="4293.741071" y="1706.259017" transform="rotate(-44.999989 4293.741071 1706.259017)" fill="darkgreen" font-weight="bold" font-size="93.320000">128</text>
<text x="4389.325400" y="2000.000000" transform="rotate(179.999990 4389.325400 2000.000000)" fill="darkgreen" font-weight="bold" font-size="93.320000">129</text>
<text x="4389.325400" y="6666.666800" transform="rotate(179.999990 4389.325400 6666.666800)" fill="darkgreen" font-weight="bold" font-size="93.320000">129</text>
<text x="4293.741077" y="6372.925723" transform="rotate(-44.999998 4293.741077 6372.925723)" fill="darkgreen" font-weight="bold" font-size="93.320000">131</text>
<text x="4293.741071" y="3039.592417" transform="rotate(-44.999989 4293.741071 3039.592417)" fill="darkgreen" font-weight="bold" font-size="93.320000">134</text>
<text x="4293.741071" y="5706.259017" transform="rotate(-44.999989 4293.741071 5706.259017)" fill="darkgreen" font-weight="bold" font-size="93.320000">134</text>
<text x="3610.674700" y="2000.000000" transform="rotate(0.000000 3610.674700 2000.000000)" fill="darkgreen" font-weight="bold" font-size="93.320000">137</text>
<text x="3722.658700" y="2000.000000" transform="rotate(179.999990 3722.658700 2000.000000)" fill="darkgreen" font-weight="bold" font-size="93.320000">137</text>
<text x="3610.674700" y="2666.666800" transform="rotate(-0.000000 3610.674700 2666.666800)" fill="darkgreen" font-weight="bold" font-size="93.320000">139</text>
<text x="3722.658700" y="2666.666800" transform="rotate(179.999990 3722.658700 2666.666800)" fill="darkgreen" font-weight="bold" font-size="93.320000">139</text>
<text x="1055.992100" y="6666.666800" transform="rotate(179.999990 1055.992100 6666.666800)" fill="darkgreen" font-weight="bold" font-size="93.320000">142</text>
<text x="944.008100" y="6666.666800" transform="rotate(0.000000 944.008100 6666.666800)" fill="darkgreen" font-weight="bold" font-size="93.320000">142</text>
<text x="1055.992100" y="6000.000000" transform="rotate(179.999990 1055.992100 6000.000000)" fill="darkgreen" font-weight="bold" font-size="93.320000">145</text>
<text x="944.008100" y="6000.000000" transform="rotate(0.000000 944.008100 6000.000000)" fill="darkgreen" font-weight="bold" font-size="93.320000">145</text>
<text x="372.925729" y="1627.074383" transform="rotate(135.000001 372.925729 1627.074383)" fill="darkgreen" font-weight="bold" font-size="93.320000">149</text>
<text x="372.925729" y="6960.407783" transform="rotate(135.000001 372.925729 6960.407783)" fill="darkgreen" font-weight="bold" font-size="93.320000">149</text>
<text x="277.341400" y="6666.666800" transform="rotate(-0.000000 277.341400 6666.666800)" fill="darkgreen" font-weight="bold" font-size="93.320000">150</text>
<text x="372.925723" y="6293.741077" transform="rotate(134.999993 372.925723 6293.741077)" fill="darkgreen" font-weight="bold" font-size="93.320000">152</text>
<text x="277.341400" y="6000.000000" transform="rotate(0.000000 277.341400 6000.000000)" fill="darkgreen" font-weight="bold" font-size="93.320000">153</text>
<text x="372.925729" y="2960.407783" transform="rotate(135.000001 372.925729 2960.407783)" fill="darkgreen" font-weight="bold" font-size="93.320000">155</text>
<text x="1055.992100" y="2000.000000" transform="rotate(179.999990 1055.992100 2000.000000)" fill="darkgreen" font-weight="bold" font-size="93.320000">158</text>
<text x="944.008100" y="2000.000000" transform="rotate(-0.000000 944.008100 2000.000000)" fill="darkgreen" font-weight="bold" font-size="93.320000">158</text>
<text x="1055.992100" y="2666.666800" transform="rotate(179.999990 1055.992100 2666.666800)" fill="darkgreen" font-weight="bold" font-size="93.320000">160</text>
<text x="944.008100" y="2666.666800" transform="rotate(0.000000 944.008100 2666.666800)" fill="darkgreen" font-weight="bold" font-size="93.320000">160</text>
</svg>
