<?xml version="1.0"?>
<svg width="1841" height="1352" version="1.1" xmlns="http://www.w3.org/2000/svg" >
<defs>
<style type="text/css"><![CDATA[
.m {stroke:rgb(255,0,0);stroke-width:2.301250;}
.v {stroke:rgb(0,0,255);stroke-width:2.301250;}
.b {stroke:rgb(0,0,0);stroke-width:4.602500;fill:white}
.n {stroke:rgb(128,128,128);stroke-width:2.301250}
.t {stroke:rgb(0,128,0);stroke-width:2.301250;}
.c {stroke:rgb(128,128,128);stroke-width:2.301250;stroke-dasharray:18.410000, 18.410000;}
]]></style>
</defs>
<path fill="none" style="stroke:black;stroke-width:4.602500;" d=" M 1075.63 547.288 L 1474.02 583.142 M 1477.24 547.43 L 1078.85 511.577 M 1078.85 511.577 L 1477.24 475.719 M 1474.02 440.008 L 1075.63 475.865 M 1075.63 475.865 L 1461.22 369.449 M 1451.68 334.886 L 1066.09 441.302 M 431.082 0 L 396.981 11.0801 M 554.69 380.422 L 431.082 0 M 396.981 11.0801 L 520.589 391.502 M 331.041 39.2646 L 299.467 56.2556 M 520.589 391.502 L 331.041 39.2646 M 299.467 56.2556 L 489.015 408.493 M 239.619 95.761 L 211.586 118.117 M 489.015 408.493 L 239.619 95.761 M 211.586 118.117 L 460.982 430.849 M 159.752 167.675 L 136.162 194.677 M 460.982 430.849 L 159.752 167.675 M 136.162 194.677 L 437.391 457.851 M 94.012 252.691 L 75.6216 283.471 M 437.391 457.851 L 94.012 252.691 M 75.6216 283.471 L 419.001 488.631 M 44.5066 348.082 L 31.9079 381.651 M 419.001 488.631 L 44.5066 348.082 M 31.9079 381.651 L 406.402 522.201 M 12.8297 450.781 L 6.42766 486.06 M 406.402 522.201 L 12.8297 450.781 M 6.42766 486.06 L 400 557.48 M 8.56902e-006 557.48 L 0 593.336 M 400 557.48 L 8.56902e-006 557.48 M 0 593.336 L 400 593.336 M 400.441 1235.38 L 435.398 1227.4 M 311.432 845.406 L 400.441 1235.38 M 346.388 837.428 L 311.432 845.406 M 435.398 1227.4 L 470.355 1219.42 M 381.345 829.449 L 346.388 837.428 M 470.355 1219.42 L 505.311 1211.44 M 416.302 821.47 L 381.345 829.449 M 505.311 1211.44 L 540.268 1203.46 M 451.258 813.491 L 416.302 821.47 M 540.268 1203.46 L 575.225 1195.48 M 486.215 805.513 L 451.258 813.491 M 575.225 1195.48 L 610.182 1187.5 M 521.172 797.534 L 486.215 805.513 M 610.182 1187.5 L 645.138 1179.53 M 556.128 789.555 L 521.172 797.534 M 645.138 1179.53 L 680.095 1171.55 M 591.085 781.576 L 556.128 789.555 M 680.095 1171.55 L 715.052 1163.57 M 626.042 773.597 L 591.085 781.576 M 715.052 1163.57 L 750.009 1155.59 M 750.009 1155.59 L 784.965 1147.61 M 784.965 1147.61 L 819.922 1139.63 M 819.922 1139.63 L 854.879 1131.65 M 854.879 1131.65 L 889.835 1123.67 M 889.835 1123.67 L 924.792 1115.7 M 924.792 1115.7 L 959.749 1107.72 M 959.749 1107.72 L 994.706 1099.74 M 994.706 1099.74 L 1029.66 1091.76 M 975.609 693.81 L 940.652 701.788 M 1064.62 1083.78 L 975.609 693.81 M 973.623 687.696 L 1193.98 1021.52 M 1223.91 1001.77 L 1003.55 667.943 M 1003.55 667.943 L 1279.97 957.06 M 1305.89 932.282 L 1029.46 643.165 M 1029.46 643.165 L 1353.07 878.278 M 1374.15 849.27 L 1050.54 614.157 M 1050.54 614.157 L 1410.93 787.708 M 1426.48 755.403 L 1066.1 581.852 M 1066.1 581.852 L 1451.68 688.264 M 1461.22 653.7 L 1075.63 547.288 M 1674.02 583.141 L 1477.24 547.43 M 1474.02 583.142 L 1674.02 583.141 M 1674.02 440.007 L 1474.02 440.008 M 1477.24 475.719 L 1674.02 440.007 M 1461.22 369.449 L 1648.47 299.174 M 1448.47 299.174 L 1451.68 334.886 M 1451.68 263.463 L 1448.47 299.174 M 1461.22 228.899 L 1451.68 263.463 M 1476.78 196.594 L 1461.22 228.899 M 1497.85 167.586 L 1476.78 196.594 M 1523.77 142.808 L 1497.85 167.586 M 1553.69 123.055 L 1523.77 142.808 M 1586.66 108.963 L 1553.69 123.055 M 1621.62 100.984 L 1586.66 108.963 M 1657.44 99.375 L 1621.62 100.984 M 1692.97 104.188 L 1657.44 99.375 M 1727.07 115.268 L 1692.97 104.188 M 1758.64 132.259 L 1727.07 115.268 M 1786.68 154.614 L 1758.64 132.259 M 1810.27 181.616 L 1786.68 154.614 M 1828.66 212.396 L 1810.27 181.616 M 1648.47 299.174 L 1841.26 245.966 M 1841.26 245.966 L 1828.66 212.396 M 894.68 1317.68 L 904.219 1352.25 M 904.219 1352.25 L 1091.47 1281.97 M 891.466 1281.97 L 894.68 1317.68 M 894.68 1246.26 L 891.466 1281.97 M 904.219 1211.7 L 894.68 1246.26 M 919.776 1179.39 L 904.219 1211.7 M 940.851 1150.38 L 919.776 1179.39 M 966.768 1125.6 L 940.851 1150.38 M 996.692 1105.85 L 966.768 1125.6 M 1029.66 1091.76 L 996.692 1105.85 M 1091.47 1281.97 L 1064.62 1083.78 M 1318.68 1177.89 L 1223.91 1001.77 M 1193.98 1021.52 L 1318.68 1177.89 M 1430.59 1088.65 L 1305.89 932.282 M 1279.97 957.06 L 1430.59 1088.65 M 1524.76 980.858 L 1374.15 849.27 M 1353.07 878.278 L 1524.76 980.858 M 1598.17 857.982 L 1426.48 755.403 M 1410.93 787.708 L 1598.17 857.982 M 1451.68 688.264 L 1648.47 723.973 M 1648.47 723.973 L 1461.22 653.7 M 1066.09 441.302 L 878.848 511.577 M 599.195 575.408 L 554.69 380.422 M 400 593.336 L 406.402 628.615 M 406.402 628.615 L 419.001 662.185 M 419.001 662.185 L 437.392 692.965 M 437.392 692.965 L 460.983 719.967 M 460.983 719.967 L 489.016 742.322 M 489.016 742.322 L 520.59 759.313 M 520.59 759.313 L 554.691 770.393 M 554.691 770.393 L 590.222 775.206 M 590.222 775.206 L 626.042 773.597 M 660.999 765.619 L 599.195 575.408 M 695.955 757.64 L 634.151 567.429 M 634.151 567.429 L 660.999 765.619 M 730.912 749.661 L 669.107 559.45 M 669.107 559.45 L 695.955 757.64 M 765.869 741.682 L 704.065 551.471 M 704.065 551.471 L 730.912 749.661 M 800.825 733.704 L 739.022 543.492 M 739.022 543.492 L 765.869 741.682 M 835.782 725.725 L 773.978 535.514 M 773.978 535.514 L 800.825 733.704 M 870.739 717.746 L 808.936 527.535 M 808.936 527.535 L 835.782 725.725 M 905.696 709.767 L 843.891 519.556 M 843.891 519.556 L 870.739 717.746 M 878.848 511.577 L 905.696 709.767 M 940.652 701.788 L 973.623 687.696" />
<path fill="none" class="c" d=" M 835.782 725.725 L 924.792 1115.7 M 870.739 717.746 L 835.782 725.725 M 959.749 1107.72 L 870.739 717.746 M 905.696 709.767 L 870.739 717.746 M 994.706 1099.74 L 905.696 709.767 M 1029.66 1091.76 L 940.652 701.788 M 1029.66 1091.76 L 1064.62 1083.78 M 940.652 701.788 L 905.696 709.767 M 835.782 725.725 L 800.825 733.704 M 973.623 687.696 L 1003.55 667.943 M 1003.55 667.943 L 1029.46 643.165 M 1029.46 643.165 L 1050.54 614.157 M 1050.54 614.157 L 1066.1 581.852 M 1066.1 581.852 L 1075.63 547.288 M 1075.63 547.288 L 1078.85 511.577 M 800.825 733.704 L 889.835 1123.67 M 1078.85 511.577 L 1075.63 475.865 M 1075.63 475.865 L 1066.09 441.302 M 1474.02 583.142 L 1477.24 547.43 M 800.825 733.704 L 765.869 741.682 M 1193.98 1021.52 L 1223.91 1001.77 M 1279.97 957.06 L 1305.89 932.282 M 1353.07 878.278 L 1374.15 849.27 M 1410.93 787.708 L 1426.48 755.403 M 1451.68 688.264 L 1461.22 653.7 M 1477.24 475.719 L 1474.02 440.008 M 1461.22 369.449 L 1451.68 334.886 M 765.869 741.682 L 854.879 1131.65 M 765.869 741.682 L 730.912 749.661 M 730.912 749.661 L 819.922 1139.63 M 730.912 749.661 L 695.955 757.64 M 695.955 757.64 L 784.965 1147.61 M 695.955 757.64 L 660.999 765.619 M 660.999 765.619 L 750.009 1155.59 M 660.999 765.619 L 626.042 773.597 M 626.042 773.597 L 715.052 1163.57 M 591.085 781.576 L 680.095 1171.55 M 556.128 789.555 L 645.138 1179.53 M 521.172 797.534 L 610.182 1187.5 M 486.215 805.513 L 575.225 1195.48 M 400 557.48 L 400 593.336 M 451.258 813.491 L 540.268 1203.46 M 406.402 522.201 L 400 557.48 M 419.001 488.631 L 406.402 522.201 M 416.302 821.47 L 505.311 1211.44 M 437.391 457.851 L 419.001 488.631 M 460.982 430.849 L 437.391 457.851 M 381.345 829.449 L 470.355 1219.42 M 489.015 408.493 L 460.982 430.849 M 520.589 391.502 L 489.015 408.493 M 346.388 837.428 L 435.398 1227.4 M 554.69 380.422 L 520.589 391.502" />
</svg>
