<?xml version="1.0"?>
<svg width="1318" height="881" version="1.1" xmlns="http://www.w3.org/2000/svg" >
<defs>
<style type="text/css"><![CDATA[
.m {stroke:rgb(255,0,0);stroke-width:1.647500;}
.v {stroke:rgb(0,0,255);stroke-width:1.647500;}
.b {stroke:rgb(0,0,0);stroke-width:3.295000;fill:white}
.n {stroke:rgb(128,128,128);stroke-width:1.647500}
.t {stroke:rgb(0,128,0);stroke-width:1.647500;}
.c {stroke:rgb(128,128,128);stroke-width:1.647500;stroke-dasharray:13.180000, 13.180000;}
]]></style>
</defs>
<path fill="none" style="stroke:black;stroke-width:3.295000;" d=" M 1164.17 631.889 L 1199.99 630.281 M 1182.05 230.683 L 1146.23 232.292 M 1199.99 630.281 L 1235.81 628.672 M 1217.87 229.075 L 1182.05 230.683 M 1235.81 628.672 L 1271.63 627.064 M 1253.69 227.466 L 1217.87 229.075 M 1271.63 627.064 L 1307.45 625.455 M 1307.45 625.455 L 1253.69 227.466 M 35.8197 282.159 L 0 283.767 M 0 283.767 L 53.765 681.756 M 53.765 681.756 L 89.5846 680.147 M 71.6393 280.55 L 35.8197 282.159 M 89.5846 680.147 L 125.404 678.539 M 107.459 278.942 L 71.6393 280.55 M 125.404 678.539 L 161.224 676.93 M 143.278 277.333 L 107.459 278.942 M 161.224 676.93 L 197.043 675.322 M 179.098 275.724 L 143.278 277.333 M 483.6 662.453 L 519.42 660.844 M 501.475 261.247 L 465.655 262.855 M 519.42 660.844 L 555.239 659.236 M 537.294 259.638 L 501.475 261.247 M 555.239 659.236 L 591.059 657.627 M 573.114 258.03 L 537.294 259.638 M 591.059 657.627 L 626.879 656.018 M 608.933 256.421 L 573.114 258.03 M 626.879 656.018 L 662.698 654.41 M 644.753 254.812 L 608.933 256.421 M 662.698 654.41 L 698.518 652.801 M 680.573 253.204 L 644.753 254.812 M 698.518 652.801 L 734.338 651.193 M 716.392 251.595 L 680.573 253.204 M 734.338 651.193 L 770.157 649.584 M 752.212 249.987 L 716.392 251.595 M 770.157 649.584 L 805.977 647.975 M 788.032 248.378 L 752.212 249.987 M 1128.35 633.498 L 1164.17 631.889 M 1146.23 232.292 L 1110.41 233.901 M 1197.99 649.391 L 1163.88 638.311 M 1229.56 666.382 L 1197.99 649.391 M 1257.59 688.738 L 1229.56 666.382 M 1281.18 715.74 L 1257.59 688.738 M 1299.57 746.52 L 1281.18 715.74 M 1312.17 780.089 L 1299.57 746.52 M 1318.58 815.369 L 1312.17 780.089 M 1119.38 833.297 L 1318.58 851.224 M 1318.58 851.224 L 1318.58 815.369 M 223.889 873.512 L 232.863 673.713 M 197.043 675.322 L 223.889 873.512 M 259.71 871.903 L 268.683 672.104 M 232.863 673.713 L 259.71 871.903 M 295.528 870.294 L 304.502 670.496 M 268.683 672.104 L 295.528 870.294 M 331.349 868.686 L 340.322 668.887 M 304.502 670.496 L 331.349 868.686 M 367.168 867.077 L 376.141 667.279 M 340.322 668.887 L 367.168 867.077 M 402.987 865.469 L 411.961 665.67 M 376.141 667.279 L 402.987 865.469 M 438.807 863.86 L 447.781 664.061 M 411.961 665.67 L 438.807 863.86 M 474.628 862.251 L 483.6 662.453 M 447.781 664.061 L 474.628 862.251 M 632.823 846.165 L 636.037 881.876 M 636.037 881.876 L 832.823 846.165 M 636.037 810.453 L 632.823 846.165 M 645.576 775.89 L 636.037 810.453 M 661.133 743.585 L 645.576 775.89 M 682.209 714.577 L 661.133 743.585 M 708.125 689.799 L 682.209 714.577 M 738.05 670.046 L 708.125 689.799 M 771.02 655.954 L 738.05 670.046 M 805.977 647.975 L 771.02 655.954 M 832.823 846.165 L 841.796 646.367 M 868.644 844.557 L 877.616 644.758 M 841.796 646.367 L 868.644 844.557 M 904.462 842.948 L 913.436 643.15 M 877.616 644.758 L 904.462 842.948 M 940.282 841.339 L 949.255 641.541 M 913.436 643.15 L 940.282 841.339 M 976.101 839.731 L 985.075 639.932 M 949.255 641.541 L 976.101 839.731 M 1011.92 838.122 L 1020.89 638.324 M 985.075 639.932 L 1011.92 838.122 M 1047.74 836.514 L 1056.71 636.715 M 1020.89 638.324 L 1047.74 836.514 M 1083.56 834.905 L 1092.53 635.107 M 1056.71 636.715 L 1083.56 834.905 M 1092.53 635.107 L 1119.38 833.297 M 1163.88 638.311 L 1128.35 633.498 M 1145.36 225.922 L 1178.34 211.83 M 1178.34 211.83 L 1208.26 192.077 M 1208.26 192.077 L 1234.18 167.299 M 1234.18 167.299 L 1255.25 138.291 M 1255.25 138.291 L 1270.81 105.986 M 1270.81 105.986 L 1280.35 71.4228 M 1280.35 71.4228 L 1283.56 35.7114 M 1283.56 35.7114 L 1280.35 0 M 1280.35 0 L 1083.56 35.7106 M 214.918 274.116 L 188.071 75.9257 M 188.071 75.9257 L 179.098 275.724 M 250.737 272.507 L 223.892 74.3171 M 223.892 74.3171 L 214.918 274.116 M 286.557 270.899 L 259.71 72.7086 M 259.71 72.7086 L 250.737 272.507 M 322.376 269.29 L 295.53 71.0999 M 295.53 71.0999 L 286.557 270.899 M 358.196 267.681 L 331.35 69.4914 M 331.35 69.4914 L 322.376 269.29 M 394.016 266.073 L 367.169 67.8827 M 367.169 67.8827 L 358.196 267.681 M 429.835 264.464 L 402.989 66.2741 M 402.989 66.2741 L 394.016 266.073 M 465.655 262.855 L 438.809 64.6655 M 438.809 64.6655 L 429.835 264.464 M 597.81 30.6517 L 597.81 66.5073 M 797.005 48.5795 L 597.81 30.6517 M 597.81 66.5073 L 604.212 101.787 M 604.212 101.787 L 616.811 135.356 M 616.811 135.356 L 635.201 166.136 M 635.201 166.136 L 658.792 193.138 M 658.792 193.138 L 686.825 215.494 M 686.825 215.494 L 718.4 232.485 M 718.4 232.485 L 752.5 243.565 M 752.5 243.565 L 788.032 248.378 M 823.851 246.769 L 797.005 48.5795 M 859.671 245.161 L 832.825 46.9709 M 832.825 46.9709 L 823.851 246.769 M 895.491 243.552 L 868.644 45.3624 M 868.644 45.3624 L 859.671 245.161 M 931.31 241.944 L 904.464 43.7537 M 904.464 43.7537 L 895.491 243.552 M 967.13 240.335 L 940.283 42.1451 M 940.283 42.1451 L 931.31 241.944 M 1002.95 238.726 L 976.103 40.5365 M 976.103 40.5365 L 967.13 240.335 M 1038.77 237.118 L 1011.92 38.9279 M 1011.92 38.9279 L 1002.95 238.726 M 1074.59 235.509 L 1047.74 37.3192 M 1047.74 37.3192 L 1038.77 237.118 M 1083.56 35.7106 L 1074.59 235.509 M 1110.41 233.901 L 1145.36 225.922" />
<path fill="none" class="c" d=" M 788.032 248.378 L 805.977 647.975 M 805.977 647.975 L 841.796 646.367 M 823.851 246.769 L 788.032 248.378 M 841.796 646.367 L 823.851 246.769 M 841.796 646.367 L 877.616 644.758 M 859.671 245.161 L 823.851 246.769 M 877.616 644.758 L 859.671 245.161 M 877.616 644.758 L 913.436 643.15 M 895.491 243.552 L 859.671 245.161 M 913.436 643.15 L 895.491 243.552 M 913.436 643.15 L 949.255 641.541 M 931.31 241.944 L 895.491 243.552 M 949.255 641.541 L 931.31 241.944 M 949.255 641.541 L 985.075 639.932 M 967.13 240.335 L 931.31 241.944 M 985.075 639.932 L 967.13 240.335 M 985.075 639.932 L 1020.89 638.324 M 1002.95 238.726 L 967.13 240.335 M 1020.89 638.324 L 1002.95 238.726 M 1020.89 638.324 L 1056.71 636.715 M 1038.77 237.118 L 1002.95 238.726 M 1056.71 636.715 L 1038.77 237.118 M 1056.71 636.715 L 1092.53 635.107 M 1074.59 235.509 L 1038.77 237.118 M 1092.53 635.107 L 1074.59 235.509 M 1092.53 635.107 L 1128.35 633.498 M 1110.41 233.901 L 1074.59 235.509 M 1128.35 633.498 L 1110.41 233.901 M 1164.17 631.889 L 1146.23 232.292 M 1199.99 630.281 L 1182.05 230.683 M 1235.81 628.672 L 1217.87 229.075 M 1271.63 627.064 L 1253.69 227.466 M 752.212 249.987 L 770.157 649.584 M 716.392 251.595 L 734.338 651.193 M 680.573 253.204 L 698.518 652.801 M 644.753 254.812 L 662.698 654.41 M 608.933 256.421 L 626.879 656.018 M 573.114 258.03 L 591.059 657.627 M 537.294 259.638 L 555.239 659.236 M 501.475 261.247 L 519.42 660.844 M 465.655 262.855 L 483.6 662.453 M 465.655 262.855 L 429.835 264.464 M 429.835 264.464 L 447.781 664.061 M 447.781 664.061 L 483.6 662.453 M 429.835 264.464 L 394.016 266.073 M 394.016 266.073 L 411.961 665.67 M 411.961 665.67 L 447.781 664.061 M 394.016 266.073 L 358.196 267.681 M 358.196 267.681 L 376.141 667.279 M 376.141 667.279 L 411.961 665.67 M 358.196 267.681 L 322.376 269.29 M 322.376 269.29 L 340.322 668.887 M 340.322 668.887 L 376.141 667.279 M 322.376 269.29 L 286.557 270.899 M 286.557 270.899 L 304.502 670.496 M 304.502 670.496 L 340.322 668.887 M 286.557 270.899 L 250.737 272.507 M 250.737 272.507 L 268.683 672.104 M 268.683 672.104 L 304.502 670.496 M 250.737 272.507 L 214.918 274.116 M 214.918 274.116 L 232.863 673.713 M 232.863 673.713 L 268.683 672.104 M 214.918 274.116 L 179.098 275.724 M 179.098 275.724 L 197.043 675.322 M 197.043 675.322 L 232.863 673.713 M 143.278 277.333 L 161.224 676.93 M 107.459 278.942 L 125.404 678.539 M 71.6393 280.55 L 89.5846 680.147 M 35.8197 282.159 L 53.765 681.756" />
</svg>
