<?xml version="1.0"?>
<svg width="1467" height="1397" version="1.1" xmlns="http://www.w3.org/2000/svg" >
<defs>
<style type="text/css"><![CDATA[
.m {stroke:rgb(255,0,0);stroke-width:1.833750;}
.v {stroke:rgb(0,0,255);stroke-width:1.833750;}
.b {stroke:rgb(0,0,0);stroke-width:3.667500;fill:white}
.n {stroke:rgb(128,128,128);stroke-width:1.833750}
.t {stroke:rgb(0,128,0);stroke-width:1.833750;}
.c {stroke:rgb(128,128,128);stroke-width:1.833750;stroke-dasharray:14.670000, 14.670000;}
]]></style>
</defs>
<path fill="none" style="stroke:black;stroke-width:3.667500;" d=" M 1261.44 493.725 L 866.264 565.293 M 866.264 565.293 L 1242.31 424.314 M 1232.77 389.751 L 856.725 530.73 M 856.725 530.73 L 1201.55 324.871 M 1186 292.566 L 841.167 498.425 M 841.167 498.425 L 1143.7 234.303 M 1143.7 234.303 L 1122.62 205.295 M 1122.62 205.295 L 820.092 469.417 M 820.092 469.417 L 1070.6 155.52 M 1070.6 155.52 L 1044.68 130.742 M 1044.68 130.742 L 794.176 444.638 M 794.176 444.638 L 984.61 91.0563 M 984.61 91.0563 L 954.686 71.3035 M 954.686 71.3035 L 764.251 424.886 M 764.251 424.886 L 888.492 42.9825 M 888.492 42.9825 L 855.521 28.8902 M 855.521 28.8902 L 731.281 410.793 M 731.281 410.793 L 785.332 12.8434 M 785.332 12.8434 L 750.375 4.86485 M 750.375 4.86485 L 696.324 402.815 M 696.324 402.815 L 678.452 1.6088 M 678.452 1.6088 L 642.633 0 M 642.633 0 L 660.505 401.206 M 660.505 401.206 L 571.281 9.63901 M 571.281 9.63901 L 535.749 14.452 M 535.749 14.452 L 624.974 406.019 M 624.974 406.019 L 467.264 36.6771 M 467.264 36.6771 L 433.163 47.7573 M 433.163 47.7573 L 590.873 417.099 M 590.873 417.099 L 369.752 81.8512 M 369.752 81.8512 L 338.178 98.842 M 338.178 98.842 L 559.298 434.09 M 559.298 434.09 L 281.869 143.713 M 281.869 143.713 L 531.265 456.446 M 230.037 193.27 L 206.446 220.272 M 531.265 456.446 L 230.037 193.27 M 206.446 220.272 L 507.674 483.448 M 164.295 278.287 L 145.905 309.067 M 507.674 483.448 L 164.295 278.287 M 145.905 309.067 L 489.284 514.228 M 114.79 373.678 L 102.191 407.247 M 489.284 514.228 L 114.79 373.678 M 102.191 407.247 L 476.685 547.797 M 83.1132 476.376 L 76.711 511.655 M 476.685 547.797 L 83.1132 476.376 M 76.711 511.655 L 470.283 583.077 M 70.283 583.077 L 70.283 618.932 M 470.283 583.077 L 70.283 583.077 M 70.283 618.932 L 470.283 618.932 M 76.711 690.354 L 83.1132 725.634 M 470.283 618.932 L 76.711 690.354 M 83.1132 725.634 L 476.685 654.212 M 102.191 794.762 L 114.79 828.331 M 476.685 654.212 L 102.191 794.762 M 114.79 828.331 L 489.284 687.781 M 145.905 892.942 L 164.295 923.722 M 489.284 687.781 L 145.905 892.942 M 164.295 923.722 L 507.674 718.562 M 206.446 981.737 L 230.037 1008.74 M 507.674 718.562 L 206.446 981.737 M 230.037 1008.74 L 531.265 745.564 M 531.265 745.564 L 281.869 1058.3 M 309.902 1080.65 L 559.298 767.919 M 559.298 767.919 L 369.75 1120.16 M 401.325 1137.15 L 590.873 784.91 M 590.873 784.91 L 467.266 1165.33 M 501.367 1176.41 L 624.974 795.99 M 624.974 795.99 L 571.281 1192.37 M 606.812 1197.18 L 660.505 800.803 M 660.505 800.803 L 678.45 1200.4 M 714.27 1198.79 L 696.324 799.195 M 696.324 799.195 L 785.334 1189.17 M 820.291 1181.19 L 731.281 791.216 M 731.281 791.216 L 888.491 1159.03 M 921.461 1144.93 L 764.252 777.124 M 764.252 777.124 L 984.61 1110.95 M 1014.53 1091.2 L 794.176 757.371 M 794.176 757.371 L 1070.6 1046.49 M 1122.43 996.932 L 820.092 732.592 M 820.092 732.592 L 1164.77 938.699 M 1185.85 909.691 L 841.168 703.584 M 841.168 703.584 L 1217.11 844.833 M 1232.67 812.528 L 856.725 671.28 M 856.725 671.28 L 1251.85 743.131 M 1261.39 708.568 L 866.264 636.716 M 866.264 636.716 L 1267.87 636.859 M 1271.08 601.148 L 869.478 601.005 M 869.478 601.005 L 1264.65 529.436 M 1461.44 493.724 L 1261.44 493.725 M 1264.65 529.436 L 1461.44 493.724 M 1429.56 354.039 L 1232.77 389.751 M 1242.31 424.314 L 1429.56 354.039 M 1201.55 324.871 L 1373.24 222.291 M 1176.46 258.003 L 1186 292.566 M 1173.24 222.291 L 1176.46 258.003 M 1176.46 186.58 L 1173.24 222.291 M 1186 152.016 L 1176.46 186.58 M 1201.55 119.711 L 1186 152.016 M 1222.63 90.7035 L 1201.55 119.711 M 1248.55 65.925 L 1222.63 90.7035 M 1278.47 46.1721 L 1248.55 65.925 M 1373.24 222.291 L 1311.44 32.08 M 1311.44 32.08 L 1278.47 46.1721 M 21.0755 1093.62 L 0 1122.63 M 0 1122.63 L 171.69 1225.21 M 46.9918 1068.84 L 21.0755 1093.62 M 76.9161 1049.09 L 46.9918 1068.84 M 109.887 1035 L 76.9161 1049.09 M 144.843 1027.02 L 109.887 1035 M 180.663 1025.41 L 144.843 1027.02 M 216.194 1030.22 L 180.663 1025.41 M 250.295 1041.3 L 216.194 1030.22 M 281.869 1058.3 L 250.295 1041.3 M 171.69 1225.21 L 309.902 1080.65 M 291.144 1304.06 L 401.325 1137.15 M 369.75 1120.16 L 291.144 1304.06 M 422.762 1360.32 L 501.367 1176.41 M 467.266 1165.33 L 422.762 1360.32 M 562.308 1392.17 L 606.812 1197.18 M 571.281 1192.37 L 562.308 1392.17 M 705.296 1398.59 L 714.27 1198.79 M 678.45 1200.4 L 705.296 1398.59 M 847.139 1379.38 L 820.291 1181.19 M 785.334 1189.17 L 847.139 1379.38 M 983.264 1335.15 L 921.461 1144.93 M 888.491 1159.03 L 983.264 1335.15 M 1109.31 1267.32 L 1014.53 1091.2 M 984.61 1110.95 L 1109.31 1267.32 M 1221.21 1178.08 L 1096.52 1021.71 M 1070.6 1046.49 L 1221.21 1178.08 M 1247.13 1153.3 L 1122.43 996.932 M 1096.52 1021.71 L 1247.13 1153.3 M 1336.46 1041.28 L 1185.85 909.691 M 1164.77 938.699 L 1336.46 1041.28 M 1404.36 915.109 L 1232.67 812.528 M 1217.11 844.833 L 1404.36 915.109 M 1448.63 778.842 L 1261.39 708.568 M 1251.85 743.131 L 1448.63 778.842 M 1267.87 636.859 L 1467.87 636.858 M 1467.87 636.858 L 1271.08 601.148 M 531.265 456.446 L 669.478 601.005 M 669.478 601.005 L 531.265 456.446" />
<path fill="none" class="c" d=" M 794.176 757.371 L 820.092 732.592 M 1096.52 1021.71 L 820.092 732.592 M 1096.52 1021.71 L 1122.43 996.932 M 869.478 601.005 L 866.264 565.293 M 764.252 777.124 L 794.176 757.371 M 820.092 732.592 L 841.168 703.584 M 841.168 703.584 L 856.725 671.28 M 856.725 671.28 L 866.264 636.716 M 866.264 636.716 L 869.478 601.005 M 1264.65 529.436 L 866.264 565.293 M 1264.65 529.436 L 1261.44 493.725 M 1070.6 1046.49 L 1096.52 1021.71 M 1164.77 938.699 L 841.168 703.584 M 1164.77 938.699 L 1185.85 909.691 M 1217.11 844.833 L 856.725 671.28 M 1217.11 844.833 L 1232.67 812.528 M 1251.85 743.131 L 866.264 636.716 M 1251.85 743.131 L 1261.39 708.568 M 1267.87 636.859 L 869.478 601.005 M 1267.87 636.859 L 1271.08 601.148 M 866.264 565.293 L 856.725 530.73 M 856.725 530.73 L 841.167 498.425 M 841.167 498.425 L 820.092 469.417 M 820.092 469.417 L 794.176 444.638 M 794.176 444.638 L 764.251 424.886 M 764.251 424.886 L 731.281 410.793 M 731.281 410.793 L 696.324 402.815 M 696.324 402.815 L 660.505 401.206 M 660.505 401.206 L 624.974 406.019 M 624.974 406.019 L 590.873 417.099 M 590.873 417.099 L 559.298 434.09 M 559.298 434.09 L 531.265 456.446 M 731.281 791.216 L 764.252 777.124 M 1242.31 424.314 L 856.725 530.73 M 1242.31 424.314 L 1232.77 389.751 M 1201.55 324.871 L 841.167 498.425 M 1201.55 324.871 L 1186 292.566 M 1143.7 234.303 L 820.092 469.417 M 1070.6 155.52 L 794.176 444.638 M 984.61 91.0563 L 764.251 424.886 M 888.492 42.9825 L 731.281 410.793 M 785.332 12.8434 L 696.324 402.815 M 678.452 1.6088 L 660.505 401.206 M 571.281 9.63901 L 624.974 406.019 M 467.264 36.6771 L 590.873 417.099 M 369.752 81.8512 L 559.298 434.09 M 984.61 1110.95 L 1014.53 1091.2 M 696.324 799.195 L 731.281 791.216 M 888.491 1159.03 L 921.461 1144.93 M 660.505 800.803 L 696.324 799.195 M 785.334 1189.17 L 820.291 1181.19 M 624.974 795.99 L 660.505 800.803 M 678.45 1200.4 L 714.27 1198.79 M 590.873 784.91 L 624.974 795.99 M 571.281 1192.37 L 606.812 1197.18 M 559.298 767.919 L 590.873 784.91 M 467.266 1165.33 L 501.367 1176.41 M 531.265 745.564 L 559.298 767.919 M 369.75 1120.16 L 401.325 1137.15 M 507.674 718.562 L 531.265 745.564 M 281.869 1058.3 L 309.902 1080.65 M 489.284 687.781 L 507.674 718.562 M 476.685 654.212 L 489.284 687.781 M 470.283 618.932 L 476.685 654.212 M 470.283 583.077 L 470.283 618.932 M 476.685 547.797 L 470.283 583.077 M 489.284 514.228 L 476.685 547.797 M 507.674 483.448 L 489.284 514.228 M 531.265 456.446 L 507.674 483.448" />
<line x1="903.594909" y1="837.224516" x2="761.248536" y2="696.989223" class="t" />
<line x1="742.635070" y1="711.832956" x2="761.248536" y2="696.989223" class="t" />
<line x1="776.912470" y1="679.060423" x2="761.248536" y2="696.989223" class="t" />
<line x1="789.123403" y1="658.622823" x2="776.912470" y2="679.060423" class="t" />
<line x1="797.488803" y1="636.333356" x2="789.123403" y2="658.622823" class="t" />
<line x1="801.739803" y1="612.908356" x2="797.488803" y2="636.333356" class="t" />
<line x1="801.739736" y1="589.100756" x2="801.739803" y2="612.908356" class="t" />
<line x1="987.097815" y1="941.856677" x2="903.594909" y2="837.224516" class="t" />
<line x1="1013.014104" y1="917.078192" x2="903.594909" y2="837.224516" class="t" />
<line x1="1155.360446" y1="1057.313520" x2="1013.014104" y2="917.078192" class="t" />
<line x1="1000.131537" y1="565.244621" x2="801.739736" y2="589.100756" class="t" />
<line x1="857.654023" y1="875.231442" x2="742.635070" y2="711.832956" class="t" />
<line x1="721.670203" y1="723.114623" x2="742.635070" y2="711.832956" class="t" />
<line x1="942.011240" y1="791.625189" x2="776.912470" y2="679.060423" class="t" />
<line x1="971.668211" y1="739.899073" x2="789.123403" y2="658.622823" class="t" />
<line x1="991.612468" y1="683.708917" x2="797.488803" y2="636.333356" class="t" />
<line x1="1001.203070" y1="624.859953" x2="801.739803" y2="612.908356" class="t" />
<line x1="797.488670" y1="565.675756" x2="801.739736" y2="589.100756" class="t" />
<line x1="1130.785271" y1="529.484687" x2="1000.131537" y2="565.244621" class="t" />
<line x1="1329.177022" y1="505.628276" x2="1130.785271" y2="529.484687" class="t" />
<line x1="921.132242" y1="993.092128" x2="857.654023" y2="875.231442" class="t" />
<line x1="1129.444143" y1="1082.092013" x2="987.097815" y2="941.856677" class="t" />
<line x1="1063.930426" y1="850.658091" x2="942.011240" y2="791.625189" class="t" />
<line x1="1229.029106" y1="963.223007" x2="1063.930426" y2="850.658091" class="t" />
<line x1="1102.168836" y1="776.213755" x2="971.668211" y2="739.899073" class="t" />
<line x1="1284.713600" y1="857.490123" x2="1102.168836" y2="776.213755" class="t" />
<line x1="1126.500131" y1="696.138283" x2="991.612468" y2="683.708917" class="t" />
<line x1="1320.623808" y1="743.513779" x2="1126.500131" y2="696.138283" class="t" />
<line x1="1136.142338" y1="613.003945" x2="1001.203070" y2="624.859953" class="t" />
<line x1="1335.605605" y1="624.955172" x2="1136.142338" y2="613.003945" class="t" />
<line x1="988.432601" y1="506.778995" x2="797.488670" y2="565.675756" class="t" />
<line x1="789.123270" y1="543.386289" x2="797.488670" y2="565.675756" class="t" />
<line x1="966.482278" y1="451.341772" x2="789.123270" y2="543.386289" class="t" />
<line x1="776.912403" y1="522.948756" x2="789.123270" y2="543.386289" class="t" />
<line x1="934.986070" y1="400.714857" x2="776.912403" y2="522.948756" class="t" />
<line x1="761.248470" y1="505.019956" x2="776.912403" y2="522.948756" class="t" />
<line x1="894.956059" y1="356.525212" x2="761.248470" y2="505.019956" class="t" />
<line x1="742.634936" y1="490.176156" x2="761.248470" y2="505.019956" class="t" />
<line x1="847.679089" y1="320.193404" x2="742.634936" y2="490.176156" class="t" />
<line x1="721.670136" y1="478.894489" x2="742.634936" y2="490.176156" class="t" />
<line x1="794.674797" y1="292.887134" x2="721.670136" y2="478.894489" class="t" />
<line x1="699.027803" y1="471.537556" x2="721.670136" y2="478.894489" class="t" />
<line x1="737.645910" y1="275.483852" x2="699.027803" y2="471.537556" class="t" />
<line x1="675.435670" y1="468.341756" x2="699.027803" y2="471.537556" class="t" />
<line x1="678.427166" y1="268.543171" x2="675.435670" y2="468.341756" class="t" />
<line x1="651.652070" y1="469.409823" x2="675.435670" y2="468.341756" class="t" />
<line x1="618.919670" y1="272.287974" x2="651.652070" y2="469.409823" class="t" />
<line x1="628.441403" y1="474.707556" x2="651.652070" y2="469.409823" class="t" />
<line x1="561.036870" y1="286.598416" x2="628.441403" y2="474.707556" class="t" />
<line x1="606.549670" y1="484.064556" x2="628.441403" y2="474.707556" class="t" />
<line x1="506.641030" y1="311.013449" x2="606.549670" y2="484.064556" class="t" />
<line x1="586.680536" y1="497.180023" x2="606.549670" y2="484.064556" class="t" />
<line x1="457.477698" y1="344.749543" x2="586.680536" y2="497.180023" class="t" />
<line x1="805.664728" y1="904.424693" x2="721.670203" y2="723.114623" class="t" />
<line x1="699.027803" y1="730.471623" x2="721.670203" y2="723.114623" class="t" />
<line x1="1110.601609" y1="448.264872" x2="988.432601" y2="506.778995" class="t" />
<line x1="1301.545513" y1="389.368038" x2="1110.601609" y2="448.264872" class="t" />
<line x1="1076.239956" y1="371.953995" x2="966.482278" y2="451.341772" class="t" />
<line x1="1253.598951" y1="279.909457" x2="1076.239956" y2="371.953995" class="t" />
<line x1="1028.804698" y1="303.004905" x2="934.986070" y2="400.714857" class="t" />
<line x1="969.820143" y1="243.633494" x2="894.956059" y2="356.525212" class="t" />
<line x1="901.182601" y1="195.748468" x2="847.679089" y2="320.193404" class="t" />
<line x1="825.098140" y1="160.888691" x2="794.674797" y2="292.887134" class="t" />
<line x1="744.010635" y1="140.174351" x2="737.645910" y2="275.483852" class="t" />
<line x1="660.529933" y1="134.271585" x2="678.427166" y2="268.543171" class="t" />
<line x1="577.334518" y1="143.369995" x2="618.919670" y2="272.287974" class="t" />
<line x1="497.100161" y1="167.177867" x2="561.036870" y2="286.598416" class="t" />
<line x1="422.409289" y1="204.927724" x2="506.641030" y2="311.013449" class="t" />
<line x1="847.077853" y1="1031.725830" x2="805.664728" y2="904.424693" class="t" />
<line x1="1036.151161" y1="1156.490636" x2="921.132242" y2="993.092128" class="t" />
<line x1="1245.233561" y1="257.619977" x2="1253.598951" y2="279.909457" class="t" />
<line x1="1240.982531" y1="234.194974" x2="1245.233561" y2="257.619977" class="t" />
<line x1="1240.982491" y1="210.387436" x2="1240.982531" y2="234.194974" class="t" />
<line x1="1245.233484" y1="186.962476" x2="1240.982491" y2="210.387436" class="t" />
<line x1="1253.598834" y1="164.672953" x2="1245.233484" y2="186.962476" class="t" />
<line x1="1265.809657" y1="144.235336" x2="1253.598834" y2="164.672953" class="t" />
<line x1="1281.473612" y1="126.306546" x2="1265.809657" y2="144.235336" class="t" />
<line x1="1300.087141" y1="111.462759" x2="1281.473612" y2="126.306546" class="t" />
<line x1="1321.051914" y1="100.181083" x2="1300.087141" y2="111.462759" class="t" />
<line x1="749.298884" y1="923.865633" x2="699.027803" y2="730.471623" class="t" />
<line x1="675.435670" y1="733.667423" x2="699.027803" y2="730.471623" class="t" />
<line x1="767.316565" y1="1056.515509" x2="749.298884" y2="923.865633" class="t" />
<line x1="931.072254" y1="1213.035953" x2="847.077853" y2="1031.725830" class="t" />
<line x1="690.366291" y1="932.929842" x2="675.435670" y2="733.667423" class="t" />
<line x1="651.652070" y1="732.599289" x2="675.435670" y2="733.667423" class="t" />
<line x1="684.408178" y1="1066.665127" x2="690.366291" y2="932.929842" class="t" />
<line x1="817.588145" y1="1249.909405" x2="767.316565" y2="1056.515509" class="t" />
<line x1="630.763403" y1="931.325472" x2="651.652070" y2="732.599289" class="t" />
<line x1="628.441403" y1="727.301623" x2="651.652070" y2="732.599289" class="t" />
<line x1="601.022004" y1="1061.847787" x2="630.763403" y2="931.325472" class="t" />
<line x1="699.338607" y1="1265.927555" x2="684.408178" y2="1066.665127" class="t" />
<line x1="572.404476" y1="919.104382" x2="628.441403" y2="727.301623" class="t" />
<line x1="606.549670" y1="717.944623" x2="628.441403" y2="727.301623" class="t" />
<line x1="519.835350" y1="1042.218608" x2="572.404476" y2="919.104382" class="t" />
<line x1="580.133455" y1="1260.573985" x2="601.022004" y2="1061.847787" class="t" />
<line x1="517.165253" y1="896.659086" x2="606.549670" y2="717.944623" class="t" />
<line x1="586.680536" y1="704.829089" x2="606.549670" y2="717.944623" class="t" />
<line x1="443.457703" y1="1008.408016" x2="517.165253" y2="896.659086" class="t" />
<line x1="463.798491" y1="1234.021389" x2="519.835350" y2="1042.218608" class="t" />
<line x1="466.822031" y1="864.711435" x2="586.680536" y2="704.829089" class="t" />
<line x1="569.472536" y1="688.376556" x2="586.680536" y2="704.829089" class="t" />
<line x1="374.345660" y1="961.503715" x2="466.822031" y2="864.711435" class="t" />
<line x1="354.073025" y1="1187.122339" x2="443.457703" y2="1008.408016" class="t" />
<line x1="422.992324" y1="824.288186" x2="569.472536" y2="688.376556" class="t" />
<line x1="555.478736" y1="669.115823" x2="569.472536" y2="688.376556" class="t" />
<line x1="314.719244" y1="903.012816" x2="422.992324" y2="824.288186" class="t" />
<line x1="254.487068" y1="1121.385992" x2="374.345660" y2="961.503715" class="t" />
<line x1="234.617910" y1="1108.270441" x2="254.487068" y2="1121.385992" class="t" />
<line x1="387.084572" y1="776.688297" x2="555.478736" y2="669.115823" class="t" />
<line x1="545.149003" y1="647.665956" x2="555.478736" y2="669.115823" class="t" />
<line x1="266.494742" y1="834.815038" x2="387.084572" y2="776.688297" class="t" />
<line x1="212.726182" y1="1098.913384" x2="234.617910" y2="1108.270441" class="t" />
<line x1="360.253079" y1="723.441511" x2="545.149003" y2="647.665956" class="t" />
<line x1="538.815336" y1="624.716289" x2="545.149003" y2="647.665956" class="t" />
<line x1="231.222155" y1="759.101667" x2="360.253079" y2="723.441511" class="t" />
<line x1="189.515533" y1="1093.615654" x2="212.726182" y2="1098.913384" class="t" />
<line x1="343.360457" y1="666.259303" x2="538.815336" y2="624.716289" class="t" />
<line x1="536.681270" y1="601.004556" x2="538.815336" y2="624.716289" class="t" />
<line x1="210.035711" y1="678.306650" x2="343.360457" y2="666.259303" class="t" />
<line x1="165.731890" y1="1092.547537" x2="189.515533" y2="1093.615654" class="t" />
<line x1="336.949670" y1="606.980489" x2="536.681270" y2="601.004556" class="t" />
<line x1="538.815336" y1="577.292823" x2="536.681270" y2="601.004556" class="t" />
<line x1="203.616336" y1="595.028623" x2="336.949670" y2="606.980489" class="t" />
<line x1="142.139781" y1="1095.743304" x2="165.731890" y2="1092.547537" class="t" />
<line x1="341.226390" y1="547.509676" x2="538.815336" y2="577.292823" class="t" />
<line x1="545.149003" y1="554.343156" x2="538.815336" y2="577.292823" class="t" />
<line x1="212.169778" y1="511.942596" x2="341.226390" y2="547.509676" class="t" />
<line x1="119.497416" y1="1103.100194" x2="142.139781" y2="1095.743304" class="t" />
<line x1="356.053479" y1="489.757401" x2="545.149003" y2="554.343156" class="t" />
<line x1="555.478736" y1="532.893289" x2="545.149003" y2="554.343156" class="t" />
<line x1="235.421755" y1="431.717646" x2="356.053479" y2="489.757401" class="t" />
<line x1="98.532505" y1="1114.381818" x2="119.497416" y2="1103.100194" class="t" />
<line x1="380.954439" y1="435.580882" x2="555.478736" y2="532.893289" class="t" />
<line x1="569.472536" y1="513.632556" x2="555.478736" y2="532.893289" class="t" />
<line x1="272.624875" y1="356.934007" x2="380.954439" y2="435.580882" class="t" />
<line x1="79.918994" y1="1129.225584" x2="98.532505" y2="1114.381818" class="t" />
<line x1="415.128657" y1="386.721593" x2="569.472536" y2="513.632556" class="t" />
<line x1="322.582911" y1="289.995630" x2="415.128657" y2="386.721593" class="t" />
<line x1="64.255059" y1="1147.154427" x2="79.918994" y2="1129.225584" class="t" />
</svg>
