<?xml version="1.0"?>
<svg width="998" height="986" version="1.1" xmlns="http://www.w3.org/2000/svg" >
<defs>
<style type="text/css"><![CDATA[
.m {stroke:rgb(255,0,0);stroke-width:1.247500;}
.v {stroke:rgb(0,0,255);stroke-width:1.247500;}
.b {stroke:rgb(0,0,0);stroke-width:2.495000;fill:white}
.n {stroke:rgb(128,128,128);stroke-width:1.247500}
.t {stroke:rgb(0,128,0);stroke-width:1.247500;}
.c {stroke:rgb(128,128,128);stroke-width:1.247500;stroke-dasharray:9.980000, 9.980000;}
]]></style>
</defs>
<path fill="none" style="stroke:black;stroke-width:2.495000;" d=" M 513.455 985.27 L 591.481 986.562 M 591.481 986.562 L 557.106 705.816 M 800.92 405.115 L 998.301 607.7 M 998.301 607.7 L 863.791 358.889 M 727.809 432.402 L 862.319 681.213 M 862.319 681.213 L 800.92 405.115 M 650.026 438.672 L 711.425 714.77 M 711.425 714.77 L 727.809 432.402 M 557.106 705.816 L 650.026 438.672 M 573.489 423.448 L 495.705 429.718 M 495.705 429.718 L 422.595 457.005 M 422.595 457.005 L 359.724 503.231 M 359.724 503.231 L 311.878 564.878 M 287.635 791.755 L 321.375 862.12 M 321.375 862.12 L 373.059 920.587 M 373.059 920.587 L 438.753 962.706 M 438.753 962.706 L 513.455 985.27 M 863.791 358.889 L 911.637 297.242 M 504.025 387.888 L 573.489 423.448 M 446.923 334.701 L 504.025 387.888 M 406.527 267.934 L 446.923 334.701 M 666.41 156.304 L 385.914 192.669 M 385.914 192.669 L 406.527 267.934 M 37.4708 496.316 L 282.699 637.254 M 311.878 564.878 L 37.4708 496.316 M 0 646.286 L 274.407 714.848 M 282.699 637.254 L 0 646.286 M 4.93658 800.788 L 287.635 791.755 M 274.407 714.848 L 4.93658 800.788 M 935.88 70.3653 L 902.14 0 M 902.14 0 L 666.41 156.304 M 949.108 147.272 L 935.88 70.3653 M 940.816 224.867 L 949.108 147.272 M 911.637 297.242 L 940.816 224.867" />
<path fill="none" class="c" d=" M 573.489 423.448 L 557.106 705.816 M 495.705 429.718 L 557.106 705.816 M 422.595 457.005 L 557.106 705.816 M 359.724 503.231 L 557.106 705.816 M 311.878 564.878 L 557.106 705.816 M 282.699 637.254 L 557.106 705.816 M 311.878 564.878 L 282.699 637.254 M 274.407 714.848 L 557.106 705.816 M 282.699 637.254 L 274.407 714.848 M 287.635 791.755 L 557.106 705.816 M 274.407 714.848 L 287.635 791.755 M 321.375 862.12 L 557.106 705.816 M 373.059 920.587 L 557.106 705.816 M 438.753 962.706 L 557.106 705.816 M 513.455 985.27 L 557.106 705.816 M 650.026 438.672 L 573.489 423.448 M 650.026 438.672 L 666.41 156.304 M 666.41 156.304 L 573.489 423.448 M 666.41 156.304 L 504.025 387.888 M 666.41 156.304 L 446.923 334.701 M 666.41 156.304 L 406.527 267.934 M 650.026 438.672 L 727.809 432.402 M 727.809 432.402 L 666.41 156.304 M 727.809 432.402 L 800.92 405.115 M 800.92 405.115 L 666.41 156.304 M 800.92 405.115 L 863.791 358.889 M 863.791 358.889 L 666.41 156.304 M 911.637 297.242 L 666.41 156.304 M 940.816 224.867 L 666.41 156.304 M 949.108 147.272 L 666.41 156.304 M 935.88 70.3653 L 666.41 156.304" />
<line x1="542.099857" y1="519.660389" x2="593.540054" y2="522.645013" class="t" />
<line x1="491.801893" y1="530.846043" x2="542.099857" y2="519.660389" class="t" />
<line x1="446.474905" y1="555.350441" x2="491.801893" y2="530.846043" class="t" />
<line x1="409.569226" y1="591.308260" x2="446.474905" y2="555.350441" class="t" />
<line x1="383.894029" y1="635.982477" x2="409.569226" y2="591.308260" class="t" />
<line x1="371.403760" y1="685.972449" x2="383.894029" y2="635.982477" class="t" />
<line x1="210.682406" y1="566.149313" x2="383.894029" y2="635.982477" class="t" />
<line x1="373.049260" y1="737.472878" x2="371.403760" y2="685.972449" class="t" />
<line x1="185.701874" y1="666.129155" x2="371.403760" y2="685.972449" class="t" />
<line x1="388.705274" y1="786.563584" x2="373.049260" y2="737.472878" class="t" />
<line x1="188.992900" y1="769.130347" x2="373.049260" y2="737.472878" class="t" />
<line x1="417.179927" y1="829.507672" x2="388.705274" y2="786.563584" class="t" />
<line x1="456.305801" y1="863.036255" x2="417.179927" y2="829.507672" class="t" />
<line x1="503.104627" y1="884.597126" x2="456.305801" y2="863.036255" class="t" />
<line x1="554.013964" y1="892.549065" x2="503.104627" y2="884.597126" class="t" />
<line x1="629.974668" y1="339.474442" x2="593.540054" y2="522.645013" class="t" />
<line x1="681.414849" y1="342.459159" x2="629.974668" y2="339.474442" class="t" />
<line x1="581.307908" y1="322.546706" x2="629.974668" y2="339.474442" class="t" />
<line x1="539.119126" y1="292.964434" x2="581.307908" y2="322.546706" class="t" />
<line x1="506.619760" y1="252.979530" x2="539.119126" y2="292.964434" class="t" />
<line x1="486.283682" y1="205.635704" x2="506.619760" y2="252.979530" class="t" />
<line x1="696.420107" y1="528.614412" x2="681.414849" y2="342.459159" class="t" />
<line x1="731.712821" y1="331.273664" x2="681.414849" y2="342.459159" class="t" />
<line x1="797.016129" y1="506.243419" x2="731.712821" y2="331.273664" class="t" />
<line x1="777.039937" y1="306.769337" x2="731.712821" y2="331.273664" class="t" />
<line x1="887.670385" y1="457.234752" x2="777.039937" y2="306.769337" class="t" />
<line x1="813.945734" y1="270.811536" x2="777.039937" y2="306.769337" class="t" />
<line x1="839.620977" y1="226.137430" x2="813.945734" y2="270.811536" class="t" />
<line x1="852.111328" y1="176.147506" x2="839.620977" y2="226.137430" class="t" />
<line x1="850.465953" y1="124.647093" x2="852.111328" y2="176.147506" class="t" />
<line x1="834.810102" y1="75.556412" x2="850.465953" y2="124.647093" class="t" />
</svg>
