<?xml version="1.0"?>
<svg width="998" height="986" version="1.1" xmlns="http://www.w3.org/2000/svg" >
<defs>
<style type="text/css"><![CDATA[
.m {stroke:rgb(255,0,0);stroke-width:1.247500;}
.v {stroke:rgb(0,0,255);stroke-width:1.247500;}
.b {stroke:rgb(0,0,0);stroke-width:2.495000;fill:white}
.n {stroke:rgb(128,128,128);stroke-width:1.247500}
.t {stroke:rgb(0,128,0);stroke-width:1.247500;}
.c {stroke:rgb(128,128,128);stroke-width:1.247500;stroke-dasharray:9.980000, 9.980000;}
]]></style>
</defs>
<path fill="none" style="stroke:black;stroke-width:2.495000;" d=" M 513.455 985.27 L 591.481 986.562 M 591.481 986.562 L 557.106 705.816 M 800.92 405.115 L 998.301 607.7 M 998.301 607.7 L 863.791 358.889 M 727.809 432.402 L 862.319 681.213 M 862.319 681.213 L 800.92 405.115 M 650.026 438.672 L 711.425 714.77 M 711.425 714.77 L 727.809 432.402 M 557.106 705.816 L 650.026 438.672 M 573.489 423.448 L 495.705 429.718 M 495.705 429.718 L 422.595 457.005 M 422.595 457.005 L 359.724 503.231 M 359.724 503.231 L 311.878 564.878 M 287.635 791.755 L 321.375 862.12 M 321.375 862.12 L 373.059 920.587 M 373.059 920.587 L 438.753 962.706 M 438.753 962.706 L 513.455 985.27 M 863.791 358.889 L 911.637 297.242 M 504.025 387.888 L 573.489 423.448 M 446.923 334.701 L 504.025 387.888 M 406.527 267.934 L 446.923 334.701 M 666.41 156.304 L 385.914 192.669 M 385.914 192.669 L 406.527 267.934 M 37.4708 496.316 L 282.699 637.254 M 311.878 564.878 L 37.4708 496.316 M 0 646.286 L 274.407 714.848 M 282.699 637.254 L 0 646.286 M 4.93658 800.788 L 287.635 791.755 M 274.407 714.848 L 4.93658 800.788 M 935.88 70.3653 L 902.14 0 M 902.14 0 L 666.41 156.304 M 949.108 147.272 L 935.88 70.3653 M 940.816 224.867 L 949.108 147.272 M 911.637 297.242 L 940.816 224.867" />
<path fill="none" class="c" d=" M 573.489 423.448 L 557.106 705.816 M 495.705 429.718 L 557.106 705.816 M 422.595 457.005 L 557.106 705.816 M 359.724 503.231 L 557.106 705.816 M 311.878 564.878 L 557.106 705.816 M 282.699 637.254 L 557.106 705.816 M 311.878 564.878 L 282.699 637.254 M 274.407 714.848 L 557.106 705.816 M 282.699 637.254 L 274.407 714.848 M 287.635 791.755 L 557.106 705.816 M 274.407 714.848 L 287.635 791.755 M 321.375 862.12 L 557.106 705.816 M 373.059 920.587 L 557.106 705.816 M 438.753 962.706 L 557.106 705.816 M 513.455 985.27 L 557.106 705.816 M 650.026 438.672 L 573.489 423.448 M 650.026 438.672 L 666.41 156.304 M 666.41 156.304 L 573.489 423.448 M 666.41 156.304 L 504.025 387.888 M 666.41 156.304 L 446.923 334.701 M 666.41 156.304 L 406.527 267.934 M 650.026 438.672 L 727.809 432.402 M 727.809 432.402 L 666.41 156.304 M 727.809 432.402 L 800.92 405.115 M 800.92 405.115 L 666.41 156.304 M 800.92 405.115 L 863.791 358.889 M 863.791 358.889 L 666.41 156.304 M 911.637 297.242 L 666.41 156.304 M 940.816 224.867 L 666.41 156.304 M 949.108 147.272 L 666.41 156.304 M 935.88 70.3653 L 666.41 156.304" />
</svg>
