<?xml version="1.0"?>
<svg width="1088" height="1101" version="1.1" xmlns="http://www.w3.org/2000/svg" >
<defs>
<style type="text/css"><![CDATA[
.m {stroke:rgb(255,0,0);stroke-width:1.376250;}
.v {stroke:rgb(0,0,255);stroke-width:1.376250;}
.b {stroke:rgb(0,0,0);stroke-width:2.752500;fill:white}
.n {stroke:rgb(128,128,128);stroke-width:1.376250}
.t {stroke:rgb(0,128,0);stroke-width:1.376250;}
.c {stroke:rgb(128,128,128);stroke-width:1.376250;stroke-dasharray:10.880000, 10.880000;}
]]></style>
</defs>
<path fill="none" style="stroke:black;stroke-width:2.752500;" d=" M 783.127 669.676 L 1061.71 718.608 M 1061.71 718.608 L 807.101 595.414 M 739.772 734.561 L 994.376 857.755 M 994.376 857.755 L 783.127 669.676 M 680.337 785.129 L 891.587 973.208 M 891.587 973.208 L 739.772 734.561 M 609.346 817.531 L 761.16 1056.18 M 761.16 1056.18 L 680.337 785.129 M 532.203 829.301 L 613.027 1100.35 M 613.027 1100.35 L 609.346 817.531 M 454.779 819.542 L 458.459 1102.36 M 458.459 1102.36 L 532.203 829.301 M 382.969 788.998 L 309.225 1062.06 M 309.225 1062.06 L 454.779 819.542 M 322.239 739.993 L 176.684 982.509 M 176.684 982.509 L 382.969 788.998 M 277.211 676.259 L 70.9263 869.771 M 70.9263 869.771 L 322.239 739.993 M 251.312 602.645 L 0 732.422 M 0 732.422 L 277.211 676.259 M 628.363 281.846 L 652.087 0 M 652.087 0 L 552.248 264.636 M 696.878 319.201 L 796.718 54.5652 M 796.718 54.5652 L 628.363 281.846 M 752.577 373.856 L 920.932 146.575 M 920.932 146.575 L 696.878 319.201 M 791.222 441.651 L 1015.28 269.025 M 1015.28 269.025 L 752.577 373.856 M 1072.57 412.597 L 791.222 441.651 M 807.101 595.414 L 1088.45 566.359" />
<path fill="none" class="c" d=" M 739.772 734.561 L 783.127 669.676 M 783.127 669.676 L 528.523 546.482 M 528.523 546.482 L 739.772 734.561 M 528.523 546.482 L 680.337 785.129 M 609.346 817.531 L 680.337 785.129 M 528.523 546.482 L 609.346 817.531 M 532.203 829.301 L 609.346 817.531 M 528.523 546.482 L 532.203 829.301 M 454.779 819.542 L 532.203 829.301 M 528.523 546.482 L 454.779 819.542 M 382.969 788.998 L 454.779 819.542 M 528.523 546.482 L 382.969 788.998 M 322.239 739.993 L 382.969 788.998 M 528.523 546.482 L 322.239 739.993 M 277.211 676.259 L 322.239 739.993 M 528.523 546.482 L 277.211 676.259 M 251.312 602.645 L 277.211 676.259 M 783.127 669.676 L 807.101 595.414 M 807.101 595.414 L 528.523 546.482 M 680.337 785.129 L 739.772 734.561 M 807.101 595.414 L 809.869 517.427 M 809.869 517.427 L 528.523 546.482 M 809.869 517.427 L 791.222 441.651 M 791.222 441.651 L 528.523 546.482 M 791.222 441.651 L 752.577 373.856 M 752.577 373.856 L 528.523 546.482 M 752.577 373.856 L 696.878 319.201 M 696.878 319.201 L 528.523 546.482 M 696.878 319.201 L 628.363 281.846 M 628.363 281.846 L 528.523 546.482 M 628.363 281.846 L 552.248 264.636" />
<line x1="839.091969" y1="753.997199" x2="683.807465" y2="650.239500" class="t" />
<line x1="706.250294" y1="603.857167" x2="683.807465" y2="650.239500" class="t" />
<line x1="649.544243" y1="688.723796" x2="683.807465" y2="650.239500" class="t" />
<line x1="606.068866" y1="716.380493" x2="649.544243" y2="688.723796" class="t" />
<line x1="683.614679" y1="886.279235" x2="606.068866" y2="716.380493" class="t" />
<line x1="556.690669" y1="731.104431" x2="606.068866" y2="716.380493" class="t" />
<line x1="584.858587" y1="915.727039" x2="556.690669" y2="731.104431" class="t" />
<line x1="505.168320" y1="731.774819" x2="556.690669" y2="731.104431" class="t" />
<line x1="481.813555" y1="917.067835" x2="505.168320" y2="731.774819" class="t" />
<line x1="455.423724" y1="718.340560" x2="505.168320" y2="731.774819" class="t" />
<line x1="382.324464" y1="890.199326" x2="455.423724" y2="718.340560" class="t" />
<line x1="411.243500" y1="691.824355" x2="455.423724" y2="718.340560" class="t" />
<line x1="293.963959" y1="837.166864" x2="411.243500" y2="691.824355" class="t" />
<line x1="375.990686" y1="654.244667" x2="411.243500" y2="691.824355" class="t" />
<line x1="223.458453" y1="762.007619" x2="375.990686" y2="654.244667" class="t" />
<line x1="352.348642" y1="608.461972" x2="375.990686" y2="654.244667" class="t" />
<line x1="176.174318" y1="670.442169" x2="352.348642" y2="608.461972" class="t" />
<line x1="883.977646" y1="661.232459" x2="706.250294" y2="603.857167" class="t" />
<line x1="715.164434" y1="553.107468" x2="706.250294" y2="603.857167" class="t" />
<line x1="770.565505" y1="830.965812" x2="649.544243" y2="688.723796" class="t" />
<line x1="901.805895" y1="559.733237" x2="715.164434" y2="553.107468" class="t" />
<line x1="709.871362" y1="501.853348" x2="715.164434" y2="553.107468" class="t" />
<line x1="891.219758" y1="457.224922" x2="709.871362" y2="501.853348" class="t" />
<line x1="690.773956" y1="453.996386" x2="709.871362" y2="501.853348" class="t" />
<line x1="853.024843" y1="361.510809" x2="690.773956" y2="453.996386" class="t" />
<line x1="659.325917" y1="413.179459" x2="690.773956" y2="453.996386" class="t" />
<line x1="790.128931" y1="279.877195" x2="659.325917" y2="413.179459" class="t" />
<line x1="617.921078" y1="382.509482" x2="659.325917" y2="413.179459" class="t" />
<line x1="707.319381" y1="218.537282" x2="617.921078" y2="382.509482" class="t" />
<line x1="569.711236" y1="364.321218" x2="617.921078" y2="382.509482" class="t" />
<line x1="610.899388" y1="182.160622" x2="569.711236" y2="364.321218" class="t" />
</svg>
