<?xml version="1.0"?>
<svg width="793" height="1034" version="1.1" xmlns="http://www.w3.org/2000/svg" >
<defs>
<style type="text/css"><![CDATA[
.m {stroke:rgb(255,0,0);stroke-width:1.292500;}
.v {stroke:rgb(0,0,255);stroke-width:1.292500;}
.b {stroke:rgb(0,0,0);stroke-width:2.585000;fill:white}
.n {stroke:rgb(128,128,128);stroke-width:1.292500}
.t {stroke:rgb(0,128,0);stroke-width:1.292500;}
.c {stroke:rgb(128,128,128);stroke-width:1.292500;stroke-dasharray:7.930000, 7.930000;}
]]></style>
</defs>
<path fill="none" style="stroke:black;stroke-width:2.585000;" d=" M 501.76 587.196 L 784.128 603.579 M 784.128 603.579 L 516.984 510.659 M 466.201 656.66 L 733.345 749.58 M 733.345 749.58 L 501.76 587.196 M 413.013 713.762 L 644.598 876.147 M 644.598 876.147 L 466.201 656.66 M 346.246 754.158 L 524.643 973.645 M 524.643 973.645 L 413.013 713.762 M 382.612 1034.65 L 346.246 754.158 M 270.981 774.771 L 204.214 815.166 M 204.214 815.166 L 151.027 872.269 M 151.027 872.269 L 115.468 941.733 M 115.468 941.733 L 100.244 1018.27 M 100.244 1018.27 L 382.612 1034.65 M 454.428 0 L 418.868 69.4637 M 686.012 162.384 L 454.428 0 M 418.868 69.4637 L 403.644 146 M 403.644 146 L 409.915 223.784 M 409.915 223.784 L 437.201 296.894 M 483.428 359.765 L 686.012 162.384 M 510.714 432.876 L 759.525 298.366 M 759.525 298.366 L 483.428 359.765 M 793.082 449.26 L 510.714 432.876 M 516.984 510.659 L 793.082 449.26 M 192.949 774.032 L 270.981 774.771 M 118.088 751.998 L 192.949 774.032 M 52.0973 710.347 L 118.088 751.998 M 234.616 494.275 L 0 652.248 M 0 652.248 L 52.0973 710.347 M 225.584 211.577 L 148.677 224.805 M 148.677 224.805 L 234.616 494.275 M 303.179 219.868 L 225.584 211.577 M 375.554 249.048 L 303.179 219.868 M 437.201 296.894 L 375.554 249.048" />
<path fill="none" class="c" d=" M 501.76 587.196 L 516.984 510.659 M 234.616 494.275 L 501.76 587.196 M 516.984 510.659 L 234.616 494.275 M 466.201 656.66 L 501.76 587.196 M 234.616 494.275 L 466.201 656.66 M 413.013 713.762 L 466.201 656.66 M 234.616 494.275 L 413.013 713.762 M 346.246 754.158 L 413.013 713.762 M 234.616 494.275 L 346.246 754.158 M 270.981 774.771 L 346.246 754.158 M 234.616 494.275 L 270.981 774.771 M 234.616 494.275 L 192.949 774.032 M 234.616 494.275 L 118.088 751.998 M 234.616 494.275 L 52.0973 710.347 M 516.984 510.659 L 510.714 432.876 M 510.714 432.876 L 234.616 494.275 M 270.981 774.771 L 382.612 1034.65 M 204.214 815.166 L 382.612 1034.65 M 151.027 872.269 L 382.612 1034.65 M 115.468 941.733 L 382.612 1034.65 M 510.714 432.876 L 483.428 359.765 M 483.428 359.765 L 234.616 494.275 M 483.428 359.765 L 437.201 296.894 M 437.201 296.894 L 234.616 494.275 M 686.012 162.384 L 437.201 296.894 M 375.554 249.048 L 234.616 494.275 M 686.012 162.384 L 409.915 223.784 M 303.179 219.868 L 234.616 494.275 M 686.012 162.384 L 403.644 146 M 225.584 211.577 L 234.616 494.275 M 686.012 162.384 L 418.868 69.4637" />
<line x1="600.957266" y1="567.144854" x2="417.786723" y2="530.710150" class="t" />
<line x1="400.858982" y1="579.376904" x2="417.786723" y2="530.710150" class="t" />
<line x1="420.771444" y1="479.270036" x2="417.786723" y2="530.710150" class="t" />
<line x1="567.101774" y1="664.478439" x2="400.858982" y2="579.376904" class="t" />
<line x1="371.276704" y1="621.565745" x2="400.858982" y2="579.376904" class="t" />
<line x1="507.937202" y1="748.856143" x2="371.276704" y2="621.565745" class="t" />
<line x1="331.291797" y1="654.065107" x2="371.276704" y2="621.565745" class="t" />
<line x1="427.967319" y1="813.854903" x2="331.291797" y2="654.065107" class="t" />
<line x1="283.947909" y1="674.401206" x2="331.291797" y2="654.065107" class="t" />
<line x1="333.279834" y1="854.526996" x2="283.947909" y2="674.401206" class="t" />
<line x1="232.848856" y1="681.026055" x2="283.947909" y2="674.401206" class="t" />
<line x1="181.884313" y1="673.435301" x2="232.848856" y2="681.026055" class="t" />
<line x1="134.933772" y1="652.206829" x2="181.884313" y2="673.435301" class="t" />
<line x1="95.571152" y1="618.956595" x2="134.933772" y2="652.206829" class="t" />
<line x1="606.926699" y1="464.264806" x2="420.771444" y2="479.270036" class="t" />
<line x1="409.585956" y1="428.972062" x2="420.771444" y2="479.270036" class="t" />
<line x1="285.935973" y1="874.863186" x2="333.279834" y2="854.526996" class="t" />
<line x1="245.951143" y1="907.362686" x2="285.935973" y2="874.863186" class="t" />
<line x1="216.369011" y1="949.551534" x2="245.951143" y2="907.362686" class="t" />
<line x1="199.441385" y1="998.218251" x2="216.369011" y2="949.551534" class="t" />
<line x1="584.555721" y1="363.668781" x2="409.585956" y2="428.972062" class="t" />
<line x1="385.081681" y1="383.645025" x2="409.585956" y2="428.972062" class="t" />
<line x1="535.547047" y1="273.014532" x2="385.081681" y2="383.645025" class="t" />
<line x1="349.123891" y1="346.739226" x2="385.081681" y2="383.645025" class="t" />
<line x1="511.042707" y1="227.687520" x2="535.547047" y2="273.014532" class="t" />
<line x1="304.449694" y1="321.063863" x2="349.123891" y2="346.739226" class="t" />
<line x1="499.857063" y1="177.389513" x2="511.042707" y2="227.687520" class="t" />
<line x1="254.459768" y1="308.573501" x2="304.449694" y2="321.063863" class="t" />
<line x1="502.841692" y1="125.949316" x2="499.857063" y2="177.389513" class="t" />
<line x1="202.959314" y1="310.218902" x2="254.459768" y2="308.573501" class="t" />
<line x1="519.769409" y1="77.282526" x2="502.841692" y2="125.949316" class="t" />
</svg>
