<?xml version="1.0"?>
<svg width="1085" height="1149" version="1.1" xmlns="http://www.w3.org/2000/svg" >
<defs>
<style type="text/css"><![CDATA[
.m {stroke:rgb(255,0,0);stroke-width:1.436250;}
.v {stroke:rgb(0,0,255);stroke-width:1.436250;}
.b {stroke:rgb(0,0,0);stroke-width:2.872500;fill:white}
.n {stroke:rgb(128,128,128);stroke-width:1.436250}
.t {stroke:rgb(0,128,0);stroke-width:1.436250;}
.c {stroke:rgb(128,128,128);stroke-width:1.436250;stroke-dasharray:10.850000, 10.850000;}
]]></style>
</defs>
<path fill="none" style="stroke:black;stroke-width:2.872500;" d=" M 768.476 585.335 L 1039.52 666.158 M 1039.52 666.158 L 800.878 514.344 M 717.908 644.77 L 956.555 796.584 M 956.555 796.584 L 768.476 585.335 M 841.102 899.374 L 717.908 644.77 M 653.023 688.125 L 602.455 747.56 M 602.455 747.56 L 570.053 818.551 M 570.053 818.551 L 558.283 895.694 M 558.283 895.694 L 568.041 973.118 M 568.041 973.118 L 598.585 1044.93 M 598.585 1044.93 L 647.59 1105.66 M 647.59 1105.66 L 711.325 1150.69 M 711.325 1150.69 L 841.102 899.374 M 207.652 443.377 L 252.227 379.325 M 0 251.334 L 207.652 443.377 M 277.602 305.53 L 0 251.334 M 322.177 241.477 L 69.9501 113.486 M 69.9501 113.486 L 277.602 305.53 M 382.558 192.043 L 174.906 0 M 174.906 0 L 322.177 241.477 M 812.647 437.201 L 1085.71 363.457 M 1085.71 363.457 L 802.889 359.777 M 1083.7 518.024 L 812.647 437.201 M 800.878 514.344 L 1083.7 518.024 M 578.761 712.099 L 653.023 688.125 M 500.773 714.867 L 578.761 712.099 M 424.998 696.219 L 500.773 714.867 M 357.202 657.575 L 424.998 696.219 M 302.547 601.875 L 357.202 657.575 M 265.193 533.36 L 302.547 601.875 M 247.983 457.246 L 265.193 533.36 M 252.227 379.325 L 247.983 457.246 M 529.829 433.521 L 382.558 192.043 M 802.889 359.777 L 529.829 433.521" />
<path fill="none" class="c" d=" M 717.908 644.77 L 529.829 433.521 M 653.023 688.125 L 717.908 644.77 M 529.829 433.521 L 653.023 688.125 M 529.829 433.521 L 578.761 712.099 M 529.829 433.521 L 500.773 714.867 M 529.829 433.521 L 424.998 696.219 M 529.829 433.521 L 357.202 657.575 M 529.829 433.521 L 302.547 601.875 M 529.829 433.521 L 265.193 533.36 M 529.829 433.521 L 247.983 457.246 M 529.829 433.521 L 252.227 379.325 M 277.602 305.53 L 252.227 379.325 M 529.829 433.521 L 277.602 305.53 M 322.177 241.477 L 277.602 305.53 M 529.829 433.521 L 322.177 241.477 M 382.558 192.043 L 322.177 241.477 M 653.023 688.125 L 841.102 899.374 M 602.455 747.56 L 841.102 899.374 M 570.053 818.551 L 841.102 899.374 M 558.283 895.694 L 841.102 899.374 M 568.041 973.118 L 841.102 899.374 M 598.585 1044.93 L 841.102 899.374 M 647.59 1105.66 L 841.102 899.374 M 0 251.334 L 252.227 379.325 M 768.476 585.335 L 529.829 433.521 M 800.878 514.344 L 529.829 433.521 M 717.908 644.77 L 768.476 585.335 M 800.878 514.344 L 812.647 437.201 M 812.647 437.201 L 529.829 433.521 M 768.476 585.335 L 800.878 514.344 M 812.647 437.201 L 802.889 359.777" />
<line x1="672.070589" y1="554.541863" x2="633.586293" y2="588.805085" class="t" />
<line x1="737.343992" y1="744.089588" x2="633.586293" y2="588.805085" class="t" />
<line x1="587.203960" y1="611.247913" x2="633.586293" y2="588.805085" class="t" />
<line x1="536.454196" y1="620.162065" x2="587.203960" y2="611.247913" class="t" />
<line x1="485.200072" y1="614.868991" x2="536.454196" y2="620.162065" class="t" />
<line x1="437.343084" y1="595.771536" x2="485.200072" y2="614.868991" class="t" />
<line x1="396.526154" y1="564.323489" x2="437.343084" y2="595.771536" class="t" />
<line x1="365.856303" y1="522.918730" x2="396.526154" y2="564.323489" class="t" />
<line x1="347.668046" y1="474.708890" x2="365.856303" y2="522.918730" class="t" />
<line x1="343.345914" y1="423.363751" x2="347.668046" y2="474.708890" class="t" />
<line x1="353.218983" y1="372.791778" x2="343.345914" y2="423.363751" class="t" />
<line x1="176.609455" y1="312.062758" x2="353.218983" y2="372.791778" class="t" />
<line x1="376.535716" y1="326.842479" x2="353.218983" y2="372.791778" class="t" />
<line x1="223.242903" y1="220.164292" x2="376.535716" y2="326.842479" class="t" />
<line x1="411.521092" y1="289.013600" x2="376.535716" y2="326.842479" class="t" />
<line x1="293.213447" y1="144.506737" x2="411.521092" y2="289.013600" class="t" />
<line x1="698.859744" y1="778.352747" x2="737.343992" y2="744.089588" class="t" />
<line x1="671.203014" y1="821.828095" x2="698.859744" y2="778.352747" class="t" />
<line x1="656.479033" y1="871.206291" x2="671.203014" y2="821.828095" class="t" />
<line x1="655.808663" y1="922.728662" x2="656.479033" y2="871.206291" class="t" />
<line x1="669.242868" y1="972.473245" x2="655.808663" y2="922.728662" class="t" />
<line x1="695.758999" y1="1016.653429" x2="669.242868" y2="972.473245" class="t" />
<line x1="733.338710" y1="1051.906325" x2="695.758999" y2="1016.653429" class="t" />
<line x1="153.292708" y1="358.011981" x2="176.609455" y2="312.062758" class="t" />
<line x1="699.727286" y1="511.066485" x2="672.070589" y2="554.541863" class="t" />
<line x1="714.451205" y1="461.688351" x2="699.727286" y2="511.066485" class="t" />
<line x1="814.312605" y1="675.563124" x2="672.070589" y2="554.541863" class="t" />
<line x1="899.073814" y1="489.856203" x2="714.451205" y2="461.688351" class="t" />
<line x1="715.121595" y1="410.166007" x2="714.451205" y2="461.688351" class="t" />
<line x1="869.626029" y1="588.612298" x2="699.727286" y2="511.066485" class="t" />
<line x1="900.414609" y1="386.811440" x2="715.121595" y2="410.166007" class="t" />
</svg>
