<?xml version="1.0"?>
<svg width="1062" height="910" version="1.1" xmlns="http://www.w3.org/2000/svg" >
<defs>
<style type="text/css"><![CDATA[
.m {stroke:rgb(255,0,0);stroke-width:1.327500;}
.v {stroke:rgb(0,0,255);stroke-width:1.327500;}
.b {stroke:rgb(0,0,0);stroke-width:2.655000;fill:white}
.n {stroke:rgb(128,128,128);stroke-width:1.327500}
.t {stroke:rgb(0,128,0);stroke-width:1.327500;}
.c {stroke:rgb(128,128,128);stroke-width:1.327500;stroke-dasharray:10.620000, 10.620000;}
]]></style>
</defs>
<path fill="none" style="stroke:black;stroke-width:2.655000;" d=" M 492.553 910.749 L 503.215 789.209 M 391.467 842.43 L 492.553 910.749 M 402.13 720.89 L 391.467 842.43 M 503.215 789.209 L 498.677 911.132 M 612.014 733.994 L 510.929 665.675 M 276.544 897.262 L 287.207 775.722 M 287.207 775.722 L 396.006 720.507 M 607.476 855.917 L 612.014 733.994 M 498.677 911.132 L 607.476 855.917 M 515.467 543.752 L 612.99 617.067 M 612.99 617.067 L 724.426 567.393 M 510.929 665.675 L 515.467 543.752 M 294.921 652.188 L 186.122 707.402 M 839.426 512.722 L 940.512 581.041 M 727.989 562.397 L 839.426 512.722 M 724.426 567.393 L 626.904 494.078 M 406.669 598.967 L 402.13 720.89 M 175.459 828.943 L 66.6608 884.157 M 66.6608 884.157 L 276.544 897.262 M 64.0222 878.617 L 175.459 828.943 M 186.122 707.402 L 64.0222 878.617 M 183.483 701.862 L 294.921 652.188 M 850.089 391.182 L 738.652 440.857 M 626.904 494.078 L 727.989 562.397 M 396.006 720.507 L 406.669 598.967 M 940.512 581.041 L 1062.61 409.826 M 1062.61 409.826 L 951.174 459.501 M 101.085 384.923 L 0 316.604 M 0 316.604 L 90.4227 506.463 M 305.583 530.648 L 194.146 580.322 M 194.146 580.322 L 183.483 701.862 M 951.174 459.501 L 1059.97 404.286 M 1059.97 404.286 L 850.089 391.182 M 738.652 440.857 L 847.45 385.642 M 637.567 372.537 L 526.13 422.212 M 414.382 475.433 L 305.583 530.648 M 3.56282 311.608 L 101.085 384.923 M 212.522 335.248 L 3.56282 311.608 M 90.4227 506.463 L 201.86 456.788 M 201.86 456.788 L 302.945 525.108 M 754.389 190.242 L 663.967 0.382394 M 663.967 0.382394 L 653.304 121.923 M 746.365 317.323 L 637.567 372.537 M 847.45 385.642 L 746.365 317.323 M 526.13 422.212 L 634.928 366.997 M 302.945 525.108 L 414.382 475.433 M 125.663 140.392 L 216.085 330.252 M 226.748 208.712 L 125.663 140.392 M 313.608 403.567 L 212.522 335.248 M 653.304 121.923 L 657.842 0 M 657.842 0 L 544.506 177.138 M 645.591 245.457 L 754.389 190.242 M 634.928 366.997 L 645.591 245.457 M 129.225 135.396 L 226.748 208.712 M 338.185 159.037 L 129.225 135.396 M 216.085 330.252 L 313.608 403.567 M 544.506 177.138 L 533.843 298.678 M 533.843 298.678 L 538.381 176.755 M 327.522 280.577 L 338.185 159.037 M 425.044 353.893 L 327.522 280.577 M 538.381 176.755 L 429.583 231.97 M 429.583 231.97 L 425.044 353.893" />
<path fill="none" class="c" d=" M 414.382 475.433 L 515.467 543.752 M 515.467 543.752 L 425.044 353.893 M 425.044 353.893 L 414.382 475.433 M 425.044 353.893 L 302.945 525.108 M 313.608 403.567 L 302.945 525.108 M 425.044 353.893 L 313.608 403.567 M 425.044 353.893 L 216.085 330.252 M 327.522 280.577 L 216.085 330.252 M 305.583 530.648 L 515.467 543.752 M 515.467 543.752 L 526.13 422.212 M 526.13 422.212 L 425.044 353.893 M 212.522 335.248 L 302.945 525.108 M 338.185 159.037 L 216.085 330.252 M 406.669 598.967 L 515.467 543.752 M 305.583 530.648 L 406.669 598.967 M 305.583 530.648 L 396.006 720.507 M 515.467 543.752 L 637.567 372.537 M 212.522 335.248 L 201.86 456.788 M 634.928 366.997 L 425.044 353.893 M 634.928 366.997 L 533.843 298.678 M 533.843 298.678 L 425.044 353.893 M 226.748 208.712 L 216.085 330.252 M 338.185 159.037 L 226.748 208.712 M 634.928 366.997 L 544.506 177.138 M 538.381 176.755 L 425.044 353.893 M 402.13 720.89 L 515.467 543.752 M 294.921 652.188 L 396.006 720.507 M 305.583 530.648 L 294.921 652.188 M 515.467 543.752 L 626.904 494.078 M 626.904 494.078 L 637.567 372.537 M 212.522 335.248 L 90.4227 506.463 M 645.591 245.457 L 544.506 177.138 M 402.13 720.89 L 510.929 665.675 M 186.122 707.402 L 396.006 720.507 M 515.467 543.752 L 724.426 567.393 M 305.583 530.648 L 183.483 701.862 M 727.989 562.397 L 637.567 372.537 M 727.989 562.397 L 738.652 440.857 M 738.652 440.857 L 637.567 372.537 M 101.085 384.923 L 90.4227 506.463 M 212.522 335.248 L 101.085 384.923 M 754.389 190.242 L 544.506 177.138 M 402.13 720.89 L 612.014 733.994 M 186.122 707.402 L 287.207 775.722 M 727.989 562.397 L 850.089 391.182 M 847.45 385.642 L 637.567 372.537 M 754.389 190.242 L 653.304 121.923 M 653.304 121.923 L 544.506 177.138 M 402.13 720.89 L 503.215 789.209 M 402.13 720.89 L 492.553 910.749 M 503.215 789.209 L 612.014 733.994 M 498.677 911.132 L 612.014 733.994 M 186.122 707.402 L 276.544 897.262 M 175.459 828.943 L 276.544 897.262 M 186.122 707.402 L 175.459 828.943 M 839.426 512.722 L 850.089 391.182 M 940.512 581.041 L 850.089 391.182 M 940.512 581.041 L 951.174 459.501 M 951.174 459.501 L 850.089 391.182" />
<line x1="411.810723" y1="516.610860" x2="451.631115" y2="457.692532" class="t" />
<line x1="488.880473" y1="439.952162" x2="451.631115" y2="457.692532" class="t" />
<line x1="380.790357" y1="451.477665" x2="451.631115" y2="457.692532" class="t" />
<line x1="347.198929" y1="427.522428" x2="380.790357" y2="451.477665" class="t" />
<line x1="276.358195" y1="421.307579" x2="347.198929" y2="427.522428" class="t" />
<line x1="318.245705" y1="362.570587" x2="347.198929" y2="427.522428" class="t" />
<line x1="322.883871" y1="321.573962" x2="318.245705" y2="362.570587" class="t" />
<line x1="293.930648" y1="256.622076" x2="322.883871" y2="321.573962" class="t" />
<line x1="409.239656" y1="557.788825" x2="411.810723" y2="516.610860" class="t" />
<line x1="559.721244" y1="446.167050" x2="488.880473" y2="439.952162" class="t" />
<line x1="528.700861" y1="381.033821" x2="488.880473" y2="439.952162" class="t" />
<line x1="239.108871" y1="439.047920" x2="276.358195" y2="421.307579" class="t" />
<line x1="260.339263" y1="232.666836" x2="293.930648" y2="256.622076" class="t" />
<line x1="441.421959" y1="621.202818" x2="409.239656" y2="557.788825" class="t" />
<line x1="369.419208" y1="616.707167" x2="409.239656" y2="557.788825" class="t" />
<line x1="332.169844" y1="634.447517" x2="369.419208" y2="616.707167" class="t" />
<line x1="593.312614" y1="470.122364" x2="559.721244" y2="446.167050" class="t" />
<line x1="168.268170" y1="432.833081" x2="239.108871" y2="439.047920" class="t" />
<line x1="531.271891" y1="339.855888" x2="528.700861" y2="381.033821" class="t" />
<line x1="571.092290" y1="280.937537" x2="531.271891" y2="339.855888" class="t" />
<line x1="499.089599" y1="276.441904" x2="531.271891" y2="339.855888" class="t" />
<line x1="189.498509" y1="226.451989" x2="260.339263" y2="232.666836" class="t" />
<line x1="231.386019" y1="167.714953" x2="260.339263" y2="232.666836" class="t" />
<line x1="608.341616" y1="263.197099" x2="571.092290" y2="280.937537" class="t" />
<line x1="464.336246" y1="254.205859" x2="499.089599" y2="276.441904" class="t" />
<line x1="476.175293" y1="643.438863" x2="441.421959" y2="621.202818" class="t" />
<line x1="292.349424" y1="693.365814" x2="332.169844" y2="634.447517" class="t" />
<line x1="261.329101" y1="628.232576" x2="332.169844" y2="634.447517" class="t" />
<line x1="622.265847" y1="535.074209" x2="593.312614" y2="470.122364" class="t" />
<line x1="664.153362" y1="476.337246" x2="593.312614" y2="470.122364" class="t" />
<line x1="134.676778" y1="408.877860" x2="168.268170" y2="432.833081" class="t" />
<line x1="648.161977" y1="204.278762" x2="608.341616" y2="263.197099" class="t" />
<line x1="508.357600" y1="706.852872" x2="476.175293" y2="643.438863" class="t" />
<line x1="289.778301" y1="734.543778" x2="292.349424" y2="693.365814" class="t" />
<line x1="617.627680" y1="576.070781" x2="622.265847" y2="535.074209" class="t" />
<line x1="227.737676" y1="604.277270" x2="261.329101" y2="628.232576" class="t" />
<line x1="701.402705" y1="458.596879" x2="664.153362" y2="476.337246" class="t" />
<line x1="772.243405" y1="464.811743" x2="701.402705" y2="458.596879" class="t" />
<line x1="741.223061" y1="399.678561" x2="701.402705" y2="458.596879" class="t" />
<line x1="63.836026" y1="402.663031" x2="134.676778" y2="408.877860" class="t" />
<line x1="105.723493" y1="343.926036" x2="134.676778" y2="408.877860" class="t" />
<line x1="650.733005" y1="163.100795" x2="648.161977" y2="204.278762" class="t" />
<line x1="505.786559" y1="748.030832" x2="508.357600" y2="706.852872" class="t" />
<line x1="249.957881" y1="793.462116" x2="289.778301" y2="734.543778" class="t" />
<line x1="805.834781" y1="488.766936" x2="772.243405" y2="464.811743" class="t" />
<line x1="743.794128" y1="358.500531" x2="741.223061" y2="399.678561" class="t" />
<line x1="690.553398" y1="104.182416" x2="650.733005" y2="163.100795" class="t" />
<line x1="618.550688" y1="99.686765" x2="650.733005" y2="163.100795" class="t" />
<line x1="465.966174" y1="806.949166" x2="505.786559" y2="748.030832" class="t" />
<line x1="428.716806" y1="824.689565" x2="465.966174" y2="806.949166" class="t" />
<line x1="537.968882" y1="811.444827" x2="505.786559" y2="748.030832" class="t" />
<line x1="572.722231" y1="833.680845" x2="537.968882" y2="811.444827" class="t" />
<line x1="212.708550" y1="811.202456" x2="249.957881" y2="793.462116" class="t" />
<line x1="172.888136" y1="870.120779" x2="212.708550" y2="811.202456" class="t" />
<line x1="141.867808" y1="804.987496" x2="212.708550" y2="811.202456" class="t" />
<line x1="876.675515" y1="494.981796" x2="805.834781" y2="488.766936" class="t" />
<line x1="913.924896" y1="477.241420" x2="876.675515" y2="494.981796" class="t" />
<line x1="984.765656" y1="483.456267" x2="913.924896" y2="477.241420" class="t" />
<line x1="953.745278" y1="418.323084" x2="913.924896" y2="477.241420" class="t" />
</svg>
