<?xml version="1.0"?>
<svg width="1026" height="1038" version="1.1" xmlns="http://www.w3.org/2000/svg" >
<defs>
<style type="text/css"><![CDATA[
.m {stroke:rgb(255,0,0);stroke-width:1.297500;}
.v {stroke:rgb(0,0,255);stroke-width:1.297500;}
.b {stroke:rgb(0,0,0);stroke-width:2.595000;fill:white}
.n {stroke:rgb(128,128,128);stroke-width:1.297500}
.t {stroke:rgb(0,128,0);stroke-width:1.297500;}
.c {stroke:rgb(128,128,128);stroke-width:1.297500;stroke-dasharray:10.260000, 10.260000;}
]]></style>
</defs>
<path fill="none" style="stroke:black;stroke-width:2.595000;" d=" M 506.665 766.522 L 545.786 650.957 M 545.786 650.957 L 512.524 768.343 M 664.56 623.056 L 582.512 532.757 M 424.617 676.222 L 305.843 704.123 M 304.59 698.116 L 424.617 676.222 M 463.738 560.657 L 304.59 698.116 M 582.512 532.757 L 668.996 618.817 M 377.255 474.597 L 260.033 508.434 M 260.033 508.434 L 463.738 560.657 M 713.346 830.742 L 631.299 740.442 M 631.299 740.442 L 717.782 826.502 M 717.782 826.502 L 664.56 623.056 M 387.89 794.422 L 354.629 911.808 M 354.629 911.808 L 506.665 766.522 M 348.769 909.987 L 387.89 794.422 M 305.843 704.123 L 348.769 909.987 M 258.48 502.498 L 377.255 474.597 M 668.996 618.817 L 869.818 681.216 M 869.818 681.216 L 787.77 590.916 M 821.031 473.53 L 702.257 501.431 M 702.257 501.431 L 819.478 467.594 M 414.952 352.972 L 496.999 443.271 M 496.999 443.271 L 410.516 357.211 M 512.524 768.343 L 555.451 974.207 M 555.451 974.207 L 594.572 858.642 M 171.997 416.438 L 54.7756 450.275 M 54.7756 450.275 L 258.48 502.498 M 594.572 858.642 L 561.311 976.028 M 787.77 590.916 L 874.254 676.976 M 53.2226 444.338 L 171.997 416.438 M 291.741 385.112 L 205.258 299.052 M 209.694 294.812 L 291.741 385.112 M 410.516 357.211 L 209.694 294.812 M 766.256 264.148 L 732.995 381.534 M 732.995 381.534 L 760.312 262.624 M 760.312 262.624 L 615.774 415.371 M 572.847 209.506 L 533.726 325.071 M 615.774 415.371 L 572.847 209.506 M 533.726 325.071 L 566.987 207.685 M 448.213 235.586 L 361.73 149.526 M 361.73 149.526 L 414.952 352.972 M 762.132 1038.43 L 680.085 948.128 M 561.311 976.028 L 762.132 1038.43 M 680.085 948.128 L 766.568 1034.19 M 766.568 1034.19 L 713.346 830.742 M 1026.29 531.69 L 907.515 559.59 M 874.254 676.976 L 1026.29 531.69 M 907.515 559.59 L 1024.74 525.753 M 1024.74 525.753 L 821.031 473.53 M 86.4837 326.952 L 0 240.892 M 0 240.892 L 53.2226 444.338 M 4.43637 236.653 L 86.4837 326.952 M 205.258 299.052 L 4.43637 236.653 M 366.166 145.287 L 448.213 235.586 M 819.478 467.594 L 971.514 322.307 M 971.514 322.307 L 852.74 350.208 M 852.74 350.208 L 969.961 316.371 M 969.961 316.371 L 766.256 264.148 M 484.94 117.386 L 518.201 0 M 518.201 0 L 366.166 145.287 M 566.987 207.685 L 524.061 1.82078 M 524.061 1.82078 L 484.94 117.386" />
<path fill="none" class="c" d=" M 463.738 560.657 L 582.512 532.757 M 582.512 532.757 L 615.774 415.371 M 615.774 415.371 L 463.738 560.657 M 615.774 415.371 L 496.999 443.271 M 496.999 443.271 L 463.738 560.657 M 615.774 415.371 L 414.952 352.972 M 410.516 357.211 L 463.738 560.657 M 615.774 415.371 L 533.726 325.071 M 533.726 325.071 L 414.952 352.972 M 566.987 207.685 L 414.952 352.972 M 448.213 235.586 L 414.952 352.972 M 566.987 207.685 L 448.213 235.586 M 566.987 207.685 L 366.166 145.287 M 484.94 117.386 L 366.166 145.287 M 566.987 207.685 L 484.94 117.386 M 463.738 560.657 L 664.56 623.056 M 668.996 618.817 L 615.774 415.371 M 668.996 618.817 L 702.257 501.431 M 702.257 501.431 L 615.774 415.371 M 377.255 474.597 L 463.738 560.657 M 410.516 357.211 L 377.255 474.597 M 668.996 618.817 L 821.031 473.53 M 819.478 467.594 L 615.774 415.371 M 668.996 618.817 L 787.77 590.916 M 787.77 590.916 L 821.031 473.53 M 819.478 467.594 L 732.995 381.534 M 732.995 381.534 L 615.774 415.371 M 819.478 467.594 L 766.256 264.148 M 819.478 467.594 L 852.74 350.208 M 852.74 350.208 L 766.256 264.148 M 463.738 560.657 L 545.786 650.957 M 463.738 560.657 L 506.665 766.522 M 545.786 650.957 L 664.56 623.056 M 424.617 676.222 L 506.665 766.522 M 463.738 560.657 L 424.617 676.222 M 512.524 768.343 L 664.56 623.056 M 305.843 704.123 L 506.665 766.522 M 512.524 768.343 L 631.299 740.442 M 631.299 740.442 L 664.56 623.056 M 387.89 794.422 L 506.665 766.522 M 305.843 704.123 L 387.89 794.422 M 512.524 768.343 L 713.346 830.742 M 410.516 357.211 L 258.48 502.498 M 512.524 768.343 L 594.572 858.642 M 594.572 858.642 L 713.346 830.742 M 291.741 385.112 L 258.48 502.498 M 410.516 357.211 L 291.741 385.112 M 561.311 976.028 L 713.346 830.742 M 874.254 676.976 L 821.031 473.53 M 205.258 299.052 L 258.48 502.498 M 561.311 976.028 L 680.085 948.128 M 680.085 948.128 L 713.346 830.742 M 874.254 676.976 L 907.515 559.59 M 907.515 559.59 L 821.031 473.53 M 171.997 416.438 L 258.48 502.498 M 205.258 299.052 L 171.997 416.438 M 205.258 299.052 L 53.2226 444.338 M 86.4837 326.952 L 53.2226 444.338 M 205.258 299.052 L 86.4837 326.952" />
<line x1="570.270171" y1="572.156756" x2="554.008120" y2="502.928271" class="t" />
<line x1="622.427428" y1="522.314796" x2="554.008120" y2="502.928271" class="t" />
<line x1="525.503768" y1="473.099799" x2="554.008120" y2="502.928271" class="t" />
<line x1="509.241716" y1="403.871330" x2="525.503768" y2="473.099799" class="t" />
<line x1="457.084436" y1="453.713314" x2="525.503768" y2="473.099799" class="t" />
<line x1="521.484057" y1="364.471327" x2="509.241716" y2="403.871330" class="t" />
<line x1="417.169518" y1="464.155270" x2="457.084436" y2="453.713314" class="t" />
<line x1="574.115812" y1="316.649456" x2="521.484057" y2="364.471327" class="t" />
<line x1="505.221994" y1="295.242875" x2="521.484057" y2="364.471327" class="t" />
<line x1="476.717596" y1="265.414421" x2="505.221994" y2="295.242875" class="t" />
<line x1="408.298318" y1="246.027923" x2="476.717596" y2="265.414421" class="t" />
<line x1="460.455564" y1="196.185979" x2="476.717596" y2="265.414421" class="t" />
<line x1="472.697897" y1="156.785965" x2="460.455564" y2="196.185979" class="t" />
<line x1="456.435874" y1="87.557478" x2="472.697897" y2="156.785965" class="t" />
<line x1="525.329664" y1="108.964052" x2="472.697897" y2="156.785965" class="t" />
<line x1="558.027857" y1="611.556761" x2="570.270171" y2="572.156756" class="t" />
<line x1="662.342309" y1="511.872871" x2="622.427428" y2="522.314796" class="t" />
<line x1="730.761568" y1="531.259390" x2="662.342309" y2="511.872871" class="t" />
<line x1="712.503052" y1="461.465217" x2="662.342309" y2="511.872871" class="t" />
<line x1="367.008770" y1="514.562919" x2="417.169518" y2="464.155270" class="t" />
<line x1="348.750225" y1="444.768759" x2="417.169518" y2="464.155270" class="t" />
<line x1="759.265923" y1="561.087833" x2="730.761568" y2="531.259390" class="t" />
<line x1="722.748965" y1="421.499500" x2="712.503052" y2="461.465217" class="t" />
<line x1="775.527982" y1="630.316256" x2="759.265923" y2="561.087833" class="t" />
<line x1="827.685174" y1="580.474301" x2="759.265923" y2="561.087833" class="t" />
<line x1="772.909742" y1="371.091833" x2="722.748965" y2="421.499500" class="t" />
<line x1="703.026769" y1="353.176190" x2="722.748965" y2="421.499500" class="t" />
<line x1="812.824635" y1="360.649915" x2="772.909742" y2="371.091833" class="t" />
<line x1="881.243914" y1="380.036474" x2="812.824635" y2="360.649915" class="t" />
<line x1="862.985436" y1="310.242303" x2="812.824635" y2="360.649915" class="t" />
<line x1="505.396107" y1="659.378638" x2="558.027857" y2="611.556761" class="t" />
<line x1="465.006641" y1="667.800530" x2="505.396107" y2="659.378638" class="t" />
<line x1="574.289927" y1="680.785236" x2="558.027857" y2="611.556761" class="t" />
<line x1="412.374897" y1="715.622417" x2="465.006641" y2="667.800530" class="t" />
<line x1="397.648608" y1="644.998526" x2="465.006641" y2="667.800530" class="t" />
<line x1="602.794301" y1="710.613686" x2="574.289927" y2="680.785236" class="t" />
<line x1="400.132593" y1="755.022396" x2="412.374897" y2="715.622417" class="t" />
<line x1="619.056343" y1="779.842126" x2="602.794301" y2="710.613686" class="t" />
<line x1="671.213584" y1="730.000174" x2="602.794301" y2="710.613686" class="t" />
<line x1="416.394648" y1="824.250857" x2="400.132593" y2="755.022396" class="t" />
<line x1="347.500796" y1="802.844257" x2="400.132593" y2="755.022396" class="t" />
<line x1="606.813993" y1="819.242154" x2="619.056343" y2="779.842126" class="t" />
<line x1="320.245808" y1="414.940271" x2="348.750225" y2="444.768759" class="t" />
<line x1="554.182220" y1="867.064054" x2="606.813993" y2="819.242154" class="t" />
<line x1="623.076011" y1="888.470616" x2="606.813993" y2="819.242154" class="t" />
<line x1="251.826572" y1="395.553748" x2="320.245808" y2="414.940271" class="t" />
<line x1="303.983775" y1="345.711830" x2="320.245808" y2="414.940271" class="t" />
<line x1="651.580388" y1="918.299052" x2="623.076011" y2="888.470616" class="t" />
<line x1="867.600161" y1="570.032353" x2="827.685174" y2="580.474301" class="t" />
<line x1="211.911662" y1="405.995689" x2="251.826572" y2="395.553748" class="t" />
<line x1="667.842424" y1="987.527525" x2="651.580388" y2="918.299052" class="t" />
<line x1="719.999710" y1="937.685529" x2="651.580388" y2="918.299052" class="t" />
<line x1="936.019455" y1="589.418862" x2="867.600161" y2="570.032353" class="t" />
<line x1="917.760940" y1="519.624715" x2="867.600161" y2="570.032353" class="t" />
<line x1="161.750877" y1="456.403347" x2="211.911662" y2="405.995689" class="t" />
<line x1="143.492393" y1="386.609205" x2="211.911662" y2="405.995689" class="t" />
<line x1="114.988055" y1="356.780792" x2="143.492393" y2="386.609205" class="t" />
<line x1="46.568741" y1="337.394287" x2="114.988055" y2="356.780792" class="t" />
<line x1="98.725992" y1="287.552315" x2="114.988055" y2="356.780792" class="t" />
</svg>
