<?xml version="1.0"?>
<svg width="773" height="1426" version="1.1" xmlns="http://www.w3.org/2000/svg" >
<defs>
<style type="text/css"><![CDATA[
.m {stroke:rgb(255,0,0);stroke-width:1.782500;}
.v {stroke:rgb(0,0,255);stroke-width:1.782500;}
.b {stroke:rgb(0,0,0);stroke-width:3.565000;fill:white}
.n {stroke:rgb(128,128,128);stroke-width:1.782500}
.t {stroke:rgb(0,128,0);stroke-width:1.782500;}
.c {stroke:rgb(128,128,128);stroke-width:1.782500;stroke-dasharray:7.730000, 7.730000;}
]]></style>
</defs>
<path fill="none" style="stroke:black;stroke-width:3.565000;" d=" M 150.592 781.464 L 269.174 752.756 M 269.174 752.756 L 152.186 787.39 M 152.186 787.39 L 356.241 838.226 M 356.241 838.226 L 388.703 720.617 M 183.054 663.854 L 95.9876 578.384 M 95.9876 578.384 L 150.592 781.464 M 100.395 574.115 L 183.054 663.854 M 362.195 839.71 L 211.151 986.027 M 388.703 720.617 L 362.195 839.71 M 211.151 986.027 L 52.9421 1124.56 M 412.393 1047.06 L 329.733 957.319 M 329.733 957.319 L 416.8 1042.79 M 479.183 805.076 L 505.691 685.983 M 505.691 685.983 L 418.625 600.513 M 418.625 600.513 L 301.636 635.147 M 172.817 1101.86 L 255.477 1191.59 M 250.86 1195.64 L 172.817 1101.86 M 218.977 545.407 L 251.439 427.798 M 257.311 429.579 L 218.977 545.407 M 416.8 1042.79 L 449.262 925.179 M 566.25 890.546 L 479.183 805.076 M 458.552 490.611 L 578.427 467.902 M 578.427 467.902 L 616.761 352.073 M 339.97 519.318 L 458.552 490.611 M 301.636 635.147 L 339.97 519.318 M 255.477 1191.59 L 293.811 1075.77 M 132.857 456.506 L 100.395 574.115 M 293.811 1075.77 L 261.349 1193.38 M 261.349 1193.38 L 412.393 1047.06 M 449.262 925.179 L 422.754 1044.27 M 422.754 1044.27 L 566.25 890.546 M 616.761 352.073 L 496.886 374.782 M 375.893 400.871 L 257.311 429.579 M 130.985 1218.35 L 92.6506 1334.17 M 86.8754 1332.1 L 130.985 1218.35 M 52.9421 1124.56 L 8.83265 1238.32 M 8.83265 1238.32 L 86.8754 1332.1 M 50.1975 366.766 L 132.857 456.506 M 773.677 207.537 L 739.744 0 M 615.468 346.074 L 773.677 207.537 M 496.886 374.782 L 615.468 346.074 M 414.227 285.043 L 375.893 400.871 M 251.439 427.798 L 289.773 311.969 M 289.773 311.969 L 207.113 222.23 M 212.526 1311.47 L 250.86 1195.64 M 574.769 130.408 L 695.634 113.755 M 695.634 113.755 L 575.759 136.464 M 575.759 136.464 L 653.802 230.246 M 653.802 230.246 L 571.143 140.506 M 532.809 256.335 L 414.227 285.043 M 207.113 222.23 L 168.779 338.059 M 739.744 0 L 618.878 16.6533 M 618.878 16.6533 L 574.769 130.408 M 290.569 1405.25 L 212.526 1311.47 M 168.779 338.059 L 201.241 220.449 M 571.143 140.506 L 532.809 256.335 M 118.582 130.71 L 0 159.417 M 201.241 220.449 L 118.582 130.71 M 170.694 1427.96 L 290.569 1405.25 M 92.6506 1334.17 L 170.694 1427.96 M 82.6595 249.157 L 50.1975 366.766 M 0 159.417 L 82.6595 249.157" />
<path fill="none" class="c" d=" M 150.592 781.464 L 301.636 635.147 M 183.054 663.854 L 150.592 781.464 M 301.636 635.147 L 183.054 663.854 M 301.636 635.147 L 100.395 574.115 M 218.977 545.407 L 100.395 574.115 M 301.636 635.147 L 218.977 545.407 M 251.439 427.798 L 100.395 574.115 M 301.636 635.147 L 257.311 429.579 M 339.97 519.318 L 257.311 429.579 M 251.439 427.798 L 132.857 456.506 M 251.439 427.798 L 50.1975 366.766 M 251.439 427.798 L 168.779 338.059 M 168.779 338.059 L 50.1975 366.766 M 251.439 427.798 L 207.113 222.23 M 201.241 220.449 L 50.1975 366.766 M 201.241 220.449 L 82.6595 249.157 M 201.241 220.449 L 0 159.417 M 269.174 752.756 L 301.636 635.147 M 269.174 752.756 L 356.241 838.226 M 356.241 838.226 L 301.636 635.147 M 388.703 720.617 L 301.636 635.147 M 388.703 720.617 L 505.691 685.983 M 505.691 685.983 L 301.636 635.147 M 458.552 490.611 L 257.311 429.579 M 458.552 490.611 L 375.893 400.871 M 458.552 490.611 L 414.227 285.043 M 362.195 839.71 L 505.691 685.983 M 362.195 839.71 L 479.183 805.076 M 362.195 839.71 L 566.25 890.546 M 362.195 839.71 L 449.262 925.179 M 449.262 925.179 L 566.25 890.546 M 458.552 490.611 L 496.886 374.782 M 496.886 374.782 L 414.227 285.043 M 362.195 839.71 L 416.8 1042.79 M 458.552 490.611 L 616.761 352.073 M 615.468 346.074 L 414.227 285.043 M 615.468 346.074 L 532.809 256.335 M 615.468 346.074 L 571.143 140.506 M 362.195 839.71 L 329.733 957.319 M 615.468 346.074 L 653.802 230.246 M 211.151 986.027 L 329.733 957.319 M 211.151 986.027 L 412.393 1047.06 M 211.151 986.027 L 293.811 1075.77 M 293.811 1075.77 L 412.393 1047.06 M 211.151 986.027 L 255.477 1191.59 M 773.677 207.537 L 653.802 230.246 M 773.677 207.537 L 575.759 136.464 M 211.151 986.027 L 172.817 1101.86 M 773.677 207.537 L 695.634 113.755 M 52.9421 1124.56 L 172.817 1101.86 M 52.9421 1124.56 L 250.86 1195.64 M 130.985 1218.35 L 250.86 1195.64 M 52.9421 1124.56 L 130.985 1218.35 M 92.6506 1334.17 L 250.86 1195.64 M 52.9421 1124.56 L 86.8754 1332.1 M 739.744 0 L 695.634 113.755 M 92.6506 1334.17 L 212.526 1311.47 M 739.744 0 L 574.769 130.408 M 92.6506 1334.17 L 290.569 1405.25" />
<line x1="240.467540" y1="723.122288" x2="211.760969" y2="693.488354" class="t" />
<line x1="143.211442" y1="674.567580" x2="211.760969" y2="693.488354" class="t" />
<line x1="195.028509" y1="624.372069" x2="211.760969" y2="693.488354" class="t" />
<line x1="207.002647" y1="584.889726" x2="195.028509" y2="624.372069" class="t" />
<line x1="190.270140" y1="515.773469" x2="207.002647" y2="584.889726" class="t" />
<line x1="259.307953" y1="536.711032" x2="207.002647" y2="584.889726" class="t" />
<line x1="161.563519" y1="486.139529" x2="190.270140" y2="515.773469" class="t" />
<line x1="299.639189" y1="528.014678" x2="259.307953" y2="536.711032" class="t" />
<line x1="351.944531" y1="479.835946" x2="299.639189" y2="528.014678" class="t" />
<line x1="144.831040" y1="417.023287" x2="161.563519" y2="486.139529" class="t" />
<line x1="156.805133" y1="377.540975" x2="144.831040" y2="417.023287" class="t" />
<line x1="209.110436" y1="329.362252" x2="156.805133" y2="377.540975" class="t" />
<line x1="140.072664" y1="308.424706" x2="156.805133" y2="377.540975" class="t" />
<line x1="249.441690" y1="320.665859" x2="209.110436" y2="329.362252" class="t" />
<line x1="111.366107" y1="278.790784" x2="140.072664" y2="308.424706" class="t" />
<line x1="94.633592" y1="209.674497" x2="111.366107" y2="278.790784" class="t" />
<line x1="106.607677" y1="170.192114" x2="94.633592" y2="209.674497" class="t" />
<line x1="309.017062" y1="742.043072" x2="240.467540" y2="723.122288" class="t" />
<line x1="259.200241" y1="792.790694" x2="309.017062" y2="742.043072" class="t" />
<line x1="348.860046" y1="731.329939" x2="309.017062" y2="742.043072" class="t" />
<line x1="398.676885" y1="680.582328" x2="348.860046" y2="731.329939" class="t" />
<line x1="418.863238" y1="748.769939" x2="398.676885" y2="680.582328" class="t" />
<line x1="408.650741" y1="640.547867" x2="398.676885" y2="680.582328" class="t" />
<line x1="363.918616" y1="440.353590" x2="351.944531" y2="479.835946" class="t" />
<line x1="416.223901" y1="392.174858" x2="363.918616" y2="440.353590" class="t" />
<line x1="456.555135" y1="383.478485" x2="416.223901" y2="392.174858" class="t" />
<line x1="449.023386" y1="776.923037" x2="418.863238" y2="748.769939" class="t" />
<line x1="469.209718" y1="845.110603" x2="449.023386" y2="776.923037" class="t" />
<line x1="459.235889" y1="885.145050" x2="469.209718" y2="845.110603" class="t" />
<line x1="409.419105" y1="935.892635" x2="459.235889" y2="885.145050" class="t" />
<line x1="479.422258" y1="953.332582" x2="459.235889" y2="885.145050" class="t" />
<line x1="524.066712" y1="405.821867" x2="456.555135" y2="383.478485" class="t" />
<line x1="508.860420" y1="335.299740" x2="456.555135" y2="383.478485" class="t" />
<line x1="369.576168" y1="946.605813" x2="409.419105" y2="935.892635" class="t" />
<line x1="551.246999" y1="436.861667" x2="524.066712" y2="405.821867" class="t" />
<line x1="520.834460" y1="295.817406" x2="508.860420" y2="335.299740" class="t" />
<line x1="573.139758" y1="247.638654" x2="520.834460" y2="295.817406" class="t" />
<line x1="613.470977" y1="238.942207" x2="573.139758" y2="247.638654" class="t" />
<line x1="301.026626" y1="927.685076" x2="369.576168" y2="946.605813" class="t" />
<line x1="680.982510" y1="261.285586" x2="613.470977" y2="238.942207" class="t" />
<line x1="317.759097" y1="996.801321" x2="301.026626" y2="927.685076" class="t" />
<line x1="305.784979" y1="1036.283695" x2="317.759097" y2="996.801321" class="t" />
<line x1="253.479648" y1="1084.462424" x2="305.784979" y2="1036.283695" class="t" />
<line x1="322.517426" y1="1105.399962" x2="305.784979" y2="1036.283695" class="t" />
<line x1="213.148413" y1="1093.158796" x2="253.479648" y2="1084.462424" class="t" />
<line x1="667.746227" y1="191.415440" x2="680.982510" y2="261.285586" class="t" />
<line x1="681.690270" y1="152.585055" x2="667.746227" y2="191.415440" class="t" />
<line x1="145.636880" y1="1070.815404" x2="213.148413" y2="1093.158796" class="t" />
<line x1="736.351801" y1="107.097079" x2="681.690270" y2="152.585055" class="t" />
<line x1="158.873082" y1="1140.685565" x2="145.636880" y2="1070.815404" class="t" />
<line x1="144.929052" y1="1179.515982" x2="158.873082" y2="1140.685565" class="t" />
<line x1="158.165234" y1="1249.386114" x2="144.929052" y2="1179.515982" class="t" />
<line x1="90.267499" y1="1225.003902" x2="144.929052" y2="1179.515982" class="t" />
<line x1="185.345494" y1="1280.425846" x2="158.165234" y2="1249.386114" class="t" />
<line x1="49.550041" y1="1231.661440" x2="90.267499" y2="1225.003902" class="t" />
<line x1="670.049058" y1="81.387518" x2="736.351801" y2="107.097079" class="t" />
<line x1="198.581714" y1="1350.296005" x2="185.345494" y2="1280.425846" class="t" />
<line x1="644.463767" y1="49.020425" x2="670.049058" y2="81.387518" class="t" />
<line x1="184.637642" y1="1389.126373" x2="198.581714" y2="1350.296005" class="t" />
</svg>
