<?xml version="1.0"?>
<svg width="945" height="961" version="1.1" xmlns="http://www.w3.org/2000/svg" >
<defs>
<style type="text/css"><![CDATA[
.m {stroke:rgb(255,0,0);stroke-width:1.201250;}
.v {stroke:rgb(0,0,255);stroke-width:1.201250;}
.b {stroke:rgb(0,0,0);stroke-width:2.402500;fill:white}
.n {stroke:rgb(128,128,128);stroke-width:1.201250}
.t {stroke:rgb(0,128,0);stroke-width:1.201250;}
.c {stroke:rgb(128,128,128);stroke-width:1.201250;stroke-dasharray:9.450000, 9.450000;}
]]></style>
</defs>
<path fill="none" style="stroke:black;stroke-width:2.402500;" d=" M 366.195 646.483 L 419.952 536.957 M 419.952 536.957 L 371.769 649.047 M 296.532 546.318 L 175.145 558.602 M 174.681 552.484 L 296.532 546.318 M 350.29 436.793 L 174.681 552.484 M 525.435 314.983 L 471.677 424.509 M 471.677 424.509 L 519.86 312.419 M 275.68 340.258 L 155.064 358.629 M 155.064 358.629 L 350.29 436.793 M 562.819 736.928 L 493.156 636.763 M 493.156 636.763 L 567.767 733.299 M 567.767 733.299 L 541.339 524.673 M 244.807 658.767 L 196.624 770.857 M 196.624 770.857 L 366.195 646.483 M 191.049 768.292 L 244.807 658.767 M 154.292 352.541 L 275.68 340.258 M 541.339 524.673 L 727.729 622.048 M 727.729 622.048 L 663.191 518.508 M 716.948 408.983 L 595.097 415.148 M 595.097 415.148 L 716.484 402.864 M 328.811 224.538 L 398.473 324.703 M 398.473 324.703 L 323.862 228.168 M 371.769 649.047 L 387.674 858.737 M 387.674 858.737 L 441.431 749.212 M 175.145 558.602 L 121.387 668.128 M 441.431 749.212 L 393.249 861.302 M 663.191 518.508 L 732.853 618.673 M 121.387 668.128 L 0 680.412 M 127.865 143.916 L 79.682 256.006 M 79.682 256.006 L 154.292 352.541 M 202.475 240.451 L 127.865 143.916 M 132.813 140.287 L 202.475 240.451 M 323.862 228.168 L 132.813 140.287 M 514.636 849.018 L 562.819 736.928 M 700.58 193.174 L 646.822 302.699 M 646.822 302.699 L 695.005 190.609 M 695.005 190.609 L 525.435 314.983 M 503.955 102.729 L 450.198 212.254 M 519.86 312.419 L 503.955 102.729 M 450.198 212.254 L 498.381 100.165 M 0 680.412 L 69.6622 780.576 M 69.6622 780.576 L 191.049 768.292 M 376.993 112.448 L 302.383 15.9132 M 302.383 15.9132 L 328.811 224.538 M 584.298 949.182 L 514.636 849.018 M 732.853 618.673 L 854.704 612.508 M 854.704 612.508 L 908.462 502.982 M 908.462 502.982 L 786.611 509.147 M 786.611 509.147 L 907.998 496.863 M 907.998 496.863 L 716.948 408.983 M 393.249 861.302 L 462.911 961.466 M 462.911 961.466 L 584.298 949.182 M 891.629 281.055 L 945.387 171.529 M 945.387 171.529 L 875.725 71.3643 M 307.331 12.284 L 376.993 112.448 M 716.484 402.864 L 892.093 287.173 M 892.093 287.173 L 770.242 293.338 M 770.242 293.338 L 891.629 281.055 M 875.725 71.3643 L 821.967 180.89 M 498.381 100.165 L 428.719 0 M 428.719 0 L 307.331 12.284 M 821.967 180.89 L 700.58 193.174" />
<path fill="none" class="c" d=" M 350.29 436.793 L 541.339 524.673 M 541.339 524.673 L 471.677 424.509 M 471.677 424.509 L 350.29 436.793 M 541.339 524.673 L 525.435 314.983 M 519.86 312.419 L 350.29 436.793 M 541.339 524.673 L 595.097 415.148 M 595.097 415.148 L 525.435 314.983 M 519.86 312.419 L 398.473 324.703 M 398.473 324.703 L 350.29 436.793 M 541.339 524.673 L 716.948 408.983 M 716.484 402.864 L 525.435 314.983 M 519.86 312.419 L 328.811 224.538 M 323.862 228.168 L 350.29 436.793 M 541.339 524.673 L 663.191 518.508 M 663.191 518.508 L 716.948 408.983 M 716.484 402.864 L 646.822 302.699 M 646.822 302.699 L 525.435 314.983 M 519.86 312.419 L 450.198 212.254 M 450.198 212.254 L 328.811 224.538 M 716.484 402.864 L 700.58 193.174 M 498.381 100.165 L 328.811 224.538 M 716.484 402.864 L 770.242 293.338 M 770.242 293.338 L 700.58 193.174 M 376.993 112.448 L 328.811 224.538 M 498.381 100.165 L 376.993 112.448 M 498.381 100.165 L 307.331 12.284 M 891.629 281.055 L 700.58 193.174 M 891.629 281.055 L 821.967 180.89 M 350.29 436.793 L 419.952 536.957 M 350.29 436.793 L 366.195 646.483 M 419.952 536.957 L 541.339 524.673 M 296.532 546.318 L 366.195 646.483 M 350.29 436.793 L 296.532 546.318 M 371.769 649.047 L 541.339 524.673 M 175.145 558.602 L 366.195 646.483 M 371.769 649.047 L 493.156 636.763 M 493.156 636.763 L 541.339 524.673 M 244.807 658.767 L 366.195 646.483 M 175.145 558.602 L 244.807 658.767 M 371.769 649.047 L 562.819 736.928 M 175.145 558.602 L 191.049 768.292 M 275.68 340.258 L 350.29 436.793 M 323.862 228.168 L 275.68 340.258 M 371.769 649.047 L 441.431 749.212 M 441.431 749.212 L 562.819 736.928 M 121.387 668.128 L 191.049 768.292 M 393.249 861.302 L 562.819 736.928 M 732.853 618.673 L 716.948 408.983 M 0 680.412 L 191.049 768.292 M 393.249 861.302 L 514.636 849.018 M 732.853 618.673 L 786.611 509.147 M 786.611 509.147 L 716.948 408.983 M 393.249 861.302 L 584.298 949.182 M 732.853 618.673 L 908.462 502.982 M 891.629 281.055 L 875.725 71.3643 M 323.862 228.168 L 154.292 352.541 M 202.475 240.451 L 154.292 352.541 M 323.862 228.168 L 202.475 240.451 M 127.865 143.916 L 154.292 352.541" />
<line x1="437.193818" y1="499.474518" x2="454.435478" y2="461.991725" class="t" />
<line x1="512.817147" y1="421.388554" x2="454.435478" y2="461.991725" class="t" />
<line x1="447.275702" y1="391.240223" x2="454.435478" y2="461.991725" class="t" />
<line x1="553.957089" y1="418.268195" x2="512.817147" y2="421.388554" class="t" />
<line x1="422.874278" y1="357.971523" x2="447.275702" y2="391.240223" class="t" />
<line x1="617.794918" y1="449.601306" x2="553.957089" y2="418.268195" class="t" />
<line x1="612.338710" y1="377.665016" x2="553.957089" y2="418.268195" class="t" />
<line x1="415.714499" y1="287.220037" x2="422.874278" y2="357.971523" class="t" />
<line x1="357.541726" y1="329.887749" x2="422.874278" y2="357.971523" class="t" />
<line x1="640.492780" y1="484.054771" x2="617.794918" y2="449.601306" class="t" />
<line x1="629.580436" y1="340.182218" x2="612.338710" y2="377.665016" class="t" />
<line x1="432.956186" y1="249.737249" x2="415.714499" y2="287.220037" class="t" />
<line x1="316.610663" y1="335.072651" x2="357.541726" y2="329.887749" class="t" />
<line x1="644.086225" y1="555.076714" x2="640.492780" y2="484.054771" class="t" />
<line x1="704.330609" y1="515.387831" x2="640.492780" y2="484.054771" class="t" />
<line x1="687.962092" y1="299.579032" x2="629.580436" y2="340.182218" class="t" />
<line x1="622.420669" y1="269.430699" x2="629.580436" y2="340.182218" class="t" />
<line x1="491.337828" y1="209.134085" x2="432.956186" y2="249.737249" class="t" />
<line x1="425.796394" y1="178.985779" x2="432.956186" y2="249.737249" class="t" />
<line x1="729.102045" y1="296.458683" x2="687.962092" y2="299.579032" class="t" />
<line x1="401.394922" y1="145.717091" x2="425.796394" y2="178.985779" class="t" />
<line x1="792.939885" y1="327.791836" x2="729.102045" y2="296.458683" class="t" />
<line x1="787.483715" y1="255.855555" x2="729.102045" y2="296.458683" class="t" />
<line x1="336.062425" y1="117.633311" x2="401.394922" y2="145.717091" class="t" />
<line x1="394.235160" y1="74.965634" x2="401.394922" y2="145.717091" class="t" />
<line x1="411.476840" y1="37.482834" x2="394.235160" y2="74.965634" class="t" />
<line x1="804.725422" y1="218.372749" x2="787.483715" y2="255.855555" class="t" />
<line x1="863.107084" y1="177.769613" x2="804.725422" y2="218.372749" class="t" />
<line x1="378.812181" y1="540.077689" x2="437.193818" y2="499.474518" class="t" />
<line x1="337.672171" y1="543.198082" x2="378.812181" y2="540.077689" class="t" />
<line x1="444.353614" y1="570.226013" x2="437.193818" y2="499.474518" class="t" />
<line x1="279.290539" y1="583.801264" x2="337.672171" y2="543.198082" class="t" />
<line x1="273.834302" y1="511.864993" x2="337.672171" y2="543.198082" class="t" />
<line x1="468.755063" y1="603.494693" x2="444.353614" y2="570.226013" class="t" />
<line x1="262.048893" y1="621.284033" x2="279.290539" y2="583.801264" class="t" />
<line x1="475.914836" y1="674.246149" x2="468.755063" y2="603.494693" class="t" />
<line x1="534.087566" y1="631.578464" x2="468.755063" y2="603.494693" class="t" />
<line x1="269.208675" y1="692.035512" x2="262.048893" y2="621.284033" class="t" />
<line x1="203.667211" y1="661.887182" x2="262.048893" y2="621.284033" class="t" />
<line x1="458.673136" y1="711.728961" x2="475.914836" y2="674.246149" class="t" />
<line x1="162.527203" y1="665.007595" x2="203.667211" y2="661.887182" class="t" />
<line x1="260.344353" y1="378.559822" x2="316.610663" y2="335.072651" class="t" />
<line x1="251.278152" y1="306.988856" x2="316.610663" y2="335.072651" class="t" />
<line x1="400.291474" y1="752.332151" x2="458.673136" y2="711.728961" class="t" />
<line x1="465.832882" y1="782.480436" x2="458.673136" y2="711.728961" class="t" />
<line x1="104.145539" y1="705.610713" x2="162.527203" y2="665.007595" class="t" />
<line x1="490.234336" y1="815.749103" x2="465.832882" y2="782.480436" class="t" />
<line x1="745.470660" y1="512.267468" x2="704.330609" y2="515.387831" class="t" />
<line x1="86.903888" y1="743.093469" x2="104.145539" y2="705.610713" class="t" />
<line x1="497.394099" y1="886.500591" x2="490.234336" y2="815.749103" class="t" />
<line x1="809.308524" y1="543.600576" x2="745.470660" y2="512.267468" class="t" />
<line x1="803.852313" y1="471.664311" x2="745.470660" y2="512.267468" class="t" />
<line x1="480.152448" y1="923.983405" x2="497.394099" y2="886.500591" class="t" />
<line x1="832.006382" y1="578.054057" x2="809.308524" y2="543.600576" class="t" />
<line x1="904.247064" y1="174.649258" x2="863.107084" y2="177.769613" class="t" />
<line x1="226.876666" y1="273.720132" x2="251.278152" y2="306.988856" class="t" />
<line x1="161.544214" y1="245.636333" x2="226.876666" y2="273.720132" class="t" />
<line x1="219.716902" y1="202.968676" x2="226.876666" y2="273.720132" class="t" />
<line x1="120.613161" y1="250.821221" x2="161.544214" y2="245.636333" class="t" />
</svg>
