<?xml version="1.0"?>
<svg width="1062" height="910" version="1.1" xmlns="http://www.w3.org/2000/svg" >
<defs>
<style type="text/css"><![CDATA[
.m {stroke:rgb(255,0,0);stroke-width:1.327500;}
.v {stroke:rgb(0,0,255);stroke-width:1.327500;}
.b {stroke:rgb(0,0,0);stroke-width:2.655000;fill:white}
.n {stroke:rgb(128,128,128);stroke-width:1.327500}
.t {stroke:rgb(0,128,0);stroke-width:1.327500;}
.c {stroke:rgb(128,128,128);stroke-width:1.327500;stroke-dasharray:10.620000, 10.620000;}
]]></style>
</defs>
<path fill="none" style="stroke:black;stroke-width:2.655000;" d=" M 492.553 910.749 L 503.215 789.209 M 391.467 842.43 L 492.553 910.749 M 402.13 720.89 L 391.467 842.43 M 503.215 789.209 L 498.677 911.132 M 612.014 733.994 L 510.929 665.675 M 276.544 897.262 L 287.207 775.722 M 287.207 775.722 L 396.006 720.507 M 607.476 855.917 L 612.014 733.994 M 498.677 911.132 L 607.476 855.917 M 515.467 543.752 L 612.99 617.067 M 612.99 617.067 L 724.426 567.393 M 510.929 665.675 L 515.467 543.752 M 294.921 652.188 L 186.122 707.402 M 839.426 512.722 L 940.512 581.041 M 727.989 562.397 L 839.426 512.722 M 724.426 567.393 L 626.904 494.078 M 406.669 598.967 L 402.13 720.89 M 175.459 828.943 L 66.6608 884.157 M 66.6608 884.157 L 276.544 897.262 M 64.0222 878.617 L 175.459 828.943 M 186.122 707.402 L 64.0222 878.617 M 183.483 701.862 L 294.921 652.188 M 850.089 391.182 L 738.652 440.857 M 626.904 494.078 L 727.989 562.397 M 396.006 720.507 L 406.669 598.967 M 940.512 581.041 L 1062.61 409.826 M 1062.61 409.826 L 951.174 459.501 M 101.085 384.923 L 0 316.604 M 0 316.604 L 90.4227 506.463 M 305.583 530.648 L 194.146 580.322 M 194.146 580.322 L 183.483 701.862 M 951.174 459.501 L 1059.97 404.286 M 1059.97 404.286 L 850.089 391.182 M 738.652 440.857 L 847.45 385.642 M 637.567 372.537 L 526.13 422.212 M 414.382 475.433 L 305.583 530.648 M 3.56282 311.608 L 101.085 384.923 M 212.522 335.248 L 3.56282 311.608 M 90.4227 506.463 L 201.86 456.788 M 201.86 456.788 L 302.945 525.108 M 754.389 190.242 L 663.967 0.382394 M 663.967 0.382394 L 653.304 121.923 M 746.365 317.323 L 637.567 372.537 M 847.45 385.642 L 746.365 317.323 M 526.13 422.212 L 634.928 366.997 M 302.945 525.108 L 414.382 475.433 M 125.663 140.392 L 216.085 330.252 M 226.748 208.712 L 125.663 140.392 M 313.608 403.567 L 212.522 335.248 M 653.304 121.923 L 657.842 0 M 657.842 0 L 544.506 177.138 M 645.591 245.457 L 754.389 190.242 M 634.928 366.997 L 645.591 245.457 M 129.225 135.396 L 226.748 208.712 M 338.185 159.037 L 129.225 135.396 M 216.085 330.252 L 313.608 403.567 M 544.506 177.138 L 533.843 298.678 M 533.843 298.678 L 538.381 176.755 M 327.522 280.577 L 338.185 159.037 M 425.044 353.893 L 327.522 280.577 M 538.381 176.755 L 429.583 231.97 M 429.583 231.97 L 425.044 353.893" />
<path fill="none" class="c" d=" M 414.382 475.433 L 515.467 543.752 M 515.467 543.752 L 425.044 353.893 M 425.044 353.893 L 414.382 475.433 M 425.044 353.893 L 302.945 525.108 M 313.608 403.567 L 302.945 525.108 M 425.044 353.893 L 313.608 403.567 M 425.044 353.893 L 216.085 330.252 M 327.522 280.577 L 216.085 330.252 M 305.583 530.648 L 515.467 543.752 M 515.467 543.752 L 526.13 422.212 M 526.13 422.212 L 425.044 353.893 M 212.522 335.248 L 302.945 525.108 M 338.185 159.037 L 216.085 330.252 M 406.669 598.967 L 515.467 543.752 M 305.583 530.648 L 406.669 598.967 M 305.583 530.648 L 396.006 720.507 M 515.467 543.752 L 637.567 372.537 M 212.522 335.248 L 201.86 456.788 M 634.928 366.997 L 425.044 353.893 M 634.928 366.997 L 533.843 298.678 M 533.843 298.678 L 425.044 353.893 M 226.748 208.712 L 216.085 330.252 M 338.185 159.037 L 226.748 208.712 M 634.928 366.997 L 544.506 177.138 M 538.381 176.755 L 425.044 353.893 M 402.13 720.89 L 515.467 543.752 M 294.921 652.188 L 396.006 720.507 M 305.583 530.648 L 294.921 652.188 M 515.467 543.752 L 626.904 494.078 M 626.904 494.078 L 637.567 372.537 M 212.522 335.248 L 90.4227 506.463 M 645.591 245.457 L 544.506 177.138 M 402.13 720.89 L 510.929 665.675 M 186.122 707.402 L 396.006 720.507 M 515.467 543.752 L 724.426 567.393 M 305.583 530.648 L 183.483 701.862 M 727.989 562.397 L 637.567 372.537 M 727.989 562.397 L 738.652 440.857 M 738.652 440.857 L 637.567 372.537 M 101.085 384.923 L 90.4227 506.463 M 212.522 335.248 L 101.085 384.923 M 754.389 190.242 L 544.506 177.138 M 402.13 720.89 L 612.014 733.994 M 186.122 707.402 L 287.207 775.722 M 727.989 562.397 L 850.089 391.182 M 847.45 385.642 L 637.567 372.537 M 754.389 190.242 L 653.304 121.923 M 653.304 121.923 L 544.506 177.138 M 402.13 720.89 L 503.215 789.209 M 402.13 720.89 L 492.553 910.749 M 503.215 789.209 L 612.014 733.994 M 498.677 911.132 L 612.014 733.994 M 186.122 707.402 L 276.544 897.262 M 175.459 828.943 L 276.544 897.262 M 186.122 707.402 L 175.459 828.943 M 839.426 512.722 L 850.089 391.182 M 940.512 581.041 L 850.089 391.182 M 940.512 581.041 L 951.174 459.501 M 951.174 459.501 L 850.089 391.182" />
</svg>
