<?xml version="1.0"?>
<svg width="18199" height="20893" version="1.1" xmlns="http://www.w3.org/2000/svg" >
<defs>
<style type="text/css"><![CDATA[
.m {stroke:rgb(255,0,0);stroke-width:26.116250;}
.v {stroke:rgb(0,0,255);stroke-width:26.116250;}
.b {stroke:rgb(0,0,0);stroke-width:52.232500;fill:white}
.n {stroke:rgb(128,128,128);stroke-width:26.116250}
.t {stroke:rgb(0,128,0);stroke-width:26.116250;}
.c {stroke:rgb(128,128,128);stroke-width:26.116250;stroke-dasharray:181.990000, 181.990000;}
]]></style>
</defs>
<path fill="none" style="stroke:black;stroke-width:52.232500;" d=" M 9969.13 9029.75 L 8527.01 9010.06 M 8527.01 9010.06 L 8826.48 9818 M 6571.76 8991.35 L 7167.79 9761.77 M 8680.37 9828.43 L 8117.02 9176.45 M 11810.8 0 L 10852.8 43.2478 M 10852.8 43.2478 L 11470 796.77 M 12859.3 494.309 L 11810.8 0 M 13550.1 1391.45 L 12859.3 494.309 M 12805.4 1527.72 L 13550.1 1391.45 M 3782.74 10050.1 L 2761.66 9333.88 M 2761.66 9333.88 L 2239.71 9999.85 M 13562.4 1538.35 L 12805.4 1527.72 M 13425.7 2778.05 L 13562.4 1538.35 M 0 13133.5 L 757.499 13598.4 M 1640.47 12794.2 L 0 13133.5 M 14293.3 2448.64 L 13451.2 2531.39 M 13922.2 4082.19 L 14293.3 2448.64 M 14192.1 4972.46 L 14758.5 3781.36 M 14758.5 3781.36 L 13922.2 4082.19 M 13209.9 5427.86 L 14192.1 4972.46 M 16461.4 7427.69 L 15517 7956.8 M 15517 7956.8 L 15152.7 8448.98 M 14666.4 9394.86 L 15780 8810.33 M 13783.5 10099.9 L 14666.4 9394.86 M 13653.6 9203.36 L 12607.2 9393.03 M 12607.2 9393.03 L 12182.7 9998.82 M 10439.6 9608.25 L 11501.8 8403.55 M 12421.1 9273.38 L 10916.1 9834.4 M 12146.5 9960.28 L 12421.1 9273.38 M 10029 10835.3 L 10439.6 9608.25 M 7953.96 10807.4 L 7078.7 9835.12 M 7167.79 9761.77 L 7953.96 10807.4 M 4880.91 10326 L 3782.74 10050.1 M 2239.71 9999.85 L 2869.69 10658.4 M 2869.69 10658.4 L 3936.13 11018.5 M 17139.9 6296.66 L 16461.4 7427.69 M 15780 8810.33 L 17067 7951.16 M 13107.5 10947.1 L 13783.5 10099.9 M 11359.5 10735.9 L 12146.5 9960.28 M 7078.7 9835.12 L 6156.54 10098.6 M 6156.54 10098.6 L 7287.59 11016.8 M 6038.53 10266.9 L 4880.91 10326 M 757.499 13598.4 L 1722.52 13868.3 M 17067 7951.16 L 18199.3 6949.42 M 18199.3 6949.42 L 17139.9 6296.66 M 17175.8 15270.7 L 16393.9 13935.4 M 14982.4 14398.4 L 16087.7 15496.1 M 16393.9 13935.4 L 15605.4 12955.6 M 15605.4 12955.6 L 14577.6 12486.4 M 12182.2 11424.8 L 13107.5 10947.1 M 8826.48 9818 L 8858.11 11289.5 M 8858.11 11289.5 L 8680.37 9828.43 M 3936.13 11018.5 L 5359.92 11500.4 M 3899.82 11959.4 L 2815.45 12261.2 M 1919.04 12096.7 L 2614.64 12939.3 M 2815.45 12261.2 L 1919.04 12096.7 M 2614.64 12939.3 L 3412.81 13348.3 M 6985.32 20894.1 L 7814.22 19966 M 6828.5 19904.4 L 6985.32 20894.1 M 9063.66 20056.4 L 10475.3 20597.7 M 10475.3 20597.7 L 9888.53 19625.2 M 14577.6 12486.4 L 13495.5 12549.1 M 12182.7 9998.82 L 11359.5 10735.9 M 10916.1 9834.4 L 10159.5 10884.1 M 9696.65 11923.8 L 10029 10835.3 M 5389.47 11758.6 L 3899.82 11959.4 M 3412.81 13348.3 L 4937.12 12817.7 M 16087.7 15496.1 L 16975.6 16388.7 M 16975.6 16388.7 L 17175.8 15270.7 M 13495.5 12549.1 L 12485.5 12295.4 M 4937.12 12817.7 L 3480.93 13513.8 M 11624.5 17858.8 L 11916.7 19243 M 11916.7 19243 L 12953.5 18528.7 M 12159.8 13326.2 L 13445.7 13817.4 M 4633.39 14105.1 L 6288.4 13301.9 M 9888.53 19625.2 L 10404.2 18307.8 M 13391 13941.9 L 12159.8 13326.2 M 6535.53 13544.3 L 5513.4 15073.8 M 5513.4 15073.8 L 6921.07 14333.2 M 8790.51 17876.8 L 9222.17 18789.3 M 11450.8 13624.9 L 12228 14435.3 M 8947.22 12807.3 L 7841.05 13684.8 M 7258.62 14664.8 L 6172.7 15827 M 10404.2 18307.8 L 10100.1 16999.1 M 12075.1 14558.2 L 11450.8 13624.9 M 8386.68 14715.8 L 9313.54 13745.1 M 7841.05 13684.8 L 7258.62 14664.8 M 7382.77 15933.7 L 8386.68 14715.8 M 8522.94 17849.6 L 8817.45 16280.5 M 9313.54 13745.1 L 8511.55 14821.3 M 8817.45 16280.5 L 8790.51 17876.8 M 10277.3 14028 L 9732.9 15271.4 M 9595.85 15201.9 L 10277.3 14028 M 8511.55 14821.3 L 7869.24 16263 M 10100.1 16999.1 L 9595.85 15201.9 M 9732.9 15271.4 L 10761.4 16829.2 M 10494.8 8713.27 L 9737.26 8476.27 M 8475.93 8337.05 L 8565.65 8697.57 M 8565.65 8697.57 L 9969.13 9029.75 M 8117.02 9176.45 L 7797.07 8987.62 M 7797.07 8987.62 L 6877.01 8637.4 M 6877.01 8637.4 L 5922.05 7860.97 M 5922.05 7860.97 L 6571.76 8991.35 M 11470 796.77 L 12399.7 1710.91 M 12816.5 6223.57 L 13287.6 5832.5 M 13287.6 5832.5 L 13008 5676.43 M 11943.7 7436.26 L 11961.7 5758.12 M 11961.7 5758.12 L 11783.2 6540.48 M 15152.7 8448.98 L 13653.6 9203.36 M 11783.2 6540.48 L 11657.3 7333.45 M 11501.8 8403.55 L 11943.7 7436.26 M 7598.51 7890.64 L 8475.93 8337.05 M 12936.4 2602.71 L 13425.7 2778.05 M 13451.2 2531.39 L 12936.4 2602.71 M 9731.33 8496.16 L 10494.8 8713.27 M 6509.45 7317.26 L 7598.51 7890.64 M 11892.5 2643.7 L 11136 2345.48 M 11136 2345.48 L 11114.6 3214.17 M 11114.6 3214.17 L 12209.9 3354.66 M 12399.7 1710.91 L 11892.5 2643.7 M 7356.61 5448.36 L 7379.65 6317.01 M 8375.85 6832.27 L 7356.61 5448.36 M 10155.3 7544.56 L 10852.7 6798.58 M 9047.27 6592.67 L 9116.09 7722.38 M 8844.58 3588.24 L 8679.39 4680.05 M 10141.6 3731.68 L 8844.58 3588.24 M 12404.2 4645.03 L 12908.5 4083.39 M 12209.9 3354.66 L 12404.2 4645.03 M 11482.3 4295.8 L 10724.3 3225.5 M 10724.3 3225.5 L 10357.5 3885.19 M 11682.9 5930.67 L 12139.4 4622.52 M 12139.4 4622.52 L 11318.9 5448.64 M 10985.6 6881.29 L 11682.9 5930.67 M 9869.36 6970.23 L 10408.4 7494.32 M 10664.9 6784.08 L 9931.51 7494.79 M 10917.1 7492.34 L 10664.9 6784.08 M 12908.5 4083.39 L 13426.7 3454.62 M 12641.6 3672.49 L 12621.3 4983.87 M 13426.7 3454.62 L 12641.6 3672.49 M 13008 5676.43 L 13209.9 5427.86 M 12621.3 4983.87 L 11941.3 6191.05 M 12251.2 6793.13 L 12816.5 6223.57 M 11657.3 7333.45 L 12251.2 6793.13 M 11941.3 6191.05 L 10985.6 6881.29 M 10408.4 7494.32 L 10666 8314.84 M 10666 8314.84 L 10917.1 7492.34 M 9931.51 7494.79 L 9731.33 8496.16 M 9737.26 8476.27 L 10155.3 7544.56 M 9116.09 7722.38 L 9211.12 6594.58 M 7379.65 6317.01 L 6568.72 6257.17 M 6568.72 6257.17 L 6509.45 7317.26 M 9211.12 6594.58 L 7858.43 5193.26 M 7858.43 5193.26 L 8375.85 6832.27 M 9695.14 5325.79 L 9869.36 6970.23 M 11318.9 5448.64 L 11482.3 4295.8 M 10357.5 3885.19 L 9695.14 5325.79 M 10852.7 6798.58 L 10118.2 5317.06 M 8679.39 4680.05 L 9047.27 6592.67 M 10118.2 5317.06 L 10141.6 3731.68 M 6348.15 11518.1 L 5389.47 11758.6 M 7503.99 12309.5 L 6535.53 13544.3 M 6288.4 13301.9 L 7503.99 12309.5 M 7740.95 13541.1 L 8947.22 12807.3 M 7287.59 11016.8 L 6038.53 10266.9 M 5359.92 11500.4 L 6348.15 11518.1 M 6921.07 14333.2 L 7740.95 13541.1 M 10159.5 10884.1 L 9696.65 11923.8 M 10545.9 12770 L 11292 11825.9 M 11532.9 12081.6 L 10545.9 12770 M 12485.5 12295.4 L 11532.9 12081.6 M 11292 11825.9 L 12182.2 11424.8 M 2826.49 14558.2 L 4633.39 14105.1 M 5627.94 17608.4 L 6652.64 17119.4 M 6172.7 15827 L 5627.94 17608.4 M 3480.93 13513.8 L 2610.76 13296.5 M 6652.64 17119.4 L 7382.77 15933.7 M 7869.24 16263 L 7632.85 17635.3 M 7632.85 17635.3 L 7080.15 18627.1 M 7947.93 19478.3 L 8630.65 18853.3 M 8630.65 18853.3 L 8522.94 17849.6 M 7080.15 18627.1 L 6828.5 19904.4 M 1722.52 13868.3 L 2826.49 14558.2 M 2610.76 13296.5 L 1640.47 12794.2 M 9222.17 18789.3 L 8810.86 19618.4 M 8810.86 19618.4 L 9063.66 20056.4 M 7814.22 19966 L 7947.93 19478.3 M 13781.6 15954.5 L 12666.4 15097.5 M 11218.3 15467.6 L 12225 16318.7 M 13438.8 17093.5 L 13781.6 15954.5 M 12225 16318.7 L 13438.8 17093.5 M 12916.7 14843 L 14265.8 15240.7 M 14265.8 15240.7 L 13391 13941.9 M 12022.9 16511.7 L 11218.3 15467.6 M 10761.4 16829.2 L 11624.5 17858.8 M 12698 17783.8 L 12022.9 16511.7 M 12953.5 18528.7 L 12698 17783.8 M 15309.5 15834.9 L 16040.5 15541.7 M 16040.5 15541.7 L 14982.4 14398.4 M 14585.2 14891.4 L 15309.5 15834.9 M 13445.7 13817.4 L 14585.2 14891.4 M 12228 14435.3 L 12916.7 14843 M 12666.4 15097.5 L 12075.1 14558.2" />
<path fill="none" class="c" d=" M 8826.48 9818 L 9969.13 9029.75 M 10439.6 9608.25 L 9969.13 9029.75 M 8826.48 9818 L 10439.6 9608.25 M 11501.8 8403.55 L 9969.13 9029.75 M 8826.48 9818 L 10029 10835.3 M 10494.8 8713.27 L 9969.13 9029.75 M 11501.8 8403.55 L 10494.8 8713.27 M 8858.11 11289.5 L 10029 10835.3 M 10494.8 8713.27 L 8565.65 8697.57 M 11943.7 7436.26 L 10494.8 8713.27 M 8858.11 11289.5 L 9696.65 11923.8 M 11657.3 7333.45 L 10494.8 8713.27 M 8858.11 11289.5 L 8947.22 12807.3 M 8947.22 12807.3 L 9696.65 11923.8 M 10666 8314.84 L 10494.8 8713.27 M 8858.11 11289.5 L 7503.99 12309.5 M 7503.99 12309.5 L 8947.22 12807.3 M 10545.9 12770 L 9696.65 11923.8 M 11657.3 7333.45 L 10666 8314.84 M 7503.99 12309.5 L 7740.95 13541.1 M 10494.8 8713.27 L 8475.93 8337.05 M 11943.7 7436.26 L 11657.3 7333.45 M 11292 11825.9 L 9696.65 11923.8 M 6535.53 13544.3 L 7740.95 13541.1 M 9737.26 8476.27 L 8475.93 8337.05 M 11943.7 7436.26 L 11783.2 6540.48 M 9737.26 8476.27 L 9116.09 7722.38 M 9116.09 7722.38 L 8475.93 8337.05 M 10155.3 7544.56 L 9116.09 7722.38 M 9116.09 7722.38 L 7598.51 7890.64 M 10155.3 7544.56 L 9047.27 6592.67 M 9116.09 7722.38 L 8375.85 6832.27 M 8375.85 6832.27 L 7598.51 7890.64 M 10852.7 6798.58 L 9047.27 6592.67 M 9211.12 6594.58 L 8375.85 6832.27 M 7379.65 6317.01 L 7598.51 7890.64 M 10118.2 5317.06 L 9047.27 6592.67 M 11292 11825.9 L 10159.5 10884.1 M 6535.53 13544.3 L 6921.07 14333.2 M 11657.3 7333.45 L 10408.4 7494.32 M 7379.65 6317.01 L 6509.45 7317.26 M 10118.2 5317.06 L 8679.39 4680.05 M 8947.22 12807.3 L 10545.9 12770 M 7953.96 10807.4 L 7503.99 12309.5 M 11657.3 7333.45 L 10985.6 6881.29 M 8947.22 12807.3 L 10277.3 14028 M 10277.3 14028 L 10545.9 12770 M 7953.96 10807.4 L 7287.59 11016.8 M 7287.59 11016.8 L 7503.99 12309.5 M 9313.54 13745.1 L 10277.3 14028 M 10277.3 14028 L 11450.8 13624.9 M 11450.8 13624.9 L 10545.9 12770 M 10277.3 14028 L 11218.3 15467.6 M 11218.3 15467.6 L 11450.8 13624.9 M 11450.8 13624.9 L 11532.9 12081.6 M 9732.9 15271.4 L 11218.3 15467.6 M 11218.3 15467.6 L 12075.1 14558.2 M 11450.8 13624.9 L 12159.8 13326.2 M 12159.8 13326.2 L 11532.9 12081.6 M 10761.4 16829.2 L 11218.3 15467.6 M 11218.3 15467.6 L 12666.4 15097.5 M 12228 14435.3 L 12159.8 13326.2 M 12159.8 13326.2 L 12485.5 12295.4 M 12228 14435.3 L 13391 13941.9 M 12159.8 13326.2 L 13495.5 12549.1 M 10761.4 16829.2 L 12022.9 16511.7 M 12916.7 14843 L 13391 13941.9 M 13445.7 13817.4 L 13495.5 12549.1 M 11624.5 17858.8 L 12022.9 16511.7 M 12225 16318.7 L 12666.4 15097.5 M 13445.7 13817.4 L 14577.6 12486.4 M 11624.5 17858.8 L 12698 17783.8 M 12225 16318.7 L 13781.6 15954.5 M 14982.4 14398.4 L 14577.6 12486.4 M 13445.7 13817.4 L 14982.4 14398.4 M 11624.5 17858.8 L 12953.5 18528.7 M 14982.4 14398.4 L 15605.4 12955.6 M 14585.2 14891.4 L 14982.4 14398.4 M 7078.7 9835.12 L 7287.59 11016.8 M 6348.15 11518.1 L 7503.99 12309.5 M 7287.59 11016.8 L 6348.15 11518.1 M 9313.54 13745.1 L 9595.85 15201.9 M 15309.5 15834.9 L 14982.4 14398.4 M 11657.3 7333.45 L 11941.3 6191.05 M 8947.22 12807.3 L 9313.54 13745.1 M 6038.53 10266.9 L 6348.15 11518.1 M 8511.55 14821.3 L 9595.85 15201.9 M 12251.2 6793.13 L 11941.3 6191.05 M 7841.05 13684.8 L 9313.54 13745.1 M 11292 11825.9 L 11359.5 10735.9 M 10141.6 3731.68 L 8679.39 4680.05 M 10985.6 6881.29 L 10408.4 7494.32 M 8817.45 16280.5 L 9595.85 15201.9 M 12816.5 6223.57 L 11941.3 6191.05 M 7841.05 13684.8 L 8386.68 14715.8 M 12182.2 11424.8 L 11359.5 10735.9 M 10666 8314.84 L 9731.33 8496.16 M 13008 5676.43 L 11941.3 6191.05 M 7258.62 14664.8 L 8386.68 14715.8 M 12182.2 11424.8 L 12182.7 9998.82 M 10666 8314.84 L 9931.51 7494.79 M 13008 5676.43 L 12621.3 4983.87 M 7258.62 14664.8 L 7382.77 15933.7 M 13107.5 10947.1 L 12182.7 9998.82 M 10917.1 7492.34 L 9931.51 7494.79 M 13209.9 5427.86 L 12621.3 4983.87 M 6172.7 15827 L 7382.77 15933.7 M 13783.5 10099.9 L 12182.7 9998.82 M 8858.11 11289.5 L 7953.96 10807.4 M 13209.9 5427.86 L 12641.6 3672.49 M 6172.7 15827 L 6652.64 17119.4 M 13783.5 10099.9 L 12607.2 9393.03 M 8680.37 9828.43 L 7953.96 10807.4 M 13209.9 5427.86 L 13426.7 3454.62 M 13783.5 10099.9 L 13653.6 9203.36 M 8680.37 9828.43 L 7167.79 9761.77 M 13209.9 5427.86 L 13922.2 4082.19 M 13922.2 4082.19 L 13426.7 3454.62 M 14666.4 9394.86 L 13653.6 9203.36 M 8117.02 9176.45 L 7167.79 9761.77 M 14192.1 4972.46 L 13922.2 4082.19 M 13922.2 4082.19 L 13451.2 2531.39 M 13451.2 2531.39 L 13426.7 3454.62 M 14666.4 9394.86 L 15152.7 8448.98 M 8117.02 9176.45 L 6571.76 8991.35 M 12936.4 2602.71 L 13426.7 3454.62 M 15780 8810.33 L 15152.7 8448.98 M 7797.07 8987.62 L 6571.76 8991.35 M 12209.9 3354.66 L 13426.7 3454.62 M 12936.4 2602.71 L 12209.9 3354.66 M 15780 8810.33 L 15517 7956.8 M 6877.01 8637.4 L 6571.76 8991.35 M 12209.9 3354.66 L 12908.5 4083.39 M 11892.5 2643.7 L 12209.9 3354.66 M 12936.4 2602.71 L 11892.5 2643.7 M 15780 8810.33 L 16461.4 7427.69 M 11136 2345.48 L 12209.9 3354.66 M 12936.4 2602.71 L 12399.7 1710.91 M 17067 7951.16 L 16461.4 7427.69 M 11359.5 10735.9 L 10159.5 10884.1 M 12805.4 1527.72 L 12399.7 1710.91 M 12936.4 2602.71 L 12805.4 1527.72 M 17067 7951.16 L 17139.9 6296.66 M 11359.5 10735.9 L 10916.1 9834.4 M 12805.4 1527.72 L 11470 796.77 M 13425.7 2778.05 L 12805.4 1527.72 M 12146.5 9960.28 L 10916.1 9834.4 M 12805.4 1527.72 L 12859.3 494.309 M 12859.3 494.309 L 11470 796.77 M 10985.6 6881.29 L 9869.36 6970.23 M 12816.5 6223.57 L 13008 5676.43 M 11318.9 5448.64 L 9869.36 6970.23 M 11810.8 0 L 11470 796.77 M 10985.6 6881.29 L 11318.9 5448.64 M 11318.9 5448.64 L 9695.14 5325.79 M 8817.45 16280.5 L 10100.1 16999.1 M 11682.9 5930.67 L 11318.9 5448.64 M 11318.9 5448.64 L 10357.5 3885.19 M 8790.51 17876.8 L 10100.1 16999.1 M 8511.55 14821.3 L 8817.45 16280.5 M 11482.3 4295.8 L 10357.5 3885.19 M 8790.51 17876.8 L 10404.2 18307.8 M 7869.24 16263 L 8817.45 16280.5 M 8375.85 6832.27 L 7379.65 6317.01 M 9222.17 18789.3 L 10404.2 18307.8 M 7869.24 16263 L 8522.94 17849.6 M 6348.15 11518.1 L 6288.4 13301.9 M 9222.17 18789.3 L 9888.53 19625.2 M 7632.85 17635.3 L 8522.94 17849.6 M 5389.47 11758.6 L 6288.4 13301.9 M 9063.66 20056.4 L 9888.53 19625.2 M 4937.12 12817.7 L 6288.4 13301.9 M 9222.17 18789.3 L 9063.66 20056.4 M 4937.12 12817.7 L 4633.39 14105.1 M 7080.15 18627.1 L 8522.94 17849.6 M 3480.93 13513.8 L 4633.39 14105.1 M 7947.93 19478.3 L 8522.94 17849.6 M 7080.15 18627.1 L 7947.93 19478.3 M 3480.93 13513.8 L 2826.49 14558.2 M 6828.5 19904.4 L 7947.93 19478.3 M 2610.76 13296.5 L 2826.49 14558.2 M 6828.5 19904.4 L 7814.22 19966 M 2610.76 13296.5 L 1722.52 13868.3 M 5389.47 11758.6 L 4937.12 12817.7 M 1640.47 12794.2 L 1722.52 13868.3 M 3899.82 11959.4 L 4937.12 12817.7 M 1640.47 12794.2 L 757.499 13598.4 M 3899.82 11959.4 L 3412.81 13348.3 M 6038.53 10266.9 L 5359.92 11500.4 M 2815.45 12261.2 L 3412.81 13348.3 M 4880.91 10326 L 5359.92 11500.4 M 2815.45 12261.2 L 2614.64 12939.3 M 4880.91 10326 L 3936.13 11018.5 M 14982.4 14398.4 L 16393.9 13935.4 M 3782.74 10050.1 L 3936.13 11018.5 M 16087.7 15496.1 L 16393.9 13935.4 M 3782.74 10050.1 L 2869.69 10658.4 M 16087.7 15496.1 L 17175.8 15270.7 M 3782.74 10050.1 L 2239.71 9999.85" />
</svg>
