<?xml version="1.0"?>
<svg width="16203" height="17529" version="1.1" xmlns="http://www.w3.org/2000/svg" >
<defs>
<style type="text/css"><![CDATA[
.m {stroke:rgb(255,0,0);stroke-width:21.911250;}
.v {stroke:rgb(0,0,255);stroke-width:21.911250;}
.b {stroke:rgb(0,0,0);stroke-width:43.822500;fill:white}
.n {stroke:rgb(128,128,128);stroke-width:21.911250}
.t {stroke:rgb(0,128,0);stroke-width:21.911250;}
.c {stroke:rgb(128,128,128);stroke-width:21.911250;stroke-dasharray:162.030000, 162.030000;}
]]></style>
</defs>
<path fill="none" style="stroke:black;stroke-width:43.822500;" d=" M 4791.49 6223.24 L 3349.37 6203.55 M 3648.84 7011.49 L 5261.94 6801.74 M 3349.37 6203.55 L 1966.69 5489.22 M 1966.69 5489.22 L 2255.3 6419.55 M 2255.3 6419.55 L 3648.84 7011.49 M 2382.03 10380.4 L 1435.68 10611.1 M 1107.66 11994.6 L 2006.73 11263 M 0 12229.5 L 1107.66 11994.6 M 199.184 11499.1 L 0 12229.5 M 1435.68 10611.1 L 199.184 11499.1 M 1326.31 1764.33 L 2367.27 1077.34 M 1939.32 347.401 L 1326.31 1764.33 M 1502.09 1975.68 L 2095.16 2446.32 M 2367.27 1077.34 L 1502.09 1975.68 M 12345.2 2618.15 L 12525.7 1437.56 M 12525.7 1437.56 L 11463.8 2733.18 M 3578.1 0 L 1939.32 347.401 M 11537.1 3660.57 L 12345.2 2618.15 M 10486.5 4788.53 L 11537.1 3660.57 M 10480.3 3895.42 L 9989.84 4261.93 M 9989.84 4261.93 L 9251.83 5027.77 M 7982.9 5657.32 L 8460.13 4633.18 M 6614.99 5547.34 L 6504.14 6278.75 M 6324.17 5597.04 L 4791.49 6223.24 M 6406.14 6332.24 L 6324.17 5597.04 M 3716.4 7424.88 L 5124.55 8130.68 M 5234.86 6841.47 L 3716.4 7424.88 M 3688.43 10311.6 L 2382.03 10380.4 M 3563.69 8748.99 L 2335.33 9634.13 M 2335.33 9634.13 L 3600.35 9967.49 M 1381.1 12397.7 L 475.81 13077.8 M 475.81 13077.8 L 1325.13 13567.7 M 10588.5 16601.5 L 10002.6 17529.1 M 10002.6 17529.1 L 11432.2 16946.2 M 7681.48 17443.6 L 8704.79 17047.9 M 7741.9 16465 L 7681.48 17443.6 M 12384.6 5197.92 L 13519.2 3991.48 M 13519.2 3991.48 L 12267.1 4406.14 M 12267.1 4406.14 L 10848.7 5009.58 M 7754.26 6716.78 L 7982.9 5657.32 M 5261.94 6801.74 L 6078.27 7387.4 M 2006.73 11263 L 3431.99 10961.3 M 2063.4 11460.6 L 1381.1 12397.7 M 15311.5 8036.96 L 16203 7432.31 M 16203 7432.31 L 15066.5 7065.32 M 15066.5 7065.32 L 13424.6 6849.03 M 11903.8 6199.7 L 12384.6 5197.92 M 10848.7 5009.58 L 10360.5 6412.57 M 10236.2 6252.77 L 10486.5 4788.53 M 9251.83 5027.77 L 8356.62 5717.13 M 6504.14 6278.75 L 7137.87 7556.15 M 5135.41 8645.32 L 3563.69 8748.99 M 3600.35 9967.49 L 4608.67 9785.42 M 1325.13 13567.7 L 2595.35 12764.1 M 8704.79 17047.9 L 9087.21 15867.8 M 11432.2 16946.2 L 10924 15978.9 M 10226.6 15415 L 10588.5 16601.5 M 14324.2 8064.04 L 15311.5 8036.96 M 13396.8 7984.46 L 14324.2 8064.04 M 9004.43 7339.79 L 10236.2 6252.77 M 8356.62 5717.13 L 7906.38 6703.04 M 7137.87 7556.15 L 6406.14 6332.24 M 6078.27 7387.4 L 5234.86 6841.47 M 4608.67 9785.42 L 5652.54 9659.2 M 7592.62 16466.2 L 7656.21 15121.3 M 6537.66 15395.5 L 7592.62 16466.2 M 7656.21 15121.3 L 7741.9 16465 M 13424.6 6849.03 L 12383.4 7237.35 M 7969.21 8247.07 L 7754.26 6716.78 M 4631.91 9911.99 L 3688.43 10311.6 M 9087.21 15867.8 L 8868.06 14591.2 M 14315.7 9472.54 L 13542.1 8954.89 M 13127.4 9940.15 L 14315.7 9472.54 M 12183.7 8712.22 L 13396.8 7984.46 M 7906.38 6703.04 L 7969.21 8247.07 M 4573.03 11606.3 L 5867.89 10797.5 M 5652.54 9659.2 L 4631.91 9911.99 M 13542.1 8954.89 L 12138.7 9132.99 M 8868.06 14591.2 L 7971.99 13277.1 M 6917.97 12507.6 L 7374.62 11106.4 M 7971.99 13277.1 L 8956.06 14526.7 M 8956.06 14526.7 L 9245.02 13346.8 M 11135.4 10026.6 L 12533 10756.1 M 9596.22 9927.75 L 7977.89 9016.38 M 7977.89 9016.38 L 9730.13 9632.21 M 9730.13 9632.21 L 9021.85 8602.96 M 7374.62 11106.4 L 7091.69 12552.7 M 9245.02 13346.8 L 8193.54 12169.8 M 11111.9 12978.6 L 9681.09 12270.3 M 9868.61 12088.5 L 11458 12238.9 M 11458 12238.9 L 10684.3 10865.3 M 9681.09 12270.3 L 8853.44 11229 M 8193.54 12169.8 L 9407.5 13178.4 M 8853.44 11229 L 9868.61 12088.5 M 10684.3 10865.3 L 9596.22 9927.75 M 3961.11 4074.77 L 5583.25 5334.22 M 5018.46 4776.44 L 3961.11 4074.77 M 5583.25 5334.22 L 3994.59 4032.78 M 3899.73 4391.99 L 4970.12 5358.62 M 3994.59 4032.78 L 3658.3 2854.53 M 3658.3 2854.53 L 3899.73 4391.99 M 2706.43 3840.5 L 3843.61 4296.78 M 2095.16 2446.32 L 2706.43 3840.5 M 3215.86 712.849 L 3578.1 0 M 11463.8 2733.18 L 11114 2014.17 M 8217 3391.22 L 8613.74 2924.85 M 7467.84 4912.1 L 8291.29 3449.78 M 8291.29 3449.78 L 7758.27 4049.64 M 8460.13 4633.18 L 8475.04 3569.71 M 8475.04 3569.71 L 7467.84 4912.1 M 4970.12 5358.62 L 6614.99 5547.34 M 3843.61 4296.78 L 5018.46 4776.44 M 3122.18 3626.94 L 3805.31 2192.54 M 4627.75 3881.15 L 4159.88 2822.22 M 3053.21 925.304 L 3161.1 1696.36 M 3805.31 2192.54 L 4066.65 1363.81 M 4066.65 1363.81 L 3053.21 925.304 M 2528.3 2548.93 L 3499.48 2119.82 M 3559.06 1211.91 L 3343.09 2053.61 M 4159.88 2822.22 L 3559.06 1211.91 M 3960.13 3427.06 L 5113.53 4323.4 M 5675.87 3995.02 L 4871.26 2775.85 M 10842 1141.58 L 10788.7 38.6288 M 10788.7 38.6288 L 9542.19 1256.69 M 10072 1794.38 L 10842 1141.58 M 9542.19 1256.69 L 8831.56 2220.47 M 8065.09 3819.47 L 9329.92 3253.91 M 8165.94 3223.91 L 6895.1 3964.54 M 5873.85 3505.29 L 6094.13 4224.12 M 6094.13 4224.12 L 5773.54 3544.07 M 11114 2014.17 L 10363.1 1051.52 M 10363.1 1051.52 L 10300.5 2059.12 M 2647.75 1514.97 L 3634.91 1859.58 M 3634.91 1859.58 L 3215.86 712.849 M 8613.74 2924.85 L 10072 1794.38 M 10300.5 2059.12 L 10480.3 3895.42 M 8831.56 2220.47 L 8311.38 2819.28 M 8311.38 2819.28 L 7811.18 2203.67 M 7811.18 2203.67 L 7349.32 3509.94 M 7758.27 4049.64 L 8217 3391.22 M 7349.32 3509.94 L 7266.33 4684.18 M 7266.33 4684.18 L 8065.09 3819.47 M 5113.53 4323.4 L 5925 5067.32 M 5925 5067.32 L 5675.87 3995.02 M 4011.87 2900.88 L 4627.75 3881.15 M 3343.09 2053.61 L 3122.18 3626.94 M 3161.1 1696.36 L 2528.3 2548.93 M 3499.48 2119.82 L 3682.23 1363.01 M 3682.23 1363.01 L 2647.75 1514.97 M 6895.1 3964.54 L 7876.73 2869.11 M 4871.26 2775.85 L 3715.99 1207.79 M 3715.99 1207.79 L 4011.87 2900.88 M 6512.55 1979.97 L 5873.85 3505.29 M 9608.69 2089.38 L 8165.94 3223.91 M 9329.92 3253.91 L 9608.69 2089.38 M 7876.73 2869.11 L 7786.44 1035.94 M 5773.54 3544.07 L 4967.09 2100.41 M 4967.09 2100.41 L 3498.78 1534.81 M 3498.78 1534.81 L 3960.13 3427.06 M 7786.44 1035.94 L 6145.04 450.02 M 6145.04 450.02 L 6512.55 1979.97 M 4957.27 13766.9 L 5265.18 14706.1 M 5265.18 14706.1 L 6740.89 13700 M 6740.89 13700 L 6917.97 12507.6 M 5664.71 12557.8 L 4957.27 13766.9 M 7232.1 13750 L 6537.66 15395.5 M 6372.66 11205.2 L 5664.71 12557.8 M 3230.74 12007 L 4573.03 11606.3 M 3431.99 10961.3 L 2063.4 11460.6 M 2595.35 12764.1 L 3230.74 12007 M 7091.69 12552.7 L 7232.1 13750 M 6579.97 8357.4 L 5135.41 8645.32 M 5867.89 10797.5 L 6844.54 9531.31 M 7907.86 10255.3 L 6372.66 11205.2 M 6844.54 9531.31 L 6275.13 11025.6 M 6275.13 11025.6 L 7907.86 10255.3 M 5124.55 8130.68 L 6579.97 8357.4 M 9430.92 14392.9 L 10226.6 15415 M 11260.4 14743.9 L 10664.6 13777.4 M 10924 15978.9 L 11260.4 14743.9 M 9407.5 13178.4 L 9430.92 14392.9 M 10664.6 13777.4 L 11469.7 14578 M 11469.7 14578 L 11111.9 12978.6 M 12533 10756.1 L 14124.1 11149.2 M 15168.4 10372 L 14052.9 9935.76 M 14124.1 11149.2 L 15377.8 11407.4 M 15377.8 11407.4 L 16198.8 10686.4 M 16198.8 10686.4 L 15168.4 10372 M 14331 9513.32 L 13127.4 9940.15 M 14052.9 9935.76 L 15249.3 9876.86 M 15249.3 9876.86 L 14331 9513.32 M 10704.7 7178.15 L 9659.52 8119.31 M 11762.6 7721.89 L 10704.7 7178.15 M 9659.52 8119.31 L 10537.4 7020.46 M 9760.7 9610.49 L 11135.4 10026.6 M 12138.7 9132.99 L 10780.3 8775.02 M 10780.3 8775.02 L 12183.7 8712.22 M 12383.4 7237.35 L 11762.6 7721.89 M 11725.6 6966.84 L 11903.8 6199.7 M 10537.4 7020.46 L 11725.6 6966.84 M 10360.5 6412.57 L 9004.43 7339.79 M 9021.85 8602.96 L 9760.7 9610.49" />
<path fill="none" class="c" d=" M 3349.37 6203.55 L 3648.84 7011.49 M 3648.84 7011.49 L 4791.49 6223.24 M 3349.37 6203.55 L 2255.3 6419.55 M 5261.94 6801.74 L 4791.49 6223.24 M 5261.94 6801.74 L 6324.17 5597.04 M 5261.94 6801.74 L 6406.14 6332.24 M 6078.27 7387.4 L 6406.14 6332.24 M 6078.27 7387.4 L 7137.87 7556.15 M 6579.97 8357.4 L 7137.87 7556.15 M 6078.27 7387.4 L 6579.97 8357.4 M 6579.97 8357.4 L 7969.21 8247.07 M 6078.27 7387.4 L 5124.55 8130.68 M 7977.89 9016.38 L 7969.21 8247.07 M 6579.97 8357.4 L 7977.89 9016.38 M 5234.86 6841.47 L 5124.55 8130.68 M 9021.85 8602.96 L 7969.21 8247.07 M 7977.89 9016.38 L 9021.85 8602.96 M 6844.54 9531.31 L 7977.89 9016.38 M 9021.85 8602.96 L 9004.43 7339.79 M 7969.21 8247.07 L 7137.87 7556.15 M 6579.97 8357.4 L 6844.54 9531.31 M 9021.85 8602.96 L 9659.52 8119.31 M 7754.26 6716.78 L 7137.87 7556.15 M 5652.54 9659.2 L 6844.54 9531.31 M 6579.97 8357.4 L 5652.54 9659.2 M 9760.7 9610.49 L 9659.52 8119.31 M 7754.26 6716.78 L 6504.14 6278.75 M 9760.7 9610.49 L 10780.3 8775.02 M 7982.9 5657.32 L 6504.14 6278.75 M 11135.4 10026.6 L 10780.3 8775.02 M 7982.9 5657.32 L 6614.99 5547.34 M 11135.4 10026.6 L 12138.7 9132.99 M 7467.84 4912.1 L 6614.99 5547.34 M 7982.9 5657.32 L 7467.84 4912.1 M 12533 10756.1 L 12138.7 9132.99 M 7467.84 4912.1 L 5583.25 5334.22 M 5583.25 5334.22 L 6614.99 5547.34 M 8460.13 4633.18 L 7467.84 4912.1 M 13127.4 9940.15 L 12138.7 9132.99 M 7266.33 4684.18 L 5583.25 5334.22 M 5583.25 5334.22 L 4970.12 5358.62 M 5652.54 9659.2 L 5867.89 10797.5 M 5135.41 8645.32 L 5652.54 9659.2 M 10780.3 8775.02 L 9659.52 8119.31 M 5583.25 5334.22 L 3899.73 4391.99 M 4631.91 9911.99 L 5867.89 10797.5 M 5135.41 8645.32 L 4608.67 9785.42 M 10780.3 8775.02 L 10704.7 7178.15 M 3994.59 4032.78 L 3899.73 4391.99 M 3563.69 8748.99 L 4608.67 9785.42 M 10780.3 8775.02 L 11762.6 7721.89 M 7907.86 10255.3 L 7977.89 9016.38 M 3563.69 8748.99 L 3600.35 9967.49 M 12183.7 8712.22 L 11762.6 7721.89 M 7907.86 10255.3 L 9596.22 9927.75 M 6844.54 9531.31 L 7907.86 10255.3 M 12183.7 8712.22 L 12383.4 7237.35 M 7907.86 10255.3 L 8853.44 11229 M 8853.44 11229 L 9596.22 9927.75 M 13396.8 7984.46 L 12383.4 7237.35 M 7374.62 11106.4 L 8853.44 11229 M 7907.86 10255.3 L 7374.62 11106.4 M 8853.44 11229 L 10684.3 10865.3 M 13396.8 7984.46 L 13424.6 6849.03 M 7374.62 11106.4 L 8193.54 12169.8 M 14324.2 8064.04 L 13424.6 6849.03 M 7091.69 12552.7 L 8193.54 12169.8 M 14324.2 8064.04 L 15066.5 7065.32 M 7091.69 12552.7 L 7971.99 13277.1 M 7971.99 13277.1 L 8193.54 12169.8 M 15311.5 8036.96 L 15066.5 7065.32 M 7232.1 13750 L 7971.99 13277.1 M 7971.99 13277.1 L 9245.02 13346.8 M 7232.1 13750 L 8868.06 14591.2 M 8193.54 12169.8 L 8853.44 11229 M 7656.21 15121.3 L 8868.06 14591.2 M 7232.1 13750 L 7656.21 15121.3 M 8193.54 12169.8 L 9681.09 12270.3 M 7656.21 15121.3 L 9087.21 15867.8 M 6537.66 15395.5 L 7656.21 15121.3 M 9407.5 13178.4 L 9681.09 12270.3 M 7741.9 16465 L 9087.21 15867.8 M 9407.5 13178.4 L 11111.9 12978.6 M 7741.9 16465 L 8704.79 17047.9 M 9407.5 13178.4 L 10664.6 13777.4 M 10664.6 13777.4 L 11111.9 12978.6 M 6372.66 11205.2 L 7374.62 11106.4 M 9868.61 12088.5 L 10684.3 10865.3 M 9430.92 14392.9 L 10664.6 13777.4 M 9659.52 8119.31 L 9004.43 7339.79 M 4631.91 9911.99 L 4573.03 11606.3 M 5925 5067.32 L 5583.25 5334.22 M 9004.43 7339.79 L 7969.21 8247.07 M 13127.4 9940.15 L 13542.1 8954.89 M 7266.33 4684.18 L 5925 5067.32 M 9430.92 14392.9 L 11260.4 14743.9 M 10537.4 7020.46 L 9004.43 7339.79 M 3688.43 10311.6 L 4573.03 11606.3 M 5925 5067.32 L 5018.46 4776.44 M 9004.43 7339.79 L 7906.38 6703.04 M 7266.33 4684.18 L 6094.13 4224.12 M 10226.6 15415 L 11260.4 14743.9 M 10537.4 7020.46 L 10360.5 6412.57 M 3688.43 10311.6 L 3431.99 10961.3 M 5675.87 3995.02 L 5018.46 4776.44 M 9004.43 7339.79 L 8356.62 5717.13 M 11725.6 6966.84 L 10360.5 6412.57 M 2382.03 10380.4 L 3431.99 10961.3 M 4627.75 3881.15 L 5018.46 4776.44 M 5675.87 3995.02 L 4627.75 3881.15 M 10236.2 6252.77 L 8356.62 5717.13 M 11903.8 6199.7 L 10360.5 6412.57 M 2382.03 10380.4 L 2006.73 11263 M 4627.75 3881.15 L 3843.61 4296.78 M 4871.26 2775.85 L 4627.75 3881.15 M 10236.2 6252.77 L 9251.83 5027.77 M 11903.8 6199.7 L 10848.7 5009.58 M 1435.68 10611.1 L 2006.73 11263 M 4627.75 3881.15 L 3122.18 3626.94 M 3122.18 3626.94 L 3843.61 4296.78 M 4871.26 2775.85 L 4011.87 2900.88 M 4159.88 2822.22 L 3122.18 3626.94 M 3122.18 3626.94 L 2706.43 3840.5 M 10486.5 4788.53 L 9251.83 5027.77 M 4159.88 2822.22 L 3343.09 2053.61 M 3122.18 3626.94 L 2528.3 2548.93 M 2528.3 2548.93 L 2706.43 3840.5 M 10486.5 4788.53 L 9989.84 4261.93 M 3805.31 2192.54 L 2528.3 2548.93 M 2528.3 2548.93 L 2095.16 2446.32 M 10486.5 4788.53 L 10480.3 3895.42 M 3805.31 2192.54 L 3161.1 1696.36 M 2647.75 1514.97 L 2095.16 2446.32 M 2528.3 2548.93 L 2647.75 1514.97 M 11537.1 3660.57 L 10480.3 3895.42 M 3805.31 2192.54 L 3053.21 925.304 M 2367.27 1077.34 L 2095.16 2446.32 M 2647.75 1514.97 L 2367.27 1077.34 M 3499.48 2119.82 L 2647.75 1514.97 M 11537.1 3660.57 L 11463.8 2733.18 M 11463.8 2733.18 L 10480.3 3895.42 M 3215.86 712.849 L 2367.27 1077.34 M 2647.75 1514.97 L 3215.86 712.849 M 12345.2 2618.15 L 11463.8 2733.18 M 11114 2014.17 L 10480.3 3895.42 M 11114 2014.17 L 10300.5 2059.12 M 3578.1 0 L 2367.27 1077.34 M 12384.6 5197.92 L 10848.7 5009.58 M 1435.68 10611.1 L 1107.66 11994.6 M 1939.32 347.401 L 2367.27 1077.34 M 12384.6 5197.92 L 12267.1 4406.14 M 199.184 11499.1 L 1107.66 11994.6 M 6895.1 3964.54 L 6094.13 4224.12 M 7266.33 4684.18 L 6895.1 3964.54 M 10226.6 15415 L 10924 15978.9 M 6895.1 3964.54 L 5873.85 3505.29 M 10588.5 16601.5 L 10924 15978.9 M 7876.73 2869.11 L 5873.85 3505.29 M 10588.5 16601.5 L 11432.2 16946.2 M 7876.73 2869.11 L 6512.55 1979.97 M 8065.09 3819.47 L 6895.1 3964.54 M 7786.44 1035.94 L 6512.55 1979.97 M 8065.09 3819.47 L 8165.94 3223.91 M 3431.99 10961.3 L 4573.03 11606.3 M 9329.92 3253.91 L 8165.94 3223.91 M 3431.99 10961.3 L 3230.74 12007 M 12533 10756.1 L 13127.4 9940.15 M 2063.4 11460.6 L 3230.74 12007 M 14052.9 9935.76 L 13127.4 9940.15 M 12533 10756.1 L 14052.9 9935.76 M 2063.4 11460.6 L 2595.35 12764.1 M 14052.9 9935.76 L 14331 9513.32 M 14124.1 11149.2 L 14052.9 9935.76 M 1381.1 12397.7 L 2595.35 12764.1 M 14124.1 11149.2 L 15168.4 10372 M 1381.1 12397.7 L 1325.13 13567.7 M 15377.8 11407.4 L 15168.4 10372 M 6372.66 11205.2 L 6917.97 12507.6 M 6094.13 4224.12 L 5925 5067.32 M 5664.71 12557.8 L 6917.97 12507.6 M 6094.13 4224.12 L 5113.53 4323.4 M 5664.71 12557.8 L 6740.89 13700 M 5773.54 3544.07 L 5113.53 4323.4 M 4957.27 13766.9 L 6740.89 13700 M 5773.54 3544.07 L 3960.13 3427.06 M 7467.84 4912.1 L 7266.33 4684.18 M 4967.09 2100.41 L 3960.13 3427.06 M 7467.84 4912.1 L 7758.27 4049.64 M 7758.27 4049.64 L 7266.33 4684.18 M 5018.46 4776.44 L 5583.25 5334.22 M 7758.27 4049.64 L 7349.32 3509.94 M 8217 3391.22 L 7349.32 3509.94 M 8217 3391.22 L 8311.38 2819.28 M 8311.38 2819.28 L 7349.32 3509.94 M 8613.74 2924.85 L 8311.38 2819.28 M 8613.74 2924.85 L 8831.56 2220.47 M 10072 1794.38 L 8831.56 2220.47 M 10072 1794.38 L 9542.19 1256.69 M 10842 1141.58 L 9542.19 1256.69" />
<line x1="3084.502265" y1="6544.864034" x2="3929.901045" y2="6479.429695" class="t" />
<line x1="4567.425244" y1="6678.826881" x2="3929.901045" y2="6479.429695" class="t" />
<line x1="2523.786204" y1="6037.438503" x2="3084.502265" y2="6544.864034" class="t" />
<line x1="5459.203096" y1="6207.342460" x2="4567.425244" y2="6678.826881" class="t" />
<line x1="5997.419466" y1="6243.675707" x2="5459.203096" y2="6207.342460" class="t" />
<line x1="5915.453549" y1="6840.463818" x2="5997.419466" y2="6243.675707" class="t" />
<line x1="6540.761448" y1="7091.931663" x2="5915.453549" y2="6840.463818" class="t" />
<line x1="6598.703055" y1="7766.984736" x2="6540.761448" y2="7091.931663" class="t" />
<line x1="7229.015880" y1="8053.541062" x2="6598.703055" y2="7766.984736" class="t" />
<line x1="5927.597201" y1="7958.496506" x2="6598.703055" y2="7766.984736" class="t" />
<line x1="7509.024321" y1="8540.286344" x2="7229.015880" y2="8053.541062" class="t" />
<line x1="5479.228485" y1="7453.185110" x2="5927.597201" y2="7958.496506" class="t" />
<line x1="8322.986132" y1="8622.140662" x2="7509.024321" y2="8540.286344" class="t" />
<line x1="7134.133045" y1="8968.366012" x2="7509.024321" y2="8540.286344" class="t" />
<line x1="4691.935897" y1="7465.677467" x2="5479.228485" y2="7453.185110" class="t" />
<line x1="8665.163572" y1="8063.277569" x2="8322.986132" y2="8622.140662" class="t" />
<line x1="8909.960415" y1="9083.852345" x2="8322.986132" y2="8622.140662" class="t" />
<line x1="7576.763721" y1="9600.987680" x2="7134.133045" y2="8968.366012" class="t" />
<line x1="9228.600761" y1="8020.689173" x2="8665.163572" y2="8063.277569" class="t" />
<line x1="7620.448322" y1="7506.668623" x2="7229.015880" y2="8053.541062" class="t" />
<line x1="6359.014411" y1="9182.637798" x2="7134.133045" y2="8968.366012" class="t" />
<line x1="9480.693246" y1="8777.587816" x2="9228.600761" y2="8020.689173" class="t" />
<line x1="7132.089612" y1="6850.560091" x2="7620.448322" y2="7506.668623" class="t" />
<line x1="6121.654711" y1="9996.011816" x2="6359.014411" y2="9182.637798" class="t" />
<line x1="5789.305775" y1="8887.308235" x2="6359.014411" y2="9182.637798" class="t" />
<line x1="10066.855397" y1="8834.941128" x2="9480.693246" y2="8777.587816" class="t" />
<line x1="7413.766075" y1="6217.618223" x2="7132.089612" y2="6850.560091" class="t" />
<line x1="10558.807521" y1="9470.691854" x2="10066.855397" y2="8834.941128" class="t" />
<line x1="7034.008469" y1="5827.804643" x2="7413.766075" y2="6217.618223" class="t" />
<line x1="11351.468321" y1="9311.525395" x2="10558.807521" y2="9470.691854" class="t" />
<line x1="7355.241578" y1="5372.256421" x2="7034.008469" y2="5827.804643" class="t" />
<line x1="11935.680750" y1="9971.867220" x2="11351.468321" y2="9311.525395" class="t" />
<line x1="6555.358323" y1="5264.554232" x2="7355.241578" y2="5372.256421" class="t" />
<line x1="7970.288268" y1="5067.535969" x2="7355.241578" y2="5372.256421" class="t" />
<line x1="12599.677987" y1="9943.063428" x2="11935.680750" y2="9971.867220" class="t" />
<line x1="6772.469898" y1="4976.833867" x2="6555.358323" y2="5264.554232" class="t" />
<line x1="5722.785467" y1="5413.393622" x2="6555.358323" y2="5264.554232" class="t" />
<line x1="8134.336721" y1="4371.666490" x2="7970.288268" y2="5067.535969" class="t" />
<line x1="12936.064221" y1="9342.677865" x2="12599.677987" y2="9943.063428" class="t" />
<line x1="6258.192932" y1="5028.573677" x2="6772.469898" y2="4976.833867" class="t" />
<line x1="4817.698149" y1="5028.276216" x2="5722.785467" y2="5413.393622" class="t" />
<line x1="5384.110632" y1="10122.904708" x2="6121.654711" y2="9996.011816" class="t" />
<line x1="5132.206502" y1="9363.315601" x2="5789.305775" y2="8887.308235" class="t" />
<line x1="10381.511902" y1="8024.160218" x2="10066.855397" y2="8834.941128" class="t" />
<line x1="4492.522798" y1="4586.330133" x2="4817.698149" y2="5028.276216" class="t" />
<line x1="5024.275638" y1="10771.935025" x2="5384.110632" y2="10122.904708" class="t" />
<line x1="4435.924141" y1="9059.913704" x2="5132.206502" y2="9363.315601" class="t" />
<line x1="11082.525131" y1="7891.686007" x2="10381.511902" y2="8024.160218" class="t" />
<line x1="3850.873565" y1="3759.767465" x2="4492.522798" y2="4586.330133" class="t" />
<line x1="3924.237959" y1="9500.636641" x2="4435.924141" y2="9059.913704" class="t" />
<line x1="11575.519777" y1="8403.043948" x2="11082.525131" y2="7891.686007" class="t" />
<line x1="8493.992242" y1="9733.134976" x2="7576.763721" y2="9600.987680" class="t" />
<line x1="3166.456529" y1="9450.206749" x2="3924.237959" y2="9500.636641" class="t" />
<line x1="12109.875774" y1="7890.486735" x2="11575.519777" y2="8403.043948" class="t" />
<line x1="8785.840003" y1="10470.680348" x2="8493.992242" y2="9733.134976" class="t" />
<line x1="7009.174318" y1="10270.727874" x2="7576.763721" y2="9600.987680" class="t" />
<line x1="12654.627310" y1="7978.012898" x2="12109.875774" y2="7890.486735" class="t" />
<line x1="8045.305740" y1="10863.575567" x2="8785.840003" y2="10470.680348" class="t" />
<line x1="9711.320029" y1="10674.015877" x2="8785.840003" y2="10470.680348" class="t" />
<line x1="13068.263257" y1="7356.948590" x2="12654.627310" y2="7978.012898" class="t" />
<line x1="8140.531225" y1="11501.754604" x2="8045.305740" y2="10863.575567" class="t" />
<line x1="7218.381348" y1="10855.642911" x2="8045.305740" y2="10863.575567" class="t" />
<line x1="9802.117130" y1="11394.274269" x2="9711.320029" y2="10674.015877" class="t" />
<line x1="13715.197629" y1="7632.510905" x2="13068.263257" y2="7356.948590" class="t" />
<line x1="7553.281148" y1="11942.996468" x2="8140.531225" y2="11501.754604" class="t" />
<line x1="14271.753900" y1="7326.129739" x2="13715.197629" y2="7632.510905" class="t" />
<line x1="7752.404073" y1="12666.539603" x2="7553.281148" y2="11942.996468" class="t" />
<line x1="14900.728628" y1="7722.105564" x2="14271.753900" y2="7326.129739" class="t" />
<line x1="7431.925449" y1="13193.258663" x2="7752.404073" y2="12666.539603" class="t" />
<line x1="8470.182909" y1="12931.226227" x2="7752.404073" y2="12666.539603" class="t" />
<line x1="15527.000032" y1="7511.528679" x2="14900.728628" y2="7722.105564" class="t" />
<line x1="8024.051087" y1="13872.752054" x2="7431.925449" y2="13193.258663" class="t" />
<line x1="8724.356622" y1="13716.856665" x2="8470.182909" y2="12931.226227" class="t" />
<line x1="7918.792021" y1="14487.495898" x2="8024.051087" y2="13872.752054" class="t" />
<line x1="8909.353283" y1="11889.719751" x2="8140.531225" y2="11501.754604" class="t" />
<line x1="8537.161211" y1="15193.454231" x2="7918.792021" y2="14487.495898" class="t" />
<line x1="7141.989605" y1="14755.582473" x2="7918.792021" y2="14487.495898" class="t" />
<line x1="9094.041595" y1="12539.509515" x2="8909.353283" y2="11889.719751" class="t" />
<line x1="8161.774120" y1="15818.034281" x2="8537.161211" y2="15193.454231" class="t" />
<line x1="7262.163385" y1="15660.992772" x2="7141.989605" y2="14755.582473" class="t" />
<line x1="10066.817004" y1="12809.106687" x2="9094.041595" y2="12539.509515" class="t" />
<line x1="8511.298817" y1="16460.230221" x2="8161.774120" y2="15818.034281" class="t" />
<line x1="10394.655290" y1="13311.474250" x2="10066.817004" y2="12809.106687" class="t" />
<line x1="8042.721682" y1="16985.486916" x2="8511.298817" y2="16460.230221" class="t" />
<line x1="9834.342560" y1="13782.916859" x2="10394.655290" y2="13311.474250" class="t" />
<line x1="11082.064606" y1="13778.005853" x2="10394.655290" y2="13311.474250" class="t" />
<line x1="6888.417093" y1="11606.428528" x2="7218.381348" y2="10855.642911" class="t" />
<line x1="10670.304378" y1="11730.897663" x2="9802.117130" y2="11394.274269" class="t" />
<line x1="10451.980537" y1="14304.764543" x2="9834.342560" y2="13782.916859" class="t" />
<line x1="9733.778863" y1="7493.186022" x2="9228.600761" y2="8020.689173" class="t" />
<line x1="4297.790235" y1="10609.968780" x2="5024.275638" y2="10771.935025" class="t" />
<line x1="5508.905185" y1="5059.327339" x2="6258.192932" y2="5028.573677" class="t" />
<line x1="8293.338099" y1="7429.969422" x2="8665.163572" y2="8063.277569" class="t" />
<line x1="13661.740978" y1="9455.862321" x2="12936.064221" y2="9342.677865" class="t" />
<line x1="6428.487123" y1="4658.541606" x2="6258.192932" y2="5028.573677" class="t" />
<line x1="10305.979834" y1="14850.621542" x2="10451.980537" y2="14304.764543" class="t" />
<line x1="9967.450718" y1="6924.273404" x2="9733.778863" y2="7493.186022" class="t" />
<line x1="3897.817205" y1="10959.746520" x2="4297.790235" y2="10609.968780" class="t" />
<line x1="5539.778903" y1="4612.928261" x2="5508.905185" y2="5059.327339" class="t" />
<line x1="8422.473968" y1="6586.655358" x2="8293.338099" y2="7429.969422" class="t" />
<line x1="6751.853661" y1="4290.946653" x2="6428.487123" y2="4658.541606" class="t" />
<line x1="10803.674570" y1="15379.296006" x2="10305.979834" y2="14850.621542" class="t" />
<line x1="10874.516916" y1="6799.953822" x2="9967.450718" y2="6924.273404" class="t" />
<line x1="3167.481932" y1="10551.119189" x2="3897.817205" y2="10959.746520" class="t" />
<line x1="5107.360615" y1="4217.536141" x2="5539.778903" y2="4612.928261" class="t" />
<line x1="9199.069123" y1="6436.566560" x2="8422.473968" y2="6586.655358" class="t" />
<line x1="11329.972569" y1="6526.370159" x2="10874.516916" y2="6799.953822" class="t" />
<line x1="2606.915016" y1="10868.236997" x2="3167.481932" y2="10551.119189" class="t" />
<line x1="4496.607310" y1="4318.124574" x2="5107.360615" y2="4217.536141" class="t" />
<line x1="5058.291359" y1="3550.673177" x2="5107.360615" y2="4217.536141" class="t" />
<line x1="9281.536833" y1="5665.893576" x2="9199.069123" y2="6436.566560" class="t" />
<line x1="11037.663248" y1="5873.951526" x2="11329.972569" y2="6526.370159" class="t" />
<line x1="1941.479873" y1="10751.507422" x2="2606.915016" y2="10868.236997" class="t" />
<line x1="3864.512165" y1="3934.958028" x2="4496.607310" y2="4318.124574" class="t" />
<line x1="4503.625580" y1="3185.959672" x2="5058.291359" y2="3550.673177" class="t" />
<line x1="9991.501753" y1="5356.360064" x2="9281.536833" y2="5665.893576" class="t" />
<line x1="11712.360661" y1="5469.069462" x2="11037.663248" y2="5873.951526" class="t" />
<line x1="1516.690024" y1="11289.566490" x2="1941.479873" y2="10751.507422" class="t" />
<line x1="3969.935144" y1="3443.436357" x2="3864.512165" y2="3934.958028" class="t" />
<line x1="3224.071008" y1="3921.409457" x2="3864.512165" y2="3934.958028" class="t" />
<line x1="4199.706485" y1="2294.842031" x2="4503.625580" y2="3185.959672" class="t" />
<line x1="3541.714943" y1="2834.256949" x2="3969.935144" y2="3443.436357" class="t" />
<line x1="2785.634605" y1="3338.791284" x2="3224.071008" y2="3921.409457" class="t" />
<line x1="9909.396099" y1="4692.744508" x2="9991.501753" y2="5356.360064" class="t" />
<line x1="3687.340671" y1="2029.245981" x2="3541.714943" y2="2834.256949" class="t" />
<line x1="3151.929002" y1="2789.470577" x2="2785.634605" y2="3338.791284" class="t" />
<line x1="2443.295527" y1="2945.249571" x2="2785.634605" y2="3338.791284" class="t" />
<line x1="10318.897641" y1="4315.294043" x2="9909.396099" y2="4692.744508" class="t" />
<line x1="3164.903996" y1="2145.942440" x2="3151.929002" y2="2789.470577" class="t" />
<line x1="2423.736419" y1="2170.071601" x2="2443.295527" y2="2945.249571" class="t" />
<line x1="10834.657295" y1="4114.842390" x2="10318.897641" y2="4315.294043" class="t" />
<line x1="3339.874809" y1="1604.734306" x2="3164.903996" y2="2145.942440" class="t" />
<line x1="2370.060790" y1="1679.541065" x2="2423.736419" y2="2170.071601" class="t" />
<line x1="2891.841581" y1="2061.240183" x2="2423.736419" y2="2170.071601" class="t" />
<line x1="11160.433729" y1="3429.726194" x2="10834.657295" y2="4114.842390" class="t" />
<line x1="3641.724330" y1="1493.883525" x2="3339.874809" y2="1604.734306" class="t" />
<line x1="1988.175317" y1="1833.111473" x2="2370.060790" y2="1679.541065" class="t" />
<line x1="2743.627568" y1="1101.717578" x2="2370.060790" y2="1679.541065" class="t" />
<line x1="3276.485212" y1="1665.934190" x2="2891.841581" y2="2061.240183" class="t" />
<line x1="11782.042642" y1="3003.967813" x2="11160.433729" y2="3429.726194" class="t" />
<line x1="11019.394564" y1="2880.924970" x2="11160.433729" y2="3429.726194" class="t" />
<line x1="3053.743239" y1="596.728537" x2="2743.627568" y2="1101.717578" class="t" />
<line x1="3166.172543" y1="1362.466490" x2="2743.627568" y2="1101.717578" class="t" />
<line x1="12111.581691" y1="2262.963538" x2="11782.042642" y2="3003.967813" class="t" />
<line x1="10631.611087" y1="2656.236863" x2="11019.394564" y2="2880.924970" class="t" />
<line x1="10592.521814" y1="1708.269370" x2="10631.611087" y2="2656.236863" class="t" />
<line x1="2628.230421" y1="474.912829" x2="3053.743239" y2="596.728537" class="t" />
<line x1="11833.484175" y1="4871.216058" x2="11712.360661" y2="5469.069462" class="t" />
<line x1="914.174332" y1="11368.270493" x2="1516.690024" y2="11289.566490" class="t" />
<line x1="1877.635514" y1="1063.021235" x2="2628.230421" y2="474.912829" class="t" />
<line x1="12723.643135" y1="4531.850369" x2="11833.484175" y2="4871.216058" class="t" />
<line x1="435.613888" y1="11907.739013" x2="914.174332" y2="11368.270493" class="t" />
<line x1="6287.693475" y1="3897.981745" x2="6751.853661" y2="4290.946653" class="t" />
<line x1="7408.839439" y1="4156.064633" x2="6751.853661" y2="4290.946653" class="t" />
<line x1="10579.704879" y1="15998.490347" x2="10803.674570" y2="15379.296006" class="t" />
<line x1="6881.894533" y1="3446.312126" x2="6287.693475" y2="3897.981745" class="t" />
<line x1="10981.567559" y1="16508.890282" x2="10579.704879" y2="15998.490347" class="t" />
<line x1="6754.377767" y1="2784.790920" x2="6881.894533" y2="3446.312126" class="t" />
<line x1="10674.441123" y1="17025.623906" x2="10981.567559" y2="16508.890282" class="t" />
<line x1="7391.908487" y1="1961.673353" x2="6754.377767" y2="2784.790920" class="t" />
<line x1="7708.711025" y1="3669.306508" x2="7408.839439" y2="4156.064633" class="t" />
<line x1="6814.676803" y1="1155.310177" x2="7391.908487" y2="1961.673353" class="t" />
<line x1="8520.316073" y1="3432.432080" x2="7708.711025" y2="3669.306508" class="t" />
<line x1="3745.253525" y1="11524.858883" x2="3897.817205" y2="10959.746520" class="t" />
<line x1="9034.851740" y1="2855.736006" x2="8520.316073" y2="3432.432080" class="t" />
<line x1="2908.708000" y1="11476.306667" x2="3745.253525" y2="11524.858883" class="t" />
<line x1="13237.757235" y1="10210.653160" x2="12599.677987" y2="9943.063428" class="t" />
<line x1="2629.830134" y1="12077.218670" x2="2908.708000" y2="11476.306667" class="t" />
<line x1="13837.085959" y1="9796.408492" x2="13237.757235" y2="10210.653160" class="t" />
<line x1="13569.983872" y1="10613.680236" x2="13237.757235" y2="10210.653160" class="t" />
<line x1="2013.284709" y1="12207.458142" x2="2629.830134" y2="12077.218670" class="t" />
<line x1="14544.385137" y1="9775.312921" x2="13837.085959" y2="9796.408492" class="t" />
<line x1="14448.473727" y1="10485.669313" x2="13569.983872" y2="10613.680236" class="t" />
<line x1="1767.195687" y1="12909.826413" x2="2013.284709" y2="12207.458142" class="t" />
<line x1="14890.084950" y1="10976.218205" x2="14448.473727" y2="10485.669313" class="t" />
<line x1="1060.681263" y1="13014.403467" x2="1767.195687" y2="12909.826413" class="t" />
<line x1="15581.657639" y1="10821.956882" x2="14890.084950" y2="10976.218205" class="t" />
<line x1="6318.448473" y1="12090.226251" x2="6888.417093" y2="11606.428528" class="t" />
<line x1="5710.889732" y1="4538.280236" x2="6428.487123" y2="4658.541606" class="t" />
<line x1="6441.190817" y1="12921.808872" x2="6318.448473" y2="12090.226251" class="t" />
<line x1="5660.401297" y1="4030.529820" x2="5710.889732" y2="4538.280236" class="t" />
<line x1="5787.624100" y1="13341.562276" x2="6441.190817" y2="12921.808872" class="t" />
<line x1="4949.068463" y1="3764.843241" x2="5660.401297" y2="4030.529820" class="t" />
<line x1="5654.445731" y1="14057.647229" x2="5787.624100" y2="13341.562276" class="t" />
<line x1="4900.253837" y1="3023.845853" x2="4949.068463" y2="3764.843241" class="t" />
<line x1="7497.477934" y1="4548.642873" x2="6772.469898" y2="4976.833867" class="t" />
<line x1="4142.001797" y1="2354.091964" x2="4900.253837" y2="3023.845853" class="t" />
<line x1="7839.133156" y1="4137.174342" x2="7497.477934" y2="4548.642873" class="t" />
<line x1="7457.972531" y1="4081.253671" x2="7497.477934" y2="4548.642873" class="t" />
<line x1="4854.272306" y1="4728.475161" x2="5508.905185" y2="5059.327339" class="t" />
<line x1="7774.865058" y1="3650.267693" x2="7457.972531" y2="4081.253671" class="t" />
<line x1="7959.234073" y1="3240.147499" x2="7774.865058" y2="3650.267693" class="t" />
<line x1="8380.707145" y1="3045.118388" x2="7959.234073" y2="3240.147499" class="t" />
<line x1="7823.960966" y1="2844.295604" x2="7959.234073" y2="3240.147499" class="t" />
<line x1="8585.560725" y1="2654.865480" x2="8380.707145" y2="3045.118388" class="t" />
<line x1="9172.418841" y1="2313.230519" x2="8585.560725" y2="2654.865480" class="t" />
<line x1="9481.902858" y1="1757.178615" x2="9172.418841" y2="2313.230519" class="t" />
<line x1="10152.059105" y1="1397.549656" x2="9481.902858" y2="1757.178615" class="t" />
<line x1="10390.977395" y1="812.300362" x2="10152.059105" y2="1397.549656" class="t" />
</svg>
