<?xml version="1.0"?>
<svg width="18820" height="16394" version="1.1" xmlns="http://www.w3.org/2000/svg" >
<defs>
<style type="text/css"><![CDATA[
.m {stroke:rgb(255,0,0);stroke-width:23.525000;}
.v {stroke:rgb(0,0,255);stroke-width:23.525000;}
.b {stroke:rgb(0,0,0);stroke-width:47.050000;fill:white}
.n {stroke:rgb(128,128,128);stroke-width:23.525000}
.t {stroke:rgb(0,128,0);stroke-width:23.525000;}
.c {stroke:rgb(128,128,128);stroke-width:23.525000;stroke-dasharray:188.200000, 188.200000;}
]]></style>
</defs>
<line x1="18219.544606" y1="6772.081230" x2="16777.423347" y2="6752.390375" class="m" style="stroke-width:19.025987;" />
<line x1="16777.423347" y1="6752.390375" x2="17076.888856" y2="7560.332097" class="m" style="stroke-width:12.776445;" />
<line x1="17076.888856" y1="7560.332097" x2="18219.544606" y2="6772.081230" class="m" style="stroke-width:9.399774;" />
<line x1="17076.888856" y1="7560.332097" x2="18689.995944" y2="7350.581935" class="m" style="stroke-width:9.560514;" />
<line x1="18689.995944" y1="7350.581935" x2="18219.544606" y2="6772.081230" class="m" style="stroke-width:14.008382;" />
<line x1="15683.348266" y1="6968.384248" x2="16777.423347" y2="6752.390375" class="m" style="stroke-width:11.640393;" />
<line x1="16777.423347" y1="6752.390375" x2="15394.740673" y2="6038.055504" class="m" style="stroke-width:13.327409;" />
<line x1="15394.740673" y1="6038.055504" x2="15683.348266" y2="6968.384248" class="m" style="stroke-width:11.274636;" />
<line x1="15683.348266" y1="6968.384248" x2="17076.888856" y2="7560.332097" class="m" style="stroke-width:9.512955;" />
<line x1="15394.740673" y1="6038.055504" x2="14779.327185" y2="6648.189133" class="m" style="stroke-width:9.729268;" />
<line x1="14779.327185" y1="6648.189133" x2="15683.348266" y2="6968.384248" class="m" style="stroke-width:12.031726;" />
<line x1="15394.740673" y1="6038.055504" x2="13993.707404" y2="5795.908430" class="m" style="stroke-width:8.055861;" />
<line x1="13993.707404" y1="5795.908430" x2="14779.327185" y2="6648.189133" class="m" style="stroke-width:12.113799;" />
<line x1="13503.655488" y1="4775.144482" x2="13993.707404" y2="5795.908430" class="m" style="stroke-width:12.109238;" />
<line x1="13993.707404" y1="5795.908430" x2="14260.487577" y2="4796.075305" class="m" style="stroke-width:9.066006;" />
<line x1="14260.487577" y1="4796.075305" x2="13503.655488" y2="4775.144482" class="m" style="stroke-width:12.176705;" />
<line x1="13993.707404" y1="5795.908430" x2="15415.488818" y2="5787.720779" class="m" style="stroke-width:8.055861;" />
<line x1="15415.488818" y1="5787.720779" x2="14260.487577" y2="4796.075305" class="m" style="stroke-width:27.934536;" />
<line x1="13503.655488" y1="4775.144482" x2="13401.401306" y2="3532.124190" class="m" style="stroke-width:10.640750;" />
<line x1="13401.401306" y1="3532.124190" x2="12555.620400" y2="3556.667677" class="m" style="stroke-width:12.942160;" />
<line x1="12555.620400" y1="3556.667677" x2="13503.655488" y2="4775.144482" class="m" style="stroke-width:8.352735;" />
<line x1="14260.487577" y1="4796.075305" x2="13657.219705" y2="3537.415353" class="m" style="stroke-width:24.594580;" />
<line x1="13657.219705" y1="3537.415353" x2="13503.655488" y2="4775.144482" class="m" style="stroke-width:10.640750;" />
<line x1="13038.444112" y1="1952.564760" x2="12268.907523" y2="2397.273576" class="m" style="stroke-width:12.753233;" />
<line x1="12268.907523" y1="2397.273576" x2="12555.620400" y2="3556.667677" class="m" style="stroke-width:13.022711;" />
<line x1="12555.620400" y1="3556.667677" x2="13038.444112" y2="1952.564760" class="m" style="stroke-width:4.797468;" />
<line x1="13401.401306" y1="3532.124190" x2="13038.444112" y2="1952.564760" class="m" style="stroke-width:27.007264;" />
<line x1="13038.444112" y1="1952.564760" x2="12614.591038" y2="1124.452154" class="m" style="stroke-width:13.003555;" />
<line x1="12614.591038" y1="1124.452154" x2="12268.907523" y2="2397.273576" class="m" style="stroke-width:10.522193;" />
<line x1="2475.253112" y1="9577.516017" x2="2512.505720" y2="8495.586121" class="m" style="stroke-width:10.667057;" />
<line x1="2512.505720" y1="8495.586121" x2="1596.311104" y2="8334.311999" class="m" style="stroke-width:13.003555;" />
<line x1="1596.311104" y1="8334.311999" x2="2475.253112" y2="9577.516017" class="m" style="stroke-width:20.507714;" />
<line x1="2475.253112" y1="9577.516017" x2="3341.455886" y2="9795.167936" class="m" style="stroke-width:8.813124;" />
<line x1="3341.455886" y1="9795.167936" x2="2512.505720" y2="8495.586121" class="m" style="stroke-width:9.649944;" />
<line x1="2440.158688" y1="9900.973570" x2="2827.038828" y2="10375.555853" class="m" style="stroke-width:26.023599;" />
<line x1="2827.038828" y1="10375.555853" x2="3332.209626" y2="9857.101856" class="m" style="stroke-width:8.607214;" />
<line x1="3332.209626" y1="9857.101856" x2="2440.158688" y2="9900.973570" class="m" style="stroke-width:8.813124;" />
<line x1="3623.354324" y1="11080.588501" x2="3332.209626" y2="9857.101856" class="m" style="stroke-width:14.270090;" />
<line x1="2827.038828" y1="10375.555853" x2="3623.354324" y2="11080.588501" class="m" style="stroke-width:13.041346;" />
<line x1="3456.815943" y1="12097.797842" x2="4349.882330" y2="11945.903645" class="m" style="stroke-width:7.500004;" />
<line x1="4349.882330" y1="11945.903645" x2="3623.354324" y2="11080.588501" class="m" style="stroke-width:16.968055;" />
<line x1="3623.354324" y1="11080.588501" x2="3456.815943" y2="12097.797842" class="m" style="stroke-width:13.149897;" />
<line x1="4045.667757" y1="11465.007642" x2="3295.403704" y2="11972.691864" class="m" style="stroke-width:7.500004;" />
<line x1="3295.403704" y1="11972.691864" x2="3922.197647" y2="12831.761833" class="m" style="stroke-width:19.050439;" />
<line x1="3922.197647" y1="12831.761833" x2="4045.667757" y2="11465.007642" class="m" style="stroke-width:10.208807;" />
<line x1="4005.238877" y1="13274.241996" x2="4706.494385" y2="13509.788574" class="m" style="stroke-width:14.160317;" />
<line x1="4706.494385" y1="13509.788574" x2="4349.882330" y2="11945.903645" class="m" style="stroke-width:8.766204;" />
<line x1="4349.882330" y1="11945.903645" x2="4005.238877" y2="13274.241996" class="m" style="stroke-width:10.208807;" />
<line x1="4649.984553" y1="14745.274847" x2="4005.238877" y2="13274.241996" class="m" style="stroke-width:5.626116;" />
<line x1="4005.238877" y1="13274.241996" x2="3927.090326" y2="14928.062877" class="m" style="stroke-width:6.458746;" />
<line x1="3927.090326" y1="14928.062877" x2="4649.984553" y2="14745.274847" class="m" style="stroke-width:14.008382;" />
<line x1="4649.984553" y1="14745.274847" x2="4706.494385" y2="13509.788574" class="m" style="stroke-width:12.769455;" />
<line x1="6091.192123" y1="16394.743401" x2="6879.460034" y2="15031.039214" class="m" style="stroke-width:11.711081;" />
<line x1="6879.460034" y1="15031.039214" x2="5599.083579" y2="14844.279345" class="m" style="stroke-width:11.210950;" />
<line x1="5599.083579" y1="14844.279345" x2="6091.192123" y2="16394.743401" class="m" style="stroke-width:9.560514;" />
<line x1="15001.510664" y1="8087.974820" x2="15635.995619" y2="8380.040725" class="m" style="stroke-width:14.778518;" />
<line x1="15635.995619" y1="8380.040725" x2="15639.737567" y2="7071.831672" class="m" style="stroke-width:5.881213;" />
<line x1="15639.737567" y1="7071.831672" x2="15001.510664" y2="8087.974820" class="m" style="stroke-width:11.442854;" />
<line x1="15635.995619" y1="8380.040725" x2="16805.913854" y2="8037.435369" class="m" style="stroke-width:12.349160;" />
<line x1="16805.913854" y1="8037.435369" x2="15639.737567" y2="7071.831672" class="m" style="stroke-width:9.512955;" />
<line x1="12857.157851" y1="5512.322061" x2="13993.707404" y2="5795.908430" class="m" style="stroke-width:8.683074;" />
<line x1="13503.655488" y1="4775.144482" x2="12857.157851" y2="5512.322061" class="m" style="stroke-width:10.628759;" />
<line x1="12555.620400" y1="3556.667677" x2="12452.090373" y2="4462.147498" class="m" style="stroke-width:7.362394;" />
<line x1="12452.090373" y1="4462.147498" x2="13503.655488" y2="4775.144482" class="m" style="stroke-width:9.951183;" />
<line x1="12452.090373" y1="4462.147498" x2="12857.157851" y2="5512.322061" class="m" style="stroke-width:8.730098;" />
<line x1="3274.093288" y1="8249.195300" x2="1897.167373" y2="7328.996997" class="m" style="stroke-width:7.225584;" />
<line x1="1897.167373" y1="7328.996997" x2="2512.505720" y2="8495.586121" class="m" style="stroke-width:10.522193;" />
<line x1="2512.505720" y1="8495.586121" x2="3274.093288" y2="8249.195300" class="m" style="stroke-width:14.143556;" />
<line x1="3341.455886" y1="9795.167936" x2="3274.093288" y2="8249.195300" class="m" style="stroke-width:9.826965;" />
<line x1="4706.494385" y1="13509.788574" x2="5353.916559" y2="12354.131836" class="m" style="stroke-width:8.788864;" />
<line x1="5353.916559" y1="12354.131836" x2="4349.882330" y2="11945.903645" class="m" style="stroke-width:13.697414;" />
<line x1="5142.917735" y1="13694.700112" x2="5599.083579" y2="14844.279345" class="m" style="stroke-width:12.769455;" />
<line x1="5599.083579" y1="14844.279345" x2="6194.196530" y2="14034.815183" class="m" style="stroke-width:10.042649;" />
<line x1="6194.196530" y1="14034.815183" x2="5142.917735" y2="13694.700112" class="m" style="stroke-width:9.789073;" />
<line x1="15639.737567" y1="7071.831672" x2="14779.327185" y2="6648.189133" class="m" style="stroke-width:12.031726;" />
<line x1="14779.327185" y1="6648.189133" x2="15001.510664" y2="8087.974820" class="m" style="stroke-width:4.728287;" />
<line x1="13993.707404" y1="5795.908430" x2="13397.065809" y2="6915.128026" class="m" style="stroke-width:11.984478;" />
<line x1="13397.065809" y1="6915.128026" x2="14779.327185" y2="6648.189133" class="m" style="stroke-width:6.235590;" />
<line x1="12028.676721" y1="2469.705505" x2="11480.419374" y2="3308.462485" class="m" style="stroke-width:11.880318;" />
<line x1="11480.419374" y1="3308.462485" x2="12529.286490" y2="3554.043466" class="m" style="stroke-width:7.895490;" />
<line x1="12529.286490" y1="3554.043466" x2="12028.676721" y2="2469.705505" class="m" style="stroke-width:13.022711;" />
<line x1="12028.676721" y1="2469.705505" x2="11074.696979" y2="1115.965300" class="m" style="stroke-width:7.225584;" />
<line x1="11074.696979" y1="1115.965300" x2="10791.268370" y2="2600.985505" class="m" style="stroke-width:7.563628;" />
<line x1="10791.268370" y1="2600.985505" x2="12028.676721" y2="2469.705505" class="m" style="stroke-width:8.605978;" />
<line x1="3341.455886" y1="9795.167936" x2="4341.426497" y2="8558.396750" class="m" style="stroke-width:9.192399;" />
<line x1="4341.426497" y1="8558.396750" x2="3274.093288" y2="8249.195300" class="m" style="stroke-width:12.564789;" />
<line x1="3341.455886" y1="9795.167936" x2="4805.714625" y2="10045.427703" class="m" style="stroke-width:11.586167;" />
<line x1="4805.714625" y1="10045.427703" x2="4341.426497" y2="8558.396750" class="m" style="stroke-width:6.074458;" />
<line x1="4805.714625" y1="10045.427703" x2="3332.209626" y2="9857.101856" class="m" style="stroke-width:11.586167;" />
<line x1="3623.354324" y1="11080.588501" x2="4805.714625" y2="10045.427703" class="m" style="stroke-width:10.623155;" />
<line x1="4349.882330" y1="11945.903645" x2="4805.714625" y2="10045.427703" class="m" style="stroke-width:7.958345;" />
<line x1="6375.247154" y1="12977.253766" x2="5496.675292" y2="12418.160430" class="m" style="stroke-width:12.739834;" />
<line x1="5496.675292" y1="12418.160430" x2="5142.917735" y2="13694.700112" class="m" style="stroke-width:8.788864;" />
<line x1="5142.917735" y1="13694.700112" x2="6375.247154" y2="12977.253766" class="m" style="stroke-width:8.307255;" />
<line x1="16066.334889" y1="9309.910659" x2="17302.391795" y2="9532.281535" class="m" style="stroke-width:9.175429;" />
<line x1="17302.391795" y1="9532.281535" x2="16805.913854" y2="8037.435369" class="m" style="stroke-width:11.711081;" />
<line x1="16805.913854" y1="8037.435369" x2="16066.334889" y2="9309.910659" class="m" style="stroke-width:6.994986;" />
<line x1="15635.995619" y1="8380.040725" x2="16066.334889" y2="9309.910659" class="m" style="stroke-width:11.930702;" />
<line x1="12857.157851" y1="5512.322061" x2="13397.065809" y2="6915.128026" class="m" style="stroke-width:9.690903;" />
<line x1="11427.665581" y1="5161.664918" x2="12857.157851" y2="5512.322061" class="m" style="stroke-width:10.565133;" />
<line x1="12452.090373" y1="4462.147498" x2="11427.665581" y2="5161.664918" class="v" style="stroke-width:6.407560;" />
<line x1="12529.286490" y1="3554.043466" x2="11757.766698" y2="4327.736436" class="m" style="stroke-width:10.768523;" />
<line x1="11757.766698" y1="4327.736436" x2="12452.090373" y2="4462.147498" class="m" style="stroke-width:13.016596;" />
<line x1="12452.090373" y1="4462.147498" x2="12529.286490" y2="3554.043466" class="m" style="stroke-width:7.362394;" />
<line x1="11757.766698" y1="4327.736436" x2="11427.665581" y2="5161.664918" class="m" style="stroke-width:12.345003;" />
<line x1="10791.268370" y1="2600.985505" x2="11480.419374" y2="3308.462485" class="v" style="stroke-width:7.646899;" />
<line x1="10221.127449" y1="1865.235207" x2="10791.268370" y2="2600.985505" class="m" style="stroke-width:9.679644;" />
<line x1="11074.696979" y1="1115.965300" x2="10221.127449" y2="1865.235207" class="m" style="stroke-width:10.995345;" />
<line x1="5943.755380" y1="11230.184244" x2="4805.714625" y2="10045.427703" class="v" style="stroke-width:5.687283;" />
<line x1="4349.882330" y1="11945.903645" x2="5943.755380" y2="11230.184244" class="m" style="stroke-width:8.864374;" />
<line x1="5353.916559" y1="12354.131836" x2="5943.755380" y2="11230.184244" class="m" style="stroke-width:11.247540;" />
<line x1="6194.196530" y1="14034.815183" x2="6375.247154" y2="12977.253766" class="m" style="stroke-width:5.320217;" />
<line x1="6879.460034" y1="15031.039214" x2="6194.196530" y2="14034.815183" class="m" style="stroke-width:6.179030;" />
<line x1="16066.334889" y1="9309.910659" x2="16451.594873" y2="10288.260683" class="m" style="stroke-width:11.609636;" />
<line x1="16451.594873" y1="10288.260683" x2="17302.391795" y2="9532.281535" class="m" style="stroke-width:10.576380;" />
<line x1="12857.157851" y1="5512.322061" x2="12262.037801" y2="6720.050141" class="m" style="stroke-width:8.770514;" />
<line x1="12262.037801" y1="6720.050141" x2="13397.065809" y2="6915.128026" class="m" style="stroke-width:11.979191;" />
<line x1="12857.157851" y1="5512.322061" x2="11393.205836" y2="5359.832452" class="m" style="stroke-width:10.565133;" />
<line x1="11393.205836" y1="5359.832452" x2="12262.037801" y2="6720.050141" class="m" style="stroke-width:8.468168;" />
<line x1="11074.696979" y1="1115.965300" x2="10083.443334" y2="613.748287" class="m" style="stroke-width:12.564789;" />
<line x1="10083.443334" y1="613.748287" x2="10221.127449" y2="1865.235207" class="m" style="stroke-width:8.847758;" />
<line x1="6375.247154" y1="12977.253766" x2="7009.239649" y2="12101.716677" class="m" style="stroke-width:8.630788;" />
<line x1="7009.239649" y1="12101.716677" x2="5496.675292" y2="12418.160430" class="m" style="stroke-width:5.873919;" />
<line x1="14145.965129" y1="9080.953837" x2="15796.078432" y2="9469.846048" class="m" style="stroke-width:8.819564;" />
<line x1="15796.078432" y1="9469.846048" x2="15588.556705" y2="8466.459425" class="m" style="stroke-width:11.930702;" />
<line x1="15588.556705" y1="8466.459425" x2="14145.965129" y2="9080.953837" class="m" style="stroke-width:5.800819;" />
<line x1="10947.204005" y1="6575.909230" x2="12262.037801" y2="6720.050141" class="m" style="stroke-width:10.637705;" />
<line x1="11393.205836" y1="5359.832452" x2="10947.204005" y2="6575.909230" class="m" style="stroke-width:10.896182;" />
<line x1="3500.764808" y1="6597.427367" x2="4078.691957" y2="7327.077544" class="m" style="stroke-width:9.679644;" />
<line x1="4078.691957" y1="7327.077544" x2="4775.209925" y2="6516.139350" class="m" style="stroke-width:11.487714;" />
<line x1="4775.209925" y1="6516.139350" x2="3500.764808" y2="6597.427367" class="v" style="stroke-width:18.891231;" />
<line x1="5469.265673" y1="7587.256461" x2="4078.691957" y2="7327.077544" class="m" style="stroke-width:7.271365;" />
<line x1="4078.691957" y1="7327.077544" x2="4341.426497" y2="8558.396750" class="m" style="stroke-width:8.847758;" />
<line x1="4341.426497" y1="8558.396750" x2="5469.265673" y2="7587.256461" class="v" style="stroke-width:6.426808;" />
<line x1="7009.239649" y1="12101.716677" x2="5943.755380" y2="11230.184244" class="m" style="stroke-width:10.794768;" />
<line x1="5943.755380" y1="11230.184244" x2="5496.675292" y2="12418.160430" class="m" style="stroke-width:11.247540;" />
<line x1="14145.965129" y1="9080.953837" x2="14686.049321" y2="10508.910740" class="m" style="stroke-width:11.751518;" />
<line x1="14686.049321" y1="10508.910740" x2="15796.078432" y2="9469.846048" class="m" style="stroke-width:5.834873;" />
<line x1="14686.049321" y1="10508.910740" x2="15844.510964" y2="10520.202328" class="m" style="stroke-width:11.013665;" />
<line x1="15844.510964" y1="10520.202328" x2="15796.078432" y2="9469.846048" class="m" style="stroke-width:11.609636;" />
<line x1="12262.037801" y1="6720.050141" x2="10939.328767" y2="6722.357997" class="m" style="stroke-width:10.637705;" />
<line x1="10939.328767" y1="6722.357997" x2="12103.528802" y2="8146.696595" class="m" style="stroke-width:10.231840;" />
<line x1="12103.528802" y1="8146.696595" x2="12262.037801" y2="6720.050141" class="m" style="stroke-width:10.591542;" />
<line x1="5469.265673" y1="7587.256461" x2="4775.209925" y2="6516.139350" class="m" style="stroke-width:12.198250;" />
<line x1="7009.239649" y1="12101.716677" x2="7186.781651" y2="11004.816517" class="m" style="stroke-width:7.678455;" />
<line x1="7186.781651" y1="11004.816517" x2="5943.755380" y2="11230.184244" class="v" style="stroke-width:5.894677;" />
<line x1="11236.379824" y1="8284.956173" x2="12103.528802" y2="8146.696595" class="m" style="stroke-width:13.399971;" />
<line x1="10939.328767" y1="6722.357997" x2="11236.379824" y2="8284.956173" class="m" style="stroke-width:6.071580;" />
<line x1="5570.134101" y1="5893.969614" x2="4775.209925" y2="6516.139350" class="m" style="stroke-width:13.197182;" />
<line x1="4775.209925" y1="6516.139350" x2="5505.368065" y2="7562.979518" class="m" style="stroke-width:12.198250;" />
<line x1="5505.368065" y1="7562.979518" x2="5570.134101" y2="5893.969614" class="m" style="stroke-width:7.144840;" />
<line x1="7009.239649" y1="12101.716677" x2="7766.598348" y2="11966.366096" class="m" style="stroke-width:11.519849;" />
<line x1="7766.598348" y1="11966.366096" x2="7186.781651" y2="11004.816517" class="m" style="stroke-width:10.595980;" />
<line x1="12687.045611" y1="11026.463386" x2="13590.394298" y2="10581.899944" class="m" style="stroke-width:14.373005;" />
<line x1="13590.394298" y1="10581.899944" x2="12622.209819" y2="9554.171212" class="m" style="stroke-width:9.413047;" />
<line x1="12622.209819" y1="9554.171212" x2="12687.045611" y2="11026.463386" class="m" style="stroke-width:8.212163;" />
<line x1="10138.892562" y1="7636.111541" x2="11236.379824" y2="8284.956173" class="m" style="stroke-width:11.055615;" />
<line x1="10939.328767" y1="6722.357997" x2="10138.892562" y2="7636.111541" class="m" style="stroke-width:9.590953;" />
<line x1="6349.700764" y1="7875.304497" x2="7663.275081" y2="8157.463778" class="m" style="stroke-width:8.044331;" />
<line x1="7663.275081" y1="8157.463778" x2="7426.846582" y2="6598.767938" class="m" style="stroke-width:12.124981;" />
<line x1="7426.846582" y1="6598.767938" x2="6349.700764" y2="7875.304497" class="m" style="stroke-width:7.144840;" />
<line x1="7766.598348" y1="11966.366096" x2="8957.749571" y2="11618.663869" class="m" style="stroke-width:9.879367;" />
<line x1="8957.749571" y1="11618.663869" x2="8085.221888" y2="10136.593118" class="m" style="stroke-width:8.871833;" />
<line x1="8085.221888" y1="10136.593118" x2="7766.598348" y2="11966.366096" class="m" style="stroke-width:8.959182;" />
<line x1="8085.221888" y1="10136.593118" x2="7186.781651" y2="11004.816517" class="m" style="stroke-width:7.716169;" />
<line x1="11395.891824" y1="11620.756828" x2="10666.980032" y2="10710.041495" class="m" style="stroke-width:11.518089;" />
<line x1="10666.980032" y1="10710.041495" x2="9938.131162" y2="11837.047779" class="m" style="stroke-width:9.198220;" />
<line x1="9938.131162" y1="11837.047779" x2="11395.891824" y2="11620.756828" class="m" style="stroke-width:8.212163;" />
<line x1="11395.891824" y1="11620.756828" x2="11784.665158" y2="10549.106140" class="m" style="stroke-width:6.060212;" />
<line x1="11784.665158" y1="10549.106140" x2="10666.980032" y2="10710.041495" class="m" style="stroke-width:10.393707;" />
<line x1="10529.255252" y1="9165.351010" x2="11236.379824" y2="8284.956173" class="m" style="stroke-width:10.393707;" />
<line x1="10138.892562" y1="7636.111541" x2="10529.255252" y2="9165.351010" class="m" style="stroke-width:6.788100;" />
<line x1="8857.507248" y1="5898.381478" x2="9013.930844" y2="7487.179925" class="m" style="stroke-width:10.867779;" />
<line x1="9013.930844" y1="7487.179925" x2="9929.158647" y2="7238.651494" class="m" style="stroke-width:13.551439;" />
<line x1="9929.158647" y1="7238.651494" x2="8857.507248" y2="5898.381478" class="v" style="stroke-width:6.802845;" />
<line x1="10666.980032" y1="10710.041495" x2="9559.833257" y2="10402.191171" class="m" style="stroke-width:12.668707;" />
<line x1="9559.833257" y1="10402.191171" x2="9938.131162" y2="11837.047779" class="m" style="stroke-width:7.193476;" />
<line x1="7657.240888" y1="6920.532065" x2="9013.930844" y2="7487.179925" class="m" style="stroke-width:11.296978;" />
<line x1="8857.507248" y1="5898.381478" x2="7657.240888" y2="6920.532065" class="m" style="stroke-width:12.124981;" />
<line x1="8957.749571" y1="11618.663869" x2="9559.833257" y2="10402.191171" class="m" style="stroke-width:11.732486;" />
<line x1="9559.833257" y1="10402.191171" x2="8085.221888" y2="10136.593118" class="m" style="stroke-width:12.981125;" />
<line x1="8957.749571" y1="11618.663869" x2="9938.131162" y2="11837.047779" class="m" style="stroke-width:14.871546;" />
<line x1="9384.220990" y1="8210.462592" x2="9442.666957" y2="9539.345234" class="m" style="stroke-width:12.567526;" />
<line x1="9442.666957" y1="9539.345234" x2="10529.255252" y2="9165.351010" class="m" style="stroke-width:12.668707;" />
<line x1="10529.255252" y1="9165.351010" x2="9384.220990" y2="8210.462592" class="m" style="stroke-width:8.376853;" />
<line x1="10138.892562" y1="7636.111541" x2="9384.220990" y2="8210.462592" class="m" style="stroke-width:13.551439;" />
<line x1="9384.220990" y1="8210.462592" x2="7932.356290" y2="8442.381384" class="m" style="stroke-width:11.296978;" />
<line x1="7932.356290" y1="8442.381384" x2="9442.666957" y2="9539.345234" class="m" style="stroke-width:6.411631;" />
<line x1="7932.356290" y1="8442.381384" x2="7983.042459" y2="9877.749343" class="m" style="stroke-width:9.526671;" />
<line x1="7983.042459" y1="9877.749343" x2="9442.666957" y2="9539.345234" class="m" style="stroke-width:12.981125;" />
<line x1="2423.504915" y1="15470.988303" x2="3698.898517" y2="13861.352345" class="m" style="stroke-width:29.850678;" />
<line x1="3698.898517" y1="13861.352345" x2="3135.581419" y2="14420.605812" class="v" style="stroke-width:22.019834;" />
<line x1="3135.581419" y1="14420.605812" x2="2423.504915" y2="15470.988303" class="v" style="stroke-width:56.171056;" />
<line x1="18532.706643" y1="5951.766308" x2="16543.816507" y2="6463.501382" class="m" style="stroke-width:29.850678;" />
<line x1="16543.816507" y1="6463.501382" x2="16777.423347" y2="6752.390375" class="m" style="stroke-width:8.942475;" />
<line x1="16777.423347" y1="6752.390375" x2="18532.706643" y2="5951.766308" class="v" style="stroke-width:5.432788;" />
<line x1="3927.090326" y1="14928.062877" x2="3861.679698" y2="14317.942090" class="m" style="stroke-width:17.833851;" />
<line x1="3861.679698" y1="14317.942090" x2="3034.308978" y2="16060.777722" class="v" style="stroke-width:5.432788;" />
<line x1="3034.308978" y1="16060.777722" x2="3927.090326" y2="14928.062877" class="m" style="stroke-width:19.025987;" />
<line x1="16543.816507" y1="6463.501382" x2="15394.740673" y2="6038.055504" class="m" style="stroke-width:16.230883;" />
<line x1="15697.651185" y1="5415.107520" x2="15316.626919" y2="5685.804309" class="v" style="stroke-width:7.710646;" />
<line x1="15316.626919" y1="5685.804309" x2="16507.282067" y2="5975.148029" class="m" style="stroke-width:16.230883;" />
<line x1="16507.282067" y1="5975.148029" x2="15697.651185" y2="5415.107520" class="v" style="stroke-width:26.533634;" />
<line x1="15415.488818" y1="5787.720779" x2="15697.651185" y2="5415.107520" class="v" style="stroke-width:7.710646;" />
<line x1="15697.651185" y1="5415.107520" x2="14695.315170" y2="4700.873060" class="v" style="stroke-width:39.065478;" />
<line x1="14695.315170" y1="4700.873060" x2="15415.488818" y2="5787.720779" class="v" style="stroke-width:7.435465;" />
<line x1="14695.315170" y1="4700.873060" x2="14260.487577" y2="4796.075305" class="v" style="stroke-width:8.028036;" />
<line x1="1596.311104" y1="8334.311999" x2="0.000000" y2="8054.067863" class="m" style="stroke-width:27.007264;" />
<line x1="0.000000" y1="8054.067863" x2="812.603786" y2="8492.962082" class="v" style="stroke-width:6.268814;" />
<line x1="812.603786" y1="8492.962082" x2="1596.311104" y2="8334.311999" class="v" style="stroke-width:9.188863;" />
<line x1="812.603786" y1="8492.962082" x2="2475.253112" y2="9577.516017" class="v" style="stroke-width:41.960388;" />
<line x1="2777.134691" y1="9880.222601" x2="2164.857871" y2="9884.878912" class="m" style="stroke-width:26.023599;" />
<line x1="2164.857871" y1="9884.878912" x2="2282.629373" y2="10182.696350" class="v" style="stroke-width:27.599530;" />
<line x1="2282.629373" y1="10182.696350" x2="2777.134691" y2="9880.222601" class="v" style="stroke-width:25.318116;" />
<line x1="2885.409697" y1="11389.498095" x2="3456.815943" y2="12097.797842" class="v" style="stroke-width:6.476383;" />
<line x1="3456.815943" y1="12097.797842" x2="2665.809171" y2="10617.666602" class="m" style="stroke-width:21.004267;" />
<line x1="2665.809171" y1="10617.666602" x2="2885.409697" y2="11389.498095" class="v" style="stroke-width:45.418987;" />
<line x1="3623.354324" y1="11080.588501" x2="2665.809171" y2="10617.666602" class="m" style="stroke-width:13.041346;" />
<line x1="3369.501824" y1="12160.113719" x2="2885.409697" y2="11389.498095" class="v" style="stroke-width:6.476383;" />
<line x1="2885.409697" y1="11389.498095" x2="3065.505581" y2="12171.941628" class="v" style="stroke-width:44.094902;" />
<line x1="3065.505581" y1="12171.941628" x2="3369.501824" y2="12160.113719" class="v" style="stroke-width:8.156354;" />
<line x1="3295.403704" y1="11972.691864" x2="3698.898517" y2="13861.352345" class="m" style="stroke-width:13.041474;" />
<line x1="3698.898517" y1="13861.352345" x2="3922.197647" y2="12831.761833" class="m" style="stroke-width:16.862696;" />
<line x1="3065.505581" y1="12171.941628" x2="3698.898517" y2="13861.352345" class="m" style="stroke-width:11.109379;" />
<line x1="3295.403704" y1="11972.691864" x2="3065.505581" y2="12171.941628" class="v" style="stroke-width:8.156354;" />
<line x1="3065.505581" y1="12171.941628" x2="3435.391781" y2="13516.979269" class="v" style="stroke-width:52.548622;" />
<line x1="3435.391781" y1="13516.979269" x2="3698.898517" y2="13861.352345" class="v" style="stroke-width:12.711614;" />
<line x1="4005.238877" y1="13274.241996" x2="3861.679698" y2="14317.942090" class="m" style="stroke-width:16.862696;" />
<line x1="16507.282067" y1="5975.148029" x2="17738.558322" y2="6282.255677" class="v" style="stroke-width:56.171056;" />
<line x1="17738.558322" y1="6282.255677" x2="17224.089112" y2="5451.872825" class="v" style="stroke-width:5.553532;" />
<line x1="17224.089112" y1="5451.872825" x2="16507.282067" y2="5975.148029" class="m" style="stroke-width:28.532689;" />
<line x1="17224.089112" y1="5451.872825" x2="15697.651185" y2="5415.107520" class="v" style="stroke-width:21.194744;" />
<line x1="14364.146646" y1="4998.305256" x2="14695.315170" y2="4700.873060" class="v" style="stroke-width:8.028036;" />
<line x1="14695.315170" y1="4700.873060" x2="13913.783430" y2="4013.448519" class="v" style="stroke-width:42.239837;" />
<line x1="13913.783430" y1="4013.448519" x2="14364.146646" y2="4998.305256" class="m" style="stroke-width:4.730433;" />
<line x1="14144.115719" y1="3719.401069" x2="13657.219705" y2="3537.415353" class="v" style="stroke-width:7.239612;" />
<line x1="14260.487577" y1="4796.075305" x2="14144.115719" y2="3719.401069" class="m" style="stroke-width:4.730433;" />
<line x1="14144.115719" y1="3719.401069" x2="14117.671239" y2="2736.829672" class="v" style="stroke-width:41.312686;" />
<line x1="14117.671239" y1="2736.829672" x2="13657.219705" y2="3537.415353" class="v" style="stroke-width:6.268814;" />
<line x1="3435.391781" y1="13516.979269" x2="3135.581419" y2="14420.605812" class="v" style="stroke-width:43.116108;" />
<line x1="15691.795949" y1="3826.349375" x2="14695.315170" y2="4700.873060" class="m" style="stroke-width:12.398561;" />
<line x1="15697.651185" y1="5415.107520" x2="15691.795949" y2="3826.349375" class="m" style="stroke-width:8.304194;" />
<line x1="17224.089112" y1="5451.872825" x2="16609.903052" y2="4470.542780" class="m" style="stroke-width:10.607918;" />
<line x1="16609.903052" y1="4470.542780" x2="15697.651185" y2="5415.107520" class="m" style="stroke-width:17.307523;" />
<line x1="14896.210914" y1="3658.302233" x2="15691.795949" y2="3826.349375" class="m" style="stroke-width:16.883649;" />
<line x1="15691.795949" y1="3826.349375" x2="14464.876711" y2="3010.137308" class="v" style="stroke-width:13.359541;" />
<line x1="14464.876711" y1="3010.137308" x2="14896.210914" y2="3658.302233" class="m" style="stroke-width:16.998964;" />
<line x1="14705.667293" y1="2731.322787" x2="15691.795949" y2="3826.349375" class="v" style="stroke-width:13.359541;" />
<line x1="15691.795949" y1="3826.349375" x2="15785.447123" y2="2962.448253" class="m" style="stroke-width:22.078574;" />
<line x1="15785.447123" y1="2962.448253" x2="14705.667293" y2="2731.322787" class="m" style="stroke-width:18.702680;" />
<line x1="14896.210914" y1="3658.302233" x2="13913.783430" y2="4013.448519" class="m" style="stroke-width:7.979480;" />
<line x1="14695.315170" y1="4700.873060" x2="14896.210914" y2="3658.302233" class="m" style="stroke-width:11.385380;" />
<line x1="15691.795949" y1="3826.349375" x2="16609.903052" y2="4470.542780" class="m" style="stroke-width:18.109524;" />
<line x1="16609.903052" y1="4470.542780" x2="15785.447123" y2="2962.448253" class="m" style="stroke-width:5.343376;" />
<line x1="1872.928030" y1="13552.721718" x2="1480.853027" y2="15327.098614" class="m" style="stroke-width:21.618955;" />
<line x1="1480.853027" y1="15327.098614" x2="2542.538152" y2="14323.810972" class="m" style="stroke-width:12.196191;" />
<line x1="2542.538152" y1="14323.810972" x2="1872.928030" y2="13552.721718" class="m" style="stroke-width:16.590489;" />
<line x1="17383.477926" y1="4075.887463" x2="17508.219700" y2="5200.789570" class="m" style="stroke-width:12.594181;" />
<line x1="17508.219700" y1="5200.789570" x2="18537.310341" y2="4971.673238" class="m" style="stroke-width:10.903451;" />
<line x1="18537.310341" y1="4971.673238" x2="17383.477926" y2="4075.887463" class="m" style="stroke-width:12.196191;" />
<line x1="15785.447123" y1="2962.448253" x2="14927.528565" y2="1445.390559" class="m" style="stroke-width:21.109723;" />
<line x1="14927.528565" y1="1445.390559" x2="14705.667293" y2="2731.322787" class="m" style="stroke-width:10.878920;" />
<line x1="14927.528565" y1="1445.390559" x2="14272.032503" y2="1819.660276" class="m" style="stroke-width:17.022870;" />
<line x1="14272.032503" y1="1819.660276" x2="14705.667293" y2="2731.322787" class="m" style="stroke-width:11.966791;" />
<line x1="14927.528565" y1="1445.390559" x2="14178.066809" y2="511.498655" class="m" style="stroke-width:17.560793;" />
<line x1="14178.066809" y1="511.498655" x2="14272.032503" y2="1819.660276" class="m" style="stroke-width:6.314137;" />
<line x1="2208.719400" y1="11364.686632" x2="1655.669721" y2="10094.336580" class="m" style="stroke-width:4.772581;" />
<line x1="1655.669721" y1="10094.336580" x2="1614.179194" y2="11257.961494" class="m" style="stroke-width:17.965896;" />
<line x1="1614.179194" y1="11257.961494" x2="2208.719400" y2="11364.686632" class="m" style="stroke-width:20.325061;" />
<line x1="1614.179194" y1="11257.961494" x2="2342.233011" y2="12536.045219" class="m" style="stroke-width:10.873814;" />
<line x1="2342.233011" y1="12536.045219" x2="2208.719400" y2="11364.686632" class="m" style="stroke-width:13.347147;" />
<line x1="1872.928030" y1="13552.721718" x2="2593.897454" y2="13339.540832" class="m" style="stroke-width:13.746066;" />
<line x1="2593.897454" y1="13339.540832" x2="2342.233011" y2="12536.045219" class="m" style="stroke-width:12.720508;" />
<line x1="2342.233011" y1="12536.045219" x2="1872.928030" y2="13552.721718" class="m" style="stroke-width:17.521173;" />
<line x1="2542.538152" y1="14323.810972" x2="2593.897454" y2="13339.540832" class="m" style="stroke-width:7.995458;" />
<line x1="13188.544175" y1="3349.992503" x2="14378.491016" y2="3076.810125" class="m" style="stroke-width:7.135685;" />
<line x1="14378.491016" y1="3076.810125" x2="13491.972668" y2="2593.847515" class="m" style="stroke-width:11.966791;" />
<line x1="13491.972668" y1="2593.847515" x2="13188.544175" y2="3349.992503" class="m" style="stroke-width:17.093164;" />
<line x1="13188.544175" y1="3349.992503" x2="13913.783430" y2="4013.448519" class="v" style="stroke-width:41.312686;" />
<line x1="13913.783430" y1="4013.448519" x2="14378.491016" y2="3076.810125" class="m" style="stroke-width:12.821381;" />
<line x1="1489.428156" y1="10180.510417" x2="2164.857871" y2="9884.878912" class="m" style="stroke-width:44.292139;" />
<line x1="2164.857871" y1="9884.878912" x2="356.123766" y2="9520.406228" class="m" style="stroke-width:9.699111;" />
<line x1="356.123766" y1="9520.406228" x2="1489.428156" y2="10180.510417" class="m" style="stroke-width:6.314137;" />
<line x1="13491.972668" y1="2593.847515" x2="11752.003947" y2="1979.951558" class="m" style="stroke-width:9.699111;" />
<line x1="11752.003947" y1="1979.951558" x2="13188.544175" y2="3349.992503" class="v" style="stroke-width:41.960388;" />
<line x1="1489.428156" y1="10180.510417" x2="2282.629373" y2="10182.696350" class="v" style="stroke-width:31.050482;" />
<line x1="1489.428156" y1="10180.510417" x2="2208.719400" y2="11364.686632" class="m" style="stroke-width:4.772581;" />
<line x1="2208.719400" y1="11364.686632" x2="2282.629373" y2="10182.696350" class="v" style="stroke-width:24.982885;" />
<line x1="2208.719400" y1="11364.686632" x2="2665.809171" y2="10617.666602" class="m" style="stroke-width:36.567846;" />
<line x1="2665.809171" y1="10617.666602" x2="2282.629373" y2="10182.696350" class="v" style="stroke-width:25.318116;" />
<line x1="2208.719400" y1="11364.686632" x2="2885.409697" y2="11389.498095" class="v" style="stroke-width:5.863571;" />
<line x1="2208.719400" y1="11364.686632" x2="3065.505581" y2="12171.941628" class="m" style="stroke-width:7.346682;" />
<line x1="2342.233011" y1="12536.045219" x2="3065.505581" y2="12171.941628" class="m" style="stroke-width:16.149513;" />
<line x1="2593.897454" y1="13339.540832" x2="3435.391781" y2="13516.979269" class="m" style="stroke-width:15.437948;" />
<line x1="3065.505581" y1="12171.941628" x2="2593.897454" y2="13339.540832" class="m" style="stroke-width:6.046485;" />
<line x1="2593.897454" y1="13339.540832" x2="2683.496484" y2="14321.068978" class="m" style="stroke-width:7.995458;" />
<line x1="2683.496484" y1="14321.068978" x2="3435.391781" y2="13516.979269" class="m" style="stroke-width:8.990220;" />
<line x1="3698.641729" y1="14431.925523" x2="3435.391781" y2="13516.979269" class="v" style="stroke-width:43.116108;" />
<line x1="2683.496484" y1="14321.068978" x2="3698.641729" y2="14431.925523" class="m" style="stroke-width:13.279233;" />
<line x1="2683.496484" y1="14321.068978" x2="3172.611016" y2="15255.033012" class="m" style="stroke-width:10.903451;" />
<line x1="3172.611016" y1="15255.033012" x2="3698.641729" y2="14431.925523" class="v" style="stroke-width:5.553532;" />
<line x1="17383.477926" y1="4075.887463" x2="16609.903052" y2="4470.542780" class="m" style="stroke-width:21.131767;" />
<line x1="16609.903052" y1="4470.542780" x2="17508.219700" y2="5200.789570" class="m" style="stroke-width:10.607918;" />
<line x1="14896.210914" y1="3658.302233" x2="14378.491016" y2="3076.810125" class="m" style="stroke-width:16.998964;" />
<line x1="1614.179194" y1="11257.961494" x2="1583.121886" y2="13359.227196" class="m" style="stroke-width:16.112324;" />
<line x1="1583.121886" y1="13359.227196" x2="2342.233011" y2="12536.045219" class="m" style="stroke-width:17.521173;" />
<line x1="17383.477926" y1="4075.887463" x2="15785.447123" y2="2962.448253" class="m" style="stroke-width:19.928904;" />
<line x1="1614.179194" y1="11257.961494" x2="338.691637" y2="12270.226787" class="m" style="stroke-width:8.523583;" />
<line x1="338.691637" y1="12270.226787" x2="1583.121886" y2="13359.227196" class="m" style="stroke-width:9.723825;" />
<line x1="493.946859" y1="9804.083234" x2="1614.179194" y2="11257.961494" class="m" style="stroke-width:17.733597;" />
<line x1="1655.669721" y1="10094.336580" x2="493.946859" y2="9804.083234" class="m" style="stroke-width:17.560793;" />
<line x1="16058.691069" y1="0.000000" x2="14927.528565" y2="1445.390559" class="m" style="stroke-width:17.733597;" />
<line x1="14927.528565" y1="1445.390559" x2="16508.569583" y2="1564.978867" class="m" style="stroke-width:8.303929;" />
<line x1="16508.569583" y1="1564.978867" x2="16058.691069" y2="0.000000" class="m" style="stroke-width:8.523583;" />
<line x1="17383.477926" y1="4075.887463" x2="18820.516546" y2="2963.657189" class="m" style="stroke-width:21.618955;" />
<line x1="18820.516546" y1="2963.657189" x2="17260.581420" y2="2414.903202" class="m" style="stroke-width:9.723825;" />
<line x1="17260.581420" y1="2414.903202" x2="17383.477926" y2="4075.887463" class="m" style="stroke-width:7.577213;" />
<line x1="17260.581420" y1="2414.903202" x2="15785.447123" y2="2962.448253" class="m" style="stroke-width:9.344355;" />
<line x1="15785.447123" y1="2962.448253" x2="16508.569583" y2="1564.978867" class="m" style="stroke-width:9.344355;" />
<line x1="12369.009407" y1="8375.641348" x2="14015.374128" y2="7686.237975" class="m" style="stroke-width:10.715467;" />
<line x1="14015.374128" y1="7686.237975" x2="13397.065809" y2="6915.128026" class="m" style="stroke-width:16.083909;" />
<line x1="13397.065809" y1="6915.128026" x2="12369.009407" y2="8375.641348" class="m" style="stroke-width:8.302427;" />
<line x1="13777.894949" y1="9066.777719" x2="12369.009407" y2="8375.641348" class="m" style="stroke-width:10.037587;" />
<line x1="12369.009407" y1="8375.641348" x2="12622.209819" y2="9554.171212" class="m" style="stroke-width:12.070112;" />
<line x1="12622.209819" y1="9554.171212" x2="13777.894949" y2="9066.777719" class="m" style="stroke-width:10.983179;" />
<line x1="13777.894949" y1="9066.777719" x2="14015.374128" y2="7686.237975" class="m" style="stroke-width:11.662057;" />
<line x1="12103.528802" y1="8146.696595" x2="13397.065809" y2="6915.128026" class="m" style="stroke-width:8.302427;" />
<line x1="13590.394298" y1="10581.899944" x2="13777.894949" y2="9066.777719" class="m" style="stroke-width:11.751518;" />
<line x1="15588.556705" y1="8466.459425" x2="15001.510664" y2="8087.974820" class="m" style="stroke-width:14.778518;" />
<line x1="15001.510664" y1="8087.974820" x2="14145.965129" y2="9080.953837" class="m" style="stroke-width:10.371533;" />
<line x1="15001.510664" y1="8087.974820" x2="14015.374128" y2="7686.237975" class="m" style="stroke-width:14.480283;" />
<line x1="14015.374128" y1="7686.237975" x2="14145.965129" y2="9080.953837" class="m" style="stroke-width:11.662057;" />
<line x1="14779.327185" y1="6648.189133" x2="14015.374128" y2="7686.237975" class="m" style="stroke-width:11.661315;" />
<line x1="11395.891824" y1="11620.756828" x2="12477.490203" y2="11088.602681" class="m" style="stroke-width:12.070112;" />
<line x1="12477.490203" y1="11088.602681" x2="11784.665158" y2="10549.106140" class="m" style="stroke-width:13.399971;" />
<line x1="16451.594873" y1="10288.260683" x2="17945.121977" y2="10857.625520" class="m" style="stroke-width:6.596143;" />
<line x1="17945.121977" y1="10857.625520" x2="17302.391795" y2="9532.281535" class="m" style="stroke-width:12.778863;" />
<line x1="8461.271800" y1="12999.360075" x2="7347.016172" y2="13453.781713" class="m" style="stroke-width:16.153804;" />
<line x1="7347.016172" y1="13453.781713" x2="8783.858489" y2="14153.984315" class="m" style="stroke-width:6.596143;" />
<line x1="8783.858489" y1="14153.984315" x2="8461.271800" y2="12999.360075" class="m" style="stroke-width:12.340104;" />
<line x1="14686.049321" y1="10508.910740" x2="15736.950597" y2="11714.208221" class="m" style="stroke-width:12.035217;" />
<line x1="15736.950597" y1="11714.208221" x2="15844.510964" y2="10520.202328" class="m" style="stroke-width:12.340104;" />
<line x1="12486.910753" y1="12010.732472" x2="13590.394298" y2="10581.899944" class="v" style="stroke-width:10.205531;" />
<line x1="12687.045611" y1="11026.463386" x2="12486.910753" y2="12010.732472" class="m" style="stroke-width:14.871546;" />
<line x1="8957.749571" y1="11618.663869" x2="8630.443615" y2="12862.702596" class="m" style="stroke-width:14.075844;" />
<line x1="8630.443615" y1="12862.702596" x2="10229.103345" y2="12900.419659" class="m" style="stroke-width:12.035217;" />
<line x1="10229.103345" y1="12900.419659" x2="8957.749571" y2="11618.663869" class="v" style="stroke-width:10.205531;" />
<line x1="7766.598348" y1="11966.366096" x2="8630.443615" y2="12862.702596" class="m" style="stroke-width:11.938613;" />
<line x1="7766.598348" y1="11966.366096" x2="7347.016172" y2="13453.781713" class="m" style="stroke-width:8.140449;" />
<line x1="8461.271800" y1="12999.360075" x2="7766.598348" y2="11966.366096" class="m" style="stroke-width:11.938613;" />
<line x1="7009.239649" y1="12101.716677" x2="7347.016172" y2="13453.781713" class="m" style="stroke-width:9.023989;" />
<line x1="7211.897885" y1="13480.521406" x2="7009.239649" y2="12101.716677" class="m" style="stroke-width:9.023989;" />
<line x1="6375.247154" y1="12977.253766" x2="7211.897885" y2="13480.521406" class="m" style="stroke-width:13.773977;" />
<line x1="6375.247154" y1="12977.253766" x2="6277.488395" y2="14045.738068" class="m" style="stroke-width:5.320217;" />
<line x1="6277.488395" y1="14045.738068" x2="7211.897885" y2="13480.521406" class="m" style="stroke-width:12.447973;" />
<line x1="7082.667343" y1="14947.810822" x2="7211.897885" y2="13480.521406" class="m" style="stroke-width:12.778863;" />
<line x1="6277.488395" y1="14045.738068" x2="7082.667343" y2="14947.810822" class="m" style="stroke-width:6.179030;" />
<line x1="10276.632340" y1="4837.927205" x2="10947.204005" y2="6575.909230" class="m" style="stroke-width:5.111372;" />
<line x1="11393.205836" y1="5359.832452" x2="10276.632340" y2="4837.927205" class="m" style="stroke-width:11.376043;" />
<line x1="10276.632340" y1="4837.927205" x2="9772.007462" y2="5855.009642" class="m" style="stroke-width:17.470379;" />
<line x1="9772.007462" y1="5855.009642" x2="10947.204005" y2="6575.909230" class="m" style="stroke-width:12.359353;" />
<line x1="11757.766698" y1="4327.736436" x2="10478.635625" y2="4375.240350" class="m" style="stroke-width:12.608161;" />
<line x1="10478.635625" y1="4375.240350" x2="11427.665581" y2="5161.664918" class="m" style="stroke-width:11.376043;" />
<line x1="9772.007462" y1="5855.009642" x2="9929.158647" y2="7238.651494" class="m" style="stroke-width:13.209265;" />
<line x1="9929.158647" y1="7238.651494" x2="10947.204005" y2="6575.909230" class="m" style="stroke-width:9.590953;" />
<line x1="9772.007462" y1="5855.009642" x2="8857.507248" y2="5898.381478" class="m" style="stroke-width:16.789516;" />
<line x1="8872.682785" y1="5683.525291" x2="9772.007462" y2="5855.009642" class="m" style="stroke-width:16.789516;" />
<line x1="10276.632340" y1="4837.927205" x2="8872.682785" y2="5683.525291" class="m" style="stroke-width:5.758198;" />
<line x1="5570.134101" y1="5893.969614" x2="4147.315092" y2="5080.522292" class="m" style="stroke-width:5.758198;" />
<line x1="4147.315092" y1="5080.522292" x2="3883.763963" y2="6267.161375" class="m" style="stroke-width:16.273592;" />
<line x1="3883.763963" y1="6267.161375" x2="5570.134101" y2="5893.969614" class="v" style="stroke-width:5.360870;" />
<line x1="3883.763963" y1="6267.161375" x2="4775.209925" y2="6516.139350" class="m" style="stroke-width:25.807011;" />
<line x1="10120.855603" y1="3213.532569" x2="10478.635625" y2="4375.240350" class="m" style="stroke-width:16.273592;" />
<line x1="10478.635625" y1="4375.240350" x2="11308.138039" y2="3371.872955" class="m" style="stroke-width:8.037751;" />
<line x1="11308.138039" y1="3371.872955" x2="10120.855603" y2="3213.532569" class="m" style="stroke-width:12.627404;" />
<line x1="11757.766698" y1="4327.736436" x2="11308.138039" y2="3371.872955" class="m" style="stroke-width:8.711778;" />
<line x1="11480.419374" y1="3308.462485" x2="11757.766698" y2="4327.736436" class="m" style="stroke-width:8.711778;" />
<line x1="3883.763963" y1="6267.161375" x2="3500.764808" y2="6597.427367" class="m" style="stroke-width:21.186080;" />
<line x1="3883.763963" y1="6267.161375" x2="2716.943350" y2="5996.530783" class="m" style="stroke-width:12.627404;" />
<line x1="2716.943350" y1="5996.530783" x2="3500.764808" y2="6597.427367" class="v" style="stroke-width:7.646899;" />
<line x1="6862.806401" y1="9182.961829" x2="5376.141136" y2="9770.814359" class="m" style="stroke-width:11.576235;" />
<line x1="5376.141136" y1="9770.814359" x2="6604.646504" y2="10455.575271" class="m" style="stroke-width:11.344143;" />
<line x1="6604.646504" y1="10455.575271" x2="6862.806401" y2="9182.961829" class="m" style="stroke-width:11.996167;" />
<line x1="6604.646504" y1="10455.575271" x2="7983.042459" y2="9877.749343" class="m" style="stroke-width:7.455960;" />
<line x1="7983.042459" y1="9877.749343" x2="6862.806401" y2="9182.961829" class="m" style="stroke-width:13.616303;" />
<line x1="5548.680051" y1="8593.948153" x2="5376.141136" y2="9770.814359" class="m" style="stroke-width:16.826837;" />
<line x1="6862.806401" y1="9182.961829" x2="5548.680051" y2="8593.948153" class="m" style="stroke-width:10.224342;" />
<line x1="5376.141136" y1="9770.814359" x2="5943.755380" y2="11230.184244" class="m" style="stroke-width:12.114239;" />
<line x1="5943.755380" y1="11230.184244" x2="6604.646504" y2="10455.575271" class="m" style="stroke-width:12.483006;" />
<line x1="7932.356290" y1="8442.381384" x2="6862.806401" y2="9182.961829" class="m" style="stroke-width:13.020682;" />
<line x1="6862.806401" y1="9182.961829" x2="7663.275081" y2="8157.463778" class="m" style="stroke-width:13.020682;" />
<line x1="6349.700764" y1="7875.304497" x2="6862.806401" y2="9182.961829" class="m" style="stroke-width:10.237270;" />
<line x1="6349.700764" y1="7875.304497" x2="5548.680051" y2="8593.948153" class="m" style="stroke-width:13.398846;" />
<line x1="5127.424179" y1="8607.661911" x2="5469.265673" y2="7587.256461" class="m" style="stroke-width:13.398846;" />
<line x1="4341.426497" y1="8558.396750" x2="5127.424179" y2="8607.661911" class="m" style="stroke-width:16.916152;" />
<line x1="4805.714625" y1="10045.427703" x2="5127.424179" y2="8607.661911" class="v" style="stroke-width:7.592176;" />
<line x1="4805.714625" y1="10045.427703" x2="5376.141136" y2="9770.814359" class="m" style="stroke-width:20.042258;" />
<line x1="5376.141136" y1="9770.814359" x2="5127.424179" y2="8607.661911" class="m" style="stroke-width:16.826837;" />
<line x1="7186.781651" y1="11004.816517" x2="6604.646504" y2="10455.575271" class="m" style="stroke-width:12.857624;" />
<line x1="8058.761714" y1="10110.021848" x2="6604.646504" y2="10455.575271" class="m" style="stroke-width:7.455960;" />
<line x1="7186.781651" y1="11004.816517" x2="8058.761714" y2="10110.021848" class="m" style="stroke-width:7.716169;" />
<text x="3440.106967" y="15545.922200" transform="rotate(-51.755583 3440.106967 15545.922200)" fill="darkgreen" font-weight="bold" font-size="327.880000">2</text>
<text x="17564.053865" y="6763.131100" transform="rotate(-179.217717 17564.053865 6763.131100)" fill="darkgreen" font-weight="bold" font-size="327.880000">2</text>
<text x="17818.413830" y="7463.912594" transform="rotate(-7.408527 17818.413830 7463.912594)" fill="darkgreen" font-weight="bold" font-size="327.880000">3</text>
<text x="5825.299667" y="15557.008107" transform="rotate(72.390851 5825.299667 15557.008107)" fill="darkgreen" font-weight="bold" font-size="327.880000">3</text>
<text x="18496.144236" y="7112.207973" transform="rotate(-129.118870 18496.144236 7112.207973)" fill="darkgreen" font-weight="bold" font-size="327.880000">4</text>
<text x="4224.962324" y="14852.744201" transform="rotate(-14.190142 4224.962324 14852.744201)" fill="darkgreen" font-weight="bold" font-size="327.880000">4</text>
<text x="16319.762157" y="7238.719993" transform="rotate(23.014802 16319.762157 7238.719993)" fill="darkgreen" font-weight="bold" font-size="327.880000">8</text>
<text x="16273.334614" y="7596.455314" transform="rotate(-140.374952 16273.334614 7596.455314)" fill="darkgreen" font-weight="bold" font-size="327.880000">8</text>
<text x="15327.195076" y="6917.944298" transform="rotate(-153.785618 15327.195076 6917.944298)" fill="darkgreen" font-weight="bold" font-size="327.880000">10</text>
<text x="15107.711183" y="6764.499421" transform="rotate(19.503629 15107.711183 6764.499421)" fill="darkgreen" font-weight="bold" font-size="327.880000">10</text>
<text x="14573.448285" y="5792.569861" transform="rotate(-0.329947 14573.448285 5792.569861)" fill="darkgreen" font-weight="bold" font-size="327.880000">11</text>
<text x="14823.459986" y="5939.318415" transform="rotate(-170.194169 14823.459986 5939.318415)" fill="darkgreen" font-weight="bold" font-size="327.880000">11</text>
<text x="13463.280991" y="4284.344813" transform="rotate(-94.702710 13463.280991 4284.344813)" fill="darkgreen" font-weight="bold" font-size="327.880000">19</text>
<text x="13596.585726" y="4026.125836" transform="rotate(97.072502 13596.585726 4026.125836)" fill="darkgreen" font-weight="bold" font-size="327.880000">19</text>
<text x="12380.779113" y="2849.653890" transform="rotate(76.109689 12380.779113 2849.653890)" fill="darkgreen" font-weight="bold" font-size="327.880000">21</text>
<text x="12333.955149" y="3130.949070" transform="rotate(-114.781498 12333.955149 3130.949070)" fill="darkgreen" font-weight="bold" font-size="327.880000">21</text>
<text x="927.332024" y="8216.867810" transform="rotate(-170.042764 927.332024 8216.867810)" fill="darkgreen" font-weight="bold" font-size="327.880000">24</text>
<text x="13249.293882" y="2870.165370" transform="rotate(-102.940994 13249.293882 2870.165370)" fill="darkgreen" font-weight="bold" font-size="327.880000">24</text>
<text x="12886.272858" y="1655.256704" transform="rotate(-117.104733 12886.272858 1655.256704)" fill="darkgreen" font-weight="bold" font-size="327.880000">25</text>
<text x="2183.574560" y="8437.685667" transform="rotate(-170.016714 2183.574560 8437.685667)" fill="darkgreen" font-weight="bold" font-size="327.880000">25</text>
<text x="12476.123469" y="1634.295641" transform="rotate(105.194359 12476.123469 1634.295641)" fill="darkgreen" font-weight="bold" font-size="327.880000">26</text>
<text x="2143.648334" y="7796.287896" transform="rotate(62.189787 2143.648334 7796.287896)" fill="darkgreen" font-weight="bold" font-size="327.880000">26</text>
<text x="3017.177833" y="9872.595349" transform="rotate(177.184411 3017.177833 9872.595349)" fill="darkgreen" font-weight="bold" font-size="327.880000">30</text>
<text x="2781.156510" y="9654.380769" transform="rotate(14.104779 2781.156510 9654.380769)" fill="darkgreen" font-weight="bold" font-size="327.880000">30</text>
<text x="2602.144489" y="9881.553386" transform="rotate(179.564269 2602.144489 9881.553386)" fill="darkgreen" font-weight="bold" font-size="327.880000">32</text>
<text x="2550.729972" y="10036.610339" transform="rotate(50.813030 2550.729972 10036.610339)" fill="darkgreen" font-weight="bold" font-size="327.880000">32</text>
<text x="3262.659075" y="10906.211628" transform="rotate(-154.198707 3262.659075 10906.211628)" fill="darkgreen" font-weight="bold" font-size="327.880000">34</text>
<text x="3127.000887" y="10641.132808" transform="rotate(41.520664 3127.000887 10641.132808)" fill="darkgreen" font-weight="bold" font-size="327.880000">34</text>
<text x="3779.156498" y="11645.348897" transform="rotate(145.914799 3779.156498 11645.348897)" fill="darkgreen" font-weight="bold" font-size="327.880000">35</text>
<text x="3774.053915" y="12043.841487" transform="rotate(-9.652591 3774.053915 12043.841487)" fill="darkgreen" font-weight="bold" font-size="327.880000">35</text>
<text x="4210.498025" y="12483.124117" transform="rotate(104.544934 4210.498025 12483.124117)" fill="darkgreen" font-weight="bold" font-size="327.880000">38</text>
<text x="3972.132719" y="12279.004826" transform="rotate(-84.838010 3972.132719 12279.004826)" fill="darkgreen" font-weight="bold" font-size="327.880000">38</text>
<text x="5322.627331" y="14147.584567" transform="rotate(68.356267 5322.627331 14147.584567)" fill="darkgreen" font-weight="bold" font-size="327.880000">44</text>
<text x="4672.246981" y="14258.546737" transform="rotate(-87.381172 4672.246981 14258.546737)" fill="darkgreen" font-weight="bold" font-size="327.880000">44</text>
<text x="6419.691828" y="15826.438620" transform="rotate(-59.970608 6419.691828 15826.438620)" fill="darkgreen" font-weight="bold" font-size="327.880000">45</text>
<text x="17095.491508" y="8909.325156" transform="rotate(-108.372686 17095.491508 8909.325156)" fill="darkgreen" font-weight="bold" font-size="327.880000">45</text>
<text x="15405.262058" y="8348.284364" transform="rotate(-147.189012 15405.262058 8348.284364)" fill="darkgreen" font-weight="bold" font-size="327.880000">48</text>
<text x="15199.617265" y="8179.167185" transform="rotate(24.717544 15199.617265 8179.167185)" fill="darkgreen" font-weight="bold" font-size="327.880000">48</text>
<text x="12479.579527" y="4138.776159" transform="rotate(-85.141077 12479.579527 4138.776159)" fill="darkgreen" font-weight="bold" font-size="327.880000">53</text>
<text x="12518.753871" y="3879.104547" transform="rotate(96.522708 12518.753871 3879.104547)" fill="darkgreen" font-weight="bold" font-size="327.880000">53</text>
<text x="11627.235328" y="1900.042094" transform="rotate(-125.172318 11627.235328 1900.042094)" fill="darkgreen" font-weight="bold" font-size="327.880000">57</text>
<text x="2694.673166" y="7861.969374" transform="rotate(-146.245222 2694.673166 7861.969374)" fill="darkgreen" font-weight="bold" font-size="327.880000">57</text>
<text x="4966.104989" y="13046.380375" transform="rotate(-60.741570 4966.104989 13046.380375)" fill="darkgreen" font-weight="bold" font-size="327.880000">59</text>
<text x="5354.821619" y="12930.041628" transform="rotate(105.489231 5354.821619 12930.041628)" fill="darkgreen" font-weight="bold" font-size="327.880000">59</text>
<text x="10696.063297" y="924.131174" transform="rotate(-153.131014 10696.063297 924.131174)" fill="darkgreen" font-weight="bold" font-size="327.880000">71</text>
<text x="3933.732357" y="8440.289660" transform="rotate(-163.843935 3933.732357 8440.289660)" fill="darkgreen" font-weight="bold" font-size="327.880000">71</text>
<text x="3944.307826" y="9898.202722" transform="rotate(9.698837 3944.307826 9898.202722)" fill="darkgreen" font-weight="bold" font-size="327.880000">73</text>
<text x="4199.055895" y="9967.891814" transform="rotate(-172.716613 4199.055895 9967.891814)" fill="darkgreen" font-weight="bold" font-size="327.880000">73</text>
<text x="15796.081659" y="8725.951977" transform="rotate(65.165527 15796.081659 8725.951977)" fill="darkgreen" font-weight="bold" font-size="327.880000">80</text>
<text x="15718.880431" y="9096.586616" transform="rotate(-101.685229 15718.880431 9096.586616)" fill="darkgreen" font-weight="bold" font-size="327.880000">80</text>
<text x="12255.628087" y="5449.664926" transform="rotate(-174.053336 12255.628087 5449.664926)" fill="darkgreen" font-weight="bold" font-size="327.880000">83</text>
<text x="12015.036027" y="5305.747993" transform="rotate(13.782616 12015.036027 5305.747993)" fill="darkgreen" font-weight="bold" font-size="327.880000">83</text>
<text x="11044.330157" y="2860.776738" transform="rotate(45.751766 11044.330157 2860.776738)" fill="darkgreen" font-weight="bold" font-size="327.880000">87</text>
<text x="3004.768889" y="6217.184838" transform="rotate(37.474649 3004.768889 6217.184838)" fill="darkgreen" font-weight="bold" font-size="327.880000">87</text>
<text x="3708.297057" y="6859.442990" transform="rotate(51.618640 3708.297057 6859.442990)" fill="darkgreen" font-weight="bold" font-size="327.880000">89</text>
<text x="10425.863682" y="2129.441368" transform="rotate(52.227503 10425.863682 2129.441368)" fill="darkgreen" font-weight="bold" font-size="327.880000">89</text>
<text x="5587.891001" y="11908.289681" transform="rotate(-62.309862 5587.891001 11908.289681)" fill="darkgreen" font-weight="bold" font-size="327.880000">92</text>
<text x="5766.409789" y="11701.424956" transform="rotate(110.623199 5766.409789 11701.424956)" fill="darkgreen" font-weight="bold" font-size="327.880000">92</text>
<text x="6338.317345" y="13380.889428" transform="rotate(95.227599 6338.317345 13380.889428)" fill="darkgreen" font-weight="bold" font-size="327.880000">93</text>
<text x="6262.591066" y="13635.305801" transform="rotate(-80.285345 6262.591066 13635.305801)" fill="darkgreen" font-weight="bold" font-size="327.880000">93</text>
<text x="6611.156145" y="14640.983739" transform="rotate(-124.522553 6611.156145 14640.983739)" fill="darkgreen" font-weight="bold" font-size="327.880000">94</text>
<text x="6592.743245" y="14398.930127" transform="rotate(48.248292 6592.743245 14398.930127)" fill="darkgreen" font-weight="bold" font-size="327.880000">94</text>
<text x="16210.910722" y="9677.054343" transform="rotate(68.506199 16210.910722 9677.054343)" fill="darkgreen" font-weight="bold" font-size="327.880000">95</text>
<text x="15826.335774" y="10126.036983" transform="rotate(-92.640066 15826.335774 10126.036983)" fill="darkgreen" font-weight="bold" font-size="327.880000">95</text>
<text x="10130.771884" y="1043.943607" transform="rotate(83.721767 10130.771884 1043.943607)" fill="darkgreen" font-weight="bold" font-size="327.880000">100</text>
<text x="4169.006261" y="7750.340266" transform="rotate(77.955057 4169.006261 7750.340266)" fill="darkgreen" font-weight="bold" font-size="327.880000">100</text>
<text x="11797.410985" y="6720.860819" transform="rotate(179.900021 11797.410985 6720.860819)" fill="darkgreen" font-weight="bold" font-size="327.880000">106</text>
<text x="11409.064494" y="6626.541479" transform="rotate(6.256165 11409.064494 6626.541479)" fill="darkgreen" font-weight="bold" font-size="327.880000">106</text>
<text x="13659.983288" y="10019.577496" transform="rotate(-82.945349 13659.983288 10019.577496)" fill="darkgreen" font-weight="bold" font-size="327.880000">112</text>
<text x="14346.411971" y="9610.925749" transform="rotate(69.282294 14346.411971 9610.925749)" fill="darkgreen" font-weight="bold" font-size="327.880000">112</text>
<text x="5027.745120" y="6878.203362" transform="rotate(55.104698 5027.745120 6878.203362)" fill="darkgreen" font-weight="bold" font-size="327.880000">117</text>
<text x="5229.216985" y="7216.795936" transform="rotate(-122.942171 5229.216985 7216.795936)" fill="darkgreen" font-weight="bold" font-size="327.880000">117</text>
<text x="12286.296654" y="10939.722009" transform="rotate(-142.092426 12286.296654 10939.722009)" fill="darkgreen" font-weight="bold" font-size="327.880000">121</text>
<text x="11475.680196" y="8246.801751" transform="rotate(-9.059076 11475.680196 8246.801751)" fill="darkgreen" font-weight="bold" font-size="327.880000">121</text>
<text x="7015.142528" y="7086.682636" transform="rotate(130.157778 7015.142528 7086.682636)" fill="darkgreen" font-weight="bold" font-size="327.880000">122</text>
<text x="5530.122782" y="6925.054614" transform="rotate(-87.777744 5530.122782 6925.054614)" fill="darkgreen" font-weight="bold" font-size="327.880000">122</text>
<text x="10472.413795" y="11757.775164" transform="rotate(-8.439522 10472.413795 11757.775164)" fill="darkgreen" font-weight="bold" font-size="327.880000">127</text>
<text x="12645.972730" y="10093.779778" transform="rotate(87.478472 12645.972730 10093.779778)" fill="darkgreen" font-weight="bold" font-size="327.880000">127</text>
<text x="10668.739659" y="7031.254265" transform="rotate(131.217930 10668.739659 7031.254265)" fill="darkgreen" font-weight="bold" font-size="327.880000">130</text>
<text x="10273.310977" y="7014.610106" transform="rotate(-33.063917 10273.310977 7014.610106)" fill="darkgreen" font-weight="bold" font-size="327.880000">130</text>
<text x="8407.150314" y="6281.906852" transform="rotate(139.582173 8407.150314 6281.906852)" fill="darkgreen" font-weight="bold" font-size="327.880000">131</text>
<text x="7574.563760" y="7572.619028" transform="rotate(-98.625074 7574.563760 7572.619028)" fill="darkgreen" font-weight="bold" font-size="327.880000">131</text>
<text x="7777.468066" y="10433.996394" transform="rotate(135.979878 7777.468066 10433.996394)" fill="darkgreen" font-weight="bold" font-size="327.880000">136</text>
<text x="7485.471744" y="10698.311456" transform="rotate(-45.739825 7485.471744 10698.311456)" fill="darkgreen" font-weight="bold" font-size="327.880000">136</text>
<text x="10759.624394" y="8878.533366" transform="rotate(-51.228905 10759.624394 8878.533366)" fill="darkgreen" font-weight="bold" font-size="327.880000">139</text>
<text x="11420.542380" y="10601.536138" transform="rotate(171.806295 11420.542380 10601.536138)" fill="darkgreen" font-weight="bold" font-size="327.880000">139</text>
<text x="9281.691978" y="7414.469880" transform="rotate(-15.192218 9281.691978 7414.469880)" fill="darkgreen" font-weight="bold" font-size="327.880000">144</text>
<text x="9918.104125" y="7804.144995" transform="rotate(142.726647 9918.104125 7804.144995)" fill="darkgreen" font-weight="bold" font-size="327.880000">144</text>
<text x="10302.943923" y="10608.818571" transform="rotate(-164.461009 10302.943923 10608.818571)" fill="darkgreen" font-weight="bold" font-size="327.880000">145</text>
<text x="9799.943321" y="9416.373822" transform="rotate(-18.993016 9799.943321 9416.373822)" fill="darkgreen" font-weight="bold" font-size="327.880000">145</text>
<text x="8852.553777" y="8295.390353" transform="rotate(170.924319 8852.553777 8295.390353)" fill="darkgreen" font-weight="bold" font-size="327.880000">147</text>
<text x="8154.055480" y="7128.036310" transform="rotate(22.668799 8154.055480 7128.036310)" fill="darkgreen" font-weight="bold" font-size="327.880000">147</text>
<text x="9016.140142" y="10304.264466" transform="rotate(-169.789694 9016.140142 10304.264466)" fill="darkgreen" font-weight="bold" font-size="327.880000">149</text>
<text x="8521.209875" y="9752.978852" transform="rotate(-13.053028 8521.209875 9752.978852)" fill="darkgreen" font-weight="bold" font-size="327.880000">149</text>
<text x="12626.177441" y="11325.814828" transform="rotate(101.493457 12626.177441 11325.814828)" fill="darkgreen" font-weight="bold" font-size="327.880000">150</text>
<text x="9255.918686" y="11685.082229" transform="rotate(12.557838 9255.918686 11685.082229)" fill="darkgreen" font-weight="bold" font-size="327.880000">150</text>
<text x="16932.040079" y="6081.092112" transform="rotate(14.005081 16932.040079 6081.092112)" fill="darkgreen" font-weight="bold" font-size="327.880000">155</text>
<text x="2889.933703" y="14782.960220" transform="rotate(124.134169 2889.933703 14782.960220)" fill="darkgreen" font-weight="bold" font-size="327.880000">155</text>
<text x="2939.027392" y="14820.362868" transform="rotate(-51.608484 2939.027392 14820.362868)" fill="darkgreen" font-weight="bold" font-size="327.880000">156</text>
<text x="17728.784176" y="6158.612988" transform="rotate(165.570945 17728.784176 6158.612988)" fill="darkgreen" font-weight="bold" font-size="327.880000">156</text>
<text x="17476.076902" y="6433.718824" transform="rotate(-24.518791 17476.076902 6433.718824)" fill="darkgreen" font-weight="bold" font-size="327.880000">159</text>
<text x="3532.362205" y="15011.641114" transform="rotate(115.394937 3532.362205 15011.641114)" fill="darkgreen" font-weight="bold" font-size="327.880000">159</text>
<text x="16153.767231" y="6319.085450" transform="rotate(-159.682895 16153.767231 6319.085450)" fill="darkgreen" font-weight="bold" font-size="327.880000">161</text>
<text x="15720.790130" y="5784.020898" transform="rotate(13.658807 15720.790130 5784.020898)" fill="darkgreen" font-weight="bold" font-size="327.880000">161</text>
<text x="15437.806488" y="5758.248884" transform="rotate(-52.865075 15437.806488 5758.248884)" fill="darkgreen" font-weight="bold" font-size="327.880000">162</text>
<text x="15667.514020" y="5436.518318" transform="rotate(144.608292 15667.514020 5436.518318)" fill="darkgreen" font-weight="bold" font-size="327.880000">162</text>
<text x="14383.368080" y="4981.041920" transform="rotate(-41.927942 14383.368080 4981.041920)" fill="darkgreen" font-weight="bold" font-size="327.880000">166</text>
<text x="14670.077234" y="4706.398717" transform="rotate(167.650378 14670.077234 4706.398717)" fill="darkgreen" font-weight="bold" font-size="327.880000">166</text>
<text x="233.207717" y="8180.025335" transform="rotate(28.373858 233.207717 8180.025335)" fill="darkgreen" font-weight="bold" font-size="327.880000">167</text>
<text x="13985.527072" y="2966.588335" transform="rotate(119.905068 13985.527072 2966.588335)" fill="darkgreen" font-weight="bold" font-size="327.880000">167</text>
<text x="1479.156851" y="8927.757765" transform="rotate(33.116596 1479.156851 8927.757765)" fill="darkgreen" font-weight="bold" font-size="327.880000">169</text>
<text x="12327.910289" y="2529.198460" transform="rotate(43.642682 12327.910289 2529.198460)" fill="darkgreen" font-weight="bold" font-size="327.880000">169</text>
<text x="2604.260906" y="10547.799494" transform="rotate(-131.377894 2604.260906 10547.799494)" fill="darkgreen" font-weight="bold" font-size="327.880000">171</text>
<text x="2362.059302" y="10134.111496" transform="rotate(-31.452846 2362.059302 10134.111496)" fill="darkgreen" font-weight="bold" font-size="327.880000">171</text>
<text x="3232.103115" y="11941.391732" transform="rotate(-122.136573 3232.103115 11941.391732)" fill="darkgreen" font-weight="bold" font-size="327.880000">173</text>
<text x="3047.590563" y="11590.533116" transform="rotate(51.105857 3047.590563 11590.533116)" fill="darkgreen" font-weight="bold" font-size="327.880000">173</text>
<text x="3295.403704" y="11972.691864" transform="rotate(139.084937 3295.403704 11972.691864)" fill="darkgreen" font-weight="bold" font-size="327.880000">176</text>
<text x="3065.505581" y="12171.941628" transform="rotate(-2.228144 3065.505581 12171.941628)" fill="darkgreen" font-weight="bold" font-size="327.880000">176</text>
<text x="3768.850820" y="13538.815364" transform="rotate(-77.763117 3768.850820 13538.815364)" fill="darkgreen" font-weight="bold" font-size="327.880000">177</text>
<text x="3960.266489" y="13601.199047" transform="rotate(97.831787 3960.266489 13601.199047)" fill="darkgreen" font-weight="bold" font-size="327.880000">177</text>
<text x="17584.933942" y="6034.297105" transform="rotate(-121.780553 17584.933942 6034.297105)" fill="darkgreen" font-weight="bold" font-size="327.880000">182</text>
<text x="3329.687748" y="15009.246917" transform="rotate(-57.418205 3329.687748 15009.246917)" fill="darkgreen" font-weight="bold" font-size="327.880000">182</text>
<text x="14223.441783" y="4453.327043" transform="rotate(-96.168836 14223.441783 4453.327043)" fill="darkgreen" font-weight="bold" font-size="327.880000">185</text>
<text x="14057.151966" y="4326.967616" transform="rotate(65.425945 14057.151966 4326.967616)" fill="darkgreen" font-weight="bold" font-size="327.880000">185</text>
<text x="13406.010764" y="3548.933082" transform="rotate(42.452581 13406.010764 3548.933082)" fill="darkgreen" font-weight="bold" font-size="327.880000">188</text>
<text x="14136.186211" y="3424.772160" transform="rotate(-91.541655 14136.186211 3424.772160)" fill="darkgreen" font-weight="bold" font-size="327.880000">188</text>
<text x="3621.412886" y="14163.510501" transform="rotate(-106.051673 3621.412886 14163.510501)" fill="darkgreen" font-weight="bold" font-size="327.880000">189</text>
<text x="3347.437320" y="13782.073462" transform="rotate(108.355100 3347.437320 13782.073462)" fill="darkgreen" font-weight="bold" font-size="327.880000">189</text>
<text x="17021.366146" y="5127.967497" transform="rotate(-122.041251 17021.366146 5127.967497)" fill="darkgreen" font-weight="bold" font-size="327.880000">192</text>
<text x="16906.408341" y="4711.573641" transform="rotate(39.107858 16906.408341 4711.573641)" fill="darkgreen" font-weight="bold" font-size="327.880000">192</text>
<text x="14571.554493" y="3170.441768" transform="rotate(56.357430 14571.554493 3170.441768)" fill="darkgreen" font-weight="bold" font-size="327.880000">194</text>
<text x="14768.168181" y="3514.487326" transform="rotate(-131.679626 14768.168181 3514.487326)" fill="darkgreen" font-weight="bold" font-size="327.880000">194</text>
<text x="15067.082931" y="3132.649459" transform="rotate(47.995308 15067.082931 3132.649459)" fill="darkgreen" font-weight="bold" font-size="327.880000">196</text>
<text x="15242.130689" y="3527.208079" transform="rotate(-146.366024 15242.130689 3527.208079)" fill="darkgreen" font-weight="bold" font-size="327.880000">196</text>
<text x="17946.423197" y="3640.182560" transform="rotate(-37.738931 17946.423197 3640.182560)" fill="darkgreen" font-weight="bold" font-size="327.880000">203</text>
<text x="1719.336633" y="14247.815830" transform="rotate(102.460134 1719.336633 14247.815830)" fill="darkgreen" font-weight="bold" font-size="327.880000">203</text>
<text x="18115.788756" y="4644.422040" transform="rotate(-142.175768 18115.788756 4644.422040)" fill="darkgreen" font-weight="bold" font-size="327.880000">204</text>
<text x="1868.711083" y="14960.574506" transform="rotate(-43.380103 1868.711083 14960.574506)" fill="darkgreen" font-weight="bold" font-size="327.880000">204</text>
<text x="2836.785916" y="14613.775097" transform="rotate(62.359063 2836.785916 14613.775097)" fill="darkgreen" font-weight="bold" font-size="327.880000">207</text>
<text x="17830.738680" y="5128.984072" transform="rotate(-12.551594 17830.738680 5128.984072)" fill="darkgreen" font-weight="bold" font-size="327.880000">207</text>
<text x="14107.987026" y="2929.443391" transform="rotate(-151.419071 14107.987026 2929.443391)" fill="darkgreen" font-weight="bold" font-size="327.880000">211</text>
<text x="14404.347803" y="2097.836523" transform="rotate(64.561771 14404.347803 2097.836523)" fill="darkgreen" font-weight="bold" font-size="327.880000">211</text>
<text x="1265.669338" y="9996.896029" transform="rotate(-165.971981 1265.669338 9996.896029)" fill="darkgreen" font-weight="bold" font-size="327.880000">212</text>
<text x="14675.927791" y="1131.874994" transform="rotate(-128.747540 14675.927791 1131.874994)" fill="darkgreen" font-weight="bold" font-size="327.880000">212</text>
<text x="752.781868" y="9751.443606" transform="rotate(30.219076 752.781868 9751.443606)" fill="darkgreen" font-weight="bold" font-size="327.880000">213</text>
<text x="14210.954932" y="969.357029" transform="rotate(85.891476 14210.954932 969.357029)" fill="darkgreen" font-weight="bold" font-size="327.880000">213</text>
<text x="2010.721547" y="10909.887376" transform="rotate(-113.526000 2010.721547 10909.887376)" fill="darkgreen" font-weight="bold" font-size="327.880000">216</text>
<text x="1746.942313" y="10604.458494" transform="rotate(58.724702 1746.942313 10604.458494)" fill="darkgreen" font-weight="bold" font-size="327.880000">216</text>
<text x="2190.031089" y="12865.767093" transform="rotate(114.778371 2190.031089 12865.767093)" fill="darkgreen" font-weight="bold" font-size="327.880000">219</text>
<text x="1829.311842" y="13092.258201" transform="rotate(-47.318774 1829.311842 13092.258201)" fill="darkgreen" font-weight="bold" font-size="327.880000">219</text>
<text x="2620.812966" y="13634.391484" transform="rotate(84.784192 2620.812966 13634.391484)" fill="darkgreen" font-weight="bold" font-size="327.880000">222</text>
<text x="2557.966466" y="14028.136626" transform="rotate(-87.013005 2557.966466 14028.136626)" fill="darkgreen" font-weight="bold" font-size="327.880000">222</text>
<text x="12807.507958" y="2352.354600" transform="rotate(-160.566125 12807.507958 2352.354600)" fill="darkgreen" font-weight="bold" font-size="327.880000">227</text>
<text x="1453.342400" y="9741.503524" transform="rotate(-168.607056 1453.342400 9741.503524)" fill="darkgreen" font-weight="bold" font-size="327.880000">227</text>
<text x="18226.129117" y="2754.563576" transform="rotate(-160.619139 18226.129117 2754.563576)" fill="darkgreen" font-weight="bold" font-size="327.880000">241</text>
<text x="812.861161" y="12685.172346" transform="rotate(41.189155 812.861161 12685.172346)" fill="darkgreen" font-weight="bold" font-size="327.880000">241</text>
<text x="1130.531829" y="11641.798592" transform="rotate(141.563419 1130.531829 11641.798592)" fill="darkgreen" font-weight="bold" font-size="327.880000">242</text>
<text x="16337.981828" y="971.560373" transform="rotate(-106.038148 16337.981828 971.560373)" fill="darkgreen" font-weight="bold" font-size="327.880000">242</text>
<text x="15614.354063" y="567.770334" transform="rotate(128.046723 15614.354063 567.770334)" fill="darkgreen" font-weight="bold" font-size="327.880000">243</text>
<text x="933.990336" y="10375.187660" transform="rotate(52.385272 933.990336 10375.187660)" fill="darkgreen" font-weight="bold" font-size="327.880000">243</text>
<text x="16056.598055" y="2438.435866" transform="rotate(-62.640629 16056.598055 2438.435866)" fill="darkgreen" font-weight="bold" font-size="327.880000">246</text>
<text x="16707.446838" y="2620.217460" transform="rotate(159.635912 16707.446838 2620.217460)" fill="darkgreen" font-weight="bold" font-size="327.880000">246</text>
<text x="12996.274473" y="7484.514185" transform="rotate(125.141736 12996.274473 7484.514185)" fill="darkgreen" font-weight="bold" font-size="327.880000">248</text>
<text x="12607.818668" y="7666.565338" transform="rotate(-43.594188 12607.818668 7666.565338)" fill="darkgreen" font-weight="bold" font-size="327.880000">248</text>
<text x="11760.171404" y="11441.528666" transform="rotate(-26.197515 11760.171404 11441.528666)" fill="darkgreen" font-weight="bold" font-size="327.880000">251</text>
<text x="12454.286661" y="8772.567205" transform="rotate(77.874643 12454.286661 8772.567205)" fill="darkgreen" font-weight="bold" font-size="327.880000">251</text>
<text x="14062.329675" y="8187.724642" transform="rotate(84.650833 14062.329675 8187.724642)" fill="darkgreen" font-weight="bold" font-size="327.880000">253</text>
<text x="13863.283411" y="8570.388244" transform="rotate(-80.239552 13863.283411 8570.388244)" fill="darkgreen" font-weight="bold" font-size="327.880000">253</text>
<text x="7888.590666" y="13717.702023" transform="rotate(25.980918 7888.590666 13717.702023)" fill="darkgreen" font-weight="bold" font-size="327.880000">257</text>
<text x="17014.534993" y="10502.865632" transform="rotate(20.867927 17014.534993 10502.865632)" fill="darkgreen" font-weight="bold" font-size="327.880000">257</text>
<text x="7130.022740" y="14410.135506" transform="rotate(-84.966695 7130.022740 14410.135506)" fill="darkgreen" font-weight="bold" font-size="327.880000">258</text>
<text x="17709.599149" y="10371.964860" transform="rotate(-115.871221 17709.599149 10371.964860)" fill="darkgreen" font-weight="bold" font-size="327.880000">258</text>
<text x="15773.080284" y="11313.139871" transform="rotate(-84.852479 15773.080284 11313.139871)" fill="darkgreen" font-weight="bold" font-size="327.880000">259</text>
<text x="8675.501142" y="13766.144320" transform="rotate(-105.609652 8675.501142 13766.144320)" fill="darkgreen" font-weight="bold" font-size="327.880000">259</text>
<text x="15082.214041" y="10963.279147" transform="rotate(48.914759 15082.214041 10963.279147)" fill="darkgreen" font-weight="bold" font-size="327.880000">261</text>
<text x="9233.100209" y="12876.921029" transform="rotate(1.351524 9233.100209 12876.921029)" fill="darkgreen" font-weight="bold" font-size="327.880000">261</text>
<text x="9731.966251" y="12399.215068" transform="rotate(-134.766556 9731.966251 12399.215068)" fill="darkgreen" font-weight="bold" font-size="327.880000">262</text>
<text x="12918.405601" y="11452.016507" transform="rotate(-52.321184 12918.405601 11452.016507)" fill="darkgreen" font-weight="bold" font-size="327.880000">262</text>
<text x="8223.716883" y="12646.110935" transform="rotate(-123.920252 8223.716883 12646.110935)" fill="darkgreen" font-weight="bold" font-size="327.880000">264</text>
<text x="8062.004327" y="12272.882982" transform="rotate(46.057501 8062.004327 12272.882982)" fill="darkgreen" font-weight="bold" font-size="327.880000">264</text>
<text x="7139.176701" y="12985.755862" transform="rotate(-98.361522 7139.176701 12985.755862)" fill="darkgreen" font-weight="bold" font-size="327.880000">266</text>
<text x="7130.446214" y="12586.887041" transform="rotate(75.973314 7130.446214 12586.887041)" fill="darkgreen" font-weight="bold" font-size="327.880000">266</text>
<text x="11013.139418" y="5182.183011" transform="rotate(-154.947813 11013.139418 5182.183011)" fill="darkgreen" font-weight="bold" font-size="327.880000">269</text>
<text x="10801.672503" y="4642.928567" transform="rotate(39.647232 10801.672503 4642.928567)" fill="darkgreen" font-weight="bold" font-size="327.880000">269</text>
<text x="9129.098909" y="5732.419037" transform="rotate(10.795634 9129.098909 5732.419037)" fill="darkgreen" font-weight="bold" font-size="327.880000">275</text>
<text x="9511.264477" y="5867.375852" transform="rotate(177.284668 9511.264477 5867.375852)" fill="darkgreen" font-weight="bold" font-size="327.880000">275</text>
<text x="5029.511238" y="5584.887281" transform="rotate(-150.242730 5029.511238 5584.887281)" fill="darkgreen" font-weight="bold" font-size="327.880000">276</text>
<text x="9743.179229" y="5159.225736" transform="rotate(148.939458 9743.179229 5159.225736)" fill="darkgreen" font-weight="bold" font-size="327.880000">276</text>
<text x="4058.193236" y="5481.793488" transform="rotate(102.522064 4058.193236 5481.793488)" fill="darkgreen" font-weight="bold" font-size="327.880000">277</text>
<text x="10241.841688" y="3606.373052" transform="rotate(72.882334 10241.841688 3606.373052)" fill="darkgreen" font-weight="bold" font-size="327.880000">277</text>
<text x="10909.498328" y="3318.708886" transform="rotate(-172.403637 10909.498328 3318.708886)" fill="darkgreen" font-weight="bold" font-size="327.880000">281</text>
<text x="3491.994474" y="6176.294958" transform="rotate(-166.941785 3491.994474 6176.294958)" fill="darkgreen" font-weight="bold" font-size="327.880000">281</text>
<text x="11567.440813" y="3628.273346" transform="rotate(74.778184 11567.440813 3628.273346)" fill="darkgreen" font-weight="bold" font-size="327.880000">282</text>
<text x="11616.689681" y="4027.821460" transform="rotate(-115.191820 11616.689681 4027.821460)" fill="darkgreen" font-weight="bold" font-size="327.880000">282</text>
<text x="7523.102019" y="10237.315092" transform="rotate(166.632273 7523.102019 10237.315092)" fill="darkgreen" font-weight="bold" font-size="327.880000">287</text>
<text x="7112.413118" y="10242.718643" transform="rotate(-22.743513 7112.413118 10242.718643)" fill="darkgreen" font-weight="bold" font-size="327.880000">287</text>
<text x="5292.919082" y="9381.617189" transform="rotate(-102.069788 5292.919082 9381.617189)" fill="darkgreen" font-weight="bold" font-size="327.880000">290</text>
<text x="5490.947586" y="8987.734021" transform="rotate(98.340639 5490.947586 8987.734021)" fill="darkgreen" font-weight="bold" font-size="327.880000">290</text>
<text x="7141.992222" y="8825.290726" transform="rotate(-52.025617 7141.992222 8825.290726)" fill="darkgreen" font-weight="bold" font-size="327.880000">293</text>
<text x="7559.320877" y="8700.679510" transform="rotate(145.300391 7559.320877 8700.679510)" fill="darkgreen" font-weight="bold" font-size="327.880000">293</text>
<text x="6095.623792" y="8103.252165" transform="rotate(138.102811 6095.623792 8103.252165)" fill="darkgreen" font-weight="bold" font-size="327.880000">295</text>
<text x="5235.853399" y="8283.997962" transform="rotate(-71.478860 5235.853399 8283.997962)" fill="darkgreen" font-weight="bold" font-size="327.880000">295</text>
</svg>
