<?xml version="1.0"?>
<svg width="18820" height="16394" version="1.1" xmlns="http://www.w3.org/2000/svg" >
<defs>
<style type="text/css"><![CDATA[
.m {stroke:rgb(255,0,0);stroke-width:23.525000;}
.v {stroke:rgb(0,0,255);stroke-width:23.525000;}
.b {stroke:rgb(0,0,0);stroke-width:47.050000;fill:white}
.n {stroke:rgb(128,128,128);stroke-width:23.525000}
.t {stroke:rgb(0,128,0);stroke-width:23.525000;}
.c {stroke:rgb(128,128,128);stroke-width:23.525000;stroke-dasharray:188.200000, 188.200000;}
]]></style>
</defs>
<path fill="none" style="stroke:black;stroke-width:47.050000;" d=" M 18219.5 6772.08 L 16777.4 6752.39 M 17076.9 7560.33 L 18690 7350.58 M 18690 7350.58 L 18219.5 6772.08 M 15683.3 6968.38 L 17076.9 7560.33 M 14779.3 6648.19 L 15683.3 6968.38 M 15394.7 6038.06 L 13993.7 5795.91 M 13993.7 5795.91 L 15415.5 5787.72 M 13503.7 4775.14 L 13401.4 3532.12 M 13657.2 3537.42 L 13503.7 4775.14 M 12268.9 2397.27 L 12555.6 3556.67 M 13401.4 3532.12 L 13038.4 1952.56 M 13038.4 1952.56 L 12614.6 1124.45 M 12614.6 1124.45 L 12268.9 2397.27 M 2512.51 8495.59 L 1596.31 8334.31 M 2475.25 9577.52 L 3341.46 9795.17 M 2440.16 9900.97 L 2827.04 10375.6 M 3332.21 9857.1 L 2440.16 9900.97 M 2827.04 10375.6 L 3623.35 11080.6 M 3456.82 12097.8 L 4349.88 11945.9 M 4045.67 11465 L 3295.4 11972.7 M 3922.2 12831.8 L 4045.67 11465 M 4349.88 11945.9 L 4005.24 13274.2 M 3927.09 14928.1 L 4649.98 14745.3 M 4649.98 14745.3 L 4706.49 13509.8 M 6091.19 16394.7 L 6879.46 15031 M 5599.08 14844.3 L 6091.19 16394.7 M 15001.5 8087.97 L 15636 8380.04 M 16805.9 8037.44 L 15639.7 7071.83 M 12555.6 3556.67 L 12452.1 4462.15 M 3274.09 8249.2 L 1897.17 7329 M 1897.17 7329 L 2512.51 8495.59 M 4706.49 13509.8 L 5353.92 12354.1 M 5142.92 13694.7 L 5599.08 14844.3 M 15639.7 7071.83 L 14779.3 6648.19 M 12529.3 3554.04 L 12028.7 2469.71 M 12028.7 2469.71 L 11074.7 1115.97 M 4341.43 8558.4 L 3274.09 8249.2 M 3341.46 9795.17 L 4805.71 10045.4 M 4805.71 10045.4 L 3332.21 9857.1 M 5496.68 12418.2 L 5142.92 13694.7 M 17302.4 9532.28 L 16805.9 8037.44 M 15636 8380.04 L 16066.3 9309.91 M 11427.7 5161.66 L 12857.2 5512.32 M 12452.1 4462.15 L 12529.3 3554.04 M 10791.3 2600.99 L 11480.4 3308.46 M 10221.1 1865.24 L 10791.3 2600.99 M 5353.92 12354.1 L 5943.76 11230.2 M 6194.2 14034.8 L 6375.25 12977.3 M 6879.46 15031 L 6194.2 14034.8 M 16066.3 9309.91 L 16451.6 10288.3 M 12857.2 5512.32 L 11393.2 5359.83 M 11074.7 1115.97 L 10083.4 613.748 M 10083.4 613.748 L 10221.1 1865.24 M 15796.1 9469.85 L 15588.6 8466.46 M 10947.2 6575.91 L 12262 6720.05 M 3500.76 6597.43 L 4078.69 7327.08 M 4078.69 7327.08 L 4341.43 8558.4 M 5943.76 11230.2 L 5496.68 12418.2 M 14146 9080.95 L 14686 10508.9 M 15844.5 10520.2 L 15796.1 9469.85 M 12262 6720.05 L 10939.3 6722.36 M 5469.27 7587.26 L 4775.21 6516.14 M 11236.4 8284.96 L 12103.5 8146.7 M 4775.21 6516.14 L 5505.37 7562.98 M 5505.37 7562.98 L 5570.13 5893.97 M 12622.2 9554.17 L 12687 11026.5 M 10939.3 6722.36 L 10138.9 7636.11 M 7663.28 8157.46 L 7426.85 6598.77 M 7426.85 6598.77 L 6349.7 7875.3 M 8085.22 10136.6 L 7186.78 11004.8 M 9938.13 11837 L 11395.9 11620.8 M 11784.7 10549.1 L 10667 10710 M 10529.3 9165.35 L 11236.4 8284.96 M 9013.93 7487.18 L 9929.16 7238.65 M 10667 10710 L 9559.83 10402.2 M 7657.24 6920.53 L 9013.93 7487.18 M 8857.51 5898.38 L 7657.24 6920.53 M 9559.83 10402.2 L 8085.22 10136.6 M 8957.75 11618.7 L 9938.13 11837 M 9442.67 9539.35 L 10529.3 9165.35 M 10138.9 7636.11 L 9384.22 8210.46 M 9384.22 8210.46 L 7932.36 8442.38 M 7983.04 9877.75 L 9442.67 9539.35 M 2423.5 15471 L 3698.9 13861.4 M 3135.58 14420.6 L 2423.5 15471 M 18532.7 5951.77 L 16543.8 6463.5 M 16777.4 6752.39 L 18532.7 5951.77 M 3861.68 14317.9 L 3034.31 16060.8 M 3034.31 16060.8 L 3927.09 14928.1 M 16543.8 6463.5 L 15394.7 6038.06 M 15697.7 5415.11 L 15316.6 5685.8 M 15316.6 5685.8 L 16507.3 5975.15 M 15415.5 5787.72 L 15697.7 5415.11 M 14695.3 4700.87 L 14260.5 4796.08 M 1596.31 8334.31 L 0 8054.07 M 0 8054.07 L 812.604 8492.96 M 812.604 8492.96 L 2475.25 9577.52 M 2777.13 9880.22 L 2164.86 9884.88 M 2282.63 10182.7 L 2777.13 9880.22 M 2885.41 11389.5 L 3456.82 12097.8 M 3623.35 11080.6 L 2665.81 10617.7 M 3369.5 12160.1 L 2885.41 11389.5 M 3065.51 12171.9 L 3369.5 12160.1 M 3698.9 13861.4 L 3922.2 12831.8 M 3295.4 11972.7 L 3065.51 12171.9 M 4005.24 13274.2 L 3861.68 14317.9 M 16507.3 5975.15 L 17738.6 6282.26 M 17738.6 6282.26 L 17224.1 5451.87 M 14364.1 4998.31 L 14695.3 4700.87 M 13913.8 4013.45 L 14364.1 4998.31 M 14260.5 4796.08 L 14144.1 3719.4 M 14144.1 3719.4 L 14117.7 2736.83 M 14117.7 2736.83 L 13657.2 3537.42 M 3435.39 13517 L 3135.58 14420.6 M 17224.1 5451.87 L 16609.9 4470.54 M 15691.8 3826.35 L 14464.9 3010.14 M 14464.9 3010.14 L 14896.2 3658.3 M 14705.7 2731.32 L 15691.8 3826.35 M 1872.93 13552.7 L 1480.85 15327.1 M 1480.85 15327.1 L 2542.54 14323.8 M 17508.2 5200.79 L 18537.3 4971.67 M 18537.3 4971.67 L 17383.5 4075.89 M 14272 1819.66 L 14705.7 2731.32 M 14927.5 1445.39 L 14178.1 511.499 M 14178.1 511.499 L 14272 1819.66 M 2208.72 11364.7 L 1655.67 10094.3 M 2342.23 12536 L 1872.93 13552.7 M 2542.54 14323.8 L 2593.9 13339.5 M 14378.5 3076.81 L 13492 2593.85 M 13188.5 3349.99 L 13913.8 4013.45 M 2164.86 9884.88 L 356.124 9520.41 M 356.124 9520.41 L 1489.43 10180.5 M 13492 2593.85 L 11752 1979.95 M 11752 1979.95 L 13188.5 3349.99 M 1489.43 10180.5 L 2208.72 11364.7 M 2665.81 10617.7 L 2282.63 10182.7 M 2593.9 13339.5 L 2683.5 14321.1 M 3698.64 14431.9 L 3435.39 13517 M 2683.5 14321.1 L 3172.61 15255 M 3172.61 15255 L 3698.64 14431.9 M 16609.9 4470.54 L 17508.2 5200.79 M 14896.2 3658.3 L 14378.5 3076.81 M 1583.12 13359.2 L 2342.23 12536 M 1614.18 11258 L 338.692 12270.2 M 338.692 12270.2 L 1583.12 13359.2 M 493.947 9804.08 L 1614.18 11258 M 1655.67 10094.3 L 493.947 9804.08 M 16058.7 0 L 14927.5 1445.39 M 16508.6 1564.98 L 16058.7 0 M 17383.5 4075.89 L 18820.5 2963.66 M 18820.5 2963.66 L 17260.6 2414.9 M 17260.6 2414.9 L 15785.4 2962.45 M 15785.4 2962.45 L 16508.6 1564.98 M 13397.1 6915.13 L 12369 8375.64 M 12369 8375.64 L 12622.2 9554.17 M 13777.9 9066.78 L 14015.4 7686.24 M 12103.5 8146.7 L 13397.1 6915.13 M 13590.4 10581.9 L 13777.9 9066.78 M 15588.6 8466.46 L 15001.5 8087.97 M 14015.4 7686.24 L 14146 9080.95 M 11395.9 11620.8 L 12477.5 11088.6 M 12477.5 11088.6 L 11784.7 10549.1 M 16451.6 10288.3 L 17945.1 10857.6 M 17945.1 10857.6 L 17302.4 9532.28 M 7347.02 13453.8 L 8783.86 14154 M 8783.86 14154 L 8461.27 12999.4 M 14686 10508.9 L 15737 11714.2 M 15737 11714.2 L 15844.5 10520.2 M 12486.9 12010.7 L 13590.4 10581.9 M 12687 11026.5 L 12486.9 12010.7 M 8630.44 12862.7 L 10229.1 12900.4 M 10229.1 12900.4 L 8957.75 11618.7 M 7766.6 11966.4 L 8630.44 12862.7 M 8461.27 12999.4 L 7766.6 11966.4 M 7009.24 12101.7 L 7347.02 13453.8 M 7211.9 13480.5 L 7009.24 12101.7 M 6375.25 12977.3 L 6277.49 14045.7 M 7082.67 14947.8 L 7211.9 13480.5 M 6277.49 14045.7 L 7082.67 14947.8 M 11393.2 5359.83 L 10276.6 4837.93 M 10478.6 4375.24 L 11427.7 5161.66 M 9929.16 7238.65 L 10947.2 6575.91 M 9772.01 5855.01 L 8857.51 5898.38 M 8872.68 5683.53 L 9772.01 5855.01 M 10276.6 4837.93 L 8872.68 5683.53 M 5570.13 5893.97 L 4147.32 5080.52 M 4147.32 5080.52 L 3883.76 6267.16 M 10120.9 3213.53 L 10478.6 4375.24 M 11308.1 3371.87 L 10120.9 3213.53 M 11757.8 4327.74 L 11308.1 3371.87 M 11480.4 3308.46 L 11757.8 4327.74 M 3883.76 6267.16 L 2716.94 5996.53 M 2716.94 5996.53 L 3500.76 6597.43 M 6604.65 10455.6 L 7983.04 9877.75 M 5548.68 8593.95 L 5376.14 9770.81 M 7932.36 8442.38 L 6862.81 9182.96 M 6862.81 9182.96 L 7663.28 8157.46 M 6349.7 7875.3 L 5548.68 8593.95 M 5127.42 8607.66 L 5469.27 7587.26 M 5376.14 9770.81 L 5127.42 8607.66 M 8058.76 10110 L 6604.65 10455.6 M 7186.78 11004.8 L 8058.76 10110" />
<path fill="none" class="c" d=" M 16777.4 6752.39 L 17076.9 7560.33 M 17076.9 7560.33 L 18219.5 6772.08 M 16777.4 6752.39 L 15683.3 6968.38 M 15394.7 6038.06 L 15683.3 6968.38 M 15394.7 6038.06 L 14779.3 6648.19 M 13993.7 5795.91 L 14779.3 6648.19 M 13993.7 5795.91 L 13397.1 6915.13 M 12857.2 5512.32 L 13397.1 6915.13 M 13397.1 6915.13 L 14779.3 6648.19 M 14015.4 7686.24 L 14779.3 6648.19 M 13993.7 5795.91 L 12857.2 5512.32 M 13503.7 4775.14 L 12857.2 5512.32 M 13993.7 5795.91 L 13503.7 4775.14 M 14260.5 4796.08 L 13503.7 4775.14 M 12857.2 5512.32 L 12262 6720.05 M 13397.1 6915.13 L 14015.4 7686.24 M 11393.2 5359.83 L 12262 6720.05 M 11393.2 5359.83 L 10947.2 6575.91 M 10276.6 4837.93 L 10947.2 6575.91 M 12262 6720.05 L 13397.1 6915.13 M 13993.7 5795.91 L 14260.5 4796.08 M 15415.5 5787.72 L 14260.5 4796.08 M 15415.5 5787.72 L 14695.3 4700.87 M 15697.7 5415.11 L 14695.3 4700.87 M 15691.8 3826.35 L 14695.3 4700.87 M 14896.2 3658.3 L 14695.3 4700.87 M 15691.8 3826.35 L 14896.2 3658.3 M 15697.7 5415.11 L 15691.8 3826.35 M 15697.7 5415.11 L 16609.9 4470.54 M 16609.9 4470.54 L 15691.8 3826.35 M 16609.9 4470.54 L 15785.4 2962.45 M 15785.4 2962.45 L 15691.8 3826.35 M 15785.4 2962.45 L 14705.7 2731.32 M 17383.5 4075.89 L 15785.4 2962.45 M 10276.6 4837.93 L 9772.01 5855.01 M 13503.7 4775.14 L 12452.1 4462.15 M 12369 8375.64 L 14015.4 7686.24 M 12369 8375.64 L 13777.9 9066.78 M 13913.8 4013.45 L 14695.3 4700.87 M 14896.2 3658.3 L 13913.8 4013.45 M 14378.5 3076.81 L 13913.8 4013.45 M 12262 6720.05 L 12103.5 8146.7 M 10939.3 6722.36 L 12103.5 8146.7 M 10939.3 6722.36 L 11236.4 8284.96 M 10138.9 7636.11 L 11236.4 8284.96 M 10138.9 7636.11 L 10529.3 9165.35 M 9384.22 8210.46 L 10529.3 9165.35 M 12452.1 4462.15 L 12857.2 5512.32 M 12452.1 4462.15 L 11427.7 5161.66 M 11757.8 4327.74 L 11427.7 5161.66 M 15001.5 8087.97 L 14779.3 6648.19 M 15001.5 8087.97 L 15639.7 7071.83 M 12452.1 4462.15 L 11757.8 4327.74 M 12529.3 3554.04 L 11757.8 4327.74 M 14260.5 4796.08 L 13657.2 3537.42 M 14144.1 3719.4 L 13657.2 3537.42 M 17383.5 4075.89 L 17260.6 2414.9 M 9384.22 8210.46 L 9442.67 9539.35 M 7932.36 8442.38 L 9442.67 9539.35 M 7932.36 8442.38 L 7983.04 9877.75 M 6862.81 9182.96 L 7983.04 9877.75 M 6862.81 9182.96 L 6604.65 10455.6 M 5376.14 9770.81 L 6604.65 10455.6 M 5943.76 11230.2 L 6604.65 10455.6 M 5376.14 9770.81 L 5943.76 11230.2 M 4805.71 10045.4 L 5943.76 11230.2 M 4805.71 10045.4 L 4349.88 11945.9 M 5943.76 11230.2 L 7186.78 11004.8 M 7009.24 12101.7 L 7186.78 11004.8 M 6862.81 9182.96 L 5376.14 9770.81 M 6862.81 9182.96 L 5548.68 8593.95 M 3623.35 11080.6 L 4349.88 11945.9 M 5943.76 11230.2 L 7009.24 12101.7 M 5496.68 12418.2 L 7009.24 12101.7 M 5496.68 12418.2 L 6375.25 12977.3 M 6375.25 12977.3 L 7009.24 12101.7 M 7186.78 11004.8 L 6604.65 10455.6 M 7009.24 12101.7 L 7766.6 11966.4 M 4349.88 11945.9 L 5943.76 11230.2 M 4349.88 11945.9 L 5353.92 12354.1 M 7347.02 13453.8 L 7766.6 11966.4 M 7347.02 13453.8 L 8461.27 12999.4 M 7766.6 11966.4 L 7186.78 11004.8 M 7766.6 11966.4 L 8085.22 10136.6 M 5376.14 9770.81 L 4805.71 10045.4 M 5127.42 8607.66 L 4805.71 10045.4 M 4805.71 10045.4 L 3623.35 11080.6 M 3332.21 9857.1 L 3623.35 11080.6 M 5142.92 13694.7 L 6375.25 12977.3 M 5142.92 13694.7 L 6194.2 14034.8 M 3623.35 11080.6 L 3456.82 12097.8 M 2665.81 10617.7 L 3456.82 12097.8 M 2665.81 10617.7 L 2885.41 11389.5 M 2665.81 10617.7 L 2208.72 11364.7 M 2208.72 11364.7 L 2885.41 11389.5 M 3065.51 12171.9 L 2885.41 11389.5 M 2208.72 11364.7 L 3065.51 12171.9 M 2208.72 11364.7 L 2342.23 12536 M 1614.18 11258 L 2342.23 12536 M 1614.18 11258 L 1583.12 13359.2 M 2342.23 12536 L 3065.51 12171.9 M 2282.63 10182.7 L 2208.72 11364.7 M 8957.75 11618.7 L 8085.22 10136.6 M 8957.75 11618.7 L 9559.83 10402.2 M 9938.13 11837 L 9559.83 10402.2 M 6375.25 12977.3 L 7211.9 13480.5 M 6277.49 14045.7 L 7211.9 13480.5 M 9938.13 11837 L 10667 10710 M 4349.88 11945.9 L 4706.49 13509.8 M 4005.24 13274.2 L 4706.49 13509.8 M 4005.24 13274.2 L 4649.98 14745.3 M 2342.23 12536 L 2593.9 13339.5 M 1872.93 13552.7 L 2593.9 13339.5 M 1872.93 13552.7 L 2542.54 14323.8 M 2593.9 13339.5 L 3065.51 12171.9 M 2593.9 13339.5 L 3435.39 13517 M 12622.2 9554.17 L 13777.9 9066.78 M 15636 8380.04 L 15639.7 7071.83 M 15636 8380.04 L 16805.9 8037.44 M 16066.3 9309.91 L 16805.9 8037.44 M 14015.4 7686.24 L 15001.5 8087.97 M 14146 9080.95 L 15001.5 8087.97 M 14146 9080.95 L 15588.6 8466.46 M 3435.39 13517 L 3065.51 12171.9 M 3435.39 13517 L 3698.9 13861.4 M 3698.9 13861.4 L 3065.51 12171.9 M 5127.42 8607.66 L 4341.43 8558.4 M 5469.27 7587.26 L 4341.43 8558.4 M 4341.43 8558.4 L 4805.71 10045.4 M 4341.43 8558.4 L 3341.46 9795.17 M 3274.09 8249.2 L 3341.46 9795.17 M 3332.21 9857.1 L 2827.04 10375.6 M 14146 9080.95 L 15796.1 9469.85 M 14686 10508.9 L 15796.1 9469.85 M 14686 10508.9 L 15844.5 10520.2 M 15697.7 5415.11 L 17224.1 5451.87 M 16507.3 5975.15 L 17224.1 5451.87 M 15697.7 5415.11 L 16507.3 5975.15 M 2282.63 10182.7 L 1489.43 10180.5 M 2282.63 10182.7 L 2164.86 9884.88 M 12622.2 9554.17 L 13590.4 10581.9 M 3698.9 13861.4 L 3295.4 11972.7 M 3922.2 12831.8 L 3295.4 11972.7 M 2208.72 11364.7 L 1614.18 11258 M 1655.67 10094.3 L 1614.18 11258 M 13503.7 4775.14 L 12555.6 3556.67 M 13401.4 3532.12 L 12555.6 3556.67 M 12687 11026.5 L 13590.4 10581.9 M 3274.09 8249.2 L 2512.51 8495.59 M 5469.27 7587.26 L 4078.69 7327.08 M 4775.21 6516.14 L 4078.69 7327.08 M 4775.21 6516.14 L 3500.76 6597.43 M 3883.76 6267.16 L 3500.76 6597.43 M 16609.9 4470.54 L 17383.5 4075.89 M 17508.2 5200.79 L 17383.5 4075.89 M 12529.3 3554.04 L 11480.4 3308.46 M 12028.7 2469.71 L 11480.4 3308.46 M 12028.7 2469.71 L 10791.3 2600.99 M 4775.21 6516.14 L 3883.76 6267.16 M 4775.21 6516.14 L 5570.13 5893.97 M 5570.13 5893.97 L 3883.76 6267.16 M 6862.81 9182.96 L 6349.7 7875.3 M 7663.28 8157.46 L 6349.7 7875.3 M 11757.8 4327.74 L 10478.6 4375.24 M 11308.1 3371.87 L 10478.6 4375.24 M 7766.6 11966.4 L 8957.75 11618.7 M 8630.44 12862.7 L 8957.75 11618.7 M 14378.5 3076.81 L 13188.5 3349.99 M 13492 2593.85 L 13188.5 3349.99 M 2683.5 14321.1 L 3435.39 13517 M 2683.5 14321.1 L 3698.64 14431.9 M 16777.4 6752.39 L 15394.7 6038.06 M 16777.4 6752.39 L 16543.8 6463.5 M 11395.9 11620.8 L 10667 10710 M 11395.9 11620.8 L 11784.7 10549.1 M 9772.01 5855.01 L 10947.2 6575.91 M 9772.01 5855.01 L 9929.16 7238.65 M 8857.51 5898.38 L 9929.16 7238.65 M 8857.51 5898.38 L 9013.93 7487.18 M 11074.7 1115.97 L 10791.3 2600.99 M 11074.7 1115.97 L 10221.1 1865.24 M 15785.4 2962.45 L 14927.5 1445.39 M 16508.6 1564.98 L 14927.5 1445.39 M 2164.86 9884.88 L 1489.43 10180.5 M 5599.08 14844.3 L 6194.2 14034.8 M 5599.08 14844.3 L 6879.46 15031 M 14927.5 1445.39 L 14705.7 2731.32 M 14927.5 1445.39 L 14272 1819.66 M 13038.4 1952.56 L 12555.6 3556.67 M 13038.4 1952.56 L 12268.9 2397.27 M 16066.3 9309.91 L 17302.4 9532.28 M 16451.6 10288.3 L 17302.4 9532.28 M 4005.24 13274.2 L 3927.09 14928.1 M 3861.68 14317.9 L 3927.09 14928.1 M 2512.51 8495.59 L 3341.46 9795.17 M 2512.51 8495.59 L 2475.25 9577.52 M 1596.31 8334.31 L 2475.25 9577.52 M 1596.31 8334.31 L 812.604 8492.96 M 3135.58 14420.6 L 3698.9 13861.4" />
<line x1="16512.553490" y1="7093.702240" x2="17357.952270" y2="7028.267901" class="t" />
<line x1="17995.476469" y1="7227.665087" x2="17357.952270" y2="7028.267901" class="t" />
<line x1="15951.837429" y1="6586.276709" x2="16512.553490" y2="7093.702240" class="t" />
<line x1="15285.805375" y1="6551.542962" x2="15951.837429" y2="6586.276709" class="t" />
<line x1="14722.591754" y1="6160.717689" x2="15285.805375" y2="6551.542962" class="t" />
<line x1="14056.700133" y1="6453.075197" x2="14722.591754" y2="6160.717689" class="t" />
<line x1="13415.977021" y1="6074.452839" x2="14056.700133" y2="6453.075197" class="t" />
<line x1="12838.753820" y1="6382.500076" x2="13415.977021" y2="6074.452839" class="t" />
<line x1="14063.922374" y1="7083.185045" x2="14056.700133" y2="6453.075197" class="t" />
<line x1="14598.737326" y1="7474.133976" x2="14063.922374" y2="7083.185045" class="t" />
<line x1="13451.506915" y1="5361.124991" x2="13415.977021" y2="6074.452839" class="t" />
<line x1="12937.634571" y1="4916.538014" x2="13451.506915" y2="5361.124991" class="t" />
<line x1="13919.283490" y1="5122.376072" x2="13451.506915" y2="5361.124991" class="t" />
<line x1="13807.120924" y1="4369.545047" x2="13919.283490" y2="5122.376072" class="t" />
<line x1="12170.800496" y1="5864.068218" x2="12838.753820" y2="6382.500076" class="t" />
<line x1="13260.483115" y1="7659.002450" x2="14063.922374" y2="7083.185045" class="t" />
<line x1="11534.149214" y1="6218.597274" x2="12170.800496" y2="5864.068218" class="t" />
<line x1="10872.347394" y1="5591.222962" x2="11534.149214" y2="6218.597274" class="t" />
<line x1="10331.947936" y1="5756.282026" x2="10872.347394" y2="5591.222962" class="t" />
<line x1="12587.544137" y1="7260.624921" x2="12838.753820" y2="6382.500076" class="t" />
<line x1="14556.561266" y1="5459.901505" x2="13919.283490" y2="5122.376072" class="t" />
<line x1="14790.430522" y1="5094.889715" x2="14556.561266" y2="5459.901505" class="t" />
<line x1="15269.485058" y1="5301.233786" x2="14790.430522" y2="5094.889715" class="t" />
<line x1="15361.587435" y1="4647.443318" x2="15269.485058" y2="5301.233786" class="t" />
<line x1="15094.440678" y1="4061.841556" x2="15361.587435" y2="4647.443318" class="t" />
<line x1="14501.769838" y1="4124.207937" x2="15094.440678" y2="4061.841556" class="t" />
<line x1="15017.627858" y1="3498.262972" x2="15094.440678" y2="4061.841556" class="t" />
<line x1="15999.783396" y1="4570.666558" x2="15361.587435" y2="4647.443318" class="t" />
<line x1="16510.547783" y1="5112.507708" x2="15999.783396" y2="4570.666558" class="t" />
<line x1="16029.048708" y1="3753.113469" x2="15999.783396" y2="4570.666558" class="t" />
<line x1="16592.942700" y1="3836.292832" x2="16029.048708" y2="3753.113469" class="t" />
<line x1="15394.303455" y1="3173.373471" x2="16029.048708" y2="3753.113469" class="t" />
<line x1="15139.547660" y1="2379.720533" x2="15394.303455" y2="3173.373471" class="t" />
<line x1="16809.835490" y1="3151.079639" x2="16592.942700" y2="3836.292832" class="t" />
<line x1="9640.440862" y1="5458.820713" x2="10331.947936" y2="5756.282026" class="t" />
<line x1="12837.122087" y1="4264.653219" x2="12937.634571" y2="4916.538014" class="t" />
<line x1="13387.426161" y1="8376.219014" x2="13260.483115" y2="7659.002450" class="t" />
<line x1="12923.038058" y1="8998.863426" x2="13387.426161" y2="8376.219014" class="t" />
<line x1="14324.415082" y1="4570.875612" x2="14501.769838" y2="4124.207937" class="t" />
<line x1="14396.161787" y1="3582.853625" x2="14501.769838" y2="4124.207937" class="t" />
<line x1="13826.939541" y1="3480.083716" x2="14396.161787" y2="3582.853625" class="t" />
<line x1="11768.298457" y1="7196.368244" x2="12587.544137" y2="7260.624921" class="t" />
<line x1="11426.412465" y1="7718.003588" x2="11768.298457" y2="7196.368244" class="t" />
<line x1="10771.533718" y1="7547.808570" x2="11426.412465" y2="7718.003588" class="t" />
<line x1="10634.842546" y1="8362.139575" x2="10771.533718" y2="7547.808570" class="t" />
<line x1="10017.456268" y1="8337.308381" x2="10634.842546" y2="8362.139575" class="t" />
<line x1="9785.381066" y1="8971.719612" x2="10017.456268" y2="8337.308381" class="t" />
<line x1="12245.637935" y1="5045.378159" x2="12937.634571" y2="4916.538014" class="t" />
<line x1="11879.174217" y1="4650.516284" x2="12245.637935" y2="5045.378159" class="t" />
<line x1="11221.355968" y1="4621.547235" x2="11879.174217" y2="4650.516284" class="t" />
<line x1="15140.191805" y1="7269.331875" x2="14598.737326" y2="7474.133976" class="t" />
<line x1="15425.747950" y1="7846.615739" x2="15140.191805" y2="7269.331875" class="t" />
<line x1="12246.381187" y1="4114.642467" x2="11879.174217" y2="4650.516284" class="t" />
<line x1="11922.490854" y1="3730.080796" x2="12246.381187" y2="4114.642467" class="t" />
<line x1="14020.607667" y1="4017.630576" x2="13807.120924" y2="4369.545047" class="t" />
<line x1="13973.002221" y1="3331.215365" x2="14020.607667" y2="4017.630576" class="t" />
<line x1="17821.525297" y1="3151.482618" x2="16809.835490" y2="3151.079639" class="t" />
<line x1="8919.748079" y1="8730.729737" x2="9785.381066" y2="8971.719612" class="t" />
<line x1="8452.688569" y1="9286.491987" x2="8919.748079" y2="8730.729737" class="t" />
<line x1="7592.735050" y1="9167.697519" x2="8452.688569" y2="9286.491987" class="t" />
<line x1="7150.165121" y1="9838.762148" x2="7592.735050" y2="9167.697519" class="t" />
<line x1="6281.198014" y1="9803.117153" x2="7150.165121" y2="9838.762148" class="t" />
<line x1="5974.847673" y1="10485.524625" x2="6281.198014" y2="9803.117153" class="t" />
<line x1="6578.394512" y1="10896.858677" x2="5974.847673" y2="10485.524625" class="t" />
<line x1="5375.203714" y1="10348.808768" x2="5974.847673" y2="10485.524625" class="t" />
<line x1="5033.117445" y1="11073.838530" x2="5375.203714" y2="10348.808768" class="t" />
<line x1="4259.650426" y1="11023.973283" x2="5033.117445" y2="11073.838530" class="t" />
<line x1="6713.258893" y1="11445.572479" x2="6578.394512" y2="10896.858677" class="t" />
<line x1="7320.873216" y1="11690.966430" x2="6713.258893" y2="11445.572479" class="t" />
<line x1="5929.209196" y1="9182.574781" x2="6281.198014" y2="9803.117153" class="t" />
<line x1="6253.729072" y1="8550.738160" x2="5929.209196" y2="9182.574781" class="t" />
<line x1="3810.017532" y1="11708.096662" x2="4259.650426" y2="11023.973283" class="t" />
<line x1="6149.890107" y1="11916.687117" x2="6713.258893" y2="11445.572479" class="t" />
<line x1="6293.720698" y1="12499.043625" x2="6149.890107" y2="11916.687117" class="t" />
<line x1="5671.613393" y1="13030.038103" x2="6293.720698" y2="12499.043625" class="t" />
<line x1="6865.461563" y1="12853.163950" x2="6293.720698" y2="12499.043625" class="t" />
<line x1="7283.396623" y1="10523.471212" x2="6578.394512" y2="10896.858677" class="t" />
<line x1="7374.284723" y1="12507.288162" x2="7320.873216" y2="11690.966430" class="t" />
<line x1="5215.851423" y1="11843.406575" x2="5033.117445" y2="11073.838530" class="t" />
<line x1="4803.431091" y1="12603.274685" x2="5215.851423" y2="11843.406575" class="t" />
<line x1="7858.295440" y1="12806.502628" x2="7374.284723" y2="12507.288162" class="t" />
<line x1="8197.382154" y1="13535.708701" x2="7858.295440" y2="12806.502628" class="t" />
<line x1="7679.533963" y1="11035.925244" x2="7320.873216" y2="11690.966430" class="t" />
<line x1="8269.856602" y1="11240.541027" x2="7679.533963" y2="11035.925244" class="t" />
<line x1="5103.093314" y1="9474.634658" x2="5375.203714" y2="10348.808768" class="t" />
<line x1="4758.188434" y1="9070.495454" x2="5103.093314" y2="9474.634658" class="t" />
<line x1="3920.426192" y1="10327.706020" x2="4259.650426" y2="11023.973283" class="t" />
<line x1="3260.867593" y1="10437.748737" x2="3920.426192" y2="10327.706020" class="t" />
<line x1="5904.120473" y1="13568.923020" x2="5671.613393" y2="13030.038103" class="t" />
<line x1="5645.399281" y1="14191.264880" x2="5904.120473" y2="13568.923020" class="t" />
<line x1="3248.659812" y1="11265.350981" x2="3810.017532" y2="11708.096662" class="t" />
<line x1="3002.678270" y1="11368.320846" x2="3248.659812" y2="11265.350981" class="t" />
<line x1="2586.646089" y1="11123.950443" x2="3002.678270" y2="11368.320846" class="t" />
<line x1="2385.719315" y1="10721.683195" x2="2586.646089" y2="11123.950443" class="t" />
<line x1="2719.878226" y1="11642.042119" x2="2586.646089" y2="11123.950443" class="t" />
<line x1="3106.805701" y1="11907.184481" x2="2719.878226" y2="11642.042119" class="t" />
<line x1="2538.819331" y1="12024.224493" x2="2719.878226" y2="11642.042119" class="t" />
<line x1="2055.043868" y1="11719.564449" x2="2538.819331" y2="12024.224493" class="t" />
<line x1="1846.511364" y1="12384.411303" x2="2055.043868" y2="11719.564449" class="t" />
<line x1="1178.664239" y1="12295.805159" x2="1846.511364" y2="12384.411303" class="t" />
<line x1="2667.212016" y1="12682.509227" x2="2538.819331" y2="12024.224493" class="t" />
<line x1="1993.592310" y1="10575.964466" x2="2385.719315" y2="10721.683195" class="t" />
<line x1="8867.601572" y1="10719.149386" x2="8269.856602" y2="11240.541027" class="t" />
<line x1="9485.237996" y1="11285.967606" x2="8867.601572" y2="10719.149386" class="t" />
<line x1="10054.981484" y1="10983.093482" x2="9485.237996" y2="11285.967606" class="t" />
<line x1="6621.544478" y1="13501.171080" x2="6865.461563" y2="12853.163950" class="t" />
<line x1="6857.351208" y1="14158.023432" x2="6621.544478" y2="13501.171080" class="t" />
<line x1="10667.001006" y1="11389.282034" x2="10054.981484" y2="10983.093482" class="t" />
<line x1="4353.871864" y1="12909.978072" x2="4803.431091" y2="12603.274685" class="t" />
<line x1="4453.905939" y1="13843.101806" x2="4353.871864" y2="12909.978072" class="t" />
<line x1="4194.104585" y1="14315.859907" x2="4453.905939" y2="13843.101806" class="t" />
<line x1="2269.686165" y1="13142.769257" x2="2667.212016" y2="12682.509227" class="t" />
<line x1="2336.454546" y1="13738.691174" x2="2269.686165" y2="13142.769257" class="t" />
<line x1="1965.439737" y1="14401.210435" x2="2336.454546" y2="13738.691174" class="t" />
<line x1="3031.598272" y1="13009.487243" x2="2667.212016" y2="12682.509227" class="t" />
<line x1="2904.261907" y1="13725.863026" x2="3031.598272" y2="13009.487243" class="t" />
<line x1="13330.166355" y1="9734.282958" x2="12923.038058" y2="8998.863426" class="t" />
<line x1="16027.215680" y1="7829.769255" x2="15425.747950" y2="7846.615739" class="t" />
<line x1="16169.414787" y1="8575.795584" x2="16027.215680" y2="7829.769255" class="t" />
<line x1="16724.880179" y1="8959.875854" x2="16169.414787" y2="8575.795584" class="t" />
<line x1="14387.616640" y1="8285.055544" x2="14598.737326" y2="7474.133976" class="t" />
<line x1="14912.010833" y1="8545.129361" x2="14387.616640" y2="8285.055544" class="t" />
<line x1="15176.866755" y1="9005.753104" x2="14912.010833" y2="8545.129361" class="t" />
<line x1="3399.931960" y1="13183.424414" x2="3031.598272" y2="13009.487243" class="t" />
<line x1="3423.290572" y1="13932.979142" x2="3399.931960" y2="13183.424414" class="t" />
<line x1="3353.269267" y1="12668.661946" x2="3399.931960" y2="13183.424414" class="t" />
<line x1="4979.372116" y1="8251.105041" x2="4758.188434" y2="9070.495454" class="t" />
<line x1="4629.794709" y1="7824.243585" x2="4979.372116" y2="8251.105041" class="t" />
<line x1="4162.865670" y1="9466.330796" x2="4758.188434" y2="9070.495454" class="t" />
<line x1="3652.325224" y1="8867.586662" x2="4162.865670" y2="9466.330796" class="t" />
<line x1="3042.684964" y1="8846.649786" x2="3652.325224" y2="8867.586662" class="t" />
<line x1="2866.469048" y1="10044.543760" x2="3260.867593" y2="10437.748737" class="t" />
<line x1="14876.030961" y1="9686.570208" x2="15176.866755" y2="9005.753104" class="t" />
<line x1="15442.212906" y1="10166.319705" x2="14876.030961" y2="9686.570208" class="t" />
<line x1="15422.503628" y1="10914.440430" x2="15442.212906" y2="10166.319705" class="t" />
<line x1="16476.340788" y1="5614.042791" x2="16510.547783" y2="5112.507708" class="t" />
<line x1="17156.643167" y1="5903.092177" x2="16476.340788" y2="5614.042791" class="t" />
<line x1="15840.520057" y1="5692.019952" x2="16476.340788" y2="5614.042791" class="t" />
<line x1="1978.971800" y1="10082.695226" x2="1993.592310" y2="10575.964466" class="t" />
<line x1="2408.207312" y1="9982.599288" x2="1978.971800" y2="10082.695226" class="t" />
<line x1="12966.549909" y1="10387.511514" x2="13330.166355" y2="9734.282958" class="t" />
<line x1="3638.833289" y1="12888.602014" x2="3353.269267" y2="12668.661946" class="t" />
<line x1="3754.423036" y1="12089.820446" x2="3638.833289" y2="12888.602014" class="t" />
<line x1="1826.189438" y1="10905.661569" x2="2055.043868" y2="11719.564449" class="t" />
<line x1="1254.598592" y1="10385.460436" x2="1826.189438" y2="10905.661569" class="t" />
<line x1="13153.559065" y1="3954.645449" x2="12837.122087" y2="4264.653219" class="t" />
<line x1="12998.488606" y1="3013.785542" x2="13153.559065" y2="3954.645449" class="t" />
<line x1="12921.450221" y1="11206.365267" x2="12966.549909" y2="10387.511514" class="t" />
<line x1="2561.255460" y1="8024.592806" x2="3042.684964" y2="8846.649786" class="t" />
<line x1="4774.389185" y1="7143.491118" x2="4629.794709" y2="7824.243585" class="t" />
<line x1="4118.222230" y1="6813.548087" x2="4774.389185" y2="7143.491118" class="t" />
<line x1="4053.246232" y1="6460.242697" x2="4118.222230" y2="6813.548087" class="t" />
<line x1="3367.157374" y1="6287.039842" x2="4053.246232" y2="6460.242697" class="t" />
<line x1="17167.200226" y1="4582.406604" x2="16592.942700" y2="3836.292832" class="t" />
<line x1="17809.669322" y1="4749.450090" x2="17167.200226" y2="4582.406604" class="t" />
<line x1="12012.794195" y1="3110.737152" x2="11922.490854" y2="3730.080796" class="t" />
<line x1="11433.454822" y1="2793.051165" x2="12012.794195" y2="3110.737152" class="t" />
<line x1="11298.214024" y1="2062.218770" x2="11433.454822" y2="2793.051165" class="t" />
<line x1="4743.035996" y1="6225.756780" x2="4053.246232" y2="6460.242697" class="t" />
<line x1="5283.570697" y1="6657.696161" x2="4743.035996" y2="6225.756780" class="t" />
<line x1="4533.737718" y1="5747.217760" x2="4743.035996" y2="6225.756780" class="t" />
<line x1="6958.594082" y1="8405.243368" x2="6253.729072" y2="8550.738160" class="t" />
<line x1="7146.607476" y1="7543.845404" x2="6958.594082" y2="8405.243368" class="t" />
<line x1="11181.513454" y1="4024.949914" x2="11221.355968" y2="4621.547235" class="t" />
<line x1="10635.876422" y1="3653.548625" x2="11181.513454" y2="4024.949914" class="t" />
<line x1="8451.597178" y1="12149.244187" x2="8269.856602" y2="11240.541027" class="t" />
<line x1="9272.432177" y1="12460.595375" x2="8451.597178" y2="12149.244187" class="t" />
<line x1="13686.335953" y1="3006.883381" x2="13826.939541" y2="3480.083716" class="t" />
<line x1="12810.840264" y1="2641.263859" x2="13686.335953" y2="3006.883381" class="t" />
<line x1="3272.509998" y1="14089.991257" x2="2904.261907" y2="13725.863026" class="t" />
<line x1="3184.916410" y1="14669.342504" x2="3272.509998" y2="14089.991257" class="t" />
<line x1="16238.660176" y1="6417.982420" x2="15951.837429" y2="6586.276709" class="t" />
<line x1="17284.648832" y1="6389.219355" x2="16238.660176" y2="6417.982420" class="t" />
<line x1="11282.512338" y1="10959.968154" x2="10667.001006" y2="11389.282034" class="t" />
<line x1="11886.015728" y1="11086.155216" x2="11282.512338" y2="10959.968154" class="t" />
<line x1="10216.123371" y1="6556.523455" x2="10331.947936" y2="5756.282026" class="t" />
<line x1="9519.557785" y1="6330.680871" x2="10216.123371" y2="6556.523455" class="t" />
<line x1="9266.865580" y1="6874.737632" x2="9519.557785" y2="6330.680871" class="t" />
<line x1="8509.559660" y1="6768.697823" x2="9266.865580" y2="6874.737632" class="t" />
<line x1="10695.697600" y1="1860.728670" x2="11298.214024" y2="2062.218770" class="t" />
<line x1="10459.755921" y1="1198.316264" x2="10695.697600" y2="1860.728670" class="t" />
<line x1="15740.515090" y1="1990.939227" x2="15139.547660" y2="2379.720533" class="t" />
<line x1="15831.596405" y1="1003.456476" x2="15740.515090" y2="1990.939227" class="t" />
<line x1="1336.803265" y1="9861.931852" x2="1978.971800" y2="10082.695226" class="t" />
<line x1="6224.246714" y1="14636.711247" x2="5645.399281" y2="14191.264880" class="t" />
<line x1="6189.911912" y1="15423.353987" x2="6224.246714" y2="14636.711247" class="t" />
<line x1="14635.076120" y1="1998.791208" x2="15139.547660" y2="2379.720533" class="t" />
<line x1="14459.209292" y1="1258.849830" x2="14635.076120" y2="1998.791208" class="t" />
<line x1="12620.990678" y1="2635.502004" x2="12998.488606" y2="3013.785542" class="t" />
<line x1="12640.647558" y1="1824.763497" x2="12620.990678" y2="2635.502004" class="t" />
<line x1="16606.773852" y1="9710.150959" x2="16724.880179" y2="8959.875854" class="t" />
<line x1="17233.036215" y1="10226.055912" x2="16606.773852" y2="9710.150959" class="t" />
<line x1="3931.336300" y1="14173.415655" x2="4194.104585" y2="14315.859907" class="t" />
<line x1="3607.693000" y1="15102.260896" x2="3931.336300" y2="14173.415655" class="t" />
<line x1="2776.404906" y1="9289.423358" x2="3042.684964" y2="8846.649786" class="t" />
<line x1="2194.689979" y1="8802.471379" x2="2776.404906" y2="9289.423358" class="t" />
<line x1="1628.056001" y1="8801.596699" x2="2194.689979" y2="8802.471379" class="t" />
<line x1="802.971630" y1="8293.780648" x2="1628.056001" y2="8801.596699" class="t" />
<line x1="3085.994950" y1="14584.315486" x2="3423.290572" y2="13932.979142" class="t" />
</svg>
