<?xml version="1.0"?>
<svg width="18199" height="20893" version="1.1" xmlns="http://www.w3.org/2000/svg" >
<defs>
<style type="text/css"><![CDATA[
.m {stroke:rgb(255,0,0);stroke-width:26.116250;}
.v {stroke:rgb(0,0,255);stroke-width:26.116250;}
.b {stroke:rgb(0,0,0);stroke-width:52.232500;fill:white}
.n {stroke:rgb(128,128,128);stroke-width:26.116250}
.t {stroke:rgb(0,128,0);stroke-width:26.116250;}
.c {stroke:rgb(128,128,128);stroke-width:26.116250;stroke-dasharray:181.990000, 181.990000;}
]]></style>
</defs>
<path fill="none" style="stroke:black;stroke-width:52.232500;" d=" M 9969.13 9029.75 L 8527.01 9010.06 M 8527.01 9010.06 L 8826.48 9818 M 6571.76 8991.35 L 7167.79 9761.77 M 8680.37 9828.43 L 8117.02 9176.45 M 11810.8 0 L 10852.8 43.2478 M 10852.8 43.2478 L 11470 796.77 M 12859.3 494.309 L 11810.8 0 M 13550.1 1391.45 L 12859.3 494.309 M 12805.4 1527.72 L 13550.1 1391.45 M 3782.74 10050.1 L 2761.66 9333.88 M 2761.66 9333.88 L 2239.71 9999.85 M 13562.4 1538.35 L 12805.4 1527.72 M 13425.7 2778.05 L 13562.4 1538.35 M 0 13133.5 L 757.499 13598.4 M 1640.47 12794.2 L 0 13133.5 M 14293.3 2448.64 L 13451.2 2531.39 M 13922.2 4082.19 L 14293.3 2448.64 M 14192.1 4972.46 L 14758.5 3781.36 M 14758.5 3781.36 L 13922.2 4082.19 M 13209.9 5427.86 L 14192.1 4972.46 M 16461.4 7427.69 L 15517 7956.8 M 15517 7956.8 L 15152.7 8448.98 M 14666.4 9394.86 L 15780 8810.33 M 13783.5 10099.9 L 14666.4 9394.86 M 13653.6 9203.36 L 12607.2 9393.03 M 12607.2 9393.03 L 12182.7 9998.82 M 10439.6 9608.25 L 11501.8 8403.55 M 12421.1 9273.38 L 10916.1 9834.4 M 12146.5 9960.28 L 12421.1 9273.38 M 10029 10835.3 L 10439.6 9608.25 M 7953.96 10807.4 L 7078.7 9835.12 M 7167.79 9761.77 L 7953.96 10807.4 M 4880.91 10326 L 3782.74 10050.1 M 2239.71 9999.85 L 2869.69 10658.4 M 2869.69 10658.4 L 3936.13 11018.5 M 17139.9 6296.66 L 16461.4 7427.69 M 15780 8810.33 L 17067 7951.16 M 13107.5 10947.1 L 13783.5 10099.9 M 11359.5 10735.9 L 12146.5 9960.28 M 7078.7 9835.12 L 6156.54 10098.6 M 6156.54 10098.6 L 7287.59 11016.8 M 6038.53 10266.9 L 4880.91 10326 M 757.499 13598.4 L 1722.52 13868.3 M 17067 7951.16 L 18199.3 6949.42 M 18199.3 6949.42 L 17139.9 6296.66 M 17175.8 15270.7 L 16393.9 13935.4 M 14982.4 14398.4 L 16087.7 15496.1 M 16393.9 13935.4 L 15605.4 12955.6 M 15605.4 12955.6 L 14577.6 12486.4 M 12182.2 11424.8 L 13107.5 10947.1 M 8826.48 9818 L 8858.11 11289.5 M 8858.11 11289.5 L 8680.37 9828.43 M 3936.13 11018.5 L 5359.92 11500.4 M 3899.82 11959.4 L 2815.45 12261.2 M 1919.04 12096.7 L 2614.64 12939.3 M 2815.45 12261.2 L 1919.04 12096.7 M 2614.64 12939.3 L 3412.81 13348.3 M 6985.32 20894.1 L 7814.22 19966 M 6828.5 19904.4 L 6985.32 20894.1 M 9063.66 20056.4 L 10475.3 20597.7 M 10475.3 20597.7 L 9888.53 19625.2 M 14577.6 12486.4 L 13495.5 12549.1 M 12182.7 9998.82 L 11359.5 10735.9 M 10916.1 9834.4 L 10159.5 10884.1 M 9696.65 11923.8 L 10029 10835.3 M 5389.47 11758.6 L 3899.82 11959.4 M 3412.81 13348.3 L 4937.12 12817.7 M 16087.7 15496.1 L 16975.6 16388.7 M 16975.6 16388.7 L 17175.8 15270.7 M 13495.5 12549.1 L 12485.5 12295.4 M 4937.12 12817.7 L 3480.93 13513.8 M 11624.5 17858.8 L 11916.7 19243 M 11916.7 19243 L 12953.5 18528.7 M 12159.8 13326.2 L 13445.7 13817.4 M 4633.39 14105.1 L 6288.4 13301.9 M 9888.53 19625.2 L 10404.2 18307.8 M 13391 13941.9 L 12159.8 13326.2 M 6535.53 13544.3 L 5513.4 15073.8 M 5513.4 15073.8 L 6921.07 14333.2 M 8790.51 17876.8 L 9222.17 18789.3 M 11450.8 13624.9 L 12228 14435.3 M 8947.22 12807.3 L 7841.05 13684.8 M 7258.62 14664.8 L 6172.7 15827 M 10404.2 18307.8 L 10100.1 16999.1 M 12075.1 14558.2 L 11450.8 13624.9 M 8386.68 14715.8 L 9313.54 13745.1 M 7841.05 13684.8 L 7258.62 14664.8 M 7382.77 15933.7 L 8386.68 14715.8 M 8522.94 17849.6 L 8817.45 16280.5 M 9313.54 13745.1 L 8511.55 14821.3 M 8817.45 16280.5 L 8790.51 17876.8 M 10277.3 14028 L 9732.9 15271.4 M 9595.85 15201.9 L 10277.3 14028 M 8511.55 14821.3 L 7869.24 16263 M 10100.1 16999.1 L 9595.85 15201.9 M 9732.9 15271.4 L 10761.4 16829.2 M 10494.8 8713.27 L 9737.26 8476.27 M 8475.93 8337.05 L 8565.65 8697.57 M 8565.65 8697.57 L 9969.13 9029.75 M 8117.02 9176.45 L 7797.07 8987.62 M 7797.07 8987.62 L 6877.01 8637.4 M 6877.01 8637.4 L 5922.05 7860.97 M 5922.05 7860.97 L 6571.76 8991.35 M 11470 796.77 L 12399.7 1710.91 M 12816.5 6223.57 L 13287.6 5832.5 M 13287.6 5832.5 L 13008 5676.43 M 11943.7 7436.26 L 11961.7 5758.12 M 11961.7 5758.12 L 11783.2 6540.48 M 15152.7 8448.98 L 13653.6 9203.36 M 11783.2 6540.48 L 11657.3 7333.45 M 11501.8 8403.55 L 11943.7 7436.26 M 7598.51 7890.64 L 8475.93 8337.05 M 12936.4 2602.71 L 13425.7 2778.05 M 13451.2 2531.39 L 12936.4 2602.71 M 9731.33 8496.16 L 10494.8 8713.27 M 6509.45 7317.26 L 7598.51 7890.64 M 11892.5 2643.7 L 11136 2345.48 M 11136 2345.48 L 11114.6 3214.17 M 11114.6 3214.17 L 12209.9 3354.66 M 12399.7 1710.91 L 11892.5 2643.7 M 7356.61 5448.36 L 7379.65 6317.01 M 8375.85 6832.27 L 7356.61 5448.36 M 10155.3 7544.56 L 10852.7 6798.58 M 9047.27 6592.67 L 9116.09 7722.38 M 8844.58 3588.24 L 8679.39 4680.05 M 10141.6 3731.68 L 8844.58 3588.24 M 12404.2 4645.03 L 12908.5 4083.39 M 12209.9 3354.66 L 12404.2 4645.03 M 11482.3 4295.8 L 10724.3 3225.5 M 10724.3 3225.5 L 10357.5 3885.19 M 11682.9 5930.67 L 12139.4 4622.52 M 12139.4 4622.52 L 11318.9 5448.64 M 10985.6 6881.29 L 11682.9 5930.67 M 9869.36 6970.23 L 10408.4 7494.32 M 10664.9 6784.08 L 9931.51 7494.79 M 10917.1 7492.34 L 10664.9 6784.08 M 12908.5 4083.39 L 13426.7 3454.62 M 12641.6 3672.49 L 12621.3 4983.87 M 13426.7 3454.62 L 12641.6 3672.49 M 13008 5676.43 L 13209.9 5427.86 M 12621.3 4983.87 L 11941.3 6191.05 M 12251.2 6793.13 L 12816.5 6223.57 M 11657.3 7333.45 L 12251.2 6793.13 M 11941.3 6191.05 L 10985.6 6881.29 M 10408.4 7494.32 L 10666 8314.84 M 10666 8314.84 L 10917.1 7492.34 M 9931.51 7494.79 L 9731.33 8496.16 M 9737.26 8476.27 L 10155.3 7544.56 M 9116.09 7722.38 L 9211.12 6594.58 M 7379.65 6317.01 L 6568.72 6257.17 M 6568.72 6257.17 L 6509.45 7317.26 M 9211.12 6594.58 L 7858.43 5193.26 M 7858.43 5193.26 L 8375.85 6832.27 M 9695.14 5325.79 L 9869.36 6970.23 M 11318.9 5448.64 L 11482.3 4295.8 M 10357.5 3885.19 L 9695.14 5325.79 M 10852.7 6798.58 L 10118.2 5317.06 M 8679.39 4680.05 L 9047.27 6592.67 M 10118.2 5317.06 L 10141.6 3731.68 M 6348.15 11518.1 L 5389.47 11758.6 M 7503.99 12309.5 L 6535.53 13544.3 M 6288.4 13301.9 L 7503.99 12309.5 M 7740.95 13541.1 L 8947.22 12807.3 M 7287.59 11016.8 L 6038.53 10266.9 M 5359.92 11500.4 L 6348.15 11518.1 M 6921.07 14333.2 L 7740.95 13541.1 M 10159.5 10884.1 L 9696.65 11923.8 M 10545.9 12770 L 11292 11825.9 M 11532.9 12081.6 L 10545.9 12770 M 12485.5 12295.4 L 11532.9 12081.6 M 11292 11825.9 L 12182.2 11424.8 M 2826.49 14558.2 L 4633.39 14105.1 M 5627.94 17608.4 L 6652.64 17119.4 M 6172.7 15827 L 5627.94 17608.4 M 3480.93 13513.8 L 2610.76 13296.5 M 6652.64 17119.4 L 7382.77 15933.7 M 7869.24 16263 L 7632.85 17635.3 M 7632.85 17635.3 L 7080.15 18627.1 M 7947.93 19478.3 L 8630.65 18853.3 M 8630.65 18853.3 L 8522.94 17849.6 M 7080.15 18627.1 L 6828.5 19904.4 M 1722.52 13868.3 L 2826.49 14558.2 M 2610.76 13296.5 L 1640.47 12794.2 M 9222.17 18789.3 L 8810.86 19618.4 M 8810.86 19618.4 L 9063.66 20056.4 M 7814.22 19966 L 7947.93 19478.3 M 13781.6 15954.5 L 12666.4 15097.5 M 11218.3 15467.6 L 12225 16318.7 M 13438.8 17093.5 L 13781.6 15954.5 M 12225 16318.7 L 13438.8 17093.5 M 12916.7 14843 L 14265.8 15240.7 M 14265.8 15240.7 L 13391 13941.9 M 12022.9 16511.7 L 11218.3 15467.6 M 10761.4 16829.2 L 11624.5 17858.8 M 12698 17783.8 L 12022.9 16511.7 M 12953.5 18528.7 L 12698 17783.8 M 15309.5 15834.9 L 16040.5 15541.7 M 16040.5 15541.7 L 14982.4 14398.4 M 14585.2 14891.4 L 15309.5 15834.9 M 13445.7 13817.4 L 14585.2 14891.4 M 12228 14435.3 L 12916.7 14843 M 12666.4 15097.5 L 12075.1 14558.2" />
<path fill="none" class="c" d=" M 8826.48 9818 L 9969.13 9029.75 M 10439.6 9608.25 L 9969.13 9029.75 M 8826.48 9818 L 10439.6 9608.25 M 11501.8 8403.55 L 9969.13 9029.75 M 8826.48 9818 L 10029 10835.3 M 10494.8 8713.27 L 9969.13 9029.75 M 11501.8 8403.55 L 10494.8 8713.27 M 8858.11 11289.5 L 10029 10835.3 M 10494.8 8713.27 L 8565.65 8697.57 M 11943.7 7436.26 L 10494.8 8713.27 M 8858.11 11289.5 L 9696.65 11923.8 M 11657.3 7333.45 L 10494.8 8713.27 M 8858.11 11289.5 L 8947.22 12807.3 M 8947.22 12807.3 L 9696.65 11923.8 M 10666 8314.84 L 10494.8 8713.27 M 8858.11 11289.5 L 7503.99 12309.5 M 7503.99 12309.5 L 8947.22 12807.3 M 10545.9 12770 L 9696.65 11923.8 M 11657.3 7333.45 L 10666 8314.84 M 7503.99 12309.5 L 7740.95 13541.1 M 10494.8 8713.27 L 8475.93 8337.05 M 11943.7 7436.26 L 11657.3 7333.45 M 11292 11825.9 L 9696.65 11923.8 M 6535.53 13544.3 L 7740.95 13541.1 M 9737.26 8476.27 L 8475.93 8337.05 M 11943.7 7436.26 L 11783.2 6540.48 M 9737.26 8476.27 L 9116.09 7722.38 M 9116.09 7722.38 L 8475.93 8337.05 M 10155.3 7544.56 L 9116.09 7722.38 M 9116.09 7722.38 L 7598.51 7890.64 M 10155.3 7544.56 L 9047.27 6592.67 M 9116.09 7722.38 L 8375.85 6832.27 M 8375.85 6832.27 L 7598.51 7890.64 M 10852.7 6798.58 L 9047.27 6592.67 M 9211.12 6594.58 L 8375.85 6832.27 M 7379.65 6317.01 L 7598.51 7890.64 M 10118.2 5317.06 L 9047.27 6592.67 M 11292 11825.9 L 10159.5 10884.1 M 6535.53 13544.3 L 6921.07 14333.2 M 11657.3 7333.45 L 10408.4 7494.32 M 7379.65 6317.01 L 6509.45 7317.26 M 10118.2 5317.06 L 8679.39 4680.05 M 8947.22 12807.3 L 10545.9 12770 M 7953.96 10807.4 L 7503.99 12309.5 M 11657.3 7333.45 L 10985.6 6881.29 M 8947.22 12807.3 L 10277.3 14028 M 10277.3 14028 L 10545.9 12770 M 7953.96 10807.4 L 7287.59 11016.8 M 7287.59 11016.8 L 7503.99 12309.5 M 9313.54 13745.1 L 10277.3 14028 M 10277.3 14028 L 11450.8 13624.9 M 11450.8 13624.9 L 10545.9 12770 M 10277.3 14028 L 11218.3 15467.6 M 11218.3 15467.6 L 11450.8 13624.9 M 11450.8 13624.9 L 11532.9 12081.6 M 9732.9 15271.4 L 11218.3 15467.6 M 11218.3 15467.6 L 12075.1 14558.2 M 11450.8 13624.9 L 12159.8 13326.2 M 12159.8 13326.2 L 11532.9 12081.6 M 10761.4 16829.2 L 11218.3 15467.6 M 11218.3 15467.6 L 12666.4 15097.5 M 12228 14435.3 L 12159.8 13326.2 M 12159.8 13326.2 L 12485.5 12295.4 M 12228 14435.3 L 13391 13941.9 M 12159.8 13326.2 L 13495.5 12549.1 M 10761.4 16829.2 L 12022.9 16511.7 M 12916.7 14843 L 13391 13941.9 M 13445.7 13817.4 L 13495.5 12549.1 M 11624.5 17858.8 L 12022.9 16511.7 M 12225 16318.7 L 12666.4 15097.5 M 13445.7 13817.4 L 14577.6 12486.4 M 11624.5 17858.8 L 12698 17783.8 M 12225 16318.7 L 13781.6 15954.5 M 14982.4 14398.4 L 14577.6 12486.4 M 13445.7 13817.4 L 14982.4 14398.4 M 11624.5 17858.8 L 12953.5 18528.7 M 14982.4 14398.4 L 15605.4 12955.6 M 14585.2 14891.4 L 14982.4 14398.4 M 7078.7 9835.12 L 7287.59 11016.8 M 6348.15 11518.1 L 7503.99 12309.5 M 7287.59 11016.8 L 6348.15 11518.1 M 9313.54 13745.1 L 9595.85 15201.9 M 15309.5 15834.9 L 14982.4 14398.4 M 11657.3 7333.45 L 11941.3 6191.05 M 8947.22 12807.3 L 9313.54 13745.1 M 6038.53 10266.9 L 6348.15 11518.1 M 8511.55 14821.3 L 9595.85 15201.9 M 12251.2 6793.13 L 11941.3 6191.05 M 7841.05 13684.8 L 9313.54 13745.1 M 11292 11825.9 L 11359.5 10735.9 M 10141.6 3731.68 L 8679.39 4680.05 M 10985.6 6881.29 L 10408.4 7494.32 M 8817.45 16280.5 L 9595.85 15201.9 M 12816.5 6223.57 L 11941.3 6191.05 M 7841.05 13684.8 L 8386.68 14715.8 M 12182.2 11424.8 L 11359.5 10735.9 M 10666 8314.84 L 9731.33 8496.16 M 13008 5676.43 L 11941.3 6191.05 M 7258.62 14664.8 L 8386.68 14715.8 M 12182.2 11424.8 L 12182.7 9998.82 M 10666 8314.84 L 9931.51 7494.79 M 13008 5676.43 L 12621.3 4983.87 M 7258.62 14664.8 L 7382.77 15933.7 M 13107.5 10947.1 L 12182.7 9998.82 M 10917.1 7492.34 L 9931.51 7494.79 M 13209.9 5427.86 L 12621.3 4983.87 M 6172.7 15827 L 7382.77 15933.7 M 13783.5 10099.9 L 12182.7 9998.82 M 8858.11 11289.5 L 7953.96 10807.4 M 13209.9 5427.86 L 12641.6 3672.49 M 6172.7 15827 L 6652.64 17119.4 M 13783.5 10099.9 L 12607.2 9393.03 M 8680.37 9828.43 L 7953.96 10807.4 M 13209.9 5427.86 L 13426.7 3454.62 M 13783.5 10099.9 L 13653.6 9203.36 M 8680.37 9828.43 L 7167.79 9761.77 M 13209.9 5427.86 L 13922.2 4082.19 M 13922.2 4082.19 L 13426.7 3454.62 M 14666.4 9394.86 L 13653.6 9203.36 M 8117.02 9176.45 L 7167.79 9761.77 M 14192.1 4972.46 L 13922.2 4082.19 M 13922.2 4082.19 L 13451.2 2531.39 M 13451.2 2531.39 L 13426.7 3454.62 M 14666.4 9394.86 L 15152.7 8448.98 M 8117.02 9176.45 L 6571.76 8991.35 M 12936.4 2602.71 L 13426.7 3454.62 M 15780 8810.33 L 15152.7 8448.98 M 7797.07 8987.62 L 6571.76 8991.35 M 12209.9 3354.66 L 13426.7 3454.62 M 12936.4 2602.71 L 12209.9 3354.66 M 15780 8810.33 L 15517 7956.8 M 6877.01 8637.4 L 6571.76 8991.35 M 12209.9 3354.66 L 12908.5 4083.39 M 11892.5 2643.7 L 12209.9 3354.66 M 12936.4 2602.71 L 11892.5 2643.7 M 15780 8810.33 L 16461.4 7427.69 M 11136 2345.48 L 12209.9 3354.66 M 12936.4 2602.71 L 12399.7 1710.91 M 17067 7951.16 L 16461.4 7427.69 M 11359.5 10735.9 L 10159.5 10884.1 M 12805.4 1527.72 L 12399.7 1710.91 M 12936.4 2602.71 L 12805.4 1527.72 M 17067 7951.16 L 17139.9 6296.66 M 11359.5 10735.9 L 10916.1 9834.4 M 12805.4 1527.72 L 11470 796.77 M 13425.7 2778.05 L 12805.4 1527.72 M 12146.5 9960.28 L 10916.1 9834.4 M 12805.4 1527.72 L 12859.3 494.309 M 12859.3 494.309 L 11470 796.77 M 10985.6 6881.29 L 9869.36 6970.23 M 12816.5 6223.57 L 13008 5676.43 M 11318.9 5448.64 L 9869.36 6970.23 M 11810.8 0 L 11470 796.77 M 10985.6 6881.29 L 11318.9 5448.64 M 11318.9 5448.64 L 9695.14 5325.79 M 8817.45 16280.5 L 10100.1 16999.1 M 11682.9 5930.67 L 11318.9 5448.64 M 11318.9 5448.64 L 10357.5 3885.19 M 8790.51 17876.8 L 10100.1 16999.1 M 8511.55 14821.3 L 8817.45 16280.5 M 11482.3 4295.8 L 10357.5 3885.19 M 8790.51 17876.8 L 10404.2 18307.8 M 7869.24 16263 L 8817.45 16280.5 M 8375.85 6832.27 L 7379.65 6317.01 M 9222.17 18789.3 L 10404.2 18307.8 M 7869.24 16263 L 8522.94 17849.6 M 6348.15 11518.1 L 6288.4 13301.9 M 9222.17 18789.3 L 9888.53 19625.2 M 7632.85 17635.3 L 8522.94 17849.6 M 5389.47 11758.6 L 6288.4 13301.9 M 9063.66 20056.4 L 9888.53 19625.2 M 4937.12 12817.7 L 6288.4 13301.9 M 9222.17 18789.3 L 9063.66 20056.4 M 4937.12 12817.7 L 4633.39 14105.1 M 7080.15 18627.1 L 8522.94 17849.6 M 3480.93 13513.8 L 4633.39 14105.1 M 7947.93 19478.3 L 8522.94 17849.6 M 7080.15 18627.1 L 7947.93 19478.3 M 3480.93 13513.8 L 2826.49 14558.2 M 6828.5 19904.4 L 7947.93 19478.3 M 2610.76 13296.5 L 2826.49 14558.2 M 6828.5 19904.4 L 7814.22 19966 M 2610.76 13296.5 L 1722.52 13868.3 M 5389.47 11758.6 L 4937.12 12817.7 M 1640.47 12794.2 L 1722.52 13868.3 M 3899.82 11959.4 L 4937.12 12817.7 M 1640.47 12794.2 L 757.499 13598.4 M 3899.82 11959.4 L 3412.81 13348.3 M 6038.53 10266.9 L 5359.92 11500.4 M 2815.45 12261.2 L 3412.81 13348.3 M 4880.91 10326 L 5359.92 11500.4 M 2815.45 12261.2 L 2614.64 12939.3 M 4880.91 10326 L 3936.13 11018.5 M 14982.4 14398.4 L 16393.9 13935.4 M 3782.74 10050.1 L 3936.13 11018.5 M 16087.7 15496.1 L 16393.9 13935.4 M 3782.74 10050.1 L 2869.69 10658.4 M 16087.7 15496.1 L 17175.8 15270.7 M 3782.74 10050.1 L 2239.71 9999.85" />
<line x1="9745.063401" y1="9485.332249" x2="9107.539202" y2="9285.935063" class="t" />
<line x1="10636.841254" y1="9013.847828" x2="9745.063401" y2="9485.332249" class="t" />
<line x1="9765.028315" y1="10087.187196" x2="9745.063401" y2="9485.332249" class="t" />
<line x1="10655.259986" y1="8715.522021" x2="10636.841254" y2="9013.847828" class="t" />
<line x1="9237.870745" y1="10647.587768" x2="9765.028315" y2="10087.187196" class="t" />
<line x1="9676.540080" y1="8813.531279" x2="10655.259986" y2="8715.522021" class="t" />
<line x1="11313.437809" y1="8184.360390" x2="10655.259986" y2="8715.522021" class="t" />
<line x1="9527.928498" y1="11349.533875" x2="9237.870745" y2="10647.587768" class="t" />
<line x1="9178.804671" y1="8582.631276" x2="9676.540080" y2="8813.531279" class="t" />
<line x1="11365.280216" y1="7827.663307" x2="11313.437809" y2="8184.360390" class="t" />
<line x1="9167.325706" y1="12006.864303" x2="9527.928498" y2="11349.533875" class="t" />
<line x1="10939.380387" y1="8120.523583" x2="11365.280216" y2="7827.663307" class="t" />
<line x1="8436.437713" y1="12135.411244" x2="9167.325706" y2="12006.864303" class="t" />
<line x1="9729.918190" y1="12500.385094" x2="9167.325706" y2="12006.864303" class="t" />
<line x1="10297.376703" y1="8508.091880" x2="10939.380387" y2="8120.523583" class="t" />
<line x1="8105.351219" y1="11468.781032" x2="8436.437713" y2="12135.411244" class="t" />
<line x1="8064.050975" y1="12885.976727" x2="8436.437713" y2="12135.411244" class="t" />
<line x1="10511.518795" y1="12173.249934" x2="9729.918190" y2="12500.385094" class="t" />
<line x1="10910.569754" y1="7714.206229" x2="10939.380387" y2="8120.523583" class="t" />
<line x1="7260.155556" y1="13131.633997" x2="8064.050975" y2="12885.976727" class="t" />
<line x1="9569.342559" y1="8508.863540" x2="9178.804671" y2="8582.631276" class="t" />
<line x1="11794.725906" y1="7103.397762" x2="11365.280216" y2="7827.663307" class="t" />
<line x1="10382.724553" y1="11544.600968" x2="10511.518795" y2="12173.249934" class="t" />
<line x1="7065.849641" y1="13806.213089" x2="7260.155556" y2="13131.633997" class="t" />
<line x1="9109.758882" y1="8178.565302" x2="9569.342559" y2="8508.863540" class="t" />
<line x1="11896.183356" y1="6578.287270" x2="11794.725906" y2="7103.397762" class="t" />
<line x1="9669.541280" y1="7914.403800" x2="9109.758882" y2="8178.565302" class="t" />
<line x1="8396.839996" y1="7983.353785" x2="9109.758882" y2="8178.565302" class="t" />
<line x1="9439.543985" y1="7286.538170" x2="9669.541280" y2="7914.403800" class="t" />
<line x1="8363.483178" y1="7481.761440" x2="8396.839996" y2="7983.353785" class="t" />
<line x1="10018.429881" y1="6978.606852" x2="9439.543985" y2="7286.538170" class="t" />
<line x1="8901.021813" y1="7049.741630" x2="8363.483178" y2="7481.761440" class="t" />
<line x1="7784.672156" y1="7013.306648" x2="8363.483178" y2="7481.761440" class="t" />
<line x1="10006.056894" y1="6236.106411" x2="10018.429881" y2="6978.606852" class="t" />
<line x1="8481.803819" y1="6206.703232" x2="8901.021813" y2="7049.741630" class="t" />
<line x1="7162.535945" y1="7174.970775" x2="7784.672156" y2="7013.306648" class="t" />
<line x1="9281.604122" y1="5529.930363" x2="10006.056894" y2="6236.106411" class="t" />
<line x1="10937.024313" y1="11148.632027" x2="10382.724553" y2="11544.600968" class="t" />
<line x1="6323.332027" y1="14317.086493" x2="7065.849641" y2="13806.213089" class="t" />
<line x1="11017.110942" y1="7236.355894" x2="10910.569754" y2="7714.206229" class="t" />
<line x1="6819.274006" y1="6630.481974" x2="7162.535945" y2="7174.970775" class="t" />
<line x1="9646.380904" y1="4576.265344" x2="9281.604122" y2="5529.930363" class="t" />
<line x1="9923.461568" y1="13201.783197" x2="9729.918190" y2="12500.385094" class="t" />
<line x1="7581.843579" y1="11377.881954" x2="8105.351219" y2="11468.781032" class="t" />
<line x1="11528.091355" y1="6801.933878" x2="11017.110942" y2="7236.355894" class="t" />
<line x1="9512.678454" y1="13526.816493" x2="9923.461568" y2="13201.783197" class="t" />
<line x1="10757.993935" y1="13474.299960" x2="9923.461568" y2="13201.783197" class="t" />
<line x1="7440.081524" y1="10553.097480" x2="7581.843579" y2="11377.881954" class="t" />
<line x1="7046.574101" y1="11614.766409" x2="7581.843579" y2="11377.881954" class="t" />
<line x1="9728.888649" y1="14325.014482" x2="9512.678454" y2="13526.816493" class="t" />
<line x1="10982.146935" y1="14373.480977" x2="10757.993935" y2="13474.299960" class="t" />
<line x1="11176.520583" y1="12825.479850" x2="10757.993935" y2="13474.299960" class="t" />
<line x1="10409.509480" y1="14922.329441" x2="10982.146935" y2="14373.480977" class="t" />
<line x1="11581.415325" y1="14550.189309" x2="10982.146935" y2="14373.480977" class="t" />
<line x1="11714.503377" y1="13010.871824" x2="11176.520583" y2="12825.479850" class="t" />
<line x1="10570.866760" y1="15856.043768" x2="10409.509480" y2="14922.329441" class="t" />
<line x1="11986.615668" y1="15041.065828" x2="11581.415325" y2="14550.189309" class="t" />
<line x1="11946.210701" y1="13795.439014" x2="11714.503377" y2="13010.871824" class="t" />
<line x1="12059.398488" y1="12567.731824" x2="11714.503377" y2="13010.871824" class="t" />
<line x1="11334.214217" y1="16269.484018" x2="10570.866760" y2="15856.043768" class="t" />
<line x1="12036.572164" y1="15627.904662" x2="11986.615668" y2="15041.065828" class="t" />
<line x1="12592.926899" y1="13901.134400" x2="11946.210701" y2="13795.439014" class="t" />
<line x1="12713.619983" y1="12723.562044" x2="12059.398488" y2="12567.731824" class="t" />
<line x1="12845.212903" y1="14406.730098" x2="12592.926899" y2="13901.134400" class="t" />
<line x1="13033.697934" y1="13230.884866" x2="12713.619983" y2="12723.562044" class="t" />
<line x1="11469.604485" y1="17066.550251" x2="11334.214217" y2="16269.484018" class="t" />
<line x1="13524.470920" y1="14675.194314" x2="12845.212903" y2="14406.730098" class="t" />
<line x1="13839.606197" y1="12950.944597" x2="13033.697934" y2="13230.884866" class="t" />
<line x1="12115.168915" y1="17384.748277" x2="11469.604485" y2="17066.550251" class="t" />
<line x1="12890.988294" y1="15790.223720" x2="12036.572164" y2="15627.904662" class="t" />
<line x1="14335.224221" y1="13567.377445" x2="13839.606197" y2="12950.944597" class="t" />
<line x1="12425.365745" y1="18057.079412" x2="12115.168915" y2="17384.748277" class="t" />
<line x1="13148.460755" y1="16455.563405" x2="12890.988294" y2="15790.223720" class="t" />
<line x1="15055.102304" y1="13280.126129" x2="14335.224221" y2="13567.377445" class="t" />
<line x1="14337.785577" y1="14369.053571" x2="14335.224221" y2="13567.377445" class="t" />
<line x1="12164.916962" y1="18543.475852" x2="12425.365745" y2="18057.079412" class="t" />
<line x1="15660.544187" y1="13763.138870" x2="15055.102304" y2="13280.126129" class="t" />
<line x1="14959.050936" y1="15041.551749" x2="14337.785577" y2="14369.053571" class="t" />
<line x1="6840.941481" y1="10316.813371" x2="7440.081524" y2="10553.097480" class="t" />
<line x1="6713.513269" y1="12376.497302" x2="7046.574101" y2="11614.766409" class="t" />
<line x1="6558.090259" y1="10933.921883" x2="7046.574101" y2="11614.766409" class="t" />
<line x1="9140.313775" y1="14589.438374" x2="9728.888649" y2="14325.014482" class="t" />
<line x1="15444.124646" y1="15258.326672" x2="14959.050936" y2="15041.551749" class="t" />
<line x1="11949.970634" y1="6772.547391" x2="11528.091355" y2="6801.933878" class="t" />
<line x1="8700.603279" y1="13412.407742" x2="9512.678454" y2="13526.816493" class="t" />
<line x1="5915.533720" y1="11095.133527" x2="6558.090259" y2="10933.921883" class="t" />
<line x1="8974.952058" y1="15434.577307" x2="9140.313775" y2="14589.438374" class="t" />
<line x1="12336.362676" y1="6402.586615" x2="11949.970634" y2="6772.547391" class="t" />
<line x1="8513.756099" y1="14048.582814" x2="8700.603279" y2="13412.407742" class="t" />
<line x1="11611.245566" y1="11328.869450" x2="10937.024313" y2="11148.632027" class="t" />
<line x1="9221.855797" y1="3999.991807" x2="9646.380904" y2="4576.265344" class="t" />
<line x1="10421.118563" y1="7115.280787" x2="11017.110942" y2="7236.355894" class="t" />
<line x1="9504.483450" y1="16160.520208" x2="8974.952058" y2="15434.577307" class="t" />
<line x1="12588.617861" y1="6030.353047" x2="12336.362676" y2="6402.586615" class="t" />
<line x1="7828.782899" y1="14355.138393" x2="8513.756099" y2="14048.582814" class="t" />
<line x1="11908.129033" y1="10719.842285" x2="11611.245566" y2="11328.869450" class="t" />
<line x1="10109.600780" y1="8101.932397" x2="10297.376703" y2="8508.091880" class="t" />
<line x1="12523.550670" y1="5617.117283" x2="12588.617861" y2="6030.353047" class="t" />
<line x1="7676.020051" y1="15104.757615" x2="7828.782899" y2="14355.138393" class="t" />
<line x1="12490.795587" y1="10790.242450" x2="11908.129033" y2="10719.842285" class="t" />
<line x1="10504.864755" y1="7767.324544" x2="10109.600780" y2="8101.932397" class="t" />
<line x1="12946.410501" y1="5362.720219" x2="12523.550670" y2="5617.117283" class="t" />
<line x1="6938.027051" y1="15475.143620" x2="7676.020051" y2="15104.757615" class="t" />
<line x1="13024.576373" y1="10348.614653" x2="12490.795587" y2="10790.242450" class="t" />
<line x1="10504.506438" y1="7257.070255" x2="10504.864755" y2="7767.324544" class="t" />
<line x1="12824.271117" y1="4694.739033" x2="12946.410501" y2="5362.720219" class="t" />
<line x1="6736.033121" y1="16293.364759" x2="6938.027051" y2="15475.143620" class="t" />
<line x1="12857.808424" y1="9830.580950" x2="13024.576373" y2="10348.614653" class="t" />
<line x1="8497.480688" y1="10641.765097" x2="8105.351219" y2="11468.781032" class="t" />
<line x1="13092.720135" y1="4184.990443" x2="12824.271117" y2="4694.739033" class="t" />
<line x1="6151.090523" y1="16851.615448" x2="6736.033121" y2="16293.364759" class="t" />
<line x1="13348.124471" y1="9565.429923" x2="12857.808424" y2="9830.580950" class="t" />
<line x1="7934.039985" y1="10132.539759" x2="8497.480688" y2="10641.765097" class="t" />
<line x1="13519.580775" y1="4321.558242" x2="13092.720135" y2="4184.990443" class="t" />
<line x1="14034.518390" y1="9566.039887" x2="13348.124471" y2="9565.429923" class="t" />
<line x1="7988.394305" y1="9588.883818" x2="7934.039985" y2="10132.539759" class="t" />
<line x1="13774.712418" y1="4827.505547" x2="13519.580775" y2="4321.558242" class="t" />
<line x1="13600.018128" y1="3356.068111" x2="13519.580775" y2="4321.558242" class="t" />
<line x1="14490.930922" y1="9015.736491" x2="14034.518390" y2="9566.039887" class="t" />
<line x1="7285.524110" y1="9309.855755" x2="7988.394305" y2="9588.883818" class="t" />
<line x1="14290.899357" y1="4278.671434" x2="13774.712418" y2="4827.505547" class="t" />
<line x1="13888.905544" y1="3020.740978" x2="13600.018128" y2="3356.068111" class="t" />
<line x1="13271.419612" y1="2862.906195" x2="13600.018128" y2="3356.068111" class="t" />
<line x1="15199.719027" y1="8884.724724" x2="14490.930922" y2="9015.736491" class="t" />
<line x1="7495.283129" y1="9051.802641" x2="7285.524110" y2="9309.855755" class="t" />
<line x1="12857.624571" y1="3137.329071" x2="13271.419612" y2="2862.906195" class="t" />
<line x1="15483.235649" y1="8405.372357" x2="15199.719027" y2="8884.724724" class="t" />
<line x1="7081.946972" y1="8872.120334" x2="7495.283129" y2="9051.802641" class="t" />
<line x1="12848.342162" y1="3630.889363" x2="12857.624571" y2="3137.329071" class="t" />
<line x1="12346.243788" y1="2867.023106" x2="12857.624571" y2="3137.329071" class="t" />
<line x1="15919.463288" y1="8064.939789" x2="15483.235649" y2="8405.372357" class="t" />
<line x1="6456.940344" y1="8496.571229" x2="7081.946972" y2="8872.120334" class="t" />
<line x1="12507.531225" y1="4027.694340" x2="12848.342162" y2="3630.889363" class="t" />
<line x1="11746.136517" y1="2781.279578" x2="12346.243788" y2="2867.023106" class="t" />
<line x1="12409.515880" y1="2319.105052" x2="12346.243788" y2="2867.023106" class="t" />
<line x1="16436.135296" y1="8063.057892" x2="15919.463288" y2="8064.939789" class="t" />
<line x1="11486.827607" y1="2971.437192" x2="11746.136517" y2="2781.279578" class="t" />
<line x1="12713.795666" y1="1947.109713" x2="12409.515880" y2="2319.105052" class="t" />
<line x1="16889.446489" y1="7225.167084" x2="16436.135296" y2="8063.057892" class="t" />
<line x1="10811.720644" y1="10484.799892" x2="10937.024313" y2="11148.632027" class="t" />
<line x1="12225.017065" y1="1345.130541" x2="12713.795666" y2="1947.109713" class="t" />
<line x1="13055.800945" y1="2302.825427" x2="12713.795666" y2="1947.109713" class="t" />
<line x1="17468.738876" y1="7065.745036" x2="16889.446489" y2="7225.167084" class="t" />
<line x1="11474.040300" y1="10176.872157" x2="10811.720644" y2="10484.799892" class="t" />
<line x1="12378.222068" y1="939.597975" x2="12225.017065" y2="1345.130541" class="t" />
<line x1="13264.481362" y1="1948.039762" x2="13055.800945" y2="2302.825427" class="t" />
<line x1="11827.878528" y1="9689.355010" x2="11474.040300" y2="10176.872157" class="t" />
<line x1="13071.585025" y1="1137.825599" x2="12378.222068" y2="939.597975" class="t" />
<line x1="12046.716942" y1="430.359494" x2="12378.222068" y2="939.597975" class="t" />
<line x1="10724.602958" y1="6433.388153" x2="10421.118563" y2="7115.280787" class="t" />
<line x1="13037.384628" y1="5910.836130" x2="12588.617861" y2="6030.353047" class="t" />
<line x1="10294.454346" y1="5914.887428" x2="10724.602958" y2="6433.388153" class="t" />
<line x1="11377.876336" y1="280.005846" x2="12046.716942" y2="430.359494" class="t" />
<line x1="11329.112265" y1="6086.868827" x2="10724.602958" y2="6433.388153" class="t" />
<line x1="10457.153157" y1="4886.540675" x2="10294.454346" y2="5914.887428" class="t" />
<line x1="9236.036343" y1="17052.148245" x2="9504.483450" y2="16160.520208" class="t" />
<line x1="11713.712409" y1="5333.944543" x2="11329.112265" y2="6086.868827" class="t" />
<line x1="11052.867441" y1="4543.211390" x2="10457.153157" y2="4886.540675" class="t" />
<line x1="9764.951669" y1="17727.909218" x2="9236.036343" y2="17052.148245" class="t" />
<line x1="8399.417350" y1="15788.266872" x2="8974.952058" y2="15434.577307" class="t" />
<line x1="10854.675359" y1="3802.164115" x2="11052.867441" y2="4543.211390" class="t" />
<line x1="9472.292835" y1="18324.627574" x2="9764.951669" y2="17727.909218" class="t" />
<line x1="8403.214002" y1="16797.702466" x2="8399.417350" y2="15788.266872" class="t" />
<line x1="7704.040903" y1="6199.213218" x2="7784.672156" y2="7013.306648" class="t" />
<line x1="9838.300079" y1="18907.428758" x2="9472.292835" y2="18324.627574" class="t" />
<line x1="8008.347786" y1="17249.290532" x2="8403.214002" y2="16797.702466" class="t" />
<line x1="6008.676117" y1="12192.870708" x2="6713.513269" y2="12376.497302" class="t" />
<line x1="9391.454768" y1="19490.306742" x2="9838.300079" y2="18907.428758" class="t" />
<line x1="7745.314686" y1="18037.324092" x2="8008.347786" y2="17249.290532" class="t" />
<line x1="5538.333701" y1="12626.085859" x2="6008.676117" y2="12192.870708" class="t" />
<line x1="9809.163597" y1="20093.094566" x2="9391.454768" y2="19490.306742" class="t" />
<line x1="5286.305058" y1="13408.245669" x2="5538.333701" y2="12626.085859" class="t" />
<line x1="9032.231278" y1="19488.056566" x2="9391.454768" y2="19490.306742" class="t" />
<line x1="4350.479146" y1="13478.867802" x2="5286.305058" y2="13408.245669" class="t" />
<line x1="7850.340696" y1="18651.643798" x2="7745.314686" y2="18037.324092" class="t" />
<line x1="3646.933735" y1="14059.043666" x2="4350.479146" y2="13478.867802" class="t" />
<line x1="8367.175709" y1="18727.055542" x2="7850.340696" y2="18651.643798" class="t" />
<line x1="7285.524494" y1="19336.562684" x2="7850.340696" y2="18651.643798" class="t" />
<line x1="2972.723676" y1="13789.530153" x2="3646.933735" y2="14059.043666" class="t" />
<line x1="7530.216756" y1="19782.869462" x2="7285.524494" y2="19336.562684" class="t" />
<line x1="2386.586801" y1="13907.679859" x2="2972.723676" y2="13789.530153" class="t" />
<line x1="7209.344932" y1="20254.807473" x2="7530.216756" y2="19782.869462" class="t" />
<line x1="1991.248002" y1="13319.652159" x2="2386.586801" y2="13907.679859" class="t" />
<line x1="4742.139344" y1="12178.554750" x2="5538.333701" y2="12626.085859" class="t" />
<line x1="1373.495144" y1="13420.263530" x2="1991.248002" y2="13319.652159" class="t" />
<line x1="4083.252941" y1="12708.462235" x2="4742.139344" y2="12178.554750" class="t" />
<line x1="799.323015" y1="13175.327794" x2="1373.495144" y2="13420.263530" class="t" />
<line x1="3376.028845" y1="12522.943458" x2="4083.252941" y2="12708.462235" class="t" />
<line x1="5426.453596" y1="10697.778253" x2="5915.533720" y2="11095.133527" class="t" />
<line x1="2947.636488" y1="12849.580176" x2="3376.028845" y2="12522.943458" class="t" />
<line x1="4725.654038" y1="10948.299657" x2="5426.453596" y2="10697.778253" class="t" />
<line x1="2449.711285" y1="12432.360571" x2="2947.636488" y2="12849.580176" class="t" />
<line x1="4199.928272" y1="10464.862577" x2="4725.654038" y2="10948.299657" class="t" />
<line x1="15821.325742" y1="14609.959813" x2="15660.544187" y2="13763.138870" class="t" />
<line x1="3529.523176" y1="10575.674909" x2="4199.928272" y2="10464.862577" class="t" />
<line x1="16552.478939" y1="14900.753706" x2="15821.325742" y2="14609.959813" class="t" />
<line x1="2964.049180" y1="10236.122696" x2="3529.523176" y2="10575.674909" class="t" />
<line x1="16746.394675" y1="15718.529489" x2="16552.478939" y2="14900.753706" class="t" />
<line x1="2928.036461" y1="9794.602298" x2="2964.049180" y2="10236.122696" class="t" />
</svg>
