<?xml version="1.0"?>
<svg width="18199" height="20893" version="1.1" xmlns="http://www.w3.org/2000/svg" >
<defs>
<style type="text/css"><![CDATA[
.m {stroke:rgb(255,0,0);stroke-width:26.116250;}
.v {stroke:rgb(0,0,255);stroke-width:26.116250;}
.b {stroke:rgb(0,0,0);stroke-width:52.232500;fill:white}
.n {stroke:rgb(128,128,128);stroke-width:26.116250}
.t {stroke:rgb(0,128,0);stroke-width:26.116250;}
.c {stroke:rgb(128,128,128);stroke-width:26.116250;stroke-dasharray:181.990000, 181.990000;}
]]></style>
</defs>
<line x1="9969.131538" y1="9029.748392" x2="8527.010280" y2="9010.057537" class="m" style="stroke-width:21.121676;" />
<line x1="8527.010280" y1="9010.057537" x2="8826.475788" y2="9817.999259" class="m" style="stroke-width:14.183754;" />
<line x1="8826.475788" y1="9817.999259" x2="9969.131538" y2="9029.748392" class="m" style="stroke-width:10.435148;" />
<line x1="8826.475788" y1="9817.999259" x2="10439.582877" y2="9608.249097" class="m" style="stroke-width:10.613593;" />
<line x1="10439.582877" y1="9608.249097" x2="9969.131538" y2="9029.748392" class="m" style="stroke-width:15.551389;" />
<line x1="7167.788059" y1="9761.774801" x2="8117.021381" y2="9176.446058" class="m" style="stroke-width:12.922568;" />
<line x1="8117.021381" y1="9176.446058" x2="6571.762889" y2="8991.346406" class="m" style="stroke-width:14.795406;" />
<line x1="6571.762889" y1="8991.346406" x2="7167.788059" y2="9761.774801" class="m" style="stroke-width:12.516523;" />
<line x1="7167.788059" y1="9761.774801" x2="8680.373474" y2="9828.430595" class="m" style="stroke-width:10.560796;" />
<line x1="8680.373474" y1="9828.430595" x2="8117.021381" y2="9176.446058" class="m" style="stroke-width:14.183754;" />
<line x1="11470.024894" y1="796.769730" x2="11810.839804" y2="0.000000" class="m" style="stroke-width:10.800935;" />
<line x1="11810.839804" y1="0.000000" x2="10852.764309" y2="43.247809" class="m" style="stroke-width:13.357006;" />
<line x1="10852.764309" y1="43.247809" x2="11470.024894" y2="796.769730" class="m" style="stroke-width:12.516523;" />
<line x1="11470.024894" y1="796.769730" x2="12859.286129" y2="494.308751" class="m" style="stroke-width:8.943205;" />
<line x1="12859.286129" y1="494.308751" x2="11810.839804" y2="0.000000" class="m" style="stroke-width:13.448119;" />
<line x1="13550.113766" y1="1391.452604" x2="12859.286129" y2="494.308751" class="m" style="stroke-width:13.443055;" />
<line x1="12859.286129" y1="494.308751" x2="12805.355181" y2="1527.715443" class="m" style="stroke-width:10.064615;" />
<line x1="12805.355181" y1="1527.715443" x2="13550.113766" y2="1391.452604" class="m" style="stroke-width:13.517955;" />
<line x1="11470.024894" y1="796.769730" x2="12805.355181" y2="1527.715443" class="m" style="stroke-width:31.011491;" />
<line x1="3782.740333" y1="10050.077267" x2="2761.656168" y2="9333.877229" class="m" style="stroke-width:11.812816;" />
<line x1="2761.656168" y1="9333.877229" x2="2239.712881" y2="9999.852399" class="m" style="stroke-width:14.367723;" />
<line x1="2239.712881" y1="9999.852399" x2="3782.740333" y2="10050.077267" class="m" style="stroke-width:9.272779;" />
<line x1="13562.401951" y1="1538.350251" x2="12805.355181" y2="1527.715443" class="m" style="stroke-width:13.517955;" />
<line x1="12805.355181" y1="1527.715443" x2="13425.686955" y2="2778.053593" class="m" style="stroke-width:27.303642;" />
<line x1="13425.686955" y1="2778.053593" x2="13562.401951" y2="1538.350251" class="m" style="stroke-width:11.812816;" />
<line x1="0.000000" y1="13133.454568" x2="757.498930" y2="13598.371619" class="m" style="stroke-width:14.157987;" />
<line x1="757.498930" y1="13598.371619" x2="1640.470114" y2="12794.157194" class="m" style="stroke-width:14.457147;" />
<line x1="1640.470114" y1="12794.157194" x2="0.000000" y2="13133.454568" class="m" style="stroke-width:5.325903;" />
<line x1="14293.320423" y1="2448.637958" x2="13451.239967" y2="2531.391983" class="m" style="stroke-width:14.367723;" />
<line x1="13451.239967" y1="2531.391983" x2="13922.156243" y2="4082.192994" class="m" style="stroke-width:29.982081;" />
<line x1="13922.156243" y1="4082.192994" x2="14293.320423" y2="2448.637958" class="m" style="stroke-width:5.325903;" />
<line x1="13922.156243" y1="4082.192994" x2="14192.053100" y2="4972.461270" class="m" style="stroke-width:14.435881;" />
<line x1="14192.053100" y1="4972.461270" x2="14758.488728" y2="3781.360039" class="m" style="stroke-width:11.681199;" />
<line x1="14758.488728" y1="3781.360039" x2="13922.156243" y2="4082.192994" class="m" style="stroke-width:14.157987;" />
<line x1="13209.927910" y1="5427.862376" x2="14192.053100" y2="4972.461270" class="m" style="stroke-width:11.842021;" />
<line x1="13922.156243" y1="4082.192994" x2="13209.927910" y2="5427.862376" class="m" style="stroke-width:22.766613;" />
<line x1="15516.975768" y1="7956.802936" x2="15779.982576" y2="8810.329164" class="m" style="stroke-width:9.783879;" />
<line x1="15779.982576" y1="8810.329164" x2="16461.431519" y2="7427.687269" class="m" style="stroke-width:10.712873;" />
<line x1="16461.431519" y1="7427.687269" x2="15516.975768" y2="7956.802936" class="m" style="stroke-width:11.842021;" />
<line x1="15516.975768" y1="7956.802936" x2="15152.748602" y2="8448.984973" class="m" style="stroke-width:28.890067;" />
<line x1="15152.748602" y1="8448.984973" x2="15779.982576" y2="8810.329164" class="m" style="stroke-width:9.555288;" />
<line x1="14666.425903" y1="9394.860036" x2="15779.982576" y2="8810.329164" class="m" style="stroke-width:15.841923;" />
<line x1="15152.748602" y1="8448.984973" x2="14666.425903" y2="9394.860036" class="m" style="stroke-width:14.477834;" />
<line x1="13653.618260" y1="9203.364464" x2="13783.511008" y2="10099.895162" class="m" style="stroke-width:8.326120;" />
<line x1="13783.511008" y1="10099.895162" x2="14666.425903" y2="9394.860036" class="m" style="stroke-width:18.837066;" />
<line x1="14666.425903" y1="9394.860036" x2="13653.618260" y2="9203.364464" class="m" style="stroke-width:14.598342;" />
<line x1="13653.618260" y1="9203.364464" x2="12607.244145" y2="9393.030143" class="m" style="stroke-width:21.148821;" />
<line x1="12607.244145" y1="9393.030143" x2="13783.511008" y2="10099.895162" class="m" style="stroke-width:11.333294;" />
<line x1="12607.244145" y1="9393.030143" x2="12182.670120" y2="9998.817544" class="m" style="stroke-width:15.720059;" />
<line x1="12182.670120" y1="9998.817544" x2="13783.511008" y2="10099.895162" class="m" style="stroke-width:9.731790;" />
<line x1="10439.582877" y1="9608.249097" x2="11501.809345" y2="8403.545996" class="m" style="stroke-width:6.245826;" />
<line x1="11501.809345" y1="8403.545996" x2="9969.131538" y2="9029.748392" class="m" style="stroke-width:7.170170;" />
<line x1="12421.063016" y1="9273.379316" x2="10916.108707" y2="9834.402634" class="m" style="stroke-width:6.245826;" />
<line x1="10916.108707" y1="9834.402634" x2="12146.463861" y2="9960.283081" class="m" style="stroke-width:14.175995;" />
<line x1="12146.463861" y1="9960.283081" x2="12421.063016" y2="9273.379316" class="m" style="stroke-width:15.720059;" />
<line x1="8826.475788" y1="9817.999259" x2="10029.026280" y2="10835.313234" class="m" style="stroke-width:13.001042;" />
<line x1="10029.026280" y1="10835.313234" x2="10439.582877" y2="9608.249097" class="m" style="stroke-width:12.445823;" />
<line x1="7287.587246" y1="11016.753577" x2="7953.958421" y2="10807.413883" class="m" style="stroke-width:16.406353;" />
<line x1="7953.958421" y1="10807.413883" x2="7078.698906" y2="9835.124981" class="m" style="stroke-width:6.529021;" />
<line x1="7078.698906" y1="9835.124981" x2="7287.587246" y2="11016.753577" class="m" style="stroke-width:12.703271;" />
<line x1="7953.958421" y1="10807.413883" x2="8680.373474" y2="9828.430595" class="m" style="stroke-width:13.709405;" />
<line x1="7167.788059" y1="9761.774801" x2="7953.958421" y2="10807.413883" class="m" style="stroke-width:6.529021;" />
<line x1="3936.134868" y1="11018.509037" x2="4880.909616" y2="10326.001426" class="m" style="stroke-width:9.639504;" />
<line x1="4880.909616" y1="10326.001426" x2="3782.740333" y2="10050.077267" class="m" style="stroke-width:13.443055;" />
<line x1="3782.740333" y1="10050.077267" x2="3936.134868" y2="11018.509037" class="m" style="stroke-width:11.799503;" />
<line x1="2239.712881" y1="9999.852399" x2="2869.694327" y2="10658.438422" class="m" style="stroke-width:8.173352;" />
<line x1="2869.694327" y1="10658.438422" x2="3782.740333" y2="10050.077267" class="m" style="stroke-width:11.047293;" />
<line x1="2869.694327" y1="10658.438422" x2="3936.134868" y2="11018.509037" class="m" style="stroke-width:9.691708;" />
<line x1="17066.991793" y1="7951.157245" x2="17139.916156" y2="6296.656737" class="m" style="stroke-width:8.021473;" />
<line x1="17139.916156" y1="6296.656737" x2="16461.431519" y2="7427.687269" class="m" style="stroke-width:11.681199;" />
<line x1="16461.431519" y1="7427.687269" x2="17066.991793" y2="7951.157245" class="m" style="stroke-width:15.701451;" />
<line x1="15779.982576" y1="8810.329164" x2="17066.991793" y2="7951.157245" class="m" style="stroke-width:10.909394;" />
<line x1="12182.670120" y1="9998.817544" x2="13107.547993" y2="10947.131252" class="m" style="stroke-width:9.756947;" />
<line x1="13107.547993" y1="10947.131252" x2="13783.511008" y2="10099.895162" class="m" style="stroke-width:15.206168;" />
<line x1="10916.108707" y1="9834.402634" x2="11359.548331" y2="10735.930756" class="m" style="stroke-width:11.148835;" />
<line x1="11359.548331" y1="10735.930756" x2="12146.463861" y2="9960.283081" class="m" style="stroke-width:10.867327;" />
<line x1="7078.698906" y1="9835.124981" x2="6156.538292" y2="10098.561556" class="m" style="stroke-width:13.357006;" />
<line x1="6156.538292" y1="10098.561556" x2="7287.587246" y2="11016.753577" class="m" style="stroke-width:5.249102;" />
<line x1="6038.533542" y1="10266.944823" x2="4880.909616" y2="10326.001426" class="m" style="stroke-width:13.448119;" />
<line x1="4880.909616" y1="10326.001426" x2="5359.917631" y2="11500.388509" class="m" style="stroke-width:13.304554;" />
<line x1="5359.917631" y1="11500.388509" x2="6038.533542" y2="10266.944823" class="m" style="stroke-width:6.922433;" />
<line x1="757.498930" y1="13598.371619" x2="1722.516387" y2="13868.261777" class="m" style="stroke-width:13.188920;" />
<line x1="1722.516387" y1="13868.261777" x2="1640.470114" y2="12794.157194" class="m" style="stroke-width:8.765169;" />
<line x1="17066.991793" y1="7951.157245" x2="18199.308679" y2="6949.421125" class="m" style="stroke-width:8.396752;" />
<line x1="18199.308679" y1="6949.421125" x2="17139.916156" y2="6296.656737" class="m" style="stroke-width:9.553916;" />
<line x1="17175.837272" y1="15270.742439" x2="16393.886442" y2="13935.406522" class="m" style="stroke-width:10.909394;" />
<line x1="16393.886442" y1="13935.406522" x2="16087.713103" y2="15496.112156" class="m" style="stroke-width:10.204931;" />
<line x1="16087.713103" y1="15496.112156" x2="17175.837272" y2="15270.742439" class="m" style="stroke-width:13.948785;" />
<line x1="16393.886442" y1="13935.406522" x2="14982.377682" y2="14398.360761" class="m" style="stroke-width:12.862370;" />
<line x1="14982.377682" y1="14398.360761" x2="16087.713103" y2="15496.112156" class="m" style="stroke-width:6.743552;" />
<line x1="16393.886442" y1="13935.406522" x2="15605.368438" y2="12955.649327" class="m" style="stroke-width:15.841923;" />
<line x1="15605.368438" y1="12955.649327" x2="14982.377682" y2="14398.360761" class="m" style="stroke-width:11.793282;" />
<line x1="15605.368438" y1="12955.649327" x2="14577.560791" y2="12486.368299" class="m" style="stroke-width:18.837066;" />
<line x1="14577.560791" y1="12486.368299" x2="14982.377682" y2="14398.360761" class="m" style="stroke-width:8.834947;" />
<line x1="12182.168649" y1="11424.778555" x2="13107.547993" y2="10947.131252" class="m" style="stroke-width:14.143111;" />
<line x1="12182.670120" y1="9998.817544" x2="12182.168649" y2="11424.778555" class="m" style="stroke-width:9.222289;" />
<line x1="8858.110167" y1="11289.450813" x2="10029.026280" y2="10835.313234" class="m" style="stroke-width:10.186091;" />
<line x1="8826.475788" y1="9817.999259" x2="8858.110167" y2="11289.450813" class="m" style="stroke-width:7.765475;" />
<line x1="7953.958421" y1="10807.413883" x2="8858.110167" y2="11289.450813" class="m" style="stroke-width:13.244854;" />
<line x1="8858.110167" y1="11289.450813" x2="8680.373474" y2="9828.430595" class="m" style="stroke-width:7.765475;" />
<line x1="3936.134868" y1="11018.509037" x2="5359.917631" y2="11500.388509" class="m" style="stroke-width:10.758344;" />
<line x1="3412.814404" y1="13348.321072" x2="3899.821679" y2="11959.352931" class="m" style="stroke-width:11.728870;" />
<line x1="3899.821679" y1="11959.352931" x2="2815.450452" y2="12261.156371" class="m" style="stroke-width:9.691708;" />
<line x1="2815.450452" y1="12261.156371" x2="3412.814404" y2="13348.321072" class="v" style="stroke-width:7.113345;" />
<line x1="1919.038795" y1="12096.662257" x2="2614.644609" y2="12939.263083" class="m" style="stroke-width:11.954663;" />
<line x1="2614.644609" y1="12939.263083" x2="2815.450452" y2="12261.156371" class="m" style="stroke-width:14.450358;" />
<line x1="2815.450452" y1="12261.156371" x2="1919.038795" y2="12096.662257" class="m" style="stroke-width:8.173352;" />
<line x1="2614.644609" y1="12939.263083" x2="3412.814404" y2="13348.321072" class="m" style="stroke-width:13.704790;" />
<line x1="6985.317035" y1="20894.067222" x2="7814.221847" y2="19965.988196" class="m" style="stroke-width:9.553916;" />
<line x1="7814.221847" y1="19965.988196" x2="6828.495915" y2="19904.367001" class="v" style="stroke-width:8.489196;" />
<line x1="6828.495915" y1="19904.367001" x2="6985.317035" y2="20894.067222" class="m" style="stroke-width:13.188920;" />
<line x1="9888.528898" y1="19625.186150" x2="9063.663168" y2="20056.446743" class="m" style="stroke-width:10.745845;" />
<line x1="9063.663168" y1="20056.446743" x2="10475.298726" y2="20597.650805" class="m" style="stroke-width:8.396752;" />
<line x1="10475.298726" y1="20597.650805" x2="9888.528898" y2="19625.186150" class="m" style="stroke-width:12.206468;" />
<line x1="13445.734191" y1="13817.403275" x2="14982.377682" y2="14398.360761" class="v" style="stroke-width:6.313730;" />
<line x1="14577.560791" y1="12486.368299" x2="13445.734191" y2="13817.403275" class="m" style="stroke-width:9.840774;" />
<line x1="14577.560791" y1="12486.368299" x2="13495.523610" y2="12549.062217" class="m" style="stroke-width:15.206168;" />
<line x1="13495.523610" y1="12549.062217" x2="13445.734191" y2="13817.403275" class="m" style="stroke-width:12.486443;" />
<line x1="11359.548331" y1="10735.930756" x2="12182.168649" y2="11424.778555" class="m" style="stroke-width:5.906233;" />
<line x1="12182.670120" y1="9998.817544" x2="11359.548331" y2="10735.930756" class="m" style="stroke-width:10.867327;" />
<line x1="10916.108707" y1="9834.402634" x2="10159.504892" y2="10884.066286" class="m" style="stroke-width:12.445823;" />
<line x1="10159.504892" y1="10884.066286" x2="11359.548331" y2="10735.930756" class="m" style="stroke-width:6.859643;" />
<line x1="8858.110167" y1="11289.450813" x2="9696.649049" y2="11923.837579" class="m" style="stroke-width:12.888423;" />
<line x1="9696.649049" y1="11923.837579" x2="10029.026280" y2="10835.313234" class="m" style="stroke-width:11.741356;" />
<line x1="3899.821679" y1="11959.352931" x2="4937.122740" y2="12817.712703" class="m" style="stroke-width:9.736575;" />
<line x1="4937.122740" y1="12817.712703" x2="5389.473613" y2="11758.598617" class="m" style="stroke-width:13.298684;" />
<line x1="5389.473613" y1="11758.598617" x2="3899.821679" y2="11959.352931" class="m" style="stroke-width:10.758344;" />
<line x1="3412.814404" y1="13348.321072" x2="4937.122740" y2="12817.712703" class="m" style="stroke-width:9.400927;" />
<line x1="16087.713103" y1="15496.112156" x2="16975.633650" y2="16388.733872" class="m" style="stroke-width:9.822328;" />
<line x1="16975.633650" y1="16388.733872" x2="17175.837272" y2="15270.742439" class="m" style="stroke-width:12.206468;" />
<line x1="12485.500336" y1="12295.434809" x2="12159.836003" y2="13326.189105" class="m" style="stroke-width:9.581459;" />
<line x1="12159.836003" y1="13326.189105" x2="13495.523610" y2="12549.062217" class="m" style="stroke-width:6.520923;" />
<line x1="13495.523610" y1="12549.062217" x2="12485.500336" y2="12295.434809" class="m" style="stroke-width:14.143111;" />
<line x1="7503.985069" y1="12309.478401" x2="8858.110167" y2="11289.450813" class="m" style="stroke-width:9.791028;" />
<line x1="7953.958421" y1="10807.413883" x2="7503.985069" y2="12309.478401" class="m" style="stroke-width:6.439772;" />
<line x1="4633.387685" y1="14105.078047" x2="4937.122740" y2="12817.712703" class="m" style="stroke-width:11.809435;" />
<line x1="4937.122740" y1="12817.712703" x2="3480.927012" y2="13513.812657" class="m" style="stroke-width:9.400927;" />
<line x1="3480.927012" y1="13513.812657" x2="4633.387685" y2="14105.078047" class="m" style="stroke-width:12.096383;" />
<line x1="9888.528898" y1="19625.186150" x2="9222.172236" y2="18789.287332" class="m" style="stroke-width:12.753072;" />
<line x1="9222.172236" y1="18789.287332" x2="9063.663168" y2="20056.446743" class="v" style="stroke-width:20.972077;" />
<line x1="11624.517423" y1="17858.754935" x2="11916.697966" y2="19242.958265" class="m" style="stroke-width:8.072297;" />
<line x1="11916.697966" y1="19242.958265" x2="12953.535496" y2="18528.714356" class="m" style="stroke-width:9.822328;" />
<line x1="12953.535496" y1="18528.714356" x2="11624.517423" y2="17858.754935" class="v" style="stroke-width:7.134713;" />
<line x1="12159.836003" y1="13326.189105" x2="13445.734191" y2="13817.403275" class="m" style="stroke-width:11.983798;" />
<line x1="7503.985069" y1="12309.478401" x2="8947.217901" y2="12807.304519" class="m" style="stroke-width:13.045933;" />
<line x1="8947.217901" y1="12807.304519" x2="8858.110167" y2="11289.450813" class="m" style="stroke-width:6.477577;" />
<line x1="8947.217901" y1="12807.304519" x2="9696.649049" y2="11923.837579" class="m" style="stroke-width:12.226806;" />
<line x1="4633.387685" y1="14105.078047" x2="6288.404751" y2="13301.946257" class="m" style="stroke-width:11.358864;" />
<line x1="6288.404751" y1="13301.946257" x2="4937.122740" y2="12817.712703" class="m" style="stroke-width:11.758188;" />
<line x1="10404.199104" y1="18307.812792" x2="9222.172236" y2="18789.287332" class="m" style="stroke-width:13.541873;" />
<line x1="9888.528898" y1="19625.186150" x2="10404.199104" y2="18307.812792" class="m" style="stroke-width:8.072297;" />
<line x1="13390.963599" y1="13941.940965" x2="12159.836003" y2="13326.189105" class="m" style="stroke-width:11.983798;" />
<line x1="12159.836003" y1="13326.189105" x2="12227.981097" y2="14435.273129" class="m" style="stroke-width:8.524228;" />
<line x1="12227.981097" y1="14435.273129" x2="13390.963599" y2="13941.940965" class="v" style="stroke-width:6.543969;" />
<line x1="6921.067326" y1="14333.215679" x2="6535.531645" y2="13544.276328" class="m" style="stroke-width:14.875961;" />
<line x1="6535.531645" y1="13544.276328" x2="5513.397111" y2="15073.767471" class="m" style="stroke-width:11.358864;" />
<line x1="5513.397111" y1="15073.767471" x2="6921.067326" y2="14333.215679" class="m" style="stroke-width:6.740357;" />
<line x1="8790.507166" y1="17876.782597" x2="9222.172236" y2="18789.287332" class="m" style="stroke-width:14.650835;" />
<line x1="10404.199104" y1="18307.812792" x2="8790.507166" y2="17876.782597" class="m" style="stroke-width:7.931836;" />
<line x1="12159.836003" y1="13326.189105" x2="11450.815002" y2="13624.854807" class="m" style="stroke-width:12.788746;" />
<line x1="11450.815002" y1="13624.854807" x2="12227.981097" y2="14435.273129" class="m" style="stroke-width:11.763114;" />
<line x1="9313.538275" y1="13745.113074" x2="8947.217901" y2="12807.304519" class="m" style="stroke-width:15.956174;" />
<line x1="8947.217901" y1="12807.304519" x2="7841.053661" y2="13684.805634" class="m" style="stroke-width:10.449882;" />
<line x1="7841.053661" y1="13684.805634" x2="9313.538275" y2="13745.113074" class="m" style="stroke-width:9.116723;" />
<line x1="7382.765118" y1="15933.663302" x2="7258.618677" y2="14664.779813" class="m" style="stroke-width:12.273378;" />
<line x1="7258.618677" y1="14664.779813" x2="6172.697357" y2="15826.987745" class="m" style="stroke-width:6.740357;" />
<line x1="6172.697357" y1="15826.987745" x2="7382.765118" y2="15933.663302" class="m" style="stroke-width:10.647384;" />
<line x1="10404.199104" y1="18307.812792" x2="10100.148739" y2="16999.132264" class="m" style="stroke-width:8.930404;" />
<line x1="10100.148739" y1="16999.132264" x2="8790.507166" y2="17876.782597" class="m" style="stroke-width:13.460533;" />
<line x1="11450.815002" y1="13624.854807" x2="10277.279185" y2="14028.031887" class="m" style="stroke-width:10.967568;" />
<line x1="10277.279185" y1="14028.031887" x2="11218.346618" y2="15467.556237" class="m" style="stroke-width:9.849054;" />
<line x1="11218.346618" y1="15467.556237" x2="11450.815002" y2="13624.854807" class="m" style="stroke-width:9.946025;" />
<line x1="11218.346618" y1="15467.556237" x2="12075.084355" y2="14558.156885" class="m" style="stroke-width:8.566095;" />
<line x1="12075.084355" y1="14558.156885" x2="11450.815002" y2="13624.854807" class="m" style="stroke-width:11.763114;" />
<line x1="7841.053661" y1="13684.805634" x2="8386.676359" y2="14715.829732" class="m" style="stroke-width:12.786793;" />
<line x1="8386.676359" y1="14715.829732" x2="9313.538275" y2="13745.113074" class="m" style="stroke-width:10.211393;" />
<line x1="7841.053661" y1="13684.805634" x2="7258.618677" y2="14664.779813" class="m" style="stroke-width:6.727737;" />
<line x1="7258.618677" y1="14664.779813" x2="8386.676359" y2="14715.829732" class="m" style="stroke-width:11.538562;" />
<line x1="7382.765118" y1="15933.663302" x2="8386.676359" y2="14715.829732" class="m" style="stroke-width:7.535801;" />
<line x1="8522.944522" y1="17849.610345" x2="8817.453125" y2="16280.529873" class="m" style="stroke-width:12.064852;" />
<line x1="8817.453125" y1="16280.529873" x2="7869.244360" y2="16262.967180" class="m" style="stroke-width:15.044113;" />
<line x1="7869.244360" y1="16262.967180" x2="8522.944522" y2="17849.610345" class="v" style="stroke-width:7.552170;" />
<line x1="9313.538275" y1="13745.113074" x2="8511.554564" y2="14821.303563" class="m" style="stroke-width:10.211393;" />
<line x1="8511.554564" y1="14821.303563" x2="9595.848486" y2="15201.898485" class="m" style="stroke-width:14.064150;" />
<line x1="9595.848486" y1="15201.898485" x2="9313.538275" y2="13745.113074" class="m" style="stroke-width:7.985829;" />
<line x1="10100.148739" y1="16999.132264" x2="8817.453125" y2="16280.529873" class="m" style="stroke-width:12.541326;" />
<line x1="8817.453125" y1="16280.529873" x2="8790.507166" y2="17876.782597" class="m" style="stroke-width:12.064852;" />
<line x1="10277.279185" y1="14028.031887" x2="9732.902636" y2="15271.400200" class="m" style="stroke-width:13.024805;" />
<line x1="9732.902636" y1="15271.400200" x2="11218.346618" y2="15467.556237" class="m" style="stroke-width:14.410980;" />
<line x1="9595.848486" y1="15201.898485" x2="10277.279185" y2="14028.031887" class="m" style="stroke-width:13.024805;" />
<line x1="10277.279185" y1="14028.031887" x2="9313.538275" y2="13745.113074" class="m" style="stroke-width:16.509629;" />
<line x1="8817.453125" y1="16280.529873" x2="9595.848486" y2="15201.898485" class="m" style="stroke-width:13.951824;" />
<line x1="8511.554564" y1="14821.303563" x2="8817.453125" y2="16280.529873" class="m" style="stroke-width:9.299553;" />
<line x1="8511.554564" y1="14821.303563" x2="7869.244360" y2="16262.967180" class="m" style="stroke-width:7.535801;" />
<line x1="10100.148739" y1="16999.132264" x2="9595.848486" y2="15201.898485" class="m" style="stroke-width:7.117864;" />
<line x1="10761.351026" y1="16829.174867" x2="11218.346618" y2="15467.556237" class="m" style="stroke-width:10.576022;" />
<line x1="9732.902636" y1="15271.400200" x2="10761.351026" y2="16829.174867" class="m" style="stroke-width:7.117864;" />
<line x1="8475.925309" y1="8337.048383" x2="10494.839074" y2="8713.271677" class="m" style="stroke-width:33.138694;" />
<line x1="10494.839074" y1="8713.271677" x2="9737.263294" y2="8476.270559" class="v" style="stroke-width:24.445292;" />
<line x1="9737.263294" y1="8476.270559" x2="8475.925309" y2="8337.048383" class="v" style="stroke-width:62.358229;" />
<line x1="8475.925309" y1="8337.048383" x2="8565.649628" y2="8697.573768" class="m" style="stroke-width:9.927478;" />
<line x1="8565.649628" y1="8697.573768" x2="10494.839074" y2="8713.271677" class="v" style="stroke-width:6.031203;" />
<line x1="9969.131538" y1="9029.748392" x2="10494.839074" y2="8713.271677" class="m" style="stroke-width:19.798228;" />
<line x1="8565.649628" y1="8697.573768" x2="9969.131538" y2="9029.748392" class="m" style="stroke-width:21.121676;" />
<line x1="8117.021381" y1="9176.446058" x2="7797.065117" y2="8987.615459" class="m" style="stroke-width:9.927478;" />
<line x1="7797.065117" y1="8987.615459" x2="6571.762889" y2="8991.346406" class="m" style="stroke-width:18.018695;" />
<line x1="6877.012909" y1="8637.399138" x2="6571.762889" y2="8991.346406" class="v" style="stroke-width:8.559964;" />
<line x1="7797.065117" y1="8987.615459" x2="6877.012909" y2="8637.399138" class="v" style="stroke-width:29.456282;" />
<line x1="6877.012909" y1="8637.399138" x2="5922.045233" y2="7860.968144" class="v" style="stroke-width:43.368493;" />
<line x1="5922.045233" y1="7860.968144" x2="6571.762889" y2="8991.346406" class="v" style="stroke-width:8.254473;" />
<line x1="12399.671120" y1="1710.906450" x2="12805.355181" y2="1527.715443" class="v" style="stroke-width:8.912314;" />
<line x1="11470.024894" y1="796.769730" x2="12399.671120" y2="1710.906450" class="v" style="stroke-width:8.254473;" />
<line x1="13451.239967" y1="2531.391983" x2="13426.658173" y2="3454.619357" class="v" style="stroke-width:6.959317;" />
<line x1="13426.658173" y1="3454.619357" x2="13922.156243" y2="4082.192994" class="v" style="stroke-width:10.201005;" />
<line x1="13426.658173" y1="3454.619357" x2="13209.927910" y2="5427.862376" class="v" style="stroke-width:46.582274;" />
<line x1="12816.512692" y1="6223.572418" x2="13287.648717" y2="5832.502817" class="m" style="stroke-width:28.890067;" />
<line x1="13287.648717" y1="5832.502817" x2="13007.992475" y2="5676.433156" class="v" style="stroke-width:30.639584;" />
<line x1="13007.992475" y1="5676.433156" x2="12816.512692" y2="6223.572418" class="v" style="stroke-width:28.106876;" />
<line x1="11783.176146" y1="6540.475043" x2="11943.665006" y2="7436.263497" class="v" style="stroke-width:7.189749;" />
<line x1="11943.665006" y1="7436.263497" x2="11961.708916" y2="5758.123272" class="m" style="stroke-width:23.317861;" />
<line x1="11961.708916" y1="5758.123272" x2="11783.176146" y2="6540.475043" class="v" style="stroke-width:50.421833;" />
<line x1="15152.748602" y1="8448.984973" x2="13653.618260" y2="9203.364464" class="m" style="stroke-width:23.317861;" />
<line x1="11783.176146" y1="6540.475043" x2="11657.336566" y2="7333.454746" class="v" style="stroke-width:48.951901;" />
<line x1="11657.336566" y1="7333.454746" x2="11943.665006" y2="7436.263497" class="v" style="stroke-width:9.054767;" />
<line x1="11943.665006" y1="7436.263497" x2="10494.839074" y2="8713.271677" class="m" style="stroke-width:14.477976;" />
<line x1="10494.839074" y1="8713.271677" x2="11501.809345" y2="8403.545996" class="m" style="stroke-width:18.720102;" />
<line x1="11501.809345" y1="8403.545996" x2="11943.665006" y2="7436.263497" class="m" style="stroke-width:21.148821;" />
<line x1="11657.336566" y1="7333.454746" x2="10494.839074" y2="8713.271677" class="m" style="stroke-width:12.333063;" />
<line x1="11657.336566" y1="7333.454746" x2="10665.965520" y2="8314.844326" class="v" style="stroke-width:58.336789;" />
<line x1="10665.965520" y1="8314.844326" x2="10494.839074" y2="8713.271677" class="v" style="stroke-width:14.111783;" />
<line x1="9737.263294" y1="8476.270559" x2="9116.088042" y2="7722.376963" class="v" style="stroke-width:6.165247;" />
<line x1="9116.088042" y1="7722.376963" x2="8475.925309" y2="8337.048383" class="m" style="stroke-width:31.675529;" />
<line x1="9116.088042" y1="7722.376963" x2="7598.506636" y2="7890.636010" class="v" style="stroke-width:23.529319;" />
<line x1="7598.506636" y1="7890.636010" x2="8475.925309" y2="8337.048383" class="v" style="stroke-width:29.456282;" />
<line x1="12399.671120" y1="1710.906450" x2="12936.360697" y2="2602.707245" class="v" style="stroke-width:46.892504;" />
<line x1="12936.360697" y1="2602.707245" x2="12805.355181" y2="1527.715443" class="m" style="stroke-width:5.251484;" />
<line x1="12936.360697" y1="2602.707245" x2="13425.686955" y2="2778.053593" class="v" style="stroke-width:8.037046;" />
<line x1="12936.360697" y1="2602.707245" x2="13426.658173" y2="3454.619357" class="v" style="stroke-width:45.863227;" />
<line x1="13451.239967" y1="2531.391983" x2="12936.360697" y2="2602.707245" class="v" style="stroke-width:8.037046;" />
<line x1="10665.965520" y1="8314.844326" x2="9731.325515" y2="8496.159638" class="v" style="stroke-width:47.865295;" />
<line x1="9731.325515" y1="8496.159638" x2="10494.839074" y2="8713.271677" class="v" style="stroke-width:24.445292;" />
<line x1="7379.654976" y1="6317.012587" x2="6509.446224" y2="7317.263730" class="m" style="stroke-width:13.764248;" />
<line x1="6509.446224" y1="7317.263730" x2="7598.506636" y2="7890.636010" class="v" style="stroke-width:43.368493;" />
<line x1="7598.506636" y1="7890.636010" x2="7379.654976" y2="6317.012587" class="m" style="stroke-width:9.218891;" />
<line x1="9116.088042" y1="7722.376963" x2="8375.854857" y2="6832.271347" class="m" style="stroke-width:11.776368;" />
<line x1="8375.854857" y1="6832.271347" x2="7598.506636" y2="7890.636010" class="m" style="stroke-width:19.213925;" />
<line x1="11892.515824" y1="2643.701462" x2="11136.038885" y2="2345.476661" class="m" style="stroke-width:18.743362;" />
<line x1="11136.038885" y1="2345.476661" x2="12209.854842" y2="3354.660611" class="v" style="stroke-width:14.831078;" />
<line x1="12209.854842" y1="3354.660611" x2="11892.515824" y2="2643.701462" class="m" style="stroke-width:18.871380;" />
<line x1="11136.038885" y1="2345.476661" x2="11114.589093" y2="3214.174305" class="m" style="stroke-width:24.510501;" />
<line x1="11114.589093" y1="3214.174305" x2="12209.854842" y2="3354.660611" class="m" style="stroke-width:20.762757;" />
<line x1="11892.515824" y1="2643.701462" x2="12936.360697" y2="2602.707245" class="m" style="stroke-width:8.858410;" />
<line x1="12399.671120" y1="1710.906450" x2="11892.515824" y2="2643.701462" class="m" style="stroke-width:12.639466;" />
<line x1="7356.612876" y1="5448.355720" x2="7379.654976" y2="6317.012587" class="m" style="stroke-width:24.510501;" />
<line x1="7379.654976" y1="6317.012587" x2="8375.854857" y2="6832.271347" class="m" style="stroke-width:20.104266;" />
<line x1="8375.854857" y1="6832.271347" x2="7356.612876" y2="5448.355720" class="m" style="stroke-width:5.931943;" />
<line x1="10852.745729" y1="6798.583009" x2="9047.271409" y2="6592.673669" class="m" style="stroke-width:24.000257;" />
<line x1="9047.271409" y1="6592.673669" x2="10155.272505" y2="7544.563877" class="m" style="stroke-width:13.539587;" />
<line x1="10155.272505" y1="7544.563877" x2="10852.745729" y2="6798.583009" class="m" style="stroke-width:18.417911;" />
<line x1="9047.271409" y1="6592.673669" x2="9116.088042" y2="7722.376963" class="m" style="stroke-width:13.981414;" />
<line x1="9116.088042" y1="7722.376963" x2="10155.272505" y2="7544.563877" class="m" style="stroke-width:12.104453;" />
<line x1="8844.578224" y1="3588.241943" x2="8679.387414" y2="4680.054866" class="m" style="stroke-width:20.762757;" />
<line x1="8679.387414" y1="4680.054866" x2="10141.601754" y2="3731.678612" class="m" style="stroke-width:23.434933;" />
<line x1="10141.601754" y1="3731.678612" x2="8844.578224" y2="3588.241943" class="m" style="stroke-width:12.077220;" />
<line x1="12404.225362" y1="4645.034285" x2="12908.513470" y2="4083.388122" class="m" style="stroke-width:18.897918;" />
<line x1="12908.513470" y1="4083.388122" x2="12209.854842" y2="3354.660611" class="m" style="stroke-width:13.284918;" />
<line x1="12209.854842" y1="3354.660611" x2="12404.225362" y2="4645.034285" class="m" style="stroke-width:12.077220;" />
<line x1="10357.455865" y1="3885.189166" x2="11482.286098" y2="4295.803290" class="m" style="stroke-width:19.495093;" />
<line x1="11482.286098" y1="4295.803290" x2="10724.284114" y2="3225.499888" class="m" style="stroke-width:7.009632;" />
<line x1="10724.284114" y1="3225.499888" x2="10357.455865" y2="3885.189166" class="m" style="stroke-width:18.897918;" />
<line x1="11682.887351" y1="5930.671446" x2="12139.389516" y2="4622.520470" class="m" style="stroke-width:5.298275;" />
<line x1="12139.389516" y1="4622.520470" x2="11318.860361" y2="5448.641715" class="m" style="stroke-width:19.944818;" />
<line x1="11318.860361" y1="5448.641715" x2="11682.887351" y2="5930.671446" class="m" style="stroke-width:22.563842;" />
<line x1="11318.860361" y1="5448.641715" x2="10985.589083" y2="6881.293320" class="m" style="stroke-width:12.071551;" />
<line x1="10985.589083" y1="6881.293320" x2="11682.887351" y2="5930.671446" class="m" style="stroke-width:14.817318;" />
<line x1="9869.359430" y1="6970.229424" x2="10408.407176" y2="7494.319615" class="m" style="stroke-width:15.260179;" />
<line x1="10408.407176" y1="7494.319615" x2="10985.589083" y2="6881.293320" class="m" style="stroke-width:14.121656;" />
<line x1="10985.589083" y1="6881.293320" x2="9869.359430" y2="6970.229424" class="m" style="stroke-width:19.451109;" />
<line x1="10664.890567" y1="6784.081461" x2="9931.511306" y2="7494.793226" class="m" style="stroke-width:18.417911;" />
<line x1="9931.511306" y1="7494.793226" x2="10917.117439" y2="7492.336080" class="m" style="stroke-width:8.876148;" />
<line x1="10917.117439" y1="7492.336080" x2="10664.890567" y2="6784.081461" class="m" style="stroke-width:15.260179;" />
<line x1="13426.658173" y1="3454.619357" x2="12209.854842" y2="3354.660611" class="m" style="stroke-width:7.921673;" />
<line x1="12908.513470" y1="4083.388122" x2="13426.658173" y2="3454.619357" class="m" style="stroke-width:18.975955;" />
<line x1="12936.360697" y1="2602.707245" x2="12209.854842" y2="3354.660611" class="m" style="stroke-width:14.233640;" />
<line x1="12621.311118" y1="4983.865126" x2="13209.927910" y2="5427.862376" class="m" style="stroke-width:49.170864;" />
<line x1="13209.927910" y1="5427.862376" x2="12641.574322" y2="3672.489596" class="m" style="stroke-width:10.767456;" />
<line x1="12641.574322" y1="3672.489596" x2="12621.311118" y2="4983.865126" class="m" style="stroke-width:7.009632;" />
<line x1="13426.658173" y1="3454.619357" x2="12641.574322" y2="3672.489596" class="m" style="stroke-width:18.975955;" />
<line x1="12621.311118" y1="4983.865126" x2="13007.992475" y2="5676.433156" class="v" style="stroke-width:34.470655;" />
<line x1="13007.992475" y1="5676.433156" x2="13209.927910" y2="5427.862376" class="v" style="stroke-width:30.639584;" />
<line x1="12621.311118" y1="4983.865126" x2="11941.348417" y2="6191.053566" class="m" style="stroke-width:5.298275;" />
<line x1="11941.348417" y1="6191.053566" x2="13007.992475" y2="5676.433156" class="v" style="stroke-width:27.734719;" />
<line x1="11941.348417" y1="6191.053566" x2="12816.512692" y2="6223.572418" class="m" style="stroke-width:40.595750;" />
<line x1="11941.348417" y1="6191.053566" x2="12251.226918" y2="6793.133861" class="v" style="stroke-width:6.509436;" />
<line x1="12251.226918" y1="6793.133861" x2="12816.512692" y2="6223.572418" class="v" style="stroke-width:50.421833;" />
<line x1="11941.348417" y1="6191.053566" x2="11657.336566" y2="7333.454746" class="m" style="stroke-width:8.155910;" />
<line x1="11657.336566" y1="7333.454746" x2="12251.226918" y2="6793.133861" class="v" style="stroke-width:48.951901;" />
<line x1="11941.348417" y1="6191.053566" x2="10985.589083" y2="6881.293320" class="m" style="stroke-width:14.817318;" />
<line x1="10985.589083" y1="6881.293320" x2="11657.336566" y2="7333.454746" class="m" style="stroke-width:17.928362;" />
<line x1="10408.407176" y1="7494.319615" x2="10665.965520" y2="8314.844326" class="m" style="stroke-width:17.138419;" />
<line x1="11657.336566" y1="7333.454746" x2="10408.407176" y2="7494.319615" class="m" style="stroke-width:6.712497;" />
<line x1="10665.965520" y1="8314.844326" x2="10917.117439" y2="7492.336080" class="m" style="stroke-width:17.138419;" />
<line x1="9931.511306" y1="7494.793226" x2="10665.965520" y2="8314.844326" class="m" style="stroke-width:9.980482;" />
<line x1="9931.511306" y1="7494.793226" x2="9731.325515" y2="8496.159638" class="m" style="stroke-width:14.741924;" />
<line x1="9737.263294" y1="8476.270559" x2="10155.272505" y2="7544.563877" class="m" style="stroke-width:14.741924;" />
<line x1="9211.122540" y1="6594.576580" x2="8375.854857" y2="6832.271347" class="m" style="stroke-width:23.459406;" />
<line x1="9116.088042" y1="7722.376963" x2="9211.122540" y2="6594.576580" class="m" style="stroke-width:13.981414;" />
<line x1="7379.654976" y1="6317.012587" x2="6568.720818" y2="6257.169606" class="m" style="stroke-width:18.743362;" />
<line x1="6568.720818" y1="6257.169606" x2="6509.446224" y2="7317.263730" class="m" style="stroke-width:12.639466;" />
<line x1="11318.860361" y1="5448.641715" x2="9869.359430" y2="6970.229424" class="m" style="stroke-width:17.887077;" />
<line x1="9211.122540" y1="6594.576580" x2="7858.434061" y2="5193.261768" class="m" style="stroke-width:22.124049;" />
<line x1="7858.434061" y1="5193.261768" x2="8375.854857" y2="6832.271347" class="m" style="stroke-width:5.931943;" />
<line x1="11318.860361" y1="5448.641715" x2="9695.143246" y2="5325.791144" class="m" style="stroke-width:9.462445;" />
<line x1="9695.143246" y1="5325.791144" x2="9869.359430" y2="6970.229424" class="m" style="stroke-width:10.794893;" />
<line x1="10357.455865" y1="3885.189166" x2="11318.860361" y2="5448.641715" class="m" style="stroke-width:19.686931;" />
<line x1="11318.860361" y1="5448.641715" x2="11482.286098" y2="4295.803290" class="m" style="stroke-width:19.944818;" />
<line x1="10357.455865" y1="3885.189166" x2="9695.143246" y2="5325.791144" class="m" style="stroke-width:9.218597;" />
<line x1="10852.745729" y1="6798.583009" x2="10118.153545" y2="5317.062554" class="m" style="stroke-width:10.794893;" />
<line x1="10118.153545" y1="5317.062554" x2="9047.271409" y2="6592.673669" class="m" style="stroke-width:8.411834;" />
<line x1="10118.153545" y1="5317.062554" x2="8679.387414" y2="4680.054866" class="m" style="stroke-width:10.373624;" />
<line x1="8679.387414" y1="4680.054866" x2="9047.271409" y2="6592.673669" class="m" style="stroke-width:22.124049;" />
<line x1="10118.153545" y1="5317.062554" x2="10141.601754" y2="3731.678612" class="m" style="stroke-width:9.218597;" />
<line x1="6288.404751" y1="13301.946257" x2="6348.149988" y2="11518.067249" class="m" style="stroke-width:11.895762;" />
<line x1="6348.149988" y1="11518.067249" x2="5389.473613" y2="11758.598617" class="m" style="stroke-width:17.855532;" />
<line x1="5389.473613" y1="11758.598617" x2="6288.404751" y2="13301.946257" class="m" style="stroke-width:9.216930;" />
<line x1="7503.985069" y1="12309.478401" x2="6535.531645" y2="13544.276328" class="m" style="stroke-width:11.143215;" />
<line x1="6535.531645" y1="13544.276328" x2="7740.949953" y2="13541.147261" class="m" style="stroke-width:13.399620;" />
<line x1="7740.949953" y1="13541.147261" x2="7503.985069" y2="12309.478401" class="m" style="stroke-width:12.192963;" />
<line x1="6288.404751" y1="13301.946257" x2="7503.985069" y2="12309.478401" class="m" style="stroke-width:11.143215;" />
<line x1="7503.985069" y1="12309.478401" x2="6348.149988" y2="11518.067249" class="m" style="stroke-width:12.946619;" />
<line x1="7740.949953" y1="13541.147261" x2="8947.217901" y2="12807.304519" class="m" style="stroke-width:10.449882;" />
<line x1="7287.587246" y1="11016.753577" x2="7503.985069" y2="12309.478401" class="m" style="stroke-width:11.513945;" />
<line x1="7287.587246" y1="11016.753577" x2="6348.149988" y2="11518.067249" class="m" style="stroke-width:16.075268;" />
<line x1="6038.533542" y1="10266.944823" x2="6348.149988" y2="11518.067249" class="m" style="stroke-width:12.945795;" />
<line x1="7287.587246" y1="11016.753577" x2="6038.533542" y2="10266.944823" class="m" style="stroke-width:5.249102;" />
<line x1="5359.917631" y1="11500.388509" x2="6348.149988" y2="11518.067249" class="m" style="stroke-width:17.855532;" />
<line x1="6921.067326" y1="14333.215679" x2="7740.949953" y2="13541.147261" class="m" style="stroke-width:6.727737;" />
<line x1="9696.649049" y1="11923.837579" x2="11292.019717" y2="11825.899039" class="m" style="stroke-width:7.322700;" />
<line x1="11292.019717" y1="11825.899039" x2="10159.504892" y2="10884.066286" class="m" style="stroke-width:14.186439;" />
<line x1="10159.504892" y1="10884.066286" x2="9696.649049" y2="11923.837579" class="m" style="stroke-width:11.741356;" />
<line x1="10545.887619" y1="12770.013186" x2="11292.019717" y2="11825.899039" class="m" style="stroke-width:17.933126;" />
<line x1="9696.649049" y1="11923.837579" x2="10545.887619" y2="12770.013186" class="m" style="stroke-width:13.699351;" />
<line x1="8947.217901" y1="12807.304519" x2="10545.887619" y2="12770.013186" class="m" style="stroke-width:13.360881;" />
<line x1="10277.279185" y1="14028.031887" x2="8947.217901" y2="12807.304519" class="v" style="stroke-width:11.329658;" />
<line x1="10277.279185" y1="14028.031887" x2="10545.887619" y2="12770.013186" class="m" style="stroke-width:15.626281;" />
<line x1="11450.815002" y1="13624.854807" x2="10545.887619" y2="12770.013186" class="m" style="stroke-width:13.253637;" />
<line x1="11450.815002" y1="13624.854807" x2="11532.859127" y2="12081.571559" class="m" style="stroke-width:9.037109;" />
<line x1="11532.859127" y1="12081.571559" x2="10545.887619" y2="12770.013186" class="m" style="stroke-width:17.933126;" />
<line x1="12159.836003" y1="13326.189105" x2="11532.859127" y2="12081.571559" class="m" style="stroke-width:10.017970;" />
<line x1="12485.500336" y1="12295.434809" x2="11532.859127" y2="12081.571559" class="m" style="stroke-width:15.291164;" />
<line x1="11292.019717" y1="11825.899039" x2="12182.168649" y2="11424.778555" class="m" style="stroke-width:15.291164;" />
<line x1="11359.548331" y1="10735.930756" x2="11292.019717" y2="11825.899039" class="m" style="stroke-width:13.819102;" />
<line x1="2826.486510" y1="14558.240293" x2="4633.387685" y2="14105.078047" class="m" style="stroke-width:5.674383;" />
<line x1="3480.927012" y1="13513.812657" x2="2826.486510" y2="14558.240293" class="m" style="stroke-width:12.629101;" />
<line x1="5627.937323" y1="17608.415370" x2="6652.636888" y2="17119.443229" class="m" style="stroke-width:19.394719;" />
<line x1="6652.636888" y1="17119.443229" x2="6172.697357" y2="15826.987745" class="m" style="stroke-width:13.720720;" />
<line x1="6172.697357" y1="15826.987745" x2="5627.937323" y2="17608.415370" class="m" style="stroke-width:5.674383;" />
<line x1="2610.757506" y1="13296.537507" x2="2826.486510" y2="14558.240293" class="m" style="stroke-width:13.996935;" />
<line x1="3480.927012" y1="13513.812657" x2="2610.757506" y2="13296.537507" class="m" style="stroke-width:13.704790;" />
<line x1="6652.636888" y1="17119.443229" x2="7382.765118" y2="15933.663302" class="m" style="stroke-width:14.664250;" />
<line x1="7869.244360" y1="16262.967180" x2="7632.854476" y2="17635.294070" class="m" style="stroke-width:14.664250;" />
<line x1="7632.854476" y1="17635.294070" x2="8522.944522" y2="17849.610345" class="m" style="stroke-width:18.638860;" />
<line x1="7632.854476" y1="17635.294070" x2="7080.145060" y2="18627.067862" class="m" style="stroke-width:19.394719;" />
<line x1="7080.145060" y1="18627.067862" x2="8522.944522" y2="17849.610345" class="m" style="stroke-width:6.392456;" />
<line x1="7080.145060" y1="18627.067862" x2="7947.932505" y2="19478.253189" class="m" style="stroke-width:18.066109;" />
<line x1="7947.932505" y1="19478.253189" x2="8522.944522" y2="17849.610345" class="v" style="stroke-width:5.951363;" />
<line x1="7947.932505" y1="19478.253189" x2="8630.650100" y2="18853.303093" class="m" style="stroke-width:28.649621;" />
<line x1="8630.650100" y1="18853.303093" x2="8522.944522" y2="17849.610345" class="m" style="stroke-width:14.650835;" />
<line x1="7080.145060" y1="18627.067862" x2="6828.495915" y2="19904.367001" class="m" style="stroke-width:8.923100;" />
<line x1="6828.495915" y1="19904.367001" x2="7947.932505" y2="19478.253189" class="m" style="stroke-width:14.018297;" />
<line x1="1722.516387" y1="13868.261777" x2="2826.486510" y2="14558.240293" class="m" style="stroke-width:8.923100;" />
<line x1="2610.757506" y1="13296.537507" x2="1722.516387" y2="13868.261777" class="m" style="stroke-width:9.671370;" />
<line x1="2610.757506" y1="13296.537507" x2="1640.470114" y2="12794.157194" class="m" style="stroke-width:11.954663;" />
<line x1="9222.172236" y1="18789.287332" x2="8810.858429" y2="19618.435623" class="m" style="stroke-width:28.649621;" />
<line x1="8810.858429" y1="19618.435623" x2="9063.663168" y2="20056.446743" class="m" style="stroke-width:23.519701;" />
<line x1="7814.221847" y1="19965.988196" x2="7947.932505" y2="19478.253189" class="m" style="stroke-width:23.519701;" />
<line x1="12224.953844" y1="16318.673390" x2="13781.595009" y2="15954.513409" class="m" style="stroke-width:12.851343;" />
<line x1="13781.595009" y1="15954.513409" x2="12666.416030" y2="15097.484361" class="m" style="stroke-width:12.593686;" />
<line x1="12666.416030" y1="15097.484361" x2="12224.953844" y2="16318.673390" class="m" style="stroke-width:13.317530;" />
<line x1="12666.416030" y1="15097.484361" x2="11218.346618" y2="15467.556237" class="m" style="stroke-width:8.277225;" />
<line x1="11218.346618" y1="15467.556237" x2="12224.953844" y2="16318.673390" class="m" style="stroke-width:15.116123;" />
<line x1="13438.833413" y1="17093.503415" x2="13781.595009" y2="15954.513409" class="m" style="stroke-width:18.680293;" />
<line x1="12224.953844" y1="16318.673390" x2="13438.833413" y2="17093.503415" class="m" style="stroke-width:11.350540;" />
<line x1="12916.694013" y1="14842.976201" x2="14265.755148" y2="15240.665775" class="m" style="stroke-width:12.593686;" />
<line x1="14265.755148" y1="15240.665775" x2="13390.963599" y2="13941.940965" class="m" style="stroke-width:13.448607;" />
<line x1="13390.963599" y1="13941.940965" x2="12916.694013" y2="14842.976201" class="m" style="stroke-width:13.857994;" />
<line x1="12022.945006" y1="16511.720951" x2="11218.346618" y2="15467.556237" class="m" style="stroke-width:15.116123;" />
<line x1="10761.351026" y1="16829.174867" x2="12022.945006" y2="16511.720951" class="m" style="stroke-width:14.454894;" />
<line x1="10761.351026" y1="16829.174867" x2="11624.517423" y2="17858.754935" class="m" style="stroke-width:8.930404;" />
<line x1="11624.517423" y1="17858.754935" x2="12022.945006" y2="16511.720951" class="m" style="stroke-width:11.364893;" />
<line x1="11624.517423" y1="17858.754935" x2="12698.044315" y2="17783.768944" class="m" style="stroke-width:14.874712;" />
<line x1="12698.044315" y1="17783.768944" x2="12022.945006" y2="16511.720951" class="m" style="stroke-width:11.350540;" />
<line x1="12953.535496" y1="18528.714356" x2="12698.044315" y2="17783.768944" class="m" style="stroke-width:18.779445;" />
<line x1="15309.530268" y1="15834.897810" x2="16040.465990" y2="15541.721444" class="m" style="stroke-width:18.779445;" />
<line x1="16040.465990" y1="15541.721444" x2="14982.377682" y2="14398.360761" class="m" style="stroke-width:6.743552;" />
<line x1="14982.377682" y1="14398.360761" x2="15309.530268" y2="15834.897810" class="v" style="stroke-width:8.428445;" />
<line x1="14982.377682" y1="14398.360761" x2="14585.244859" y2="14891.396676" class="m" style="stroke-width:22.249888;" />
<line x1="14585.244859" y1="14891.396676" x2="15309.530268" y2="15834.897810" class="m" style="stroke-width:18.680293;" />
<line x1="13445.734191" y1="13817.403275" x2="14585.244859" y2="14891.396676" class="m" style="stroke-width:13.448607;" />
<line x1="12227.981097" y1="14435.273129" x2="12916.694013" y2="14842.976201" class="m" style="stroke-width:14.273875;" />
<line x1="12666.416030" y1="15097.484361" x2="12075.084355" y2="14558.156885" class="m" style="stroke-width:14.273875;" />
<text x="8446.291623" y="9557.520539" transform="rotate(-130.828893 8446.291623 9557.520539)" fill="darkgreen" font-weight="bold" font-size="363.980000">0</text>
<text x="8651.443013" y="9345.770310" transform="rotate(69.662653 8651.443013 9345.770310)" fill="darkgreen" font-weight="bold" font-size="363.980000">0</text>
<text x="9196.551639" y="8846.894993" transform="rotate(13.315679 9196.551639 8846.894993)" fill="darkgreen" font-weight="bold" font-size="363.980000">2</text>
<text x="9320.860124" y="9020.896835" transform="rotate(-179.217717 9320.860124 9020.896835)" fill="darkgreen" font-weight="bold" font-size="363.980000">2</text>
<text x="11115.264186" y="363.694985" transform="rotate(50.676781 11115.264186 363.694985)" fill="darkgreen" font-weight="bold" font-size="363.980000">5</text>
<text x="6825.232068" y="9318.983329" transform="rotate(52.273448 6825.232068 9318.983329)" fill="darkgreen" font-weight="bold" font-size="363.980000">5</text>
<text x="6757.610313" y="9926.851388" transform="rotate(164.056771 6757.610313 9926.851388)" fill="darkgreen" font-weight="bold" font-size="363.980000">10</text>
<text x="11477.245951" y="15.058524" transform="rotate(177.415397 11477.245951 15.058524)" fill="darkgreen" font-weight="bold" font-size="363.980000">10</text>
<text x="5605.124492" y="10289.055342" transform="rotate(177.079557 5605.124492 10289.055342)" fill="darkgreen" font-weight="bold" font-size="363.980000">12</text>
<text x="12466.752668" y="309.241838" transform="rotate(-154.757620 12466.752668 309.241838)" fill="darkgreen" font-weight="bold" font-size="363.980000">12</text>
<text x="13329.456203" y="1535.077886" transform="rotate(-179.195166 13329.456203 1535.077886)" fill="darkgreen" font-weight="bold" font-size="363.980000">13</text>
<text x="13034.519815" y="1485.786925" transform="rotate(-10.368296 13034.519815 1485.786925)" fill="darkgreen" font-weight="bold" font-size="363.980000">13</text>
<text x="13293.526864" y="1058.235822" transform="rotate(-127.597341 13293.526864 1058.235822)" fill="darkgreen" font-weight="bold" font-size="363.980000">14</text>
<text x="4473.028056" y="10223.517794" transform="rotate(-165.895913 4473.028056 10223.517794)" fill="darkgreen" font-weight="bold" font-size="363.980000">14</text>
<text x="2590.493589" y="9552.272657" transform="rotate(128.086781 2590.493589 9552.272657)" fill="darkgreen" font-weight="bold" font-size="363.980000">17</text>
<text x="14017.174209" y="2475.775758" transform="rotate(174.387367 14017.174209 2475.775758)" fill="darkgreen" font-weight="bold" font-size="363.980000">17</text>
<text x="3391.392778" y="9775.581644" transform="rotate(-144.953736 3391.392778 9775.581644)" fill="darkgreen" font-weight="bold" font-size="363.980000">19</text>
<text x="13478.085260" y="2302.916588" transform="rotate(-83.706823 13478.085260 2302.916588)" fill="darkgreen" font-weight="bold" font-size="363.980000">19</text>
<text x="14075.480199" y="3407.388866" transform="rotate(-77.199009 14075.480199 3407.388866)" fill="darkgreen" font-weight="bold" font-size="363.980000">22</text>
<text x="962.809441" y="12934.317314" transform="rotate(168.314314 962.809441 12934.317314)" fill="darkgreen" font-weight="bold" font-size="363.980000">22</text>
<text x="254.664532" y="13289.755625" transform="rotate(31.539634 254.664532 13289.755625)" fill="darkgreen" font-weight="bold" font-size="363.980000">23</text>
<text x="14477.321042" y="3882.497454" transform="rotate(160.216081 14477.321042 3882.497454)" fill="darkgreen" font-weight="bold" font-size="363.980000">23</text>
<text x="14412.744009" y="4508.392275" transform="rotate(-64.566281 14412.744009 4508.392275)" fill="darkgreen" font-weight="bold" font-size="363.980000">26</text>
<text x="16875.569453" y="6737.321383" transform="rotate(120.958770 16875.569453 6737.321383)" fill="darkgreen" font-weight="bold" font-size="363.980000">26</text>
<text x="16116.220899" y="7621.085792" transform="rotate(150.740986 16116.220899 7621.085792)" fill="darkgreen" font-weight="bold" font-size="363.980000">27</text>
<text x="13568.907191" y="5261.407465" transform="rotate(-24.876657 13568.907191 5261.407465)" fill="darkgreen" font-weight="bold" font-size="363.980000">27</text>
<text x="12940.053513" y="6121.026535" transform="rotate(-39.694593 12940.053513 6121.026535)" fill="darkgreen" font-weight="bold" font-size="363.980000">32</text>
<text x="15421.468482" y="8085.862421" transform="rotate(126.502371 15421.468482 8085.862421)" fill="darkgreen" font-weight="bold" font-size="363.980000">32</text>
<text x="15094.293273" y="9170.262857" transform="rotate(-27.695987 15094.293273 9170.262857)" fill="darkgreen" font-weight="bold" font-size="363.980000">33</text>
<text x="16090.910282" y="13558.949586" transform="rotate(-128.827438 16090.910282 13558.949586)" fill="darkgreen" font-weight="bold" font-size="363.980000">33</text>
<text x="15223.904770" y="12781.478934" transform="rotate(-155.459288 15223.904770 12781.478934)" fill="darkgreen" font-weight="bold" font-size="363.980000">36</text>
<text x="14111.198737" y="9838.226274" transform="rotate(-38.608456 14111.198737 9838.226274)" fill="darkgreen" font-weight="bold" font-size="363.980000">36</text>
<text x="13273.688846" y="9272.230436" transform="rotate(169.726110 13273.688846 9272.230436)" fill="darkgreen" font-weight="bold" font-size="363.980000">39</text>
<text x="11662.243324" y="8052.334064" transform="rotate(-65.449026 11662.243324 8052.334064)" fill="darkgreen" font-weight="bold" font-size="363.980000">39</text>
<text x="12229.719473" y="9752.020992" transform="rotate(-68.210262 12229.719473 9752.020992)" fill="darkgreen" font-weight="bold" font-size="363.980000">41</text>
<text x="12478.517710" y="9576.698593" transform="rotate(125.025188 12478.517710 9576.698593)" fill="darkgreen" font-weight="bold" font-size="363.980000">41</text>
<text x="10874.407365" y="9115.101520" transform="rotate(-48.596310 10874.407365 9115.101520)" fill="darkgreen" font-weight="bold" font-size="363.980000">42</text>
<text x="11805.007018" y="9503.035312" transform="rotate(159.555327 11805.007018 9503.035312)" fill="darkgreen" font-weight="bold" font-size="363.980000">42</text>
<text x="10188.108907" y="10359.849954" transform="rotate(-71.500555 10188.108907 10359.849954)" fill="darkgreen" font-weight="bold" font-size="363.980000">46</text>
<text x="10622.939572" y="10241.126706" transform="rotate(125.784281 10622.939572 10241.126706)" fill="darkgreen" font-weight="bold" font-size="363.980000">46</text>
<text x="7473.379849" y="10168.224514" transform="rotate(53.062090 7473.379849 10168.224514)" fill="darkgreen" font-weight="bold" font-size="363.980000">49</text>
<text x="7613.736843" y="10429.476073" transform="rotate(-131.993700 7613.736843 10429.476073)" fill="darkgreen" font-weight="bold" font-size="363.980000">49</text>
<text x="2510.445561" y="12205.187098" transform="rotate(-169.601735 2510.445561 12205.187098)" fill="darkgreen" font-weight="bold" font-size="363.980000">53</text>
<text x="2454.064648" y="10223.936899" transform="rotate(46.271683 2454.064648 10223.936899)" fill="darkgreen" font-weight="bold" font-size="363.980000">53</text>
<text x="3264.973061" y="10791.899456" transform="rotate(18.656624 3264.973061 10791.899456)" fill="darkgreen" font-weight="bold" font-size="363.980000">55</text>
<text x="3497.896893" y="12071.217097" transform="rotate(164.446982 3497.896893 12071.217097)" fill="darkgreen" font-weight="bold" font-size="363.980000">55</text>
<text x="16858.432283" y="14728.710554" transform="rotate(-120.352534 16858.432283 14728.710554)" fill="darkgreen" font-weight="bold" font-size="363.980000">58</text>
<text x="16302.397965" y="8461.579033" transform="rotate(-33.725980 16302.397965 8461.579033)" fill="darkgreen" font-weight="bold" font-size="363.980000">58</text>
<text x="14181.890429" y="12509.293690" transform="rotate(176.683944 14181.890429 12509.293690)" fill="darkgreen" font-weight="bold" font-size="363.980000">60</text>
<text x="13354.728529" y="10637.321002" transform="rotate(-51.415559 13354.728529 10637.321002)" fill="darkgreen" font-weight="bold" font-size="363.980000">60</text>
<text x="11879.568757" y="10270.247632" transform="rotate(138.155252 11879.568757 10270.247632)" fill="darkgreen" font-weight="bold" font-size="363.980000">62</text>
<text x="11649.317322" y="10450.310972" transform="rotate(-44.586837 11649.317322 10450.310972)" fill="darkgreen" font-weight="bold" font-size="363.980000">62</text>
<text x="6609.028382" y="10465.895604" transform="rotate(39.069888 6609.028382 10465.895604)" fill="darkgreen" font-weight="bold" font-size="363.980000">63</text>
<text x="6787.887900" y="10716.783333" transform="rotate(-149.023537 6787.887900 10716.783333)" fill="darkgreen" font-weight="bold" font-size="363.980000">63</text>
<text x="1099.795934" y="13694.103144" transform="rotate(15.624916 1099.795934 13694.103144)" fill="darkgreen" font-weight="bold" font-size="363.980000">66</text>
<text x="6884.121230" y="20255.419118" transform="rotate(80.996155 6884.121230 20255.419118)" fill="darkgreen" font-weight="bold" font-size="363.980000">66</text>
<text x="17524.105731" y="7546.758487" transform="rotate(-41.498487 17524.105731 7546.758487)" fill="darkgreen" font-weight="bold" font-size="363.980000">68</text>
<text x="9633.537464" y="20274.929681" transform="rotate(20.976221 9633.537464 20274.929681)" fill="darkgreen" font-weight="bold" font-size="363.980000">68</text>
<text x="7302.785764" y="20538.614986" transform="rotate(-48.230671 7302.785764 20538.614986)" fill="darkgreen" font-weight="bold" font-size="363.980000">69</text>
<text x="17793.563662" y="6699.413793" transform="rotate(-148.359921 17793.563662 6699.413793)" fill="darkgreen" font-weight="bold" font-size="363.980000">69</text>
<text x="15431.742517" y="14844.642373" transform="rotate(44.802760 15431.742517 14844.642373)" fill="darkgreen" font-weight="bold" font-size="363.980000">72</text>
<text x="15610.309072" y="15076.897759" transform="rotate(-132.781769 15610.309072 15076.897759)" fill="darkgreen" font-weight="bold" font-size="363.980000">72</text>
<text x="13131.719987" y="12457.707322" transform="rotate(-165.903881 13131.719987 12457.707322)" fill="darkgreen" font-weight="bold" font-size="363.980000">76</text>
<text x="12515.484094" y="11252.733194" transform="rotate(-27.301143 12515.484094 11252.733194)" fill="darkgreen" font-weight="bold" font-size="363.980000">76</text>
<text x="8839.163654" y="10408.166670" transform="rotate(88.768397 8839.163654 10408.166670)" fill="darkgreen" font-weight="bold" font-size="363.980000">78</text>
<text x="8786.823822" y="10703.467185" transform="rotate(-96.936084 8786.823822 10703.467185)" fill="darkgreen" font-weight="bold" font-size="363.980000">78</text>
<text x="4510.118705" y="11212.773945" transform="rotate(18.698396 4510.118705 11212.773945)" fill="darkgreen" font-weight="bold" font-size="363.980000">81</text>
<text x="4788.935277" y="11839.530718" transform="rotate(172.324715 4788.935277 11839.530718)" fill="darkgreen" font-weight="bold" font-size="363.980000">81</text>
<text x="2254.903586" y="13112.289000" transform="rotate(-152.626477 2254.903586 13112.289000)" fill="darkgreen" font-weight="bold" font-size="363.980000">85</text>
<text x="2174.152958" y="12405.686995" transform="rotate(50.458754 2174.152958 12405.686995)" fill="darkgreen" font-weight="bold" font-size="363.980000">85</text>
<text x="3187.097447" y="13440.445500" transform="rotate(-165.980309 3187.097447 13440.445500)" fill="darkgreen" font-weight="bold" font-size="363.980000">86</text>
<text x="2884.162079" y="13077.389426" transform="rotate(27.134909 2884.162079 13077.389426)" fill="darkgreen" font-weight="bold" font-size="363.980000">86</text>
<text x="10257.130245" y="20236.076084" transform="rotate(-121.106112 10257.130245 20236.076084)" fill="darkgreen" font-weight="bold" font-size="363.980000">88</text>
<text x="17050.071902" y="15973.050444" transform="rotate(-79.847400 17050.071902 15973.050444)" fill="darkgreen" font-weight="bold" font-size="363.980000">88</text>
<text x="9987.286014" y="11270.943212" transform="rotate(113.996307 9987.286014 11270.943212)" fill="darkgreen" font-weight="bold" font-size="363.980000">96</text>
<text x="9820.319593" y="11518.820672" transform="rotate(-73.020122 9820.319593 11518.820672)" fill="darkgreen" font-weight="bold" font-size="363.980000">96</text>
<text x="4037.468991" y="13130.880188" transform="rotate(-19.192893 4037.468991 13130.880188)" fill="darkgreen" font-weight="bold" font-size="363.980000">99</text>
<text x="4340.380389" y="13102.971281" transform="rotate(154.450962 4340.380389 13102.971281)" fill="darkgreen" font-weight="bold" font-size="363.980000">99</text>
<text x="16377.658003" y="15787.592193" transform="rotate(45.151275 16377.658003 15787.592193)" fill="darkgreen" font-weight="bold" font-size="363.980000">100</text>
<text x="12255.270775" y="19009.726385" transform="rotate(-34.561700 12255.270775 19009.726385)" fill="darkgreen" font-weight="bold" font-size="363.980000">100</text>
<text x="10066.759957" y="19169.862483" transform="rotate(-68.622725 10066.759957 19169.862483)" fill="darkgreen" font-weight="bold" font-size="363.980000">110</text>
<text x="11725.503765" y="18337.177040" transform="rotate(78.080849 11725.503765 18337.177040)" fill="darkgreen" font-weight="bold" font-size="363.980000">110</text>
<text x="12970.720030" y="13731.754986" transform="rotate(-153.427939 12970.720030 13731.754986)" fill="darkgreen" font-weight="bold" font-size="363.980000">111</text>
<text x="12598.775431" y="13493.864330" transform="rotate(20.906897 12598.775431 13493.864330)" fill="darkgreen" font-weight="bold" font-size="363.980000">111</text>
<text x="5264.420215" y="13798.856259" transform="rotate(-25.885953 5264.420215 13798.856259)" fill="darkgreen" font-weight="bold" font-size="363.980000">115</text>
<text x="6145.807482" y="14127.447756" transform="rotate(123.754168 6145.807482 14127.447756)" fill="darkgreen" font-weight="bold" font-size="363.980000">115</text>
<text x="6023.958181" y="14805.169818" transform="rotate(-27.748107 6023.958181 14805.169818)" fill="darkgreen" font-weight="bold" font-size="363.980000">120</text>
<text x="6864.755721" y="15086.311873" transform="rotate(133.056499 6864.755721 15086.311873)" fill="darkgreen" font-weight="bold" font-size="363.980000">120</text>
<text x="8912.952219" y="18135.621448" transform="rotate(64.683265 8912.952219 18135.621448)" fill="darkgreen" font-weight="bold" font-size="363.980000">123</text>
<text x="8600.098600" y="18568.598075" transform="rotate(-96.124927 8600.098600 18568.598075)" fill="darkgreen" font-weight="bold" font-size="363.980000">123</text>
<text x="11688.241996" y="13872.440473" transform="rotate(46.199892 11688.241996 13872.440473)" fill="darkgreen" font-weight="bold" font-size="363.980000">125</text>
<text x="11884.367857" y="14273.029796" transform="rotate(-123.777862 11884.367857 14273.029796)" fill="darkgreen" font-weight="bold" font-size="363.980000">125</text>
<text x="8565.227328" y="13110.331088" transform="rotate(141.575628 8565.227328 13110.331088)" fill="darkgreen" font-weight="bold" font-size="363.980000">126</text>
<text x="8157.509238" y="13287.730093" transform="rotate(-31.314573 8157.509238 13287.730093)" fill="darkgreen" font-weight="bold" font-size="363.980000">126</text>
<text x="11052.629045" y="17176.609664" transform="rotate(50.024625 11052.629045 17176.609664)" fill="darkgreen" font-weight="bold" font-size="363.980000">132</text>
<text x="10301.596421" y="17866.194730" transform="rotate(-103.079678 10301.596421 17866.194730)" fill="darkgreen" font-weight="bold" font-size="363.980000">132</text>
<text x="9043.041337" y="14108.095798" transform="rotate(126.693697 9043.041337 14108.095798)" fill="darkgreen" font-weight="bold" font-size="363.980000">138</text>
<text x="8699.292821" y="14388.421732" transform="rotate(-46.323919 8699.292821 14388.421732)" fill="darkgreen" font-weight="bold" font-size="363.980000">138</text>
<text x="7661.413182" y="13987.059166" transform="rotate(120.724579 7661.413182 13987.059166)" fill="darkgreen" font-weight="bold" font-size="363.980000">140</text>
<text x="7173.943804" y="14088.917940" transform="rotate(-44.011457 7173.943804 14088.917940)" fill="darkgreen" font-weight="bold" font-size="363.980000">140</text>
<text x="8279.276696" y="15342.650646" transform="rotate(114.014593 8279.276696 15342.650646)" fill="darkgreen" font-weight="bold" font-size="363.980000">141</text>
<text x="7745.808335" y="15493.259610" transform="rotate(-50.499809 7745.808335 15493.259610)" fill="darkgreen" font-weight="bold" font-size="363.980000">141</text>
<text x="8629.911981" y="17279.710014" transform="rotate(-79.369546 8629.911981 17279.710014)" fill="darkgreen" font-weight="bold" font-size="363.980000">143</text>
<text x="8807.666176" y="16860.299344" transform="rotate(90.967099 8807.666176 16860.299344)" fill="darkgreen" font-weight="bold" font-size="363.980000">143</text>
<text x="9826.923832" y="14803.836540" transform="rotate(-59.864790 9826.923832 14803.836540)" fill="darkgreen" font-weight="bold" font-size="363.980000">148</text>
<text x="10092.679343" y="14449.662088" transform="rotate(113.644953 10092.679343 14449.662088)" fill="darkgreen" font-weight="bold" font-size="363.980000">148</text>
<text x="10126.803661" y="15868.035912" transform="rotate(56.567062 10126.803661 15868.035912)" fill="darkgreen" font-weight="bold" font-size="363.980000">153</text>
<text x="9906.999147" y="16310.782480" transform="rotate(-105.674009 9906.999147 16310.782480)" fill="darkgreen" font-weight="bold" font-size="363.980000">153</text>
<text x="10324.477885" y="8659.975633" transform="rotate(-162.628144 10324.477885 8659.975633)" fill="darkgreen" font-weight="bold" font-size="363.980000">157</text>
<text x="9903.021972" y="8544.983091" transform="rotate(15.873584 9903.021972 8544.983091)" fill="darkgreen" font-weight="bold" font-size="363.980000">157</text>
<text x="8117.021381" y="9176.446058" transform="rotate(-149.451895 8117.021381 9176.446058)" fill="darkgreen" font-weight="bold" font-size="363.980000">158</text>
<text x="8475.925309" y="8337.048383" transform="rotate(76.024650 8475.925309 8337.048383)" fill="darkgreen" font-weight="bold" font-size="363.980000">158</text>
<text x="7541.140559" y="8890.198208" transform="rotate(-159.160749 7541.140559 8890.198208)" fill="darkgreen" font-weight="bold" font-size="363.980000">163</text>
<text x="7842.572118" y="8014.811451" transform="rotate(26.966044 7842.572118 8014.811451)" fill="darkgreen" font-weight="bold" font-size="363.980000">163</text>
<text x="6568.977910" y="8386.953048" transform="rotate(-140.887355 6568.977910 8386.953048)" fill="darkgreen" font-weight="bold" font-size="363.980000">164</text>
<text x="6860.734264" y="7502.211068" transform="rotate(27.766061 6860.734264 7502.211068)" fill="darkgreen" font-weight="bold" font-size="363.980000">164</text>
<text x="11779.130901" y="1100.718850" transform="rotate(44.518049 11779.130901 1100.718850)" fill="darkgreen" font-weight="bold" font-size="363.980000">165</text>
<text x="6138.075402" y="8236.817260" transform="rotate(60.110613 6138.075402 8236.817260)" fill="darkgreen" font-weight="bold" font-size="363.980000">165</text>
<text x="13287.648717" y="5832.502817" transform="rotate(-150.835119 13287.648717 5832.502817)" fill="darkgreen" font-weight="bold" font-size="363.980000">170</text>
<text x="13007.992475" y="5676.433156" transform="rotate(-50.910071 13007.992475 5676.433156)" fill="darkgreen" font-weight="bold" font-size="363.980000">170</text>
<text x="11921.029659" y="5936.384598" transform="rotate(102.854776 11921.029659 5936.384598)" fill="darkgreen" font-weight="bold" font-size="363.980000">172</text>
<text x="12380.029070" y="6663.357484" transform="rotate(-45.215865 12380.029070 6663.357484)" fill="darkgreen" font-weight="bold" font-size="363.980000">172</text>
<text x="14598.264360" y="8728.007769" transform="rotate(153.287929 14598.264360 8728.007769)" fill="darkgreen" font-weight="bold" font-size="363.980000">174</text>
<text x="11950.338918" y="6815.568761" transform="rotate(-89.383956 11950.338918 6815.568761)" fill="darkgreen" font-weight="bold" font-size="363.980000">174</text>
<text x="11754.484490" y="6721.275875" transform="rotate(99.017188 11754.484490 6721.275875)" fill="darkgreen" font-weight="bold" font-size="363.980000">175</text>
<text x="11792.744659" y="7210.260590" transform="rotate(-42.295894 11792.744659 7210.260590)" fill="darkgreen" font-weight="bold" font-size="363.980000">175</text>
<text x="13410.123150" y="2537.087020" transform="rotate(172.114200 13410.123150 2537.087020)" fill="darkgreen" font-weight="bold" font-size="363.980000">187</text>
<text x="12975.436922" y="2616.709913" transform="rotate(19.714754 12975.436922 2616.709913)" fill="darkgreen" font-weight="bold" font-size="363.980000">187</text>
<text x="7191.983675" y="6303.163361" transform="rotate(-175.779492 7191.983675 6303.163361)" fill="darkgreen" font-weight="bold" font-size="363.980000">195</text>
<text x="11717.447343" y="2574.684470" transform="rotate(-158.484217 11717.447343 2574.684470)" fill="darkgreen" font-weight="bold" font-size="363.980000">195</text>
<text x="11130.704760" y="2561.504027" transform="rotate(91.414449 11130.704760 2561.504027)" fill="darkgreen" font-weight="bold" font-size="363.980000">197</text>
<text x="7362.342976" y="5664.372945" transform="rotate(88.480517 7362.342976 5664.372945)" fill="darkgreen" font-weight="bold" font-size="363.980000">197</text>
<text x="8794.653006" y="3918.217913" transform="rotate(98.603567 8794.653006 3918.217913)" fill="darkgreen" font-weight="bold" font-size="363.980000">198</text>
<text x="11445.608602" y="3256.633140" transform="rotate(7.309239 11445.608602 3256.633140)" fill="darkgreen" font-weight="bold" font-size="363.980000">198</text>
<text x="12250.408642" y="1985.440297" transform="rotate(118.532665 12250.408642 1985.440297)" fill="darkgreen" font-weight="bold" font-size="363.980000">199</text>
<text x="6551.275525" y="6569.169256" transform="rotate(93.200325 6551.275525 6569.169256)" fill="darkgreen" font-weight="bold" font-size="363.980000">199</text>
<text x="7995.741448" y="6316.157512" transform="rotate(-126.371320 7995.741448 6316.157512)" fill="darkgreen" font-weight="bold" font-size="363.980000">201</text>
<text x="8051.399605" y="5804.509667" transform="rotate(72.479551 8051.399605 5804.509667)" fill="darkgreen" font-weight="bold" font-size="363.980000">201</text>
<text x="10354.859122" y="7331.096475" transform="rotate(-46.924712 10354.859122 7331.096475)" fill="darkgreen" font-weight="bold" font-size="363.980000">205</text>
<text x="10455.029198" y="6987.456374" transform="rotate(135.899275 10455.029198 6987.456374)" fill="darkgreen" font-weight="bold" font-size="363.980000">205</text>
<text x="9145.267738" y="7376.093528" transform="rotate(-85.183325 9145.267738 7376.093528)" fill="darkgreen" font-weight="bold" font-size="363.980000">206</text>
<text x="9068.401088" y="6939.541380" transform="rotate(86.514092 9068.401088 6939.541380)" fill="darkgreen" font-weight="bold" font-size="363.980000">206</text>
<text x="12274.511027" y="3783.895653" transform="rotate(81.433865 12274.511027 3783.895653)" fill="darkgreen" font-weight="bold" font-size="363.980000">209</text>
<text x="9710.154678" y="3683.965267" transform="rotate(-173.689345 9710.154678 3683.965267)" fill="darkgreen" font-weight="bold" font-size="363.980000">209</text>
<text x="10647.002459" y="3364.480131" transform="rotate(119.076774 10647.002459 3364.480131)" fill="darkgreen" font-weight="bold" font-size="363.980000">210</text>
<text x="12510.466416" y="4526.709305" transform="rotate(-48.080120 12510.466416 4526.709305)" fill="darkgreen" font-weight="bold" font-size="363.980000">210</text>
<text x="12634.816820" y="4109.815428" transform="rotate(90.885252 12634.816820 4109.815428)" fill="darkgreen" font-weight="bold" font-size="363.980000">213</text>
<text x="11229.502787" y="3938.871721" transform="rotate(-125.306587 11229.502787 3938.871721)" fill="darkgreen" font-weight="bold" font-size="363.980000">213</text>
<text x="11883.023258" y="4880.633921" transform="rotate(134.805415 11883.023258 4880.633921)" fill="darkgreen" font-weight="bold" font-size="363.980000">214</text>
<text x="11369.921124" y="5088.448696" transform="rotate(-81.931538 11369.921124 5088.448696)" fill="darkgreen" font-weight="bold" font-size="363.980000">214</text>
<text x="11839.183558" y="5482.789591" transform="rotate(-70.762669 11839.183558 5482.789591)" fill="darkgreen" font-weight="bold" font-size="363.980000">216</text>
<text x="12388.506983" y="5397.179650" transform="rotate(119.390877 12388.506983 5397.179650)" fill="darkgreen" font-weight="bold" font-size="363.980000">216</text>
<text x="11640.514080" y="6408.313091" transform="rotate(144.163556 11640.514080 6408.313091)" fill="darkgreen" font-weight="bold" font-size="363.980000">218</text>
<text x="11205.070342" y="6582.076048" transform="rotate(-53.739279 11205.070342 6582.076048)" fill="darkgreen" font-weight="bold" font-size="363.980000">218</text>
<text x="10864.270011" y="7343.940174" transform="rotate(-109.602058 10864.270011 7343.940174)" fill="darkgreen" font-weight="bold" font-size="363.980000">220</text>
<text x="9982.302539" y="7080.038575" transform="rotate(44.193942 9982.302539 7080.038575)" fill="darkgreen" font-weight="bold" font-size="363.980000">220</text>
<text x="13244.551410" y="3505.156180" transform="rotate(164.490015 13244.551410 3505.156180)" fill="darkgreen" font-weight="bold" font-size="363.980000">224</text>
<text x="13028.701466" y="3937.539950" transform="rotate(-50.509345 13028.701466 3937.539950)" fill="darkgreen" font-weight="bold" font-size="363.980000">224</text>
<text x="10727.763953" y="8112.457974" transform="rotate(-73.020007 10727.763953 8112.457974)" fill="darkgreen" font-weight="bold" font-size="363.980000">235</text>
<text x="10471.781974" y="7696.217899" transform="rotate(72.573200 10471.781974 7696.217899)" fill="darkgreen" font-weight="bold" font-size="363.980000">235</text>
<text x="9856.873105" y="8209.670548" transform="rotate(-65.836658 9856.873105 8209.670548)" fill="darkgreen" font-weight="bold" font-size="363.980000">237</text>
<text x="9874.229830" y="7781.325782" transform="rotate(101.305113 9874.229830 7781.325782)" fill="darkgreen" font-weight="bold" font-size="363.980000">237</text>
<text x="8686.451699" y="6051.044915" transform="rotate(-133.988449 8686.451699 6051.044915)" fill="darkgreen" font-weight="bold" font-size="363.980000">240</text>
<text x="8822.079547" y="5421.907355" transform="rotate(79.112369 8822.079547 5421.907355)" fill="darkgreen" font-weight="bold" font-size="363.980000">240</text>
<text x="10582.463510" y="6253.479693" transform="rotate(-116.373895 10582.463510 6253.479693)" fill="darkgreen" font-weight="bold" font-size="363.980000">241</text>
<text x="9759.243488" y="5930.837640" transform="rotate(83.952486 9759.243488 5930.837640)" fill="darkgreen" font-weight="bold" font-size="363.980000">241</text>
<text x="10117.523710" y="4407.067696" transform="rotate(114.690465 10117.523710 4407.067696)" fill="darkgreen" font-weight="bold" font-size="363.980000">244</text>
<text x="10126.647992" y="4742.734701" transform="rotate(-89.152639 10126.647992 4742.734701)" fill="darkgreen" font-weight="bold" font-size="363.980000">244</text>
<text x="5635.680746" y="11505.321706" transform="rotate(1.024869 5635.680746 11505.321706)" fill="darkgreen" font-weight="bold" font-size="363.980000">247</text>
<text x="6080.634376" y="11585.186767" transform="rotate(165.915255 6080.634376 11585.186767)" fill="darkgreen" font-weight="bold" font-size="363.980000">247</text>
<text x="6727.028930" y="12943.828910" transform="rotate(-39.230124 6727.028930 12943.828910)" fill="darkgreen" font-weight="bold" font-size="363.980000">250</text>
<text x="7154.532975" y="12755.036971" transform="rotate(128.107123 7154.532975 12755.036971)" fill="darkgreen" font-weight="bold" font-size="363.980000">250</text>
<text x="10783.543736" y="12469.296326" transform="rotate(-51.680729 10783.543736 12469.296326)" fill="darkgreen" font-weight="bold" font-size="363.980000">260</text>
<text x="11218.491448" y="12300.852252" transform="rotate(145.103086 11218.491448 12300.852252)" fill="darkgreen" font-weight="bold" font-size="363.980000">260</text>
<text x="11537.987824" y="11715.060456" transform="rotate(-24.257363 11537.987824 11715.060456)" fill="darkgreen" font-weight="bold" font-size="363.980000">267</text>
<text x="12222.264212" y="12236.339598" transform="rotate(-167.347147 12222.264212 12236.339598)" fill="darkgreen" font-weight="bold" font-size="363.980000">267</text>
<text x="5964.180994" y="16508.860105" transform="rotate(107.003611 5964.180994 16508.860105)" fill="darkgreen" font-weight="bold" font-size="363.980000">270</text>
<text x="3518.109313" y="14384.784574" transform="rotate(-14.079119 3518.109313 14384.784574)" fill="darkgreen" font-weight="bold" font-size="363.980000">270</text>
<text x="7462.811656" y="17940.416449" transform="rotate(119.130648 7462.811656 17940.416449)" fill="darkgreen" font-weight="bold" font-size="363.980000">272</text>
<text x="5943.189422" y="17457.981527" transform="rotate(-25.509815 5943.189422 17457.981527)" fill="darkgreen" font-weight="bold" font-size="363.980000">272</text>
<text x="6903.196927" y="16712.515990" transform="rotate(-58.377865 6903.196927 16712.515990)" fill="darkgreen" font-weight="bold" font-size="363.980000">274</text>
<text x="7788.121817" y="16733.912234" transform="rotate(99.773554 7788.121817 16733.912234)" fill="darkgreen" font-weight="bold" font-size="363.980000">274</text>
<text x="9113.565505" y="19008.222569" transform="rotate(116.384525 9113.565505 19008.222569)" fill="darkgreen" font-weight="bold" font-size="363.980000">279</text>
<text x="8128.202958" y="19313.236148" transform="rotate(-42.470545 8128.202958 19313.236148)" fill="darkgreen" font-weight="bold" font-size="363.980000">279</text>
<text x="2089.308583" y="14097.505966" transform="rotate(32.005277 2089.308583 14097.505966)" fill="darkgreen" font-weight="bold" font-size="363.980000">280</text>
<text x="6996.535060" y="19051.448329" transform="rotate(101.145472 6996.535060 19051.448329)" fill="darkgreen" font-weight="bold" font-size="363.980000">280</text>
<text x="7823.337398" y="19932.737493" transform="rotate(-74.669239 7823.337398 19932.737493)" fill="darkgreen" font-weight="bold" font-size="363.980000">283</text>
<text x="8828.093065" y="19648.296464" transform="rotate(60.007954 8828.093065 19648.296464)" fill="darkgreen" font-weight="bold" font-size="363.980000">283</text>
<text x="13397.165172" y="15659.074252" transform="rotate(-142.457262 13397.165172 15659.074252)" fill="darkgreen" font-weight="bold" font-size="363.980000">284</text>
<text x="13381.748827" y="14980.069655" transform="rotate(16.424983 13381.748827 14980.069655)" fill="darkgreen" font-weight="bold" font-size="363.980000">284</text>
<text x="11753.944450" y="16162.626430" transform="rotate(-127.616637 11753.944450 16162.626430)" fill="darkgreen" font-weight="bold" font-size="363.980000">288</text>
<text x="11554.884582" y="15752.109364" transform="rotate(40.215538 11554.884582 15752.109364)" fill="darkgreen" font-weight="bold" font-size="363.980000">288</text>
<text x="12647.810446" y="16588.586485" transform="rotate(32.550447 12647.810446 16588.586485)" fill="darkgreen" font-weight="bold" font-size="363.980000">289</text>
<text x="12462.872551" y="17340.649292" transform="rotate(-117.955710 12462.872551 17340.649292)" fill="darkgreen" font-weight="bold" font-size="363.980000">289</text>
<text x="14814.405375" y="15189.916022" transform="rotate(52.488092 14814.405375 15189.916022)" fill="darkgreen" font-weight="bold" font-size="363.980000">290</text>
<text x="13547.281579" y="16733.132304" transform="rotate(-73.251633 13547.281579 16733.132304)" fill="darkgreen" font-weight="bold" font-size="363.980000">290</text>
<text x="13856.564722" y="14204.612708" transform="rotate(43.304601 13856.564722 14204.612708)" fill="darkgreen" font-weight="bold" font-size="363.980000">291</text>
<text x="13950.364439" y="14772.433385" transform="rotate(-123.963306 13950.364439 14772.433385)" fill="darkgreen" font-weight="bold" font-size="363.980000">291</text>
<text x="12896.638626" y="18362.817974" transform="rotate(-108.930235 12896.638626 18362.817974)" fill="darkgreen" font-weight="bold" font-size="363.980000">296</text>
<text x="15472.306748" y="15769.608599" transform="rotate(-21.855588 15472.306748 15769.608599)" fill="darkgreen" font-weight="bold" font-size="363.980000">296</text>
<text x="12532.105895" y="14974.986025" transform="rotate(-137.633432 12532.105895 14974.986025)" fill="darkgreen" font-weight="bold" font-size="363.980000">299</text>
<text x="12384.409592" y="14527.875397" transform="rotate(30.624609 12384.409592 14527.875397)" fill="darkgreen" font-weight="bold" font-size="363.980000">299</text>
</svg>
