<?xml version="1.0"?>
<svg width="16203" height="17529" version="1.1" xmlns="http://www.w3.org/2000/svg" >
<defs>
<style type="text/css"><![CDATA[
.m {stroke:rgb(255,0,0);stroke-width:21.911250;}
.v {stroke:rgb(0,0,255);stroke-width:21.911250;}
.b {stroke:rgb(0,0,0);stroke-width:43.822500;fill:white}
.n {stroke:rgb(128,128,128);stroke-width:21.911250}
.t {stroke:rgb(0,128,0);stroke-width:21.911250;}
.c {stroke:rgb(128,128,128);stroke-width:21.911250;stroke-dasharray:162.030000, 162.030000;}
]]></style>
</defs>
<path fill="none" style="stroke:black;stroke-width:43.822500;" d=" M 4791.49 6223.24 L 3349.37 6203.55 M 3648.84 7011.49 L 5261.94 6801.74 M 3349.37 6203.55 L 1966.69 5489.22 M 1966.69 5489.22 L 2255.3 6419.55 M 2255.3 6419.55 L 3648.84 7011.49 M 2382.03 10380.4 L 1435.68 10611.1 M 1107.66 11994.6 L 2006.73 11263 M 0 12229.5 L 1107.66 11994.6 M 199.184 11499.1 L 0 12229.5 M 1435.68 10611.1 L 199.184 11499.1 M 1326.31 1764.33 L 2367.27 1077.34 M 1939.32 347.401 L 1326.31 1764.33 M 1502.09 1975.68 L 2095.16 2446.32 M 2367.27 1077.34 L 1502.09 1975.68 M 12345.2 2618.15 L 12525.7 1437.56 M 12525.7 1437.56 L 11463.8 2733.18 M 3578.1 0 L 1939.32 347.401 M 11537.1 3660.57 L 12345.2 2618.15 M 10486.5 4788.53 L 11537.1 3660.57 M 10480.3 3895.42 L 9989.84 4261.93 M 9989.84 4261.93 L 9251.83 5027.77 M 7982.9 5657.32 L 8460.13 4633.18 M 6614.99 5547.34 L 6504.14 6278.75 M 6324.17 5597.04 L 4791.49 6223.24 M 6406.14 6332.24 L 6324.17 5597.04 M 3716.4 7424.88 L 5124.55 8130.68 M 5234.86 6841.47 L 3716.4 7424.88 M 3688.43 10311.6 L 2382.03 10380.4 M 3563.69 8748.99 L 2335.33 9634.13 M 2335.33 9634.13 L 3600.35 9967.49 M 1381.1 12397.7 L 475.81 13077.8 M 475.81 13077.8 L 1325.13 13567.7 M 10588.5 16601.5 L 10002.6 17529.1 M 10002.6 17529.1 L 11432.2 16946.2 M 7681.48 17443.6 L 8704.79 17047.9 M 7741.9 16465 L 7681.48 17443.6 M 12384.6 5197.92 L 13519.2 3991.48 M 13519.2 3991.48 L 12267.1 4406.14 M 12267.1 4406.14 L 10848.7 5009.58 M 7754.26 6716.78 L 7982.9 5657.32 M 5261.94 6801.74 L 6078.27 7387.4 M 2006.73 11263 L 3431.99 10961.3 M 2063.4 11460.6 L 1381.1 12397.7 M 15311.5 8036.96 L 16203 7432.31 M 16203 7432.31 L 15066.5 7065.32 M 15066.5 7065.32 L 13424.6 6849.03 M 11903.8 6199.7 L 12384.6 5197.92 M 10848.7 5009.58 L 10360.5 6412.57 M 10236.2 6252.77 L 10486.5 4788.53 M 9251.83 5027.77 L 8356.62 5717.13 M 6504.14 6278.75 L 7137.87 7556.15 M 5135.41 8645.32 L 3563.69 8748.99 M 3600.35 9967.49 L 4608.67 9785.42 M 1325.13 13567.7 L 2595.35 12764.1 M 8704.79 17047.9 L 9087.21 15867.8 M 11432.2 16946.2 L 10924 15978.9 M 10226.6 15415 L 10588.5 16601.5 M 14324.2 8064.04 L 15311.5 8036.96 M 13396.8 7984.46 L 14324.2 8064.04 M 9004.43 7339.79 L 10236.2 6252.77 M 8356.62 5717.13 L 7906.38 6703.04 M 7137.87 7556.15 L 6406.14 6332.24 M 6078.27 7387.4 L 5234.86 6841.47 M 4608.67 9785.42 L 5652.54 9659.2 M 7592.62 16466.2 L 7656.21 15121.3 M 6537.66 15395.5 L 7592.62 16466.2 M 7656.21 15121.3 L 7741.9 16465 M 13424.6 6849.03 L 12383.4 7237.35 M 7969.21 8247.07 L 7754.26 6716.78 M 4631.91 9911.99 L 3688.43 10311.6 M 9087.21 15867.8 L 8868.06 14591.2 M 14315.7 9472.54 L 13542.1 8954.89 M 13127.4 9940.15 L 14315.7 9472.54 M 12183.7 8712.22 L 13396.8 7984.46 M 7906.38 6703.04 L 7969.21 8247.07 M 4573.03 11606.3 L 5867.89 10797.5 M 5652.54 9659.2 L 4631.91 9911.99 M 13542.1 8954.89 L 12138.7 9132.99 M 8868.06 14591.2 L 7971.99 13277.1 M 6917.97 12507.6 L 7374.62 11106.4 M 7971.99 13277.1 L 8956.06 14526.7 M 8956.06 14526.7 L 9245.02 13346.8 M 11135.4 10026.6 L 12533 10756.1 M 9596.22 9927.75 L 7977.89 9016.38 M 7977.89 9016.38 L 9730.13 9632.21 M 9730.13 9632.21 L 9021.85 8602.96 M 7374.62 11106.4 L 7091.69 12552.7 M 9245.02 13346.8 L 8193.54 12169.8 M 11111.9 12978.6 L 9681.09 12270.3 M 9868.61 12088.5 L 11458 12238.9 M 11458 12238.9 L 10684.3 10865.3 M 9681.09 12270.3 L 8853.44 11229 M 8193.54 12169.8 L 9407.5 13178.4 M 8853.44 11229 L 9868.61 12088.5 M 10684.3 10865.3 L 9596.22 9927.75 M 3961.11 4074.77 L 5583.25 5334.22 M 5018.46 4776.44 L 3961.11 4074.77 M 5583.25 5334.22 L 3994.59 4032.78 M 3899.73 4391.99 L 4970.12 5358.62 M 3994.59 4032.78 L 3658.3 2854.53 M 3658.3 2854.53 L 3899.73 4391.99 M 2706.43 3840.5 L 3843.61 4296.78 M 2095.16 2446.32 L 2706.43 3840.5 M 3215.86 712.849 L 3578.1 0 M 11463.8 2733.18 L 11114 2014.17 M 8217 3391.22 L 8613.74 2924.85 M 7467.84 4912.1 L 8291.29 3449.78 M 8291.29 3449.78 L 7758.27 4049.64 M 8460.13 4633.18 L 8475.04 3569.71 M 8475.04 3569.71 L 7467.84 4912.1 M 4970.12 5358.62 L 6614.99 5547.34 M 3843.61 4296.78 L 5018.46 4776.44 M 3122.18 3626.94 L 3805.31 2192.54 M 4627.75 3881.15 L 4159.88 2822.22 M 3053.21 925.304 L 3161.1 1696.36 M 3805.31 2192.54 L 4066.65 1363.81 M 4066.65 1363.81 L 3053.21 925.304 M 2528.3 2548.93 L 3499.48 2119.82 M 3559.06 1211.91 L 3343.09 2053.61 M 4159.88 2822.22 L 3559.06 1211.91 M 3960.13 3427.06 L 5113.53 4323.4 M 5675.87 3995.02 L 4871.26 2775.85 M 10842 1141.58 L 10788.7 38.6288 M 10788.7 38.6288 L 9542.19 1256.69 M 10072 1794.38 L 10842 1141.58 M 9542.19 1256.69 L 8831.56 2220.47 M 8065.09 3819.47 L 9329.92 3253.91 M 8165.94 3223.91 L 6895.1 3964.54 M 5873.85 3505.29 L 6094.13 4224.12 M 6094.13 4224.12 L 5773.54 3544.07 M 11114 2014.17 L 10363.1 1051.52 M 10363.1 1051.52 L 10300.5 2059.12 M 2647.75 1514.97 L 3634.91 1859.58 M 3634.91 1859.58 L 3215.86 712.849 M 8613.74 2924.85 L 10072 1794.38 M 10300.5 2059.12 L 10480.3 3895.42 M 8831.56 2220.47 L 8311.38 2819.28 M 8311.38 2819.28 L 7811.18 2203.67 M 7811.18 2203.67 L 7349.32 3509.94 M 7758.27 4049.64 L 8217 3391.22 M 7349.32 3509.94 L 7266.33 4684.18 M 7266.33 4684.18 L 8065.09 3819.47 M 5113.53 4323.4 L 5925 5067.32 M 5925 5067.32 L 5675.87 3995.02 M 4011.87 2900.88 L 4627.75 3881.15 M 3343.09 2053.61 L 3122.18 3626.94 M 3161.1 1696.36 L 2528.3 2548.93 M 3499.48 2119.82 L 3682.23 1363.01 M 3682.23 1363.01 L 2647.75 1514.97 M 6895.1 3964.54 L 7876.73 2869.11 M 4871.26 2775.85 L 3715.99 1207.79 M 3715.99 1207.79 L 4011.87 2900.88 M 6512.55 1979.97 L 5873.85 3505.29 M 9608.69 2089.38 L 8165.94 3223.91 M 9329.92 3253.91 L 9608.69 2089.38 M 7876.73 2869.11 L 7786.44 1035.94 M 5773.54 3544.07 L 4967.09 2100.41 M 4967.09 2100.41 L 3498.78 1534.81 M 3498.78 1534.81 L 3960.13 3427.06 M 7786.44 1035.94 L 6145.04 450.02 M 6145.04 450.02 L 6512.55 1979.97 M 4957.27 13766.9 L 5265.18 14706.1 M 5265.18 14706.1 L 6740.89 13700 M 6740.89 13700 L 6917.97 12507.6 M 5664.71 12557.8 L 4957.27 13766.9 M 7232.1 13750 L 6537.66 15395.5 M 6372.66 11205.2 L 5664.71 12557.8 M 3230.74 12007 L 4573.03 11606.3 M 3431.99 10961.3 L 2063.4 11460.6 M 2595.35 12764.1 L 3230.74 12007 M 7091.69 12552.7 L 7232.1 13750 M 6579.97 8357.4 L 5135.41 8645.32 M 5867.89 10797.5 L 6844.54 9531.31 M 7907.86 10255.3 L 6372.66 11205.2 M 6844.54 9531.31 L 6275.13 11025.6 M 6275.13 11025.6 L 7907.86 10255.3 M 5124.55 8130.68 L 6579.97 8357.4 M 9430.92 14392.9 L 10226.6 15415 M 11260.4 14743.9 L 10664.6 13777.4 M 10924 15978.9 L 11260.4 14743.9 M 9407.5 13178.4 L 9430.92 14392.9 M 10664.6 13777.4 L 11469.7 14578 M 11469.7 14578 L 11111.9 12978.6 M 12533 10756.1 L 14124.1 11149.2 M 15168.4 10372 L 14052.9 9935.76 M 14124.1 11149.2 L 15377.8 11407.4 M 15377.8 11407.4 L 16198.8 10686.4 M 16198.8 10686.4 L 15168.4 10372 M 14331 9513.32 L 13127.4 9940.15 M 14052.9 9935.76 L 15249.3 9876.86 M 15249.3 9876.86 L 14331 9513.32 M 10704.7 7178.15 L 9659.52 8119.31 M 11762.6 7721.89 L 10704.7 7178.15 M 9659.52 8119.31 L 10537.4 7020.46 M 9760.7 9610.49 L 11135.4 10026.6 M 12138.7 9132.99 L 10780.3 8775.02 M 10780.3 8775.02 L 12183.7 8712.22 M 12383.4 7237.35 L 11762.6 7721.89 M 11725.6 6966.84 L 11903.8 6199.7 M 10537.4 7020.46 L 11725.6 6966.84 M 10360.5 6412.57 L 9004.43 7339.79 M 9021.85 8602.96 L 9760.7 9610.49" />
<path fill="none" class="c" d=" M 3349.37 6203.55 L 3648.84 7011.49 M 3648.84 7011.49 L 4791.49 6223.24 M 3349.37 6203.55 L 2255.3 6419.55 M 5261.94 6801.74 L 4791.49 6223.24 M 5261.94 6801.74 L 6324.17 5597.04 M 5261.94 6801.74 L 6406.14 6332.24 M 6078.27 7387.4 L 6406.14 6332.24 M 6078.27 7387.4 L 7137.87 7556.15 M 6579.97 8357.4 L 7137.87 7556.15 M 6078.27 7387.4 L 6579.97 8357.4 M 6579.97 8357.4 L 7969.21 8247.07 M 6078.27 7387.4 L 5124.55 8130.68 M 7977.89 9016.38 L 7969.21 8247.07 M 6579.97 8357.4 L 7977.89 9016.38 M 5234.86 6841.47 L 5124.55 8130.68 M 9021.85 8602.96 L 7969.21 8247.07 M 7977.89 9016.38 L 9021.85 8602.96 M 6844.54 9531.31 L 7977.89 9016.38 M 9021.85 8602.96 L 9004.43 7339.79 M 7969.21 8247.07 L 7137.87 7556.15 M 6579.97 8357.4 L 6844.54 9531.31 M 9021.85 8602.96 L 9659.52 8119.31 M 7754.26 6716.78 L 7137.87 7556.15 M 5652.54 9659.2 L 6844.54 9531.31 M 6579.97 8357.4 L 5652.54 9659.2 M 9760.7 9610.49 L 9659.52 8119.31 M 7754.26 6716.78 L 6504.14 6278.75 M 9760.7 9610.49 L 10780.3 8775.02 M 7982.9 5657.32 L 6504.14 6278.75 M 11135.4 10026.6 L 10780.3 8775.02 M 7982.9 5657.32 L 6614.99 5547.34 M 11135.4 10026.6 L 12138.7 9132.99 M 7467.84 4912.1 L 6614.99 5547.34 M 7982.9 5657.32 L 7467.84 4912.1 M 12533 10756.1 L 12138.7 9132.99 M 7467.84 4912.1 L 5583.25 5334.22 M 5583.25 5334.22 L 6614.99 5547.34 M 8460.13 4633.18 L 7467.84 4912.1 M 13127.4 9940.15 L 12138.7 9132.99 M 7266.33 4684.18 L 5583.25 5334.22 M 5583.25 5334.22 L 4970.12 5358.62 M 5652.54 9659.2 L 5867.89 10797.5 M 5135.41 8645.32 L 5652.54 9659.2 M 10780.3 8775.02 L 9659.52 8119.31 M 5583.25 5334.22 L 3899.73 4391.99 M 4631.91 9911.99 L 5867.89 10797.5 M 5135.41 8645.32 L 4608.67 9785.42 M 10780.3 8775.02 L 10704.7 7178.15 M 3994.59 4032.78 L 3899.73 4391.99 M 3563.69 8748.99 L 4608.67 9785.42 M 10780.3 8775.02 L 11762.6 7721.89 M 7907.86 10255.3 L 7977.89 9016.38 M 3563.69 8748.99 L 3600.35 9967.49 M 12183.7 8712.22 L 11762.6 7721.89 M 7907.86 10255.3 L 9596.22 9927.75 M 6844.54 9531.31 L 7907.86 10255.3 M 12183.7 8712.22 L 12383.4 7237.35 M 7907.86 10255.3 L 8853.44 11229 M 8853.44 11229 L 9596.22 9927.75 M 13396.8 7984.46 L 12383.4 7237.35 M 7374.62 11106.4 L 8853.44 11229 M 7907.86 10255.3 L 7374.62 11106.4 M 8853.44 11229 L 10684.3 10865.3 M 13396.8 7984.46 L 13424.6 6849.03 M 7374.62 11106.4 L 8193.54 12169.8 M 14324.2 8064.04 L 13424.6 6849.03 M 7091.69 12552.7 L 8193.54 12169.8 M 14324.2 8064.04 L 15066.5 7065.32 M 7091.69 12552.7 L 7971.99 13277.1 M 7971.99 13277.1 L 8193.54 12169.8 M 15311.5 8036.96 L 15066.5 7065.32 M 7232.1 13750 L 7971.99 13277.1 M 7971.99 13277.1 L 9245.02 13346.8 M 7232.1 13750 L 8868.06 14591.2 M 8193.54 12169.8 L 8853.44 11229 M 7656.21 15121.3 L 8868.06 14591.2 M 7232.1 13750 L 7656.21 15121.3 M 8193.54 12169.8 L 9681.09 12270.3 M 7656.21 15121.3 L 9087.21 15867.8 M 6537.66 15395.5 L 7656.21 15121.3 M 9407.5 13178.4 L 9681.09 12270.3 M 7741.9 16465 L 9087.21 15867.8 M 9407.5 13178.4 L 11111.9 12978.6 M 7741.9 16465 L 8704.79 17047.9 M 9407.5 13178.4 L 10664.6 13777.4 M 10664.6 13777.4 L 11111.9 12978.6 M 6372.66 11205.2 L 7374.62 11106.4 M 9868.61 12088.5 L 10684.3 10865.3 M 9430.92 14392.9 L 10664.6 13777.4 M 9659.52 8119.31 L 9004.43 7339.79 M 4631.91 9911.99 L 4573.03 11606.3 M 5925 5067.32 L 5583.25 5334.22 M 9004.43 7339.79 L 7969.21 8247.07 M 13127.4 9940.15 L 13542.1 8954.89 M 7266.33 4684.18 L 5925 5067.32 M 9430.92 14392.9 L 11260.4 14743.9 M 10537.4 7020.46 L 9004.43 7339.79 M 3688.43 10311.6 L 4573.03 11606.3 M 5925 5067.32 L 5018.46 4776.44 M 9004.43 7339.79 L 7906.38 6703.04 M 7266.33 4684.18 L 6094.13 4224.12 M 10226.6 15415 L 11260.4 14743.9 M 10537.4 7020.46 L 10360.5 6412.57 M 3688.43 10311.6 L 3431.99 10961.3 M 5675.87 3995.02 L 5018.46 4776.44 M 9004.43 7339.79 L 8356.62 5717.13 M 11725.6 6966.84 L 10360.5 6412.57 M 2382.03 10380.4 L 3431.99 10961.3 M 4627.75 3881.15 L 5018.46 4776.44 M 5675.87 3995.02 L 4627.75 3881.15 M 10236.2 6252.77 L 8356.62 5717.13 M 11903.8 6199.7 L 10360.5 6412.57 M 2382.03 10380.4 L 2006.73 11263 M 4627.75 3881.15 L 3843.61 4296.78 M 4871.26 2775.85 L 4627.75 3881.15 M 10236.2 6252.77 L 9251.83 5027.77 M 11903.8 6199.7 L 10848.7 5009.58 M 1435.68 10611.1 L 2006.73 11263 M 4627.75 3881.15 L 3122.18 3626.94 M 3122.18 3626.94 L 3843.61 4296.78 M 4871.26 2775.85 L 4011.87 2900.88 M 4159.88 2822.22 L 3122.18 3626.94 M 3122.18 3626.94 L 2706.43 3840.5 M 10486.5 4788.53 L 9251.83 5027.77 M 4159.88 2822.22 L 3343.09 2053.61 M 3122.18 3626.94 L 2528.3 2548.93 M 2528.3 2548.93 L 2706.43 3840.5 M 10486.5 4788.53 L 9989.84 4261.93 M 3805.31 2192.54 L 2528.3 2548.93 M 2528.3 2548.93 L 2095.16 2446.32 M 10486.5 4788.53 L 10480.3 3895.42 M 3805.31 2192.54 L 3161.1 1696.36 M 2647.75 1514.97 L 2095.16 2446.32 M 2528.3 2548.93 L 2647.75 1514.97 M 11537.1 3660.57 L 10480.3 3895.42 M 3805.31 2192.54 L 3053.21 925.304 M 2367.27 1077.34 L 2095.16 2446.32 M 2647.75 1514.97 L 2367.27 1077.34 M 3499.48 2119.82 L 2647.75 1514.97 M 11537.1 3660.57 L 11463.8 2733.18 M 11463.8 2733.18 L 10480.3 3895.42 M 3215.86 712.849 L 2367.27 1077.34 M 2647.75 1514.97 L 3215.86 712.849 M 12345.2 2618.15 L 11463.8 2733.18 M 11114 2014.17 L 10480.3 3895.42 M 11114 2014.17 L 10300.5 2059.12 M 3578.1 0 L 2367.27 1077.34 M 12384.6 5197.92 L 10848.7 5009.58 M 1435.68 10611.1 L 1107.66 11994.6 M 1939.32 347.401 L 2367.27 1077.34 M 12384.6 5197.92 L 12267.1 4406.14 M 199.184 11499.1 L 1107.66 11994.6 M 6895.1 3964.54 L 6094.13 4224.12 M 7266.33 4684.18 L 6895.1 3964.54 M 10226.6 15415 L 10924 15978.9 M 6895.1 3964.54 L 5873.85 3505.29 M 10588.5 16601.5 L 10924 15978.9 M 7876.73 2869.11 L 5873.85 3505.29 M 10588.5 16601.5 L 11432.2 16946.2 M 7876.73 2869.11 L 6512.55 1979.97 M 8065.09 3819.47 L 6895.1 3964.54 M 7786.44 1035.94 L 6512.55 1979.97 M 8065.09 3819.47 L 8165.94 3223.91 M 3431.99 10961.3 L 4573.03 11606.3 M 9329.92 3253.91 L 8165.94 3223.91 M 3431.99 10961.3 L 3230.74 12007 M 12533 10756.1 L 13127.4 9940.15 M 2063.4 11460.6 L 3230.74 12007 M 14052.9 9935.76 L 13127.4 9940.15 M 12533 10756.1 L 14052.9 9935.76 M 2063.4 11460.6 L 2595.35 12764.1 M 14052.9 9935.76 L 14331 9513.32 M 14124.1 11149.2 L 14052.9 9935.76 M 1381.1 12397.7 L 2595.35 12764.1 M 14124.1 11149.2 L 15168.4 10372 M 1381.1 12397.7 L 1325.13 13567.7 M 15377.8 11407.4 L 15168.4 10372 M 6372.66 11205.2 L 6917.97 12507.6 M 6094.13 4224.12 L 5925 5067.32 M 5664.71 12557.8 L 6917.97 12507.6 M 6094.13 4224.12 L 5113.53 4323.4 M 5664.71 12557.8 L 6740.89 13700 M 5773.54 3544.07 L 5113.53 4323.4 M 4957.27 13766.9 L 6740.89 13700 M 5773.54 3544.07 L 3960.13 3427.06 M 7467.84 4912.1 L 7266.33 4684.18 M 4967.09 2100.41 L 3960.13 3427.06 M 7467.84 4912.1 L 7758.27 4049.64 M 7758.27 4049.64 L 7266.33 4684.18 M 5018.46 4776.44 L 5583.25 5334.22 M 7758.27 4049.64 L 7349.32 3509.94 M 8217 3391.22 L 7349.32 3509.94 M 8217 3391.22 L 8311.38 2819.28 M 8311.38 2819.28 L 7349.32 3509.94 M 8613.74 2924.85 L 8311.38 2819.28 M 8613.74 2924.85 L 8831.56 2220.47 M 10072 1794.38 L 8831.56 2220.47 M 10072 1794.38 L 9542.19 1256.69 M 10842 1141.58 L 9542.19 1256.69" />
</svg>
