<?xml version="1.0"?>
<svg width="18820" height="16394" version="1.1" xmlns="http://www.w3.org/2000/svg" >
<defs>
<style type="text/css"><![CDATA[
.m {stroke:rgb(255,0,0);stroke-width:23.525000;}
.v {stroke:rgb(0,0,255);stroke-width:23.525000;}
.b {stroke:rgb(0,0,0);stroke-width:47.050000;fill:white}
.n {stroke:rgb(128,128,128);stroke-width:23.525000}
.t {stroke:rgb(0,128,0);stroke-width:23.525000;}
.c {stroke:rgb(128,128,128);stroke-width:23.525000;stroke-dasharray:188.200000, 188.200000;}
]]></style>
</defs>
<path fill="none" style="stroke:black;stroke-width:47.050000;" d=" M 18219.5 6772.08 L 16777.4 6752.39 M 17076.9 7560.33 L 18690 7350.58 M 18690 7350.58 L 18219.5 6772.08 M 15683.3 6968.38 L 17076.9 7560.33 M 14779.3 6648.19 L 15683.3 6968.38 M 15394.7 6038.06 L 13993.7 5795.91 M 13993.7 5795.91 L 15415.5 5787.72 M 13503.7 4775.14 L 13401.4 3532.12 M 13657.2 3537.42 L 13503.7 4775.14 M 12268.9 2397.27 L 12555.6 3556.67 M 13401.4 3532.12 L 13038.4 1952.56 M 13038.4 1952.56 L 12614.6 1124.45 M 12614.6 1124.45 L 12268.9 2397.27 M 2512.51 8495.59 L 1596.31 8334.31 M 2475.25 9577.52 L 3341.46 9795.17 M 2440.16 9900.97 L 2827.04 10375.6 M 3332.21 9857.1 L 2440.16 9900.97 M 2827.04 10375.6 L 3623.35 11080.6 M 3456.82 12097.8 L 4349.88 11945.9 M 4045.67 11465 L 3295.4 11972.7 M 3922.2 12831.8 L 4045.67 11465 M 4349.88 11945.9 L 4005.24 13274.2 M 3927.09 14928.1 L 4649.98 14745.3 M 4649.98 14745.3 L 4706.49 13509.8 M 6091.19 16394.7 L 6879.46 15031 M 5599.08 14844.3 L 6091.19 16394.7 M 15001.5 8087.97 L 15636 8380.04 M 16805.9 8037.44 L 15639.7 7071.83 M 12555.6 3556.67 L 12452.1 4462.15 M 3274.09 8249.2 L 1897.17 7329 M 1897.17 7329 L 2512.51 8495.59 M 4706.49 13509.8 L 5353.92 12354.1 M 5142.92 13694.7 L 5599.08 14844.3 M 15639.7 7071.83 L 14779.3 6648.19 M 12529.3 3554.04 L 12028.7 2469.71 M 12028.7 2469.71 L 11074.7 1115.97 M 4341.43 8558.4 L 3274.09 8249.2 M 3341.46 9795.17 L 4805.71 10045.4 M 4805.71 10045.4 L 3332.21 9857.1 M 5496.68 12418.2 L 5142.92 13694.7 M 17302.4 9532.28 L 16805.9 8037.44 M 15636 8380.04 L 16066.3 9309.91 M 11427.7 5161.66 L 12857.2 5512.32 M 12452.1 4462.15 L 12529.3 3554.04 M 10791.3 2600.99 L 11480.4 3308.46 M 10221.1 1865.24 L 10791.3 2600.99 M 5353.92 12354.1 L 5943.76 11230.2 M 6194.2 14034.8 L 6375.25 12977.3 M 6879.46 15031 L 6194.2 14034.8 M 16066.3 9309.91 L 16451.6 10288.3 M 12857.2 5512.32 L 11393.2 5359.83 M 11074.7 1115.97 L 10083.4 613.748 M 10083.4 613.748 L 10221.1 1865.24 M 15796.1 9469.85 L 15588.6 8466.46 M 10947.2 6575.91 L 12262 6720.05 M 3500.76 6597.43 L 4078.69 7327.08 M 4078.69 7327.08 L 4341.43 8558.4 M 5943.76 11230.2 L 5496.68 12418.2 M 14146 9080.95 L 14686 10508.9 M 15844.5 10520.2 L 15796.1 9469.85 M 12262 6720.05 L 10939.3 6722.36 M 5469.27 7587.26 L 4775.21 6516.14 M 11236.4 8284.96 L 12103.5 8146.7 M 4775.21 6516.14 L 5505.37 7562.98 M 5505.37 7562.98 L 5570.13 5893.97 M 12622.2 9554.17 L 12687 11026.5 M 10939.3 6722.36 L 10138.9 7636.11 M 7663.28 8157.46 L 7426.85 6598.77 M 7426.85 6598.77 L 6349.7 7875.3 M 8085.22 10136.6 L 7186.78 11004.8 M 9938.13 11837 L 11395.9 11620.8 M 11784.7 10549.1 L 10667 10710 M 10529.3 9165.35 L 11236.4 8284.96 M 9013.93 7487.18 L 9929.16 7238.65 M 10667 10710 L 9559.83 10402.2 M 7657.24 6920.53 L 9013.93 7487.18 M 8857.51 5898.38 L 7657.24 6920.53 M 9559.83 10402.2 L 8085.22 10136.6 M 8957.75 11618.7 L 9938.13 11837 M 9442.67 9539.35 L 10529.3 9165.35 M 10138.9 7636.11 L 9384.22 8210.46 M 9384.22 8210.46 L 7932.36 8442.38 M 7983.04 9877.75 L 9442.67 9539.35 M 2423.5 15471 L 3698.9 13861.4 M 3135.58 14420.6 L 2423.5 15471 M 18532.7 5951.77 L 16543.8 6463.5 M 16777.4 6752.39 L 18532.7 5951.77 M 3861.68 14317.9 L 3034.31 16060.8 M 3034.31 16060.8 L 3927.09 14928.1 M 16543.8 6463.5 L 15394.7 6038.06 M 15697.7 5415.11 L 15316.6 5685.8 M 15316.6 5685.8 L 16507.3 5975.15 M 15415.5 5787.72 L 15697.7 5415.11 M 14695.3 4700.87 L 14260.5 4796.08 M 1596.31 8334.31 L 0 8054.07 M 0 8054.07 L 812.604 8492.96 M 812.604 8492.96 L 2475.25 9577.52 M 2777.13 9880.22 L 2164.86 9884.88 M 2282.63 10182.7 L 2777.13 9880.22 M 2885.41 11389.5 L 3456.82 12097.8 M 3623.35 11080.6 L 2665.81 10617.7 M 3369.5 12160.1 L 2885.41 11389.5 M 3065.51 12171.9 L 3369.5 12160.1 M 3698.9 13861.4 L 3922.2 12831.8 M 3295.4 11972.7 L 3065.51 12171.9 M 4005.24 13274.2 L 3861.68 14317.9 M 16507.3 5975.15 L 17738.6 6282.26 M 17738.6 6282.26 L 17224.1 5451.87 M 14364.1 4998.31 L 14695.3 4700.87 M 13913.8 4013.45 L 14364.1 4998.31 M 14260.5 4796.08 L 14144.1 3719.4 M 14144.1 3719.4 L 14117.7 2736.83 M 14117.7 2736.83 L 13657.2 3537.42 M 3435.39 13517 L 3135.58 14420.6 M 17224.1 5451.87 L 16609.9 4470.54 M 15691.8 3826.35 L 14464.9 3010.14 M 14464.9 3010.14 L 14896.2 3658.3 M 14705.7 2731.32 L 15691.8 3826.35 M 1872.93 13552.7 L 1480.85 15327.1 M 1480.85 15327.1 L 2542.54 14323.8 M 17508.2 5200.79 L 18537.3 4971.67 M 18537.3 4971.67 L 17383.5 4075.89 M 14272 1819.66 L 14705.7 2731.32 M 14927.5 1445.39 L 14178.1 511.499 M 14178.1 511.499 L 14272 1819.66 M 2208.72 11364.7 L 1655.67 10094.3 M 2342.23 12536 L 1872.93 13552.7 M 2542.54 14323.8 L 2593.9 13339.5 M 14378.5 3076.81 L 13492 2593.85 M 13188.5 3349.99 L 13913.8 4013.45 M 2164.86 9884.88 L 356.124 9520.41 M 356.124 9520.41 L 1489.43 10180.5 M 13492 2593.85 L 11752 1979.95 M 11752 1979.95 L 13188.5 3349.99 M 1489.43 10180.5 L 2208.72 11364.7 M 2665.81 10617.7 L 2282.63 10182.7 M 2593.9 13339.5 L 2683.5 14321.1 M 3698.64 14431.9 L 3435.39 13517 M 2683.5 14321.1 L 3172.61 15255 M 3172.61 15255 L 3698.64 14431.9 M 16609.9 4470.54 L 17508.2 5200.79 M 14896.2 3658.3 L 14378.5 3076.81 M 1583.12 13359.2 L 2342.23 12536 M 1614.18 11258 L 338.692 12270.2 M 338.692 12270.2 L 1583.12 13359.2 M 493.947 9804.08 L 1614.18 11258 M 1655.67 10094.3 L 493.947 9804.08 M 16058.7 0 L 14927.5 1445.39 M 16508.6 1564.98 L 16058.7 0 M 17383.5 4075.89 L 18820.5 2963.66 M 18820.5 2963.66 L 17260.6 2414.9 M 17260.6 2414.9 L 15785.4 2962.45 M 15785.4 2962.45 L 16508.6 1564.98 M 13397.1 6915.13 L 12369 8375.64 M 12369 8375.64 L 12622.2 9554.17 M 13777.9 9066.78 L 14015.4 7686.24 M 12103.5 8146.7 L 13397.1 6915.13 M 13590.4 10581.9 L 13777.9 9066.78 M 15588.6 8466.46 L 15001.5 8087.97 M 14015.4 7686.24 L 14146 9080.95 M 11395.9 11620.8 L 12477.5 11088.6 M 12477.5 11088.6 L 11784.7 10549.1 M 16451.6 10288.3 L 17945.1 10857.6 M 17945.1 10857.6 L 17302.4 9532.28 M 7347.02 13453.8 L 8783.86 14154 M 8783.86 14154 L 8461.27 12999.4 M 14686 10508.9 L 15737 11714.2 M 15737 11714.2 L 15844.5 10520.2 M 12486.9 12010.7 L 13590.4 10581.9 M 12687 11026.5 L 12486.9 12010.7 M 8630.44 12862.7 L 10229.1 12900.4 M 10229.1 12900.4 L 8957.75 11618.7 M 7766.6 11966.4 L 8630.44 12862.7 M 8461.27 12999.4 L 7766.6 11966.4 M 7009.24 12101.7 L 7347.02 13453.8 M 7211.9 13480.5 L 7009.24 12101.7 M 6375.25 12977.3 L 6277.49 14045.7 M 7082.67 14947.8 L 7211.9 13480.5 M 6277.49 14045.7 L 7082.67 14947.8 M 11393.2 5359.83 L 10276.6 4837.93 M 10478.6 4375.24 L 11427.7 5161.66 M 9929.16 7238.65 L 10947.2 6575.91 M 9772.01 5855.01 L 8857.51 5898.38 M 8872.68 5683.53 L 9772.01 5855.01 M 10276.6 4837.93 L 8872.68 5683.53 M 5570.13 5893.97 L 4147.32 5080.52 M 4147.32 5080.52 L 3883.76 6267.16 M 10120.9 3213.53 L 10478.6 4375.24 M 11308.1 3371.87 L 10120.9 3213.53 M 11757.8 4327.74 L 11308.1 3371.87 M 11480.4 3308.46 L 11757.8 4327.74 M 3883.76 6267.16 L 2716.94 5996.53 M 2716.94 5996.53 L 3500.76 6597.43 M 6604.65 10455.6 L 7983.04 9877.75 M 5548.68 8593.95 L 5376.14 9770.81 M 7932.36 8442.38 L 6862.81 9182.96 M 6862.81 9182.96 L 7663.28 8157.46 M 6349.7 7875.3 L 5548.68 8593.95 M 5127.42 8607.66 L 5469.27 7587.26 M 5376.14 9770.81 L 5127.42 8607.66 M 8058.76 10110 L 6604.65 10455.6 M 7186.78 11004.8 L 8058.76 10110" />
<path fill="none" class="c" d=" M 16777.4 6752.39 L 17076.9 7560.33 M 17076.9 7560.33 L 18219.5 6772.08 M 16777.4 6752.39 L 15683.3 6968.38 M 15394.7 6038.06 L 15683.3 6968.38 M 15394.7 6038.06 L 14779.3 6648.19 M 13993.7 5795.91 L 14779.3 6648.19 M 13993.7 5795.91 L 13397.1 6915.13 M 12857.2 5512.32 L 13397.1 6915.13 M 13397.1 6915.13 L 14779.3 6648.19 M 14015.4 7686.24 L 14779.3 6648.19 M 13993.7 5795.91 L 12857.2 5512.32 M 13503.7 4775.14 L 12857.2 5512.32 M 13993.7 5795.91 L 13503.7 4775.14 M 14260.5 4796.08 L 13503.7 4775.14 M 12857.2 5512.32 L 12262 6720.05 M 13397.1 6915.13 L 14015.4 7686.24 M 11393.2 5359.83 L 12262 6720.05 M 11393.2 5359.83 L 10947.2 6575.91 M 10276.6 4837.93 L 10947.2 6575.91 M 12262 6720.05 L 13397.1 6915.13 M 13993.7 5795.91 L 14260.5 4796.08 M 15415.5 5787.72 L 14260.5 4796.08 M 15415.5 5787.72 L 14695.3 4700.87 M 15697.7 5415.11 L 14695.3 4700.87 M 15691.8 3826.35 L 14695.3 4700.87 M 14896.2 3658.3 L 14695.3 4700.87 M 15691.8 3826.35 L 14896.2 3658.3 M 15697.7 5415.11 L 15691.8 3826.35 M 15697.7 5415.11 L 16609.9 4470.54 M 16609.9 4470.54 L 15691.8 3826.35 M 16609.9 4470.54 L 15785.4 2962.45 M 15785.4 2962.45 L 15691.8 3826.35 M 15785.4 2962.45 L 14705.7 2731.32 M 17383.5 4075.89 L 15785.4 2962.45 M 10276.6 4837.93 L 9772.01 5855.01 M 13503.7 4775.14 L 12452.1 4462.15 M 12369 8375.64 L 14015.4 7686.24 M 12369 8375.64 L 13777.9 9066.78 M 13913.8 4013.45 L 14695.3 4700.87 M 14896.2 3658.3 L 13913.8 4013.45 M 14378.5 3076.81 L 13913.8 4013.45 M 12262 6720.05 L 12103.5 8146.7 M 10939.3 6722.36 L 12103.5 8146.7 M 10939.3 6722.36 L 11236.4 8284.96 M 10138.9 7636.11 L 11236.4 8284.96 M 10138.9 7636.11 L 10529.3 9165.35 M 9384.22 8210.46 L 10529.3 9165.35 M 12452.1 4462.15 L 12857.2 5512.32 M 12452.1 4462.15 L 11427.7 5161.66 M 11757.8 4327.74 L 11427.7 5161.66 M 15001.5 8087.97 L 14779.3 6648.19 M 15001.5 8087.97 L 15639.7 7071.83 M 12452.1 4462.15 L 11757.8 4327.74 M 12529.3 3554.04 L 11757.8 4327.74 M 14260.5 4796.08 L 13657.2 3537.42 M 14144.1 3719.4 L 13657.2 3537.42 M 17383.5 4075.89 L 17260.6 2414.9 M 9384.22 8210.46 L 9442.67 9539.35 M 7932.36 8442.38 L 9442.67 9539.35 M 7932.36 8442.38 L 7983.04 9877.75 M 6862.81 9182.96 L 7983.04 9877.75 M 6862.81 9182.96 L 6604.65 10455.6 M 5376.14 9770.81 L 6604.65 10455.6 M 5943.76 11230.2 L 6604.65 10455.6 M 5376.14 9770.81 L 5943.76 11230.2 M 4805.71 10045.4 L 5943.76 11230.2 M 4805.71 10045.4 L 4349.88 11945.9 M 5943.76 11230.2 L 7186.78 11004.8 M 7009.24 12101.7 L 7186.78 11004.8 M 6862.81 9182.96 L 5376.14 9770.81 M 6862.81 9182.96 L 5548.68 8593.95 M 3623.35 11080.6 L 4349.88 11945.9 M 5943.76 11230.2 L 7009.24 12101.7 M 5496.68 12418.2 L 7009.24 12101.7 M 5496.68 12418.2 L 6375.25 12977.3 M 6375.25 12977.3 L 7009.24 12101.7 M 7186.78 11004.8 L 6604.65 10455.6 M 7009.24 12101.7 L 7766.6 11966.4 M 4349.88 11945.9 L 5943.76 11230.2 M 4349.88 11945.9 L 5353.92 12354.1 M 7347.02 13453.8 L 7766.6 11966.4 M 7347.02 13453.8 L 8461.27 12999.4 M 7766.6 11966.4 L 7186.78 11004.8 M 7766.6 11966.4 L 8085.22 10136.6 M 5376.14 9770.81 L 4805.71 10045.4 M 5127.42 8607.66 L 4805.71 10045.4 M 4805.71 10045.4 L 3623.35 11080.6 M 3332.21 9857.1 L 3623.35 11080.6 M 5142.92 13694.7 L 6375.25 12977.3 M 5142.92 13694.7 L 6194.2 14034.8 M 3623.35 11080.6 L 3456.82 12097.8 M 2665.81 10617.7 L 3456.82 12097.8 M 2665.81 10617.7 L 2885.41 11389.5 M 2665.81 10617.7 L 2208.72 11364.7 M 2208.72 11364.7 L 2885.41 11389.5 M 3065.51 12171.9 L 2885.41 11389.5 M 2208.72 11364.7 L 3065.51 12171.9 M 2208.72 11364.7 L 2342.23 12536 M 1614.18 11258 L 2342.23 12536 M 1614.18 11258 L 1583.12 13359.2 M 2342.23 12536 L 3065.51 12171.9 M 2282.63 10182.7 L 2208.72 11364.7 M 8957.75 11618.7 L 8085.22 10136.6 M 8957.75 11618.7 L 9559.83 10402.2 M 9938.13 11837 L 9559.83 10402.2 M 6375.25 12977.3 L 7211.9 13480.5 M 6277.49 14045.7 L 7211.9 13480.5 M 9938.13 11837 L 10667 10710 M 4349.88 11945.9 L 4706.49 13509.8 M 4005.24 13274.2 L 4706.49 13509.8 M 4005.24 13274.2 L 4649.98 14745.3 M 2342.23 12536 L 2593.9 13339.5 M 1872.93 13552.7 L 2593.9 13339.5 M 1872.93 13552.7 L 2542.54 14323.8 M 2593.9 13339.5 L 3065.51 12171.9 M 2593.9 13339.5 L 3435.39 13517 M 12622.2 9554.17 L 13777.9 9066.78 M 15636 8380.04 L 15639.7 7071.83 M 15636 8380.04 L 16805.9 8037.44 M 16066.3 9309.91 L 16805.9 8037.44 M 14015.4 7686.24 L 15001.5 8087.97 M 14146 9080.95 L 15001.5 8087.97 M 14146 9080.95 L 15588.6 8466.46 M 3435.39 13517 L 3065.51 12171.9 M 3435.39 13517 L 3698.9 13861.4 M 3698.9 13861.4 L 3065.51 12171.9 M 5127.42 8607.66 L 4341.43 8558.4 M 5469.27 7587.26 L 4341.43 8558.4 M 4341.43 8558.4 L 4805.71 10045.4 M 4341.43 8558.4 L 3341.46 9795.17 M 3274.09 8249.2 L 3341.46 9795.17 M 3332.21 9857.1 L 2827.04 10375.6 M 14146 9080.95 L 15796.1 9469.85 M 14686 10508.9 L 15796.1 9469.85 M 14686 10508.9 L 15844.5 10520.2 M 15697.7 5415.11 L 17224.1 5451.87 M 16507.3 5975.15 L 17224.1 5451.87 M 15697.7 5415.11 L 16507.3 5975.15 M 2282.63 10182.7 L 1489.43 10180.5 M 2282.63 10182.7 L 2164.86 9884.88 M 12622.2 9554.17 L 13590.4 10581.9 M 3698.9 13861.4 L 3295.4 11972.7 M 3922.2 12831.8 L 3295.4 11972.7 M 2208.72 11364.7 L 1614.18 11258 M 1655.67 10094.3 L 1614.18 11258 M 13503.7 4775.14 L 12555.6 3556.67 M 13401.4 3532.12 L 12555.6 3556.67 M 12687 11026.5 L 13590.4 10581.9 M 3274.09 8249.2 L 2512.51 8495.59 M 5469.27 7587.26 L 4078.69 7327.08 M 4775.21 6516.14 L 4078.69 7327.08 M 4775.21 6516.14 L 3500.76 6597.43 M 3883.76 6267.16 L 3500.76 6597.43 M 16609.9 4470.54 L 17383.5 4075.89 M 17508.2 5200.79 L 17383.5 4075.89 M 12529.3 3554.04 L 11480.4 3308.46 M 12028.7 2469.71 L 11480.4 3308.46 M 12028.7 2469.71 L 10791.3 2600.99 M 4775.21 6516.14 L 3883.76 6267.16 M 4775.21 6516.14 L 5570.13 5893.97 M 5570.13 5893.97 L 3883.76 6267.16 M 6862.81 9182.96 L 6349.7 7875.3 M 7663.28 8157.46 L 6349.7 7875.3 M 11757.8 4327.74 L 10478.6 4375.24 M 11308.1 3371.87 L 10478.6 4375.24 M 7766.6 11966.4 L 8957.75 11618.7 M 8630.44 12862.7 L 8957.75 11618.7 M 14378.5 3076.81 L 13188.5 3349.99 M 13492 2593.85 L 13188.5 3349.99 M 2683.5 14321.1 L 3435.39 13517 M 2683.5 14321.1 L 3698.64 14431.9 M 16777.4 6752.39 L 15394.7 6038.06 M 16777.4 6752.39 L 16543.8 6463.5 M 11395.9 11620.8 L 10667 10710 M 11395.9 11620.8 L 11784.7 10549.1 M 9772.01 5855.01 L 10947.2 6575.91 M 9772.01 5855.01 L 9929.16 7238.65 M 8857.51 5898.38 L 9929.16 7238.65 M 8857.51 5898.38 L 9013.93 7487.18 M 11074.7 1115.97 L 10791.3 2600.99 M 11074.7 1115.97 L 10221.1 1865.24 M 15785.4 2962.45 L 14927.5 1445.39 M 16508.6 1564.98 L 14927.5 1445.39 M 2164.86 9884.88 L 1489.43 10180.5 M 5599.08 14844.3 L 6194.2 14034.8 M 5599.08 14844.3 L 6879.46 15031 M 14927.5 1445.39 L 14705.7 2731.32 M 14927.5 1445.39 L 14272 1819.66 M 13038.4 1952.56 L 12555.6 3556.67 M 13038.4 1952.56 L 12268.9 2397.27 M 16066.3 9309.91 L 17302.4 9532.28 M 16451.6 10288.3 L 17302.4 9532.28 M 4005.24 13274.2 L 3927.09 14928.1 M 3861.68 14317.9 L 3927.09 14928.1 M 2512.51 8495.59 L 3341.46 9795.17 M 2512.51 8495.59 L 2475.25 9577.52 M 1596.31 8334.31 L 2475.25 9577.52 M 1596.31 8334.31 L 812.604 8492.96 M 3135.58 14420.6 L 3698.9 13861.4" />
</svg>
