<?xml version="1.0"?>
<svg width="584" height="708" version="1.1" xmlns="http://www.w3.org/2000/svg" >
<defs>
<style type="text/css"><![CDATA[
.m {stroke:rgb(255,0,0);stroke-width:0.885000;}
.v {stroke:rgb(0,0,255);stroke-width:0.885000;}
.b {stroke:rgb(0,0,0);stroke-width:1.770000;fill:white}
.n {stroke:rgb(128,128,128);stroke-width:0.885000}
.t {stroke:rgb(0,128,0);stroke-width:0.885000;}
.c {stroke:rgb(128,128,128);stroke-width:0.885000;stroke-dasharray:5.840000, 5.840000;}
]]></style>
</defs>
<path fill="none" style="stroke:black;stroke-width:1.770000;" d=" M 230.54 207.708 L 267.797 180.403 M 247.601 145.916 L 224.268 165.408 M 283.471 544.741 L 256.425 487.931 M 283.49 544.732 L 287.331 502.543 M 256.425 487.931 L 283.49 544.732 M 501.205 443.166 L 478.423 453.063 M 287.331 502.543 L 276.597 543.524 M 227.793 300.634 L 192.414 303.602 M 363.237 346.668 L 343.554 317.12 M 223.208 192.463 L 262.582 209.576 M 267.797 180.403 L 223.208 192.463 M 262.582 209.576 L 228.529 183.43 M 243.97 264.635 L 262.148 293.037 M 299.416 439.9 L 363.237 346.668 M 478.423 453.063 L 467.703 430.656 M 286.984 158.084 L 271.37 126.957 M 271.37 126.957 L 247.601 145.916 M 192.414 303.602 L 138.579 204.268 M 262.148 293.037 L 239.576 267.984 M 317.022 445.687 L 299.416 439.9 M 138.579 204.268 L 123.285 214.734 M 281.425 245.286 L 285.533 208.82 M 258.981 137.382 L 286.984 158.084 M 206.69 265.859 L 227.793 300.634 M 472.658 474.452 L 418.614 505.31 M 415.046 497.986 L 472.658 474.452 M 343.554 317.12 L 308.07 337.009 M 322.664 590.422 L 300.489 552.275 M 278.256 588.424 L 322.664 590.422 M 191.378 353.574 L 239.055 324.303 M 492.594 512.705 L 511.534 531.734 M 223.959 477.625 L 242.174 497.43 M 233.849 586.433 L 278.256 588.424 M 439.487 449.82 L 367.991 479.677 M 270.814 443.327 L 225.747 440.514 M 226.592 452.458 L 270.814 443.327 M 411.564 491.447 L 430.387 465.563 M 344.255 558.552 L 330.846 539.524 M 430.387 465.563 L 406.668 487.05 M 342.221 356.112 L 310.125 353.025 M 239.576 267.984 L 214.272 254.207 M 499.759 474.35 L 531.652 461.804 M 515.99 481.316 L 524.206 498.37 M 584.616 474.812 L 515.99 481.316 M 242.174 497.43 L 225.238 518.338 M 215.586 259.688 L 243.97 264.635 M 389.813 509.281 L 439.487 449.82 M 224.268 165.408 L 181.56 164.993 M 310.649 362.659 L 342.221 356.112 M 239.055 324.303 L 202.753 366.871 M 494.614 539.478 L 492.594 512.705 M 367.991 479.677 L 339.413 510.782 M 524.206 498.37 L 499.759 474.35 M 330.846 539.524 L 353.593 544.465 M 132.952 314.081 L 169.233 311.036 M 169.233 311.036 L 136.065 326.051 M 209.14 217.8 L 230.54 207.708 M 346.236 479.018 L 310.982 482.804 M 368.319 498.474 L 346.236 479.018 M 418.614 505.31 L 389.013 550.419 M 246.456 404.511 L 277.856 410.911 M 249.768 602.086 L 283.471 544.741 M 277.856 410.911 L 246.134 406.37 M 228.529 183.43 L 206.15 175.75 M 289.205 209.423 L 281.425 245.286 M 270.483 96.2507 L 258.981 137.382 M 387.355 551.45 L 389.813 509.281 M 467.703 430.656 L 449.118 407.494 M 300.489 552.275 L 297.686 596.31 M 517.045 418.046 L 501.205 443.166 M 336.076 289.039 L 369.441 323.411 M 448.789 531.111 L 416.202 582.415 M 419.189 584.194 L 448.789 531.111 M 285.533 208.82 L 323.43 219.184 M 310.982 482.804 L 346.186 487.031 M 350.512 469.377 L 317.022 445.687 M 336.764 324.552 L 307.847 286.362 M 301.192 320.665 L 336.764 324.552 M 573.507 542.844 L 584.616 474.812 M 410.49 564.191 L 439.527 514.083 M 123.285 214.734 L 83.1397 223.166 M 549.6 455.784 L 517.045 418.046 M 531.652 461.804 L 549.6 455.784 M 343.93 603.32 L 344.255 558.552 M 184.907 186.64 L 215.586 259.688 M 353.593 544.465 L 358.843 588.925 M 261.36 190.489 L 191.277 231.937 M 214.272 254.207 L 261.36 190.489 M 276.818 366.532 L 310.649 362.659 M 369.441 323.411 L 379.597 290.355 M 236.004 228.528 L 270.874 236.56 M 462.933 590.298 L 494.614 539.478 M 225.238 518.338 L 189.087 575.408 M 408.032 518.855 L 411.564 491.447 M 276.597 543.524 L 210.812 553.362 M 158.043 220.388 L 209.14 217.8 M 196.929 194.763 L 158.043 220.388 M 343.498 482.659 L 368.319 498.474 M 406.668 487.05 L 379.379 491.407 M 546.082 527.077 L 553.026 555.371 M 388.556 579.309 L 419.189 584.194 M 181.56 164.993 L 150.694 200.345 M 150.694 200.345 L 196.929 194.763 M 339.413 510.782 L 336.307 536.496 M 525.01 547.194 L 546.082 527.077 M 326.711 197.724 L 289.205 209.423 M 424.595 551.087 L 415.046 497.986 M 141.66 368.554 L 191.378 353.574 M 310.125 353.025 L 284.139 331.02 M 234.195 396.421 L 258.82 355.049 M 511.534 531.734 L 467.153 571.942 M 467.153 571.942 L 525.01 547.194 M 340.153 245.198 L 336.076 289.039 M 309.566 357.542 L 301.192 320.665 M 320.364 153.122 L 365.437 119.651 M 439.527 514.083 L 430.633 456.857 M 312.178 566.292 L 267.649 588.674 M 449.118 407.494 L 411.056 388.373 M 220.055 208.755 L 220.34 259.358 M 220.34 259.358 L 236.004 228.528 M 301.126 227.719 L 260.612 201.881 M 136.065 326.051 L 115.633 347.148 M 289.543 114.266 L 324.552 69.6164 M 307.847 286.362 L 340.304 256.61 M 394.703 504.17 L 388.556 579.309 M 246.134 406.37 L 197.193 424.855 M 399 574.585 L 387.355 551.45 M 322.598 262.727 L 353.214 256.613 M 308.561 246.081 L 294.455 276.241 M 294.455 276.241 L 322.598 262.727 M 409.235 432.452 L 324.281 451.284 M 104.102 308.583 L 132.952 314.081 M 202.753 366.871 L 194.439 418.127 M 225.747 440.514 L 171.807 434.002 M 235.874 160.686 L 220.055 208.755 M 260.612 201.881 L 235.874 160.686 M 234.386 570.136 L 199.641 595.878 M 199.641 595.878 L 233.849 586.433 M 297.686 596.31 L 314.573 627.523 M 258.82 355.049 L 278.304 399.077 M 577.654 565.684 L 573.507 542.844 M 158.397 157.385 L 184.907 186.64 M 206.15 175.75 L 158.397 157.385 M 344.286 538.301 L 312.178 566.292 M 370.737 172.735 L 376.506 153.34 M 376.506 153.34 L 320.364 153.122 M 349.896 212.745 L 338.91 170.791 M 320.621 432.539 L 343.498 482.659 M 357.244 472.899 L 320.621 432.539 M 324.281 451.284 L 303.497 463.876 M 303.497 463.876 L 357.244 472.899 M 358.868 282.797 L 399.962 234.212 M 191.277 231.937 L 206.69 265.859 M 254.595 607.869 L 302.364 606.93 M 267.649 588.674 L 254.595 607.869 M 285.647 51.8377 L 270.483 96.2507 M 195.69 417.15 L 246.456 404.511 M 416.202 582.415 L 400.099 608.928 M 270.874 236.56 L 274.889 274.162 M 353.214 256.613 L 356.86 205.699 M 231.014 427.224 L 234.195 396.421 M 357.08 219.189 L 358.868 282.797 M 351.86 557.479 L 408.032 518.855 M 356.86 205.699 L 360.302 182.984 M 360.302 182.984 L 326.711 197.724 M 308.07 337.009 L 319.451 301.53 M 283.694 296.671 L 268.686 325.377 M 553.026 555.371 L 513.341 604.208 M 325.586 274.696 L 308.561 246.081 M 460.725 618.454 L 443.572 577.997 M 431.486 615.731 L 460.725 618.454 M 238.701 383.306 L 207.969 387.874 M 302.364 606.93 L 321.304 650.793 M 313.732 381.351 L 309.566 357.542 M 338.91 170.791 L 335.286 214.007 M 319.451 301.53 L 392.436 337.623 M 340.304 256.61 L 408.947 236.317 M 159.776 456.546 L 223.959 477.625 M 377.112 221.765 L 373.253 195.23 M 306.055 412.82 L 313.732 381.351 M 278.304 399.077 L 306.055 412.82 M 393.524 300.643 L 370.632 298.705 M 342.017 377.193 L 409.235 432.452 M 445.799 621.884 L 462.933 590.298 M 443.572 577.997 L 445.799 621.884 M 274.889 274.162 L 283.694 296.671 M 48.1679 253.768 L 104.102 308.583 M 370.632 298.705 L 325.586 274.696 M 197.735 462.803 L 231.014 427.224 M 348.574 485.474 L 344.286 538.301 M 327.056 587.367 L 373.649 539.397 M 203.286 600.181 L 234.386 570.136 M 258.195 372.95 L 276.818 366.532 M 268.686 325.377 L 258.195 372.95 M 39.5692 365.793 L 141.66 368.554 M 115.633 347.148 L 39.5692 365.793 M 323.43 219.184 L 324.817 255.841 M 381.117 626.73 L 327.056 587.367 M 321.304 650.793 L 361.706 664.353 M 365.437 119.651 L 355.481 70.1598 M 207.716 385.6 L 238.701 383.306 M 284.139 331.02 L 269.797 317.517 M 379.447 512.729 L 368.071 573.197 M 368.071 573.197 L 424.595 551.087 M 375.302 617.681 L 399 574.585 M 358.843 588.925 L 375.302 617.681 M 408.947 236.317 L 301.126 227.719 M 395.815 709.364 L 424.002 700.964 M 424.002 700.964 L 382.274 638.175 M 364.211 198.258 L 377.112 221.765 M 173.222 518.027 L 197.735 462.803 M 194.439 418.127 L 173.222 518.027 M 379.379 491.407 L 340.273 435.57 M 83.1397 223.166 L 44.6798 214.804 M 409.533 635.235 L 431.486 615.731 M 373.253 195.23 L 335.626 193.183 M 269.797 317.517 L 216.044 345.108 M 389.013 550.419 L 332.023 529.542 M 365.829 632.155 L 395.601 620.648 M 370.067 581.409 L 365.829 632.155 M 350.149 233.218 L 364.211 198.258 M 389.228 476.46 L 350.512 469.377 M 415.257 188.238 L 381.193 233.31 M 379.597 290.355 L 415.257 188.238 M 346.038 636.385 L 343.93 603.32 M 324.817 255.841 L 350.127 248.877 M 350.127 248.877 L 349.896 212.745 M 513.341 604.208 L 488.765 630.422 M 305.973 182.306 L 340.153 245.198 M 430.32 673.856 L 381.117 626.73 M 362.931 633.163 L 430.32 673.856 M 384.644 275.939 L 393.524 300.643 M 304.164 573.721 L 351.86 557.479 M 336.307 536.496 L 304.164 573.721 M 173.878 439.298 L 226.592 452.458 M 346.186 487.031 L 385.318 525.815 M 430.633 456.857 L 399.09 442.167 M 399.09 442.167 L 394.703 504.17 M 361.706 664.353 L 395.815 709.364 M 392.436 337.623 L 426.962 356.772 M 438.065 585.411 L 410.49 564.191 M 566.752 606.883 L 577.654 565.684 M 373.649 539.397 L 439.971 523.805 M 439.971 523.805 L 379.447 512.729 M 210.812 553.362 L 165.263 558.553 M 165.263 558.553 L 203.286 600.181 M 399.962 234.212 L 421.125 202.163 M 332.023 529.542 L 320.237 570.921 M 320.237 570.921 L 370.067 581.409 M 316.155 64.1556 L 289.543 114.266 M 411.056 388.373 L 369.593 355.359 M 382.274 638.175 L 416.216 586.102 M 304.212 15.7785 L 285.647 51.8377 M 171.807 434.002 L 152.821 397.877 M 373.371 152.672 L 370.737 172.735 M 197.193 424.855 L 158.916 401.329 M 158.916 401.329 L 173.878 439.298 M 317.905 374.167 L 342.017 377.193 M 338.831 51.5879 L 304.212 15.7785 M 324.552 69.6164 L 338.831 51.5879 M 297.847 681.364 L 346.038 636.385 M 314.573 627.523 L 297.847 681.364 M 463.839 373.653 L 444.665 335.477 M 426.962 356.772 L 463.839 373.653 M 2.9449 217.141 L 48.1679 253.768 M 214.235 631.052 L 249.768 602.086 M 408.032 568.641 L 362.931 633.163 M 189.087 575.408 L 196.538 604.449 M 207.969 387.874 L 153.713 401.135 M 153.713 401.135 L 195.69 417.15 M 367.766 182.299 L 357.08 219.189 M 340.273 435.57 L 309.872 395.389 M 335.286 214.007 L 310.342 240.149 M 419.421 505.885 L 389.228 476.46 M 373.012 620.39 L 409.533 635.235 M 400.099 608.928 L 373.012 620.39 M 355.481 70.1598 L 334.751 43.6583 M 310.972 41.7487 L 316.155 64.1556 M 268.93 422.633 L 348.574 485.474 M 269.211 370.045 L 317.905 374.167 M 369.593 355.359 L 269.211 370.045 M 539.64 623.927 L 522.766 642.303 M 522.766 642.303 L 566.752 606.883 M 304.727 269.018 L 350.149 233.218 M 310.342 240.149 L 304.727 269.018 M 309.872 395.389 L 244.3 402.156 M 216.044 345.108 L 167.568 377.305 M 444.665 335.477 L 430.509 304.067 M 408.35 304.447 L 488.946 285.801 M 420.597 279.819 L 408.35 304.447 M 385.318 525.815 L 431.39 542.107 M 446.535 270.668 L 420.597 279.819 M 196.538 604.449 L 194.74 636.532 M 162.396 418.245 L 207.716 385.6 M 44.6798 214.804 L 31.6356 174.712 M 488.765 630.422 L 525.576 644.533 M 525.576 644.533 L 539.64 623.927 M 152.821 397.877 L 143.079 424.786 M 423.594 262.094 L 419.152 239.127 M 381.193 233.31 L 397.082 179.094 M 414.616 240.493 L 423.594 262.094 M 449.447 556.987 L 408.032 568.641 M 416.216 586.102 L 449.447 556.987 M 395.601 620.648 L 426.64 628.09 M 426.64 628.09 L 438.065 585.411 M 414.258 123.064 L 373.371 152.672 M 471.69 327.056 L 446.535 270.668 M 430.509 304.067 L 446.71 334.473 M 421.125 202.163 L 422.814 161.219 M 361.312 258.037 L 384.644 275.939 M 446.71 334.473 L 462.379 374.216 M 462.379 374.216 L 471.69 327.056 M 358.471 140.052 L 305.973 182.306 M 335.626 193.183 L 358.471 140.052 M 138.13 477.291 L 159.776 456.546 M 0 179.124 L 2.9449 217.141 M 381.864 143.822 L 367.766 182.299 M 283.808 0 L 310.972 41.7487 M 321.183 30.2312 L 283.808 0 M 167.568 377.305 L 131.199 365.849 M 128.525 507.956 L 138.13 477.291 M 422.814 161.219 L 440.099 101.515 M 440.099 101.515 L 414.258 123.064 M 143.079 424.786 L 112.832 451.279 M 194.74 636.532 L 221.562 675.14 M 221.562 675.14 L 214.235 631.052 M 334.751 43.6583 L 321.183 30.2312 M 431.39 542.107 L 468.378 522.992 M 468.378 522.992 L 419.421 505.885 M 442.245 129.078 L 381.864 143.822 M 397.082 179.094 L 442.245 129.078 M 433.476 224.43 L 414.616 240.493 M 488.946 285.801 L 433.476 224.43 M 136.683 405.682 L 162.396 418.245 M 131.199 365.849 L 136.683 405.682 M 234.275 445.709 L 268.93 422.633 M 244.3 402.156 L 234.275 445.709 M 348.511 243.877 L 361.312 258.037 M 404.948 218.831 L 348.511 243.877 M 419.152 239.127 L 404.948 218.831 M 4.60641 130.453 L 0 179.124 M 31.6356 174.712 L 4.60641 130.453 M 112.832 451.279 L 64.9481 461.141 M 64.9481 461.141 L 101.834 483.976 M 101.834 483.976 L 84.1977 523.611 M 84.1977 523.611 L 128.525 507.956" />
<path fill="none" class="c" d=" M 286.984 158.084 L 247.601 145.916 M 247.601 145.916 L 267.797 180.403 M 267.797 180.403 L 286.984 158.084 M 247.601 145.916 L 230.54 207.708 M 267.797 180.403 L 320.364 153.122 M 224.268 165.408 L 230.54 207.708 M 267.797 180.403 L 262.582 209.576 M 262.582 209.576 L 320.364 153.122 M 224.268 165.408 L 196.929 194.763 M 320.364 153.122 L 286.984 158.084 M 196.929 194.763 L 230.54 207.708 M 285.533 208.82 L 320.364 153.122 M 320.364 153.122 L 258.981 137.382 M 285.533 208.82 L 338.91 170.791 M 289.543 114.266 L 258.981 137.382 M 320.364 153.122 L 289.543 114.266 M 323.43 219.184 L 338.91 170.791 M 289.543 114.266 L 270.483 96.2507 M 365.437 119.651 L 289.543 114.266 M 323.43 219.184 L 349.896 212.745 M 196.929 194.763 L 209.14 217.8 M 338.91 170.791 L 320.364 153.122 M 181.56 164.993 L 196.929 194.763 M 324.817 255.841 L 349.896 212.745 M 370.737 172.735 L 320.364 153.122 M 338.91 170.791 L 370.737 172.735 M 262.582 209.576 L 285.533 208.82 M 355.481 70.1598 L 289.543 114.266 M 262.582 209.576 L 281.425 245.286 M 355.481 70.1598 L 316.155 64.1556 M 262.582 209.576 L 262.148 293.037 M 262.148 293.037 L 281.425 245.286 M 334.751 43.6583 L 316.155 64.1556 M 262.582 209.576 L 243.97 264.635 M 262.148 293.037 L 307.847 286.362 M 334.751 43.6583 L 310.972 41.7487 M 228.529 183.43 L 243.97 264.635 M 262.148 293.037 L 301.192 320.665 M 301.192 320.665 L 307.847 286.362 M 321.183 30.2312 L 310.972 41.7487 M 307.847 286.362 L 281.425 245.286 M 239.055 324.303 L 301.192 320.665 M 364.211 198.258 L 370.737 172.735 M 338.91 170.791 L 364.211 198.258 M 307.847 286.362 L 289.205 209.423 M 324.552 69.6164 L 270.483 96.2507 M 258.82 355.049 L 301.192 320.665 M 377.112 221.765 L 370.737 172.735 M 335.286 214.007 L 364.211 198.258 M 322.598 262.727 L 289.205 209.423 M 399.962 234.212 L 370.737 172.735 M 335.286 214.007 L 350.149 233.218 M 322.598 262.727 L 326.711 197.724 M 421.125 202.163 L 370.737 172.735 M 310.342 240.149 L 350.149 233.218 M 353.214 256.613 L 326.711 197.724 M 421.125 202.163 L 373.371 152.672 M 324.552 69.6164 L 285.647 51.8377 M 356.86 205.699 L 326.711 197.724 M 422.814 161.219 L 373.371 152.672 M 324.552 69.6164 L 304.212 15.7785 M 258.82 355.049 L 309.566 357.542 M 422.814 161.219 L 414.258 123.064 M 377.112 221.765 L 399.962 234.212 M 278.304 399.077 L 309.566 357.542 M 377.112 221.765 L 358.868 282.797 M 278.304 399.077 L 313.732 381.351 M 336.076 289.039 L 358.868 282.797 M 377.112 221.765 L 336.076 289.039 M 369.441 323.411 L 358.868 282.797 M 377.112 221.765 L 340.153 245.198 M 379.597 290.355 L 358.868 282.797 M 373.253 195.23 L 340.153 245.198 M 379.597 290.355 L 357.08 219.189 M 335.626 193.183 L 340.153 245.198 M 381.193 233.31 L 357.08 219.189 M 379.597 290.355 L 381.193 233.31 M 335.626 193.183 L 305.973 182.306 M 381.193 233.31 L 367.766 182.299 M 307.847 286.362 L 322.598 262.727 M 397.082 179.094 L 367.766 182.299 M 340.304 256.61 L 322.598 262.727 M 397.082 179.094 L 381.864 143.822 M 308.561 246.081 L 322.598 262.727 M 340.304 256.61 L 308.561 246.081 M 228.529 183.43 L 215.586 259.688 M 408.947 236.317 L 308.561 246.081 M 206.15 175.75 L 215.586 259.688 M 301.126 227.719 L 308.561 246.081 M 206.15 175.75 L 184.907 186.64 M 301.126 227.719 L 270.874 236.56 M 270.874 236.56 L 308.561 246.081 M 260.612 201.881 L 270.874 236.56 M 274.889 274.162 L 308.561 246.081 M 260.612 201.881 L 236.004 228.528 M 274.889 274.162 L 325.586 274.696 M 260.612 201.881 L 220.055 208.755 M 220.055 208.755 L 236.004 228.528 M 283.694 296.671 L 325.586 274.696 M 319.451 301.53 L 325.586 274.696 M 283.694 296.671 L 319.451 301.53 M 319.451 301.53 L 370.632 298.705 M 283.694 296.671 L 308.07 337.009 M 392.436 337.623 L 370.632 298.705 M 268.686 325.377 L 308.07 337.009 M 392.436 337.623 L 393.524 300.643 M 310.649 362.659 L 308.07 337.009 M 268.686 325.377 L 310.649 362.659 M 420.597 279.819 L 393.524 300.643 M 392.436 337.623 L 420.597 279.819 M 342.221 356.112 L 308.07 337.009 M 239.055 324.303 L 258.82 355.049 M 262.148 293.037 L 239.055 324.303 M 268.686 325.377 L 276.818 366.532 M 430.509 304.067 L 420.597 279.819 M 202.753 366.871 L 258.82 355.049 M 227.793 300.634 L 239.055 324.303 M 262.148 293.037 L 227.793 300.634 M 342.221 356.112 L 343.554 317.12 M 430.509 304.067 L 446.535 270.668 M 202.753 366.871 L 234.195 396.421 M 192.414 303.602 L 239.055 324.303 M 446.71 334.473 L 446.535 270.668 M 194.439 418.127 L 234.195 396.421 M 239.576 267.984 L 227.793 300.634 M 192.414 303.602 L 169.233 311.036 M 169.233 311.036 L 239.055 324.303 M 446.71 334.473 L 471.69 327.056 M 194.439 418.127 L 231.014 427.224 M 239.576 267.984 L 206.69 265.859 M 138.579 204.268 L 169.233 311.036 M 169.233 311.036 L 191.378 353.574 M 194.439 418.127 L 197.735 462.803 M 214.272 254.207 L 206.69 265.859 M 123.285 214.734 L 169.233 311.036 M 136.065 326.051 L 191.378 353.574 M 342.221 356.112 L 363.237 346.668 M 214.272 254.207 L 191.277 231.937 M 123.285 214.734 L 132.952 314.081 M 136.065 326.051 L 141.66 368.554 M 342.221 356.112 L 299.416 439.9 M 420.597 279.819 L 384.644 275.939 M 83.1397 223.166 L 132.952 314.081 M 342.221 356.112 L 270.814 443.327 M 420.597 279.819 L 423.594 262.094 M 423.594 262.094 L 384.644 275.939 M 83.1397 223.166 L 104.102 308.583 M 342.221 356.112 L 277.856 410.911 M 277.856 410.911 L 270.814 443.327 M 488.946 285.801 L 423.594 262.094 M 419.152 239.127 L 384.644 275.939 M 83.1397 223.166 L 48.1679 253.768 M 310.125 353.025 L 277.856 410.911 M 277.856 410.911 L 226.592 452.458 M 488.946 285.801 L 414.616 240.493 M 419.152 239.127 L 361.312 258.037 M 44.6798 214.804 L 48.1679 253.768 M 246.134 406.37 L 226.592 452.458 M 310.125 353.025 L 246.456 404.511 M 419.152 239.127 L 348.511 243.877 M 44.6798 214.804 L 2.9449 217.141 M 197.193 424.855 L 226.592 452.458 M 284.139 331.02 L 246.456 404.511 M 420.597 279.819 L 488.946 285.801 M 31.6356 174.712 L 2.9449 217.141 M 197.193 424.855 L 173.878 439.298 M 238.701 383.306 L 246.456 404.511 M 284.139 331.02 L 238.701 383.306 M 31.6356 174.712 L 0 179.124 M 238.701 383.306 L 195.69 417.15 M 284.139 331.02 L 207.716 385.6 M 207.969 387.874 L 195.69 417.15 M 269.797 317.517 L 207.716 385.6 M 115.633 347.148 L 141.66 368.554 M 216.044 345.108 L 207.716 385.6 M 270.814 443.327 L 299.416 439.9 M 392.436 337.623 L 430.509 304.067 M 256.425 487.931 L 299.416 439.9 M 426.962 356.772 L 430.509 304.067 M 256.425 487.931 L 317.022 445.687 M 426.962 356.772 L 444.665 335.477 M 256.425 487.931 L 310.982 482.804 M 310.982 482.804 L 317.022 445.687 M 256.425 487.931 L 287.331 502.543 M 287.331 502.543 L 310.982 482.804 M 310.982 482.804 L 350.512 469.377 M 287.331 502.543 L 346.236 479.018 M 346.186 487.031 L 350.512 469.377 M 287.331 502.543 L 330.846 539.524 M 330.846 539.524 L 346.236 479.018 M 346.186 487.031 L 389.228 476.46 M 276.597 543.524 L 330.846 539.524 M 353.593 544.465 L 346.236 479.018 M 385.318 525.815 L 389.228 476.46 M 276.597 543.524 L 300.489 552.275 M 300.489 552.275 L 330.846 539.524 M 353.593 544.465 L 368.319 498.474 M 385.318 525.815 L 419.421 505.885 M 276.597 543.524 L 278.256 588.424 M 278.256 588.424 L 300.489 552.275 M 300.489 552.275 L 344.255 558.552 M 389.813 509.281 L 368.319 498.474 M 353.593 544.465 L 389.813 509.281 M 276.597 543.524 L 234.386 570.136 M 431.39 542.107 L 419.421 505.885 M 297.686 596.31 L 344.255 558.552 M 210.812 553.362 L 234.386 570.136 M 439.487 449.82 L 368.319 498.474 M 297.686 596.31 L 343.93 603.32 M 210.812 553.362 L 203.286 600.181 M 439.487 449.82 L 409.235 432.452 M 409.235 432.452 L 368.319 498.474 M 314.573 627.523 L 343.93 603.32 M 439.487 449.82 L 467.703 430.656 M 467.703 430.656 L 409.235 432.452 M 357.244 472.899 L 368.319 498.474 M 314.573 627.523 L 346.038 636.385 M 439.487 449.82 L 478.423 453.063 M 449.118 407.494 L 409.235 432.452 M 357.244 472.899 L 343.498 482.659 M 409.235 432.452 L 357.244 472.899 M 430.387 465.563 L 478.423 453.063 M 439.487 449.82 L 430.387 465.563 M 411.056 388.373 L 409.235 432.452 M 324.281 451.284 L 357.244 472.899 M 472.658 474.452 L 478.423 453.063 M 430.387 465.563 L 472.658 474.452 M 367.991 479.677 L 430.387 465.563 M 411.056 388.373 L 342.017 377.193 M 499.759 474.35 L 478.423 453.063 M 472.658 474.452 L 499.759 474.35 M 353.593 544.465 L 387.355 551.45 M 234.386 570.136 L 278.256 588.424 M 472.658 474.452 L 492.594 512.705 M 358.843 588.925 L 387.355 551.45 M 234.386 570.136 L 233.849 586.433 M 216.044 345.108 L 162.396 418.245 M 270.814 443.327 L 256.425 487.931 M 430.387 465.563 L 415.046 497.986 M 367.991 479.677 L 411.564 491.447 M 369.593 355.359 L 342.017 377.193 M 448.789 531.111 L 492.594 512.705 M 358.843 588.925 L 399 574.585 M 167.568 377.305 L 162.396 418.245 M 242.174 497.43 L 256.425 487.931 M 270.814 443.327 L 242.174 497.43 M 406.668 487.05 L 415.046 497.986 M 339.413 510.782 L 411.564 491.447 M 448.789 531.111 L 443.572 577.997 M 369.593 355.359 L 317.905 374.167 M 131.199 365.849 L 162.396 418.245 M 379.447 512.729 L 415.046 497.986 M 336.307 536.496 L 411.564 491.447 M 416.202 582.415 L 443.572 577.997 M 242.174 497.43 L 283.471 544.741 M 270.814 443.327 L 223.959 477.625 M 379.447 512.729 L 424.595 551.087 M 336.307 536.496 L 408.032 518.855 M 416.202 582.415 L 431.486 615.731 M 431.486 615.731 L 443.572 577.997 M 225.238 518.338 L 283.471 544.741 M 225.747 440.514 L 223.959 477.625 M 336.307 536.496 L 351.86 557.479 M 400.099 608.928 L 431.486 615.731 M 225.238 518.338 L 249.768 602.086 M 171.807 434.002 L 223.959 477.625 M 406.668 487.05 L 379.447 512.729 M 400.099 608.928 L 409.533 635.235 M 189.087 575.408 L 249.768 602.086 M 171.807 434.002 L 159.776 456.546 M 379.379 491.407 L 379.447 512.729 M 443.572 577.997 L 492.594 512.705 M 189.087 575.408 L 214.235 631.052 M 152.821 397.877 L 159.776 456.546 M 379.379 491.407 L 348.574 485.474 M 348.574 485.474 L 379.447 512.729 M 443.572 577.997 L 494.614 539.478 M 196.538 604.449 L 214.235 631.052 M 143.079 424.786 L 159.776 456.546 M 340.273 435.57 L 348.574 485.474 M 344.286 538.301 L 379.447 512.729 M 443.572 577.997 L 462.933 590.298 M 194.74 636.532 L 214.235 631.052 M 112.832 451.279 L 159.776 456.546 M 340.273 435.57 L 268.93 422.633 M 344.286 538.301 L 373.649 539.397 M 373.649 539.397 L 379.447 512.729 M 112.832 451.279 L 138.13 477.291 M 309.872 395.389 L 268.93 422.633 M 344.286 538.301 L 327.056 587.367 M 499.759 474.35 L 501.205 443.166 M 101.834 483.976 L 138.13 477.291 M 112.832 451.279 L 101.834 483.976 M 244.3 402.156 L 268.93 422.633 M 312.178 566.292 L 327.056 587.367 M 531.652 461.804 L 501.205 443.166 M 101.834 483.976 L 128.525 507.956 M 492.594 512.705 L 499.759 474.35 M 302.364 606.93 L 327.056 587.367 M 312.178 566.292 L 302.364 606.93 M 531.652 461.804 L 517.045 418.046 M 511.534 531.734 L 499.759 474.35 M 321.304 650.793 L 327.056 587.367 M 267.649 588.674 L 302.364 606.93 M 511.534 531.734 L 524.206 498.37 M 361.706 664.353 L 327.056 587.367 M 472.658 474.452 L 448.789 531.111 M 584.616 474.812 L 524.206 498.37 M 361.706 664.353 L 362.931 633.163 M 472.658 474.452 L 439.527 514.083 M 439.527 514.083 L 448.789 531.111 M 395.815 709.364 L 362.931 633.163 M 418.614 505.31 L 439.527 514.083 M 439.527 514.083 L 419.189 584.194 M 395.815 709.364 L 382.274 638.175 M 382.274 638.175 L 362.931 633.163 M 389.013 550.419 L 439.527 514.083 M 439.527 514.083 L 388.556 579.309 M 416.216 586.102 L 362.931 633.163 M 389.013 550.419 L 410.49 564.191 M 439.527 514.083 L 394.703 504.17 M 416.216 586.102 L 408.032 568.641 M 370.067 581.409 L 410.49 564.191 M 389.013 550.419 L 370.067 581.409 M 430.633 456.857 L 394.703 504.17 M 395.601 620.648 L 410.49 564.191 M 370.067 581.409 L 395.601 620.648 M 332.023 529.542 L 370.067 581.409 M 395.601 620.648 L 438.065 585.411 M 511.534 531.734 L 584.616 474.812 M 362.931 633.163 L 327.056 587.367 M 546.082 527.077 L 584.616 474.812 M 511.534 531.734 L 546.082 527.077 M 362.931 633.163 L 381.117 626.73 M 546.082 527.077 L 573.507 542.844 M 511.534 531.734 L 525.01 547.194 M 553.026 555.371 L 573.507 542.844 M 553.026 555.371 L 577.654 565.684 M 513.341 604.208 L 577.654 565.684 M 513.341 604.208 L 539.64 623.927 M 539.64 623.927 L 577.654 565.684 M 488.765 630.422 L 539.64 623.927 M 539.64 623.927 L 566.752 606.883" />
<line x1="268.651786" y1="143.652319" x2="267.460827" y2="161.467788" class="t" />
<line x1="248.645974" y1="178.008933" x2="267.460827" y2="161.467788" class="t" />
<line x1="291.715186" y1="163.869939" x2="267.460827" y2="161.467788" class="t" />
<line x1="234.136345" y1="173.010482" x2="248.645974" y2="178.008933" class="t" />
<line x1="283.581077" y1="181.033835" x2="291.715186" y2="163.869939" class="t" />
<line x1="217.245684" y1="189.292952" x2="234.136345" y2="173.010482" class="t" />
<line x1="251.195494" y1="194.147183" x2="283.581077" y2="181.033835" class="t" />
<line x1="289.493187" y1="190.506119" x2="283.581077" y2="181.033835" class="t" />
<line x1="200.919085" y1="175.054605" x2="217.245684" y2="189.292952" class="t" />
<line x1="288.776667" y1="149.529736" x2="291.715186" y2="163.869939" class="t" />
<line x1="212.203042" y1="206.756896" x2="217.245684" y2="189.292952" class="t" />
<line x1="314.935892" y1="177.577735" x2="289.493187" y2="190.506119" class="t" />
<line x1="289.629550" y1="134.923582" x2="288.776667" y2="149.529736" class="t" />
<line x1="315.957704" y1="199.598313" x2="314.935892" y2="177.577735" class="t" />
<line x1="273.002365" y1="115.966314" x2="289.629550" y2="134.923582" class="t" />
<line x1="325.114799" y1="129.013013" x2="289.629550" y2="134.923582" class="t" />
<line x1="337.412038" y1="200.906520" x2="315.957704" y2="199.598313" class="t" />
<line x1="294.859394" y1="93.377614" x2="273.002365" y2="115.966314" class="t" />
<line x1="336.820397" y1="101.358790" x2="325.114799" y2="129.013013" class="t" />
<line x1="332.714122" y1="229.256630" x2="337.412038" y2="200.906520" class="t" />
<line x1="188.037262" y1="210.983761" x2="212.203042" y2="206.756896" class="t" />
<line x1="343.337297" y1="165.549319" x2="314.935892" y2="177.577735" class="t" />
<line x1="176.394657" y1="186.700328" x2="200.919085" y2="175.054605" class="t" />
<line x1="341.613313" y1="239.154177" x2="332.714122" y2="229.256630" class="t" />
<line x1="355.869077" y1="159.732358" x2="343.337297" y2="165.549319" class="t" />
<line x1="357.952677" y1="180.594531" x2="343.337297" y2="165.549319" class="t" />
<line x1="276.513212" y1="221.227408" x2="289.493187" y2="190.506119" class="t" />
<line x1="320.392975" y1="82.860387" x2="336.820397" y2="101.358790" class="t" />
<line x1="268.718090" y1="249.299852" x2="276.513212" y2="221.227408" class="t" />
<line x1="335.462126" y1="59.324561" x2="320.392975" y2="82.860387" class="t" />
<line x1="256.233153" y1="255.749397" x2="268.718090" y2="249.299852" class="t" />
<line x1="283.806254" y1="274.895137" x2="268.718090" y2="249.299852" class="t" />
<line x1="320.625838" y1="49.854185" x2="335.462126" y2="59.324561" class="t" />
<line x1="245.026918" y1="219.213729" x2="256.233153" y2="255.749397" class="t" />
<line x1="290.395366" y1="300.021396" x2="283.806254" y2="274.895137" class="t" />
<line x1="322.301851" y1="38.546047" x2="320.625838" y2="49.854185" class="t" />
<line x1="229.361591" y1="235.917831" x2="245.026918" y2="219.213729" class="t" />
<line x1="267.464686" y1="312.668307" x2="290.395366" y2="300.021396" class="t" />
<line x1="315.267404" y1="310.526225" x2="290.395366" y2="300.021396" class="t" />
<line x1="305.321128" y1="23.993275" x2="322.301851" y2="38.546047" class="t" />
<line x1="292.825323" y1="247.023874" x2="283.806254" y2="274.895137" class="t" />
<line x1="266.355607" y1="333.338912" x2="267.464686" y2="312.668307" class="t" />
<line x1="370.686528" y1="197.585816" x2="357.952677" y2="180.594531" class="t" />
<line x1="346.135541" y1="194.352076" x2="357.952677" y2="180.594531" class="t" />
<line x1="306.549881" y1="252.837278" x2="292.825323" y2="247.023874" class="t" />
<line x1="293.560727" y1="72.568237" x2="294.859394" y2="93.377614" class="t" />
<line x1="289.859507" y1="344.418730" x2="266.355607" y2="333.338912" class="t" />
<line x1="382.603798" y1="209.570556" x2="370.686528" y2="197.585816" class="t" />
<line x1="349.881763" y1="215.161197" x2="346.135541" y2="194.352076" class="t" />
<line x1="312.838056" y1="223.291502" x2="306.549881" y2="252.837278" class="t" />
<line x1="397.274993" y1="203.036511" x2="382.603798" y2="209.570556" class="t" />
<line x1="331.925635" y1="229.124980" x2="349.881763" y2="215.161197" class="t" />
<line x1="334.174338" y1="239.021499" x2="312.838056" y2="223.291502" class="t" />
<line x1="388.411045" y1="175.856520" x2="397.274993" y2="203.036511" class="t" />
<line x1="321.739429" y1="247.461742" x2="331.925635" y2="229.124980" class="t" />
<line x1="345.594876" y1="220.012325" x2="334.174338" y2="239.021499" class="t" />
<line x1="405.769887" y1="172.018023" x2="388.411045" y2="175.856520" class="t" />
<line x1="304.803690" y1="45.744195" x2="293.560727" y2="72.568237" class="t" />
<line x1="347.957809" y1="195.469239" x2="345.594876" y2="220.012325" class="t" />
<line x1="403.480805" y1="145.651742" x2="405.769887" y2="172.018023" class="t" />
<line x1="322.531804" y1="45.660934" x2="304.803690" y2="45.744195" class="t" />
<line x1="282.230299" y1="370.555875" x2="289.859507" y2="344.418730" class="t" />
<line x1="425.723651" y1="128.599365" x2="403.480805" y2="145.651742" class="t" />
<line x1="378.647539" y1="246.258101" x2="382.603798" y2="209.570556" class="t" />
<line x1="300.534174" y1="379.323060" x2="282.230299" y2="370.555875" class="t" />
<line x1="357.352092" y1="264.533770" x2="378.647539" y2="246.258101" class="t" />
<line x1="299.363715" y1="397.748977" x2="300.534174" y2="379.323060" class="t" />
<line x1="354.795254" y1="298.415992" x2="357.352092" y2="264.533770" class="t" />
<line x1="351.113628" y1="252.000747" x2="357.352092" y2="264.533770" class="t" />
<line x1="369.302185" y1="298.854577" x2="354.795254" y2="298.415992" class="t" />
<line x1="363.505832" y1="220.730850" x2="351.113628" y2="252.000747" class="t" />
<line x1="365.181655" y1="264.113818" x2="369.302185" y2="298.854577" class="t" />
<line x1="349.677315" y1="211.203557" x2="363.505832" y2="220.730850" class="t" />
<line x1="372.623245" y1="247.618001" x2="365.181655" y2="264.113818" class="t" />
<line x1="327.250911" y1="206.895721" x2="349.677315" y2="211.203557" class="t" />
<line x1="368.679650" y1="211.599344" x2="372.623245" y2="247.618001" class="t" />
<line x1="392.015782" y1="237.301119" x2="372.623245" y2="247.618001" class="t" />
<line x1="333.356806" y1="171.847009" x2="327.250911" y2="206.895721" class="t" />
<line x1="382.013585" y1="198.234323" x2="368.679650" y2="211.599344" class="t" />
<line x1="323.583068" y1="268.566195" x2="306.549881" y2="252.837278" class="t" />
<line x1="382.237050" y1="168.405138" x2="382.013585" y2="198.234323" class="t" />
<line x1="323.821344" y1="255.139341" x2="323.583068" y2="268.566195" class="t" />
<line x1="407.063479" y1="150.664768" x2="382.237050" y2="168.405138" class="t" />
<line x1="308.538241" y1="261.682990" x2="323.821344" y2="255.139341" class="t" />
<line x1="352.604429" y1="246.336298" x2="323.821344" y2="255.139341" class="t" />
<line x1="216.754954" y1="206.289600" x2="229.361591" y2="235.917831" class="t" />
<line x1="339.544823" y1="236.705763" x2="352.604429" y2="246.336298" class="t" />
<line x1="202.214477" y1="207.359666" x2="216.754954" y2="206.289600" class="t" />
<line x1="293.520423" y1="236.786499" x2="339.544823" y2="236.705763" class="t" />
<line x1="183.151288" y1="173.258736" x2="202.214477" y2="207.359666" class="t" />
<line x1="277.537250" y1="222.052976" x2="293.520423" y2="236.786499" class="t" />
<line x1="284.774910" y1="252.267521" x2="293.520423" y2="236.786499" class="t" />
<line x1="255.829907" y1="222.322855" x2="277.537250" y2="222.052976" class="t" />
<line x1="303.012161" y1="264.979488" x2="284.774910" y2="252.267521" class="t" />
<line x1="238.890128" y1="213.054496" x2="255.829907" y2="222.322855" class="t" />
<line x1="294.722998" y1="281.842823" x2="303.012161" y2="264.979488" class="t" />
<line x1="238.846927" y1="190.440452" x2="238.890128" y2="213.054496" class="t" />
<line x1="225.465991" y1="232.213689" x2="238.890128" y2="213.054496" class="t" />
<line x1="309.577127" y1="290.965604" x2="294.722998" y2="281.842823" class="t" />
<line x1="338.556384" y1="291.643533" x2="309.577127" y2="290.965604" class="t" />
<line x1="303.738591" y1="311.736828" x2="309.577127" y2="290.965604" class="t" />
<line x1="360.839802" y1="312.619386" x2="338.556384" y2="291.643533" class="t" />
<line x1="286.816822" y1="319.685726" x2="303.738591" y2="311.736828" class="t" />
<line x1="385.530668" y1="312.323861" x2="360.839802" y2="312.619386" class="t" />
<line x1="295.801856" y1="341.681791" x2="286.816822" y2="319.685726" class="t" />
<line x1="402.185680" y1="306.028560" x2="385.530668" y2="312.323861" class="t" />
<line x1="320.313368" y1="351.926957" x2="295.801856" y2="341.681791" class="t" />
<line x1="285.384415" y1="351.522823" x2="295.801856" y2="341.681791" class="t" />
<line x1="399.588277" y1="285.467336" x2="402.185680" y2="306.028560" class="t" />
<line x1="414.513930" y1="307.169652" x2="402.185680" y2="306.028560" class="t" />
<line x1="331.281717" y1="336.747215" x2="320.313368" y2="351.926957" class="t" />
<line x1="233.542651" y1="348.740916" x2="266.355607" y2="333.338912" class="t" />
<line x1="242.998368" y1="305.991391" x2="267.464686" y2="312.668307" class="t" />
<line x1="267.899651" y1="354.953174" x2="285.384415" y2="351.522823" class="t" />
<line x1="432.546690" y1="284.851167" x2="414.513930" y2="307.169652" class="t" />
<line x1="231.922670" y1="372.780303" x2="233.542651" y2="348.740916" class="t" />
<line x1="219.753812" y1="309.512917" x2="242.998368" y2="305.991391" class="t" />
<line x1="243.172282" y1="287.218559" x2="242.998368" y2="305.991391" class="t" />
<line x1="349.670691" y1="339.966670" x2="331.281717" y2="336.747215" class="t" />
<line x1="441.250978" y1="303.069160" x2="432.546690" y2="284.851167" class="t" />
<line x1="210.462300" y1="393.806119" x2="231.922670" y2="372.780303" class="t" />
<line x1="200.233838" y1="312.980046" x2="219.753812" y2="309.512917" class="t" />
<line x1="454.978200" y1="310.732343" x2="441.250978" y2="303.069160" class="t" />
<line x1="219.882586" y1="413.923822" x2="210.462300" y2="393.806119" class="t" />
<line x1="224.686410" y1="278.159083" x2="243.172282" y2="287.218559" class="t" />
<line x1="166.741930" y1="272.968492" x2="200.233838" y2="312.980046" class="t" />
<line x1="199.888504" y1="329.637503" x2="200.233838" y2="312.980046" class="t" />
<line x1="460.259728" y1="345.248525" x2="454.978200" y2="310.732343" class="t" />
<line x1="207.729350" y1="436.051244" x2="219.882586" y2="413.923822" class="t" />
<line x1="220.179555" y1="262.683350" x2="224.686410" y2="278.159083" class="t" />
<line x1="143.699017" y1="243.345808" x2="166.741930" y2="272.968492" class="t" />
<line x1="165.558711" y1="330.220376" x2="199.888504" y2="329.637503" class="t" />
<line x1="188.465487" y1="466.318816" x2="207.729350" y2="436.051244" class="t" />
<line x1="204.079619" y1="250.667519" x2="220.179555" y2="262.683350" class="t" />
<line x1="141.823500" y1="279.950334" x2="143.699017" y2="243.345808" class="t" />
<line x1="156.367877" y1="349.393255" x2="165.558711" y2="330.220376" class="t" />
<line x1="334.958105" y1="380.893375" x2="349.670691" y2="339.966670" class="t" />
<line x1="222.302781" y1="225.544365" x2="204.079619" y2="250.667519" class="t" />
<line x1="113.125743" y1="250.660476" x2="141.823500" y2="279.950334" class="t" />
<line x1="131.119460" y1="347.251106" x2="156.367877" y2="349.393255" class="t" />
<line x1="304.150469" y1="413.113075" x2="334.958105" y2="380.893375" class="t" />
<line x1="409.611662" y1="272.617642" x2="399.588277" y2="285.467336" class="t" />
<line x1="106.731472" y1="281.943382" x2="113.125743" y2="250.660476" class="t" />
<line x1="296.963812" y1="403.449813" x2="304.150469" y2="413.113075" class="t" />
<line x1="444.378880" y1="275.904830" x2="409.611662" y2="272.617642" class="t" />
<line x1="409.130204" y1="259.053584" x2="409.611662" y2="272.617642" class="t" />
<line x1="78.469988" y1="261.838947" x2="106.731472" y2="281.943382" class="t" />
<line x1="310.067508" y1="373.349286" x2="296.963812" y2="403.449813" class="t" />
<line x1="258.420946" y1="435.564981" x2="296.963812" y2="403.449813" class="t" />
<line x1="442.385335" y1="262.796064" x2="444.378880" y2="275.904830" class="t" />
<line x1="388.369354" y1="257.701105" x2="409.130204" y2="259.053584" class="t" />
<line x1="58.662452" y1="230.579339" x2="78.469988" y2="261.838947" class="t" />
<line x1="278.145888" y1="389.482187" x2="310.067508" y2="373.349286" class="t" />
<line x1="250.194037" y1="423.245928" x2="258.420946" y2="435.564981" class="t" />
<line x1="445.679229" y1="250.241316" x2="442.385335" y2="262.796064" class="t" />
<line x1="376.324937" y1="247.013496" x2="388.369354" y2="257.701105" class="t" />
<line x1="31.930853" y1="228.571097" x2="58.662452" y2="230.579339" class="t" />
<line x1="223.306293" y1="427.893992" x2="250.194037" y2="423.245928" class="t" />
<line x1="280.239978" y1="362.852026" x2="278.145888" y2="389.482187" class="t" />
<line x1="390.870507" y1="233.944697" x2="376.324937" y2="247.013496" class="t" />
<line x1="26.420113" y1="202.219159" x2="31.930853" y2="228.571097" class="t" />
<line x1="199.221158" y1="438.870027" x2="223.306293" y2="427.893992" class="t" />
<line x1="256.431820" y1="372.945688" x2="280.239978" y2="362.852026" class="t" />
<line x1="439.297621" y1="290.022435" x2="444.378880" y2="275.904830" class="t" />
<line x1="11.526845" y1="190.326057" x2="26.420113" y2="202.219159" class="t" />
<line x1="176.662520" y1="421.826985" x2="199.221158" y2="438.870027" class="t" />
<line x1="226.949052" y1="401.655686" x2="256.431820" y2="372.945688" class="t" />
<line x1="243.518713" y1="366.641884" x2="256.431820" y2="372.945688" class="t" />
<line x1="12.080681" y1="161.430031" x2="11.526845" y2="190.326057" class="t" />
<line x1="214.120223" y1="396.109964" x2="226.949052" y2="401.655686" class="t" />
<line x1="253.883992" y1="344.712198" x2="243.518713" y2="366.641884" class="t" />
<line x1="185.790801" y1="402.052883" x2="214.120223" y2="396.109964" class="t" />
<line x1="231.185906" y1="349.408031" x2="253.883992" y2="344.712198" class="t" />
<line x1="98.954122" y1="360.498281" x2="131.119460" y2="347.251106" class="t" />
<line x1="195.385775" y1="382.984024" x2="231.185906" y2="349.408031" class="t" />
<line x1="275.551767" y1="457.052762" x2="304.150469" y2="413.113075" class="t" />
<line x1="416.635613" y1="332.820499" x2="414.513930" y2="307.169652" class="t" />
<line x1="290.954142" y1="457.839650" x2="275.551767" y2="457.052762" class="t" />
<line x1="434.045037" y1="332.105272" x2="416.635613" y2="332.820499" class="t" />
<line x1="294.809234" y1="472.141029" x2="290.954142" y2="457.839650" class="t" />
<line x1="445.155099" y1="355.300727" x2="434.045037" y2="332.105272" class="t" />
<line x1="284.912324" y1="491.092865" x2="294.809234" y2="472.141029" class="t" />
<line x1="326.171604" y1="465.956113" x2="294.809234" y2="472.141029" class="t" />
<line x1="275.748402" y1="511.735349" x2="284.912324" y2="491.092865" class="t" />
<line x1="314.849591" y1="488.121809" x2="284.912324" y2="491.092865" class="t" />
<line x1="335.893181" y1="479.737439" x2="326.171604" y2="465.956113" class="t" />
<line x1="321.471032" y1="507.028446" x2="314.849591" y2="488.121809" class="t" />
<line x1="361.975168" y1="477.622516" x2="335.893181" y2="479.737439" class="t" />
<line x1="298.257815" y1="528.530380" x2="321.471032" y2="507.028446" class="t" />
<line x1="343.558562" y1="521.002473" x2="321.471032" y2="507.028446" class="t" />
<line x1="373.577239" y1="496.435244" x2="361.975168" y2="477.622516" class="t" />
<line x1="302.643784" y1="545.107865" x2="298.257815" y2="528.530380" class="t" />
<line x1="356.049625" y1="507.319153" x2="343.558562" y2="521.002473" class="t" />
<line x1="397.988792" y1="502.719715" x2="373.577239" y2="496.435244" class="t" />
<line x1="285.113962" y1="561.407744" x2="302.643784" y2="545.107865" class="t" />
<line x1="325.196717" y1="550.117114" x2="302.643784" y2="545.107865" class="t" />
<line x1="370.575169" y1="517.406898" x2="356.049625" y2="507.319153" class="t" />
<line x1="412.042875" y1="524.602197" x2="397.988792" y2="502.719715" class="t" />
<line x1="263.079613" y1="567.361301" x2="285.113962" y2="561.407744" class="t" />
<line x1="300.469719" y1="577.040407" x2="285.113962" y2="561.407744" class="t" />
<line x1="314.143423" y1="569.045649" x2="325.196717" y2="550.117114" class="t" />
<line x1="399.206529" y1="485.858512" x2="370.575169" y2="517.406898" class="t" />
<line x1="376.920297" y1="535.065305" x2="370.575169" y2="517.406898" class="t" />
<line x1="240.598248" y1="555.673885" x2="263.079613" y2="567.361301" class="t" />
<line x1="439.729563" y1="523.661127" x2="412.042875" y2="524.602197" class="t" />
<line x1="328.623888" y1="586.060459" x2="314.143423" y2="569.045649" class="t" />
<line x1="216.161364" y1="574.559466" x2="240.598248" y2="555.673885" class="t" />
<line x1="405.680635" y1="460.248743" x2="399.206529" y2="485.858512" class="t" />
<line x1="318.729681" y1="609.050822" x2="328.623888" y2="586.060459" class="t" />
<line x1="193.120533" y1="570.698318" x2="216.161364" y2="574.559466" class="t" />
<line x1="438.808610" y1="437.642656" x2="405.680635" y2="460.248743" class="t" />
<line x1="378.266028" y1="467.941896" x2="405.680635" y2="460.248743" class="t" />
<line x1="334.846868" y1="622.409268" x2="318.729681" y2="609.050822" class="t" />
<line x1="461.871152" y1="444.513063" x2="438.808610" y2="437.642656" class="t" />
<line x1="442.018915" y1="423.534053" x2="438.808610" y2="437.642656" class="t" />
<line x1="356.353634" y1="484.677691" x2="378.266028" y2="467.941896" class="t" />
<line x1="319.485856" y1="648.424065" x2="334.846868" y2="622.409268" class="t" />
<line x1="449.432350" y1="456.148608" x2="461.871152" y2="444.513063" class="t" />
<line x1="423.136538" y1="409.439638" x2="442.018915" y2="423.534053" class="t" />
<line x1="340.454406" y1="462.699095" x2="356.353634" y2="484.677691" class="t" />
<line x1="363.586653" y1="452.211609" x2="378.266028" y2="467.941896" class="t" />
<line x1="460.489249" y1="464.359517" x2="449.432350" y2="456.148608" class="t" />
<line x1="412.621684" y1="465.020003" x2="449.432350" y2="456.148608" class="t" />
<line x1="387.436130" y1="399.339285" x2="423.136538" y2="409.439638" class="t" />
<line x1="328.340434" y1="462.686195" x2="363.586653" y2="452.211609" class="t" />
<line x1="483.613464" y1="467.288710" x2="460.489249" y2="464.359517" class="t" />
<line x1="439.363460" y1="479.333670" x2="460.489249" y2="464.359517" class="t" />
<line x1="403.313919" y1="478.895592" x2="412.621684" y2="465.020003" class="t" />
<line x1="374.221968" y1="373.641568" x2="387.436130" y2="399.339285" class="t" />
<line x1="493.129146" y1="456.859770" x2="483.613464" y2="467.288710" class="t" />
<line x1="488.337011" y1="487.169237" x2="483.613464" y2="467.288710" class="t" />
<line x1="366.596944" y1="561.613284" x2="376.920297" y2="535.065305" class="t" />
<line x1="248.830283" y1="581.664275" x2="263.079613" y2="567.361301" class="t" />
<line x1="471.347035" y1="506.089505" x2="488.337011" y2="487.169237" class="t" />
<line x1="381.732648" y1="571.653316" x2="366.596944" y2="561.613284" class="t" />
<line x1="222.625004" y1="584.148957" x2="248.830283" y2="581.664275" class="t" />
<line x1="182.003026" y1="380.219258" x2="195.385775" y2="382.984024" class="t" />
<line x1="256.470984" y1="476.229262" x2="275.551767" y2="457.052762" class="t" />
<line x1="417.366785" y1="483.532728" x2="439.363460" y2="479.333670" class="t" />
<line x1="372.989307" y1="493.968698" x2="403.313919" y2="478.895592" class="t" />
<line x1="343.171645" y1="368.906148" x2="374.221968" y2="373.641568" class="t" />
<line x1="461.651663" y1="540.604428" x2="471.347035" y2="506.089505" class="t" />
<line x1="377.715028" y1="593.730406" x2="381.732648" y2="571.653316" class="t" />
<line x1="153.721226" y1="387.133020" x2="182.003026" y2="380.219258" class="t" />
<line x1="260.690010" y1="510.033931" x2="256.470984" y2="476.229262" class="t" />
<line x1="245.649289" y1="472.793994" x2="256.470984" y2="476.229262" class="t" />
<line x1="400.386884" y1="499.254767" x2="417.366785" y2="483.532728" class="t" />
<line x1="362.428101" y1="512.908377" x2="372.989307" y2="493.968698" class="t" />
<line x1="436.187823" y1="563.841070" x2="461.651663" y2="540.604428" class="t" />
<line x1="318.903016" y1="366.523355" x2="343.171645" y2="368.906148" class="t" />
<line x1="143.426127" y1="396.592102" x2="153.721226" y2="387.133020" class="t" />
<line x1="406.362486" y1="520.600646" x2="400.386884" y2="499.254767" class="t" />
<line x1="385.301026" y1="515.599247" x2="362.428101" y2="512.908377" class="t" />
<line x1="430.419996" y1="592.047820" x2="436.187823" y2="563.841070" class="t" />
<line x1="250.294497" y1="520.169506" x2="260.690010" y2="510.033931" class="t" />
<line x1="240.173586" y1="453.821982" x2="245.649289" y2="472.793994" class="t" />
<line x1="390.704372" y1="545.671124" x2="406.362486" y2="520.600646" class="t" />
<line x1="365.399562" y1="537.610037" x2="385.301026" y2="515.599247" class="t" />
<line x1="415.928987" y1="602.358007" x2="430.419996" y2="592.047820" class="t" />
<line x1="445.260897" y1="604.060925" x2="430.419996" y2="592.047820" class="t" />
<line x1="252.825808" y1="555.054734" x2="250.294497" y2="520.169506" class="t" />
<line x1="207.171073" y1="450.713716" x2="240.173586" y2="453.821982" class="t" />
<line x1="330.777039" y1="555.898961" x2="365.399562" y2="537.610037" class="t" />
<line x1="413.705907" y1="619.964707" x2="415.928987" y2="602.358007" class="t" />
<line x1="221.364181" y1="565.277147" x2="252.825808" y2="555.054734" class="t" />
<line x1="185.180697" y1="456.057742" x2="207.171073" y2="450.713716" class="t" />
<line x1="388.498017" y1="497.061941" x2="400.386884" y2="499.254767" class="t" />
<line x1="394.214614" y1="621.517424" x2="413.705907" y2="619.964707" class="t" />
<line x1="217.696484" y1="602.848610" x2="221.364181" y2="565.277147" class="t" />
<line x1="161.467804" y1="429.474760" x2="185.180697" y2="456.057742" class="t" />
<line x1="369.133340" y1="496.536588" x2="388.498017" y2="497.061941" class="t" />
<line x1="476.926564" y1="543.393254" x2="461.651663" y2="540.604428" class="t" />
<line x1="199.953333" y1="603.636413" x2="217.696484" y2="602.848610" class="t" />
<line x1="151.891809" y1="426.402669" x2="161.467804" y2="429.474760" class="t" />
<line x1="356.075190" y1="470.816989" x2="369.133340" y2="496.536588" class="t" />
<line x1="357.435654" y1="512.167811" x2="369.133340" y2="496.536588" class="t" />
<line x1="467.039707" y1="569.257754" x2="476.926564" y2="543.393254" class="t" />
<line x1="201.837850" y1="624.011145" x2="199.953333" y2="603.636413" class="t" />
<line x1="138.562117" y1="444.203499" x2="151.891809" y2="426.402669" class="t" />
<line x1="319.258970" y1="447.892117" x2="356.075190" y2="470.816989" class="t" />
<line x1="365.793967" y1="530.142288" x2="357.435654" y2="512.167811" class="t" />
<line x1="450.767999" y1="596.726410" x2="467.039707" y2="569.257754" class="t" />
<line x1="210.179011" y1="647.574891" x2="201.837850" y2="624.011145" class="t" />
<line x1="136.912532" y1="461.705421" x2="138.562117" y2="444.203499" class="t" />
<line x1="306.358235" y1="417.863971" x2="319.258970" y2="447.892117" class="t" />
<line x1="348.330264" y1="555.021716" x2="365.793967" y2="530.142288" class="t" />
<line x1="397.688973" y1="525.310152" x2="365.793967" y2="530.142288" class="t" />
<line x1="117.598495" y1="470.848762" x2="136.912532" y2="461.705421" class="t" />
<line x1="274.367482" y1="406.725775" x2="306.358235" y2="417.863971" class="t" />
<line x1="327.840058" y1="563.986546" x2="348.330264" y2="555.021716" class="t" />
<line x1="510.872221" y1="459.773279" x2="493.129146" y2="456.859770" class="t" />
<line x1="122.829526" y1="489.740993" x2="117.598495" y2="470.848762" class="t" />
<line x1="93.204504" y1="465.465166" x2="117.598495" y2="470.848762" class="t" />
<line x1="249.168424" y1="423.499046" x2="274.367482" y2="406.725775" class="t" />
<line x1="313.865958" y1="586.863056" x2="327.840058" y2="563.986546" class="t" />
<line x1="516.634143" y1="441.005296" x2="510.872221" y2="459.773279" class="t" />
<line x1="104.852043" y1="505.180965" x2="122.829526" y2="489.740993" class="t" />
<line x1="501.295706" y1="506.263140" x2="488.337011" y2="487.169237" class="t" />
<line x1="316.907850" y1="615.030356" x2="313.865958" y2="586.863056" class="t" />
<line x1="294.063511" y1="587.298682" x2="313.865958" y2="586.863056" class="t" />
<line x1="532.765582" y1="445.211296" x2="516.634143" y2="441.005296" class="t" />
<line x1="511.833035" y1="501.484909" x2="501.295706" y2="506.263140" class="t" />
<line x1="336.688545" y1="634.171353" x2="316.907850" y2="615.030356" class="t" />
<line x1="274.869096" y1="601.157869" x2="294.063511" y2="587.298682" class="t" />
<line x1="540.118523" y1="501.638774" x2="511.833035" y2="501.484909" class="t" />
<line x1="350.564313" y1="628.294383" x2="336.688545" y2="634.171353" class="t" />
<line x1="453.658106" y1="506.548914" x2="471.347035" y2="506.089505" class="t" />
<line x1="541.603687" y1="484.832654" x2="540.118523" y2="501.638774" class="t" />
<line x1="373.483993" y1="668.959911" x2="350.564313" y2="628.294383" class="t" />
<line x1="443.599513" y1="497.948658" x2="453.658106" y2="506.548914" class="t" />
<line x1="435.834987" y1="543.129462" x2="453.658106" y2="506.548914" class="t" />
<line x1="380.340243" y1="660.233898" x2="373.483993" y2="668.959911" class="t" />
<line x1="415.717908" y1="523.270850" x2="443.599513" y2="497.948658" class="t" />
<line x1="415.757111" y1="559.195388" x2="435.834987" y2="543.129462" class="t" />
<line x1="400.697167" y1="682.834438" x2="380.340243" y2="660.233898" class="t" />
<line x1="387.140532" y1="619.146721" x2="380.340243" y2="660.233898" class="t" />
<line x1="413.009997" y1="542.897763" x2="415.717908" y2="523.270850" class="t" />
<line x1="407.595200" y1="532.520726" x2="415.757111" y2="559.195388" class="t" />
<line x1="395.726231" y1="595.968447" x2="387.140532" y2="619.146721" class="t" />
<line x1="389.856842" y1="565.339722" x2="413.009997" y2="542.897763" class="t" />
<line x1="421.620799" y1="491.703328" x2="407.595200" y2="532.520726" class="t" />
<line x1="424.564907" y1="570.576624" x2="395.726231" y2="595.968447" class="t" />
<line x1="392.052825" y1="588.749416" x2="389.856842" y2="565.339722" class="t" />
<line x1="363.701118" y1="553.790076" x2="389.856842" y2="565.339722" class="t" />
<line x1="408.141990" y1="467.731326" x2="421.620799" y2="491.703328" class="t" />
<line x1="414.718840" y1="590.083478" x2="392.052825" y2="588.749416" class="t" />
<line x1="377.165988" y1="611.403999" x2="392.052825" y2="588.749416" class="t" />
<line x1="340.775526" y1="560.623915" x2="363.701118" y2="553.790076" class="t" />
<line x1="420.102160" y1="611.383142" x2="414.718840" y2="590.083478" class="t" />
<line x1="547.410725" y1="511.207690" x2="540.118523" y2="501.638774" class="t" />
<line x1="357.034904" y1="615.753119" x2="350.564313" y2="628.294383" class="t" />
<line x1="568.068257" y1="514.911124" x2="547.410725" y2="511.207690" class="t" />
<line x1="527.542060" y1="535.335056" x2="547.410725" y2="511.207690" class="t" />
<line x1="391.456123" y1="644.582665" x2="357.034904" y2="615.753119" class="t" />
<line x1="557.538191" y1="541.764010" x2="568.068257" y2="514.911124" class="t" />
<line x1="501.232194" y1="550.290232" x2="527.542060" y2="535.335056" class="t" />
<line x1="568.061975" y1="554.633043" x2="557.538191" y2="541.764010" class="t" />
<line x1="548.006610" y1="575.087421" x2="568.061975" y2="554.633043" class="t" />
<line x1="543.544868" y1="597.939569" x2="548.006610" y2="575.087421" class="t" />
<line x1="513.915231" y1="619.519050" x2="543.544868" y2="597.939569" class="t" />
<line x1="561.348571" y1="598.831192" x2="543.544868" y2="597.939569" class="t" />
<line x1="517.993510" y1="632.960789" x2="513.915231" y2="619.519050" class="t" />
<line x1="543.052660" y1="624.370764" x2="561.348571" y2="598.831192" class="t" />
</svg>
