<?xml version="1.0"?>
<svg width="584" height="708" version="1.1" xmlns="http://www.w3.org/2000/svg" >
<defs>
<style type="text/css"><![CDATA[
.m {stroke:rgb(255,0,0);stroke-width:0.885000;}
.v {stroke:rgb(0,0,255);stroke-width:0.885000;}
.b {stroke:rgb(0,0,0);stroke-width:1.770000;fill:white}
.n {stroke:rgb(128,128,128);stroke-width:0.885000}
.t {stroke:rgb(0,128,0);stroke-width:0.885000;}
.c {stroke:rgb(128,128,128);stroke-width:0.885000;stroke-dasharray:5.840000, 5.840000;}
]]></style>
</defs>
<path fill="none" style="stroke:black;stroke-width:1.770000;" d=" M 230.54 207.708 L 267.797 180.403 M 247.601 145.916 L 224.268 165.408 M 283.471 544.741 L 256.425 487.931 M 283.49 544.732 L 287.331 502.543 M 256.425 487.931 L 283.49 544.732 M 501.205 443.166 L 478.423 453.063 M 287.331 502.543 L 276.597 543.524 M 227.793 300.634 L 192.414 303.602 M 363.237 346.668 L 343.554 317.12 M 223.208 192.463 L 262.582 209.576 M 267.797 180.403 L 223.208 192.463 M 262.582 209.576 L 228.529 183.43 M 243.97 264.635 L 262.148 293.037 M 299.416 439.9 L 363.237 346.668 M 478.423 453.063 L 467.703 430.656 M 286.984 158.084 L 271.37 126.957 M 271.37 126.957 L 247.601 145.916 M 192.414 303.602 L 138.579 204.268 M 262.148 293.037 L 239.576 267.984 M 317.022 445.687 L 299.416 439.9 M 138.579 204.268 L 123.285 214.734 M 281.425 245.286 L 285.533 208.82 M 258.981 137.382 L 286.984 158.084 M 206.69 265.859 L 227.793 300.634 M 472.658 474.452 L 418.614 505.31 M 415.046 497.986 L 472.658 474.452 M 343.554 317.12 L 308.07 337.009 M 322.664 590.422 L 300.489 552.275 M 278.256 588.424 L 322.664 590.422 M 191.378 353.574 L 239.055 324.303 M 492.594 512.705 L 511.534 531.734 M 223.959 477.625 L 242.174 497.43 M 233.849 586.433 L 278.256 588.424 M 439.487 449.82 L 367.991 479.677 M 270.814 443.327 L 225.747 440.514 M 226.592 452.458 L 270.814 443.327 M 411.564 491.447 L 430.387 465.563 M 344.255 558.552 L 330.846 539.524 M 430.387 465.563 L 406.668 487.05 M 342.221 356.112 L 310.125 353.025 M 239.576 267.984 L 214.272 254.207 M 499.759 474.35 L 531.652 461.804 M 515.99 481.316 L 524.206 498.37 M 584.616 474.812 L 515.99 481.316 M 242.174 497.43 L 225.238 518.338 M 215.586 259.688 L 243.97 264.635 M 389.813 509.281 L 439.487 449.82 M 224.268 165.408 L 181.56 164.993 M 310.649 362.659 L 342.221 356.112 M 239.055 324.303 L 202.753 366.871 M 494.614 539.478 L 492.594 512.705 M 367.991 479.677 L 339.413 510.782 M 524.206 498.37 L 499.759 474.35 M 330.846 539.524 L 353.593 544.465 M 132.952 314.081 L 169.233 311.036 M 169.233 311.036 L 136.065 326.051 M 209.14 217.8 L 230.54 207.708 M 346.236 479.018 L 310.982 482.804 M 368.319 498.474 L 346.236 479.018 M 418.614 505.31 L 389.013 550.419 M 246.456 404.511 L 277.856 410.911 M 249.768 602.086 L 283.471 544.741 M 277.856 410.911 L 246.134 406.37 M 228.529 183.43 L 206.15 175.75 M 289.205 209.423 L 281.425 245.286 M 270.483 96.2507 L 258.981 137.382 M 387.355 551.45 L 389.813 509.281 M 467.703 430.656 L 449.118 407.494 M 300.489 552.275 L 297.686 596.31 M 517.045 418.046 L 501.205 443.166 M 336.076 289.039 L 369.441 323.411 M 448.789 531.111 L 416.202 582.415 M 419.189 584.194 L 448.789 531.111 M 285.533 208.82 L 323.43 219.184 M 310.982 482.804 L 346.186 487.031 M 350.512 469.377 L 317.022 445.687 M 336.764 324.552 L 307.847 286.362 M 301.192 320.665 L 336.764 324.552 M 573.507 542.844 L 584.616 474.812 M 410.49 564.191 L 439.527 514.083 M 123.285 214.734 L 83.1397 223.166 M 549.6 455.784 L 517.045 418.046 M 531.652 461.804 L 549.6 455.784 M 343.93 603.32 L 344.255 558.552 M 184.907 186.64 L 215.586 259.688 M 353.593 544.465 L 358.843 588.925 M 261.36 190.489 L 191.277 231.937 M 214.272 254.207 L 261.36 190.489 M 276.818 366.532 L 310.649 362.659 M 369.441 323.411 L 379.597 290.355 M 236.004 228.528 L 270.874 236.56 M 462.933 590.298 L 494.614 539.478 M 225.238 518.338 L 189.087 575.408 M 408.032 518.855 L 411.564 491.447 M 276.597 543.524 L 210.812 553.362 M 158.043 220.388 L 209.14 217.8 M 196.929 194.763 L 158.043 220.388 M 343.498 482.659 L 368.319 498.474 M 406.668 487.05 L 379.379 491.407 M 546.082 527.077 L 553.026 555.371 M 388.556 579.309 L 419.189 584.194 M 181.56 164.993 L 150.694 200.345 M 150.694 200.345 L 196.929 194.763 M 339.413 510.782 L 336.307 536.496 M 525.01 547.194 L 546.082 527.077 M 326.711 197.724 L 289.205 209.423 M 424.595 551.087 L 415.046 497.986 M 141.66 368.554 L 191.378 353.574 M 310.125 353.025 L 284.139 331.02 M 234.195 396.421 L 258.82 355.049 M 511.534 531.734 L 467.153 571.942 M 467.153 571.942 L 525.01 547.194 M 340.153 245.198 L 336.076 289.039 M 309.566 357.542 L 301.192 320.665 M 320.364 153.122 L 365.437 119.651 M 439.527 514.083 L 430.633 456.857 M 312.178 566.292 L 267.649 588.674 M 449.118 407.494 L 411.056 388.373 M 220.055 208.755 L 220.34 259.358 M 220.34 259.358 L 236.004 228.528 M 301.126 227.719 L 260.612 201.881 M 136.065 326.051 L 115.633 347.148 M 289.543 114.266 L 324.552 69.6164 M 307.847 286.362 L 340.304 256.61 M 394.703 504.17 L 388.556 579.309 M 246.134 406.37 L 197.193 424.855 M 399 574.585 L 387.355 551.45 M 322.598 262.727 L 353.214 256.613 M 308.561 246.081 L 294.455 276.241 M 294.455 276.241 L 322.598 262.727 M 409.235 432.452 L 324.281 451.284 M 104.102 308.583 L 132.952 314.081 M 202.753 366.871 L 194.439 418.127 M 225.747 440.514 L 171.807 434.002 M 235.874 160.686 L 220.055 208.755 M 260.612 201.881 L 235.874 160.686 M 234.386 570.136 L 199.641 595.878 M 199.641 595.878 L 233.849 586.433 M 297.686 596.31 L 314.573 627.523 M 258.82 355.049 L 278.304 399.077 M 577.654 565.684 L 573.507 542.844 M 158.397 157.385 L 184.907 186.64 M 206.15 175.75 L 158.397 157.385 M 344.286 538.301 L 312.178 566.292 M 370.737 172.735 L 376.506 153.34 M 376.506 153.34 L 320.364 153.122 M 349.896 212.745 L 338.91 170.791 M 320.621 432.539 L 343.498 482.659 M 357.244 472.899 L 320.621 432.539 M 324.281 451.284 L 303.497 463.876 M 303.497 463.876 L 357.244 472.899 M 358.868 282.797 L 399.962 234.212 M 191.277 231.937 L 206.69 265.859 M 254.595 607.869 L 302.364 606.93 M 267.649 588.674 L 254.595 607.869 M 285.647 51.8377 L 270.483 96.2507 M 195.69 417.15 L 246.456 404.511 M 416.202 582.415 L 400.099 608.928 M 270.874 236.56 L 274.889 274.162 M 353.214 256.613 L 356.86 205.699 M 231.014 427.224 L 234.195 396.421 M 357.08 219.189 L 358.868 282.797 M 351.86 557.479 L 408.032 518.855 M 356.86 205.699 L 360.302 182.984 M 360.302 182.984 L 326.711 197.724 M 308.07 337.009 L 319.451 301.53 M 283.694 296.671 L 268.686 325.377 M 553.026 555.371 L 513.341 604.208 M 325.586 274.696 L 308.561 246.081 M 460.725 618.454 L 443.572 577.997 M 431.486 615.731 L 460.725 618.454 M 238.701 383.306 L 207.969 387.874 M 302.364 606.93 L 321.304 650.793 M 313.732 381.351 L 309.566 357.542 M 338.91 170.791 L 335.286 214.007 M 319.451 301.53 L 392.436 337.623 M 340.304 256.61 L 408.947 236.317 M 159.776 456.546 L 223.959 477.625 M 377.112 221.765 L 373.253 195.23 M 306.055 412.82 L 313.732 381.351 M 278.304 399.077 L 306.055 412.82 M 393.524 300.643 L 370.632 298.705 M 342.017 377.193 L 409.235 432.452 M 445.799 621.884 L 462.933 590.298 M 443.572 577.997 L 445.799 621.884 M 274.889 274.162 L 283.694 296.671 M 48.1679 253.768 L 104.102 308.583 M 370.632 298.705 L 325.586 274.696 M 197.735 462.803 L 231.014 427.224 M 348.574 485.474 L 344.286 538.301 M 327.056 587.367 L 373.649 539.397 M 203.286 600.181 L 234.386 570.136 M 258.195 372.95 L 276.818 366.532 M 268.686 325.377 L 258.195 372.95 M 39.5692 365.793 L 141.66 368.554 M 115.633 347.148 L 39.5692 365.793 M 323.43 219.184 L 324.817 255.841 M 381.117 626.73 L 327.056 587.367 M 321.304 650.793 L 361.706 664.353 M 365.437 119.651 L 355.481 70.1598 M 207.716 385.6 L 238.701 383.306 M 284.139 331.02 L 269.797 317.517 M 379.447 512.729 L 368.071 573.197 M 368.071 573.197 L 424.595 551.087 M 375.302 617.681 L 399 574.585 M 358.843 588.925 L 375.302 617.681 M 408.947 236.317 L 301.126 227.719 M 395.815 709.364 L 424.002 700.964 M 424.002 700.964 L 382.274 638.175 M 364.211 198.258 L 377.112 221.765 M 173.222 518.027 L 197.735 462.803 M 194.439 418.127 L 173.222 518.027 M 379.379 491.407 L 340.273 435.57 M 83.1397 223.166 L 44.6798 214.804 M 409.533 635.235 L 431.486 615.731 M 373.253 195.23 L 335.626 193.183 M 269.797 317.517 L 216.044 345.108 M 389.013 550.419 L 332.023 529.542 M 365.829 632.155 L 395.601 620.648 M 370.067 581.409 L 365.829 632.155 M 350.149 233.218 L 364.211 198.258 M 389.228 476.46 L 350.512 469.377 M 415.257 188.238 L 381.193 233.31 M 379.597 290.355 L 415.257 188.238 M 346.038 636.385 L 343.93 603.32 M 324.817 255.841 L 350.127 248.877 M 350.127 248.877 L 349.896 212.745 M 513.341 604.208 L 488.765 630.422 M 305.973 182.306 L 340.153 245.198 M 430.32 673.856 L 381.117 626.73 M 362.931 633.163 L 430.32 673.856 M 384.644 275.939 L 393.524 300.643 M 304.164 573.721 L 351.86 557.479 M 336.307 536.496 L 304.164 573.721 M 173.878 439.298 L 226.592 452.458 M 346.186 487.031 L 385.318 525.815 M 430.633 456.857 L 399.09 442.167 M 399.09 442.167 L 394.703 504.17 M 361.706 664.353 L 395.815 709.364 M 392.436 337.623 L 426.962 356.772 M 438.065 585.411 L 410.49 564.191 M 566.752 606.883 L 577.654 565.684 M 373.649 539.397 L 439.971 523.805 M 439.971 523.805 L 379.447 512.729 M 210.812 553.362 L 165.263 558.553 M 165.263 558.553 L 203.286 600.181 M 399.962 234.212 L 421.125 202.163 M 332.023 529.542 L 320.237 570.921 M 320.237 570.921 L 370.067 581.409 M 316.155 64.1556 L 289.543 114.266 M 411.056 388.373 L 369.593 355.359 M 382.274 638.175 L 416.216 586.102 M 304.212 15.7785 L 285.647 51.8377 M 171.807 434.002 L 152.821 397.877 M 373.371 152.672 L 370.737 172.735 M 197.193 424.855 L 158.916 401.329 M 158.916 401.329 L 173.878 439.298 M 317.905 374.167 L 342.017 377.193 M 338.831 51.5879 L 304.212 15.7785 M 324.552 69.6164 L 338.831 51.5879 M 297.847 681.364 L 346.038 636.385 M 314.573 627.523 L 297.847 681.364 M 463.839 373.653 L 444.665 335.477 M 426.962 356.772 L 463.839 373.653 M 2.9449 217.141 L 48.1679 253.768 M 214.235 631.052 L 249.768 602.086 M 408.032 568.641 L 362.931 633.163 M 189.087 575.408 L 196.538 604.449 M 207.969 387.874 L 153.713 401.135 M 153.713 401.135 L 195.69 417.15 M 367.766 182.299 L 357.08 219.189 M 340.273 435.57 L 309.872 395.389 M 335.286 214.007 L 310.342 240.149 M 419.421 505.885 L 389.228 476.46 M 373.012 620.39 L 409.533 635.235 M 400.099 608.928 L 373.012 620.39 M 355.481 70.1598 L 334.751 43.6583 M 310.972 41.7487 L 316.155 64.1556 M 268.93 422.633 L 348.574 485.474 M 269.211 370.045 L 317.905 374.167 M 369.593 355.359 L 269.211 370.045 M 539.64 623.927 L 522.766 642.303 M 522.766 642.303 L 566.752 606.883 M 304.727 269.018 L 350.149 233.218 M 310.342 240.149 L 304.727 269.018 M 309.872 395.389 L 244.3 402.156 M 216.044 345.108 L 167.568 377.305 M 444.665 335.477 L 430.509 304.067 M 408.35 304.447 L 488.946 285.801 M 420.597 279.819 L 408.35 304.447 M 385.318 525.815 L 431.39 542.107 M 446.535 270.668 L 420.597 279.819 M 196.538 604.449 L 194.74 636.532 M 162.396 418.245 L 207.716 385.6 M 44.6798 214.804 L 31.6356 174.712 M 488.765 630.422 L 525.576 644.533 M 525.576 644.533 L 539.64 623.927 M 152.821 397.877 L 143.079 424.786 M 423.594 262.094 L 419.152 239.127 M 381.193 233.31 L 397.082 179.094 M 414.616 240.493 L 423.594 262.094 M 449.447 556.987 L 408.032 568.641 M 416.216 586.102 L 449.447 556.987 M 395.601 620.648 L 426.64 628.09 M 426.64 628.09 L 438.065 585.411 M 414.258 123.064 L 373.371 152.672 M 471.69 327.056 L 446.535 270.668 M 430.509 304.067 L 446.71 334.473 M 421.125 202.163 L 422.814 161.219 M 361.312 258.037 L 384.644 275.939 M 446.71 334.473 L 462.379 374.216 M 462.379 374.216 L 471.69 327.056 M 358.471 140.052 L 305.973 182.306 M 335.626 193.183 L 358.471 140.052 M 138.13 477.291 L 159.776 456.546 M 0 179.124 L 2.9449 217.141 M 381.864 143.822 L 367.766 182.299 M 283.808 0 L 310.972 41.7487 M 321.183 30.2312 L 283.808 0 M 167.568 377.305 L 131.199 365.849 M 128.525 507.956 L 138.13 477.291 M 422.814 161.219 L 440.099 101.515 M 440.099 101.515 L 414.258 123.064 M 143.079 424.786 L 112.832 451.279 M 194.74 636.532 L 221.562 675.14 M 221.562 675.14 L 214.235 631.052 M 334.751 43.6583 L 321.183 30.2312 M 431.39 542.107 L 468.378 522.992 M 468.378 522.992 L 419.421 505.885 M 442.245 129.078 L 381.864 143.822 M 397.082 179.094 L 442.245 129.078 M 433.476 224.43 L 414.616 240.493 M 488.946 285.801 L 433.476 224.43 M 136.683 405.682 L 162.396 418.245 M 131.199 365.849 L 136.683 405.682 M 234.275 445.709 L 268.93 422.633 M 244.3 402.156 L 234.275 445.709 M 348.511 243.877 L 361.312 258.037 M 404.948 218.831 L 348.511 243.877 M 419.152 239.127 L 404.948 218.831 M 4.60641 130.453 L 0 179.124 M 31.6356 174.712 L 4.60641 130.453 M 112.832 451.279 L 64.9481 461.141 M 64.9481 461.141 L 101.834 483.976 M 101.834 483.976 L 84.1977 523.611 M 84.1977 523.611 L 128.525 507.956" />
<path fill="none" class="c" d=" M 286.984 158.084 L 247.601 145.916 M 247.601 145.916 L 267.797 180.403 M 267.797 180.403 L 286.984 158.084 M 247.601 145.916 L 230.54 207.708 M 267.797 180.403 L 320.364 153.122 M 224.268 165.408 L 230.54 207.708 M 267.797 180.403 L 262.582 209.576 M 262.582 209.576 L 320.364 153.122 M 224.268 165.408 L 196.929 194.763 M 320.364 153.122 L 286.984 158.084 M 196.929 194.763 L 230.54 207.708 M 285.533 208.82 L 320.364 153.122 M 320.364 153.122 L 258.981 137.382 M 285.533 208.82 L 338.91 170.791 M 289.543 114.266 L 258.981 137.382 M 320.364 153.122 L 289.543 114.266 M 323.43 219.184 L 338.91 170.791 M 289.543 114.266 L 270.483 96.2507 M 365.437 119.651 L 289.543 114.266 M 323.43 219.184 L 349.896 212.745 M 196.929 194.763 L 209.14 217.8 M 338.91 170.791 L 320.364 153.122 M 181.56 164.993 L 196.929 194.763 M 324.817 255.841 L 349.896 212.745 M 370.737 172.735 L 320.364 153.122 M 338.91 170.791 L 370.737 172.735 M 262.582 209.576 L 285.533 208.82 M 355.481 70.1598 L 289.543 114.266 M 262.582 209.576 L 281.425 245.286 M 355.481 70.1598 L 316.155 64.1556 M 262.582 209.576 L 262.148 293.037 M 262.148 293.037 L 281.425 245.286 M 334.751 43.6583 L 316.155 64.1556 M 262.582 209.576 L 243.97 264.635 M 262.148 293.037 L 307.847 286.362 M 334.751 43.6583 L 310.972 41.7487 M 228.529 183.43 L 243.97 264.635 M 262.148 293.037 L 301.192 320.665 M 301.192 320.665 L 307.847 286.362 M 321.183 30.2312 L 310.972 41.7487 M 307.847 286.362 L 281.425 245.286 M 239.055 324.303 L 301.192 320.665 M 364.211 198.258 L 370.737 172.735 M 338.91 170.791 L 364.211 198.258 M 307.847 286.362 L 289.205 209.423 M 324.552 69.6164 L 270.483 96.2507 M 258.82 355.049 L 301.192 320.665 M 377.112 221.765 L 370.737 172.735 M 335.286 214.007 L 364.211 198.258 M 322.598 262.727 L 289.205 209.423 M 399.962 234.212 L 370.737 172.735 M 335.286 214.007 L 350.149 233.218 M 322.598 262.727 L 326.711 197.724 M 421.125 202.163 L 370.737 172.735 M 310.342 240.149 L 350.149 233.218 M 353.214 256.613 L 326.711 197.724 M 421.125 202.163 L 373.371 152.672 M 324.552 69.6164 L 285.647 51.8377 M 356.86 205.699 L 326.711 197.724 M 422.814 161.219 L 373.371 152.672 M 324.552 69.6164 L 304.212 15.7785 M 258.82 355.049 L 309.566 357.542 M 422.814 161.219 L 414.258 123.064 M 377.112 221.765 L 399.962 234.212 M 278.304 399.077 L 309.566 357.542 M 377.112 221.765 L 358.868 282.797 M 278.304 399.077 L 313.732 381.351 M 336.076 289.039 L 358.868 282.797 M 377.112 221.765 L 336.076 289.039 M 369.441 323.411 L 358.868 282.797 M 377.112 221.765 L 340.153 245.198 M 379.597 290.355 L 358.868 282.797 M 373.253 195.23 L 340.153 245.198 M 379.597 290.355 L 357.08 219.189 M 335.626 193.183 L 340.153 245.198 M 381.193 233.31 L 357.08 219.189 M 379.597 290.355 L 381.193 233.31 M 335.626 193.183 L 305.973 182.306 M 381.193 233.31 L 367.766 182.299 M 307.847 286.362 L 322.598 262.727 M 397.082 179.094 L 367.766 182.299 M 340.304 256.61 L 322.598 262.727 M 397.082 179.094 L 381.864 143.822 M 308.561 246.081 L 322.598 262.727 M 340.304 256.61 L 308.561 246.081 M 228.529 183.43 L 215.586 259.688 M 408.947 236.317 L 308.561 246.081 M 206.15 175.75 L 215.586 259.688 M 301.126 227.719 L 308.561 246.081 M 206.15 175.75 L 184.907 186.64 M 301.126 227.719 L 270.874 236.56 M 270.874 236.56 L 308.561 246.081 M 260.612 201.881 L 270.874 236.56 M 274.889 274.162 L 308.561 246.081 M 260.612 201.881 L 236.004 228.528 M 274.889 274.162 L 325.586 274.696 M 260.612 201.881 L 220.055 208.755 M 220.055 208.755 L 236.004 228.528 M 283.694 296.671 L 325.586 274.696 M 319.451 301.53 L 325.586 274.696 M 283.694 296.671 L 319.451 301.53 M 319.451 301.53 L 370.632 298.705 M 283.694 296.671 L 308.07 337.009 M 392.436 337.623 L 370.632 298.705 M 268.686 325.377 L 308.07 337.009 M 392.436 337.623 L 393.524 300.643 M 310.649 362.659 L 308.07 337.009 M 268.686 325.377 L 310.649 362.659 M 420.597 279.819 L 393.524 300.643 M 392.436 337.623 L 420.597 279.819 M 342.221 356.112 L 308.07 337.009 M 239.055 324.303 L 258.82 355.049 M 262.148 293.037 L 239.055 324.303 M 268.686 325.377 L 276.818 366.532 M 430.509 304.067 L 420.597 279.819 M 202.753 366.871 L 258.82 355.049 M 227.793 300.634 L 239.055 324.303 M 262.148 293.037 L 227.793 300.634 M 342.221 356.112 L 343.554 317.12 M 430.509 304.067 L 446.535 270.668 M 202.753 366.871 L 234.195 396.421 M 192.414 303.602 L 239.055 324.303 M 446.71 334.473 L 446.535 270.668 M 194.439 418.127 L 234.195 396.421 M 239.576 267.984 L 227.793 300.634 M 192.414 303.602 L 169.233 311.036 M 169.233 311.036 L 239.055 324.303 M 446.71 334.473 L 471.69 327.056 M 194.439 418.127 L 231.014 427.224 M 239.576 267.984 L 206.69 265.859 M 138.579 204.268 L 169.233 311.036 M 169.233 311.036 L 191.378 353.574 M 194.439 418.127 L 197.735 462.803 M 214.272 254.207 L 206.69 265.859 M 123.285 214.734 L 169.233 311.036 M 136.065 326.051 L 191.378 353.574 M 342.221 356.112 L 363.237 346.668 M 214.272 254.207 L 191.277 231.937 M 123.285 214.734 L 132.952 314.081 M 136.065 326.051 L 141.66 368.554 M 342.221 356.112 L 299.416 439.9 M 420.597 279.819 L 384.644 275.939 M 83.1397 223.166 L 132.952 314.081 M 342.221 356.112 L 270.814 443.327 M 420.597 279.819 L 423.594 262.094 M 423.594 262.094 L 384.644 275.939 M 83.1397 223.166 L 104.102 308.583 M 342.221 356.112 L 277.856 410.911 M 277.856 410.911 L 270.814 443.327 M 488.946 285.801 L 423.594 262.094 M 419.152 239.127 L 384.644 275.939 M 83.1397 223.166 L 48.1679 253.768 M 310.125 353.025 L 277.856 410.911 M 277.856 410.911 L 226.592 452.458 M 488.946 285.801 L 414.616 240.493 M 419.152 239.127 L 361.312 258.037 M 44.6798 214.804 L 48.1679 253.768 M 246.134 406.37 L 226.592 452.458 M 310.125 353.025 L 246.456 404.511 M 419.152 239.127 L 348.511 243.877 M 44.6798 214.804 L 2.9449 217.141 M 197.193 424.855 L 226.592 452.458 M 284.139 331.02 L 246.456 404.511 M 420.597 279.819 L 488.946 285.801 M 31.6356 174.712 L 2.9449 217.141 M 197.193 424.855 L 173.878 439.298 M 238.701 383.306 L 246.456 404.511 M 284.139 331.02 L 238.701 383.306 M 31.6356 174.712 L 0 179.124 M 238.701 383.306 L 195.69 417.15 M 284.139 331.02 L 207.716 385.6 M 207.969 387.874 L 195.69 417.15 M 269.797 317.517 L 207.716 385.6 M 115.633 347.148 L 141.66 368.554 M 216.044 345.108 L 207.716 385.6 M 270.814 443.327 L 299.416 439.9 M 392.436 337.623 L 430.509 304.067 M 256.425 487.931 L 299.416 439.9 M 426.962 356.772 L 430.509 304.067 M 256.425 487.931 L 317.022 445.687 M 426.962 356.772 L 444.665 335.477 M 256.425 487.931 L 310.982 482.804 M 310.982 482.804 L 317.022 445.687 M 256.425 487.931 L 287.331 502.543 M 287.331 502.543 L 310.982 482.804 M 310.982 482.804 L 350.512 469.377 M 287.331 502.543 L 346.236 479.018 M 346.186 487.031 L 350.512 469.377 M 287.331 502.543 L 330.846 539.524 M 330.846 539.524 L 346.236 479.018 M 346.186 487.031 L 389.228 476.46 M 276.597 543.524 L 330.846 539.524 M 353.593 544.465 L 346.236 479.018 M 385.318 525.815 L 389.228 476.46 M 276.597 543.524 L 300.489 552.275 M 300.489 552.275 L 330.846 539.524 M 353.593 544.465 L 368.319 498.474 M 385.318 525.815 L 419.421 505.885 M 276.597 543.524 L 278.256 588.424 M 278.256 588.424 L 300.489 552.275 M 300.489 552.275 L 344.255 558.552 M 389.813 509.281 L 368.319 498.474 M 353.593 544.465 L 389.813 509.281 M 276.597 543.524 L 234.386 570.136 M 431.39 542.107 L 419.421 505.885 M 297.686 596.31 L 344.255 558.552 M 210.812 553.362 L 234.386 570.136 M 439.487 449.82 L 368.319 498.474 M 297.686 596.31 L 343.93 603.32 M 210.812 553.362 L 203.286 600.181 M 439.487 449.82 L 409.235 432.452 M 409.235 432.452 L 368.319 498.474 M 314.573 627.523 L 343.93 603.32 M 439.487 449.82 L 467.703 430.656 M 467.703 430.656 L 409.235 432.452 M 357.244 472.899 L 368.319 498.474 M 314.573 627.523 L 346.038 636.385 M 439.487 449.82 L 478.423 453.063 M 449.118 407.494 L 409.235 432.452 M 357.244 472.899 L 343.498 482.659 M 409.235 432.452 L 357.244 472.899 M 430.387 465.563 L 478.423 453.063 M 439.487 449.82 L 430.387 465.563 M 411.056 388.373 L 409.235 432.452 M 324.281 451.284 L 357.244 472.899 M 472.658 474.452 L 478.423 453.063 M 430.387 465.563 L 472.658 474.452 M 367.991 479.677 L 430.387 465.563 M 411.056 388.373 L 342.017 377.193 M 499.759 474.35 L 478.423 453.063 M 472.658 474.452 L 499.759 474.35 M 353.593 544.465 L 387.355 551.45 M 234.386 570.136 L 278.256 588.424 M 472.658 474.452 L 492.594 512.705 M 358.843 588.925 L 387.355 551.45 M 234.386 570.136 L 233.849 586.433 M 216.044 345.108 L 162.396 418.245 M 270.814 443.327 L 256.425 487.931 M 430.387 465.563 L 415.046 497.986 M 367.991 479.677 L 411.564 491.447 M 369.593 355.359 L 342.017 377.193 M 448.789 531.111 L 492.594 512.705 M 358.843 588.925 L 399 574.585 M 167.568 377.305 L 162.396 418.245 M 242.174 497.43 L 256.425 487.931 M 270.814 443.327 L 242.174 497.43 M 406.668 487.05 L 415.046 497.986 M 339.413 510.782 L 411.564 491.447 M 448.789 531.111 L 443.572 577.997 M 369.593 355.359 L 317.905 374.167 M 131.199 365.849 L 162.396 418.245 M 379.447 512.729 L 415.046 497.986 M 336.307 536.496 L 411.564 491.447 M 416.202 582.415 L 443.572 577.997 M 242.174 497.43 L 283.471 544.741 M 270.814 443.327 L 223.959 477.625 M 379.447 512.729 L 424.595 551.087 M 336.307 536.496 L 408.032 518.855 M 416.202 582.415 L 431.486 615.731 M 431.486 615.731 L 443.572 577.997 M 225.238 518.338 L 283.471 544.741 M 225.747 440.514 L 223.959 477.625 M 336.307 536.496 L 351.86 557.479 M 400.099 608.928 L 431.486 615.731 M 225.238 518.338 L 249.768 602.086 M 171.807 434.002 L 223.959 477.625 M 406.668 487.05 L 379.447 512.729 M 400.099 608.928 L 409.533 635.235 M 189.087 575.408 L 249.768 602.086 M 171.807 434.002 L 159.776 456.546 M 379.379 491.407 L 379.447 512.729 M 443.572 577.997 L 492.594 512.705 M 189.087 575.408 L 214.235 631.052 M 152.821 397.877 L 159.776 456.546 M 379.379 491.407 L 348.574 485.474 M 348.574 485.474 L 379.447 512.729 M 443.572 577.997 L 494.614 539.478 M 196.538 604.449 L 214.235 631.052 M 143.079 424.786 L 159.776 456.546 M 340.273 435.57 L 348.574 485.474 M 344.286 538.301 L 379.447 512.729 M 443.572 577.997 L 462.933 590.298 M 194.74 636.532 L 214.235 631.052 M 112.832 451.279 L 159.776 456.546 M 340.273 435.57 L 268.93 422.633 M 344.286 538.301 L 373.649 539.397 M 373.649 539.397 L 379.447 512.729 M 112.832 451.279 L 138.13 477.291 M 309.872 395.389 L 268.93 422.633 M 344.286 538.301 L 327.056 587.367 M 499.759 474.35 L 501.205 443.166 M 101.834 483.976 L 138.13 477.291 M 112.832 451.279 L 101.834 483.976 M 244.3 402.156 L 268.93 422.633 M 312.178 566.292 L 327.056 587.367 M 531.652 461.804 L 501.205 443.166 M 101.834 483.976 L 128.525 507.956 M 492.594 512.705 L 499.759 474.35 M 302.364 606.93 L 327.056 587.367 M 312.178 566.292 L 302.364 606.93 M 531.652 461.804 L 517.045 418.046 M 511.534 531.734 L 499.759 474.35 M 321.304 650.793 L 327.056 587.367 M 267.649 588.674 L 302.364 606.93 M 511.534 531.734 L 524.206 498.37 M 361.706 664.353 L 327.056 587.367 M 472.658 474.452 L 448.789 531.111 M 584.616 474.812 L 524.206 498.37 M 361.706 664.353 L 362.931 633.163 M 472.658 474.452 L 439.527 514.083 M 439.527 514.083 L 448.789 531.111 M 395.815 709.364 L 362.931 633.163 M 418.614 505.31 L 439.527 514.083 M 439.527 514.083 L 419.189 584.194 M 395.815 709.364 L 382.274 638.175 M 382.274 638.175 L 362.931 633.163 M 389.013 550.419 L 439.527 514.083 M 439.527 514.083 L 388.556 579.309 M 416.216 586.102 L 362.931 633.163 M 389.013 550.419 L 410.49 564.191 M 439.527 514.083 L 394.703 504.17 M 416.216 586.102 L 408.032 568.641 M 370.067 581.409 L 410.49 564.191 M 389.013 550.419 L 370.067 581.409 M 430.633 456.857 L 394.703 504.17 M 395.601 620.648 L 410.49 564.191 M 370.067 581.409 L 395.601 620.648 M 332.023 529.542 L 370.067 581.409 M 395.601 620.648 L 438.065 585.411 M 511.534 531.734 L 584.616 474.812 M 362.931 633.163 L 327.056 587.367 M 546.082 527.077 L 584.616 474.812 M 511.534 531.734 L 546.082 527.077 M 362.931 633.163 L 381.117 626.73 M 546.082 527.077 L 573.507 542.844 M 511.534 531.734 L 525.01 547.194 M 553.026 555.371 L 573.507 542.844 M 553.026 555.371 L 577.654 565.684 M 513.341 604.208 L 577.654 565.684 M 513.341 604.208 L 539.64 623.927 M 539.64 623.927 L 577.654 565.684 M 488.765 630.422 L 539.64 623.927 M 539.64 623.927 L 566.752 606.883" />
</svg>
