<?xml version="1.0"?>
<svg width="995" height="909" version="1.1" xmlns="http://www.w3.org/2000/svg" >
<defs>
<style type="text/css"><![CDATA[
.m {stroke:rgb(255,0,0);stroke-width:1.243750;}
.v {stroke:rgb(0,0,255);stroke-width:1.243750;}
.b {stroke:rgb(0,0,0);stroke-width:2.487500;fill:white}
.n {stroke:rgb(128,128,128);stroke-width:1.243750}
.t {stroke:rgb(0,128,0);stroke-width:1.243750;}
.c {stroke:rgb(128,128,128);stroke-width:1.243750;stroke-dasharray:9.950000, 9.950000;}
]]></style>
</defs>
<path fill="none" style="stroke:black;stroke-width:2.487500;" d=" M 481.029 526.808 L 364.812 689.586 M 364.812 689.586 L 447.666 871.616 M 447.666 871.616 L 563.891 708.843 M 563.891 708.843 L 646.779 890.867 M 762.971 728.072 L 680.101 546.05 M 398.143 344.794 L 199.072 325.553 M 199.072 325.553 L 0 306.321 M 0 306.321 L 82.8772 488.328 M 879.173 565.281 L 995.376 402.505 M 995.376 402.505 L 796.295 383.274 M 281.95 507.564 L 481.029 526.808 M 82.8772 488.328 L 281.95 507.564 M 845.841 910.094 L 762.971 728.072 M 646.779 890.867 L 845.841 910.094 M 680.101 546.05 L 879.173 565.281 M 597.223 364.038 L 514.346 182.02 M 315.269 162.773 L 398.143 344.794 M 514.346 182.02 L 431.477 0 M 431.477 0 L 315.269 162.773 M 796.295 383.274 L 912.488 220.479 M 912.488 220.479 L 713.418 201.256 M 713.418 201.256 L 597.223 364.038" />
<path fill="none" class="c" d=" M 481.029 526.808 L 680.101 546.05 M 680.101 546.05 L 597.223 364.038 M 597.223 364.038 L 481.029 526.808 M 481.029 526.808 L 563.891 708.843 M 563.891 708.843 L 680.101 546.05 M 364.812 689.586 L 563.891 708.843 M 563.891 708.843 L 762.971 728.072 M 680.101 546.05 L 796.295 383.274 M 796.295 383.274 L 597.223 364.038 M 398.143 344.794 L 481.029 526.808 M 597.223 364.038 L 398.143 344.794 M 398.143 344.794 L 281.95 507.564 M 879.173 565.281 L 796.295 383.274 M 514.346 182.02 L 398.143 344.794 M 514.346 182.02 L 315.269 162.773 M 796.295 383.274 L 713.418 201.256 M 646.779 890.867 L 762.971 728.072 M 199.072 325.553 L 281.95 507.564 M 199.072 325.553 L 82.8772 488.328" />
<line x1="575.006916" y1="593.900197" x2="586.117491" y2="478.965195" class="t" />
<line x1="691.206228" y1="431.120462" x2="586.117491" y2="478.965195" class="t" />
<line x1="492.131800" y1="411.879895" x2="586.117491" y2="478.965195" class="t" />
<line x1="469.910650" y1="641.745519" x2="575.006916" y2="593.900197" class="t" />
<line x1="668.987428" y1="660.987996" x2="575.006916" y2="593.900197" class="t" />
<line x1="458.789642" y1="756.681404" x2="469.910650" y2="641.745519" class="t" />
<line x1="657.880258" y1="775.927244" x2="668.987428" y2="660.987996" class="t" />
<line x1="785.189550" y1="498.201730" x2="691.206228" y2="431.120462" class="t" />
<line x1="702.312138" y1="316.189354" x2="691.206228" y2="431.120462" class="t" />
<line x1="387.040883" y1="459.722164" x2="492.131800" y2="411.879895" class="t" />
<line x1="503.237236" y1="296.950284" x2="492.131800" y2="411.879895" class="t" />
<line x1="293.055192" y1="392.636863" x2="387.040883" y2="459.722164" class="t" />
<line x1="890.281385" y1="450.353492" x2="785.189550" y2="498.201730" class="t" />
<line x1="409.252536" y1="229.862217" x2="503.237236" y2="296.950284" class="t" />
<line x1="420.363747" y1="114.931006" x2="409.252536" y2="229.862217" class="t" />
<line x1="807.400581" y1="268.336598" x2="702.312138" y2="316.189354" class="t" />
<line x1="751.863528" y1="843.010966" x2="657.880258" y2="775.927244" class="t" />
<line x1="187.966455" y1="440.481596" x2="293.055192" y2="392.636863" class="t" />
<line x1="93.983133" y1="373.400328" x2="187.966455" y2="440.481596" class="t" />
</svg>
