<?xml version="1.0"?>
<svg width="880" height="998" version="1.1" xmlns="http://www.w3.org/2000/svg" >
<defs>
<style type="text/css"><![CDATA[
.m {stroke:rgb(255,0,0);stroke-width:1.247500;}
.v {stroke:rgb(0,0,255);stroke-width:1.247500;}
.b {stroke:rgb(0,0,0);stroke-width:2.495000;fill:white}
.n {stroke:rgb(128,128,128);stroke-width:1.247500}
.t {stroke:rgb(0,128,0);stroke-width:1.247500;}
.c {stroke:rgb(128,128,128);stroke-width:1.247500;stroke-dasharray:8.800000, 8.800000;}
]]></style>
</defs>
<path fill="none" style="stroke:black;stroke-width:2.495000;" d=" M 182.101 704.87 L 352.247 599.734 M 352.247 599.734 L 358.262 799.652 M 522.387 494.574 L 692.507 389.424 M 340.243 199.909 L 346.26 399.817 M 170.133 305.06 L 0 410.2 M 0 410.2 L 176.119 504.959 M 358.262 799.652 L 364.267 999.554 M 364.267 999.554 L 534.386 894.391 M 528.387 694.483 L 704.505 789.254 M 346.26 399.817 L 170.133 305.06 M 5.99052 610.094 L 182.101 704.87 M 176.119 504.959 L 5.99052 610.094 M 534.386 894.391 L 528.387 694.483 M 698.503 589.337 L 522.387 494.574 M 516.376 294.671 L 510.369 94.7635 M 510.369 94.7635 L 334.238 0 M 334.238 0 L 340.243 199.909 M 704.505 789.254 L 880.63 884.015 M 880.63 884.015 L 874.626 684.1 M 874.626 684.1 L 698.503 589.337 M 692.507 389.424 L 686.499 189.517 M 686.499 189.517 L 516.376 294.671" />
<path fill="none" class="c" d=" M 346.26 399.817 L 352.247 599.734 M 352.247 599.734 L 522.387 494.574 M 522.387 494.574 L 346.26 399.817 M 176.119 504.959 L 352.247 599.734 M 346.26 399.817 L 176.119 504.959 M 176.119 504.959 L 182.101 704.87 M 352.247 599.734 L 528.387 694.483 M 528.387 694.483 L 522.387 494.574 M 522.387 494.574 L 516.376 294.671 M 516.376 294.671 L 346.26 399.817 M 170.133 305.06 L 176.119 504.959 M 528.387 694.483 L 698.503 589.337 M 358.262 799.652 L 528.387 694.483 M 692.507 389.424 L 516.376 294.671 M 516.376 294.671 L 340.243 199.909 M 704.505 789.254 L 698.503 589.337 M 358.262 799.652 L 534.386 894.391 M 510.369 94.7635 L 340.243 199.909 M 704.505 789.254 L 874.626 684.1" />
<line x1="291.541884" y1="501.503167" x2="406.964654" y2="498.041348" class="t" />
<line x1="467.673560" y1="596.263231" x2="406.964654" y2="498.041348" class="t" />
<line x1="461.674470" y1="396.353908" x2="406.964654" y2="498.041348" class="t" />
<line x1="236.822105" y1="603.187386" x2="291.541884" y2="501.503167" class="t" />
<line x1="230.837229" y1="403.278804" x2="291.541884" y2="501.503167" class="t" />
<line x1="121.403269" y1="606.641017" x2="236.822105" y2="603.187386" class="t" />
<line x1="412.965240" y1="697.955904" x2="467.673560" y2="596.263231" class="t" />
<line x1="583.092318" y1="592.797733" x2="467.673560" y2="596.263231" class="t" />
<line x1="577.090070" y1="392.889718" x2="461.674470" y2="396.353908" class="t" />
<line x1="400.959823" y1="298.132325" x2="461.674470" y2="396.353908" class="t" />
<line x1="115.417263" y1="406.739861" x2="230.837229" y2="403.278804" class="t" />
<line x1="643.798388" y1="691.024617" x2="583.092318" y2="592.797733" class="t" />
<line x1="473.678265" y1="796.175094" x2="412.965240" y2="697.955904" class="t" />
<line x1="631.794078" y1="291.204064" x2="577.090070" y2="392.889718" class="t" />
<line x1="455.662815" y1="196.447869" x2="400.959823" y2="298.132325" class="t" />
<line x1="759.211426" y1="687.563889" x2="643.798388" y2="691.024617" class="t" />
<line x1="418.971881" y1="897.865600" x2="473.678265" y2="796.175094" class="t" />
<line x1="394.950152" y1="98.224118" x2="455.662815" y2="196.447869" class="t" />
<line x1="819.920322" y1="785.789968" x2="759.211426" y2="687.563889" class="t" />
</svg>
