<?xml version="1.0"?>
<svg width="522" height="459" version="1.1" xmlns="http://www.w3.org/2000/svg" >
<defs>
<style type="text/css"><![CDATA[
.m {stroke:rgb(255,0,0);stroke-width:0.652500;}
.v {stroke:rgb(0,0,255);stroke-width:0.652500;}
.b {stroke:rgb(0,0,0);stroke-width:1.305000;fill:white}
.n {stroke:rgb(128,128,128);stroke-width:0.652500}
.t {stroke:rgb(0,128,0);stroke-width:0.652500;}
.c {stroke:rgb(128,128,128);stroke-width:0.652500;stroke-dasharray:5.220000, 5.220000;}
]]></style>
</defs>
<path fill="none" style="stroke:black;stroke-width:1.305000;" d=" M 290.266 64.0687 L 286.585 42.9761 M 286.585 42.9761 L 268.742 45.4022 M 272.934 68.9929 L 290.266 64.0687 M 234.573 56.7802 L 255.064 71.2583 M 255.064 71.2583 L 232.763 59.7626 M 232.763 59.7626 L 216.325 67.1327 M 216.325 67.1327 L 237.394 74.7695 M 323.803 75.8085 L 339.914 83.8757 M 339.914 83.8757 L 329.572 63.9947 M 313.535 55.7855 L 323.803 75.8085 M 326.644 74.0745 L 313.535 55.7855 M 296.929 48.8 L 290.949 69.3594 M 309.407 29.8631 L 294.872 19.2197 M 294.872 19.2197 L 280.948 40.4997 M 280.948 40.4997 L 296.929 48.8 M 268.742 45.4022 L 260.259 21.4284 M 260.259 21.4284 L 243.966 29.1306 M 243.966 29.1306 L 251.451 50.4542 M 139.265 188.704 L 120.482 201.271 M 133.069 214.166 L 139.265 188.704 M 251.451 50.4542 L 226.764 41.6635 M 211.828 51.751 L 234.573 56.7802 M 325.898 64.7474 L 338.587 77.533 M 338.587 77.533 L 335.731 54.4139 M 323.069 41.5963 L 325.898 64.7474 M 329.572 63.9947 L 323.069 41.5963 M 328.167 14.7186 L 317.783 0 M 317.783 0 L 296.71 17.0826 M 296.71 17.0826 L 309.407 29.8631 M 106.877 189.451 L 90.3524 210.965 M 90.3524 210.965 L 105.592 220.561 M 120.482 201.271 L 106.877 189.451 M 136.939 238.269 L 133.069 214.166 M 226.764 41.6635 L 202.474 39.233 M 202.474 39.233 L 187.623 49.4323 M 187.623 49.4323 L 211.828 51.751 M 335.731 54.4139 L 337.442 30.1588 M 9.28405 265.634 L 31.9722 277.814 M 41.7179 262.665 L 16.116 248.967 M 16.116 248.967 L 9.28405 265.634 M 88.9067 213.784 L 79.6641 241.309 M 79.6641 241.309 L 97.1614 245.62 M 105.592 220.561 L 88.9067 213.784 M 132.568 252.154 L 121.594 228.83 M 121.594 228.83 L 128.937 253.538 M 128.937 253.538 L 144.479 262.659 M 144.479 262.659 L 136.939 238.269 M 4.70095 286.657 L 0 304.049 M 0 304.049 L 23.2916 293.598 M 31.9722 277.814 L 4.70095 286.657 M 337.442 30.1588 L 352.254 5.61281 M 352.254 5.61281 L 328.167 14.7186 M 65.9931 282.218 L 76.2693 267.422 M 76.2693 267.422 L 53.8653 249.354 M 53.8653 249.354 L 41.7179 262.665 M 97.1614 245.62 L 97.5447 274.399 M 97.5447 274.399 L 115.245 271.054 M 133.126 268.849 L 114.979 248.267 M 114.979 248.267 L 130.1 271.164 M 130.1 271.164 L 147.814 274.404 M 147.814 274.404 L 132.568 252.154 M 23.3381 297.375 L 15.0651 313.385 M 15.0651 313.385 L 41.6386 308.763 M 53.4141 295.116 L 23.3381 297.375 M 23.2916 293.598 L 53.4141 295.116 M 87.1859 308.113 L 100.427 295.902 M 100.427 295.902 L 80.563 271.623 M 80.563 271.623 L 65.9931 282.218 M 97.2654 272.159 L 104.345 302.719 M 104.345 302.719 L 120.962 295.741 M 115.245 271.054 L 97.2654 272.159 M 137.932 289.696 L 155.666 286.538 M 155.666 286.538 L 133.126 268.849 M 41.6386 308.763 L 28.4591 321.035 M 28.4591 321.035 L 56.4922 326.958 M 56.4922 326.958 L 72.0969 317.964 M 103.047 340.169 L 118.803 331.45 M 103.699 300.919 L 87.1859 308.113 M 118.803 331.45 L 133.419 320.918 M 120.962 295.741 L 103.699 300.919 M 148.49 311.053 L 164.976 303.785 M 164.976 303.785 L 137.932 289.696 M 57.525 328.55 L 41.7969 337.328 M 41.7969 337.328 L 68.8276 351.442 M 68.8276 351.442 L 86.0631 346.198 M 72.0969 317.964 L 57.525 328.55 M 111.122 377.16 L 128.591 372.745 M 128.591 372.745 L 103.047 340.169 M 117.975 330.194 L 103.838 341.347 M 103.838 341.347 L 141.716 358.046 M 141.716 358.046 L 153.383 344.312 M 133.419 320.918 L 117.975 330.194 M 165.484 330.973 L 179.57 319.747 M 179.57 319.747 L 148.49 311.053 M 69.3302 352.874 L 51.8831 357.37 M 51.8831 357.37 L 75.1811 379.703 M 75.1811 379.703 L 93.1697 378.73 M 86.0631 346.198 L 69.3302 352.874 M 109.273 416.574 L 127.281 417.073 M 127.281 417.073 L 111.122 377.16 M 140.947 357.353 L 130.376 371.945 M 130.376 371.945 L 172.809 379.27 M 172.809 379.27 L 180.599 363.023 M 153.383 344.312 L 140.947 357.353 M 188.698 346.934 L 199.197 332.286 M 199.197 332.286 L 165.484 330.973 M 75.2668 380.736 L 57.2597 380.305 M 57.2597 380.305 L 73.9103 409.649 M 73.9103 409.649 L 91.5582 413.283 M 93.1697 378.73 L 75.2668 380.736 M 238.799 307.184 L 197.405 312.055 M 91.5582 413.283 L 96.4305 454.677 M 96.4305 454.677 L 113.53 460.349 M 113.53 460.349 L 109.273 416.574 M 172.331 379.032 L 166.412 396.047 M 166.412 396.047 L 210.187 391.785 M 210.187 391.785 L 213.336 374.044 M 180.599 363.023 L 172.331 379.032 M 216.575 356.321 L 222.41 339.276 M 194.288 329.801 L 188.698 346.934 M 222.41 339.276 L 230.648 323.252 M 197.405 312.055 L 194.288 329.801 M 253.12 303.827 L 215.262 320.41 M 230.648 323.252 L 271.368 330.327 M 271.368 330.327 L 281.948 315.744 M 281.948 315.744 L 238.799 307.184 M 210.193 391.786 L 209.704 409.795 M 209.704 409.795 L 250.389 393.068 M 250.389 393.068 L 248.397 375.165 M 213.336 374.044 L 210.193 391.786 M 246.229 357.278 L 246.638 339.265 M 217.247 338.318 L 216.575 356.321 M 246.638 339.265 L 249.787 321.532 M 215.262 320.41 L 217.247 338.318 M 266.298 314.355 L 264.235 296.452 M 264.235 296.452 L 234.51 323.321 M 249.787 321.532 L 289.565 316.717 M 289.565 316.717 L 295.989 299.894 M 295.989 299.894 L 253.12 303.827 M 250.916 393.001 L 256.153 410.241 M 256.153 410.241 L 288.876 382.269 M 288.876 382.269 L 281.687 365.75 M 248.397 375.165 L 250.916 393.001 M 281.687 365.75 L 274.094 349.417 M 274.094 349.417 L 268.791 332.197 M 241.676 339.845 L 246.229 357.278 M 234.51 323.321 L 241.676 339.845 M 297.05 313.961 L 299.811 296.154 M 263.212 296.6 L 266.298 314.355 M 299.811 296.154 L 300.275 278.142 M 300.275 278.142 L 263.212 296.6 M 263.783 385.932 L 264.615 403.921 M 264.615 403.921 L 301.646 385.397 M 265.818 368.032 L 263.783 385.932 M 299.113 367.571 L 295.897 349.84 M 268.435 350.212 L 265.818 368.032 M 295.897 349.84 L 294.971 331.856 M 268.791 332.197 L 268.435 350.212 M 324.363 320.473 L 331.438 303.899 M 298.314 295.985 L 297.05 313.961 M 331.438 303.899 L 336.482 286.606 M 336.482 286.606 L 298.314 295.985 M 301.646 385.397 L 307.044 402.588 M 307.044 402.588 L 336.22 376.254 M 329.575 359.513 L 322.075 343.128 M 297.388 349.633 L 299.113 367.571 M 322.075 343.128 L 316.59 325.969 M 316.59 325.969 L 297.388 349.633 M 294.971 331.856 L 290.044 349.176 M 290.044 349.176 L 318.146 337.388 M 347.005 331.861 L 357.672 317.338 M 329.643 303.243 L 324.363 320.473 M 357.672 317.338 L 366.672 301.727 M 366.672 301.727 L 329.643 303.243 M 336.22 376.254 L 345.535 391.673 M 345.535 391.673 L 365.825 360.661 M 355.69 345.766 L 344.667 331.527 M 323.861 342.422 L 329.575 359.513 M 344.667 331.527 L 335.278 316.146 M 335.278 316.146 L 323.861 342.422 M 318.146 337.388 L 309.257 353.056 M 309.257 353.056 L 337.261 347.008 M 337.261 347.008 L 347.005 331.861 M 409.529 370.903 L 400.437 355.351 M 378.265 373.697 L 391.962 385.406 M 400.437 355.351 L 389.835 340.781 M 365.825 360.661 L 378.265 373.697 M 346.525 330.265 L 355.69 345.766 M 363.18 316.572 L 350.674 303.606 M 350.674 303.606 L 346.525 330.265 M 404.882 397.954 L 415.599 412.441 M 415.599 412.441 L 419.697 385.773 M 419.697 385.773 L 409.529 370.903 M 391.962 385.406 L 404.882 397.954 M 404.599 351.112 L 420.261 360.014 M 421.49 330.773 L 408.373 318.422 M 389.835 340.781 L 404.599 351.112 M 408.373 318.422 L 393.394 308.421 M 377.7 299.579 L 376.93 328.211 M 376.93 328.211 L 373.71 299.75 M 373.71 299.75 L 357.601 291.68 M 357.601 291.68 L 363.18 316.572 M 431.403 369.956 L 442.639 384.037 M 442.639 384.037 L 444.348 358.584 M 433.436 344.256 L 431.403 369.956 M 420.261 360.014 L 435.272 369.971 M 435.272 369.971 L 433.436 344.256 M 442.321 318.129 L 433.89 302.196 M 410.736 316.318 L 421.49 330.773 M 433.89 302.196 L 423.002 287.845 M 402.383 300.361 L 410.736 316.318 M 410.994 274.404 L 402.383 300.361 M 393.394 308.421 L 384.55 282.543 M 384.55 282.543 L 367.213 277.652 M 367.213 277.652 L 377.7 299.579 M 440.696 357.508 L 446.675 374.504 M 446.675 374.504 L 455.223 351.751 M 449.404 334.69 L 440.696 357.508 M 444.348 358.584 L 449.404 334.69 M 464.367 313.17 L 461.362 295.402 M 461.362 295.402 L 436.569 301.045 M 436.569 301.045 L 442.321 318.129 M 435.994 300.323 L 452.628 281.092 M 452.628 281.092 L 437.894 270.742 M 423.002 287.845 L 435.994 300.323 M 407.547 251.351 L 410.994 274.404 M 452.094 349.781 L 452.397 367.792 M 452.397 367.792 L 466.346 349.117 M 466.037 331.104 L 452.094 349.781 M 455.223 351.751 L 466.037 331.104 M 485.389 315.122 L 487.886 297.282 M 487.886 297.282 L 464.023 295.153 M 464.023 295.153 L 464.367 313.17 M 454.08 278.63 L 463.702 256.689 M 463.702 256.689 L 446.553 251.16 M 437.894 270.742 L 454.08 278.63 M 411.8 241.758 L 422.353 261.609 M 422.353 261.609 L 414.851 240.416 M 414.851 240.416 L 399.976 230.247 M 399.976 230.247 L 407.547 251.351 M 466.346 349.117 L 481.659 332.739 M 484.244 223.592 L 507.388 230.703 M 481.659 332.739 L 503.73 322.784 M 503.73 322.784 L 511.32 306.448 M 511.32 306.448 L 490.334 297.8 M 490.334 297.8 L 485.389 315.122 M 464.36 253.915 L 467.099 231.383 M 467.099 231.383 L 449.085 231.044 M 446.553 251.16 L 464.36 253.915 M 413.087 232.146 L 429.005 247.066 M 429.005 247.066 L 415.32 230.074 M 415.32 230.074 L 398.05 224.93 M 398.05 224.93 L 411.8 241.758 M 507.388 230.703 L 522.614 221.068 M 522.614 221.068 L 501.186 217.454 M 481.238 204.96 L 502.655 214.724 M 501.186 217.454 L 481.238 204.96 M 466.932 228.57 L 484.244 223.592 M 463.369 207.234 L 446 212.024 M 449.085 231.044 L 466.932 228.57 M 446 212.024 L 429.071 218.194 M 411.781 223.247 L 431.101 232.193 M 431.101 232.193 L 413.147 220.749 M 413.147 220.749 L 395.13 220.873 M 395.13 220.873 L 413.087 232.146 M 502.655 214.724 L 519.218 207.625 M 519.218 207.625 L 498.925 201.483 M 499.051 188.403 L 481.094 186.878 M 463.088 186.51 L 445.2 188.664 M 445.2 188.664 L 463.369 207.234 M 446.664 214.302 L 463.938 209.181 M 463.938 209.181 L 441.084 196.826 M 441.084 196.826 L 425.251 205.401 M 429.071 218.194 L 446.664 214.302 M 408.882 212.925 L 391.622 218.075 M 391.622 218.075 L 411.781 223.247 M 498.925 201.483 L 516.805 199.264 M 516.805 199.264 L 499.051 188.403 M 500.974 173.567 L 483.413 169.552 M 481.094 186.878 L 499.094 185.998 M 465.619 166.723 L 447.603 166.363 M 447.603 166.363 L 463.088 186.51 M 442.085 199.011 L 458.465 191.508 M 458.465 191.508 L 434.43 183.262 M 434.43 183.262 L 419.936 193.961 M 425.251 205.401 L 442.085 199.011 M 404.756 203.665 L 388.385 211.194 M 388.385 211.194 L 408.882 212.925 M 499.094 185.998 L 517.103 186.333 M 517.103 186.333 L 500.974 173.567 M 504.693 159.315 L 487.798 153.068 M 483.413 169.552 L 501.362 171.083 M 470.505 148.043 L 452.687 145.381 M 452.687 145.381 L 465.619 166.723 M 435.776 185.381 L 451.058 175.832 M 451.058 175.832 L 426.492 171.454 M 426.492 171.454 L 413.502 183.934 M 419.936 193.961 L 435.776 185.381 M 399.652 195.458 L 384.364 204.99 M 384.364 204.99 L 404.756 203.665 M 501.362 171.083 L 519.187 173.721 M 519.187 173.721 L 504.693 159.315 M 509.943 145.587 L 493.894 137.417 M 487.798 153.068 L 505.429 156.757 M 477.254 130.517 L 459.849 125.872 M 459.849 125.872 L 470.505 148.043 M 428.195 177.029 L 443.901 168.203 M 443.901 168.203 L 419.776 163.403 M 406.249 175.31 L 428.195 177.029 M 413.502 183.934 L 428.188 173.503 M 428.188 173.503 L 406.249 175.31 M 393.752 188.286 L 379.641 199.5 M 379.641 199.5 L 399.652 195.458 M 505.429 156.757 L 522.832 161.418 M 522.832 161.418 L 509.943 145.587 M 372.945 217.693 L 383.008 202.758 M 348.18 219.34 L 372.945 217.693 M 493.894 137.417 L 485.406 114.094 M 485.406 114.094 L 468.501 107.852 M 468.501 107.852 L 477.254 130.517 M 420.247 167.183 L 435.19 157.123 M 435.19 157.123 L 410.988 154.982 M 398.504 167.976 L 420.247 167.183 M 419.776 163.403 L 398.504 167.976 M 387.242 182.032 L 374.245 194.504 M 383.008 202.758 L 393.752 188.286 M 336.284 201.94 L 360.691 206.366 M 360.691 206.366 L 335.886 206.261 M 324.135 219.914 L 348.18 219.34 M 355.465 202.182 L 368.2 214.932 M 368.2 214.932 L 365.053 191.087 M 349.884 181.366 L 355.465 202.182 M 410.988 154.982 L 390.527 161.749 M 380.257 176.552 L 387.242 182.032 M 388.23 183.152 L 383.467 175.659 M 374.245 194.504 L 388.23 183.152 M 367.646 184.275 L 363.522 172.509 M 328.884 182.247 L 351.548 192.386 M 351.548 192.386 L 327.366 186.757 M 312.892 197.492 L 336.284 201.94 M 312.723 211.776 L 324.135 219.914 M 335.886 206.261 L 312.723 211.776 M 365.053 191.087 L 371.216 178.498 M 354.159 172.718 L 349.884 181.366 M 390.527 161.749 L 382.527 156.358 M 372.903 171.587 L 380.257 176.552 M 383.467 175.659 L 380.099 167.451 M 362.875 172.756 L 367.646 184.275 M 363.522 172.509 L 362.17 159.684 M 344.153 159.542 L 345.955 176.498 M 345.955 176.498 L 340.692 160.279 M 323.535 165.776 L 328.884 182.247 M 140.63 182.394 L 157.142 187.618 M 160.643 169.944 L 140.63 182.394 M 303.812 187.607 L 312.892 197.492 M 327.366 186.757 L 303.812 187.607 M 371.216 178.498 L 374.054 165.379 M 356.118 163.659 L 354.159 172.718 M 382.527 156.358 L 374.652 151.47 M 365.251 166.838 L 372.903 171.587 M 380.099 167.451 L 378.392 158.608 M 360.436 160.093 L 362.875 172.756 M 362.17 159.684 L 363.759 146.355 M 346.187 142.347 L 344.153 159.542 M 179.706 228.51 L 193.461 217.992 M 182.366 203.797 L 179.706 228.51 M 318.267 149.559 L 323.535 165.776 M 340.692 160.279 L 318.267 149.559 M 157.142 187.618 L 174.135 189.025 M 173.493 171.02 L 160.643 169.944 M 374.054 165.379 L 373.908 152.485 M 356.011 154.657 L 356.118 163.659 M 374.652 151.47 L 367.001 146.726 M 357.374 161.95 L 365.251 166.838 M 378.392 158.608 L 378.707 149.343 M 360.893 146.678 L 360.436 160.093 M 212.073 230.271 L 220.512 219.079 M 207.188 206.948 L 212.073 230.271 M 351.907 125.683 L 346.187 142.347 M 363.759 146.355 L 351.907 125.683 M 193.461 217.992 L 207.188 206.948 M 195.495 193.24 L 182.366 203.797 M 174.135 189.025 L 190.792 186.5 M 185.821 169.18 L 173.493 171.02 M 373.908 152.485 L 371.259 140.306 M 354.158 145.979 L 356.011 154.657 M 367.001 146.726 L 359.646 141.761 M 349.378 156.56 L 357.374 161.95 M 378.707 149.343 L 381.364 140.073 M 364.717 133.192 L 360.893 146.678 M 226.589 218.324 L 234.766 206.153 M 220.607 195.015 L 226.589 218.324 M 220.512 219.079 L 220.607 195.015 M 207.989 182.159 L 195.495 193.24 M 190.792 186.5 L 206.234 180.144 M 197.108 164.611 L 185.821 169.18 M 371.259 140.306 L 366.59 129.059 M 350.82 137.752 L 354.158 145.979 M 359.646 141.761 L 352.668 136.271 M 341.401 150.329 L 349.378 156.56 M 381.364 140.073 L 386.581 131.399 M 372.176 120.568 L 364.717 133.192 M 241.001 204.969 L 248.542 191.631 M 233.389 181.89 L 241.001 204.969 M 234.766 206.153 L 233.389 181.89 M 219.658 170.23 L 207.989 182.159 M 206.234 180.144 L 219.658 170.23 M 206.844 157.551 L 197.108 164.611 M 366.59 129.059 L 360.258 118.834 M 346.151 130.03 L 350.82 137.752 M 352.668 136.271 L 346.151 130.03 M 320.109 154.876 L 341.401 150.329 M 386.581 131.399 L 383.171 109.896 M 383.171 109.896 L 372.176 120.568 M 311.698 141.245 L 295.987 150.052 M 295.987 150.052 L 320.109 154.876 M 248.542 191.631 L 245.174 167.263 M 230.237 157.183 L 214.568 148.302 M 214.568 148.302 L 206.844 157.551 M 360.258 118.834 L 352.496 109.618 M 352.496 109.618 L 340.264 122.846 M 311.702 144.786 L 333.649 142.994 M 333.649 142.994 L 311.698 141.245 M 304.567 129.641 L 288.05 136.822 M 288.05 136.822 L 311.702 144.786 M 245.174 167.263 L 261.319 175.246 M 261.319 175.246 L 255.541 150.968 M 239.46 142.841 L 222.836 135.897 M 216.058 146.077 L 230.237 157.183 M 222.836 135.897 L 206.68 127.934 M 206.68 127.934 L 216.058 146.077 M 340.264 122.846 L 355.526 113.271 M 355.526 113.271 L 335.149 114.646 M 319.958 124.335 L 304.11 132.903 M 304.11 132.903 L 326.406 134.364 M 326.406 134.364 L 304.567 129.641 M 297.802 119.277 L 281.422 126.763 M 281.422 126.763 L 305.457 135.026 M 255.541 150.968 L 272.569 156.835 M 272.569 156.835 L 264.008 132.906 M 246.974 127.056 L 229.563 122.407 M 223.961 133.656 L 239.46 142.841 M 229.563 122.407 L 212.517 116.576 M 212.517 116.576 L 223.961 133.656 M 335.149 114.646 L 351.516 107.128 M 351.516 107.128 L 331.031 105.384 M 314.652 112.903 L 297.802 119.277 M 305.457 135.026 L 319.958 124.335 M 293.231 103.972 L 275.954 109.084 M 275.954 109.084 L 298.799 121.46 M 264.008 132.906 L 281.687 136.342 M 281.687 136.342 L 270.079 113.098 M 252.357 109.8 L 234.459 107.715 M 230.334 120.138 L 246.974 127.056 M 234.459 107.715 L 216.757 104.365 M 216.757 104.365 L 230.334 120.138 M 331.031 105.384 L 348.286 100.204 M 348.286 100.204 L 328.119 95.0633 M 310.829 100.118 L 293.231 103.972 M 298.799 121.46 L 314.652 112.903 M 290.813 87.2482 L 272.964 89.7142 M 272.964 89.7142 L 293.894 106.262 M 270.079 113.098 L 288.08 113.86 M 288.08 113.86 L 273.224 91.6967 M 234.895 105.355 L 252.357 109.8 M 237.215 91.7962 L 219.209 91.1045 M 219.209 91.1045 L 234.895 105.355 M 328.119 95.0633 L 345.956 92.5229 M 345.956 92.5229 L 326.657 83.7664 M 308.798 86.1149 L 290.813 87.2482 M 293.894 106.262 L 310.829 100.118 M 290.949 69.3594 L 272.934 68.9929 M 273.224 91.6967 L 291.124 89.6325 M 237.394 74.7695 L 255.219 91.1318 M 255.219 91.1318 L 235.379 77.2817 M 235.379 77.2817 L 217.933 81.7885 M 217.933 81.7885 L 237.215 91.7962 M 324.715 86.1224 L 342.518 88.9056 M 342.518 88.9056 L 326.644 74.0745 M 308.88 71.0933 L 324.715 86.1224 M 326.657 83.7664 L 308.88 71.0933 M 291.124 89.6325 L 308.798 86.1149" />
<path fill="none" class="c" d=" M 268.742 45.4022 L 290.266 64.0687 M 268.742 45.4022 L 272.934 68.9929 M 251.451 50.4542 L 272.934 68.9929 M 255.064 71.2583 L 272.934 68.9929 M 255.064 71.2583 L 273.224 91.6967 M 255.219 91.1318 L 273.224 91.6967 M 255.219 91.1318 L 270.079 113.098 M 255.219 91.1318 L 252.357 109.8 M 270.079 113.098 L 273.224 91.6967 M 252.357 109.8 L 270.079 113.098 M 264.008 132.906 L 270.079 113.098 M 252.357 109.8 L 264.008 132.906 M 252.357 109.8 L 246.974 127.056 M 246.974 127.056 L 264.008 132.906 M 255.541 150.968 L 264.008 132.906 M 246.974 127.056 L 255.541 150.968 M 239.46 142.841 L 255.541 150.968 M 246.974 127.056 L 239.46 142.841 M 255.064 71.2583 L 255.219 91.1318 M 273.224 91.6967 L 272.934 68.9929 M 291.124 89.6325 L 272.934 68.9929 M 245.174 167.263 L 255.541 150.968 M 291.124 89.6325 L 290.949 69.3594 M 308.798 86.1149 L 290.949 69.3594 M 308.798 86.1149 L 308.88 71.0933 M 308.798 86.1149 L 326.657 83.7664 M 328.119 95.0633 L 326.657 83.7664 M 308.798 86.1149 L 328.119 95.0633 M 308.798 86.1149 L 310.829 100.118 M 310.829 100.118 L 328.119 95.0633 M 331.031 105.384 L 328.119 95.0633 M 310.829 100.118 L 331.031 105.384 M 310.829 100.118 L 314.652 112.903 M 314.652 112.903 L 331.031 105.384 M 314.652 112.903 L 335.149 114.646 M 319.958 124.335 L 335.149 114.646 M 319.958 124.335 L 340.264 122.846 M 326.406 134.364 L 340.264 122.846 M 326.406 134.364 L 346.151 130.03 M 314.652 112.903 L 319.958 124.335 M 333.649 142.994 L 346.151 130.03 M 333.649 142.994 L 352.668 136.271 M 341.401 150.329 L 352.668 136.271 M 341.401 150.329 L 359.646 141.761 M 335.149 114.646 L 331.031 105.384 M 349.378 156.56 L 359.646 141.761 M 349.378 156.56 L 367.001 146.726 M 290.813 87.2482 L 310.829 100.118 M 290.813 87.2482 L 293.894 106.262 M 357.374 161.95 L 367.001 146.726 M 357.374 161.95 L 374.652 151.47 M 365.251 166.838 L 374.652 151.47 M 365.251 166.838 L 382.527 156.358 M 372.903 171.587 L 382.527 156.358 M 372.903 171.587 L 390.527 161.749 M 380.257 176.552 L 390.527 161.749 M 380.257 176.552 L 398.504 167.976 M 387.242 182.032 L 398.504 167.976 M 387.242 182.032 L 406.249 175.31 M 393.752 188.286 L 406.249 175.31 M 393.752 188.286 L 413.502 183.934 M 399.652 195.458 L 413.502 183.934 M 419.936 193.961 L 413.502 183.934 M 399.652 195.458 L 419.936 193.961 M 399.652 195.458 L 404.756 203.665 M 404.756 203.665 L 419.936 193.961 M 425.251 205.401 L 419.936 193.961 M 404.756 203.665 L 425.251 205.401 M 404.756 203.665 L 408.882 212.925 M 413.502 183.934 L 406.249 175.31 M 408.882 212.925 L 425.251 205.401 M 429.071 218.194 L 425.251 205.401 M 446.664 214.302 L 425.251 205.401 M 446.664 214.302 L 441.084 196.826 M 393.752 188.286 L 399.652 195.458 M 319.958 124.335 L 326.406 134.364 M 239.46 142.841 L 245.174 167.263 M 230.237 157.183 L 245.174 167.263 M 229.563 122.407 L 239.46 142.841 M 229.563 122.407 L 223.961 133.656 M 239.46 142.841 L 230.237 157.183 M 222.836 135.897 L 230.237 157.183 M 408.882 212.925 L 429.071 218.194 M 408.882 212.925 L 411.781 223.247 M 411.781 223.247 L 429.071 218.194 M 431.101 232.193 L 429.071 218.194 M 449.085 231.044 L 429.071 218.194 M 431.101 232.193 L 449.085 231.044 M 431.101 232.193 L 446.553 251.16 M 429.005 247.066 L 446.553 251.16 M 429.005 247.066 L 437.894 270.742 M 422.353 261.609 L 437.894 270.742 M 449.085 231.044 L 446 212.024 M 466.932 228.57 L 446 212.024 M 466.932 228.57 L 463.369 207.234 M 484.244 223.592 L 463.369 207.234 M 484.244 223.592 L 481.238 204.96 M 484.244 223.592 L 501.186 217.454 M 507.388 230.703 L 501.186 217.454 M 481.238 204.96 L 463.369 207.234 M 481.238 204.96 L 463.088 186.51 M 481.238 204.96 L 481.094 186.878 M 463.088 186.51 L 463.369 207.234 M 481.094 186.878 L 463.088 186.51 M 465.619 166.723 L 463.088 186.51 M 481.094 186.878 L 465.619 166.723 M 481.094 186.878 L 483.413 169.552 M 483.413 169.552 L 465.619 166.723 M 470.505 148.043 L 465.619 166.723 M 483.413 169.552 L 470.505 148.043 M 483.413 169.552 L 487.798 153.068 M 487.798 153.068 L 470.505 148.043 M 477.254 130.517 L 470.505 148.043 M 487.798 153.068 L 477.254 130.517 M 493.894 137.417 L 477.254 130.517 M 487.798 153.068 L 493.894 137.417 M 505.429 156.757 L 493.894 137.417 M 505.429 156.757 L 509.943 145.587 M 501.362 171.083 L 487.798 153.068 M 501.362 171.083 L 504.693 159.315 M 422.353 261.609 L 423.002 287.845 M 410.994 274.404 L 423.002 287.845 M 431.101 232.193 L 429.005 247.066 M 402.383 300.361 L 423.002 287.845 M 410.736 316.318 L 423.002 287.845 M 340.264 122.846 L 335.149 114.646 M 442.085 199.011 L 419.936 193.961 M 442.085 199.011 L 434.43 183.262 M 410.736 316.318 L 433.89 302.196 M 421.49 330.773 L 433.89 302.196 M 421.49 330.773 L 442.321 318.129 M 433.436 344.256 L 442.321 318.129 M 449.404 334.69 L 442.321 318.129 M 449.404 334.69 L 464.367 313.17 M 466.037 331.104 L 464.367 313.17 M 421.49 330.773 L 433.436 344.256 M 421.49 330.773 L 420.261 360.014 M 420.261 360.014 L 433.436 344.256 M 421.49 330.773 L 404.599 351.112 M 408.373 318.422 L 404.599 351.112 M 408.373 318.422 L 389.835 340.781 M 393.394 308.421 L 389.835 340.781 M 393.394 308.421 L 376.93 328.211 M 393.394 308.421 L 377.7 299.579 M 384.55 282.543 L 377.7 299.579 M 433.436 344.256 L 449.404 334.69 M 466.037 331.104 L 485.389 315.122 M 481.659 332.739 L 485.389 315.122 M 376.93 328.211 L 389.835 340.781 M 376.93 328.211 L 365.825 360.661 M 376.93 328.211 L 355.69 345.766 M 365.825 360.661 L 389.835 340.781 M 378.265 373.697 L 389.835 340.781 M 378.265 373.697 L 400.437 355.351 M 391.962 385.406 L 400.437 355.351 M 391.962 385.406 L 409.529 370.903 M 355.69 345.766 L 365.825 360.661 M 336.22 376.254 L 365.825 360.661 M 355.69 345.766 L 336.22 376.254 M 355.69 345.766 L 329.575 359.513 M 344.667 331.527 L 329.575 359.513 M 344.667 331.527 L 323.861 342.422 M 329.575 359.513 L 336.22 376.254 M 301.646 385.397 L 336.22 376.254 M 329.575 359.513 L 301.646 385.397 M 329.575 359.513 L 299.113 367.571 M 322.075 343.128 L 299.113 367.571 M 322.075 343.128 L 297.388 349.633 M 299.113 367.571 L 301.646 385.397 M 263.783 385.932 L 301.646 385.397 M 299.113 367.571 L 263.783 385.932 M 299.113 367.571 L 265.818 368.032 M 295.897 349.84 L 265.818 368.032 M 295.897 349.84 L 268.435 350.212 M 294.971 331.856 L 268.435 350.212 M 294.971 331.856 L 268.791 332.197 M 297.05 313.961 L 268.791 332.197 M 297.05 313.961 L 266.298 314.355 M 294.971 331.856 L 297.05 313.961 M 324.363 320.473 L 297.05 313.961 M 294.971 331.856 L 324.363 320.473 M 294.971 331.856 L 318.146 337.388 M 331.438 303.899 L 297.05 313.961 M 331.438 303.899 L 298.314 295.985 M 318.146 337.388 L 324.363 320.473 M 347.005 331.861 L 324.363 320.473 M 357.672 317.338 L 324.363 320.473 M 357.672 317.338 L 329.643 303.243 M 318.146 337.388 L 347.005 331.861 M 318.146 337.388 L 337.261 347.008 M 299.811 296.154 L 266.298 314.355 M 299.811 296.154 L 263.212 296.6 M 404.882 397.954 L 409.529 370.903 M 404.882 397.954 L 419.697 385.773 M 266.298 314.355 L 268.791 332.197 M 266.298 314.355 L 241.676 339.845 M 241.676 339.845 L 268.791 332.197 M 266.298 314.355 L 234.51 323.321 M 246.229 357.278 L 268.791 332.197 M 246.229 357.278 L 274.094 349.417 M 248.397 375.165 L 274.094 349.417 M 248.397 375.165 L 281.687 365.75 M 246.229 357.278 L 248.397 375.165 M 246.229 357.278 L 213.336 374.044 M 246.229 357.278 L 216.575 356.321 M 246.638 339.265 L 216.575 356.321 M 246.638 339.265 L 217.247 338.318 M 249.787 321.532 L 217.247 338.318 M 213.336 374.044 L 248.397 375.165 M 249.787 321.532 L 215.262 320.41 M 216.575 356.321 L 213.336 374.044 M 216.575 356.321 L 180.599 363.023 M 216.575 356.321 L 188.698 346.934 M 180.599 363.023 L 213.336 374.044 M 188.698 346.934 L 180.599 363.023 M 188.698 346.934 L 153.383 344.312 M 188.698 346.934 L 165.484 330.973 M 153.383 344.312 L 180.599 363.023 M 165.484 330.973 L 153.383 344.312 M 133.419 320.918 L 153.383 344.312 M 165.484 330.973 L 133.419 320.918 M 165.484 330.973 L 148.49 311.053 M 148.49 311.053 L 133.419 320.918 M 120.962 295.741 L 133.419 320.918 M 103.699 300.919 L 133.419 320.918 M 103.699 300.919 L 118.803 331.45 M 87.1859 308.113 L 118.803 331.45 M 87.1859 308.113 L 103.047 340.169 M 72.0969 317.964 L 103.047 340.169 M 72.0969 317.964 L 86.0631 346.198 M 86.0631 346.198 L 103.047 340.169 M 111.122 377.16 L 103.047 340.169 M 86.0631 346.198 L 111.122 377.16 M 86.0631 346.198 L 93.1697 378.73 M 93.1697 378.73 L 111.122 377.16 M 109.273 416.574 L 111.122 377.16 M 93.1697 378.73 L 109.273 416.574 M 93.1697 378.73 L 91.5582 413.283 M 75.2668 380.736 L 91.5582 413.283 M 75.2668 380.736 L 73.9103 409.649 M 91.5582 413.283 L 109.273 416.574 M 96.4305 454.677 L 109.273 416.574 M 87.1859 308.113 L 72.0969 317.964 M 87.1859 308.113 L 53.4141 295.116 M 117.975 330.194 L 153.383 344.312 M 117.975 330.194 L 141.716 358.046 M 222.41 339.276 L 188.698 346.934 M 222.41 339.276 L 194.288 329.801 M 230.648 323.252 L 194.288 329.801 M 230.648 323.252 L 197.405 312.055 M 148.49 311.053 L 120.962 295.741 M 148.49 311.053 L 137.932 289.696 M 137.932 289.696 L 120.962 295.741 M 230.648 323.252 L 238.799 307.184 M 271.368 330.327 L 238.799 307.184 M 53.4141 295.116 L 72.0969 317.964 M 115.245 271.054 L 120.962 295.741 M 97.2654 272.159 L 120.962 295.741 M 87.1859 308.113 L 65.9931 282.218 M 100.427 295.902 L 65.9931 282.218 M 69.3302 352.874 L 93.1697 378.73 M 69.3302 352.874 L 75.1811 379.703 M 65.9931 282.218 L 53.4141 295.116 M 65.9931 282.218 L 31.9722 277.814 M 140.947 357.353 L 180.599 363.023 M 140.947 357.353 L 172.809 379.27 M 249.787 321.532 L 253.12 303.827 M 289.565 316.717 L 253.12 303.827 M 250.916 393.001 L 281.687 365.75 M 250.916 393.001 L 288.876 382.269 M 503.73 322.784 L 485.389 315.122 M 511.32 306.448 L 485.389 315.122 M 222.836 135.897 L 216.058 146.077 M 172.331 379.032 L 213.336 374.044 M 172.331 379.032 L 210.187 391.785 M 466.037 331.104 L 481.659 332.739 M 255.064 71.2583 L 237.394 74.7695 M 232.763 59.7626 L 237.394 74.7695 M 308.88 71.0933 L 290.949 69.3594 M 308.88 71.0933 L 296.929 48.8 M 313.535 55.7855 L 296.929 48.8 M 313.535 55.7855 L 309.407 29.8631 M 323.069 41.5963 L 309.407 29.8631 M 323.069 41.5963 L 328.167 14.7186 M 337.442 30.1588 L 328.167 14.7186 M 363.18 316.572 L 355.69 345.766 M 363.18 316.572 L 346.525 330.265 M 422.353 261.609 L 410.994 274.404 M 308.88 71.0933 L 313.535 55.7855 M 308.88 71.0933 L 326.644 74.0745 M 324.715 86.1224 L 326.644 74.0745 M 31.9722 277.814 L 53.4141 295.116 M 31.9722 277.814 L 23.2916 293.598 M 210.193 391.786 L 248.397 375.165 M 210.193 391.786 L 250.389 393.068 M 251.451 50.4542 L 255.064 71.2583 M 251.451 50.4542 L 234.573 56.7802 M 449.404 334.69 L 466.037 331.104 M 376.93 328.211 L 363.18 316.572 M 373.71 299.75 L 363.18 316.572 M 429.005 247.066 L 422.353 261.609 M 446.553 251.16 L 449.085 231.044 M 464.36 253.915 L 449.085 231.044 M 137.932 289.696 L 115.245 271.054 M 137.932 289.696 L 133.126 268.849 M 133.126 268.849 L 115.245 271.054 M 114.979 248.267 L 115.245 271.054 M 97.1614 245.62 L 115.245 271.054 M 114.979 248.267 L 97.1614 245.62 M 114.979 248.267 L 105.592 220.561 M 121.594 228.83 L 105.592 220.561 M 121.594 228.83 L 120.482 201.271 M 133.069 214.166 L 120.482 201.271 M 65.9931 282.218 L 41.7179 262.665 M 76.2693 267.422 L 41.7179 262.665 M 485.406 114.094 L 477.254 130.517 M 41.7179 262.665 L 31.9722 277.814 M 41.7179 262.665 L 9.28405 265.634 M 406.249 175.31 L 398.504 167.976 M 53.4141 295.116 L 41.6386 308.763 M 23.3381 297.375 L 41.6386 308.763 M 423.002 287.845 L 437.894 270.742 M 435.994 300.323 L 437.894 270.742 M 57.525 328.55 L 86.0631 346.198 M 57.525 328.55 L 68.8276 351.442 M 431.101 232.193 L 413.087 232.146 M 413.147 220.749 L 413.087 232.146 M 464.367 313.17 L 442.321 318.129 M 461.362 295.402 L 442.321 318.129 M 485.389 315.122 L 464.367 313.17 M 487.886 297.282 L 464.367 313.17 M 481.238 204.96 L 498.925 201.483 M 502.655 214.724 L 498.925 201.483 M 268.742 45.4022 L 251.451 50.4542 M 268.742 45.4022 L 243.966 29.1306 M 437.894 270.742 L 446.553 251.16 M 454.08 278.63 L 446.553 251.16 M 499.094 185.998 L 483.413 169.552 M 499.094 185.998 L 500.974 173.567 M 234.459 107.715 L 246.974 127.056 M 234.459 107.715 L 230.334 120.138 M 387.242 182.032 L 393.752 188.286 M 374.245 194.504 L 393.752 188.286 M 374.245 194.504 L 383.008 202.758 M 360.691 206.366 L 383.008 202.758 M 374.245 194.504 L 360.691 206.366 M 374.245 194.504 L 351.548 192.386 M 367.646 184.275 L 351.548 192.386 M 367.646 184.275 L 345.955 176.498 M 363.522 172.509 L 345.955 176.498 M 360.691 206.366 L 372.945 217.693 M 360.691 206.366 L 348.18 219.34 M 363.522 172.509 L 344.153 159.542 M 362.17 159.684 L 344.153 159.542 M 433.436 344.256 L 444.348 358.584 M 431.403 369.956 L 444.348 358.584 M 293.231 103.972 L 314.652 112.903 M 293.231 103.972 L 298.799 121.46 M 226.764 41.6635 L 234.573 56.7802 M 230.237 157.183 L 233.389 181.89 M 219.658 170.23 L 233.389 181.89 M 4.70095 286.657 L 23.2916 293.598 M 313.535 55.7855 L 323.069 41.5963 M 313.535 55.7855 L 329.572 63.9947 M 323.803 75.8085 L 329.572 63.9947 M 114.979 248.267 L 121.594 228.83 M 114.979 248.267 L 132.568 252.154 M 130.1 271.164 L 132.568 252.154 M 233.389 181.89 L 245.174 167.263 M 326.406 134.364 L 333.649 142.994 M 498.925 201.483 L 481.094 186.878 M 498.925 201.483 L 499.051 188.403 M 105.592 220.561 L 97.1614 245.62 M 88.9067 213.784 L 97.1614 245.62 M 323.069 41.5963 L 337.442 30.1588 M 121.594 228.83 L 133.069 214.166 M 309.407 29.8631 L 296.929 48.8 M 294.872 19.2197 L 296.929 48.8 M 230.237 157.183 L 219.658 170.23 M 214.568 148.302 L 219.658 170.23 M 206.844 157.551 L 219.658 170.23 M 206.844 157.551 L 206.234 180.144 M 197.108 164.611 L 206.234 180.144 M 197.108 164.611 L 190.792 186.5 M 185.821 169.18 L 190.792 186.5 M 185.821 169.18 L 174.135 189.025 M 173.493 171.02 L 174.135 189.025 M 435.776 185.381 L 413.502 183.934 M 435.776 185.381 L 426.492 171.454 M 328.167 14.7186 L 309.407 29.8631 M 317.783 0 L 309.407 29.8631 M 120.482 201.271 L 105.592 220.561 M 106.877 189.451 L 105.592 220.561 M 41.6386 308.763 L 72.0969 317.964 M 41.6386 308.763 L 56.4922 326.958 M 121.594 228.83 L 136.939 238.269 M 128.937 253.538 L 136.939 238.269 M 406.249 175.31 L 419.776 163.403 M 428.195 177.029 L 419.776 163.403 M 237.215 91.7962 L 252.357 109.8 M 237.215 91.7962 L 234.895 105.355 M 255.219 91.1318 L 237.215 91.7962 M 235.379 77.2817 L 237.215 91.7962 M 346.151 130.03 L 340.264 122.846 M 360.258 118.834 L 340.264 122.846 M 429.005 247.066 L 411.8 241.758 M 415.32 230.074 L 411.8 241.758 M 326.406 134.364 L 311.702 144.786 M 304.567 129.641 L 311.702 144.786 M 323.069 41.5963 L 335.731 54.4139 M 325.898 64.7474 L 335.731 54.4139 M 449.404 334.69 L 455.223 351.751 M 440.696 357.508 L 455.223 351.751 M 335.886 206.261 L 348.18 219.34 M 335.886 206.261 L 324.135 219.914 M 398.504 167.976 L 390.527 161.749 M 398.504 167.976 L 410.988 154.982 M 420.247 167.183 L 410.988 154.982 M 351.548 192.386 L 360.691 206.366 M 351.548 192.386 L 336.284 201.94 M 374.245 194.504 L 367.646 184.275 M 388.23 183.152 L 367.646 184.275 M 383.467 175.659 L 367.646 184.275 M 383.467 175.659 L 362.875 172.756 M 380.099 167.451 L 362.875 172.756 M 380.099 167.451 L 360.436 160.093 M 378.392 158.608 L 360.436 160.093 M 378.392 158.608 L 360.893 146.678 M 378.707 149.343 L 360.893 146.678 M 378.707 149.343 L 364.717 133.192 M 381.364 140.073 L 364.717 133.192 M 381.364 140.073 L 372.176 120.568 M 386.581 131.399 L 372.176 120.568 M 219.658 170.23 L 220.607 195.015 M 207.989 182.159 L 220.607 195.015 M 297.802 119.277 L 319.958 124.335 M 297.802 119.277 L 305.457 135.026 M 346.151 130.03 L 360.258 118.834 M 346.151 130.03 L 366.59 129.059 M 350.82 137.752 L 366.59 129.059 M 350.82 137.752 L 371.259 140.306 M 354.158 145.979 L 371.259 140.306 M 354.158 145.979 L 373.908 152.485 M 356.011 154.657 L 373.908 152.485 M 356.011 154.657 L 374.054 165.379 M 356.118 163.659 L 374.054 165.379 M 356.118 163.659 L 371.216 178.498 M 354.159 172.718 L 371.216 178.498 M 354.159 172.718 L 365.053 191.087 M 349.884 181.366 L 365.053 191.087 M 355.465 202.182 L 365.053 191.087 M 233.389 181.89 L 248.542 191.631 M 362.17 159.684 L 346.187 142.347 M 363.759 146.355 L 346.187 142.347 M 220.607 195.015 L 233.389 181.89 M 220.607 195.015 L 234.766 206.153 M 226.764 41.6635 L 211.828 51.751 M 202.474 39.233 L 211.828 51.751 M 422.353 261.609 L 407.547 251.351 M 414.851 240.416 L 407.547 251.351 M 333.649 142.994 L 341.401 150.329 M 333.649 142.994 L 320.109 154.876 M 311.698 141.245 L 320.109 154.876 M 466.037 331.104 L 466.346 349.117 M 452.094 349.781 L 466.346 349.117 M 173.493 171.02 L 157.142 187.618 M 160.643 169.944 L 157.142 187.618 M 327.366 186.757 L 336.284 201.94 M 327.366 186.757 L 312.892 197.492 M 345.955 176.498 L 351.548 192.386 M 345.955 176.498 L 328.884 182.247 M 207.989 182.159 L 207.188 206.948 M 195.495 193.24 L 207.188 206.948 M 207.188 206.948 L 220.607 195.015 M 207.188 206.948 L 220.512 219.079 M 345.955 176.498 L 323.535 165.776 M 340.692 160.279 L 323.535 165.776 M 195.495 193.24 L 193.461 217.992 M 182.366 203.797 L 193.461 217.992" />
</svg>
