<?xml version="1.0"?>
<svg width="479" height="471" version="1.1" xmlns="http://www.w3.org/2000/svg" >
<defs>
<style type="text/css"><![CDATA[
.m {stroke:rgb(255,0,0);stroke-width:0.598750;}
.v {stroke:rgb(0,0,255);stroke-width:0.598750;}
.b {stroke:rgb(0,0,0);stroke-width:1.197500;fill:white}
.n {stroke:rgb(128,128,128);stroke-width:0.598750}
.t {stroke:rgb(0,128,0);stroke-width:0.598750;}
.c {stroke:rgb(128,128,128);stroke-width:0.598750;stroke-dasharray:4.790000, 4.790000;}
]]></style>
</defs>
<path fill="none" style="stroke:black;stroke-width:1.197500;" d=" M 156.635 202.285 L 138.791 204.711 M 138.791 204.711 L 160.316 223.378 M 120.794 230.681 L 137.722 236.856 M 137.722 236.856 L 131.232 209.114 M 114.263 203.067 L 96.8823 198.294 M 89.8198 212.322 L 104.99 222.038 M 96.8823 198.294 L 79.9251 192.215 M 79.9251 192.215 L 89.8198 212.322 M 194.442 211.897 L 212.285 209.388 M 212.285 209.388 L 192.482 198.897 M 174.62 201.247 L 156.635 202.285 M 160.316 223.378 L 177.179 217.041 M 156.501 182.254 L 138.494 181.747 M 138.494 181.747 L 156.985 204.927 M 131.232 209.114 L 148.928 212.447 M 148.928 212.447 L 138.419 184.72 M 120.704 181.405 L 102.784 179.51 M 97.7811 195.772 L 114.263 203.067 M 102.784 179.51 L 85.0557 176.26 M 85.0557 176.26 L 97.7811 195.772 M 192.482 198.897 L 210.491 199.334 M 210.491 199.334 L 192.421 184.632 M 174.41 184.153 L 156.501 182.254 M 156.985 204.927 L 174.62 201.247 M 159.476 161.232 L 141.793 157.804 M 138.419 184.72 L 156.429 185.149 M 103.324 176.647 L 120.704 181.405 M 105.806 158.193 L 87.7949 157.811 M 87.7949 157.811 L 103.324 176.647 M 192.421 184.632 L 210.131 187.979 M 210.131 187.979 L 194.587 169.156 M 176.859 165.949 L 159.476 161.232 M 156.429 185.149 L 174.41 184.153 M 159.648 155.425 L 158.908 129.685 M 158.908 129.685 L 140.917 128.781 M 141.793 157.804 L 159.648 155.425 M 105.381 134.502 L 123.792 157.233 M 123.792 157.233 L 101.682 138.08 M 101.682 138.08 L 84.5426 143.623 M 84.5426 143.623 L 105.806 158.193 M 194.587 169.156 L 211.544 175.242 M 211.544 175.242 L 199.281 152.569 M 158.918 164.36 L 176.859 165.949 M 165.733 139.527 L 158.918 164.36 M 464.509 93.9221 L 447.696 115.749 M 460.874 128.034 L 479.875 103.324 M 479.875 103.324 L 464.509 93.9221 M 140.917 128.781 L 135.512 98.0825 M 101.098 108.586 L 123.01 130.806 M 123.01 130.806 L 97.2292 113.221 M 81.2223 121.49 L 105.381 134.502 M 192.163 155.896 L 203.389 169.985 M 203.389 169.985 L 206.043 142.674 M 194.313 129.01 L 192.163 155.896 M 190.658 127.012 L 182.197 146.836 M 199.281 152.569 L 190.658 127.012 M 182.197 146.836 L 194.313 129.01 M 181.152 116.694 L 165.733 139.527 M 447.696 115.749 L 425.275 134.942 M 435.463 149.805 L 460.874 128.034 M 135.512 98.0825 L 125.545 66.1394 M 108.698 72.5109 L 118.037 102.457 M 388.085 304.583 L 387.993 273.215 M 370.238 276.314 L 388.085 304.583 M 118.037 102.457 L 88.6543 86.5101 M 74.076 97.0933 L 101.098 108.586 M 97.2292 113.221 L 69.4848 103.603 M 53.9471 112.714 L 81.2223 121.49 M 206.043 142.674 L 213.092 114.902 M 204.735 98.9474 L 181.152 116.694 M 425.275 134.942 L 397.363 149.541 M 403.773 166.385 L 435.463 149.805 M 125.545 66.1394 L 111.283 33.3406 M 95.1171 41.2724 L 108.698 72.5109 M 387.993 273.215 L 376.606 241.111 M 360.847 249.841 L 370.238 276.314 M 375.217 273.593 L 362.199 248.702 M 347.353 258.903 L 375.217 273.593 M 57.9273 79.5779 L 74.076 97.0933 M 88.6543 86.5101 L 57.9273 79.5779 M 405.146 105.765 L 382.989 114.517 M 388.866 131.548 L 405.146 105.765 M 42.1598 90.0682 L 53.9471 112.714 M 69.4848 103.603 L 42.1598 90.0682 M 397.363 149.541 L 411.867 119.284 M 411.867 119.284 L 390.311 132.963 M 213.092 114.902 L 234.698 89.2294 M 234.698 89.2294 L 204.735 98.9474 M 366.974 175.292 L 403.773 166.385 M 111.283 33.3406 L 93.34 0 M 93.34 0 L 77.7605 9.05243 M 77.7605 9.05243 L 95.1171 41.2724 M 376.606 241.111 L 353.855 212.445 M 341.715 225.762 L 360.847 249.841 M 362.199 248.702 L 341.715 225.762 M 316.085 250.908 L 347.353 258.903 M 382.989 114.517 L 362.59 139.526 M 365 157.38 L 388.866 131.548 M 390.311 132.963 L 365 157.38 M 327.529 174.332 L 366.974 175.292 M 364.096 197.619 L 331.093 175.994 M 331.093 175.994 L 321.51 191.249 M 353.855 212.445 L 364.096 197.619 M 321.51 191.249 L 314.086 207.666 M 296.182 238.812 L 329.916 239.369 M 329.916 239.369 L 298.058 228.262 M 298.058 228.262 L 282.387 237.153 M 282.387 237.153 L 316.085 250.908 M 362.59 139.526 L 330.418 156.548 M 283.939 161.559 L 315.123 133.905 M 330.418 156.548 L 289.145 162.352 M 289.145 162.352 L 283.86 179.575 M 321.992 191.476 L 327.529 174.332 M 283.86 179.575 L 281.109 197.382 M 314.086 207.666 L 321.992 191.476 M 278.269 215.173 L 272.818 232.345 M 272.818 232.345 L 306.349 223.932 M 306.349 223.932 L 271.842 221.835 M 271.842 221.835 L 259.444 234.908 M 259.444 234.908 L 296.182 238.812 M 315.123 133.905 L 307.539 117.561 M 307.539 117.561 L 281.445 143.715 M 243.986 161.181 L 243.639 179.195 M 283.854 179.575 L 283.939 161.559 M 243.639 179.195 L 246.033 197.048 M 281.109 197.382 L 283.854 179.575 M 248.601 214.882 L 248.596 232.9 M 278.002 233.187 L 278.269 215.173 M 248.596 232.9 L 245.846 250.699 M 245.846 250.699 L 278.002 233.187 M 281.445 143.715 L 279.041 125.859 M 279.041 125.859 L 246.904 143.403 M 207.249 149.148 L 201.221 166.117 M 238.706 178.407 L 243.986 161.181 M 201.221 166.117 L 197.963 183.835 M 197.963 183.835 L 238.706 178.407 M 246.033 197.048 L 243.114 179.273 M 243.114 179.273 L 212.962 207.207 M 220.919 223.366 L 226.607 240.462 M 253.544 232.209 L 248.601 214.882 M 226.607 240.462 L 229.5 258.244 M 229.5 258.244 L 253.544 232.209 M 246.904 143.403 L 250.161 125.689 M 250.161 125.689 L 215.513 133.133 M 177.81 127.399 L 166.561 141.475 M 197.022 163.97 L 207.249 149.148 M 166.561 141.475 L 157.786 157.197 M 157.786 157.197 L 197.022 163.97 M 212.962 207.207 L 204.48 191.314 M 204.48 191.314 L 185.808 226.481 M 198.518 239.255 L 209.485 253.538 M 230.848 238.401 L 220.919 223.366 M 209.485 253.538 L 217.928 269.452 M 217.928 269.452 L 230.848 238.401 M 215.513 133.133 L 224.302 117.407 M 224.302 117.407 L 190.766 114.874 M 158.462 99.3724 L 143.152 108.864 M 163.463 138.299 L 177.81 127.399 M 143.152 108.864 L 129.65 120.785 M 129.65 120.785 L 163.463 138.299 M 185.808 226.481 L 172.544 214.304 M 172.544 214.304 L 167.366 252.03 M 183.557 259.942 L 198.68 269.73 M 198.68 269.73 L 212.644 250.424 M 212.644 250.424 L 198.518 239.255 M 190.733 83.3479 L 174.803 91.7742 M 204.273 102.954 L 190.733 83.3479 M 190.766 114.874 L 204.273 102.954 M 150.194 69.1076 L 132.57 72.8583 M 132.57 72.8583 L 158.462 99.3724 M 146.446 246.307 L 128.539 244.348 M 128.539 244.348 L 140.864 279.298 M 158.852 280.288 L 146.446 246.307 M 167.366 252.03 L 150.772 245.027 M 150.772 245.027 L 158.852 280.288 M 176.734 282.415 L 194.283 286.508 M 194.283 286.508 L 200.509 266.036 M 200.509 266.036 L 183.557 259.942 M 185.903 64.4389 L 168.125 67.3249 M 191.536 85.0826 L 185.903 64.4389 M 174.803 91.7742 L 191.536 85.0826 M 152.297 40.4066 L 134.443 37.9749 M 134.443 37.9749 L 150.194 69.1076 M 137.081 282.225 L 119.618 286.669 M 119.618 286.669 L 142.623 312.901 M 159.907 307.823 L 137.081 282.225 M 140.864 279.298 L 159.907 307.823 M 177.504 303.963 L 195.399 301.897 M 195.399 301.897 L 194.751 282.729 M 194.751 282.729 L 176.734 282.415 M 187.586 47.5596 L 169.816 44.6071 M 186.125 66.6829 L 187.586 47.5596 M 168.125 67.3249 L 186.125 66.6829 M 235.568 305.807 L 210.727 290.332 M 169.816 44.6071 L 162.873 16.1759 M 162.873 16.1759 L 146.841 7.95571 M 146.841 7.95571 L 152.297 40.4066 M 140.087 317.06 L 125.187 327.192 M 125.187 327.192 L 154.405 342.33 M 169.074 331.879 L 140.087 317.06 M 142.623 312.901 L 169.074 331.879 M 184.479 322.542 L 200.671 314.642 M 194.667 298.491 L 177.504 303.963 M 200.671 314.642 L 217.95 309.56 M 210.727 290.332 L 194.667 298.491 M 322.4 465.687 L 349.431 460.125 M 217.95 309.56 L 236.309 330.164 M 236.309 330.164 L 254.328 330.676 M 254.328 330.676 L 235.568 305.807 M 153.482 347.088 L 142.754 361.563 M 142.754 361.563 L 173.695 365.171 M 184.285 350.598 L 153.482 347.088 M 154.405 342.33 L 184.285 350.598 M 195.963 336.87 L 208.73 324.162 M 208.73 324.162 L 184.479 322.542 M 356.264 443.46 L 365.614 428.06 M 365.614 428.06 L 342.6 435.877 M 342.6 435.877 L 333.097 451.195 M 349.431 460.125 L 356.264 443.46 M 306.964 449.184 L 293.162 460.77 M 293.162 460.77 L 322.4 465.687 M 173.695 365.171 L 165.446 381.198 M 165.446 381.198 L 195.016 379.026 M 195.016 379.026 L 203.259 363.019 M 210.188 346.377 L 218.33 330.31 M 218.33 330.31 L 195.963 336.87 M 344.866 437.54 L 358.568 425.848 M 358.568 425.848 L 335.286 426.967 M 335.286 426.967 L 321.585 438.666 M 333.097 451.195 L 344.866 437.54 M 298.006 430.067 L 281.357 436.943 M 281.357 436.943 L 306.964 449.184 M 197.653 380.129 L 194.632 397.895 M 194.632 397.895 L 220.7 386.669 M 220.7 386.669 L 223.839 368.926 M 203.259 363.019 L 197.653 380.129 M 225.502 350.983 L 228.414 333.216 M 228.414 333.216 L 210.188 346.377 M 336.964 429.282 L 353.558 422.276 M 353.558 422.276 L 331.645 417.255 M 331.645 417.255 L 315.088 424.366 M 321.585 438.666 L 336.964 429.282 M 295.331 410.371 L 277.4 412.094 M 277.4 412.094 L 298.006 430.067 M 223.539 386.942 L 225.849 404.807 M 225.849 404.807 L 246.234 386.583 M 246.234 386.583 L 244.113 368.691 M 223.839 368.926 L 223.539 386.942 M 240.522 351.032 L 238.112 333.179 M 238.112 333.179 L 225.502 350.983 M 332.565 419.979 L 350.477 418.161 M 350.477 418.161 L 331.252 407.847 M 331.252 407.847 L 313.343 409.842 M 315.088 424.366 L 332.565 419.979 M 298.306 391.734 L 280.622 388.303 M 280.622 388.303 L 295.331 410.371 M 248.997 386.033 L 256.29 402.505 M 256.29 402.505 L 269.648 379.594 M 269.648 379.594 L 262.534 363.041 M 244.113 368.691 L 248.997 386.033 M 254.113 347.112 L 246.75 330.672 M 246.75 330.672 L 240.522 351.032 M 331.344 410.655 L 349.048 413.985 M 349.048 413.985 L 333.481 399.461 M 333.481 399.461 L 315.744 396.297 M 313.343 409.842 L 331.344 410.655 M 306.041 375.39 L 289.989 367.225 M 289.989 367.225 L 298.306 391.734 M 272.055 378.337 L 283.603 392.162 M 283.603 392.162 L 289.36 366.929 M 289.36 366.929 L 277.903 353.024 M 262.534 363.041 L 272.055 378.337 M 265.434 340.034 L 253.836 326.248 M 253.836 326.248 L 254.113 347.112 M 332.809 402.076 L 348.921 410.131 M 348.921 410.131 L 337.703 392.538 M 337.703 392.538 L 321.547 384.575 M 315.744 396.297 L 332.809 402.076 M 317.524 362.21 L 304.234 350.043 M 291.219 365.16 L 306.041 375.39 M 304.234 350.043 L 289.399 339.815 M 277.903 353.024 L 291.219 365.16 M 273.881 330.665 L 259.01 320.495 M 259.01 320.495 L 265.434 340.034 M 336.39 394.777 L 349.718 406.899 M 349.718 406.899 L 343.299 387.359 M 343.299 387.359 L 329.966 375.237 M 321.547 384.575 L 336.39 394.777 M 331.721 352.754 L 322.084 337.542 M 306.057 348.312 L 317.524 362.21 M 322.084 337.542 L 310.488 323.754 M 310.488 323.754 L 306.057 348.312 M 289.399 339.815 L 305.459 347.987 M 305.459 347.987 L 296.546 324.679 M 279.155 319.983 L 262.141 314.056 M 257.74 322.661 L 273.881 330.665 M 262.141 314.056 L 246.092 305.87 M 246.092 305.87 L 257.74 322.661 M 329.966 375.237 L 341.583 389.012 M 341.583 389.012 L 340.252 368.62 M 347.621 347.34 L 342.185 330.166 M 324.431 336.288 L 331.721 352.754 M 342.185 330.166 L 334.531 313.859 M 334.531 313.859 L 324.431 336.288 M 296.546 324.679 L 314.169 328.419 M 314.169 328.419 L 299.217 308.887 M 281.196 308.901 L 263.234 307.512 M 261.453 316.626 L 279.155 319.983 M 263.234 307.512 L 245.606 303.757 M 245.606 303.757 L 261.453 316.626 M 340.252 368.62 L 347.892 384.935 M 347.892 384.935 L 351.705 364.88 M 364.261 346.081 L 363.281 328.084 M 345.002 329.518 L 347.621 347.34 M 363.281 328.084 L 359.961 310.372 M 359.961 310.372 L 345.002 329.518 M 299.217 308.887 L 317.211 308.043 M 317.211 308.043 L 297.636 293.652 M 280.22 298.279 L 262.482 301.402 M 263.243 310.397 L 281.196 308.901 M 262.482 301.402 L 244.487 302.19 M 244.487 302.19 L 263.243 310.397 M 351.705 364.88 L 354.986 382.603 M 354.986 382.603 L 363.717 364.085 M 380.725 348.906 L 384.123 331.222 M 366.432 328.189 L 364.261 346.081 M 384.123 331.222 L 385.279 313.246 M 385.279 313.246 L 366.432 328.189 M 297.636 293.652 L 314.87 288.387 M 314.87 288.387 L 292.335 279.98 M 276.634 288.816 L 260.172 296.138 M 263.298 304.448 L 280.22 298.279 M 260.172 296.138 L 242.921 301.328 M 242.921 301.328 L 263.298 304.448 M 363.717 364.085 L 362.505 382.056 M 362.505 382.056 L 375.701 366.218 M 387.434 332.195 L 380.725 348.906 M 403.583 339.215 L 408.959 322.015 M 408.959 322.015 L 387.434 332.195 M 292.335 279.98 L 307.822 270.781 M 307.822 270.781 L 284.109 268.631 M 271.002 280.983 L 256.692 291.926 M 261.865 299.134 L 276.634 288.816 M 256.692 291.926 L 241.159 301.067 M 241.159 301.067 L 261.865 299.134 M 375.701 366.218 L 370.273 383.396 M 370.273 383.396 L 387.125 371.211 M 420.671 351.484 L 396.168 355.631 M 396.168 355.631 L 419.288 346.515 M 419.288 346.515 L 425.029 329.437 M 425.029 329.437 L 403.583 339.215 M 284.109 268.631 L 297.113 256.156 M 297.113 256.156 L 273.854 259.971 M 263.921 275.003 L 252.387 288.842 M 259.268 294.652 L 271.002 280.983 M 252.387 288.842 L 239.344 301.272 M 239.344 301.272 L 259.268 294.652 M 387.125 371.211 L 377.928 386.71 M 377.928 386.71 L 397.438 378.955 M 434.628 367.253 L 409.811 365.858 M 409.811 365.858 L 434.318 361.707 M 434.318 361.707 L 443.344 346.114 M 443.344 346.114 L 420.671 351.484 M 273.854 259.971 L 283.865 244.99 M 283.865 244.99 L 262.399 254.05 M 255.921 270.875 L 247.52 286.808 M 247.52 286.808 L 255.757 291.062 M 255.757 291.062 L 263.921 275.003 M 391.134 399.194 L 406.116 389.195 M 385.14 392.122 L 391.134 399.194 M 397.438 378.955 L 385.14 392.122 M 444.963 385.647 L 421.018 379.058 M 421.018 379.058 L 445.841 379.827 M 457.634 366.203 L 434.628 367.253 M 262.399 254.05 L 269.192 237.363 M 269.192 237.363 L 250.4 250.677 M 242.226 285.697 L 251.5 288.336 M 251.5 288.336 L 255.921 270.875 M 391.43 399.624 L 395.941 408.147 M 406.116 389.195 L 391.43 399.624 M 412.709 401.565 L 416.887 415.621 M 451.467 405.769 L 429.325 394.595 M 429.325 394.595 L 453.536 399.978 M 467.546 388.653 L 444.963 385.647 M 467.627 373.162 L 457.634 366.203 M 445.841 379.827 L 467.627 373.162 M 250.4 250.677 L 238.277 249.523 M 238.556 267.528 L 247.388 268.44 M 247.388 268.44 L 239.05 265.39 M 232.707 282.252 L 242.226 285.697 M 395.941 408.147 L 398.194 418.015 M 416.085 415.835 L 412.709 401.565 M 416.887 415.621 L 418.48 430.86 M 454.207 426.842 L 434.49 411.794 M 457.367 421.379 L 451.467 405.769 M 434.49 411.794 L 457.367 421.379 M 0 250.475 L 14.2706 259.126 M 21.1303 242.456 L 0 250.475 M 475.97 397.237 L 467.546 388.653 M 453.536 399.978 L 475.97 397.237 M 238.277 249.523 L 226.277 250.319 M 229.547 268.03 L 238.556 267.528 M 239.05 265.39 L 230.916 261.483 M 223.06 277.689 L 232.707 282.252 M 398.194 418.015 L 397.716 428.676 M 415.559 431.148 L 416.085 415.835 M 35.2358 317.994 L 49.0804 309.939 M 40.6835 294.005 L 35.2358 317.994 M 418.48 430.86 L 435.357 448.757 M 453.371 448.305 L 436.473 430.007 M 457.532 443.307 L 454.207 426.842 M 436.473 430.007 L 457.532 443.307 M 14.2706 259.126 L 30.3581 263.955 M 32.62 246.086 L 21.1303 242.456 M 226.277 250.319 L 214.496 252.85 M 220.44 269.858 L 229.547 268.03 M 230.916 261.483 L 223.089 256.483 M 213.495 271.736 L 223.06 277.689 M 397.716 428.676 L 394.164 439.368 M 410.748 446.425 L 415.559 431.148 M 55.5852 311.654 L 68.9889 301.623 M 58.6363 286.884 L 55.5852 311.654 M 49.0804 309.939 L 58.6363 286.884 M 50.3754 270.872 L 40.6835 294.005 M 454.176 465.337 L 453.371 448.305 M 435.357 448.757 L 454.176 465.337 M 30.3581 263.955 L 47.4003 264.516 M 44.8357 246.683 L 32.62 246.086 M 214.496 252.85 L 203.006 257.039 M 211.308 273.023 L 220.44 269.858 M 223.089 256.483 L 215.679 250.277 M 204.25 264.207 L 213.495 271.736 M 394.164 439.368 L 387.481 449.242 M 401.592 460.442 L 410.748 446.425 M 75.8933 302.633 L 88.3918 290.369 M 76.0861 277.218 L 75.8933 302.633 M 68.9889 301.623 L 76.0861 277.218 M 65.7184 262.491 L 50.3754 270.872 M 47.4003 264.516 L 64.4084 260.47 M 57.1118 243.994 L 44.8357 246.683 M 203.006 257.039 L 191.87 262.864 M 202.257 277.585 L 211.308 273.023 M 215.679 250.277 L 208.887 242.753 M 195.655 254.988 L 204.25 264.207 M 95.6721 290.535 L 107.026 310.222 M 107.026 310.222 L 111.802 298.559 M 387.481 449.242 L 388.394 471.95 M 388.394 471.95 L 401.592 460.442 M 92.6188 264.734 L 95.6721 290.535 M 88.3918 290.369 L 92.6188 264.734 M 80.198 251.67 L 65.7184 262.491 M 64.4084 260.47 L 80.198 251.67 M 68.6598 237.83 L 57.1118 243.994 M 191.87 262.864 L 181.162 270.392 M 181.162 270.392 L 193.393 283.621 M 193.393 283.621 L 202.257 277.585 M 208.887 242.753 L 202.913 233.848 M 172.519 253.154 L 195.655 254.988 M 111.802 298.559 L 106.753 275.906 M 166.021 235.023 L 148.921 240.704 M 148.921 240.704 L 172.519 253.154 M 106.753 275.906 L 107.716 249.242 M 93.4627 238.227 L 78.4891 228.208 M 78.4891 228.208 L 68.6598 237.83 M 219.078 225.892 L 212.996 213.554 M 212.996 213.554 L 198.014 223.564 M 202.913 233.848 L 219.078 225.892 M 165.025 238.009 L 188.049 244.024 M 188.049 244.024 L 166.021 235.023 M 161.176 218.104 L 143.394 221.011 M 143.394 221.011 L 165.025 238.009 M 107.716 249.242 L 123.426 258.066 M 123.426 258.066 L 120.794 230.681 M 104.99 222.038 L 88.6188 214.521 M 79.9524 226.308 L 93.4627 238.227 M 88.6188 214.521 L 72.8668 205.772 M 72.8668 205.772 L 79.9524 226.308 M 198.014 223.564 L 215.224 218.226 M 215.224 218.226 L 194.442 211.897 M 177.179 217.041 L 159.597 220.963 M 159.597 220.963 L 181.768 231.345 M 181.768 231.345 L 161.176 218.104" />
<path fill="none" class="c" d=" M 160.316 223.378 L 156.635 202.285 M 177.179 217.041 L 156.635 202.285 M 177.179 217.041 L 174.62 201.247 M 194.442 211.897 L 174.62 201.247 M 177.179 217.041 L 194.442 211.897 M 177.179 217.041 L 198.014 223.564 M 181.768 231.345 L 198.014 223.564 M 192.482 198.897 L 174.62 201.247 M 174.41 184.153 L 174.62 201.247 M 192.482 198.897 L 174.41 184.153 M 192.482 198.897 L 192.421 184.632 M 192.421 184.632 L 174.41 184.153 M 194.442 211.897 L 192.482 198.897 M 181.768 231.345 L 202.913 233.848 M 188.049 244.024 L 202.913 233.848 M 188.049 244.024 L 208.887 242.753 M 195.655 254.988 L 208.887 242.753 M 195.655 254.988 L 215.679 250.277 M 176.859 165.949 L 174.41 184.153 M 159.476 161.232 L 174.41 184.153 M 204.25 264.207 L 215.679 250.277 M 204.25 264.207 L 223.089 256.483 M 159.476 161.232 L 156.429 185.149 M 141.793 157.804 L 156.429 185.149 M 141.793 157.804 L 138.419 184.72 M 123.792 157.233 L 138.419 184.72 M 120.704 181.405 L 138.419 184.72 M 120.704 181.405 L 131.232 209.114 M 120.704 181.405 L 114.263 203.067 M 131.232 209.114 L 138.419 184.72 M 114.263 203.067 L 131.232 209.114 M 120.794 230.681 L 131.232 209.114 M 114.263 203.067 L 120.794 230.681 M 104.99 222.038 L 120.794 230.681 M 114.263 203.067 L 104.99 222.038 M 141.793 157.804 L 123.792 157.233 M 141.793 157.804 L 123.01 130.806 M 123.792 157.233 L 120.704 181.405 M 107.716 249.242 L 120.794 230.681 M 177.179 217.041 L 181.768 231.345 M 140.917 128.781 L 123.01 130.806 M 104.99 222.038 L 107.716 249.242 M 93.4627 238.227 L 107.716 249.242 M 140.917 128.781 L 118.037 102.457 M 192.421 184.632 L 176.859 165.949 M 194.587 169.156 L 176.859 165.949 M 192.421 184.632 L 194.587 169.156 M 104.99 222.038 L 93.4627 238.227 M 88.6188 214.521 L 93.4627 238.227 M 198.014 223.564 L 194.442 211.897 M 96.8823 198.294 L 104.99 222.038 M 96.8823 198.294 L 89.8198 212.322 M 213.495 271.736 L 223.089 256.483 M 213.495 271.736 L 230.916 261.483 M 88.6188 214.521 L 79.9524 226.308 M 156.501 182.254 L 174.62 201.247 M 156.501 182.254 L 156.985 204.927 M 135.512 98.0825 L 118.037 102.457 M 135.512 98.0825 L 108.698 72.5109 M 223.06 277.689 L 230.916 261.483 M 223.06 277.689 L 239.05 265.39 M 123.01 130.806 L 123.792 157.233 M 123.01 130.806 L 105.381 134.502 M 182.197 146.836 L 176.859 165.949 M 165.733 139.527 L 176.859 165.949 M 182.197 146.836 L 165.733 139.527 M 182.197 146.836 L 181.152 116.694 M 194.313 129.01 L 181.152 116.694 M 93.4627 238.227 L 92.6188 264.734 M 80.198 251.67 L 92.6188 264.734 M 141.793 157.804 L 140.917 128.781 M 159.648 155.425 L 140.917 128.781 M 92.6188 264.734 L 107.716 249.242 M 181.768 231.345 L 188.049 244.024 M 125.545 66.1394 L 108.698 72.5109 M 125.545 66.1394 L 95.1171 41.2724 M 102.784 179.51 L 114.263 203.067 M 102.784 179.51 L 97.7811 195.772 M 93.4627 238.227 L 80.198 251.67 M 78.4891 228.208 L 80.198 251.67 M 68.6598 237.83 L 80.198 251.67 M 68.6598 237.83 L 64.4084 260.47 M 57.1118 243.994 L 64.4084 260.47 M 57.1118 243.994 L 47.4003 264.516 M 44.8357 246.683 L 47.4003 264.516 M 44.8357 246.683 L 30.3581 263.955 M 32.62 246.086 L 30.3581 263.955 M 232.707 282.252 L 239.05 265.39 M 232.707 282.252 L 247.388 268.44 M 194.587 169.156 L 182.197 146.836 M 199.281 152.569 L 182.197 146.836 M 194.587 169.156 L 199.281 152.569 M 202.913 233.848 L 198.014 223.564 M 219.078 225.892 L 198.014 223.564 M 123.792 157.233 L 105.806 158.193 M 101.682 138.08 L 105.806 158.193 M 194.313 129.01 L 204.735 98.9474 M 213.092 114.902 L 204.735 98.9474 M 111.283 33.3406 L 95.1171 41.2724 M 111.283 33.3406 L 77.7605 9.05243 M 242.226 285.697 L 247.388 268.44 M 242.226 285.697 L 255.921 270.875 M 255.921 270.875 L 247.388 268.44 M 255.921 270.875 L 262.399 254.05 M 262.399 254.05 L 247.388 268.44 M 250.4 250.677 L 247.388 268.44 M 250.4 250.677 L 238.556 267.528 M 238.277 249.523 L 238.556 267.528 M 238.277 249.523 L 229.547 268.03 M 226.277 250.319 L 229.547 268.03 M 226.277 250.319 L 220.44 269.858 M 255.921 270.875 L 273.854 259.971 M 263.921 275.003 L 273.854 259.971 M 284.109 268.631 L 273.854 259.971 M 263.921 275.003 L 284.109 268.631 M 271.002 280.983 L 284.109 268.631 M 292.335 279.98 L 284.109 268.631 M 263.921 275.003 L 271.002 280.983 M 271.002 280.983 L 292.335 279.98 M 271.002 280.983 L 276.634 288.816 M 276.634 288.816 L 292.335 279.98 M 297.636 293.652 L 292.335 279.98 M 276.634 288.816 L 297.636 293.652 M 276.634 288.816 L 280.22 298.279 M 280.22 298.279 L 297.636 293.652 M 280.22 298.279 L 299.217 308.887 M 280.22 298.279 L 281.196 308.901 M 299.217 308.887 L 297.636 293.652 M 281.196 308.901 L 299.217 308.887 M 281.196 308.901 L 296.546 324.679 M 279.155 319.983 L 296.546 324.679 M 279.155 319.983 L 289.399 339.815 M 273.881 330.665 L 289.399 339.815 M 281.196 308.901 L 279.155 319.983 M 273.881 330.665 L 277.903 353.024 M 265.434 340.034 L 277.903 353.024 M 273.881 330.665 L 265.434 340.034 M 279.155 319.983 L 273.881 330.665 M 296.546 324.679 L 299.217 308.887 M 262.534 363.041 L 277.903 353.024 M 265.434 340.034 L 262.534 363.041 M 265.434 340.034 L 254.113 347.112 M 254.113 347.112 L 262.534 363.041 M 244.113 368.691 L 262.534 363.041 M 289.399 339.815 L 296.546 324.679 M 277.903 353.024 L 289.399 339.815 M 254.113 347.112 L 244.113 368.691 M 254.113 347.112 L 240.522 351.032 M 248.997 386.033 L 262.534 363.041 M 248.997 386.033 L 269.648 379.594 M 272.055 378.337 L 277.903 353.024 M 272.055 378.337 L 289.36 366.929 M 240.522 351.032 L 244.113 368.691 M 223.839 368.926 L 244.113 368.691 M 240.522 351.032 L 223.839 368.926 M 240.522 351.032 L 225.502 350.983 M 223.539 386.942 L 244.113 368.691 M 223.539 386.942 L 246.234 386.583 M 291.219 365.16 L 289.399 339.815 M 291.219 365.16 L 304.234 350.043 M 306.041 375.39 L 304.234 350.043 M 306.041 375.39 L 317.524 362.21 M 306.041 375.39 L 321.547 384.575 M 306.041 375.39 L 315.744 396.297 M 321.547 384.575 L 317.524 362.21 M 329.966 375.237 L 317.524 362.21 M 315.744 396.297 L 321.547 384.575 M 298.306 391.734 L 315.744 396.297 M 298.306 391.734 L 313.343 409.842 M 313.343 409.842 L 315.744 396.297 M 298.306 391.734 L 295.331 410.371 M 329.966 375.237 L 331.721 352.754 M 340.252 368.62 L 331.721 352.754 M 347.621 347.34 L 331.721 352.754 M 329.966 375.237 L 340.252 368.62 M 321.547 384.575 L 329.966 375.237 M 306.041 375.39 L 298.306 391.734 M 340.252 368.62 L 347.621 347.34 M 340.252 368.62 L 351.705 364.88 M 351.705 364.88 L 347.621 347.34 M 364.261 346.081 L 347.621 347.34 M 351.705 364.88 L 364.261 346.081 M 351.705 364.88 L 363.717 364.085 M 363.717 364.085 L 364.261 346.081 M 380.725 348.906 L 364.261 346.081 M 363.717 364.085 L 380.725 348.906 M 363.717 364.085 L 375.701 366.218 M 331.721 352.754 L 317.524 362.21 M 375.701 366.218 L 380.725 348.906 M 375.701 366.218 L 396.168 355.631 M 396.168 355.631 L 380.725 348.906 M 375.701 366.218 L 387.125 371.211 M 387.125 371.211 L 396.168 355.631 M 387.125 371.211 L 409.811 365.858 M 397.438 378.955 L 409.811 365.858 M 397.438 378.955 L 421.018 379.058 M 406.116 389.195 L 421.018 379.058 M 409.811 365.858 L 396.168 355.631 M 387.125 371.211 L 397.438 378.955 M 295.331 410.371 L 313.343 409.842 M 315.088 424.366 L 313.343 409.842 M 295.331 410.371 L 315.088 424.366 M 295.331 410.371 L 298.006 430.067 M 322.084 337.542 L 317.524 362.21 M 322.084 337.542 L 306.057 348.312 M 342.185 330.166 L 331.721 352.754 M 342.185 330.166 L 324.431 336.288 M 406.116 389.195 L 429.325 394.595 M 412.709 401.565 L 429.325 394.595 M 298.006 430.067 L 315.088 424.366 M 321.585 438.666 L 315.088 424.366 M 298.006 430.067 L 321.585 438.666 M 298.006 430.067 L 306.964 449.184 M 225.502 350.983 L 223.839 368.926 M 203.259 363.019 L 223.839 368.926 M 225.502 350.983 L 203.259 363.019 M 225.502 350.983 L 210.188 346.377 M 214.496 252.85 L 220.44 269.858 M 214.496 252.85 L 211.308 273.023 M 336.964 429.282 L 315.088 424.366 M 336.964 429.282 L 331.645 417.255 M 197.653 380.129 L 223.839 368.926 M 197.653 380.129 L 220.7 386.669 M 210.188 346.377 L 203.259 363.019 M 210.188 346.377 L 184.285 350.598 M 184.285 350.598 L 203.259 363.019 M 210.188 346.377 L 195.963 336.87 M 195.963 336.87 L 184.285 350.598 M 195.963 336.87 L 169.074 331.879 M 169.074 331.879 L 184.285 350.598 M 184.479 322.542 L 169.074 331.879 M 184.479 322.542 L 159.907 307.823 M 177.504 303.963 L 159.907 307.823 M 177.504 303.963 L 158.852 280.288 M 176.734 282.415 L 158.852 280.288 M 195.963 336.87 L 184.479 322.542 M 176.734 282.415 L 167.366 252.03 M 183.557 259.942 L 167.366 252.03 M 185.808 226.481 L 167.366 252.03 M 183.557 259.942 L 185.808 226.481 M 198.518 239.255 L 185.808 226.481 M 212.962 207.207 L 185.808 226.481 M 198.518 239.255 L 212.962 207.207 M 198.518 239.255 L 220.919 223.366 M 220.919 223.366 L 212.962 207.207 M 246.033 197.048 L 212.962 207.207 M 220.919 223.366 L 246.033 197.048 M 220.919 223.366 L 248.601 214.882 M 248.601 214.882 L 246.033 197.048 M 248.601 214.882 L 281.109 197.382 M 278.269 215.173 L 281.109 197.382 M 281.109 197.382 L 246.033 197.048 M 283.854 179.575 L 246.033 197.048 M 283.854 179.575 L 243.639 179.195 M 283.939 161.559 L 243.639 179.195 M 283.939 161.559 L 243.986 161.181 M 283.939 161.559 L 281.445 143.715 M 248.601 214.882 L 278.269 215.173 M 209.485 253.538 L 220.919 223.366 M 209.485 253.538 L 230.848 238.401 M 281.445 143.715 L 243.986 161.181 M 281.445 143.715 L 246.904 143.403 M 246.904 143.403 L 243.986 161.181 M 207.249 149.148 L 243.986 161.181 M 246.904 143.403 L 207.249 149.148 M 246.904 143.403 L 215.513 133.133 M 215.513 133.133 L 207.249 149.148 M 215.513 133.133 L 177.81 127.399 M 190.766 114.874 L 177.81 127.399 M 215.513 133.133 L 190.766 114.874 M 177.81 127.399 L 207.249 149.148 M 190.766 114.874 L 158.462 99.3724 M 174.803 91.7742 L 158.462 99.3724 M 201.221 166.117 L 243.986 161.181 M 201.221 166.117 L 238.706 178.407 M 278.269 215.173 L 314.086 207.666 M 306.349 223.932 L 314.086 207.666 M 158.462 99.3724 L 177.81 127.399 M 190.766 114.874 L 174.803 91.7742 M 204.273 102.954 L 174.803 91.7742 M 183.557 259.942 L 198.518 239.255 M 198.68 269.73 L 198.518 239.255 M 174.803 91.7742 L 150.194 69.1076 M 168.125 67.3249 L 150.194 69.1076 M 226.607 240.462 L 248.601 214.882 M 226.607 240.462 L 253.544 232.209 M 159.907 307.823 L 169.074 331.879 M 306.964 449.184 L 321.585 438.666 M 333.097 451.195 L 321.585 438.666 M 344.866 437.54 L 321.585 438.666 M 344.866 437.54 L 335.286 426.967 M 363.281 328.084 L 347.621 347.34 M 363.281 328.084 L 345.002 329.518 M 306.964 449.184 L 333.097 451.195 M 306.964 449.184 L 322.4 465.687 M 322.4 465.687 L 333.097 451.195 M 349.431 460.125 L 333.097 451.195 M 356.264 443.46 L 333.097 451.195 M 356.264 443.46 L 342.6 435.877 M 184.479 322.542 L 177.504 303.963 M 200.671 314.642 L 177.504 303.963 M 150.194 69.1076 L 158.462 99.3724 M 167.366 252.03 L 158.852 280.288 M 314.086 207.666 L 281.109 197.382 M 321.992 191.476 L 281.109 197.382 M 321.992 191.476 L 283.86 179.575 M 327.529 174.332 L 283.86 179.575 M 327.529 174.332 L 289.145 162.352 M 327.529 174.332 L 330.418 156.548 M 278.269 215.173 L 306.349 223.932 M 315.123 133.905 L 281.445 143.715 M 174.803 91.7742 L 168.125 67.3249 M 191.536 85.0826 L 168.125 67.3249 M 176.734 282.415 L 183.557 259.942 M 194.283 286.508 L 183.557 259.942 M 200.671 314.642 L 194.667 298.491 M 217.95 309.56 L 194.667 298.491 M 217.95 309.56 L 210.727 290.332 M 217.95 309.56 L 235.568 305.807 M 236.309 330.164 L 235.568 305.807 M 152.297 40.4066 L 150.194 69.1076 M 158.852 280.288 L 159.907 307.823 M 168.125 67.3249 L 152.297 40.4066 M 169.816 44.6071 L 152.297 40.4066 M 162.873 16.1759 L 152.297 40.4066 M 168.125 67.3249 L 169.816 44.6071 M 186.125 66.6829 L 169.816 44.6071 M 177.504 303.963 L 176.734 282.415 M 195.399 301.897 L 176.734 282.415 M 273.854 259.971 L 262.399 254.05 M 421.018 379.058 L 409.811 365.858 M 255.921 270.875 L 263.921 275.003 M 247.52 286.808 L 263.921 275.003 M 397.438 378.955 L 406.116 389.195 M 385.14 392.122 L 406.116 389.195 M 252.387 288.842 L 271.002 280.983 M 252.387 288.842 L 259.268 294.652 M 166.561 141.475 L 207.249 149.148 M 166.561 141.475 L 197.022 163.97 M 384.123 331.222 L 364.261 346.081 M 384.123 331.222 L 366.432 328.189 M 173.695 365.171 L 203.259 363.019 M 173.695 365.171 L 195.016 379.026 M 203.006 257.039 L 211.308 273.023 M 203.006 257.039 L 202.257 277.585 M 327.529 174.332 L 365 157.38 M 366.974 175.292 L 365 157.38 M 332.565 419.979 L 313.343 409.842 M 332.565 419.979 L 331.252 407.847 M 306.349 223.932 L 341.715 225.762 M 329.916 239.369 L 341.715 225.762 M 256.692 291.926 L 276.634 288.816 M 256.692 291.926 L 261.865 299.134 M 248.596 232.9 L 278.269 215.173 M 248.596 232.9 L 278.002 233.187 M 412.709 401.565 L 434.49 411.794 M 416.887 415.621 L 434.49 411.794 M 366.974 175.292 L 397.363 149.541 M 403.773 166.385 L 397.363 149.541 M 403.773 166.385 L 425.275 134.942 M 435.463 149.805 L 425.275 134.942 M 435.463 149.805 L 447.696 115.749 M 184.285 350.598 L 173.695 365.171 M 153.482 347.088 L 173.695 365.171 M 403.583 339.215 L 380.725 348.906 M 403.583 339.215 L 387.434 332.195 M 169.074 331.879 L 154.405 342.33 M 140.087 317.06 L 154.405 342.33 M 341.715 225.762 L 314.086 207.666 M 353.855 212.445 L 314.086 207.666 M 341.715 225.762 L 353.855 212.445 M 341.715 225.762 L 376.606 241.111 M 360.847 249.841 L 376.606 241.111 M 360.847 249.841 L 387.993 273.215 M 370.238 276.314 L 387.993 273.215 M 353.855 212.445 L 321.51 191.249 M 364.096 197.619 L 321.51 191.249 M 306.349 223.932 L 329.916 239.369 M 365 157.38 L 330.418 156.548 M 365 157.38 L 362.59 139.526 M 260.172 296.138 L 280.22 298.279 M 260.172 296.138 L 263.298 304.448 M 262.399 254.05 L 250.4 250.677 M 429.325 394.595 L 421.018 379.058 M 406.116 389.195 L 412.709 401.565 M 391.43 399.624 L 412.709 401.565 M 191.87 262.864 L 202.257 277.585 M 191.87 262.864 L 193.393 283.621 M 395.941 408.147 L 412.709 401.565 M 395.941 408.147 L 416.085 415.835 M 398.194 418.015 L 416.085 415.835 M 398.194 418.015 L 415.559 431.148 M 397.716 428.676 L 415.559 431.148 M 397.716 428.676 L 410.748 446.425 M 394.164 439.368 L 410.748 446.425 M 394.164 439.368 L 401.592 460.442 M 387.481 449.242 L 401.592 460.442 M 143.152 108.864 L 177.81 127.399 M 143.152 108.864 L 163.463 138.299 M 331.344 410.655 L 315.744 396.297 M 331.344 410.655 L 333.481 399.461 M 429.325 394.595 L 444.963 385.647 M 460.874 128.034 L 447.696 115.749 M 460.874 128.034 L 464.509 93.9221 M 159.907 307.823 L 142.623 312.901 M 137.081 282.225 L 142.623 312.901 M 32.62 246.086 L 14.2706 259.126 M 21.1303 242.456 L 14.2706 259.126 M 105.806 158.193 L 120.704 181.405 M 105.806 158.193 L 103.324 176.647 M 80.198 251.67 L 76.0861 277.218 M 65.7184 262.491 L 76.0861 277.218 M 97.2292 113.221 L 105.381 134.502 M 97.2292 113.221 L 81.2223 121.49 M 262.482 301.402 L 281.196 308.901 M 262.482 301.402 L 263.243 310.397 M 421.018 379.058 L 434.628 367.253 M 445.841 379.827 L 434.628 367.253 M 445.841 379.827 L 457.634 366.203 M 396.168 355.631 L 403.583 339.215 M 419.288 346.515 L 403.583 339.215 M 118.037 102.457 L 123.01 130.806 M 118.037 102.457 L 101.098 108.586 M 409.811 365.858 L 420.671 351.484 M 434.318 361.707 L 420.671 351.484 M 181.768 231.345 L 165.025 238.009 M 161.176 218.104 L 165.025 238.009 M 76.0861 277.218 L 92.6188 264.734 M 76.0861 277.218 L 88.3918 290.369 M 188.049 244.024 L 195.655 254.988 M 188.049 244.024 L 172.519 253.154 M 166.021 235.023 L 172.519 253.154 M 306.349 223.932 L 296.182 238.812 M 271.842 221.835 L 296.182 238.812 M 453.536 399.978 L 444.963 385.647 M 453.536 399.978 L 467.546 388.653 M 416.887 415.621 L 436.473 430.007 M 418.48 430.86 L 436.473 430.007 M 92.6188 264.734 L 106.753 275.906 M 95.6721 290.535 L 106.753 275.906 M 95.6721 290.535 L 111.802 298.559 M 329.916 239.369 L 362.199 248.702 M 347.353 258.903 L 362.199 248.702 M 434.49 411.794 L 429.325 394.595 M 434.49 411.794 L 451.467 405.769 M 329.916 239.369 L 347.353 258.903 M 329.916 239.369 L 316.085 250.908 M 298.058 228.262 L 316.085 250.908 M 388.866 131.548 L 362.59 139.526 M 388.866 131.548 L 382.989 114.517 M 397.363 149.541 L 365 157.38 M 397.363 149.541 L 390.311 132.963 M 158.852 280.288 L 140.864 279.298 M 146.446 246.307 L 140.864 279.298 M 332.809 402.076 L 321.547 384.575 M 332.809 402.076 L 337.703 392.538 M 263.234 307.512 L 279.155 319.983 M 263.234 307.512 L 261.453 316.626 M 69.4848 103.603 L 81.2223 121.49 M 69.4848 103.603 L 53.9471 112.714 M 88.6543 86.5101 L 101.098 108.586 M 88.6543 86.5101 L 74.076 97.0933 M 194.313 129.01 L 213.092 114.902 M 194.313 129.01 L 206.043 142.674 M 192.163 155.896 L 206.043 142.674 M 65.7184 262.491 L 58.6363 286.884 M 50.3754 270.872 L 58.6363 286.884 M 58.6363 286.884 L 76.0861 277.218 M 58.6363 286.884 L 68.9889 301.623 M 436.473 430.007 L 434.49 411.794 M 436.473 430.007 L 454.207 426.842 M 262.141 314.056 L 273.881 330.665 M 262.141 314.056 L 257.74 322.661 M 336.39 394.777 L 329.966 375.237 M 336.39 394.777 L 343.299 387.359 M 40.6835 294.005 L 58.6363 286.884 M 40.6835 294.005 L 49.0804 309.939 M 435.357 448.757 L 436.473 430.007 M 435.357 448.757 L 453.371 448.305" />
<line x1="164.710039" y1="214.234459" x2="151.914073" y2="210.124581" class="t" />
<line x1="169.478071" y1="206.857533" x2="164.710039" y2="214.234459" class="t" />
<line x1="182.080642" y1="210.061561" x2="169.478071" y2="206.857533" class="t" />
<line x1="187.181595" y1="204.013608" x2="182.080642" y2="210.061561" class="t" />
<line x1="189.878561" y1="217.500641" x2="182.080642" y2="210.061561" class="t" />
<line x1="185.653856" y1="223.983118" x2="189.878561" y2="217.500641" class="t" />
<line x1="194.231838" y1="229.585469" x2="185.653856" y2="223.983118" class="t" />
<line x1="180.504220" y1="194.765604" x2="187.181595" y2="204.013608" class="t" />
<line x1="168.510636" y1="189.218016" x2="180.504220" y2="194.765604" class="t" />
<line x1="186.437882" y1="189.227415" x2="180.504220" y2="194.765604" class="t" />
<line x1="198.464781" y1="194.287645" x2="186.437882" y2="189.227415" class="t" />
<line x1="181.230273" y1="178.244771" x2="186.437882" y2="189.227415" class="t" />
<line x1="199.736681" y1="206.727223" x2="187.181595" y2="204.013608" class="t" />
<line x1="190.910349" y1="236.405459" x2="194.231838" y2="229.585469" class="t" />
<line x1="199.950048" y1="240.208291" x2="190.910349" y2="236.405459" class="t" />
<line x1="197.530711" y1="247.255146" x2="199.950048" y2="240.208291" class="t" />
<line x1="206.740531" y1="249.339532" x2="197.530711" y2="247.255146" class="t" />
<line x1="205.194859" y1="256.490738" x2="206.740531" y2="249.339532" class="t" />
<line x1="170.248577" y1="170.444771" x2="181.230273" y2="178.244771" class="t" />
<line x1="163.438328" y1="176.844816" x2="170.248577" y2="170.444771" class="t" />
<line x1="214.339311" y1="256.988866" x2="205.194859" y2="256.490738" class="t" />
<line x1="213.611281" y1="264.141841" x2="214.339311" y2="256.988866" class="t" />
<line x1="152.565841" y1="168.061689" x2="163.438328" y2="176.844816" class="t" />
<line x1="145.546706" y1="175.891083" x2="152.565841" y2="168.061689" class="t" />
<line x1="134.667993" y1="166.585871" x2="145.546706" y2="175.891083" class="t" />
<line x1="127.638411" y1="174.453059" x2="134.667993" y2="166.585871" class="t" />
<line x1="130.118220" y1="191.746605" x2="127.638411" y2="174.453059" class="t" />
<line x1="122.066369" y1="197.862099" x2="130.118220" y2="191.746605" class="t" />
<line x1="112.583687" y1="187.993926" x2="122.066369" y2="197.862099" class="t" />
<line x1="139.526256" y1="202.093938" x2="130.118220" y2="191.746605" class="t" />
<line x1="122.096382" y1="214.287477" x2="122.066369" y2="197.862099" class="t" />
<line x1="129.915903" y1="225.550604" x2="122.096382" y2="214.287477" class="t" />
<line x1="113.349223" y1="218.595314" x2="122.096382" y2="214.287477" class="t" />
<line x1="111.166793" y1="233.987060" x2="113.349223" y2="218.595314" class="t" />
<line x1="105.378598" y1="207.799686" x2="113.349223" y2="218.595314" class="t" />
<line x1="129.531932" y1="148.614384" x2="134.667993" y2="166.585871" class="t" />
<line x1="135.240023" y1="139.130238" x2="129.531932" y2="148.614384" class="t" />
<line x1="116.767601" y1="165.610638" x2="127.638411" y2="174.453059" class="t" />
<line x1="117.311867" y1="245.996659" x2="111.166793" y2="233.987060" class="t" />
<line x1="172.848202" y1="223.116162" x2="185.653856" y2="223.983118" class="t" />
<line x1="127.321412" y1="120.681413" x2="135.240023" y2="139.130238" class="t" />
<line x1="102.056295" y1="236.502190" x2="111.166793" y2="233.987060" class="t" />
<line x1="97.932422" y1="250.734241" x2="102.056295" y2="236.502190" class="t" />
<line x1="131.488673" y1="109.773579" x2="127.321412" y2="120.681413" class="t" />
<line x1="187.955964" y1="173.245890" x2="181.230273" y2="178.244771" class="t" />
<line x1="184.547749" y1="160.647195" x2="187.955964" y2="173.245890" class="t" />
<line x1="199.046543" y1="180.589320" x2="187.955964" y2="173.245890" class="t" />
<line x1="95.690640" y1="224.928364" x2="102.056295" y2="236.502190" class="t" />
<line x1="87.344625" y1="226.351731" x2="95.690640" y2="224.928364" class="t" />
<line x1="202.560112" y1="217.895694" x2="189.878561" y2="217.500641" class="t" />
<line x1="97.230847" y1="210.884824" x2="105.378598" y2="207.799686" class="t" />
<line x1="88.875754" y1="200.943840" x2="97.230847" y2="210.884824" class="t" />
<line x1="222.499774" y1="263.233950" x2="213.611281" y2="264.141841" class="t" />
<line x1="222.490296" y1="270.302763" x2="222.499774" y2="263.233950" class="t" />
<line x1="80.479345" y1="215.533425" x2="87.344625" y2="226.351731" class="t" />
<line x1="162.702105" y1="196.142720" x2="168.510636" y2="189.218016" class="t" />
<line x1="150.659889" y1="189.642915" x2="162.702105" y2="196.142720" class="t" />
<line x1="120.748997" y1="91.016876" x2="131.488673" y2="109.773579" class="t" />
<line x1="123.251718" y1="78.910932" x2="120.748997" y2="91.016876" class="t" />
<line x1="231.008522" y1="268.187386" x2="222.490296" y2="270.302763" class="t" />
<line x1="231.605552" y1="275.110565" x2="231.008522" y2="268.187386" class="t" />
<line x1="117.394573" y1="140.847083" x2="129.531932" y2="148.614384" class="t" />
<line x1="108.540151" y1="126.176272" x2="117.394573" y2="140.847083" class="t" />
<line x1="174.929703" y1="150.770708" x2="184.547749" y2="160.647195" class="t" />
<line x1="167.170126" y1="156.611910" x2="174.929703" y2="150.770708" class="t" />
<line x1="176.360628" y1="134.352245" x2="174.929703" y2="150.770708" class="t" />
<line x1="185.887278" y1="130.846546" x2="176.360628" y2="134.352245" class="t" />
<line x1="193.400156" y1="114.883616" x2="185.887278" y2="130.846546" class="t" />
<line x1="88.759815" y1="251.543580" x2="97.932422" y2="250.734241" class="t" />
<line x1="82.967644" y1="264.540775" x2="88.759815" y2="251.543580" class="t" />
<line x1="147.452426" y1="147.336705" x2="135.240023" y2="139.130238" class="t" />
<line x1="153.157416" y1="137.963777" x2="147.452426" y2="147.336705" class="t" />
<line x1="102.362673" y1="263.293978" x2="97.932422" y2="250.734241" class="t" />
<line x1="178.280953" y1="237.792557" x2="190.910349" y2="236.405459" class="t" />
<line x1="109.786663" y1="59.974244" x2="123.251718" y2="78.910932" class="t" />
<line x1="110.648411" y1="46.917478" x2="109.786663" y2="59.974244" class="t" />
<line x1="104.942668" y1="192.782953" x2="112.583687" y2="187.993926" class="t" />
<line x1="95.206875" y1="183.847404" x2="104.942668" y2="192.782953" class="t" />
<line x1="84.049928" y1="239.368164" x2="88.759815" y2="251.543580" class="t" />
<line x1="75.782295" y1="239.235983" x2="84.049928" y2="239.368164" class="t" />
<line x1="71.088728" y1="249.990260" x2="75.782295" y2="239.235983" class="t" />
<line x1="63.393316" y1="247.431415" x2="71.088728" y2="249.990260" class="t" />
<line x1="56.306839" y1="256.326822" x2="63.393316" y2="247.431415" class="t" />
<line x1="49.782605" y1="251.731155" x2="56.306839" y2="256.326822" class="t" />
<line x1="40.864732" y1="258.384887" x2="49.782605" y2="251.731155" class="t" />
<line x1="35.937962" y1="252.241504" x2="40.864732" y2="258.384887" class="t" />
<line x1="25.749588" y1="256.389012" x2="35.937962" y2="252.241504" class="t" />
<line x1="239.714824" y1="272.027480" x2="231.605552" y2="275.110565" class="t" />
<line x1="240.773498" y1="278.796377" x2="239.714824" y2="272.027480" class="t" />
<line x1="192.021579" y1="156.187173" x2="184.547749" y2="160.647195" class="t" />
<line x1="190.711731" y1="142.139035" x2="192.021579" y2="156.187173" class="t" />
<line x1="201.804049" y1="165.655656" x2="192.021579" y2="156.187173" class="t" />
<line x1="206.668496" y1="227.767908" x2="194.231838" y2="229.585469" class="t" />
<line x1="210.029571" y1="221.003258" x2="206.668496" y2="227.767908" class="t" />
<line x1="110.426982" y1="151.168863" x2="116.767601" y2="165.610638" class="t" />
<line x1="97.343693" y1="146.631995" x2="110.426982" y2="151.168863" class="t" />
<line x1="204.046943" y1="114.286475" x2="193.400156" y2="114.883616" class="t" />
<line x1="217.508537" y1="101.026319" x2="204.046943" y2="114.286475" class="t" />
<line x1="94.720186" y1="27.888495" x2="110.648411" y2="46.917478" class="t" />
<line x1="94.127827" y1="14.131015" x2="94.720186" y2="27.888495" class="t" />
<line x1="248.511430" y1="275.003765" x2="240.773498" y2="278.796377" class="t" />
<line x1="249.882217" y1="281.635873" x2="248.511430" y2="275.003765" class="t" />
<line x1="255.235777" y1="264.454865" x2="248.511430" y2="275.003765" class="t" />
<line x1="264.057831" y1="261.631800" x2="255.235777" y2="264.454865" class="t" />
<line x1="253.395543" y1="257.722231" x2="255.235777" y2="264.454865" class="t" />
<line x1="245.448065" y1="262.215047" x2="253.395543" y2="257.722231" class="t" />
<line x1="242.411150" y1="255.909412" x2="245.448065" y2="262.215047" class="t" />
<line x1="235.460038" y1="261.693816" x2="242.411150" y2="255.909412" class="t" />
<line x1="231.367015" y1="255.957189" x2="235.460038" y2="261.693816" class="t" />
<line x1="225.421397" y1="262.735587" x2="231.367015" y2="255.957189" class="t" />
<line x1="220.404626" y1="257.675655" x2="225.421397" y2="262.735587" class="t" />
<line x1="264.565448" y1="268.616152" x2="264.057831" y2="261.631800" class="t" />
<line x1="273.961504" y1="267.868378" x2="264.565448" y2="268.616152" class="t" />
<line x1="285.025286" y1="261.586175" x2="273.961504" y2="267.868378" class="t" />
<line x1="273.010826" y1="274.872475" x2="273.961504" y2="267.868378" class="t" />
<line x1="282.482089" y1="276.531443" x2="273.010826" y2="274.872475" class="t" />
<line x1="294.755496" y1="273.130861" x2="282.482089" y2="276.531443" class="t" />
<line x1="262.436863" y1="281.609286" x2="273.010826" y2="274.872475" class="t" />
<line x1="279.990436" y1="283.259523" x2="282.482089" y2="276.531443" class="t" />
<line x1="268.109240" y1="287.241603" x2="279.990436" y2="283.259523" class="t" />
<line x1="288.868392" y1="287.482411" x2="279.990436" y2="283.259523" class="t" />
<line x1="301.613774" y1="287.339486" x2="288.868392" y2="287.482411" class="t" />
<line x1="284.830128" y1="293.581968" x2="288.868392" y2="287.482411" class="t" />
<line x1="272.342186" y1="294.410763" x2="284.830128" y2="293.581968" class="t" />
<line x1="292.357808" y1="300.272299" x2="284.830128" y2="293.581968" class="t" />
<line x1="286.877922" y1="305.355278" x2="292.357808" y2="300.272299" class="t" />
<line x1="274.632846" y1="302.860419" x2="286.877922" y2="305.355278" class="t" />
<line x1="304.688030" y1="303.527218" x2="292.357808" y2="300.272299" class="t" />
<line x1="292.319746" y1="314.155549" x2="286.877922" y2="305.355278" class="t" />
<line x1="285.632470" y1="317.854200" x2="292.319746" y2="314.155549" class="t" />
<line x1="288.366643" y1="328.159025" x2="285.632470" y2="317.854200" class="t" />
<line x1="280.811632" y1="330.154360" x2="288.366643" y2="328.159025" class="t" />
<line x1="280.394149" y1="341.168030" x2="280.811632" y2="330.154360" class="t" />
<line x1="274.528661" y1="312.131603" x2="285.632470" y2="317.854200" class="t" />
<line x1="272.405864" y1="341.240832" x2="280.394149" y2="341.168030" class="t" />
<line x1="268.623567" y1="352.032703" x2="272.405864" y2="341.240832" class="t" />
<line x1="266.108143" y1="330.397861" x2="272.405864" y2="341.240832" class="t" />
<line x1="271.725541" y1="321.567924" x2="280.811632" y2="330.154360" class="t" />
<line x1="303.310735" y1="320.661699" x2="292.319746" y2="314.155549" class="t" />
<line x1="270.830435" y1="364.800500" x2="268.623567" y2="352.032703" class="t" />
<line x1="260.693802" y1="350.062059" x2="268.623567" y2="352.032703" class="t" />
<line x1="257.794408" y1="337.797584" x2="260.693802" y2="350.062059" class="t" />
<line x1="253.586736" y1="359.614645" x2="260.693802" y2="350.062059" class="t" />
<line x1="251.881399" y1="372.588576" x2="253.586736" y2="359.614645" class="t" />
<line x1="297.134565" y1="337.493826" x2="288.366643" y2="328.159025" class="t" />
<line x1="286.173645" y1="352.666264" x2="280.394149" y2="341.168030" class="t" />
<line x1="246.249485" y1="355.611582" x2="253.586736" y2="359.614645" class="t" />
<line x1="247.128431" y1="342.938453" x2="246.249485" y2="355.611582" class="t" />
<line x1="260.393100" y1="376.222792" x2="251.881399" y2="372.588576" class="t" />
<line x1="258.311867" y1="389.377357" x2="260.393100" y2="376.222792" class="t" />
<line x1="279.772289" y1="366.096591" x2="270.830435" y2="364.800500" class="t" />
<line x1="281.672314" y1="379.142686" x2="279.772289" y2="366.096591" class="t" />
<line x1="236.158049" y1="362.883081" x2="246.249485" y2="355.611582" class="t" />
<line x1="230.496945" y1="374.853124" x2="236.158049" y2="362.883081" class="t" />
<line x1="229.954362" y1="356.980416" x2="236.158049" y2="362.883081" class="t" />
<line x1="234.711838" y1="345.064808" x2="229.954362" y2="356.980416" class="t" />
<line x1="237.961923" y1="380.738714" x2="230.496945" y2="374.853124" class="t" />
<line x1="231.873890" y1="392.777142" x2="237.961923" y2="380.738714" class="t" />
<line x1="294.950891" y1="351.672754" x2="286.173645" y2="352.666264" class="t" />
<line x1="300.498435" y1="363.530937" x2="294.950891" y2="351.672754" class="t" />
<line x1="309.266788" y1="362.547428" x2="300.498435" y2="363.530937" class="t" />
<line x1="315.037518" y1="374.057943" x2="309.266788" y2="362.547428" class="t" />
<line x1="314.444040" y1="385.420525" x2="315.037518" y2="374.057943" class="t" />
<line x1="306.697009" y1="387.806853" x2="314.444040" y2="385.420525" class="t" />
<line x1="323.012466" y1="374.006983" x2="315.037518" y2="374.057943" class="t" />
<line x1="326.403867" y1="363.400265" x2="323.012466" y2="374.006983" class="t" />
<line x1="323.366433" y1="394.316089" x2="314.444040" y2="385.420525" class="t" />
<line x1="309.130687" y1="399.290833" x2="306.697009" y2="387.806853" class="t" />
<line x1="302.326303" y1="403.981891" x2="309.130687" y2="399.290833" class="t" />
<line x1="320.143541" y1="405.598065" x2="309.130687" y2="399.290833" class="t" />
<line x1="291.419349" y1="396.802378" x2="302.326303" y2="403.981891" class="t" />
<line x1="333.979699" y1="365.536915" x2="326.403867" y2="363.400265" class="t" />
<line x1="339.864457" y1="356.238057" x2="333.979699" y2="365.536915" class="t" />
<line x1="340.508732" y1="343.420170" x2="339.864457" y2="356.238057" class="t" />
<line x1="337.267158" y1="377.622664" x2="333.979699" y2="365.536915" class="t" />
<line x1="329.301019" y1="384.862898" x2="323.012466" y2="374.006983" class="t" />
<line x1="298.112019" y1="378.116173" x2="306.697009" y2="387.806853" class="t" />
<line x1="346.525849" y1="360.279912" x2="339.864457" y2="356.238057" class="t" />
<line x1="346.616227" y1="372.811656" x2="346.525849" y2="360.279912" class="t" />
<line x1="354.528894" y1="352.767098" x2="346.525849" y2="360.279912" class="t" />
<line x1="358.387441" y1="340.501885" x2="354.528894" y2="352.767098" class="t" />
<line x1="359.894226" y1="358.348628" x2="354.528894" y2="352.767098" class="t" />
<line x1="356.802415" y1="370.522601" x2="359.894226" y2="358.348628" class="t" />
<line x1="369.567486" y1="353.023957" x2="359.894226" y2="358.348628" class="t" />
<line x1="376.369720" y1="342.069712" x2="369.567486" y2="353.023957" class="t" />
<line x1="373.380644" y1="359.736220" x2="369.567486" y2="353.023957" class="t" />
<line x1="367.307431" y1="370.786351" x2="373.380644" y2="359.736220" class="t" />
<line x1="323.776327" y1="350.835430" x2="326.403867" y2="363.400265" class="t" />
<line x1="384.197709" y1="356.918279" x2="373.380644" y2="359.736220" class="t" />
<line x1="386.331117" y1="364.353335" x2="384.197709" y2="356.918279" class="t" />
<line x1="393.491998" y1="347.917173" x2="384.197709" y2="356.918279" class="t" />
<line x1="377.699539" y1="373.608255" x2="386.331117" y2="364.353335" class="t" />
<line x1="397.701421" y1="364.233455" x2="386.331117" y2="364.353335" class="t" />
<line x1="398.124736" y1="372.007992" x2="397.701421" y2="364.233455" class="t" />
<line x1="409.422322" y1="374.623639" x2="398.124736" y2="372.007992" class="t" />
<line x1="408.190419" y1="382.402663" x2="409.422322" y2="374.623639" class="t" />
<line x1="418.819473" y1="387.616036" x2="408.190419" y2="382.402663" class="t" />
<line x1="408.883499" y1="357.657591" x2="397.701421" y2="364.233455" class="t" />
<line x1="387.496958" y1="378.958690" x2="398.124736" y2="372.007992" class="t" />
<line x1="307.920605" y1="414.859356" x2="302.326303" y2="403.981891" class="t" />
<line x1="320.331905" y1="418.062182" x2="307.920605" y2="414.859356" class="t" />
<line x1="302.808529" y1="421.601101" x2="307.920605" y2="414.859356" class="t" />
<line x1="290.245622" y1="417.510327" x2="302.808529" y2="421.601101" class="t" />
<line x1="315.221823" y1="349.354491" x2="323.776327" y2="350.835430" class="t" />
<line x1="312.876285" y1="336.536098" x2="315.221823" y2="349.354491" class="t" />
<line x1="332.778730" y1="339.736170" x2="340.508732" y2="343.420170" class="t" />
<line x1="333.715440" y1="326.771015" x2="332.778730" y2="339.736170" class="t" />
<line x1="416.049711" y1="395.118418" x2="418.819473" y2="387.616036" class="t" />
<line x1="425.507897" y1="402.651191" x2="416.049711" y2="395.118418" class="t" />
<line x1="311.560084" y1="431.032924" x2="302.808529" y2="421.601101" class="t" />
<line x1="324.545944" y1="430.771155" x2="311.560084" y2="431.032924" class="t" />
<line x1="308.851978" y1="439.305721" x2="311.560084" y2="431.032924" class="t" />
<line x1="295.442553" y1="438.731481" x2="308.851978" y2="439.305721" class="t" />
<line x1="217.533442" y1="360.976058" x2="229.954362" y2="356.980416" class="t" />
<line x1="208.250365" y1="370.691337" x2="217.533442" y2="360.976058" class="t" />
<line x1="212.983020" y1="353.459655" x2="217.533442" y2="360.976058" class="t" />
<line x1="221.367777" y1="343.525287" x2="212.983020" y2="353.459655" class="t" />
<line x1="215.415008" y1="265.243802" x2="220.404626" y2="257.675655" class="t" />
<line x1="209.603530" y1="260.970862" x2="215.415008" y2="265.243802" class="t" />
<line x1="327.898978" y1="423.634292" x2="324.545944" y2="430.771155" class="t" />
<line x1="340.722086" y1="422.937743" x2="327.898978" y2="423.634292" class="t" />
<line x1="214.063969" y1="378.574737" x2="208.250365" y2="370.691337" class="t" />
<line x1="204.328315" y1="388.230897" x2="214.063969" y2="378.574737" class="t" />
<line x1="199.244234" y1="353.331111" x2="212.983020" y2="353.459655" class="t" />
<line x1="196.812001" y1="344.614691" x2="199.244234" y2="353.331111" class="t" />
<line x1="187.079997" y1="359.595744" x2="199.244234" y2="353.331111" class="t" />
<line x1="208.160251" y1="337.852227" x2="196.812001" y2="344.614691" class="t" />
<line x1="183.107282" y1="339.781984" x2="196.812001" y2="344.614691" class="t" />
<line x1="183.171729" y1="330.430238" x2="183.107282" y2="339.781984" class="t" />
<line x1="169.254726" y1="341.601980" x2="183.107282" y2="339.781984" class="t" />
<line x1="171.153296" y1="320.747952" x2="183.171729" y2="330.430238" class="t" />
<line x1="173.963373" y1="311.442705" x2="171.153296" y2="320.747952" class="t" />
<line x1="165.421283" y1="297.357786" x2="173.963373" y2="311.442705" class="t" />
<line x1="171.030160" y1="288.888629" x2="165.421283" y2="297.357786" class="t" />
<line x1="167.650877" y1="271.577729" x2="171.030160" y2="288.888629" class="t" />
<line x1="196.390572" y1="327.858066" x2="183.171729" y2="330.430238" class="t" />
<line x1="175.885785" y1="264.795822" x2="167.650877" y2="271.577729" class="t" />
<line x1="178.910301" y1="246.150984" x2="175.885785" y2="264.795822" class="t" />
<line x1="175.239114" y1="230.938451" x2="178.910301" y2="246.150984" class="t" />
<line x1="189.294223" y1="241.892651" x2="178.910301" y2="246.150984" class="t" />
<line x1="199.095809" y1="224.314461" x2="189.294223" y2="241.892651" class="t" />
<line x1="201.083170" y1="208.333997" x2="199.095809" y2="224.314461" class="t" />
<line x1="210.799608" y1="223.276142" x2="199.095809" y2="224.314461" class="t" />
<line x1="209.640719" y1="238.719732" x2="210.799608" y2="223.276142" class="t" />
<line x1="226.637822" y1="209.207187" x2="210.799608" y2="223.276142" class="t" />
<line x1="234.036096" y1="194.509550" x2="226.637822" y2="209.207187" class="t" />
<line x1="238.517507" y1="211.765293" x2="226.637822" y2="209.207187" class="t" />
<line x1="232.042422" y1="226.236637" x2="238.517507" y2="211.765293" class="t" />
<line x1="258.580919" y1="203.103956" x2="238.517507" y2="211.765293" class="t" />
<line x1="269.326301" y1="209.145632" x2="258.580919" y2="203.103956" class="t" />
<line x1="291.154525" y1="206.740334" x2="269.326301" y2="209.145632" class="t" />
<line x1="270.331960" y1="191.334896" x2="258.580919" y2="203.103956" class="t" />
<line x1="257.841788" y1="185.272508" x2="270.331960" y2="191.334896" class="t" />
<line x1="270.477203" y1="173.442645" x2="257.841788" y2="185.272508" class="t" />
<line x1="257.187981" y1="167.311363" x2="270.477203" y2="173.442645" class="t" />
<line x1="269.790062" y1="155.484845" x2="257.187981" y2="167.311363" class="t" />
<line x1="293.502343" y1="146.393025" x2="269.790062" y2="155.484845" class="t" />
<line x1="258.488673" y1="220.985035" x2="269.326301" y2="209.145632" class="t" />
<line x1="220.417438" y1="238.435079" x2="209.640719" y2="238.719732" class="t" />
<line x1="219.420389" y1="253.797269" x2="220.417438" y2="238.435079" class="t" />
<line x1="257.445017" y1="149.432750" x2="269.790062" y2="155.484845" class="t" />
<line x1="269.129999" y1="137.658764" x2="257.445017" y2="149.432750" class="t" />
<line x1="232.713100" y1="151.243727" x2="257.445017" y2="149.432750" class="t" />
<line x1="217.485564" y1="158.815231" x2="232.713100" y2="151.243727" class="t" />
<line x1="223.221957" y1="141.894456" x2="232.713100" y2="151.243727" class="t" />
<line x1="237.526029" y1="134.074903" x2="223.221957" y2="141.894456" class="t" />
<line x1="200.190621" y1="136.559940" x2="223.221957" y2="141.894456" class="t" />
<line x1="194.696131" y1="125.135312" x2="200.190621" y2="136.559940" class="t" />
<line x1="175.679232" y1="113.881820" x2="194.696131" y2="125.135312" class="t" />
<line x1="210.193583" y1="121.804647" x2="194.696131" y2="125.135312" class="t" />
<line x1="183.873439" y1="139.340601" x2="200.190621" y2="136.559940" class="t" />
<line x1="174.676870" y1="102.006870" x2="175.679232" y2="113.881820" class="t" />
<line x1="161.153013" y1="86.751376" x2="174.676870" y2="102.006870" class="t" />
<line x1="227.971230" y1="168.568194" x2="217.485564" y2="158.815231" class="t" />
<line x1="212.630086" y1="176.119706" x2="227.971230" y2="168.568194" class="t" />
<line x1="299.567824" y1="215.590560" x2="291.154525" y2="206.740334" class="t" />
<line x1="320.716512" y1="219.120061" x2="299.567824" y2="215.590560" class="t" />
<line x1="159.807927" y1="111.878532" x2="175.679232" y2="113.881820" class="t" />
<line x1="189.947068" y1="103.200639" x2="174.676870" y2="102.006870" class="t" />
<line x1="189.936083" y1="92.691921" x2="189.947068" y2="103.200639" class="t" />
<line x1="193.584983" y1="256.309117" x2="189.294223" y2="241.892651" class="t" />
<line x1="203.280555" y1="253.136454" x2="193.584983" y2="256.309117" class="t" />
<line x1="164.374064" y1="76.068891" x2="161.153013" y2="86.751376" class="t" />
<line x1="156.872306" y1="58.946373" x2="164.374064" y2="76.068891" class="t" />
<line x1="242.917247" y1="229.184325" x2="232.042422" y2="226.236637" class="t" />
<line x1="236.550227" y1="243.638399" x2="242.917247" y2="229.184325" class="t" />
<line x1="157.201345" y1="317.534106" x2="171.153296" y2="320.747952" class="t" />
<line x1="320.548998" y1="446.348603" x2="308.851978" y2="439.305721" class="t" />
<line x1="333.182875" y1="442.467321" x2="320.548998" y2="446.348603" class="t" />
<line x1="333.912418" y1="434.391262" x2="333.182875" y2="442.467321" class="t" />
<line x1="346.240050" y1="430.118451" x2="333.912418" y2="434.391262" class="t" />
<line x1="351.967647" y1="334.980698" x2="358.387441" y2="340.501885" class="t" />
<line x1="356.080949" y1="322.658101" x2="351.967647" y2="334.980698" class="t" />
<line x1="320.820590" y1="455.355569" x2="320.548998" y2="446.348603" class="t" />
<line x1="307.508693" y1="458.547015" x2="320.820590" y2="455.355569" class="t" />
<line x1="334.976186" y1="459.002315" x2="320.820590" y2="455.355569" class="t" />
<line x1="346.264139" y1="451.593463" x2="334.976186" y2="459.002315" class="t" />
<line x1="343.987290" y1="443.511037" x2="346.264139" y2="451.593463" class="t" />
<line x1="354.826329" y1="435.799141" x2="343.987290" y2="443.511037" class="t" />
<line x1="187.551143" y1="313.715657" x2="173.963373" y2="311.442705" class="t" />
<line x1="190.947218" y1="305.698375" x2="187.551143" y2="313.715657" class="t" />
<line x1="147.075372" y1="80.446085" x2="161.153013" y2="86.751376" class="t" />
<line x1="158.996908" y1="259.114860" x2="167.650877" y2="271.577729" class="t" />
<line x1="305.729016" y1="198.841018" x2="291.154525" y2="206.740334" class="t" />
<line x1="295.653831" y1="189.477564" x2="305.729016" y2="198.841018" class="t" />
<line x1="311.126933" y1="181.794396" x2="295.653831" y2="189.477564" class="t" />
<line x1="300.177834" y1="172.086593" x2="311.126933" y2="181.794396" class="t" />
<line x1="315.697269" y1="164.410664" x2="300.177834" y2="172.086593" class="t" />
<line x1="340.982165" y1="162.753168" x2="315.697269" y2="164.410664" class="t" />
<line x1="285.811772" y1="223.816910" x2="299.567824" y2="215.590560" class="t" />
<line x1="301.369208" y1="131.727016" x2="293.502343" y2="146.393025" class="t" />
<line x1="178.154566" y1="81.393910" x2="164.374064" y2="76.068891" class="t" />
<line x1="181.854825" y1="72.282159" x2="178.154566" y2="81.393910" class="t" />
<line x1="184.858061" y1="276.288375" x2="175.885785" y2="264.795822" class="t" />
<line x1="192.783120" y1="270.828488" x2="184.858061" y2="276.288375" class="t" />
<line x1="204.429175" y1="307.564042" x2="190.947218" y2="305.698375" class="t" />
<line x1="207.781307" y1="299.460883" x2="204.429175" y2="307.564042" class="t" />
<line x1="221.414944" y1="301.899659" x2="207.781307" y2="299.460883" class="t" />
<line x1="229.942389" y1="315.176936" x2="221.414944" y2="301.899659" class="t" />
<line x1="242.068434" y1="322.215489" x2="229.942389" y2="315.176936" class="t" />
<line x1="145.644825" y1="49.163026" x2="156.872306" y2="58.946373" class="t" />
<line x1="153.207948" y1="289.136198" x2="165.421283" y2="297.357786" class="t" />
<line x1="163.412811" y1="50.779547" x2="156.872306" y2="58.946373" class="t" />
<line x1="161.662019" y1="33.729889" x2="163.412811" y2="50.779547" class="t" />
<line x1="154.003720" y1="21.512759" x2="161.662019" y2="33.729889" class="t" />
<line x1="174.688587" y1="59.538318" x2="163.412811" y2="50.779547" class="t" />
<line x1="181.175347" y1="52.949889" x2="174.688587" y2="59.538318" class="t" />
<line x1="183.212482" y1="296.091756" x2="171.030160" y2="288.888629" class="t" />
<line x1="188.961545" y1="289.013737" x2="183.212482" y2="296.091756" class="t" />
<line x1="273.372470" y1="253.003619" x2="264.057831" y2="261.631800" class="t" />
<line x1="421.819125" y1="370.723079" x2="409.422322" y2="374.623639" class="t" />
<line x1="255.787523" y1="277.562008" x2="264.565448" y2="268.616152" class="t" />
<line x1="255.732927" y1="284.291164" x2="255.787523" y2="277.562008" class="t" />
<line x1="396.231063" y1="386.757411" x2="408.190419" y2="382.402663" class="t" />
<line x1="394.129707" y1="393.503875" x2="396.231063" y2="386.757411" class="t" />
<line x1="260.885719" y1="288.159092" x2="262.436863" y2="281.609286" class="t" />
<line x1="250.333048" y1="294.922081" x2="260.885719" y2="288.159092" class="t" />
<line x1="190.277635" y1="151.530987" x2="183.873439" y2="139.340601" class="t" />
<line x1="173.789873" y1="154.214021" x2="190.277635" y2="151.530987" class="t" />
<line x1="371.605433" y1="335.164016" x2="376.369720" y2="342.069712" class="t" />
<line x1="378.611460" y1="324.219046" x2="371.605433" y2="335.164016" class="t" />
<line x1="190.656844" y1="369.072013" x2="187.079997" y2="359.595744" class="t" />
<line x1="178.052498" y1="375.131877" x2="190.656844" y2="369.072013" class="t" />
<line x1="205.523686" y1="269.215803" x2="209.603530" y2="260.970862" class="t" />
<line x1="199.044369" y1="265.829617" x2="205.523686" y2="269.215803" class="t" />
<line x1="353.167207" y1="169.001214" x2="340.982165" y2="162.753168" class="t" />
<line x1="376.445261" y1="160.737566" x2="353.167207" y2="169.001214" class="t" />
<line x1="325.719689" y1="412.556019" x2="320.331905" y2="418.062182" class="t" />
<line x1="338.097960" y1="415.329174" x2="325.719689" y2="412.556019" class="t" />
<line x1="325.993379" y1="229.687677" x2="320.716512" y2="219.120061" class="t" />
<line x1="344.609835" y1="237.944049" x2="325.993379" y2="229.687677" class="t" />
<line x1="265.063425" y1="293.292057" x2="268.109240" y2="287.241603" class="t" />
<line x1="253.238476" y1="297.375855" x2="265.063425" y2="293.292057" class="t" />
<line x1="268.288847" y1="227.086921" x2="258.488673" y2="220.985035" class="t" />
<line x1="257.481374" y1="238.928802" x2="268.288847" y2="227.086921" class="t" />
<line x1="421.361950" y1="409.659825" x2="425.507897" y2="402.651191" class="t" />
<line x1="429.283574" y1="419.140416" x2="421.361950" y2="409.659825" class="t" />
<line x1="389.369831" y1="163.739394" x2="376.445261" y2="160.737566" class="t" />
<line x1="408.803529" y1="150.289476" x2="389.369831" y2="163.739394" class="t" />
<line x1="421.503768" y1="150.377386" x2="408.803529" y2="150.289476" class="t" />
<line x1="436.144566" y1="133.498582" x2="421.503768" y2="150.377386" class="t" />
<line x1="448.011142" y1="131.195796" x2="436.144566" y2="133.498582" class="t" />
<line x1="170.487354" y1="354.285535" x2="187.079997" y2="359.595744" class="t" />
<line x1="156.643429" y1="357.940618" x2="170.487354" y2="354.285535" class="t" />
<line x1="390.580872" y1="340.105231" x2="393.491998" y2="347.917173" class="t" />
<line x1="399.992321" y1="331.141619" x2="390.580872" y2="340.105231" class="t" />
<line x1="154.522048" y1="330.422738" x2="169.254726" y2="341.601980" class="t" />
<line x1="139.893133" y1="328.860588" x2="154.522048" y2="330.422738" class="t" />
<line x1="336.551879" y1="215.290793" x2="320.716512" y2="219.120061" class="t" />
<line x1="329.816840" y1="203.786355" x2="336.551879" y2="215.290793" class="t" />
<line x1="357.392004" y1="226.439315" x2="336.551879" y2="215.290793" class="t" />
<line x1="359.722491" y1="238.904617" x2="357.392004" y2="226.439315" class="t" />
<line x1="375.148446" y1="254.722177" x2="359.722491" y2="238.904617" class="t" />
<line x1="373.025733" y1="266.456436" x2="375.148446" y2="254.722177" class="t" />
<line x1="382.105049" y1="284.704050" x2="373.025733" y2="266.456436" class="t" />
<line x1="346.486921" y1="200.437445" x2="329.816840" y2="203.786355" class="t" />
<line x1="338.899522" y1="188.287276" x2="346.486921" y2="200.437445" class="t" />
<line x1="310.815873" y1="234.037757" x2="325.993379" y2="229.687677" class="t" />
<line x1="352.669460" y1="151.151255" x2="340.982165" y2="162.753168" class="t" />
<line x1="372.151932" y1="142.818169" x2="352.669460" y2="151.151255" class="t" />
<line x1="267.897016" y1="299.621597" x2="272.342186" y2="294.410763" class="t" />
<line x1="255.463911" y1="300.638058" x2="267.897016" y2="299.621597" class="t" />
<line x1="260.663400" y1="247.363414" x2="253.395543" y2="257.722231" class="t" />
<line x1="431.768572" y1="386.433092" x2="418.819473" y2="387.616036" class="t" />
<line x1="403.417921" y1="396.794745" x2="416.049711" y2="395.118418" class="t" />
<line x1="400.026232" y1="403.111822" x2="403.417921" y2="396.794745" class="t" />
<line x1="195.840178" y1="274.690082" x2="199.044369" y2="265.829617" class="t" />
<line x1="188.808437" y1="272.292559" x2="195.840178" y2="274.690082" class="t" />
<line x1="408.244772" y1="408.515428" x2="400.026232" y2="403.111822" class="t" />
<line x1="403.406659" y1="413.998724" x2="408.244772" y2="408.515428" class="t" />
<line x1="409.946188" y1="421.665798" x2="403.406659" y2="413.998724" class="t" />
<line x1="403.823004" y1="425.946291" x2="409.946188" y2="421.665798" class="t" />
<line x1="408.007645" y1="435.416428" x2="403.823004" y2="425.946291" class="t" />
<line x1="400.875914" y1="438.156529" x2="408.007645" y2="435.416428" class="t" />
<line x1="402.168113" y1="448.745126" x2="400.875914" y2="438.156529" class="t" />
<line x1="394.412266" y1="449.683801" x2="402.168113" y2="448.745126" class="t" />
<line x1="392.488971" y1="460.544268" x2="394.412266" y2="449.683801" class="t" />
<line x1="161.474658" y1="124.854080" x2="159.807927" y2="111.878532" class="t" />
<line x1="145.421346" y1="122.649340" x2="161.474658" y2="124.854080" class="t" />
<line x1="326.856291" y1="402.137758" x2="320.143541" y2="405.598065" class="t" />
<line x1="337.957748" y1="408.033692" x2="326.856291" y2="402.137758" class="t" />
<line x1="442.607868" y1="393.406261" x2="431.768572" y2="386.433092" class="t" />
<line x1="457.693143" y1="112.568161" x2="448.011142" y2="131.195796" class="t" />
<line x1="468.419651" y1="108.426528" x2="457.693143" y2="112.568161" class="t" />
<line x1="146.537093" y1="300.982799" x2="157.201345" y2="317.534106" class="t" />
<line x1="133.107345" y1="293.931449" x2="146.537093" y2="300.982799" class="t" />
<line x1="22.673638" y1="249.222740" x2="25.749588" y2="256.389012" class="t" />
<line x1="11.800299" y1="250.685679" x2="22.673638" y2="249.222740" class="t" />
<line x1="109.944629" y1="172.081657" x2="116.767601" y2="165.610638" class="t" />
<line x1="98.974893" y1="164.216995" x2="109.944629" y2="172.081657" class="t" />
<line x1="74.000834" y1="263.793240" x2="82.967644" y2="264.540775" class="t" />
<line x1="66.813609" y1="275.531315" x2="74.000834" y2="263.793240" class="t" />
<line x1="94.610755" y1="123.070850" x2="108.540151" y2="126.176272" class="t" />
<line x1="82.645422" y1="112.771247" x2="94.610755" y2="123.070850" class="t" />
<line x1="268.973729" y1="306.899800" x2="274.632846" y2="302.860419" class="t" />
<line x1="256.737186" y1="304.662836" x2="268.973729" y2="306.899800" class="t" />
<line x1="433.828978" y1="375.379246" x2="421.819125" y2="370.723079" class="t" />
<line x1="446.034313" y1="371.094087" x2="433.828978" y2="375.379246" class="t" />
<line x1="457.033775" y1="373.063905" x2="446.034313" y2="371.094087" class="t" />
<line x1="406.346238" y1="347.120223" x2="393.491998" y2="347.917173" class="t" />
<line x1="415.966568" y1="338.388820" x2="406.346238" y2="347.120223" class="t" />
<line x1="114.048511" y1="113.949575" x2="127.321412" y2="120.681413" class="t" />
<line x1="102.596450" y1="99.184263" x2="114.048511" y2="113.949575" class="t" />
<line x1="421.600272" y1="359.682771" x2="408.883499" y2="357.657591" class="t" />
<line x1="432.777758" y1="353.101415" x2="421.600272" y2="359.682771" class="t" />
<line x1="169.323269" y1="229.152510" x2="178.280953" y2="237.792557" class="t" />
<line x1="156.531749" y1="225.707866" x2="169.323269" y2="229.152510" class="t" />
<line x1="85.698926" y1="277.440372" x2="82.967644" y2="264.540775" class="t" />
<line x1="80.123760" y1="290.073415" x2="85.698926" y2="277.440372" class="t" />
<line x1="185.408048" y1="250.722307" x2="197.530711" y2="247.255146" class="t" />
<line x1="175.529796" y1="244.067040" x2="185.408048" y2="250.722307" class="t" />
<line x1="162.487059" y1="242.960420" x2="175.529796" y2="244.067040" class="t" />
<line x1="291.457794" y1="228.193252" x2="310.815873" y2="234.037757" class="t" />
<line x1="275.822644" y1="231.851874" x2="291.457794" y2="228.193252" class="t" />
<line x1="455.348189" y1="391.425745" x2="442.607868" y2="393.406261" class="t" />
<line x1="465.683732" y1="395.289142" x2="455.348189" y2="391.425745" class="t" />
<line x1="423.946740" y1="425.495836" x2="429.283574" y2="419.140416" class="t" />
<line x1="430.103403" y1="436.541420" x2="423.946740" y2="425.495836" class="t" />
<line x1="98.348119" y1="277.058286" x2="102.362673" y2="263.293978" class="t" />
<line x1="104.742555" y1="288.333227" x2="98.348119" y2="277.058286" class="t" />
<line x1="104.833372" y1="299.771963" x2="104.742555" y2="288.333227" class="t" />
<line x1="346.489115" y1="248.991005" x2="344.609835" y2="237.944049" class="t" />
<line x1="361.589234" y1="260.399064" x2="346.489115" y2="248.991005" class="t" />
<line x1="438.427424" y1="404.052396" x2="425.507897" y2="402.651191" class="t" />
<line x1="447.774823" y1="412.980469" x2="438.427424" y2="404.052396" class="t" />
<line x1="331.118057" y1="249.726362" x2="346.489115" y2="248.991005" class="t" />
<line x1="314.686634" y1="239.512613" x2="331.118057" y2="249.726362" class="t" />
<line x1="298.843532" y1="238.774202" x2="314.686634" y2="239.512613" class="t" />
<line x1="378.148276" y1="128.530593" x2="372.151932" y2="142.818169" class="t" />
<line x1="392.333606" y1="117.276739" x2="378.148276" y2="128.530593" class="t" />
<line x1="384.224529" y1="146.628016" x2="376.445261" y2="160.737566" class="t" />
<line x1="399.847162" y1="133.929477" x2="384.224529" y2="146.628016" class="t" />
<line x1="148.720822" y1="268.630826" x2="153.207948" y2="289.136198" class="t" />
<line x1="138.616283" y1="256.650933" x2="148.720822" y2="268.630826" class="t" />
<line x1="330.685987" y1="393.062803" x2="323.366433" y2="394.316089" class="t" />
<line x1="339.810845" y1="401.581561" x2="330.685987" y2="393.062803" class="t" />
<line x1="267.947625" y1="314.706862" x2="274.528661" y2="312.131603" class="t" />
<line x1="256.764456" y1="309.298396" x2="267.947625" y2="314.706862" class="t" />
<line x1="68.218051" y1="112.602300" x2="82.645422" y2="112.771247" class="t" />
<line x1="55.197222" y1="102.128441" x2="68.218051" y2="112.602300" class="t" />
<line x1="87.942790" y1="97.396278" x2="102.596450" y2="99.184263" class="t" />
<line x1="73.552556" y1="87.727063" x2="87.942790" y2="97.396278" class="t" />
<line x1="204.482941" y1="128.861870" x2="204.046943" y2="114.286475" class="t" />
<line x1="197.506490" y1="142.526631" x2="204.482941" y2="128.861870" class="t" />
<line x1="200.531620" y1="156.184931" x2="197.506490" y2="142.526631" class="t" />
<line x1="58.243373" y1="273.415916" x2="66.813609" y2="275.531315" class="t" />
<line x1="49.898409" y1="283.920489" x2="58.243373" y2="273.415916" class="t" />
<line x1="67.903773" y1="288.575110" x2="66.813609" y2="275.531315" class="t" />
<line x1="61.070128" y1="300.053637" x2="67.903773" y2="288.575110" class="t" />
<line x1="441.723649" y1="422.881029" x2="429.283574" y2="419.140416" class="t" />
<line x1="449.404170" y1="433.385402" x2="441.723649" y2="422.881029" class="t" />
<line x1="264.587197" y1="322.460594" x2="271.725541" y2="321.567924" class="t" />
<line x1="255.324138" y1="314.195446" x2="264.587197" y2="322.460594" class="t" />
<line x1="336.551791" y1="385.790933" x2="329.301019" y2="384.862898" class="t" />
<line x1="343.135559" y1="396.345156" x2="336.551791" y2="385.790933" class="t" />
<line x1="49.466746" y1="296.942841" x2="49.898409" y2="283.920489" class="t" />
<line x1="41.666590" y1="307.312740" x2="49.466746" y2="296.942841" class="t" />
<line x1="441.733802" y1="442.356417" x2="430.103403" y2="436.541420" class="t" />
<line x1="447.634745" y1="454.133213" x2="441.733802" y2="442.356417" class="t" />
</svg>
