<?xml version="1.0"?>
<svg width="5917" height="6481" version="1.1" xmlns="http://www.w3.org/2000/svg" >
<defs>
<style type="text/css"><![CDATA[
.m {stroke:rgb(255,0,0);stroke-width:8.101250;}
.v {stroke:rgb(0,0,255);stroke-width:8.101250;}
.b {stroke:rgb(0,0,0);stroke-width:16.202500;fill:white}
.n {stroke:rgb(128,128,128);stroke-width:8.101250}
.t {stroke:rgb(0,128,0);stroke-width:8.101250;}
.c {stroke:rgb(128,128,128);stroke-width:8.101250;stroke-dasharray:59.170000, 59.170000;}
]]></style>
</defs>
<path fill="none" style="stroke:black;stroke-width:16.202500;" d=" M 2317.67 2832.45 L 2740.69 3119.76 M 2886.24 2641.28 L 2317.67 2832.45 M 4116.92 1951.53 L 4010.62 1576.56 M 4407.06 2237.27 L 4116.92 1951.53 M 4113.68 2542.75 L 4407.06 2237.27 M 4483.86 2842.02 L 4113.68 2542.75 M 4349.49 4471.56 L 4414.67 3829.44 M 4596.92 1391.17 L 4485.69 1764.7 M 4661.85 2364.03 L 4618.59 2834.33 M 5293.63 2571.33 L 5102.53 2139.44 M 5005.06 2793.86 L 5296.43 2217.95 M 5296.43 2217.95 L 4661.85 2364.03 M 4482.01 2307.59 L 4715.22 2599.7 M 3343.03 2097.32 L 2960.79 1729.09 M 2960.79 1729.09 L 2647.1 2644.85 M 2647.1 2644.85 L 3246.52 2622.31 M 5255.49 2166.25 L 5384.44 1815.41 M 2098.66 4002.56 L 2313.35 3362.78 M 1625.49 3212.11 L 1887.42 3597.19 M 1747.81 3330.07 L 1999.33 2835.8 M 2549.29 3500.23 L 2098.66 4002.56 M 428.956 3560.95 L 664.624 3791.26 M 831.63 3690.88 L 571.405 3343.12 M 1561.72 3216.58 L 1360.56 3601.52 M 1499.88 3723.35 L 1747.81 3330.07 M 1307.35 3248.66 L 1235.17 3634.71 M 1672.04 3656.58 L 2054.99 3569.4 M 1235.17 3634.71 L 1438.56 3946.16 M 1526.15 3303.29 L 1444.6 3760.99 M 1887.42 3597.19 L 1526.15 3303.29 M 1444.6 3760.99 L 1619.38 3958.26 M 2002.18 4727.05 L 1949.09 4967.37 M 1949.09 4967.37 L 2267.77 4923.76 M 2268.99 4868.5 L 1947.4 4875.03 M 2131.9 4545.37 L 2220.39 4937.55 M 2220.39 4937.55 L 2325.76 4573.51 M 2267.77 4923.76 L 2131.9 4545.37 M 2417.95 4520.02 L 2268.99 4868.5 M 2625.65 4684.01 L 2984.89 4754.51 M 3356.2 4034.21 L 2814.56 3923.12 M 2808.95 5000.91 L 2625.65 4684.01 M 1783.07 4671.73 L 1885.96 4987.41 M 2134.79 4934.04 L 2068.47 4697.03 M 1898 4408.76 L 2002.18 4727.05 M 664.624 3791.26 L 909.802 3983.56 M 1360.56 3601.52 L 1137.64 3892.11 M 894.836 4160.78 L 918.351 4477.15 M 909.802 3983.56 L 602.802 4036.87 M 602.802 4036.87 L 894.836 4160.78 M 1086.79 4434.08 L 1173.16 4272.57 M 1251.43 4128.82 L 1339.73 3965.6 M 1339.73 3965.6 L 1376.88 4147.42 M 1173.16 4272.57 L 1251.43 4128.82 M 1619.38 3958.26 L 1499.88 3723.35 M 1376.88 4147.42 L 1397.73 4309.77 M 1137.64 3892.11 L 831.63 3690.88 M 1330.21 4480.02 L 1595.31 4403.9 M 1397.73 4309.77 L 1330.21 4480.02 M 1438.56 3946.16 L 1672.04 3656.58 M 959.165 4804.12 L 1086.79 4434.08 M 918.351 4477.15 L 959.165 4804.12 M 1343.35 4516.11 L 1026.84 4746.41 M 3035.09 4448.02 L 2529.94 4109.42 M 2529.94 4109.42 L 3042.09 4437.34 M 2325.76 4573.51 L 2253.03 4341.97 M 2253.03 4341.97 L 2417.95 4520.02 M 1742.49 4998.2 L 1813.24 4673.8 M 1595.31 4403.9 L 1343.35 4516.11 M 1831.37 4189.09 L 1783.07 4671.73 M 1813.24 4673.8 L 1831.37 4189.09 M 2068.47 4697.03 L 1898 4408.76 M 3162.15 4009.98 L 2908.55 3677.56 M 2647 3243.98 L 2390.72 2801.46 M 3223.97 4412.1 L 3162.15 4009.98 M 1765.21 2850.77 L 2065.99 3033.81 M 2194.94 2898.76 L 2549.29 3500.23 M 2313.35 3362.78 L 1957.27 2762.33 M 2814.56 3923.12 L 2991.74 4446.88 M 2806.6 4083.05 L 2461.88 4299.13 M 2065.99 3033.81 L 1893.75 2726.72 M 1893.75 2726.72 L 1625.49 3212.11 M 3510.38 1964.9 L 3861.49 2580.57 M 4398.42 3727.87 L 4326.78 3076.86 M 4126.48 3121.23 L 4398.42 3727.87 M 3807.33 3475.76 L 3706.59 3820.63 M 3861.49 2580.57 L 3343.03 2097.32 M 3246.52 2622.31 L 3627.49 2816.7 M 3706.59 3820.63 L 3614.29 4131.34 M 1998.42 110.374 L 1656.51 0 M 1656.51 0 L 1922.75 622.733 M 2238.33 328.336 L 1998.42 110.374 M 3224.15 2527.61 L 3253.63 3174.34 M 3459.44 3014.19 L 3224.15 2527.61 M 3360.08 2482.92 L 3459.44 3014.19 M 3627.49 2816.7 L 3360.08 2482.92 M 3625.36 3418.07 L 3805.72 3052.41 M 2740.69 3119.76 L 3173.73 3543.81 M 3173.73 3543.81 L 2647 3243.98 M 3650.47 4482.97 L 3783.37 4755.47 M 3558.31 4771.8 L 3650.47 4482.97 M 3269.92 4536.9 L 3558.31 4771.8 M 3783.37 4755.47 L 3986.74 5066.89 M 3986.74 5066.89 L 4124.6 4829.11 M 3954.64 4571.66 L 4209.08 4397.24 M 4124.6 4829.11 L 3954.64 4571.66 M 3927.63 3144.44 L 3625.36 3418.07 M 3870.87 3579.61 L 4183.41 3602.99 M 4183.41 3602.99 L 3927.63 3144.44 M 4480.02 4350.99 L 4780.23 3842.12 M 4780.23 3842.12 L 4373.83 3717.83 M 2993.29 4014.84 L 3269.92 4536.9 M 3357.8 4116.4 L 2993.29 4014.84 M 3356.99 4082.82 L 3714.91 4091.07 M 4010.43 4186.08 L 4181.83 3618.68 M 4181.83 3618.68 L 3870.87 3579.61 M 4373.83 3717.83 L 4010.43 4186.08 M 4209.08 4397.24 L 4480.02 4350.99 M 3714.91 4091.07 L 3357.8 4116.4 M 2980.75 4042.55 L 3356.99 4082.82 M 3253.63 3174.34 L 2886.24 2641.28 M 2908.55 3677.56 L 2806.6 4083.05 M 2615.55 4416.72 L 2980.75 4042.55 M 3418.39 4179.52 L 3952.26 3762.8 M 3412.16 3656.7 L 3418.39 4179.52 M 3829.58 3576.93 L 3412.16 3656.7 M 3805.72 3052.41 L 3829.58 3576.93 M 3952.26 3762.8 L 4126.48 3121.23 M 5014.81 2385.32 L 5255.49 2166.25 M 4998.87 1655.48 L 4827.13 1988.26 M 4485.69 1764.7 L 4630.11 2145.44 M 4827.13 1988.26 L 5039.27 1679.65 M 4630.11 2145.44 L 4515.09 2430.57 M 5810.94 3741.09 L 5136.91 3763.84 M 5136.91 3763.84 L 5595.61 3269.44 M 4826.29 2770.53 L 5014.81 2385.32 M 5048.44 2403.69 L 4826.29 2770.53 M 4510.16 3561.9 L 4923.71 3628.93 M 5276.5 2903.54 L 5136.29 3268.39 M 4923.71 3628.93 L 4684.44 3972.83 M 4732.62 4301.34 L 4853.03 4666.22 M 4853.03 4666.22 L 5030.09 4051.36 M 4618.59 2834.33 L 4537.11 3136.26 M 4383.72 4275.26 L 4074.49 4228.59 M 4074.49 4228.59 L 4519.62 4621.14 M 4519.62 4621.14 L 4732.62 4301.34 M 5595.61 3269.44 L 5917.02 3013.56 M 4684.44 3972.83 L 4383.72 4275.26 M 4537.11 3136.26 L 4510.16 3561.9 M 5685.79 2466.96 L 5635.59 3067.27 M 5917.02 3013.56 L 5685.79 2466.96 M 5635.59 3067.27 L 5293.63 2571.33 M 4515.09 2430.57 L 4479.16 2125.22 M 4479.16 2125.22 L 4210.27 2452.47 M 4210.27 2452.47 L 4483.86 2842.02 M 4746.26 3359.28 L 4781.82 3058.78 M 4472.33 3487.84 L 4746.26 3359.28 M 4715.22 2599.7 L 5276.5 2903.54 M 5372.86 2377.76 L 5048.44 2403.69 M 5432.37 3013.22 L 5372.86 2377.76 M 5136.29 3268.39 L 5432.37 3013.22 M 4326.78 3076.86 L 3807.33 3475.76 M 4414.67 3829.44 L 4472.33 3487.84 M 4781.82 3058.78 L 5005.06 2793.86 M 5030.09 4051.36 L 5665.64 4125.36 M 5665.64 4125.36 L 5810.94 3741.09 M 2390.72 2801.46 L 3245.4 2346.98 M 3342.94 1461.25 L 3510.38 1964.9 M 4010.62 1576.56 L 3766.29 1050.75 M 3766.29 1050.75 L 3811.76 691.706 M 4197.52 5270.62 L 3931.42 5175.81 M 4070.47 5728.25 L 4197.52 5270.62 M 3893.79 4040.8 L 3559.99 4474.77 M 4840.19 864.86 L 4596.92 1391.17 M 5039.27 1679.65 L 5187.69 1285.71 M 4899.14 6481.46 L 5044.91 5965.51 M 5027.31 1348.85 L 4803.99 1836.27 M 5102.53 2139.44 L 5394.65 1557.46 M 4803.99 1836.27 L 4388.14 1848.66 M 4388.14 1848.66 L 4482.01 2307.59 M 4484.09 6452.84 L 4899.14 6481.46 M 5183.58 1277.19 L 4998.87 1655.48 M 5384.44 1815.41 L 5618.18 1409.46 M 1626.95 3055.3 L 1415.24 2828.57 M 1415.24 2828.57 L 1307.35 3248.66 M 1660.19 1786.06 L 1249.56 1740.21 M 1249.56 1740.21 L 1448.09 2183.56 M 1275.52 3346.66 L 1512.58 3362.53 M 1999.33 2835.8 L 1428.94 2816.51 M 1428.94 2816.51 L 1626.95 3055.3 M 1512.58 3362.53 L 1765.21 2850.77 M 1156.27 2884.58 L 962.457 3411.32 M 962.457 3411.32 L 1275.52 3346.66 M 1480.07 2875.35 L 1156.27 2884.58 M 1448.09 2183.56 L 2008.15 2146.85 M 3638.52 4926.73 L 3797.86 4723.28 M 297.016 3261.46 L 428.956 3560.95 M 1026.84 4746.41 L 803.941 4986.04 M 1694.28 3439.52 L 1894.92 3159.73 M 1837.79 2914.76 L 1561.72 3216.58 M 571.405 3343.12 L 330.578 3012.5 M 2475.4 3462.79 L 2601.89 3261.68 M 2601.89 3261.68 L 2158.17 2864.9 M 2158.17 2864.9 L 1944.54 3203.07 M 1944.54 3203.07 L 1694.28 3439.52 M 2054.99 3569.4 L 2475.4 3462.79 M 516.086 6087.04 L 832.321 6040.27 M 820.698 5664.7 L 1253.15 6010.94 M 1253.15 6010.94 L 1132.64 5705.2 M 832.321 6040.27 L 1305.88 5932.07 M 1305.88 5932.07 L 820.698 5664.7 M 1372.85 5534.46 L 1754.85 5260.96 M 1460.34 5154.63 L 1372.85 5534.46 M 1320.81 5371.91 L 1558 5599.36 M 1558 5599.36 L 1483.2 5216.84 M 1132.64 5705.2 L 1201.93 5404.4 M 2101.59 5162.33 L 2330.84 5124.25 M 1827.31 5420.49 L 2101.59 5162.33 M 2799.62 5419.87 L 2808.95 5000.91 M 2687.62 5186.86 L 2799.62 5419.87 M 2516.2 5264.43 L 2890.18 5309.29 M 2890.18 5309.29 L 2747.27 5093.85 M 3140.14 4209.36 L 3344.97 4738.46 M 2503.73 5003.3 L 2687.62 5186.86 M 2747.27 5093.85 L 2503.73 5003.3 M 2330.84 5124.25 L 2516.2 5264.43 M 3361.38 5233.18 L 3638.52 4926.73 M 3344.97 4738.46 L 3361.38 5233.18 M 3258.54 4477.06 L 2688.68 4428.27 M 3340.25 4206.56 L 3258.54 4477.06 M 1758.35 5080.44 L 1460.34 5154.63 M 1947.4 4875.03 L 1524.98 4925.96 M 2066.66 5354.04 L 2134.79 4934.04 M 1885.96 4987.41 L 2066.66 5354.04 M 669.976 5200.94 L 438.562 5308.84 M 438.562 5308.84 L 797.248 5314.34 M 666.745 5431.15 L 490.91 5307.35 M 490.91 5307.35 L 707.285 5523.34 M 1986.78 2770.42 L 1726.93 2609.33 M 1726.93 2609.33 L 1837.79 2914.76 M 803.941 4986.04 L 741.85 5280.27 M 741.85 5280.27 L 934.555 5033.45 M 797.248 5314.34 L 1051.56 5108.98 M 934.555 5033.45 L 669.976 5200.94 M 602.613 5237.65 L 671.136 5441.48 M 874.314 5003.41 L 602.613 5237.65 M 1068 5132.06 L 742.403 5103.19 M 742.403 5103.19 L 981.777 5282.57 M 671.136 5441.48 L 832.12 5366.96 M 832.12 5366.96 L 666.745 5431.15 M 981.777 5282.57 L 874.314 5003.41 M 707.285 5523.34 L 516.086 6087.04 M 0 3214.47 L 297.016 3261.46 M 10.0377 2959.33 L 0 3214.47 M 330.578 3012.5 L 10.0377 2959.33 M 1201.93 5404.4 L 1401.93 5140.86 M 1894.92 3159.73 L 1986.78 2770.42 M 1382.36 4890.73 L 1068 5132.06 M 1051.56 5108.98 L 1382.36 4890.73 M 2688.68 4428.27 L 3015.99 4897.29 M 3015.99 4897.29 L 3298.56 4895.42 M 3298.56 4895.42 L 3035.09 4448.02 M 3042.09 4437.34 L 3526.14 4625.17 M 3526.14 4625.17 L 3140.14 4209.36 M 1754.85 5260.96 L 1349.46 5498.41 M 1349.46 5498.41 L 1827.31 5420.49 M 3799.1 4392.26 L 3340.25 4206.56 M 3391.69 4653.87 L 3799.1 4392.26 M 2984.89 4754.51 L 3391.69 4653.87 M 1524.98 4925.96 L 1232.92 5076.01 M 1543.05 5354.98 L 1742.49 4998.2 M 1401.93 5140.86 L 1220.75 5417.68 M 1220.75 5417.68 L 1543.05 5354.98 M 1232.92 5076.01 L 1320.81 5371.91 M 1483.2 5216.84 L 1758.35 5080.44 M 2008.15 2146.85 L 2289.36 2461.56 M 2289.36 2461.56 L 2194.94 2898.76 M 2078.35 1612.63 L 1914.11 1834.08 M 2167.04 4503.33 L 1631.86 4929.13 M 1631.86 4929.13 L 1907.27 4942.1 M 2171.09 4797.85 L 2615.55 4416.72 M 1957.27 2762.33 L 1516.14 2688.43 M 1516.14 2688.43 L 1158.22 2912.06 M 1158.22 2912.06 L 1480.07 2875.35 M 3797.86 4723.28 L 3356.2 4034.21 M 3148.39 4762.69 L 3223.97 4412.1 M 2991.74 4446.88 L 2592.84 5161.55 M 2592.84 5161.55 L 3148.39 4762.69 M 2461.88 4299.13 L 2167.04 4503.33 M 1914.11 1834.08 L 1660.19 1786.06 M 3361.41 592.942 L 3107.05 483.654 M 3107.05 483.654 L 3150.25 984.895 M 3150.25 984.895 L 3342.94 1461.25 M 3931.42 5175.81 L 3702.72 4733.39 M 3614.29 4131.34 L 3589.55 4495.97 M 3589.55 4495.97 L 3893.79 4040.8 M 3245.4 2346.98 L 3112.94 1850.5 M 3112.94 1850.5 L 2980.24 1365.22 M 2980.24 1365.22 L 2876.19 1829.64 M 2296.57 734.098 L 2941.66 797.489 M 2941.66 797.489 L 2526.21 553.482 M 3812.56 5627.64 L 4070.47 5728.25 M 3629.55 4951.52 L 3812.56 5627.64 M 3559.99 4474.77 L 3629.55 4951.52 M 1922.75 622.733 L 2225.14 1124.09 M 2876.19 1829.64 L 3205.08 1485.62 M 3205.08 1485.62 L 2936.25 838.802 M 2526.21 553.482 L 2238.33 328.336 M 2602.28 1097.93 L 2321.38 1285.46 M 2644.45 1637.86 L 2602.28 1097.93 M 2321.38 1285.46 L 2416.22 1679.49 M 2632.08 1453.59 L 2348.87 1515.17 M 2634.42 1858.87 L 2632.08 1453.59 M 2228.64 2127.68 L 2634.42 1858.87 M 2348.87 1515.17 L 2078.35 1612.63 M 2608.16 1097.5 L 2644.45 1637.86 M 2869.62 1311.96 L 2608.16 1097.5 M 3317.87 4817.39 L 3379.4 4357.6 M 3300.33 5205.19 L 3647.05 5144.23 M 3647.05 5144.23 L 3317.87 4817.39 M 3070.6 5008.55 L 3300.33 5205.19 M 1907.27 4942.1 L 1928.61 5228.84 M 1928.61 5228.84 L 2487.48 4960.44 M 1867.7 4944.77 L 1780.5 5221.17 M 2717.67 928.388 L 2531.66 1323.78 M 2531.66 1323.78 L 2869.62 1311.96 M 2567.94 4665.85 L 2979.93 4615.97 M 2671.42 5414.53 L 2496.6 5148.06 M 3181.53 4496.07 L 2642.45 3768.14 M 2642.45 3768.14 L 2973.85 4579.48 M 2979.93 4615.97 L 2462.22 3908.81 M 2462.22 3908.81 L 2447.27 4345.52 M 2973.85 4579.48 L 2567.94 4665.85 M 2909.3 5264.34 L 3070.6 5008.55 M 2608.12 5446.6 L 2909.3 5264.34 M 2496.6 5148.06 L 2608.12 5446.6 M 3379.4 4357.6 L 2998.09 3609.03 M 2998.09 3609.03 L 3181.53 4496.07 M 1842.83 5553.12 L 2671.42 5414.53 M 1780.5 5221.17 L 1842.83 5553.12 M 2487.48 4960.44 L 1867.7 4944.77 M 2416.22 1679.49 L 2625.58 2229.7 M 2417.41 1679.04 L 2228.64 2127.68 M 2625.58 2229.7 L 2417.41 1679.04 M 2447.27 4345.52 L 2171.09 4797.85 M 2225.14 1124.09 L 2717.67 928.388 M 2936.25 838.802 L 2296.57 734.098 M 5187.69 1285.71 L 5175.08 727.658 M 5175.08 727.658 L 4840.19 864.86 M 5377.47 753.745 L 5183.58 1277.19 M 5618.18 1409.46 L 5581.62 808.739 M 4591.72 6199.52 L 4519.27 5877.99 M 4103.68 5986.48 L 4484.09 6452.84 M 4307.11 5647.95 L 4103.68 5986.48 M 4519.27 5877.99 L 4307.11 5647.95 M 5581.62 808.739 L 5817.84 492.22 M 4336.11 429.578 L 4471.28 972.284 M 4696.36 339.359 L 4336.11 429.578 M 4055.25 5855.82 L 4338.84 5988.14 M 5817.84 492.22 L 5776.42 94.3422 M 5776.42 94.3422 L 5516.15 388.993 M 3921.25 5478.91 L 4055.25 5855.82 M 4846.34 5684.58 L 4646.92 5378.04 M 3877.13 5199.88 L 3921.25 5478.91 M 4474.46 1751.08 L 4703.98 1466.38 M 3969.02 726.232 L 4415.15 1260.11 M 4471.28 972.284 L 3969.02 726.232 M 4646.92 5378.04 L 4570.27 4925.2 M 4570.27 4925.2 L 4376.19 5120.85 M 4269.6 2162.14 L 4474.46 1751.08 M 5503.71 818.403 L 5207 650.48 M 5266.7 959.013 L 5503.71 818.403 M 4257.14 1714.83 L 4041.47 1936.21 M 4041.47 1936.21 L 4269.6 2162.14 M 5450.71 412.064 L 5343.18 109.542 M 5343.18 109.542 L 5048.77 335.9 M 5207 650.48 L 5450.71 412.064 M 4875.88 676.2 L 4696.36 339.359 M 4832.09 1033.95 L 5266.7 959.013 M 4703.98 1466.38 L 5027.31 1348.85 M 5048.77 335.9 L 4875.88 676.2 M 5516.15 388.993 L 5377.47 753.745 M 3811.76 691.706 L 3544.68 407.194 M 3544.68 407.194 L 3268.78 127.124 M 3268.78 127.124 L 3361.41 592.942 M 4376.19 5120.85 L 4171.3 4893.25 M 5222.58 1133.24 L 5221.54 826.998 M 5221.54 826.998 L 4832.09 1033.95 M 5044.91 5965.51 L 4846.34 5684.58 M 4338.84 5988.14 L 4591.72 6199.52 M 3702.72 4733.39 L 3877.13 5199.88 M 5394.65 1557.46 L 5222.58 1133.24 M 4171.3 4893.25 L 4349.49 4471.56 M 3955.55 1782.43 L 4257.14 1714.83 M 4415.15 1260.11 L 3955.55 1782.43" />
<path fill="none" class="c" d=" M 2740.69 3119.76 L 2886.24 2641.28 M 2740.69 3119.76 L 3253.63 3174.34 M 3173.73 3543.81 L 3253.63 3174.34 M 3173.73 3543.81 L 3714.91 4091.07 M 3714.91 4091.07 L 3253.63 3174.34 M 3173.73 3543.81 L 3356.99 4082.82 M 3625.36 3418.07 L 3253.63 3174.34 M 3714.91 4091.07 L 3625.36 3418.07 M 3173.73 3543.81 L 2908.55 3677.56 M 3625.36 3418.07 L 3459.44 3014.19 M 4010.43 4186.08 L 3625.36 3418.07 M 3805.72 3052.41 L 3459.44 3014.19 M 3870.87 3579.61 L 3625.36 3418.07 M 4010.43 4186.08 L 3870.87 3579.61 M 3627.49 2816.7 L 3459.44 3014.19 M 3870.87 3579.61 L 3927.63 3144.44 M 3805.72 3052.41 L 3627.49 2816.7 M 3714.91 4091.07 L 4010.43 4186.08 M 2647 3243.98 L 2908.55 3677.56 M 2908.55 3677.56 L 3356.99 4082.82 M 3459.44 3014.19 L 3253.63 3174.34 M 3805.72 3052.41 L 4126.48 3121.23 M 2908.55 3677.56 L 2980.75 4042.55 M 3954.64 4571.66 L 4010.43 4186.08 M 2549.29 3500.23 L 2908.55 3677.56 M 2806.6 4083.05 L 2980.75 4042.55 M 4209.08 4397.24 L 4010.43 4186.08 M 2814.56 3923.12 L 2908.55 3677.56 M 2549.29 3500.23 L 2814.56 3923.12 M 2806.6 4083.05 L 2615.55 4416.72 M 2529.94 4109.42 L 2814.56 3923.12 M 2461.88 4299.13 L 2615.55 4416.72 M 3140.14 4209.36 L 2814.56 3923.12 M 2529.94 4109.42 L 3140.14 4209.36 M 2167.04 4503.33 L 2615.55 4416.72 M 3140.14 4209.36 L 3356.2 4034.21 M 3042.09 4437.34 L 3140.14 4209.36 M 2167.04 4503.33 L 2171.09 4797.85 M 3344.97 4738.46 L 3356.2 4034.21 M 1907.27 4942.1 L 2171.09 4797.85 M 4209.08 4397.24 L 4373.83 3717.83 M 2814.56 3923.12 L 3162.15 4009.98 M 2549.29 3500.23 L 2529.94 4109.42 M 2487.48 4960.44 L 2171.09 4797.85 M 2647 3243.98 L 2549.29 3500.23 M 3829.58 3576.93 L 4126.48 3121.23 M 2814.56 3923.12 L 3223.97 4412.1 M 2098.66 4002.56 L 2529.94 4109.42 M 2567.94 4665.85 L 2171.09 4797.85 M 2647 3243.98 L 2194.94 2898.76 M 2253.03 4341.97 L 2529.94 4109.42 M 2567.94 4665.85 L 2447.27 4345.52 M 2390.72 2801.46 L 2194.94 2898.76 M 2417.95 4520.02 L 2529.94 4109.42 M 2979.93 4615.97 L 2447.27 4345.52 M 2390.72 2801.46 L 2289.36 2461.56 M 2417.95 4520.02 L 2688.68 4428.27 M 2688.68 4428.27 L 2529.94 4109.42 M 2625.65 4684.01 L 2688.68 4428.27 M 2688.68 4428.27 L 3035.09 4448.02 M 2984.89 4754.51 L 2688.68 4428.27 M 3015.99 4897.29 L 3035.09 4448.02 M 2984.89 4754.51 L 3258.54 4477.06 M 3245.4 2346.98 L 2289.36 2461.56 M 3391.69 4653.87 L 3258.54 4477.06 M 3245.4 2346.98 L 2625.58 2229.7 M 2625.58 2229.7 L 2289.36 2461.56 M 3391.69 4653.87 L 3340.25 4206.56 M 2876.19 1829.64 L 2625.58 2229.7 M 3245.4 2346.98 L 2876.19 1829.64 M 2625.58 2229.7 L 2228.64 2127.68 M 2644.45 1637.86 L 2625.58 2229.7 M 3112.94 1850.5 L 2876.19 1829.64 M 2228.64 2127.68 L 2289.36 2461.56 M 2644.45 1637.86 L 2416.22 1679.49 M 2876.19 1829.64 L 2644.45 1637.86 M 2228.64 2127.68 L 2008.15 2146.85 M 2644.45 1637.86 L 2321.38 1285.46 M 2876.19 1829.64 L 2869.62 1311.96 M 2869.62 1311.96 L 2644.45 1637.86 M 1914.11 1834.08 L 2008.15 2146.85 M 2228.64 2127.68 L 1914.11 1834.08 M 3205.08 1485.62 L 2869.62 1311.96 M 2417.95 4520.02 L 2625.65 4684.01 M 3829.58 3576.93 L 3952.26 3762.8 M 2991.74 4446.88 L 3223.97 4412.1 M 2098.66 4002.56 L 2253.03 4341.97 M 2228.64 2127.68 L 2078.35 1612.63 M 2936.25 838.802 L 2869.62 1311.96 M 2268.99 4868.5 L 2625.65 4684.01 M 2487.48 4960.44 L 2567.94 4665.85 M 2991.74 4446.88 L 3148.39 4762.69 M 2717.67 928.388 L 2869.62 1311.96 M 2503.73 5003.3 L 2625.65 4684.01 M 2268.99 4868.5 L 2503.73 5003.3 M 3070.6 5008.55 L 2567.94 4665.85 M 2487.48 4960.44 L 3070.6 5008.55 M 2503.73 5003.3 L 2808.95 5000.91 M 2268.99 4868.5 L 2330.84 5124.25 M 2330.84 5124.25 L 2503.73 5003.3 M 3070.6 5008.55 L 2973.85 4579.48 M 2487.48 4960.44 L 2909.3 5264.34 M 2687.62 5186.86 L 2808.95 5000.91 M 1947.4 4875.03 L 2330.84 5124.25 M 2496.6 5148.06 L 2909.3 5264.34 M 2516.2 5264.43 L 2503.73 5003.3 M 1947.4 4875.03 L 2101.59 5162.33 M 3317.87 4817.39 L 2973.85 4579.48 M 2516.2 5264.43 L 2747.27 5093.85 M 1758.35 5080.44 L 2101.59 5162.33 M 1947.4 4875.03 L 1758.35 5080.44 M 3181.53 4496.07 L 2973.85 4579.48 M 3317.87 4817.39 L 3181.53 4496.07 M 1754.85 5260.96 L 2101.59 5162.33 M 1758.35 5080.44 L 1754.85 5260.96 M 1524.98 4925.96 L 1758.35 5080.44 M 3379.4 4357.6 L 3181.53 4496.07 M 1754.85 5260.96 L 1827.31 5420.49 M 1460.34 5154.63 L 1754.85 5260.96 M 1524.98 4925.96 L 1483.2 5216.84 M 3070.6 5008.55 L 3317.87 4817.39 M 2487.48 4960.44 L 2496.6 5148.06 M 1232.92 5076.01 L 1483.2 5216.84 M 3300.33 5205.19 L 3317.87 4817.39 M 1867.7 4944.77 L 2496.6 5148.06 M 1320.81 5371.91 L 1483.2 5216.84 M 4126.48 3121.23 L 3627.49 2816.7 M 1867.7 4944.77 L 2671.42 5414.53 M 3714.91 4091.07 L 3954.64 4571.66 M 3861.49 2580.57 L 3627.49 2816.7 M 4126.48 3121.23 L 3861.49 2580.57 M 1780.5 5221.17 L 2671.42 5414.53 M 3650.47 4482.97 L 3954.64 4571.66 M 3714.91 4091.07 L 3650.47 4482.97 M 3861.49 2580.57 L 3246.52 2622.31 M 4326.78 3076.86 L 3861.49 2580.57 M 4126.48 3121.23 L 4326.78 3076.86 M 3783.37 4755.47 L 3954.64 4571.66 M 3357.8 4116.4 L 3650.47 4482.97 M 3343.03 2097.32 L 3246.52 2622.31 M 4113.68 2542.75 L 3861.49 2580.57 M 4326.78 3076.86 L 4113.68 2542.75 M 3783.37 4755.47 L 4124.6 4829.11 M 4326.78 3076.86 L 4483.86 2842.02 M 3357.8 4116.4 L 3558.31 4771.8 M 4746.26 3359.28 L 4483.86 2842.02 M 4326.78 3076.86 L 4746.26 3359.28 M 3357.8 4116.4 L 3269.92 4536.9 M 5136.29 3268.39 L 4483.86 2842.02 M 4746.26 3359.28 L 5136.29 3268.39 M 4326.78 3076.86 L 4472.33 3487.84 M 5136.29 3268.39 L 4826.29 2770.53 M 4826.29 2770.53 L 4483.86 2842.02 M 4923.71 3628.93 L 5136.29 3268.39 M 4746.26 3359.28 L 4923.71 3628.93 M 3807.33 3475.76 L 4472.33 3487.84 M 4515.09 2430.57 L 4483.86 2842.02 M 4923.71 3628.93 L 5136.91 3763.84 M 5136.91 3763.84 L 5136.29 3268.39 M 4746.26 3359.28 L 4510.16 3561.9 M 3807.33 3475.76 L 4414.67 3829.44 M 4515.09 2430.57 L 4210.27 2452.47 M 4923.71 3628.93 L 5030.09 4051.36 M 5595.61 3269.44 L 5136.29 3268.39 M 4746.26 3359.28 L 4537.11 3136.26 M 3893.79 4040.8 L 4414.67 3829.44 M 5595.61 3269.44 L 5276.5 2903.54 M 4781.82 3058.78 L 4537.11 3136.26 M 3893.79 4040.8 L 4349.49 4471.56 M 5635.59 3067.27 L 5276.5 2903.54 M 5595.61 3269.44 L 5635.59 3067.27 M 4781.82 3058.78 L 4618.59 2834.33 M 3559.99 4474.77 L 4349.49 4471.56 M 5293.63 2571.33 L 5276.5 2903.54 M 5917.02 3013.56 L 5635.59 3067.27 M 5005.06 2793.86 L 4618.59 2834.33 M 3702.72 4733.39 L 4349.49 4471.56 M 5293.63 2571.33 L 4715.22 2599.7 M 3559.99 4474.77 L 3702.72 4733.39 M 5005.06 2793.86 L 4661.85 2364.03 M 3702.72 4733.39 L 4171.3 4893.25 M 5102.53 2139.44 L 4715.22 2599.7 M 3629.55 4951.52 L 3702.72 4733.39 M 3877.13 5199.88 L 4171.3 4893.25 M 5102.53 2139.44 L 4482.01 2307.59 M 3629.55 4951.52 L 3931.42 5175.81 M 3877.13 5199.88 L 4376.19 5120.85 M 5102.53 2139.44 L 4803.99 1836.27 M 4803.99 1836.27 L 4482.01 2307.59 M 3812.56 5627.64 L 3931.42 5175.81 M 3921.25 5478.91 L 4376.19 5120.85 M 5394.65 1557.46 L 4803.99 1836.27 M 3807.33 3475.76 L 3893.79 4040.8 M 4684.44 3972.83 L 5030.09 4051.36 M 5030.09 4051.36 L 5136.91 3763.84 M 3921.25 5478.91 L 4646.92 5378.04 M 5136.29 3268.39 L 5048.44 2403.69 M 4826.29 2770.53 L 4515.09 2430.57 M 3706.59 3820.63 L 3893.79 4040.8 M 5030.09 4051.36 L 5810.94 3741.09 M 5432.37 3013.22 L 5048.44 2403.69 M 5014.81 2385.32 L 4515.09 2430.57 M 3614.29 4131.34 L 3893.79 4040.8 M 3343.03 2097.32 L 2647.1 2644.85 M 4407.06 2237.27 L 3861.49 2580.57 M 5014.81 2385.32 L 4630.11 2145.44 M 1831.37 4189.09 L 2253.03 4341.97 M 2936.25 838.802 L 2717.67 928.388 M 2228.64 2127.68 L 2348.87 1515.17 M 4480.02 4350.99 L 4373.83 3717.83 M 2098.66 4002.56 L 1831.37 4189.09 M 3412.16 3656.7 L 3952.26 3762.8 M 5014.81 2385.32 L 4827.13 1988.26 M 2296.57 734.098 L 2717.67 928.388 M 2634.42 1858.87 L 2348.87 1515.17 M 1831.37 4189.09 L 1898 4408.76 M 1619.38 3958.26 L 1831.37 4189.09 M 1898 4408.76 L 2253.03 4341.97 M 5255.49 2166.25 L 4827.13 1988.26 M 2296.57 734.098 L 2225.14 1124.09 M 2098.66 4002.56 L 1619.38 3958.26 M 4116.92 1951.53 L 3861.49 2580.57 M 1619.38 3958.26 L 1376.88 4147.42 M 1376.88 4147.42 L 1831.37 4189.09 M 1887.42 3597.19 L 1619.38 3958.26 M 4116.92 1951.53 L 3510.38 1964.9 M 1438.56 3946.16 L 1376.88 4147.42 M 1619.38 3958.26 L 1438.56 3946.16 M 1376.88 4147.42 L 1595.31 4403.9 M 1595.31 4403.9 L 1831.37 4189.09 M 1887.42 3597.19 L 1444.6 3760.99 M 4010.62 1576.56 L 3510.38 1964.9 M 1438.56 3946.16 L 1339.73 3965.6 M 1499.88 3723.35 L 1438.56 3946.16 M 1397.73 4309.77 L 1595.31 4403.9 M 1595.31 4403.9 L 1813.24 4673.8 M 4010.62 1576.56 L 3342.94 1461.25 M 1137.64 3892.11 L 1339.73 3965.6 M 1499.88 3723.35 L 1235.17 3634.71 M 1438.56 3946.16 L 1137.64 3892.11 M 1343.35 4516.11 L 1813.24 4673.8 M 3766.29 1050.75 L 3342.94 1461.25 M 1137.64 3892.11 L 894.836 4160.78 M 894.836 4160.78 L 1339.73 3965.6 M 1747.81 3330.07 L 1235.17 3634.71 M 1438.56 3946.16 L 1360.56 3601.52 M 1343.35 4516.11 L 1742.49 4998.2 M 3766.29 1050.75 L 3150.25 984.895 M 1672.04 3656.58 L 1360.56 3601.52 M 1343.35 4516.11 L 1382.36 4890.73 M 1382.36 4890.73 L 1742.49 4998.2 M 3811.76 691.706 L 3150.25 984.895 M 1694.28 3439.52 L 1360.56 3601.52 M 1672.04 3656.58 L 1694.28 3439.52 M 1026.84 4746.41 L 1382.36 4890.73 M 1382.36 4890.73 L 1401.93 5140.86 M 1401.93 5140.86 L 1742.49 4998.2 M 3811.76 691.706 L 3361.41 592.942 M 3361.41 592.942 L 3150.25 984.895 M 1694.28 3439.52 L 1561.72 3216.58 M 1068 5132.06 L 1401.93 5140.86 M 1401.93 5140.86 L 1543.05 5354.98 M 3544.68 407.194 L 3361.41 592.942 M 2054.99 3569.4 L 1694.28 3439.52 M 1894.92 3159.73 L 1561.72 3216.58 M 1068 5132.06 L 1201.93 5404.4 M 1026.84 4746.41 L 1051.56 5108.98 M 2054.99 3569.4 L 1944.54 3203.07 M 1894.92 3159.73 L 1837.79 2914.76 M 1068 5132.06 L 981.777 5282.57 M 981.777 5282.57 L 1201.93 5404.4 M 1026.84 4746.41 L 934.555 5033.45 M 1986.78 2770.42 L 1837.79 2914.76 M 934.555 5033.45 L 1051.56 5108.98 M 832.12 5366.96 L 1201.93 5404.4 M 981.777 5282.57 L 832.12 5366.96 M 803.941 4986.04 L 934.555 5033.45 M 934.555 5033.45 L 797.248 5314.34 M 832.12 5366.96 L 1132.64 5705.2 M 874.314 5003.41 L 832.12 5366.96 M 2475.4 3462.79 L 1944.54 3203.07 M 669.976 5200.94 L 797.248 5314.34 M 820.698 5664.7 L 1132.64 5705.2 M 832.12 5366.96 L 820.698 5664.7 M 874.314 5003.41 L 671.136 5441.48 M 2601.89 3261.68 L 1944.54 3203.07 M 832.12 5366.96 L 707.285 5523.34 M 707.285 5523.34 L 820.698 5664.7 M 666.745 5431.15 L 707.285 5523.34 M 516.086 6087.04 L 820.698 5664.7 M 909.802 3983.56 L 894.836 4160.78 M 1137.64 3892.11 L 909.802 3983.56 M 832.321 6040.27 L 820.698 5664.7 M 894.836 4160.78 L 1251.43 4128.82 M 831.63 3690.88 L 909.802 3983.56 M 1747.81 3330.07 L 1307.35 3248.66 M 894.836 4160.78 L 1173.16 4272.57 M 831.63 3690.88 L 664.624 3791.26 M 1747.81 3330.07 L 1626.95 3055.3 M 1626.95 3055.3 L 1307.35 3248.66 M 894.836 4160.78 L 1086.79 4434.08 M 831.63 3690.88 L 428.956 3560.95 M 1999.33 2835.8 L 1626.95 3055.3 M 918.351 4477.15 L 1086.79 4434.08 M 571.405 3343.12 L 428.956 3560.95 M 2131.9 4545.37 L 2253.03 4341.97 M 5255.49 2166.25 L 4998.87 1655.48 M 571.405 3343.12 L 297.016 3261.46 M 2131.9 4545.37 L 2325.76 4573.51 M 5384.44 1815.41 L 4998.87 1655.48 M 330.578 3012.5 L 297.016 3261.46 M 2296.57 734.098 L 1922.75 622.733 M 5384.44 1815.41 L 5183.58 1277.19 M 330.578 3012.5 L 0 3214.47 M 2238.33 328.336 L 1922.75 622.733 M 2296.57 734.098 L 2238.33 328.336 M 5618.18 1409.46 L 5183.58 1277.19 M 1998.42 110.374 L 1922.75 622.733 M 2296.57 734.098 L 2526.21 553.482 M 5618.18 1409.46 L 5377.47 753.745 M 2098.66 4002.56 L 1887.42 3597.19 M 1898 4408.76 L 2131.9 4545.37 M 5581.62 808.739 L 5377.47 753.745 M 2313.35 3362.78 L 1887.42 3597.19 M 2002.18 4727.05 L 2131.9 4545.37 M 5581.62 808.739 L 5516.15 388.993 M 2065.99 3033.81 L 1887.42 3597.19 M 5817.84 492.22 L 5516.15 388.993 M 2065.99 3033.81 L 1625.49 3212.11 M 2313.35 3362.78 L 2065.99 3033.81 M 2002.18 4727.05 L 2267.77 4923.76 M 1783.07 4671.73 L 1898 4408.76 M 1957.27 2762.33 L 2065.99 3033.81 M 4827.13 1988.26 L 4630.11 2145.44 M 1783.07 4671.73 L 2068.47 4697.03 M 1957.27 2762.33 L 1765.21 2850.77 M 4827.13 1988.26 L 4485.69 1764.7 M 1885.96 4987.41 L 2068.47 4697.03 M 1516.14 2688.43 L 1765.21 2850.77 M 5039.27 1679.65 L 4485.69 1764.7 M 1516.14 2688.43 L 1480.07 2875.35 M 5039.27 1679.65 L 4596.92 1391.17 M 1885.96 4987.41 L 2134.79 4934.04 M 5187.69 1285.71 L 4596.92 1391.17 M 1480.07 2875.35 L 1765.21 2850.77 M 2167.04 4503.33 L 1907.27 4942.1 M 5187.69 1285.71 L 4840.19 864.86 M 1480.07 2875.35 L 1512.58 3362.53 M 1907.27 4942.1 L 2487.48 4960.44 M 4684.44 3972.83 L 4732.62 4301.34 M 1480.07 2875.35 L 1275.52 3346.66 M 4055.25 5855.82 L 4646.92 5378.04 M 4383.72 4275.26 L 4732.62 4301.34 M 1156.27 2884.58 L 1275.52 3346.66 M 4338.84 5988.14 L 4646.92 5378.04 M 4383.72 4275.26 L 4519.62 4621.14 M 5394.65 1557.46 L 5027.31 1348.85 M 4338.84 5988.14 L 4846.34 5684.58 M 4732.62 4301.34 L 5030.09 4051.36 M 5222.58 1133.24 L 5027.31 1348.85 M 4591.72 6199.52 L 4846.34 5684.58 M 4832.09 1033.95 L 5027.31 1348.85 M 5222.58 1133.24 L 4832.09 1033.95 M 4832.09 1033.95 L 4415.15 1260.11 M 4591.72 6199.52 L 5044.91 5965.51 M 4471.28 972.284 L 4415.15 1260.11 M 4832.09 1033.95 L 4471.28 972.284 M 4591.72 6199.52 L 4899.14 6481.46 M 4832.09 1033.95 L 4875.88 676.2 M 4875.88 676.2 L 4471.28 972.284 M 4591.72 6199.52 L 4484.09 6452.84 M 4832.09 1033.95 L 5207 650.48 M 5207 650.48 L 4875.88 676.2 M 4696.36 339.359 L 4471.28 972.284 M 4591.72 6199.52 L 4103.68 5986.48 M 5266.7 959.013 L 5207 650.48 M 5207 650.48 L 5048.77 335.9 M 4519.27 5877.99 L 4103.68 5986.48 M 5450.71 412.064 L 5048.77 335.9 M 4415.15 1260.11 L 5027.31 1348.85 M 3344.97 4738.46 L 3797.86 4723.28 M 4415.15 1260.11 L 4703.98 1466.38 M 3344.97 4738.46 L 3638.52 4926.73 M 4415.15 1260.11 L 4474.46 1751.08 M 4415.15 1260.11 L 4257.14 1714.83 M 4257.14 1714.83 L 4474.46 1751.08 M 4646.92 5378.04 L 4376.19 5120.85 M 4257.14 1714.83 L 4269.6 2162.14 M 1660.19 1786.06 L 2008.15 2146.85 M 4070.47 5728.25 L 3931.42 5175.81 M 1660.19 1786.06 L 1448.09 2183.56" />
<line x1="2960.187278" y1="2978.460457" x2="2648.199516" y2="2864.497368" class="t" />
<line x1="3056.018268" y1="3279.305924" x2="2960.187278" y2="2978.460457" class="t" />
<line x1="3380.757842" y1="3603.077181" x2="3056.018268" y2="3279.305924" class="t" />
<line x1="3415.212601" y1="3905.903086" x2="3380.757842" y2="3603.077181" class="t" />
<line x1="3531.300954" y1="3561.163352" x2="3380.757842" y2="3603.077181" class="t" />
<line x1="3146.426191" y1="3768.065824" x2="3415.212601" y2="3905.903086" class="t" />
<line x1="3446.144511" y1="3202.202587" x2="3531.300954" y2="3561.163352" class="t" />
<line x1="3783.569539" y1="3898.408823" x2="3531.300954" y2="3561.163352" class="t" />
<line x1="2909.763385" y1="3488.450637" x2="3146.426191" y2="3768.065824" class="t" />
<line x1="3630.173671" y1="3161.556962" x2="3446.144511" y2="3202.202587" class="t" />
<line x1="3835.553851" y1="3727.921166" x2="3783.569539" y2="3898.408823" class="t" />
<line x1="3630.882612" y1="2961.099773" x2="3630.173671" y2="3161.556962" class="t" />
<line x1="3807.950947" y1="3380.707347" x2="3835.553851" y2="3727.921166" class="t" />
<line x1="4021.045188" y1="3794.791019" x2="3835.553851" y2="3727.921166" class="t" />
<line x1="3482.336018" y1="2771.269784" x2="3630.882612" y2="2961.099773" class="t" />
<line x1="3993.966352" y1="3442.344709" x2="3807.950947" y2="3380.707347" class="t" />
<line x1="3853.227835" y1="2996.779829" x2="3630.882612" y2="2961.099773" class="t" />
<line x1="3893.330097" y1="4282.939327" x2="3783.569539" y2="3898.408823" class="t" />
<line x1="2701.617865" y1="3473.922148" x2="2909.763385" y2="3488.450637" class="t" />
<line x1="3082.099603" y1="3934.309310" x2="3146.426191" y2="3768.065824" class="t" />
<line x1="3312.406516" y1="2905.381283" x2="3446.144511" y2="3202.202587" class="t" />
<line x1="3920.593426" y1="3250.187580" x2="3853.227835" y2="2996.779829" class="t" />
<line x1="2898.633596" y1="3934.384128" x2="3082.099603" y2="3934.309310" class="t" />
<line x1="4058.051841" y1="4384.995801" x2="3893.330097" y2="4282.939327" class="t" />
<line x1="2757.468158" y1="3700.303424" x2="2701.617865" y2="3473.922148" class="t" />
<line x1="2800.965963" y1="4180.771526" x2="2898.633596" y2="3934.384128" class="t" />
<line x1="4197.780621" y1="4100.382719" x2="4058.051841" y2="4384.995801" class="t" />
<line x1="2961.753720" y1="3870.219829" x2="2757.468158" y2="3700.303424" class="t" />
<line x1="2631.262125" y1="3844.254717" x2="2757.468158" y2="3700.303424" class="t" />
<line x1="2628.008104" y1="4266.299641" x2="2800.965963" y2="4180.771526" class="t" />
<line x1="2828.211049" y1="4080.631989" x2="2631.262125" y2="3844.254717" class="t" />
<line x1="2414.822691" y1="4406.395082" x2="2628.008104" y2="4266.299641" class="t" />
<line x1="3103.633215" y1="4055.565201" x2="2828.211049" y2="4080.631989" class="t" />
<line x1="2904.057149" y1="4252.038485" x2="2828.211049" y2="4080.631989" class="t" />
<line x1="2317.894468" y1="4572.635889" x2="2414.822691" y2="4406.395082" class="t" />
<line x1="3280.436830" y1="4327.343684" x2="3103.633215" y2="4055.565201" class="t" />
<line x1="3236.125780" y1="4423.957038" x2="2904.057149" y2="4252.038485" class="t" />
<line x1="2081.800689" y1="4747.760155" x2="2317.894468" y2="4572.635889" class="t" />
<line x1="3499.675545" y1="4498.648329" x2="3280.436830" y2="4327.343684" class="t" />
<line x1="2188.613315" y1="4900.128066" x2="2081.800689" y2="4747.760155" class="t" />
<line x1="4354.308519" y1="4155.352292" x2="4197.780621" y2="4100.382719" class="t" />
<line x1="3066.891407" y1="4115.065895" x2="2961.753720" y2="3870.219829" class="t" />
<line x1="2392.631828" y1="3870.735460" x2="2631.262125" y2="3844.254717" class="t" />
<line x1="2408.835690" y1="4808.047328" x2="2188.613315" y2="4900.128066" class="t" />
<line x1="2463.746142" y1="3214.320335" x2="2701.617865" y2="3473.922148" class="t" />
<line x1="3969.442080" y1="3486.984406" x2="3920.593426" y2="3250.187580" class="t" />
<line x1="3010.087659" y1="4260.700806" x2="3066.891407" y2="4115.065895" class="t" />
<line x1="2293.875741" y1="4151.315956" x2="2392.631828" y2="3870.735460" class="t" />
<line x1="2395.434381" y1="4603.073927" x2="2408.835690" y2="4808.047328" class="t" />
<line x1="2410.888684" y1="2981.398506" x2="2463.746142" y2="3214.320335" class="t" />
<line x1="2400.303748" y1="4323.802751" x2="2293.875741" y2="4151.315956" class="t" />
<line x1="2665.045777" y1="4542.445502" x2="2395.434381" y2="4603.073927" class="t" />
<line x1="2291.673871" y1="2720.593037" x2="2410.888684" y2="2981.398506" class="t" />
<line x1="2545.522714" y1="4352.568000" x2="2400.303748" y2="4323.802751" class="t" />
<line x1="2629.805950" y1="4290.097229" x2="2665.045777" y2="4542.445502" class="t" />
<line x1="2641.826011" y1="2536.669199" x2="2291.673871" y2="2720.593037" class="t" />
<line x1="2577.427603" y1="4544.098972" x2="2545.522714" y2="4352.568000" class="t" />
<line x1="2751.237465" y1="4328.568742" x2="2545.522714" y2="4352.568000" class="t" />
<line x1="2766.409621" y1="4622.261375" x2="2577.427603" y2="4544.098972" class="t" />
<line x1="2913.256370" y1="4591.194659" x2="2751.237465" y2="4328.568742" class="t" />
<line x1="2977.372712" y1="4553.278273" x2="2766.409621" y2="4622.261375" class="t" />
<line x1="3116.549051" y1="4746.914019" x2="2913.256370" y2="4591.194659" class="t" />
<line x1="3211.709119" y1="4628.479044" x2="2977.372712" y2="4553.278273" class="t" />
<line x1="2720.112858" y1="2346.080152" x2="2641.826011" y2="2536.669199" class="t" />
<line x1="3330.161739" y1="4445.827854" x2="3211.709119" y2="4628.479044" class="t" />
<line x1="2915.724366" y1="2135.441827" x2="2720.112858" y2="2346.080152" class="t" />
<line x1="2381.195307" y1="2272.979938" x2="2720.112858" y2="2346.080152" class="t" />
<line x1="3510.347910" y1="4417.563057" x2="3330.161739" y2="4445.827854" class="t" />
<line x1="2715.410930" y1="1899.067371" x2="2915.724366" y2="2135.441827" class="t" />
<line x1="3078.176883" y1="2009.042383" x2="2915.724366" y2="2135.441827" class="t" />
<line x1="2423.878381" y1="2012.139066" x2="2381.195307" y2="2272.979938" class="t" />
<line x1="2562.086498" y1="1849.015018" x2="2715.410930" y2="1899.067371" class="t" />
<line x1="2989.791615" y1="1681.786519" x2="3078.176883" y2="2009.042383" class="t" />
<line x1="2175.385028" y1="2245.365101" x2="2381.195307" y2="2272.979938" class="t" />
<line x1="2460.684206" y1="1534.268342" x2="2562.086498" y2="1849.015018" class="t" />
<line x1="2796.755788" y1="1593.156529" x2="2715.410930" y2="1899.067371" class="t" />
<line x1="2050.302475" y1="2036.205306" x2="2175.385028" y2="2245.365101" class="t" />
<line x1="2522.704185" y1="1340.416163" x2="2460.684206" y2="1534.268342" class="t" />
<line x1="2983.629671" y1="1542.408329" x2="2796.755788" y2="1593.156529" class="t" />
<line x1="2707.410767" y1="1349.109670" x2="2796.755788" y2="1593.156529" class="t" />
<line x1="1860.819405" y1="1922.330384" x2="2050.302475" y2="2036.205306" class="t" />
<line x1="2073.702998" y1="1858.129989" x2="2050.302475" y2="2036.205306" class="t" />
<line x1="3003.648519" y1="1212.127610" x2="2983.629671" y2="1542.408329" class="t" />
<line x1="2437.528398" y1="4690.844236" x2="2577.427603" y2="4544.098972" class="t" />
<line x1="3731.335178" y1="3665.475292" x2="3969.442080" y2="3486.984406" class="t" />
<line x1="3121.365260" y1="4540.558977" x2="3010.087659" y2="4260.700806" class="t" />
<line x1="2061.021790" y1="4177.875741" x2="2293.875741" y2="4151.315956" class="t" />
<line x1="2218.621495" y1="1751.826828" x2="2073.702998" y2="1858.129989" class="t" />
<line x1="2841.178912" y1="1026.384975" x2="3003.648519" y2="1212.127610" class="t" />
<line x1="2466.121034" y1="4851.938115" x2="2437.528398" y2="4690.844236" class="t" />
<line x1="2708.671798" y1="4878.280818" x2="2408.835690" y2="4808.047328" class="t" />
<line x1="2910.990483" y1="4790.374975" x2="3121.365260" y2="4540.558977" class="t" />
<line x1="2706.315869" y1="1188.045669" x2="2841.178912" y2="1026.384975" class="t" />
<line x1="2646.108598" y1="4896.074992" x2="2466.121034" y2="4851.938115" class="t" />
<line x1="2367.851978" y1="4998.686692" x2="2466.121034" y2="4851.938115" class="t" />
<line x1="2870.795871" y1="4751.295719" x2="2708.671798" y2="4878.280818" class="t" />
<line x1="2822.459031" y1="5077.774897" x2="2708.671798" y2="4878.280818" class="t" />
<line x1="2666.764616" y1="5063.693035" x2="2646.108598" y2="4896.074992" class="t" />
<line x1="2182.410559" y1="4955.929576" x2="2367.851978" y2="4998.686692" class="t" />
<line x1="2450.256033" y1="5130.662660" x2="2367.851978" y2="4998.686692" class="t" />
<line x1="3120.772629" y1="4801.806723" x2="2870.795871" y2="4751.295719" class="t" />
<line x1="2631.126008" y1="5124.276649" x2="2822.459031" y2="5077.774897" class="t" />
<line x1="2765.397328" y1="5202.548901" x2="2666.764616" y2="5063.693035" class="t" />
<line x1="2126.612499" y1="5053.871849" x2="2182.410559" y2="4955.929576" class="t" />
<line x1="2671.341924" y1="5286.331486" x2="2631.126008" y2="5124.276649" class="t" />
<line x1="2589.063767" y1="5120.527421" x2="2450.256033" y2="5130.662660" class="t" />
<line x1="1935.780405" y1="5039.265773" x2="2126.612499" y2="5053.871849" class="t" />
<line x1="3157.749431" y1="4630.978262" x2="3120.772629" y2="4801.806723" class="t" />
<line x1="2717.882409" y1="5222.521622" x2="2589.063767" y2="5120.527421" class="t" />
<line x1="1871.596865" y1="5167.908143" x2="1935.780405" y2="5039.265773" class="t" />
<line x1="1743.574871" y1="4960.476194" x2="1935.780405" y2="5039.265773" class="t" />
<line x1="2932.610043" y1="4281.229967" x2="3157.749431" y2="4630.978262" class="t" />
<line x1="3292.932741" y1="4557.019621" x2="3157.749431" y2="4630.978262" class="t" />
<line x1="1894.584526" y1="5281.259032" x2="1871.596865" y2="5167.908143" class="t" />
<line x1="1657.847758" y1="5165.343083" x2="1871.596865" y2="5167.908143" class="t" />
<line x1="1588.840771" y1="5074.410852" x2="1743.574871" y2="4960.476194" class="t" />
<line x1="3186.340060" y1="4154.234062" x2="3292.932741" y2="4557.019621" class="t" />
<line x1="1643.872492" y1="5393.285250" x2="1894.584526" y2="5281.259032" class="t" />
<line x1="1529.348914" y1="5316.684696" x2="1657.847758" y2="5165.343083" class="t" />
<line x1="1413.697951" y1="5072.936207" x2="1588.840771" y2="5074.410852" class="t" />
<line x1="3229.600964" y1="5010.377271" x2="3120.772629" y2="4801.806723" class="t" />
<line x1="2283.926539" y1="5017.754837" x2="2631.126008" y2="5124.276649" class="t" />
<line x1="1345.642315" y1="5221.585404" x2="1413.697951" y2="5072.936207" class="t" />
<line x1="3421.749217" y1="5055.603315" x2="3229.600964" y2="5010.377271" class="t" />
<line x1="2345.239547" y1="5169.118117" x2="2283.926539" y2="5017.754837" class="t" />
<line x1="1454.003445" y1="5396.036454" x2="1345.642315" y2="5221.585404" class="t" />
<line x1="3871.818614" y1="2839.499836" x2="3853.227835" y2="2996.779829" class="t" />
<line x1="2106.539105" y1="5193.490289" x2="2345.239547" y2="5169.118117" class="t" />
<line x1="3773.343501" y1="4381.901438" x2="3893.330097" y2="4282.939327" class="t" />
<line x1="3578.500486" y1="2673.192570" x2="3871.818614" y2="2839.499836" class="t" />
<line x1="4104.915650" y1="2926.220040" x2="3871.818614" y2="2839.499836" class="t" />
<line x1="2098.249636" y1="5396.273829" x2="2106.539105" y2="5193.490289" class="t" />
<line x1="3796.161368" y1="4603.366677" x2="3773.343501" y2="4381.901438" class="t" />
<line x1="3574.394352" y1="4230.145944" x2="3773.343501" y2="4381.901438" class="t" />
<line x1="3483.681933" y1="2433.398613" x2="3578.500486" y2="2673.192570" class="t" />
<line x1="4100.648212" y1="2733.392214" x2="4104.915650" y2="2926.220040" class="t" />
<line x1="4283.891305" y1="3308.654022" x2="4104.915650" y2="2926.220040" class="t" />
<line x1="3954.202412" y1="4718.746553" x2="3796.161368" y2="4603.366677" class="t" />
<line x1="3522.192993" y1="4457.053942" x2="3574.394352" y2="4230.145944" class="t" />
<line x1="3078.884279" y1="2454.825361" x2="3483.681933" y2="2433.398613" class="t" />
<line x1="4127.408140" y1="2453.528119" x2="4100.648212" y2="2733.392214" class="t" />
<line x1="4308.103983" y1="2820.544226" x2="4100.648212" y2="2733.392214" class="t" />
<line x1="3964.900796" y1="4883.822442" x2="3954.202412" y2="4718.746553" class="t" />
<line x1="4518.963659" y1="3092.721061" x2="4308.103983" y2="2820.544226" class="t" />
<line x1="3395.340816" y1="4475.032555" x2="3522.192993" y2="4457.053942" class="t" />
<line x1="4788.799343" y1="3156.562713" x2="4518.963659" y2="3092.721061" class="t" />
<line x1="4515.123083" y1="3307.993138" x2="4518.963659" y2="3092.721061" class="t" />
<line x1="3207.000298" y1="4222.713745" x2="3395.340816" y2="4475.032555" class="t" />
<line x1="4815.476773" y1="2960.312148" x2="4788.799343" y2="3156.562713" class="t" />
<line x1="4935.417012" y1="3418.865467" x2="4788.799343" y2="3156.562713" class="t" />
<line x1="4202.148574" y1="3346.819380" x2="4515.123083" y2="3307.993138" class="t" />
<line x1="5003.671014" y1="2814.200282" x2="4815.476773" y2="2960.312148" class="t" />
<line x1="4608.409944" y1="2681.040931" x2="4815.476773" y2="2960.312148" class="t" />
<line x1="5065.635882" y1="3553.719157" x2="4935.417012" y2="3418.865467" class="t" />
<line x1="4726.707879" y1="3516.701662" x2="4935.417012" y2="3418.865467" class="t" />
<line x1="4231.447297" y1="3597.680146" x2="4202.148574" y2="3346.819380" class="t" />
<line x1="4403.071933" y1="2575.022217" x2="4608.409944" y2="2681.040931" class="t" />
<line x1="5030.235797" y1="3814.711162" x2="5065.635882" y2="3553.719157" class="t" />
<line x1="5289.602921" y1="3433.888931" x2="5065.635882" y2="3553.719157" class="t" />
<line x1="4597.842451" y1="3352.477593" x2="4726.707879" y2="3516.701662" class="t" />
<line x1="4038.597711" y1="3782.001960" x2="4231.447297" y2="3597.680146" class="t" />
<line x1="4401.505665" y1="2336.088813" x2="4403.071933" y2="2575.022217" class="t" />
<line x1="4879.410338" y1="3884.374792" x2="5030.235797" y2="3814.711162" class="t" />
<line x1="5336.133207" y1="3147.122860" x2="5289.602921" y2="3433.888931" class="t" />
<line x1="4688.397237" y1="3184.773882" x2="4597.842451" y2="3352.477593" class="t" />
<line x1="4219.318095" y1="4113.937318" x2="4038.597711" y2="3782.001960" class="t" />
<line x1="5502.567021" y1="3080.083338" x2="5336.133207" y2="3147.122860" class="t" />
<line x1="4645.843302" y1="3009.791397" x2="4688.397237" y2="3184.773882" class="t" />
<line x1="3934.424420" y1="4329.044978" x2="4219.318095" y2="4113.937318" class="t" />
<line x1="5401.905984" y1="2847.381157" x2="5502.567021" y2="3080.083338" class="t" />
<line x1="5716.072482" y1="3116.755146" x2="5502.567021" y2="3080.083338" class="t" />
<line x1="4801.826430" y1="2895.659671" x2="4645.843302" y2="3009.791397" class="t" />
<line x1="3870.737094" y1="4559.906045" x2="3934.424420" y2="4329.044978" class="t" />
<line x1="5095.116681" y1="2691.523900" x2="5401.905984" y2="2847.381157" class="t" />
<line x1="5746.132593" y1="2849.262481" x2="5716.072482" y2="3116.755146" class="t" />
<line x1="4761.834960" y1="2664.074452" x2="4801.826430" y2="2895.659671" class="t" />
<line x1="4074.504461" y1="4699.401348" x2="3870.737094" y2="4559.906045" class="t" />
<line x1="5037.125455" y1="2436.822230" x2="5095.116681" y2="2691.523900" class="t" />
<line x1="3630.754560" y1="4719.892596" x2="3870.737094" y2="4559.906045" class="t" />
<line x1="4987.778719" y1="2458.615783" x2="4761.834960" y2="2664.074452" class="t" />
<line x1="3917.049450" y1="4942.175221" x2="4074.504461" y2="4699.401348" class="t" />
<line x1="4766.584745" y1="2348.907615" x2="5037.125455" y2="2436.822230" class="t" />
<line x1="3754.562263" y1="4953.572602" x2="3630.754560" y2="4719.892596" class="t" />
<line x1="4141.538783" y1="5071.330024" x2="3917.049450" y2="4942.175221" class="t" />
<line x1="4796.174520" y1="2094.431750" x2="4766.584745" y2="2348.907615" class="t" />
<line x1="3791.174692" y1="5251.658139" x2="3754.562263" y2="4953.572602" class="t" />
<line x1="4058.190664" y1="5266.547276" x2="4141.538783" y2="5071.330024" class="t" />
<line x1="5100.390380" y1="1844.389985" x2="4796.174520" y2="2094.431750" class="t" />
<line x1="4558.044153" y1="1997.506380" x2="4796.174520" y2="2094.431750" class="t" />
<line x1="3938.149577" y1="5510.568849" x2="3791.174692" y2="5251.658139" class="t" />
<line x1="4314.787148" y1="5325.931081" x2="4058.190664" y2="5266.547276" class="t" />
<line x1="5075.316600" y1="1580.860927" x2="5100.390380" y2="1844.389985" class="t" />
<line x1="3802.568458" y1="3779.062491" x2="4038.597711" y2="3782.001960" class="t" />
<line x1="4815.712726" y1="4108.511202" x2="4879.410338" y2="3884.374792" class="t" />
<line x1="5325.980159" y1="3852.096718" x2="5030.235797" y2="3814.711162" class="t" />
<line x1="4207.806610" y1="5570.921833" x2="4314.787148" y2="5325.931081" class="t" />
<line x1="5205.698193" y1="2895.099576" x2="5003.671014" y2="2814.200282" class="t" />
<line x1="4785.393108" y1="2528.807046" x2="4608.409944" y2="2681.040931" class="t" />
<line x1="3738.222118" y1="3997.590802" x2="3802.568458" y2="3779.062491" class="t" />
<line x1="5502.222153" y1="3972.604829" x2="5325.980159" y2="3852.096718" class="t" />
<line x1="5284.556458" y1="2598.222462" x2="5205.698193" y2="2895.099576" class="t" />
<line x1="4720.001385" y1="2320.446433" x2="4785.393108" y2="2528.807046" class="t" />
<line x1="3699.208101" y1="4222.706481" x2="3738.222118" y2="3997.590802" class="t" />
<line x1="2983.639996" y1="2157.085544" x2="3078.884279" y2="2454.825361" class="t" />
<line x1="4128.490022" y1="2256.455008" x2="4127.408140" y2="2453.528119" class="t" />
<line x1="4824.014649" y1="2173.010096" x2="4720.001385" y2="2320.446433" class="t" />
<line x1="1994.133274" y1="4313.273901" x2="2061.021790" y2="4177.875741" class="t" />
<line x1="2650.164110" y1="833.762816" x2="2841.178912" y2="1026.384975" class="t" />
<line x1="2403.976986" y1="1833.907631" x2="2218.621495" y2="1751.826828" class="t" />
<line x1="4544.691607" y1="3970.311407" x2="4354.308519" y2="4155.352292" class="t" />
<line x1="1849.805516" y1="4049.973113" x2="2061.021790" y2="4177.875741" class="t" />
<line x1="3594.271427" y1="3866.341805" x2="3731.335178" y2="3665.475292" class="t" />
<line x1="5032.473419" y1="2179.944536" x2="4824.014649" y2="2173.010096" class="t" />
<line x1="2413.126927" y1="928.859554" x2="2650.164110" y2="833.762816" class="t" />
<line x1="2538.457144" y1="1609.210047" x2="2403.976986" y2="1833.907631" class="t" />
<line x1="1837.481046" y1="4423.192995" x2="1994.133274" y2="4313.273901" class="t" />
<line x1="1609.212130" y1="4098.259770" x2="1849.805516" y2="4049.973113" class="t" />
<line x1="2094.307220" y1="4432.033040" x2="1994.133274" y2="4313.273901" class="t" />
<line x1="5027.161835" y1="1936.662733" x2="5032.473419" y2="2179.944536" class="t" />
<line x1="2148.154058" y1="826.974449" x2="2413.126927" y2="928.859554" class="t" />
<line x1="1868.487469" y1="3852.672485" x2="1849.805516" y2="4049.973113" class="t" />
<line x1="3829.595965" y1="2165.665099" x2="4128.490022" y2="2256.455008" class="t" />
<line x1="1478.275447" y1="4017.283039" x2="1609.212130" y2="4098.259770" class="t" />
<line x1="1601.189907" y1="4246.806879" x2="1609.212130" y2="4098.259770" class="t" />
<line x1="1650.465259" y1="3772.149195" x2="1868.487469" y2="3852.672485" class="t" />
<line x1="3879.305573" y1="1830.997192" x2="3829.595965" y2="2165.665099" class="t" />
<line x1="1385.060810" y1="4019.728547" x2="1478.275447" y2="4017.283039" class="t" />
<line x1="1519.274806" y1="3875.925361" x2="1478.275447" y2="4017.283039" class="t" />
<line x1="1456.640667" y1="4287.030454" x2="1601.189907" y2="4246.806879" class="t" />
<line x1="1746.642194" y1="4422.266429" x2="1601.189907" y2="4246.806879" class="t" />
<line x1="1619.388562" y1="3553.826300" x2="1650.465259" y2="3772.149195" class="t" />
<line x1="3621.311098" y1="1667.570529" x2="3879.305573" y2="1830.997192" class="t" />
<line x1="1305.311602" y1="3934.623897" x2="1385.060810" y2="4019.728547" class="t" />
<line x1="1391.205993" y1="3768.074551" x2="1519.274806" y2="3875.925361" class="t" />
<line x1="1441.082540" y1="4397.896402" x2="1456.640667" y2="4287.030454" class="t" />
<line x1="1583.968870" y1="4531.270714" x2="1746.642194" y2="4422.266429" class="t" />
<line x1="3706.616024" y1="1362.853473" x2="3621.311098" y2="1667.570529" class="t" />
<line x1="1124.068850" y1="4006.163933" x2="1305.311602" y2="3934.623897" class="t" />
<line x1="1494.289195" y1="3562.709967" x2="1391.205993" y2="3768.074551" class="t" />
<line x1="1312.253058" y1="3813.264645" x2="1305.311602" y2="3934.623897" class="t" />
<line x1="1633.028202" y1="4729.369209" x2="1583.968870" y2="4531.270714" class="t" />
<line x1="3419.825943" y1="1165.630851" x2="3706.616024" y2="1362.853473" class="t" />
<line x1="980.758037" y1="4012.149780" x2="1124.068850" y2="4006.163933" class="t" />
<line x1="1162.000298" y1="4085.069268" x2="1124.068850" y2="4006.163933" class="t" />
<line x1="1430.112484" y1="3404.479955" x2="1494.289195" y2="3562.709967" class="t" />
<line x1="1490.387608" y1="3734.754642" x2="1312.253058" y2="3813.264645" class="t" />
<line x1="1489.401555" y1="4801.679457" x2="1633.028202" y2="4729.369209" class="t" />
<line x1="3576.099120" y1="909.116808" x2="3419.825943" y2="1165.630851" class="t" />
<line x1="1575.626603" y1="3565.873714" x2="1490.387608" y2="3734.754642" class="t" />
<line x1="1250.851530" y1="4717.749938" x2="1489.401555" y2="4801.679457" class="t" />
<line x1="1508.928214" y1="5009.929935" x2="1489.401555" y2="4801.679457" class="t" />
<line x1="3441.138116" y1="756.514498" x2="3576.099120" y2="909.116808" class="t" />
<line x1="1538.853153" y1="3419.206504" x2="1575.626603" y2="3565.873714" class="t" />
<line x1="1807.102387" y1="3555.167457" x2="1575.626603" y2="3565.873714" class="t" />
<line x1="1153.587549" y1="4915.373996" x2="1250.851530" y2="4717.749938" class="t" />
<line x1="1284.099124" y1="5054.549373" x2="1508.928214" y2="5009.929935" class="t" />
<line x1="1562.492560" y1="5164.679235" x2="1508.928214" y2="5009.929935" class="t" />
<line x1="3572.616895" y1="563.947467" x2="3441.138116" y2="756.514498" class="t" />
<line x1="3206.236568" y1="687.163918" x2="3441.138116" y2="756.514498" class="t" />
<line x1="1716.974918" y1="3271.941103" x2="1538.853153" y2="3419.206504" class="t" />
<line x1="1223.955258" y1="5225.773498" x2="1284.099124" y2="5054.549373" class="t" />
<line x1="1388.579043" y1="5304.505507" x2="1562.492560" y2="5164.679235" class="t" />
<line x1="3391.625484" y1="375.753565" x2="3572.616895" y2="563.947467" class="t" />
<line x1="1897.937107" y1="3403.996908" x2="1807.102387" y2="3555.167457" class="t" />
<line x1="1764.811871" y1="3097.019743" x2="1716.974918" y2="3271.941103" class="t" />
<line x1="1083.902948" y1="5273.009291" x2="1223.955258" y2="5225.773498" class="t" />
<line x1="1004.318621" y1="4962.945983" x2="1153.587549" y2="4915.373996" class="t" />
<line x1="2158.310069" y1="3411.752819" x2="1897.937107" y2="3403.996908" class="t" />
<line x1="1906.496776" y1="2948.300946" x2="1764.811871" y2="3097.019743" class="t" />
<line x1="930.727177" y1="5172.605725" x2="1083.902948" y2="5273.009291" class="t" />
<line x1="1005.275617" y1="5351.308368" x2="1083.902948" y2="5273.009291" class="t" />
<line x1="921.778277" y1="4921.964532" x2="1004.318621" y2="4962.945983" class="t" />
<line x1="1850.498865" y1="2764.837264" x2="1906.496776" y2="2948.300946" class="t" />
<line x1="927.788371" y1="5152.255299" x2="1004.318621" y2="4962.945983" class="t" />
<line x1="1055.562416" y1="5492.186012" x2="1005.275617" y2="5351.308368" class="t" />
<line x1="896.070341" y1="5217.644810" x2="1005.275617" y2="5351.308368" class="t" />
<line x1="826.781856" y1="5099.915949" x2="921.778277" y2="4921.964532" class="t" />
<line x1="800.593191" y1="5182.907756" x2="927.788371" y2="5152.255299" class="t" />
<line x1="928.484937" y1="5578.951590" x2="1055.562416" y2="5492.186012" class="t" />
<line x1="792.523231" y1="5270.615807" x2="896.070341" y2="5217.644810" class="t" />
<line x1="2340.612397" y1="3309.177629" x2="2158.310069" y2="3411.752819" class="t" />
<line x1="635.262128" y1="5274.705359" x2="800.593191" y2="5182.907756" class="t" />
<line x1="1068.826859" y1="5793.611727" x2="928.484937" y2="5578.951590" class="t" />
<line x1="786.700888" y1="5518.331158" x2="928.484937" y2="5578.951590" class="t" />
<line x1="716.020943" y1="5227.512449" x2="792.523231" y2="5270.615807" class="t" />
<line x1="2234.870732" y1="3109.880375" x2="2340.612397" y2="3309.177629" class="t" />
<line x1="735.383300" y1="5440.480750" x2="786.700888" y2="5518.331158" class="t" />
<line x1="681.356284" y1="5758.360165" x2="786.700888" y2="5518.331158" class="t" />
<line x1="621.646748" y1="5420.612904" x2="735.383300" y2="5440.480750" class="t" />
<line x1="723.034808" y1="5930.672395" x2="681.356284" y2="5758.360165" class="t" />
<line x1="802.479596" y1="4060.404703" x2="980.758037" y2="4012.149780" class="t" />
<line x1="959.689514" y1="3855.514107" x2="980.758037" y2="4012.149780" class="t" />
<line x1="986.300932" y1="5879.013377" x2="723.034808" y2="5930.672395" class="t" />
<line x1="1106.475936" y1="4187.393310" x2="1162.000298" y2="4085.069268" class="t" />
<line x1="802.018509" y1="3821.897121" x2="959.689514" y2="3855.514107" class="t" />
<line x1="1560.704019" y1="3211.342734" x2="1430.112484" y2="3404.479955" class="t" />
<line x1="1051.593892" y1="4289.144643" x2="1106.475936" y2="4187.393310" class="t" />
<line x1="641.736658" y1="3681.028187" x2="802.018509" y2="3821.897121" class="t" />
<line x1="1791.363784" y1="3073.722749" x2="1560.704019" y2="3211.342734" class="t" />
<line x1="1449.847057" y1="3044.176015" x2="1560.704019" y2="3211.342734" class="t" />
<line x1="966.657330" y1="4357.336154" x2="1051.593892" y2="4289.144643" class="t" />
<line x1="610.663756" y1="3531.650503" x2="641.736658" y2="3681.028187" class="t" />
<line x1="1685.072919" y1="2902.537306" x2="1791.363784" y2="3073.722749" class="t" />
<line x1="988.100458" y1="4571.782881" x2="966.657330" y2="4357.336154" class="t" />
<line x1="432.459098" y1="3388.511084" x2="610.663756" y2="3531.650503" class="t" />
<line x1="2236.893970" y1="4486.951795" x2="2094.307220" y2="4432.033040" class="t" />
<line x1="5212.932939" y1="1879.044182" x2="5027.161835" y2="1936.662733" class="t" />
<line x1="399.666512" y1="3205.694262" x2="432.459098" y2="3388.511084" class="t" />
<line x1="2226.013798" y1="4685.478899" x2="2236.893970" y2="4486.951795" class="t" />
<line x1="5188.964522" y1="1582.690420" x2="5212.932939" y2="1879.044182" class="t" />
<line x1="209.198057" y1="3162.808241" x2="399.666512" y2="3205.694262" class="t" />
<line x1="2152.550007" y1="561.722416" x2="2148.154058" y2="826.974449" class="t" />
<line x1="5395.402023" y1="1500.686620" x2="5188.964522" y2="1582.690420" class="t" />
<line x1="113.538637" y1="3062.097996" x2="209.198057" y2="3162.808241" class="t" />
<line x1="2053.166424" y1="353.814533" x2="2152.550007" y2="561.722416" class="t" />
<line x1="2353.704911" y1="538.638761" x2="2152.550007" y2="561.722416" class="t" />
<line x1="5393.077594" y1="1146.798508" x2="5395.402023" y2="1500.686620" class="t" />
<line x1="1859.228054" y1="244.369095" x2="2053.166424" y2="353.814533" class="t" />
<line x1="2588.147921" y1="695.023000" x2="2353.704911" y2="538.638761" class="t" />
<line x1="5525.755514" y1="990.649230" x2="5393.077594" y2="1146.798508" class="t" />
<line x1="2099.811004" y1="3654.179317" x2="1868.487469" y2="3852.672485" class="t" />
<line x1="2010.691572" y1="4560.392518" x2="2094.307220" y2="4432.033040" class="t" />
<line x1="5491.743267" y1="650.492294" x2="5525.755514" y2="990.649230" class="t" />
<line x1="2088.917871" y1="3331.260688" x2="2099.811004" y2="3654.179317" class="t" />
<line x1="2133.948914" y1="4732.058782" x2="2010.691572" y2="4560.392518" class="t" />
<line x1="5638.536432" y1="563.317486" x2="5491.743267" y2="650.492294" class="t" />
<line x1="1859.632243" y1="3281.036759" x2="2088.917871" y2="3331.260688" class="t" />
<line x1="5703.469067" y1="325.185360" x2="5638.536432" y2="563.317486" class="t" />
<line x1="1861.741652" y1="2990.879407" x2="1859.632243" y2="3281.036759" class="t" />
<line x1="2112.202712" y1="3052.971598" x2="2088.917871" y2="3331.260688" class="t" />
<line x1="2073.014382" y1="4872.723988" x2="2133.948914" y2="4732.058782" class="t" />
<line x1="1916.514037" y1="4592.505497" x2="1837.481046" y2="4423.192995" class="t" />
<line x1="1929.489962" y1="2882.301027" x2="2112.202712" y2="3052.971598" class="t" />
<line x1="4647.641182" y1="1966.135646" x2="4824.014649" y2="2173.010096" class="t" />
<line x1="1912.502579" y1="4785.389328" x2="1916.514037" y2="4592.505497" class="t" />
<line x1="1746.209750" y1="2767.174422" x2="1929.489962" y2="2882.301027" class="t" />
<line x1="4784.026361" y1="1810.872375" x2="4647.641182" y2="1966.135646" class="t" />
<line x1="2029.742530" y1="4872.826798" x2="1912.502579" y2="4785.389328" class="t" />
<line x1="1587.140231" y1="2804.848766" x2="1746.209750" y2="2767.174422" class="t" />
<line x1="4707.290944" y1="1611.839152" x2="4784.026361" y2="1810.872375" class="t" />
<line x1="1384.811139" y1="2825.276885" x2="1587.140231" y2="2804.848766" class="t" />
<line x1="4941.293460" y1="1452.176648" x2="4707.290944" y2="1611.839152" class="t" />
<line x1="2029.136754" y1="5091.828220" x2="2029.742530" y2="4872.826798" class="t" />
<line x1="4874.932224" y1="1180.578475" x2="4941.293460" y2="1452.176648" class="t" />
<line x1="1585.951495" y1="3029.549704" x2="1587.140231" y2="2804.848766" class="t" />
<line x1="1902.057277" y1="4791.518807" x2="2081.800689" y2="4747.760155" class="t" />
<line x1="5067.652863" y1="959.409573" x2="4874.932224" y2="1180.578475" class="t" />
<line x1="1422.722946" y1="3194.846377" x2="1585.951495" y2="3029.549704" class="t" />
<line x1="2107.786231" y1="5043.789633" x2="2188.613315" y2="4900.128066" class="t" />
<line x1="4600.258134" y1="4183.143586" x2="4815.712726" y2="4108.511202" class="t" />
<line x1="1303.952703" y1="3035.530031" x2="1422.722946" y2="3194.846377" class="t" />
<line x1="4347.002242" y1="5740.667772" x2="4207.806610" y2="5570.921833" class="t" />
<line x1="4545.319540" y1="4399.247260" x2="4600.258134" y2="4183.143586" class="t" />
<line x1="1131.416525" y1="3214.186447" x2="1303.952703" y2="3035.530031" class="t" />
<line x1="4610.698734" y1="5683.585358" x2="4347.002242" y2="5740.667772" class="t" />
<line x1="4325.945283" y1="4374.998198" x2="4545.319540" y2="4399.247260" class="t" />
<line x1="5214.848050" y1="1346.516495" x2="5075.316600" y2="1580.860927" class="t" />
<line x1="4592.298992" y1="5957.413497" x2="4610.698734" y2="5683.585358" class="t" />
<line x1="4871.909973" y1="4339.642823" x2="4815.712726" y2="4108.511202" class="t" />
<line x1="5027.327503" y1="1172.011084" x2="5214.848050" y2="1346.516495" class="t" />
<line x1="4827.656209" y1="5949.868501" x2="4592.298992" y2="5957.413497" class="t" />
<line x1="4758.182744" y1="1214.300921" x2="5027.327503" y2="1172.011084" class="t" />
<line x1="5092.070881" y1="998.060728" x2="5027.327503" y2="1172.011084" class="t" />
<line x1="4572.839567" y1="1088.779429" x2="4758.182744" y2="1214.300921" class="t" />
<line x1="4845.256732" y1="6215.494899" x2="4827.656209" y2="5949.868501" class="t" />
<line x1="4285.150743" y1="986.207324" x2="4572.839567" y2="1088.779429" class="t" />
<line x1="4726.418002" y1="894.144213" x2="4572.839567" y2="1088.779429" class="t" />
<line x1="4658.317360" y1="6377.938320" x2="4845.256732" y2="6215.494899" class="t" />
<line x1="4971.659208" y1="786.876232" x2="4726.418002" y2="894.144213" class="t" />
<line x1="4681.172980" y1="662.614443" x2="4726.418002" y2="894.144213" class="t" />
<line x1="4393.163259" y1="6212.944846" x2="4658.317360" y2="6377.938320" class="t" />
<line x1="5101.930394" y1="881.147351" x2="4971.659208" y2="786.876232" class="t" />
<line x1="5043.884153" y1="554.193451" x2="4971.659208" y2="786.876232" class="t" />
<line x1="4501.247754" y1="580.407036" x2="4681.172980" y2="662.614443" class="t" />
<line x1="4404.887925" y1="6021.329907" x2="4393.163259" y2="6212.944846" class="t" />
<line x1="5325.804625" y1="809.298727" x2="5101.930394" y2="881.147351" class="t" />
<line x1="5235.492621" y1="466.148013" x2="5043.884153" y2="554.193451" class="t" />
<line x1="4310.019003" y1="5837.472241" x2="4404.887925" y2="6021.329907" class="t" />
<line x1="5280.885132" y1="285.835347" x2="5235.492621" y2="466.148013" class="t" />
<line x1="4715.479926" y1="1358.443809" x2="4758.182744" y2="1214.300921" class="t" />
<line x1="3593.783052" y1="4796.153665" x2="3499.675545" y2="4498.648329" class="t" />
<line x1="4531.196695" y1="1492.520736" x2="4715.479926" y2="1358.443809" class="t" />
<line x1="3448.289980" y1="4966.123440" x2="3593.783052" y2="4796.153665" class="t" />
<line x1="4382.248218" y1="1575.338015" x2="4531.196695" y2="1492.520736" class="t" />
<line x1="4209.279927" y1="1585.787555" x2="4382.248218" y2="1575.338015" class="t" />
<line x1="4333.730608" y1="1876.015027" x2="4382.248218" y2="1575.338015" class="t" />
<line x1="4531.127406" y1="5141.361765" x2="4314.787148" y2="5325.931081" class="t" />
<line x1="4189.401853" y1="1937.726188" x2="4333.730608" y2="1876.015027" class="t" />
<line x1="1705.479047" y1="2038.823551" x2="1860.819405" y2="1922.330384" class="t" />
<line x1="4066.468351" y1="5391.562386" x2="3938.149577" y2="5510.568849" class="t" />
<line x1="1452.613955" y1="1903.277213" x2="1705.479047" y2="2038.823551" class="t" />
</svg>
