<?xml version="1.0"?>
<svg width="5917" height="6481" version="1.1" xmlns="http://www.w3.org/2000/svg" >
<defs>
<style type="text/css"><![CDATA[
.m {stroke:rgb(255,0,0);stroke-width:8.101250;}
.v {stroke:rgb(0,0,255);stroke-width:8.101250;}
.b {stroke:rgb(0,0,0);stroke-width:16.202500;fill:white}
.n {stroke:rgb(128,128,128);stroke-width:8.101250}
.t {stroke:rgb(0,128,0);stroke-width:8.101250;}
.c {stroke:rgb(128,128,128);stroke-width:8.101250;stroke-dasharray:59.170000, 59.170000;}
]]></style>
</defs>
<path fill="none" style="stroke:black;stroke-width:16.202500;" d=" M 2317.67 2832.45 L 2740.69 3119.76 M 2886.24 2641.28 L 2317.67 2832.45 M 4116.92 1951.53 L 4010.62 1576.56 M 4407.06 2237.27 L 4116.92 1951.53 M 4113.68 2542.75 L 4407.06 2237.27 M 4483.86 2842.02 L 4113.68 2542.75 M 4349.49 4471.56 L 4414.67 3829.44 M 4596.92 1391.17 L 4485.69 1764.7 M 4661.85 2364.03 L 4618.59 2834.33 M 5293.63 2571.33 L 5102.53 2139.44 M 5005.06 2793.86 L 5296.43 2217.95 M 5296.43 2217.95 L 4661.85 2364.03 M 4482.01 2307.59 L 4715.22 2599.7 M 3343.03 2097.32 L 2960.79 1729.09 M 2960.79 1729.09 L 2647.1 2644.85 M 2647.1 2644.85 L 3246.52 2622.31 M 5255.49 2166.25 L 5384.44 1815.41 M 2098.66 4002.56 L 2313.35 3362.78 M 1625.49 3212.11 L 1887.42 3597.19 M 1747.81 3330.07 L 1999.33 2835.8 M 2549.29 3500.23 L 2098.66 4002.56 M 428.956 3560.95 L 664.624 3791.26 M 831.63 3690.88 L 571.405 3343.12 M 1561.72 3216.58 L 1360.56 3601.52 M 1499.88 3723.35 L 1747.81 3330.07 M 1307.35 3248.66 L 1235.17 3634.71 M 1672.04 3656.58 L 2054.99 3569.4 M 1235.17 3634.71 L 1438.56 3946.16 M 1526.15 3303.29 L 1444.6 3760.99 M 1887.42 3597.19 L 1526.15 3303.29 M 1444.6 3760.99 L 1619.38 3958.26 M 2002.18 4727.05 L 1949.09 4967.37 M 1949.09 4967.37 L 2267.77 4923.76 M 2268.99 4868.5 L 1947.4 4875.03 M 2131.9 4545.37 L 2220.39 4937.55 M 2220.39 4937.55 L 2325.76 4573.51 M 2267.77 4923.76 L 2131.9 4545.37 M 2417.95 4520.02 L 2268.99 4868.5 M 2625.65 4684.01 L 2984.89 4754.51 M 3356.2 4034.21 L 2814.56 3923.12 M 2808.95 5000.91 L 2625.65 4684.01 M 1783.07 4671.73 L 1885.96 4987.41 M 2134.79 4934.04 L 2068.47 4697.03 M 1898 4408.76 L 2002.18 4727.05 M 664.624 3791.26 L 909.802 3983.56 M 1360.56 3601.52 L 1137.64 3892.11 M 894.836 4160.78 L 918.351 4477.15 M 909.802 3983.56 L 602.802 4036.87 M 602.802 4036.87 L 894.836 4160.78 M 1086.79 4434.08 L 1173.16 4272.57 M 1251.43 4128.82 L 1339.73 3965.6 M 1339.73 3965.6 L 1376.88 4147.42 M 1173.16 4272.57 L 1251.43 4128.82 M 1619.38 3958.26 L 1499.88 3723.35 M 1376.88 4147.42 L 1397.73 4309.77 M 1137.64 3892.11 L 831.63 3690.88 M 1330.21 4480.02 L 1595.31 4403.9 M 1397.73 4309.77 L 1330.21 4480.02 M 1438.56 3946.16 L 1672.04 3656.58 M 959.165 4804.12 L 1086.79 4434.08 M 918.351 4477.15 L 959.165 4804.12 M 1343.35 4516.11 L 1026.84 4746.41 M 3035.09 4448.02 L 2529.94 4109.42 M 2529.94 4109.42 L 3042.09 4437.34 M 2325.76 4573.51 L 2253.03 4341.97 M 2253.03 4341.97 L 2417.95 4520.02 M 1742.49 4998.2 L 1813.24 4673.8 M 1595.31 4403.9 L 1343.35 4516.11 M 1831.37 4189.09 L 1783.07 4671.73 M 1813.24 4673.8 L 1831.37 4189.09 M 2068.47 4697.03 L 1898 4408.76 M 3162.15 4009.98 L 2908.55 3677.56 M 2647 3243.98 L 2390.72 2801.46 M 3223.97 4412.1 L 3162.15 4009.98 M 1765.21 2850.77 L 2065.99 3033.81 M 2194.94 2898.76 L 2549.29 3500.23 M 2313.35 3362.78 L 1957.27 2762.33 M 2814.56 3923.12 L 2991.74 4446.88 M 2806.6 4083.05 L 2461.88 4299.13 M 2065.99 3033.81 L 1893.75 2726.72 M 1893.75 2726.72 L 1625.49 3212.11 M 3510.38 1964.9 L 3861.49 2580.57 M 4398.42 3727.87 L 4326.78 3076.86 M 4126.48 3121.23 L 4398.42 3727.87 M 3807.33 3475.76 L 3706.59 3820.63 M 3861.49 2580.57 L 3343.03 2097.32 M 3246.52 2622.31 L 3627.49 2816.7 M 3706.59 3820.63 L 3614.29 4131.34 M 1998.42 110.374 L 1656.51 0 M 1656.51 0 L 1922.75 622.733 M 2238.33 328.336 L 1998.42 110.374 M 3224.15 2527.61 L 3253.63 3174.34 M 3459.44 3014.19 L 3224.15 2527.61 M 3360.08 2482.92 L 3459.44 3014.19 M 3627.49 2816.7 L 3360.08 2482.92 M 3625.36 3418.07 L 3805.72 3052.41 M 2740.69 3119.76 L 3173.73 3543.81 M 3173.73 3543.81 L 2647 3243.98 M 3650.47 4482.97 L 3783.37 4755.47 M 3558.31 4771.8 L 3650.47 4482.97 M 3269.92 4536.9 L 3558.31 4771.8 M 3783.37 4755.47 L 3986.74 5066.89 M 3986.74 5066.89 L 4124.6 4829.11 M 3954.64 4571.66 L 4209.08 4397.24 M 4124.6 4829.11 L 3954.64 4571.66 M 3927.63 3144.44 L 3625.36 3418.07 M 3870.87 3579.61 L 4183.41 3602.99 M 4183.41 3602.99 L 3927.63 3144.44 M 4480.02 4350.99 L 4780.23 3842.12 M 4780.23 3842.12 L 4373.83 3717.83 M 2993.29 4014.84 L 3269.92 4536.9 M 3357.8 4116.4 L 2993.29 4014.84 M 3356.99 4082.82 L 3714.91 4091.07 M 4010.43 4186.08 L 4181.83 3618.68 M 4181.83 3618.68 L 3870.87 3579.61 M 4373.83 3717.83 L 4010.43 4186.08 M 4209.08 4397.24 L 4480.02 4350.99 M 3714.91 4091.07 L 3357.8 4116.4 M 2980.75 4042.55 L 3356.99 4082.82 M 3253.63 3174.34 L 2886.24 2641.28 M 2908.55 3677.56 L 2806.6 4083.05 M 2615.55 4416.72 L 2980.75 4042.55 M 3418.39 4179.52 L 3952.26 3762.8 M 3412.16 3656.7 L 3418.39 4179.52 M 3829.58 3576.93 L 3412.16 3656.7 M 3805.72 3052.41 L 3829.58 3576.93 M 3952.26 3762.8 L 4126.48 3121.23 M 5014.81 2385.32 L 5255.49 2166.25 M 4998.87 1655.48 L 4827.13 1988.26 M 4485.69 1764.7 L 4630.11 2145.44 M 4827.13 1988.26 L 5039.27 1679.65 M 4630.11 2145.44 L 4515.09 2430.57 M 5810.94 3741.09 L 5136.91 3763.84 M 5136.91 3763.84 L 5595.61 3269.44 M 4826.29 2770.53 L 5014.81 2385.32 M 5048.44 2403.69 L 4826.29 2770.53 M 4510.16 3561.9 L 4923.71 3628.93 M 5276.5 2903.54 L 5136.29 3268.39 M 4923.71 3628.93 L 4684.44 3972.83 M 4732.62 4301.34 L 4853.03 4666.22 M 4853.03 4666.22 L 5030.09 4051.36 M 4618.59 2834.33 L 4537.11 3136.26 M 4383.72 4275.26 L 4074.49 4228.59 M 4074.49 4228.59 L 4519.62 4621.14 M 4519.62 4621.14 L 4732.62 4301.34 M 5595.61 3269.44 L 5917.02 3013.56 M 4684.44 3972.83 L 4383.72 4275.26 M 4537.11 3136.26 L 4510.16 3561.9 M 5685.79 2466.96 L 5635.59 3067.27 M 5917.02 3013.56 L 5685.79 2466.96 M 5635.59 3067.27 L 5293.63 2571.33 M 4515.09 2430.57 L 4479.16 2125.22 M 4479.16 2125.22 L 4210.27 2452.47 M 4210.27 2452.47 L 4483.86 2842.02 M 4746.26 3359.28 L 4781.82 3058.78 M 4472.33 3487.84 L 4746.26 3359.28 M 4715.22 2599.7 L 5276.5 2903.54 M 5372.86 2377.76 L 5048.44 2403.69 M 5432.37 3013.22 L 5372.86 2377.76 M 5136.29 3268.39 L 5432.37 3013.22 M 4326.78 3076.86 L 3807.33 3475.76 M 4414.67 3829.44 L 4472.33 3487.84 M 4781.82 3058.78 L 5005.06 2793.86 M 5030.09 4051.36 L 5665.64 4125.36 M 5665.64 4125.36 L 5810.94 3741.09 M 2390.72 2801.46 L 3245.4 2346.98 M 3342.94 1461.25 L 3510.38 1964.9 M 4010.62 1576.56 L 3766.29 1050.75 M 3766.29 1050.75 L 3811.76 691.706 M 4197.52 5270.62 L 3931.42 5175.81 M 4070.47 5728.25 L 4197.52 5270.62 M 3893.79 4040.8 L 3559.99 4474.77 M 4840.19 864.86 L 4596.92 1391.17 M 5039.27 1679.65 L 5187.69 1285.71 M 4899.14 6481.46 L 5044.91 5965.51 M 5027.31 1348.85 L 4803.99 1836.27 M 5102.53 2139.44 L 5394.65 1557.46 M 4803.99 1836.27 L 4388.14 1848.66 M 4388.14 1848.66 L 4482.01 2307.59 M 4484.09 6452.84 L 4899.14 6481.46 M 5183.58 1277.19 L 4998.87 1655.48 M 5384.44 1815.41 L 5618.18 1409.46 M 1626.95 3055.3 L 1415.24 2828.57 M 1415.24 2828.57 L 1307.35 3248.66 M 1660.19 1786.06 L 1249.56 1740.21 M 1249.56 1740.21 L 1448.09 2183.56 M 1275.52 3346.66 L 1512.58 3362.53 M 1999.33 2835.8 L 1428.94 2816.51 M 1428.94 2816.51 L 1626.95 3055.3 M 1512.58 3362.53 L 1765.21 2850.77 M 1156.27 2884.58 L 962.457 3411.32 M 962.457 3411.32 L 1275.52 3346.66 M 1480.07 2875.35 L 1156.27 2884.58 M 1448.09 2183.56 L 2008.15 2146.85 M 3638.52 4926.73 L 3797.86 4723.28 M 297.016 3261.46 L 428.956 3560.95 M 1026.84 4746.41 L 803.941 4986.04 M 1694.28 3439.52 L 1894.92 3159.73 M 1837.79 2914.76 L 1561.72 3216.58 M 571.405 3343.12 L 330.578 3012.5 M 2475.4 3462.79 L 2601.89 3261.68 M 2601.89 3261.68 L 2158.17 2864.9 M 2158.17 2864.9 L 1944.54 3203.07 M 1944.54 3203.07 L 1694.28 3439.52 M 2054.99 3569.4 L 2475.4 3462.79 M 516.086 6087.04 L 832.321 6040.27 M 820.698 5664.7 L 1253.15 6010.94 M 1253.15 6010.94 L 1132.64 5705.2 M 832.321 6040.27 L 1305.88 5932.07 M 1305.88 5932.07 L 820.698 5664.7 M 1372.85 5534.46 L 1754.85 5260.96 M 1460.34 5154.63 L 1372.85 5534.46 M 1320.81 5371.91 L 1558 5599.36 M 1558 5599.36 L 1483.2 5216.84 M 1132.64 5705.2 L 1201.93 5404.4 M 2101.59 5162.33 L 2330.84 5124.25 M 1827.31 5420.49 L 2101.59 5162.33 M 2799.62 5419.87 L 2808.95 5000.91 M 2687.62 5186.86 L 2799.62 5419.87 M 2516.2 5264.43 L 2890.18 5309.29 M 2890.18 5309.29 L 2747.27 5093.85 M 3140.14 4209.36 L 3344.97 4738.46 M 2503.73 5003.3 L 2687.62 5186.86 M 2747.27 5093.85 L 2503.73 5003.3 M 2330.84 5124.25 L 2516.2 5264.43 M 3361.38 5233.18 L 3638.52 4926.73 M 3344.97 4738.46 L 3361.38 5233.18 M 3258.54 4477.06 L 2688.68 4428.27 M 3340.25 4206.56 L 3258.54 4477.06 M 1758.35 5080.44 L 1460.34 5154.63 M 1947.4 4875.03 L 1524.98 4925.96 M 2066.66 5354.04 L 2134.79 4934.04 M 1885.96 4987.41 L 2066.66 5354.04 M 669.976 5200.94 L 438.562 5308.84 M 438.562 5308.84 L 797.248 5314.34 M 666.745 5431.15 L 490.91 5307.35 M 490.91 5307.35 L 707.285 5523.34 M 1986.78 2770.42 L 1726.93 2609.33 M 1726.93 2609.33 L 1837.79 2914.76 M 803.941 4986.04 L 741.85 5280.27 M 741.85 5280.27 L 934.555 5033.45 M 797.248 5314.34 L 1051.56 5108.98 M 934.555 5033.45 L 669.976 5200.94 M 602.613 5237.65 L 671.136 5441.48 M 874.314 5003.41 L 602.613 5237.65 M 1068 5132.06 L 742.403 5103.19 M 742.403 5103.19 L 981.777 5282.57 M 671.136 5441.48 L 832.12 5366.96 M 832.12 5366.96 L 666.745 5431.15 M 981.777 5282.57 L 874.314 5003.41 M 707.285 5523.34 L 516.086 6087.04 M 0 3214.47 L 297.016 3261.46 M 10.0377 2959.33 L 0 3214.47 M 330.578 3012.5 L 10.0377 2959.33 M 1201.93 5404.4 L 1401.93 5140.86 M 1894.92 3159.73 L 1986.78 2770.42 M 1382.36 4890.73 L 1068 5132.06 M 1051.56 5108.98 L 1382.36 4890.73 M 2688.68 4428.27 L 3015.99 4897.29 M 3015.99 4897.29 L 3298.56 4895.42 M 3298.56 4895.42 L 3035.09 4448.02 M 3042.09 4437.34 L 3526.14 4625.17 M 3526.14 4625.17 L 3140.14 4209.36 M 1754.85 5260.96 L 1349.46 5498.41 M 1349.46 5498.41 L 1827.31 5420.49 M 3799.1 4392.26 L 3340.25 4206.56 M 3391.69 4653.87 L 3799.1 4392.26 M 2984.89 4754.51 L 3391.69 4653.87 M 1524.98 4925.96 L 1232.92 5076.01 M 1543.05 5354.98 L 1742.49 4998.2 M 1401.93 5140.86 L 1220.75 5417.68 M 1220.75 5417.68 L 1543.05 5354.98 M 1232.92 5076.01 L 1320.81 5371.91 M 1483.2 5216.84 L 1758.35 5080.44 M 2008.15 2146.85 L 2289.36 2461.56 M 2289.36 2461.56 L 2194.94 2898.76 M 2078.35 1612.63 L 1914.11 1834.08 M 2167.04 4503.33 L 1631.86 4929.13 M 1631.86 4929.13 L 1907.27 4942.1 M 2171.09 4797.85 L 2615.55 4416.72 M 1957.27 2762.33 L 1516.14 2688.43 M 1516.14 2688.43 L 1158.22 2912.06 M 1158.22 2912.06 L 1480.07 2875.35 M 3797.86 4723.28 L 3356.2 4034.21 M 3148.39 4762.69 L 3223.97 4412.1 M 2991.74 4446.88 L 2592.84 5161.55 M 2592.84 5161.55 L 3148.39 4762.69 M 2461.88 4299.13 L 2167.04 4503.33 M 1914.11 1834.08 L 1660.19 1786.06 M 3361.41 592.942 L 3107.05 483.654 M 3107.05 483.654 L 3150.25 984.895 M 3150.25 984.895 L 3342.94 1461.25 M 3931.42 5175.81 L 3702.72 4733.39 M 3614.29 4131.34 L 3589.55 4495.97 M 3589.55 4495.97 L 3893.79 4040.8 M 3245.4 2346.98 L 3112.94 1850.5 M 3112.94 1850.5 L 2980.24 1365.22 M 2980.24 1365.22 L 2876.19 1829.64 M 2296.57 734.098 L 2941.66 797.489 M 2941.66 797.489 L 2526.21 553.482 M 3812.56 5627.64 L 4070.47 5728.25 M 3629.55 4951.52 L 3812.56 5627.64 M 3559.99 4474.77 L 3629.55 4951.52 M 1922.75 622.733 L 2225.14 1124.09 M 2876.19 1829.64 L 3205.08 1485.62 M 3205.08 1485.62 L 2936.25 838.802 M 2526.21 553.482 L 2238.33 328.336 M 2602.28 1097.93 L 2321.38 1285.46 M 2644.45 1637.86 L 2602.28 1097.93 M 2321.38 1285.46 L 2416.22 1679.49 M 2632.08 1453.59 L 2348.87 1515.17 M 2634.42 1858.87 L 2632.08 1453.59 M 2228.64 2127.68 L 2634.42 1858.87 M 2348.87 1515.17 L 2078.35 1612.63 M 2608.16 1097.5 L 2644.45 1637.86 M 2869.62 1311.96 L 2608.16 1097.5 M 3317.87 4817.39 L 3379.4 4357.6 M 3300.33 5205.19 L 3647.05 5144.23 M 3647.05 5144.23 L 3317.87 4817.39 M 3070.6 5008.55 L 3300.33 5205.19 M 1907.27 4942.1 L 1928.61 5228.84 M 1928.61 5228.84 L 2487.48 4960.44 M 1867.7 4944.77 L 1780.5 5221.17 M 2717.67 928.388 L 2531.66 1323.78 M 2531.66 1323.78 L 2869.62 1311.96 M 2567.94 4665.85 L 2979.93 4615.97 M 2671.42 5414.53 L 2496.6 5148.06 M 3181.53 4496.07 L 2642.45 3768.14 M 2642.45 3768.14 L 2973.85 4579.48 M 2979.93 4615.97 L 2462.22 3908.81 M 2462.22 3908.81 L 2447.27 4345.52 M 2973.85 4579.48 L 2567.94 4665.85 M 2909.3 5264.34 L 3070.6 5008.55 M 2608.12 5446.6 L 2909.3 5264.34 M 2496.6 5148.06 L 2608.12 5446.6 M 3379.4 4357.6 L 2998.09 3609.03 M 2998.09 3609.03 L 3181.53 4496.07 M 1842.83 5553.12 L 2671.42 5414.53 M 1780.5 5221.17 L 1842.83 5553.12 M 2487.48 4960.44 L 1867.7 4944.77 M 2416.22 1679.49 L 2625.58 2229.7 M 2417.41 1679.04 L 2228.64 2127.68 M 2625.58 2229.7 L 2417.41 1679.04 M 2447.27 4345.52 L 2171.09 4797.85 M 2225.14 1124.09 L 2717.67 928.388 M 2936.25 838.802 L 2296.57 734.098 M 5187.69 1285.71 L 5175.08 727.658 M 5175.08 727.658 L 4840.19 864.86 M 5377.47 753.745 L 5183.58 1277.19 M 5618.18 1409.46 L 5581.62 808.739 M 4591.72 6199.52 L 4519.27 5877.99 M 4103.68 5986.48 L 4484.09 6452.84 M 4307.11 5647.95 L 4103.68 5986.48 M 4519.27 5877.99 L 4307.11 5647.95 M 5581.62 808.739 L 5817.84 492.22 M 4336.11 429.578 L 4471.28 972.284 M 4696.36 339.359 L 4336.11 429.578 M 4055.25 5855.82 L 4338.84 5988.14 M 5817.84 492.22 L 5776.42 94.3422 M 5776.42 94.3422 L 5516.15 388.993 M 3921.25 5478.91 L 4055.25 5855.82 M 4846.34 5684.58 L 4646.92 5378.04 M 3877.13 5199.88 L 3921.25 5478.91 M 4474.46 1751.08 L 4703.98 1466.38 M 3969.02 726.232 L 4415.15 1260.11 M 4471.28 972.284 L 3969.02 726.232 M 4646.92 5378.04 L 4570.27 4925.2 M 4570.27 4925.2 L 4376.19 5120.85 M 4269.6 2162.14 L 4474.46 1751.08 M 5503.71 818.403 L 5207 650.48 M 5266.7 959.013 L 5503.71 818.403 M 4257.14 1714.83 L 4041.47 1936.21 M 4041.47 1936.21 L 4269.6 2162.14 M 5450.71 412.064 L 5343.18 109.542 M 5343.18 109.542 L 5048.77 335.9 M 5207 650.48 L 5450.71 412.064 M 4875.88 676.2 L 4696.36 339.359 M 4832.09 1033.95 L 5266.7 959.013 M 4703.98 1466.38 L 5027.31 1348.85 M 5048.77 335.9 L 4875.88 676.2 M 5516.15 388.993 L 5377.47 753.745 M 3811.76 691.706 L 3544.68 407.194 M 3544.68 407.194 L 3268.78 127.124 M 3268.78 127.124 L 3361.41 592.942 M 4376.19 5120.85 L 4171.3 4893.25 M 5222.58 1133.24 L 5221.54 826.998 M 5221.54 826.998 L 4832.09 1033.95 M 5044.91 5965.51 L 4846.34 5684.58 M 4338.84 5988.14 L 4591.72 6199.52 M 3702.72 4733.39 L 3877.13 5199.88 M 5394.65 1557.46 L 5222.58 1133.24 M 4171.3 4893.25 L 4349.49 4471.56 M 3955.55 1782.43 L 4257.14 1714.83 M 4415.15 1260.11 L 3955.55 1782.43" />
<path fill="none" class="c" d=" M 2740.69 3119.76 L 2886.24 2641.28 M 2740.69 3119.76 L 3253.63 3174.34 M 3173.73 3543.81 L 3253.63 3174.34 M 3173.73 3543.81 L 3714.91 4091.07 M 3714.91 4091.07 L 3253.63 3174.34 M 3173.73 3543.81 L 3356.99 4082.82 M 3625.36 3418.07 L 3253.63 3174.34 M 3714.91 4091.07 L 3625.36 3418.07 M 3173.73 3543.81 L 2908.55 3677.56 M 3625.36 3418.07 L 3459.44 3014.19 M 4010.43 4186.08 L 3625.36 3418.07 M 3805.72 3052.41 L 3459.44 3014.19 M 3870.87 3579.61 L 3625.36 3418.07 M 4010.43 4186.08 L 3870.87 3579.61 M 3627.49 2816.7 L 3459.44 3014.19 M 3870.87 3579.61 L 3927.63 3144.44 M 3805.72 3052.41 L 3627.49 2816.7 M 3714.91 4091.07 L 4010.43 4186.08 M 2647 3243.98 L 2908.55 3677.56 M 2908.55 3677.56 L 3356.99 4082.82 M 3459.44 3014.19 L 3253.63 3174.34 M 3805.72 3052.41 L 4126.48 3121.23 M 2908.55 3677.56 L 2980.75 4042.55 M 3954.64 4571.66 L 4010.43 4186.08 M 2549.29 3500.23 L 2908.55 3677.56 M 2806.6 4083.05 L 2980.75 4042.55 M 4209.08 4397.24 L 4010.43 4186.08 M 2814.56 3923.12 L 2908.55 3677.56 M 2549.29 3500.23 L 2814.56 3923.12 M 2806.6 4083.05 L 2615.55 4416.72 M 2529.94 4109.42 L 2814.56 3923.12 M 2461.88 4299.13 L 2615.55 4416.72 M 3140.14 4209.36 L 2814.56 3923.12 M 2529.94 4109.42 L 3140.14 4209.36 M 2167.04 4503.33 L 2615.55 4416.72 M 3140.14 4209.36 L 3356.2 4034.21 M 3042.09 4437.34 L 3140.14 4209.36 M 2167.04 4503.33 L 2171.09 4797.85 M 3344.97 4738.46 L 3356.2 4034.21 M 1907.27 4942.1 L 2171.09 4797.85 M 4209.08 4397.24 L 4373.83 3717.83 M 2814.56 3923.12 L 3162.15 4009.98 M 2549.29 3500.23 L 2529.94 4109.42 M 2487.48 4960.44 L 2171.09 4797.85 M 2647 3243.98 L 2549.29 3500.23 M 3829.58 3576.93 L 4126.48 3121.23 M 2814.56 3923.12 L 3223.97 4412.1 M 2098.66 4002.56 L 2529.94 4109.42 M 2567.94 4665.85 L 2171.09 4797.85 M 2647 3243.98 L 2194.94 2898.76 M 2253.03 4341.97 L 2529.94 4109.42 M 2567.94 4665.85 L 2447.27 4345.52 M 2390.72 2801.46 L 2194.94 2898.76 M 2417.95 4520.02 L 2529.94 4109.42 M 2979.93 4615.97 L 2447.27 4345.52 M 2390.72 2801.46 L 2289.36 2461.56 M 2417.95 4520.02 L 2688.68 4428.27 M 2688.68 4428.27 L 2529.94 4109.42 M 2625.65 4684.01 L 2688.68 4428.27 M 2688.68 4428.27 L 3035.09 4448.02 M 2984.89 4754.51 L 2688.68 4428.27 M 3015.99 4897.29 L 3035.09 4448.02 M 2984.89 4754.51 L 3258.54 4477.06 M 3245.4 2346.98 L 2289.36 2461.56 M 3391.69 4653.87 L 3258.54 4477.06 M 3245.4 2346.98 L 2625.58 2229.7 M 2625.58 2229.7 L 2289.36 2461.56 M 3391.69 4653.87 L 3340.25 4206.56 M 2876.19 1829.64 L 2625.58 2229.7 M 3245.4 2346.98 L 2876.19 1829.64 M 2625.58 2229.7 L 2228.64 2127.68 M 2644.45 1637.86 L 2625.58 2229.7 M 3112.94 1850.5 L 2876.19 1829.64 M 2228.64 2127.68 L 2289.36 2461.56 M 2644.45 1637.86 L 2416.22 1679.49 M 2876.19 1829.64 L 2644.45 1637.86 M 2228.64 2127.68 L 2008.15 2146.85 M 2644.45 1637.86 L 2321.38 1285.46 M 2876.19 1829.64 L 2869.62 1311.96 M 2869.62 1311.96 L 2644.45 1637.86 M 1914.11 1834.08 L 2008.15 2146.85 M 2228.64 2127.68 L 1914.11 1834.08 M 3205.08 1485.62 L 2869.62 1311.96 M 2417.95 4520.02 L 2625.65 4684.01 M 3829.58 3576.93 L 3952.26 3762.8 M 2991.74 4446.88 L 3223.97 4412.1 M 2098.66 4002.56 L 2253.03 4341.97 M 2228.64 2127.68 L 2078.35 1612.63 M 2936.25 838.802 L 2869.62 1311.96 M 2268.99 4868.5 L 2625.65 4684.01 M 2487.48 4960.44 L 2567.94 4665.85 M 2991.74 4446.88 L 3148.39 4762.69 M 2717.67 928.388 L 2869.62 1311.96 M 2503.73 5003.3 L 2625.65 4684.01 M 2268.99 4868.5 L 2503.73 5003.3 M 3070.6 5008.55 L 2567.94 4665.85 M 2487.48 4960.44 L 3070.6 5008.55 M 2503.73 5003.3 L 2808.95 5000.91 M 2268.99 4868.5 L 2330.84 5124.25 M 2330.84 5124.25 L 2503.73 5003.3 M 3070.6 5008.55 L 2973.85 4579.48 M 2487.48 4960.44 L 2909.3 5264.34 M 2687.62 5186.86 L 2808.95 5000.91 M 1947.4 4875.03 L 2330.84 5124.25 M 2496.6 5148.06 L 2909.3 5264.34 M 2516.2 5264.43 L 2503.73 5003.3 M 1947.4 4875.03 L 2101.59 5162.33 M 3317.87 4817.39 L 2973.85 4579.48 M 2516.2 5264.43 L 2747.27 5093.85 M 1758.35 5080.44 L 2101.59 5162.33 M 1947.4 4875.03 L 1758.35 5080.44 M 3181.53 4496.07 L 2973.85 4579.48 M 3317.87 4817.39 L 3181.53 4496.07 M 1754.85 5260.96 L 2101.59 5162.33 M 1758.35 5080.44 L 1754.85 5260.96 M 1524.98 4925.96 L 1758.35 5080.44 M 3379.4 4357.6 L 3181.53 4496.07 M 1754.85 5260.96 L 1827.31 5420.49 M 1460.34 5154.63 L 1754.85 5260.96 M 1524.98 4925.96 L 1483.2 5216.84 M 3070.6 5008.55 L 3317.87 4817.39 M 2487.48 4960.44 L 2496.6 5148.06 M 1232.92 5076.01 L 1483.2 5216.84 M 3300.33 5205.19 L 3317.87 4817.39 M 1867.7 4944.77 L 2496.6 5148.06 M 1320.81 5371.91 L 1483.2 5216.84 M 4126.48 3121.23 L 3627.49 2816.7 M 1867.7 4944.77 L 2671.42 5414.53 M 3714.91 4091.07 L 3954.64 4571.66 M 3861.49 2580.57 L 3627.49 2816.7 M 4126.48 3121.23 L 3861.49 2580.57 M 1780.5 5221.17 L 2671.42 5414.53 M 3650.47 4482.97 L 3954.64 4571.66 M 3714.91 4091.07 L 3650.47 4482.97 M 3861.49 2580.57 L 3246.52 2622.31 M 4326.78 3076.86 L 3861.49 2580.57 M 4126.48 3121.23 L 4326.78 3076.86 M 3783.37 4755.47 L 3954.64 4571.66 M 3357.8 4116.4 L 3650.47 4482.97 M 3343.03 2097.32 L 3246.52 2622.31 M 4113.68 2542.75 L 3861.49 2580.57 M 4326.78 3076.86 L 4113.68 2542.75 M 3783.37 4755.47 L 4124.6 4829.11 M 4326.78 3076.86 L 4483.86 2842.02 M 3357.8 4116.4 L 3558.31 4771.8 M 4746.26 3359.28 L 4483.86 2842.02 M 4326.78 3076.86 L 4746.26 3359.28 M 3357.8 4116.4 L 3269.92 4536.9 M 5136.29 3268.39 L 4483.86 2842.02 M 4746.26 3359.28 L 5136.29 3268.39 M 4326.78 3076.86 L 4472.33 3487.84 M 5136.29 3268.39 L 4826.29 2770.53 M 4826.29 2770.53 L 4483.86 2842.02 M 4923.71 3628.93 L 5136.29 3268.39 M 4746.26 3359.28 L 4923.71 3628.93 M 3807.33 3475.76 L 4472.33 3487.84 M 4515.09 2430.57 L 4483.86 2842.02 M 4923.71 3628.93 L 5136.91 3763.84 M 5136.91 3763.84 L 5136.29 3268.39 M 4746.26 3359.28 L 4510.16 3561.9 M 3807.33 3475.76 L 4414.67 3829.44 M 4515.09 2430.57 L 4210.27 2452.47 M 4923.71 3628.93 L 5030.09 4051.36 M 5595.61 3269.44 L 5136.29 3268.39 M 4746.26 3359.28 L 4537.11 3136.26 M 3893.79 4040.8 L 4414.67 3829.44 M 5595.61 3269.44 L 5276.5 2903.54 M 4781.82 3058.78 L 4537.11 3136.26 M 3893.79 4040.8 L 4349.49 4471.56 M 5635.59 3067.27 L 5276.5 2903.54 M 5595.61 3269.44 L 5635.59 3067.27 M 4781.82 3058.78 L 4618.59 2834.33 M 3559.99 4474.77 L 4349.49 4471.56 M 5293.63 2571.33 L 5276.5 2903.54 M 5917.02 3013.56 L 5635.59 3067.27 M 5005.06 2793.86 L 4618.59 2834.33 M 3702.72 4733.39 L 4349.49 4471.56 M 5293.63 2571.33 L 4715.22 2599.7 M 3559.99 4474.77 L 3702.72 4733.39 M 5005.06 2793.86 L 4661.85 2364.03 M 3702.72 4733.39 L 4171.3 4893.25 M 5102.53 2139.44 L 4715.22 2599.7 M 3629.55 4951.52 L 3702.72 4733.39 M 3877.13 5199.88 L 4171.3 4893.25 M 5102.53 2139.44 L 4482.01 2307.59 M 3629.55 4951.52 L 3931.42 5175.81 M 3877.13 5199.88 L 4376.19 5120.85 M 5102.53 2139.44 L 4803.99 1836.27 M 4803.99 1836.27 L 4482.01 2307.59 M 3812.56 5627.64 L 3931.42 5175.81 M 3921.25 5478.91 L 4376.19 5120.85 M 5394.65 1557.46 L 4803.99 1836.27 M 3807.33 3475.76 L 3893.79 4040.8 M 4684.44 3972.83 L 5030.09 4051.36 M 5030.09 4051.36 L 5136.91 3763.84 M 3921.25 5478.91 L 4646.92 5378.04 M 5136.29 3268.39 L 5048.44 2403.69 M 4826.29 2770.53 L 4515.09 2430.57 M 3706.59 3820.63 L 3893.79 4040.8 M 5030.09 4051.36 L 5810.94 3741.09 M 5432.37 3013.22 L 5048.44 2403.69 M 5014.81 2385.32 L 4515.09 2430.57 M 3614.29 4131.34 L 3893.79 4040.8 M 3343.03 2097.32 L 2647.1 2644.85 M 4407.06 2237.27 L 3861.49 2580.57 M 5014.81 2385.32 L 4630.11 2145.44 M 1831.37 4189.09 L 2253.03 4341.97 M 2936.25 838.802 L 2717.67 928.388 M 2228.64 2127.68 L 2348.87 1515.17 M 4480.02 4350.99 L 4373.83 3717.83 M 2098.66 4002.56 L 1831.37 4189.09 M 3412.16 3656.7 L 3952.26 3762.8 M 5014.81 2385.32 L 4827.13 1988.26 M 2296.57 734.098 L 2717.67 928.388 M 2634.42 1858.87 L 2348.87 1515.17 M 1831.37 4189.09 L 1898 4408.76 M 1619.38 3958.26 L 1831.37 4189.09 M 1898 4408.76 L 2253.03 4341.97 M 5255.49 2166.25 L 4827.13 1988.26 M 2296.57 734.098 L 2225.14 1124.09 M 2098.66 4002.56 L 1619.38 3958.26 M 4116.92 1951.53 L 3861.49 2580.57 M 1619.38 3958.26 L 1376.88 4147.42 M 1376.88 4147.42 L 1831.37 4189.09 M 1887.42 3597.19 L 1619.38 3958.26 M 4116.92 1951.53 L 3510.38 1964.9 M 1438.56 3946.16 L 1376.88 4147.42 M 1619.38 3958.26 L 1438.56 3946.16 M 1376.88 4147.42 L 1595.31 4403.9 M 1595.31 4403.9 L 1831.37 4189.09 M 1887.42 3597.19 L 1444.6 3760.99 M 4010.62 1576.56 L 3510.38 1964.9 M 1438.56 3946.16 L 1339.73 3965.6 M 1499.88 3723.35 L 1438.56 3946.16 M 1397.73 4309.77 L 1595.31 4403.9 M 1595.31 4403.9 L 1813.24 4673.8 M 4010.62 1576.56 L 3342.94 1461.25 M 1137.64 3892.11 L 1339.73 3965.6 M 1499.88 3723.35 L 1235.17 3634.71 M 1438.56 3946.16 L 1137.64 3892.11 M 1343.35 4516.11 L 1813.24 4673.8 M 3766.29 1050.75 L 3342.94 1461.25 M 1137.64 3892.11 L 894.836 4160.78 M 894.836 4160.78 L 1339.73 3965.6 M 1747.81 3330.07 L 1235.17 3634.71 M 1438.56 3946.16 L 1360.56 3601.52 M 1343.35 4516.11 L 1742.49 4998.2 M 3766.29 1050.75 L 3150.25 984.895 M 1672.04 3656.58 L 1360.56 3601.52 M 1343.35 4516.11 L 1382.36 4890.73 M 1382.36 4890.73 L 1742.49 4998.2 M 3811.76 691.706 L 3150.25 984.895 M 1694.28 3439.52 L 1360.56 3601.52 M 1672.04 3656.58 L 1694.28 3439.52 M 1026.84 4746.41 L 1382.36 4890.73 M 1382.36 4890.73 L 1401.93 5140.86 M 1401.93 5140.86 L 1742.49 4998.2 M 3811.76 691.706 L 3361.41 592.942 M 3361.41 592.942 L 3150.25 984.895 M 1694.28 3439.52 L 1561.72 3216.58 M 1068 5132.06 L 1401.93 5140.86 M 1401.93 5140.86 L 1543.05 5354.98 M 3544.68 407.194 L 3361.41 592.942 M 2054.99 3569.4 L 1694.28 3439.52 M 1894.92 3159.73 L 1561.72 3216.58 M 1068 5132.06 L 1201.93 5404.4 M 1026.84 4746.41 L 1051.56 5108.98 M 2054.99 3569.4 L 1944.54 3203.07 M 1894.92 3159.73 L 1837.79 2914.76 M 1068 5132.06 L 981.777 5282.57 M 981.777 5282.57 L 1201.93 5404.4 M 1026.84 4746.41 L 934.555 5033.45 M 1986.78 2770.42 L 1837.79 2914.76 M 934.555 5033.45 L 1051.56 5108.98 M 832.12 5366.96 L 1201.93 5404.4 M 981.777 5282.57 L 832.12 5366.96 M 803.941 4986.04 L 934.555 5033.45 M 934.555 5033.45 L 797.248 5314.34 M 832.12 5366.96 L 1132.64 5705.2 M 874.314 5003.41 L 832.12 5366.96 M 2475.4 3462.79 L 1944.54 3203.07 M 669.976 5200.94 L 797.248 5314.34 M 820.698 5664.7 L 1132.64 5705.2 M 832.12 5366.96 L 820.698 5664.7 M 874.314 5003.41 L 671.136 5441.48 M 2601.89 3261.68 L 1944.54 3203.07 M 832.12 5366.96 L 707.285 5523.34 M 707.285 5523.34 L 820.698 5664.7 M 666.745 5431.15 L 707.285 5523.34 M 516.086 6087.04 L 820.698 5664.7 M 909.802 3983.56 L 894.836 4160.78 M 1137.64 3892.11 L 909.802 3983.56 M 832.321 6040.27 L 820.698 5664.7 M 894.836 4160.78 L 1251.43 4128.82 M 831.63 3690.88 L 909.802 3983.56 M 1747.81 3330.07 L 1307.35 3248.66 M 894.836 4160.78 L 1173.16 4272.57 M 831.63 3690.88 L 664.624 3791.26 M 1747.81 3330.07 L 1626.95 3055.3 M 1626.95 3055.3 L 1307.35 3248.66 M 894.836 4160.78 L 1086.79 4434.08 M 831.63 3690.88 L 428.956 3560.95 M 1999.33 2835.8 L 1626.95 3055.3 M 918.351 4477.15 L 1086.79 4434.08 M 571.405 3343.12 L 428.956 3560.95 M 2131.9 4545.37 L 2253.03 4341.97 M 5255.49 2166.25 L 4998.87 1655.48 M 571.405 3343.12 L 297.016 3261.46 M 2131.9 4545.37 L 2325.76 4573.51 M 5384.44 1815.41 L 4998.87 1655.48 M 330.578 3012.5 L 297.016 3261.46 M 2296.57 734.098 L 1922.75 622.733 M 5384.44 1815.41 L 5183.58 1277.19 M 330.578 3012.5 L 0 3214.47 M 2238.33 328.336 L 1922.75 622.733 M 2296.57 734.098 L 2238.33 328.336 M 5618.18 1409.46 L 5183.58 1277.19 M 1998.42 110.374 L 1922.75 622.733 M 2296.57 734.098 L 2526.21 553.482 M 5618.18 1409.46 L 5377.47 753.745 M 2098.66 4002.56 L 1887.42 3597.19 M 1898 4408.76 L 2131.9 4545.37 M 5581.62 808.739 L 5377.47 753.745 M 2313.35 3362.78 L 1887.42 3597.19 M 2002.18 4727.05 L 2131.9 4545.37 M 5581.62 808.739 L 5516.15 388.993 M 2065.99 3033.81 L 1887.42 3597.19 M 5817.84 492.22 L 5516.15 388.993 M 2065.99 3033.81 L 1625.49 3212.11 M 2313.35 3362.78 L 2065.99 3033.81 M 2002.18 4727.05 L 2267.77 4923.76 M 1783.07 4671.73 L 1898 4408.76 M 1957.27 2762.33 L 2065.99 3033.81 M 4827.13 1988.26 L 4630.11 2145.44 M 1783.07 4671.73 L 2068.47 4697.03 M 1957.27 2762.33 L 1765.21 2850.77 M 4827.13 1988.26 L 4485.69 1764.7 M 1885.96 4987.41 L 2068.47 4697.03 M 1516.14 2688.43 L 1765.21 2850.77 M 5039.27 1679.65 L 4485.69 1764.7 M 1516.14 2688.43 L 1480.07 2875.35 M 5039.27 1679.65 L 4596.92 1391.17 M 1885.96 4987.41 L 2134.79 4934.04 M 5187.69 1285.71 L 4596.92 1391.17 M 1480.07 2875.35 L 1765.21 2850.77 M 2167.04 4503.33 L 1907.27 4942.1 M 5187.69 1285.71 L 4840.19 864.86 M 1480.07 2875.35 L 1512.58 3362.53 M 1907.27 4942.1 L 2487.48 4960.44 M 4684.44 3972.83 L 4732.62 4301.34 M 1480.07 2875.35 L 1275.52 3346.66 M 4055.25 5855.82 L 4646.92 5378.04 M 4383.72 4275.26 L 4732.62 4301.34 M 1156.27 2884.58 L 1275.52 3346.66 M 4338.84 5988.14 L 4646.92 5378.04 M 4383.72 4275.26 L 4519.62 4621.14 M 5394.65 1557.46 L 5027.31 1348.85 M 4338.84 5988.14 L 4846.34 5684.58 M 4732.62 4301.34 L 5030.09 4051.36 M 5222.58 1133.24 L 5027.31 1348.85 M 4591.72 6199.52 L 4846.34 5684.58 M 4832.09 1033.95 L 5027.31 1348.85 M 5222.58 1133.24 L 4832.09 1033.95 M 4832.09 1033.95 L 4415.15 1260.11 M 4591.72 6199.52 L 5044.91 5965.51 M 4471.28 972.284 L 4415.15 1260.11 M 4832.09 1033.95 L 4471.28 972.284 M 4591.72 6199.52 L 4899.14 6481.46 M 4832.09 1033.95 L 4875.88 676.2 M 4875.88 676.2 L 4471.28 972.284 M 4591.72 6199.52 L 4484.09 6452.84 M 4832.09 1033.95 L 5207 650.48 M 5207 650.48 L 4875.88 676.2 M 4696.36 339.359 L 4471.28 972.284 M 4591.72 6199.52 L 4103.68 5986.48 M 5266.7 959.013 L 5207 650.48 M 5207 650.48 L 5048.77 335.9 M 4519.27 5877.99 L 4103.68 5986.48 M 5450.71 412.064 L 5048.77 335.9 M 4415.15 1260.11 L 5027.31 1348.85 M 3344.97 4738.46 L 3797.86 4723.28 M 4415.15 1260.11 L 4703.98 1466.38 M 3344.97 4738.46 L 3638.52 4926.73 M 4415.15 1260.11 L 4474.46 1751.08 M 4415.15 1260.11 L 4257.14 1714.83 M 4257.14 1714.83 L 4474.46 1751.08 M 4646.92 5378.04 L 4376.19 5120.85 M 4257.14 1714.83 L 4269.6 2162.14 M 1660.19 1786.06 L 2008.15 2146.85 M 4070.47 5728.25 L 3931.42 5175.81 M 1660.19 1786.06 L 1448.09 2183.56" />
</svg>
