<?xml version="1.0"?>
<svg width="8597" height="6376" version="1.1" xmlns="http://www.w3.org/2000/svg" >
<defs>
<style type="text/css"><![CDATA[
.m {stroke:rgb(255,0,0);stroke-width:10.746250;}
.v {stroke:rgb(0,0,255);stroke-width:10.746250;}
.b {stroke:rgb(0,0,0);stroke-width:21.492500;fill:white}
.n {stroke:rgb(128,128,128);stroke-width:10.746250}
.t {stroke:rgb(0,128,0);stroke-width:10.746250;}
.c {stroke:rgb(128,128,128);stroke-width:10.746250;stroke-dasharray:85.970000, 85.970000;}
]]></style>
</defs>
<path fill="none" style="stroke:black;stroke-width:21.492500;" d=" M 8327.94 2223.98 L 8473.48 1745.5 M 2724.47 2759.46 L 2217.72 3139.26 M 2824.4 3136.17 L 2644.97 3790.95 M 2890.94 3723.64 L 3146.23 3385.68 M 2893.41 3725.49 L 2978.85 4294.17 M 2978.85 4294.17 L 3185.43 4101.42 M 2836.37 3832.94 L 2304.13 4164.51 M 4310.93 3219.96 L 4689.34 3131.64 M 4689.34 3131.64 L 4295.23 2747.93 M 3763.89 3029.94 L 4310.93 3219.96 M 2519.48 4779.04 L 2908.73 4390.4 M 2094.01 4782.95 L 2209.06 5342.04 M 2209.06 5342.04 L 2519.48 4779.04 M 4295.23 2747.93 L 3656.85 2671.81 M 1250.27 2851.39 L 2127.63 2971.19 M 2126.7 2440.44 L 1250.27 2851.39 M 8473.48 1745.5 L 8417.55 1214.65 M 8417.55 1214.65 L 7904.91 1936.67 M 3252.35 2774.86 L 3763.89 3029.94 M 7237.01 2178.43 L 6913.2 2364.64 M 7078.7 2653.57 L 6999.15 3103.71 M 6999.15 3103.71 L 7559.25 2727.28 M 7351.74 2455.83 L 7614.19 1967.27 M 4169.52 2721.75 L 3678.5 3082.83 M 3678.5 3082.83 L 4351.89 3126.91 M 5937.12 2813.45 L 6112.27 2898.82 M 6262.13 2491.15 L 6001.87 2490.36 M 6112.27 2898.82 L 6422.33 2695.15 M 6422.33 2695.15 L 6262.13 2491.15 M 6644.52 2638.12 L 6652.32 3009 M 6652.32 3009 L 6832.45 2748.99 M 6420.27 2135.09 L 5991.01 2549.02 M 6268.98 2574.69 L 6420.27 2135.09 M 6832.45 2748.99 L 7351.74 2455.83 M 6913.2 2364.64 L 6644.52 2638.12 M 6260.31 2805.63 L 6268.98 2574.69 M 7105.7 2188.64 L 6686.79 2390.27 M 6629.05 2647.43 L 7078.7 2653.57 M 6686.79 2390.27 L 6629.05 2647.43 M 4510.27 3168.49 L 4518.6 3625.53 M 4518.6 3625.53 L 4919.52 3421.86 M 4919.52 3421.86 L 4832.7 3120.72 M 4523.46 2795.86 L 4510.27 3168.49 M 5035.32 3238.71 L 5210.42 3498.64 M 5478.47 3347.87 L 5300.85 3061.61 M 4695.95 2319.79 L 4919.7 2563.05 M 5017.14 2337.05 L 4653.16 2060.17 M 4722.58 2667.82 L 4818.25 2277.33 M 4818.25 2277.33 L 4561.6 2556.18 M 4919.7 2563.05 L 4769.68 2268.55 M 4769.68 2268.55 L 4722.58 2667.82 M 4521.65 2656.31 L 4695.95 2319.79 M 4084.29 2580.62 L 4326.63 2477.43 M 3625.24 2763.8 L 3397.22 2923.06 M 4471.81 2168.02 L 4167.25 2147.85 M 4653.16 2060.17 L 4471.81 2168.02 M 4351.89 3126.91 L 4523.46 2795.86 M 4359.31 2502.64 L 4084.29 2580.62 M 4226.75 2907.08 L 4359.31 2502.64 M 5910.4 2854.89 L 5729.87 2928.21 M 5900.11 3328.91 L 6181.57 3101.06 M 5942.33 3156.14 L 5900.11 3328.91 M 5729.87 2928.21 L 5566.75 2988.34 M 5785.74 3240.48 L 5942.33 3156.14 M 6429.27 3365.23 L 6271.51 2905.72 M 6181.57 3101.06 L 6429.27 3365.23 M 6271.51 2905.72 L 6687.56 3156.6 M 6687.56 3156.6 L 6455.78 2883.72 M 6455.78 2883.72 L 6260.31 2805.63 M 5497.41 3157.86 L 5434.31 3308.89 M 5434.31 3308.89 L 5785.74 3240.48 M 5210.42 3498.64 L 5293.44 3748.78 M 5293.44 3748.78 L 5387.39 3537.64 M 5387.39 3537.64 L 5478.47 3347.87 M 5300.85 3061.61 L 5516.51 3320.42 M 5516.51 3320.42 L 5497.41 3157.86 M 5991.01 2549.02 L 5910.4 2854.89 M 5763.71 2801.01 L 5937.12 2813.45 M 6001.87 2490.36 L 5620 2452.85 M 3739.32 2543.41 L 3625.24 2763.8 M 4561.6 2556.18 L 4169.52 2721.75 M 4326.63 2477.43 L 4244.87 2727.81 M 4244.87 2727.81 L 4521.65 2656.31 M 5566.75 2988.34 L 5244.18 2451.99 M 5244.18 2451.99 L 5763.71 2801.01 M 5091.15 2710.27 L 4871.01 2894.4 M 4832.7 3120.72 L 5091.15 2710.27 M 5125.72 2762.16 L 5035.32 3238.71 M 4871.01 2894.4 L 5125.72 2762.16 M 4048.16 3761.94 L 4163.92 3513.32 M 3818.25 3310.78 L 4048.16 3761.94 M 4079.14 3288.8 L 3929.55 3072.56 M 3294.8 3134.37 L 3661.59 3310.4 M 7563.61 2315.71 L 7770.8 2109.34 M 7770.8 2109.34 L 8351.21 2497.24 M 8351.21 2497.24 L 8327.94 2223.98 M 7559.25 2727.28 L 7642.86 2034.21 M 7642.86 2034.21 L 7563.61 2315.71 M 3929.55 3072.56 L 3818.25 3310.78 M 3397.22 2923.06 L 3294.8 3134.37 M 3353.81 3044.34 L 3286.52 3225.77 M 3661.59 3310.4 L 3353.81 3044.34 M 4163.92 3513.32 L 4226.75 2907.08 M 7614.19 1967.27 L 7105.7 2188.64 M 2558.34 3760.79 L 2824.4 3136.17 M 3165.57 4228.88 L 2890.94 3723.64 M 3313.52 4866.89 L 3165.57 4228.88 M 2971.91 4296.57 L 3313.52 4866.89 M 3096.83 3707.69 L 2836.37 3832.94 M 2217.72 3139.26 L 1961.34 3607.45 M 2262.06 3911.57 L 2558.34 3760.79 M 2790.06 4162.47 L 2470.2 3652.35 M 2470.2 3652.35 L 2262.06 3911.57 M 2644.97 3790.95 L 2971.91 4296.57 M 2912.49 3441.08 L 2807.93 3715.64 M 2807.93 3715.64 L 3096.83 3707.69 M 1961.34 3607.45 L 1886.65 4250.53 M 2115.5 4125.48 L 2322.58 4509.89 M 2214.45 4550.76 L 2115.5 4125.48 M 4284.86 3503.01 L 4640.92 3376.06 M 4416.8 2911.46 L 4079.14 3288.8 M 3981.67 4439.28 L 3626.23 4262.08 M 3626.23 4262.08 L 3823.43 3836.47 M 3141.41 4012.78 L 3326.65 4308.66 M 3278.55 4875.53 L 3451.74 4526.54 M 3326.65 4308.66 L 3155.62 4612.98 M 3920.65 4181.03 L 4661.5 3470.89 M 4661.5 3470.89 L 4284.86 3503.01 M 1886.65 4250.53 L 2194.84 5229.41 M 2194.84 5229.41 L 2214.45 4550.76 M 2614.97 4539.45 L 2463.87 4127.43 M 2787.32 5207.21 L 2670.13 5719.02 M 2670.13 5719.02 L 3003.75 5433.89 M 3626.55 3871.2 L 4259.87 3765.95 M 4259.87 3765.95 L 3751.45 3464.99 M 3751.45 3464.99 L 3407.96 3945.71 M 3803.7 4693.61 L 4651.13 4552.27 M 4651.13 4552.27 L 3981.67 4439.28 M 3019.39 5012.45 L 2614.97 4539.45 M 2322.58 4509.89 L 3019.39 5012.45 M 3003.75 5433.89 L 3278.55 4875.53 M 3155.62 4612.98 L 2787.32 5207.21 M 3407.96 3945.71 L 3253.13 3322.65 M 3253.13 3322.65 L 3141.41 4012.78 M 3823.43 3836.47 L 3523.83 4197.4 M 3523.83 4197.4 L 3920.65 4181.03 M 3451.74 4526.54 L 3803.7 4693.61 M 4640.92 3376.06 L 4900.1 2782.8 M 4900.1 2782.8 L 4416.8 2911.46 M 2463.87 4127.43 L 2542.24 4646.61 M 2542.24 4646.61 L 2790.06 4162.47 M 3890.26 4346.87 L 3626.55 3871.2 M 3404.87 3892.6 L 3890.26 4346.87 M 3690.64 3077.23 L 3232.33 3148.81 M 3232.33 3148.81 L 3696 3135.3 M 3696 3135.3 L 3252.35 2774.86 M 4192.18 5678.25 L 4170.58 5183.27 M 3639.65 3816.66 L 3599.56 3389.68 M 3637.84 3387.81 L 3639.65 3816.66 M 4163.82 4079.73 L 3637.84 3387.81 M 3196.81 3688.95 L 3384.78 4056.28 M 3384.78 4056.28 L 3878.46 4360.72 M 3523.33 4484.96 L 3414.1 3915.33 M 3414.1 3915.33 L 3198.24 4097.61 M 3878.46 4360.72 L 3782.72 4656.74 M 3733.23 5696.64 L 4067.54 6048.7 M 4170.52 4498.23 L 4422.79 4502.12 M 4422.79 4502.12 L 4163.82 4079.73 M 4030.11 4910.6 L 4170.52 4498.23 M 4170.58 5183.27 L 4413.92 5116.63 M 4413.92 5116.63 L 4030.11 4910.6 M 3053.2 4751.12 L 3365.9 4747.05 M 3306.14 5047.51 L 2998.55 5104.01 M 2998.55 5104.01 L 3547.19 5330.35 M 3644.53 4958.65 L 3306.14 5047.51 M 3543.22 5616.84 L 3310.64 5935.67 M 3310.64 5935.67 L 3733.23 5696.64 M 3365.9 4747.05 L 3644.53 4958.65 M 3782.72 4656.74 L 3523.33 4484.96 M 3547.19 5330.35 L 2965.27 5446.96 M 3161.18 5715.8 L 3543.22 5616.84 M 3146.23 3385.68 L 2893.41 3725.49 M 3185.43 4101.42 L 3196.81 3688.95 M 2533.83 5833.26 L 3161.18 5715.8 M 2965.27 5446.96 L 2533.83 5833.26 M 3599.56 3389.68 L 4305.76 3247.48 M 4305.76 3247.48 L 3690.64 3077.23 M 4708.57 6377.37 L 4192.18 5678.25 M 4067.54 6048.7 L 4708.57 6377.37 M 3198.24 4097.61 L 2588.78 4337.4 M 2588.78 4337.4 L 3224.54 4532.8 M 3224.54 4532.8 L 3404.87 3892.6 M 2908.73 4390.4 L 3053.2 4751.12 M 7904.91 1936.67 L 8477.4 1156.12 M 8477.4 1156.12 L 7665.99 1674.51 M 7668.72 1690.47 L 8597.74 1437.41 M 8597.74 1437.41 L 7967.44 1411.96 M 7967.44 1411.96 L 7559.86 1369.05 M 2127.63 2971.19 L 2724.47 2759.46 M 2151.01 1826.7 L 2657.49 2183.53 M 2871.65 1891.79 L 2525.99 1586.69 M 2445.78 1234.37 L 2163.91 1215.66 M 2163.91 1215.66 L 2448.25 1709.3 M 2142.7 3732.23 L 2768.8 3697.34 M 3930.52 1461.15 L 3567.66 1819.59 M 3945.13 1997.1 L 4352.21 1486.31 M 4352.21 1486.31 L 3930.52 1461.15 M 2304.13 4164.51 L 2094.01 4782.95 M 3656.85 2671.81 L 4016.15 2228.28 M 4016.15 2228.28 L 3600.68 2206.76 M 3540.41 2093.47 L 3945.13 1997.1 M 3600.68 2206.76 L 3173.5 2361.33 M 6902.81 2345.27 L 7237.01 2178.43 M 7002.21 1054.1 L 6592.33 1001.89 M 6592.33 1001.89 L 6783.97 1448.26 M 6783.97 1448.26 L 6966.1 1710.98 M 7344.54 1420.24 L 7002.21 1054.1 M 4514.46 1039.65 L 4529.35 1492.55 M 4717.82 1199.11 L 4514.46 1039.65 M 6003.57 2462.98 L 6259.32 2414.68 M 6128 2160.29 L 5989.06 2161.82 M 6535.95 2236.59 L 6344.12 2514.9 M 6344.12 2514.9 L 6596.3 2575.56 M 6259.32 2414.68 L 6510.21 2188.16 M 6330.72 2011.93 L 6128 2160.29 M 6510.21 2188.16 L 7044.37 1935.3 M 6966.1 1710.98 L 6379.19 1810.23 M 6596.3 2575.56 L 6902.81 2345.27 M 7044.37 1935.3 L 6535.95 2236.59 M 5506.88 859.298 L 5287.16 1091.5 M 5528.4 1379.58 L 5506.88 859.298 M 5289.56 1584.28 L 5528.4 1379.58 M 5287.16 1091.5 L 4981.73 1469.23 M 4981.73 1469.23 L 4924.02 1935.49 M 5201.77 1790.95 L 5289.56 1584.28 M 5625.45 1901.71 L 5964.93 1750.32 M 5826.8 1486.31 L 5536.01 1606.27 M 5054.41 2060.38 L 4726.16 2189.92 M 4726.16 2189.92 L 4560.08 2352.47 M 4560.08 2352.47 L 5017.14 2337.05 M 4761.59 2257.32 L 5054.41 2060.38 M 4757.6 1880.67 L 4761.59 2257.32 M 4095.12 1937.86 L 4141.88 1654.47 M 4141.88 1654.47 L 3842.47 1883.02 M 3253.29 2743.45 L 3515.4 2650.39 M 4167.25 2147.85 L 4352.94 1905.59 M 4221.19 1679.79 L 4095.12 1937.86 M 4352.94 1905.59 L 4450.35 1718.43 M 4450.35 1718.43 L 4221.19 1679.79 M 5024.09 1476.45 L 4717.82 1199.11 M 3919.53 1922.99 L 3498.76 2083.28 M 3781.07 2095.67 L 3919.53 1922.99 M 6073.48 1813.43 L 5774.8 2012.13 M 5774.8 2012.13 L 5943.93 2033.46 M 5923.34 2225.95 L 5986.1 2349.92 M 5846.18 2110 L 5923.34 2225.95 M 6232.77 2177.92 L 6161.31 2023.16 M 6284.99 1774.61 L 5880.29 1511.17 M 5880.29 1511.17 L 6073.48 1813.43 M 6354.98 1611.6 L 6143.48 1312.92 M 6143.48 1312.92 L 6284.99 1774.61 M 6379.19 1810.23 L 6354.98 1611.6 M 6161.31 2023.16 L 5898.25 1768.71 M 5898.25 1768.71 L 5874.31 1938.84 M 5964.93 1750.32 L 5995.48 1552.57 M 5881.09 968.419 L 5826.8 1486.31 M 5995.48 1552.57 L 5881.09 968.419 M 5874.31 1938.84 L 5985 1807.44 M 5985 1807.44 L 5625.45 1901.71 M 5986.1 2349.92 L 6134.47 2552.63 M 6134.47 2552.63 L 6232.77 2177.92 M 5943.93 2033.46 L 6330.72 2011.93 M 5530.26 2218.56 L 5846.18 2110 M 5852.97 2132.24 L 5530.26 2218.56 M 5620 2452.85 L 6003.57 2462.98 M 5989.06 2161.82 L 5852.97 2132.24 M 3515.4 2650.39 L 3739.32 2543.41 M 4924.02 1935.49 L 5024.09 1476.45 M 4529.35 1492.55 L 4757.6 1880.67 M 3842.47 1883.02 L 3781.07 2095.67 M 5374.44 1762.19 L 5334.18 2053.28 M 5536.01 1606.27 L 5374.44 1762.19 M 5334.18 2053.28 L 5201.77 1790.95 M 7559.86 1369.05 L 7205.8 1124.57 M 329.499 1677.31 L 835.025 1610.7 M 558.656 1492.25 L 329.499 1677.31 M 2849.32 1575.24 L 2846.02 2111.77 M 3066.74 1946.54 L 2849.32 1575.24 M 2846.02 2111.77 L 2924.79 2615.55 M 3378.94 2778.42 L 3105.48 2668.97 M 7479.87 1714.54 L 7668.72 1690.47 M 3498.76 2083.28 L 3066.74 1946.54 M 3651.55 3001.93 L 3378.94 2778.42 M 3454.15 3129.09 L 3651.55 3001.93 M 2924.79 2615.55 L 3253.29 2743.45 M 3286.52 3225.77 L 3454.15 3129.09 M 7205.8 1124.57 L 6947.58 1114.17 M 6947.58 1114.17 L 7344.54 1420.24 M 7665.99 1674.51 L 7479.87 1714.54 M 2657.49 2183.53 L 2093.23 1927.68 M 2333.63 2824.89 L 1957.7 2835.23 M 1957.7 2835.23 L 2410.97 3041.58 M 2683.05 3156.61 L 2397.1 3082.51 M 2768.8 3697.34 L 2912.49 3441.08 M 2093.23 1927.68 L 1865.05 1861.23 M 1981.41 1660.22 L 2151.01 1826.7 M 2525.99 1586.69 L 2691.38 1041.54 M 2548.18 693.805 L 2356.76 1367.6 M 2691.38 1041.54 L 2548.18 693.805 M 2410.97 3041.58 L 2683.05 3156.61 M 2356.76 1367.6 L 2050.07 1147.07 M 2050.07 1147.07 L 1981.41 1660.22 M 2476.65 2368.96 L 2174.06 2142.85 M 2174.06 2142.85 L 2333.63 2824.89 M 1541.49 2204.96 L 2126.7 2440.44 M 1865.05 1861.23 L 1959.18 1352.13 M 491.171 1143 L 558.656 1492.25 M 1430.99 1216.93 L 1674.99 1628.07 M 1674.99 1628.07 L 1426.53 1219.61 M 1145.64 1291.04 L 1443.02 1624.56 M 1443.02 1624.56 L 1047.39 1416.85 M 835.025 1610.7 L 1171.55 2028.57 M 2999.37 1336.75 L 2710.46 1532.62 M 2988.43 1803.61 L 3173.46 1504.13 M 2710.46 1532.62 L 2304.01 1631.35 M 1426.53 1219.61 L 1121.74 360.421 M 1959.18 1352.13 L 2171.4 998.322 M 1769.43 1897.97 L 2098.59 1991.94 M 2304.01 1631.35 L 1769.43 1897.97 M 987.27 649.355 L 1145.64 1291.04 M 2131.29 271.953 L 1744.37 1090.96 M 2171.4 998.322 L 2302.92 415.598 M 2098.59 1991.94 L 2688.8 1844.42 M 3026.7 2322.09 L 2988.43 1803.61 M 2688.8 1844.42 L 2749.31 2449.77 M 561.479 968.809 L 235.446 690.347 M 235.446 690.347 L 491.171 1143 M 1121.74 360.421 L 780.552 273.714 M 780.552 273.714 L 987.27 649.355 M 3173.46 1504.13 L 3834.22 985.316 M 3834.22 985.316 L 2999.37 1336.75 M 2302.92 415.598 L 2350.1 0 M 2350.1 0 L 2131.29 271.953 M 1744.37 1090.96 L 1446.58 305.414 M 1446.58 305.414 L 1430.99 1216.93 M 3105.48 2668.97 L 3026.7 2322.09 M 1047.39 1416.85 L 561.479 968.809 M 1171.55 2028.57 L 1541.49 2204.96 M 2749.31 2449.77 L 2581.44 2748.09 M 2581.44 2748.09 L 2947.62 3032.67 M 2563.91 2772.21 L 2476.65 2368.96 M 2947.62 3032.67 L 2563.91 2772.21 M 3173.5 2361.33 L 3540.41 2093.47 M 3131.6 1377.9 L 3038.3 1761.67 M 3038.3 1761.67 L 2927.29 1382.64 M 1533.27 2494.38 L 1186.88 2360.48 M 3402.68 1534.26 L 3762.41 953.112 M 3762.41 953.112 L 3131.6 1377.9 M 2927.29 1382.64 L 2584.38 1176.63 M 2584.38 1176.63 L 2663.47 1561.73 M 2753.97 3111.31 L 2396.42 2440.1 M 2358.53 3171.77 L 2753.97 3111.31 M 0 2207.66 L 418.784 2625.18 M 667.04 2356.66 L 0 2207.66 M 2092.77 2657.43 L 2358.53 3171.77 M 2381.52 3268.67 L 2527.94 3027.1 M 2527.94 3027.1 L 1949.35 3006.86 M 418.784 2625.18 L 693.004 2850.52 M 881.412 2407.53 L 667.04 2356.66 M 693.004 2850.52 L 984.564 2881.9 M 2396.42 2440.1 L 2336.62 2228.05 M 1788.7 2736.78 L 2092.77 2657.43 M 2336.62 2228.05 L 2044.45 2127.27 M 2044.45 2127.27 L 1673.21 2117.45 M 1673.21 2117.45 L 1937.26 2429.91 M 1937.26 2429.91 L 1533.27 2494.38 M 1243.89 3140.23 L 1485.86 2873.12 M 1221.94 3510.09 L 1243.89 3140.23 M 984.564 2881.9 L 772.814 3084.76 M 1485.86 2873.12 L 1565.81 3224.55 M 1949.35 3006.86 L 1788.7 2736.78 M 772.814 3084.76 L 889.974 3419.79 M 2448.25 1709.3 L 2871.65 1891.79 M 2663.47 1561.73 L 2445.78 1234.37 M 1565.81 3224.55 L 1769.7 3533.91 M 889.974 3419.79 L 1021.34 3979.02 M 1021.34 3979.02 L 1221.94 3510.09 M 3567.66 1819.59 L 3983.53 1423.3 M 3983.53 1423.3 L 3402.68 1534.26 M 1958.91 3312.95 L 2213.56 3737.53 M 2213.56 3737.53 L 2381.52 3268.67 M 1769.7 3533.91 L 2142.7 3732.23 M 2397.1 3082.51 L 1958.91 3312.95 M 1186.88 2360.48 L 881.412 2407.53" />
<path fill="none" class="c" d=" M 8473.48 1745.5 L 7904.91 1936.67 M 7904.91 1936.67 L 8327.94 2223.98 M 7904.91 1936.67 L 7770.8 2109.34 M 7665.99 1674.51 L 7770.8 2109.34 M 7904.91 1936.67 L 7665.99 1674.51 M 7665.99 1674.51 L 7614.19 1967.27 M 7479.87 1714.54 L 7614.19 1967.27 M 7770.8 2109.34 L 8327.94 2223.98 M 7479.87 1714.54 L 7044.37 1935.3 M 6966.1 1710.98 L 7044.37 1935.3 M 6966.1 1710.98 L 6510.21 2188.16 M 6379.19 1810.23 L 6510.21 2188.16 M 6379.19 1810.23 L 6330.72 2011.93 M 6073.48 1813.43 L 6330.72 2011.93 M 6379.19 1810.23 L 6073.48 1813.43 M 6284.99 1774.61 L 6073.48 1813.43 M 6379.19 1810.23 L 6284.99 1774.61 M 7044.37 1935.3 L 7614.19 1967.27 M 7044.37 1935.3 L 7237.01 2178.43 M 7044.37 1935.3 L 6902.81 2345.27 M 7237.01 2178.43 L 7614.19 1967.27 M 7237.01 2178.43 L 7351.74 2455.83 M 6913.2 2364.64 L 7351.74 2455.83 M 7614.19 1967.27 L 7770.8 2109.34 M 7614.19 1967.27 L 7563.61 2315.71 M 7105.7 2188.64 L 7563.61 2315.71 M 7105.7 2188.64 L 7078.7 2653.57 M 6686.79 2390.27 L 7078.7 2653.57 M 6535.95 2236.59 L 6902.81 2345.27 M 6535.95 2236.59 L 6596.3 2575.56 M 7479.87 1714.54 L 6966.1 1710.98 M 7344.54 1420.24 L 6966.1 1710.98 M 7479.87 1714.54 L 7344.54 1420.24 M 6330.72 2011.93 L 6510.21 2188.16 M 6330.72 2011.93 L 6259.32 2414.68 M 6128 2160.29 L 6259.32 2414.68 M 6128 2160.29 L 6003.57 2462.98 M 5989.06 2161.82 L 6003.57 2462.98 M 5852.97 2132.24 L 6003.57 2462.98 M 5852.97 2132.24 L 5620 2452.85 M 5530.26 2218.56 L 5620 2452.85 M 5530.26 2218.56 L 5244.18 2451.99 M 5530.26 2218.56 L 5334.18 2053.28 M 5334.18 2053.28 L 5244.18 2451.99 M 5334.18 2053.28 L 5017.14 2337.05 M 5334.18 2053.28 L 5054.41 2060.38 M 5017.14 2337.05 L 5244.18 2451.99 M 5017.14 2337.05 L 4919.7 2563.05 M 5017.14 2337.05 L 4695.95 2319.79 M 5054.41 2060.38 L 5017.14 2337.05 M 4726.16 2189.92 L 5017.14 2337.05 M 4653.16 2060.17 L 4695.95 2319.79 M 4471.81 2168.02 L 4695.95 2319.79 M 5201.77 1790.95 L 5054.41 2060.38 M 4924.02 1935.49 L 5054.41 2060.38 M 5201.77 1790.95 L 4924.02 1935.49 M 5244.18 2451.99 L 5620 2452.85 M 5763.71 2801.01 L 5620 2452.85 M 5763.71 2801.01 L 6001.87 2490.36 M 5937.12 2813.45 L 6001.87 2490.36 M 6112.27 2898.82 L 6001.87 2490.36 M 6112.27 2898.82 L 6262.13 2491.15 M 4919.7 2563.05 L 5244.18 2451.99 M 5125.72 2762.16 L 5244.18 2451.99 M 4919.7 2563.05 L 5125.72 2762.16 M 4919.7 2563.05 L 4871.01 2894.4 M 4722.58 2667.82 L 4871.01 2894.4 M 4523.46 2795.86 L 4871.01 2894.4 M 4919.7 2563.05 L 4722.58 2667.82 M 4523.46 2795.86 L 4832.7 3120.72 M 4722.58 2667.82 L 4523.46 2795.86 M 4722.58 2667.82 L 4561.6 2556.18 M 4561.6 2556.18 L 4523.46 2795.86 M 4510.27 3168.49 L 4832.7 3120.72 M 4510.27 3168.49 L 4919.52 3421.86 M 5125.72 2762.16 L 5566.75 2988.34 M 5300.85 3061.61 L 5566.75 2988.34 M 5300.85 3061.61 L 5497.41 3157.86 M 5497.41 3157.86 L 5566.75 2988.34 M 5785.74 3240.48 L 5566.75 2988.34 M 5497.41 3157.86 L 5785.74 3240.48 M 5785.74 3240.48 L 5729.87 2928.21 M 5942.33 3156.14 L 5729.87 2928.21 M 5942.33 3156.14 L 5910.4 2854.89 M 6181.57 3101.06 L 5910.4 2854.89 M 6260.31 2805.63 L 5910.4 2854.89 M 6260.31 2805.63 L 5991.01 2549.02 M 6268.98 2574.69 L 5991.01 2549.02 M 6181.57 3101.06 L 6260.31 2805.63 M 6181.57 3101.06 L 6271.51 2905.72 M 6271.51 2905.72 L 6260.31 2805.63 M 5530.26 2218.56 L 5625.45 1901.71 M 5846.18 2110 L 5625.45 1901.71 M 5874.31 1938.84 L 5625.45 1901.71 M 4471.81 2168.02 L 4326.63 2477.43 M 4167.25 2147.85 L 4326.63 2477.43 M 4167.25 2147.85 L 4084.29 2580.62 M 3781.07 2095.67 L 4084.29 2580.62 M 3781.07 2095.67 L 3739.32 2543.41 M 3739.32 2543.41 L 4084.29 2580.62 M 3739.32 2543.41 L 4226.75 2907.08 M 3625.24 2763.8 L 4226.75 2907.08 M 3625.24 2763.8 L 3929.55 3072.56 M 3397.22 2923.06 L 3929.55 3072.56 M 3294.8 3134.37 L 3929.55 3072.56 M 3661.59 3310.4 L 3929.55 3072.56 M 3498.76 2083.28 L 3739.32 2543.41 M 3498.76 2083.28 L 3515.4 2650.39 M 3498.76 2083.28 L 3253.29 2743.45 M 3066.74 1946.54 L 3253.29 2743.45 M 4226.75 2907.08 L 4084.29 2580.62 M 3661.59 3310.4 L 4079.14 3288.8 M 3661.59 3310.4 L 3751.45 3464.99 M 3661.59 3310.4 L 3286.52 3225.77 M 3286.52 3225.77 L 3751.45 3464.99 M 3404.87 3892.6 L 3751.45 3464.99 M 3286.52 3225.77 L 3404.87 3892.6 M 3286.52 3225.77 L 3096.83 3707.69 M 2912.49 3441.08 L 3096.83 3707.69 M 3286.52 3225.77 L 2912.49 3441.08 M 2947.62 3032.67 L 2912.49 3441.08 M 3286.52 3225.77 L 2947.62 3032.67 M 3105.48 2668.97 L 2947.62 3032.67 M 2947.62 3032.67 L 2683.05 3156.61 M 3286.52 3225.77 L 3105.48 2668.97 M 3286.52 3225.77 L 3378.94 2778.42 M 3454.15 3129.09 L 3378.94 2778.42 M 2683.05 3156.61 L 2912.49 3441.08 M 2683.05 3156.61 L 2768.8 3697.34 M 3096.83 3707.69 L 3404.87 3892.6 M 2836.37 3832.94 L 3404.87 3892.6 M 3404.87 3892.6 L 3626.55 3871.2 M 3626.55 3871.2 L 3751.45 3464.99 M 3105.48 2668.97 L 2581.44 2748.09 M 3105.48 2668.97 L 2749.31 2449.77 M 3751.45 3464.99 L 4079.14 3288.8 M 2908.73 4390.4 L 3404.87 3892.6 M 2908.73 4390.4 L 3224.54 4532.8 M 3026.7 2322.09 L 2749.31 2449.77 M 4167.25 2147.85 L 3781.07 2095.67 M 4167.25 2147.85 L 3842.47 1883.02 M 4095.12 1937.86 L 3842.47 1883.02 M 2683.05 3156.61 L 2142.7 3732.23 M 2397.1 3082.51 L 2142.7 3732.23 M 1958.91 3312.95 L 2142.7 3732.23 M 4167.25 2147.85 L 4095.12 1937.86 M 4352.94 1905.59 L 4095.12 1937.86 M 4352.94 1905.59 L 4221.19 1679.79 M 2836.37 3832.94 L 2908.73 4390.4 M 2304.13 4164.51 L 2908.73 4390.4 M 2947.62 3032.67 L 2333.63 2824.89 M 2563.91 2772.21 L 2333.63 2824.89 M 2304.13 4164.51 L 2519.48 4779.04 M 2094.01 4782.95 L 2519.48 4779.04 M 3066.74 1946.54 L 2924.79 2615.55 M 3066.74 1946.54 L 2846.02 2111.77 M 1958.91 3312.95 L 1769.7 3533.91 M 1958.91 3312.95 L 1565.81 3224.55 M 1949.35 3006.86 L 1565.81 3224.55 M 1958.91 3312.95 L 1949.35 3006.86 M 1958.91 3312.95 L 2381.52 3268.67 M 1788.7 2736.78 L 1565.81 3224.55 M 1788.7 2736.78 L 1485.86 2873.12 M 1533.27 2494.38 L 1485.86 2873.12 M 2381.52 3268.67 L 1949.35 3006.86 M 984.564 2881.9 L 1485.86 2873.12 M 984.564 2881.9 L 1243.89 3140.23 M 772.814 3084.76 L 1243.89 3140.23 M 772.814 3084.76 L 1221.94 3510.09 M 889.974 3419.79 L 1221.94 3510.09 M 1533.27 2494.38 L 984.564 2881.9 M 1186.88 2360.48 L 984.564 2881.9 M 1186.88 2360.48 L 693.004 2850.52 M 881.412 2407.53 L 693.004 2850.52 M 667.04 2356.66 L 693.004 2850.52 M 667.04 2356.66 L 418.784 2625.18 M 5201.77 1790.95 L 4981.73 1469.23 M 5289.56 1584.28 L 4981.73 1469.23 M 5528.4 1379.58 L 4981.73 1469.23 M 1788.7 2736.78 L 1533.27 2494.38 M 1788.7 2736.78 L 1937.26 2429.91 M 2092.77 2657.43 L 1937.26 2429.91 M 2092.77 2657.43 L 2396.42 2440.1 M 2358.53 3171.77 L 2396.42 2440.1 M 5528.4 1379.58 L 5287.16 1091.5 M 2333.63 2824.89 L 2683.05 3156.61 M 2333.63 2824.89 L 2410.97 3041.58 M 5846.18 2110 L 5874.31 1938.84 M 5846.18 2110 L 6161.31 2023.16 M 5923.34 2225.95 L 6161.31 2023.16 M 5923.34 2225.95 L 6232.77 2177.92 M 5986.1 2349.92 L 6232.77 2177.92 M 6161.31 2023.16 L 5874.31 1938.84 M 5942.33 3156.14 L 6181.57 3101.06 M 2476.65 2368.96 L 2333.63 2824.89 M 5125.72 2762.16 L 5300.85 3061.61 M 5035.32 3238.71 L 5300.85 3061.61 M 5035.32 3238.71 L 5478.47 3347.87 M 5210.42 3498.64 L 5478.47 3347.87 M 5210.42 3498.64 L 5387.39 3537.64 M 7344.54 1420.24 L 6783.97 1448.26 M 7002.21 1054.1 L 6783.97 1448.26 M 6913.2 2364.64 L 6832.45 2748.99 M 6644.52 2638.12 L 6832.45 2748.99 M 3053.2 4751.12 L 3224.54 4532.8 M 3365.9 4747.05 L 3224.54 4532.8 M 3365.9 4747.05 L 3523.33 4484.96 M 3523.33 4484.96 L 3224.54 4532.8 M 3198.24 4097.61 L 3224.54 4532.8 M 3523.33 4484.96 L 3198.24 4097.61 M 3365.9 4747.05 L 3782.72 4656.74 M 3644.53 4958.65 L 3782.72 4656.74 M 3644.53 4958.65 L 4030.11 4910.6 M 3644.53 4958.65 L 3547.19 5330.35 M 3306.14 5047.51 L 3547.19 5330.35 M 3547.19 5330.35 L 4030.11 4910.6 M 3547.19 5330.35 L 3733.23 5696.64 M 3543.22 5616.84 L 3733.23 5696.64 M 3733.23 5696.64 L 4030.11 4910.6 M 3733.23 5696.64 L 4170.58 5183.27 M 3733.23 5696.64 L 4192.18 5678.25 M 4067.54 6048.7 L 4192.18 5678.25 M 4030.11 4910.6 L 3782.72 4656.74 M 4170.52 4498.23 L 3782.72 4656.74 M 4170.52 4498.23 L 3878.46 4360.72 M 4163.82 4079.73 L 3878.46 4360.72 M 4163.82 4079.73 L 3384.78 4056.28 M 3639.65 3816.66 L 3384.78 4056.28 M 3639.65 3816.66 L 3196.81 3688.95 M 3599.56 3389.68 L 3196.81 3688.95 M 3599.56 3389.68 L 3146.23 3385.68 M 3232.33 3148.81 L 3146.23 3385.68 M 3232.33 3148.81 L 2824.4 3136.17 M 3252.35 2774.86 L 2824.4 3136.17 M 3252.35 2774.86 L 2724.47 2759.46 M 3173.5 2361.33 L 2724.47 2759.46 M 3252.35 2774.86 L 3173.5 2361.33 M 3173.5 2361.33 L 2657.49 2183.53 M 2657.49 2183.53 L 2724.47 2759.46 M 3173.5 2361.33 L 2871.65 1891.79 M 3540.41 2093.47 L 2871.65 1891.79 M 3038.3 1761.67 L 2871.65 1891.79 M 3540.41 2093.47 L 3038.3 1761.67 M 2871.65 1891.79 L 2657.49 2183.53 M 2657.49 2183.53 L 2126.7 2440.44 M 2824.4 3136.17 L 3146.23 3385.68 M 2724.47 2759.46 L 2824.4 3136.17 M 2217.72 3139.26 L 2824.4 3136.17 M 2871.65 1891.79 L 2151.01 1826.7 M 2525.99 1586.69 L 2151.01 1826.7 M 2093.23 1927.68 L 2126.7 2440.44 M 2126.7 2440.44 L 2724.47 2759.46 M 2126.7 2440.44 L 2127.63 2971.19 M 3599.56 3389.68 L 3232.33 3148.81 M 3599.56 3389.68 L 3690.64 3077.23 M 3232.33 3148.81 L 3252.35 2774.86 M 3656.85 2671.81 L 3173.5 2361.33 M 3656.85 2671.81 L 3600.68 2206.76 M 2217.72 3139.26 L 2558.34 3760.79 M 1961.34 3607.45 L 2558.34 3760.79 M 1961.34 3607.45 L 2262.06 3911.57 M 3252.35 2774.86 L 3656.85 2671.81 M 3763.89 3029.94 L 3656.85 2671.81 M 3540.41 2093.47 L 3567.66 1819.59 M 3945.13 1997.1 L 3567.66 1819.59 M 3945.13 1997.1 L 3930.52 1461.15 M 3567.66 1819.59 L 3038.3 1761.67 M 3567.66 1819.59 L 3402.68 1534.26 M 2644.97 3790.95 L 3146.23 3385.68 M 2644.97 3790.95 L 2890.94 3723.64 M 1961.34 3607.45 L 2115.5 4125.48 M 2356.76 1367.6 L 2151.01 1826.7 M 2356.76 1367.6 L 1981.41 1660.22 M 2115.5 4125.48 L 2262.06 3911.57 M 2115.5 4125.48 L 2463.87 4127.43 M 3402.68 1534.26 L 3038.3 1761.67 M 3402.68 1534.26 L 3131.6 1377.9 M 3038.3 1761.67 L 2663.47 1561.73 M 2927.29 1382.64 L 2663.47 1561.73 M 2663.47 1561.73 L 2871.65 1891.79 M 2663.47 1561.73 L 2448.25 1709.3 M 2445.78 1234.37 L 2448.25 1709.3 M 1865.05 1861.23 L 2126.7 2440.44 M 1865.05 1861.23 L 1541.49 2204.96 M 1674.99 1628.07 L 1541.49 2204.96 M 1443.02 1624.56 L 1541.49 2204.96 M 1443.02 1624.56 L 1171.55 2028.57 M 1674.99 1628.07 L 1443.02 1624.56 M 1047.39 1416.85 L 1171.55 2028.57 M 1047.39 1416.85 L 835.025 1610.7 M 4170.52 4498.23 L 4163.82 4079.73 M 491.171 1143 L 835.025 1610.7 M 558.656 1492.25 L 835.025 1610.7 M 4170.58 5183.27 L 4030.11 4910.6 M 2644.97 3790.95 L 3165.57 4228.88 M 2971.91 4296.57 L 3165.57 4228.88 M 4326.63 2477.43 L 4695.95 2319.79 M 4326.63 2477.43 L 4521.65 2656.31 M 2396.42 2440.1 L 1937.26 2429.91 M 2336.62 2228.05 L 1937.26 2429.91 M 2044.45 2127.27 L 1937.26 2429.91 M 5625.45 1901.71 L 5334.18 2053.28 M 5625.45 1901.71 L 5374.44 1762.19 M 5625.45 1901.71 L 5536.01 1606.27 M 5964.93 1750.32 L 5536.01 1606.27 M 5964.93 1750.32 L 5826.8 1486.31 M 5995.48 1552.57 L 5826.8 1486.31 M 4163.82 4079.73 L 3639.65 3816.66 M 1886.65 4250.53 L 2115.5 4125.48 M 1886.65 4250.53 L 2214.45 4550.76 M 6073.48 1813.43 L 5943.93 2033.46 M 6271.51 2905.72 L 6455.78 2883.72 M 3781.07 2095.67 L 3498.76 2083.28 M 1047.39 1416.85 L 491.171 1143 M 561.479 968.809 L 491.171 1143 M 3146.23 3385.68 L 3196.81 3688.95 M 2893.41 3725.49 L 3196.81 3688.95 M 2893.41 3725.49 L 3185.43 4101.42 M 3929.55 3072.56 L 4226.75 2907.08 M 3929.55 3072.56 L 4163.92 3513.32 M 3818.25 3310.78 L 4163.92 3513.32 M 2463.87 4127.43 L 2262.06 3911.57 M 2463.87 4127.43 L 2790.06 4162.47 M 2790.06 4162.47 L 2262.06 3911.57 M 7668.72 1690.47 L 7344.54 1420.24 M 7668.72 1690.47 L 7559.86 1369.05 M 7668.72 1690.47 L 7967.44 1411.96 M 3823.43 3836.47 L 4079.14 3288.8 M 4284.86 3503.01 L 4079.14 3288.8 M 4284.86 3503.01 L 4416.8 2911.46 M 4640.92 3376.06 L 4416.8 2911.46 M 3763.89 3029.94 L 4295.23 2747.93 M 4310.93 3219.96 L 4295.23 2747.93 M 4924.02 1935.49 L 4761.59 2257.32 M 4924.02 1935.49 L 4757.6 1880.67 M 5024.09 1476.45 L 4757.6 1880.67 M 5024.09 1476.45 L 4529.35 1492.55 M 4717.82 1199.11 L 4529.35 1492.55 M 7559.86 1369.05 L 7344.54 1420.24 M 2322.58 4509.89 L 2463.87 4127.43 M 2322.58 4509.89 L 2614.97 4539.45 M 3751.45 3464.99 L 3823.43 3836.47 M 3407.96 3945.71 L 3823.43 3836.47 M 7078.7 2653.57 L 7563.61 2315.71 M 7078.7 2653.57 L 7559.25 2727.28 M 7559.25 2727.28 L 7563.61 2315.71 M 1426.53 1219.61 L 1443.02 1624.56 M 1426.53 1219.61 L 1145.64 1291.04 M 1121.74 360.421 L 1145.64 1291.04 M 1121.74 360.421 L 987.27 649.355 M 3326.65 4308.66 L 3823.43 3836.47 M 3326.65 4308.66 L 3626.23 4262.08 M 3451.74 4526.54 L 3626.23 4262.08 M 3326.65 4308.66 L 3451.74 4526.54 M 3155.62 4612.98 L 3451.74 4526.54 M 3155.62 4612.98 L 3278.55 4875.53 M 3547.19 5330.35 L 3543.22 5616.84 M 2965.27 5446.96 L 3543.22 5616.84 M 2965.27 5446.96 L 3161.18 5715.8 M 3823.43 3836.47 L 4284.86 3503.01 M 3823.43 3836.47 L 3920.65 4181.03 M 3920.65 4181.03 L 4284.86 3503.01 M 3451.74 4526.54 L 3981.67 4439.28 M 3803.7 4693.61 L 3981.67 4439.28 M 4169.52 2721.75 L 4523.46 2795.86 M 4169.52 2721.75 L 4351.89 3126.91 M 3026.7 2322.09 L 2688.8 1844.42 M 2988.43 1803.61 L 2688.8 1844.42 M 2988.43 1803.61 L 2710.46 1532.62 M 2710.46 1532.62 L 2688.8 1844.42 M 3173.46 1504.13 L 2710.46 1532.62 M 3173.46 1504.13 L 2999.37 1336.75 M 6354.98 1611.6 L 6284.99 1774.61 M 1865.05 1861.23 L 1674.99 1628.07 M 1959.18 1352.13 L 1674.99 1628.07 M 1959.18 1352.13 L 1744.37 1090.96 M 2171.4 998.322 L 1744.37 1090.96 M 1744.37 1090.96 L 1674.99 1628.07 M 1744.37 1090.96 L 1430.99 1216.93 M 4832.7 3120.72 L 4871.01 2894.4 M 7205.8 1124.57 L 7344.54 1420.24 M 2525.99 1586.69 L 2356.76 1367.6 M 2691.38 1041.54 L 2356.76 1367.6 M 2302.92 415.598 L 1744.37 1090.96 M 2302.92 415.598 L 2131.29 271.953 M 2787.32 5207.21 L 3278.55 4875.53 M 2787.32 5207.21 L 3003.75 5433.89 M 2304.01 1631.35 L 2688.8 1844.42 M 2304.01 1631.35 L 2098.59 1991.94 M 3407.96 3945.71 L 3326.65 4308.66 M 3407.96 3945.71 L 3141.41 4012.78" />
<line x1="8265.312129" y1="1632.272103" x2="8235.442757" y2="1968.714574" class="t" />
<line x1="8001.216717" y1="2089.994448" x2="8235.442757" y2="1968.714574" class="t" />
<line x1="7780.567347" y1="1906.840087" x2="8001.216717" y2="2089.994448" class="t" />
<line x1="7683.660097" y1="1917.039460" x2="7780.567347" y2="1906.840087" class="t" />
<line x1="8016.101011" y1="1589.100584" x2="7780.567347" y2="1906.840087" class="t" />
<line x1="7586.683219" y1="1785.441765" x2="7683.660097" y2="1917.039460" class="t" />
<line x1="7379.475432" y1="1872.371951" x2="7586.683219" y2="1785.441765" class="t" />
<line x1="8149.983553" y1="2276.849787" x2="8001.216717" y2="2089.994448" class="t" />
<line x1="7163.446964" y1="1786.942156" x2="7379.475432" y2="1872.371951" class="t" />
<line x1="6840.224772" y1="1944.814813" x2="7163.446964" y2="1786.942156" class="t" />
<line x1="6618.498383" y1="1903.124238" x2="6840.224772" y2="1944.814813" class="t" />
<line x1="6406.704741" y1="2003.439548" x2="6618.498383" y2="1903.124238" class="t" />
<line x1="6261.128697" y1="1878.530365" x2="6406.704741" y2="2003.439548" class="t" />
<line x1="6116.042558" y1="1952.940150" x2="6261.128697" y2="1878.530365" class="t" />
<line x1="6245.884442" y1="1799.425304" x2="6261.128697" y2="1878.530365" class="t" />
<line x1="6079.585345" y1="1699.736937" x2="6245.884442" y2="1799.425304" class="t" />
<line x1="6339.717556" y1="1732.149149" x2="6245.884442" y2="1799.425304" class="t" />
<line x1="7298.521610" y1="2027.002338" x2="7379.475432" y2="1872.371951" class="t" />
<line x1="7061.395205" y1="2153.003907" x2="7298.521610" y2="2027.002338" class="t" />
<line x1="6827.706882" y1="2172.388958" x2="7061.395205" y2="2153.003907" class="t" />
<line x1="7400.978889" y1="2200.509427" x2="7298.521610" y2="2027.002338" class="t" />
<line x1="7167.315406" y1="2332.965322" x2="7400.978889" y2="2200.509427" class="t" />
<line x1="7032.460654" y1="2523.150314" x2="7167.315406" y2="2332.965322" class="t" />
<line x1="7649.532620" y1="2130.770802" x2="7683.660097" y2="1917.039460" class="t" />
<line x1="7427.830487" y1="2157.205129" x2="7649.532620" y2="2130.770802" class="t" />
<line x1="7249.334039" y1="2385.973039" x2="7427.830487" y2="2157.205129" class="t" />
<line x1="6957.061895" y1="2410.826589" x2="7249.334039" y2="2385.973039" class="t" />
<line x1="6798.180465" y1="2563.755785" x2="6957.061895" y2="2410.826589" class="t" />
<line x1="6678.351904" y1="2385.807148" x2="6827.706882" y2="2172.388958" class="t" />
<line x1="6492.121175" y1="2442.349086" x2="6678.351904" y2="2385.807148" class="t" />
<line x1="7263.503406" y1="1615.254134" x2="7163.446964" y2="1786.942156" class="t" />
<line x1="7031.536795" y1="1526.494126" x2="7263.503406" y2="1615.254134" class="t" />
<line x1="7497.708578" y1="1608.417536" x2="7263.503406" y2="1615.254134" class="t" />
<line x1="6366.748714" y1="2204.922571" x2="6406.704741" y2="2003.439548" class="t" />
<line x1="6239.347158" y1="2195.632754" x2="6366.748714" y2="2204.922571" class="t" />
<line x1="6130.296753" y1="2345.983523" x2="6239.347158" y2="2195.632754" class="t" />
<line x1="6040.209589" y1="2261.697059" x2="6130.296753" y2="2345.983523" class="t" />
<line x1="5948.530883" y1="2252.348124" x2="6040.209589" y2="2261.697059" class="t" />
<line x1="5825.513407" y1="2349.358471" x2="5948.530883" y2="2252.348124" class="t" />
<line x1="5667.744247" y1="2267.885668" x2="5825.513407" y2="2349.358471" class="t" />
<line x1="5464.817343" y1="2374.467494" x2="5667.744247" y2="2267.885668" class="t" />
<line x1="5369.543767" y1="2241.278039" x2="5464.817343" y2="2374.467494" class="t" />
<line x1="5496.632472" y1="2057.850236" x2="5369.543767" y2="2241.278039" class="t" />
<line x1="5198.502628" y1="2280.773477" x2="5369.543767" y2="2241.278039" class="t" />
<line x1="5135.243770" y1="2150.237505" x2="5198.502628" y2="2280.773477" class="t" />
<line x1="5196.788133" y1="1968.204433" x2="5135.243770" y2="2150.237505" class="t" />
<line x1="5060.339591" y1="2450.693945" x2="5198.502628" y2="2280.773477" class="t" />
<line x1="4877.595296" y1="2406.629063" x2="5060.339591" y2="2450.693945" class="t" />
<line x1="4788.751244" y1="2239.004365" x2="4877.595296" y2="2406.629063" class="t" />
<line x1="4932.570320" y1="2195.781307" x2="5135.243770" y2="2150.237505" class="t" />
<line x1="4767.795141" y1="2293.143342" x2="4932.570320" y2="2195.781307" class="t" />
<line x1="4606.976400" y1="2182.660805" x2="4788.751244" y2="2239.004365" class="t" />
<line x1="4498.131910" y1="2321.746496" x2="4606.976400" y2="2182.660805" class="t" />
<line x1="5060.065393" y1="1928.938162" x2="5196.788133" y2="1968.204433" class="t" />
<line x1="4913.339688" y1="2084.394998" x2="5060.065393" y2="1928.938162" class="t" />
<line x1="5035.838607" y1="1731.886647" x2="5060.065393" y2="1928.938162" class="t" />
<line x1="5542.633519" y1="2568.617422" x2="5464.817343" y2="2374.467494" class="t" />
<line x1="5795.193799" y1="2581.407395" x2="5542.633519" y2="2568.617422" class="t" />
<line x1="5900.898246" y1="2701.606824" x2="5795.193799" y2="2581.407395" class="t" />
<line x1="6017.086211" y1="2734.209059" x2="5900.898246" y2="2701.606824" class="t" />
<line x1="6125.424844" y1="2626.775552" x2="6017.086211" y2="2734.209059" class="t" />
<line x1="6265.579163" y1="2695.038121" x2="6125.424844" y2="2626.775552" class="t" />
<line x1="5096.534254" y1="2592.399497" x2="5060.339591" y2="2450.693945" class="t" />
<line x1="5312.219038" y1="2734.164979" x2="5096.534254" y2="2592.399497" class="t" />
<line x1="4972.143686" y1="2739.868988" x2="5096.534254" y2="2592.399497" class="t" />
<line x1="4837.761748" y1="2708.420998" x2="4972.143686" y2="2739.868988" class="t" />
<line x1="4705.682161" y1="2786.027151" x2="4837.761748" y2="2708.420998" class="t" />
<line x1="4742.389164" y1="2936.994527" x2="4705.682161" y2="2786.027151" class="t" />
<line x1="4803.985349" y1="2499.804523" x2="4837.761748" y2="2708.420998" class="t" />
<line x1="4622.142991" y1="3028.359690" x2="4742.389164" y2="2936.994527" class="t" />
<line x1="4602.545185" y1="2673.289335" x2="4705.682161" y2="2786.027151" class="t" />
<line x1="4700.809677" y1="2500.444089" x2="4602.545185" y2="2673.289335" class="t" />
<line x1="4418.193989" y1="2691.267710" x2="4602.545185" y2="2673.289335" class="t" />
<line x1="4754.164119" y1="3237.026454" x2="4622.142991" y2="3028.359690" class="t" />
<line x1="4649.463343" y1="3405.294991" x2="4754.164119" y2="3237.026454" class="t" />
<line x1="5331.106596" y1="2937.371996" x2="5312.219038" y2="2734.164979" class="t" />
<line x1="5455.002964" y1="3069.272002" x2="5331.106596" y2="2937.371996" class="t" />
<line x1="5438.256917" y1="3179.964746" x2="5455.002964" y2="3069.272002" class="t" />
<line x1="5616.634918" y1="3128.896646" x2="5455.002964" y2="3069.272002" class="t" />
<line x1="5694.121523" y1="3052.345175" x2="5616.634918" y2="3128.896646" class="t" />
<line x1="5572.489548" y1="3235.744945" x2="5616.634918" y2="3128.896646" class="t" />
<line x1="5819.315189" y1="3108.277692" x2="5694.121523" y2="3052.345175" class="t" />
<line x1="5860.867919" y1="2979.745487" x2="5819.315189" y2="3108.277692" class="t" />
<line x1="6011.435628" y1="3037.361566" x2="5860.867919" y2="2979.745487" class="t" />
<line x1="6117.429131" y1="2920.523479" x2="6011.435628" y2="3037.361566" class="t" />
<line x1="6053.906204" y1="2736.511044" x2="6117.429131" y2="2920.523479" class="t" />
<line x1="6173.432535" y1="2643.111524" x2="6053.906204" y2="2736.511044" class="t" />
<line x1="6226.752759" y1="2419.599303" x2="6173.432535" y2="2643.111524" class="t" />
<line x1="6237.799859" y1="2937.468678" x2="6117.429131" y2="2920.523479" class="t" />
<line x1="6294.119832" y1="3124.002784" x2="6237.799859" y2="2937.468678" class="t" />
<line x1="6329.202892" y1="2865.024057" x2="6237.799859" y2="2937.468678" class="t" />
<line x1="5667.297444" y1="2076.756588" x2="5496.632472" y2="2057.850236" class="t" />
<line x1="5781.981252" y1="1983.517680" x2="5667.297444" y2="2076.756588" class="t" />
<line x1="5828.254904" y1="1882.662577" x2="5781.981252" y2="1983.517680" class="t" />
<line x1="4321.897969" y1="2264.429965" x2="4498.131910" y2="2321.746496" class="t" />
<line x1="4192.723055" y1="2401.964339" x2="4321.897969" y2="2264.429965" class="t" />
<line x1="4010.868518" y1="2274.712536" x2="4192.723055" y2="2401.964339" class="t" />
<line x1="3868.224537" y1="2406.566019" x2="4010.868518" y2="2274.712536" class="t" />
<line x1="3673.048812" y1="2240.786437" x2="3868.224537" y2="2406.566019" class="t" />
<line x1="4016.784319" y1="2677.033187" x2="3868.224537" y2="2406.566019" class="t" />
<line x1="3863.766771" y1="2738.092800" x2="4016.784319" y2="2677.033187" class="t" />
<line x1="3927.175735" y1="2914.479083" x2="3863.766771" y2="2738.092800" class="t" />
<line x1="3650.666588" y1="2919.808703" x2="3927.175735" y2="2914.479083" class="t" />
<line x1="3540.521646" y1="3043.332658" x2="3650.666588" y2="2919.808703" class="t" />
<line x1="3628.645973" y1="3172.446159" x2="3540.521646" y2="3043.332658" class="t" />
<line x1="3890.091536" y1="3223.921847" x2="3628.645973" y2="3172.446159" class="t" />
<line x1="3584.492365" y1="2425.692831" x2="3673.048812" y2="2240.786437" class="t" />
<line x1="3422.483642" y1="2492.374438" x2="3584.492365" y2="2425.692831" class="t" />
<line x1="3272.931304" y1="2257.757743" x2="3422.483642" y2="2492.374438" class="t" />
<line x1="3081.606326" y1="2435.179583" x2="3272.931304" y2="2257.757743" class="t" />
<line x1="4223.448040" y1="2663.445342" x2="4016.784319" y2="2677.033187" class="t" />
<line x1="3830.725413" y1="3354.730238" x2="3890.091536" y2="3223.921847" class="t" />
<line x1="3566.520359" y1="3333.720578" x2="3830.725413" y2="3354.730238" class="t" />
<line x1="3433.973612" y1="3193.503462" x2="3566.520359" y2="3333.720578" class="t" />
<line x1="3480.947769" y1="3527.787343" x2="3566.520359" y2="3333.720578" class="t" />
<line x1="3594.289590" y1="3742.932548" x2="3480.947769" y2="3527.787343" class="t" />
<line x1="3262.740881" y1="3608.688757" x2="3480.947769" y2="3527.787343" class="t" />
<line x1="3098.613777" y1="3458.180655" x2="3262.740881" y2="3608.688757" class="t" />
<line x1="2939.083979" y1="3621.469977" x2="3098.613777" y2="3458.180655" class="t" />
<line x1="3048.876748" y1="3233.171738" x2="3098.613777" y2="3458.180655" class="t" />
<line x1="2847.718365" y1="3210.118426" x2="3048.876748" y2="3233.171738" class="t" />
<line x1="3113.206646" y1="2975.801130" x2="3048.876748" y2="3233.171738" class="t" />
<line x1="2878.177667" y1="2816.576211" x2="3113.206646" y2="2975.801130" class="t" />
<line x1="2654.764232" y1="3004.720621" x2="2847.718365" y2="3210.118426" class="t" />
<line x1="3256.981647" y1="2891.050857" x2="3113.206646" y2="2975.801130" class="t" />
<line x1="3373.203163" y1="3044.425058" x2="3256.981647" y2="2891.050857" class="t" />
<line x1="3494.879112" y1="2969.812323" x2="3373.203163" y2="3044.425058" class="t" />
<line x1="2788.114900" y1="3431.674650" x2="2847.718365" y2="3210.118426" class="t" />
<line x1="2531.518353" y1="3528.725933" x2="2788.114900" y2="3431.674650" class="t" />
<line x1="3112.690508" y1="3811.078142" x2="3262.740881" y2="3608.688757" class="t" />
<line x1="3049.990246" y1="4038.645991" x2="3112.690508" y2="3811.078142" class="t" />
<line x1="3640.560519" y1="4036.893251" x2="3594.289590" y2="3742.932548" class="t" />
<line x1="3879.288315" y1="3700.715849" x2="3594.289590" y2="3742.932548" class="t" />
<line x1="2812.074867" y1="2622.277406" x2="2878.177667" y2="2816.576211" class="t" />
<line x1="2960.497358" y1="2480.275806" x2="2812.074867" y2="2622.277406" class="t" />
<line x1="3884.672018" y1="3530.085721" x2="3830.725413" y2="3354.730238" class="t" />
<line x1="3179.379908" y1="4271.935102" x2="3049.990246" y2="4038.645991" class="t" />
<line x1="3062.154090" y1="4558.108145" x2="3179.379908" y2="4271.935102" class="t" />
<line x1="2821.603139" y1="2205.425246" x2="2960.497358" y2="2480.275806" class="t" />
<line x1="3930.262526" y1="2042.179997" x2="4010.868518" y2="2274.712536" class="t" />
<line x1="4034.947705" y1="1989.574159" x2="3930.262526" y2="2042.179997" class="t" />
<line x1="4026.489662" y1="1825.117355" x2="4034.947705" y2="1989.574159" class="t" />
<line x1="2407.617526" y1="3323.783275" x2="2531.518353" y2="3528.725933" class="t" />
<line x1="2166.237852" y1="3375.897880" x2="2407.617526" y2="3323.783275" class="t" />
<line x1="1957.104535" y1="3526.364344" x2="2166.237852" y2="3375.897880" class="t" />
<line x1="4205.102806" y1="1997.097794" x2="4034.947705" y2="1989.574159" class="t" />
<line x1="4223.083268" y1="1841.079946" x2="4205.102806" y2="1997.097794" class="t" />
<line x1="4341.492276" y1="1767.938873" x2="4223.083268" y2="1841.079946" class="t" />
<line x1="2683.075492" y1="4129.279882" x2="3049.990246" y2="4038.645991" class="t" />
<line x1="2577.444819" y1="4444.647427" x2="2683.075492" y2="4129.279882" class="t" />
<line x1="2615.051533" y1="2876.586834" x2="2654.764232" y2="3004.720621" class="t" />
<line x1="2458.063936" y1="2655.352016" x2="2615.051533" y2="2876.586834" class="t" />
<line x1="2305.874507" y1="4575.497044" x2="2577.444819" y2="4444.647427" class="t" />
<line x1="2274.184924" y1="4968.006845" x2="2305.874507" y2="4575.497044" class="t" />
<line x1="2945.849208" y1="2224.619377" x2="3081.606326" y2="2435.179583" class="t" />
<line x1="2920.694671" y1="1877.852285" x2="2945.849208" y2="2224.619377" class="t" />
<line x1="1764.806849" y1="3357.137590" x2="1957.104535" y2="3526.364344" class="t" />
<line x1="1824.691083" y1="3181.455179" x2="1764.806849" y2="3357.137590" class="t" />
<line x1="1767.953741" y1="2989.396659" x2="1824.691083" y2="3181.455179" class="t" />
<line x1="2096.593435" y1="3196.162059" x2="1824.691083" y2="3181.455179" class="t" />
<line x1="2184.662545" y1="3439.719558" x2="2096.593435" y2="3196.162059" class="t" />
<line x1="1613.454225" y1="2944.814987" x2="1767.953741" y2="2989.396659" class="t" />
<line x1="1602.609048" y1="2701.422091" x2="1613.454225" y2="2944.814987" class="t" />
<line x1="1334.564647" y1="2749.795234" x2="1602.609048" y2="2701.422091" class="t" />
<line x1="2286.270999" y1="3100.877716" x2="2096.593435" y2="3196.162059" class="t" />
<line x1="1238.102725" y1="2965.081658" x2="1334.564647" y2="2749.795234" class="t" />
<line x1="1000.421898" y1="3035.629711" x2="1238.102725" y2="2965.081658" class="t" />
<line x1="1079.546314" y1="3245.026619" x2="1000.421898" y2="3035.629711" class="t" />
<line x1="961.575243" y1="3338.212075" x2="1079.546314" y2="3245.026619" class="t" />
<line x1="1044.416054" y1="3636.300472" x2="961.575243" y2="3338.212075" class="t" />
<line x1="1234.904779" y1="2578.917923" x2="1334.564647" y2="2749.795234" class="t" />
<line x1="954.814852" y1="2697.633179" x2="1234.904779" y2="2578.917923" class="t" />
<line x1="920.430743" y1="2539.510583" x2="954.814852" y2="2697.633179" class="t" />
<line x1="747.151781" y1="2538.236235" x2="920.430743" y2="2539.510583" class="t" />
<line x1="592.942507" y1="2610.788631" x2="747.151781" y2="2538.236235" class="t" />
<line x1="361.941305" y1="2396.500532" x2="592.942507" y2="2610.788631" class="t" />
<line x1="5157.686497" y1="1614.817755" x2="5035.838607" y2="1731.886647" class="t" />
<line x1="5266.563871" y1="1477.696838" x2="5157.686497" y2="1614.817755" class="t" />
<line x1="5265.765537" y1="1313.436007" x2="5266.563871" y2="1477.696838" class="t" />
<line x1="1753.076515" y1="2553.688055" x2="1602.609048" y2="2701.422091" class="t" />
<line x1="1939.575595" y1="2608.039700" x2="1753.076515" y2="2553.688055" class="t" />
<line x1="2142.151312" y1="2509.149146" x2="1939.575595" y2="2608.039700" class="t" />
<line x1="2282.576283" y1="2756.433935" x2="2142.151312" y2="2509.149146" class="t" />
<line x1="2502.975369" y1="2907.726854" x2="2282.576283" y2="2756.433935" class="t" />
<line x1="5440.816658" y1="1110.126362" x2="5265.765537" y2="1313.436007" class="t" />
<line x1="2475.883904" y1="3007.691249" x2="2654.764232" y2="3004.720621" class="t" />
<line x1="2234.101010" y1="2900.566439" x2="2475.883904" y2="3007.691249" class="t" />
<line x1="5960.600148" y1="2024.002031" x2="5781.981252" y2="1983.517680" class="t" />
<line x1="5976.940720" y1="2119.702999" x2="5960.600148" y2="2024.002031" class="t" />
<line x1="6105.803558" y1="2142.342696" x2="5976.940720" y2="2119.702999" class="t" />
<line x1="6047.400850" y1="2251.261727" x2="6105.803558" y2="2142.342696" class="t" />
<line x1="6117.777587" y1="2360.157770" x2="6047.400850" y2="2251.261727" class="t" />
<line x1="5977.957601" y1="1910.237111" x2="5960.600148" y2="2024.002031" class="t" />
<line x1="6008.006295" y1="3195.370606" x2="6011.435628" y2="3037.361566" class="t" />
<line x1="2328.114521" y1="2445.566770" x2="2458.063936" y2="2655.352016" class="t" />
<line x1="5153.963366" y1="3020.827497" x2="5331.106596" y2="2937.371996" class="t" />
<line x1="5271.545296" y1="3216.063024" x2="5153.963366" y2="3020.827497" class="t" />
<line x1="5241.402062" y1="3361.740700" x2="5271.545296" y2="3216.063024" class="t" />
<line x1="5358.758913" y1="3461.385144" x2="5241.402062" y2="3361.740700" class="t" />
<line x1="5297.084248" y1="3595.023373" x2="5358.758913" y2="3461.385144" class="t" />
<line x1="7043.572840" y1="1307.532952" x2="7031.536795" y2="1526.494126" class="t" />
<line x1="6792.838928" y1="1168.083784" x2="7043.572840" y2="1307.532952" class="t" />
<line x1="6796.722204" y1="2583.914424" x2="7032.460654" y2="2523.150314" class="t" />
<line x1="6709.762849" y1="2798.702072" x2="6796.722204" y2="2583.914424" class="t" />
<line x1="3214.545252" y1="4676.993473" x2="3062.154090" y2="4558.108145" class="t" />
<line x1="3371.255093" y1="4588.270686" x2="3214.545252" y2="4676.993473" class="t" />
<line x1="3557.313852" y1="4629.584637" x2="3371.255093" y2="4588.270686" class="t" />
<line x1="3315.368835" y1="4371.788251" x2="3371.255093" y2="4588.270686" class="t" />
<line x1="3003.854263" y1="4322.602972" x2="3315.368835" y2="4371.788251" class="t" />
<line x1="3378.556238" y1="4165.962671" x2="3315.368835" y2="4371.788251" class="t" />
<line x1="3597.715786" y1="4787.481792" x2="3557.313852" y2="4629.584637" class="t" />
<line x1="3819.117844" y1="4841.996037" x2="3597.715786" y2="4787.481792" class="t" />
<line x1="3740.607636" y1="5066.531343" x2="3819.117844" y2="4841.996037" class="t" />
<line x1="3499.285067" y1="5112.170651" x2="3740.607636" y2="5066.531343" class="t" />
<line x1="3283.958895" y1="5160.623939" x2="3499.285067" y2="5112.170651" class="t" />
<line x1="3770.172582" y1="5312.530319" x2="3740.607636" y2="5066.531343" class="t" />
<line x1="3607.877571" y1="5547.943543" x2="3770.172582" y2="5312.530319" class="t" />
<line x1="3529.028574" y1="5749.716285" x2="3607.877571" y2="5547.943543" class="t" />
<line x1="3977.969864" y1="5263.502421" x2="3770.172582" y2="5312.530319" class="t" />
<line x1="4031.995784" y1="5519.386299" x2="3977.969864" y2="5263.502421" class="t" />
<line x1="3997.648979" y1="5807.865317" x2="4031.995784" y2="5519.386299" class="t" />
<line x1="4322.762738" y1="6034.773880" x2="3997.648979" y2="5807.865317" class="t" />
<line x1="3994.447173" y1="4688.522448" x2="3819.117844" y2="4841.996037" class="t" />
<line x1="3943.900483" y1="4505.231555" x2="3994.447173" y2="4688.522448" class="t" />
<line x1="4070.935546" y1="4312.894570" x2="3943.900483" y2="4505.231555" class="t" />
<line x1="3809.024027" y1="4165.579153" x2="4070.935546" y2="4312.894570" class="t" />
<line x1="3729.418621" y1="3984.226048" x2="3809.024027" y2="4165.579153" class="t" />
<line x1="3407.081915" y1="3853.964265" x2="3729.418621" y2="3984.226048" class="t" />
<line x1="3478.674524" y1="3631.764593" x2="3407.081915" y2="3853.964265" class="t" />
<line x1="3314.200444" y1="3488.103535" x2="3478.674524" y2="3631.764593" class="t" />
<line x1="3326.038725" y1="3308.058852" x2="3314.200444" y2="3488.103535" class="t" />
<line x1="3067.651960" y1="3223.554903" x2="3326.038725" y2="3308.058852" class="t" />
<line x1="3103.026849" y1="3019.946904" x2="3067.651960" y2="3223.554903" class="t" />
<line x1="2933.739763" y1="2890.160808" x2="3103.026849" y2="3019.946904" class="t" />
<line x1="3050.105550" y1="2631.881315" x2="2933.739763" y2="2890.160808" class="t" />
<line x1="2851.818981" y1="2434.772670" x2="3050.105550" y2="2631.881315" class="t" />
<line x1="3360.901044" y1="2602.664705" x2="3050.105550" y2="2631.881315" class="t" />
<line x1="2900.881392" y1="2145.549905" x2="2851.818981" y2="2434.772670" class="t" />
<line x1="2502.887411" y1="2461.141843" x2="2851.818981" y2="2434.772670" class="t" />
<line x1="3195.188165" y1="2115.529711" x2="2900.881392" y2="2145.549905" class="t" />
<line x1="3150.122128" y1="1915.642043" x2="3195.188165" y2="2115.529711" class="t" />
<line x1="2857.807734" y1="1738.396820" x2="3150.122128" y2="1915.642043" class="t" />
<line x1="3382.122768" y1="1891.575446" x2="3150.122128" y2="1915.642043" class="t" />
<line x1="2560.053139" y1="1967.340114" x2="2900.881392" y2="2145.549905" class="t" />
<line x1="2292.476683" y1="2183.882689" x2="2502.887411" y2="2461.141843" class="t" />
<line x1="2871.867606" y1="3437.601013" x2="3067.651960" y2="3223.554903" class="t" />
<line x1="2588.861360" y1="3011.628690" x2="2933.739763" y2="2890.160808" class="t" />
<line x1="2533.487439" y1="3345.406133" x2="2588.861360" y2="3011.628690" class="t" />
<line x1="2516.219913" y1="1768.391412" x2="2560.053139" y2="1967.340114" class="t" />
<line x1="2344.588217" y1="1593.660759" x2="2516.219913" y2="1768.391412" class="t" />
<line x1="2028.329989" y1="2076.447551" x2="2292.476683" y2="2183.882689" class="t" />
<line x1="2326.266490" y1="2723.695580" x2="2502.887411" y2="2461.141843" class="t" />
<line x1="1834.867494" y1="2754.338913" x2="2326.266490" y2="2723.695580" class="t" />
<line x1="3507.509548" y1="3205.241121" x2="3326.038725" y2="3308.058852" class="t" />
<line x1="3865.320706" y1="3238.129439" x2="3507.509548" y2="3205.241121" class="t" />
<line x1="3393.559294" y1="3019.656540" x2="3103.026849" y2="3019.946904" class="t" />
<line x1="3477.009496" y1="2413.297620" x2="3360.901044" y2="2602.664705" class="t" />
<line x1="3757.894452" y1="2368.946182" x2="3477.009496" y2="2413.297620" class="t" />
<line x1="2245.801443" y1="3502.499507" x2="2533.487439" y2="3345.406133" class="t" />
<line x1="2260.584254" y1="3759.935263" x2="2245.801443" y2="3502.499507" class="t" />
<line x1="2112.970360" y1="3881.500593" x2="2260.584254" y2="3759.935263" class="t" />
<line x1="3557.698988" y1="2825.533739" x2="3360.901044" y2="2602.664705" class="t" />
<line x1="3905.326849" y1="2816.559489" x2="3557.698988" y2="2825.533739" class="t" />
<line x1="3684.399093" y1="1970.051986" x2="3382.122768" y2="1891.575446" class="t" />
<line x1="3814.433637" y1="1759.279096" x2="3684.399093" y2="1970.051986" class="t" />
<line x1="4075.952938" y1="1648.187784" x2="3814.433637" y2="1759.279096" class="t" />
<line x1="3336.210598" y1="1705.173125" x2="3382.122768" y2="1891.575446" class="t" />
<line x1="3651.288349" y1="1592.384553" x2="3336.210598" y2="1705.173125" class="t" />
<line x1="2894.046565" y1="3633.425105" x2="2871.867606" y2="3437.601013" class="t" />
<line x1="2900.495627" y1="3914.491672" x2="2894.046565" y2="3633.425105" class="t" />
<line x1="1987.833602" y1="3994.488602" x2="2112.970360" y2="3881.500593" class="t" />
<line x1="2163.059432" y1="1618.172179" x2="2344.588217" y2="1593.660759" class="t" />
<line x1="2129.412081" y1="1391.628928" x2="2163.059432" y2="1618.172179" class="t" />
<line x1="2280.480021" y1="4054.826957" x2="2112.970360" y2="3881.500593" class="t" />
<line x1="2300.652702" y1="4254.267801" x2="2280.480021" y2="4054.826957" class="t" />
<line x1="3190.860101" y1="1557.942060" x2="3336.210598" y2="1705.173125" class="t" />
<line x1="3432.228696" y1="1288.423464" x2="3190.860101" y2="1557.942060" class="t" />
<line x1="2876.353236" y1="1568.680159" x2="2857.807734" y2="1738.396820" class="t" />
<line x1="2725.047652" y1="1373.667912" x2="2876.353236" y2="1568.680159" class="t" />
<line x1="2661.125307" y1="1720.940406" x2="2857.807734" y2="1738.396820" class="t" />
<line x1="2519.166245" y1="1501.800130" x2="2661.125307" y2="1720.940406" class="t" />
<line x1="2352.646174" y1="1386.441095" x2="2519.166245" y2="1501.800130" class="t" />
<line x1="1844.415378" y1="2168.876202" x2="2028.329989" y2="2076.447551" class="t" />
<line x1="1693.843166" y1="1898.087788" x2="1844.415378" y2="2168.876202" class="t" />
<line x1="1553.164811" y1="1819.200400" x2="1693.843166" y2="1898.087788" class="t" />
<line x1="1385.352726" y1="1952.700613" x2="1553.164811" y2="1819.200400" class="t" />
<line x1="1220.651792" y1="1689.994490" x2="1385.352726" y2="1952.700613" class="t" />
<line x1="1514.845607" y1="1490.750201" x2="1553.164811" y2="1819.200400" class="t" />
<line x1="1017.988151" y1="1685.372304" x2="1220.651792" y2="1689.994490" class="t" />
<line x1="791.194745" y1="1390.180850" x2="1017.988151" y2="1685.372304" class="t" />
<line x1="4252.377216" y1="4360.026215" x2="4070.935546" y2="4312.894570" class="t" />
<line x1="628.284091" y1="1415.316130" x2="791.194745" y2="1390.180850" class="t" />
<line x1="574.393265" y1="1593.419179" x2="628.284091" y2="1415.316130" class="t" />
<line x1="4204.868395" y1="5070.164727" x2="3977.969864" y2="5263.502421" class="t" />
<line x1="2927.485623" y1="4105.468952" x2="2900.495627" y2="3914.491672" class="t" />
<line x1="3150.335630" y1="4464.113498" x2="2927.485623" y2="4105.468952" class="t" />
<line x1="4514.742212" y1="2484.512815" x2="4498.131910" y2="2321.746496" class="t" />
<line x1="4364.381636" y1="2620.518909" x2="4514.742212" y2="2484.512815" class="t" />
<line x1="2223.435253" y1="2366.022784" x2="2142.151312" y2="2509.149146" class="t" />
<line x1="2106.110052" y1="2261.745010" x2="2223.435253" y2="2366.022784" class="t" />
<line x1="1884.971290" y1="2224.876520" x2="2106.110052" y2="2261.745010" class="t" />
<line x1="5444.690122" y1="1905.728174" x2="5496.632472" y2="2057.850236" class="t" />
<line x1="5511.966328" y1="1756.724599" x2="5444.690122" y2="1905.728174" class="t" />
<line x1="5708.797595" y1="1752.767847" x2="5511.966328" y2="1756.724599" class="t" />
<line x1="5775.913047" y1="1614.303169" x2="5708.797595" y2="1752.767847" class="t" />
<line x1="5929.070247" y1="1596.402733" x2="5775.913047" y2="1614.303169" class="t" />
<line x1="5901.125404" y1="1335.767939" x2="5929.070247" y2="1596.402733" class="t" />
<line x1="3813.769649" y1="3761.401781" x2="3729.418621" y2="3984.226048" class="t" />
<line x1="2072.203441" y1="4308.925350" x2="1987.833602" y2="3994.488602" class="t" />
<line x1="2098.649095" y1="4676.899640" x2="2072.203441" y2="4308.925350" class="t" />
<line x1="5930.736855" y1="1953.007506" x2="6116.042558" y2="1952.940150" class="t" />
<line x1="6471.617725" y1="2982.016873" x2="6329.202892" y2="2865.024057" class="t" />
<line x1="3733.117719" y1="2033.980128" x2="3673.048812" y2="2240.786437" class="t" />
<line x1="700.012676" y1="1176.218244" x2="791.194745" y2="1390.180850" class="t" />
<line x1="429.365629" y1="934.051890" x2="700.012676" y2="1176.218244" class="t" />
<line x1="3078.816187" y1="3600.041067" x2="3314.200444" y2="3488.103535" class="t" />
<line x1="3091.883165" y1="3838.622036" x2="3078.816187" y2="3600.041067" class="t" />
<line x1="3019.230072" y1="4040.361780" x2="3091.883165" y2="3838.622036" class="t" />
<line x1="4106.737389" y1="3164.320444" x2="3927.175735" y2="2914.479083" class="t" />
<line x1="3970.571424" y1="3298.889265" x2="4106.737389" y2="3164.320444" class="t" />
<line x1="4010.108863" y1="3528.681624" x2="3970.571424" y2="3298.889265" class="t" />
<line x1="2505.332129" y1="4067.155546" x2="2280.480021" y2="4054.826957" class="t" />
<line x1="2598.723961" y1="4312.168968" x2="2505.332129" y2="4067.155546" class="t" />
<line x1="2507.440974" y1="3908.794674" x2="2505.332129" y2="4067.155546" class="t" />
<line x1="7524.369801" y1="1493.254519" x2="7497.708578" y2="1608.417536" class="t" />
<line x1="7732.006101" y1="1490.494559" x2="7524.369801" y2="1493.254519" class="t" />
<line x1="8077.968003" y1="1513.278539" x2="7732.006101" y2="1490.494559" class="t" />
<line x1="4062.475852" y1="3542.758647" x2="3884.672018" y2="3530.085721" class="t" />
<line x1="4260.267099" y1="3234.420262" x2="4062.475852" y2="3542.758647" class="t" />
<line x1="4447.525882" y1="3263.507578" x2="4260.267099" y2="3234.420262" class="t" />
<line x1="4652.606246" y1="3023.437551" x2="4447.525882" y2="3263.507578" class="t" />
<line x1="4123.353263" y1="2999.277135" x2="3905.326849" y2="2816.559489" class="t" />
<line x1="4431.836748" y1="3033.178644" x2="4123.353263" y2="2999.277135" class="t" />
<line x1="4814.402644" y1="2024.492430" x2="4913.339688" y2="2084.394998" class="t" />
<line x1="4901.902436" y1="1764.203775" x2="4814.402644" y2="2024.492430" class="t" />
<line x1="4770.348546" y1="1616.558448" x2="4901.902436" y2="1764.203775" class="t" />
<line x1="4757.088226" y1="1389.370897" x2="4770.348546" y2="1616.558448" class="t" />
<line x1="4587.210826" y1="1243.769979" x2="4757.088226" y2="1389.370897" class="t" />
<line x1="7370.062434" y1="1304.620744" x2="7524.369801" y2="1493.254519" class="t" />
<line x1="2467.143092" y1="4392.257222" x2="2300.652702" y2="4254.267801" class="t" />
<line x1="2652.316690" y1="4687.265858" x2="2467.143092" y2="4392.257222" class="t" />
<line x1="3660.947175" y1="3749.057124" x2="3884.672018" y2="3530.085721" class="t" />
<line x1="3519.348745" y1="4030.280908" x2="3660.947175" y2="3749.057124" class="t" />
<line x1="7400.518017" y1="2565.521771" x2="7249.334039" y2="2385.973039" class="t" />
<line x1="7212.365772" y1="2828.188545" x2="7400.518017" y2="2565.521771" class="t" />
<line x1="7588.570957" y1="2359.068161" x2="7400.518017" y2="2565.521771" class="t" />
<line x1="1338.396480" y1="1378.406863" x2="1514.845607" y2="1490.750201" class="t" />
<line x1="1231.303764" y1="957.025884" x2="1338.396480" y2="1378.406863" class="t" />
<line x1="1084.882920" y1="766.939482" x2="1231.303764" y2="957.025884" class="t" />
<line x1="963.186884" y1="427.829937" x2="1084.882920" y2="766.939482" class="t" />
<line x1="3592.104566" y1="4135.738463" x2="3519.348745" y2="4030.280908" class="t" />
<line x1="3468.207904" y1="4365.762103" x2="3592.104566" y2="4135.738463" class="t" />
<line x1="3686.546891" y1="4409.300524" x2="3468.207904" y2="4365.762103" class="t" />
<line x1="3311.336042" y1="4482.726656" x2="3468.207904" y2="4365.762103" class="t" />
<line x1="3295.303151" y1="4671.683812" x2="3311.336042" y2="4482.726656" class="t" />
<line x1="3073.829407" y1="4898.571711" x2="3295.303151" y2="4671.683812" class="t" />
<line x1="3351.890726" y1="5464.716919" x2="3607.877571" y2="5547.943543" class="t" />
<line x1="3223.221745" y1="5593.199434" x2="3351.890726" y2="5464.716919" class="t" />
<line x1="2886.759858" y1="5665.342067" x2="3223.221745" y2="5593.199434" class="t" />
<line x1="4009.645046" y1="3840.171072" x2="4062.475852" y2="3542.758647" class="t" />
<line x1="3755.968305" y1="4071.635844" x2="4009.645046" y2="3840.171072" class="t" />
<line x1="4289.002425" y1="3718.310026" x2="4009.645046" y2="3840.171072" class="t" />
<line x1="3745.703215" y1="4553.143536" x2="3686.546891" y2="4409.300524" class="t" />
<line x1="4145.500082" y1="4561.719842" x2="3745.703215" y2="4553.143536" class="t" />
<line x1="4348.291312" y1="2881.510268" x2="4418.193989" y2="2691.267710" class="t" />
<line x1="4066.638674" y1="2977.165751" x2="4348.291312" y2="2881.510268" class="t" />
<line x1="2901.310674" y1="1990.036919" x2="2821.603139" y2="2205.425246" class="t" />
<line x1="2795.894918" y1="1726.881975" x2="2901.310674" y2="1990.036919" class="t" />
<line x1="2957.449421" y1="1613.451429" x2="2795.894918" y2="1726.881975" class="t" />
<line x1="2567.754113" y1="1669.462000" x2="2795.894918" y2="1726.881975" class="t" />
<line x1="2961.094854" y1="1457.833710" x2="2957.449421" y2="1613.451429" class="t" />
<line x1="3335.681882" y1="1275.398067" x2="2961.094854" y2="1457.833710" class="t" />
<line x1="6261.148966" y1="1566.378138" x2="6339.717556" y2="1732.149149" class="t" />
<line x1="1833.072175" y1="1613.810260" x2="1693.843166" y2="1898.087788" class="t" />
<line x1="1792.844509" y1="1357.055248" x2="1833.072175" y2="1613.810260" class="t" />
<line x1="1958.314397" y1="1147.138167" x2="1792.844509" y2="1357.055248" class="t" />
<line x1="2072.895919" y1="834.960245" x2="1958.314397" y2="1147.138167" class="t" />
<line x1="1616.782886" y1="1311.989366" x2="1792.844509" y2="1357.055248" class="t" />
<line x1="1540.647585" y1="871.102986" x2="1616.782886" y2="1311.989366" class="t" />
<line x1="4931.619230" y1="2908.461914" x2="4742.389164" y2="2936.994527" class="t" />
<line x1="7165.971494" y1="1219.660635" x2="7370.062434" y2="1304.620744" class="t" />
<line x1="2524.710577" y1="1331.941461" x2="2344.588217" y2="1593.660759" class="t" />
<line x1="2532.105180" y1="1034.314695" x2="2524.710577" y2="1331.941461" class="t" />
<line x1="2059.528315" y1="592.837292" x2="2072.895919" y2="834.960245" class="t" />
<line x1="2261.438452" y1="229.183733" x2="2059.528315" y2="592.837292" class="t" />
<line x1="3023.206332" y1="5172.210498" x2="3073.829407" y2="4898.571711" class="t" />
<line x1="2820.400204" y1="5453.373910" x2="3023.206332" y2="5172.210498" class="t" />
<line x1="2363.796917" y1="1822.567202" x2="2567.754113" y2="1669.462000" class="t" />
<line x1="2057.339241" y1="1840.417875" x2="2363.796917" y2="1822.567202" class="t" />
<line x1="3292.009163" y1="4089.049500" x2="3519.348745" y2="4030.280908" class="t" />
<line x1="3267.502960" y1="3760.380720" x2="3292.009163" y2="4089.049500" class="t" />
</svg>
