<?xml version="1.0"?>
<svg width="2347" height="2643" version="1.1" xmlns="http://www.w3.org/2000/svg" >
<defs>
<style type="text/css"><![CDATA[
.m {stroke:rgb(255,0,0);stroke-width:3.303750;}
.v {stroke:rgb(0,0,255);stroke-width:3.303750;}
.b {stroke:rgb(0,0,0);stroke-width:6.607500;fill:white}
.n {stroke:rgb(128,128,128);stroke-width:3.303750}
.t {stroke:rgb(0,128,0);stroke-width:3.303750;}
.c {stroke:rgb(128,128,128);stroke-width:3.303750;stroke-dasharray:23.470000, 23.470000;}
]]></style>
</defs>
<path fill="none" style="stroke:black;stroke-width:6.607500;" d=" M 662.867 627.273 L 662.867 827.273 M 662.867 827.273 L 662.867 627.273 M 979.094 727.273 L 979.094 527.273 M 979.094 927.273 L 979.094 727.273 M 547.875 463.636 L 662.867 627.273 M 662.867 627.273 L 547.875 463.636 M 547.875 463.636 L 560.942 132.231 M 359.706 395.868 L 346.639 727.273 M 560.942 132.231 L 372.773 64.4628 M 372.773 64.4628 L 359.706 395.868 M 749.111 200 L 560.942 132.231 M 560.942 132.231 L 547.875 463.636 M 864.102 1090.91 L 662.867 827.273 M 346.639 727.273 L 547.875 990.909 M 662.867 827.273 L 864.102 1090.91 M 547.875 990.909 L 749.111 1254.55 M 2347.59 1220.14 L 2031.37 1120.14 M 1715.14 1220.14 L 2031.37 1320.14 M 662.867 2081.82 L 979.094 2181.82 M 2347.59 1420.14 L 2347.59 1220.14 M 2031.37 1320.14 L 2347.59 1420.14 M 1728.2 888.73 L 1548.35 610.068 M 1535.28 941.473 L 1715.14 1220.14 M 1355.43 662.81 L 1535.28 941.473 M 179.853 1571.75 L 359.706 1850.41 M 359.706 1850.41 L 547.875 1918.18 M 1916.37 956.499 L 1728.2 888.73 M 560.942 1586.78 L 372.773 1519.01 M 749.111 1654.55 L 560.942 1586.78 M 547.875 1918.18 L 662.867 2081.82 M 2031.37 1120.14 L 1916.37 956.499 M 979.094 1981.82 L 864.102 1818.18 M 773.107 911.42 L 966.027 858.678 M 966.027 858.678 L 773.107 911.42 M 786.174 580.015 L 593.254 632.757 M 979.094 527.273 L 786.174 580.015 M 979.094 2181.82 L 1295.32 2281.82 M 1295.32 2281.82 L 1295.32 2081.82 M 952.96 1190.08 L 1269.19 1090.08 M 1269.19 1090.08 L 1154.2 926.446 M 1154.2 926.446 L 1470.42 826.446 M 1470.42 826.446 L 1355.43 662.81 M 1295.32 2081.82 L 979.094 1981.82 M 773.107 911.42 L 465.735 786.832 M 645.588 1065.49 L 952.96 1190.08 M 338.215 940.906 L 645.588 1065.49 M 465.735 786.832 L 773.107 911.42 M 1065.34 1554.55 L 864.102 1818.18 M 979.094 1981.82 L 1180.33 1718.18 M 864.102 1818.18 L 979.094 1981.82 M 864.102 1818.18 L 1065.34 1554.55 M 1180.33 1718.18 L 1167.26 2049.59 M 1167.26 2049.59 L 1368.5 1785.95 M 1368.5 1785.95 L 1381.57 1454.55 M 593.254 632.757 L 285.881 508.169 M 285.881 508.169 L 465.735 786.832 M 465.735 786.832 L 158.362 662.243 M 158.362 662.243 L 338.215 940.906 M 864.102 1090.91 L 1065.34 1354.55 M 1381.57 1454.55 L 1180.33 1190.91 M 1065.34 1354.55 L 864.102 1090.91 M 1180.33 1190.91 L 979.094 927.273 M 749.111 1454.55 L 1065.34 1554.55 M 1065.34 1554.55 L 749.111 1454.55 M 432.883 1554.55 L 317.891 1718.18 M 317.891 1718.18 L 432.883 1554.55 M 634.119 1818.18 L 749.111 1654.55 M 519.127 1981.82 L 634.119 1818.18 M 432.883 1354.55 L 634.119 1090.91 M 317.891 1190.91 L 116.655 1454.55 M 519.127 927.273 L 317.891 1190.91 M 634.119 1090.91 L 519.127 927.273 M 749.111 1254.55 L 634.119 1090.91 M 634.119 1090.91 L 432.883 1354.55 M 330.958 2049.59 L 317.891 1718.18 M 116.655 1454.55 L 129.722 1785.95 M 317.891 1718.18 L 330.958 2049.59 M 129.722 1785.95 L 142.79 2117.36 M 1180.33 263.636 L 1065.34 100 M 864.102 363.636 L 1180.33 263.636 M 1065.34 100 L 1180.33 263.636 M 1381.57 0 L 1065.34 100 M 1180.33 263.636 L 864.102 363.636 M 1065.34 100 L 749.111 200 M 330.958 2049.59 L 344.025 2380.99 M 545.261 2644.63 L 532.194 2313.22 M 344.025 2380.99 L 545.261 2644.63 M 344.025 2380.99 L 330.958 2049.59 M 142.79 2117.36 L 344.025 2380.99 M 532.194 2313.22 L 519.127 1981.82 M 0 1293.09 L 179.853 1571.75 M 192.92 1240.35 L 0 1293.09 M 1368.5 331.405 L 1561.42 278.663 M 1561.42 278.663 L 1381.57 0 M 372.773 1519.01 L 192.92 1240.35 M 1548.35 610.068 L 1368.5 331.405 M 1180.33 263.636 L 1167.26 595.041 M 1167.26 595.041 L 1180.33 263.636" />
<path fill="none" class="c" d=" M 979.094 527.273 L 662.867 627.273 M 749.111 200 L 547.875 463.636 M 662.867 827.273 L 979.094 927.273 M 979.094 527.273 L 864.102 363.636 M 979.094 527.273 L 1180.33 263.636 M 979.094 527.273 L 1167.26 595.041 M 979.094 527.273 L 966.027 858.678 M 966.027 858.678 L 952.96 1190.08 M 1355.43 662.81 L 1167.26 595.041 M 1381.57 0 L 1180.33 263.636 M 1154.2 926.446 L 1355.43 662.81 M 952.96 1190.08 L 1154.2 926.446 M 1355.43 662.81 L 1368.5 331.405 M 1368.5 331.405 L 1381.57 0 M 864.102 363.636 L 749.111 200 M 864.102 1090.91 L 979.094 927.273 M 1355.43 662.81 L 1548.35 610.068 M 1065.34 1354.55 L 1381.57 1454.55 M 1065.34 1554.55 L 1381.57 1454.55 M 749.111 1254.55 L 749.111 1454.55 M 116.655 1454.55 L 432.883 1554.55 M 749.111 1254.55 L 432.883 1354.55 M 432.883 1554.55 L 749.111 1654.55 M 749.111 1654.55 L 749.111 1454.55 M 749.111 1654.55 L 1065.34 1554.55 M 432.883 1354.55 L 116.655 1454.55 M 1065.34 1354.55 L 749.111 1254.55 M 1715.14 1220.14 L 1728.2 888.73 M 1715.14 1220.14 L 1916.37 956.499 M 1715.14 1220.14 L 2031.37 1120.14 M 749.111 1654.55 L 864.102 1818.18 M 749.111 1654.55 L 547.875 1918.18 M 662.867 2081.82 L 979.094 1981.82 M 372.773 1519.01 L 359.706 1850.41 M 864.102 1090.91 L 749.111 1254.55 M 662.867 827.273 L 346.639 727.273 M 662.867 627.273 L 346.639 727.273 M 547.875 463.636 L 346.639 727.273 M 372.773 1519.01 L 179.853 1571.75 M 116.655 1454.55 L 317.891 1718.18 M 593.254 632.757 L 773.107 911.42 M 593.254 632.757 L 465.735 786.832 M 317.891 1718.18 L 519.127 1981.82 M 330.958 2049.59 L 519.127 1981.82 M 142.79 2117.36 L 330.958 2049.59 M 773.107 911.42 L 952.96 1190.08 M 465.735 786.832 L 338.215 940.906 M 1180.33 1718.18 L 1381.57 1454.55 M 979.094 2181.82 L 979.094 1981.82" />
</svg>
