<?xml version="1.0"?>
<svg width="3453" height="3629" version="1.1" xmlns="http://www.w3.org/2000/svg" >
<defs>
<style type="text/css"><![CDATA[
.m {stroke:rgb(255,0,0);stroke-width:4.536250;}
.v {stroke:rgb(0,0,255);stroke-width:4.536250;}
.b {stroke:rgb(0,0,0);stroke-width:9.072500;fill:white}
.n {stroke:rgb(128,128,128);stroke-width:4.536250}
.t {stroke:rgb(0,128,0);stroke-width:4.536250;}
.c {stroke:rgb(128,128,128);stroke-width:4.536250;stroke-dasharray:34.530000, 34.530000;}
]]></style>
</defs>
<path fill="none" style="stroke:black;stroke-width:9.072500;" d=" M 1757.74 1551.62 L 1833.02 1658.55 M 1721.98 1834.06 L 1645.42 1728.05 M 1645.42 1728.05 L 1414.25 1753.83 M 1414.25 1753.83 L 1460.01 1868.5 M 1738.36 1422.29 L 1526.99 1580.84 M 1526.99 1580.84 L 1757.74 1551.62 M 2027.66 1525.93 L 1970.72 1383.83 M 1565.6 1699.96 L 1518.45 1585.86 M 1518.45 1585.86 L 1420.54 1693.11 M 1970.72 1383.83 L 1937.52 1257.75 M 2090.69 1640.06 L 2027.66 1525.93 M 1542.78 1599.95 L 1738.36 1422.29 M 1615.01 1378.85 L 1542.78 1599.95 M 1421.2 1845.65 L 1297.8 1841.66 M 1297.8 1841.66 L 1352.26 2067.8 M 1352.26 2067.8 L 1478 2103.69 M 1524.2 1284.75 L 1615.01 1378.85 M 1286.83 1841.95 L 1405.08 1877.44 M 1383.74 1733.8 L 1286.83 1841.95 M 1478 2103.69 L 1629.05 2284.41 M 1577.05 2018.31 L 1421.2 1845.65 M 1405.08 1877.44 L 1580.61 2030.05 M 1580.61 2030.05 L 1703.86 1986.35 M 1703.86 1986.35 L 1577.05 2018.31 M 1629.05 2284.41 L 1764.9 2213.83 M 1507.9 1809.11 L 1383.74 1733.8 M 1764.9 2213.83 L 1887.11 2168.44 M 1462.53 1057.44 L 1524.2 1284.75 M 1931.72 2045.93 L 1735.01 1859.34 M 1735.01 1859.34 L 1565.6 1699.96 M 1460.01 1868.5 L 1675.41 1956.26 M 1943.32 1914.56 L 1721.98 1834.06 M 1675.41 1956.26 L 1923.2 2066.32 M 1420.54 1693.11 L 1507.9 1809.11 M 1833.02 1658.55 L 2044.6 1762.01 M 2575.59 3014.47 L 2699.8 3055.37 M 2513.93 3238.74 L 2700.86 3052.01 M 2700.86 3052.01 L 2575.59 3014.47 M 2407.84 3175.6 L 2513.93 3238.74 M 2646.39 2752.74 L 2482.87 2922.25 M 2776.87 2832.81 L 2646.39 2752.74 M 2482.93 3273.59 L 2407.84 3175.6 M 2341.05 3304.54 L 2482.93 3273.59 M 2483.54 2925.71 L 2666.3 2777.15 M 2666.3 2777.15 L 2574.98 2684.1 M 2895.54 2886.78 L 2776.87 2832.81 M 2699.8 3055.37 L 2895.54 2886.78 M 2001.96 3024.81 L 1783.51 2936.75 M 1954.92 3146.83 L 2173.81 3225.51 M 2202 3262.66 L 1989.16 3356.46 M 1976.2 3486.59 L 2220.02 3384.8 M 1989.16 3356.46 L 1741.5 3466.82 M 1697.05 3063.08 L 1954.92 3146.83 M 2220.02 3384.8 L 2341.05 3304.54 M 1742.73 3597.19 L 1976.2 3486.59 M 1782.42 3009.47 L 2014.61 3048.97 M 2138.14 3006.08 L 2229.37 2912.39 M 2229.37 2912.39 L 2129.77 2997.12 M 2173.81 3225.51 L 2284.48 3170.8 M 2129.77 2997.12 L 2001.96 3024.81 M 2014.61 3048.97 L 2138.14 3006.08 M 2063.15 2745.53 L 1933.97 2827.68 M 2284.48 3170.8 L 2202 3262.66 M 1933.97 2827.68 L 1816.18 2883.55 M 2163.7 2662.54 L 2063.15 2745.53 M 2354.88 2949.11 L 2483.54 2925.71 M 2482.87 2922.25 L 2354.88 2949.11 M 2444.94 2693.37 L 2292.06 2685.36 M 2574.98 2684.1 L 2444.94 2693.37 M 3172.48 2875.03 L 3302.81 2885.76 M 2993.61 3231.23 L 3134.41 3007.66 M 3134.41 3007.66 L 3003.93 2998.87 M 2876.15 3193.22 L 2993.61 3231.23 M 3003.93 2998.87 L 2893.05 2929.54 M 3060.77 2807.05 L 3172.48 2875.03 M 3325.71 2651.35 L 3180.13 2604.01 M 3154.26 3116.07 L 3037.27 3076.64 M 3053.78 3220.91 L 3154.26 3116.07 M 3180.13 2604.01 L 3062.06 2548.72 M 3302.81 2885.76 L 3453.72 2676.07 M 3453.72 2676.07 L 3325.71 2651.35 M 2695.81 3309.33 L 2640.27 3190.94 M 2616.3 3177.94 L 2645.34 3305.45 M 2868.19 3372.05 L 2870.89 3248.63 M 2610.76 3431.56 L 2868.19 3372.05 M 2645.34 3305.45 L 2610.76 3431.56 M 2692.42 3440.06 L 2695.81 3309.33 M 2915.01 3263.73 L 2998.11 3355.04 M 2998.11 3355.04 L 3053.78 3220.91 M 2467.68 3567.46 L 2692.42 3440.06 M 2718.87 3086.42 L 2742.31 2957.77 M 2742.31 2957.77 L 2706.92 3083.66 M 2870.89 3248.63 L 2932.21 3141.48 M 2706.92 3083.66 L 2616.3 3177.94 M 2640.27 3190.94 L 2718.87 3086.42 M 2511.27 2912.02 L 2449.9 3052.27 M 2932.21 3141.48 L 2915.01 3263.73 M 2449.9 3052.27 L 2383.31 3164.35 M 2548.41 2787.05 L 2511.27 2912.02 M 2893.05 2929.54 L 2797.98 2714.05 M 2774.22 2984.14 L 2876.15 3193.22 M 3037.27 3076.64 L 2866.96 2918.22 M 2866.96 2918.22 L 2667.67 2734.38 M 2647.9 2744.24 L 2774.22 2984.14 M 2943.44 2602.83 L 3060.77 2807.05 M 2441.95 2459.42 L 2431.02 2730.33 M 2292.06 2685.36 L 2438.33 2730.53 M 2438.33 2730.53 L 2441.95 2459.42 M 2431.02 2730.33 L 2548.41 2787.05 M 2311.47 2450.63 L 2163.7 2662.54 M 2552.83 2528.75 L 2647.9 2744.24 M 2671.65 2474.14 L 2569.73 2265.07 M 2569.73 2265.07 L 2741.95 2421.41 M 2866.11 2380.36 L 2674 2198.96 M 2741.95 2421.41 L 2943.44 2602.83 M 2797.98 2714.05 L 2671.65 2474.14 M 2674 2198.96 L 2551.48 2121 M 3062.06 2548.72 L 2866.11 2380.36 M 2667.67 2734.38 L 2552.83 2528.75 M 2044.6 1762.01 L 2239.04 1950.97 M 2465.53 2003.95 L 2271.73 1824.35 M 2239.04 1950.97 L 2406.51 2112.39 M 2406.51 2112.39 L 2191.11 2024.62 M 1923.2 2066.32 L 2144.55 2146.82 M 2191.11 2024.62 L 1943.32 1914.56 M 2551.48 2121 L 2465.53 2003.95 M 2144.55 2146.82 L 1931.72 2045.93 M 2271.73 1824.35 L 2090.69 1640.06 M 1951.53 2281.79 L 2221.11 2252.84 M 2221.11 2252.84 L 2452.27 2227.05 M 2452.27 2227.05 L 2247.17 2336.76 M 2108.17 2569.55 L 2311.47 2450.63 M 2247.17 2336.76 L 2004.23 2457.15 M 2004.23 2457.15 L 2108.17 2569.55 M 866.096 1275.32 L 934.262 1049.87 M 806.491 1023.95 L 866.096 1275.32 M 1887.11 2168.44 L 1951.53 2281.79 M 908.912 695.029 L 809.765 609.759 M 789.126 627.587 L 897.827 700.287 M 1105.52 595.579 L 1022.68 504.041 M 897.827 700.287 L 959.349 815.682 M 959.349 815.682 L 908.912 695.029 M 653.484 785.967 L 743.455 909.825 M 1062.55 479.84 L 1105.52 595.579 M 743.455 909.825 L 806.491 1023.95 M 564.443 690.734 L 653.484 785.967 M 1089.57 827.628 L 1198.74 899.619 M 1200.65 896.65 L 1089.57 827.628 M 934.262 1049.87 L 1079.4 1098.57 M 1079.4 1098.57 L 1196.94 1154.96 M 1313.65 830.841 L 1200.65 896.65 M 1198.74 899.619 L 1318.86 847.91 M 1343.89 616.664 L 1222.03 636.427 M 1318.86 847.91 L 1449.16 859.009 M 1449.16 859.009 L 1343.89 616.664 M 1444.16 822.633 L 1313.65 830.841 M 1316.06 1101.96 L 1462.53 1057.44 M 1222.03 636.427 L 1327.86 572.863 M 1327.86 572.863 L 1207.27 491.961 M 1590.99 1035.19 L 1444.16 822.633 M 1196.94 1154.96 L 1316.06 1101.96 M 709.233 120.804 L 899.042 314.417 M 1124.18 372.862 L 934.785 188.625 M 899.042 314.417 L 1062.55 479.84 M 1022.68 504.041 L 790.198 496.821 M 553.604 629.247 L 789.126 627.587 M 790.198 496.821 L 519.588 479.988 M 1207.27 491.961 L 1124.18 372.862 M 809.765 609.759 L 579.296 561.209 M 934.785 188.625 L 758.262 0 M 1691.17 1118.63 L 1933.32 996.678 M 2057.45 799.973 L 1824.36 924.38 M 1933.32 996.678 L 2140.63 891.204 M 1986.94 1035.24 L 2067.14 783.486 M 2067.14 783.486 L 1896.13 941.141 M 1819.98 1201.36 L 1986.94 1035.24 M 1896.13 941.141 L 1691.17 1118.63 M 2140.63 891.204 L 2196.18 757.029 M 2196.18 757.029 L 2057.45 799.973 M 1937.52 1257.75 L 1941.23 999.439 M 1941.23 999.439 L 1819.98 1201.36 M 1824.36 924.38 L 1590.99 1035.19 M 579.296 561.209 L 344.536 425.56 M 111.974 429.601 L 343.819 556.329 M 344.536 425.56 L 142.665 310.02 M 284.066 481.648 L 50.5099 605.194 M 50.5099 605.194 L 282.995 612.414 M 519.588 479.988 L 284.066 481.648 M 282.995 612.414 L 553.604 629.247 M 0 337.134 L 111.974 429.601 M 142.665 310.02 L 0 337.134 M 500.212 12.2531 L 709.233 120.804 M 758.262 0 L 500.212 12.2531 M 343.819 556.329 L 564.443 690.734 M 1478.6 2975.03 L 1697.05 3063.08 M 1525.64 2853.01 L 1306.75 2774.33 M 1306.75 2774.33 L 1478.6 2975.03 M 1284.04 3082.72 L 1514.24 3049.41 M 1561.61 2927.52 L 1299.42 2960.23 M 1514.24 3049.41 L 1782.42 3009.47 M 1783.51 2936.75 L 1525.64 2853.01 M 1161.31 3005.1 L 1284.04 3082.72 M 1299.42 2960.23 L 1161.31 3005.1 M 1816.18 2883.55 L 1561.61 2927.52 M 1741.5 3466.82 L 1507.22 3491.01 M 1507.22 3491.01 L 1742.73 3597.19 M 2242.17 3534.3 L 2456.9 3437.54 M 1978.36 3519.46 L 2242.17 3534.3 M 2186.63 3415.9 L 1978.36 3519.46 M 2052.8 3626.53 L 2225.26 3470.45 M 2196.57 3342.87 L 1997.22 3516.29 M 2225.26 3470.45 L 2425.54 3287.7 M 2425.54 3287.7 L 2186.63 3415.9 M 1997.22 3516.29 L 1907.64 3630.58 M 1907.64 3630.58 L 2052.8 3626.53 M 2383.31 3164.35 L 2196.57 3342.87 M 2456.9 3437.54 L 2225.02 3478.82 M 2225.02 3478.82 L 2467.68 3567.46" />
<path fill="none" class="c" d=" M 1833.02 1658.55 L 2027.66 1525.93 M 2027.66 1525.93 L 1757.74 1551.62 M 1833.02 1658.55 L 2090.69 1640.06 M 1970.72 1383.83 L 1757.74 1551.62 M 2044.6 1762.01 L 2090.69 1640.06 M 1738.36 1422.29 L 1757.74 1551.62 M 1970.72 1383.83 L 1738.36 1422.29 M 2044.6 1762.01 L 2271.73 1824.35 M 1937.52 1257.75 L 1738.36 1422.29 M 2239.04 1950.97 L 2271.73 1824.35 M 1937.52 1257.75 L 1819.98 1201.36 M 2239.04 1950.97 L 2465.53 2003.95 M 1819.98 1201.36 L 1738.36 1422.29 M 2406.51 2112.39 L 2465.53 2003.95 M 1615.01 1378.85 L 1738.36 1422.29 M 1819.98 1201.36 L 1615.01 1378.85 M 2406.51 2112.39 L 2551.48 2121 M 1691.17 1118.63 L 1615.01 1378.85 M 1819.98 1201.36 L 1691.17 1118.63 M 2452.27 2227.05 L 2551.48 2121 M 1691.17 1118.63 L 1524.2 1284.75 M 1819.98 1201.36 L 1896.13 941.141 M 2452.27 2227.05 L 2569.73 2265.07 M 2569.73 2265.07 L 2551.48 2121 M 2441.95 2459.42 L 2569.73 2265.07 M 2569.73 2265.07 L 2674 2198.96 M 2441.95 2459.42 L 2552.83 2528.75 M 2552.83 2528.75 L 2569.73 2265.07 M 2741.95 2421.41 L 2674 2198.96 M 2431.02 2730.33 L 2552.83 2528.75 M 2552.83 2528.75 L 2671.65 2474.14 M 2741.95 2421.41 L 2866.11 2380.36 M 2548.41 2787.05 L 2552.83 2528.75 M 2647.9 2744.24 L 2671.65 2474.14 M 2943.44 2602.83 L 2866.11 2380.36 M 2548.41 2787.05 L 2667.67 2734.38 M 2647.9 2744.24 L 2797.98 2714.05 M 2943.44 2602.83 L 3062.06 2548.72 M 2548.41 2787.05 L 2742.31 2957.77 M 2742.31 2957.77 L 2667.67 2734.38 M 2774.22 2984.14 L 2797.98 2714.05 M 1691.17 1118.63 L 1590.99 1035.19 M 1590.99 1035.19 L 1524.2 1284.75 M 1986.94 1035.24 L 1896.13 941.141 M 2452.27 2227.05 L 2441.95 2459.42 M 2742.31 2957.77 L 2866.96 2918.22 M 2774.22 2984.14 L 2893.05 2929.54 M 2406.51 2112.39 L 2452.27 2227.05 M 1590.99 1035.19 L 1462.53 1057.44 M 2452.27 2227.05 L 2311.47 2450.63 M 2406.51 2112.39 L 2221.11 2252.84 M 1444.16 822.633 L 1462.53 1057.44 M 2247.17 2336.76 L 2311.47 2450.63 M 2406.51 2112.39 L 2144.55 2146.82 M 2144.55 2146.82 L 2221.11 2252.84 M 1313.65 830.841 L 1462.53 1057.44 M 2247.17 2336.76 L 2108.17 2569.55 M 2191.11 2024.62 L 2144.55 2146.82 M 2144.55 2146.82 L 1951.53 2281.79 M 1313.65 830.841 L 1316.06 1101.96 M 2144.55 2146.82 L 1887.11 2168.44 M 1200.65 896.65 L 1316.06 1101.96 M 1931.72 2045.93 L 1887.11 2168.44 M 1200.65 896.65 L 1196.94 1154.96 M 1703.86 1986.35 L 1887.11 2168.44 M 1931.72 2045.93 L 1703.86 1986.35 M 1200.65 896.65 L 1079.4 1098.57 M 1703.86 1986.35 L 1764.9 2213.83 M 1735.01 1859.34 L 1703.86 1986.35 M 1089.57 827.628 L 1079.4 1098.57 M 1577.05 2018.31 L 1764.9 2213.83 M 1735.01 1859.34 L 1507.9 1809.11 M 1089.57 827.628 L 934.262 1049.87 M 1577.05 2018.31 L 1629.05 2284.41 M 1565.6 1699.96 L 1507.9 1809.11 M 1089.57 827.628 L 959.349 815.682 M 959.349 815.682 L 934.262 1049.87 M 1577.05 2018.31 L 1478 2103.69 M 1565.6 1699.96 L 1420.54 1693.11 M 1089.57 827.628 L 1105.52 595.579 M 806.491 1023.95 L 934.262 1049.87 M 959.349 815.682 L 806.491 1023.95 M 1421.2 1845.65 L 1478 2103.69 M 1089.57 827.628 L 1222.03 636.427 M 1105.52 595.579 L 959.349 815.682 M 1507.9 1809.11 L 1703.86 1986.35 M 1421.2 1845.65 L 1352.26 2067.8 M 1198.74 899.619 L 1222.03 636.427 M 1507.9 1809.11 L 1580.61 2030.05 M 2191.11 2024.62 L 1923.2 2066.32 M 2742.31 2957.77 L 2932.21 3141.48 M 2932.21 3141.48 L 2866.96 2918.22 M 2876.15 3193.22 L 2893.05 2929.54 M 1318.86 847.91 L 1222.03 636.427 M 1507.9 1809.11 L 1405.08 1877.44 M 1943.32 1914.56 L 1923.2 2066.32 M 2311.47 2450.63 L 2441.95 2459.42 M 2932.21 3141.48 L 3037.27 3076.64 M 2876.15 3193.22 L 3003.93 2998.87 M 1383.74 1733.8 L 1405.08 1877.44 M 1943.32 1914.56 L 1675.41 1956.26 M 3060.77 2807.05 L 3062.06 2548.72 M 2511.27 2912.02 L 2742.31 2957.77 M 2311.47 2450.63 L 2292.06 2685.36 M 3053.78 3220.91 L 3037.27 3076.64 M 2993.61 3231.23 L 3003.93 2998.87 M 2932.21 3141.48 L 3053.78 3220.91 M 1721.98 1834.06 L 1675.41 1956.26 M 3060.77 2807.05 L 3180.13 2604.01 M 2511.27 2912.02 L 2718.87 3086.42 M 2915.01 3263.73 L 3053.78 3220.91 M 1721.98 1834.06 L 1460.01 1868.5 M 3172.48 2875.03 L 3180.13 2604.01 M 2449.9 3052.27 L 2718.87 3086.42 M 2163.7 2662.54 L 2292.06 2685.36 M 1645.42 1728.05 L 1460.01 1868.5 M 3172.48 2875.03 L 3325.71 2651.35 M 2449.9 3052.27 L 2640.27 3190.94 M 2163.7 2662.54 L 2229.37 2912.39 M 2229.37 2912.39 L 2292.06 2685.36 M 3302.81 2885.76 L 3325.71 2651.35 M 2383.31 3164.35 L 2640.27 3190.94 M 2063.15 2745.53 L 2229.37 2912.39 M 2354.88 2949.11 L 2292.06 2685.36 M 2229.37 2912.39 L 2354.88 2949.11 M 2425.54 3287.7 L 2640.27 3190.94 M 2383.31 3164.35 L 2425.54 3287.7 M 2229.37 2912.39 L 2284.48 3170.8 M 2284.48 3170.8 L 2354.88 2949.11 M 2425.54 3287.7 L 2695.81 3309.33 M 2196.57 3342.87 L 2425.54 3287.7 M 2129.77 2997.12 L 2284.48 3170.8 M 2407.84 3175.6 L 2354.88 2949.11 M 2284.48 3170.8 L 2407.84 3175.6 M 2456.9 3437.54 L 2695.81 3309.33 M 2425.54 3287.7 L 2456.9 3437.54 M 2407.84 3175.6 L 2482.87 2922.25 M 2341.05 3304.54 L 2407.84 3175.6 M 2284.48 3170.8 L 2341.05 3304.54 M 2456.9 3437.54 L 2692.42 3440.06 M 2186.63 3415.9 L 2456.9 3437.54 M 2407.84 3175.6 L 2575.59 3014.47 M 2575.59 3014.47 L 2482.87 2922.25 M 2202 3262.66 L 2341.05 3304.54 M 2456.9 3437.54 L 2467.68 3567.46 M 2186.63 3415.9 L 2242.17 3534.3 M 2513.93 3238.74 L 2575.59 3014.47 M 2575.59 3014.47 L 2646.39 2752.74 M 2202 3262.66 L 2220.02 3384.8 M 2196.57 3342.87 L 2225.26 3470.45 M 2129.77 2997.12 L 2173.81 3225.51 M 1997.22 3516.29 L 2225.26 3470.45 M 2001.96 3024.81 L 2173.81 3225.51 M 1997.22 3516.29 L 2052.8 3626.53 M 2001.96 3024.81 L 1954.92 3146.83 M 2575.59 3014.47 L 2776.87 2832.81 M 1783.51 2936.75 L 1954.92 3146.83 M 2699.8 3055.37 L 2776.87 2832.81 M 1783.51 2936.75 L 1697.05 3063.08 M 1989.16 3356.46 L 2220.02 3384.8 M 1525.64 2853.01 L 1697.05 3063.08 M 1989.16 3356.46 L 1976.2 3486.59 M 1525.64 2853.01 L 1478.6 2975.03 M 1741.5 3466.82 L 1976.2 3486.59 M 2063.15 2745.53 L 2138.14 3006.08 M 1741.5 3466.82 L 1742.73 3597.19 M 1933.97 2827.68 L 2138.14 3006.08 M 2354.88 2949.11 L 2444.94 2693.37 M 1933.97 2827.68 L 2014.61 3048.97 M 2483.54 2925.71 L 2444.94 2693.37 M 1816.18 2883.55 L 2014.61 3048.97 M 2483.54 2925.71 L 2574.98 2684.1 M 1816.18 2883.55 L 1782.42 3009.47 M 1691.17 1118.63 L 1824.36 924.38 M 1561.61 2927.52 L 1782.42 3009.47 M 1933.32 996.678 L 1824.36 924.38 M 1561.61 2927.52 L 1514.24 3049.41 M 1933.32 996.678 L 2057.45 799.973 M 1299.42 2960.23 L 1514.24 3049.41 M 2140.63 891.204 L 2057.45 799.973 M 1299.42 2960.23 L 1284.04 3082.72 M 2292.06 2685.36 L 2441.95 2459.42 M 1318.86 847.91 L 1343.89 616.664 M 1222.03 636.427 L 1105.52 595.579 M 1105.52 595.579 L 897.827 700.287 M 1207.27 491.961 L 1105.52 595.579 M 1222.03 636.427 L 1207.27 491.961 M 1022.68 504.041 L 897.827 700.287 M 1207.27 491.961 L 1062.55 479.84 M 1022.68 504.041 L 789.126 627.587 M 1124.18 372.862 L 1062.55 479.84 M 790.198 496.821 L 789.126 627.587 M 1124.18 372.862 L 899.042 314.417 M 790.198 496.821 L 553.604 629.247 M 934.785 188.625 L 899.042 314.417 M 519.588 479.988 L 553.604 629.247 M 934.785 188.625 L 709.233 120.804 M 519.588 479.988 L 282.995 612.414 M 758.262 0 L 709.233 120.804 M 284.066 481.648 L 282.995 612.414 M 2706.92 3083.66 L 2932.21 3141.48 M 2706.92 3083.66 L 2870.89 3248.63 M 959.349 815.682 L 743.455 909.825 M 2616.3 3177.94 L 2870.89 3248.63 M 908.912 695.029 L 743.455 909.825 M 2645.34 3305.45 L 2870.89 3248.63 M 908.912 695.029 L 653.484 785.967 M 2645.34 3305.45 L 2868.19 3372.05 M 809.765 609.759 L 653.484 785.967 M 809.765 609.759 L 564.443 690.734 M 579.296 561.209 L 564.443 690.734 M 579.296 561.209 L 343.819 556.329 M 344.536 425.56 L 343.819 556.329 M 344.536 425.56 L 111.974 429.601 M 142.665 310.02 L 111.974 429.601" />
</svg>
