<?xml version="1.0"?>
<svg width="3453" height="3629" version="1.1" xmlns="http://www.w3.org/2000/svg" >
<defs>
<style type="text/css"><![CDATA[
.m {stroke:rgb(255,0,0);stroke-width:4.536250;}
.v {stroke:rgb(0,0,255);stroke-width:4.536250;}
.b {stroke:rgb(0,0,0);stroke-width:9.072500;fill:white}
.n {stroke:rgb(128,128,128);stroke-width:4.536250}
.t {stroke:rgb(0,128,0);stroke-width:4.536250;}
.c {stroke:rgb(128,128,128);stroke-width:4.536250;stroke-dasharray:34.530000, 34.530000;}
]]></style>
</defs>
<path fill="none" style="stroke:black;stroke-width:9.072500;" d=" M 1757.74 1551.62 L 1833.02 1658.55 M 1721.98 1834.06 L 1645.42 1728.05 M 1645.42 1728.05 L 1414.25 1753.83 M 1414.25 1753.83 L 1460.01 1868.5 M 1738.36 1422.29 L 1526.99 1580.84 M 1526.99 1580.84 L 1757.74 1551.62 M 2027.66 1525.93 L 1970.72 1383.83 M 1565.6 1699.96 L 1518.45 1585.86 M 1518.45 1585.86 L 1420.54 1693.11 M 1970.72 1383.83 L 1937.52 1257.75 M 2090.69 1640.06 L 2027.66 1525.93 M 1542.78 1599.95 L 1738.36 1422.29 M 1615.01 1378.85 L 1542.78 1599.95 M 1421.2 1845.65 L 1297.8 1841.66 M 1297.8 1841.66 L 1352.26 2067.8 M 1352.26 2067.8 L 1478 2103.69 M 1524.2 1284.75 L 1615.01 1378.85 M 1286.83 1841.95 L 1405.08 1877.44 M 1383.74 1733.8 L 1286.83 1841.95 M 1478 2103.69 L 1629.05 2284.41 M 1577.05 2018.31 L 1421.2 1845.65 M 1405.08 1877.44 L 1580.61 2030.05 M 1580.61 2030.05 L 1703.86 1986.35 M 1703.86 1986.35 L 1577.05 2018.31 M 1629.05 2284.41 L 1764.9 2213.83 M 1507.9 1809.11 L 1383.74 1733.8 M 1764.9 2213.83 L 1887.11 2168.44 M 1462.53 1057.44 L 1524.2 1284.75 M 1931.72 2045.93 L 1735.01 1859.34 M 1735.01 1859.34 L 1565.6 1699.96 M 1460.01 1868.5 L 1675.41 1956.26 M 1943.32 1914.56 L 1721.98 1834.06 M 1675.41 1956.26 L 1923.2 2066.32 M 1420.54 1693.11 L 1507.9 1809.11 M 1833.02 1658.55 L 2044.6 1762.01 M 2575.59 3014.47 L 2699.8 3055.37 M 2513.93 3238.74 L 2700.86 3052.01 M 2700.86 3052.01 L 2575.59 3014.47 M 2407.84 3175.6 L 2513.93 3238.74 M 2646.39 2752.74 L 2482.87 2922.25 M 2776.87 2832.81 L 2646.39 2752.74 M 2482.93 3273.59 L 2407.84 3175.6 M 2341.05 3304.54 L 2482.93 3273.59 M 2483.54 2925.71 L 2666.3 2777.15 M 2666.3 2777.15 L 2574.98 2684.1 M 2895.54 2886.78 L 2776.87 2832.81 M 2699.8 3055.37 L 2895.54 2886.78 M 2001.96 3024.81 L 1783.51 2936.75 M 1954.92 3146.83 L 2173.81 3225.51 M 2202 3262.66 L 1989.16 3356.46 M 1976.2 3486.59 L 2220.02 3384.8 M 1989.16 3356.46 L 1741.5 3466.82 M 1697.05 3063.08 L 1954.92 3146.83 M 2220.02 3384.8 L 2341.05 3304.54 M 1742.73 3597.19 L 1976.2 3486.59 M 1782.42 3009.47 L 2014.61 3048.97 M 2138.14 3006.08 L 2229.37 2912.39 M 2229.37 2912.39 L 2129.77 2997.12 M 2173.81 3225.51 L 2284.48 3170.8 M 2129.77 2997.12 L 2001.96 3024.81 M 2014.61 3048.97 L 2138.14 3006.08 M 2063.15 2745.53 L 1933.97 2827.68 M 2284.48 3170.8 L 2202 3262.66 M 1933.97 2827.68 L 1816.18 2883.55 M 2163.7 2662.54 L 2063.15 2745.53 M 2354.88 2949.11 L 2483.54 2925.71 M 2482.87 2922.25 L 2354.88 2949.11 M 2444.94 2693.37 L 2292.06 2685.36 M 2574.98 2684.1 L 2444.94 2693.37 M 3172.48 2875.03 L 3302.81 2885.76 M 2993.61 3231.23 L 3134.41 3007.66 M 3134.41 3007.66 L 3003.93 2998.87 M 2876.15 3193.22 L 2993.61 3231.23 M 3003.93 2998.87 L 2893.05 2929.54 M 3060.77 2807.05 L 3172.48 2875.03 M 3325.71 2651.35 L 3180.13 2604.01 M 3154.26 3116.07 L 3037.27 3076.64 M 3053.78 3220.91 L 3154.26 3116.07 M 3180.13 2604.01 L 3062.06 2548.72 M 3302.81 2885.76 L 3453.72 2676.07 M 3453.72 2676.07 L 3325.71 2651.35 M 2695.81 3309.33 L 2640.27 3190.94 M 2616.3 3177.94 L 2645.34 3305.45 M 2868.19 3372.05 L 2870.89 3248.63 M 2610.76 3431.56 L 2868.19 3372.05 M 2645.34 3305.45 L 2610.76 3431.56 M 2692.42 3440.06 L 2695.81 3309.33 M 2915.01 3263.73 L 2998.11 3355.04 M 2998.11 3355.04 L 3053.78 3220.91 M 2467.68 3567.46 L 2692.42 3440.06 M 2718.87 3086.42 L 2742.31 2957.77 M 2742.31 2957.77 L 2706.92 3083.66 M 2870.89 3248.63 L 2932.21 3141.48 M 2706.92 3083.66 L 2616.3 3177.94 M 2640.27 3190.94 L 2718.87 3086.42 M 2511.27 2912.02 L 2449.9 3052.27 M 2932.21 3141.48 L 2915.01 3263.73 M 2449.9 3052.27 L 2383.31 3164.35 M 2548.41 2787.05 L 2511.27 2912.02 M 2893.05 2929.54 L 2797.98 2714.05 M 2774.22 2984.14 L 2876.15 3193.22 M 3037.27 3076.64 L 2866.96 2918.22 M 2866.96 2918.22 L 2667.67 2734.38 M 2647.9 2744.24 L 2774.22 2984.14 M 2943.44 2602.83 L 3060.77 2807.05 M 2441.95 2459.42 L 2431.02 2730.33 M 2292.06 2685.36 L 2438.33 2730.53 M 2438.33 2730.53 L 2441.95 2459.42 M 2431.02 2730.33 L 2548.41 2787.05 M 2311.47 2450.63 L 2163.7 2662.54 M 2552.83 2528.75 L 2647.9 2744.24 M 2671.65 2474.14 L 2569.73 2265.07 M 2569.73 2265.07 L 2741.95 2421.41 M 2866.11 2380.36 L 2674 2198.96 M 2741.95 2421.41 L 2943.44 2602.83 M 2797.98 2714.05 L 2671.65 2474.14 M 2674 2198.96 L 2551.48 2121 M 3062.06 2548.72 L 2866.11 2380.36 M 2667.67 2734.38 L 2552.83 2528.75 M 2044.6 1762.01 L 2239.04 1950.97 M 2465.53 2003.95 L 2271.73 1824.35 M 2239.04 1950.97 L 2406.51 2112.39 M 2406.51 2112.39 L 2191.11 2024.62 M 1923.2 2066.32 L 2144.55 2146.82 M 2191.11 2024.62 L 1943.32 1914.56 M 2551.48 2121 L 2465.53 2003.95 M 2144.55 2146.82 L 1931.72 2045.93 M 2271.73 1824.35 L 2090.69 1640.06 M 1951.53 2281.79 L 2221.11 2252.84 M 2221.11 2252.84 L 2452.27 2227.05 M 2452.27 2227.05 L 2247.17 2336.76 M 2108.17 2569.55 L 2311.47 2450.63 M 2247.17 2336.76 L 2004.23 2457.15 M 2004.23 2457.15 L 2108.17 2569.55 M 866.096 1275.32 L 934.262 1049.87 M 806.491 1023.95 L 866.096 1275.32 M 1887.11 2168.44 L 1951.53 2281.79 M 908.912 695.029 L 809.765 609.759 M 789.126 627.587 L 897.827 700.287 M 1105.52 595.579 L 1022.68 504.041 M 897.827 700.287 L 959.349 815.682 M 959.349 815.682 L 908.912 695.029 M 653.484 785.967 L 743.455 909.825 M 1062.55 479.84 L 1105.52 595.579 M 743.455 909.825 L 806.491 1023.95 M 564.443 690.734 L 653.484 785.967 M 1089.57 827.628 L 1198.74 899.619 M 1200.65 896.65 L 1089.57 827.628 M 934.262 1049.87 L 1079.4 1098.57 M 1079.4 1098.57 L 1196.94 1154.96 M 1313.65 830.841 L 1200.65 896.65 M 1198.74 899.619 L 1318.86 847.91 M 1343.89 616.664 L 1222.03 636.427 M 1318.86 847.91 L 1449.16 859.009 M 1449.16 859.009 L 1343.89 616.664 M 1444.16 822.633 L 1313.65 830.841 M 1316.06 1101.96 L 1462.53 1057.44 M 1222.03 636.427 L 1327.86 572.863 M 1327.86 572.863 L 1207.27 491.961 M 1590.99 1035.19 L 1444.16 822.633 M 1196.94 1154.96 L 1316.06 1101.96 M 709.233 120.804 L 899.042 314.417 M 1124.18 372.862 L 934.785 188.625 M 899.042 314.417 L 1062.55 479.84 M 1022.68 504.041 L 790.198 496.821 M 553.604 629.247 L 789.126 627.587 M 790.198 496.821 L 519.588 479.988 M 1207.27 491.961 L 1124.18 372.862 M 809.765 609.759 L 579.296 561.209 M 934.785 188.625 L 758.262 0 M 1691.17 1118.63 L 1933.32 996.678 M 2057.45 799.973 L 1824.36 924.38 M 1933.32 996.678 L 2140.63 891.204 M 1986.94 1035.24 L 2067.14 783.486 M 2067.14 783.486 L 1896.13 941.141 M 1819.98 1201.36 L 1986.94 1035.24 M 1896.13 941.141 L 1691.17 1118.63 M 2140.63 891.204 L 2196.18 757.029 M 2196.18 757.029 L 2057.45 799.973 M 1937.52 1257.75 L 1941.23 999.439 M 1941.23 999.439 L 1819.98 1201.36 M 1824.36 924.38 L 1590.99 1035.19 M 579.296 561.209 L 344.536 425.56 M 111.974 429.601 L 343.819 556.329 M 344.536 425.56 L 142.665 310.02 M 284.066 481.648 L 50.5099 605.194 M 50.5099 605.194 L 282.995 612.414 M 519.588 479.988 L 284.066 481.648 M 282.995 612.414 L 553.604 629.247 M 0 337.134 L 111.974 429.601 M 142.665 310.02 L 0 337.134 M 500.212 12.2531 L 709.233 120.804 M 758.262 0 L 500.212 12.2531 M 343.819 556.329 L 564.443 690.734 M 1478.6 2975.03 L 1697.05 3063.08 M 1525.64 2853.01 L 1306.75 2774.33 M 1306.75 2774.33 L 1478.6 2975.03 M 1284.04 3082.72 L 1514.24 3049.41 M 1561.61 2927.52 L 1299.42 2960.23 M 1514.24 3049.41 L 1782.42 3009.47 M 1783.51 2936.75 L 1525.64 2853.01 M 1161.31 3005.1 L 1284.04 3082.72 M 1299.42 2960.23 L 1161.31 3005.1 M 1816.18 2883.55 L 1561.61 2927.52 M 1741.5 3466.82 L 1507.22 3491.01 M 1507.22 3491.01 L 1742.73 3597.19 M 2242.17 3534.3 L 2456.9 3437.54 M 1978.36 3519.46 L 2242.17 3534.3 M 2186.63 3415.9 L 1978.36 3519.46 M 2052.8 3626.53 L 2225.26 3470.45 M 2196.57 3342.87 L 1997.22 3516.29 M 2225.26 3470.45 L 2425.54 3287.7 M 2425.54 3287.7 L 2186.63 3415.9 M 1997.22 3516.29 L 1907.64 3630.58 M 1907.64 3630.58 L 2052.8 3626.53 M 2383.31 3164.35 L 2196.57 3342.87 M 2456.9 3437.54 L 2225.02 3478.82 M 2225.02 3478.82 L 2467.68 3567.46" />
<path fill="none" class="c" d=" M 1833.02 1658.55 L 2027.66 1525.93 M 2027.66 1525.93 L 1757.74 1551.62 M 1833.02 1658.55 L 2090.69 1640.06 M 1970.72 1383.83 L 1757.74 1551.62 M 2044.6 1762.01 L 2090.69 1640.06 M 1738.36 1422.29 L 1757.74 1551.62 M 1970.72 1383.83 L 1738.36 1422.29 M 2044.6 1762.01 L 2271.73 1824.35 M 1937.52 1257.75 L 1738.36 1422.29 M 2239.04 1950.97 L 2271.73 1824.35 M 1937.52 1257.75 L 1819.98 1201.36 M 2239.04 1950.97 L 2465.53 2003.95 M 1819.98 1201.36 L 1738.36 1422.29 M 2406.51 2112.39 L 2465.53 2003.95 M 1615.01 1378.85 L 1738.36 1422.29 M 1819.98 1201.36 L 1615.01 1378.85 M 2406.51 2112.39 L 2551.48 2121 M 1691.17 1118.63 L 1615.01 1378.85 M 1819.98 1201.36 L 1691.17 1118.63 M 2452.27 2227.05 L 2551.48 2121 M 1691.17 1118.63 L 1524.2 1284.75 M 1819.98 1201.36 L 1896.13 941.141 M 2452.27 2227.05 L 2569.73 2265.07 M 2569.73 2265.07 L 2551.48 2121 M 2441.95 2459.42 L 2569.73 2265.07 M 2569.73 2265.07 L 2674 2198.96 M 2441.95 2459.42 L 2552.83 2528.75 M 2552.83 2528.75 L 2569.73 2265.07 M 2741.95 2421.41 L 2674 2198.96 M 2431.02 2730.33 L 2552.83 2528.75 M 2552.83 2528.75 L 2671.65 2474.14 M 2741.95 2421.41 L 2866.11 2380.36 M 2548.41 2787.05 L 2552.83 2528.75 M 2647.9 2744.24 L 2671.65 2474.14 M 2943.44 2602.83 L 2866.11 2380.36 M 2548.41 2787.05 L 2667.67 2734.38 M 2647.9 2744.24 L 2797.98 2714.05 M 2943.44 2602.83 L 3062.06 2548.72 M 2548.41 2787.05 L 2742.31 2957.77 M 2742.31 2957.77 L 2667.67 2734.38 M 2774.22 2984.14 L 2797.98 2714.05 M 1691.17 1118.63 L 1590.99 1035.19 M 1590.99 1035.19 L 1524.2 1284.75 M 1986.94 1035.24 L 1896.13 941.141 M 2452.27 2227.05 L 2441.95 2459.42 M 2742.31 2957.77 L 2866.96 2918.22 M 2774.22 2984.14 L 2893.05 2929.54 M 2406.51 2112.39 L 2452.27 2227.05 M 1590.99 1035.19 L 1462.53 1057.44 M 2452.27 2227.05 L 2311.47 2450.63 M 2406.51 2112.39 L 2221.11 2252.84 M 1444.16 822.633 L 1462.53 1057.44 M 2247.17 2336.76 L 2311.47 2450.63 M 2406.51 2112.39 L 2144.55 2146.82 M 2144.55 2146.82 L 2221.11 2252.84 M 1313.65 830.841 L 1462.53 1057.44 M 2247.17 2336.76 L 2108.17 2569.55 M 2191.11 2024.62 L 2144.55 2146.82 M 2144.55 2146.82 L 1951.53 2281.79 M 1313.65 830.841 L 1316.06 1101.96 M 2144.55 2146.82 L 1887.11 2168.44 M 1200.65 896.65 L 1316.06 1101.96 M 1931.72 2045.93 L 1887.11 2168.44 M 1200.65 896.65 L 1196.94 1154.96 M 1703.86 1986.35 L 1887.11 2168.44 M 1931.72 2045.93 L 1703.86 1986.35 M 1200.65 896.65 L 1079.4 1098.57 M 1703.86 1986.35 L 1764.9 2213.83 M 1735.01 1859.34 L 1703.86 1986.35 M 1089.57 827.628 L 1079.4 1098.57 M 1577.05 2018.31 L 1764.9 2213.83 M 1735.01 1859.34 L 1507.9 1809.11 M 1089.57 827.628 L 934.262 1049.87 M 1577.05 2018.31 L 1629.05 2284.41 M 1565.6 1699.96 L 1507.9 1809.11 M 1089.57 827.628 L 959.349 815.682 M 959.349 815.682 L 934.262 1049.87 M 1577.05 2018.31 L 1478 2103.69 M 1565.6 1699.96 L 1420.54 1693.11 M 1089.57 827.628 L 1105.52 595.579 M 806.491 1023.95 L 934.262 1049.87 M 959.349 815.682 L 806.491 1023.95 M 1421.2 1845.65 L 1478 2103.69 M 1089.57 827.628 L 1222.03 636.427 M 1105.52 595.579 L 959.349 815.682 M 1507.9 1809.11 L 1703.86 1986.35 M 1421.2 1845.65 L 1352.26 2067.8 M 1198.74 899.619 L 1222.03 636.427 M 1507.9 1809.11 L 1580.61 2030.05 M 2191.11 2024.62 L 1923.2 2066.32 M 2742.31 2957.77 L 2932.21 3141.48 M 2932.21 3141.48 L 2866.96 2918.22 M 2876.15 3193.22 L 2893.05 2929.54 M 1318.86 847.91 L 1222.03 636.427 M 1507.9 1809.11 L 1405.08 1877.44 M 1943.32 1914.56 L 1923.2 2066.32 M 2311.47 2450.63 L 2441.95 2459.42 M 2932.21 3141.48 L 3037.27 3076.64 M 2876.15 3193.22 L 3003.93 2998.87 M 1383.74 1733.8 L 1405.08 1877.44 M 1943.32 1914.56 L 1675.41 1956.26 M 3060.77 2807.05 L 3062.06 2548.72 M 2511.27 2912.02 L 2742.31 2957.77 M 2311.47 2450.63 L 2292.06 2685.36 M 3053.78 3220.91 L 3037.27 3076.64 M 2993.61 3231.23 L 3003.93 2998.87 M 2932.21 3141.48 L 3053.78 3220.91 M 1721.98 1834.06 L 1675.41 1956.26 M 3060.77 2807.05 L 3180.13 2604.01 M 2511.27 2912.02 L 2718.87 3086.42 M 2915.01 3263.73 L 3053.78 3220.91 M 1721.98 1834.06 L 1460.01 1868.5 M 3172.48 2875.03 L 3180.13 2604.01 M 2449.9 3052.27 L 2718.87 3086.42 M 2163.7 2662.54 L 2292.06 2685.36 M 1645.42 1728.05 L 1460.01 1868.5 M 3172.48 2875.03 L 3325.71 2651.35 M 2449.9 3052.27 L 2640.27 3190.94 M 2163.7 2662.54 L 2229.37 2912.39 M 2229.37 2912.39 L 2292.06 2685.36 M 3302.81 2885.76 L 3325.71 2651.35 M 2383.31 3164.35 L 2640.27 3190.94 M 2063.15 2745.53 L 2229.37 2912.39 M 2354.88 2949.11 L 2292.06 2685.36 M 2229.37 2912.39 L 2354.88 2949.11 M 2425.54 3287.7 L 2640.27 3190.94 M 2383.31 3164.35 L 2425.54 3287.7 M 2229.37 2912.39 L 2284.48 3170.8 M 2284.48 3170.8 L 2354.88 2949.11 M 2425.54 3287.7 L 2695.81 3309.33 M 2196.57 3342.87 L 2425.54 3287.7 M 2129.77 2997.12 L 2284.48 3170.8 M 2407.84 3175.6 L 2354.88 2949.11 M 2284.48 3170.8 L 2407.84 3175.6 M 2456.9 3437.54 L 2695.81 3309.33 M 2425.54 3287.7 L 2456.9 3437.54 M 2407.84 3175.6 L 2482.87 2922.25 M 2341.05 3304.54 L 2407.84 3175.6 M 2284.48 3170.8 L 2341.05 3304.54 M 2456.9 3437.54 L 2692.42 3440.06 M 2186.63 3415.9 L 2456.9 3437.54 M 2407.84 3175.6 L 2575.59 3014.47 M 2575.59 3014.47 L 2482.87 2922.25 M 2202 3262.66 L 2341.05 3304.54 M 2456.9 3437.54 L 2467.68 3567.46 M 2186.63 3415.9 L 2242.17 3534.3 M 2513.93 3238.74 L 2575.59 3014.47 M 2575.59 3014.47 L 2646.39 2752.74 M 2202 3262.66 L 2220.02 3384.8 M 2196.57 3342.87 L 2225.26 3470.45 M 2129.77 2997.12 L 2173.81 3225.51 M 1997.22 3516.29 L 2225.26 3470.45 M 2001.96 3024.81 L 2173.81 3225.51 M 1997.22 3516.29 L 2052.8 3626.53 M 2001.96 3024.81 L 1954.92 3146.83 M 2575.59 3014.47 L 2776.87 2832.81 M 1783.51 2936.75 L 1954.92 3146.83 M 2699.8 3055.37 L 2776.87 2832.81 M 1783.51 2936.75 L 1697.05 3063.08 M 1989.16 3356.46 L 2220.02 3384.8 M 1525.64 2853.01 L 1697.05 3063.08 M 1989.16 3356.46 L 1976.2 3486.59 M 1525.64 2853.01 L 1478.6 2975.03 M 1741.5 3466.82 L 1976.2 3486.59 M 2063.15 2745.53 L 2138.14 3006.08 M 1741.5 3466.82 L 1742.73 3597.19 M 1933.97 2827.68 L 2138.14 3006.08 M 2354.88 2949.11 L 2444.94 2693.37 M 1933.97 2827.68 L 2014.61 3048.97 M 2483.54 2925.71 L 2444.94 2693.37 M 1816.18 2883.55 L 2014.61 3048.97 M 2483.54 2925.71 L 2574.98 2684.1 M 1816.18 2883.55 L 1782.42 3009.47 M 1691.17 1118.63 L 1824.36 924.38 M 1561.61 2927.52 L 1782.42 3009.47 M 1933.32 996.678 L 1824.36 924.38 M 1561.61 2927.52 L 1514.24 3049.41 M 1933.32 996.678 L 2057.45 799.973 M 1299.42 2960.23 L 1514.24 3049.41 M 2140.63 891.204 L 2057.45 799.973 M 1299.42 2960.23 L 1284.04 3082.72 M 2292.06 2685.36 L 2441.95 2459.42 M 1318.86 847.91 L 1343.89 616.664 M 1222.03 636.427 L 1105.52 595.579 M 1105.52 595.579 L 897.827 700.287 M 1207.27 491.961 L 1105.52 595.579 M 1222.03 636.427 L 1207.27 491.961 M 1022.68 504.041 L 897.827 700.287 M 1207.27 491.961 L 1062.55 479.84 M 1022.68 504.041 L 789.126 627.587 M 1124.18 372.862 L 1062.55 479.84 M 790.198 496.821 L 789.126 627.587 M 1124.18 372.862 L 899.042 314.417 M 790.198 496.821 L 553.604 629.247 M 934.785 188.625 L 899.042 314.417 M 519.588 479.988 L 553.604 629.247 M 934.785 188.625 L 709.233 120.804 M 519.588 479.988 L 282.995 612.414 M 758.262 0 L 709.233 120.804 M 284.066 481.648 L 282.995 612.414 M 2706.92 3083.66 L 2932.21 3141.48 M 2706.92 3083.66 L 2870.89 3248.63 M 959.349 815.682 L 743.455 909.825 M 2616.3 3177.94 L 2870.89 3248.63 M 908.912 695.029 L 743.455 909.825 M 2645.34 3305.45 L 2870.89 3248.63 M 908.912 695.029 L 653.484 785.967 M 2645.34 3305.45 L 2868.19 3372.05 M 809.765 609.759 L 653.484 785.967 M 809.765 609.759 L 564.443 690.734 M 579.296 561.209 L 564.443 690.734 M 579.296 561.209 L 343.819 556.329 M 344.536 425.56 L 343.819 556.329 M 344.536 425.56 L 111.974 429.601 M 142.665 310.02 L 111.974 429.601" />
<line x1="1983.789348" y1="1608.181513" x2="1872.806105" y2="1578.702194" class="t" />
<line x1="1918.708154" y1="1487.127351" x2="1872.806105" y2="1578.702194" class="t" />
<line x1="1989.438267" y1="1686.874218" x2="1983.789348" y2="1608.181513" class="t" />
<line x1="1822.274534" y1="1452.580180" x2="1918.708154" y2="1487.127351" class="t" />
<line x1="2135.676815" y1="1742.140521" x2="1989.438267" y2="1686.874218" class="t" />
<line x1="1674.363615" y1="1518.249234" x2="1822.274534" y2="1452.580180" class="t" />
<line x1="1882.200379" y1="1354.625069" x2="1822.274534" y2="1452.580180" class="t" />
<line x1="2185.127133" y1="1845.779204" x2="2135.676815" y2="1742.140521" class="t" />
<line x1="1831.951311" y1="1293.801692" x2="1882.200379" y2="1354.625069" class="t" />
<line x1="2325.435008" y1="1926.425127" x2="2185.127133" y2="1845.779204" class="t" />
<line x1="1899.574102" y1="1152.850512" x2="1831.951311" y2="1293.801692" class="t" />
<line x1="2370.362493" y1="2022.437190" x2="2325.435008" y2="1926.425127" class="t" />
<line x1="1724.448241" y1="1334.167526" x2="1831.951311" y2="1293.801692" class="t" />
<line x1="2474.506616" y1="2079.113667" x2="2370.362493" y2="2022.437190" class="t" />
<line x1="1632.049020" y1="1467.030044" x2="1724.448241" y2="1334.167526" class="t" />
<line x1="1708.718084" y1="1232.947408" x2="1724.448241" y2="1334.167526" class="t" />
<line x1="2470.087989" y1="2153.481218" x2="2474.506616" y2="2079.113667" class="t" />
<line x1="1610.126867" y1="1260.745285" x2="1708.718084" y2="1232.947408" class="t" />
<line x1="1802.423652" y1="1087.044079" x2="1708.718084" y2="1232.947408" class="t" />
<line x1="2524.493235" y1="2204.374501" x2="2470.087989" y2="2153.481218" class="t" />
<line x1="1602.118943" y1="1146.193185" x2="1610.126867" y2="1260.745285" class="t" />
<line x1="1901.014870" y1="1059.246202" x2="1802.423652" y2="1087.044079" class="t" />
<line x1="2487.982867" y1="2317.180593" x2="2524.493235" y2="2204.374501" class="t" />
<line x1="2598.401103" y1="2195.010527" x2="2524.493235" y2="2204.374501" class="t" />
<line x1="2521.501436" y1="2417.745501" x2="2487.982867" y2="2317.180593" class="t" />
<line x1="2661.890830" y1="2295.146814" x2="2598.401103" y2="2195.010527" class="t" />
<line x1="2475.265633" y1="2572.833590" x2="2521.501436" y2="2417.745501" class="t" />
<line x1="2598.070688" y1="2422.653714" x2="2521.501436" y2="2417.745501" class="t" />
<line x1="2760.683079" y1="2333.577099" x2="2661.890830" y2="2295.146814" class="t" />
<line x1="2510.754775" y1="2682.043623" x2="2475.265633" y2="2572.833590" class="t" />
<line x1="2624.126652" y1="2582.375820" x2="2598.070688" y2="2422.653714" class="t" />
<line x1="2850.498603" y1="2468.199669" x2="2760.683079" y2="2333.577099" class="t" />
<line x1="2589.638453" y1="2683.391747" x2="2510.754775" y2="2682.043623" class="t" />
<line x1="2705.843760" y1="2644.143647" x2="2624.126652" y2="2582.375820" class="t" />
<line x1="2957.201883" y1="2510.634569" x2="2850.498603" y2="2468.199669" class="t" />
<line x1="2652.799230" y1="2826.398018" x2="2589.638453" y2="2683.391747" class="t" />
<line x1="2740.033624" y1="2814.142377" x2="2705.843760" y2="2644.143647" class="t" />
<line x1="3022.089354" y1="2652.865695" x2="2957.201883" y2="2510.634569" class="t" />
<line x1="2600.663925" y1="2885.612560" x2="2652.799230" y2="2826.398018" class="t" />
<line x1="2758.980946" y1="2870.121624" x2="2652.799230" y2="2826.398018" class="t" />
<line x1="2821.750732" y1="2875.910204" x2="2740.033624" y2="2814.142377" class="t" />
<line x1="1702.170267" y1="1026.069042" x2="1602.118943" y2="1146.193185" class="t" />
<line x1="1525.905789" y1="1125.796932" x2="1602.118943" y2="1146.193185" class="t" />
<line x1="1983.404674" y1="919.955194" x2="1901.014870" y2="1059.246202" class="t" />
<line x1="2401.896434" y1="2379.034625" x2="2487.982867" y2="2317.180593" class="t" />
<line x1="2847.160063" y1="3005.821690" x2="2758.980946" y2="2870.121624" class="t" />
<line x1="2847.806696" y1="3035.632311" x2="2821.750732" y2="2875.910204" class="t" />
<line x1="2359.965300" y1="2197.426806" x2="2470.087989" y2="2153.481218" class="t" />
<line x1="1499.226569" y1="971.757014" x2="1525.905789" y2="1125.796932" class="t" />
<line x1="2336.971958" y1="2338.147544" x2="2401.896434" y2="2379.034625" class="t" />
<line x1="2257.390509" y1="2170.683441" x2="2359.965300" y2="2197.426806" class="t" />
<line x1="1406.780610" y1="903.639063" x2="1499.226569" y2="971.757014" class="t" />
<line x1="2222.270727" y1="2452.312741" x2="2336.971958" y2="2338.147544" class="t" />
<line x1="2247.391336" y1="2094.611387" x2="2257.390509" y2="2170.683441" class="t" />
<line x1="2105.727799" y1="2227.150133" x2="2257.390509" y2="2170.683441" class="t" />
<line x1="1364.078230" y1="996.748981" x2="1406.780610" y2="903.639063" class="t" />
<line x1="2119.858682" y1="2454.486063" x2="2222.270727" y2="2452.312741" class="t" />
<line x1="2086.288051" y1="2079.255733" x2="2247.391336" y2="2094.611387" class="t" />
<line x1="1994.395795" y1="2199.016606" x2="2105.727799" y2="2227.150133" class="t" />
<line x1="1276.784426" y1="943.151014" x2="1364.078230" y2="996.748981" class="t" />
<line x1="1987.794587" y1="2120.398058" x2="1994.395795" y2="2199.016606" class="t" />
<line x1="1237.881472" y1="1051.192075" x2="1276.784426" y2="943.151014" class="t" />
<line x1="1840.897668" y1="2066.906260" x2="1987.794587" y2="2120.398058" class="t" />
<line x1="1158.994383" y1="1050.061041" x2="1237.881472" y2="1051.192075" class="t" />
<line x1="1785.288533" y1="2122.871215" x2="1840.897668" y2="2066.906260" class="t" />
<line x1="1790.196260" y1="1963.873849" x2="1840.897668" y2="2066.906260" class="t" />
<line x1="1123.204833" y1="940.949086" x2="1158.994383" y2="1050.061041" class="t" />
<line x1="1681.934839" y1="2072.827989" x2="1785.288533" y2="2122.871215" class="t" />
<line x1="1648.922318" y1="1884.932491" x2="1790.196260" y2="1963.873849" class="t" />
<line x1="1034.410318" y1="992.022408" x2="1123.204833" y2="940.949086" class="t" />
<line x1="1656.999230" y1="2172.181728" x2="1681.934839" y2="2072.827989" class="t" />
<line x1="1602.835744" y1="1789.471384" x2="1648.922318" y2="1884.932491" class="t" />
<line x1="994.394845" y1="897.726533" x2="1034.410318" y2="992.022408" class="t" />
<line x1="1561.368720" y1="2135.469934" x2="1656.999230" y2="2172.181728" class="t" />
<line x1="1498.013093" y1="1734.059894" x2="1602.835744" y2="1789.471384" class="t" />
<line x1="1051.481645" y1="746.296147" x2="994.394845" y2="897.726533" class="t" />
<line x1="900.034020" y1="963.166165" x2="994.394845" y2="897.726533" class="t" />
<line x1="1492.084085" y1="1989.217741" x2="1561.368720" y2="2135.469934" class="t" />
<line x1="1501.531056" y1="1659.644298" x2="1498.013093" y2="1734.059894" class="t" />
<line x1="1139.040420" y1="686.544526" x2="1051.481645" y2="746.296147" class="t" />
<line x1="868.949619" y1="1116.377905" x2="900.034020" y2="963.166165" class="t" />
<line x1="836.431593" y1="916.484442" x2="900.034020" y2="963.166165" class="t" />
<line x1="1417.152008" y1="2005.713945" x2="1492.084085" y2="1989.217741" class="t" />
<line x1="1170.114340" y1="787.891488" x2="1139.040420" y2="686.544526" class="t" />
<line x1="987.566138" y1="703.849135" x2="1051.481645" y2="746.296147" class="t" />
<line x1="1597.454448" y1="1941.835911" x2="1648.922318" y2="1884.932491" class="t" />
<line x1="1357.085426" y1="1918.370938" x2="1417.152008" y2="2005.713945" class="t" />
<line x1="1246.542311" y1="794.652116" x2="1170.114340" y2="787.891488" class="t" />
<line x1="1497.860935" y1="1905.532640" x2="1597.454448" y2="1941.835911" class="t" />
<line x1="2019.212618" y1="2001.835863" x2="2086.288051" y2="2079.255733" class="t" />
<line x1="2793.812443" y1="3060.966702" x2="2847.160063" y2="3005.821690" class="t" />
<line x1="2945.479811" y1="3045.445199" x2="2847.160063" y2="3005.821690" class="t" />
<line x1="2924.375948" y1="3040.540523" x2="2847.806696" y2="3035.632311" class="t" />
<line x1="1294.924308" y1="700.333625" x2="1246.542311" y2="794.652116" class="t" />
<line x1="1432.238806" y1="1806.780639" x2="1497.860935" y2="1905.532640" class="t" />
<line x1="1847.313579" y1="1979.049124" x2="2019.212618" y2="2001.835863" class="t" />
<line x1="2348.492719" y1="2531.802776" x2="2401.896434" y2="2379.034625" class="t" />
<line x1="3007.752573" y1="3146.342793" x2="2945.479811" y2="3045.445199" class="t" />
<line x1="2957.894518" y1="3141.105431" x2="2924.375948" y2="3040.540523" class="t" />
<line x1="1358.548698" y1="1817.727101" x2="1432.238806" y2="1806.780639" class="t" />
<line x1="1780.238145" y1="1901.629253" x2="1847.313579" y2="1979.049124" class="t" />
<line x1="3100.983571" y1="2653.258705" x2="3022.089354" y2="2652.865695" class="t" />
<line x1="2657.482476" y1="2985.402154" x2="2600.663925" y2="2885.612560" class="t" />
<line x1="2255.743946" y1="2599.507839" x2="2348.492719" y2="2531.802776" class="t" />
<line x1="3081.768391" y1="3137.874280" x2="3007.752573" y2="3146.342793" class="t" />
<line x1="3043.980951" y1="3079.251399" x2="2957.894518" y2="3141.105431" class="t" />
<line x1="2967.000791" y1="3208.707440" x2="3007.752573" y2="3146.342793" class="t" />
<line x1="1619.134860" y1="1886.273600" x2="1780.238145" y2="1901.629253" class="t" />
<line x1="3137.792277" y1="2762.031081" x2="3100.983571" y2="2653.258705" class="t" />
<line x1="2560.011009" y1="3016.902364" x2="2657.482476" y2="2985.402154" class="t" />
<line x1="2988.966288" y1="3279.894334" x2="2967.000791" y2="3208.707440" class="t" />
<line x1="1609.135688" y1="1810.201545" x2="1619.134860" y2="1886.273600" class="t" />
<line x1="3226.105125" y1="2710.129338" x2="3137.792277" y2="2762.031081" class="t" />
<line x1="2603.013152" y1="3109.874219" x2="2560.011009" y2="3016.902364" class="t" />
<line x1="2228.378138" y1="2753.427265" x2="2255.743946" y2="2599.507839" class="t" />
<line x1="1506.560897" y1="1783.458181" x2="1609.135688" y2="1810.201545" class="t" />
<line x1="3267.000968" y1="2804.046750" x2="3226.105125" y2="2710.129338" class="t" />
<line x1="2491.158475" y1="3135.851936" x2="2603.013152" y2="3109.874219" class="t" />
<line x1="2152.074795" y1="2773.483486" x2="2228.378138" y2="2753.427265" class="t" />
<line x1="2292.105654" y1="2848.952729" x2="2228.378138" y2="2753.427265" class="t" />
<line x1="3360.745488" y1="2737.727253" x2="3267.000968" y2="2804.046750" class="t" />
<line x1="2483.039853" y1="3214.328302" x2="2491.158475" y2="3135.851936" class="t" />
<line x1="2143.556171" y1="2887.998741" x2="2152.074795" y2="2773.483486" class="t" />
<line x1="2363.960358" y1="2775.946896" x2="2292.105654" y2="2848.952729" class="t" />
<line x1="2289.578890" y1="3010.766450" x2="2292.105654" y2="2848.952729" class="t" />
<line x1="2587.207591" y1="3262.654205" x2="2483.039853" y2="3214.328302" class="t" />
<line x1="2335.137061" y1="3264.972565" x2="2483.039853" y2="3214.328302" class="t" />
<line x1="2214.539834" y1="3026.768984" x2="2289.578890" y2="3010.766450" class="t" />
<line x1="2349.069151" y1="3098.503010" x2="2289.578890" y2="3010.766450" class="t" />
<line x1="2526.083414" y1="3344.853871" x2="2587.207591" y2="3262.654205" class="t" />
<line x1="2282.454873" y1="3367.006371" x2="2335.137061" y2="3264.972565" class="t" />
<line x1="2196.018122" y1="3131.142072" x2="2214.539834" y2="3026.768984" class="t" />
<line x1="2415.197338" y1="3015.654605" x2="2349.069151" y2="3098.503010" class="t" />
<line x1="2344.458861" y1="3216.980715" x2="2349.069151" y2="3098.503010" class="t" />
<line x1="2615.042017" y1="3395.640847" x2="2526.083414" y2="3344.853871" class="t" />
<line x1="2356.358427" y1="3380.377721" x2="2526.083414" y2="3344.853871" class="t" />
<line x1="2488.765967" y1="3037.439869" x2="2415.197338" y2="3015.654605" class="t" />
<line x1="2410.609720" y1="3251.246161" x2="2344.458861" y2="3216.980715" class="t" />
<line x1="2275.845339" y1="3246.002113" x2="2344.458861" y2="3216.980715" class="t" />
<line x1="2538.998348" y1="3481.685434" x2="2615.042017" y2="3395.640847" class="t" />
<line x1="2295.234249" y1="3462.577387" x2="2356.358427" y2="3380.377721" class="t" />
<line x1="2499.121072" y1="3142.936632" x2="2488.765967" y2="3037.439869" class="t" />
<line x1="2568.279799" y1="2896.487341" x2="2488.765967" y2="3037.439869" class="t" />
<line x1="2254.359399" y1="3317.335214" x2="2275.845339" y2="3246.002113" class="t" />
<line x1="2383.200011" y1="3494.606553" x2="2538.998348" y2="3481.685434" class="t" />
<line x1="2135.721691" y1="3489.886883" x2="2295.234249" y2="3462.577387" class="t" />
<line x1="2596.791603" y1="3101.738784" x2="2499.121072" y2="3142.936632" class="t" />
<line x1="2666.279766" y1="2866.671966" x2="2568.279799" y2="2896.487341" class="t" />
<line x1="2137.061763" y1="3334.640879" x2="2254.359399" y2="3317.335214" class="t" />
<line x1="2139.682409" y1="3443.204063" x2="2282.454873" y2="3367.006371" class="t" />
<line x1="2101.844323" y1="3082.479039" x2="2196.018122" y2="3131.142072" class="t" />
<line x1="2091.760447" y1="3537.757121" x2="2139.682409" y2="3443.204063" class="t" />
<line x1="2043.563637" y1="3132.381971" x2="2101.844323" y2="3082.479039" class="t" />
<line x1="1985.886990" y1="3591.133451" x2="2091.760447" y2="3537.757121" class="t" />
<line x1="1913.464643" y1="3036.130651" x2="2043.563637" y2="3132.381971" class="t" />
<line x1="2684.083915" y1="2967.547941" x2="2666.279766" y2="2866.671966" class="t" />
<line x1="1811.827197" y1="3048.889167" x2="1913.464643" y2="3036.130651" class="t" />
<line x1="2790.735929" y1="2924.984361" x2="2684.083915" y2="2967.547941" class="t" />
<line x1="1668.731252" y1="2950.950077" x2="1811.827197" y2="3048.889167" class="t" />
<line x1="2061.793162" y1="3409.282911" x2="2137.061763" y2="3334.640879" class="t" />
<line x1="1567.093806" y1="2963.708593" x2="1668.731252" y2="2950.950077" class="t" />
<line x1="1902.285981" y1="3436.623793" x2="2061.793162" y2="3409.282911" class="t" />
<line x1="1436.994812" y1="2867.457273" x2="1567.093806" y2="2963.708593" class="t" />
<line x1="1820.142899" y1="3516.866080" x2="1902.285981" y2="3436.623793" class="t" />
<line x1="2045.089882" y1="2859.761528" x2="2143.556171" y2="2887.998741" class="t" />
<line x1="1663.816608" y1="3518.338450" x2="1820.142899" y2="3516.866080" class="t" />
<line x1="2028.908547" y1="2960.910500" x2="2045.089882" y2="2859.761528" class="t" />
<line x1="2427.787663" y1="2856.065715" x2="2363.960358" y2="2775.946896" class="t" />
<line x1="1921.586535" y1="2920.065718" x2="2028.908547" y2="2960.910500" class="t" />
<line x1="2501.154051" y1="2767.727255" x2="2427.787663" y2="2856.065715" class="t" />
<line x1="1871.066759" y1="2980.664433" x2="1921.586535" y2="2920.065718" class="t" />
<line x1="2574.942050" y1="2795.651855" x2="2501.154051" y2="2767.727255" class="t" />
<line x1="1720.066655" y1="2940.179303" x2="1871.066759" y2="2980.664433" class="t" />
<line x1="1816.281953" y1="1013.230288" x2="1702.170267" y2="1026.069042" class="t" />
<line x1="1619.420524" y1="2995.466433" x2="1720.066655" y2="2940.179303" class="t" />
<line x1="1938.377921" y1="907.010519" x2="1816.281953" y2="1013.230288" class="t" />
<line x1="1458.421823" y1="2979.050496" x2="1619.420524" y2="2995.466433" class="t" />
<line x1="2043.803251" y1="895.951809" x2="1938.377921" y2="907.010519" class="t" />
<line x1="1365.899757" y1="3030.785036" x2="1458.421823" y2="2979.050496" class="t" />
<line x1="2131.421235" y1="816.068705" x2="2043.803251" y2="895.951809" class="t" />
<line x1="1248.255879" y1="3016.015492" x2="1365.899757" y2="3030.785036" class="t" />
<line x1="2390.779504" y1="2625.102176" x2="2348.492719" y2="2531.802776" class="t" />
<line x1="1370.634588" y1="774.527619" x2="1294.924308" y2="700.333625" class="t" />
<line x1="1178.271287" y1="574.655472" x2="1139.040420" y2="686.544526" class="t" />
<line x1="1008.677183" y1="599.968824" x2="987.566138" y2="703.849135" class="t" />
<line x1="1125.114191" y1="522.459877" x2="1178.271287" y2="574.655472" class="t" />
<line x1="1252.384205" y1="567.083660" x2="1178.271287" y2="574.655472" class="t" />
<line x1="903.211767" y1="610.638467" x2="1008.677183" y2="599.968824" class="t" />
<line x1="1131.332070" y1="448.221107" x2="1125.114191" y2="522.459877" class="t" />
<line x1="867.335342" y1="542.816472" x2="903.211767" y2="610.638467" class="t" />
<line x1="1028.590696" y1="389.039763" x2="1131.332070" y2="448.221107" class="t" />
<line x1="710.976065" y1="584.551846" x2="867.335342" y2="542.816472" class="t" />
<line x1="986.000975" y1="291.968084" x2="1028.590696" y2="389.039763" class="t" />
<line x1="621.129924" y1="535.352039" x2="710.976065" y2="584.551846" class="t" />
<line x1="847.686786" y1="207.948742" x2="986.000975" y2="291.968084" class="t" />
<line x1="452.062290" y1="573.883201" x2="621.129924" y2="535.352039" class="t" />
<line x1="800.760208" y1="103.143175" x2="847.686786" y2="207.948742" class="t" />
<line x1="362.216148" y1="524.683394" x2="452.062290" y2="573.883201" class="t" />
<line x1="655.902607" y1="44.352422" x2="800.760208" y2="103.143175" class="t" />
<line x1="205.856872" y1="566.418768" x2="362.216148" y2="524.683394" class="t" />
<line x1="2836.671029" y1="3157.919973" x2="2793.812443" y2="3060.966702" class="t" />
<line x1="2731.366337" y1="3170.073862" x2="2836.671029" y2="3157.919973" class="t" />
<line x1="870.571858" y1="806.845248" x2="836.431593" y2="916.484442" class="t" />
<line x1="2710.839687" y1="3244.003542" x2="2731.366337" y2="3170.073862" class="t" />
<line x1="768.616768" y1="796.940218" x2="870.571858" y2="806.845248" class="t" />
<line x1="2794.804498" y1="3308.708299" x2="2710.839687" y2="3244.003542" class="t" />
<line x1="790.720315" y1="696.918304" x2="768.616768" y2="796.940218" class="t" />
<line x1="2708.095909" y1="3369.687114" x2="2794.804498" y2="3308.708299" class="t" />
<line x1="675.897577" y1="695.486662" x2="790.720315" y2="696.918304" class="t" />
<line x1="651.168285" y1="620.567278" x2="675.897577" y2="695.486662" class="t" />
<line x1="495.852844" y1="602.757420" x2="651.168285" y2="620.567278" class="t" />
<line x1="422.550204" y1="514.366054" x2="495.852844" y2="602.757420" class="t" />
<line x1="266.776135" y1="470.496885" x2="422.550204" y2="514.366054" class="t" />
<line x1="199.724727" y1="388.393877" x2="266.776135" y2="470.496885" class="t" />
<line x1="84.879545" y1="358.918370" x2="199.724727" y2="388.393877" class="t" />
</svg>
