<?xml version="1.0"?>
<svg width="3453" height="3629" version="1.1" xmlns="http://www.w3.org/2000/svg" >
<defs>
<style type="text/css"><![CDATA[
.m {stroke:rgb(255,0,0);stroke-width:4.536250;}
.v {stroke:rgb(0,0,255);stroke-width:4.536250;}
.b {stroke:rgb(0,0,0);stroke-width:9.072500;fill:white}
.n {stroke:rgb(128,128,128);stroke-width:4.536250}
.t {stroke:rgb(0,128,0);stroke-width:4.536250;}
.c {stroke:rgb(128,128,128);stroke-width:4.536250;stroke-dasharray:34.530000, 34.530000;}
]]></style>
</defs>
<line x1="1757.744188" y1="1551.618566" x2="1833.016367" y2="1658.553786" class="v" style="stroke-width:1.424030;" />
<line x1="1833.016367" y1="1658.553786" x2="2027.657759" y2="1525.934230" class="m" style="stroke-width:1.123587;" />
<line x1="2027.657759" y1="1525.934230" x2="1757.744188" y2="1551.618566" class="m" style="stroke-width:1.978480;" />
<line x1="1645.417022" y1="1728.046222" x2="1460.011732" y2="1868.496101" class="m" style="stroke-width:1.846350;" />
<line x1="1460.011732" y1="1868.496101" x2="1721.978308" y2="1834.062313" class="m" style="stroke-width:5.162358;" />
<line x1="1721.978308" y1="1834.062313" x2="1645.417022" y2="1728.046222" class="v" style="stroke-width:1.424030;" />
<line x1="1645.417022" y1="1728.046222" x2="1414.253936" y2="1753.832220" class="m" style="stroke-width:1.846350;" />
<line x1="1414.253936" y1="1753.832220" x2="1460.011732" y2="1868.496101" class="m" style="stroke-width:1.427949;" />
<line x1="1757.744188" y1="1551.618566" x2="1738.356898" y2="1422.292717" class="v" style="stroke-width:1.424030;" />
<line x1="1738.356898" y1="1422.292717" x2="1526.989758" y2="1580.836417" class="m" style="stroke-width:5.162358;" />
<line x1="1526.989758" y1="1580.836417" x2="1757.744188" y2="1551.618566" class="m" style="stroke-width:1.846350;" />
<line x1="1970.722515" y1="1383.829255" x2="1738.356898" y2="1422.292717" class="m" style="stroke-width:1.123587;" />
<line x1="1757.744188" y1="1551.618566" x2="1970.722515" y2="1383.829255" class="m" style="stroke-width:1.978480;" />
<line x1="2027.657759" y1="1525.934230" x2="1970.722515" y2="1383.829255" class="v" style="stroke-width:4.437815;" />
<line x1="1420.540980" y1="1693.106483" x2="1565.597411" y2="1699.963959" class="m" style="stroke-width:6.358985;" />
<line x1="1565.597411" y1="1699.963959" x2="1518.454776" y2="1585.862454" class="m" style="stroke-width:1.427949;" />
<line x1="1518.454776" y1="1585.862454" x2="1420.540980" y2="1693.106483" class="m" style="stroke-width:6.358985;" />
<line x1="1970.722515" y1="1383.829255" x2="1937.521725" y2="1257.753235" class="v" style="stroke-width:3.766768;" />
<line x1="1937.521725" y1="1257.753235" x2="1738.356898" y2="1422.292717" class="m" style="stroke-width:4.271196;" />
<line x1="2090.693919" y1="1640.056523" x2="2027.657759" y2="1525.934230" class="v" style="stroke-width:3.766768;" />
<line x1="1833.016367" y1="1658.553786" x2="2090.693919" y2="1640.056523" class="m" style="stroke-width:4.271196;" />
<line x1="1615.012516" y1="1378.850738" x2="1738.356898" y2="1422.292717" class="v" style="stroke-width:1.424030;" />
<line x1="1738.356898" y1="1422.292717" x2="1819.975311" y2="1201.359124" class="m" style="stroke-width:1.123587;" />
<line x1="1819.975311" y1="1201.359124" x2="1615.012516" y2="1378.850738" class="m" style="stroke-width:1.978480;" />
<line x1="1542.777646" y1="1599.946676" x2="1738.356898" y2="1422.292717" class="m" style="stroke-width:5.162358;" />
<line x1="1615.012516" y1="1378.850738" x2="1542.777646" y2="1599.946676" class="m" style="stroke-width:1.846350;" />
<line x1="1421.196399" y1="1845.651919" x2="1297.804032" y2="1841.663775" class="m" style="stroke-width:1.427949;" />
<line x1="1297.804032" y1="1841.663775" x2="1352.255846" y2="2067.797120" class="m" style="stroke-width:1.846350;" />
<line x1="1352.255846" y1="2067.797120" x2="1421.196399" y2="1845.651919" class="m" style="stroke-width:1.846350;" />
<line x1="1352.255846" y1="2067.797120" x2="1478.003779" y2="2103.692797" class="v" style="stroke-width:1.424030;" />
<line x1="1478.003779" y1="2103.692797" x2="1421.196399" y2="1845.651919" class="m" style="stroke-width:5.162358;" />
<line x1="1691.166426" y1="1118.632363" x2="1524.201658" y2="1284.752755" class="m" style="stroke-width:1.123587;" />
<line x1="1524.201658" y1="1284.752755" x2="1615.012516" y2="1378.850738" class="v" style="stroke-width:1.424030;" />
<line x1="1615.012516" y1="1378.850738" x2="1691.166426" y2="1118.632363" class="m" style="stroke-width:1.978480;" />
<line x1="1819.975311" y1="1201.359124" x2="1691.166426" y2="1118.632363" class="v" style="stroke-width:4.437815;" />
<line x1="1286.830565" y1="1841.948625" x2="1405.076595" y2="1877.437466" class="m" style="stroke-width:1.427949;" />
<line x1="1405.076595" y1="1877.437466" x2="1383.738936" y2="1733.795211" class="m" style="stroke-width:6.358985;" />
<line x1="1383.738936" y1="1733.795211" x2="1286.830565" y2="1841.948625" class="m" style="stroke-width:6.358985;" />
<line x1="1691.166426" y1="1118.632363" x2="1590.988745" y2="1035.194436" class="v" style="stroke-width:3.766768;" />
<line x1="1590.988745" y1="1035.194436" x2="1524.201658" y2="1284.752755" class="m" style="stroke-width:4.271196;" />
<line x1="1937.521725" y1="1257.753235" x2="1819.975311" y2="1201.359124" class="v" style="stroke-width:3.766768;" />
<line x1="1577.052077" y1="2018.308508" x2="1478.003779" y2="2103.692797" class="v" style="stroke-width:1.424030;" />
<line x1="1478.003779" y1="2103.692797" x2="1629.050305" y2="2284.408498" class="m" style="stroke-width:1.123587;" />
<line x1="1629.050305" y1="2284.408498" x2="1577.052077" y2="2018.308508" class="m" style="stroke-width:1.978480;" />
<line x1="1577.052077" y1="2018.308508" x2="1421.196399" y2="1845.651919" class="m" style="stroke-width:1.846350;" />
<line x1="1507.900887" y1="1809.109241" x2="1405.076595" y2="1877.437466" class="m" style="stroke-width:1.427949;" />
<line x1="1405.076595" y1="1877.437466" x2="1580.605323" y2="2030.051213" class="m" style="stroke-width:1.846350;" />
<line x1="1580.605323" y1="2030.051213" x2="1507.900887" y2="1809.109241" class="m" style="stroke-width:1.846350;" />
<line x1="1580.605323" y1="2030.051213" x2="1703.857132" y2="1986.347280" class="v" style="stroke-width:1.424030;" />
<line x1="1703.857132" y1="1986.347280" x2="1507.900887" y2="1809.109241" class="m" style="stroke-width:5.162358;" />
<line x1="1764.895307" y1="2213.828179" x2="1703.857132" y2="1986.347280" class="m" style="stroke-width:1.123587;" />
<line x1="1703.857132" y1="1986.347280" x2="1577.052077" y2="2018.308508" class="v" style="stroke-width:1.424030;" />
<line x1="1577.052077" y1="2018.308508" x2="1764.895307" y2="2213.828179" class="m" style="stroke-width:1.978480;" />
<line x1="1629.050305" y1="2284.408498" x2="1764.895307" y2="2213.828179" class="v" style="stroke-width:4.437815;" />
<line x1="1507.900887" y1="1809.109241" x2="1383.738936" y2="1733.795211" class="m" style="stroke-width:6.358985;" />
<line x1="1764.895307" y1="2213.828179" x2="1887.113160" y2="2168.438185" class="v" style="stroke-width:3.766768;" />
<line x1="1887.113160" y1="2168.438185" x2="1703.857132" y2="1986.347280" class="m" style="stroke-width:4.271196;" />
<line x1="1590.988745" y1="1035.194436" x2="1462.526962" y2="1057.443605" class="v" style="stroke-width:3.766768;" />
<line x1="1462.526962" y1="1057.443605" x2="1524.201658" y2="1284.752755" class="m" style="stroke-width:1.123587;" />
<line x1="1735.008935" y1="1859.340952" x2="1703.857132" y2="1986.347280" class="v" style="stroke-width:1.424030;" />
<line x1="1703.857132" y1="1986.347280" x2="1931.722712" y2="2045.933315" class="m" style="stroke-width:1.123587;" />
<line x1="1931.722712" y1="2045.933315" x2="1735.008935" y2="1859.340952" class="m" style="stroke-width:1.978480;" />
<line x1="1735.008935" y1="1859.340952" x2="1507.900887" y2="1809.109241" class="m" style="stroke-width:1.846350;" />
<line x1="1565.597411" y1="1699.963959" x2="1507.900887" y2="1809.109241" class="m" style="stroke-width:1.427949;" />
<line x1="1735.008935" y1="1859.340952" x2="1565.597411" y2="1699.963959" class="m" style="stroke-width:1.846350;" />
<line x1="1460.011732" y1="1868.496101" x2="1675.414540" y2="1956.262385" class="m" style="stroke-width:1.846350;" />
<line x1="1675.414540" y1="1956.262385" x2="1721.978308" y2="1834.062313" class="v" style="stroke-width:1.424030;" />
<line x1="1943.321588" y1="1914.563061" x2="1721.978308" y2="1834.062313" class="m" style="stroke-width:1.123587;" />
<line x1="1675.414540" y1="1956.262385" x2="1943.321588" y2="1914.563061" class="m" style="stroke-width:1.978480;" />
<line x1="1675.414540" y1="1956.262385" x2="1923.204608" y2="2066.321926" class="m" style="stroke-width:1.978480;" />
<line x1="1923.204608" y1="2066.321926" x2="1943.321588" y2="1914.563061" class="v" style="stroke-width:4.437815;" />
<line x1="1420.540980" y1="1693.106483" x2="1507.900887" y2="1809.109241" class="m" style="stroke-width:6.358985;" />
<line x1="1833.016367" y1="1658.553786" x2="2044.604516" y2="1762.012344" class="m" style="stroke-width:1.123587;" />
<line x1="2044.604516" y1="1762.012344" x2="2090.693919" y2="1640.056523" class="v" style="stroke-width:3.766768;" />
<line x1="1887.113160" y1="2168.438185" x2="1931.722712" y2="2045.933315" class="v" style="stroke-width:3.766768;" />
<line x1="2575.588255" y1="3014.467652" x2="2699.798203" y2="3055.369130" class="v" style="stroke-width:1.424030;" />
<line x1="2699.798203" y1="3055.369130" x2="2776.865286" y2="2832.807042" class="m" style="stroke-width:1.123587;" />
<line x1="2776.865286" y1="2832.807042" x2="2575.588255" y2="3014.467652" class="m" style="stroke-width:1.978480;" />
<line x1="2575.588255" y1="3014.467652" x2="2513.930700" y2="3238.743456" class="m" style="stroke-width:1.846350;" />
<line x1="2513.930700" y1="3238.743456" x2="2700.855854" y2="3052.005244" class="m" style="stroke-width:5.162358;" />
<line x1="2700.855854" y1="3052.005244" x2="2575.588255" y2="3014.467652" class="v" style="stroke-width:1.424030;" />
<line x1="2407.844262" y1="3175.598788" x2="2513.930700" y2="3238.743456" class="m" style="stroke-width:1.427949;" />
<line x1="2575.588255" y1="3014.467652" x2="2407.844262" y2="3175.598788" class="m" style="stroke-width:1.846350;" />
<line x1="2575.588255" y1="3014.467652" x2="2482.865384" y2="2922.253166" class="v" style="stroke-width:1.424030;" />
<line x1="2482.865384" y1="2922.253166" x2="2407.844262" y2="3175.598788" class="m" style="stroke-width:5.162358;" />
<line x1="2646.385757" y1="2752.741203" x2="2482.865384" y2="2922.253166" class="m" style="stroke-width:1.123587;" />
<line x1="2575.588255" y1="3014.467652" x2="2646.385757" y2="2752.741203" class="m" style="stroke-width:1.978480;" />
<line x1="2776.865286" y1="2832.807042" x2="2646.385757" y2="2752.741203" class="v" style="stroke-width:4.437815;" />
<line x1="2482.933402" y1="3273.594719" x2="2407.844262" y2="3175.598788" class="m" style="stroke-width:1.427949;" />
<line x1="2407.844262" y1="3175.598788" x2="2341.051498" y2="3304.544978" class="m" style="stroke-width:6.358985;" />
<line x1="2341.051498" y1="3304.544978" x2="2482.933402" y2="3273.594719" class="m" style="stroke-width:6.358985;" />
<line x1="2483.543034" y1="2925.713678" x2="2666.301584" y2="2777.145409" class="m" style="stroke-width:1.123587;" />
<line x1="2666.301584" y1="2777.145409" x2="2574.981532" y2="2684.096479" class="v" style="stroke-width:3.766768;" />
<line x1="2574.981532" y1="2684.096479" x2="2483.543034" y2="2925.713678" class="m" style="stroke-width:4.271196;" />
<line x1="2895.544299" y1="2886.776913" x2="2776.865286" y2="2832.807042" class="v" style="stroke-width:3.766768;" />
<line x1="2699.798203" y1="3055.369130" x2="2895.544299" y2="2886.776913" class="m" style="stroke-width:4.271196;" />
<line x1="1954.923143" y1="3146.828258" x2="2001.959426" y2="3024.809284" class="v" style="stroke-width:1.424030;" />
<line x1="2001.959426" y1="3024.809284" x2="1783.511360" y2="2936.754411" class="m" style="stroke-width:1.123587;" />
<line x1="1783.511360" y1="2936.754411" x2="1954.923143" y2="3146.828258" class="m" style="stroke-width:1.978480;" />
<line x1="1954.923143" y1="3146.828258" x2="2173.808341" y2="3225.508370" class="m" style="stroke-width:1.846350;" />
<line x1="2173.808341" y1="3225.508370" x2="2001.959426" y2="3024.809284" class="m" style="stroke-width:5.162358;" />
<line x1="1989.158590" y1="3356.461974" x2="2220.023004" y2="3384.797684" class="m" style="stroke-width:1.846350;" />
<line x1="2220.023004" y1="3384.797684" x2="2202.003695" y2="3262.662980" class="m" style="stroke-width:1.427949;" />
<line x1="2202.003695" y1="3262.662980" x2="1989.158590" y2="3356.461974" class="m" style="stroke-width:1.846350;" />
<line x1="1976.197891" y1="3486.589075" x2="2220.023004" y2="3384.797684" class="m" style="stroke-width:5.162358;" />
<line x1="1989.158590" y1="3356.461974" x2="1976.197891" y2="3486.589075" class="v" style="stroke-width:1.424030;" />
<line x1="1741.501460" y1="3466.820330" x2="1976.197891" y2="3486.589075" class="m" style="stroke-width:1.123587;" />
<line x1="1989.158590" y1="3356.461974" x2="1741.501460" y2="3466.820330" class="m" style="stroke-width:1.978480;" />
<line x1="1783.511360" y1="2936.754411" x2="1697.047089" y2="3063.084833" class="v" style="stroke-width:4.437815;" />
<line x1="1697.047089" y1="3063.084833" x2="1954.923143" y2="3146.828258" class="m" style="stroke-width:1.978480;" />
<line x1="2341.051498" y1="3304.544978" x2="2202.003695" y2="3262.662980" class="m" style="stroke-width:6.358985;" />
<line x1="2220.023004" y1="3384.797684" x2="2341.051498" y2="3304.544978" class="m" style="stroke-width:6.358985;" />
<line x1="1741.501460" y1="3466.820330" x2="1742.729345" y2="3597.188837" class="v" style="stroke-width:3.766768;" />
<line x1="1742.729345" y1="3597.188837" x2="1976.197891" y2="3486.589075" class="m" style="stroke-width:4.271196;" />
<line x1="1816.177908" y1="2883.546887" x2="1782.415283" y2="3009.473614" class="v" style="stroke-width:3.766768;" />
<line x1="1782.415283" y1="3009.473614" x2="2014.607085" y2="3048.972797" class="m" style="stroke-width:1.123587;" />
<line x1="2014.607085" y1="3048.972797" x2="1816.177908" y2="2883.546887" class="m" style="stroke-width:4.271196;" />
<line x1="2138.143945" y1="3006.081234" x2="2229.373477" y2="2912.389107" class="v" style="stroke-width:1.424030;" />
<line x1="2229.373477" y1="2912.389107" x2="2063.151090" y2="2745.525881" class="m" style="stroke-width:1.123587;" />
<line x1="2063.151090" y1="2745.525881" x2="2138.143945" y2="3006.081234" class="m" style="stroke-width:1.978480;" />
<line x1="2129.765201" y1="2997.119465" x2="2284.480825" y2="3170.798381" class="m" style="stroke-width:1.846350;" />
<line x1="2284.480825" y1="3170.798381" x2="2229.373477" y2="2912.389107" class="m" style="stroke-width:5.162358;" />
<line x1="2229.373477" y1="2912.389107" x2="2129.765201" y2="2997.119465" class="v" style="stroke-width:1.424030;" />
<line x1="2129.765201" y1="2997.119465" x2="2173.808341" y2="3225.508370" class="m" style="stroke-width:1.846350;" />
<line x1="2173.808341" y1="3225.508370" x2="2284.480825" y2="3170.798381" class="m" style="stroke-width:1.427949;" />
<line x1="2129.765201" y1="2997.119465" x2="2001.959426" y2="3024.809284" class="v" style="stroke-width:1.424030;" />
<line x1="1933.974612" y1="2827.677469" x2="2014.607085" y2="3048.972797" class="m" style="stroke-width:1.123587;" />
<line x1="2014.607085" y1="3048.972797" x2="2138.143945" y2="3006.081234" class="v" style="stroke-width:1.424030;" />
<line x1="2138.143945" y1="3006.081234" x2="1933.974612" y2="2827.677469" class="m" style="stroke-width:1.978480;" />
<line x1="2063.151090" y1="2745.525881" x2="1933.974612" y2="2827.677469" class="v" style="stroke-width:4.437815;" />
<line x1="2341.051498" y1="3304.544978" x2="2284.480825" y2="3170.798381" class="m" style="stroke-width:6.358985;" />
<line x1="2284.480825" y1="3170.798381" x2="2202.003695" y2="3262.662980" class="m" style="stroke-width:1.427949;" />
<line x1="1933.974612" y1="2827.677469" x2="1816.177908" y2="2883.546887" class="v" style="stroke-width:3.766768;" />
<line x1="2163.699819" y1="2662.535469" x2="2063.151090" y2="2745.525881" class="v" style="stroke-width:3.766768;" />
<line x1="2229.373477" y1="2912.389107" x2="2163.699819" y2="2662.535469" class="m" style="stroke-width:4.271196;" />
<line x1="2354.882367" y1="2949.111861" x2="2483.543034" y2="2925.713678" class="v" style="stroke-width:1.424030;" />
<line x1="2483.543034" y1="2925.713678" x2="2444.937588" y2="2693.371607" class="m" style="stroke-width:1.123587;" />
<line x1="2444.937588" y1="2693.371607" x2="2354.882367" y2="2949.111861" class="m" style="stroke-width:1.978480;" />
<line x1="2482.865384" y1="2922.253166" x2="2354.882367" y2="2949.111861" class="v" style="stroke-width:1.424030;" />
<line x1="2354.882367" y1="2949.111861" x2="2407.844262" y2="3175.598788" class="m" style="stroke-width:1.846350;" />
<line x1="2284.480825" y1="3170.798381" x2="2407.844262" y2="3175.598788" class="m" style="stroke-width:1.427949;" />
<line x1="2354.882367" y1="2949.111861" x2="2284.480825" y2="3170.798381" class="m" style="stroke-width:1.846350;" />
<line x1="2354.882367" y1="2949.111861" x2="2229.373477" y2="2912.389107" class="v" style="stroke-width:1.424030;" />
<line x1="2292.061117" y1="2685.357220" x2="2229.373477" y2="2912.389107" class="m" style="stroke-width:1.123587;" />
<line x1="2354.882367" y1="2949.111861" x2="2292.061117" y2="2685.357220" class="m" style="stroke-width:1.978480;" />
<line x1="2444.937588" y1="2693.371607" x2="2292.061117" y2="2685.357220" class="v" style="stroke-width:4.437815;" />
<line x1="2292.061117" y1="2685.357220" x2="2163.699819" y2="2662.535469" class="v" style="stroke-width:3.766768;" />
<line x1="2574.981532" y1="2684.096479" x2="2444.937588" y2="2693.371607" class="v" style="stroke-width:3.766768;" />
<line x1="3302.812619" y1="2885.759819" x2="3325.707905" y2="2651.347737" class="m" style="stroke-width:1.123587;" />
<line x1="3325.707905" y1="2651.347737" x2="3172.482381" y2="2875.032693" class="m" style="stroke-width:1.978480;" />
<line x1="3172.482381" y1="2875.032693" x2="3302.812619" y2="2885.759819" class="v" style="stroke-width:1.424030;" />
<line x1="3003.931245" y1="2998.865744" x2="2993.605124" y2="3231.233257" class="m" style="stroke-width:1.846350;" />
<line x1="2993.605124" y1="3231.233257" x2="3134.406483" y2="3007.655195" class="m" style="stroke-width:5.162358;" />
<line x1="3134.406483" y1="3007.655195" x2="3003.931245" y2="2998.865744" class="v" style="stroke-width:1.424030;" />
<line x1="2876.147184" y1="3193.217291" x2="2993.605124" y2="3231.233257" class="m" style="stroke-width:1.427949;" />
<line x1="3003.931245" y1="2998.865744" x2="2876.147184" y2="3193.217291" class="m" style="stroke-width:1.846350;" />
<line x1="3003.931245" y1="2998.865744" x2="2893.049416" y2="2929.538533" class="v" style="stroke-width:1.424030;" />
<line x1="2893.049416" y1="2929.538533" x2="2876.147184" y2="3193.217291" class="m" style="stroke-width:5.162358;" />
<line x1="3172.482381" y1="2875.032693" x2="3180.125091" y2="2604.007584" class="m" style="stroke-width:1.978480;" />
<line x1="3180.125091" y1="2604.007584" x2="3060.769360" y2="2807.052967" class="m" style="stroke-width:1.123587;" />
<line x1="3060.769360" y1="2807.052967" x2="3172.482381" y2="2875.032693" class="v" style="stroke-width:1.424030;" />
<line x1="3325.707905" y1="2651.347737" x2="3180.125091" y2="2604.007584" class="v" style="stroke-width:4.437815;" />
<line x1="3154.258629" y1="3116.072029" x2="3037.269542" y2="3076.636829" class="m" style="stroke-width:1.427949;" />
<line x1="3037.269542" y1="3076.636829" x2="3053.777000" y2="3220.913983" class="m" style="stroke-width:6.358985;" />
<line x1="3053.777000" y1="3220.913983" x2="3154.258629" y2="3116.072029" class="m" style="stroke-width:6.358985;" />
<line x1="3062.056264" y1="2548.715565" x2="3060.769360" y2="2807.052967" class="m" style="stroke-width:4.271196;" />
<line x1="3180.125091" y1="2604.007584" x2="3062.056264" y2="2548.715565" class="v" style="stroke-width:3.766768;" />
<line x1="3302.812619" y1="2885.759819" x2="3453.715940" y2="2676.074204" class="m" style="stroke-width:4.271196;" />
<line x1="3453.715940" y1="2676.074204" x2="3325.707905" y2="2651.347737" class="v" style="stroke-width:3.766768;" />
<line x1="2695.808400" y1="3309.330020" x2="2640.274341" y2="3190.936564" class="v" style="stroke-width:1.424030;" />
<line x1="2640.274341" y1="3190.936564" x2="2425.540032" y2="3287.696031" class="m" style="stroke-width:1.123587;" />
<line x1="2425.540032" y1="3287.696031" x2="2695.808400" y2="3309.330020" class="m" style="stroke-width:1.978480;" />
<line x1="2645.335901" y1="3305.445275" x2="2870.886058" y2="3248.626116" class="m" style="stroke-width:1.846350;" />
<line x1="2870.886058" y1="3248.626116" x2="2616.297101" y2="3177.939235" class="m" style="stroke-width:5.162358;" />
<line x1="2616.297101" y1="3177.939235" x2="2645.335901" y2="3305.445275" class="v" style="stroke-width:1.424030;" />
<line x1="2645.335901" y1="3305.445275" x2="2868.191535" y2="3372.053508" class="m" style="stroke-width:1.846350;" />
<line x1="2868.191535" y1="3372.053508" x2="2870.886058" y2="3248.626116" class="m" style="stroke-width:1.427949;" />
<line x1="2610.760291" y1="3431.562559" x2="2868.191535" y2="3372.053508" class="m" style="stroke-width:5.162358;" />
<line x1="2645.335901" y1="3305.445275" x2="2610.760291" y2="3431.562559" class="v" style="stroke-width:1.424030;" />
<line x1="2456.901808" y1="3437.535561" x2="2692.415843" y2="3440.056959" class="m" style="stroke-width:1.123587;" />
<line x1="2692.415843" y1="3440.056959" x2="2695.808400" y2="3309.330020" class="v" style="stroke-width:1.424030;" />
<line x1="2695.808400" y1="3309.330020" x2="2456.901808" y2="3437.535561" class="m" style="stroke-width:1.978480;" />
<line x1="2425.540032" y1="3287.696031" x2="2456.901808" y2="3437.535561" class="v" style="stroke-width:4.437815;" />
<line x1="3053.777000" y1="3220.913983" x2="2915.014195" y2="3263.730770" class="m" style="stroke-width:6.358985;" />
<line x1="2915.014195" y1="3263.730770" x2="2998.107670" y2="3355.038250" class="m" style="stroke-width:1.427949;" />
<line x1="2998.107670" y1="3355.038250" x2="3053.777000" y2="3220.913983" class="m" style="stroke-width:6.358985;" />
<line x1="2456.901808" y1="3437.535561" x2="2467.677392" y2="3567.463780" class="v" style="stroke-width:3.766768;" />
<line x1="2467.677392" y1="3567.463780" x2="2692.415843" y2="3440.056959" class="m" style="stroke-width:4.271196;" />
<line x1="2383.305185" y1="3164.352312" x2="2425.540032" y2="3287.696031" class="v" style="stroke-width:3.766768;" />
<line x1="2640.274341" y1="3190.936564" x2="2383.305185" y2="3164.352312" class="m" style="stroke-width:4.271196;" />
<line x1="2742.310300" y1="2957.766302" x2="2511.267911" y2="2912.020999" class="m" style="stroke-width:1.123587;" />
<line x1="2511.267911" y1="2912.020999" x2="2718.869216" y2="3086.419160" class="m" style="stroke-width:1.978480;" />
<line x1="2718.869216" y1="3086.419160" x2="2742.310300" y2="2957.766302" class="v" style="stroke-width:1.424030;" />
<line x1="2706.915852" y1="3083.656235" x2="2932.211177" y2="3141.477568" class="m" style="stroke-width:1.846350;" />
<line x1="2932.211177" y1="3141.477568" x2="2742.310300" y2="2957.766302" class="m" style="stroke-width:5.162358;" />
<line x1="2742.310300" y1="2957.766302" x2="2706.915852" y2="3083.656235" class="v" style="stroke-width:1.424030;" />
<line x1="2706.915852" y1="3083.656235" x2="2870.886058" y2="3248.626116" class="m" style="stroke-width:1.846350;" />
<line x1="2870.886058" y1="3248.626116" x2="2932.211177" y2="3141.477568" class="m" style="stroke-width:1.427949;" />
<line x1="2706.915852" y1="3083.656235" x2="2616.297101" y2="3177.939235" class="v" style="stroke-width:1.424030;" />
<line x1="2449.895898" y1="3052.266933" x2="2640.274341" y2="3190.936564" class="m" style="stroke-width:1.123587;" />
<line x1="2640.274341" y1="3190.936564" x2="2718.869216" y2="3086.419160" class="v" style="stroke-width:1.424030;" />
<line x1="2718.869216" y1="3086.419160" x2="2449.895898" y2="3052.266933" class="m" style="stroke-width:1.978480;" />
<line x1="2511.267911" y1="2912.020999" x2="2449.895898" y2="3052.266933" class="v" style="stroke-width:4.437815;" />
<line x1="3053.777000" y1="3220.913983" x2="2932.211177" y2="3141.477568" class="m" style="stroke-width:6.358985;" />
<line x1="2932.211177" y1="3141.477568" x2="2915.014195" y2="3263.730770" class="m" style="stroke-width:1.427949;" />
<line x1="2449.895898" y1="3052.266933" x2="2383.305185" y2="3164.352312" class="v" style="stroke-width:3.766768;" />
<line x1="2742.310300" y1="2957.766302" x2="2548.413565" y2="2787.050380" class="m" style="stroke-width:4.271196;" />
<line x1="2548.413565" y1="2787.050380" x2="2511.267911" y2="2912.020999" class="v" style="stroke-width:3.766768;" />
<line x1="2774.223488" y1="2984.141108" x2="2893.049416" y2="2929.538533" class="v" style="stroke-width:1.424030;" />
<line x1="2893.049416" y1="2929.538533" x2="2797.979293" y2="2714.050970" class="m" style="stroke-width:1.123587;" />
<line x1="2797.979293" y1="2714.050970" x2="2774.223488" y2="2984.141108" class="m" style="stroke-width:1.978480;" />
<line x1="2774.223488" y1="2984.141108" x2="2876.147184" y2="3193.217291" class="m" style="stroke-width:1.846350;" />
<line x1="2932.211177" y1="3141.477568" x2="3037.269542" y2="3076.636829" class="m" style="stroke-width:1.427949;" />
<line x1="3037.269542" y1="3076.636829" x2="2866.958713" y2="2918.221200" class="m" style="stroke-width:1.846350;" />
<line x1="2866.958713" y1="2918.221200" x2="2932.211177" y2="3141.477568" class="m" style="stroke-width:1.846350;" />
<line x1="2866.958713" y1="2918.221200" x2="2742.310300" y2="2957.766302" class="v" style="stroke-width:1.424030;" />
<line x1="2667.673824" y1="2734.377371" x2="2742.310300" y2="2957.766302" class="m" style="stroke-width:1.123587;" />
<line x1="2866.958713" y1="2918.221200" x2="2667.673824" y2="2734.377371" class="m" style="stroke-width:1.978480;" />
<line x1="2797.979293" y1="2714.050970" x2="2647.898092" y2="2744.235054" class="v" style="stroke-width:4.437815;" />
<line x1="2647.898092" y1="2744.235054" x2="2774.223488" y2="2984.141108" class="m" style="stroke-width:1.978480;" />
<line x1="2667.673824" y1="2734.377371" x2="2548.413565" y2="2787.050380" class="v" style="stroke-width:3.766768;" />
<line x1="3062.056264" y1="2548.715565" x2="2943.442437" y2="2602.828553" class="v" style="stroke-width:3.766768;" />
<line x1="2943.442437" y1="2602.828553" x2="3060.769360" y2="2807.052967" class="m" style="stroke-width:1.123587;" />
<line x1="2311.470901" y1="2450.630829" x2="2292.061117" y2="2685.357220" class="m" style="stroke-width:1.123587;" />
<line x1="2292.061117" y1="2685.357220" x2="2441.946139" y2="2459.420280" class="m" style="stroke-width:1.978480;" />
<line x1="2441.946139" y1="2459.420280" x2="2311.470901" y2="2450.630829" class="v" style="stroke-width:1.424030;" />
<line x1="2441.946139" y1="2459.420280" x2="2452.272260" y2="2227.052767" class="m" style="stroke-width:1.846350;" />
<line x1="2452.272260" y1="2227.052767" x2="2311.470901" y2="2450.630829" class="m" style="stroke-width:5.162358;" />
<line x1="2441.946139" y1="2459.420280" x2="2569.730201" y2="2265.068733" class="m" style="stroke-width:1.846350;" />
<line x1="2569.730201" y1="2265.068733" x2="2452.272260" y2="2227.052767" class="m" style="stroke-width:1.427949;" />
<line x1="2441.946139" y1="2459.420280" x2="2552.827968" y2="2528.747491" class="v" style="stroke-width:1.424030;" />
<line x1="2552.827968" y1="2528.747491" x2="2569.730201" y2="2265.068733" class="m" style="stroke-width:5.162358;" />
<line x1="2441.946139" y1="2459.420280" x2="2431.022791" y2="2730.332998" class="m" style="stroke-width:1.978480;" />
<line x1="2431.022791" y1="2730.332998" x2="2552.827968" y2="2528.747491" class="m" style="stroke-width:1.123587;" />
<line x1="2292.061117" y1="2685.357220" x2="2438.331256" y2="2730.529028" class="v" style="stroke-width:4.437815;" />
<line x1="2438.331256" y1="2730.529028" x2="2441.946139" y2="2459.420280" class="m" style="stroke-width:1.978480;" />
<line x1="2551.477244" y1="2121.002003" x2="2452.272260" y2="2227.052767" class="m" style="stroke-width:6.358985;" />
<line x1="2569.730201" y1="2265.068733" x2="2551.477244" y2="2121.002003" class="m" style="stroke-width:6.358985;" />
<line x1="2548.413565" y1="2787.050380" x2="2552.827968" y2="2528.747491" class="m" style="stroke-width:4.271196;" />
<line x1="2431.022791" y1="2730.332998" x2="2548.413565" y2="2787.050380" class="v" style="stroke-width:3.766768;" />
<line x1="2311.470901" y1="2450.630829" x2="2163.699819" y2="2662.535469" class="m" style="stroke-width:4.271196;" />
<line x1="2671.653896" y1="2474.144917" x2="2552.827968" y2="2528.747491" class="v" style="stroke-width:1.424030;" />
<line x1="2552.827968" y1="2528.747491" x2="2647.898092" y2="2744.235054" class="m" style="stroke-width:1.123587;" />
<line x1="2647.898092" y1="2744.235054" x2="2671.653896" y2="2474.144917" class="m" style="stroke-width:1.978480;" />
<line x1="2671.653896" y1="2474.144917" x2="2569.730201" y2="2265.068733" class="m" style="stroke-width:1.846350;" />
<line x1="2673.995864" y1="2198.960844" x2="2569.730201" y2="2265.068733" class="m" style="stroke-width:1.427949;" />
<line x1="2569.730201" y1="2265.068733" x2="2741.946426" y2="2421.410864" class="m" style="stroke-width:1.846350;" />
<line x1="2741.946426" y1="2421.410864" x2="2673.995864" y2="2198.960844" class="m" style="stroke-width:1.846350;" />
<line x1="2741.946426" y1="2421.410864" x2="2866.106947" y2="2380.359589" class="v" style="stroke-width:1.424030;" />
<line x1="2866.106947" y1="2380.359589" x2="2673.995864" y2="2198.960844" class="m" style="stroke-width:5.162358;" />
<line x1="2741.946426" y1="2421.410864" x2="2943.442437" y2="2602.828553" class="m" style="stroke-width:1.978480;" />
<line x1="2943.442437" y1="2602.828553" x2="2866.106947" y2="2380.359589" class="m" style="stroke-width:1.123587;" />
<line x1="2797.979293" y1="2714.050970" x2="2671.653896" y2="2474.144917" class="m" style="stroke-width:1.978480;" />
<line x1="2673.995864" y1="2198.960844" x2="2551.477244" y2="2121.002003" class="m" style="stroke-width:6.358985;" />
<line x1="3062.056264" y1="2548.715565" x2="2866.106947" y2="2380.359589" class="m" style="stroke-width:4.271196;" />
<line x1="2667.673824" y1="2734.377371" x2="2552.827968" y2="2528.747491" class="m" style="stroke-width:1.123587;" />
<line x1="2239.044874" y1="1950.972572" x2="2271.732010" y2="1824.352695" class="v" style="stroke-width:1.424030;" />
<line x1="2271.732010" y1="1824.352695" x2="2044.604516" y2="1762.012344" class="m" style="stroke-width:1.123587;" />
<line x1="2044.604516" y1="1762.012344" x2="2239.044874" y2="1950.972572" class="m" style="stroke-width:1.978480;" />
<line x1="2465.528141" y1="2003.950113" x2="2271.732010" y2="1824.352695" class="m" style="stroke-width:5.162358;" />
<line x1="2239.044874" y1="1950.972572" x2="2465.528141" y2="2003.950113" class="m" style="stroke-width:1.846350;" />
<line x1="2406.514464" y1="2112.388886" x2="2465.528141" y2="2003.950113" class="m" style="stroke-width:1.427949;" />
<line x1="2239.044874" y1="1950.972572" x2="2406.514464" y2="2112.388886" class="m" style="stroke-width:1.846350;" />
<line x1="2191.111657" y1="2024.622601" x2="2144.547888" y2="2146.822673" class="v" style="stroke-width:1.424030;" />
<line x1="2144.547888" y1="2146.822673" x2="2406.514464" y2="2112.388886" class="m" style="stroke-width:5.162358;" />
<line x1="2406.514464" y1="2112.388886" x2="2191.111657" y2="2024.622601" class="m" style="stroke-width:1.846350;" />
<line x1="2191.111657" y1="2024.622601" x2="1923.204608" y2="2066.321926" class="m" style="stroke-width:1.978480;" />
<line x1="1923.204608" y1="2066.321926" x2="2144.547888" y2="2146.822673" class="m" style="stroke-width:1.123587;" />
<line x1="2191.111657" y1="2024.622601" x2="1943.321588" y2="1914.563061" class="m" style="stroke-width:1.978480;" />
<line x1="2406.514464" y1="2112.388886" x2="2551.477244" y2="2121.002003" class="m" style="stroke-width:6.358985;" />
<line x1="2551.477244" y1="2121.002003" x2="2465.528141" y2="2003.950113" class="m" style="stroke-width:6.358985;" />
<line x1="1887.113160" y1="2168.438185" x2="2144.547888" y2="2146.822673" class="m" style="stroke-width:4.271196;" />
<line x1="2144.547888" y1="2146.822673" x2="1931.722712" y2="2045.933315" class="m" style="stroke-width:1.123587;" />
<line x1="2271.732010" y1="1824.352695" x2="2090.693919" y2="1640.056523" class="m" style="stroke-width:4.271196;" />
<line x1="2221.109174" y1="2252.838765" x2="2144.547888" y2="2146.822673" class="v" style="stroke-width:1.424030;" />
<line x1="2144.547888" y1="2146.822673" x2="1951.526336" y2="2281.788960" class="m" style="stroke-width:1.123587;" />
<line x1="1951.526336" y1="2281.788960" x2="2221.109174" y2="2252.838765" class="m" style="stroke-width:1.978480;" />
<line x1="2221.109174" y1="2252.838765" x2="2406.514464" y2="2112.388886" class="m" style="stroke-width:1.846350;" />
<line x1="2452.272260" y1="2227.052767" x2="2406.514464" y2="2112.388886" class="m" style="stroke-width:1.427949;" />
<line x1="2221.109174" y1="2252.838765" x2="2452.272260" y2="2227.052767" class="m" style="stroke-width:1.846350;" />
<line x1="2452.272260" y1="2227.052767" x2="2247.172713" y2="2336.759037" class="m" style="stroke-width:1.846350;" />
<line x1="2247.172713" y1="2336.759037" x2="2311.470901" y2="2450.630829" class="v" style="stroke-width:1.424030;" />
<line x1="2108.168566" y1="2569.548357" x2="2311.470901" y2="2450.630829" class="m" style="stroke-width:1.123587;" />
<line x1="2247.172713" y1="2336.759037" x2="2108.168566" y2="2569.548357" class="m" style="stroke-width:1.978480;" />
<line x1="2247.172713" y1="2336.759037" x2="2004.234769" y2="2457.150796" class="m" style="stroke-width:1.978480;" />
<line x1="2004.234769" y1="2457.150796" x2="2108.168566" y2="2569.548357" class="v" style="stroke-width:4.437815;" />
<line x1="866.095967" y1="1275.317247" x2="934.262006" y2="1049.869672" class="m" style="stroke-width:1.123587;" />
<line x1="934.262006" y1="1049.869672" x2="806.490884" y2="1023.946796" class="v" style="stroke-width:3.766768;" />
<line x1="806.490884" y1="1023.946796" x2="866.095967" y2="1275.317247" class="m" style="stroke-width:4.271196;" />
<line x1="1887.113160" y1="2168.438185" x2="1951.526336" y2="2281.788960" class="v" style="stroke-width:3.766768;" />
<line x1="809.765365" y1="609.758760" x2="653.483899" y2="785.966937" class="m" style="stroke-width:1.123587;" />
<line x1="653.483899" y1="785.966937" x2="908.911680" y2="695.029214" class="m" style="stroke-width:1.978480;" />
<line x1="908.911680" y1="695.029214" x2="809.765365" y2="609.758760" class="v" style="stroke-width:1.424030;" />
<line x1="897.826834" y1="700.286863" x2="1022.682306" y2="504.041096" class="m" style="stroke-width:1.846350;" />
<line x1="1022.682306" y1="504.041096" x2="789.126161" y2="627.587442" class="m" style="stroke-width:5.162358;" />
<line x1="789.126161" y1="627.587442" x2="897.826834" y2="700.286863" class="v" style="stroke-width:1.424030;" />
<line x1="897.826834" y1="700.286863" x2="1105.522409" y2="595.578513" class="m" style="stroke-width:1.846350;" />
<line x1="1105.522409" y1="595.578513" x2="1022.682306" y2="504.041096" class="m" style="stroke-width:1.427949;" />
<line x1="897.826834" y1="700.286863" x2="959.349171" y2="815.682028" class="v" style="stroke-width:1.424030;" />
<line x1="959.349171" y1="815.682028" x2="1105.522409" y2="595.578513" class="m" style="stroke-width:5.162358;" />
<line x1="908.911680" y1="695.029214" x2="743.454724" y2="909.824503" class="m" style="stroke-width:1.978480;" />
<line x1="743.454724" y1="909.824503" x2="959.349171" y2="815.682028" class="m" style="stroke-width:1.123587;" />
<line x1="959.349171" y1="815.682028" x2="908.911680" y2="695.029214" class="v" style="stroke-width:1.424030;" />
<line x1="653.483899" y1="785.966937" x2="743.454724" y2="909.824503" class="v" style="stroke-width:4.437815;" />
<line x1="1207.265956" y1="491.960736" x2="1062.554207" y2="479.840382" class="m" style="stroke-width:6.358985;" />
<line x1="1062.554207" y1="479.840382" x2="1105.522409" y2="595.578513" class="m" style="stroke-width:1.427949;" />
<line x1="1105.522409" y1="595.578513" x2="1207.265956" y2="491.960736" class="m" style="stroke-width:6.358985;" />
<line x1="806.490884" y1="1023.946796" x2="959.349171" y2="815.682028" class="m" style="stroke-width:4.271196;" />
<line x1="743.454724" y1="909.824503" x2="806.490884" y2="1023.946796" class="v" style="stroke-width:3.766768;" />
<line x1="809.765365" y1="609.758760" x2="564.443468" y2="690.734291" class="m" style="stroke-width:4.271196;" />
<line x1="564.443468" y1="690.734291" x2="653.483899" y2="785.966937" class="v" style="stroke-width:3.766768;" />
<line x1="1089.573356" y1="827.627900" x2="959.349171" y2="815.682028" class="v" style="stroke-width:1.424030;" />
<line x1="959.349171" y1="815.682028" x2="934.262006" y2="1049.869672" class="m" style="stroke-width:1.123587;" />
<line x1="934.262006" y1="1049.869672" x2="1089.573356" y2="827.627900" class="m" style="stroke-width:1.978480;" />
<line x1="1089.573356" y1="827.627900" x2="1105.522409" y2="595.578513" class="m" style="stroke-width:1.846350;" />
<line x1="1222.025495" y1="636.427165" x2="1105.522409" y2="595.578513" class="m" style="stroke-width:1.427949;" />
<line x1="1089.573356" y1="827.627900" x2="1222.025495" y2="636.427165" class="m" style="stroke-width:1.846350;" />
<line x1="1089.573356" y1="827.627900" x2="1198.744168" y2="899.619400" class="v" style="stroke-width:1.424030;" />
<line x1="1198.744168" y1="899.619400" x2="1222.025495" y2="636.427165" class="m" style="stroke-width:5.162358;" />
<line x1="1089.573356" y1="827.627900" x2="1079.395592" y2="1098.569653" class="m" style="stroke-width:1.978480;" />
<line x1="1079.395592" y1="1098.569653" x2="1200.645551" y2="896.649705" class="m" style="stroke-width:1.123587;" />
<line x1="1200.645551" y1="896.649705" x2="1089.573356" y2="827.627900" class="v" style="stroke-width:1.424030;" />
<line x1="934.262006" y1="1049.869672" x2="1079.395592" y2="1098.569653" class="v" style="stroke-width:4.437815;" />
<line x1="1222.025495" y1="636.427165" x2="1207.265956" y2="491.960736" class="m" style="stroke-width:6.358985;" />
<line x1="1196.942006" y1="1154.963765" x2="1200.645551" y2="896.649705" class="m" style="stroke-width:4.271196;" />
<line x1="1079.395592" y1="1098.569653" x2="1196.942006" y2="1154.963765" class="v" style="stroke-width:3.766768;" />
<line x1="1313.650868" y1="830.840583" x2="1200.645551" y2="896.649705" class="v" style="stroke-width:1.424030;" />
<line x1="1200.645551" y1="896.649705" x2="1316.056859" y2="1101.962755" class="m" style="stroke-width:1.123587;" />
<line x1="1316.056859" y1="1101.962755" x2="1313.650868" y2="830.840583" class="m" style="stroke-width:1.978480;" />
<line x1="1198.744168" y1="899.619400" x2="1318.857271" y2="847.909782" class="v" style="stroke-width:1.424030;" />
<line x1="1318.857271" y1="847.909782" x2="1222.025495" y2="636.427165" class="m" style="stroke-width:1.846350;" />
<line x1="1343.890158" y1="616.663929" x2="1222.025495" y2="636.427165" class="m" style="stroke-width:1.427949;" />
<line x1="1318.857271" y1="847.909782" x2="1343.890158" y2="616.663929" class="m" style="stroke-width:1.846350;" />
<line x1="1318.857271" y1="847.909782" x2="1449.156336" y2="859.009146" class="v" style="stroke-width:1.424030;" />
<line x1="1449.156336" y1="859.009146" x2="1343.890158" y2="616.663929" class="m" style="stroke-width:5.162358;" />
<line x1="1313.650868" y1="830.840583" x2="1462.526962" y2="1057.443605" class="m" style="stroke-width:1.978480;" />
<line x1="1462.526962" y1="1057.443605" x2="1444.164001" y2="822.633001" class="m" style="stroke-width:1.123587;" />
<line x1="1444.164001" y1="822.633001" x2="1313.650868" y2="830.840583" class="v" style="stroke-width:1.424030;" />
<line x1="1316.056859" y1="1101.962755" x2="1462.526962" y2="1057.443605" class="v" style="stroke-width:4.437815;" />
<line x1="1222.025495" y1="636.427165" x2="1327.861163" y2="572.863080" class="m" style="stroke-width:1.427949;" />
<line x1="1327.861163" y1="572.863080" x2="1207.265956" y2="491.960736" class="m" style="stroke-width:6.358985;" />
<line x1="1590.988745" y1="1035.194436" x2="1444.164001" y2="822.633001" class="m" style="stroke-width:4.271196;" />
<line x1="1196.942006" y1="1154.963765" x2="1316.056859" y2="1101.962755" class="v" style="stroke-width:3.766768;" />
<line x1="899.041835" y1="314.416701" x2="934.785043" y2="188.625345" class="v" style="stroke-width:1.424030;" />
<line x1="934.785043" y1="188.625345" x2="709.233480" y2="120.804178" class="m" style="stroke-width:1.123587;" />
<line x1="709.233480" y1="120.804178" x2="899.041835" y2="314.416701" class="m" style="stroke-width:1.978480;" />
<line x1="1124.176046" y1="372.862205" x2="934.785043" y2="188.625345" class="m" style="stroke-width:5.162358;" />
<line x1="899.041835" y1="314.416701" x2="1124.176046" y2="372.862205" class="m" style="stroke-width:1.846350;" />
<line x1="1062.554207" y1="479.840382" x2="1124.176046" y2="372.862205" class="m" style="stroke-width:1.427949;" />
<line x1="899.041835" y1="314.416701" x2="1062.554207" y2="479.840382" class="m" style="stroke-width:1.846350;" />
<line x1="1022.682306" y1="504.041096" x2="790.197557" y2="496.820878" class="m" style="stroke-width:1.846350;" />
<line x1="790.197557" y1="496.820878" x2="789.126161" y2="627.587442" class="v" style="stroke-width:1.424030;" />
<line x1="553.604478" y1="629.247217" x2="789.126161" y2="627.587442" class="m" style="stroke-width:1.123587;" />
<line x1="790.197557" y1="496.820878" x2="553.604478" y2="629.247217" class="m" style="stroke-width:1.978480;" />
<line x1="790.197557" y1="496.820878" x2="519.587736" y2="479.988023" class="m" style="stroke-width:1.978480;" />
<line x1="519.587736" y1="479.988023" x2="553.604478" y2="629.247217" class="v" style="stroke-width:4.437815;" />
<line x1="1207.265956" y1="491.960736" x2="1124.176046" y2="372.862205" class="m" style="stroke-width:6.358985;" />
<line x1="809.765365" y1="609.758760" x2="579.296022" y2="561.208784" class="m" style="stroke-width:1.123587;" />
<line x1="579.296022" y1="561.208784" x2="564.443468" y2="690.734291" class="v" style="stroke-width:3.766768;" />
<line x1="758.262102" y1="0.000000" x2="709.233480" y2="120.804178" class="v" style="stroke-width:3.766768;" />
<line x1="934.785043" y1="188.625345" x2="758.262102" y2="0.000000" class="m" style="stroke-width:4.271196;" />
<line x1="1824.355629" y1="924.380326" x2="1691.166426" y2="1118.632363" class="m" style="stroke-width:1.123587;" />
<line x1="1691.166426" y1="1118.632363" x2="1933.323805" y2="996.678174" class="m" style="stroke-width:1.978480;" />
<line x1="1933.323805" y1="996.678174" x2="1824.355629" y2="924.380326" class="v" style="stroke-width:1.424030;" />
<line x1="1933.323805" y1="996.678174" x2="2057.454330" y2="799.973058" class="m" style="stroke-width:1.846350;" />
<line x1="2057.454330" y1="799.973058" x2="1824.355629" y2="924.380326" class="m" style="stroke-width:5.162358;" />
<line x1="2140.631618" y1="891.204194" x2="2057.454330" y2="799.973058" class="m" style="stroke-width:1.427949;" />
<line x1="1933.323805" y1="996.678174" x2="2140.631618" y2="891.204194" class="m" style="stroke-width:1.846350;" />
<line x1="1896.129221" y1="941.140749" x2="1986.940078" y2="1035.238732" class="v" style="stroke-width:1.424030;" />
<line x1="1986.940078" y1="1035.238732" x2="2067.144722" y2="783.486100" class="m" style="stroke-width:5.162358;" />
<line x1="2067.144722" y1="783.486100" x2="1896.129221" y2="941.140749" class="m" style="stroke-width:1.846350;" />
<line x1="1896.129221" y1="941.140749" x2="1819.975311" y2="1201.359124" class="m" style="stroke-width:1.978480;" />
<line x1="1819.975311" y1="1201.359124" x2="1986.940078" y2="1035.238732" class="m" style="stroke-width:1.123587;" />
<line x1="1896.129221" y1="941.140749" x2="1691.166426" y2="1118.632363" class="m" style="stroke-width:1.978480;" />
<line x1="2140.631618" y1="891.204194" x2="2196.177758" y2="757.028862" class="m" style="stroke-width:6.358985;" />
<line x1="2196.177758" y1="757.028862" x2="2057.454330" y2="799.973058" class="m" style="stroke-width:6.358985;" />
<line x1="1937.521725" y1="1257.753235" x2="1941.225271" y2="999.439176" class="m" style="stroke-width:4.271196;" />
<line x1="1941.225271" y1="999.439176" x2="1819.975311" y2="1201.359124" class="m" style="stroke-width:1.123587;" />
<line x1="1824.355629" y1="924.380326" x2="1590.988745" y2="1035.194436" class="m" style="stroke-width:4.271196;" />
<line x1="343.819043" y1="556.329184" x2="579.296022" y2="561.208784" class="m" style="stroke-width:1.123587;" />
<line x1="579.296022" y1="561.208784" x2="344.535547" y2="425.560194" class="m" style="stroke-width:1.978480;" />
<line x1="344.535547" y1="425.560194" x2="343.819043" y2="556.329184" class="v" style="stroke-width:1.424030;" />
<line x1="344.535547" y1="425.560194" x2="111.973814" y2="429.601278" class="m" style="stroke-width:1.846350;" />
<line x1="111.973814" y1="429.601278" x2="343.819043" y2="556.329184" class="m" style="stroke-width:5.162358;" />
<line x1="344.535547" y1="425.560194" x2="142.664820" y2="310.020160" class="m" style="stroke-width:1.846350;" />
<line x1="142.664820" y1="310.020160" x2="111.973814" y2="429.601278" class="m" style="stroke-width:1.427949;" />
<line x1="284.066053" y1="481.647798" x2="50.509907" y2="605.194145" class="m" style="stroke-width:5.162358;" />
<line x1="50.509907" y1="605.194145" x2="282.994657" y2="612.414362" class="m" style="stroke-width:1.846350;" />
<line x1="282.994657" y1="612.414362" x2="284.066053" y2="481.647798" class="v" style="stroke-width:1.424030;" />
<line x1="519.587736" y1="479.988023" x2="284.066053" y2="481.647798" class="m" style="stroke-width:1.123587;" />
<line x1="282.994657" y1="612.414362" x2="519.587736" y2="479.988023" class="m" style="stroke-width:1.978480;" />
<line x1="282.994657" y1="612.414362" x2="553.604478" y2="629.247217" class="m" style="stroke-width:1.978480;" />
<line x1="0.000000" y1="337.133671" x2="111.973814" y2="429.601278" class="m" style="stroke-width:6.358985;" />
<line x1="142.664820" y1="310.020160" x2="0.000000" y2="337.133671" class="m" style="stroke-width:6.358985;" />
<line x1="500.212239" y1="12.253089" x2="709.233480" y2="120.804178" class="m" style="stroke-width:1.123587;" />
<line x1="758.262102" y1="0.000000" x2="500.212239" y2="12.253089" class="m" style="stroke-width:4.271196;" />
<line x1="343.819043" y1="556.329184" x2="564.443468" y2="690.734291" class="m" style="stroke-width:4.271196;" />
<line x1="1478.599023" y1="2975.029960" x2="1697.047089" y2="3063.084833" class="m" style="stroke-width:1.123587;" />
<line x1="1697.047089" y1="3063.084833" x2="1525.635306" y2="2853.010986" class="m" style="stroke-width:1.978480;" />
<line x1="1525.635306" y1="2853.010986" x2="1478.599023" y2="2975.029960" class="v" style="stroke-width:1.424030;" />
<line x1="1525.635306" y1="2853.010986" x2="1306.750108" y2="2774.330874" class="m" style="stroke-width:1.846350;" />
<line x1="1306.750108" y1="2774.330874" x2="1478.599023" y2="2975.029960" class="m" style="stroke-width:5.162358;" />
<line x1="1514.239514" y1="3049.408280" x2="1299.419181" y2="2960.225802" class="m" style="stroke-width:1.846350;" />
<line x1="1299.419181" y1="2960.225802" x2="1284.040577" y2="3082.721027" class="m" style="stroke-width:1.427949;" />
<line x1="1284.040577" y1="3082.721027" x2="1514.239514" y2="3049.408280" class="m" style="stroke-width:1.846350;" />
<line x1="1561.606773" y1="2927.517407" x2="1299.419181" y2="2960.225802" class="m" style="stroke-width:5.162358;" />
<line x1="1514.239514" y1="3049.408280" x2="1561.606773" y2="2927.517407" class="v" style="stroke-width:1.424030;" />
<line x1="1782.415283" y1="3009.473614" x2="1561.606773" y2="2927.517407" class="m" style="stroke-width:1.123587;" />
<line x1="1514.239514" y1="3049.408280" x2="1782.415283" y2="3009.473614" class="m" style="stroke-width:1.978480;" />
<line x1="1783.511360" y1="2936.754411" x2="1525.635306" y2="2853.010986" class="m" style="stroke-width:1.978480;" />
<line x1="1161.307880" y1="3005.099647" x2="1284.040577" y2="3082.721027" class="m" style="stroke-width:6.358985;" />
<line x1="1299.419181" y1="2960.225802" x2="1161.307880" y2="3005.099647" class="m" style="stroke-width:6.358985;" />
<line x1="1816.177908" y1="2883.546887" x2="1561.606773" y2="2927.517407" class="m" style="stroke-width:4.271196;" />
<line x1="1741.501460" y1="3466.820330" x2="1507.219018" y2="3491.006184" class="m" style="stroke-width:1.123587;" />
<line x1="1507.219018" y1="3491.006184" x2="1742.729345" y2="3597.188837" class="m" style="stroke-width:4.271196;" />
<line x1="2186.633440" y1="3415.901572" x2="2242.167499" y2="3534.295028" class="v" style="stroke-width:1.424030;" />
<line x1="2242.167499" y1="3534.295028" x2="2456.901808" y2="3437.535561" class="m" style="stroke-width:1.123587;" />
<line x1="2456.901808" y1="3437.535561" x2="2186.633440" y2="3415.901572" class="m" style="stroke-width:1.978480;" />
<line x1="1978.364135" y1="3519.464050" x2="2242.167499" y2="3534.295028" class="m" style="stroke-width:5.162358;" />
<line x1="2186.633440" y1="3415.901572" x2="1978.364135" y2="3519.464050" class="m" style="stroke-width:1.846350;" />
<line x1="1997.222640" y1="3516.289106" x2="2052.800080" y2="3626.528526" class="m" style="stroke-width:1.427949;" />
<line x1="2052.800080" y1="3626.528526" x2="2225.258621" y2="3470.453731" class="m" style="stroke-width:1.846350;" />
<line x1="2225.258621" y1="3470.453731" x2="1997.222640" y2="3516.289106" class="m" style="stroke-width:1.846350;" />
<line x1="2196.565966" y1="3342.869352" x2="1997.222640" y2="3516.289106" class="m" style="stroke-width:5.162358;" />
<line x1="2225.258621" y1="3470.453731" x2="2196.565966" y2="3342.869352" class="v" style="stroke-width:1.424030;" />
<line x1="2425.540032" y1="3287.696031" x2="2196.565966" y2="3342.869352" class="m" style="stroke-width:1.123587;" />
<line x1="2225.258621" y1="3470.453731" x2="2425.540032" y2="3287.696031" class="m" style="stroke-width:1.978480;" />
<line x1="2425.540032" y1="3287.696031" x2="2186.633440" y2="3415.901572" class="m" style="stroke-width:1.978480;" />
<line x1="1997.222640" y1="3516.289106" x2="1907.638250" y2="3630.582720" class="m" style="stroke-width:6.358985;" />
<line x1="1907.638250" y1="3630.582720" x2="2052.800080" y2="3626.528526" class="m" style="stroke-width:6.358985;" />
<line x1="2383.305185" y1="3164.352312" x2="2196.565966" y2="3342.869352" class="m" style="stroke-width:4.271196;" />
<line x1="2456.901808" y1="3437.535561" x2="2225.020832" y2="3478.820316" class="m" style="stroke-width:1.123587;" />
<line x1="2225.020832" y1="3478.820316" x2="2467.677392" y2="3567.463780" class="m" style="stroke-width:4.271196;" />
<text x="1787.430046" y="1593.791701" transform="rotate(54.858112 1787.430046 1593.791701)" fill="darkgreen" font-weight="bold" font-size="69.060000">0</text>
<text x="1691.784052" y="1792.251664" transform="rotate(-125.835554 1691.784052 1792.251664)" fill="darkgreen" font-weight="bold" font-size="69.060000">0</text>
<text x="1543.562340" y="1739.408004" transform="rotate(173.635020 1543.562340 1739.408004)" fill="darkgreen" font-weight="bold" font-size="69.060000">5</text>
<text x="1628.664379" y="1567.962498" transform="rotate(-7.216322 1628.664379 1567.962498)" fill="darkgreen" font-weight="bold" font-size="69.060000">5</text>
<text x="1432.013580" y="1798.335887" transform="rotate(68.245019 1432.013580 1798.335887)" fill="darkgreen" font-weight="bold" font-size="69.060000">6</text>
<text x="1547.300279" y="1655.678562" transform="rotate(-112.448646 1547.300279 1655.678562)" fill="darkgreen" font-weight="bold" font-size="69.060000">6</text>
<text x="1643.722467" y="1493.276754" transform="rotate(143.126912 1643.722467 1493.276754)" fill="darkgreen" font-weight="bold" font-size="69.060000">8</text>
<text x="1630.343438" y="1520.406492" transform="rotate(-42.250363 1630.343438 1520.406492)" fill="darkgreen" font-weight="bold" font-size="69.060000">8</text>
<text x="2009.463938" y="1480.524176" transform="rotate(-111.833809 2009.463938 1480.524176)" fill="darkgreen" font-weight="bold" font-size="69.060000">11</text>
<text x="3279.186497" y="2636.220055" transform="rotate(-161.986668 3279.186497 2636.220055)" fill="darkgreen" font-weight="bold" font-size="69.060000">11</text>
<text x="1488.123411" y="1619.084103" transform="rotate(132.396071 1488.123411 1619.084103)" fill="darkgreen" font-weight="bold" font-size="69.060000">13</text>
<text x="1353.719027" y="1767.298566" transform="rotate(131.861188 1353.719027 1767.298566)" fill="darkgreen" font-weight="bold" font-size="69.060000">13</text>
<text x="1961.156779" y="1347.504518" transform="rotate(-104.753285 1961.156779 1347.504518)" fill="darkgreen" font-weight="bold" font-size="69.060000">15</text>
<text x="3416.834555" y="2668.950071" transform="rotate(-169.067192 3416.834555 2668.950071)" fill="darkgreen" font-weight="bold" font-size="69.060000">15</text>
<text x="3146.107368" y="2588.076973" transform="rotate(-154.906144 3146.107368 2588.076973)" fill="darkgreen" font-weight="bold" font-size="69.060000">16</text>
<text x="2072.532083" y="1607.175867" transform="rotate(-118.914333 2072.532083 1607.175867)" fill="darkgreen" font-weight="bold" font-size="69.060000">16</text>
<text x="1587.473942" y="1463.140593" transform="rotate(108.092871 1587.473942 1463.140593)" fill="darkgreen" font-weight="bold" font-size="69.060000">21</text>
<text x="1318.563054" y="1927.874074" transform="rotate(76.461193 1318.563054 1927.874074)" fill="darkgreen" font-weight="bold" font-size="69.060000">21</text>
<text x="1319.495513" y="1851.752262" transform="rotate(16.705926 1319.495513 1851.752262)" fill="darkgreen" font-weight="bold" font-size="69.060000">23</text>
<text x="1387.109798" y="1844.550212" transform="rotate(-178.148787 1387.109798 1844.550212)" fill="darkgreen" font-weight="bold" font-size="69.060000">23</text>
<text x="1388.566873" y="2078.162371" transform="rotate(15.931786 1388.566873 2078.162371)" fill="darkgreen" font-weight="bold" font-size="69.060000">24</text>
<text x="1550.424240" y="1311.924529" transform="rotate(46.018438 1550.424240 1311.924529)" fill="darkgreen" font-weight="bold" font-size="69.060000">24</text>
<text x="1535.811452" y="2172.855289" transform="rotate(50.110309 1535.811452 2172.855289)" fill="darkgreen" font-weight="bold" font-size="69.060000">34</text>
<text x="1486.130753" y="1144.438078" transform="rotate(74.819676 1486.130753 1144.438078)" fill="darkgreen" font-weight="bold" font-size="69.060000">34</text>
<text x="1517.634194" y="1952.485504" transform="rotate(-132.072299 1517.634194 1952.485504)" fill="darkgreen" font-weight="bold" font-size="69.060000">36</text>
<text x="1471.994564" y="1935.619407" transform="rotate(41.005380 1471.994564 1935.619407)" fill="darkgreen" font-weight="bold" font-size="69.060000">36</text>
<text x="1616.195569" y="2017.431246" transform="rotate(-19.524027 1616.195569 2017.431246)" fill="darkgreen" font-weight="bold" font-size="69.060000">39</text>
<text x="1667.240850" y="1995.576418" transform="rotate(165.853248 1667.240850 1995.576418)" fill="darkgreen" font-weight="bold" font-size="69.060000">39</text>
<text x="1672.459967" y="2261.854354" transform="rotate(-27.454812 1672.459967 2261.854354)" fill="darkgreen" font-weight="bold" font-size="69.060000">43</text>
<text x="1362.861802" y="1087.736532" transform="rotate(-16.906492 1362.861802 1087.736532)" fill="darkgreen" font-weight="bold" font-size="69.060000">43</text>
<text x="1469.438468" y="1785.778746" transform="rotate(-148.759872 1469.438468 1785.778746)" fill="darkgreen" font-weight="bold" font-size="69.060000">44</text>
<text x="1447.603001" y="1729.041378" transform="rotate(53.017152 1447.603001 1729.041378)" fill="darkgreen" font-weight="bold" font-size="69.060000">44</text>
<text x="1800.108437" y="2200.750517" transform="rotate(-20.374288 1800.108437 2200.750517)" fill="darkgreen" font-weight="bold" font-size="69.060000">46</text>
<text x="1231.261107" y="1139.693234" transform="rotate(-23.987015 1231.261107 1139.693234)" fill="darkgreen" font-weight="bold" font-size="69.060000">46</text>
<text x="1774.063821" y="2000.078889" transform="rotate(23.949090 1774.063821 2000.078889)" fill="darkgreen" font-weight="bold" font-size="69.060000">50</text>
<text x="1853.407738" y="1971.647842" transform="rotate(-136.512568 1853.407738 1971.647842)" fill="darkgreen" font-weight="bold" font-size="69.060000">50</text>
<text x="1670.423068" y="1798.580615" transform="rotate(-136.748100 1670.423068 1798.580615)" fill="darkgreen" font-weight="bold" font-size="69.060000">52</text>
<text x="1542.131158" y="1901.955817" transform="rotate(22.168531 1542.131158 1901.955817)" fill="darkgreen" font-weight="bold" font-size="69.060000">52</text>
<text x="1913.994187" y="1698.148861" transform="rotate(26.056873 1913.994187 1698.148861)" fill="darkgreen" font-weight="bold" font-size="69.060000">56</text>
<text x="1858.610339" y="1883.754270" transform="rotate(-160.014077 1858.610339 1883.754270)" fill="darkgreen" font-weight="bold" font-size="69.060000">56</text>
<text x="2611.455173" y="3026.278380" transform="rotate(18.226356 2611.455173 3026.278380)" fill="darkgreen" font-weight="bold" font-size="69.060000">60</text>
<text x="2664.683528" y="3041.165873" transform="rotate(-163.318661 2664.683528 3041.165873)" fill="darkgreen" font-weight="bold" font-size="69.060000">60</text>
<text x="2587.850389" y="3164.897693" transform="rotate(-44.971333 2587.850389 3164.897693)" fill="darkgreen" font-weight="bold" font-size="69.060000">64</text>
<text x="2072.618711" y="3446.335595" transform="rotate(-22.659416 2072.618711 3446.335595)" fill="darkgreen" font-weight="bold" font-size="69.060000">64</text>
<text x="2462.190356" y="3246.523772" transform="rotate(-127.461045 2462.190356 3246.523772)" fill="darkgreen" font-weight="bold" font-size="69.060000">66</text>
<text x="2437.150175" y="3193.042225" transform="rotate(30.761912 2437.150175 3193.042225)" fill="darkgreen" font-weight="bold" font-size="69.060000">66</text>
<text x="2553.487353" y="2868.854470" transform="rotate(-39.108384 2553.487353 2868.854470)" fill="darkgreen" font-weight="bold" font-size="69.060000">70</text>
<text x="2583.804164" y="2817.615864" transform="rotate(133.969295 2583.804164 2817.615864)" fill="darkgreen" font-weight="bold" font-size="69.060000">70</text>
<text x="2735.170176" y="2807.221772" transform="rotate(-148.465565 2735.170176 2807.221772)" fill="darkgreen" font-weight="bold" font-size="69.060000">71</text>
<text x="2491.656308" y="2956.836991" transform="rotate(113.634315 2491.656308 2956.836991)" fill="darkgreen" font-weight="bold" font-size="69.060000">71</text>
<text x="2257.514752" y="3359.937304" transform="rotate(-33.547933 2257.514752 3359.937304)" fill="darkgreen" font-weight="bold" font-size="69.060000">72</text>
<text x="2385.003137" y="3294.957324" transform="rotate(-12.305782 2385.003137 3294.957324)" fill="darkgreen" font-weight="bold" font-size="69.060000">72</text>
<text x="2639.990658" y="2750.336363" transform="rotate(-134.462730 2639.990658 2750.336363)" fill="darkgreen" font-weight="bold" font-size="69.060000">75</text>
<text x="2537.711244" y="2823.056631" transform="rotate(106.553791 2537.711244 2823.056631)" fill="darkgreen" font-weight="bold" font-size="69.060000">75</text>
<text x="2430.709933" y="3084.560718" transform="rotate(120.714838 2430.709933 3084.560718)" fill="darkgreen" font-weight="bold" font-size="69.060000">76</text>
<text x="2861.350771" y="2871.227236" transform="rotate(-155.546089 2861.350771 2871.227236)" fill="darkgreen" font-weight="bold" font-size="69.060000">76</text>
<text x="2776.740395" y="2989.100351" transform="rotate(-40.737664 2776.740395 2989.100351)" fill="darkgreen" font-weight="bold" font-size="69.060000">77</text>
<text x="1834.499153" y="3553.715234" transform="rotate(-25.348058 1834.499153 3553.715234)" fill="darkgreen" font-weight="bold" font-size="69.060000">77</text>
<text x="1918.356217" y="2991.109420" transform="rotate(-158.045976 1918.356217 2991.109420)" fill="darkgreen" font-weight="bold" font-size="69.060000">79</text>
<text x="1871.278417" y="3024.590518" transform="rotate(9.654419 1871.278417 3024.590518)" fill="darkgreen" font-weight="bold" font-size="69.060000">79</text>
<text x="2038.370184" y="3176.823994" transform="rotate(19.771397 2038.370184 3176.823994)" fill="darkgreen" font-weight="bold" font-size="69.060000">81</text>
<text x="2120.859358" y="3298.422586" transform="rotate(156.217319 2120.859358 3298.422586)" fill="darkgreen" font-weight="bold" font-size="69.060000">81</text>
<text x="1890.562234" y="3400.397441" transform="rotate(155.981787 1890.562234 3400.397441)" fill="darkgreen" font-weight="bold" font-size="69.060000">86</text>
<text x="1799.711766" y="3096.424461" transform="rotate(17.990838 1799.711766 3096.424461)" fill="darkgreen" font-weight="bold" font-size="69.060000">86</text>
<text x="2164.487424" y="2979.026655" transform="rotate(-45.762958 2164.487424 2979.026655)" fill="darkgreen" font-weight="bold" font-size="69.060000">93</text>
<text x="2200.610548" y="2936.855881" transform="rotate(139.614316 2200.610548 2936.855881)" fill="darkgreen" font-weight="bold" font-size="69.060000">93</text>
<text x="2204.381130" y="3210.394975" transform="rotate(-26.305091 2204.381130 3210.394975)" fill="darkgreen" font-weight="bold" font-size="69.060000">99</text>
<text x="2261.696879" y="3196.175574" transform="rotate(131.917865 2261.696879 3196.175574)" fill="darkgreen" font-weight="bold" font-size="69.060000">99</text>
<text x="2106.358769" y="3002.190596" transform="rotate(167.775481 2106.358769 3002.190596)" fill="darkgreen" font-weight="bold" font-size="69.060000">100</text>
<text x="2037.231705" y="3041.117609" transform="rotate(-19.146820 2037.231705 3041.117609)" fill="darkgreen" font-weight="bold" font-size="69.060000">100</text>
<text x="2033.527136" y="2764.365649" transform="rotate(147.545101 2033.527136 2764.365649)" fill="darkgreen" font-weight="bold" font-size="69.060000">103</text>
<text x="674.116847" y="814.371108" transform="rotate(54.005134 674.116847 814.371108)" fill="darkgreen" font-weight="bold" font-size="69.060000">103</text>
<text x="1912.514809" y="2837.855569" transform="rotate(154.625624 1912.514809 2837.855569)" fill="darkgreen" font-weight="bold" font-size="69.060000">105</text>
<text x="580.664551" y="708.083450" transform="rotate(46.924610 580.664551 708.083450)" fill="darkgreen" font-weight="bold" font-size="69.060000">105</text>
<text x="754.938437" y="930.614914" transform="rotate(61.085657 754.938437 930.614914)" fill="darkgreen" font-weight="bold" font-size="69.060000">106</text>
<text x="2145.382193" y="2677.654380" transform="rotate(140.464577 2145.382193 2677.654380)" fill="darkgreen" font-weight="bold" font-size="69.060000">106</text>
<text x="2378.445364" y="2944.826703" transform="rotate(-10.307146 2378.445364 2944.826703)" fill="darkgreen" font-weight="bold" font-size="69.060000">108</text>
<text x="2459.426492" y="2927.172085" transform="rotate(168.147818 2459.426492 2927.172085)" fill="darkgreen" font-weight="bold" font-size="69.060000">108</text>
<text x="2409.878531" y="2691.533673" transform="rotate(-176.999067 2409.878531 2691.533673)" fill="darkgreen" font-weight="bold" font-size="69.060000">117</text>
<text x="2325.605149" y="2695.716440" transform="rotate(17.161971 2325.605149 2695.716440)" fill="darkgreen" font-weight="bold" font-size="69.060000">117</text>
<text x="2452.408643" y="2740.665578" transform="rotate(25.787521 2452.408643 2740.665578)" fill="darkgreen" font-weight="bold" font-size="69.060000">119</text>
<text x="2551.290569" y="2685.786191" transform="rotate(175.920390 2551.290569 2685.786191)" fill="darkgreen" font-weight="bold" font-size="69.060000">119</text>
<text x="3196.351144" y="2876.997266" transform="rotate(4.705253 3196.351144 2876.997266)" fill="darkgreen" font-weight="bold" font-size="69.060000">120</text>
<text x="3110.511164" y="3006.045489" transform="rotate(-176.146089 3110.511164 3006.045489)" fill="darkgreen" font-weight="bold" font-size="69.060000">120</text>
<text x="3041.924785" y="3154.506610" transform="rotate(-57.798760 3041.924785 3154.506610)" fill="darkgreen" font-weight="bold" font-size="69.060000">124</text>
<text x="2699.104541" y="3411.140474" transform="rotate(-13.016135 2699.104541 3411.140474)" fill="darkgreen" font-weight="bold" font-size="69.060000">124</text>
<text x="3135.029317" y="3109.590127" transform="rotate(-161.371831 3135.029317 3109.590127)" fill="darkgreen" font-weight="bold" font-size="69.060000">126</text>
<text x="2895.453561" y="3199.465915" transform="rotate(17.934484 2895.453561 3199.465915)" fill="darkgreen" font-weight="bold" font-size="69.060000">126</text>
<text x="2983.624275" y="2986.169114" transform="rotate(-147.984924 2983.624275 2986.169114)" fill="darkgreen" font-weight="bold" font-size="69.060000">127</text>
<text x="3081.228554" y="2819.502818" transform="rotate(31.321391 3081.228554 2819.502818)" fill="darkgreen" font-weight="bold" font-size="69.060000">127</text>
<text x="3010.057889" y="3326.246555" transform="rotate(-67.458719 3010.057889 3326.246555)" fill="darkgreen" font-weight="bold" font-size="69.060000">131</text>
<text x="3075.346821" y="3198.408156" transform="rotate(-46.216568 3075.346821 3198.408156)" fill="darkgreen" font-weight="bold" font-size="69.060000">131</text>
<text x="3354.060458" y="2814.549096" transform="rotate(-54.258767 3354.060458 2814.549096)" fill="darkgreen" font-weight="bold" font-size="69.060000">134</text>
<text x="2544.000165" y="3524.195520" transform="rotate(-29.549399 2544.000165 3524.195520)" fill="darkgreen" font-weight="bold" font-size="69.060000">134</text>
<text x="2685.637857" y="3287.647366" transform="rotate(-115.129557 2685.637857 3287.647366)" fill="darkgreen" font-weight="bold" font-size="69.060000">135</text>
<text x="2621.615285" y="3201.290773" transform="rotate(77.170029 2621.615285 3201.290773)" fill="darkgreen" font-weight="bold" font-size="69.060000">135</text>
<text x="2868.634430" y="3351.765941" transform="rotate(-88.749379 2868.634430 3351.765941)" fill="darkgreen" font-weight="bold" font-size="69.060000">141</text>
<text x="2928.672139" y="3278.738837" transform="rotate(47.696544 2928.672139 3278.738837)" fill="darkgreen" font-weight="bold" font-size="69.060000">141</text>
<text x="2639.003702" y="3328.542475" transform="rotate(105.331194 2639.003702 3328.542475)" fill="darkgreen" font-weight="bold" font-size="69.060000">142</text>
<text x="2693.037158" y="3416.115544" transform="rotate(-88.513419 2693.037158 3416.115544)" fill="darkgreen" font-weight="bold" font-size="69.060000">142</text>
<text x="2723.162231" y="3062.857593" transform="rotate(-79.673745 2723.162231 3062.857593)" fill="darkgreen" font-weight="bold" font-size="69.060000">150</text>
<text x="2735.828138" y="2980.821865" transform="rotate(105.703530 2735.828138 2980.821865)" fill="darkgreen" font-weight="bold" font-size="69.060000">150</text>
<text x="2880.965972" y="3231.014278" transform="rotate(-60.215877 2880.965972 3231.014278)" fill="darkgreen" font-weight="bold" font-size="69.060000">156</text>
<text x="2929.384536" y="3161.572135" transform="rotate(98.007079 2929.384536 3161.572135)" fill="darkgreen" font-weight="bold" font-size="69.060000">156</text>
<text x="2690.319876" y="3100.923284" transform="rotate(133.864695 2690.319876 3100.923284)" fill="darkgreen" font-weight="bold" font-size="69.060000">157</text>
<text x="2654.668257" y="3171.795179" transform="rotate(-53.057606 2654.668257 3171.795179)" fill="darkgreen" font-weight="bold" font-size="69.060000">157</text>
<text x="2862.239896" y="2859.705151" transform="rotate(-113.806400 2862.239896 2859.705151)" fill="darkgreen" font-weight="bold" font-size="69.060000">163</text>
<text x="2981.464752" y="2669.011870" transform="rotate(60.122630 2981.464752 2669.011870)" fill="darkgreen" font-weight="bold" font-size="69.060000">163</text>
<text x="2807.028124" y="3051.433290" transform="rotate(64.010972 2807.028124 3051.433290)" fill="darkgreen" font-weight="bold" font-size="69.060000">165</text>
<text x="2982.454177" y="3025.649991" transform="rotate(-137.072377 2982.454177 3025.649991)" fill="darkgreen" font-weight="bold" font-size="69.060000">165</text>
<text x="2797.772072" y="2854.395302" transform="rotate(-137.307909 2797.772072 2854.395302)" fill="darkgreen" font-weight="bold" font-size="69.060000">169</text>
<text x="2691.755054" y="2827.524329" transform="rotate(62.230413 2691.755054 2827.524329)" fill="darkgreen" font-weight="bold" font-size="69.060000">169</text>
<text x="2438.153831" y="2553.474280" transform="rotate(92.308941 2438.153831 2553.474280)" fill="darkgreen" font-weight="bold" font-size="69.060000">183</text>
<text x="2439.586252" y="2636.406971" transform="rotate(-89.236076 2439.586252 2636.406971)" fill="darkgreen" font-weight="bold" font-size="69.060000">183</text>
<text x="2261.286793" y="2522.595149" transform="rotate(124.889872 2261.286793 2522.595149)" fill="darkgreen" font-weight="bold" font-size="69.060000">188</text>
<text x="826.733193" y="1109.313985" transform="rotate(76.660363 826.733193 1109.313985)" fill="darkgreen" font-weight="bold" font-size="69.060000">188</text>
<text x="2583.637488" y="2598.580873" transform="rotate(66.193590 2583.637488 2598.580873)" fill="darkgreen" font-weight="bold" font-size="69.060000">190</text>
<text x="2630.455553" y="2667.738582" transform="rotate(-119.183685 2630.455553 2667.738582)" fill="darkgreen" font-weight="bold" font-size="69.060000">190</text>
<text x="2638.849261" y="2406.852734" transform="rotate(-115.989018 2638.849261 2406.852734)" fill="darkgreen" font-weight="bold" font-size="69.060000">192</text>
<text x="2625.158827" y="2315.388206" transform="rotate(42.233938 2625.158827 2315.388206)" fill="darkgreen" font-weight="bold" font-size="69.060000">192</text>
<text x="2800.179014" y="2318.107875" transform="rotate(-136.642797 2800.179014 2318.107875)" fill="darkgreen" font-weight="bold" font-size="69.060000">196</text>
<text x="2399.021940" y="1942.316571" transform="rotate(-137.177680 2399.021940 1942.316571)" fill="darkgreen" font-weight="bold" font-size="69.060000">196</text>
<text x="2811.900713" y="2484.394468" transform="rotate(41.998406 2811.900713 2484.394468)" fill="darkgreen" font-weight="bold" font-size="69.060000">197</text>
<text x="2754.122330" y="2630.761695" transform="rotate(-117.769577 2754.122330 2630.761695)" fill="darkgreen" font-weight="bold" font-size="69.060000">197</text>
<text x="2647.695487" y="2182.225863" transform="rotate(-147.531314 2647.695487 2182.225863)" fill="darkgreen" font-weight="bold" font-size="69.060000">199</text>
<text x="2533.027038" y="2095.875138" transform="rotate(-126.289163 2533.027038 2095.875138)" fill="darkgreen" font-weight="bold" font-size="69.060000">199</text>
<text x="2210.250190" y="1761.764407" transform="rotate(-134.489038 2210.250190 1761.764407)" fill="darkgreen" font-weight="bold" font-size="69.060000">200</text>
<text x="2995.510485" y="2491.540681" transform="rotate(-139.331439 2995.510485 2491.540681)" fill="darkgreen" font-weight="bold" font-size="69.060000">200</text>
<text x="2105.085252" y="1986.412730" transform="rotate(-156.050900 2105.085252 1986.412730)" fill="darkgreen" font-weight="bold" font-size="69.060000">203</text>
<text x="2112.109259" y="1827.614526" transform="rotate(44.181097 2112.109259 1827.614526)" fill="darkgreen" font-weight="bold" font-size="69.060000">203</text>
<text x="2292.945773" y="2002.925195" transform="rotate(43.945565 2292.945773 2002.925195)" fill="darkgreen" font-weight="bold" font-size="69.060000">205</text>
<text x="2337.186027" y="2084.140882" transform="rotate(-157.831459 2337.186027 2084.140882)" fill="darkgreen" font-weight="bold" font-size="69.060000">205</text>
<text x="1994.935662" y="2092.409925" transform="rotate(19.985913 1994.935662 2092.409925)" fill="darkgreen" font-weight="bold" font-size="69.060000">210</text>
<text x="2075.577309" y="2114.127306" transform="rotate(-154.636792 2075.577309 2114.127306)" fill="darkgreen" font-weight="bold" font-size="69.060000">210</text>
<text x="2162.830842" y="2378.555991" transform="rotate(153.638545 2162.830842 2378.555991)" fill="darkgreen" font-weight="bold" font-size="69.060000">215</text>
<text x="2045.118636" y="2271.738189" transform="rotate(-6.129438 2045.118636 2271.738189)" fill="darkgreen" font-weight="bold" font-size="69.060000">215</text>
<text x="2295.510134" y="2244.539416" transform="rotate(-6.364970 2295.510134 2244.539416)" fill="darkgreen" font-weight="bold" font-size="69.060000">217</text>
<text x="2386.259977" y="2262.362261" transform="rotate(151.857986 2386.259977 2262.362261)" fill="darkgreen" font-weight="bold" font-size="69.060000">217</text>
<text x="888.186639" y="1202.256108" transform="rotate(-73.176847 888.186639 1202.256108)" fill="darkgreen" font-weight="bold" font-size="69.060000">221</text>
<text x="2174.053063" y="2531.010573" transform="rotate(-30.324622 2174.053063 2531.010573)" fill="darkgreen" font-weight="bold" font-size="69.060000">221</text>
<text x="2028.069836" y="2482.926852" transform="rotate(47.240499 2028.069836 2482.926852)" fill="darkgreen" font-weight="bold" font-size="69.060000">222</text>
<text x="967.545393" y="1061.038005" transform="rotate(18.549321 967.545393 1061.038005)" fill="darkgreen" font-weight="bold" font-size="69.060000">222</text>
<text x="1100.809798" y="1108.843341" transform="rotate(25.629845 1100.809798 1108.843341)" fill="darkgreen" font-weight="bold" font-size="69.060000">224</text>
<text x="1898.847733" y="2189.088044" transform="rotate(60.391982 1898.847733 2189.088044)" fill="darkgreen" font-weight="bold" font-size="69.060000">224</text>
<text x="890.753960" y="679.412728" transform="rotate(-139.302925 890.753960 679.412728)" fill="darkgreen" font-weight="bold" font-size="69.060000">225</text>
<text x="809.033672" y="640.901661" transform="rotate(33.774753 809.033672 640.901661)" fill="darkgreen" font-weight="bold" font-size="69.060000">225</text>
<text x="1091.906112" y="580.532652" transform="rotate(-132.144654 1091.906112 580.532652)" fill="darkgreen" font-weight="bold" font-size="69.060000">231</text>
<text x="1069.616823" y="498.864076" transform="rotate(69.632370 1069.616823 498.864076)" fill="darkgreen" font-weight="bold" font-size="69.060000">231</text>
<text x="909.094075" y="721.420408" transform="rotate(61.935919 909.094075 721.420408)" fill="darkgreen" font-weight="bold" font-size="69.060000">232</text>
<text x="950.112017" y="793.585594" transform="rotate(-112.686787 950.112017 793.585594)" fill="darkgreen" font-weight="bold" font-size="69.060000">232</text>
<text x="1109.566969" y="840.812470" transform="rotate(33.402417 1109.566969 840.812470)" fill="darkgreen" font-weight="bold" font-size="69.060000">246</text>
<text x="1180.303718" y="884.009007" transform="rotate(-148.142600 1180.303718 884.009007)" fill="darkgreen" font-weight="bold" font-size="69.060000">246</text>
<text x="1292.955002" y="842.892908" transform="rotate(149.785429 1292.955002 842.892908)" fill="darkgreen" font-weight="bold" font-size="69.060000">252</text>
<text x="1220.741759" y="890.149267" transform="rotate(-23.292250 1220.741759 890.149267)" fill="darkgreen" font-weight="bold" font-size="69.060000">252</text>
<text x="1239.421537" y="625.979237" transform="rotate(-30.988701 1239.421537 625.979237)" fill="darkgreen" font-weight="bold" font-size="69.060000">257</text>
<text x="1323.859455" y="619.912381" transform="rotate(170.788323 1323.859455 619.912381)" fill="darkgreen" font-weight="bold" font-size="69.060000">257</text>
<text x="1342.720326" y="849.942527" transform="rotate(4.868916 1342.720326 849.942527)" fill="darkgreen" font-weight="bold" font-size="69.060000">258</text>
<text x="1420.261742" y="824.136143" transform="rotate(176.401568 1420.261742 824.136143)" fill="darkgreen" font-weight="bold" font-size="69.060000">258</text>
<text x="1413.031499" y="775.842060" transform="rotate(-113.478413 1413.031499 775.842060)" fill="darkgreen" font-weight="bold" font-size="69.060000">259</text>
<text x="1059.181580" y="309.636518" transform="rotate(-135.790330 1059.181580 309.636518)" fill="darkgreen" font-weight="bold" font-size="69.060000">259</text>
<text x="1301.973675" y="555.496233" transform="rotate(-146.143963 1301.973675 555.496233)" fill="darkgreen" font-weight="bold" font-size="69.060000">262</text>
<text x="1189.429517" y="466.394530" transform="rotate(-124.901813 1189.429517 466.394530)" fill="darkgreen" font-weight="bold" font-size="69.060000">262</text>
<text x="874.836599" y="124.566839" transform="rotate(-133.101687 874.836599 124.566839)" fill="darkgreen" font-weight="bold" font-size="69.060000">263</text>
<text x="1541.126020" y="963.007064" transform="rotate(-124.634393 1541.126020 963.007064)" fill="darkgreen" font-weight="bold" font-size="69.060000">263</text>
<text x="696.248715" y="490.976939" transform="rotate(-176.440583 696.248715 490.976939)" fill="darkgreen" font-weight="bold" font-size="69.060000">266</text>
<text x="775.130110" y="188.021518" transform="rotate(45.568448 775.130110 188.021518)" fill="darkgreen" font-weight="bold" font-size="69.060000">266</text>
<text x="951.669084" y="367.659114" transform="rotate(45.332915 951.669084 367.659114)" fill="darkgreen" font-weight="bold" font-size="69.060000">268</text>
<text x="947.855963" y="501.717234" transform="rotate(-178.221142 947.855963 501.717234)" fill="darkgreen" font-weight="bold" font-size="69.060000">268</text>
<text x="735.076814" y="594.025095" transform="rotate(-168.104164 735.076814 594.025095)" fill="darkgreen" font-weight="bold" font-size="69.060000">272</text>
<text x="629.930348" y="628.709331" transform="rotate(-0.403770 629.930348 628.709331)" fill="darkgreen" font-weight="bold" font-size="69.060000">272</text>
<text x="1824.971355" y="1002.761320" transform="rotate(139.108415 1824.971355 1002.761320)" fill="darkgreen" font-weight="bold" font-size="69.060000">278</text>
<text x="1775.237304" y="1076.292973" transform="rotate(-26.730528 1775.237304 1076.292973)" fill="darkgreen" font-weight="bold" font-size="69.060000">278</text>
<text x="1977.460427" y="842.666659" transform="rotate(151.910675 1977.460427 842.666659)" fill="darkgreen" font-weight="bold" font-size="69.060000">280</text>
<text x="203.915165" y="524.045952" transform="rotate(152.122082 203.915165 524.045952)" fill="darkgreen" font-weight="bold" font-size="69.060000">280</text>
<text x="2000.046829" y="962.730863" transform="rotate(-26.966061 2000.046829 962.730863)" fill="darkgreen" font-weight="bold" font-size="69.060000">281</text>
<text x="2012.102554" y="834.228013" transform="rotate(137.327856 2012.102554 834.228013)" fill="darkgreen" font-weight="bold" font-size="69.060000">281</text>
<text x="2014.464395" y="948.843245" transform="rotate(-72.328891 2014.464395 948.843245)" fill="darkgreen" font-weight="bold" font-size="69.060000">284</text>
<text x="2068.895145" y="3524.553687" transform="rotate(3.217771 2068.895145 3524.553687)" fill="darkgreen" font-weight="bold" font-size="69.060000">284</text>
<text x="1874.083837" y="1147.524236" transform="rotate(-44.854752 1874.083837 1147.524236)" fill="darkgreen" font-weight="bold" font-size="69.060000">286</text>
<text x="1901.931612" y="1064.875681" transform="rotate(120.984191 1901.931612 1064.875681)" fill="darkgreen" font-weight="bold" font-size="69.060000">286</text>
<text x="112.039773" y="315.840464" transform="rotate(169.239235 112.039773 315.840464)" fill="darkgreen" font-weight="bold" font-size="69.060000">287</text>
<text x="2166.398787" y="766.247449" transform="rotate(162.799191 2166.398787 766.247449)" fill="darkgreen" font-weight="bold" font-size="69.060000">287</text>
<text x="2152.555393" y="862.401537" transform="rotate(-67.511334 2152.555393 862.401537)" fill="darkgreen" font-weight="bold" font-size="69.060000">288</text>
<text x="1938.799316" y="3629.712429" transform="rotate(-1.599786 1938.799316 3629.712429)" fill="darkgreen" font-weight="bold" font-size="69.060000">288</text>
<text x="2307.428722" y="3508.924266" transform="rotate(20.067461 2307.428722 3508.924266)" fill="darkgreen" font-weight="bold" font-size="69.060000">289</text>
<text x="1938.779475" y="1170.027947" transform="rotate(-89.178580 1938.779475 1170.027947)" fill="darkgreen" font-weight="bold" font-size="69.060000">289</text>
<text x="1745.102579" y="962.013584" transform="rotate(154.599317 1745.102579 962.013584)" fill="darkgreen" font-weight="bold" font-size="69.060000">290</text>
<text x="670.626537" y="4.161236" transform="rotate(177.281433 670.626537 4.161236)" fill="darkgreen" font-weight="bold" font-size="69.060000">290</text>
<text x="376.943499" y="618.258301" transform="rotate(3.559407 376.943499 618.258301)" fill="darkgreen" font-weight="bold" font-size="69.060000">293</text>
<text x="497.793160" y="514.115046" transform="rotate(-149.979940 497.793160 514.115046)" fill="darkgreen" font-weight="bold" font-size="69.060000">293</text>
<text x="191.537556" y="473.091267" transform="rotate(28.661263 191.537556 473.091267)" fill="darkgreen" font-weight="bold" font-size="69.060000">295</text>
<text x="1471.630257" y="2938.742146" transform="rotate(172.888972 1471.630257 2938.742146)" fill="darkgreen" font-weight="bold" font-size="69.060000">295</text>
<text x="279.562475" y="388.373074" transform="rotate(-150.215472 279.562475 388.373074)" fill="darkgreen" font-weight="bold" font-size="69.060000">296</text>
<text x="125.336251" y="607.518007" transform="rotate(1.778848 125.336251 607.518007)" fill="darkgreen" font-weight="bold" font-size="69.060000">296</text>
<text x="567.950071" y="47.431406" transform="rotate(27.444224 567.950071 47.431406)" fill="darkgreen" font-weight="bold" font-size="69.060000">300</text>
<text x="443.261865" y="480.525909" transform="rotate(179.596220 443.261865 480.525909)" fill="darkgreen" font-weight="bold" font-size="69.060000">300</text>
<text x="1269.771612" y="2969.858616" transform="rotate(162.000455 1269.771612 2969.858616)" fill="darkgreen" font-weight="bold" font-size="69.060000">301</text>
<text x="24.036783" y="356.983167" transform="rotate(39.549780 24.036783 356.983167)" fill="darkgreen" font-weight="bold" font-size="69.060000">301</text>
<text x="418.744664" y="601.974112" transform="rotate(31.349905 418.744664 601.974112)" fill="darkgreen" font-weight="bold" font-size="69.060000">302</text>
<text x="1729.723744" y="2898.479588" transform="rotate(170.200330 1729.723744 2898.479588)" fill="darkgreen" font-weight="bold" font-size="69.060000">302</text>
<text x="1665.577193" y="3474.658276" transform="rotate(174.106011 1665.577193 3474.658276)" fill="darkgreen" font-weight="bold" font-size="69.060000">304</text>
<text x="1549.391820" y="3003.566037" transform="rotate(21.954014 1549.391820 3003.566037)" fill="darkgreen" font-weight="bold" font-size="69.060000">304</text>
<text x="1455.186045" y="2827.687411" transform="rotate(-160.228594 1455.186045 2827.687411)" fill="darkgreen" font-weight="bold" font-size="69.060000">306</text>
<text x="1358.131220" y="3071.999158" transform="rotate(-8.234273 1358.131220 3071.999158)" fill="darkgreen" font-weight="bold" font-size="69.060000">306</text>
<text x="1365.724548" y="2843.206004" transform="rotate(49.428153 1365.724548 2843.206004)" fill="darkgreen" font-weight="bold" font-size="69.060000">307</text>
<text x="2128.156101" y="3402.382867" transform="rotate(138.978186 2128.156101 3402.382867)" fill="darkgreen" font-weight="bold" font-size="69.060000">307</text>
<text x="1607.343316" y="3035.543980" transform="rotate(-8.469805 1607.343316 3035.543980)" fill="darkgreen" font-weight="bold" font-size="69.060000">311</text>
<text x="1693.983358" y="2907.680825" transform="rotate(-162.009152 1693.983358 2907.680825)" fill="darkgreen" font-weight="bold" font-size="69.060000">311</text>
<text x="1977.992068" y="3540.823867" transform="rotate(128.089669 1977.992068 3540.823867)" fill="darkgreen" font-weight="bold" font-size="69.060000">313</text>
<text x="1187.654211" y="3021.762188" transform="rotate(32.311000 1187.654211 3021.762188)" fill="darkgreen" font-weight="bold" font-size="69.060000">313</text>
<text x="1587.199997" y="3527.066566" transform="rotate(24.268802 1587.199997 3527.066566)" fill="darkgreen" font-weight="bold" font-size="69.060000">314</text>
<text x="2319.887221" y="3224.977966" transform="rotate(136.289544 2319.887221 3224.977966)" fill="darkgreen" font-weight="bold" font-size="69.060000">314</text>
<text x="2311.756774" y="3502.938040" transform="rotate(-24.256367 2311.756774 3502.938040)" fill="darkgreen" font-weight="bold" font-size="69.060000">316</text>
<text x="2381.755787" y="3450.914775" transform="rotate(169.904670 2381.755787 3450.914775)" fill="darkgreen" font-weight="bold" font-size="69.060000">316</text>
<text x="2119.600955" y="3449.233658" transform="rotate(153.561005 2119.600955 3449.233658)" fill="darkgreen" font-weight="bold" font-size="69.060000">318</text>
<text x="2108.306697" y="3576.295097" transform="rotate(-42.145059 2108.306697 3576.295097)" fill="darkgreen" font-weight="bold" font-size="69.060000">318</text>
<text x="2294.791229" y="3407.004909" transform="rotate(-42.380591 2294.791229 3407.004909)" fill="darkgreen" font-weight="bold" font-size="69.060000">322</text>
<text x="2342.597744" y="3332.205732" transform="rotate(151.780446 2342.597744 3332.205732)" fill="darkgreen" font-weight="bold" font-size="69.060000">322</text>
</svg>
